%TF.GenerationSoftware,KiCad,Pcbnew,9.0.3*%
%TF.CreationDate,2025-10-30T19:41:25+09:00*%
%TF.ProjectId,VCF_VCABoard,5643465f-5643-4414-926f-6172642e6b69,rev?*%
%TF.SameCoordinates,Original*%
%TF.FileFunction,Paste,Top*%
%TF.FilePolarity,Positive*%
%FSLAX46Y46*%
G04 Gerber Fmt 4.6, Leading zero omitted, Abs format (unit mm)*
G04 Created by KiCad (PCBNEW 9.0.3) date 2025-10-30 19:41:25*
%MOMM*%
%LPD*%
G01*
G04 APERTURE LIST*
G04 Aperture macros list*
%AMRoundRect*
0 Rectangle with rounded corners*
0 $1 Rounding radius*
0 $2 $3 $4 $5 $6 $7 $8 $9 X,Y pos of 4 corners*
0 Add a 4 corners polygon primitive as box body*
4,1,4,$2,$3,$4,$5,$6,$7,$8,$9,$2,$3,0*
0 Add four circle primitives for the rounded corners*
1,1,$1+$1,$2,$3*
1,1,$1+$1,$4,$5*
1,1,$1+$1,$6,$7*
1,1,$1+$1,$8,$9*
0 Add four rect primitives between the rounded corners*
20,1,$1+$1,$2,$3,$4,$5,0*
20,1,$1+$1,$4,$5,$6,$7,0*
20,1,$1+$1,$6,$7,$8,$9,0*
20,1,$1+$1,$8,$9,$2,$3,0*%
G04 Aperture macros list end*
%ADD10RoundRect,0.250000X0.350000X0.450000X-0.350000X0.450000X-0.350000X-0.450000X0.350000X-0.450000X0*%
%ADD11RoundRect,0.250000X0.475000X-0.337500X0.475000X0.337500X-0.475000X0.337500X-0.475000X-0.337500X0*%
%ADD12RoundRect,0.250000X0.450000X-0.350000X0.450000X0.350000X-0.450000X0.350000X-0.450000X-0.350000X0*%
%ADD13R,1.000000X0.800000*%
%ADD14RoundRect,0.250000X-0.450000X0.350000X-0.450000X-0.350000X0.450000X-0.350000X0.450000X0.350000X0*%
%ADD15RoundRect,0.250000X-0.350000X-0.450000X0.350000X-0.450000X0.350000X0.450000X-0.350000X0.450000X0*%
%ADD16RoundRect,0.250000X-0.475000X0.337500X-0.475000X-0.337500X0.475000X-0.337500X0.475000X0.337500X0*%
%ADD17RoundRect,0.150000X-0.825000X-0.150000X0.825000X-0.150000X0.825000X0.150000X-0.825000X0.150000X0*%
%ADD18R,0.600000X1.200000*%
%ADD19RoundRect,0.150000X0.150000X-0.825000X0.150000X0.825000X-0.150000X0.825000X-0.150000X-0.825000X0*%
%ADD20RoundRect,0.150000X0.587500X0.150000X-0.587500X0.150000X-0.587500X-0.150000X0.587500X-0.150000X0*%
%ADD21RoundRect,0.250000X-0.337500X-0.475000X0.337500X-0.475000X0.337500X0.475000X-0.337500X0.475000X0*%
%ADD22R,0.800000X1.000000*%
G04 APERTURE END LIST*
D10*
%TO.C,R80*%
X149359000Y-129488000D03*
X147359000Y-129488000D03*
%TD*%
D11*
%TO.C,C4*%
X88392000Y-129812500D03*
X88392000Y-127737500D03*
%TD*%
D12*
%TO.C,R46*%
X90058000Y-95581000D03*
X90058000Y-93581000D03*
%TD*%
%TO.C,R29*%
X90805000Y-134347000D03*
X90805000Y-132347000D03*
%TD*%
D13*
%TO.C,Q5*%
X119636000Y-97533000D03*
X119636000Y-99433000D03*
X122036000Y-98483000D03*
%TD*%
%TO.C,Q4*%
X143876000Y-97594000D03*
X143876000Y-99494000D03*
X146276000Y-98544000D03*
%TD*%
D12*
%TO.C,R64*%
X138303000Y-135047000D03*
X138303000Y-133047000D03*
%TD*%
%TO.C,R30*%
X110871000Y-133526000D03*
X110871000Y-131526000D03*
%TD*%
D14*
%TO.C,R27*%
X90932000Y-127794000D03*
X90932000Y-129794000D03*
%TD*%
D15*
%TO.C,R60*%
X129925000Y-94353000D03*
X131925000Y-94353000D03*
%TD*%
D14*
%TO.C,R28*%
X108712000Y-127462000D03*
X108712000Y-129462000D03*
%TD*%
D12*
%TO.C,R71*%
X121158000Y-141651000D03*
X121158000Y-139651000D03*
%TD*%
D15*
%TO.C,R83*%
X114445000Y-97528000D03*
X116445000Y-97528000D03*
%TD*%
%TO.C,R78*%
X106144000Y-95115000D03*
X108144000Y-95115000D03*
%TD*%
D12*
%TO.C,R87*%
X103759000Y-143178000D03*
X103759000Y-141178000D03*
%TD*%
D16*
%TO.C,C10*%
X107061000Y-141181000D03*
X107061000Y-143256000D03*
%TD*%
D17*
%TO.C,U3*%
X130309000Y-97053000D03*
X130309000Y-98323000D03*
X130309000Y-99593000D03*
X130309000Y-100863000D03*
X135259000Y-100863000D03*
X135259000Y-99593000D03*
X135259000Y-98323000D03*
X135259000Y-97053000D03*
%TD*%
D12*
%TO.C,R52*%
X126845000Y-102211000D03*
X126845000Y-100211000D03*
%TD*%
D18*
%TO.C,IC1*%
X85364000Y-95942000D03*
X86314000Y-95942000D03*
X87264000Y-95942000D03*
X87264000Y-93442000D03*
X85364000Y-93442000D03*
%TD*%
D14*
%TO.C,R58*%
X131445000Y-128413000D03*
X131445000Y-130413000D03*
%TD*%
D10*
%TO.C,R56*%
X123301000Y-128713000D03*
X121301000Y-128713000D03*
%TD*%
D12*
%TO.C,R92*%
X88773000Y-143240000D03*
X88773000Y-141240000D03*
%TD*%
D14*
%TO.C,R93*%
X110744000Y-136352000D03*
X110744000Y-138352000D03*
%TD*%
%TO.C,R3*%
X98425000Y-127335000D03*
X98425000Y-129335000D03*
%TD*%
%TO.C,R26*%
X100838000Y-127335000D03*
X100838000Y-129335000D03*
%TD*%
D19*
%TO.C,U2*%
X79502000Y-137919000D03*
X80772000Y-137919000D03*
X82042000Y-137919000D03*
X83312000Y-137919000D03*
X84582000Y-137919000D03*
X85852000Y-137919000D03*
X87122000Y-137919000D03*
X88392000Y-137919000D03*
X88392000Y-132969000D03*
X87122000Y-132969000D03*
X85852000Y-132969000D03*
X84582000Y-132969000D03*
X83312000Y-132969000D03*
X82042000Y-132969000D03*
X80772000Y-132969000D03*
X79502000Y-132969000D03*
%TD*%
D10*
%TO.C,R84*%
X145930000Y-140410000D03*
X143930000Y-140410000D03*
%TD*%
%TO.C,R86*%
X121541000Y-102354000D03*
X119541000Y-102354000D03*
%TD*%
D12*
%TO.C,R91*%
X110744000Y-142970000D03*
X110744000Y-140970000D03*
%TD*%
D10*
%TO.C,R49*%
X90523000Y-101973000D03*
X88523000Y-101973000D03*
%TD*%
D11*
%TO.C,C8*%
X106299000Y-129434500D03*
X106299000Y-127359500D03*
%TD*%
D14*
%TO.C,R63*%
X135001000Y-128332000D03*
X135001000Y-130332000D03*
%TD*%
D12*
%TO.C,R77*%
X138303000Y-139238000D03*
X138303000Y-137238000D03*
%TD*%
%TO.C,R74*%
X100330000Y-98266000D03*
X100330000Y-96266000D03*
%TD*%
%TO.C,R75*%
X135001000Y-143302000D03*
X135001000Y-141302000D03*
%TD*%
D17*
%TO.C,U4*%
X106366000Y-97655000D03*
X106366000Y-98925000D03*
X106366000Y-100195000D03*
X106366000Y-101465000D03*
X111316000Y-101465000D03*
X111316000Y-100195000D03*
X111316000Y-98925000D03*
X111316000Y-97655000D03*
%TD*%
D14*
%TO.C,R14*%
X83566000Y-127759000D03*
X83566000Y-129759000D03*
%TD*%
%TO.C,R54*%
X121158000Y-130888000D03*
X121158000Y-132888000D03*
%TD*%
%TO.C,R59*%
X129159000Y-128413000D03*
X129159000Y-130413000D03*
%TD*%
D15*
%TO.C,R85*%
X143168000Y-129488000D03*
X145168000Y-129488000D03*
%TD*%
D12*
%TO.C,R57*%
X126873000Y-96488000D03*
X126873000Y-94488000D03*
%TD*%
D19*
%TO.C,U8*%
X127127000Y-138427000D03*
X128397000Y-138427000D03*
X129667000Y-138427000D03*
X130937000Y-138427000D03*
X132207000Y-138427000D03*
X133477000Y-138427000D03*
X134747000Y-138427000D03*
X136017000Y-138427000D03*
X136017000Y-133477000D03*
X134747000Y-133477000D03*
X133477000Y-133477000D03*
X132207000Y-133477000D03*
X130937000Y-133477000D03*
X129667000Y-133477000D03*
X128397000Y-133477000D03*
X127127000Y-133477000D03*
%TD*%
D12*
%TO.C,R90*%
X81534000Y-143224000D03*
X81534000Y-141224000D03*
%TD*%
D14*
%TO.C,R18*%
X81026000Y-127759000D03*
X81026000Y-129759000D03*
%TD*%
D11*
%TO.C,C5*%
X123571000Y-136989500D03*
X123571000Y-134914500D03*
%TD*%
D14*
%TO.C,R31*%
X99060000Y-141224000D03*
X99060000Y-143224000D03*
%TD*%
D10*
%TO.C,R62*%
X140545000Y-102100000D03*
X138545000Y-102100000D03*
%TD*%
D20*
%TO.C,Q7*%
X85951000Y-100703000D03*
X85951000Y-98803000D03*
X84076000Y-99753000D03*
%TD*%
D14*
%TO.C,R15*%
X103124000Y-127397000D03*
X103124000Y-129397000D03*
%TD*%
D10*
%TO.C,R50*%
X90553000Y-98290000D03*
X88553000Y-98290000D03*
%TD*%
D21*
%TO.C,C3*%
X74273500Y-127889000D03*
X76348500Y-127889000D03*
%TD*%
D12*
%TO.C,R89*%
X101346000Y-143224000D03*
X101346000Y-141224000D03*
%TD*%
D16*
%TO.C,C11*%
X86487000Y-141202500D03*
X86487000Y-143277500D03*
%TD*%
D12*
%TO.C,R72*%
X131445000Y-143367000D03*
X131445000Y-141367000D03*
%TD*%
%TO.C,R79*%
X149098000Y-142478000D03*
X149098000Y-140478000D03*
%TD*%
D13*
%TO.C,Q3*%
X93584000Y-98991000D03*
X93584000Y-100891000D03*
X95984000Y-99941000D03*
%TD*%
D11*
%TO.C,C6*%
X121158000Y-136989500D03*
X121158000Y-134914500D03*
%TD*%
D10*
%TO.C,R81*%
X116429000Y-99814000D03*
X114429000Y-99814000D03*
%TD*%
D11*
%TO.C,C7*%
X140589000Y-135211500D03*
X140589000Y-133136500D03*
%TD*%
D12*
%TO.C,R51*%
X80871000Y-103465000D03*
X80871000Y-101465000D03*
%TD*%
D19*
%TO.C,U5*%
X99060000Y-137662000D03*
X100330000Y-137662000D03*
X101600000Y-137662000D03*
X102870000Y-137662000D03*
X104140000Y-137662000D03*
X105410000Y-137662000D03*
X106680000Y-137662000D03*
X107950000Y-137662000D03*
X107950000Y-132712000D03*
X106680000Y-132712000D03*
X105410000Y-132712000D03*
X104140000Y-132712000D03*
X102870000Y-132712000D03*
X101600000Y-132712000D03*
X100330000Y-132712000D03*
X99060000Y-132712000D03*
%TD*%
D10*
%TO.C,R82*%
X116445000Y-102227000D03*
X114445000Y-102227000D03*
%TD*%
D12*
%TO.C,R88*%
X83947000Y-143240000D03*
X83947000Y-141240000D03*
%TD*%
%TO.C,R73*%
X129159000Y-143367000D03*
X129159000Y-141367000D03*
%TD*%
D19*
%TO.C,U6*%
X144653000Y-137616000D03*
X145923000Y-137616000D03*
X147193000Y-137616000D03*
X148463000Y-137616000D03*
X148463000Y-132666000D03*
X147193000Y-132666000D03*
X145923000Y-132666000D03*
X144653000Y-132666000D03*
%TD*%
D14*
%TO.C,R53*%
X123571000Y-130888000D03*
X123571000Y-132888000D03*
%TD*%
%TO.C,R2*%
X78613000Y-127778000D03*
X78613000Y-129778000D03*
%TD*%
D22*
%TO.C,Q2*%
X154018000Y-98290000D03*
X152118000Y-98290000D03*
X153068000Y-100690000D03*
%TD*%
D12*
%TO.C,R76*%
X102683000Y-98401000D03*
X102683000Y-96401000D03*
%TD*%
D14*
%TO.C,R1*%
X85979000Y-127775000D03*
X85979000Y-129775000D03*
%TD*%
D10*
%TO.C,R68*%
X147161000Y-103124000D03*
X145161000Y-103124000D03*
%TD*%
D15*
%TO.C,R65*%
X138672000Y-97274000D03*
X140672000Y-97274000D03*
%TD*%
D12*
%TO.C,R47*%
X80871000Y-99290000D03*
X80871000Y-97290000D03*
%TD*%
D14*
%TO.C,R48*%
X80871000Y-93099000D03*
X80871000Y-95099000D03*
%TD*%
D10*
%TO.C,R33*%
X154007000Y-94988000D03*
X152007000Y-94988000D03*
%TD*%
D14*
%TO.C,R94*%
X90932000Y-136665000D03*
X90932000Y-138665000D03*
%TD*%
D10*
%TO.C,R61*%
X140545000Y-99687000D03*
X138545000Y-99687000D03*
%TD*%
D14*
%TO.C,R32*%
X79121000Y-141240000D03*
X79121000Y-143240000D03*
%TD*%
M02*
