M48
; DRILL file {KiCad 9.0.3} date 2025-10-30T19:41:28+0900
; FORMAT={-:-/ absolute / metric / decimal}
; #@! TF.CreationDate,2025-10-30T19:41:28+09:00
; #@! TF.GenerationSoftware,Kicad,Pcbnew,9.0.3
; #@! TF.FileFunction,Plated,1,2,PTH
FMAT,2
METRIC
; #@! TA.AperFunction,Plated,PTH,ViaDrill
T1C0.300
; #@! TA.AperFunction,Plated,PTH,ComponentDrill
T2C0.690
; #@! TA.AperFunction,Plated,PTH,ComponentDrill
T3C0.700
; #@! TA.AperFunction,Plated,PTH,ComponentDrill
T4C1.000
; #@! TA.AperFunction,Plated,PTH,ComponentDrill
T5C1.200
; #@! TA.AperFunction,Plated,PTH,ComponentDrill
T6C2.970
%
G90
G05
T1
X79.429Y-102.25
X82.166Y-99.292
X82.296Y-92.075
X82.733Y-131.177
X84.198Y-97.355
X85.364Y-92.222
X85.908Y-131.185
X86.172Y-99.753
X86.314Y-93.79
X88.011Y-125.476
X88.234Y-94.917
X89.003Y-120.577
X89.597Y-134.768
X89.79Y-96.885
X90.101Y-140.641
X91.186Y-125.476
X91.95Y-123.9
X92.837Y-103.465
X92.964Y-131.064
X95.25Y-125.984
X96.139Y-101.6
X99.301Y-136.165
X100.33Y-99.822
X100.409Y-139.63
X100.813Y-134.648
X103.739Y-91.08
X103.886Y-119.253
X104.14Y-100.584
X105.41Y-130.81
X107.95Y-125.857
X112.58Y-124.736
X113.538Y-103.886
X115.527Y-139.918
X117.475Y-103.886
X117.587Y-137.34
X117.602Y-119.253
X117.993Y-102.572
X118.237Y-94.996
X118.474Y-137.317
X124.368Y-88.208
X124.368Y-102.218
X125.057Y-133.039
X125.603Y-96.52
X125.603Y-98.933
X130.427Y-102.843
X130.598Y-136.825
X131.445Y-125.349
X133.04Y-101.149
X135.763Y-125.349
X136.972Y-130.819
X138.846Y-93.696
X143.677Y-139.095
X148.971Y-98.679
X148.971Y-103.124
X150.892Y-137.045
X153.745Y-133.83
X154.391Y-101.163
T2
X72.616Y-96.411
X75.156Y-93.871
X77.696Y-96.411
X152.4Y-130.66
X152.654Y-140.768
X154.94Y-128.12
X155.194Y-143.308
X157.452Y-98.189
X157.48Y-130.66
X157.734Y-140.768
X159.992Y-95.649
X162.532Y-98.189
T3
X77.818Y-106.53
X85.438Y-106.53
X116.045Y-106.657
X123.665Y-106.657
X135.095Y-106.657
X142.715Y-106.657
X150.335Y-106.657
X157.955Y-106.657
T4
X69.723Y-102.362
X69.723Y-104.902
X69.723Y-107.442
X69.723Y-109.982
X69.723Y-112.522
X69.723Y-115.062
X77.0Y-88.0
X79.54Y-88.0
X82.08Y-88.0
X87.0Y-88.0
X89.54Y-88.0
X92.08Y-88.0
X94.62Y-88.0
X97.16Y-88.0
X102.0Y-88.0
X104.54Y-88.0
X107.08Y-88.0
X109.62Y-88.0
X112.16Y-88.0
X115.443Y-129.299
X115.443Y-131.839
X115.443Y-134.379
X137.0Y-88.0
X139.54Y-88.0
X142.08Y-88.0
X144.62Y-88.0
X147.16Y-88.0
X149.7Y-88.0
X164.084Y-107.061
X164.084Y-109.601
T5
X78.707Y-122.279
X81.207Y-122.279
X83.707Y-122.279
X98.183Y-122.166
X100.683Y-122.166
X103.183Y-122.166
X117.188Y-122.151
X119.688Y-122.151
X122.188Y-122.151
X135.14Y-122.166
X137.64Y-122.166
X140.14Y-122.166
X152.158Y-122.166
X154.658Y-122.166
X157.158Y-122.166
T6
X76.807Y-115.279
X85.607Y-115.279
X96.283Y-115.166
X105.083Y-115.166
X115.288Y-115.151
X124.088Y-115.151
X133.24Y-115.166
X142.04Y-115.166
X150.258Y-115.166
X159.058Y-115.166
M30
