%TF.GenerationSoftware,KiCad,Pcbnew,8.0.8*%
%TF.CreationDate,2025-06-29T12:39:58+09:00*%
%TF.ProjectId,EGSeparate,45475365-7061-4726-9174-652e6b696361,rev?*%
%TF.SameCoordinates,Original*%
%TF.FileFunction,Soldermask,Bot*%
%TF.FilePolarity,Negative*%
%FSLAX46Y46*%
G04 Gerber Fmt 4.6, Leading zero omitted, Abs format (unit mm)*
G04 Created by KiCad (PCBNEW 8.0.8) date 2025-06-29 12:39:58*
%MOMM*%
%LPD*%
G01*
G04 APERTURE LIST*
G04 Aperture macros list*
%AMRoundRect*
0 Rectangle with rounded corners*
0 $1 Rounding radius*
0 $2 $3 $4 $5 $6 $7 $8 $9 X,Y pos of 4 corners*
0 Add a 4 corners polygon primitive as box body*
4,1,4,$2,$3,$4,$5,$6,$7,$8,$9,$2,$3,0*
0 Add four circle primitives for the rounded corners*
1,1,$1+$1,$2,$3*
1,1,$1+$1,$4,$5*
1,1,$1+$1,$6,$7*
1,1,$1+$1,$8,$9*
0 Add four rect primitives between the rounded corners*
20,1,$1+$1,$2,$3,$4,$5,0*
20,1,$1+$1,$4,$5,$6,$7,0*
20,1,$1+$1,$6,$7,$8,$9,0*
20,1,$1+$1,$8,$9,$2,$3,0*%
G04 Aperture macros list end*
%ADD10C,1.800000*%
%ADD11C,4.455000*%
%ADD12R,1.159000X1.159000*%
%ADD13C,1.159000*%
%ADD14C,1.400000*%
%ADD15O,1.400000X1.400000*%
%ADD16R,1.600000X1.600000*%
%ADD17C,1.600000*%
%ADD18R,1.700000X1.700000*%
%ADD19O,1.700000X1.700000*%
%ADD20C,1.635000*%
%ADD21RoundRect,0.250000X0.337500X0.475000X-0.337500X0.475000X-0.337500X-0.475000X0.337500X-0.475000X0*%
%ADD22RoundRect,0.250000X0.475000X-0.337500X0.475000X0.337500X-0.475000X0.337500X-0.475000X-0.337500X0*%
G04 APERTURE END LIST*
D10*
%TO.C,VR5*%
X82630000Y-71374000D03*
X85130000Y-71374000D03*
X87630000Y-71374000D03*
D11*
X80730000Y-64374000D03*
X89530000Y-64374000D03*
%TD*%
D12*
%TO.C,IC2*%
X99314000Y-57404000D03*
D13*
X99314000Y-59944000D03*
X99314000Y-62484000D03*
X99314000Y-65024000D03*
X107124000Y-65024000D03*
X107124000Y-62484000D03*
X107124000Y-59944000D03*
X107124000Y-57404000D03*
%TD*%
D14*
%TO.C,R3*%
X109985000Y-57284000D03*
D15*
X109985000Y-59824000D03*
%TD*%
D10*
%TO.C,VR3*%
X119505000Y-49080000D03*
X122005000Y-49080000D03*
X124505000Y-49080000D03*
D11*
X117605000Y-42080000D03*
X126405000Y-42080000D03*
%TD*%
D16*
%TO.C,C3*%
X157099000Y-59182000D03*
D17*
X157099000Y-61682000D03*
%TD*%
D18*
%TO.C,J6*%
X100457000Y-73533000D03*
D19*
X102997000Y-73533000D03*
X105537000Y-73533000D03*
%TD*%
D14*
%TO.C,R1*%
X94033000Y-62441000D03*
D15*
X96573000Y-62441000D03*
%TD*%
D14*
%TO.C,R2*%
X109654000Y-62441000D03*
D15*
X112194000Y-62441000D03*
%TD*%
D10*
%TO.C,VR1*%
X82889000Y-48910000D03*
X85389000Y-48910000D03*
X87889000Y-48910000D03*
D11*
X80989000Y-41910000D03*
X89789000Y-41910000D03*
%TD*%
D17*
%TO.C,C1*%
X94003000Y-65108000D03*
X96503000Y-65108000D03*
%TD*%
D18*
%TO.C,J5*%
X100415000Y-69889000D03*
D19*
X102955000Y-69889000D03*
X105495000Y-69889000D03*
%TD*%
D18*
%TO.C,J1*%
X129032000Y-76454000D03*
D19*
X126492000Y-76454000D03*
X123952000Y-76454000D03*
X121412000Y-76454000D03*
X118872000Y-76454000D03*
%TD*%
D20*
%TO.C,SW1*%
X157861000Y-41275000D03*
X157861000Y-43815000D03*
X157861000Y-46355000D03*
X157861000Y-38735000D03*
X157861000Y-48895000D03*
%TD*%
D10*
%TO.C,VR4*%
X138174000Y-49080000D03*
X140674000Y-49080000D03*
X143174000Y-49080000D03*
D11*
X136274000Y-42080000D03*
X145074000Y-42080000D03*
%TD*%
D14*
%TO.C,R4*%
X96523000Y-59901000D03*
D15*
X96523000Y-57361000D03*
%TD*%
D18*
%TO.C,J4*%
X152273000Y-73152000D03*
D19*
X149733000Y-73152000D03*
X147193000Y-73152000D03*
X144653000Y-73152000D03*
%TD*%
D10*
%TO.C,VR2*%
X101045000Y-49052000D03*
X103545000Y-49052000D03*
X106045000Y-49052000D03*
D11*
X99145000Y-42052000D03*
X107945000Y-42052000D03*
%TD*%
D17*
%TO.C,C2*%
X109644000Y-65108000D03*
X112144000Y-65108000D03*
%TD*%
D12*
%TO.C,IC3*%
X118999000Y-65405000D03*
D13*
X121539000Y-65405000D03*
X124079000Y-65405000D03*
X126619000Y-65405000D03*
X129159000Y-65405000D03*
X131699000Y-65405000D03*
X134239000Y-65405000D03*
X136779000Y-65405000D03*
X139319000Y-65405000D03*
X141859000Y-65405000D03*
X141859000Y-57467000D03*
X139319000Y-57467000D03*
X136779000Y-57467000D03*
X134239000Y-57467000D03*
X131699000Y-57467000D03*
X129159000Y-57467000D03*
X126619000Y-57467000D03*
X124079000Y-57467000D03*
X121539000Y-57467000D03*
X118999000Y-57467000D03*
%TD*%
D18*
%TO.C,J2*%
X163217200Y-59248000D03*
D19*
X163217200Y-61788000D03*
%TD*%
D18*
%TO.C,J7*%
X152263000Y-69342000D03*
D19*
X149723000Y-69342000D03*
X147183000Y-69342000D03*
X144643000Y-69342000D03*
%TD*%
D21*
%TO.C,C5*%
X104637500Y-53848000D03*
X102562500Y-53848000D03*
%TD*%
D22*
%TO.C,C4*%
X114554000Y-62187500D03*
X114554000Y-60112500D03*
%TD*%
M02*
