%TF.GenerationSoftware,KiCad,Pcbnew,8.0.8*%
%TF.CreationDate,2025-06-29T12:39:58+09:00*%
%TF.ProjectId,EGSeparate,45475365-7061-4726-9174-652e6b696361,rev?*%
%TF.SameCoordinates,Original*%
%TF.FileFunction,Legend,Top*%
%TF.FilePolarity,Positive*%
%FSLAX46Y46*%
G04 Gerber Fmt 4.6, Leading zero omitted, Abs format (unit mm)*
G04 Created by KiCad (PCBNEW 8.0.8) date 2025-06-29 12:39:58*
%MOMM*%
%LPD*%
G01*
G04 APERTURE LIST*
%ADD10C,0.200000*%
%ADD11C,0.150000*%
%ADD12C,0.300000*%
%ADD13C,0.254000*%
%ADD14C,0.100000*%
%ADD15C,0.120000*%
G04 APERTURE END LIST*
D10*
X165982466Y-60271326D02*
X165982466Y-59509422D01*
X166363419Y-59890374D02*
X165601514Y-59890374D01*
X165363419Y-58557041D02*
X165363419Y-59033231D01*
X165363419Y-59033231D02*
X165839609Y-59080850D01*
X165839609Y-59080850D02*
X165791990Y-59033231D01*
X165791990Y-59033231D02*
X165744371Y-58937993D01*
X165744371Y-58937993D02*
X165744371Y-58699898D01*
X165744371Y-58699898D02*
X165791990Y-58604660D01*
X165791990Y-58604660D02*
X165839609Y-58557041D01*
X165839609Y-58557041D02*
X165934847Y-58509422D01*
X165934847Y-58509422D02*
X166172942Y-58509422D01*
X166172942Y-58509422D02*
X166268180Y-58557041D01*
X166268180Y-58557041D02*
X166315800Y-58604660D01*
X166315800Y-58604660D02*
X166363419Y-58699898D01*
X166363419Y-58699898D02*
X166363419Y-58937993D01*
X166363419Y-58937993D02*
X166315800Y-59033231D01*
X166315800Y-59033231D02*
X166268180Y-59080850D01*
X165363419Y-58223707D02*
X166363419Y-57890374D01*
X166363419Y-57890374D02*
X165363419Y-57557041D01*
X166363419Y-57223707D02*
X165363419Y-57223707D01*
X165363419Y-57223707D02*
X165363419Y-56985612D01*
X165363419Y-56985612D02*
X165411038Y-56842755D01*
X165411038Y-56842755D02*
X165506276Y-56747517D01*
X165506276Y-56747517D02*
X165601514Y-56699898D01*
X165601514Y-56699898D02*
X165791990Y-56652279D01*
X165791990Y-56652279D02*
X165934847Y-56652279D01*
X165934847Y-56652279D02*
X166125323Y-56699898D01*
X166125323Y-56699898D02*
X166220561Y-56747517D01*
X166220561Y-56747517D02*
X166315800Y-56842755D01*
X166315800Y-56842755D02*
X166363419Y-56985612D01*
X166363419Y-56985612D02*
X166363419Y-57223707D01*
D11*
X159321857Y-56650931D02*
X159321857Y-55650931D01*
X159321857Y-55650931D02*
X159559952Y-55650931D01*
X159559952Y-55650931D02*
X159702809Y-55698550D01*
X159702809Y-55698550D02*
X159798047Y-55793788D01*
X159798047Y-55793788D02*
X159845666Y-55889026D01*
X159845666Y-55889026D02*
X159893285Y-56079502D01*
X159893285Y-56079502D02*
X159893285Y-56222359D01*
X159893285Y-56222359D02*
X159845666Y-56412835D01*
X159845666Y-56412835D02*
X159798047Y-56508073D01*
X159798047Y-56508073D02*
X159702809Y-56603312D01*
X159702809Y-56603312D02*
X159559952Y-56650931D01*
X159559952Y-56650931D02*
X159321857Y-56650931D01*
X160083762Y-56746169D02*
X160845666Y-56746169D01*
X161083762Y-56650931D02*
X161083762Y-55650931D01*
X161083762Y-55650931D02*
X161464714Y-55650931D01*
X161464714Y-55650931D02*
X161559952Y-55698550D01*
X161559952Y-55698550D02*
X161607571Y-55746169D01*
X161607571Y-55746169D02*
X161655190Y-55841407D01*
X161655190Y-55841407D02*
X161655190Y-55984264D01*
X161655190Y-55984264D02*
X161607571Y-56079502D01*
X161607571Y-56079502D02*
X161559952Y-56127121D01*
X161559952Y-56127121D02*
X161464714Y-56174740D01*
X161464714Y-56174740D02*
X161083762Y-56174740D01*
X162226619Y-56650931D02*
X162131381Y-56603312D01*
X162131381Y-56603312D02*
X162083762Y-56555692D01*
X162083762Y-56555692D02*
X162036143Y-56460454D01*
X162036143Y-56460454D02*
X162036143Y-56174740D01*
X162036143Y-56174740D02*
X162083762Y-56079502D01*
X162083762Y-56079502D02*
X162131381Y-56031883D01*
X162131381Y-56031883D02*
X162226619Y-55984264D01*
X162226619Y-55984264D02*
X162369476Y-55984264D01*
X162369476Y-55984264D02*
X162464714Y-56031883D01*
X162464714Y-56031883D02*
X162512333Y-56079502D01*
X162512333Y-56079502D02*
X162559952Y-56174740D01*
X162559952Y-56174740D02*
X162559952Y-56460454D01*
X162559952Y-56460454D02*
X162512333Y-56555692D01*
X162512333Y-56555692D02*
X162464714Y-56603312D01*
X162464714Y-56603312D02*
X162369476Y-56650931D01*
X162369476Y-56650931D02*
X162226619Y-56650931D01*
X162893286Y-55984264D02*
X163083762Y-56650931D01*
X163083762Y-56650931D02*
X163274238Y-56174740D01*
X163274238Y-56174740D02*
X163464714Y-56650931D01*
X163464714Y-56650931D02*
X163655190Y-55984264D01*
X164417095Y-56603312D02*
X164321857Y-56650931D01*
X164321857Y-56650931D02*
X164131381Y-56650931D01*
X164131381Y-56650931D02*
X164036143Y-56603312D01*
X164036143Y-56603312D02*
X163988524Y-56508073D01*
X163988524Y-56508073D02*
X163988524Y-56127121D01*
X163988524Y-56127121D02*
X164036143Y-56031883D01*
X164036143Y-56031883D02*
X164131381Y-55984264D01*
X164131381Y-55984264D02*
X164321857Y-55984264D01*
X164321857Y-55984264D02*
X164417095Y-56031883D01*
X164417095Y-56031883D02*
X164464714Y-56127121D01*
X164464714Y-56127121D02*
X164464714Y-56222359D01*
X164464714Y-56222359D02*
X163988524Y-56317597D01*
X164893286Y-56650931D02*
X164893286Y-55984264D01*
X164893286Y-56174740D02*
X164940905Y-56079502D01*
X164940905Y-56079502D02*
X164988524Y-56031883D01*
X164988524Y-56031883D02*
X165083762Y-55984264D01*
X165083762Y-55984264D02*
X165179000Y-55984264D01*
D10*
X149981219Y-79846755D02*
X149457409Y-79846755D01*
X149457409Y-79846755D02*
X149362171Y-79894374D01*
X149362171Y-79894374D02*
X149314552Y-79989612D01*
X149314552Y-79989612D02*
X149314552Y-80180088D01*
X149314552Y-80180088D02*
X149362171Y-80275326D01*
X149933600Y-79846755D02*
X149981219Y-79941993D01*
X149981219Y-79941993D02*
X149981219Y-80180088D01*
X149981219Y-80180088D02*
X149933600Y-80275326D01*
X149933600Y-80275326D02*
X149838361Y-80322945D01*
X149838361Y-80322945D02*
X149743123Y-80322945D01*
X149743123Y-80322945D02*
X149647885Y-80275326D01*
X149647885Y-80275326D02*
X149600266Y-80180088D01*
X149600266Y-80180088D02*
X149600266Y-79941993D01*
X149600266Y-79941993D02*
X149552647Y-79846755D01*
X149933600Y-78941993D02*
X149981219Y-79037231D01*
X149981219Y-79037231D02*
X149981219Y-79227707D01*
X149981219Y-79227707D02*
X149933600Y-79322945D01*
X149933600Y-79322945D02*
X149885980Y-79370564D01*
X149885980Y-79370564D02*
X149790742Y-79418183D01*
X149790742Y-79418183D02*
X149505028Y-79418183D01*
X149505028Y-79418183D02*
X149409790Y-79370564D01*
X149409790Y-79370564D02*
X149362171Y-79322945D01*
X149362171Y-79322945D02*
X149314552Y-79227707D01*
X149314552Y-79227707D02*
X149314552Y-79037231D01*
X149314552Y-79037231D02*
X149362171Y-78941993D01*
X149933600Y-78084850D02*
X149981219Y-78180088D01*
X149981219Y-78180088D02*
X149981219Y-78370564D01*
X149981219Y-78370564D02*
X149933600Y-78465802D01*
X149933600Y-78465802D02*
X149885980Y-78513421D01*
X149885980Y-78513421D02*
X149790742Y-78561040D01*
X149790742Y-78561040D02*
X149505028Y-78561040D01*
X149505028Y-78561040D02*
X149409790Y-78513421D01*
X149409790Y-78513421D02*
X149362171Y-78465802D01*
X149362171Y-78465802D02*
X149314552Y-78370564D01*
X149314552Y-78370564D02*
X149314552Y-78180088D01*
X149314552Y-78180088D02*
X149362171Y-78084850D01*
X149695504Y-77703897D02*
X149695504Y-77227707D01*
X149981219Y-77799135D02*
X148981219Y-77465802D01*
X148981219Y-77465802D02*
X149981219Y-77132469D01*
X149981219Y-76799135D02*
X149314552Y-76799135D01*
X149409790Y-76799135D02*
X149362171Y-76751516D01*
X149362171Y-76751516D02*
X149314552Y-76656278D01*
X149314552Y-76656278D02*
X149314552Y-76513421D01*
X149314552Y-76513421D02*
X149362171Y-76418183D01*
X149362171Y-76418183D02*
X149457409Y-76370564D01*
X149457409Y-76370564D02*
X149981219Y-76370564D01*
X149457409Y-76370564D02*
X149362171Y-76322945D01*
X149362171Y-76322945D02*
X149314552Y-76227707D01*
X149314552Y-76227707D02*
X149314552Y-76084850D01*
X149314552Y-76084850D02*
X149362171Y-75989611D01*
X149362171Y-75989611D02*
X149457409Y-75941992D01*
X149457409Y-75941992D02*
X149981219Y-75941992D01*
X149314552Y-75465802D02*
X150314552Y-75465802D01*
X149362171Y-75465802D02*
X149314552Y-75370564D01*
X149314552Y-75370564D02*
X149314552Y-75180088D01*
X149314552Y-75180088D02*
X149362171Y-75084850D01*
X149362171Y-75084850D02*
X149409790Y-75037231D01*
X149409790Y-75037231D02*
X149505028Y-74989612D01*
X149505028Y-74989612D02*
X149790742Y-74989612D01*
X149790742Y-74989612D02*
X149885980Y-75037231D01*
X149885980Y-75037231D02*
X149933600Y-75084850D01*
X149933600Y-75084850D02*
X149981219Y-75180088D01*
X149981219Y-75180088D02*
X149981219Y-75370564D01*
X149981219Y-75370564D02*
X149933600Y-75465802D01*
D12*
X137555653Y-34471828D02*
X137055653Y-33757542D01*
X136698510Y-34471828D02*
X136698510Y-32971828D01*
X136698510Y-32971828D02*
X137269939Y-32971828D01*
X137269939Y-32971828D02*
X137412796Y-33043257D01*
X137412796Y-33043257D02*
X137484225Y-33114685D01*
X137484225Y-33114685D02*
X137555653Y-33257542D01*
X137555653Y-33257542D02*
X137555653Y-33471828D01*
X137555653Y-33471828D02*
X137484225Y-33614685D01*
X137484225Y-33614685D02*
X137412796Y-33686114D01*
X137412796Y-33686114D02*
X137269939Y-33757542D01*
X137269939Y-33757542D02*
X136698510Y-33757542D01*
X138769939Y-34400400D02*
X138627082Y-34471828D01*
X138627082Y-34471828D02*
X138341368Y-34471828D01*
X138341368Y-34471828D02*
X138198510Y-34400400D01*
X138198510Y-34400400D02*
X138127082Y-34257542D01*
X138127082Y-34257542D02*
X138127082Y-33686114D01*
X138127082Y-33686114D02*
X138198510Y-33543257D01*
X138198510Y-33543257D02*
X138341368Y-33471828D01*
X138341368Y-33471828D02*
X138627082Y-33471828D01*
X138627082Y-33471828D02*
X138769939Y-33543257D01*
X138769939Y-33543257D02*
X138841368Y-33686114D01*
X138841368Y-33686114D02*
X138841368Y-33828971D01*
X138841368Y-33828971D02*
X138127082Y-33971828D01*
X139698510Y-34471828D02*
X139555653Y-34400400D01*
X139555653Y-34400400D02*
X139484224Y-34257542D01*
X139484224Y-34257542D02*
X139484224Y-32971828D01*
X140841367Y-34400400D02*
X140698510Y-34471828D01*
X140698510Y-34471828D02*
X140412796Y-34471828D01*
X140412796Y-34471828D02*
X140269938Y-34400400D01*
X140269938Y-34400400D02*
X140198510Y-34257542D01*
X140198510Y-34257542D02*
X140198510Y-33686114D01*
X140198510Y-33686114D02*
X140269938Y-33543257D01*
X140269938Y-33543257D02*
X140412796Y-33471828D01*
X140412796Y-33471828D02*
X140698510Y-33471828D01*
X140698510Y-33471828D02*
X140841367Y-33543257D01*
X140841367Y-33543257D02*
X140912796Y-33686114D01*
X140912796Y-33686114D02*
X140912796Y-33828971D01*
X140912796Y-33828971D02*
X140198510Y-33971828D01*
X142198510Y-34471828D02*
X142198510Y-33686114D01*
X142198510Y-33686114D02*
X142127081Y-33543257D01*
X142127081Y-33543257D02*
X141984224Y-33471828D01*
X141984224Y-33471828D02*
X141698510Y-33471828D01*
X141698510Y-33471828D02*
X141555652Y-33543257D01*
X142198510Y-34400400D02*
X142055652Y-34471828D01*
X142055652Y-34471828D02*
X141698510Y-34471828D01*
X141698510Y-34471828D02*
X141555652Y-34400400D01*
X141555652Y-34400400D02*
X141484224Y-34257542D01*
X141484224Y-34257542D02*
X141484224Y-34114685D01*
X141484224Y-34114685D02*
X141555652Y-33971828D01*
X141555652Y-33971828D02*
X141698510Y-33900400D01*
X141698510Y-33900400D02*
X142055652Y-33900400D01*
X142055652Y-33900400D02*
X142198510Y-33828971D01*
X142841367Y-34400400D02*
X142984224Y-34471828D01*
X142984224Y-34471828D02*
X143269938Y-34471828D01*
X143269938Y-34471828D02*
X143412795Y-34400400D01*
X143412795Y-34400400D02*
X143484224Y-34257542D01*
X143484224Y-34257542D02*
X143484224Y-34186114D01*
X143484224Y-34186114D02*
X143412795Y-34043257D01*
X143412795Y-34043257D02*
X143269938Y-33971828D01*
X143269938Y-33971828D02*
X143055653Y-33971828D01*
X143055653Y-33971828D02*
X142912795Y-33900400D01*
X142912795Y-33900400D02*
X142841367Y-33757542D01*
X142841367Y-33757542D02*
X142841367Y-33686114D01*
X142841367Y-33686114D02*
X142912795Y-33543257D01*
X142912795Y-33543257D02*
X143055653Y-33471828D01*
X143055653Y-33471828D02*
X143269938Y-33471828D01*
X143269938Y-33471828D02*
X143412795Y-33543257D01*
X144698510Y-34400400D02*
X144555653Y-34471828D01*
X144555653Y-34471828D02*
X144269939Y-34471828D01*
X144269939Y-34471828D02*
X144127081Y-34400400D01*
X144127081Y-34400400D02*
X144055653Y-34257542D01*
X144055653Y-34257542D02*
X144055653Y-33686114D01*
X144055653Y-33686114D02*
X144127081Y-33543257D01*
X144127081Y-33543257D02*
X144269939Y-33471828D01*
X144269939Y-33471828D02*
X144555653Y-33471828D01*
X144555653Y-33471828D02*
X144698510Y-33543257D01*
X144698510Y-33543257D02*
X144769939Y-33686114D01*
X144769939Y-33686114D02*
X144769939Y-33828971D01*
X144769939Y-33828971D02*
X144055653Y-33971828D01*
D10*
X119246578Y-72996933D02*
X119246578Y-72949314D01*
X119198958Y-73092171D02*
X119198958Y-72949314D01*
X119151339Y-73187409D02*
X119151339Y-72949314D01*
X119103720Y-73282647D02*
X119103720Y-72949314D01*
X119056101Y-73330266D02*
X119056101Y-72949314D01*
X119008482Y-73425504D02*
X119008482Y-72949314D01*
X118960863Y-73520742D02*
X118960863Y-72949314D01*
X118913244Y-73615980D02*
X118913244Y-72949314D01*
X118865625Y-73711219D02*
X118865625Y-72949314D01*
X118818006Y-73615980D02*
X118818006Y-72949314D01*
X118770387Y-73520742D02*
X118770387Y-72949314D01*
X118722768Y-73425504D02*
X118722768Y-72949314D01*
X118675149Y-73330266D02*
X118675149Y-72949314D01*
X118627530Y-73282647D02*
X118627530Y-72949314D01*
X118579911Y-73187409D02*
X118579911Y-72949314D01*
X118532292Y-73092171D02*
X118532292Y-72949314D01*
X118484673Y-72949314D02*
X118865625Y-73663600D01*
X118865625Y-73663600D02*
X119246578Y-72949314D01*
X118484673Y-72996933D02*
X118484673Y-72949314D01*
X118865625Y-73711219D02*
X118437054Y-72949314D01*
X118437054Y-72949314D02*
X119294197Y-72949314D01*
X119294197Y-72949314D02*
X118865625Y-73711219D01*
X75403601Y-37445720D02*
X75403601Y-37945720D01*
X74617887Y-38160006D02*
X74617887Y-37445720D01*
X74617887Y-37445720D02*
X76117887Y-37445720D01*
X76117887Y-37445720D02*
X76117887Y-38160006D01*
X75617887Y-38802863D02*
X74617887Y-38802863D01*
X75475030Y-38802863D02*
X75546458Y-38874292D01*
X75546458Y-38874292D02*
X75617887Y-39017149D01*
X75617887Y-39017149D02*
X75617887Y-39231435D01*
X75617887Y-39231435D02*
X75546458Y-39374292D01*
X75546458Y-39374292D02*
X75403601Y-39445721D01*
X75403601Y-39445721D02*
X74617887Y-39445721D01*
X75617887Y-40017149D02*
X74617887Y-40374292D01*
X74617887Y-40374292D02*
X75617887Y-40731435D01*
X74689316Y-41874292D02*
X74617887Y-41731435D01*
X74617887Y-41731435D02*
X74617887Y-41445721D01*
X74617887Y-41445721D02*
X74689316Y-41302863D01*
X74689316Y-41302863D02*
X74832173Y-41231435D01*
X74832173Y-41231435D02*
X75403601Y-41231435D01*
X75403601Y-41231435D02*
X75546458Y-41302863D01*
X75546458Y-41302863D02*
X75617887Y-41445721D01*
X75617887Y-41445721D02*
X75617887Y-41731435D01*
X75617887Y-41731435D02*
X75546458Y-41874292D01*
X75546458Y-41874292D02*
X75403601Y-41945721D01*
X75403601Y-41945721D02*
X75260744Y-41945721D01*
X75260744Y-41945721D02*
X75117887Y-41231435D01*
X74617887Y-42802863D02*
X74689316Y-42660006D01*
X74689316Y-42660006D02*
X74832173Y-42588577D01*
X74832173Y-42588577D02*
X76117887Y-42588577D01*
X74617887Y-43588577D02*
X74689316Y-43445720D01*
X74689316Y-43445720D02*
X74760744Y-43374291D01*
X74760744Y-43374291D02*
X74903601Y-43302863D01*
X74903601Y-43302863D02*
X75332173Y-43302863D01*
X75332173Y-43302863D02*
X75475030Y-43374291D01*
X75475030Y-43374291D02*
X75546458Y-43445720D01*
X75546458Y-43445720D02*
X75617887Y-43588577D01*
X75617887Y-43588577D02*
X75617887Y-43802863D01*
X75617887Y-43802863D02*
X75546458Y-43945720D01*
X75546458Y-43945720D02*
X75475030Y-44017149D01*
X75475030Y-44017149D02*
X75332173Y-44088577D01*
X75332173Y-44088577D02*
X74903601Y-44088577D01*
X74903601Y-44088577D02*
X74760744Y-44017149D01*
X74760744Y-44017149D02*
X74689316Y-43945720D01*
X74689316Y-43945720D02*
X74617887Y-43802863D01*
X74617887Y-43802863D02*
X74617887Y-43588577D01*
X75617887Y-44731434D02*
X74117887Y-44731434D01*
X75546458Y-44731434D02*
X75617887Y-44874292D01*
X75617887Y-44874292D02*
X75617887Y-45160006D01*
X75617887Y-45160006D02*
X75546458Y-45302863D01*
X75546458Y-45302863D02*
X75475030Y-45374292D01*
X75475030Y-45374292D02*
X75332173Y-45445720D01*
X75332173Y-45445720D02*
X74903601Y-45445720D01*
X74903601Y-45445720D02*
X74760744Y-45374292D01*
X74760744Y-45374292D02*
X74689316Y-45302863D01*
X74689316Y-45302863D02*
X74617887Y-45160006D01*
X74617887Y-45160006D02*
X74617887Y-44874292D01*
X74617887Y-44874292D02*
X74689316Y-44731434D01*
X74689316Y-46660006D02*
X74617887Y-46517149D01*
X74617887Y-46517149D02*
X74617887Y-46231435D01*
X74617887Y-46231435D02*
X74689316Y-46088577D01*
X74689316Y-46088577D02*
X74832173Y-46017149D01*
X74832173Y-46017149D02*
X75403601Y-46017149D01*
X75403601Y-46017149D02*
X75546458Y-46088577D01*
X75546458Y-46088577D02*
X75617887Y-46231435D01*
X75617887Y-46231435D02*
X75617887Y-46517149D01*
X75617887Y-46517149D02*
X75546458Y-46660006D01*
X75546458Y-46660006D02*
X75403601Y-46731435D01*
X75403601Y-46731435D02*
X75260744Y-46731435D01*
X75260744Y-46731435D02*
X75117887Y-46017149D01*
X76046458Y-48160006D02*
X76117887Y-48017149D01*
X76117887Y-48017149D02*
X76117887Y-47802863D01*
X76117887Y-47802863D02*
X76046458Y-47588577D01*
X76046458Y-47588577D02*
X75903601Y-47445720D01*
X75903601Y-47445720D02*
X75760744Y-47374291D01*
X75760744Y-47374291D02*
X75475030Y-47302863D01*
X75475030Y-47302863D02*
X75260744Y-47302863D01*
X75260744Y-47302863D02*
X74975030Y-47374291D01*
X74975030Y-47374291D02*
X74832173Y-47445720D01*
X74832173Y-47445720D02*
X74689316Y-47588577D01*
X74689316Y-47588577D02*
X74617887Y-47802863D01*
X74617887Y-47802863D02*
X74617887Y-47945720D01*
X74617887Y-47945720D02*
X74689316Y-48160006D01*
X74689316Y-48160006D02*
X74760744Y-48231434D01*
X74760744Y-48231434D02*
X75260744Y-48231434D01*
X75260744Y-48231434D02*
X75260744Y-47945720D01*
X74689316Y-49445720D02*
X74617887Y-49302863D01*
X74617887Y-49302863D02*
X74617887Y-49017149D01*
X74617887Y-49017149D02*
X74689316Y-48874291D01*
X74689316Y-48874291D02*
X74832173Y-48802863D01*
X74832173Y-48802863D02*
X75403601Y-48802863D01*
X75403601Y-48802863D02*
X75546458Y-48874291D01*
X75546458Y-48874291D02*
X75617887Y-49017149D01*
X75617887Y-49017149D02*
X75617887Y-49302863D01*
X75617887Y-49302863D02*
X75546458Y-49445720D01*
X75546458Y-49445720D02*
X75403601Y-49517149D01*
X75403601Y-49517149D02*
X75260744Y-49517149D01*
X75260744Y-49517149D02*
X75117887Y-48802863D01*
X75617887Y-50160005D02*
X74617887Y-50160005D01*
X75475030Y-50160005D02*
X75546458Y-50231434D01*
X75546458Y-50231434D02*
X75617887Y-50374291D01*
X75617887Y-50374291D02*
X75617887Y-50588577D01*
X75617887Y-50588577D02*
X75546458Y-50731434D01*
X75546458Y-50731434D02*
X75403601Y-50802863D01*
X75403601Y-50802863D02*
X74617887Y-50802863D01*
X74689316Y-52088577D02*
X74617887Y-51945720D01*
X74617887Y-51945720D02*
X74617887Y-51660006D01*
X74617887Y-51660006D02*
X74689316Y-51517148D01*
X74689316Y-51517148D02*
X74832173Y-51445720D01*
X74832173Y-51445720D02*
X75403601Y-51445720D01*
X75403601Y-51445720D02*
X75546458Y-51517148D01*
X75546458Y-51517148D02*
X75617887Y-51660006D01*
X75617887Y-51660006D02*
X75617887Y-51945720D01*
X75617887Y-51945720D02*
X75546458Y-52088577D01*
X75546458Y-52088577D02*
X75403601Y-52160006D01*
X75403601Y-52160006D02*
X75260744Y-52160006D01*
X75260744Y-52160006D02*
X75117887Y-51445720D01*
X74617887Y-52802862D02*
X75617887Y-52802862D01*
X75332173Y-52802862D02*
X75475030Y-52874291D01*
X75475030Y-52874291D02*
X75546458Y-52945720D01*
X75546458Y-52945720D02*
X75617887Y-53088577D01*
X75617887Y-53088577D02*
X75617887Y-53231434D01*
X74617887Y-54374291D02*
X75403601Y-54374291D01*
X75403601Y-54374291D02*
X75546458Y-54302862D01*
X75546458Y-54302862D02*
X75617887Y-54160005D01*
X75617887Y-54160005D02*
X75617887Y-53874291D01*
X75617887Y-53874291D02*
X75546458Y-53731433D01*
X74689316Y-54374291D02*
X74617887Y-54231433D01*
X74617887Y-54231433D02*
X74617887Y-53874291D01*
X74617887Y-53874291D02*
X74689316Y-53731433D01*
X74689316Y-53731433D02*
X74832173Y-53660005D01*
X74832173Y-53660005D02*
X74975030Y-53660005D01*
X74975030Y-53660005D02*
X75117887Y-53731433D01*
X75117887Y-53731433D02*
X75189316Y-53874291D01*
X75189316Y-53874291D02*
X75189316Y-54231433D01*
X75189316Y-54231433D02*
X75260744Y-54374291D01*
X75617887Y-54874291D02*
X75617887Y-55445719D01*
X76117887Y-55088576D02*
X74832173Y-55088576D01*
X74832173Y-55088576D02*
X74689316Y-55160005D01*
X74689316Y-55160005D02*
X74617887Y-55302862D01*
X74617887Y-55302862D02*
X74617887Y-55445719D01*
X74689316Y-56517148D02*
X74617887Y-56374291D01*
X74617887Y-56374291D02*
X74617887Y-56088577D01*
X74617887Y-56088577D02*
X74689316Y-55945719D01*
X74689316Y-55945719D02*
X74832173Y-55874291D01*
X74832173Y-55874291D02*
X75403601Y-55874291D01*
X75403601Y-55874291D02*
X75546458Y-55945719D01*
X75546458Y-55945719D02*
X75617887Y-56088577D01*
X75617887Y-56088577D02*
X75617887Y-56374291D01*
X75617887Y-56374291D02*
X75546458Y-56517148D01*
X75546458Y-56517148D02*
X75403601Y-56588577D01*
X75403601Y-56588577D02*
X75260744Y-56588577D01*
X75260744Y-56588577D02*
X75117887Y-55874291D01*
X74617887Y-57231433D02*
X75617887Y-57231433D01*
X75332173Y-57231433D02*
X75475030Y-57302862D01*
X75475030Y-57302862D02*
X75546458Y-57374291D01*
X75546458Y-57374291D02*
X75617887Y-57517148D01*
X75617887Y-57517148D02*
X75617887Y-57660005D01*
X72274400Y-37374292D02*
X72202971Y-37588578D01*
X72202971Y-37588578D02*
X72202971Y-37945720D01*
X72202971Y-37945720D02*
X72274400Y-38088578D01*
X72274400Y-38088578D02*
X72345828Y-38160006D01*
X72345828Y-38160006D02*
X72488685Y-38231435D01*
X72488685Y-38231435D02*
X72631542Y-38231435D01*
X72631542Y-38231435D02*
X72774400Y-38160006D01*
X72774400Y-38160006D02*
X72845828Y-38088578D01*
X72845828Y-38088578D02*
X72917257Y-37945720D01*
X72917257Y-37945720D02*
X72988685Y-37660006D01*
X72988685Y-37660006D02*
X73060114Y-37517149D01*
X73060114Y-37517149D02*
X73131542Y-37445720D01*
X73131542Y-37445720D02*
X73274400Y-37374292D01*
X73274400Y-37374292D02*
X73417257Y-37374292D01*
X73417257Y-37374292D02*
X73560114Y-37445720D01*
X73560114Y-37445720D02*
X73631542Y-37517149D01*
X73631542Y-37517149D02*
X73702971Y-37660006D01*
X73702971Y-37660006D02*
X73702971Y-38017149D01*
X73702971Y-38017149D02*
X73631542Y-38231435D01*
X72274400Y-39445720D02*
X72202971Y-39302863D01*
X72202971Y-39302863D02*
X72202971Y-39017149D01*
X72202971Y-39017149D02*
X72274400Y-38874291D01*
X72274400Y-38874291D02*
X72417257Y-38802863D01*
X72417257Y-38802863D02*
X72988685Y-38802863D01*
X72988685Y-38802863D02*
X73131542Y-38874291D01*
X73131542Y-38874291D02*
X73202971Y-39017149D01*
X73202971Y-39017149D02*
X73202971Y-39302863D01*
X73202971Y-39302863D02*
X73131542Y-39445720D01*
X73131542Y-39445720D02*
X72988685Y-39517149D01*
X72988685Y-39517149D02*
X72845828Y-39517149D01*
X72845828Y-39517149D02*
X72702971Y-38802863D01*
X73202971Y-40160005D02*
X71702971Y-40160005D01*
X73131542Y-40160005D02*
X73202971Y-40302863D01*
X73202971Y-40302863D02*
X73202971Y-40588577D01*
X73202971Y-40588577D02*
X73131542Y-40731434D01*
X73131542Y-40731434D02*
X73060114Y-40802863D01*
X73060114Y-40802863D02*
X72917257Y-40874291D01*
X72917257Y-40874291D02*
X72488685Y-40874291D01*
X72488685Y-40874291D02*
X72345828Y-40802863D01*
X72345828Y-40802863D02*
X72274400Y-40731434D01*
X72274400Y-40731434D02*
X72202971Y-40588577D01*
X72202971Y-40588577D02*
X72202971Y-40302863D01*
X72202971Y-40302863D02*
X72274400Y-40160005D01*
X72202971Y-42160006D02*
X72988685Y-42160006D01*
X72988685Y-42160006D02*
X73131542Y-42088577D01*
X73131542Y-42088577D02*
X73202971Y-41945720D01*
X73202971Y-41945720D02*
X73202971Y-41660006D01*
X73202971Y-41660006D02*
X73131542Y-41517148D01*
X72274400Y-42160006D02*
X72202971Y-42017148D01*
X72202971Y-42017148D02*
X72202971Y-41660006D01*
X72202971Y-41660006D02*
X72274400Y-41517148D01*
X72274400Y-41517148D02*
X72417257Y-41445720D01*
X72417257Y-41445720D02*
X72560114Y-41445720D01*
X72560114Y-41445720D02*
X72702971Y-41517148D01*
X72702971Y-41517148D02*
X72774400Y-41660006D01*
X72774400Y-41660006D02*
X72774400Y-42017148D01*
X72774400Y-42017148D02*
X72845828Y-42160006D01*
X72202971Y-42874291D02*
X73202971Y-42874291D01*
X72917257Y-42874291D02*
X73060114Y-42945720D01*
X73060114Y-42945720D02*
X73131542Y-43017149D01*
X73131542Y-43017149D02*
X73202971Y-43160006D01*
X73202971Y-43160006D02*
X73202971Y-43302863D01*
X72202971Y-44445720D02*
X72988685Y-44445720D01*
X72988685Y-44445720D02*
X73131542Y-44374291D01*
X73131542Y-44374291D02*
X73202971Y-44231434D01*
X73202971Y-44231434D02*
X73202971Y-43945720D01*
X73202971Y-43945720D02*
X73131542Y-43802862D01*
X72274400Y-44445720D02*
X72202971Y-44302862D01*
X72202971Y-44302862D02*
X72202971Y-43945720D01*
X72202971Y-43945720D02*
X72274400Y-43802862D01*
X72274400Y-43802862D02*
X72417257Y-43731434D01*
X72417257Y-43731434D02*
X72560114Y-43731434D01*
X72560114Y-43731434D02*
X72702971Y-43802862D01*
X72702971Y-43802862D02*
X72774400Y-43945720D01*
X72774400Y-43945720D02*
X72774400Y-44302862D01*
X72774400Y-44302862D02*
X72845828Y-44445720D01*
X73202971Y-44945720D02*
X73202971Y-45517148D01*
X73702971Y-45160005D02*
X72417257Y-45160005D01*
X72417257Y-45160005D02*
X72274400Y-45231434D01*
X72274400Y-45231434D02*
X72202971Y-45374291D01*
X72202971Y-45374291D02*
X72202971Y-45517148D01*
X72274400Y-46588577D02*
X72202971Y-46445720D01*
X72202971Y-46445720D02*
X72202971Y-46160006D01*
X72202971Y-46160006D02*
X72274400Y-46017148D01*
X72274400Y-46017148D02*
X72417257Y-45945720D01*
X72417257Y-45945720D02*
X72988685Y-45945720D01*
X72988685Y-45945720D02*
X73131542Y-46017148D01*
X73131542Y-46017148D02*
X73202971Y-46160006D01*
X73202971Y-46160006D02*
X73202971Y-46445720D01*
X73202971Y-46445720D02*
X73131542Y-46588577D01*
X73131542Y-46588577D02*
X72988685Y-46660006D01*
X72988685Y-46660006D02*
X72845828Y-46660006D01*
X72845828Y-46660006D02*
X72702971Y-45945720D01*
X73560114Y-48374291D02*
X73631542Y-48445719D01*
X73631542Y-48445719D02*
X73702971Y-48588577D01*
X73702971Y-48588577D02*
X73702971Y-48945719D01*
X73702971Y-48945719D02*
X73631542Y-49088577D01*
X73631542Y-49088577D02*
X73560114Y-49160005D01*
X73560114Y-49160005D02*
X73417257Y-49231434D01*
X73417257Y-49231434D02*
X73274400Y-49231434D01*
X73274400Y-49231434D02*
X73060114Y-49160005D01*
X73060114Y-49160005D02*
X72202971Y-48302862D01*
X72202971Y-48302862D02*
X72202971Y-49231434D01*
X73702971Y-50160005D02*
X73702971Y-50302862D01*
X73702971Y-50302862D02*
X73631542Y-50445719D01*
X73631542Y-50445719D02*
X73560114Y-50517148D01*
X73560114Y-50517148D02*
X73417257Y-50588576D01*
X73417257Y-50588576D02*
X73131542Y-50660005D01*
X73131542Y-50660005D02*
X72774400Y-50660005D01*
X72774400Y-50660005D02*
X72488685Y-50588576D01*
X72488685Y-50588576D02*
X72345828Y-50517148D01*
X72345828Y-50517148D02*
X72274400Y-50445719D01*
X72274400Y-50445719D02*
X72202971Y-50302862D01*
X72202971Y-50302862D02*
X72202971Y-50160005D01*
X72202971Y-50160005D02*
X72274400Y-50017148D01*
X72274400Y-50017148D02*
X72345828Y-49945719D01*
X72345828Y-49945719D02*
X72488685Y-49874290D01*
X72488685Y-49874290D02*
X72774400Y-49802862D01*
X72774400Y-49802862D02*
X73131542Y-49802862D01*
X73131542Y-49802862D02*
X73417257Y-49874290D01*
X73417257Y-49874290D02*
X73560114Y-49945719D01*
X73560114Y-49945719D02*
X73631542Y-50017148D01*
X73631542Y-50017148D02*
X73702971Y-50160005D01*
X73560114Y-51231433D02*
X73631542Y-51302861D01*
X73631542Y-51302861D02*
X73702971Y-51445719D01*
X73702971Y-51445719D02*
X73702971Y-51802861D01*
X73702971Y-51802861D02*
X73631542Y-51945719D01*
X73631542Y-51945719D02*
X73560114Y-52017147D01*
X73560114Y-52017147D02*
X73417257Y-52088576D01*
X73417257Y-52088576D02*
X73274400Y-52088576D01*
X73274400Y-52088576D02*
X73060114Y-52017147D01*
X73060114Y-52017147D02*
X72202971Y-51160004D01*
X72202971Y-51160004D02*
X72202971Y-52088576D01*
X73702971Y-53445718D02*
X73702971Y-52731432D01*
X73702971Y-52731432D02*
X72988685Y-52660004D01*
X72988685Y-52660004D02*
X73060114Y-52731432D01*
X73060114Y-52731432D02*
X73131542Y-52874290D01*
X73131542Y-52874290D02*
X73131542Y-53231432D01*
X73131542Y-53231432D02*
X73060114Y-53374290D01*
X73060114Y-53374290D02*
X72988685Y-53445718D01*
X72988685Y-53445718D02*
X72845828Y-53517147D01*
X72845828Y-53517147D02*
X72488685Y-53517147D01*
X72488685Y-53517147D02*
X72345828Y-53445718D01*
X72345828Y-53445718D02*
X72274400Y-53374290D01*
X72274400Y-53374290D02*
X72202971Y-53231432D01*
X72202971Y-53231432D02*
X72202971Y-52874290D01*
X72202971Y-52874290D02*
X72274400Y-52731432D01*
X72274400Y-52731432D02*
X72345828Y-52660004D01*
X73774400Y-55231432D02*
X71845828Y-53945718D01*
X73702971Y-56374290D02*
X73702971Y-56088575D01*
X73702971Y-56088575D02*
X73631542Y-55945718D01*
X73631542Y-55945718D02*
X73560114Y-55874290D01*
X73560114Y-55874290D02*
X73345828Y-55731432D01*
X73345828Y-55731432D02*
X73060114Y-55660004D01*
X73060114Y-55660004D02*
X72488685Y-55660004D01*
X72488685Y-55660004D02*
X72345828Y-55731432D01*
X72345828Y-55731432D02*
X72274400Y-55802861D01*
X72274400Y-55802861D02*
X72202971Y-55945718D01*
X72202971Y-55945718D02*
X72202971Y-56231432D01*
X72202971Y-56231432D02*
X72274400Y-56374290D01*
X72274400Y-56374290D02*
X72345828Y-56445718D01*
X72345828Y-56445718D02*
X72488685Y-56517147D01*
X72488685Y-56517147D02*
X72845828Y-56517147D01*
X72845828Y-56517147D02*
X72988685Y-56445718D01*
X72988685Y-56445718D02*
X73060114Y-56374290D01*
X73060114Y-56374290D02*
X73131542Y-56231432D01*
X73131542Y-56231432D02*
X73131542Y-55945718D01*
X73131542Y-55945718D02*
X73060114Y-55802861D01*
X73060114Y-55802861D02*
X72988685Y-55731432D01*
X72988685Y-55731432D02*
X72845828Y-55660004D01*
X73774400Y-58231432D02*
X71845828Y-56945718D01*
X72202971Y-59517147D02*
X72202971Y-58660004D01*
X72202971Y-59088575D02*
X73702971Y-59088575D01*
X73702971Y-59088575D02*
X73488685Y-58945718D01*
X73488685Y-58945718D02*
X73345828Y-58802861D01*
X73345828Y-58802861D02*
X73274400Y-58660004D01*
X73202971Y-60802861D02*
X72202971Y-60802861D01*
X73774400Y-60445718D02*
X72702971Y-60088575D01*
X72702971Y-60088575D02*
X72702971Y-61017146D01*
D12*
X118212082Y-34400400D02*
X118426368Y-34471828D01*
X118426368Y-34471828D02*
X118783510Y-34471828D01*
X118783510Y-34471828D02*
X118926368Y-34400400D01*
X118926368Y-34400400D02*
X118997796Y-34328971D01*
X118997796Y-34328971D02*
X119069225Y-34186114D01*
X119069225Y-34186114D02*
X119069225Y-34043257D01*
X119069225Y-34043257D02*
X118997796Y-33900400D01*
X118997796Y-33900400D02*
X118926368Y-33828971D01*
X118926368Y-33828971D02*
X118783510Y-33757542D01*
X118783510Y-33757542D02*
X118497796Y-33686114D01*
X118497796Y-33686114D02*
X118354939Y-33614685D01*
X118354939Y-33614685D02*
X118283510Y-33543257D01*
X118283510Y-33543257D02*
X118212082Y-33400400D01*
X118212082Y-33400400D02*
X118212082Y-33257542D01*
X118212082Y-33257542D02*
X118283510Y-33114685D01*
X118283510Y-33114685D02*
X118354939Y-33043257D01*
X118354939Y-33043257D02*
X118497796Y-32971828D01*
X118497796Y-32971828D02*
X118854939Y-32971828D01*
X118854939Y-32971828D02*
X119069225Y-33043257D01*
X120354939Y-33471828D02*
X120354939Y-34471828D01*
X119712081Y-33471828D02*
X119712081Y-34257542D01*
X119712081Y-34257542D02*
X119783510Y-34400400D01*
X119783510Y-34400400D02*
X119926367Y-34471828D01*
X119926367Y-34471828D02*
X120140653Y-34471828D01*
X120140653Y-34471828D02*
X120283510Y-34400400D01*
X120283510Y-34400400D02*
X120354939Y-34328971D01*
X120997796Y-34400400D02*
X121140653Y-34471828D01*
X121140653Y-34471828D02*
X121426367Y-34471828D01*
X121426367Y-34471828D02*
X121569224Y-34400400D01*
X121569224Y-34400400D02*
X121640653Y-34257542D01*
X121640653Y-34257542D02*
X121640653Y-34186114D01*
X121640653Y-34186114D02*
X121569224Y-34043257D01*
X121569224Y-34043257D02*
X121426367Y-33971828D01*
X121426367Y-33971828D02*
X121212082Y-33971828D01*
X121212082Y-33971828D02*
X121069224Y-33900400D01*
X121069224Y-33900400D02*
X120997796Y-33757542D01*
X120997796Y-33757542D02*
X120997796Y-33686114D01*
X120997796Y-33686114D02*
X121069224Y-33543257D01*
X121069224Y-33543257D02*
X121212082Y-33471828D01*
X121212082Y-33471828D02*
X121426367Y-33471828D01*
X121426367Y-33471828D02*
X121569224Y-33543257D01*
X122069225Y-33471828D02*
X122640653Y-33471828D01*
X122283510Y-32971828D02*
X122283510Y-34257542D01*
X122283510Y-34257542D02*
X122354939Y-34400400D01*
X122354939Y-34400400D02*
X122497796Y-34471828D01*
X122497796Y-34471828D02*
X122640653Y-34471828D01*
X123783511Y-34471828D02*
X123783511Y-33686114D01*
X123783511Y-33686114D02*
X123712082Y-33543257D01*
X123712082Y-33543257D02*
X123569225Y-33471828D01*
X123569225Y-33471828D02*
X123283511Y-33471828D01*
X123283511Y-33471828D02*
X123140653Y-33543257D01*
X123783511Y-34400400D02*
X123640653Y-34471828D01*
X123640653Y-34471828D02*
X123283511Y-34471828D01*
X123283511Y-34471828D02*
X123140653Y-34400400D01*
X123140653Y-34400400D02*
X123069225Y-34257542D01*
X123069225Y-34257542D02*
X123069225Y-34114685D01*
X123069225Y-34114685D02*
X123140653Y-33971828D01*
X123140653Y-33971828D02*
X123283511Y-33900400D01*
X123283511Y-33900400D02*
X123640653Y-33900400D01*
X123640653Y-33900400D02*
X123783511Y-33828971D01*
X124497796Y-34471828D02*
X124497796Y-33471828D01*
X124497796Y-32971828D02*
X124426368Y-33043257D01*
X124426368Y-33043257D02*
X124497796Y-33114685D01*
X124497796Y-33114685D02*
X124569225Y-33043257D01*
X124569225Y-33043257D02*
X124497796Y-32971828D01*
X124497796Y-32971828D02*
X124497796Y-33114685D01*
X125212082Y-33471828D02*
X125212082Y-34471828D01*
X125212082Y-33614685D02*
X125283511Y-33543257D01*
X125283511Y-33543257D02*
X125426368Y-33471828D01*
X125426368Y-33471828D02*
X125640654Y-33471828D01*
X125640654Y-33471828D02*
X125783511Y-33543257D01*
X125783511Y-33543257D02*
X125854940Y-33686114D01*
X125854940Y-33686114D02*
X125854940Y-34471828D01*
D10*
X147568219Y-78830755D02*
X147044409Y-78830755D01*
X147044409Y-78830755D02*
X146949171Y-78878374D01*
X146949171Y-78878374D02*
X146901552Y-78973612D01*
X146901552Y-78973612D02*
X146901552Y-79164088D01*
X146901552Y-79164088D02*
X146949171Y-79259326D01*
X147520600Y-78830755D02*
X147568219Y-78925993D01*
X147568219Y-78925993D02*
X147568219Y-79164088D01*
X147568219Y-79164088D02*
X147520600Y-79259326D01*
X147520600Y-79259326D02*
X147425361Y-79306945D01*
X147425361Y-79306945D02*
X147330123Y-79306945D01*
X147330123Y-79306945D02*
X147234885Y-79259326D01*
X147234885Y-79259326D02*
X147187266Y-79164088D01*
X147187266Y-79164088D02*
X147187266Y-78925993D01*
X147187266Y-78925993D02*
X147139647Y-78830755D01*
X147520600Y-77925993D02*
X147568219Y-78021231D01*
X147568219Y-78021231D02*
X147568219Y-78211707D01*
X147568219Y-78211707D02*
X147520600Y-78306945D01*
X147520600Y-78306945D02*
X147472980Y-78354564D01*
X147472980Y-78354564D02*
X147377742Y-78402183D01*
X147377742Y-78402183D02*
X147092028Y-78402183D01*
X147092028Y-78402183D02*
X146996790Y-78354564D01*
X146996790Y-78354564D02*
X146949171Y-78306945D01*
X146949171Y-78306945D02*
X146901552Y-78211707D01*
X146901552Y-78211707D02*
X146901552Y-78021231D01*
X146901552Y-78021231D02*
X146949171Y-77925993D01*
X147520600Y-77068850D02*
X147568219Y-77164088D01*
X147568219Y-77164088D02*
X147568219Y-77354564D01*
X147568219Y-77354564D02*
X147520600Y-77449802D01*
X147520600Y-77449802D02*
X147472980Y-77497421D01*
X147472980Y-77497421D02*
X147377742Y-77545040D01*
X147377742Y-77545040D02*
X147092028Y-77545040D01*
X147092028Y-77545040D02*
X146996790Y-77497421D01*
X146996790Y-77497421D02*
X146949171Y-77449802D01*
X146949171Y-77449802D02*
X146901552Y-77354564D01*
X146901552Y-77354564D02*
X146901552Y-77164088D01*
X146901552Y-77164088D02*
X146949171Y-77068850D01*
X147044409Y-76306945D02*
X147044409Y-76640278D01*
X147568219Y-76640278D02*
X146568219Y-76640278D01*
X146568219Y-76640278D02*
X146568219Y-76164088D01*
X147568219Y-75640278D02*
X147520600Y-75735516D01*
X147520600Y-75735516D02*
X147425361Y-75783135D01*
X147425361Y-75783135D02*
X146568219Y-75783135D01*
X146901552Y-75402182D02*
X146901552Y-75021230D01*
X146568219Y-75259325D02*
X147425361Y-75259325D01*
X147425361Y-75259325D02*
X147520600Y-75211706D01*
X147520600Y-75211706D02*
X147568219Y-75116468D01*
X147568219Y-75116468D02*
X147568219Y-75021230D01*
X143948838Y-77211517D02*
X143901219Y-77306755D01*
X143901219Y-77306755D02*
X143901219Y-77449612D01*
X143901219Y-77449612D02*
X143948838Y-77592469D01*
X143948838Y-77592469D02*
X144044076Y-77687707D01*
X144044076Y-77687707D02*
X144139314Y-77735326D01*
X144139314Y-77735326D02*
X144329790Y-77782945D01*
X144329790Y-77782945D02*
X144472647Y-77782945D01*
X144472647Y-77782945D02*
X144663123Y-77735326D01*
X144663123Y-77735326D02*
X144758361Y-77687707D01*
X144758361Y-77687707D02*
X144853600Y-77592469D01*
X144853600Y-77592469D02*
X144901219Y-77449612D01*
X144901219Y-77449612D02*
X144901219Y-77354374D01*
X144901219Y-77354374D02*
X144853600Y-77211517D01*
X144853600Y-77211517D02*
X144805980Y-77163898D01*
X144805980Y-77163898D02*
X144472647Y-77163898D01*
X144472647Y-77163898D02*
X144472647Y-77354374D01*
X144901219Y-76735326D02*
X143901219Y-76735326D01*
X143901219Y-76735326D02*
X144901219Y-76163898D01*
X144901219Y-76163898D02*
X143901219Y-76163898D01*
X144901219Y-75687707D02*
X143901219Y-75687707D01*
X143901219Y-75687707D02*
X143901219Y-75449612D01*
X143901219Y-75449612D02*
X143948838Y-75306755D01*
X143948838Y-75306755D02*
X144044076Y-75211517D01*
X144044076Y-75211517D02*
X144139314Y-75163898D01*
X144139314Y-75163898D02*
X144329790Y-75116279D01*
X144329790Y-75116279D02*
X144472647Y-75116279D01*
X144472647Y-75116279D02*
X144663123Y-75163898D01*
X144663123Y-75163898D02*
X144758361Y-75211517D01*
X144758361Y-75211517D02*
X144853600Y-75306755D01*
X144853600Y-75306755D02*
X144901219Y-75449612D01*
X144901219Y-75449612D02*
X144901219Y-75687707D01*
X100292504Y-78925945D02*
X100292504Y-78449755D01*
X100578219Y-79021183D02*
X99578219Y-78687850D01*
X99578219Y-78687850D02*
X100578219Y-78354517D01*
X100578219Y-78021183D02*
X99911552Y-78021183D01*
X100006790Y-78021183D02*
X99959171Y-77973564D01*
X99959171Y-77973564D02*
X99911552Y-77878326D01*
X99911552Y-77878326D02*
X99911552Y-77735469D01*
X99911552Y-77735469D02*
X99959171Y-77640231D01*
X99959171Y-77640231D02*
X100054409Y-77592612D01*
X100054409Y-77592612D02*
X100578219Y-77592612D01*
X100054409Y-77592612D02*
X99959171Y-77544993D01*
X99959171Y-77544993D02*
X99911552Y-77449755D01*
X99911552Y-77449755D02*
X99911552Y-77306898D01*
X99911552Y-77306898D02*
X99959171Y-77211659D01*
X99959171Y-77211659D02*
X100054409Y-77164040D01*
X100054409Y-77164040D02*
X100578219Y-77164040D01*
X99911552Y-76687850D02*
X100911552Y-76687850D01*
X99959171Y-76687850D02*
X99911552Y-76592612D01*
X99911552Y-76592612D02*
X99911552Y-76402136D01*
X99911552Y-76402136D02*
X99959171Y-76306898D01*
X99959171Y-76306898D02*
X100006790Y-76259279D01*
X100006790Y-76259279D02*
X100102028Y-76211660D01*
X100102028Y-76211660D02*
X100387742Y-76211660D01*
X100387742Y-76211660D02*
X100482980Y-76259279D01*
X100482980Y-76259279D02*
X100530600Y-76306898D01*
X100530600Y-76306898D02*
X100578219Y-76402136D01*
X100578219Y-76402136D02*
X100578219Y-76592612D01*
X100578219Y-76592612D02*
X100530600Y-76687850D01*
D12*
X79483082Y-55372257D02*
X80197368Y-55372257D01*
X79340225Y-55800828D02*
X79840225Y-54300828D01*
X79840225Y-54300828D02*
X80340225Y-55800828D01*
X81483082Y-55729400D02*
X81340224Y-55800828D01*
X81340224Y-55800828D02*
X81054510Y-55800828D01*
X81054510Y-55800828D02*
X80911653Y-55729400D01*
X80911653Y-55729400D02*
X80840224Y-55657971D01*
X80840224Y-55657971D02*
X80768796Y-55515114D01*
X80768796Y-55515114D02*
X80768796Y-55086542D01*
X80768796Y-55086542D02*
X80840224Y-54943685D01*
X80840224Y-54943685D02*
X80911653Y-54872257D01*
X80911653Y-54872257D02*
X81054510Y-54800828D01*
X81054510Y-54800828D02*
X81340224Y-54800828D01*
X81340224Y-54800828D02*
X81483082Y-54872257D01*
X82768796Y-55729400D02*
X82625938Y-55800828D01*
X82625938Y-55800828D02*
X82340224Y-55800828D01*
X82340224Y-55800828D02*
X82197367Y-55729400D01*
X82197367Y-55729400D02*
X82125938Y-55657971D01*
X82125938Y-55657971D02*
X82054510Y-55515114D01*
X82054510Y-55515114D02*
X82054510Y-55086542D01*
X82054510Y-55086542D02*
X82125938Y-54943685D01*
X82125938Y-54943685D02*
X82197367Y-54872257D01*
X82197367Y-54872257D02*
X82340224Y-54800828D01*
X82340224Y-54800828D02*
X82625938Y-54800828D01*
X82625938Y-54800828D02*
X82768796Y-54872257D01*
X83983081Y-55729400D02*
X83840224Y-55800828D01*
X83840224Y-55800828D02*
X83554510Y-55800828D01*
X83554510Y-55800828D02*
X83411652Y-55729400D01*
X83411652Y-55729400D02*
X83340224Y-55586542D01*
X83340224Y-55586542D02*
X83340224Y-55015114D01*
X83340224Y-55015114D02*
X83411652Y-54872257D01*
X83411652Y-54872257D02*
X83554510Y-54800828D01*
X83554510Y-54800828D02*
X83840224Y-54800828D01*
X83840224Y-54800828D02*
X83983081Y-54872257D01*
X83983081Y-54872257D02*
X84054510Y-55015114D01*
X84054510Y-55015114D02*
X84054510Y-55157971D01*
X84054510Y-55157971D02*
X83340224Y-55300828D01*
X84697366Y-54800828D02*
X84697366Y-55800828D01*
X84697366Y-54943685D02*
X84768795Y-54872257D01*
X84768795Y-54872257D02*
X84911652Y-54800828D01*
X84911652Y-54800828D02*
X85125938Y-54800828D01*
X85125938Y-54800828D02*
X85268795Y-54872257D01*
X85268795Y-54872257D02*
X85340224Y-55015114D01*
X85340224Y-55015114D02*
X85340224Y-55800828D01*
X85840224Y-54800828D02*
X86411652Y-54800828D01*
X86054509Y-54300828D02*
X86054509Y-55586542D01*
X86054509Y-55586542D02*
X86125938Y-55729400D01*
X86125938Y-55729400D02*
X86268795Y-55800828D01*
X86268795Y-55800828D02*
X86411652Y-55800828D01*
X87625938Y-55800828D02*
X86911652Y-55800828D01*
X86911652Y-55800828D02*
X86911652Y-54300828D01*
X88697367Y-55729400D02*
X88554510Y-55800828D01*
X88554510Y-55800828D02*
X88268796Y-55800828D01*
X88268796Y-55800828D02*
X88125938Y-55729400D01*
X88125938Y-55729400D02*
X88054510Y-55586542D01*
X88054510Y-55586542D02*
X88054510Y-55015114D01*
X88054510Y-55015114D02*
X88125938Y-54872257D01*
X88125938Y-54872257D02*
X88268796Y-54800828D01*
X88268796Y-54800828D02*
X88554510Y-54800828D01*
X88554510Y-54800828D02*
X88697367Y-54872257D01*
X88697367Y-54872257D02*
X88768796Y-55015114D01*
X88768796Y-55015114D02*
X88768796Y-55157971D01*
X88768796Y-55157971D02*
X88054510Y-55300828D01*
X89268795Y-54800828D02*
X89625938Y-55800828D01*
X89625938Y-55800828D02*
X89983081Y-54800828D01*
X91125938Y-55729400D02*
X90983081Y-55800828D01*
X90983081Y-55800828D02*
X90697367Y-55800828D01*
X90697367Y-55800828D02*
X90554509Y-55729400D01*
X90554509Y-55729400D02*
X90483081Y-55586542D01*
X90483081Y-55586542D02*
X90483081Y-55015114D01*
X90483081Y-55015114D02*
X90554509Y-54872257D01*
X90554509Y-54872257D02*
X90697367Y-54800828D01*
X90697367Y-54800828D02*
X90983081Y-54800828D01*
X90983081Y-54800828D02*
X91125938Y-54872257D01*
X91125938Y-54872257D02*
X91197367Y-55015114D01*
X91197367Y-55015114D02*
X91197367Y-55157971D01*
X91197367Y-55157971D02*
X90483081Y-55300828D01*
X92054509Y-55800828D02*
X91911652Y-55729400D01*
X91911652Y-55729400D02*
X91840223Y-55586542D01*
X91840223Y-55586542D02*
X91840223Y-54300828D01*
D10*
X116204219Y-77665326D02*
X115204219Y-77665326D01*
X116108980Y-76617708D02*
X116156600Y-76665327D01*
X116156600Y-76665327D02*
X116204219Y-76808184D01*
X116204219Y-76808184D02*
X116204219Y-76903422D01*
X116204219Y-76903422D02*
X116156600Y-77046279D01*
X116156600Y-77046279D02*
X116061361Y-77141517D01*
X116061361Y-77141517D02*
X115966123Y-77189136D01*
X115966123Y-77189136D02*
X115775647Y-77236755D01*
X115775647Y-77236755D02*
X115632790Y-77236755D01*
X115632790Y-77236755D02*
X115442314Y-77189136D01*
X115442314Y-77189136D02*
X115347076Y-77141517D01*
X115347076Y-77141517D02*
X115251838Y-77046279D01*
X115251838Y-77046279D02*
X115204219Y-76903422D01*
X115204219Y-76903422D02*
X115204219Y-76808184D01*
X115204219Y-76808184D02*
X115251838Y-76665327D01*
X115251838Y-76665327D02*
X115299457Y-76617708D01*
X116156600Y-76236755D02*
X116204219Y-76093898D01*
X116204219Y-76093898D02*
X116204219Y-75855803D01*
X116204219Y-75855803D02*
X116156600Y-75760565D01*
X116156600Y-75760565D02*
X116108980Y-75712946D01*
X116108980Y-75712946D02*
X116013742Y-75665327D01*
X116013742Y-75665327D02*
X115918504Y-75665327D01*
X115918504Y-75665327D02*
X115823266Y-75712946D01*
X115823266Y-75712946D02*
X115775647Y-75760565D01*
X115775647Y-75760565D02*
X115728028Y-75855803D01*
X115728028Y-75855803D02*
X115680409Y-76046279D01*
X115680409Y-76046279D02*
X115632790Y-76141517D01*
X115632790Y-76141517D02*
X115585171Y-76189136D01*
X115585171Y-76189136D02*
X115489933Y-76236755D01*
X115489933Y-76236755D02*
X115394695Y-76236755D01*
X115394695Y-76236755D02*
X115299457Y-76189136D01*
X115299457Y-76189136D02*
X115251838Y-76141517D01*
X115251838Y-76141517D02*
X115204219Y-76046279D01*
X115204219Y-76046279D02*
X115204219Y-75808184D01*
X115204219Y-75808184D02*
X115251838Y-75665327D01*
X116204219Y-75236755D02*
X115204219Y-75236755D01*
X115204219Y-75236755D02*
X115204219Y-74855803D01*
X115204219Y-74855803D02*
X115251838Y-74760565D01*
X115251838Y-74760565D02*
X115299457Y-74712946D01*
X115299457Y-74712946D02*
X115394695Y-74665327D01*
X115394695Y-74665327D02*
X115537552Y-74665327D01*
X115537552Y-74665327D02*
X115632790Y-74712946D01*
X115632790Y-74712946D02*
X115680409Y-74760565D01*
X115680409Y-74760565D02*
X115728028Y-74855803D01*
X115728028Y-74855803D02*
X115728028Y-75236755D01*
X90690435Y-77046028D02*
X90976149Y-77046028D01*
X90976149Y-77046028D02*
X91119006Y-77117457D01*
X91119006Y-77117457D02*
X91261863Y-77260314D01*
X91261863Y-77260314D02*
X91333292Y-77546028D01*
X91333292Y-77546028D02*
X91333292Y-78046028D01*
X91333292Y-78046028D02*
X91261863Y-78331742D01*
X91261863Y-78331742D02*
X91119006Y-78474600D01*
X91119006Y-78474600D02*
X90976149Y-78546028D01*
X90976149Y-78546028D02*
X90690435Y-78546028D01*
X90690435Y-78546028D02*
X90547578Y-78474600D01*
X90547578Y-78474600D02*
X90404720Y-78331742D01*
X90404720Y-78331742D02*
X90333292Y-78046028D01*
X90333292Y-78046028D02*
X90333292Y-77546028D01*
X90333292Y-77546028D02*
X90404720Y-77260314D01*
X90404720Y-77260314D02*
X90547578Y-77117457D01*
X90547578Y-77117457D02*
X90690435Y-77046028D01*
X92619007Y-77546028D02*
X92619007Y-78546028D01*
X91976149Y-77546028D02*
X91976149Y-78331742D01*
X91976149Y-78331742D02*
X92047578Y-78474600D01*
X92047578Y-78474600D02*
X92190435Y-78546028D01*
X92190435Y-78546028D02*
X92404721Y-78546028D01*
X92404721Y-78546028D02*
X92547578Y-78474600D01*
X92547578Y-78474600D02*
X92619007Y-78403171D01*
X93119007Y-77546028D02*
X93690435Y-77546028D01*
X93333292Y-77046028D02*
X93333292Y-78331742D01*
X93333292Y-78331742D02*
X93404721Y-78474600D01*
X93404721Y-78474600D02*
X93547578Y-78546028D01*
X93547578Y-78546028D02*
X93690435Y-78546028D01*
X94190435Y-77546028D02*
X94190435Y-79046028D01*
X94190435Y-77617457D02*
X94333293Y-77546028D01*
X94333293Y-77546028D02*
X94619007Y-77546028D01*
X94619007Y-77546028D02*
X94761864Y-77617457D01*
X94761864Y-77617457D02*
X94833293Y-77688885D01*
X94833293Y-77688885D02*
X94904721Y-77831742D01*
X94904721Y-77831742D02*
X94904721Y-78260314D01*
X94904721Y-78260314D02*
X94833293Y-78403171D01*
X94833293Y-78403171D02*
X94761864Y-78474600D01*
X94761864Y-78474600D02*
X94619007Y-78546028D01*
X94619007Y-78546028D02*
X94333293Y-78546028D01*
X94333293Y-78546028D02*
X94190435Y-78474600D01*
X96190436Y-77546028D02*
X96190436Y-78546028D01*
X95547578Y-77546028D02*
X95547578Y-78331742D01*
X95547578Y-78331742D02*
X95619007Y-78474600D01*
X95619007Y-78474600D02*
X95761864Y-78546028D01*
X95761864Y-78546028D02*
X95976150Y-78546028D01*
X95976150Y-78546028D02*
X96119007Y-78474600D01*
X96119007Y-78474600D02*
X96190436Y-78403171D01*
X96690436Y-77546028D02*
X97261864Y-77546028D01*
X96904721Y-77046028D02*
X96904721Y-78331742D01*
X96904721Y-78331742D02*
X96976150Y-78474600D01*
X96976150Y-78474600D02*
X97119007Y-78546028D01*
X97119007Y-78546028D02*
X97261864Y-78546028D01*
X105213838Y-78481517D02*
X105166219Y-78576755D01*
X105166219Y-78576755D02*
X105166219Y-78719612D01*
X105166219Y-78719612D02*
X105213838Y-78862469D01*
X105213838Y-78862469D02*
X105309076Y-78957707D01*
X105309076Y-78957707D02*
X105404314Y-79005326D01*
X105404314Y-79005326D02*
X105594790Y-79052945D01*
X105594790Y-79052945D02*
X105737647Y-79052945D01*
X105737647Y-79052945D02*
X105928123Y-79005326D01*
X105928123Y-79005326D02*
X106023361Y-78957707D01*
X106023361Y-78957707D02*
X106118600Y-78862469D01*
X106118600Y-78862469D02*
X106166219Y-78719612D01*
X106166219Y-78719612D02*
X106166219Y-78624374D01*
X106166219Y-78624374D02*
X106118600Y-78481517D01*
X106118600Y-78481517D02*
X106070980Y-78433898D01*
X106070980Y-78433898D02*
X105737647Y-78433898D01*
X105737647Y-78433898D02*
X105737647Y-78624374D01*
X106166219Y-78005326D02*
X105166219Y-78005326D01*
X105166219Y-78005326D02*
X106166219Y-77433898D01*
X106166219Y-77433898D02*
X105166219Y-77433898D01*
X106166219Y-76957707D02*
X105166219Y-76957707D01*
X105166219Y-76957707D02*
X105166219Y-76719612D01*
X105166219Y-76719612D02*
X105213838Y-76576755D01*
X105213838Y-76576755D02*
X105309076Y-76481517D01*
X105309076Y-76481517D02*
X105404314Y-76433898D01*
X105404314Y-76433898D02*
X105594790Y-76386279D01*
X105594790Y-76386279D02*
X105737647Y-76386279D01*
X105737647Y-76386279D02*
X105928123Y-76433898D01*
X105928123Y-76433898D02*
X106023361Y-76481517D01*
X106023361Y-76481517D02*
X106118600Y-76576755D01*
X106118600Y-76576755D02*
X106166219Y-76719612D01*
X106166219Y-76719612D02*
X106166219Y-76957707D01*
D12*
X156534225Y-51585257D02*
X156391368Y-51513828D01*
X156391368Y-51513828D02*
X156177082Y-51513828D01*
X156177082Y-51513828D02*
X155962796Y-51585257D01*
X155962796Y-51585257D02*
X155819939Y-51728114D01*
X155819939Y-51728114D02*
X155748510Y-51870971D01*
X155748510Y-51870971D02*
X155677082Y-52156685D01*
X155677082Y-52156685D02*
X155677082Y-52370971D01*
X155677082Y-52370971D02*
X155748510Y-52656685D01*
X155748510Y-52656685D02*
X155819939Y-52799542D01*
X155819939Y-52799542D02*
X155962796Y-52942400D01*
X155962796Y-52942400D02*
X156177082Y-53013828D01*
X156177082Y-53013828D02*
X156319939Y-53013828D01*
X156319939Y-53013828D02*
X156534225Y-52942400D01*
X156534225Y-52942400D02*
X156605653Y-52870971D01*
X156605653Y-52870971D02*
X156605653Y-52370971D01*
X156605653Y-52370971D02*
X156319939Y-52370971D01*
X157891368Y-53013828D02*
X157891368Y-52228114D01*
X157891368Y-52228114D02*
X157819939Y-52085257D01*
X157819939Y-52085257D02*
X157677082Y-52013828D01*
X157677082Y-52013828D02*
X157391368Y-52013828D01*
X157391368Y-52013828D02*
X157248510Y-52085257D01*
X157891368Y-52942400D02*
X157748510Y-53013828D01*
X157748510Y-53013828D02*
X157391368Y-53013828D01*
X157391368Y-53013828D02*
X157248510Y-52942400D01*
X157248510Y-52942400D02*
X157177082Y-52799542D01*
X157177082Y-52799542D02*
X157177082Y-52656685D01*
X157177082Y-52656685D02*
X157248510Y-52513828D01*
X157248510Y-52513828D02*
X157391368Y-52442400D01*
X157391368Y-52442400D02*
X157748510Y-52442400D01*
X157748510Y-52442400D02*
X157891368Y-52370971D01*
X158391368Y-52013828D02*
X158962796Y-52013828D01*
X158605653Y-51513828D02*
X158605653Y-52799542D01*
X158605653Y-52799542D02*
X158677082Y-52942400D01*
X158677082Y-52942400D02*
X158819939Y-53013828D01*
X158819939Y-53013828D02*
X158962796Y-53013828D01*
X160034225Y-52942400D02*
X159891368Y-53013828D01*
X159891368Y-53013828D02*
X159605654Y-53013828D01*
X159605654Y-53013828D02*
X159462796Y-52942400D01*
X159462796Y-52942400D02*
X159391368Y-52799542D01*
X159391368Y-52799542D02*
X159391368Y-52228114D01*
X159391368Y-52228114D02*
X159462796Y-52085257D01*
X159462796Y-52085257D02*
X159605654Y-52013828D01*
X159605654Y-52013828D02*
X159891368Y-52013828D01*
X159891368Y-52013828D02*
X160034225Y-52085257D01*
X160034225Y-52085257D02*
X160105654Y-52228114D01*
X160105654Y-52228114D02*
X160105654Y-52370971D01*
X160105654Y-52370971D02*
X159391368Y-52513828D01*
D10*
X103092409Y-79447993D02*
X103092409Y-79781326D01*
X103616219Y-79781326D02*
X102616219Y-79781326D01*
X102616219Y-79781326D02*
X102616219Y-79305136D01*
X103616219Y-78924183D02*
X102949552Y-78924183D01*
X102616219Y-78924183D02*
X102663838Y-78971802D01*
X102663838Y-78971802D02*
X102711457Y-78924183D01*
X102711457Y-78924183D02*
X102663838Y-78876564D01*
X102663838Y-78876564D02*
X102616219Y-78924183D01*
X102616219Y-78924183D02*
X102711457Y-78924183D01*
X103616219Y-78305136D02*
X103568600Y-78400374D01*
X103568600Y-78400374D02*
X103473361Y-78447993D01*
X103473361Y-78447993D02*
X102616219Y-78447993D01*
X102949552Y-78067040D02*
X102949552Y-77686088D01*
X102616219Y-77924183D02*
X103473361Y-77924183D01*
X103473361Y-77924183D02*
X103568600Y-77876564D01*
X103568600Y-77876564D02*
X103616219Y-77781326D01*
X103616219Y-77781326D02*
X103616219Y-77686088D01*
X103568600Y-76971802D02*
X103616219Y-77067040D01*
X103616219Y-77067040D02*
X103616219Y-77257516D01*
X103616219Y-77257516D02*
X103568600Y-77352754D01*
X103568600Y-77352754D02*
X103473361Y-77400373D01*
X103473361Y-77400373D02*
X103092409Y-77400373D01*
X103092409Y-77400373D02*
X102997171Y-77352754D01*
X102997171Y-77352754D02*
X102949552Y-77257516D01*
X102949552Y-77257516D02*
X102949552Y-77067040D01*
X102949552Y-77067040D02*
X102997171Y-76971802D01*
X102997171Y-76971802D02*
X103092409Y-76924183D01*
X103092409Y-76924183D02*
X103187647Y-76924183D01*
X103187647Y-76924183D02*
X103282885Y-77400373D01*
X103616219Y-76495611D02*
X102949552Y-76495611D01*
X103140028Y-76495611D02*
X103044790Y-76447992D01*
X103044790Y-76447992D02*
X102997171Y-76400373D01*
X102997171Y-76400373D02*
X102949552Y-76305135D01*
X102949552Y-76305135D02*
X102949552Y-76209897D01*
D12*
X100757510Y-34471828D02*
X100757510Y-32971828D01*
X100757510Y-32971828D02*
X101114653Y-32971828D01*
X101114653Y-32971828D02*
X101328939Y-33043257D01*
X101328939Y-33043257D02*
X101471796Y-33186114D01*
X101471796Y-33186114D02*
X101543225Y-33328971D01*
X101543225Y-33328971D02*
X101614653Y-33614685D01*
X101614653Y-33614685D02*
X101614653Y-33828971D01*
X101614653Y-33828971D02*
X101543225Y-34114685D01*
X101543225Y-34114685D02*
X101471796Y-34257542D01*
X101471796Y-34257542D02*
X101328939Y-34400400D01*
X101328939Y-34400400D02*
X101114653Y-34471828D01*
X101114653Y-34471828D02*
X100757510Y-34471828D01*
X102828939Y-34400400D02*
X102686082Y-34471828D01*
X102686082Y-34471828D02*
X102400368Y-34471828D01*
X102400368Y-34471828D02*
X102257510Y-34400400D01*
X102257510Y-34400400D02*
X102186082Y-34257542D01*
X102186082Y-34257542D02*
X102186082Y-33686114D01*
X102186082Y-33686114D02*
X102257510Y-33543257D01*
X102257510Y-33543257D02*
X102400368Y-33471828D01*
X102400368Y-33471828D02*
X102686082Y-33471828D01*
X102686082Y-33471828D02*
X102828939Y-33543257D01*
X102828939Y-33543257D02*
X102900368Y-33686114D01*
X102900368Y-33686114D02*
X102900368Y-33828971D01*
X102900368Y-33828971D02*
X102186082Y-33971828D01*
X104186082Y-34400400D02*
X104043224Y-34471828D01*
X104043224Y-34471828D02*
X103757510Y-34471828D01*
X103757510Y-34471828D02*
X103614653Y-34400400D01*
X103614653Y-34400400D02*
X103543224Y-34328971D01*
X103543224Y-34328971D02*
X103471796Y-34186114D01*
X103471796Y-34186114D02*
X103471796Y-33757542D01*
X103471796Y-33757542D02*
X103543224Y-33614685D01*
X103543224Y-33614685D02*
X103614653Y-33543257D01*
X103614653Y-33543257D02*
X103757510Y-33471828D01*
X103757510Y-33471828D02*
X104043224Y-33471828D01*
X104043224Y-33471828D02*
X104186082Y-33543257D01*
X105471796Y-34471828D02*
X105471796Y-33686114D01*
X105471796Y-33686114D02*
X105400367Y-33543257D01*
X105400367Y-33543257D02*
X105257510Y-33471828D01*
X105257510Y-33471828D02*
X104971796Y-33471828D01*
X104971796Y-33471828D02*
X104828938Y-33543257D01*
X105471796Y-34400400D02*
X105328938Y-34471828D01*
X105328938Y-34471828D02*
X104971796Y-34471828D01*
X104971796Y-34471828D02*
X104828938Y-34400400D01*
X104828938Y-34400400D02*
X104757510Y-34257542D01*
X104757510Y-34257542D02*
X104757510Y-34114685D01*
X104757510Y-34114685D02*
X104828938Y-33971828D01*
X104828938Y-33971828D02*
X104971796Y-33900400D01*
X104971796Y-33900400D02*
X105328938Y-33900400D01*
X105328938Y-33900400D02*
X105471796Y-33828971D01*
X106043224Y-33471828D02*
X106400367Y-34471828D01*
X106757510Y-33471828D02*
X106400367Y-34471828D01*
X106400367Y-34471828D02*
X106257510Y-34828971D01*
X106257510Y-34828971D02*
X106186081Y-34900400D01*
X106186081Y-34900400D02*
X106043224Y-34971828D01*
D10*
X165411038Y-63176517D02*
X165363419Y-63271755D01*
X165363419Y-63271755D02*
X165363419Y-63414612D01*
X165363419Y-63414612D02*
X165411038Y-63557469D01*
X165411038Y-63557469D02*
X165506276Y-63652707D01*
X165506276Y-63652707D02*
X165601514Y-63700326D01*
X165601514Y-63700326D02*
X165791990Y-63747945D01*
X165791990Y-63747945D02*
X165934847Y-63747945D01*
X165934847Y-63747945D02*
X166125323Y-63700326D01*
X166125323Y-63700326D02*
X166220561Y-63652707D01*
X166220561Y-63652707D02*
X166315800Y-63557469D01*
X166315800Y-63557469D02*
X166363419Y-63414612D01*
X166363419Y-63414612D02*
X166363419Y-63319374D01*
X166363419Y-63319374D02*
X166315800Y-63176517D01*
X166315800Y-63176517D02*
X166268180Y-63128898D01*
X166268180Y-63128898D02*
X165934847Y-63128898D01*
X165934847Y-63128898D02*
X165934847Y-63319374D01*
X166363419Y-62700326D02*
X165363419Y-62700326D01*
X165363419Y-62700326D02*
X166363419Y-62128898D01*
X166363419Y-62128898D02*
X165363419Y-62128898D01*
X166363419Y-61652707D02*
X165363419Y-61652707D01*
X165363419Y-61652707D02*
X165363419Y-61414612D01*
X165363419Y-61414612D02*
X165411038Y-61271755D01*
X165411038Y-61271755D02*
X165506276Y-61176517D01*
X165506276Y-61176517D02*
X165601514Y-61128898D01*
X165601514Y-61128898D02*
X165791990Y-61081279D01*
X165791990Y-61081279D02*
X165934847Y-61081279D01*
X165934847Y-61081279D02*
X166125323Y-61128898D01*
X166125323Y-61128898D02*
X166220561Y-61176517D01*
X166220561Y-61176517D02*
X166315800Y-61271755D01*
X166315800Y-61271755D02*
X166363419Y-61414612D01*
X166363419Y-61414612D02*
X166363419Y-61652707D01*
D12*
X82017082Y-34043257D02*
X82731368Y-34043257D01*
X81874225Y-34471828D02*
X82374225Y-32971828D01*
X82374225Y-32971828D02*
X82874225Y-34471828D01*
X83159939Y-33471828D02*
X83731367Y-33471828D01*
X83374224Y-32971828D02*
X83374224Y-34257542D01*
X83374224Y-34257542D02*
X83445653Y-34400400D01*
X83445653Y-34400400D02*
X83588510Y-34471828D01*
X83588510Y-34471828D02*
X83731367Y-34471828D01*
X84017082Y-33471828D02*
X84588510Y-33471828D01*
X84231367Y-32971828D02*
X84231367Y-34257542D01*
X84231367Y-34257542D02*
X84302796Y-34400400D01*
X84302796Y-34400400D02*
X84445653Y-34471828D01*
X84445653Y-34471828D02*
X84588510Y-34471828D01*
X85731368Y-34471828D02*
X85731368Y-33686114D01*
X85731368Y-33686114D02*
X85659939Y-33543257D01*
X85659939Y-33543257D02*
X85517082Y-33471828D01*
X85517082Y-33471828D02*
X85231368Y-33471828D01*
X85231368Y-33471828D02*
X85088510Y-33543257D01*
X85731368Y-34400400D02*
X85588510Y-34471828D01*
X85588510Y-34471828D02*
X85231368Y-34471828D01*
X85231368Y-34471828D02*
X85088510Y-34400400D01*
X85088510Y-34400400D02*
X85017082Y-34257542D01*
X85017082Y-34257542D02*
X85017082Y-34114685D01*
X85017082Y-34114685D02*
X85088510Y-33971828D01*
X85088510Y-33971828D02*
X85231368Y-33900400D01*
X85231368Y-33900400D02*
X85588510Y-33900400D01*
X85588510Y-33900400D02*
X85731368Y-33828971D01*
X87088511Y-34400400D02*
X86945653Y-34471828D01*
X86945653Y-34471828D02*
X86659939Y-34471828D01*
X86659939Y-34471828D02*
X86517082Y-34400400D01*
X86517082Y-34400400D02*
X86445653Y-34328971D01*
X86445653Y-34328971D02*
X86374225Y-34186114D01*
X86374225Y-34186114D02*
X86374225Y-33757542D01*
X86374225Y-33757542D02*
X86445653Y-33614685D01*
X86445653Y-33614685D02*
X86517082Y-33543257D01*
X86517082Y-33543257D02*
X86659939Y-33471828D01*
X86659939Y-33471828D02*
X86945653Y-33471828D01*
X86945653Y-33471828D02*
X87088511Y-33543257D01*
X87731367Y-34471828D02*
X87731367Y-32971828D01*
X87874225Y-33900400D02*
X88302796Y-34471828D01*
X88302796Y-33471828D02*
X87731367Y-34043257D01*
X156042225Y-31701828D02*
X156542225Y-33201828D01*
X156542225Y-33201828D02*
X157042225Y-31701828D01*
X158399367Y-33058971D02*
X158327939Y-33130400D01*
X158327939Y-33130400D02*
X158113653Y-33201828D01*
X158113653Y-33201828D02*
X157970796Y-33201828D01*
X157970796Y-33201828D02*
X157756510Y-33130400D01*
X157756510Y-33130400D02*
X157613653Y-32987542D01*
X157613653Y-32987542D02*
X157542224Y-32844685D01*
X157542224Y-32844685D02*
X157470796Y-32558971D01*
X157470796Y-32558971D02*
X157470796Y-32344685D01*
X157470796Y-32344685D02*
X157542224Y-32058971D01*
X157542224Y-32058971D02*
X157613653Y-31916114D01*
X157613653Y-31916114D02*
X157756510Y-31773257D01*
X157756510Y-31773257D02*
X157970796Y-31701828D01*
X157970796Y-31701828D02*
X158113653Y-31701828D01*
X158113653Y-31701828D02*
X158327939Y-31773257D01*
X158327939Y-31773257D02*
X158399367Y-31844685D01*
X158970796Y-32773257D02*
X159685082Y-32773257D01*
X158827939Y-33201828D02*
X159327939Y-31701828D01*
X159327939Y-31701828D02*
X159827939Y-33201828D01*
D10*
X135870720Y-75752028D02*
X135870720Y-74252028D01*
X136585006Y-74752028D02*
X136585006Y-75752028D01*
X136585006Y-74894885D02*
X136656435Y-74823457D01*
X136656435Y-74823457D02*
X136799292Y-74752028D01*
X136799292Y-74752028D02*
X137013578Y-74752028D01*
X137013578Y-74752028D02*
X137156435Y-74823457D01*
X137156435Y-74823457D02*
X137227864Y-74966314D01*
X137227864Y-74966314D02*
X137227864Y-75752028D01*
X137942149Y-74752028D02*
X137942149Y-76252028D01*
X137942149Y-74823457D02*
X138085007Y-74752028D01*
X138085007Y-74752028D02*
X138370721Y-74752028D01*
X138370721Y-74752028D02*
X138513578Y-74823457D01*
X138513578Y-74823457D02*
X138585007Y-74894885D01*
X138585007Y-74894885D02*
X138656435Y-75037742D01*
X138656435Y-75037742D02*
X138656435Y-75466314D01*
X138656435Y-75466314D02*
X138585007Y-75609171D01*
X138585007Y-75609171D02*
X138513578Y-75680600D01*
X138513578Y-75680600D02*
X138370721Y-75752028D01*
X138370721Y-75752028D02*
X138085007Y-75752028D01*
X138085007Y-75752028D02*
X137942149Y-75680600D01*
X139942150Y-74752028D02*
X139942150Y-75752028D01*
X139299292Y-74752028D02*
X139299292Y-75537742D01*
X139299292Y-75537742D02*
X139370721Y-75680600D01*
X139370721Y-75680600D02*
X139513578Y-75752028D01*
X139513578Y-75752028D02*
X139727864Y-75752028D01*
X139727864Y-75752028D02*
X139870721Y-75680600D01*
X139870721Y-75680600D02*
X139942150Y-75609171D01*
X140442150Y-74752028D02*
X141013578Y-74752028D01*
X140656435Y-74252028D02*
X140656435Y-75537742D01*
X140656435Y-75537742D02*
X140727864Y-75680600D01*
X140727864Y-75680600D02*
X140870721Y-75752028D01*
X140870721Y-75752028D02*
X141013578Y-75752028D01*
D12*
X153589510Y-34956114D02*
X154089510Y-34956114D01*
X154303796Y-35741828D02*
X153589510Y-35741828D01*
X153589510Y-35741828D02*
X153589510Y-34241828D01*
X153589510Y-34241828D02*
X154303796Y-34241828D01*
X154946653Y-34741828D02*
X154946653Y-35741828D01*
X154946653Y-34884685D02*
X155018082Y-34813257D01*
X155018082Y-34813257D02*
X155160939Y-34741828D01*
X155160939Y-34741828D02*
X155375225Y-34741828D01*
X155375225Y-34741828D02*
X155518082Y-34813257D01*
X155518082Y-34813257D02*
X155589511Y-34956114D01*
X155589511Y-34956114D02*
X155589511Y-35741828D01*
X156160939Y-34741828D02*
X156518082Y-35741828D01*
X156518082Y-35741828D02*
X156875225Y-34741828D01*
X158018082Y-35670400D02*
X157875225Y-35741828D01*
X157875225Y-35741828D02*
X157589511Y-35741828D01*
X157589511Y-35741828D02*
X157446653Y-35670400D01*
X157446653Y-35670400D02*
X157375225Y-35527542D01*
X157375225Y-35527542D02*
X157375225Y-34956114D01*
X157375225Y-34956114D02*
X157446653Y-34813257D01*
X157446653Y-34813257D02*
X157589511Y-34741828D01*
X157589511Y-34741828D02*
X157875225Y-34741828D01*
X157875225Y-34741828D02*
X158018082Y-34813257D01*
X158018082Y-34813257D02*
X158089511Y-34956114D01*
X158089511Y-34956114D02*
X158089511Y-35098971D01*
X158089511Y-35098971D02*
X157375225Y-35241828D01*
X158946653Y-35741828D02*
X158803796Y-35670400D01*
X158803796Y-35670400D02*
X158732367Y-35527542D01*
X158732367Y-35527542D02*
X158732367Y-34241828D01*
X159732367Y-35741828D02*
X159589510Y-35670400D01*
X159589510Y-35670400D02*
X159518081Y-35598971D01*
X159518081Y-35598971D02*
X159446653Y-35456114D01*
X159446653Y-35456114D02*
X159446653Y-35027542D01*
X159446653Y-35027542D02*
X159518081Y-34884685D01*
X159518081Y-34884685D02*
X159589510Y-34813257D01*
X159589510Y-34813257D02*
X159732367Y-34741828D01*
X159732367Y-34741828D02*
X159946653Y-34741828D01*
X159946653Y-34741828D02*
X160089510Y-34813257D01*
X160089510Y-34813257D02*
X160160939Y-34884685D01*
X160160939Y-34884685D02*
X160232367Y-35027542D01*
X160232367Y-35027542D02*
X160232367Y-35456114D01*
X160232367Y-35456114D02*
X160160939Y-35598971D01*
X160160939Y-35598971D02*
X160089510Y-35670400D01*
X160089510Y-35670400D02*
X159946653Y-35741828D01*
X159946653Y-35741828D02*
X159732367Y-35741828D01*
X160875224Y-34741828D02*
X160875224Y-36241828D01*
X160875224Y-34813257D02*
X161018082Y-34741828D01*
X161018082Y-34741828D02*
X161303796Y-34741828D01*
X161303796Y-34741828D02*
X161446653Y-34813257D01*
X161446653Y-34813257D02*
X161518082Y-34884685D01*
X161518082Y-34884685D02*
X161589510Y-35027542D01*
X161589510Y-35027542D02*
X161589510Y-35456114D01*
X161589510Y-35456114D02*
X161518082Y-35598971D01*
X161518082Y-35598971D02*
X161446653Y-35670400D01*
X161446653Y-35670400D02*
X161303796Y-35741828D01*
X161303796Y-35741828D02*
X161018082Y-35741828D01*
X161018082Y-35741828D02*
X160875224Y-35670400D01*
X162803796Y-35670400D02*
X162660939Y-35741828D01*
X162660939Y-35741828D02*
X162375225Y-35741828D01*
X162375225Y-35741828D02*
X162232367Y-35670400D01*
X162232367Y-35670400D02*
X162160939Y-35527542D01*
X162160939Y-35527542D02*
X162160939Y-34956114D01*
X162160939Y-34956114D02*
X162232367Y-34813257D01*
X162232367Y-34813257D02*
X162375225Y-34741828D01*
X162375225Y-34741828D02*
X162660939Y-34741828D01*
X162660939Y-34741828D02*
X162803796Y-34813257D01*
X162803796Y-34813257D02*
X162875225Y-34956114D01*
X162875225Y-34956114D02*
X162875225Y-35098971D01*
X162875225Y-35098971D02*
X162160939Y-35241828D01*
D10*
X151695838Y-77719517D02*
X151648219Y-77814755D01*
X151648219Y-77814755D02*
X151648219Y-77957612D01*
X151648219Y-77957612D02*
X151695838Y-78100469D01*
X151695838Y-78100469D02*
X151791076Y-78195707D01*
X151791076Y-78195707D02*
X151886314Y-78243326D01*
X151886314Y-78243326D02*
X152076790Y-78290945D01*
X152076790Y-78290945D02*
X152219647Y-78290945D01*
X152219647Y-78290945D02*
X152410123Y-78243326D01*
X152410123Y-78243326D02*
X152505361Y-78195707D01*
X152505361Y-78195707D02*
X152600600Y-78100469D01*
X152600600Y-78100469D02*
X152648219Y-77957612D01*
X152648219Y-77957612D02*
X152648219Y-77862374D01*
X152648219Y-77862374D02*
X152600600Y-77719517D01*
X152600600Y-77719517D02*
X152552980Y-77671898D01*
X152552980Y-77671898D02*
X152219647Y-77671898D01*
X152219647Y-77671898D02*
X152219647Y-77862374D01*
X152648219Y-76814755D02*
X152124409Y-76814755D01*
X152124409Y-76814755D02*
X152029171Y-76862374D01*
X152029171Y-76862374D02*
X151981552Y-76957612D01*
X151981552Y-76957612D02*
X151981552Y-77148088D01*
X151981552Y-77148088D02*
X152029171Y-77243326D01*
X152600600Y-76814755D02*
X152648219Y-76909993D01*
X152648219Y-76909993D02*
X152648219Y-77148088D01*
X152648219Y-77148088D02*
X152600600Y-77243326D01*
X152600600Y-77243326D02*
X152505361Y-77290945D01*
X152505361Y-77290945D02*
X152410123Y-77290945D01*
X152410123Y-77290945D02*
X152314885Y-77243326D01*
X152314885Y-77243326D02*
X152267266Y-77148088D01*
X152267266Y-77148088D02*
X152267266Y-76909993D01*
X152267266Y-76909993D02*
X152219647Y-76814755D01*
X151981552Y-76481421D02*
X151981552Y-76100469D01*
X151648219Y-76338564D02*
X152505361Y-76338564D01*
X152505361Y-76338564D02*
X152600600Y-76290945D01*
X152600600Y-76290945D02*
X152648219Y-76195707D01*
X152648219Y-76195707D02*
X152648219Y-76100469D01*
X152600600Y-75386183D02*
X152648219Y-75481421D01*
X152648219Y-75481421D02*
X152648219Y-75671897D01*
X152648219Y-75671897D02*
X152600600Y-75767135D01*
X152600600Y-75767135D02*
X152505361Y-75814754D01*
X152505361Y-75814754D02*
X152124409Y-75814754D01*
X152124409Y-75814754D02*
X152029171Y-75767135D01*
X152029171Y-75767135D02*
X151981552Y-75671897D01*
X151981552Y-75671897D02*
X151981552Y-75481421D01*
X151981552Y-75481421D02*
X152029171Y-75386183D01*
X152029171Y-75386183D02*
X152124409Y-75338564D01*
X152124409Y-75338564D02*
X152219647Y-75338564D01*
X152219647Y-75338564D02*
X152314885Y-75814754D01*
D13*
X83466905Y-65428318D02*
X83890238Y-66698318D01*
X83890238Y-66698318D02*
X84313572Y-65428318D01*
X85462619Y-66698318D02*
X85039285Y-66093556D01*
X84736904Y-66698318D02*
X84736904Y-65428318D01*
X84736904Y-65428318D02*
X85220714Y-65428318D01*
X85220714Y-65428318D02*
X85341666Y-65488794D01*
X85341666Y-65488794D02*
X85402143Y-65549270D01*
X85402143Y-65549270D02*
X85462619Y-65670222D01*
X85462619Y-65670222D02*
X85462619Y-65851651D01*
X85462619Y-65851651D02*
X85402143Y-65972603D01*
X85402143Y-65972603D02*
X85341666Y-66033080D01*
X85341666Y-66033080D02*
X85220714Y-66093556D01*
X85220714Y-66093556D02*
X84736904Y-66093556D01*
X86611666Y-65428318D02*
X86006904Y-65428318D01*
X86006904Y-65428318D02*
X85946428Y-66033080D01*
X85946428Y-66033080D02*
X86006904Y-65972603D01*
X86006904Y-65972603D02*
X86127857Y-65912127D01*
X86127857Y-65912127D02*
X86430238Y-65912127D01*
X86430238Y-65912127D02*
X86551190Y-65972603D01*
X86551190Y-65972603D02*
X86611666Y-66033080D01*
X86611666Y-66033080D02*
X86672143Y-66154032D01*
X86672143Y-66154032D02*
X86672143Y-66456413D01*
X86672143Y-66456413D02*
X86611666Y-66577365D01*
X86611666Y-66577365D02*
X86551190Y-66637842D01*
X86551190Y-66637842D02*
X86430238Y-66698318D01*
X86430238Y-66698318D02*
X86127857Y-66698318D01*
X86127857Y-66698318D02*
X86006904Y-66637842D01*
X86006904Y-66637842D02*
X85946428Y-66577365D01*
X98074237Y-54295318D02*
X98074237Y-53025318D01*
X99404714Y-54174365D02*
X99344238Y-54234842D01*
X99344238Y-54234842D02*
X99162809Y-54295318D01*
X99162809Y-54295318D02*
X99041857Y-54295318D01*
X99041857Y-54295318D02*
X98860428Y-54234842D01*
X98860428Y-54234842D02*
X98739476Y-54113889D01*
X98739476Y-54113889D02*
X98678999Y-53992937D01*
X98678999Y-53992937D02*
X98618523Y-53751032D01*
X98618523Y-53751032D02*
X98618523Y-53569603D01*
X98618523Y-53569603D02*
X98678999Y-53327699D01*
X98678999Y-53327699D02*
X98739476Y-53206746D01*
X98739476Y-53206746D02*
X98860428Y-53085794D01*
X98860428Y-53085794D02*
X99041857Y-53025318D01*
X99041857Y-53025318D02*
X99162809Y-53025318D01*
X99162809Y-53025318D02*
X99344238Y-53085794D01*
X99344238Y-53085794D02*
X99404714Y-53146270D01*
X99888523Y-53146270D02*
X99948999Y-53085794D01*
X99948999Y-53085794D02*
X100069952Y-53025318D01*
X100069952Y-53025318D02*
X100372333Y-53025318D01*
X100372333Y-53025318D02*
X100493285Y-53085794D01*
X100493285Y-53085794D02*
X100553761Y-53146270D01*
X100553761Y-53146270D02*
X100614238Y-53267222D01*
X100614238Y-53267222D02*
X100614238Y-53388175D01*
X100614238Y-53388175D02*
X100553761Y-53569603D01*
X100553761Y-53569603D02*
X99828047Y-54295318D01*
X99828047Y-54295318D02*
X100614238Y-54295318D01*
D11*
X109688333Y-55953819D02*
X109355000Y-55477628D01*
X109116905Y-55953819D02*
X109116905Y-54953819D01*
X109116905Y-54953819D02*
X109497857Y-54953819D01*
X109497857Y-54953819D02*
X109593095Y-55001438D01*
X109593095Y-55001438D02*
X109640714Y-55049057D01*
X109640714Y-55049057D02*
X109688333Y-55144295D01*
X109688333Y-55144295D02*
X109688333Y-55287152D01*
X109688333Y-55287152D02*
X109640714Y-55382390D01*
X109640714Y-55382390D02*
X109593095Y-55430009D01*
X109593095Y-55430009D02*
X109497857Y-55477628D01*
X109497857Y-55477628D02*
X109116905Y-55477628D01*
X110021667Y-54953819D02*
X110640714Y-54953819D01*
X110640714Y-54953819D02*
X110307381Y-55334771D01*
X110307381Y-55334771D02*
X110450238Y-55334771D01*
X110450238Y-55334771D02*
X110545476Y-55382390D01*
X110545476Y-55382390D02*
X110593095Y-55430009D01*
X110593095Y-55430009D02*
X110640714Y-55525247D01*
X110640714Y-55525247D02*
X110640714Y-55763342D01*
X110640714Y-55763342D02*
X110593095Y-55858580D01*
X110593095Y-55858580D02*
X110545476Y-55906200D01*
X110545476Y-55906200D02*
X110450238Y-55953819D01*
X110450238Y-55953819D02*
X110164524Y-55953819D01*
X110164524Y-55953819D02*
X110069286Y-55906200D01*
X110069286Y-55906200D02*
X110021667Y-55858580D01*
D13*
X120341905Y-43134318D02*
X120765238Y-44404318D01*
X120765238Y-44404318D02*
X121188572Y-43134318D01*
X122337619Y-44404318D02*
X121914285Y-43799556D01*
X121611904Y-44404318D02*
X121611904Y-43134318D01*
X121611904Y-43134318D02*
X122095714Y-43134318D01*
X122095714Y-43134318D02*
X122216666Y-43194794D01*
X122216666Y-43194794D02*
X122277143Y-43255270D01*
X122277143Y-43255270D02*
X122337619Y-43376222D01*
X122337619Y-43376222D02*
X122337619Y-43557651D01*
X122337619Y-43557651D02*
X122277143Y-43678603D01*
X122277143Y-43678603D02*
X122216666Y-43739080D01*
X122216666Y-43739080D02*
X122095714Y-43799556D01*
X122095714Y-43799556D02*
X121611904Y-43799556D01*
X122760952Y-43134318D02*
X123547143Y-43134318D01*
X123547143Y-43134318D02*
X123123809Y-43618127D01*
X123123809Y-43618127D02*
X123305238Y-43618127D01*
X123305238Y-43618127D02*
X123426190Y-43678603D01*
X123426190Y-43678603D02*
X123486666Y-43739080D01*
X123486666Y-43739080D02*
X123547143Y-43860032D01*
X123547143Y-43860032D02*
X123547143Y-44162413D01*
X123547143Y-44162413D02*
X123486666Y-44283365D01*
X123486666Y-44283365D02*
X123426190Y-44343842D01*
X123426190Y-44343842D02*
X123305238Y-44404318D01*
X123305238Y-44404318D02*
X122942381Y-44404318D01*
X122942381Y-44404318D02*
X122821428Y-44343842D01*
X122821428Y-44343842D02*
X122760952Y-44283365D01*
D11*
X153648580Y-60491666D02*
X153696200Y-60539285D01*
X153696200Y-60539285D02*
X153743819Y-60682142D01*
X153743819Y-60682142D02*
X153743819Y-60777380D01*
X153743819Y-60777380D02*
X153696200Y-60920237D01*
X153696200Y-60920237D02*
X153600961Y-61015475D01*
X153600961Y-61015475D02*
X153505723Y-61063094D01*
X153505723Y-61063094D02*
X153315247Y-61110713D01*
X153315247Y-61110713D02*
X153172390Y-61110713D01*
X153172390Y-61110713D02*
X152981914Y-61063094D01*
X152981914Y-61063094D02*
X152886676Y-61015475D01*
X152886676Y-61015475D02*
X152791438Y-60920237D01*
X152791438Y-60920237D02*
X152743819Y-60777380D01*
X152743819Y-60777380D02*
X152743819Y-60682142D01*
X152743819Y-60682142D02*
X152791438Y-60539285D01*
X152791438Y-60539285D02*
X152839057Y-60491666D01*
X152743819Y-60158332D02*
X152743819Y-59539285D01*
X152743819Y-59539285D02*
X153124771Y-59872618D01*
X153124771Y-59872618D02*
X153124771Y-59729761D01*
X153124771Y-59729761D02*
X153172390Y-59634523D01*
X153172390Y-59634523D02*
X153220009Y-59586904D01*
X153220009Y-59586904D02*
X153315247Y-59539285D01*
X153315247Y-59539285D02*
X153553342Y-59539285D01*
X153553342Y-59539285D02*
X153648580Y-59586904D01*
X153648580Y-59586904D02*
X153696200Y-59634523D01*
X153696200Y-59634523D02*
X153743819Y-59729761D01*
X153743819Y-59729761D02*
X153743819Y-60015475D01*
X153743819Y-60015475D02*
X153696200Y-60110713D01*
X153696200Y-60110713D02*
X153648580Y-60158332D01*
X97346819Y-73905333D02*
X98061104Y-73905333D01*
X98061104Y-73905333D02*
X98203961Y-73952952D01*
X98203961Y-73952952D02*
X98299200Y-74048190D01*
X98299200Y-74048190D02*
X98346819Y-74191047D01*
X98346819Y-74191047D02*
X98346819Y-74286285D01*
X97346819Y-73000571D02*
X97346819Y-73191047D01*
X97346819Y-73191047D02*
X97394438Y-73286285D01*
X97394438Y-73286285D02*
X97442057Y-73333904D01*
X97442057Y-73333904D02*
X97584914Y-73429142D01*
X97584914Y-73429142D02*
X97775390Y-73476761D01*
X97775390Y-73476761D02*
X98156342Y-73476761D01*
X98156342Y-73476761D02*
X98251580Y-73429142D01*
X98251580Y-73429142D02*
X98299200Y-73381523D01*
X98299200Y-73381523D02*
X98346819Y-73286285D01*
X98346819Y-73286285D02*
X98346819Y-73095809D01*
X98346819Y-73095809D02*
X98299200Y-73000571D01*
X98299200Y-73000571D02*
X98251580Y-72952952D01*
X98251580Y-72952952D02*
X98156342Y-72905333D01*
X98156342Y-72905333D02*
X97918247Y-72905333D01*
X97918247Y-72905333D02*
X97823009Y-72952952D01*
X97823009Y-72952952D02*
X97775390Y-73000571D01*
X97775390Y-73000571D02*
X97727771Y-73095809D01*
X97727771Y-73095809D02*
X97727771Y-73286285D01*
X97727771Y-73286285D02*
X97775390Y-73381523D01*
X97775390Y-73381523D02*
X97823009Y-73429142D01*
X97823009Y-73429142D02*
X97918247Y-73476761D01*
X93940333Y-60779819D02*
X93607000Y-60303628D01*
X93368905Y-60779819D02*
X93368905Y-59779819D01*
X93368905Y-59779819D02*
X93749857Y-59779819D01*
X93749857Y-59779819D02*
X93845095Y-59827438D01*
X93845095Y-59827438D02*
X93892714Y-59875057D01*
X93892714Y-59875057D02*
X93940333Y-59970295D01*
X93940333Y-59970295D02*
X93940333Y-60113152D01*
X93940333Y-60113152D02*
X93892714Y-60208390D01*
X93892714Y-60208390D02*
X93845095Y-60256009D01*
X93845095Y-60256009D02*
X93749857Y-60303628D01*
X93749857Y-60303628D02*
X93368905Y-60303628D01*
X94892714Y-60779819D02*
X94321286Y-60779819D01*
X94607000Y-60779819D02*
X94607000Y-59779819D01*
X94607000Y-59779819D02*
X94511762Y-59922676D01*
X94511762Y-59922676D02*
X94416524Y-60017914D01*
X94416524Y-60017914D02*
X94321286Y-60065533D01*
X111974333Y-60906819D02*
X111641000Y-60430628D01*
X111402905Y-60906819D02*
X111402905Y-59906819D01*
X111402905Y-59906819D02*
X111783857Y-59906819D01*
X111783857Y-59906819D02*
X111879095Y-59954438D01*
X111879095Y-59954438D02*
X111926714Y-60002057D01*
X111926714Y-60002057D02*
X111974333Y-60097295D01*
X111974333Y-60097295D02*
X111974333Y-60240152D01*
X111974333Y-60240152D02*
X111926714Y-60335390D01*
X111926714Y-60335390D02*
X111879095Y-60383009D01*
X111879095Y-60383009D02*
X111783857Y-60430628D01*
X111783857Y-60430628D02*
X111402905Y-60430628D01*
X112355286Y-60002057D02*
X112402905Y-59954438D01*
X112402905Y-59954438D02*
X112498143Y-59906819D01*
X112498143Y-59906819D02*
X112736238Y-59906819D01*
X112736238Y-59906819D02*
X112831476Y-59954438D01*
X112831476Y-59954438D02*
X112879095Y-60002057D01*
X112879095Y-60002057D02*
X112926714Y-60097295D01*
X112926714Y-60097295D02*
X112926714Y-60192533D01*
X112926714Y-60192533D02*
X112879095Y-60335390D01*
X112879095Y-60335390D02*
X112307667Y-60906819D01*
X112307667Y-60906819D02*
X112926714Y-60906819D01*
D13*
X83725905Y-42964318D02*
X84149238Y-44234318D01*
X84149238Y-44234318D02*
X84572572Y-42964318D01*
X85721619Y-44234318D02*
X85298285Y-43629556D01*
X84995904Y-44234318D02*
X84995904Y-42964318D01*
X84995904Y-42964318D02*
X85479714Y-42964318D01*
X85479714Y-42964318D02*
X85600666Y-43024794D01*
X85600666Y-43024794D02*
X85661143Y-43085270D01*
X85661143Y-43085270D02*
X85721619Y-43206222D01*
X85721619Y-43206222D02*
X85721619Y-43387651D01*
X85721619Y-43387651D02*
X85661143Y-43508603D01*
X85661143Y-43508603D02*
X85600666Y-43569080D01*
X85600666Y-43569080D02*
X85479714Y-43629556D01*
X85479714Y-43629556D02*
X84995904Y-43629556D01*
X86931143Y-44234318D02*
X86205428Y-44234318D01*
X86568285Y-44234318D02*
X86568285Y-42964318D01*
X86568285Y-42964318D02*
X86447333Y-43145746D01*
X86447333Y-43145746D02*
X86326381Y-43266699D01*
X86326381Y-43266699D02*
X86205428Y-43327175D01*
D11*
X95083333Y-67669580D02*
X95035714Y-67717200D01*
X95035714Y-67717200D02*
X94892857Y-67764819D01*
X94892857Y-67764819D02*
X94797619Y-67764819D01*
X94797619Y-67764819D02*
X94654762Y-67717200D01*
X94654762Y-67717200D02*
X94559524Y-67621961D01*
X94559524Y-67621961D02*
X94511905Y-67526723D01*
X94511905Y-67526723D02*
X94464286Y-67336247D01*
X94464286Y-67336247D02*
X94464286Y-67193390D01*
X94464286Y-67193390D02*
X94511905Y-67002914D01*
X94511905Y-67002914D02*
X94559524Y-66907676D01*
X94559524Y-66907676D02*
X94654762Y-66812438D01*
X94654762Y-66812438D02*
X94797619Y-66764819D01*
X94797619Y-66764819D02*
X94892857Y-66764819D01*
X94892857Y-66764819D02*
X95035714Y-66812438D01*
X95035714Y-66812438D02*
X95083333Y-66860057D01*
X96035714Y-67764819D02*
X95464286Y-67764819D01*
X95750000Y-67764819D02*
X95750000Y-66764819D01*
X95750000Y-66764819D02*
X95654762Y-66907676D01*
X95654762Y-66907676D02*
X95559524Y-67002914D01*
X95559524Y-67002914D02*
X95464286Y-67050533D01*
X97163819Y-71238333D02*
X97878104Y-71238333D01*
X97878104Y-71238333D02*
X98020961Y-71285952D01*
X98020961Y-71285952D02*
X98116200Y-71381190D01*
X98116200Y-71381190D02*
X98163819Y-71524047D01*
X98163819Y-71524047D02*
X98163819Y-71619285D01*
X97163819Y-70285952D02*
X97163819Y-70762142D01*
X97163819Y-70762142D02*
X97640009Y-70809761D01*
X97640009Y-70809761D02*
X97592390Y-70762142D01*
X97592390Y-70762142D02*
X97544771Y-70666904D01*
X97544771Y-70666904D02*
X97544771Y-70428809D01*
X97544771Y-70428809D02*
X97592390Y-70333571D01*
X97592390Y-70333571D02*
X97640009Y-70285952D01*
X97640009Y-70285952D02*
X97735247Y-70238333D01*
X97735247Y-70238333D02*
X97973342Y-70238333D01*
X97973342Y-70238333D02*
X98068580Y-70285952D01*
X98068580Y-70285952D02*
X98116200Y-70333571D01*
X98116200Y-70333571D02*
X98163819Y-70428809D01*
X98163819Y-70428809D02*
X98163819Y-70666904D01*
X98163819Y-70666904D02*
X98116200Y-70762142D01*
X98116200Y-70762142D02*
X98068580Y-70809761D01*
X113378819Y-76590333D02*
X114093104Y-76590333D01*
X114093104Y-76590333D02*
X114235961Y-76637952D01*
X114235961Y-76637952D02*
X114331200Y-76733190D01*
X114331200Y-76733190D02*
X114378819Y-76876047D01*
X114378819Y-76876047D02*
X114378819Y-76971285D01*
X114378819Y-75590333D02*
X114378819Y-76161761D01*
X114378819Y-75876047D02*
X113378819Y-75876047D01*
X113378819Y-75876047D02*
X113521676Y-75971285D01*
X113521676Y-75971285D02*
X113616914Y-76066523D01*
X113616914Y-76066523D02*
X113664533Y-76161761D01*
D13*
X150579666Y-44328842D02*
X150761095Y-44389318D01*
X150761095Y-44389318D02*
X151063476Y-44389318D01*
X151063476Y-44389318D02*
X151184428Y-44328842D01*
X151184428Y-44328842D02*
X151244904Y-44268365D01*
X151244904Y-44268365D02*
X151305381Y-44147413D01*
X151305381Y-44147413D02*
X151305381Y-44026461D01*
X151305381Y-44026461D02*
X151244904Y-43905508D01*
X151244904Y-43905508D02*
X151184428Y-43845032D01*
X151184428Y-43845032D02*
X151063476Y-43784556D01*
X151063476Y-43784556D02*
X150821571Y-43724080D01*
X150821571Y-43724080D02*
X150700619Y-43663603D01*
X150700619Y-43663603D02*
X150640142Y-43603127D01*
X150640142Y-43603127D02*
X150579666Y-43482175D01*
X150579666Y-43482175D02*
X150579666Y-43361222D01*
X150579666Y-43361222D02*
X150640142Y-43240270D01*
X150640142Y-43240270D02*
X150700619Y-43179794D01*
X150700619Y-43179794D02*
X150821571Y-43119318D01*
X150821571Y-43119318D02*
X151123952Y-43119318D01*
X151123952Y-43119318D02*
X151305381Y-43179794D01*
X151728714Y-43119318D02*
X152031095Y-44389318D01*
X152031095Y-44389318D02*
X152273000Y-43482175D01*
X152273000Y-43482175D02*
X152514905Y-44389318D01*
X152514905Y-44389318D02*
X152817286Y-43119318D01*
X153966334Y-44389318D02*
X153240619Y-44389318D01*
X153603476Y-44389318D02*
X153603476Y-43119318D01*
X153603476Y-43119318D02*
X153482524Y-43300746D01*
X153482524Y-43300746D02*
X153361572Y-43421699D01*
X153361572Y-43421699D02*
X153240619Y-43482175D01*
X139010905Y-43134318D02*
X139434238Y-44404318D01*
X139434238Y-44404318D02*
X139857572Y-43134318D01*
X141006619Y-44404318D02*
X140583285Y-43799556D01*
X140280904Y-44404318D02*
X140280904Y-43134318D01*
X140280904Y-43134318D02*
X140764714Y-43134318D01*
X140764714Y-43134318D02*
X140885666Y-43194794D01*
X140885666Y-43194794D02*
X140946143Y-43255270D01*
X140946143Y-43255270D02*
X141006619Y-43376222D01*
X141006619Y-43376222D02*
X141006619Y-43557651D01*
X141006619Y-43557651D02*
X140946143Y-43678603D01*
X140946143Y-43678603D02*
X140885666Y-43739080D01*
X140885666Y-43739080D02*
X140764714Y-43799556D01*
X140764714Y-43799556D02*
X140280904Y-43799556D01*
X142095190Y-43557651D02*
X142095190Y-44404318D01*
X141792809Y-43073842D02*
X141490428Y-43980984D01*
X141490428Y-43980984D02*
X142276619Y-43980984D01*
D11*
X96353333Y-56080819D02*
X96020000Y-55604628D01*
X95781905Y-56080819D02*
X95781905Y-55080819D01*
X95781905Y-55080819D02*
X96162857Y-55080819D01*
X96162857Y-55080819D02*
X96258095Y-55128438D01*
X96258095Y-55128438D02*
X96305714Y-55176057D01*
X96305714Y-55176057D02*
X96353333Y-55271295D01*
X96353333Y-55271295D02*
X96353333Y-55414152D01*
X96353333Y-55414152D02*
X96305714Y-55509390D01*
X96305714Y-55509390D02*
X96258095Y-55557009D01*
X96258095Y-55557009D02*
X96162857Y-55604628D01*
X96162857Y-55604628D02*
X95781905Y-55604628D01*
X97210476Y-55414152D02*
X97210476Y-56080819D01*
X96972381Y-55033200D02*
X96734286Y-55747485D01*
X96734286Y-55747485D02*
X97353333Y-55747485D01*
X154902819Y-73612333D02*
X155617104Y-73612333D01*
X155617104Y-73612333D02*
X155759961Y-73659952D01*
X155759961Y-73659952D02*
X155855200Y-73755190D01*
X155855200Y-73755190D02*
X155902819Y-73898047D01*
X155902819Y-73898047D02*
X155902819Y-73993285D01*
X155236152Y-72707571D02*
X155902819Y-72707571D01*
X154855200Y-72945666D02*
X155569485Y-73183761D01*
X155569485Y-73183761D02*
X155569485Y-72564714D01*
D13*
X101881905Y-43106318D02*
X102305238Y-44376318D01*
X102305238Y-44376318D02*
X102728572Y-43106318D01*
X103877619Y-44376318D02*
X103454285Y-43771556D01*
X103151904Y-44376318D02*
X103151904Y-43106318D01*
X103151904Y-43106318D02*
X103635714Y-43106318D01*
X103635714Y-43106318D02*
X103756666Y-43166794D01*
X103756666Y-43166794D02*
X103817143Y-43227270D01*
X103817143Y-43227270D02*
X103877619Y-43348222D01*
X103877619Y-43348222D02*
X103877619Y-43529651D01*
X103877619Y-43529651D02*
X103817143Y-43650603D01*
X103817143Y-43650603D02*
X103756666Y-43711080D01*
X103756666Y-43711080D02*
X103635714Y-43771556D01*
X103635714Y-43771556D02*
X103151904Y-43771556D01*
X104361428Y-43227270D02*
X104421904Y-43166794D01*
X104421904Y-43166794D02*
X104542857Y-43106318D01*
X104542857Y-43106318D02*
X104845238Y-43106318D01*
X104845238Y-43106318D02*
X104966190Y-43166794D01*
X104966190Y-43166794D02*
X105026666Y-43227270D01*
X105026666Y-43227270D02*
X105087143Y-43348222D01*
X105087143Y-43348222D02*
X105087143Y-43469175D01*
X105087143Y-43469175D02*
X105026666Y-43650603D01*
X105026666Y-43650603D02*
X104300952Y-44376318D01*
X104300952Y-44376318D02*
X105087143Y-44376318D01*
D11*
X110704333Y-67669580D02*
X110656714Y-67717200D01*
X110656714Y-67717200D02*
X110513857Y-67764819D01*
X110513857Y-67764819D02*
X110418619Y-67764819D01*
X110418619Y-67764819D02*
X110275762Y-67717200D01*
X110275762Y-67717200D02*
X110180524Y-67621961D01*
X110180524Y-67621961D02*
X110132905Y-67526723D01*
X110132905Y-67526723D02*
X110085286Y-67336247D01*
X110085286Y-67336247D02*
X110085286Y-67193390D01*
X110085286Y-67193390D02*
X110132905Y-67002914D01*
X110132905Y-67002914D02*
X110180524Y-66907676D01*
X110180524Y-66907676D02*
X110275762Y-66812438D01*
X110275762Y-66812438D02*
X110418619Y-66764819D01*
X110418619Y-66764819D02*
X110513857Y-66764819D01*
X110513857Y-66764819D02*
X110656714Y-66812438D01*
X110656714Y-66812438D02*
X110704333Y-66860057D01*
X111085286Y-66860057D02*
X111132905Y-66812438D01*
X111132905Y-66812438D02*
X111228143Y-66764819D01*
X111228143Y-66764819D02*
X111466238Y-66764819D01*
X111466238Y-66764819D02*
X111561476Y-66812438D01*
X111561476Y-66812438D02*
X111609095Y-66860057D01*
X111609095Y-66860057D02*
X111656714Y-66955295D01*
X111656714Y-66955295D02*
X111656714Y-67050533D01*
X111656714Y-67050533D02*
X111609095Y-67193390D01*
X111609095Y-67193390D02*
X111037667Y-67764819D01*
X111037667Y-67764819D02*
X111656714Y-67764819D01*
D13*
X145989318Y-62675762D02*
X144719318Y-62675762D01*
X145868365Y-61345285D02*
X145928842Y-61405761D01*
X145928842Y-61405761D02*
X145989318Y-61587190D01*
X145989318Y-61587190D02*
X145989318Y-61708142D01*
X145989318Y-61708142D02*
X145928842Y-61889571D01*
X145928842Y-61889571D02*
X145807889Y-62010523D01*
X145807889Y-62010523D02*
X145686937Y-62071000D01*
X145686937Y-62071000D02*
X145445032Y-62131476D01*
X145445032Y-62131476D02*
X145263603Y-62131476D01*
X145263603Y-62131476D02*
X145021699Y-62071000D01*
X145021699Y-62071000D02*
X144900746Y-62010523D01*
X144900746Y-62010523D02*
X144779794Y-61889571D01*
X144779794Y-61889571D02*
X144719318Y-61708142D01*
X144719318Y-61708142D02*
X144719318Y-61587190D01*
X144719318Y-61587190D02*
X144779794Y-61405761D01*
X144779794Y-61405761D02*
X144840270Y-61345285D01*
X144719318Y-60921952D02*
X144719318Y-60135761D01*
X144719318Y-60135761D02*
X145203127Y-60559095D01*
X145203127Y-60559095D02*
X145203127Y-60377666D01*
X145203127Y-60377666D02*
X145263603Y-60256714D01*
X145263603Y-60256714D02*
X145324080Y-60196238D01*
X145324080Y-60196238D02*
X145445032Y-60135761D01*
X145445032Y-60135761D02*
X145747413Y-60135761D01*
X145747413Y-60135761D02*
X145868365Y-60196238D01*
X145868365Y-60196238D02*
X145928842Y-60256714D01*
X145928842Y-60256714D02*
X145989318Y-60377666D01*
X145989318Y-60377666D02*
X145989318Y-60740523D01*
X145989318Y-60740523D02*
X145928842Y-60861476D01*
X145928842Y-60861476D02*
X145868365Y-60921952D01*
D11*
X162353666Y-53999931D02*
X162353666Y-54714216D01*
X162353666Y-54714216D02*
X162306047Y-54857073D01*
X162306047Y-54857073D02*
X162210809Y-54952312D01*
X162210809Y-54952312D02*
X162067952Y-54999931D01*
X162067952Y-54999931D02*
X161972714Y-54999931D01*
X162782238Y-54095169D02*
X162829857Y-54047550D01*
X162829857Y-54047550D02*
X162925095Y-53999931D01*
X162925095Y-53999931D02*
X163163190Y-53999931D01*
X163163190Y-53999931D02*
X163258428Y-54047550D01*
X163258428Y-54047550D02*
X163306047Y-54095169D01*
X163306047Y-54095169D02*
X163353666Y-54190407D01*
X163353666Y-54190407D02*
X163353666Y-54285645D01*
X163353666Y-54285645D02*
X163306047Y-54428502D01*
X163306047Y-54428502D02*
X162734619Y-54999931D01*
X162734619Y-54999931D02*
X163353666Y-54999931D01*
X154047819Y-69675333D02*
X154762104Y-69675333D01*
X154762104Y-69675333D02*
X154904961Y-69722952D01*
X154904961Y-69722952D02*
X155000200Y-69818190D01*
X155000200Y-69818190D02*
X155047819Y-69961047D01*
X155047819Y-69961047D02*
X155047819Y-70056285D01*
X154047819Y-69294380D02*
X154047819Y-68627714D01*
X154047819Y-68627714D02*
X155047819Y-69056285D01*
D14*
%TO.C,VR5*%
X80230000Y-58874000D02*
X90030000Y-58874000D01*
X80230000Y-61874000D02*
X80230000Y-58874000D01*
X80230000Y-67124000D02*
X80230000Y-69874000D01*
X80230000Y-69874000D02*
X90030000Y-69874000D01*
D10*
X82630000Y-73274000D02*
X82630000Y-73274000D01*
X82630000Y-73274000D02*
X82630000Y-73274000D01*
X82630000Y-73374000D02*
X82630000Y-73374000D01*
D14*
X90030000Y-58874000D02*
X90030000Y-61874000D01*
X90030000Y-69874000D02*
X90030000Y-67124000D01*
D10*
X82630000Y-73274000D02*
G75*
G02*
X82630000Y-73374000I0J-50000D01*
G01*
X82630000Y-73374000D02*
G75*
G02*
X82630000Y-73274000I0J50000D01*
G01*
X82630000Y-73374000D02*
G75*
G02*
X82630000Y-73274000I0J50000D01*
G01*
%TO.C,IC2*%
X98734000Y-56134000D02*
X106775000Y-56134000D01*
X99663000Y-66294000D02*
X106775000Y-66294000D01*
D15*
%TO.C,R3*%
X109985000Y-58204000D02*
X109985000Y-58824000D01*
X110905000Y-57284000D02*
G75*
G02*
X109065000Y-57284000I-920000J0D01*
G01*
X109065000Y-57284000D02*
G75*
G02*
X110905000Y-57284000I920000J0D01*
G01*
D14*
%TO.C,VR3*%
X117105000Y-36580000D02*
X126905000Y-36580000D01*
X117105000Y-39580000D02*
X117105000Y-36580000D01*
X117105000Y-44830000D02*
X117105000Y-47580000D01*
X117105000Y-47580000D02*
X126905000Y-47580000D01*
D10*
X119505000Y-50980000D02*
X119505000Y-50980000D01*
X119505000Y-50980000D02*
X119505000Y-50980000D01*
X119505000Y-51080000D02*
X119505000Y-51080000D01*
D14*
X126905000Y-36580000D02*
X126905000Y-39580000D01*
X126905000Y-47580000D02*
X126905000Y-44830000D01*
D10*
X119505000Y-50980000D02*
G75*
G02*
X119505000Y-51080000I0J-50000D01*
G01*
X119505000Y-51080000D02*
G75*
G02*
X119505000Y-50980000I0J50000D01*
G01*
X119505000Y-51080000D02*
G75*
G02*
X119505000Y-50980000I0J50000D01*
G01*
D15*
%TO.C,C3*%
X156059000Y-60672000D02*
X154530000Y-60672000D01*
X156059000Y-60712000D02*
X154534000Y-60712000D01*
X156059000Y-60752000D02*
X154538000Y-60752000D01*
X156059000Y-60792000D02*
X154543000Y-60792000D01*
X156059000Y-60832000D02*
X154549000Y-60832000D01*
X156059000Y-60872000D02*
X154556000Y-60872000D01*
X156059000Y-60912000D02*
X154563000Y-60912000D01*
X156059000Y-60952000D02*
X154571000Y-60952000D01*
X156059000Y-60992000D02*
X154579000Y-60992000D01*
X156059000Y-61032000D02*
X154588000Y-61032000D01*
X156059000Y-61072000D02*
X154598000Y-61072000D01*
X156059000Y-61112000D02*
X154608000Y-61112000D01*
X156059000Y-61153000D02*
X154619000Y-61153000D01*
X156059000Y-61193000D02*
X154631000Y-61193000D01*
X156059000Y-61233000D02*
X154644000Y-61233000D01*
X156059000Y-61273000D02*
X154657000Y-61273000D01*
X156059000Y-61313000D02*
X154671000Y-61313000D01*
X156059000Y-61353000D02*
X154685000Y-61353000D01*
X156059000Y-61393000D02*
X154701000Y-61393000D01*
X156059000Y-61433000D02*
X154717000Y-61433000D01*
X156059000Y-61473000D02*
X154734000Y-61473000D01*
X156059000Y-61513000D02*
X154751000Y-61513000D01*
X156059000Y-61553000D02*
X154770000Y-61553000D01*
X156059000Y-61593000D02*
X154789000Y-61593000D01*
X156059000Y-61633000D02*
X154809000Y-61633000D01*
X156059000Y-61673000D02*
X154831000Y-61673000D01*
X156059000Y-61713000D02*
X154852000Y-61713000D01*
X156059000Y-61753000D02*
X154875000Y-61753000D01*
X156059000Y-61793000D02*
X154899000Y-61793000D01*
X156059000Y-61833000D02*
X154924000Y-61833000D01*
X156059000Y-61873000D02*
X154950000Y-61873000D01*
X156059000Y-61913000D02*
X154977000Y-61913000D01*
X156059000Y-61953000D02*
X155004000Y-61953000D01*
X156059000Y-61993000D02*
X155034000Y-61993000D01*
X156059000Y-62033000D02*
X155064000Y-62033000D01*
X156059000Y-62073000D02*
X155095000Y-62073000D01*
X156059000Y-62113000D02*
X155128000Y-62113000D01*
X156059000Y-62153000D02*
X155162000Y-62153000D01*
X156059000Y-62193000D02*
X155198000Y-62193000D01*
X156059000Y-62233000D02*
X155235000Y-62233000D01*
X156059000Y-62273000D02*
X155273000Y-62273000D01*
X156059000Y-62313000D02*
X155314000Y-62313000D01*
X156059000Y-62353000D02*
X155356000Y-62353000D01*
X156059000Y-62393000D02*
X155400000Y-62393000D01*
X156059000Y-62433000D02*
X155446000Y-62433000D01*
X156059000Y-62473000D02*
X155494000Y-62473000D01*
X156059000Y-62513000D02*
X155545000Y-62513000D01*
X156059000Y-62553000D02*
X155599000Y-62553000D01*
X156059000Y-62593000D02*
X155656000Y-62593000D01*
X156059000Y-62633000D02*
X155716000Y-62633000D01*
X156059000Y-62673000D02*
X155780000Y-62673000D01*
X156059000Y-62713000D02*
X155848000Y-62713000D01*
X157383000Y-63033000D02*
X156815000Y-63033000D01*
X157617000Y-62993000D02*
X156581000Y-62993000D01*
X157776000Y-62953000D02*
X156422000Y-62953000D01*
X157904000Y-62913000D02*
X156294000Y-62913000D01*
X158014000Y-62873000D02*
X156184000Y-62873000D01*
X158110000Y-62833000D02*
X156088000Y-62833000D01*
X158197000Y-62793000D02*
X156001000Y-62793000D01*
X158277000Y-62753000D02*
X155921000Y-62753000D01*
X158350000Y-62713000D02*
X158139000Y-62713000D01*
X158418000Y-62673000D02*
X158139000Y-62673000D01*
X158482000Y-62633000D02*
X158139000Y-62633000D01*
X158542000Y-62593000D02*
X158139000Y-62593000D01*
X158574000Y-57627225D02*
X158574000Y-58127225D01*
X158599000Y-62553000D02*
X158139000Y-62553000D01*
X158653000Y-62513000D02*
X158139000Y-62513000D01*
X158704000Y-62473000D02*
X158139000Y-62473000D01*
X158752000Y-62433000D02*
X158139000Y-62433000D01*
X158798000Y-62393000D02*
X158139000Y-62393000D01*
X158824000Y-57877225D02*
X158324000Y-57877225D01*
X158842000Y-62353000D02*
X158139000Y-62353000D01*
X158884000Y-62313000D02*
X158139000Y-62313000D01*
X158925000Y-62273000D02*
X158139000Y-62273000D01*
X158963000Y-62233000D02*
X158139000Y-62233000D01*
X159000000Y-62193000D02*
X158139000Y-62193000D01*
X159036000Y-62153000D02*
X158139000Y-62153000D01*
X159070000Y-62113000D02*
X158139000Y-62113000D01*
X159103000Y-62073000D02*
X158139000Y-62073000D01*
X159134000Y-62033000D02*
X158139000Y-62033000D01*
X159164000Y-61993000D02*
X158139000Y-61993000D01*
X159194000Y-61953000D02*
X158139000Y-61953000D01*
X159221000Y-61913000D02*
X158139000Y-61913000D01*
X159248000Y-61873000D02*
X158139000Y-61873000D01*
X159274000Y-61833000D02*
X158139000Y-61833000D01*
X159299000Y-61793000D02*
X158139000Y-61793000D01*
X159323000Y-61753000D02*
X158139000Y-61753000D01*
X159346000Y-61713000D02*
X158139000Y-61713000D01*
X159367000Y-61673000D02*
X158139000Y-61673000D01*
X159389000Y-61633000D02*
X158139000Y-61633000D01*
X159409000Y-61593000D02*
X158139000Y-61593000D01*
X159428000Y-61553000D02*
X158139000Y-61553000D01*
X159447000Y-61513000D02*
X158139000Y-61513000D01*
X159464000Y-61473000D02*
X158139000Y-61473000D01*
X159481000Y-61433000D02*
X158139000Y-61433000D01*
X159497000Y-61393000D02*
X158139000Y-61393000D01*
X159513000Y-61353000D02*
X158139000Y-61353000D01*
X159527000Y-61313000D02*
X158139000Y-61313000D01*
X159541000Y-61273000D02*
X158139000Y-61273000D01*
X159554000Y-61233000D02*
X158139000Y-61233000D01*
X159567000Y-61193000D02*
X158139000Y-61193000D01*
X159579000Y-61153000D02*
X158139000Y-61153000D01*
X159590000Y-61112000D02*
X158139000Y-61112000D01*
X159600000Y-61072000D02*
X158139000Y-61072000D01*
X159610000Y-61032000D02*
X158139000Y-61032000D01*
X159619000Y-60992000D02*
X158139000Y-60992000D01*
X159627000Y-60952000D02*
X158139000Y-60952000D01*
X159635000Y-60912000D02*
X158139000Y-60912000D01*
X159642000Y-60872000D02*
X158139000Y-60872000D01*
X159649000Y-60832000D02*
X158139000Y-60832000D01*
X159655000Y-60792000D02*
X158139000Y-60792000D01*
X159660000Y-60752000D02*
X158139000Y-60752000D01*
X159664000Y-60712000D02*
X158139000Y-60712000D01*
X159668000Y-60672000D02*
X158139000Y-60672000D01*
X159672000Y-60632000D02*
X154526000Y-60632000D01*
X159675000Y-60592000D02*
X154523000Y-60592000D01*
X159677000Y-60552000D02*
X154521000Y-60552000D01*
X159678000Y-60512000D02*
X154520000Y-60512000D01*
X159679000Y-60432000D02*
X154519000Y-60432000D01*
X159679000Y-60472000D02*
X154519000Y-60472000D01*
X159719000Y-60432000D02*
G75*
G02*
X154479000Y-60432000I-2620000J0D01*
G01*
X154479000Y-60432000D02*
G75*
G02*
X159719000Y-60432000I2620000J0D01*
G01*
%TO.C,J6*%
X99127000Y-72203000D02*
X100457000Y-72203000D01*
X99127000Y-73533000D02*
X99127000Y-72203000D01*
X101727000Y-72203000D02*
X106867000Y-72203000D01*
X101727000Y-74863000D02*
X101727000Y-72203000D01*
X101727000Y-74863000D02*
X106867000Y-74863000D01*
X106867000Y-74863000D02*
X106867000Y-72203000D01*
%TO.C,R1*%
X94953000Y-62441000D02*
X95573000Y-62441000D01*
X94953000Y-62441000D02*
G75*
G02*
X93113000Y-62441000I-920000J0D01*
G01*
X93113000Y-62441000D02*
G75*
G02*
X94953000Y-62441000I920000J0D01*
G01*
%TO.C,R2*%
X110574000Y-62441000D02*
X111194000Y-62441000D01*
X110574000Y-62441000D02*
G75*
G02*
X108734000Y-62441000I-920000J0D01*
G01*
X108734000Y-62441000D02*
G75*
G02*
X110574000Y-62441000I920000J0D01*
G01*
D14*
%TO.C,VR1*%
X80489000Y-36410000D02*
X90289000Y-36410000D01*
X80489000Y-39410000D02*
X80489000Y-36410000D01*
X80489000Y-44660000D02*
X80489000Y-47410000D01*
X80489000Y-47410000D02*
X90289000Y-47410000D01*
D10*
X82889000Y-50810000D02*
X82889000Y-50810000D01*
X82889000Y-50810000D02*
X82889000Y-50810000D01*
X82889000Y-50910000D02*
X82889000Y-50910000D01*
D14*
X90289000Y-36410000D02*
X90289000Y-39410000D01*
X90289000Y-47410000D02*
X90289000Y-44660000D01*
D10*
X82889000Y-50810000D02*
G75*
G02*
X82889000Y-50910000I0J-50000D01*
G01*
X82889000Y-50910000D02*
G75*
G02*
X82889000Y-50810000I0J50000D01*
G01*
X82889000Y-50910000D02*
G75*
G02*
X82889000Y-50810000I0J50000D01*
G01*
D15*
%TO.C,C1*%
X93433000Y-63938000D02*
X93433000Y-64183000D01*
X93433000Y-63938000D02*
X97073000Y-63938000D01*
X93433000Y-66033000D02*
X93433000Y-66278000D01*
X93433000Y-66278000D02*
X97073000Y-66278000D01*
X97073000Y-63938000D02*
X97073000Y-64183000D01*
X97073000Y-66033000D02*
X97073000Y-66278000D01*
%TO.C,J5*%
X99085000Y-71219000D02*
X99085000Y-69889000D01*
X100415000Y-71219000D02*
X99085000Y-71219000D01*
X101685000Y-68559000D02*
X106825000Y-68559000D01*
X101685000Y-71219000D02*
X101685000Y-68559000D01*
X101685000Y-71219000D02*
X106825000Y-71219000D01*
X106825000Y-71219000D02*
X106825000Y-68559000D01*
%TO.C,J1*%
X117542000Y-77894000D02*
X117542000Y-80554000D01*
X117542000Y-80554000D02*
X130362000Y-80554000D01*
X118492000Y-77496929D02*
X118492000Y-77894000D01*
X118492000Y-86554000D02*
X118492000Y-80554000D01*
X119252000Y-77496929D02*
X119252000Y-77894000D01*
X119252000Y-80554000D02*
X119252000Y-86554000D01*
X119252000Y-86554000D02*
X118492000Y-86554000D01*
X120142000Y-77894000D02*
X120142000Y-80554000D01*
X121032000Y-77496929D02*
X121032000Y-77894000D01*
X121032000Y-86554000D02*
X121032000Y-80554000D01*
X121792000Y-77496929D02*
X121792000Y-77894000D01*
X121792000Y-80554000D02*
X121792000Y-86554000D01*
X121792000Y-86554000D02*
X121032000Y-86554000D01*
X122682000Y-77894000D02*
X122682000Y-80554000D01*
X123572000Y-77496929D02*
X123572000Y-77894000D01*
X123572000Y-86554000D02*
X123572000Y-80554000D01*
X124332000Y-77496929D02*
X124332000Y-77894000D01*
X124332000Y-80554000D02*
X124332000Y-86554000D01*
X124332000Y-86554000D02*
X123572000Y-86554000D01*
X125222000Y-77894000D02*
X125222000Y-80554000D01*
X126112000Y-77496929D02*
X126112000Y-77894000D01*
X126112000Y-86554000D02*
X126112000Y-80554000D01*
X126872000Y-77496929D02*
X126872000Y-77894000D01*
X126872000Y-80554000D02*
X126872000Y-86554000D01*
X126872000Y-86554000D02*
X126112000Y-86554000D01*
X127762000Y-77894000D02*
X127762000Y-80554000D01*
X128652000Y-77564000D02*
X128652000Y-77894000D01*
X128652000Y-86554000D02*
X128652000Y-80554000D01*
X128752000Y-80554000D02*
X128752000Y-86554000D01*
X128872000Y-80554000D02*
X128872000Y-86554000D01*
X128992000Y-80554000D02*
X128992000Y-86554000D01*
X129032000Y-75184000D02*
X130302000Y-75184000D01*
X129112000Y-80554000D02*
X129112000Y-86554000D01*
X129232000Y-80554000D02*
X129232000Y-86554000D01*
X129352000Y-80554000D02*
X129352000Y-86554000D01*
X129412000Y-77564000D02*
X129412000Y-77894000D01*
X129412000Y-80554000D02*
X129412000Y-86554000D01*
X129412000Y-86554000D02*
X128652000Y-86554000D01*
X130302000Y-75184000D02*
X130302000Y-76454000D01*
X130362000Y-77894000D02*
X117542000Y-77894000D01*
X130362000Y-80554000D02*
X130362000Y-77894000D01*
D14*
%TO.C,SW1*%
X155321000Y-38735000D02*
X155321000Y-48895000D01*
X155321000Y-48895000D02*
X156861000Y-48895000D01*
X156861000Y-38735000D02*
X155321000Y-38735000D01*
X158861000Y-38735000D02*
X160401000Y-38735000D01*
X160401000Y-38735000D02*
X160401000Y-48895000D01*
X160401000Y-48895000D02*
X158861000Y-48895000D01*
%TO.C,VR4*%
X135774000Y-36580000D02*
X145574000Y-36580000D01*
X135774000Y-39580000D02*
X135774000Y-36580000D01*
X135774000Y-44830000D02*
X135774000Y-47580000D01*
X135774000Y-47580000D02*
X145574000Y-47580000D01*
D10*
X138174000Y-50980000D02*
X138174000Y-50980000D01*
X138174000Y-50980000D02*
X138174000Y-50980000D01*
X138174000Y-51080000D02*
X138174000Y-51080000D01*
D14*
X145574000Y-36580000D02*
X145574000Y-39580000D01*
X145574000Y-47580000D02*
X145574000Y-44830000D01*
D10*
X138174000Y-50980000D02*
G75*
G02*
X138174000Y-51080000I0J-50000D01*
G01*
X138174000Y-51080000D02*
G75*
G02*
X138174000Y-50980000I0J50000D01*
G01*
X138174000Y-51080000D02*
G75*
G02*
X138174000Y-50980000I0J50000D01*
G01*
D15*
%TO.C,R4*%
X96523000Y-58981000D02*
X96523000Y-58361000D01*
X97443000Y-59901000D02*
G75*
G02*
X95603000Y-59901000I-920000J0D01*
G01*
X95603000Y-59901000D02*
G75*
G02*
X97443000Y-59901000I920000J0D01*
G01*
%TO.C,J4*%
X143323000Y-71822000D02*
X143323000Y-74482000D01*
X151003000Y-71822000D02*
X143323000Y-71822000D01*
X151003000Y-71822000D02*
X151003000Y-74482000D01*
X151003000Y-74482000D02*
X143323000Y-74482000D01*
X152273000Y-71822000D02*
X153603000Y-71822000D01*
X153603000Y-71822000D02*
X153603000Y-73152000D01*
D14*
%TO.C,VR2*%
X98645000Y-36552000D02*
X108445000Y-36552000D01*
X98645000Y-39552000D02*
X98645000Y-36552000D01*
X98645000Y-44802000D02*
X98645000Y-47552000D01*
X98645000Y-47552000D02*
X108445000Y-47552000D01*
D10*
X101045000Y-50952000D02*
X101045000Y-50952000D01*
X101045000Y-50952000D02*
X101045000Y-50952000D01*
X101045000Y-51052000D02*
X101045000Y-51052000D01*
D14*
X108445000Y-36552000D02*
X108445000Y-39552000D01*
X108445000Y-47552000D02*
X108445000Y-44802000D01*
D10*
X101045000Y-50952000D02*
G75*
G02*
X101045000Y-51052000I0J-50000D01*
G01*
X101045000Y-51052000D02*
G75*
G02*
X101045000Y-50952000I0J50000D01*
G01*
X101045000Y-51052000D02*
G75*
G02*
X101045000Y-50952000I0J50000D01*
G01*
D15*
%TO.C,C2*%
X109074000Y-63938000D02*
X109074000Y-64183000D01*
X109074000Y-63938000D02*
X112714000Y-63938000D01*
X109074000Y-66033000D02*
X109074000Y-66278000D01*
X109074000Y-66278000D02*
X112714000Y-66278000D01*
X112714000Y-63938000D02*
X112714000Y-64183000D01*
X112714000Y-66033000D02*
X112714000Y-66278000D01*
D10*
%TO.C,IC3*%
X116967000Y-65984000D02*
X116967000Y-57880000D01*
X143891000Y-64992000D02*
X143891000Y-57880000D01*
D15*
%TO.C,J2*%
X161887200Y-60518000D02*
X161887200Y-63118000D01*
X161887200Y-60518000D02*
X164547200Y-60518000D01*
X161887200Y-63118000D02*
X164547200Y-63118000D01*
X163217200Y-57918000D02*
X164547200Y-57918000D01*
X164547200Y-57918000D02*
X164547200Y-59248000D01*
X164547200Y-60518000D02*
X164547200Y-63118000D01*
%TO.C,J7*%
X143313000Y-68012000D02*
X143313000Y-70672000D01*
X150993000Y-68012000D02*
X143313000Y-68012000D01*
X150993000Y-68012000D02*
X150993000Y-70672000D01*
X150993000Y-70672000D02*
X143313000Y-70672000D01*
X152263000Y-68012000D02*
X153593000Y-68012000D01*
X153593000Y-68012000D02*
X153593000Y-69342000D01*
%TD*%
M02*
