%TF.GenerationSoftware,KiCad,Pcbnew,8.0.8*%
%TF.CreationDate,2025-06-29T12:39:58+09:00*%
%TF.ProjectId,EGSeparate,45475365-7061-4726-9174-652e6b696361,rev?*%
%TF.SameCoordinates,Original*%
%TF.FileFunction,Copper,L1,Top*%
%TF.FilePolarity,Positive*%
%FSLAX46Y46*%
G04 Gerber Fmt 4.6, Leading zero omitted, Abs format (unit mm)*
G04 Created by KiCad (PCBNEW 8.0.8) date 2025-06-29 12:39:58*
%MOMM*%
%LPD*%
G01*
G04 APERTURE LIST*
%TA.AperFunction,ComponentPad*%
%ADD10C,1.800000*%
%TD*%
%TA.AperFunction,ComponentPad*%
%ADD11C,4.455000*%
%TD*%
%TA.AperFunction,ComponentPad*%
%ADD12R,1.159000X1.159000*%
%TD*%
%TA.AperFunction,ComponentPad*%
%ADD13C,1.159000*%
%TD*%
%TA.AperFunction,ComponentPad*%
%ADD14C,1.400000*%
%TD*%
%TA.AperFunction,ComponentPad*%
%ADD15O,1.400000X1.400000*%
%TD*%
%TA.AperFunction,ComponentPad*%
%ADD16R,1.600000X1.600000*%
%TD*%
%TA.AperFunction,ComponentPad*%
%ADD17C,1.600000*%
%TD*%
%TA.AperFunction,ComponentPad*%
%ADD18R,1.700000X1.700000*%
%TD*%
%TA.AperFunction,ComponentPad*%
%ADD19O,1.700000X1.700000*%
%TD*%
%TA.AperFunction,ComponentPad*%
%ADD20C,1.635000*%
%TD*%
%TA.AperFunction,ViaPad*%
%ADD21C,0.600000*%
%TD*%
%TA.AperFunction,Conductor*%
%ADD22C,0.200000*%
%TD*%
%TA.AperFunction,Conductor*%
%ADD23C,0.400000*%
%TD*%
G04 APERTURE END LIST*
D10*
%TO.P,VR5,1,CCW*%
%TO.N,GND*%
X82630000Y-71374000D03*
%TO.P,VR5,2,WIPER*%
%TO.N,AccLv*%
X85130000Y-71374000D03*
%TO.P,VR5,3,CW*%
%TO.N,+5VD*%
X87630000Y-71374000D03*
D11*
%TO.P,VR5,MH1,MH1*%
%TO.N,GND*%
X80730000Y-64374000D03*
%TO.P,VR5,MH2,MH2*%
X89530000Y-64374000D03*
%TD*%
D12*
%TO.P,IC2,1,VOUTA*%
%TO.N,Net-(IC2-VINA-)*%
X99314000Y-57404000D03*
D13*
%TO.P,IC2,2,VINA-*%
X99314000Y-59944000D03*
%TO.P,IC2,3,VINA+*%
%TO.N,Net-(IC2-VINA+)*%
X99314000Y-62484000D03*
%TO.P,IC2,4,VSS*%
%TO.N,GND*%
X99314000Y-65024000D03*
%TO.P,IC2,5,VINB+*%
%TO.N,Net-(IC2-VINB+)*%
X107124000Y-65024000D03*
%TO.P,IC2,6,VINB-*%
%TO.N,Net-(IC2-VINB-)*%
X107124000Y-62484000D03*
%TO.P,IC2,7,VOUTB*%
X107124000Y-59944000D03*
%TO.P,IC2,8,VDD*%
%TO.N,+5VD*%
X107124000Y-57404000D03*
%TD*%
D14*
%TO.P,R3,1*%
%TO.N,outFlt*%
X109985000Y-57284000D03*
D15*
%TO.P,R3,2*%
%TO.N,Net-(IC2-VINB-)*%
X109985000Y-59824000D03*
%TD*%
D10*
%TO.P,VR3,1,CCW*%
%TO.N,GND*%
X119505000Y-49080000D03*
%TO.P,VR3,2,WIPER*%
%TO.N,Sustain*%
X122005000Y-49080000D03*
%TO.P,VR3,3,CW*%
%TO.N,+5VD*%
X124505000Y-49080000D03*
D11*
%TO.P,VR3,MH1,MH1*%
%TO.N,GND*%
X117605000Y-42080000D03*
%TO.P,VR3,MH2,MH2*%
X126405000Y-42080000D03*
%TD*%
D16*
%TO.P,C3,1*%
%TO.N,+5VD*%
X157099000Y-59182000D03*
D17*
%TO.P,C3,2*%
%TO.N,GND*%
X157099000Y-61682000D03*
%TD*%
D18*
%TO.P,J6,1,Pin_1*%
%TO.N,outAmp*%
X100457000Y-73533000D03*
D19*
%TO.P,J6,2,Pin_2*%
%TO.N,outFlt*%
X102997000Y-73533000D03*
%TO.P,J6,3,Pin_3*%
%TO.N,GND*%
X105537000Y-73533000D03*
%TD*%
D14*
%TO.P,R1,1*%
%TO.N,PWM_outAmp*%
X94033000Y-62441000D03*
D15*
%TO.P,R1,2*%
%TO.N,Net-(IC2-VINA+)*%
X96573000Y-62441000D03*
%TD*%
D14*
%TO.P,R2,1*%
%TO.N,Net-(IC2-VINB+)*%
X109654000Y-62441000D03*
D15*
%TO.P,R2,2*%
%TO.N,PWM_outFlt*%
X112194000Y-62441000D03*
%TD*%
D10*
%TO.P,VR1,1,CCW*%
%TO.N,GND*%
X82889000Y-48910000D03*
%TO.P,VR1,2,WIPER*%
%TO.N,Attack*%
X85389000Y-48910000D03*
%TO.P,VR1,3,CW*%
%TO.N,+5VD*%
X87889000Y-48910000D03*
D11*
%TO.P,VR1,MH1,MH1*%
%TO.N,GND*%
X80989000Y-41910000D03*
%TO.P,VR1,MH2,MH2*%
X89789000Y-41910000D03*
%TD*%
D17*
%TO.P,C1,1*%
%TO.N,Net-(IC2-VINA+)*%
X94003000Y-65108000D03*
%TO.P,C1,2*%
%TO.N,GND*%
X96503000Y-65108000D03*
%TD*%
D18*
%TO.P,J5,1,Pin_1*%
%TO.N,outAmp*%
X100415000Y-69889000D03*
D19*
%TO.P,J5,2,Pin_2*%
%TO.N,outFlt*%
X102955000Y-69889000D03*
%TO.P,J5,3,Pin_3*%
%TO.N,GND*%
X105495000Y-69889000D03*
%TD*%
D18*
%TO.P,J1,1,Pin_1*%
%TO.N,ICSPCLK*%
X129032000Y-76454000D03*
D19*
%TO.P,J1,2,Pin_2*%
%TO.N,ICSPDT*%
X126492000Y-76454000D03*
%TO.P,J1,3,Pin_3*%
%TO.N,GND*%
X123952000Y-76454000D03*
%TO.P,J1,4,Pin_4*%
%TO.N,+5VD*%
X121412000Y-76454000D03*
%TO.P,J1,5,Pin_5*%
%TO.N,~MCLR*%
X118872000Y-76454000D03*
%TD*%
D20*
%TO.P,SW1,1,1*%
%TO.N,+5VD*%
X157861000Y-41275000D03*
%TO.P,SW1,2,2_Comm*%
%TO.N,AmpWave*%
X157861000Y-43815000D03*
%TO.P,SW1,3,3*%
%TO.N,GND*%
X157861000Y-46355000D03*
%TO.P,SW1,MH1,MH1*%
X157861000Y-38735000D03*
%TO.P,SW1,MH2,MH2*%
X157861000Y-48895000D03*
%TD*%
D10*
%TO.P,VR4,1,CCW*%
%TO.N,GND*%
X138174000Y-49080000D03*
%TO.P,VR4,2,WIPER*%
%TO.N,Release*%
X140674000Y-49080000D03*
%TO.P,VR4,3,CW*%
%TO.N,+5VD*%
X143174000Y-49080000D03*
D11*
%TO.P,VR4,MH1,MH1*%
%TO.N,GND*%
X136274000Y-42080000D03*
%TO.P,VR4,MH2,MH2*%
X145074000Y-42080000D03*
%TD*%
D14*
%TO.P,R4,1*%
%TO.N,Net-(IC2-VINA-)*%
X96523000Y-59901000D03*
D15*
%TO.P,R4,2*%
%TO.N,outAmp*%
X96523000Y-57361000D03*
%TD*%
D18*
%TO.P,J4,1,Pin_1*%
%TO.N,Gate*%
X152273000Y-73152000D03*
D19*
%TO.P,J4,2,Pin_2*%
%TO.N,accAmp*%
X149733000Y-73152000D03*
%TO.P,J4,3,Pin_3*%
%TO.N,accFlt*%
X147193000Y-73152000D03*
%TO.P,J4,4,Pin_4*%
%TO.N,GND*%
X144653000Y-73152000D03*
%TD*%
D10*
%TO.P,VR2,1,CCW*%
%TO.N,GND*%
X101045000Y-49052000D03*
%TO.P,VR2,2,WIPER*%
%TO.N,Decay*%
X103545000Y-49052000D03*
%TO.P,VR2,3,CW*%
%TO.N,+5VD*%
X106045000Y-49052000D03*
D11*
%TO.P,VR2,MH1,MH1*%
%TO.N,GND*%
X99145000Y-42052000D03*
%TO.P,VR2,MH2,MH2*%
X107945000Y-42052000D03*
%TD*%
D17*
%TO.P,C2,1*%
%TO.N,Net-(IC2-VINB+)*%
X109644000Y-65108000D03*
%TO.P,C2,2*%
%TO.N,GND*%
X112144000Y-65108000D03*
%TD*%
D12*
%TO.P,IC3,1,VDD*%
%TO.N,+5VD*%
X118999000Y-65405000D03*
D13*
%TO.P,IC3,2,RA5*%
%TO.N,PWM_outAmp*%
X121539000Y-65405000D03*
%TO.P,IC3,3,RA4*%
%TO.N,PWM_outFlt*%
X124079000Y-65405000D03*
%TO.P,IC3,4,~{MCLR}/VPP/RA3*%
%TO.N,~MCLR*%
X126619000Y-65405000D03*
%TO.P,IC3,5,RC5*%
%TO.N,unconnected-(IC3-RC5-Pad5)*%
X129159000Y-65405000D03*
%TO.P,IC3,6,RC4*%
%TO.N,AccLv*%
X131699000Y-65405000D03*
%TO.P,IC3,7,RC3*%
%TO.N,Attack*%
X134239000Y-65405000D03*
%TO.P,IC3,8,RC6*%
%TO.N,Decay*%
X136779000Y-65405000D03*
%TO.P,IC3,9,RC7*%
%TO.N,Sustain*%
X139319000Y-65405000D03*
%TO.P,IC3,10,RB7*%
%TO.N,Release*%
X141859000Y-65405000D03*
%TO.P,IC3,11,RB6*%
%TO.N,Gate*%
X141859000Y-57467000D03*
%TO.P,IC3,12,RB5*%
%TO.N,accAmp*%
X139319000Y-57467000D03*
%TO.P,IC3,13,RB4*%
%TO.N,accFlt*%
X136779000Y-57467000D03*
%TO.P,IC3,14,RC2*%
%TO.N,AmpWave*%
X134239000Y-57467000D03*
%TO.P,IC3,15,RC1*%
%TO.N,unconnected-(IC3-RC1-Pad15)*%
X131699000Y-57467000D03*
%TO.P,IC3,16,RC0*%
%TO.N,unconnected-(IC3-RC0-Pad16)*%
X129159000Y-57467000D03*
%TO.P,IC3,17,RA2*%
%TO.N,unconnected-(IC3-RA2-Pad17)*%
X126619000Y-57467000D03*
%TO.P,IC3,18,RA1/ICSPCLK*%
%TO.N,ICSPCLK*%
X124079000Y-57467000D03*
%TO.P,IC3,19,RA0/ICSPDAT*%
%TO.N,ICSPDT*%
X121539000Y-57467000D03*
%TO.P,IC3,20,VSS*%
%TO.N,GND*%
X118999000Y-57467000D03*
%TD*%
D18*
%TO.P,J2,1,Pin_1*%
%TO.N,+5VD*%
X163217200Y-59248000D03*
D19*
%TO.P,J2,2,Pin_2*%
%TO.N,GND*%
X163217200Y-61788000D03*
%TD*%
D18*
%TO.P,J7,1,Pin_1*%
%TO.N,Gate*%
X152263000Y-69342000D03*
D19*
%TO.P,J7,2,Pin_2*%
%TO.N,accAmp*%
X149723000Y-69342000D03*
%TO.P,J7,3,Pin_3*%
%TO.N,accFlt*%
X147183000Y-69342000D03*
%TO.P,J7,4,Pin_4*%
%TO.N,GND*%
X144643000Y-69342000D03*
%TD*%
D21*
%TO.N,GND*%
X102562000Y-52611000D03*
X115124000Y-58712000D03*
%TO.N,Attack*%
X132771000Y-53409600D03*
%TO.N,Decay*%
X105728000Y-62098200D03*
%TO.N,AccLv*%
X117531000Y-67000000D03*
X105537000Y-67056000D03*
X97028000Y-67056000D03*
X92456000Y-67056000D03*
%TD*%
D22*
%TO.N,Net-(IC2-VINA+)*%
X93218000Y-61214000D02*
X92710000Y-61722000D01*
X96573000Y-61775000D02*
X96012000Y-61214000D01*
X92710000Y-63815000D02*
X94003000Y-65108000D01*
X96012000Y-61214000D02*
X93218000Y-61214000D01*
X96616000Y-62484000D02*
X99314000Y-62484000D01*
X92710000Y-61722000D02*
X92710000Y-63815000D01*
X96573000Y-62441000D02*
X96616000Y-62484000D01*
X96573000Y-62441000D02*
X96573000Y-61775000D01*
%TO.N,Net-(IC2-VINB+)*%
X109560000Y-65024000D02*
X109644000Y-65108000D01*
X107124000Y-65024000D02*
X109560000Y-65024000D01*
D23*
%TO.N,+5VD*%
X89359200Y-50380200D02*
X104717000Y-50380200D01*
X87889000Y-48910000D02*
X89359200Y-50380200D01*
X104717000Y-50380200D02*
X106045000Y-49052000D01*
X163217200Y-59248000D02*
X163217000Y-59248000D01*
X107385000Y-50392100D02*
X106045000Y-49052000D01*
X143174000Y-49080000D02*
X141862000Y-50392100D01*
X141862000Y-50392100D02*
X124505000Y-50392100D01*
X157165000Y-59248000D02*
X163217000Y-59248000D01*
X124505000Y-50392100D02*
X124505000Y-49080000D01*
X124505000Y-50392100D02*
X107385000Y-50392100D01*
X157099000Y-59182000D02*
X157165000Y-59248000D01*
D22*
%TO.N,Attack*%
X89888600Y-53409600D02*
X85389000Y-48910000D01*
X132771000Y-53409600D02*
X89888600Y-53409600D01*
%TO.N,PWM_outAmp*%
X95088500Y-63496500D02*
X119630000Y-63496500D01*
X94033000Y-62441000D02*
X95088500Y-63496500D01*
X119630000Y-63496500D02*
X121539000Y-65405000D01*
%TO.N,PWM_outFlt*%
X112194000Y-62441000D02*
X121115000Y-62441000D01*
X121115000Y-62441000D02*
X124079000Y-65405000D01*
%TO.N,Decay*%
X136779000Y-65405000D02*
X132792000Y-61418300D01*
X106408000Y-61418300D02*
X105728000Y-62098200D01*
X132792000Y-61418300D02*
X106408000Y-61418300D01*
%TO.N,AmpWave*%
X135798000Y-55907800D02*
X134239000Y-57467000D01*
X157861000Y-43815000D02*
X147730000Y-43815000D01*
X144939000Y-46605200D02*
X144939000Y-49052000D01*
X147730000Y-43815000D02*
X144939000Y-46605200D01*
X138084000Y-55907800D02*
X135798000Y-55907800D01*
X144939000Y-49052000D02*
X138084000Y-55907800D01*
%TO.N,Net-(IC2-VINB-)*%
X107244000Y-59824000D02*
X107124000Y-59944000D01*
X109985000Y-59824000D02*
X107244000Y-59824000D01*
%TO.N,Net-(IC2-VINA-)*%
X96523000Y-59901000D02*
X99271000Y-59901000D01*
X99271000Y-59901000D02*
X99314000Y-59944000D01*
%TO.N,AccLv*%
X105537000Y-67056000D02*
X97028000Y-67056000D01*
X85130000Y-71374000D02*
X87765200Y-68738800D01*
X117475000Y-67056000D02*
X117531000Y-67000000D01*
X125000000Y-67000000D02*
X125349000Y-66651000D01*
X125349000Y-66651000D02*
X125349000Y-64651000D01*
X130294000Y-64000000D02*
X131699000Y-65405000D01*
X125349000Y-64651000D02*
X126000000Y-64000000D01*
X126000000Y-64000000D02*
X130294000Y-64000000D01*
X87765200Y-68738800D02*
X90773200Y-68738800D01*
X125000000Y-67000000D02*
X117531000Y-67000000D01*
X90773200Y-68738800D02*
X92512000Y-67000000D01*
%TD*%
%TA.AperFunction,Conductor*%
%TO.N,GND*%
G36*
X167943039Y-29520185D02*
G01*
X167988794Y-29572989D01*
X168000000Y-29624500D01*
X168000000Y-80375500D01*
X167980315Y-80442539D01*
X167927511Y-80488294D01*
X167876000Y-80499500D01*
X71124000Y-80499500D01*
X71056961Y-80479815D01*
X71011206Y-80427011D01*
X71000000Y-80375500D01*
X71000000Y-78199735D01*
X71019685Y-78132696D01*
X71072489Y-78086941D01*
X71141647Y-78076997D01*
X71205203Y-78106022D01*
X71225300Y-78128222D01*
X71275780Y-78199735D01*
X71366812Y-78328700D01*
X71451923Y-78419831D01*
X71562947Y-78538708D01*
X71785853Y-78720055D01*
X72031382Y-78869365D01*
X72218237Y-78950526D01*
X72294942Y-78983844D01*
X72571642Y-79061371D01*
X72821920Y-79095771D01*
X72856321Y-79100500D01*
X72856322Y-79100500D01*
X73143679Y-79100500D01*
X73174370Y-79096281D01*
X73428358Y-79061371D01*
X73705058Y-78983844D01*
X73818015Y-78934779D01*
X73968617Y-78869365D01*
X73968620Y-78869363D01*
X73968625Y-78869361D01*
X74214147Y-78720055D01*
X74437053Y-78538708D01*
X74633189Y-78328698D01*
X74798901Y-78093936D01*
X74931104Y-77838797D01*
X75027334Y-77568032D01*
X75085798Y-77286686D01*
X75105408Y-77000000D01*
X75085798Y-76713314D01*
X75031912Y-76453999D01*
X117516341Y-76453999D01*
X117516341Y-76454000D01*
X117536936Y-76689403D01*
X117536938Y-76689413D01*
X117598094Y-76917655D01*
X117598096Y-76917659D01*
X117598097Y-76917663D01*
X117677801Y-77088588D01*
X117697965Y-77131830D01*
X117697967Y-77131834D01*
X117806281Y-77286521D01*
X117833505Y-77325401D01*
X118000599Y-77492495D01*
X118097384Y-77560265D01*
X118194165Y-77628032D01*
X118194167Y-77628033D01*
X118194170Y-77628035D01*
X118408337Y-77727903D01*
X118636592Y-77789063D01*
X118813034Y-77804500D01*
X118871999Y-77809659D01*
X118872000Y-77809659D01*
X118872001Y-77809659D01*
X118930966Y-77804500D01*
X119107408Y-77789063D01*
X119335663Y-77727903D01*
X119549830Y-77628035D01*
X119743401Y-77492495D01*
X119910495Y-77325401D01*
X120040425Y-77139842D01*
X120095002Y-77096217D01*
X120164500Y-77089023D01*
X120226855Y-77120546D01*
X120243575Y-77139842D01*
X120373500Y-77325395D01*
X120373505Y-77325401D01*
X120540599Y-77492495D01*
X120637384Y-77560265D01*
X120734165Y-77628032D01*
X120734167Y-77628033D01*
X120734170Y-77628035D01*
X120948337Y-77727903D01*
X121176592Y-77789063D01*
X121353034Y-77804500D01*
X121411999Y-77809659D01*
X121412000Y-77809659D01*
X121412001Y-77809659D01*
X121470966Y-77804500D01*
X121647408Y-77789063D01*
X121875663Y-77727903D01*
X122089830Y-77628035D01*
X122283401Y-77492495D01*
X122450495Y-77325401D01*
X122580730Y-77139405D01*
X122635307Y-77095781D01*
X122704805Y-77088587D01*
X122767160Y-77120110D01*
X122783879Y-77139405D01*
X122913890Y-77325078D01*
X123080917Y-77492105D01*
X123274421Y-77627600D01*
X123488507Y-77727429D01*
X123488516Y-77727433D01*
X123702000Y-77784634D01*
X123702000Y-76887012D01*
X123759007Y-76919925D01*
X123886174Y-76954000D01*
X124017826Y-76954000D01*
X124144993Y-76919925D01*
X124202000Y-76887012D01*
X124202000Y-77784633D01*
X124415483Y-77727433D01*
X124415492Y-77727429D01*
X124629578Y-77627600D01*
X124823082Y-77492105D01*
X124990105Y-77325082D01*
X125120119Y-77139405D01*
X125174696Y-77095781D01*
X125244195Y-77088588D01*
X125306549Y-77120110D01*
X125323269Y-77139405D01*
X125453505Y-77325401D01*
X125620599Y-77492495D01*
X125717384Y-77560265D01*
X125814165Y-77628032D01*
X125814167Y-77628033D01*
X125814170Y-77628035D01*
X126028337Y-77727903D01*
X126256592Y-77789063D01*
X126433034Y-77804500D01*
X126491999Y-77809659D01*
X126492000Y-77809659D01*
X126492001Y-77809659D01*
X126550966Y-77804500D01*
X126727408Y-77789063D01*
X126955663Y-77727903D01*
X127169830Y-77628035D01*
X127363401Y-77492495D01*
X127485329Y-77370566D01*
X127546648Y-77337084D01*
X127616340Y-77342068D01*
X127672274Y-77383939D01*
X127689189Y-77414917D01*
X127738202Y-77546328D01*
X127738206Y-77546335D01*
X127824452Y-77661544D01*
X127824455Y-77661547D01*
X127939664Y-77747793D01*
X127939671Y-77747797D01*
X128074517Y-77798091D01*
X128074516Y-77798091D01*
X128081444Y-77798835D01*
X128134127Y-77804500D01*
X129929872Y-77804499D01*
X129989483Y-77798091D01*
X130124331Y-77747796D01*
X130239546Y-77661546D01*
X130325796Y-77546331D01*
X130376091Y-77411483D01*
X130382500Y-77351873D01*
X130382500Y-77000000D01*
X162894592Y-77000000D01*
X162914201Y-77286680D01*
X162914201Y-77286684D01*
X162914202Y-77286686D01*
X162927746Y-77351864D01*
X162972666Y-77568034D01*
X162972667Y-77568037D01*
X163068894Y-77838793D01*
X163068893Y-77838793D01*
X163201098Y-78093935D01*
X163366812Y-78328700D01*
X163451923Y-78419831D01*
X163562947Y-78538708D01*
X163785853Y-78720055D01*
X164031382Y-78869365D01*
X164218237Y-78950526D01*
X164294942Y-78983844D01*
X164571642Y-79061371D01*
X164821920Y-79095771D01*
X164856321Y-79100500D01*
X164856322Y-79100500D01*
X165143679Y-79100500D01*
X165174370Y-79096281D01*
X165428358Y-79061371D01*
X165705058Y-78983844D01*
X165818015Y-78934779D01*
X165968617Y-78869365D01*
X165968620Y-78869363D01*
X165968625Y-78869361D01*
X166214147Y-78720055D01*
X166437053Y-78538708D01*
X166633189Y-78328698D01*
X166798901Y-78093936D01*
X166931104Y-77838797D01*
X167027334Y-77568032D01*
X167085798Y-77286686D01*
X167105408Y-77000000D01*
X167085798Y-76713314D01*
X167027334Y-76431968D01*
X166931105Y-76161206D01*
X166931106Y-76161206D01*
X166798901Y-75906064D01*
X166633187Y-75671299D01*
X166550341Y-75582594D01*
X166437053Y-75461292D01*
X166214172Y-75279965D01*
X166214146Y-75279944D01*
X165968617Y-75130634D01*
X165705063Y-75016158D01*
X165705061Y-75016157D01*
X165705058Y-75016156D01*
X165575578Y-74979877D01*
X165428364Y-74938630D01*
X165428359Y-74938629D01*
X165428358Y-74938629D01*
X165286018Y-74919064D01*
X165143679Y-74899500D01*
X165143678Y-74899500D01*
X164856322Y-74899500D01*
X164856321Y-74899500D01*
X164571642Y-74938629D01*
X164571635Y-74938630D01*
X164363861Y-74996845D01*
X164294942Y-75016156D01*
X164294939Y-75016156D01*
X164294936Y-75016158D01*
X164294935Y-75016158D01*
X164031382Y-75130634D01*
X163785853Y-75279944D01*
X163562950Y-75461289D01*
X163366812Y-75671299D01*
X163201098Y-75906064D01*
X163068894Y-76161206D01*
X162972667Y-76431962D01*
X162972666Y-76431965D01*
X162914201Y-76713319D01*
X162894592Y-77000000D01*
X130382500Y-77000000D01*
X130382499Y-75556128D01*
X130376091Y-75496517D01*
X130374810Y-75493083D01*
X130325797Y-75361671D01*
X130325793Y-75361664D01*
X130239547Y-75246455D01*
X130239544Y-75246452D01*
X130124335Y-75160206D01*
X130124328Y-75160202D01*
X129989482Y-75109908D01*
X129989483Y-75109908D01*
X129929883Y-75103501D01*
X129929881Y-75103500D01*
X129929873Y-75103500D01*
X129929864Y-75103500D01*
X128134129Y-75103500D01*
X128134123Y-75103501D01*
X128074516Y-75109908D01*
X127939671Y-75160202D01*
X127939664Y-75160206D01*
X127824455Y-75246452D01*
X127824452Y-75246455D01*
X127738206Y-75361664D01*
X127738203Y-75361669D01*
X127689189Y-75493083D01*
X127647317Y-75549016D01*
X127581853Y-75573433D01*
X127513580Y-75558581D01*
X127485326Y-75537430D01*
X127363402Y-75415506D01*
X127363395Y-75415501D01*
X127169834Y-75279967D01*
X127169830Y-75279965D01*
X127169785Y-75279944D01*
X126955663Y-75180097D01*
X126955659Y-75180096D01*
X126955655Y-75180094D01*
X126727413Y-75118938D01*
X126727403Y-75118936D01*
X126492001Y-75098341D01*
X126491999Y-75098341D01*
X126256596Y-75118936D01*
X126256586Y-75118938D01*
X126028344Y-75180094D01*
X126028335Y-75180098D01*
X125814171Y-75279964D01*
X125814169Y-75279965D01*
X125620597Y-75415505D01*
X125453508Y-75582594D01*
X125323269Y-75768595D01*
X125268692Y-75812219D01*
X125199193Y-75819412D01*
X125136839Y-75787890D01*
X125120119Y-75768594D01*
X124990113Y-75582926D01*
X124990108Y-75582920D01*
X124823082Y-75415894D01*
X124629578Y-75280399D01*
X124415492Y-75180570D01*
X124415486Y-75180567D01*
X124202000Y-75123364D01*
X124202000Y-76020988D01*
X124144993Y-75988075D01*
X124017826Y-75954000D01*
X123886174Y-75954000D01*
X123759007Y-75988075D01*
X123702000Y-76020988D01*
X123702000Y-75123364D01*
X123701999Y-75123364D01*
X123488513Y-75180567D01*
X123488507Y-75180570D01*
X123274422Y-75280399D01*
X123274420Y-75280400D01*
X123080926Y-75415886D01*
X123080920Y-75415891D01*
X122913891Y-75582920D01*
X122913890Y-75582922D01*
X122783880Y-75768595D01*
X122729303Y-75812219D01*
X122659804Y-75819412D01*
X122597450Y-75787890D01*
X122580730Y-75768594D01*
X122450494Y-75582597D01*
X122283402Y-75415506D01*
X122283395Y-75415501D01*
X122089834Y-75279967D01*
X122089830Y-75279965D01*
X122089785Y-75279944D01*
X121875663Y-75180097D01*
X121875659Y-75180096D01*
X121875655Y-75180094D01*
X121647413Y-75118938D01*
X121647403Y-75118936D01*
X121412001Y-75098341D01*
X121411999Y-75098341D01*
X121176596Y-75118936D01*
X121176586Y-75118938D01*
X120948344Y-75180094D01*
X120948335Y-75180098D01*
X120734171Y-75279964D01*
X120734169Y-75279965D01*
X120540597Y-75415505D01*
X120373505Y-75582597D01*
X120243575Y-75768158D01*
X120188998Y-75811783D01*
X120119500Y-75818977D01*
X120057145Y-75787454D01*
X120040425Y-75768158D01*
X119910494Y-75582597D01*
X119743402Y-75415506D01*
X119743395Y-75415501D01*
X119549834Y-75279967D01*
X119549830Y-75279965D01*
X119549785Y-75279944D01*
X119335663Y-75180097D01*
X119335659Y-75180096D01*
X119335655Y-75180094D01*
X119107413Y-75118938D01*
X119107403Y-75118936D01*
X118872001Y-75098341D01*
X118871999Y-75098341D01*
X118636596Y-75118936D01*
X118636586Y-75118938D01*
X118408344Y-75180094D01*
X118408335Y-75180098D01*
X118194171Y-75279964D01*
X118194169Y-75279965D01*
X118000597Y-75415505D01*
X117833505Y-75582597D01*
X117697965Y-75776169D01*
X117697964Y-75776171D01*
X117598098Y-75990335D01*
X117598094Y-75990344D01*
X117536938Y-76218586D01*
X117536936Y-76218596D01*
X117516341Y-76453999D01*
X75031912Y-76453999D01*
X75027334Y-76431968D01*
X74931105Y-76161206D01*
X74931106Y-76161206D01*
X74798901Y-75906064D01*
X74633187Y-75671299D01*
X74550341Y-75582594D01*
X74437053Y-75461292D01*
X74214172Y-75279965D01*
X74214146Y-75279944D01*
X73968617Y-75130634D01*
X73705063Y-75016158D01*
X73705061Y-75016157D01*
X73705058Y-75016156D01*
X73575578Y-74979877D01*
X73428364Y-74938630D01*
X73428359Y-74938629D01*
X73428358Y-74938629D01*
X73286018Y-74919064D01*
X73143679Y-74899500D01*
X73143678Y-74899500D01*
X72856322Y-74899500D01*
X72856321Y-74899500D01*
X72571642Y-74938629D01*
X72571635Y-74938630D01*
X72363861Y-74996845D01*
X72294942Y-75016156D01*
X72294939Y-75016156D01*
X72294936Y-75016158D01*
X72294935Y-75016158D01*
X72031382Y-75130634D01*
X71785853Y-75279944D01*
X71562950Y-75461289D01*
X71366812Y-75671299D01*
X71225305Y-75871772D01*
X71170563Y-75915190D01*
X71101038Y-75922119D01*
X71038803Y-75890361D01*
X71003618Y-75829997D01*
X71000000Y-75800264D01*
X71000000Y-71373994D01*
X81225202Y-71373994D01*
X81225202Y-71374005D01*
X81244361Y-71605218D01*
X81301317Y-71830135D01*
X81394516Y-72042609D01*
X81478811Y-72171633D01*
X82065387Y-71585058D01*
X82070889Y-71605591D01*
X82149881Y-71742408D01*
X82261592Y-71854119D01*
X82398409Y-71933111D01*
X82418940Y-71938612D01*
X81831201Y-72526351D01*
X81861649Y-72550050D01*
X82065697Y-72660476D01*
X82065706Y-72660479D01*
X82285139Y-72735811D01*
X82513993Y-72774000D01*
X82746007Y-72774000D01*
X82974860Y-72735811D01*
X83194293Y-72660479D01*
X83194301Y-72660476D01*
X83398355Y-72550047D01*
X83428797Y-72526351D01*
X83428798Y-72526350D01*
X82841060Y-71938612D01*
X82861591Y-71933111D01*
X82998408Y-71854119D01*
X83110119Y-71742408D01*
X83189111Y-71605591D01*
X83194612Y-71585059D01*
X83781186Y-72171634D01*
X83785969Y-72171138D01*
X83829037Y-72134381D01*
X83898269Y-72124957D01*
X83961605Y-72154458D01*
X83983510Y-72179738D01*
X84021016Y-72237147D01*
X84021019Y-72237151D01*
X84021021Y-72237153D01*
X84178216Y-72407913D01*
X84178219Y-72407915D01*
X84178222Y-72407918D01*
X84361365Y-72550464D01*
X84361371Y-72550468D01*
X84361374Y-72550470D01*
X84401308Y-72572081D01*
X84564652Y-72660479D01*
X84565497Y-72660936D01*
X84645809Y-72688507D01*
X84785015Y-72736297D01*
X84785017Y-72736297D01*
X84785019Y-72736298D01*
X85013951Y-72774500D01*
X85013952Y-72774500D01*
X85246048Y-72774500D01*
X85246049Y-72774500D01*
X85474981Y-72736298D01*
X85694503Y-72660936D01*
X85898626Y-72550470D01*
X85899170Y-72550047D01*
X86006390Y-72466594D01*
X86081784Y-72407913D01*
X86238979Y-72237153D01*
X86261708Y-72202364D01*
X86276191Y-72180196D01*
X86329337Y-72134839D01*
X86398569Y-72125415D01*
X86461904Y-72154917D01*
X86483809Y-72180196D01*
X86521016Y-72237147D01*
X86521019Y-72237151D01*
X86521021Y-72237153D01*
X86678216Y-72407913D01*
X86678219Y-72407915D01*
X86678222Y-72407918D01*
X86861365Y-72550464D01*
X86861371Y-72550468D01*
X86861374Y-72550470D01*
X86901308Y-72572081D01*
X87064652Y-72660479D01*
X87065497Y-72660936D01*
X87145809Y-72688507D01*
X87285015Y-72736297D01*
X87285017Y-72736297D01*
X87285019Y-72736298D01*
X87513951Y-72774500D01*
X87513952Y-72774500D01*
X87746048Y-72774500D01*
X87746049Y-72774500D01*
X87974981Y-72736298D01*
X88194503Y-72660936D01*
X88242179Y-72635135D01*
X99106500Y-72635135D01*
X99106500Y-74430870D01*
X99106501Y-74430876D01*
X99112908Y-74490483D01*
X99163202Y-74625328D01*
X99163206Y-74625335D01*
X99249452Y-74740544D01*
X99249455Y-74740547D01*
X99364664Y-74826793D01*
X99364671Y-74826797D01*
X99499517Y-74877091D01*
X99499516Y-74877091D01*
X99506444Y-74877835D01*
X99559127Y-74883500D01*
X101354872Y-74883499D01*
X101414483Y-74877091D01*
X101549331Y-74826796D01*
X101664546Y-74740546D01*
X101750796Y-74625331D01*
X101799810Y-74493916D01*
X101841681Y-74437984D01*
X101907145Y-74413566D01*
X101975418Y-74428417D01*
X102003673Y-74449569D01*
X102125599Y-74571495D01*
X102222384Y-74639265D01*
X102319165Y-74707032D01*
X102319167Y-74707033D01*
X102319170Y-74707035D01*
X102533337Y-74806903D01*
X102761592Y-74868063D01*
X102938034Y-74883500D01*
X102996999Y-74888659D01*
X102997000Y-74888659D01*
X102997001Y-74888659D01*
X103055966Y-74883500D01*
X103232408Y-74868063D01*
X103460663Y-74806903D01*
X103674830Y-74707035D01*
X103868401Y-74571495D01*
X104035495Y-74404401D01*
X104165730Y-74218405D01*
X104220307Y-74174781D01*
X104289805Y-74167587D01*
X104352160Y-74199110D01*
X104368879Y-74218405D01*
X104498890Y-74404078D01*
X104665917Y-74571105D01*
X104859421Y-74706600D01*
X105073507Y-74806429D01*
X105073516Y-74806433D01*
X105287000Y-74863634D01*
X105287000Y-73966012D01*
X105344007Y-73998925D01*
X105471174Y-74033000D01*
X105602826Y-74033000D01*
X105729993Y-73998925D01*
X105787000Y-73966012D01*
X105787000Y-74863633D01*
X106000483Y-74806433D01*
X106000492Y-74806429D01*
X106214578Y-74706600D01*
X106408082Y-74571105D01*
X106575105Y-74404082D01*
X106710600Y-74210578D01*
X106810429Y-73996492D01*
X106810432Y-73996486D01*
X106867636Y-73783000D01*
X105970012Y-73783000D01*
X106002925Y-73725993D01*
X106037000Y-73598826D01*
X106037000Y-73467174D01*
X106002925Y-73340007D01*
X105970012Y-73283000D01*
X106867636Y-73283000D01*
X106867635Y-73282999D01*
X106810432Y-73069513D01*
X106810429Y-73069507D01*
X106732319Y-72901999D01*
X143322364Y-72901999D01*
X143322364Y-72902000D01*
X144219988Y-72902000D01*
X144187075Y-72959007D01*
X144153000Y-73086174D01*
X144153000Y-73217826D01*
X144187075Y-73344993D01*
X144219988Y-73402000D01*
X143322364Y-73402000D01*
X143379567Y-73615486D01*
X143379570Y-73615492D01*
X143479399Y-73829578D01*
X143614894Y-74023082D01*
X143781917Y-74190105D01*
X143975421Y-74325600D01*
X144189507Y-74425429D01*
X144189516Y-74425433D01*
X144403000Y-74482634D01*
X144403000Y-73585012D01*
X144460007Y-73617925D01*
X144587174Y-73652000D01*
X144718826Y-73652000D01*
X144845993Y-73617925D01*
X144903000Y-73585012D01*
X144903000Y-74482633D01*
X145116483Y-74425433D01*
X145116492Y-74425429D01*
X145330578Y-74325600D01*
X145524082Y-74190105D01*
X145691105Y-74023082D01*
X145821119Y-73837405D01*
X145875696Y-73793781D01*
X145945195Y-73786588D01*
X146007549Y-73818110D01*
X146024269Y-73837405D01*
X146154505Y-74023401D01*
X146321599Y-74190495D01*
X146418384Y-74258265D01*
X146515165Y-74326032D01*
X146515167Y-74326033D01*
X146515170Y-74326035D01*
X146729337Y-74425903D01*
X146729343Y-74425904D01*
X146729344Y-74425905D01*
X146774424Y-74437984D01*
X146957592Y-74487063D01*
X147134034Y-74502500D01*
X147192999Y-74507659D01*
X147193000Y-74507659D01*
X147193001Y-74507659D01*
X147251966Y-74502500D01*
X147428408Y-74487063D01*
X147656663Y-74425903D01*
X147870830Y-74326035D01*
X148064401Y-74190495D01*
X148231495Y-74023401D01*
X148361425Y-73837842D01*
X148416002Y-73794217D01*
X148485500Y-73787023D01*
X148547855Y-73818546D01*
X148564575Y-73837842D01*
X148694281Y-74023082D01*
X148694505Y-74023401D01*
X148861599Y-74190495D01*
X148958384Y-74258265D01*
X149055165Y-74326032D01*
X149055167Y-74326033D01*
X149055170Y-74326035D01*
X149269337Y-74425903D01*
X149269343Y-74425904D01*
X149269344Y-74425905D01*
X149314424Y-74437984D01*
X149497592Y-74487063D01*
X149674034Y-74502500D01*
X149732999Y-74507659D01*
X149733000Y-74507659D01*
X149733001Y-74507659D01*
X149791966Y-74502500D01*
X149968408Y-74487063D01*
X150196663Y-74425903D01*
X150410830Y-74326035D01*
X150604401Y-74190495D01*
X150726329Y-74068566D01*
X150787648Y-74035084D01*
X150857340Y-74040068D01*
X150913274Y-74081939D01*
X150930189Y-74112917D01*
X150979202Y-74244328D01*
X150979206Y-74244335D01*
X151065452Y-74359544D01*
X151065455Y-74359547D01*
X151180664Y-74445793D01*
X151180671Y-74445797D01*
X151315517Y-74496091D01*
X151315516Y-74496091D01*
X151322444Y-74496835D01*
X151375127Y-74502500D01*
X153170872Y-74502499D01*
X153230483Y-74496091D01*
X153365331Y-74445796D01*
X153480546Y-74359546D01*
X153566796Y-74244331D01*
X153617091Y-74109483D01*
X153623500Y-74049873D01*
X153623499Y-72254128D01*
X153617091Y-72194517D01*
X153615810Y-72191083D01*
X153566797Y-72059671D01*
X153566793Y-72059664D01*
X153480547Y-71944455D01*
X153480544Y-71944452D01*
X153365335Y-71858206D01*
X153365328Y-71858202D01*
X153230482Y-71807908D01*
X153230483Y-71807908D01*
X153170883Y-71801501D01*
X153170881Y-71801500D01*
X153170873Y-71801500D01*
X153170864Y-71801500D01*
X151375129Y-71801500D01*
X151375123Y-71801501D01*
X151315516Y-71807908D01*
X151180671Y-71858202D01*
X151180664Y-71858206D01*
X151065455Y-71944452D01*
X151065452Y-71944455D01*
X150979206Y-72059664D01*
X150979203Y-72059669D01*
X150930189Y-72191083D01*
X150888317Y-72247016D01*
X150822853Y-72271433D01*
X150754580Y-72256581D01*
X150726326Y-72235430D01*
X150604402Y-72113506D01*
X150604395Y-72113501D01*
X150410834Y-71977967D01*
X150410830Y-71977965D01*
X150402327Y-71974000D01*
X150196663Y-71878097D01*
X150196659Y-71878096D01*
X150196655Y-71878094D01*
X149968413Y-71816938D01*
X149968403Y-71816936D01*
X149733001Y-71796341D01*
X149732999Y-71796341D01*
X149497596Y-71816936D01*
X149497586Y-71816938D01*
X149269344Y-71878094D01*
X149269335Y-71878098D01*
X149055171Y-71977964D01*
X149055169Y-71977965D01*
X148861597Y-72113505D01*
X148694505Y-72280597D01*
X148564575Y-72466158D01*
X148509998Y-72509783D01*
X148440500Y-72516977D01*
X148378145Y-72485454D01*
X148361425Y-72466158D01*
X148231494Y-72280597D01*
X148064402Y-72113506D01*
X148064395Y-72113501D01*
X147870834Y-71977967D01*
X147870830Y-71977965D01*
X147862327Y-71974000D01*
X147656663Y-71878097D01*
X147656659Y-71878096D01*
X147656655Y-71878094D01*
X147428413Y-71816938D01*
X147428403Y-71816936D01*
X147193001Y-71796341D01*
X147192999Y-71796341D01*
X146957596Y-71816936D01*
X146957586Y-71816938D01*
X146729344Y-71878094D01*
X146729335Y-71878098D01*
X146515171Y-71977964D01*
X146515169Y-71977965D01*
X146321597Y-72113505D01*
X146154508Y-72280594D01*
X146024269Y-72466595D01*
X145969692Y-72510219D01*
X145900193Y-72517412D01*
X145837839Y-72485890D01*
X145821119Y-72466594D01*
X145691113Y-72280926D01*
X145691108Y-72280920D01*
X145524082Y-72113894D01*
X145330578Y-71978399D01*
X145116492Y-71878570D01*
X145116486Y-71878567D01*
X144903000Y-71821364D01*
X144903000Y-72718988D01*
X144845993Y-72686075D01*
X144718826Y-72652000D01*
X144587174Y-72652000D01*
X144460007Y-72686075D01*
X144403000Y-72718988D01*
X144403000Y-71821364D01*
X144402999Y-71821364D01*
X144189513Y-71878567D01*
X144189507Y-71878570D01*
X143975422Y-71978399D01*
X143975420Y-71978400D01*
X143781926Y-72113886D01*
X143781920Y-72113891D01*
X143614891Y-72280920D01*
X143614886Y-72280926D01*
X143479400Y-72474420D01*
X143479399Y-72474422D01*
X143379570Y-72688507D01*
X143379567Y-72688513D01*
X143322364Y-72901999D01*
X106732319Y-72901999D01*
X106710600Y-72855422D01*
X106710599Y-72855420D01*
X106575113Y-72661926D01*
X106575108Y-72661920D01*
X106408082Y-72494894D01*
X106214578Y-72359399D01*
X106000492Y-72259570D01*
X106000486Y-72259567D01*
X105787000Y-72202364D01*
X105787000Y-73099988D01*
X105729993Y-73067075D01*
X105602826Y-73033000D01*
X105471174Y-73033000D01*
X105344007Y-73067075D01*
X105287000Y-73099988D01*
X105287000Y-72202364D01*
X105286999Y-72202364D01*
X105073513Y-72259567D01*
X105073507Y-72259570D01*
X104859422Y-72359399D01*
X104859420Y-72359400D01*
X104665926Y-72494886D01*
X104665920Y-72494891D01*
X104498891Y-72661920D01*
X104498890Y-72661922D01*
X104368880Y-72847595D01*
X104314303Y-72891219D01*
X104244804Y-72898412D01*
X104182450Y-72866890D01*
X104165730Y-72847594D01*
X104035494Y-72661597D01*
X103868402Y-72494506D01*
X103868395Y-72494501D01*
X103856097Y-72485890D01*
X103791518Y-72440671D01*
X103674834Y-72358967D01*
X103674830Y-72358965D01*
X103674828Y-72358964D01*
X103460663Y-72259097D01*
X103460659Y-72259096D01*
X103460655Y-72259094D01*
X103232413Y-72197938D01*
X103232403Y-72197936D01*
X102997001Y-72177341D01*
X102996999Y-72177341D01*
X102761596Y-72197936D01*
X102761586Y-72197938D01*
X102533344Y-72259094D01*
X102533335Y-72259098D01*
X102319171Y-72358964D01*
X102319169Y-72358965D01*
X102125600Y-72494503D01*
X102003673Y-72616430D01*
X101942350Y-72649914D01*
X101872658Y-72644930D01*
X101816725Y-72603058D01*
X101799810Y-72572081D01*
X101750797Y-72440671D01*
X101750793Y-72440664D01*
X101664547Y-72325455D01*
X101664544Y-72325452D01*
X101549335Y-72239206D01*
X101549328Y-72239202D01*
X101414482Y-72188908D01*
X101414483Y-72188908D01*
X101354883Y-72182501D01*
X101354881Y-72182500D01*
X101354873Y-72182500D01*
X101354864Y-72182500D01*
X99559129Y-72182500D01*
X99559123Y-72182501D01*
X99499516Y-72188908D01*
X99364671Y-72239202D01*
X99364664Y-72239206D01*
X99249455Y-72325452D01*
X99249452Y-72325455D01*
X99163206Y-72440664D01*
X99163202Y-72440671D01*
X99112908Y-72575517D01*
X99106501Y-72635116D01*
X99106500Y-72635135D01*
X88242179Y-72635135D01*
X88398626Y-72550470D01*
X88399170Y-72550047D01*
X88506390Y-72466594D01*
X88581784Y-72407913D01*
X88738979Y-72237153D01*
X88865924Y-72042849D01*
X88959157Y-71830300D01*
X89016134Y-71605305D01*
X89016135Y-71605297D01*
X89035300Y-71374006D01*
X89035300Y-71373993D01*
X89016135Y-71142702D01*
X89016133Y-71142691D01*
X88959157Y-70917699D01*
X88865924Y-70705151D01*
X88738983Y-70510852D01*
X88738980Y-70510849D01*
X88738979Y-70510847D01*
X88581784Y-70340087D01*
X88581779Y-70340083D01*
X88581777Y-70340081D01*
X88398634Y-70197535D01*
X88398628Y-70197531D01*
X88194504Y-70087064D01*
X88194495Y-70087061D01*
X87974984Y-70011702D01*
X87764554Y-69976588D01*
X87746049Y-69973500D01*
X87679097Y-69973500D01*
X87612058Y-69953815D01*
X87566303Y-69901011D01*
X87556359Y-69831853D01*
X87585384Y-69768297D01*
X87591416Y-69761819D01*
X87699644Y-69653592D01*
X87977617Y-69375619D01*
X88038940Y-69342134D01*
X88065298Y-69339300D01*
X90686531Y-69339300D01*
X90686547Y-69339301D01*
X90694143Y-69339301D01*
X90852254Y-69339301D01*
X90852257Y-69339301D01*
X91004985Y-69298377D01*
X91055104Y-69269439D01*
X91141916Y-69219320D01*
X91253720Y-69107516D01*
X91253720Y-69107514D01*
X91263928Y-69097307D01*
X91263930Y-69097304D01*
X91370099Y-68991135D01*
X99064500Y-68991135D01*
X99064500Y-70786870D01*
X99064501Y-70786876D01*
X99070908Y-70846483D01*
X99121202Y-70981328D01*
X99121206Y-70981335D01*
X99207452Y-71096544D01*
X99207455Y-71096547D01*
X99322664Y-71182793D01*
X99322671Y-71182797D01*
X99457517Y-71233091D01*
X99457516Y-71233091D01*
X99464444Y-71233835D01*
X99517127Y-71239500D01*
X101312872Y-71239499D01*
X101372483Y-71233091D01*
X101507331Y-71182796D01*
X101622546Y-71096546D01*
X101708796Y-70981331D01*
X101757810Y-70849916D01*
X101799681Y-70793984D01*
X101865145Y-70769566D01*
X101933418Y-70784417D01*
X101961673Y-70805569D01*
X102083599Y-70927495D01*
X102180384Y-70995265D01*
X102277165Y-71063032D01*
X102277167Y-71063033D01*
X102277170Y-71063035D01*
X102491337Y-71162903D01*
X102719592Y-71224063D01*
X102896034Y-71239500D01*
X102954999Y-71244659D01*
X102955000Y-71244659D01*
X102955001Y-71244659D01*
X103013966Y-71239500D01*
X103190408Y-71224063D01*
X103418663Y-71162903D01*
X103632830Y-71063035D01*
X103826401Y-70927495D01*
X103993495Y-70760401D01*
X104123730Y-70574405D01*
X104178307Y-70530781D01*
X104247805Y-70523587D01*
X104310160Y-70555110D01*
X104326879Y-70574405D01*
X104456890Y-70760078D01*
X104623917Y-70927105D01*
X104817421Y-71062600D01*
X105031507Y-71162429D01*
X105031516Y-71162433D01*
X105245000Y-71219634D01*
X105245000Y-70322012D01*
X105302007Y-70354925D01*
X105429174Y-70389000D01*
X105560826Y-70389000D01*
X105687993Y-70354925D01*
X105745000Y-70322012D01*
X105745000Y-71219633D01*
X105958483Y-71162433D01*
X105958492Y-71162429D01*
X106172578Y-71062600D01*
X106366082Y-70927105D01*
X106533105Y-70760082D01*
X106668600Y-70566578D01*
X106768429Y-70352492D01*
X106768432Y-70352486D01*
X106825636Y-70139000D01*
X105928012Y-70139000D01*
X105960925Y-70081993D01*
X105995000Y-69954826D01*
X105995000Y-69823174D01*
X105960925Y-69696007D01*
X105928012Y-69639000D01*
X106825636Y-69639000D01*
X106825635Y-69638999D01*
X106768432Y-69425513D01*
X106768429Y-69425507D01*
X106668600Y-69211422D01*
X106668599Y-69211420D01*
X106584979Y-69091999D01*
X143312364Y-69091999D01*
X143312364Y-69092000D01*
X144209988Y-69092000D01*
X144177075Y-69149007D01*
X144143000Y-69276174D01*
X144143000Y-69407826D01*
X144177075Y-69534993D01*
X144209988Y-69592000D01*
X143312364Y-69592000D01*
X143369567Y-69805486D01*
X143369570Y-69805492D01*
X143469399Y-70019578D01*
X143604894Y-70213082D01*
X143771917Y-70380105D01*
X143965421Y-70515600D01*
X144179507Y-70615429D01*
X144179516Y-70615433D01*
X144393000Y-70672634D01*
X144393000Y-69775012D01*
X144450007Y-69807925D01*
X144577174Y-69842000D01*
X144708826Y-69842000D01*
X144835993Y-69807925D01*
X144893000Y-69775012D01*
X144893000Y-70672633D01*
X145106483Y-70615433D01*
X145106492Y-70615429D01*
X145320578Y-70515600D01*
X145514082Y-70380105D01*
X145681105Y-70213082D01*
X145811119Y-70027405D01*
X145865696Y-69983781D01*
X145935195Y-69976588D01*
X145997549Y-70008110D01*
X146014269Y-70027405D01*
X146144505Y-70213401D01*
X146311599Y-70380495D01*
X146408384Y-70448265D01*
X146505165Y-70516032D01*
X146505167Y-70516033D01*
X146505170Y-70516035D01*
X146719337Y-70615903D01*
X146719343Y-70615904D01*
X146719344Y-70615905D01*
X146774285Y-70630626D01*
X146947592Y-70677063D01*
X147124034Y-70692500D01*
X147182999Y-70697659D01*
X147183000Y-70697659D01*
X147183001Y-70697659D01*
X147241966Y-70692500D01*
X147418408Y-70677063D01*
X147646663Y-70615903D01*
X147860830Y-70516035D01*
X148054401Y-70380495D01*
X148221495Y-70213401D01*
X148351425Y-70027842D01*
X148406002Y-69984217D01*
X148475500Y-69977023D01*
X148537855Y-70008546D01*
X148554575Y-70027842D01*
X148684281Y-70213082D01*
X148684505Y-70213401D01*
X148851599Y-70380495D01*
X148948384Y-70448265D01*
X149045165Y-70516032D01*
X149045167Y-70516033D01*
X149045170Y-70516035D01*
X149259337Y-70615903D01*
X149259343Y-70615904D01*
X149259344Y-70615905D01*
X149314285Y-70630626D01*
X149487592Y-70677063D01*
X149664034Y-70692500D01*
X149722999Y-70697659D01*
X149723000Y-70697659D01*
X149723001Y-70697659D01*
X149781966Y-70692500D01*
X149958408Y-70677063D01*
X150186663Y-70615903D01*
X150400830Y-70516035D01*
X150594401Y-70380495D01*
X150716329Y-70258566D01*
X150777648Y-70225084D01*
X150847340Y-70230068D01*
X150903274Y-70271939D01*
X150920189Y-70302917D01*
X150969202Y-70434328D01*
X150969206Y-70434335D01*
X151055452Y-70549544D01*
X151055455Y-70549547D01*
X151170664Y-70635793D01*
X151170671Y-70635797D01*
X151305517Y-70686091D01*
X151305516Y-70686091D01*
X151312444Y-70686835D01*
X151365127Y-70692500D01*
X153160872Y-70692499D01*
X153220483Y-70686091D01*
X153355331Y-70635796D01*
X153470546Y-70549546D01*
X153556796Y-70434331D01*
X153607091Y-70299483D01*
X153613500Y-70239873D01*
X153613499Y-68444128D01*
X153607091Y-68384517D01*
X153605810Y-68381083D01*
X153556797Y-68249671D01*
X153556793Y-68249664D01*
X153470547Y-68134455D01*
X153470544Y-68134452D01*
X153355335Y-68048206D01*
X153355328Y-68048202D01*
X153220482Y-67997908D01*
X153220483Y-67997908D01*
X153160883Y-67991501D01*
X153160881Y-67991500D01*
X153160873Y-67991500D01*
X153160864Y-67991500D01*
X151365129Y-67991500D01*
X151365123Y-67991501D01*
X151305516Y-67997908D01*
X151170671Y-68048202D01*
X151170664Y-68048206D01*
X151055455Y-68134452D01*
X151055452Y-68134455D01*
X150969206Y-68249664D01*
X150969203Y-68249669D01*
X150920189Y-68381083D01*
X150878317Y-68437016D01*
X150812853Y-68461433D01*
X150744580Y-68446581D01*
X150716326Y-68425430D01*
X150594402Y-68303506D01*
X150594395Y-68303501D01*
X150400834Y-68167967D01*
X150400830Y-68167965D01*
X150337211Y-68138299D01*
X150186663Y-68068097D01*
X150186659Y-68068096D01*
X150186655Y-68068094D01*
X149958413Y-68006938D01*
X149958403Y-68006936D01*
X149723001Y-67986341D01*
X149722999Y-67986341D01*
X149487596Y-68006936D01*
X149487586Y-68006938D01*
X149259344Y-68068094D01*
X149259335Y-68068098D01*
X149045171Y-68167964D01*
X149045169Y-68167965D01*
X148851597Y-68303505D01*
X148684505Y-68470597D01*
X148554575Y-68656158D01*
X148499998Y-68699783D01*
X148430500Y-68706977D01*
X148368145Y-68675454D01*
X148351425Y-68656158D01*
X148221494Y-68470597D01*
X148054402Y-68303506D01*
X148054395Y-68303501D01*
X147860834Y-68167967D01*
X147860830Y-68167965D01*
X147797211Y-68138299D01*
X147646663Y-68068097D01*
X147646659Y-68068096D01*
X147646655Y-68068094D01*
X147418413Y-68006938D01*
X147418403Y-68006936D01*
X147183001Y-67986341D01*
X147182999Y-67986341D01*
X146947596Y-68006936D01*
X146947586Y-68006938D01*
X146719344Y-68068094D01*
X146719335Y-68068098D01*
X146505171Y-68167964D01*
X146505169Y-68167965D01*
X146311597Y-68303505D01*
X146144508Y-68470594D01*
X146014269Y-68656595D01*
X145959692Y-68700219D01*
X145890193Y-68707412D01*
X145827839Y-68675890D01*
X145811119Y-68656594D01*
X145681113Y-68470926D01*
X145681108Y-68470920D01*
X145514082Y-68303894D01*
X145320578Y-68168399D01*
X145106492Y-68068570D01*
X145106486Y-68068567D01*
X144893000Y-68011364D01*
X144893000Y-68908988D01*
X144835993Y-68876075D01*
X144708826Y-68842000D01*
X144577174Y-68842000D01*
X144450007Y-68876075D01*
X144393000Y-68908988D01*
X144393000Y-68011364D01*
X144392999Y-68011364D01*
X144179513Y-68068567D01*
X144179507Y-68068570D01*
X143965422Y-68168399D01*
X143965420Y-68168400D01*
X143771926Y-68303886D01*
X143771920Y-68303891D01*
X143604891Y-68470920D01*
X143604886Y-68470926D01*
X143469400Y-68664420D01*
X143469399Y-68664422D01*
X143369570Y-68878507D01*
X143369567Y-68878513D01*
X143312364Y-69091999D01*
X106584979Y-69091999D01*
X106533113Y-69017926D01*
X106533108Y-69017920D01*
X106366082Y-68850894D01*
X106172578Y-68715399D01*
X105958492Y-68615570D01*
X105958486Y-68615567D01*
X105745000Y-68558364D01*
X105745000Y-69455988D01*
X105687993Y-69423075D01*
X105560826Y-69389000D01*
X105429174Y-69389000D01*
X105302007Y-69423075D01*
X105245000Y-69455988D01*
X105245000Y-68558364D01*
X105244999Y-68558364D01*
X105031513Y-68615567D01*
X105031507Y-68615570D01*
X104817422Y-68715399D01*
X104817420Y-68715400D01*
X104623926Y-68850886D01*
X104623920Y-68850891D01*
X104456891Y-69017920D01*
X104456890Y-69017922D01*
X104326880Y-69203595D01*
X104272303Y-69247219D01*
X104202804Y-69254412D01*
X104140450Y-69222890D01*
X104123730Y-69203594D01*
X103993494Y-69017597D01*
X103826402Y-68850506D01*
X103826395Y-68850501D01*
X103814254Y-68842000D01*
X103749518Y-68796671D01*
X103632834Y-68714967D01*
X103632830Y-68714965D01*
X103632828Y-68714964D01*
X103418663Y-68615097D01*
X103418659Y-68615096D01*
X103418655Y-68615094D01*
X103190413Y-68553938D01*
X103190403Y-68553936D01*
X102955001Y-68533341D01*
X102954999Y-68533341D01*
X102719596Y-68553936D01*
X102719586Y-68553938D01*
X102491344Y-68615094D01*
X102491335Y-68615098D01*
X102277171Y-68714964D01*
X102277169Y-68714965D01*
X102083600Y-68850503D01*
X101961673Y-68972430D01*
X101900350Y-69005914D01*
X101830658Y-69000930D01*
X101774725Y-68959058D01*
X101757810Y-68928081D01*
X101708797Y-68796671D01*
X101708793Y-68796664D01*
X101622547Y-68681455D01*
X101622544Y-68681452D01*
X101507335Y-68595206D01*
X101507328Y-68595202D01*
X101372482Y-68544908D01*
X101372483Y-68544908D01*
X101312883Y-68538501D01*
X101312881Y-68538500D01*
X101312873Y-68538500D01*
X101312864Y-68538500D01*
X99517129Y-68538500D01*
X99517123Y-68538501D01*
X99457516Y-68544908D01*
X99322671Y-68595202D01*
X99322664Y-68595206D01*
X99207455Y-68681452D01*
X99207452Y-68681455D01*
X99121206Y-68796664D01*
X99121202Y-68796671D01*
X99070908Y-68931517D01*
X99064501Y-68991116D01*
X99064500Y-68991135D01*
X91370099Y-68991135D01*
X92474535Y-67886698D01*
X92535856Y-67853215D01*
X92548311Y-67851163D01*
X92635255Y-67841368D01*
X92805522Y-67781789D01*
X92958262Y-67685816D01*
X93085816Y-67558262D01*
X93181789Y-67405522D01*
X93241368Y-67235255D01*
X93247678Y-67179254D01*
X93261565Y-67056003D01*
X93261565Y-67055996D01*
X93241369Y-66876750D01*
X93241368Y-66876745D01*
X93181789Y-66706478D01*
X93085816Y-66553738D01*
X92958262Y-66426184D01*
X92915795Y-66399500D01*
X92805523Y-66330211D01*
X92635254Y-66270631D01*
X92635249Y-66270630D01*
X92456004Y-66250435D01*
X92455996Y-66250435D01*
X92276750Y-66270630D01*
X92276745Y-66270631D01*
X92106476Y-66330211D01*
X91953737Y-66426184D01*
X91826184Y-66553737D01*
X91730210Y-66706478D01*
X91670630Y-66876750D01*
X91660837Y-66963668D01*
X91633770Y-67028082D01*
X91625298Y-67037465D01*
X90560784Y-68101981D01*
X90499461Y-68135466D01*
X90473103Y-68138300D01*
X87851870Y-68138300D01*
X87851854Y-68138299D01*
X87844258Y-68138299D01*
X87686143Y-68138299D01*
X87609779Y-68158761D01*
X87533414Y-68179223D01*
X87533409Y-68179226D01*
X87396490Y-68258275D01*
X87396482Y-68258281D01*
X85654839Y-69999923D01*
X85593516Y-70033408D01*
X85526896Y-70029524D01*
X85474981Y-70011701D01*
X85264554Y-69976588D01*
X85246049Y-69973500D01*
X85013951Y-69973500D01*
X84995446Y-69976588D01*
X84785015Y-70011702D01*
X84565504Y-70087061D01*
X84565495Y-70087064D01*
X84361371Y-70197531D01*
X84361365Y-70197535D01*
X84178222Y-70340081D01*
X84178219Y-70340084D01*
X84178216Y-70340086D01*
X84178216Y-70340087D01*
X84021021Y-70510847D01*
X84021019Y-70510849D01*
X84021017Y-70510852D01*
X83983509Y-70568262D01*
X83930362Y-70613618D01*
X83861131Y-70623041D01*
X83797795Y-70593538D01*
X83783084Y-70576561D01*
X83781186Y-70576364D01*
X83194612Y-71162939D01*
X83189111Y-71142409D01*
X83110119Y-71005592D01*
X82998408Y-70893881D01*
X82861591Y-70814889D01*
X82841058Y-70809387D01*
X83428797Y-70221647D01*
X83428797Y-70221645D01*
X83398360Y-70197955D01*
X83398354Y-70197951D01*
X83194302Y-70087523D01*
X83194293Y-70087520D01*
X82974860Y-70012188D01*
X82746007Y-69974000D01*
X82513993Y-69974000D01*
X82285139Y-70012188D01*
X82065706Y-70087520D01*
X82065697Y-70087523D01*
X81861650Y-70197949D01*
X81831200Y-70221647D01*
X82418941Y-70809387D01*
X82398409Y-70814889D01*
X82261592Y-70893881D01*
X82149881Y-71005592D01*
X82070889Y-71142409D01*
X82065387Y-71162940D01*
X81478812Y-70576365D01*
X81394516Y-70705391D01*
X81394514Y-70705395D01*
X81301317Y-70917864D01*
X81244361Y-71142781D01*
X81225202Y-71373994D01*
X71000000Y-71373994D01*
X71000000Y-64374000D01*
X77997515Y-64374000D01*
X78017437Y-64703359D01*
X78076918Y-65027934D01*
X78175075Y-65342935D01*
X78175081Y-65342950D01*
X78310502Y-65643844D01*
X78310504Y-65643846D01*
X78481214Y-65926236D01*
X78631889Y-66118556D01*
X79518078Y-65232366D01*
X79597305Y-65341413D01*
X79762587Y-65506695D01*
X79871631Y-65585920D01*
X78985442Y-66472109D01*
X78985442Y-66472110D01*
X79177763Y-66622785D01*
X79460153Y-66793495D01*
X79460155Y-66793497D01*
X79761049Y-66928918D01*
X79761064Y-66928924D01*
X80076065Y-67027081D01*
X80400640Y-67086562D01*
X80730000Y-67106484D01*
X81059359Y-67086562D01*
X81383934Y-67027081D01*
X81698935Y-66928924D01*
X81698950Y-66928918D01*
X81999844Y-66793497D01*
X81999846Y-66793495D01*
X82282226Y-66622791D01*
X82282234Y-66622785D01*
X82474556Y-66472110D01*
X82474556Y-66472109D01*
X81588367Y-65585920D01*
X81697413Y-65506695D01*
X81862695Y-65341413D01*
X81941920Y-65232367D01*
X82828109Y-66118556D01*
X82828110Y-66118556D01*
X82978785Y-65926234D01*
X82978791Y-65926226D01*
X83149495Y-65643846D01*
X83149497Y-65643844D01*
X83284918Y-65342950D01*
X83284924Y-65342935D01*
X83383081Y-65027934D01*
X83442562Y-64703359D01*
X83462484Y-64374000D01*
X86797515Y-64374000D01*
X86817437Y-64703359D01*
X86876918Y-65027934D01*
X86975075Y-65342935D01*
X86975081Y-65342950D01*
X87110502Y-65643844D01*
X87110504Y-65643846D01*
X87281214Y-65926236D01*
X87431889Y-66118556D01*
X88318078Y-65232366D01*
X88397305Y-65341413D01*
X88562587Y-65506695D01*
X88671631Y-65585920D01*
X87785442Y-66472109D01*
X87785442Y-66472110D01*
X87977763Y-66622785D01*
X88260153Y-66793495D01*
X88260155Y-66793497D01*
X88561049Y-66928918D01*
X88561064Y-66928924D01*
X88876065Y-67027081D01*
X89200640Y-67086562D01*
X89530000Y-67106484D01*
X89859359Y-67086562D01*
X90183934Y-67027081D01*
X90498935Y-66928924D01*
X90498950Y-66928918D01*
X90799844Y-66793497D01*
X90799846Y-66793495D01*
X91082226Y-66622791D01*
X91082234Y-66622785D01*
X91274556Y-66472110D01*
X91274556Y-66472109D01*
X90388367Y-65585920D01*
X90497413Y-65506695D01*
X90662695Y-65341413D01*
X90741920Y-65232367D01*
X91628109Y-66118556D01*
X91628110Y-66118556D01*
X91778785Y-65926234D01*
X91778791Y-65926226D01*
X91949495Y-65643846D01*
X91949497Y-65643844D01*
X92084918Y-65342950D01*
X92084924Y-65342935D01*
X92183081Y-65027934D01*
X92242562Y-64703358D01*
X92254820Y-64500705D01*
X92278516Y-64434976D01*
X92333986Y-64392492D01*
X92403619Y-64386742D01*
X92465306Y-64419552D01*
X92466275Y-64420510D01*
X92711058Y-64665293D01*
X92744543Y-64726616D01*
X92743152Y-64785067D01*
X92717366Y-64881302D01*
X92717364Y-64881313D01*
X92697532Y-65107998D01*
X92697532Y-65108000D01*
X92717364Y-65334686D01*
X92717366Y-65334697D01*
X92776258Y-65554488D01*
X92776261Y-65554497D01*
X92872431Y-65760732D01*
X92872432Y-65760734D01*
X93002954Y-65947141D01*
X93163858Y-66108045D01*
X93203365Y-66135708D01*
X93350266Y-66238568D01*
X93556504Y-66334739D01*
X93776308Y-66393635D01*
X93938230Y-66407801D01*
X94002998Y-66413468D01*
X94003000Y-66413468D01*
X94003002Y-66413468D01*
X94059673Y-66408509D01*
X94229692Y-66393635D01*
X94449496Y-66334739D01*
X94655734Y-66238568D01*
X94842139Y-66108047D01*
X95003047Y-65947139D01*
X95133568Y-65760734D01*
X95140893Y-65745024D01*
X95187064Y-65692586D01*
X95254257Y-65673433D01*
X95321138Y-65693648D01*
X95365657Y-65745024D01*
X95372864Y-65760480D01*
X95423974Y-65833472D01*
X96103000Y-65154446D01*
X96103000Y-65160661D01*
X96130259Y-65262394D01*
X96182920Y-65353606D01*
X96257394Y-65428080D01*
X96348606Y-65480741D01*
X96450339Y-65508000D01*
X96456553Y-65508000D01*
X95777526Y-66187025D01*
X95850513Y-66238132D01*
X95850521Y-66238136D01*
X96056668Y-66334264D01*
X96056682Y-66334269D01*
X96276391Y-66393139D01*
X96285337Y-66393922D01*
X96350407Y-66419371D01*
X96391389Y-66475959D01*
X96395271Y-66545721D01*
X96379531Y-66583423D01*
X96302211Y-66706476D01*
X96242631Y-66876745D01*
X96242630Y-66876750D01*
X96222435Y-67055996D01*
X96222435Y-67056003D01*
X96242630Y-67235249D01*
X96242631Y-67235254D01*
X96302211Y-67405523D01*
X96349335Y-67480520D01*
X96398184Y-67558262D01*
X96525738Y-67685816D01*
X96678478Y-67781789D01*
X96746426Y-67805565D01*
X96848745Y-67841368D01*
X96848750Y-67841369D01*
X97027996Y-67861565D01*
X97028000Y-67861565D01*
X97028004Y-67861565D01*
X97207249Y-67841369D01*
X97207252Y-67841368D01*
X97207255Y-67841368D01*
X97377522Y-67781789D01*
X97530262Y-67685816D01*
X97530267Y-67685810D01*
X97533097Y-67683555D01*
X97535275Y-67682665D01*
X97536158Y-67682111D01*
X97536255Y-67682265D01*
X97597783Y-67657145D01*
X97610412Y-67656500D01*
X104954588Y-67656500D01*
X105021627Y-67676185D01*
X105031903Y-67683555D01*
X105034736Y-67685814D01*
X105034738Y-67685816D01*
X105187478Y-67781789D01*
X105255426Y-67805565D01*
X105357745Y-67841368D01*
X105357750Y-67841369D01*
X105536996Y-67861565D01*
X105537000Y-67861565D01*
X105537004Y-67861565D01*
X105716249Y-67841369D01*
X105716252Y-67841368D01*
X105716255Y-67841368D01*
X105886522Y-67781789D01*
X106039262Y-67685816D01*
X106166816Y-67558262D01*
X106262789Y-67405522D01*
X106322368Y-67235255D01*
X106328678Y-67179254D01*
X106342565Y-67056003D01*
X106342565Y-67055996D01*
X106322369Y-66876750D01*
X106322368Y-66876745D01*
X106262789Y-66706478D01*
X106166816Y-66553738D01*
X106039262Y-66426184D01*
X105996795Y-66399500D01*
X105886523Y-66330211D01*
X105716254Y-66270631D01*
X105716249Y-66270630D01*
X105537004Y-66250435D01*
X105536996Y-66250435D01*
X105357750Y-66270630D01*
X105357745Y-66270631D01*
X105187476Y-66330211D01*
X105034736Y-66426185D01*
X105031903Y-66428445D01*
X105029724Y-66429334D01*
X105028842Y-66429889D01*
X105028744Y-66429734D01*
X104967217Y-66454855D01*
X104954588Y-66455500D01*
X97610412Y-66455500D01*
X97543373Y-66435815D01*
X97533097Y-66428445D01*
X97530263Y-66426185D01*
X97530262Y-66426184D01*
X97425903Y-66360611D01*
X97377521Y-66330210D01*
X97311718Y-66307185D01*
X97254942Y-66266463D01*
X97229194Y-66201510D01*
X97229162Y-66187715D01*
X96549447Y-65508000D01*
X96555661Y-65508000D01*
X96657394Y-65480741D01*
X96748606Y-65428080D01*
X96823080Y-65353606D01*
X96875741Y-65262394D01*
X96903000Y-65160661D01*
X96903000Y-65154447D01*
X97582024Y-65833471D01*
X97633136Y-65760478D01*
X97729264Y-65554331D01*
X97729269Y-65554317D01*
X97788139Y-65334610D01*
X97788141Y-65334599D01*
X97807966Y-65108000D01*
X97807966Y-65107997D01*
X97788141Y-64881400D01*
X97788139Y-64881389D01*
X97729269Y-64661682D01*
X97729265Y-64661673D01*
X97633133Y-64455517D01*
X97518724Y-64292124D01*
X97496397Y-64225918D01*
X97513407Y-64158150D01*
X97564355Y-64110337D01*
X97620299Y-64097000D01*
X98689191Y-64097000D01*
X98756230Y-64116685D01*
X98776872Y-64133319D01*
X99288054Y-64644500D01*
X99264038Y-64644500D01*
X99167518Y-64670362D01*
X99080981Y-64720324D01*
X99010324Y-64790981D01*
X98960362Y-64877518D01*
X98934500Y-64974038D01*
X98934500Y-64998052D01*
X98391417Y-64454969D01*
X98303085Y-64632363D01*
X98303085Y-64632365D01*
X98248333Y-64824793D01*
X98229875Y-65023999D01*
X98229875Y-65024000D01*
X98248333Y-65223206D01*
X98303083Y-65415628D01*
X98303088Y-65415641D01*
X98391417Y-65593029D01*
X98934500Y-65049946D01*
X98934500Y-65073962D01*
X98960362Y-65170482D01*
X99010324Y-65257019D01*
X99080981Y-65327676D01*
X99167518Y-65377638D01*
X99264038Y-65403500D01*
X99288053Y-65403500D01*
X98748202Y-65943348D01*
X98830763Y-65994468D01*
X98830764Y-65994469D01*
X99017312Y-66066737D01*
X99213972Y-66103500D01*
X99414028Y-66103500D01*
X99610687Y-66066737D01*
X99797235Y-65994469D01*
X99797239Y-65994467D01*
X99879795Y-65943349D01*
X99879795Y-65943348D01*
X99339948Y-65403500D01*
X99363962Y-65403500D01*
X99460482Y-65377638D01*
X99547019Y-65327676D01*
X99617676Y-65257019D01*
X99667638Y-65170482D01*
X99693500Y-65073962D01*
X99693500Y-65049947D01*
X100236582Y-65593029D01*
X100324915Y-65415634D01*
X100379666Y-65223206D01*
X100398125Y-65024000D01*
X100398125Y-65023999D01*
X100379666Y-64824793D01*
X100324916Y-64632371D01*
X100324911Y-64632358D01*
X100236581Y-64454969D01*
X99693500Y-64998051D01*
X99693500Y-64974038D01*
X99667638Y-64877518D01*
X99617676Y-64790981D01*
X99547019Y-64720324D01*
X99460482Y-64670362D01*
X99363962Y-64644500D01*
X99339947Y-64644500D01*
X99851127Y-64133319D01*
X99912450Y-64099834D01*
X99938808Y-64097000D01*
X106221658Y-64097000D01*
X106288697Y-64116685D01*
X106334452Y-64169489D01*
X106344396Y-64238647D01*
X106320612Y-64295727D01*
X106201833Y-64453014D01*
X106201828Y-64453022D01*
X106112616Y-64632184D01*
X106092365Y-64703359D01*
X106069118Y-64785067D01*
X106057840Y-64824704D01*
X106039373Y-65023999D01*
X106039373Y-65024000D01*
X106057840Y-65223295D01*
X106057840Y-65223297D01*
X106057841Y-65223300D01*
X106112566Y-65415641D01*
X106112616Y-65415815D01*
X106201828Y-65594977D01*
X106201833Y-65594985D01*
X106322452Y-65754710D01*
X106470365Y-65889550D01*
X106470367Y-65889552D01*
X106640536Y-65994916D01*
X106640542Y-65994919D01*
X106680080Y-66010236D01*
X106827178Y-66067222D01*
X107023923Y-66104000D01*
X107023925Y-66104000D01*
X107224075Y-66104000D01*
X107224077Y-66104000D01*
X107420822Y-66067222D01*
X107607460Y-65994918D01*
X107777634Y-65889551D01*
X107925549Y-65754708D01*
X107986669Y-65673773D01*
X108042779Y-65632137D01*
X108085623Y-65624500D01*
X108370908Y-65624500D01*
X108437947Y-65644185D01*
X108483289Y-65696093D01*
X108513432Y-65760734D01*
X108513433Y-65760735D01*
X108643954Y-65947141D01*
X108804858Y-66108045D01*
X108844365Y-66135708D01*
X108991266Y-66238568D01*
X109197504Y-66334739D01*
X109417308Y-66393635D01*
X109579230Y-66407801D01*
X109643998Y-66413468D01*
X109644000Y-66413468D01*
X109644002Y-66413468D01*
X109700673Y-66408509D01*
X109870692Y-66393635D01*
X110090496Y-66334739D01*
X110296734Y-66238568D01*
X110483139Y-66108047D01*
X110644047Y-65947139D01*
X110774568Y-65760734D01*
X110781893Y-65745024D01*
X110828064Y-65692586D01*
X110895257Y-65673433D01*
X110962138Y-65693648D01*
X111006657Y-65745024D01*
X111013864Y-65760480D01*
X111064974Y-65833472D01*
X111744000Y-65154446D01*
X111744000Y-65160661D01*
X111771259Y-65262394D01*
X111823920Y-65353606D01*
X111898394Y-65428080D01*
X111989606Y-65480741D01*
X112091339Y-65508000D01*
X112097553Y-65508000D01*
X111418526Y-66187025D01*
X111491513Y-66238132D01*
X111491521Y-66238136D01*
X111697668Y-66334264D01*
X111697682Y-66334269D01*
X111917389Y-66393139D01*
X111917400Y-66393141D01*
X112143998Y-66412966D01*
X112144002Y-66412966D01*
X112370599Y-66393141D01*
X112370610Y-66393139D01*
X112590317Y-66334269D01*
X112590331Y-66334264D01*
X112796478Y-66238136D01*
X112869471Y-66187024D01*
X112190447Y-65508000D01*
X112196661Y-65508000D01*
X112298394Y-65480741D01*
X112389606Y-65428080D01*
X112464080Y-65353606D01*
X112516741Y-65262394D01*
X112544000Y-65160661D01*
X112544000Y-65154447D01*
X113223024Y-65833471D01*
X113274136Y-65760478D01*
X113370264Y-65554331D01*
X113370269Y-65554317D01*
X113429139Y-65334610D01*
X113429141Y-65334599D01*
X113448966Y-65108000D01*
X113448966Y-65107997D01*
X113429141Y-64881400D01*
X113429139Y-64881389D01*
X113370269Y-64661682D01*
X113370265Y-64661673D01*
X113274133Y-64455517D01*
X113159724Y-64292124D01*
X113137397Y-64225918D01*
X113154407Y-64158150D01*
X113205355Y-64110337D01*
X113261299Y-64097000D01*
X118253205Y-64097000D01*
X118320244Y-64116685D01*
X118365999Y-64169489D01*
X118375943Y-64238647D01*
X118346918Y-64302203D01*
X118296538Y-64337182D01*
X118177171Y-64381702D01*
X118177164Y-64381706D01*
X118061955Y-64467952D01*
X118061952Y-64467955D01*
X117975706Y-64583164D01*
X117975702Y-64583171D01*
X117925408Y-64718017D01*
X117919001Y-64777616D01*
X117919000Y-64777635D01*
X117919000Y-66032370D01*
X117919001Y-66032376D01*
X117926238Y-66099696D01*
X117923659Y-66099973D01*
X117920591Y-66157195D01*
X117879725Y-66213867D01*
X117814706Y-66239448D01*
X117762701Y-66232983D01*
X117710257Y-66214632D01*
X117710249Y-66214630D01*
X117531004Y-66194435D01*
X117530996Y-66194435D01*
X117351750Y-66214630D01*
X117351745Y-66214631D01*
X117181476Y-66274211D01*
X117028737Y-66370184D01*
X116901184Y-66497737D01*
X116805211Y-66650476D01*
X116745631Y-66820745D01*
X116745630Y-66820750D01*
X116725435Y-66999996D01*
X116725435Y-67000003D01*
X116745630Y-67179249D01*
X116745631Y-67179254D01*
X116805211Y-67349523D01*
X116901184Y-67502262D01*
X117028738Y-67629816D01*
X117181478Y-67725789D01*
X117341514Y-67781788D01*
X117351745Y-67785368D01*
X117351750Y-67785369D01*
X117530996Y-67805565D01*
X117531000Y-67805565D01*
X117531004Y-67805565D01*
X117710249Y-67785369D01*
X117710252Y-67785368D01*
X117710255Y-67785368D01*
X117880522Y-67725789D01*
X118033262Y-67629816D01*
X118033267Y-67629810D01*
X118036097Y-67627555D01*
X118038275Y-67626665D01*
X118039158Y-67626111D01*
X118039255Y-67626265D01*
X118100783Y-67601145D01*
X118113412Y-67600500D01*
X124913331Y-67600500D01*
X124913347Y-67600501D01*
X124920943Y-67600501D01*
X125079054Y-67600501D01*
X125079057Y-67600501D01*
X125231785Y-67559577D01*
X125281904Y-67530639D01*
X125368716Y-67480520D01*
X125480520Y-67368716D01*
X125480521Y-67368714D01*
X125829520Y-67019716D01*
X125908577Y-66882784D01*
X125949501Y-66730057D01*
X125949501Y-66571942D01*
X125949501Y-66564347D01*
X125949500Y-66564329D01*
X125949500Y-66483349D01*
X125969185Y-66416310D01*
X126021989Y-66370555D01*
X126091147Y-66360611D01*
X126129772Y-66374653D01*
X126130414Y-66373365D01*
X126135542Y-66375919D01*
X126145599Y-66379815D01*
X126322178Y-66448222D01*
X126518923Y-66485000D01*
X126518925Y-66485000D01*
X126719075Y-66485000D01*
X126719077Y-66485000D01*
X126915822Y-66448222D01*
X127102460Y-66375918D01*
X127272634Y-66270551D01*
X127420549Y-66135708D01*
X127541168Y-65975983D01*
X127630385Y-65796812D01*
X127685159Y-65604300D01*
X127703627Y-65405000D01*
X127685159Y-65205700D01*
X127630385Y-65013188D01*
X127586070Y-64924192D01*
X127541171Y-64834022D01*
X127541166Y-64834014D01*
X127514896Y-64799227D01*
X127490204Y-64733865D01*
X127504769Y-64665531D01*
X127553967Y-64615918D01*
X127613850Y-64600500D01*
X128164150Y-64600500D01*
X128231189Y-64620185D01*
X128276944Y-64672989D01*
X128286888Y-64742147D01*
X128263104Y-64799227D01*
X128236833Y-64834014D01*
X128236828Y-64834022D01*
X128147616Y-65013184D01*
X128092840Y-65205704D01*
X128074373Y-65404999D01*
X128074373Y-65405000D01*
X128092840Y-65604295D01*
X128092840Y-65604297D01*
X128092841Y-65604300D01*
X128137350Y-65760734D01*
X128147616Y-65796815D01*
X128236828Y-65975977D01*
X128236833Y-65975985D01*
X128357452Y-66135710D01*
X128505365Y-66270550D01*
X128505367Y-66270552D01*
X128675536Y-66375916D01*
X128675542Y-66375919D01*
X128685599Y-66379815D01*
X128862178Y-66448222D01*
X129058923Y-66485000D01*
X129058925Y-66485000D01*
X129259075Y-66485000D01*
X129259077Y-66485000D01*
X129455822Y-66448222D01*
X129642460Y-66375918D01*
X129812634Y-66270551D01*
X129960549Y-66135708D01*
X130081168Y-65975983D01*
X130170385Y-65796812D01*
X130225159Y-65604300D01*
X130243627Y-65405000D01*
X130225159Y-65205700D01*
X130186687Y-65070483D01*
X130187274Y-65000617D01*
X130225540Y-64942158D01*
X130289338Y-64913668D01*
X130358410Y-64924192D01*
X130393634Y-64948869D01*
X130593174Y-65148409D01*
X130626659Y-65209732D01*
X130628964Y-65247531D01*
X130614373Y-65404998D01*
X130614373Y-65405000D01*
X130632840Y-65604295D01*
X130632840Y-65604297D01*
X130632841Y-65604300D01*
X130677350Y-65760734D01*
X130687616Y-65796815D01*
X130776828Y-65975977D01*
X130776833Y-65975985D01*
X130897452Y-66135710D01*
X131045365Y-66270550D01*
X131045367Y-66270552D01*
X131215536Y-66375916D01*
X131215542Y-66375919D01*
X131225599Y-66379815D01*
X131402178Y-66448222D01*
X131598923Y-66485000D01*
X131598925Y-66485000D01*
X131799075Y-66485000D01*
X131799077Y-66485000D01*
X131995822Y-66448222D01*
X132182460Y-66375918D01*
X132352634Y-66270551D01*
X132500549Y-66135708D01*
X132621168Y-65975983D01*
X132710385Y-65796812D01*
X132765159Y-65604300D01*
X132783627Y-65405000D01*
X132765159Y-65205700D01*
X132710385Y-65013188D01*
X132666070Y-64924192D01*
X132621171Y-64834022D01*
X132621166Y-64834014D01*
X132500547Y-64674289D01*
X132352634Y-64539449D01*
X132352632Y-64539447D01*
X132182463Y-64434083D01*
X132182457Y-64434080D01*
X132035362Y-64377096D01*
X131995822Y-64361778D01*
X131799077Y-64325000D01*
X131598923Y-64325000D01*
X131598921Y-64325000D01*
X131553063Y-64333572D01*
X131483548Y-64326540D01*
X131442599Y-64299364D01*
X130781590Y-63638355D01*
X130781588Y-63638352D01*
X130662717Y-63519481D01*
X130662716Y-63519480D01*
X130575904Y-63469360D01*
X130575904Y-63469359D01*
X130575900Y-63469358D01*
X130525785Y-63440423D01*
X130373057Y-63399499D01*
X130214943Y-63399499D01*
X130207347Y-63399499D01*
X130207331Y-63399500D01*
X126086669Y-63399500D01*
X126086653Y-63399499D01*
X126079057Y-63399499D01*
X125920943Y-63399499D01*
X125813587Y-63428265D01*
X125768210Y-63440424D01*
X125768209Y-63440425D01*
X125718096Y-63469359D01*
X125718095Y-63469360D01*
X125674689Y-63494420D01*
X125631285Y-63519479D01*
X125631282Y-63519481D01*
X124868481Y-64282282D01*
X124868477Y-64282287D01*
X124843819Y-64324999D01*
X124843818Y-64325001D01*
X124792291Y-64414248D01*
X124787271Y-64422943D01*
X124736703Y-64471158D01*
X124668096Y-64484380D01*
X124614608Y-64466370D01*
X124562460Y-64434082D01*
X124562457Y-64434080D01*
X124415362Y-64377096D01*
X124375822Y-64361778D01*
X124179077Y-64325000D01*
X123978923Y-64325000D01*
X123978921Y-64325000D01*
X123933063Y-64333572D01*
X123863548Y-64326540D01*
X123822599Y-64299364D01*
X121753716Y-62230481D01*
X121720231Y-62169158D01*
X121725215Y-62099466D01*
X121767087Y-62043533D01*
X121832551Y-62019116D01*
X121841397Y-62018800D01*
X132491918Y-62018800D01*
X132558957Y-62038485D01*
X132579594Y-62055113D01*
X134692472Y-64167832D01*
X134725959Y-64229154D01*
X134720977Y-64298846D01*
X134679108Y-64354781D01*
X134613645Y-64379201D01*
X134560002Y-64371144D01*
X134535829Y-64361780D01*
X134535825Y-64361779D01*
X134535822Y-64361778D01*
X134339077Y-64325000D01*
X134138923Y-64325000D01*
X133942178Y-64361778D01*
X133942175Y-64361778D01*
X133942175Y-64361779D01*
X133755542Y-64434080D01*
X133755536Y-64434083D01*
X133585367Y-64539447D01*
X133585365Y-64539449D01*
X133437452Y-64674289D01*
X133316833Y-64834014D01*
X133316828Y-64834022D01*
X133227616Y-65013184D01*
X133172840Y-65205704D01*
X133154373Y-65404999D01*
X133154373Y-65405000D01*
X133172840Y-65604295D01*
X133172840Y-65604297D01*
X133172841Y-65604300D01*
X133217350Y-65760734D01*
X133227616Y-65796815D01*
X133316828Y-65975977D01*
X133316833Y-65975985D01*
X133437452Y-66135710D01*
X133585365Y-66270550D01*
X133585367Y-66270552D01*
X133755536Y-66375916D01*
X133755542Y-66375919D01*
X133765599Y-66379815D01*
X133942178Y-66448222D01*
X134138923Y-66485000D01*
X134138925Y-66485000D01*
X134339075Y-66485000D01*
X134339077Y-66485000D01*
X134535822Y-66448222D01*
X134722460Y-66375918D01*
X134892634Y-66270551D01*
X135040549Y-66135708D01*
X135161168Y-65975983D01*
X135250385Y-65796812D01*
X135305159Y-65604300D01*
X135323627Y-65405000D01*
X135305159Y-65205700D01*
X135266714Y-65070578D01*
X135267301Y-65000711D01*
X135305568Y-64942252D01*
X135369365Y-64913762D01*
X135438437Y-64924286D01*
X135473656Y-64948958D01*
X135551479Y-65026774D01*
X135673167Y-65148453D01*
X135706654Y-65209775D01*
X135708960Y-65247579D01*
X135694373Y-65404999D01*
X135694373Y-65405000D01*
X135712840Y-65604295D01*
X135712840Y-65604297D01*
X135712841Y-65604300D01*
X135757350Y-65760734D01*
X135767616Y-65796815D01*
X135856828Y-65975977D01*
X135856833Y-65975985D01*
X135977452Y-66135710D01*
X136125365Y-66270550D01*
X136125367Y-66270552D01*
X136295536Y-66375916D01*
X136295542Y-66375919D01*
X136305599Y-66379815D01*
X136482178Y-66448222D01*
X136678923Y-66485000D01*
X136678925Y-66485000D01*
X136879075Y-66485000D01*
X136879077Y-66485000D01*
X137075822Y-66448222D01*
X137262460Y-66375918D01*
X137432634Y-66270551D01*
X137580549Y-66135708D01*
X137701168Y-65975983D01*
X137790385Y-65796812D01*
X137845159Y-65604300D01*
X137863627Y-65405000D01*
X137863627Y-65404999D01*
X138234373Y-65404999D01*
X138234373Y-65405000D01*
X138252840Y-65604295D01*
X138252840Y-65604297D01*
X138252841Y-65604300D01*
X138297350Y-65760734D01*
X138307616Y-65796815D01*
X138396828Y-65975977D01*
X138396833Y-65975985D01*
X138517452Y-66135710D01*
X138665365Y-66270550D01*
X138665367Y-66270552D01*
X138835536Y-66375916D01*
X138835542Y-66375919D01*
X138845599Y-66379815D01*
X139022178Y-66448222D01*
X139218923Y-66485000D01*
X139218925Y-66485000D01*
X139419075Y-66485000D01*
X139419077Y-66485000D01*
X139615822Y-66448222D01*
X139802460Y-66375918D01*
X139972634Y-66270551D01*
X140120549Y-66135708D01*
X140241168Y-65975983D01*
X140330385Y-65796812D01*
X140385159Y-65604300D01*
X140403627Y-65405000D01*
X140403627Y-65404999D01*
X140774373Y-65404999D01*
X140774373Y-65405000D01*
X140792840Y-65604295D01*
X140792840Y-65604297D01*
X140792841Y-65604300D01*
X140837350Y-65760734D01*
X140847616Y-65796815D01*
X140936828Y-65975977D01*
X140936833Y-65975985D01*
X141057452Y-66135710D01*
X141205365Y-66270550D01*
X141205367Y-66270552D01*
X141375536Y-66375916D01*
X141375542Y-66375919D01*
X141385599Y-66379815D01*
X141562178Y-66448222D01*
X141758923Y-66485000D01*
X141758925Y-66485000D01*
X141959075Y-66485000D01*
X141959077Y-66485000D01*
X142155822Y-66448222D01*
X142342460Y-66375918D01*
X142512634Y-66270551D01*
X142660549Y-66135708D01*
X142781168Y-65975983D01*
X142870385Y-65796812D01*
X142925159Y-65604300D01*
X142943627Y-65405000D01*
X142925159Y-65205700D01*
X142870385Y-65013188D01*
X142826070Y-64924192D01*
X142781171Y-64834022D01*
X142781166Y-64834014D01*
X142660547Y-64674289D01*
X142512634Y-64539449D01*
X142512632Y-64539447D01*
X142342463Y-64434083D01*
X142342457Y-64434080D01*
X142195362Y-64377096D01*
X142155822Y-64361778D01*
X141959077Y-64325000D01*
X141758923Y-64325000D01*
X141562178Y-64361778D01*
X141562175Y-64361778D01*
X141562175Y-64361779D01*
X141375542Y-64434080D01*
X141375536Y-64434083D01*
X141205367Y-64539447D01*
X141205365Y-64539449D01*
X141057452Y-64674289D01*
X140936833Y-64834014D01*
X140936828Y-64834022D01*
X140847616Y-65013184D01*
X140792840Y-65205704D01*
X140774373Y-65404999D01*
X140403627Y-65404999D01*
X140385159Y-65205700D01*
X140330385Y-65013188D01*
X140286070Y-64924192D01*
X140241171Y-64834022D01*
X140241166Y-64834014D01*
X140120547Y-64674289D01*
X139972634Y-64539449D01*
X139972632Y-64539447D01*
X139802463Y-64434083D01*
X139802457Y-64434080D01*
X139655362Y-64377096D01*
X139615822Y-64361778D01*
X139419077Y-64325000D01*
X139218923Y-64325000D01*
X139022178Y-64361778D01*
X139022175Y-64361778D01*
X139022175Y-64361779D01*
X138835542Y-64434080D01*
X138835536Y-64434083D01*
X138665367Y-64539447D01*
X138665365Y-64539449D01*
X138517452Y-64674289D01*
X138396833Y-64834014D01*
X138396828Y-64834022D01*
X138307616Y-65013184D01*
X138252840Y-65205704D01*
X138234373Y-65404999D01*
X137863627Y-65404999D01*
X137845159Y-65205700D01*
X137790385Y-65013188D01*
X137746070Y-64924192D01*
X137701171Y-64834022D01*
X137701166Y-64834014D01*
X137580547Y-64674289D01*
X137432634Y-64539449D01*
X137432632Y-64539447D01*
X137262463Y-64434083D01*
X137262457Y-64434080D01*
X137115362Y-64377096D01*
X137075822Y-64361778D01*
X136879077Y-64325000D01*
X136678923Y-64325000D01*
X136678921Y-64325000D01*
X136633020Y-64333580D01*
X136563505Y-64326548D01*
X136522560Y-64299377D01*
X133904984Y-61681997D01*
X155794034Y-61681997D01*
X155794034Y-61682002D01*
X155813858Y-61908599D01*
X155813860Y-61908610D01*
X155872730Y-62128317D01*
X155872735Y-62128331D01*
X155968863Y-62334478D01*
X156019974Y-62407472D01*
X156699000Y-61728446D01*
X156699000Y-61734661D01*
X156726259Y-61836394D01*
X156778920Y-61927606D01*
X156853394Y-62002080D01*
X156944606Y-62054741D01*
X157046339Y-62082000D01*
X157052553Y-62082000D01*
X156373526Y-62761025D01*
X156446513Y-62812132D01*
X156446521Y-62812136D01*
X156652668Y-62908264D01*
X156652682Y-62908269D01*
X156872389Y-62967139D01*
X156872400Y-62967141D01*
X157098998Y-62986966D01*
X157099002Y-62986966D01*
X157325599Y-62967141D01*
X157325610Y-62967139D01*
X157545317Y-62908269D01*
X157545331Y-62908264D01*
X157751478Y-62812136D01*
X157824471Y-62761024D01*
X157145447Y-62082000D01*
X157151661Y-62082000D01*
X157253394Y-62054741D01*
X157344606Y-62002080D01*
X157419080Y-61927606D01*
X157471741Y-61836394D01*
X157499000Y-61734661D01*
X157499000Y-61728447D01*
X158178024Y-62407471D01*
X158229136Y-62334478D01*
X158325264Y-62128331D01*
X158325269Y-62128317D01*
X158384139Y-61908610D01*
X158384141Y-61908599D01*
X158403966Y-61682002D01*
X158403966Y-61681997D01*
X158384141Y-61455400D01*
X158384139Y-61455389D01*
X158325269Y-61235682D01*
X158325264Y-61235668D01*
X158229136Y-61029521D01*
X158229132Y-61029513D01*
X158178025Y-60956526D01*
X157499000Y-61635551D01*
X157499000Y-61629339D01*
X157471741Y-61527606D01*
X157419080Y-61436394D01*
X157344606Y-61361920D01*
X157253394Y-61309259D01*
X157151661Y-61282000D01*
X157145445Y-61282000D01*
X157829646Y-60597800D01*
X157839492Y-60548807D01*
X157888107Y-60498624D01*
X157943633Y-60483981D01*
X157943576Y-60482900D01*
X157943571Y-60482854D01*
X157943573Y-60482853D01*
X157943564Y-60482676D01*
X157946857Y-60482499D01*
X157946872Y-60482499D01*
X158006483Y-60476091D01*
X158141331Y-60425796D01*
X158256546Y-60339546D01*
X158342796Y-60224331D01*
X158393091Y-60089483D01*
X158396342Y-60059242D01*
X158423079Y-59994694D01*
X158480471Y-59954846D01*
X158519631Y-59948500D01*
X161742701Y-59948500D01*
X161809740Y-59968185D01*
X161855495Y-60020989D01*
X161866701Y-60072500D01*
X161866701Y-60145876D01*
X161873108Y-60205483D01*
X161923402Y-60340328D01*
X161923406Y-60340335D01*
X162009652Y-60455544D01*
X162009655Y-60455547D01*
X162124864Y-60541793D01*
X162124871Y-60541797D01*
X162159914Y-60554867D01*
X162256798Y-60591002D01*
X162312731Y-60632873D01*
X162337149Y-60698337D01*
X162322298Y-60766610D01*
X162301147Y-60794865D01*
X162179086Y-60916926D01*
X162043600Y-61110420D01*
X162043599Y-61110422D01*
X161943770Y-61324507D01*
X161943767Y-61324513D01*
X161886564Y-61537999D01*
X161886564Y-61538000D01*
X162784188Y-61538000D01*
X162751275Y-61595007D01*
X162717200Y-61722174D01*
X162717200Y-61853826D01*
X162751275Y-61980993D01*
X162784188Y-62038000D01*
X161886564Y-62038000D01*
X161943767Y-62251486D01*
X161943770Y-62251492D01*
X162043599Y-62465578D01*
X162179094Y-62659082D01*
X162346117Y-62826105D01*
X162539621Y-62961600D01*
X162753707Y-63061429D01*
X162753716Y-63061433D01*
X162967200Y-63118634D01*
X162967200Y-62221012D01*
X163024207Y-62253925D01*
X163151374Y-62288000D01*
X163283026Y-62288000D01*
X163410193Y-62253925D01*
X163467200Y-62221012D01*
X163467200Y-63118633D01*
X163680683Y-63061433D01*
X163680692Y-63061429D01*
X163894778Y-62961600D01*
X164088282Y-62826105D01*
X164255305Y-62659082D01*
X164390800Y-62465578D01*
X164490629Y-62251492D01*
X164490632Y-62251486D01*
X164547836Y-62038000D01*
X163650212Y-62038000D01*
X163683125Y-61980993D01*
X163717200Y-61853826D01*
X163717200Y-61722174D01*
X163683125Y-61595007D01*
X163650212Y-61538000D01*
X164547836Y-61538000D01*
X164547835Y-61537999D01*
X164490632Y-61324513D01*
X164490629Y-61324507D01*
X164390800Y-61110422D01*
X164390799Y-61110420D01*
X164255313Y-60916926D01*
X164255308Y-60916920D01*
X164133253Y-60794865D01*
X164099768Y-60733542D01*
X164104752Y-60663850D01*
X164146624Y-60607917D01*
X164177600Y-60591002D01*
X164274486Y-60554867D01*
X164309526Y-60541798D01*
X164309526Y-60541797D01*
X164309531Y-60541796D01*
X164424746Y-60455546D01*
X164510996Y-60340331D01*
X164561291Y-60205483D01*
X164567700Y-60145873D01*
X164567699Y-58350128D01*
X164561291Y-58290517D01*
X164555323Y-58274517D01*
X164510997Y-58155671D01*
X164510993Y-58155664D01*
X164424747Y-58040455D01*
X164424744Y-58040452D01*
X164309535Y-57954206D01*
X164309528Y-57954202D01*
X164174682Y-57903908D01*
X164174683Y-57903908D01*
X164115083Y-57897501D01*
X164115081Y-57897500D01*
X164115073Y-57897500D01*
X164115064Y-57897500D01*
X162319329Y-57897500D01*
X162319323Y-57897501D01*
X162259716Y-57903908D01*
X162124871Y-57954202D01*
X162124864Y-57954206D01*
X162009655Y-58040452D01*
X162009652Y-58040455D01*
X161923406Y-58155664D01*
X161923402Y-58155671D01*
X161873108Y-58290517D01*
X161867676Y-58341046D01*
X161866701Y-58350123D01*
X161866700Y-58350135D01*
X161866700Y-58423500D01*
X161847015Y-58490539D01*
X161794211Y-58536294D01*
X161742700Y-58547500D01*
X158523499Y-58547500D01*
X158456460Y-58527815D01*
X158410705Y-58475011D01*
X158399499Y-58423500D01*
X158399499Y-58334129D01*
X158399498Y-58334123D01*
X158399497Y-58334116D01*
X158393091Y-58274517D01*
X158391239Y-58269552D01*
X158342797Y-58139671D01*
X158342793Y-58139664D01*
X158256547Y-58024455D01*
X158256544Y-58024452D01*
X158141335Y-57938206D01*
X158141328Y-57938202D01*
X158006482Y-57887908D01*
X158006483Y-57887908D01*
X157946883Y-57881501D01*
X157946881Y-57881500D01*
X157946873Y-57881500D01*
X157946864Y-57881500D01*
X156251129Y-57881500D01*
X156251123Y-57881501D01*
X156191516Y-57887908D01*
X156056671Y-57938202D01*
X156056664Y-57938206D01*
X155941455Y-58024452D01*
X155941452Y-58024455D01*
X155855206Y-58139664D01*
X155855202Y-58139671D01*
X155804908Y-58274517D01*
X155798669Y-58332551D01*
X155798501Y-58334123D01*
X155798500Y-58334135D01*
X155798500Y-60029870D01*
X155798501Y-60029876D01*
X155804908Y-60089483D01*
X155855202Y-60224328D01*
X155855206Y-60224335D01*
X155941452Y-60339544D01*
X155941455Y-60339547D01*
X156056664Y-60425793D01*
X156056671Y-60425797D01*
X156079276Y-60434228D01*
X156191517Y-60476091D01*
X156251127Y-60482500D01*
X156251153Y-60482499D01*
X156254453Y-60482678D01*
X156254372Y-60484183D01*
X156315672Y-60502112D01*
X156361483Y-60554867D01*
X156369016Y-60598464D01*
X157052553Y-61282000D01*
X157046339Y-61282000D01*
X156944606Y-61309259D01*
X156853394Y-61361920D01*
X156778920Y-61436394D01*
X156726259Y-61527606D01*
X156699000Y-61629339D01*
X156699000Y-61635552D01*
X156019974Y-60956526D01*
X156019973Y-60956526D01*
X155968868Y-61029512D01*
X155968866Y-61029516D01*
X155872734Y-61235673D01*
X155872730Y-61235682D01*
X155813860Y-61455389D01*
X155813858Y-61455400D01*
X155794034Y-61681997D01*
X133904984Y-61681997D01*
X133227237Y-61004301D01*
X133160716Y-60937780D01*
X133160715Y-60937779D01*
X133160711Y-60937775D01*
X133160706Y-60937771D01*
X133102677Y-60904272D01*
X133102672Y-60904269D01*
X133023775Y-60858717D01*
X132964356Y-60842798D01*
X132934837Y-60834889D01*
X132908953Y-60827953D01*
X132871051Y-60817798D01*
X132871036Y-60817796D01*
X132871035Y-60817796D01*
X132818330Y-60817798D01*
X132765624Y-60817800D01*
X110987896Y-60817800D01*
X110920857Y-60798115D01*
X110875102Y-60745311D01*
X110865158Y-60676153D01*
X110888942Y-60619073D01*
X110937428Y-60554867D01*
X111010058Y-60458689D01*
X111109229Y-60259528D01*
X111170115Y-60045536D01*
X111190643Y-59824000D01*
X111170115Y-59602464D01*
X111109229Y-59388472D01*
X111101536Y-59373022D01*
X111010061Y-59189316D01*
X111010056Y-59189308D01*
X110875979Y-59011761D01*
X110711562Y-58861876D01*
X110711560Y-58861874D01*
X110522404Y-58744754D01*
X110522395Y-58744750D01*
X110408171Y-58700500D01*
X110328475Y-58669625D01*
X110273075Y-58627054D01*
X110249484Y-58561288D01*
X110265195Y-58493207D01*
X110315219Y-58444428D01*
X110328466Y-58438377D01*
X110522401Y-58363247D01*
X110711562Y-58246124D01*
X110875981Y-58096236D01*
X111010058Y-57918689D01*
X111109229Y-57719528D01*
X111170115Y-57505536D01*
X111173686Y-57466999D01*
X117914875Y-57466999D01*
X117914875Y-57467000D01*
X117933333Y-57666206D01*
X117988083Y-57858628D01*
X117988088Y-57858641D01*
X118076417Y-58036029D01*
X118619500Y-57492946D01*
X118619500Y-57516962D01*
X118645362Y-57613482D01*
X118695324Y-57700019D01*
X118765981Y-57770676D01*
X118852518Y-57820638D01*
X118949038Y-57846500D01*
X118973053Y-57846500D01*
X118433202Y-58386348D01*
X118515763Y-58437468D01*
X118515764Y-58437469D01*
X118702312Y-58509737D01*
X118898972Y-58546500D01*
X119099028Y-58546500D01*
X119295687Y-58509737D01*
X119482235Y-58437469D01*
X119482239Y-58437467D01*
X119564795Y-58386349D01*
X119564795Y-58386348D01*
X119024948Y-57846500D01*
X119048962Y-57846500D01*
X119145482Y-57820638D01*
X119232019Y-57770676D01*
X119302676Y-57700019D01*
X119352638Y-57613482D01*
X119378500Y-57516962D01*
X119378500Y-57492947D01*
X119921582Y-58036029D01*
X120009915Y-57858634D01*
X120064666Y-57666206D01*
X120083125Y-57467000D01*
X120083125Y-57466999D01*
X120454373Y-57466999D01*
X120454373Y-57467000D01*
X120472840Y-57666295D01*
X120472840Y-57666297D01*
X120472841Y-57666300D01*
X120527566Y-57858641D01*
X120527616Y-57858815D01*
X120616828Y-58037977D01*
X120616833Y-58037985D01*
X120737452Y-58197710D01*
X120885365Y-58332550D01*
X120885367Y-58332552D01*
X121055536Y-58437916D01*
X121055542Y-58437919D01*
X121061557Y-58440249D01*
X121242178Y-58510222D01*
X121438923Y-58547000D01*
X121438925Y-58547000D01*
X121639075Y-58547000D01*
X121639077Y-58547000D01*
X121835822Y-58510222D01*
X122022460Y-58437918D01*
X122192634Y-58332551D01*
X122340549Y-58197708D01*
X122461168Y-58037983D01*
X122550385Y-57858812D01*
X122605159Y-57666300D01*
X122623627Y-57467000D01*
X122623627Y-57466999D01*
X122994373Y-57466999D01*
X122994373Y-57467000D01*
X123012840Y-57666295D01*
X123012840Y-57666297D01*
X123012841Y-57666300D01*
X123067566Y-57858641D01*
X123067616Y-57858815D01*
X123156828Y-58037977D01*
X123156833Y-58037985D01*
X123277452Y-58197710D01*
X123425365Y-58332550D01*
X123425367Y-58332552D01*
X123595536Y-58437916D01*
X123595542Y-58437919D01*
X123601557Y-58440249D01*
X123782178Y-58510222D01*
X123978923Y-58547000D01*
X123978925Y-58547000D01*
X124179075Y-58547000D01*
X124179077Y-58547000D01*
X124375822Y-58510222D01*
X124562460Y-58437918D01*
X124732634Y-58332551D01*
X124880549Y-58197708D01*
X125001168Y-58037983D01*
X125090385Y-57858812D01*
X125145159Y-57666300D01*
X125163627Y-57467000D01*
X125163627Y-57466999D01*
X125534373Y-57466999D01*
X125534373Y-57467000D01*
X125552840Y-57666295D01*
X125552840Y-57666297D01*
X125552841Y-57666300D01*
X125607566Y-57858641D01*
X125607616Y-57858815D01*
X125696828Y-58037977D01*
X125696833Y-58037985D01*
X125817452Y-58197710D01*
X125965365Y-58332550D01*
X125965367Y-58332552D01*
X126135536Y-58437916D01*
X126135542Y-58437919D01*
X126141557Y-58440249D01*
X126322178Y-58510222D01*
X126518923Y-58547000D01*
X126518925Y-58547000D01*
X126719075Y-58547000D01*
X126719077Y-58547000D01*
X126915822Y-58510222D01*
X127102460Y-58437918D01*
X127272634Y-58332551D01*
X127420549Y-58197708D01*
X127541168Y-58037983D01*
X127630385Y-57858812D01*
X127685159Y-57666300D01*
X127703627Y-57467000D01*
X127703627Y-57466999D01*
X128074373Y-57466999D01*
X128074373Y-57467000D01*
X128092840Y-57666295D01*
X128092840Y-57666297D01*
X128092841Y-57666300D01*
X128147566Y-57858641D01*
X128147616Y-57858815D01*
X128236828Y-58037977D01*
X128236833Y-58037985D01*
X128357452Y-58197710D01*
X128505365Y-58332550D01*
X128505367Y-58332552D01*
X128675536Y-58437916D01*
X128675542Y-58437919D01*
X128681557Y-58440249D01*
X128862178Y-58510222D01*
X129058923Y-58547000D01*
X129058925Y-58547000D01*
X129259075Y-58547000D01*
X129259077Y-58547000D01*
X129455822Y-58510222D01*
X129642460Y-58437918D01*
X129812634Y-58332551D01*
X129960549Y-58197708D01*
X130081168Y-58037983D01*
X130170385Y-57858812D01*
X130225159Y-57666300D01*
X130243627Y-57467000D01*
X130243627Y-57466999D01*
X130614373Y-57466999D01*
X130614373Y-57467000D01*
X130632840Y-57666295D01*
X130632840Y-57666297D01*
X130632841Y-57666300D01*
X130687566Y-57858641D01*
X130687616Y-57858815D01*
X130776828Y-58037977D01*
X130776833Y-58037985D01*
X130897452Y-58197710D01*
X131045365Y-58332550D01*
X131045367Y-58332552D01*
X131215536Y-58437916D01*
X131215542Y-58437919D01*
X131221557Y-58440249D01*
X131402178Y-58510222D01*
X131598923Y-58547000D01*
X131598925Y-58547000D01*
X131799075Y-58547000D01*
X131799077Y-58547000D01*
X131995822Y-58510222D01*
X132182460Y-58437918D01*
X132352634Y-58332551D01*
X132500549Y-58197708D01*
X132621168Y-58037983D01*
X132710385Y-57858812D01*
X132765159Y-57666300D01*
X132783627Y-57467000D01*
X132765159Y-57267700D01*
X132710385Y-57075188D01*
X132635835Y-56925472D01*
X132621171Y-56896022D01*
X132621166Y-56896014D01*
X132500547Y-56736289D01*
X132352634Y-56601449D01*
X132352632Y-56601447D01*
X132182463Y-56496083D01*
X132182457Y-56496080D01*
X132013620Y-56430673D01*
X131995822Y-56423778D01*
X131799077Y-56387000D01*
X131598923Y-56387000D01*
X131402178Y-56423778D01*
X131402175Y-56423778D01*
X131402175Y-56423779D01*
X131215542Y-56496080D01*
X131215536Y-56496083D01*
X131045367Y-56601447D01*
X131045365Y-56601449D01*
X130897452Y-56736289D01*
X130776833Y-56896014D01*
X130776828Y-56896022D01*
X130687616Y-57075184D01*
X130632840Y-57267704D01*
X130614373Y-57466999D01*
X130243627Y-57466999D01*
X130225159Y-57267700D01*
X130170385Y-57075188D01*
X130095835Y-56925472D01*
X130081171Y-56896022D01*
X130081166Y-56896014D01*
X129960547Y-56736289D01*
X129812634Y-56601449D01*
X129812632Y-56601447D01*
X129642463Y-56496083D01*
X129642457Y-56496080D01*
X129473620Y-56430673D01*
X129455822Y-56423778D01*
X129259077Y-56387000D01*
X129058923Y-56387000D01*
X128862178Y-56423778D01*
X128862175Y-56423778D01*
X128862175Y-56423779D01*
X128675542Y-56496080D01*
X128675536Y-56496083D01*
X128505367Y-56601447D01*
X128505365Y-56601449D01*
X128357452Y-56736289D01*
X128236833Y-56896014D01*
X128236828Y-56896022D01*
X128147616Y-57075184D01*
X128092840Y-57267704D01*
X128074373Y-57466999D01*
X127703627Y-57466999D01*
X127685159Y-57267700D01*
X127630385Y-57075188D01*
X127555835Y-56925472D01*
X127541171Y-56896022D01*
X127541166Y-56896014D01*
X127420547Y-56736289D01*
X127272634Y-56601449D01*
X127272632Y-56601447D01*
X127102463Y-56496083D01*
X127102457Y-56496080D01*
X126933620Y-56430673D01*
X126915822Y-56423778D01*
X126719077Y-56387000D01*
X126518923Y-56387000D01*
X126322178Y-56423778D01*
X126322175Y-56423778D01*
X126322175Y-56423779D01*
X126135542Y-56496080D01*
X126135536Y-56496083D01*
X125965367Y-56601447D01*
X125965365Y-56601449D01*
X125817452Y-56736289D01*
X125696833Y-56896014D01*
X125696828Y-56896022D01*
X125607616Y-57075184D01*
X125552840Y-57267704D01*
X125534373Y-57466999D01*
X125163627Y-57466999D01*
X125145159Y-57267700D01*
X125090385Y-57075188D01*
X125015835Y-56925472D01*
X125001171Y-56896022D01*
X125001166Y-56896014D01*
X124880547Y-56736289D01*
X124732634Y-56601449D01*
X124732632Y-56601447D01*
X124562463Y-56496083D01*
X124562457Y-56496080D01*
X124393620Y-56430673D01*
X124375822Y-56423778D01*
X124179077Y-56387000D01*
X123978923Y-56387000D01*
X123782178Y-56423778D01*
X123782175Y-56423778D01*
X123782175Y-56423779D01*
X123595542Y-56496080D01*
X123595536Y-56496083D01*
X123425367Y-56601447D01*
X123425365Y-56601449D01*
X123277452Y-56736289D01*
X123156833Y-56896014D01*
X123156828Y-56896022D01*
X123067616Y-57075184D01*
X123012840Y-57267704D01*
X122994373Y-57466999D01*
X122623627Y-57466999D01*
X122605159Y-57267700D01*
X122550385Y-57075188D01*
X122475835Y-56925472D01*
X122461171Y-56896022D01*
X122461166Y-56896014D01*
X122340547Y-56736289D01*
X122192634Y-56601449D01*
X122192632Y-56601447D01*
X122022463Y-56496083D01*
X122022457Y-56496080D01*
X121853620Y-56430673D01*
X121835822Y-56423778D01*
X121639077Y-56387000D01*
X121438923Y-56387000D01*
X121242178Y-56423778D01*
X121242175Y-56423778D01*
X121242175Y-56423779D01*
X121055542Y-56496080D01*
X121055536Y-56496083D01*
X120885367Y-56601447D01*
X120885365Y-56601449D01*
X120737452Y-56736289D01*
X120616833Y-56896014D01*
X120616828Y-56896022D01*
X120527616Y-57075184D01*
X120472840Y-57267704D01*
X120454373Y-57466999D01*
X120083125Y-57466999D01*
X120064666Y-57267793D01*
X120009916Y-57075371D01*
X120009911Y-57075358D01*
X119921581Y-56897969D01*
X119378500Y-57441051D01*
X119378500Y-57417038D01*
X119352638Y-57320518D01*
X119302676Y-57233981D01*
X119232019Y-57163324D01*
X119145482Y-57113362D01*
X119048962Y-57087500D01*
X119024947Y-57087500D01*
X119564796Y-56547650D01*
X119482234Y-56496530D01*
X119482233Y-56496529D01*
X119295687Y-56424262D01*
X119099028Y-56387500D01*
X118898972Y-56387500D01*
X118702312Y-56424262D01*
X118515765Y-56496530D01*
X118515758Y-56496534D01*
X118433203Y-56547649D01*
X118433202Y-56547650D01*
X118973054Y-57087500D01*
X118949038Y-57087500D01*
X118852518Y-57113362D01*
X118765981Y-57163324D01*
X118695324Y-57233981D01*
X118645362Y-57320518D01*
X118619500Y-57417038D01*
X118619500Y-57441052D01*
X118076417Y-56897969D01*
X117988085Y-57075363D01*
X117988085Y-57075365D01*
X117933333Y-57267793D01*
X117914875Y-57466999D01*
X111173686Y-57466999D01*
X111190643Y-57284000D01*
X111170115Y-57062464D01*
X111109229Y-56848472D01*
X111101536Y-56833022D01*
X111010061Y-56649316D01*
X111010056Y-56649308D01*
X110875979Y-56471761D01*
X110711562Y-56321876D01*
X110711560Y-56321874D01*
X110522404Y-56204754D01*
X110522398Y-56204752D01*
X110513699Y-56201382D01*
X110314940Y-56124382D01*
X110096243Y-56083500D01*
X109873757Y-56083500D01*
X109655060Y-56124382D01*
X109561829Y-56160500D01*
X109447601Y-56204752D01*
X109447595Y-56204754D01*
X109258439Y-56321874D01*
X109258437Y-56321876D01*
X109094020Y-56471761D01*
X108959943Y-56649308D01*
X108959938Y-56649316D01*
X108860775Y-56848461D01*
X108860769Y-56848476D01*
X108799885Y-57062462D01*
X108799884Y-57062464D01*
X108779357Y-57283999D01*
X108779357Y-57284000D01*
X108799884Y-57505535D01*
X108799885Y-57505537D01*
X108860769Y-57719523D01*
X108860775Y-57719538D01*
X108959938Y-57918683D01*
X108959943Y-57918691D01*
X109094020Y-58096238D01*
X109258437Y-58246123D01*
X109258439Y-58246125D01*
X109447595Y-58363245D01*
X109447596Y-58363245D01*
X109447599Y-58363247D01*
X109641524Y-58438374D01*
X109696924Y-58480946D01*
X109720515Y-58546713D01*
X109704804Y-58614793D01*
X109654780Y-58663572D01*
X109641533Y-58669622D01*
X109493488Y-58726975D01*
X109447601Y-58744752D01*
X109447595Y-58744754D01*
X109258439Y-58861874D01*
X109258437Y-58861876D01*
X109094020Y-59011761D01*
X108971333Y-59174227D01*
X108915224Y-59215863D01*
X108872379Y-59223500D01*
X107984785Y-59223500D01*
X107917746Y-59203815D01*
X107901247Y-59191137D01*
X107777634Y-59078449D01*
X107777632Y-59078447D01*
X107607463Y-58973083D01*
X107607457Y-58973080D01*
X107460362Y-58916096D01*
X107420822Y-58900778D01*
X107224077Y-58864000D01*
X107023923Y-58864000D01*
X106827178Y-58900778D01*
X106827175Y-58900778D01*
X106827175Y-58900779D01*
X106640542Y-58973080D01*
X106640536Y-58973083D01*
X106470367Y-59078447D01*
X106470365Y-59078449D01*
X106322452Y-59213289D01*
X106201833Y-59373014D01*
X106201828Y-59373022D01*
X106112616Y-59552184D01*
X106057840Y-59744704D01*
X106039373Y-59943999D01*
X106039373Y-59944000D01*
X106057840Y-60143295D01*
X106057840Y-60143297D01*
X106057841Y-60143300D01*
X106112615Y-60335812D01*
X106112616Y-60335815D01*
X106201828Y-60514977D01*
X106201833Y-60514985D01*
X106302505Y-60648295D01*
X106327197Y-60713656D01*
X106312632Y-60781991D01*
X106263435Y-60831603D01*
X106235639Y-60842798D01*
X106176234Y-60858712D01*
X106105368Y-60899626D01*
X106105362Y-60899629D01*
X106039301Y-60937763D01*
X105977891Y-60999172D01*
X105977886Y-60999177D01*
X105709526Y-61267498D01*
X105648200Y-61300978D01*
X105635734Y-61303030D01*
X105548750Y-61312830D01*
X105378478Y-61372410D01*
X105225737Y-61468384D01*
X105098184Y-61595937D01*
X105002211Y-61748676D01*
X104942631Y-61918945D01*
X104942630Y-61918950D01*
X104922435Y-62098196D01*
X104922435Y-62098203D01*
X104942630Y-62277449D01*
X104942631Y-62277454D01*
X105002211Y-62447723D01*
X105098184Y-62600462D01*
X105182041Y-62684319D01*
X105215526Y-62745642D01*
X105210542Y-62815334D01*
X105168670Y-62871267D01*
X105103206Y-62895684D01*
X105094360Y-62896000D01*
X100483843Y-62896000D01*
X100416804Y-62876315D01*
X100371049Y-62823511D01*
X100361105Y-62754353D01*
X100364577Y-62738066D01*
X100380158Y-62683302D01*
X100380159Y-62683299D01*
X100398627Y-62484000D01*
X100398627Y-62483999D01*
X100393029Y-62423584D01*
X100380159Y-62284700D01*
X100325385Y-62092188D01*
X100298644Y-62038485D01*
X100236171Y-61913022D01*
X100236166Y-61913014D01*
X100115547Y-61753289D01*
X99967634Y-61618449D01*
X99967632Y-61618447D01*
X99797463Y-61513083D01*
X99797457Y-61513080D01*
X99648537Y-61455389D01*
X99610822Y-61440778D01*
X99414077Y-61404000D01*
X99213923Y-61404000D01*
X99017178Y-61440778D01*
X99017175Y-61440778D01*
X99017175Y-61440779D01*
X98830542Y-61513080D01*
X98830536Y-61513083D01*
X98660367Y-61618447D01*
X98660365Y-61618449D01*
X98512452Y-61753290D01*
X98451331Y-61834227D01*
X98395221Y-61875863D01*
X98352377Y-61883500D01*
X97713272Y-61883500D01*
X97646233Y-61863815D01*
X97602273Y-61814775D01*
X97598059Y-61806313D01*
X97598056Y-61806308D01*
X97463979Y-61628761D01*
X97299562Y-61478876D01*
X97299560Y-61478874D01*
X97110404Y-61361754D01*
X97110398Y-61361751D01*
X97014274Y-61324513D01*
X96969242Y-61307067D01*
X96926358Y-61279123D01*
X96882928Y-61235693D01*
X96849443Y-61174370D01*
X96854427Y-61104678D01*
X96896299Y-61048745D01*
X96925812Y-61032387D01*
X97060401Y-60980247D01*
X97249562Y-60863124D01*
X97413981Y-60713236D01*
X97536667Y-60550772D01*
X97592776Y-60509137D01*
X97635621Y-60501500D01*
X98319905Y-60501500D01*
X98386944Y-60521185D01*
X98418859Y-60550773D01*
X98512452Y-60674710D01*
X98660365Y-60809550D01*
X98660367Y-60809552D01*
X98830536Y-60914916D01*
X98830542Y-60914919D01*
X98835723Y-60916926D01*
X99017178Y-60987222D01*
X99213923Y-61024000D01*
X99213925Y-61024000D01*
X99414075Y-61024000D01*
X99414077Y-61024000D01*
X99610822Y-60987222D01*
X99797460Y-60914918D01*
X99967634Y-60809551D01*
X100115549Y-60674708D01*
X100236168Y-60514983D01*
X100325385Y-60335812D01*
X100380159Y-60143300D01*
X100398627Y-59944000D01*
X100380159Y-59744700D01*
X100325385Y-59552188D01*
X100323967Y-59549341D01*
X100236171Y-59373022D01*
X100236166Y-59373014D01*
X100115547Y-59213289D01*
X99967634Y-59078449D01*
X99967632Y-59078447D01*
X99797463Y-58973083D01*
X99797457Y-58973080D01*
X99650362Y-58916096D01*
X99610822Y-58900778D01*
X99414077Y-58864000D01*
X99213923Y-58864000D01*
X99017178Y-58900778D01*
X99017175Y-58900778D01*
X99017175Y-58900779D01*
X98830542Y-58973080D01*
X98830536Y-58973083D01*
X98660367Y-59078447D01*
X98660365Y-59078449D01*
X98512452Y-59213289D01*
X98483804Y-59251227D01*
X98427695Y-59292863D01*
X98384850Y-59300500D01*
X97635621Y-59300500D01*
X97568582Y-59280815D01*
X97536667Y-59251227D01*
X97509961Y-59215863D01*
X97413981Y-59088764D01*
X97413979Y-59088761D01*
X97249562Y-58938876D01*
X97249560Y-58938874D01*
X97060404Y-58821754D01*
X97060395Y-58821750D01*
X96966956Y-58785552D01*
X96866475Y-58746625D01*
X96811075Y-58704054D01*
X96787484Y-58638288D01*
X96803195Y-58570207D01*
X96853219Y-58521428D01*
X96866466Y-58515377D01*
X97060401Y-58440247D01*
X97249562Y-58323124D01*
X97413981Y-58173236D01*
X97548058Y-57995689D01*
X97647229Y-57796528D01*
X97708115Y-57582536D01*
X97728643Y-57361000D01*
X97708115Y-57139464D01*
X97647229Y-56925472D01*
X97647224Y-56925461D01*
X97573117Y-56776635D01*
X98234000Y-56776635D01*
X98234000Y-58031370D01*
X98234001Y-58031376D01*
X98240408Y-58090983D01*
X98290702Y-58225828D01*
X98290706Y-58225835D01*
X98376952Y-58341044D01*
X98376955Y-58341047D01*
X98492164Y-58427293D01*
X98492171Y-58427297D01*
X98627017Y-58477591D01*
X98627016Y-58477591D01*
X98633944Y-58478335D01*
X98686627Y-58484000D01*
X99941372Y-58483999D01*
X100000983Y-58477591D01*
X100135831Y-58427296D01*
X100251046Y-58341046D01*
X100337296Y-58225831D01*
X100387591Y-58090983D01*
X100394000Y-58031373D01*
X100393999Y-57403999D01*
X106039373Y-57403999D01*
X106039373Y-57404000D01*
X106057840Y-57603295D01*
X106057840Y-57603297D01*
X106057841Y-57603300D01*
X106105463Y-57770676D01*
X106112616Y-57795815D01*
X106201828Y-57974977D01*
X106201833Y-57974985D01*
X106322452Y-58134710D01*
X106470363Y-58269549D01*
X106470367Y-58269552D01*
X106640536Y-58374916D01*
X106640542Y-58374919D01*
X106670044Y-58386348D01*
X106827178Y-58447222D01*
X107023923Y-58484000D01*
X107023925Y-58484000D01*
X107224075Y-58484000D01*
X107224077Y-58484000D01*
X107420822Y-58447222D01*
X107607460Y-58374918D01*
X107777634Y-58269551D01*
X107777634Y-58269550D01*
X107777637Y-58269549D01*
X107925547Y-58134710D01*
X107954602Y-58096236D01*
X108046168Y-57974983D01*
X108135385Y-57795812D01*
X108190159Y-57603300D01*
X108208627Y-57404000D01*
X108190159Y-57204700D01*
X108135385Y-57012188D01*
X108117977Y-56977229D01*
X108046171Y-56833022D01*
X108046166Y-56833014D01*
X107925547Y-56673289D01*
X107777634Y-56538449D01*
X107777632Y-56538447D01*
X107607463Y-56433083D01*
X107607457Y-56433080D01*
X107460362Y-56376096D01*
X107420822Y-56360778D01*
X107224077Y-56324000D01*
X107023923Y-56324000D01*
X106827178Y-56360778D01*
X106827175Y-56360778D01*
X106827175Y-56360779D01*
X106640542Y-56433080D01*
X106640536Y-56433083D01*
X106470367Y-56538447D01*
X106470365Y-56538449D01*
X106322452Y-56673289D01*
X106201833Y-56833014D01*
X106201828Y-56833022D01*
X106112616Y-57012184D01*
X106057840Y-57204704D01*
X106039373Y-57403999D01*
X100393999Y-57403999D01*
X100393999Y-56776628D01*
X100387591Y-56717017D01*
X100362338Y-56649311D01*
X100337297Y-56582171D01*
X100337293Y-56582164D01*
X100251047Y-56466955D01*
X100251044Y-56466952D01*
X100135835Y-56380706D01*
X100135828Y-56380702D01*
X100000982Y-56330408D01*
X100000983Y-56330408D01*
X99941383Y-56324001D01*
X99941381Y-56324000D01*
X99941373Y-56324000D01*
X99941364Y-56324000D01*
X98686629Y-56324000D01*
X98686623Y-56324001D01*
X98627016Y-56330408D01*
X98492171Y-56380702D01*
X98492164Y-56380706D01*
X98376955Y-56466952D01*
X98376952Y-56466955D01*
X98290706Y-56582164D01*
X98290702Y-56582171D01*
X98240408Y-56717017D01*
X98234001Y-56776616D01*
X98234001Y-56776623D01*
X98234000Y-56776635D01*
X97573117Y-56776635D01*
X97548061Y-56726316D01*
X97548056Y-56726308D01*
X97413979Y-56548761D01*
X97249562Y-56398876D01*
X97249560Y-56398874D01*
X97060404Y-56281754D01*
X97060398Y-56281752D01*
X96852940Y-56201382D01*
X96634243Y-56160500D01*
X96411757Y-56160500D01*
X96193060Y-56201382D01*
X96061864Y-56252207D01*
X95985601Y-56281752D01*
X95985595Y-56281754D01*
X95796439Y-56398874D01*
X95796437Y-56398876D01*
X95632020Y-56548761D01*
X95497943Y-56726308D01*
X95497938Y-56726316D01*
X95398775Y-56925461D01*
X95398769Y-56925476D01*
X95337885Y-57139462D01*
X95337884Y-57139464D01*
X95317357Y-57360999D01*
X95317357Y-57361000D01*
X95337884Y-57582535D01*
X95337885Y-57582537D01*
X95398769Y-57796523D01*
X95398775Y-57796538D01*
X95497938Y-57995683D01*
X95497943Y-57995691D01*
X95632020Y-58173238D01*
X95796437Y-58323123D01*
X95796439Y-58323125D01*
X95985595Y-58440245D01*
X95985596Y-58440245D01*
X95985599Y-58440247D01*
X96179524Y-58515374D01*
X96234924Y-58557946D01*
X96258515Y-58623713D01*
X96242804Y-58691793D01*
X96192780Y-58740572D01*
X96179533Y-58746622D01*
X96031488Y-58803975D01*
X95985601Y-58821752D01*
X95985595Y-58821754D01*
X95796439Y-58938874D01*
X95796437Y-58938876D01*
X95632020Y-59088761D01*
X95497943Y-59266308D01*
X95497938Y-59266316D01*
X95398775Y-59465461D01*
X95398769Y-59465476D01*
X95337885Y-59679462D01*
X95337884Y-59679464D01*
X95317357Y-59900999D01*
X95317357Y-59901000D01*
X95337884Y-60122535D01*
X95337885Y-60122537D01*
X95398769Y-60336523D01*
X95398775Y-60336538D01*
X95447420Y-60434228D01*
X95459681Y-60503013D01*
X95432808Y-60567508D01*
X95375333Y-60607236D01*
X95336420Y-60613500D01*
X93138940Y-60613500D01*
X93098019Y-60624464D01*
X93098019Y-60624465D01*
X93060751Y-60634451D01*
X92986214Y-60654423D01*
X92986209Y-60654426D01*
X92849290Y-60733475D01*
X92849282Y-60733481D01*
X92229479Y-61353284D01*
X92218437Y-61372411D01*
X92198881Y-61406284D01*
X92150423Y-61490215D01*
X92109499Y-61642943D01*
X92109499Y-61642945D01*
X92109499Y-61811046D01*
X92109500Y-61811059D01*
X92109500Y-62924022D01*
X92089815Y-62991061D01*
X92037011Y-63036816D01*
X91967853Y-63046760D01*
X91904297Y-63017735D01*
X91879383Y-62988172D01*
X91778785Y-62821763D01*
X91628109Y-62629442D01*
X90741920Y-63515631D01*
X90662695Y-63406587D01*
X90497413Y-63241305D01*
X90388366Y-63162078D01*
X91274556Y-62275889D01*
X91274556Y-62275888D01*
X91082236Y-62125214D01*
X90799846Y-61954504D01*
X90799844Y-61954502D01*
X90498950Y-61819081D01*
X90498935Y-61819075D01*
X90183934Y-61720918D01*
X89859359Y-61661437D01*
X89530000Y-61641515D01*
X89200640Y-61661437D01*
X88876065Y-61720918D01*
X88561064Y-61819075D01*
X88561049Y-61819081D01*
X88260155Y-61954502D01*
X88260153Y-61954504D01*
X87977773Y-62125208D01*
X87785442Y-62275889D01*
X88671632Y-63162079D01*
X88562587Y-63241305D01*
X88397305Y-63406587D01*
X88318079Y-63515632D01*
X87431889Y-62629442D01*
X87281208Y-62821773D01*
X87110504Y-63104153D01*
X87110502Y-63104155D01*
X86975081Y-63405049D01*
X86975075Y-63405064D01*
X86876918Y-63720065D01*
X86817437Y-64044640D01*
X86797515Y-64374000D01*
X83462484Y-64374000D01*
X83442562Y-64044640D01*
X83383081Y-63720065D01*
X83284924Y-63405064D01*
X83284918Y-63405049D01*
X83149497Y-63104155D01*
X83149495Y-63104153D01*
X82978785Y-62821763D01*
X82828109Y-62629442D01*
X81941920Y-63515631D01*
X81862695Y-63406587D01*
X81697413Y-63241305D01*
X81588366Y-63162078D01*
X82474556Y-62275889D01*
X82474556Y-62275888D01*
X82282236Y-62125214D01*
X81999846Y-61954504D01*
X81999844Y-61954502D01*
X81698950Y-61819081D01*
X81698935Y-61819075D01*
X81383934Y-61720918D01*
X81059359Y-61661437D01*
X80730000Y-61641515D01*
X80400640Y-61661437D01*
X80076065Y-61720918D01*
X79761064Y-61819075D01*
X79761049Y-61819081D01*
X79460155Y-61954502D01*
X79460153Y-61954504D01*
X79177773Y-62125208D01*
X78985442Y-62275889D01*
X79871632Y-63162079D01*
X79762587Y-63241305D01*
X79597305Y-63406587D01*
X79518079Y-63515632D01*
X78631889Y-62629442D01*
X78481208Y-62821773D01*
X78310504Y-63104153D01*
X78310502Y-63104155D01*
X78175081Y-63405049D01*
X78175075Y-63405064D01*
X78076918Y-63720065D01*
X78017437Y-64044640D01*
X77997515Y-64374000D01*
X71000000Y-64374000D01*
X71000000Y-48909994D01*
X81484202Y-48909994D01*
X81484202Y-48910005D01*
X81503361Y-49141218D01*
X81560317Y-49366135D01*
X81653516Y-49578609D01*
X81737811Y-49707633D01*
X82324387Y-49121058D01*
X82329889Y-49141591D01*
X82408881Y-49278408D01*
X82520592Y-49390119D01*
X82657409Y-49469111D01*
X82677940Y-49474612D01*
X82090201Y-50062351D01*
X82120649Y-50086050D01*
X82324697Y-50196476D01*
X82324706Y-50196479D01*
X82544139Y-50271811D01*
X82772993Y-50310000D01*
X83005007Y-50310000D01*
X83233860Y-50271811D01*
X83453293Y-50196479D01*
X83453301Y-50196476D01*
X83657355Y-50086047D01*
X83687797Y-50062351D01*
X83687798Y-50062350D01*
X83100060Y-49474612D01*
X83120591Y-49469111D01*
X83257408Y-49390119D01*
X83369119Y-49278408D01*
X83448111Y-49141591D01*
X83453612Y-49121059D01*
X84040186Y-49707634D01*
X84044969Y-49707138D01*
X84088037Y-49670381D01*
X84157269Y-49660957D01*
X84220605Y-49690458D01*
X84242510Y-49715738D01*
X84280016Y-49773147D01*
X84280019Y-49773151D01*
X84280021Y-49773153D01*
X84437216Y-49943913D01*
X84437219Y-49943915D01*
X84437222Y-49943918D01*
X84620365Y-50086464D01*
X84620371Y-50086468D01*
X84620374Y-50086470D01*
X84715174Y-50137773D01*
X84823652Y-50196479D01*
X84824497Y-50196936D01*
X84938487Y-50236068D01*
X85044015Y-50272297D01*
X85044017Y-50272297D01*
X85044019Y-50272298D01*
X85272951Y-50310500D01*
X85272952Y-50310500D01*
X85505048Y-50310500D01*
X85505049Y-50310500D01*
X85733981Y-50272298D01*
X85785897Y-50254474D01*
X85855693Y-50251324D01*
X85913840Y-50284075D01*
X89403739Y-53773974D01*
X89403749Y-53773985D01*
X89408079Y-53778315D01*
X89408080Y-53778316D01*
X89519884Y-53890120D01*
X89519886Y-53890121D01*
X89519890Y-53890124D01*
X89656809Y-53969173D01*
X89656816Y-53969177D01*
X89768619Y-53999134D01*
X89809542Y-54010100D01*
X89809543Y-54010100D01*
X132188588Y-54010100D01*
X132255627Y-54029785D01*
X132265903Y-54037155D01*
X132268736Y-54039414D01*
X132268738Y-54039416D01*
X132421478Y-54135389D01*
X132591745Y-54194968D01*
X132591750Y-54194969D01*
X132770996Y-54215165D01*
X132771000Y-54215165D01*
X132771004Y-54215165D01*
X132950249Y-54194969D01*
X132950252Y-54194968D01*
X132950255Y-54194968D01*
X133120522Y-54135389D01*
X133273262Y-54039416D01*
X133400816Y-53911862D01*
X133496789Y-53759122D01*
X133556368Y-53588855D01*
X133576565Y-53409600D01*
X133556368Y-53230345D01*
X133496789Y-53060078D01*
X133400816Y-52907338D01*
X133273262Y-52779784D01*
X133262117Y-52772781D01*
X133120523Y-52683811D01*
X132950254Y-52624231D01*
X132950249Y-52624230D01*
X132771004Y-52604035D01*
X132770996Y-52604035D01*
X132591750Y-52624230D01*
X132591745Y-52624231D01*
X132421476Y-52683811D01*
X132268736Y-52779785D01*
X132265903Y-52782045D01*
X132263724Y-52782934D01*
X132262842Y-52783489D01*
X132262744Y-52783334D01*
X132201217Y-52808455D01*
X132188588Y-52809100D01*
X90188697Y-52809100D01*
X90121658Y-52789415D01*
X90101016Y-52772781D01*
X87850416Y-50522181D01*
X87816931Y-50460858D01*
X87821915Y-50391166D01*
X87863787Y-50335233D01*
X87929251Y-50310816D01*
X87938097Y-50310500D01*
X88005048Y-50310500D01*
X88005049Y-50310500D01*
X88193874Y-50278990D01*
X88263235Y-50287372D01*
X88301961Y-50313618D01*
X88912653Y-50924311D01*
X88912654Y-50924312D01*
X89027392Y-51000977D01*
X89132050Y-51044327D01*
X89154872Y-51053780D01*
X89154876Y-51053780D01*
X89154877Y-51053781D01*
X89290203Y-51080700D01*
X89290206Y-51080700D01*
X89290207Y-51080700D01*
X104641891Y-51080700D01*
X104641993Y-51080704D01*
X104648052Y-51080703D01*
X104648059Y-51080705D01*
X104710778Y-51080700D01*
X104710782Y-51080700D01*
X104785985Y-51080700D01*
X104785993Y-51080700D01*
X104786003Y-51080698D01*
X104786039Y-51080694D01*
X104786047Y-51080694D01*
X104852898Y-51067391D01*
X104852905Y-51067391D01*
X104852905Y-51067390D01*
X104870389Y-51063911D01*
X104920085Y-51054027D01*
X104921423Y-51053779D01*
X104921431Y-51053776D01*
X104923092Y-51053055D01*
X104957771Y-51038686D01*
X104988348Y-51026019D01*
X104988358Y-51026015D01*
X105047582Y-51001484D01*
X105048877Y-51000966D01*
X105048885Y-51000962D01*
X105050225Y-51000036D01*
X105108396Y-50961161D01*
X105162835Y-50924786D01*
X105163615Y-50924276D01*
X105163623Y-50924269D01*
X105164630Y-50923233D01*
X105188030Y-50899829D01*
X105216630Y-50871226D01*
X105216632Y-50871222D01*
X105261114Y-50826742D01*
X105261115Y-50826738D01*
X105266139Y-50821716D01*
X105266201Y-50821646D01*
X105632149Y-50455642D01*
X105693468Y-50422155D01*
X105740242Y-50421010D01*
X105928951Y-50452500D01*
X105928952Y-50452500D01*
X106161048Y-50452500D01*
X106161049Y-50452500D01*
X106349815Y-50421000D01*
X106419177Y-50429382D01*
X106457907Y-50455631D01*
X106837040Y-50834793D01*
X106837089Y-50834846D01*
X106884691Y-50882447D01*
X106884693Y-50882452D01*
X106884695Y-50882451D01*
X106884696Y-50882452D01*
X106938437Y-50936197D01*
X106938440Y-50936199D01*
X106938442Y-50936201D01*
X106938450Y-50936208D01*
X106938456Y-50936212D01*
X106938458Y-50936214D01*
X106975783Y-50961153D01*
X107002253Y-50978840D01*
X107002252Y-50978840D01*
X107002256Y-50978841D01*
X107032510Y-50999058D01*
X107051627Y-51011834D01*
X107053497Y-51013126D01*
X107053681Y-51013222D01*
X107057165Y-51014521D01*
X107129128Y-51044330D01*
X107129131Y-51044332D01*
X107129131Y-51044331D01*
X107180647Y-51065672D01*
X107180649Y-51065672D01*
X107180658Y-51065676D01*
X107180667Y-51065679D01*
X107180671Y-51065679D01*
X107180672Y-51065680D01*
X107256152Y-51080694D01*
X107315980Y-51092597D01*
X107315981Y-51092597D01*
X107315991Y-51092599D01*
X107315998Y-51092600D01*
X107398773Y-51092600D01*
X107453968Y-51092602D01*
X107453973Y-51092600D01*
X107460068Y-51092601D01*
X107460109Y-51092600D01*
X124436007Y-51092600D01*
X124573993Y-51092600D01*
X141750114Y-51092600D01*
X141817153Y-51112285D01*
X141862908Y-51165089D01*
X141872852Y-51234247D01*
X141843827Y-51297803D01*
X141837803Y-51304272D01*
X139102982Y-54039414D01*
X137871564Y-55270976D01*
X137810243Y-55304465D01*
X137783878Y-55307300D01*
X135885047Y-55307300D01*
X135884954Y-55307294D01*
X135797974Y-55307299D01*
X135797962Y-55307300D01*
X135718923Y-55307300D01*
X135639902Y-55328478D01*
X135639897Y-55328479D01*
X135566194Y-55348228D01*
X135501488Y-55385593D01*
X135501481Y-55385597D01*
X135429269Y-55427288D01*
X135382411Y-55474151D01*
X135382408Y-55474155D01*
X135312646Y-55543917D01*
X135312581Y-55543990D01*
X134495331Y-56361345D01*
X134434010Y-56394834D01*
X134384861Y-56395558D01*
X134339077Y-56387000D01*
X134138923Y-56387000D01*
X133942178Y-56423778D01*
X133942175Y-56423778D01*
X133942175Y-56423779D01*
X133755542Y-56496080D01*
X133755536Y-56496083D01*
X133585367Y-56601447D01*
X133585365Y-56601449D01*
X133437452Y-56736289D01*
X133316833Y-56896014D01*
X133316828Y-56896022D01*
X133227616Y-57075184D01*
X133172840Y-57267704D01*
X133154373Y-57466999D01*
X133154373Y-57467000D01*
X133172840Y-57666295D01*
X133172840Y-57666297D01*
X133172841Y-57666300D01*
X133227566Y-57858641D01*
X133227616Y-57858815D01*
X133316828Y-58037977D01*
X133316833Y-58037985D01*
X133437452Y-58197710D01*
X133585365Y-58332550D01*
X133585367Y-58332552D01*
X133755536Y-58437916D01*
X133755542Y-58437919D01*
X133761557Y-58440249D01*
X133942178Y-58510222D01*
X134138923Y-58547000D01*
X134138925Y-58547000D01*
X134339075Y-58547000D01*
X134339077Y-58547000D01*
X134535822Y-58510222D01*
X134722460Y-58437918D01*
X134892634Y-58332551D01*
X135040549Y-58197708D01*
X135161168Y-58037983D01*
X135250385Y-57858812D01*
X135305159Y-57666300D01*
X135323627Y-57467000D01*
X135309027Y-57309449D01*
X135322442Y-57240883D01*
X135344807Y-57210340D01*
X135544405Y-57010716D01*
X135605724Y-56977229D01*
X135675416Y-56982210D01*
X135731352Y-57024077D01*
X135755774Y-57089540D01*
X135751357Y-57132327D01*
X135712840Y-57267702D01*
X135694373Y-57466999D01*
X135694373Y-57467000D01*
X135712840Y-57666295D01*
X135712840Y-57666297D01*
X135712841Y-57666300D01*
X135767566Y-57858641D01*
X135767616Y-57858815D01*
X135856828Y-58037977D01*
X135856833Y-58037985D01*
X135977452Y-58197710D01*
X136125365Y-58332550D01*
X136125367Y-58332552D01*
X136295536Y-58437916D01*
X136295542Y-58437919D01*
X136301557Y-58440249D01*
X136482178Y-58510222D01*
X136678923Y-58547000D01*
X136678925Y-58547000D01*
X136879075Y-58547000D01*
X136879077Y-58547000D01*
X137075822Y-58510222D01*
X137262460Y-58437918D01*
X137432634Y-58332551D01*
X137580549Y-58197708D01*
X137701168Y-58037983D01*
X137790385Y-57858812D01*
X137845159Y-57666300D01*
X137863627Y-57467000D01*
X137863627Y-57466999D01*
X138234373Y-57466999D01*
X138234373Y-57467000D01*
X138252840Y-57666295D01*
X138252840Y-57666297D01*
X138252841Y-57666300D01*
X138307566Y-57858641D01*
X138307616Y-57858815D01*
X138396828Y-58037977D01*
X138396833Y-58037985D01*
X138517452Y-58197710D01*
X138665365Y-58332550D01*
X138665367Y-58332552D01*
X138835536Y-58437916D01*
X138835542Y-58437919D01*
X138841557Y-58440249D01*
X139022178Y-58510222D01*
X139218923Y-58547000D01*
X139218925Y-58547000D01*
X139419075Y-58547000D01*
X139419077Y-58547000D01*
X139615822Y-58510222D01*
X139802460Y-58437918D01*
X139972634Y-58332551D01*
X140120549Y-58197708D01*
X140241168Y-58037983D01*
X140330385Y-57858812D01*
X140385159Y-57666300D01*
X140403627Y-57467000D01*
X140403627Y-57466999D01*
X140774373Y-57466999D01*
X140774373Y-57467000D01*
X140792840Y-57666295D01*
X140792840Y-57666297D01*
X140792841Y-57666300D01*
X140847566Y-57858641D01*
X140847616Y-57858815D01*
X140936828Y-58037977D01*
X140936833Y-58037985D01*
X141057452Y-58197710D01*
X141205365Y-58332550D01*
X141205367Y-58332552D01*
X141375536Y-58437916D01*
X141375542Y-58437919D01*
X141381557Y-58440249D01*
X141562178Y-58510222D01*
X141758923Y-58547000D01*
X141758925Y-58547000D01*
X141959075Y-58547000D01*
X141959077Y-58547000D01*
X142155822Y-58510222D01*
X142342460Y-58437918D01*
X142512634Y-58332551D01*
X142660549Y-58197708D01*
X142781168Y-58037983D01*
X142870385Y-57858812D01*
X142925159Y-57666300D01*
X142943627Y-57467000D01*
X142925159Y-57267700D01*
X142870385Y-57075188D01*
X142795835Y-56925472D01*
X142781171Y-56896022D01*
X142781166Y-56896014D01*
X142660547Y-56736289D01*
X142512634Y-56601449D01*
X142512632Y-56601447D01*
X142342463Y-56496083D01*
X142342457Y-56496080D01*
X142173620Y-56430673D01*
X142155822Y-56423778D01*
X141959077Y-56387000D01*
X141758923Y-56387000D01*
X141562178Y-56423778D01*
X141562175Y-56423778D01*
X141562175Y-56423779D01*
X141375542Y-56496080D01*
X141375536Y-56496083D01*
X141205367Y-56601447D01*
X141205365Y-56601449D01*
X141057452Y-56736289D01*
X140936833Y-56896014D01*
X140936828Y-56896022D01*
X140847616Y-57075184D01*
X140792840Y-57267704D01*
X140774373Y-57466999D01*
X140403627Y-57466999D01*
X140385159Y-57267700D01*
X140330385Y-57075188D01*
X140255835Y-56925472D01*
X140241171Y-56896022D01*
X140241166Y-56896014D01*
X140120547Y-56736289D01*
X139972634Y-56601449D01*
X139972632Y-56601447D01*
X139802463Y-56496083D01*
X139802457Y-56496080D01*
X139633620Y-56430673D01*
X139615822Y-56423778D01*
X139419077Y-56387000D01*
X139218923Y-56387000D01*
X139022178Y-56423778D01*
X139022175Y-56423778D01*
X139022175Y-56423779D01*
X138835542Y-56496080D01*
X138835536Y-56496083D01*
X138665367Y-56601447D01*
X138665365Y-56601449D01*
X138517452Y-56736289D01*
X138396833Y-56896014D01*
X138396828Y-56896022D01*
X138307616Y-57075184D01*
X138252840Y-57267704D01*
X138234373Y-57466999D01*
X137863627Y-57466999D01*
X137845159Y-57267700D01*
X137790385Y-57075188D01*
X137715835Y-56925472D01*
X137701171Y-56896022D01*
X137701166Y-56896014D01*
X137580549Y-56736292D01*
X137566996Y-56723937D01*
X137530715Y-56664225D01*
X137532476Y-56594378D01*
X137571720Y-56536570D01*
X137635987Y-56509156D01*
X137650535Y-56508300D01*
X137996956Y-56508300D01*
X137997034Y-56508304D01*
X138004972Y-56508303D01*
X138004978Y-56508305D01*
X138092816Y-56508300D01*
X138092820Y-56508300D01*
X138163069Y-56508300D01*
X138163121Y-56508292D01*
X138163627Y-56508152D01*
X138212387Y-56495083D01*
X138241054Y-56487401D01*
X138241056Y-56487399D01*
X138314158Y-56467812D01*
X138315835Y-56467390D01*
X138315840Y-56467388D01*
X138317495Y-56466394D01*
X138379362Y-56430669D01*
X138451108Y-56389248D01*
X138452768Y-56388326D01*
X138452777Y-56388319D01*
X138454237Y-56386804D01*
X138504155Y-56336879D01*
X138504159Y-56336877D01*
X138535885Y-56305149D01*
X138564520Y-56276516D01*
X138564521Y-56276514D01*
X138571040Y-56269995D01*
X138571086Y-56269940D01*
X145359556Y-49480679D01*
X145417737Y-49422498D01*
X145419528Y-49420783D01*
X145419541Y-49420766D01*
X145420578Y-49418891D01*
X145456609Y-49356475D01*
X145497169Y-49286222D01*
X145498622Y-49283839D01*
X145498627Y-49283826D01*
X145499237Y-49281335D01*
X145519157Y-49206975D01*
X145539500Y-49131057D01*
X145539500Y-49131049D01*
X145539501Y-49131046D01*
X145539503Y-49131027D01*
X145539505Y-49131022D01*
X145539500Y-49043180D01*
X145539500Y-46905358D01*
X145559185Y-46838319D01*
X145575831Y-46817664D01*
X145684973Y-46708554D01*
X147184308Y-45209649D01*
X147942369Y-44451806D01*
X148003697Y-44418330D01*
X148030038Y-44415500D01*
X156608398Y-44415500D01*
X156675437Y-44435185D01*
X156711219Y-44472708D01*
X156712113Y-44472083D01*
X156847497Y-44665433D01*
X157010567Y-44828503D01*
X157199477Y-44960779D01*
X157199479Y-44960780D01*
X157199482Y-44960782D01*
X157225457Y-44972894D01*
X157277896Y-45019066D01*
X157297048Y-45086260D01*
X157276832Y-45153141D01*
X157225458Y-45197658D01*
X157199729Y-45209655D01*
X157122961Y-45263407D01*
X157694848Y-45835294D01*
X157650638Y-45847141D01*
X157526362Y-45918891D01*
X157424891Y-46020362D01*
X157353141Y-46144638D01*
X157341294Y-46188848D01*
X156769407Y-45616961D01*
X156715654Y-45693731D01*
X156618225Y-45902665D01*
X156618222Y-45902674D01*
X156558560Y-46125339D01*
X156558558Y-46125350D01*
X156538467Y-46354998D01*
X156538467Y-46355001D01*
X156558558Y-46584649D01*
X156558560Y-46584660D01*
X156618222Y-46807325D01*
X156618226Y-46807334D01*
X156715651Y-47016264D01*
X156769408Y-47093037D01*
X157341294Y-46521151D01*
X157353141Y-46565362D01*
X157424891Y-46689638D01*
X157526362Y-46791109D01*
X157650638Y-46862859D01*
X157694848Y-46874705D01*
X157122961Y-47446590D01*
X157199737Y-47500349D01*
X157226047Y-47512618D01*
X157278487Y-47558790D01*
X157297639Y-47625984D01*
X157277423Y-47692865D01*
X157226050Y-47737381D01*
X157199732Y-47749653D01*
X157122961Y-47803407D01*
X157694848Y-48375294D01*
X157650638Y-48387141D01*
X157526362Y-48458891D01*
X157424891Y-48560362D01*
X157353141Y-48684638D01*
X157341294Y-48728848D01*
X156769407Y-48156961D01*
X156715654Y-48233731D01*
X156618225Y-48442665D01*
X156618222Y-48442674D01*
X156558560Y-48665339D01*
X156558558Y-48665350D01*
X156538467Y-48894998D01*
X156538467Y-48895001D01*
X156558558Y-49124649D01*
X156558560Y-49124660D01*
X156618222Y-49347325D01*
X156618226Y-49347334D01*
X156715651Y-49556264D01*
X156769408Y-49633037D01*
X157341294Y-49061151D01*
X157353141Y-49105362D01*
X157424891Y-49229638D01*
X157526362Y-49331109D01*
X157650638Y-49402859D01*
X157694848Y-49414705D01*
X157122961Y-49986590D01*
X157199735Y-50040348D01*
X157408665Y-50137773D01*
X157408674Y-50137777D01*
X157631339Y-50197439D01*
X157631350Y-50197441D01*
X157860998Y-50217533D01*
X157861002Y-50217533D01*
X158090649Y-50197441D01*
X158090660Y-50197439D01*
X158313325Y-50137777D01*
X158313334Y-50137773D01*
X158522266Y-50040347D01*
X158522270Y-50040345D01*
X158599037Y-49986591D01*
X158027151Y-49414705D01*
X158071362Y-49402859D01*
X158195638Y-49331109D01*
X158297109Y-49229638D01*
X158368859Y-49105362D01*
X158380705Y-49061151D01*
X158952591Y-49633037D01*
X159006345Y-49556270D01*
X159006347Y-49556266D01*
X159103773Y-49347334D01*
X159103777Y-49347325D01*
X159163439Y-49124660D01*
X159163441Y-49124649D01*
X159183533Y-48895001D01*
X159183533Y-48894998D01*
X159163441Y-48665350D01*
X159163439Y-48665339D01*
X159103777Y-48442674D01*
X159103773Y-48442665D01*
X159006350Y-48233740D01*
X158952589Y-48156961D01*
X158380704Y-48728847D01*
X158368859Y-48684638D01*
X158297109Y-48560362D01*
X158195638Y-48458891D01*
X158071362Y-48387141D01*
X158027151Y-48375294D01*
X158599037Y-47803408D01*
X158522262Y-47749650D01*
X158495953Y-47737382D01*
X158443513Y-47691210D01*
X158424361Y-47624016D01*
X158444577Y-47557135D01*
X158495953Y-47512618D01*
X158522262Y-47500349D01*
X158522270Y-47500345D01*
X158599037Y-47446591D01*
X158027151Y-46874705D01*
X158071362Y-46862859D01*
X158195638Y-46791109D01*
X158297109Y-46689638D01*
X158368859Y-46565362D01*
X158380705Y-46521151D01*
X158952591Y-47093037D01*
X159006345Y-47016270D01*
X159006347Y-47016266D01*
X159103773Y-46807334D01*
X159103777Y-46807325D01*
X159163439Y-46584660D01*
X159163441Y-46584649D01*
X159183533Y-46355001D01*
X159183533Y-46354998D01*
X159163441Y-46125350D01*
X159163439Y-46125339D01*
X159103777Y-45902674D01*
X159103773Y-45902665D01*
X159006350Y-45693740D01*
X158952589Y-45616961D01*
X158380704Y-46188847D01*
X158368859Y-46144638D01*
X158297109Y-46020362D01*
X158195638Y-45918891D01*
X158071362Y-45847141D01*
X158027151Y-45835294D01*
X158599037Y-45263408D01*
X158522262Y-45209650D01*
X158522261Y-45209649D01*
X158496542Y-45197656D01*
X158444103Y-45151483D01*
X158424952Y-45084290D01*
X158445169Y-45017409D01*
X158496541Y-44972895D01*
X158522518Y-44960782D01*
X158711431Y-44828504D01*
X158874504Y-44665431D01*
X159006782Y-44476518D01*
X159104246Y-44267505D01*
X159163935Y-44044743D01*
X159184035Y-43815000D01*
X159163935Y-43585257D01*
X159104246Y-43362495D01*
X159006782Y-43153483D01*
X158874504Y-42964569D01*
X158874502Y-42964566D01*
X158711432Y-42801496D01*
X158522522Y-42669220D01*
X158522519Y-42669219D01*
X158522520Y-42669219D01*
X158522518Y-42669218D01*
X158497134Y-42657381D01*
X158444696Y-42611211D01*
X158425543Y-42544018D01*
X158445758Y-42477136D01*
X158497134Y-42432618D01*
X158522518Y-42420782D01*
X158711431Y-42288504D01*
X158874504Y-42125431D01*
X159006782Y-41936518D01*
X159104246Y-41727505D01*
X159163935Y-41504743D01*
X159184035Y-41275000D01*
X159183920Y-41273690D01*
X159171497Y-41131690D01*
X159163935Y-41045257D01*
X159104246Y-40822495D01*
X159006782Y-40613483D01*
X158874504Y-40424569D01*
X158874502Y-40424566D01*
X158711432Y-40261496D01*
X158522522Y-40129220D01*
X158522518Y-40129218D01*
X158522514Y-40129216D01*
X158496542Y-40117105D01*
X158444104Y-40070934D01*
X158424952Y-40003740D01*
X158445168Y-39936859D01*
X158496545Y-39892341D01*
X158522267Y-39880346D01*
X158522270Y-39880345D01*
X158599037Y-39826591D01*
X158027151Y-39254705D01*
X158071362Y-39242859D01*
X158195638Y-39171109D01*
X158297109Y-39069638D01*
X158368859Y-38945362D01*
X158380705Y-38901151D01*
X158952591Y-39473037D01*
X159006345Y-39396270D01*
X159006347Y-39396266D01*
X159103773Y-39187334D01*
X159103777Y-39187325D01*
X159163439Y-38964660D01*
X159163441Y-38964649D01*
X159183533Y-38735001D01*
X159183533Y-38734998D01*
X159163441Y-38505350D01*
X159163439Y-38505339D01*
X159103777Y-38282674D01*
X159103773Y-38282665D01*
X159006350Y-38073740D01*
X158952589Y-37996961D01*
X158380704Y-38568847D01*
X158368859Y-38524638D01*
X158297109Y-38400362D01*
X158195638Y-38298891D01*
X158071362Y-38227141D01*
X158027151Y-38215294D01*
X158599037Y-37643408D01*
X158522264Y-37589651D01*
X158313334Y-37492226D01*
X158313325Y-37492222D01*
X158090660Y-37432560D01*
X158090649Y-37432558D01*
X157861002Y-37412467D01*
X157860998Y-37412467D01*
X157631350Y-37432558D01*
X157631339Y-37432560D01*
X157408674Y-37492222D01*
X157408665Y-37492225D01*
X157199731Y-37589654D01*
X157122961Y-37643407D01*
X157694848Y-38215294D01*
X157650638Y-38227141D01*
X157526362Y-38298891D01*
X157424891Y-38400362D01*
X157353141Y-38524638D01*
X157341294Y-38568848D01*
X156769407Y-37996961D01*
X156715654Y-38073731D01*
X156618225Y-38282665D01*
X156618222Y-38282674D01*
X156558560Y-38505339D01*
X156558558Y-38505350D01*
X156538467Y-38734998D01*
X156538467Y-38735001D01*
X156558558Y-38964649D01*
X156558560Y-38964660D01*
X156618222Y-39187325D01*
X156618226Y-39187334D01*
X156715651Y-39396264D01*
X156769408Y-39473037D01*
X157341294Y-38901151D01*
X157353141Y-38945362D01*
X157424891Y-39069638D01*
X157526362Y-39171109D01*
X157650638Y-39242859D01*
X157694848Y-39254705D01*
X157122961Y-39826590D01*
X157199735Y-39880348D01*
X157225456Y-39892342D01*
X157277895Y-39938514D01*
X157297047Y-40005708D01*
X157276831Y-40072589D01*
X157225458Y-40117105D01*
X157199486Y-40129216D01*
X157199482Y-40129218D01*
X157010566Y-40261497D01*
X156847497Y-40424566D01*
X156715218Y-40613482D01*
X156715217Y-40613484D01*
X156617755Y-40822493D01*
X156617751Y-40822502D01*
X156558066Y-41045251D01*
X156558064Y-41045262D01*
X156537965Y-41274998D01*
X156537965Y-41275001D01*
X156558064Y-41504737D01*
X156558066Y-41504748D01*
X156617751Y-41727497D01*
X156617753Y-41727501D01*
X156617754Y-41727505D01*
X156714570Y-41935128D01*
X156715218Y-41936518D01*
X156715220Y-41936522D01*
X156847496Y-42125432D01*
X157010567Y-42288503D01*
X157199477Y-42420779D01*
X157199479Y-42420780D01*
X157199482Y-42420782D01*
X157224865Y-42432618D01*
X157277304Y-42478790D01*
X157296456Y-42545984D01*
X157276240Y-42612865D01*
X157224866Y-42657381D01*
X157199489Y-42669214D01*
X157199482Y-42669218D01*
X157010566Y-42801497D01*
X156847497Y-42964566D01*
X156712113Y-43157918D01*
X156710954Y-43157106D01*
X156665221Y-43200715D01*
X156608399Y-43214500D01*
X147745780Y-43214500D01*
X147678741Y-43194815D01*
X147632986Y-43142011D01*
X147623042Y-43072853D01*
X147628250Y-43052670D01*
X147627804Y-43052531D01*
X147727081Y-42733934D01*
X147786562Y-42409359D01*
X147806484Y-42080000D01*
X147786562Y-41750640D01*
X147727081Y-41426065D01*
X147628924Y-41111064D01*
X147628918Y-41111049D01*
X147493497Y-40810155D01*
X147493495Y-40810153D01*
X147322785Y-40527763D01*
X147172109Y-40335442D01*
X146285920Y-41221631D01*
X146206695Y-41112587D01*
X146041413Y-40947305D01*
X145932366Y-40868078D01*
X146818556Y-39981889D01*
X146818556Y-39981888D01*
X146626236Y-39831214D01*
X146343846Y-39660504D01*
X146343844Y-39660502D01*
X146042950Y-39525081D01*
X146042935Y-39525075D01*
X145727934Y-39426918D01*
X145403359Y-39367437D01*
X145074000Y-39347515D01*
X144744640Y-39367437D01*
X144420065Y-39426918D01*
X144105064Y-39525075D01*
X144105049Y-39525081D01*
X143804155Y-39660502D01*
X143804153Y-39660504D01*
X143521773Y-39831208D01*
X143329442Y-39981889D01*
X144215632Y-40868079D01*
X144106587Y-40947305D01*
X143941305Y-41112587D01*
X143862079Y-41221632D01*
X142975889Y-40335442D01*
X142825208Y-40527773D01*
X142654504Y-40810153D01*
X142654502Y-40810155D01*
X142519081Y-41111049D01*
X142519075Y-41111064D01*
X142420918Y-41426065D01*
X142361437Y-41750640D01*
X142341515Y-42080000D01*
X142361437Y-42409359D01*
X142420918Y-42733934D01*
X142519075Y-43048935D01*
X142519081Y-43048950D01*
X142654502Y-43349844D01*
X142654504Y-43349846D01*
X142825214Y-43632236D01*
X142975889Y-43824556D01*
X143862078Y-42938366D01*
X143941305Y-43047413D01*
X144106587Y-43212695D01*
X144215631Y-43291920D01*
X143329442Y-44178109D01*
X143329442Y-44178110D01*
X143521763Y-44328785D01*
X143804153Y-44499495D01*
X143804155Y-44499497D01*
X144105049Y-44634918D01*
X144105064Y-44634924D01*
X144420065Y-44733081D01*
X144744640Y-44792562D01*
X145074000Y-44812484D01*
X145403359Y-44792562D01*
X145623388Y-44752240D01*
X145692878Y-44759518D01*
X145747401Y-44803209D01*
X145769648Y-44869442D01*
X145752555Y-44937189D01*
X145733409Y-44961903D01*
X144576064Y-46118916D01*
X144575929Y-46119035D01*
X144570284Y-46124680D01*
X144514289Y-46180674D01*
X144458500Y-46236447D01*
X144431480Y-46283249D01*
X144419878Y-46303345D01*
X144407948Y-46324000D01*
X144379450Y-46373343D01*
X144379426Y-46373402D01*
X144359639Y-46447250D01*
X144359634Y-46447266D01*
X144338500Y-46526096D01*
X144338500Y-46601694D01*
X144338487Y-46692326D01*
X144338500Y-46692521D01*
X144338500Y-47959373D01*
X144318815Y-48026412D01*
X144266011Y-48072167D01*
X144196853Y-48082111D01*
X144133297Y-48053086D01*
X144129604Y-48049503D01*
X144129554Y-48049558D01*
X144125777Y-48046081D01*
X143942634Y-47903535D01*
X143942628Y-47903531D01*
X143738504Y-47793064D01*
X143738495Y-47793061D01*
X143518984Y-47717702D01*
X143347282Y-47689050D01*
X143290049Y-47679500D01*
X143057951Y-47679500D01*
X143012164Y-47687140D01*
X142829015Y-47717702D01*
X142609504Y-47793061D01*
X142609495Y-47793064D01*
X142405371Y-47903531D01*
X142405365Y-47903535D01*
X142222222Y-48046081D01*
X142222219Y-48046084D01*
X142222216Y-48046086D01*
X142222216Y-48046087D01*
X142090791Y-48188854D01*
X142065015Y-48216854D01*
X142027808Y-48273804D01*
X141974662Y-48319161D01*
X141905430Y-48328584D01*
X141842095Y-48299082D01*
X141820192Y-48273804D01*
X141782984Y-48216854D01*
X141782982Y-48216852D01*
X141782979Y-48216847D01*
X141625784Y-48046087D01*
X141625779Y-48046083D01*
X141625777Y-48046081D01*
X141442634Y-47903535D01*
X141442628Y-47903531D01*
X141238504Y-47793064D01*
X141238495Y-47793061D01*
X141018984Y-47717702D01*
X140847282Y-47689050D01*
X140790049Y-47679500D01*
X140557951Y-47679500D01*
X140512164Y-47687140D01*
X140329015Y-47717702D01*
X140109504Y-47793061D01*
X140109495Y-47793064D01*
X139905371Y-47903531D01*
X139905365Y-47903535D01*
X139722222Y-48046081D01*
X139722219Y-48046084D01*
X139722216Y-48046086D01*
X139722216Y-48046087D01*
X139565021Y-48216847D01*
X139565019Y-48216849D01*
X139565017Y-48216852D01*
X139527509Y-48274262D01*
X139474362Y-48319618D01*
X139405131Y-48329041D01*
X139341795Y-48299538D01*
X139327084Y-48282561D01*
X139325186Y-48282364D01*
X138738612Y-48868939D01*
X138733111Y-48848409D01*
X138654119Y-48711592D01*
X138542408Y-48599881D01*
X138405591Y-48520889D01*
X138385058Y-48515387D01*
X138972797Y-47927647D01*
X138972797Y-47927645D01*
X138942360Y-47903955D01*
X138942354Y-47903951D01*
X138738302Y-47793523D01*
X138738293Y-47793520D01*
X138518860Y-47718188D01*
X138290007Y-47680000D01*
X138057993Y-47680000D01*
X137829139Y-47718188D01*
X137609706Y-47793520D01*
X137609697Y-47793523D01*
X137405650Y-47903949D01*
X137375200Y-47927647D01*
X137962941Y-48515387D01*
X137942409Y-48520889D01*
X137805592Y-48599881D01*
X137693881Y-48711592D01*
X137614889Y-48848409D01*
X137609387Y-48868940D01*
X137022812Y-48282365D01*
X136938516Y-48411391D01*
X136938514Y-48411395D01*
X136845317Y-48623864D01*
X136788361Y-48848781D01*
X136769202Y-49079994D01*
X136769202Y-49080000D01*
X136788361Y-49311218D01*
X136845577Y-49537160D01*
X136842952Y-49606980D01*
X136802995Y-49664298D01*
X136738394Y-49690914D01*
X136725371Y-49691600D01*
X125954145Y-49691600D01*
X125887106Y-49671915D01*
X125841351Y-49619111D01*
X125831407Y-49549953D01*
X125833939Y-49537159D01*
X125834157Y-49536300D01*
X125891134Y-49311305D01*
X125891135Y-49311297D01*
X125910300Y-49080006D01*
X125910300Y-49079993D01*
X125891135Y-48848702D01*
X125891133Y-48848691D01*
X125834157Y-48623699D01*
X125740924Y-48411151D01*
X125613983Y-48216852D01*
X125613980Y-48216849D01*
X125613979Y-48216847D01*
X125456784Y-48046087D01*
X125456779Y-48046083D01*
X125456777Y-48046081D01*
X125273634Y-47903535D01*
X125273628Y-47903531D01*
X125069504Y-47793064D01*
X125069495Y-47793061D01*
X124849984Y-47717702D01*
X124678282Y-47689050D01*
X124621049Y-47679500D01*
X124388951Y-47679500D01*
X124343164Y-47687140D01*
X124160015Y-47717702D01*
X123940504Y-47793061D01*
X123940495Y-47793064D01*
X123736371Y-47903531D01*
X123736365Y-47903535D01*
X123553222Y-48046081D01*
X123553219Y-48046084D01*
X123553216Y-48046086D01*
X123553216Y-48046087D01*
X123421791Y-48188854D01*
X123396015Y-48216854D01*
X123358808Y-48273804D01*
X123305662Y-48319161D01*
X123236430Y-48328584D01*
X123173095Y-48299082D01*
X123151192Y-48273804D01*
X123113984Y-48216854D01*
X123113982Y-48216852D01*
X123113979Y-48216847D01*
X122956784Y-48046087D01*
X122956779Y-48046083D01*
X122956777Y-48046081D01*
X122773634Y-47903535D01*
X122773628Y-47903531D01*
X122569504Y-47793064D01*
X122569495Y-47793061D01*
X122349984Y-47717702D01*
X122178282Y-47689050D01*
X122121049Y-47679500D01*
X121888951Y-47679500D01*
X121843164Y-47687140D01*
X121660015Y-47717702D01*
X121440504Y-47793061D01*
X121440495Y-47793064D01*
X121236371Y-47903531D01*
X121236365Y-47903535D01*
X121053222Y-48046081D01*
X121053219Y-48046084D01*
X121053216Y-48046086D01*
X121053216Y-48046087D01*
X120896021Y-48216847D01*
X120896019Y-48216849D01*
X120896017Y-48216852D01*
X120858509Y-48274262D01*
X120805362Y-48319618D01*
X120736131Y-48329041D01*
X120672795Y-48299538D01*
X120658084Y-48282561D01*
X120656186Y-48282364D01*
X120069612Y-48868939D01*
X120064111Y-48848409D01*
X119985119Y-48711592D01*
X119873408Y-48599881D01*
X119736591Y-48520889D01*
X119716058Y-48515387D01*
X120303797Y-47927647D01*
X120303797Y-47927645D01*
X120273360Y-47903955D01*
X120273354Y-47903951D01*
X120069302Y-47793523D01*
X120069293Y-47793520D01*
X119849860Y-47718188D01*
X119621007Y-47680000D01*
X119388993Y-47680000D01*
X119160139Y-47718188D01*
X118940706Y-47793520D01*
X118940697Y-47793523D01*
X118736650Y-47903949D01*
X118706200Y-47927647D01*
X119293941Y-48515387D01*
X119273409Y-48520889D01*
X119136592Y-48599881D01*
X119024881Y-48711592D01*
X118945889Y-48848409D01*
X118940387Y-48868940D01*
X118353812Y-48282365D01*
X118269516Y-48411391D01*
X118269514Y-48411395D01*
X118176317Y-48623864D01*
X118119361Y-48848781D01*
X118100202Y-49079994D01*
X118100202Y-49080000D01*
X118119361Y-49311218D01*
X118176577Y-49537160D01*
X118173952Y-49606980D01*
X118133995Y-49664298D01*
X118069394Y-49690914D01*
X118056371Y-49691600D01*
X107726537Y-49691600D01*
X107659498Y-49671915D01*
X107638853Y-49655278D01*
X107447764Y-49464175D01*
X107414281Y-49402851D01*
X107415243Y-49346055D01*
X107421304Y-49322124D01*
X107431134Y-49283305D01*
X107431135Y-49283297D01*
X107450300Y-49052006D01*
X107450300Y-49051993D01*
X107431135Y-48820702D01*
X107431133Y-48820691D01*
X107374157Y-48595699D01*
X107280924Y-48383151D01*
X107153983Y-48188852D01*
X107153980Y-48188849D01*
X107153979Y-48188847D01*
X106996784Y-48018087D01*
X106996779Y-48018083D01*
X106996777Y-48018081D01*
X106813634Y-47875535D01*
X106813628Y-47875531D01*
X106609504Y-47765064D01*
X106609495Y-47765061D01*
X106389984Y-47689702D01*
X106218282Y-47661050D01*
X106161049Y-47651500D01*
X105928951Y-47651500D01*
X105883164Y-47659140D01*
X105700015Y-47689702D01*
X105480504Y-47765061D01*
X105480495Y-47765064D01*
X105276371Y-47875531D01*
X105276365Y-47875535D01*
X105093222Y-48018081D01*
X105093219Y-48018084D01*
X105093216Y-48018086D01*
X105093216Y-48018087D01*
X104963460Y-48159041D01*
X104936015Y-48188854D01*
X104898808Y-48245804D01*
X104845662Y-48291161D01*
X104776430Y-48300584D01*
X104713095Y-48271082D01*
X104691192Y-48245804D01*
X104653984Y-48188854D01*
X104653982Y-48188852D01*
X104653979Y-48188847D01*
X104496784Y-48018087D01*
X104496779Y-48018083D01*
X104496777Y-48018081D01*
X104313634Y-47875535D01*
X104313628Y-47875531D01*
X104109504Y-47765064D01*
X104109495Y-47765061D01*
X103889984Y-47689702D01*
X103718282Y-47661050D01*
X103661049Y-47651500D01*
X103428951Y-47651500D01*
X103383164Y-47659140D01*
X103200015Y-47689702D01*
X102980504Y-47765061D01*
X102980495Y-47765064D01*
X102776371Y-47875531D01*
X102776365Y-47875535D01*
X102593222Y-48018081D01*
X102593219Y-48018084D01*
X102593216Y-48018086D01*
X102593216Y-48018087D01*
X102436021Y-48188847D01*
X102436019Y-48188849D01*
X102436017Y-48188852D01*
X102398509Y-48246262D01*
X102345362Y-48291618D01*
X102276131Y-48301041D01*
X102212795Y-48271538D01*
X102198084Y-48254561D01*
X102196186Y-48254364D01*
X101609612Y-48840939D01*
X101604111Y-48820409D01*
X101525119Y-48683592D01*
X101413408Y-48571881D01*
X101276591Y-48492889D01*
X101256058Y-48487387D01*
X101843797Y-47899647D01*
X101843797Y-47899645D01*
X101813360Y-47875955D01*
X101813354Y-47875951D01*
X101609302Y-47765523D01*
X101609293Y-47765520D01*
X101389860Y-47690188D01*
X101161007Y-47652000D01*
X100928993Y-47652000D01*
X100700139Y-47690188D01*
X100480706Y-47765520D01*
X100480697Y-47765523D01*
X100276650Y-47875949D01*
X100246200Y-47899647D01*
X100833941Y-48487387D01*
X100813409Y-48492889D01*
X100676592Y-48571881D01*
X100564881Y-48683592D01*
X100485889Y-48820409D01*
X100480387Y-48840940D01*
X99893812Y-48254365D01*
X99809516Y-48383391D01*
X99809514Y-48383395D01*
X99716317Y-48595864D01*
X99659361Y-48820781D01*
X99640202Y-49051994D01*
X99640202Y-49052000D01*
X99659361Y-49283218D01*
X99716317Y-49508135D01*
X99717981Y-49512980D01*
X99716313Y-49513552D01*
X99724238Y-49575176D01*
X99694268Y-49638292D01*
X99634933Y-49675185D01*
X99601777Y-49679700D01*
X89700719Y-49679700D01*
X89633680Y-49660015D01*
X89613038Y-49643381D01*
X89291781Y-49322124D01*
X89258296Y-49260801D01*
X89259257Y-49204001D01*
X89275132Y-49141313D01*
X89275135Y-49141297D01*
X89294300Y-48910006D01*
X89294300Y-48909993D01*
X89275135Y-48678702D01*
X89275133Y-48678691D01*
X89218157Y-48453699D01*
X89124924Y-48241151D01*
X88997983Y-48046852D01*
X88997980Y-48046849D01*
X88997979Y-48046847D01*
X88840784Y-47876087D01*
X88840779Y-47876083D01*
X88840777Y-47876081D01*
X88657634Y-47733535D01*
X88657628Y-47733531D01*
X88453504Y-47623064D01*
X88453495Y-47623061D01*
X88233984Y-47547702D01*
X88062282Y-47519050D01*
X88005049Y-47509500D01*
X87772951Y-47509500D01*
X87754266Y-47512618D01*
X87544015Y-47547702D01*
X87324504Y-47623061D01*
X87324495Y-47623064D01*
X87120371Y-47733531D01*
X87120365Y-47733535D01*
X86937222Y-47876081D01*
X86937219Y-47876084D01*
X86937216Y-47876086D01*
X86937216Y-47876087D01*
X86780724Y-48046084D01*
X86780015Y-48046854D01*
X86742808Y-48103804D01*
X86689662Y-48149161D01*
X86620430Y-48158584D01*
X86557095Y-48129082D01*
X86535192Y-48103804D01*
X86497984Y-48046854D01*
X86497982Y-48046852D01*
X86497979Y-48046847D01*
X86340784Y-47876087D01*
X86340779Y-47876083D01*
X86340777Y-47876081D01*
X86157634Y-47733535D01*
X86157628Y-47733531D01*
X85953504Y-47623064D01*
X85953495Y-47623061D01*
X85733984Y-47547702D01*
X85562282Y-47519050D01*
X85505049Y-47509500D01*
X85272951Y-47509500D01*
X85254266Y-47512618D01*
X85044015Y-47547702D01*
X84824504Y-47623061D01*
X84824495Y-47623064D01*
X84620371Y-47733531D01*
X84620365Y-47733535D01*
X84437222Y-47876081D01*
X84437219Y-47876084D01*
X84437216Y-47876086D01*
X84437216Y-47876087D01*
X84280021Y-48046847D01*
X84280019Y-48046849D01*
X84280017Y-48046852D01*
X84242509Y-48104262D01*
X84189362Y-48149618D01*
X84120131Y-48159041D01*
X84056795Y-48129538D01*
X84042084Y-48112561D01*
X84040186Y-48112364D01*
X83453612Y-48698939D01*
X83448111Y-48678409D01*
X83369119Y-48541592D01*
X83257408Y-48429881D01*
X83120591Y-48350889D01*
X83100058Y-48345387D01*
X83687797Y-47757647D01*
X83687797Y-47757645D01*
X83657360Y-47733955D01*
X83657354Y-47733951D01*
X83453302Y-47623523D01*
X83453293Y-47623520D01*
X83233860Y-47548188D01*
X83005007Y-47510000D01*
X82772993Y-47510000D01*
X82544139Y-47548188D01*
X82324706Y-47623520D01*
X82324697Y-47623523D01*
X82120650Y-47733949D01*
X82090200Y-47757647D01*
X82677941Y-48345387D01*
X82657409Y-48350889D01*
X82520592Y-48429881D01*
X82408881Y-48541592D01*
X82329889Y-48678409D01*
X82324387Y-48698940D01*
X81737812Y-48112365D01*
X81653516Y-48241391D01*
X81653514Y-48241395D01*
X81560317Y-48453864D01*
X81503361Y-48678781D01*
X81484202Y-48909994D01*
X71000000Y-48909994D01*
X71000000Y-41910000D01*
X78256515Y-41910000D01*
X78276437Y-42239359D01*
X78335918Y-42563934D01*
X78434075Y-42878935D01*
X78434081Y-42878950D01*
X78569502Y-43179844D01*
X78569504Y-43179846D01*
X78740214Y-43462236D01*
X78890889Y-43654556D01*
X79777078Y-42768366D01*
X79856305Y-42877413D01*
X80021587Y-43042695D01*
X80130631Y-43121920D01*
X79244442Y-44008109D01*
X79244442Y-44008110D01*
X79436763Y-44158785D01*
X79719153Y-44329495D01*
X79719155Y-44329497D01*
X80020049Y-44464918D01*
X80020064Y-44464924D01*
X80335065Y-44563081D01*
X80659640Y-44622562D01*
X80989000Y-44642484D01*
X81318359Y-44622562D01*
X81642934Y-44563081D01*
X81957935Y-44464924D01*
X81957950Y-44464918D01*
X82258844Y-44329497D01*
X82258846Y-44329495D01*
X82541226Y-44158791D01*
X82541234Y-44158785D01*
X82733556Y-44008110D01*
X82733556Y-44008109D01*
X81847367Y-43121920D01*
X81956413Y-43042695D01*
X82121695Y-42877413D01*
X82200920Y-42768367D01*
X83087109Y-43654556D01*
X83087110Y-43654556D01*
X83237785Y-43462234D01*
X83237791Y-43462226D01*
X83408495Y-43179846D01*
X83408497Y-43179844D01*
X83543918Y-42878950D01*
X83543924Y-42878935D01*
X83642081Y-42563934D01*
X83701562Y-42239359D01*
X83721484Y-41910000D01*
X87056515Y-41910000D01*
X87076437Y-42239359D01*
X87135918Y-42563934D01*
X87234075Y-42878935D01*
X87234081Y-42878950D01*
X87369502Y-43179844D01*
X87369504Y-43179846D01*
X87540214Y-43462236D01*
X87690889Y-43654556D01*
X88577078Y-42768366D01*
X88656305Y-42877413D01*
X88821587Y-43042695D01*
X88930631Y-43121920D01*
X88044442Y-44008109D01*
X88044442Y-44008110D01*
X88236763Y-44158785D01*
X88519153Y-44329495D01*
X88519155Y-44329497D01*
X88820049Y-44464918D01*
X88820064Y-44464924D01*
X89135065Y-44563081D01*
X89459640Y-44622562D01*
X89789000Y-44642484D01*
X90118359Y-44622562D01*
X90442934Y-44563081D01*
X90757935Y-44464924D01*
X90757950Y-44464918D01*
X91058844Y-44329497D01*
X91058846Y-44329495D01*
X91341226Y-44158791D01*
X91341234Y-44158785D01*
X91533556Y-44008110D01*
X91533556Y-44008109D01*
X90647367Y-43121920D01*
X90756413Y-43042695D01*
X90921695Y-42877413D01*
X91000920Y-42768367D01*
X91887109Y-43654556D01*
X91887110Y-43654556D01*
X92037785Y-43462234D01*
X92037791Y-43462226D01*
X92208495Y-43179846D01*
X92208497Y-43179844D01*
X92343918Y-42878950D01*
X92343924Y-42878935D01*
X92442081Y-42563934D01*
X92501562Y-42239359D01*
X92512895Y-42052000D01*
X96412515Y-42052000D01*
X96432437Y-42381359D01*
X96491918Y-42705934D01*
X96590075Y-43020935D01*
X96590081Y-43020950D01*
X96725502Y-43321844D01*
X96725504Y-43321846D01*
X96896214Y-43604236D01*
X97046889Y-43796556D01*
X97933078Y-42910366D01*
X98012305Y-43019413D01*
X98177587Y-43184695D01*
X98286631Y-43263920D01*
X97400442Y-44150109D01*
X97400442Y-44150110D01*
X97592763Y-44300785D01*
X97875153Y-44471495D01*
X97875155Y-44471497D01*
X98176049Y-44606918D01*
X98176064Y-44606924D01*
X98491065Y-44705081D01*
X98815640Y-44764562D01*
X99145000Y-44784484D01*
X99474359Y-44764562D01*
X99798934Y-44705081D01*
X100113935Y-44606924D01*
X100113950Y-44606918D01*
X100414844Y-44471497D01*
X100414846Y-44471495D01*
X100697226Y-44300791D01*
X100697234Y-44300785D01*
X100889556Y-44150110D01*
X100889556Y-44150109D01*
X100003367Y-43263920D01*
X100112413Y-43184695D01*
X100277695Y-43019413D01*
X100356920Y-42910367D01*
X101243109Y-43796556D01*
X101243110Y-43796556D01*
X101393785Y-43604234D01*
X101393791Y-43604226D01*
X101564495Y-43321846D01*
X101564497Y-43321844D01*
X101699918Y-43020950D01*
X101699924Y-43020935D01*
X101798081Y-42705934D01*
X101857562Y-42381359D01*
X101877484Y-42052000D01*
X105212515Y-42052000D01*
X105232437Y-42381359D01*
X105291918Y-42705934D01*
X105390075Y-43020935D01*
X105390081Y-43020950D01*
X105525502Y-43321844D01*
X105525504Y-43321846D01*
X105696214Y-43604236D01*
X105846889Y-43796556D01*
X106733078Y-42910366D01*
X106812305Y-43019413D01*
X106977587Y-43184695D01*
X107086631Y-43263920D01*
X106200442Y-44150109D01*
X106200442Y-44150110D01*
X106392763Y-44300785D01*
X106675153Y-44471495D01*
X106675155Y-44471497D01*
X106976049Y-44606918D01*
X106976064Y-44606924D01*
X107291065Y-44705081D01*
X107615640Y-44764562D01*
X107945000Y-44784484D01*
X108274359Y-44764562D01*
X108598934Y-44705081D01*
X108913935Y-44606924D01*
X108913950Y-44606918D01*
X109214844Y-44471497D01*
X109214846Y-44471495D01*
X109497226Y-44300791D01*
X109497234Y-44300785D01*
X109689556Y-44150110D01*
X109689556Y-44150109D01*
X108803367Y-43263920D01*
X108912413Y-43184695D01*
X109077695Y-43019413D01*
X109156920Y-42910367D01*
X110043109Y-43796556D01*
X110043110Y-43796556D01*
X110193785Y-43604234D01*
X110193791Y-43604226D01*
X110364495Y-43321846D01*
X110364497Y-43321844D01*
X110499918Y-43020950D01*
X110499924Y-43020935D01*
X110598081Y-42705934D01*
X110657562Y-42381359D01*
X110675790Y-42080000D01*
X114872515Y-42080000D01*
X114892437Y-42409359D01*
X114951918Y-42733934D01*
X115050075Y-43048935D01*
X115050081Y-43048950D01*
X115185502Y-43349844D01*
X115185504Y-43349846D01*
X115356214Y-43632236D01*
X115506889Y-43824556D01*
X116393078Y-42938366D01*
X116472305Y-43047413D01*
X116637587Y-43212695D01*
X116746631Y-43291920D01*
X115860442Y-44178109D01*
X115860442Y-44178110D01*
X116052763Y-44328785D01*
X116335153Y-44499495D01*
X116335155Y-44499497D01*
X116636049Y-44634918D01*
X116636064Y-44634924D01*
X116951065Y-44733081D01*
X117275640Y-44792562D01*
X117605000Y-44812484D01*
X117934359Y-44792562D01*
X118258934Y-44733081D01*
X118573935Y-44634924D01*
X118573950Y-44634918D01*
X118874844Y-44499497D01*
X118874846Y-44499495D01*
X119157226Y-44328791D01*
X119157234Y-44328785D01*
X119349556Y-44178110D01*
X119349556Y-44178109D01*
X118463367Y-43291920D01*
X118572413Y-43212695D01*
X118737695Y-43047413D01*
X118816920Y-42938367D01*
X119703109Y-43824556D01*
X119703110Y-43824556D01*
X119853785Y-43632234D01*
X119853791Y-43632226D01*
X120024495Y-43349846D01*
X120024497Y-43349844D01*
X120159918Y-43048950D01*
X120159924Y-43048935D01*
X120258081Y-42733934D01*
X120317562Y-42409359D01*
X120337484Y-42080000D01*
X123672515Y-42080000D01*
X123692437Y-42409359D01*
X123751918Y-42733934D01*
X123850075Y-43048935D01*
X123850081Y-43048950D01*
X123985502Y-43349844D01*
X123985504Y-43349846D01*
X124156214Y-43632236D01*
X124306889Y-43824556D01*
X125193078Y-42938366D01*
X125272305Y-43047413D01*
X125437587Y-43212695D01*
X125546631Y-43291920D01*
X124660442Y-44178109D01*
X124660442Y-44178110D01*
X124852763Y-44328785D01*
X125135153Y-44499495D01*
X125135155Y-44499497D01*
X125436049Y-44634918D01*
X125436064Y-44634924D01*
X125751065Y-44733081D01*
X126075640Y-44792562D01*
X126405000Y-44812484D01*
X126734359Y-44792562D01*
X127058934Y-44733081D01*
X127373935Y-44634924D01*
X127373950Y-44634918D01*
X127674844Y-44499497D01*
X127674846Y-44499495D01*
X127957226Y-44328791D01*
X127957234Y-44328785D01*
X128149556Y-44178110D01*
X128149556Y-44178109D01*
X127263367Y-43291920D01*
X127372413Y-43212695D01*
X127537695Y-43047413D01*
X127616920Y-42938367D01*
X128503109Y-43824556D01*
X128503110Y-43824556D01*
X128653785Y-43632234D01*
X128653791Y-43632226D01*
X128824495Y-43349846D01*
X128824497Y-43349844D01*
X128959918Y-43048950D01*
X128959924Y-43048935D01*
X129058081Y-42733934D01*
X129117562Y-42409359D01*
X129137484Y-42080000D01*
X133541515Y-42080000D01*
X133561437Y-42409359D01*
X133620918Y-42733934D01*
X133719075Y-43048935D01*
X133719081Y-43048950D01*
X133854502Y-43349844D01*
X133854504Y-43349846D01*
X134025214Y-43632236D01*
X134175889Y-43824556D01*
X135062078Y-42938366D01*
X135141305Y-43047413D01*
X135306587Y-43212695D01*
X135415631Y-43291920D01*
X134529442Y-44178109D01*
X134529442Y-44178110D01*
X134721763Y-44328785D01*
X135004153Y-44499495D01*
X135004155Y-44499497D01*
X135305049Y-44634918D01*
X135305064Y-44634924D01*
X135620065Y-44733081D01*
X135944640Y-44792562D01*
X136274000Y-44812484D01*
X136603359Y-44792562D01*
X136927934Y-44733081D01*
X137242935Y-44634924D01*
X137242950Y-44634918D01*
X137543844Y-44499497D01*
X137543846Y-44499495D01*
X137826226Y-44328791D01*
X137826234Y-44328785D01*
X138018556Y-44178110D01*
X138018556Y-44178109D01*
X137132367Y-43291920D01*
X137241413Y-43212695D01*
X137406695Y-43047413D01*
X137485920Y-42938367D01*
X138372109Y-43824556D01*
X138372110Y-43824556D01*
X138522785Y-43632234D01*
X138522791Y-43632226D01*
X138693495Y-43349846D01*
X138693497Y-43349844D01*
X138828918Y-43048950D01*
X138828924Y-43048935D01*
X138927081Y-42733934D01*
X138986562Y-42409359D01*
X139006484Y-42080000D01*
X138986562Y-41750640D01*
X138927081Y-41426065D01*
X138828924Y-41111064D01*
X138828918Y-41111049D01*
X138693497Y-40810155D01*
X138693495Y-40810153D01*
X138522785Y-40527763D01*
X138372109Y-40335442D01*
X137485920Y-41221631D01*
X137406695Y-41112587D01*
X137241413Y-40947305D01*
X137132366Y-40868078D01*
X138018556Y-39981889D01*
X138018556Y-39981888D01*
X137826236Y-39831214D01*
X137543846Y-39660504D01*
X137543844Y-39660502D01*
X137242950Y-39525081D01*
X137242935Y-39525075D01*
X136927934Y-39426918D01*
X136603359Y-39367437D01*
X136274000Y-39347515D01*
X135944640Y-39367437D01*
X135620065Y-39426918D01*
X135305064Y-39525075D01*
X135305049Y-39525081D01*
X135004155Y-39660502D01*
X135004153Y-39660504D01*
X134721773Y-39831208D01*
X134529442Y-39981889D01*
X135415632Y-40868079D01*
X135306587Y-40947305D01*
X135141305Y-41112587D01*
X135062079Y-41221632D01*
X134175889Y-40335442D01*
X134025208Y-40527773D01*
X133854504Y-40810153D01*
X133854502Y-40810155D01*
X133719081Y-41111049D01*
X133719075Y-41111064D01*
X133620918Y-41426065D01*
X133561437Y-41750640D01*
X133541515Y-42080000D01*
X129137484Y-42080000D01*
X129117562Y-41750640D01*
X129058081Y-41426065D01*
X128959924Y-41111064D01*
X128959918Y-41111049D01*
X128824497Y-40810155D01*
X128824495Y-40810153D01*
X128653785Y-40527763D01*
X128503109Y-40335442D01*
X127616920Y-41221631D01*
X127537695Y-41112587D01*
X127372413Y-40947305D01*
X127263366Y-40868078D01*
X128149556Y-39981889D01*
X128149556Y-39981888D01*
X127957236Y-39831214D01*
X127674846Y-39660504D01*
X127674844Y-39660502D01*
X127373950Y-39525081D01*
X127373935Y-39525075D01*
X127058934Y-39426918D01*
X126734359Y-39367437D01*
X126405000Y-39347515D01*
X126075640Y-39367437D01*
X125751065Y-39426918D01*
X125436064Y-39525075D01*
X125436049Y-39525081D01*
X125135155Y-39660502D01*
X125135153Y-39660504D01*
X124852773Y-39831208D01*
X124660442Y-39981889D01*
X125546632Y-40868079D01*
X125437587Y-40947305D01*
X125272305Y-41112587D01*
X125193079Y-41221632D01*
X124306889Y-40335442D01*
X124156208Y-40527773D01*
X123985504Y-40810153D01*
X123985502Y-40810155D01*
X123850081Y-41111049D01*
X123850075Y-41111064D01*
X123751918Y-41426065D01*
X123692437Y-41750640D01*
X123672515Y-42080000D01*
X120337484Y-42080000D01*
X120317562Y-41750640D01*
X120258081Y-41426065D01*
X120159924Y-41111064D01*
X120159918Y-41111049D01*
X120024497Y-40810155D01*
X120024495Y-40810153D01*
X119853785Y-40527763D01*
X119703109Y-40335442D01*
X118816920Y-41221631D01*
X118737695Y-41112587D01*
X118572413Y-40947305D01*
X118463366Y-40868078D01*
X119349556Y-39981889D01*
X119349556Y-39981888D01*
X119157236Y-39831214D01*
X118874846Y-39660504D01*
X118874844Y-39660502D01*
X118573950Y-39525081D01*
X118573935Y-39525075D01*
X118258934Y-39426918D01*
X117934359Y-39367437D01*
X117605000Y-39347515D01*
X117275640Y-39367437D01*
X116951065Y-39426918D01*
X116636064Y-39525075D01*
X116636049Y-39525081D01*
X116335155Y-39660502D01*
X116335153Y-39660504D01*
X116052773Y-39831208D01*
X115860442Y-39981889D01*
X116746632Y-40868079D01*
X116637587Y-40947305D01*
X116472305Y-41112587D01*
X116393079Y-41221632D01*
X115506889Y-40335442D01*
X115356208Y-40527773D01*
X115185504Y-40810153D01*
X115185502Y-40810155D01*
X115050081Y-41111049D01*
X115050075Y-41111064D01*
X114951918Y-41426065D01*
X114892437Y-41750640D01*
X114872515Y-42080000D01*
X110675790Y-42080000D01*
X110677484Y-42052000D01*
X110657562Y-41722640D01*
X110598081Y-41398065D01*
X110499924Y-41083064D01*
X110499918Y-41083049D01*
X110364497Y-40782155D01*
X110364495Y-40782153D01*
X110193785Y-40499763D01*
X110043109Y-40307442D01*
X109156920Y-41193631D01*
X109077695Y-41084587D01*
X108912413Y-40919305D01*
X108803366Y-40840078D01*
X109689556Y-39953889D01*
X109689556Y-39953888D01*
X109497236Y-39803214D01*
X109214846Y-39632504D01*
X109214844Y-39632502D01*
X108913950Y-39497081D01*
X108913935Y-39497075D01*
X108598934Y-39398918D01*
X108274359Y-39339437D01*
X107945000Y-39319515D01*
X107615640Y-39339437D01*
X107291065Y-39398918D01*
X106976064Y-39497075D01*
X106976049Y-39497081D01*
X106675155Y-39632502D01*
X106675153Y-39632504D01*
X106392773Y-39803208D01*
X106200442Y-39953889D01*
X107086632Y-40840079D01*
X106977587Y-40919305D01*
X106812305Y-41084587D01*
X106733079Y-41193632D01*
X105846889Y-40307442D01*
X105696208Y-40499773D01*
X105525504Y-40782153D01*
X105525502Y-40782155D01*
X105390081Y-41083049D01*
X105390075Y-41083064D01*
X105291918Y-41398065D01*
X105232437Y-41722640D01*
X105212515Y-42052000D01*
X101877484Y-42052000D01*
X101857562Y-41722640D01*
X101798081Y-41398065D01*
X101699924Y-41083064D01*
X101699918Y-41083049D01*
X101564497Y-40782155D01*
X101564495Y-40782153D01*
X101393785Y-40499763D01*
X101243109Y-40307442D01*
X100356920Y-41193631D01*
X100277695Y-41084587D01*
X100112413Y-40919305D01*
X100003366Y-40840078D01*
X100889556Y-39953889D01*
X100889556Y-39953888D01*
X100697236Y-39803214D01*
X100414846Y-39632504D01*
X100414844Y-39632502D01*
X100113950Y-39497081D01*
X100113935Y-39497075D01*
X99798934Y-39398918D01*
X99474359Y-39339437D01*
X99145000Y-39319515D01*
X98815640Y-39339437D01*
X98491065Y-39398918D01*
X98176064Y-39497075D01*
X98176049Y-39497081D01*
X97875155Y-39632502D01*
X97875153Y-39632504D01*
X97592773Y-39803208D01*
X97400442Y-39953889D01*
X98286632Y-40840079D01*
X98177587Y-40919305D01*
X98012305Y-41084587D01*
X97933079Y-41193632D01*
X97046889Y-40307442D01*
X96896208Y-40499773D01*
X96725504Y-40782153D01*
X96725502Y-40782155D01*
X96590081Y-41083049D01*
X96590075Y-41083064D01*
X96491918Y-41398065D01*
X96432437Y-41722640D01*
X96412515Y-42052000D01*
X92512895Y-42052000D01*
X92521484Y-41910000D01*
X92501562Y-41580640D01*
X92442081Y-41256065D01*
X92343924Y-40941064D01*
X92343918Y-40941049D01*
X92208497Y-40640155D01*
X92208495Y-40640153D01*
X92037785Y-40357763D01*
X91887109Y-40165442D01*
X91000920Y-41051631D01*
X90921695Y-40942587D01*
X90756413Y-40777305D01*
X90647366Y-40698078D01*
X91533556Y-39811889D01*
X91533556Y-39811888D01*
X91341236Y-39661214D01*
X91058846Y-39490504D01*
X91058844Y-39490502D01*
X90757950Y-39355081D01*
X90757935Y-39355075D01*
X90442934Y-39256918D01*
X90118359Y-39197437D01*
X89789000Y-39177515D01*
X89459640Y-39197437D01*
X89135065Y-39256918D01*
X88820064Y-39355075D01*
X88820049Y-39355081D01*
X88519155Y-39490502D01*
X88519153Y-39490504D01*
X88236773Y-39661208D01*
X88044442Y-39811889D01*
X88930632Y-40698079D01*
X88821587Y-40777305D01*
X88656305Y-40942587D01*
X88577079Y-41051632D01*
X87690889Y-40165442D01*
X87540208Y-40357773D01*
X87369504Y-40640153D01*
X87369502Y-40640155D01*
X87234081Y-40941049D01*
X87234075Y-40941064D01*
X87135918Y-41256065D01*
X87076437Y-41580640D01*
X87056515Y-41910000D01*
X83721484Y-41910000D01*
X83701562Y-41580640D01*
X83642081Y-41256065D01*
X83543924Y-40941064D01*
X83543918Y-40941049D01*
X83408497Y-40640155D01*
X83408495Y-40640153D01*
X83237785Y-40357763D01*
X83087109Y-40165442D01*
X82200920Y-41051631D01*
X82121695Y-40942587D01*
X81956413Y-40777305D01*
X81847366Y-40698078D01*
X82733556Y-39811889D01*
X82733556Y-39811888D01*
X82541236Y-39661214D01*
X82258846Y-39490504D01*
X82258844Y-39490502D01*
X81957950Y-39355081D01*
X81957935Y-39355075D01*
X81642934Y-39256918D01*
X81318359Y-39197437D01*
X80989000Y-39177515D01*
X80659640Y-39197437D01*
X80335065Y-39256918D01*
X80020064Y-39355075D01*
X80020049Y-39355081D01*
X79719155Y-39490502D01*
X79719153Y-39490504D01*
X79436773Y-39661208D01*
X79244442Y-39811889D01*
X80130632Y-40698079D01*
X80021587Y-40777305D01*
X79856305Y-40942587D01*
X79777079Y-41051632D01*
X78890889Y-40165442D01*
X78740208Y-40357773D01*
X78569504Y-40640153D01*
X78569502Y-40640155D01*
X78434081Y-40941049D01*
X78434075Y-40941064D01*
X78335918Y-41256065D01*
X78276437Y-41580640D01*
X78256515Y-41910000D01*
X71000000Y-41910000D01*
X71000000Y-32000000D01*
X71894592Y-32000000D01*
X71914201Y-32286680D01*
X71972666Y-32568034D01*
X71972667Y-32568037D01*
X72068894Y-32838793D01*
X72068893Y-32838793D01*
X72201098Y-33093935D01*
X72366812Y-33328700D01*
X72451923Y-33419831D01*
X72562947Y-33538708D01*
X72785853Y-33720055D01*
X73031382Y-33869365D01*
X73218237Y-33950526D01*
X73294942Y-33983844D01*
X73571642Y-34061371D01*
X73821920Y-34095771D01*
X73856321Y-34100500D01*
X73856322Y-34100500D01*
X74143679Y-34100500D01*
X74174370Y-34096281D01*
X74428358Y-34061371D01*
X74705058Y-33983844D01*
X74818015Y-33934779D01*
X74968617Y-33869365D01*
X74968620Y-33869363D01*
X74968625Y-33869361D01*
X75214147Y-33720055D01*
X75437053Y-33538708D01*
X75633189Y-33328698D01*
X75798901Y-33093936D01*
X75931104Y-32838797D01*
X76027334Y-32568032D01*
X76085798Y-32286686D01*
X76105408Y-32000000D01*
X162894592Y-32000000D01*
X162914201Y-32286680D01*
X162972666Y-32568034D01*
X162972667Y-32568037D01*
X163068894Y-32838793D01*
X163068893Y-32838793D01*
X163201098Y-33093935D01*
X163366812Y-33328700D01*
X163451923Y-33419831D01*
X163562947Y-33538708D01*
X163785853Y-33720055D01*
X164031382Y-33869365D01*
X164218237Y-33950526D01*
X164294942Y-33983844D01*
X164571642Y-34061371D01*
X164821920Y-34095771D01*
X164856321Y-34100500D01*
X164856322Y-34100500D01*
X165143679Y-34100500D01*
X165174370Y-34096281D01*
X165428358Y-34061371D01*
X165705058Y-33983844D01*
X165818015Y-33934779D01*
X165968617Y-33869365D01*
X165968620Y-33869363D01*
X165968625Y-33869361D01*
X166214147Y-33720055D01*
X166437053Y-33538708D01*
X166633189Y-33328698D01*
X166798901Y-33093936D01*
X166931104Y-32838797D01*
X167027334Y-32568032D01*
X167085798Y-32286686D01*
X167105408Y-32000000D01*
X167085798Y-31713314D01*
X167027334Y-31431968D01*
X166931105Y-31161206D01*
X166931106Y-31161206D01*
X166798901Y-30906064D01*
X166633187Y-30671299D01*
X166554554Y-30587105D01*
X166437053Y-30461292D01*
X166214147Y-30279945D01*
X166214146Y-30279944D01*
X165968617Y-30130634D01*
X165705063Y-30016158D01*
X165705061Y-30016157D01*
X165705058Y-30016156D01*
X165575578Y-29979877D01*
X165428364Y-29938630D01*
X165428359Y-29938629D01*
X165428358Y-29938629D01*
X165286018Y-29919064D01*
X165143679Y-29899500D01*
X165143678Y-29899500D01*
X164856322Y-29899500D01*
X164856321Y-29899500D01*
X164571642Y-29938629D01*
X164571635Y-29938630D01*
X164363861Y-29996845D01*
X164294942Y-30016156D01*
X164294939Y-30016156D01*
X164294936Y-30016158D01*
X164294935Y-30016158D01*
X164031382Y-30130634D01*
X163785853Y-30279944D01*
X163562950Y-30461289D01*
X163366812Y-30671299D01*
X163201098Y-30906064D01*
X163068894Y-31161206D01*
X162972667Y-31431962D01*
X162972666Y-31431965D01*
X162914201Y-31713319D01*
X162894592Y-32000000D01*
X76105408Y-32000000D01*
X76085798Y-31713314D01*
X76027334Y-31431968D01*
X75931105Y-31161206D01*
X75931106Y-31161206D01*
X75798901Y-30906064D01*
X75633187Y-30671299D01*
X75554554Y-30587105D01*
X75437053Y-30461292D01*
X75214147Y-30279945D01*
X75214146Y-30279944D01*
X74968617Y-30130634D01*
X74705063Y-30016158D01*
X74705061Y-30016157D01*
X74705058Y-30016156D01*
X74575578Y-29979877D01*
X74428364Y-29938630D01*
X74428359Y-29938629D01*
X74428358Y-29938629D01*
X74286018Y-29919064D01*
X74143679Y-29899500D01*
X74143678Y-29899500D01*
X73856322Y-29899500D01*
X73856321Y-29899500D01*
X73571642Y-29938629D01*
X73571635Y-29938630D01*
X73363861Y-29996845D01*
X73294942Y-30016156D01*
X73294939Y-30016156D01*
X73294936Y-30016158D01*
X73294935Y-30016158D01*
X73031382Y-30130634D01*
X72785853Y-30279944D01*
X72562950Y-30461289D01*
X72366812Y-30671299D01*
X72201098Y-30906064D01*
X72068894Y-31161206D01*
X71972667Y-31431962D01*
X71972666Y-31431965D01*
X71914201Y-31713319D01*
X71894592Y-32000000D01*
X71000000Y-32000000D01*
X71000000Y-29624500D01*
X71019685Y-29557461D01*
X71072489Y-29511706D01*
X71124000Y-29500500D01*
X167876000Y-29500500D01*
X167943039Y-29520185D01*
G37*
%TD.AperFunction*%
%TD*%
M02*
