%TF.GenerationSoftware,KiCad,Pcbnew,8.0.8*%
%TF.CreationDate,2025-06-29T12:39:58+09:00*%
%TF.ProjectId,EGSeparate,45475365-7061-4726-9174-652e6b696361,rev?*%
%TF.SameCoordinates,Original*%
%TF.FileFunction,Copper,L2,Bot*%
%TF.FilePolarity,Positive*%
%FSLAX46Y46*%
G04 Gerber Fmt 4.6, Leading zero omitted, Abs format (unit mm)*
G04 Created by KiCad (PCBNEW 8.0.8) date 2025-06-29 12:39:58*
%MOMM*%
%LPD*%
G01*
G04 APERTURE LIST*
G04 Aperture macros list*
%AMRoundRect*
0 Rectangle with rounded corners*
0 $1 Rounding radius*
0 $2 $3 $4 $5 $6 $7 $8 $9 X,Y pos of 4 corners*
0 Add a 4 corners polygon primitive as box body*
4,1,4,$2,$3,$4,$5,$6,$7,$8,$9,$2,$3,0*
0 Add four circle primitives for the rounded corners*
1,1,$1+$1,$2,$3*
1,1,$1+$1,$4,$5*
1,1,$1+$1,$6,$7*
1,1,$1+$1,$8,$9*
0 Add four rect primitives between the rounded corners*
20,1,$1+$1,$2,$3,$4,$5,0*
20,1,$1+$1,$4,$5,$6,$7,0*
20,1,$1+$1,$6,$7,$8,$9,0*
20,1,$1+$1,$8,$9,$2,$3,0*%
G04 Aperture macros list end*
%TA.AperFunction,ComponentPad*%
%ADD10C,1.800000*%
%TD*%
%TA.AperFunction,ComponentPad*%
%ADD11C,4.455000*%
%TD*%
%TA.AperFunction,ComponentPad*%
%ADD12R,1.159000X1.159000*%
%TD*%
%TA.AperFunction,ComponentPad*%
%ADD13C,1.159000*%
%TD*%
%TA.AperFunction,ComponentPad*%
%ADD14C,1.400000*%
%TD*%
%TA.AperFunction,ComponentPad*%
%ADD15O,1.400000X1.400000*%
%TD*%
%TA.AperFunction,ComponentPad*%
%ADD16R,1.600000X1.600000*%
%TD*%
%TA.AperFunction,ComponentPad*%
%ADD17C,1.600000*%
%TD*%
%TA.AperFunction,ComponentPad*%
%ADD18R,1.700000X1.700000*%
%TD*%
%TA.AperFunction,ComponentPad*%
%ADD19O,1.700000X1.700000*%
%TD*%
%TA.AperFunction,ComponentPad*%
%ADD20C,1.635000*%
%TD*%
%TA.AperFunction,SMDPad,CuDef*%
%ADD21RoundRect,0.250000X0.337500X0.475000X-0.337500X0.475000X-0.337500X-0.475000X0.337500X-0.475000X0*%
%TD*%
%TA.AperFunction,SMDPad,CuDef*%
%ADD22RoundRect,0.250000X0.475000X-0.337500X0.475000X0.337500X-0.475000X0.337500X-0.475000X-0.337500X0*%
%TD*%
%TA.AperFunction,ViaPad*%
%ADD23C,0.600000*%
%TD*%
%TA.AperFunction,Conductor*%
%ADD24C,0.200000*%
%TD*%
%TA.AperFunction,Conductor*%
%ADD25C,0.400000*%
%TD*%
G04 APERTURE END LIST*
D10*
%TO.P,VR5,1,CCW*%
%TO.N,GND*%
X82630000Y-71374000D03*
%TO.P,VR5,2,WIPER*%
%TO.N,AccLv*%
X85130000Y-71374000D03*
%TO.P,VR5,3,CW*%
%TO.N,+5VD*%
X87630000Y-71374000D03*
D11*
%TO.P,VR5,MH1,MH1*%
%TO.N,GND*%
X80730000Y-64374000D03*
%TO.P,VR5,MH2,MH2*%
X89530000Y-64374000D03*
%TD*%
D12*
%TO.P,IC2,1,VOUTA*%
%TO.N,Net-(IC2-VINA-)*%
X99314000Y-57404000D03*
D13*
%TO.P,IC2,2,VINA-*%
X99314000Y-59944000D03*
%TO.P,IC2,3,VINA+*%
%TO.N,Net-(IC2-VINA+)*%
X99314000Y-62484000D03*
%TO.P,IC2,4,VSS*%
%TO.N,GND*%
X99314000Y-65024000D03*
%TO.P,IC2,5,VINB+*%
%TO.N,Net-(IC2-VINB+)*%
X107124000Y-65024000D03*
%TO.P,IC2,6,VINB-*%
%TO.N,Net-(IC2-VINB-)*%
X107124000Y-62484000D03*
%TO.P,IC2,7,VOUTB*%
X107124000Y-59944000D03*
%TO.P,IC2,8,VDD*%
%TO.N,+5VD*%
X107124000Y-57404000D03*
%TD*%
D14*
%TO.P,R3,1*%
%TO.N,outFlt*%
X109985000Y-57284000D03*
D15*
%TO.P,R3,2*%
%TO.N,Net-(IC2-VINB-)*%
X109985000Y-59824000D03*
%TD*%
D10*
%TO.P,VR3,1,CCW*%
%TO.N,GND*%
X119505000Y-49080000D03*
%TO.P,VR3,2,WIPER*%
%TO.N,Sustain*%
X122005000Y-49080000D03*
%TO.P,VR3,3,CW*%
%TO.N,+5VD*%
X124505000Y-49080000D03*
D11*
%TO.P,VR3,MH1,MH1*%
%TO.N,GND*%
X117605000Y-42080000D03*
%TO.P,VR3,MH2,MH2*%
X126405000Y-42080000D03*
%TD*%
D16*
%TO.P,C3,1*%
%TO.N,+5VD*%
X157099000Y-59182000D03*
D17*
%TO.P,C3,2*%
%TO.N,GND*%
X157099000Y-61682000D03*
%TD*%
D18*
%TO.P,J6,1,Pin_1*%
%TO.N,outAmp*%
X100457000Y-73533000D03*
D19*
%TO.P,J6,2,Pin_2*%
%TO.N,outFlt*%
X102997000Y-73533000D03*
%TO.P,J6,3,Pin_3*%
%TO.N,GND*%
X105537000Y-73533000D03*
%TD*%
D14*
%TO.P,R1,1*%
%TO.N,PWM_outAmp*%
X94033000Y-62441000D03*
D15*
%TO.P,R1,2*%
%TO.N,Net-(IC2-VINA+)*%
X96573000Y-62441000D03*
%TD*%
D14*
%TO.P,R2,1*%
%TO.N,Net-(IC2-VINB+)*%
X109654000Y-62441000D03*
D15*
%TO.P,R2,2*%
%TO.N,PWM_outFlt*%
X112194000Y-62441000D03*
%TD*%
D10*
%TO.P,VR1,1,CCW*%
%TO.N,GND*%
X82889000Y-48910000D03*
%TO.P,VR1,2,WIPER*%
%TO.N,Attack*%
X85389000Y-48910000D03*
%TO.P,VR1,3,CW*%
%TO.N,+5VD*%
X87889000Y-48910000D03*
D11*
%TO.P,VR1,MH1,MH1*%
%TO.N,GND*%
X80989000Y-41910000D03*
%TO.P,VR1,MH2,MH2*%
X89789000Y-41910000D03*
%TD*%
D17*
%TO.P,C1,1*%
%TO.N,Net-(IC2-VINA+)*%
X94003000Y-65108000D03*
%TO.P,C1,2*%
%TO.N,GND*%
X96503000Y-65108000D03*
%TD*%
D18*
%TO.P,J5,1,Pin_1*%
%TO.N,outAmp*%
X100415000Y-69889000D03*
D19*
%TO.P,J5,2,Pin_2*%
%TO.N,outFlt*%
X102955000Y-69889000D03*
%TO.P,J5,3,Pin_3*%
%TO.N,GND*%
X105495000Y-69889000D03*
%TD*%
D18*
%TO.P,J1,1,Pin_1*%
%TO.N,ICSPCLK*%
X129032000Y-76454000D03*
D19*
%TO.P,J1,2,Pin_2*%
%TO.N,ICSPDT*%
X126492000Y-76454000D03*
%TO.P,J1,3,Pin_3*%
%TO.N,GND*%
X123952000Y-76454000D03*
%TO.P,J1,4,Pin_4*%
%TO.N,+5VD*%
X121412000Y-76454000D03*
%TO.P,J1,5,Pin_5*%
%TO.N,~MCLR*%
X118872000Y-76454000D03*
%TD*%
D20*
%TO.P,SW1,1,1*%
%TO.N,+5VD*%
X157861000Y-41275000D03*
%TO.P,SW1,2,2_Comm*%
%TO.N,AmpWave*%
X157861000Y-43815000D03*
%TO.P,SW1,3,3*%
%TO.N,GND*%
X157861000Y-46355000D03*
%TO.P,SW1,MH1,MH1*%
X157861000Y-38735000D03*
%TO.P,SW1,MH2,MH2*%
X157861000Y-48895000D03*
%TD*%
D10*
%TO.P,VR4,1,CCW*%
%TO.N,GND*%
X138174000Y-49080000D03*
%TO.P,VR4,2,WIPER*%
%TO.N,Release*%
X140674000Y-49080000D03*
%TO.P,VR4,3,CW*%
%TO.N,+5VD*%
X143174000Y-49080000D03*
D11*
%TO.P,VR4,MH1,MH1*%
%TO.N,GND*%
X136274000Y-42080000D03*
%TO.P,VR4,MH2,MH2*%
X145074000Y-42080000D03*
%TD*%
D14*
%TO.P,R4,1*%
%TO.N,Net-(IC2-VINA-)*%
X96523000Y-59901000D03*
D15*
%TO.P,R4,2*%
%TO.N,outAmp*%
X96523000Y-57361000D03*
%TD*%
D18*
%TO.P,J4,1,Pin_1*%
%TO.N,Gate*%
X152273000Y-73152000D03*
D19*
%TO.P,J4,2,Pin_2*%
%TO.N,accAmp*%
X149733000Y-73152000D03*
%TO.P,J4,3,Pin_3*%
%TO.N,accFlt*%
X147193000Y-73152000D03*
%TO.P,J4,4,Pin_4*%
%TO.N,GND*%
X144653000Y-73152000D03*
%TD*%
D10*
%TO.P,VR2,1,CCW*%
%TO.N,GND*%
X101045000Y-49052000D03*
%TO.P,VR2,2,WIPER*%
%TO.N,Decay*%
X103545000Y-49052000D03*
%TO.P,VR2,3,CW*%
%TO.N,+5VD*%
X106045000Y-49052000D03*
D11*
%TO.P,VR2,MH1,MH1*%
%TO.N,GND*%
X99145000Y-42052000D03*
%TO.P,VR2,MH2,MH2*%
X107945000Y-42052000D03*
%TD*%
D17*
%TO.P,C2,1*%
%TO.N,Net-(IC2-VINB+)*%
X109644000Y-65108000D03*
%TO.P,C2,2*%
%TO.N,GND*%
X112144000Y-65108000D03*
%TD*%
D12*
%TO.P,IC3,1,VDD*%
%TO.N,+5VD*%
X118999000Y-65405000D03*
D13*
%TO.P,IC3,2,RA5*%
%TO.N,PWM_outAmp*%
X121539000Y-65405000D03*
%TO.P,IC3,3,RA4*%
%TO.N,PWM_outFlt*%
X124079000Y-65405000D03*
%TO.P,IC3,4,~{MCLR}/VPP/RA3*%
%TO.N,~MCLR*%
X126619000Y-65405000D03*
%TO.P,IC3,5,RC5*%
%TO.N,unconnected-(IC3-RC5-Pad5)*%
X129159000Y-65405000D03*
%TO.P,IC3,6,RC4*%
%TO.N,AccLv*%
X131699000Y-65405000D03*
%TO.P,IC3,7,RC3*%
%TO.N,Attack*%
X134239000Y-65405000D03*
%TO.P,IC3,8,RC6*%
%TO.N,Decay*%
X136779000Y-65405000D03*
%TO.P,IC3,9,RC7*%
%TO.N,Sustain*%
X139319000Y-65405000D03*
%TO.P,IC3,10,RB7*%
%TO.N,Release*%
X141859000Y-65405000D03*
%TO.P,IC3,11,RB6*%
%TO.N,Gate*%
X141859000Y-57467000D03*
%TO.P,IC3,12,RB5*%
%TO.N,accAmp*%
X139319000Y-57467000D03*
%TO.P,IC3,13,RB4*%
%TO.N,accFlt*%
X136779000Y-57467000D03*
%TO.P,IC3,14,RC2*%
%TO.N,AmpWave*%
X134239000Y-57467000D03*
%TO.P,IC3,15,RC1*%
%TO.N,unconnected-(IC3-RC1-Pad15)*%
X131699000Y-57467000D03*
%TO.P,IC3,16,RC0*%
%TO.N,unconnected-(IC3-RC0-Pad16)*%
X129159000Y-57467000D03*
%TO.P,IC3,17,RA2*%
%TO.N,unconnected-(IC3-RA2-Pad17)*%
X126619000Y-57467000D03*
%TO.P,IC3,18,RA1/ICSPCLK*%
%TO.N,ICSPCLK*%
X124079000Y-57467000D03*
%TO.P,IC3,19,RA0/ICSPDAT*%
%TO.N,ICSPDT*%
X121539000Y-57467000D03*
%TO.P,IC3,20,VSS*%
%TO.N,GND*%
X118999000Y-57467000D03*
%TD*%
D18*
%TO.P,J2,1,Pin_1*%
%TO.N,+5VD*%
X163217200Y-59248000D03*
D19*
%TO.P,J2,2,Pin_2*%
%TO.N,GND*%
X163217200Y-61788000D03*
%TD*%
D18*
%TO.P,J7,1,Pin_1*%
%TO.N,Gate*%
X152263000Y-69342000D03*
D19*
%TO.P,J7,2,Pin_2*%
%TO.N,accAmp*%
X149723000Y-69342000D03*
%TO.P,J7,3,Pin_3*%
%TO.N,accFlt*%
X147183000Y-69342000D03*
%TO.P,J7,4,Pin_4*%
%TO.N,GND*%
X144643000Y-69342000D03*
%TD*%
D21*
%TO.P,C5,1*%
%TO.N,+5VD*%
X104637500Y-53848000D03*
%TO.P,C5,2*%
%TO.N,GND*%
X102562500Y-53848000D03*
%TD*%
D22*
%TO.P,C4,1*%
%TO.N,+5VD*%
X114554000Y-62187500D03*
%TO.P,C4,2*%
%TO.N,GND*%
X114554000Y-60112500D03*
%TD*%
D23*
%TO.N,GND*%
X102562000Y-52611000D03*
X115124000Y-58712000D03*
%TO.N,Attack*%
X132771000Y-53409600D03*
%TO.N,Decay*%
X105728000Y-62098200D03*
%TO.N,AccLv*%
X117531000Y-67000000D03*
X105537000Y-67056000D03*
X97028000Y-67056000D03*
X92456000Y-67056000D03*
%TD*%
D24*
%TO.N,Net-(IC2-VINA+)*%
X96573000Y-62441000D02*
X96573000Y-62538000D01*
D25*
%TO.N,GND*%
X115124000Y-58712000D02*
X114554000Y-59282400D01*
X102562000Y-52611000D02*
X102562000Y-53229500D01*
X102562000Y-53229500D02*
X102562000Y-53848000D01*
X102562000Y-53229500D02*
X102562500Y-53230000D01*
X114554000Y-59282400D02*
X114554000Y-60112500D01*
X102562500Y-53230000D02*
X102562500Y-53848000D01*
D24*
%TO.N,Net-(IC2-VINB+)*%
X109644000Y-62451000D02*
X109644000Y-65108000D01*
X109654000Y-62441000D02*
X109644000Y-62451000D01*
D25*
%TO.N,+5VD*%
X118999000Y-65405000D02*
X118999000Y-64423800D01*
X156605000Y-49080000D02*
X156605000Y-57486200D01*
X156605000Y-42531100D02*
X156605000Y-49080000D01*
X156605000Y-49080000D02*
X143174000Y-49080000D01*
X118999000Y-65405000D02*
X118999000Y-66386200D01*
X106045000Y-49052000D02*
X106045000Y-52440500D01*
X124505000Y-49080000D02*
X119980000Y-53604800D01*
X156605000Y-57486200D02*
X157099000Y-57980300D01*
X121412000Y-76454000D02*
X121412000Y-68799200D01*
X86865600Y-49933400D02*
X87889000Y-48910000D01*
X119980000Y-53604800D02*
X119980000Y-63442600D01*
X116763000Y-62187500D02*
X118999000Y-64423800D01*
X157099000Y-59182000D02*
X157099000Y-57980300D01*
X107124000Y-56334500D02*
X107124000Y-57404000D01*
X106045000Y-52440500D02*
X104638000Y-53848000D01*
X104637500Y-53848000D02*
X104638000Y-53848000D01*
X114554000Y-62187500D02*
X116763000Y-62187500D01*
X87630000Y-71374000D02*
X86865600Y-70609600D01*
X86865600Y-70609600D02*
X86865600Y-49933400D01*
X157861000Y-41275000D02*
X156605000Y-42531100D01*
X104638000Y-53848000D02*
X107124000Y-56334500D01*
X119980000Y-63442600D02*
X118999000Y-64423800D01*
X121412000Y-68799200D02*
X118999000Y-66386200D01*
D24*
%TO.N,Attack*%
X134239000Y-65405000D02*
X132771000Y-63937000D01*
X132771000Y-63937000D02*
X132771000Y-53409600D01*
%TO.N,ICSPDT*%
X125678000Y-74487900D02*
X125678000Y-61605600D01*
X126492000Y-75302300D02*
X125678000Y-74487900D01*
X126492000Y-76454000D02*
X126492000Y-75302300D01*
X125678000Y-61605600D02*
X121539000Y-57467000D01*
%TO.N,Decay*%
X103545000Y-59914700D02*
X103545000Y-49052000D01*
X105728000Y-62098200D02*
X103545000Y-59914700D01*
%TO.N,Sustain*%
X122005000Y-49080000D02*
X123211000Y-47874400D01*
X123211000Y-47874400D02*
X128109000Y-47874400D01*
X128109000Y-47874400D02*
X135509000Y-55274300D01*
X135509000Y-61595000D02*
X139319000Y-65405000D01*
X135509000Y-55274300D02*
X135509000Y-61595000D01*
%TO.N,~MCLR*%
X127644000Y-78356300D02*
X127000000Y-79000000D01*
X127644000Y-75705700D02*
X127644000Y-78356300D01*
X126619000Y-74681000D02*
X127644000Y-75705700D01*
X126619000Y-65405000D02*
X126619000Y-74681000D01*
X127000000Y-79000000D02*
X121418000Y-79000000D01*
X121418000Y-79000000D02*
X118872000Y-76454000D01*
%TO.N,ICSPCLK*%
X129032000Y-75302300D02*
X127880000Y-74150600D01*
X127880000Y-61268300D02*
X124079000Y-57467000D01*
X129032000Y-76454000D02*
X129032000Y-75302300D01*
X127880000Y-74150600D02*
X127880000Y-61268300D01*
%TO.N,Release*%
X141859000Y-64837100D02*
X140674000Y-63652100D01*
X141859000Y-65405000D02*
X141859000Y-64837100D01*
X140674000Y-63652100D02*
X140674000Y-49080000D01*
%TO.N,Gate*%
X141859000Y-57467000D02*
X152263000Y-67871000D01*
X152263000Y-70493700D02*
X152273000Y-70503700D01*
X152263000Y-67871000D02*
X152263000Y-69342000D01*
X152263000Y-69342000D02*
X152263000Y-70493700D01*
X152273000Y-70503700D02*
X152273000Y-73152000D01*
%TO.N,Net-(IC2-VINB-)*%
X107124000Y-62484000D02*
X107124000Y-59944000D01*
%TO.N,Net-(IC2-VINA-)*%
X99314000Y-57404000D02*
X99314000Y-59944000D01*
%TO.N,outAmp*%
X100457000Y-73533000D02*
X100457000Y-72381300D01*
X96523000Y-57361000D02*
X96523000Y-58362700D01*
X97647600Y-65969900D02*
X100415000Y-68737300D01*
X100415000Y-72339300D02*
X100415000Y-69889000D01*
X97647600Y-59487300D02*
X97647600Y-65969900D01*
X100415000Y-69889000D02*
X100415000Y-68737300D01*
X100457000Y-72381300D02*
X100415000Y-72339300D01*
X96523000Y-58362700D02*
X97647600Y-59487300D01*
%TO.N,outFlt*%
X102955000Y-69889000D02*
X102955000Y-71040700D01*
X108445000Y-62419900D02*
X108445000Y-58823800D01*
X102955000Y-69889000D02*
X102955000Y-67910100D01*
X102997000Y-73533000D02*
X102997000Y-71082700D01*
X108445000Y-58823800D02*
X109985000Y-57284000D01*
X102997000Y-71082700D02*
X102955000Y-71040700D01*
X102955000Y-67910100D02*
X108445000Y-62419900D01*
%TO.N,AccLv*%
X117531000Y-67000000D02*
X117475000Y-67056000D01*
X117475000Y-67056000D02*
X105537000Y-67056000D01*
X97028000Y-67056000D02*
X92456000Y-67056000D01*
%TO.N,accFlt*%
X146030000Y-68188800D02*
X142783000Y-68188800D01*
X147193000Y-70503700D02*
X147193000Y-73152000D01*
X140388000Y-64582700D02*
X136779000Y-60973500D01*
X140388000Y-65793900D02*
X140388000Y-64582700D01*
X147183000Y-69342000D02*
X147183000Y-70493700D01*
X147183000Y-69342000D02*
X146030000Y-68188800D01*
X136779000Y-60973500D02*
X136779000Y-57467000D01*
X142783000Y-68188800D02*
X140388000Y-65793900D01*
X147183000Y-70493700D02*
X147193000Y-70503700D01*
%TO.N,accAmp*%
X149723000Y-69342000D02*
X147884000Y-67503500D01*
X139319000Y-62878500D02*
X139319000Y-57467000D01*
X140978000Y-64537300D02*
X139319000Y-62878500D01*
X147884000Y-67503500D02*
X142666000Y-67503500D01*
X149723000Y-69342000D02*
X149723000Y-71990300D01*
X149723000Y-71990300D02*
X149733000Y-72000300D01*
X140978000Y-65815500D02*
X140978000Y-64537300D01*
X149733000Y-73152000D02*
X149733000Y-72000300D01*
X142666000Y-67503500D02*
X140978000Y-65815500D01*
%TD*%
%TA.AperFunction,Conductor*%
%TO.N,GND*%
G36*
X124202000Y-77784633D02*
G01*
X124415483Y-77727433D01*
X124415492Y-77727429D01*
X124629578Y-77627600D01*
X124823082Y-77492105D01*
X124990105Y-77325082D01*
X125120119Y-77139405D01*
X125174696Y-77095781D01*
X125244195Y-77088588D01*
X125306549Y-77120110D01*
X125323269Y-77139405D01*
X125453505Y-77325401D01*
X125620599Y-77492495D01*
X125717384Y-77560265D01*
X125814165Y-77628032D01*
X125814167Y-77628033D01*
X125814170Y-77628035D01*
X126028337Y-77727903D01*
X126256592Y-77789063D01*
X126444918Y-77805539D01*
X126491999Y-77809659D01*
X126492000Y-77809659D01*
X126492001Y-77809659D01*
X126531234Y-77806226D01*
X126727408Y-77789063D01*
X126881417Y-77747797D01*
X126887407Y-77746192D01*
X126957257Y-77747855D01*
X127015119Y-77787018D01*
X127042623Y-77851246D01*
X127043500Y-77865967D01*
X127043500Y-78056103D01*
X127023815Y-78123142D01*
X127007161Y-78143805D01*
X126787662Y-78363202D01*
X126726331Y-78396672D01*
X126700001Y-78399500D01*
X121718098Y-78399500D01*
X121651059Y-78379815D01*
X121630417Y-78363181D01*
X121285667Y-78018431D01*
X121252182Y-77957108D01*
X121257166Y-77887416D01*
X121299038Y-77831483D01*
X121364502Y-77807066D01*
X121384144Y-77807221D01*
X121412000Y-77809659D01*
X121647408Y-77789063D01*
X121875663Y-77727903D01*
X122089830Y-77628035D01*
X122283401Y-77492495D01*
X122450495Y-77325401D01*
X122580730Y-77139405D01*
X122635307Y-77095781D01*
X122704805Y-77088587D01*
X122767160Y-77120110D01*
X122783879Y-77139405D01*
X122913890Y-77325078D01*
X123080917Y-77492105D01*
X123274421Y-77627600D01*
X123488507Y-77727429D01*
X123488516Y-77727433D01*
X123702000Y-77784634D01*
X123702000Y-76887012D01*
X123759007Y-76919925D01*
X123886174Y-76954000D01*
X124017826Y-76954000D01*
X124144993Y-76919925D01*
X124202000Y-76887012D01*
X124202000Y-77784633D01*
G37*
%TD.AperFunction*%
%TA.AperFunction,Conductor*%
G36*
X120879909Y-58330265D02*
G01*
X120880792Y-58329097D01*
X120885367Y-58332552D01*
X121055536Y-58437916D01*
X121055542Y-58437919D01*
X121066495Y-58442162D01*
X121242178Y-58510222D01*
X121438923Y-58547000D01*
X121438925Y-58547000D01*
X121639074Y-58547000D01*
X121639077Y-58547000D01*
X121684989Y-58538417D01*
X121754502Y-58545448D01*
X121795448Y-58572618D01*
X125041178Y-61818034D01*
X125074665Y-61879353D01*
X125077500Y-61905717D01*
X125077500Y-64573003D01*
X125057815Y-64640042D01*
X125005011Y-64685797D01*
X124935853Y-64695741D01*
X124872297Y-64666716D01*
X124869962Y-64664640D01*
X124732634Y-64539449D01*
X124732632Y-64539447D01*
X124562463Y-64434083D01*
X124562457Y-64434080D01*
X124415362Y-64377096D01*
X124375822Y-64361778D01*
X124179077Y-64325000D01*
X123978923Y-64325000D01*
X123782178Y-64361778D01*
X123782175Y-64361778D01*
X123782175Y-64361779D01*
X123595542Y-64434080D01*
X123595536Y-64434083D01*
X123425367Y-64539447D01*
X123425365Y-64539449D01*
X123277452Y-64674289D01*
X123156833Y-64834014D01*
X123156828Y-64834022D01*
X123067616Y-65013184D01*
X123012840Y-65205704D01*
X122994373Y-65404999D01*
X122994373Y-65405000D01*
X123012840Y-65604295D01*
X123012840Y-65604297D01*
X123012841Y-65604300D01*
X123057350Y-65760734D01*
X123067616Y-65796815D01*
X123156828Y-65975977D01*
X123156833Y-65975985D01*
X123277452Y-66135710D01*
X123425365Y-66270550D01*
X123425367Y-66270552D01*
X123595536Y-66375916D01*
X123595542Y-66375919D01*
X123613849Y-66383011D01*
X123782178Y-66448222D01*
X123978923Y-66485000D01*
X123978925Y-66485000D01*
X124179075Y-66485000D01*
X124179077Y-66485000D01*
X124375822Y-66448222D01*
X124562460Y-66375918D01*
X124732634Y-66270551D01*
X124869964Y-66145357D01*
X124932765Y-66114742D01*
X125002152Y-66122939D01*
X125056093Y-66167349D01*
X125077461Y-66233871D01*
X125077500Y-66236996D01*
X125077500Y-74485756D01*
X125077480Y-74566813D01*
X125077498Y-74566952D01*
X125088830Y-74609245D01*
X125097450Y-74641416D01*
X125097453Y-74641442D01*
X125097457Y-74641442D01*
X125118369Y-74719561D01*
X125118414Y-74719670D01*
X125130468Y-74740547D01*
X125158078Y-74788369D01*
X125168773Y-74806903D01*
X125197390Y-74856499D01*
X125197421Y-74856539D01*
X125197480Y-74856616D01*
X125253626Y-74912762D01*
X125253641Y-74912790D01*
X125253648Y-74912784D01*
X125587155Y-75246455D01*
X125600739Y-75260045D01*
X125634209Y-75321377D01*
X125629207Y-75391067D01*
X125600717Y-75435386D01*
X125453508Y-75582594D01*
X125323269Y-75768595D01*
X125268692Y-75812219D01*
X125199193Y-75819412D01*
X125136839Y-75787890D01*
X125120119Y-75768594D01*
X124990113Y-75582926D01*
X124990108Y-75582920D01*
X124823082Y-75415894D01*
X124629578Y-75280399D01*
X124415492Y-75180570D01*
X124415486Y-75180567D01*
X124202000Y-75123364D01*
X124202000Y-76020988D01*
X124144993Y-75988075D01*
X124017826Y-75954000D01*
X123886174Y-75954000D01*
X123759007Y-75988075D01*
X123702000Y-76020988D01*
X123702000Y-75123364D01*
X123701999Y-75123364D01*
X123488513Y-75180567D01*
X123488507Y-75180570D01*
X123274422Y-75280399D01*
X123274420Y-75280400D01*
X123080926Y-75415886D01*
X123080920Y-75415891D01*
X122913891Y-75582920D01*
X122913890Y-75582922D01*
X122783880Y-75768595D01*
X122729303Y-75812219D01*
X122659804Y-75819412D01*
X122597450Y-75787890D01*
X122580730Y-75768594D01*
X122450494Y-75582597D01*
X122283404Y-75415508D01*
X122283402Y-75415506D01*
X122283401Y-75415505D01*
X122283396Y-75415501D01*
X122283393Y-75415499D01*
X122165376Y-75332861D01*
X122121751Y-75278284D01*
X122112500Y-75231287D01*
X122112500Y-68730204D01*
X122085581Y-68594877D01*
X122085580Y-68594876D01*
X122085580Y-68594872D01*
X122064885Y-68544909D01*
X122032778Y-68467395D01*
X122032771Y-68467382D01*
X121956115Y-68352659D01*
X121956114Y-68352658D01*
X121858542Y-68255086D01*
X120016071Y-66412614D01*
X119982586Y-66351291D01*
X119987570Y-66281599D01*
X120004482Y-66250626D01*
X120022296Y-66226831D01*
X120072591Y-66091983D01*
X120079000Y-66032373D01*
X120078999Y-65404999D01*
X120454373Y-65404999D01*
X120454373Y-65405000D01*
X120472840Y-65604295D01*
X120472840Y-65604297D01*
X120472841Y-65604300D01*
X120517350Y-65760734D01*
X120527616Y-65796815D01*
X120616828Y-65975977D01*
X120616833Y-65975985D01*
X120737452Y-66135710D01*
X120885365Y-66270550D01*
X120885367Y-66270552D01*
X121055536Y-66375916D01*
X121055542Y-66375919D01*
X121073849Y-66383011D01*
X121242178Y-66448222D01*
X121438923Y-66485000D01*
X121438925Y-66485000D01*
X121639075Y-66485000D01*
X121639077Y-66485000D01*
X121835822Y-66448222D01*
X122022460Y-66375918D01*
X122192634Y-66270551D01*
X122321401Y-66153164D01*
X122340547Y-66135710D01*
X122350192Y-66122939D01*
X122461168Y-65975983D01*
X122550385Y-65796812D01*
X122605159Y-65604300D01*
X122623627Y-65405000D01*
X122605159Y-65205700D01*
X122550385Y-65013188D01*
X122537500Y-64987311D01*
X122461171Y-64834022D01*
X122461166Y-64834014D01*
X122340547Y-64674289D01*
X122192634Y-64539449D01*
X122192632Y-64539447D01*
X122022463Y-64434083D01*
X122022457Y-64434080D01*
X121875362Y-64377096D01*
X121835822Y-64361778D01*
X121639077Y-64325000D01*
X121438923Y-64325000D01*
X121242178Y-64361778D01*
X121242175Y-64361778D01*
X121242175Y-64361779D01*
X121055542Y-64434080D01*
X121055536Y-64434083D01*
X120885367Y-64539447D01*
X120885365Y-64539449D01*
X120737452Y-64674289D01*
X120616833Y-64834014D01*
X120616828Y-64834022D01*
X120527616Y-65013184D01*
X120472840Y-65205704D01*
X120454373Y-65404999D01*
X120078999Y-65404999D01*
X120078999Y-64777628D01*
X120072591Y-64718017D01*
X120054848Y-64670446D01*
X120022297Y-64583171D01*
X120022295Y-64583168D01*
X120004439Y-64559315D01*
X119980022Y-64493850D01*
X119994874Y-64425577D01*
X120016013Y-64397334D01*
X120476456Y-63936800D01*
X120523553Y-63889702D01*
X120524129Y-63889138D01*
X120524397Y-63888729D01*
X120557872Y-63838620D01*
X120562847Y-63831173D01*
X120562848Y-63831170D01*
X120600775Y-63774411D01*
X120600777Y-63774405D01*
X120600779Y-63774403D01*
X120600804Y-63774356D01*
X120600804Y-63774354D01*
X120600809Y-63774348D01*
X120629437Y-63705215D01*
X120653195Y-63647855D01*
X120653600Y-63646908D01*
X120653601Y-63646904D01*
X120653765Y-63646034D01*
X120667377Y-63577563D01*
X120667377Y-63577562D01*
X120667379Y-63577562D01*
X120667379Y-63577552D01*
X120680500Y-63511593D01*
X120680500Y-63511589D01*
X120680507Y-63511521D01*
X120680500Y-63438077D01*
X120680500Y-58426624D01*
X120700185Y-58359585D01*
X120752989Y-58313830D01*
X120822147Y-58303886D01*
X120879909Y-58330265D01*
G37*
%TD.AperFunction*%
%TA.AperFunction,Conductor*%
G36*
X96103000Y-65160661D02*
G01*
X96130259Y-65262394D01*
X96182920Y-65353606D01*
X96257394Y-65428080D01*
X96348606Y-65480741D01*
X96450339Y-65508000D01*
X96456552Y-65508000D01*
X95777526Y-66187025D01*
X95838794Y-66229926D01*
X95882419Y-66284503D01*
X95889611Y-66354001D01*
X95858088Y-66416356D01*
X95797858Y-66451769D01*
X95767670Y-66455500D01*
X94739200Y-66455500D01*
X94672161Y-66435815D01*
X94626406Y-66383011D01*
X94616462Y-66313853D01*
X94645487Y-66250297D01*
X94668074Y-66229926D01*
X94842139Y-66108047D01*
X95003047Y-65947139D01*
X95133568Y-65760734D01*
X95140893Y-65745024D01*
X95187064Y-65692586D01*
X95254257Y-65673433D01*
X95321138Y-65693648D01*
X95365657Y-65745024D01*
X95372864Y-65760480D01*
X95423974Y-65833472D01*
X96103000Y-65154446D01*
X96103000Y-65160661D01*
G37*
%TD.AperFunction*%
%TA.AperFunction,Conductor*%
G36*
X111744000Y-65160661D02*
G01*
X111771259Y-65262394D01*
X111823920Y-65353606D01*
X111898394Y-65428080D01*
X111989606Y-65480741D01*
X112091339Y-65508000D01*
X112097553Y-65508000D01*
X111418526Y-66187025D01*
X111479794Y-66229926D01*
X111523419Y-66284503D01*
X111530611Y-66354001D01*
X111499088Y-66416356D01*
X111438858Y-66451769D01*
X111408670Y-66455500D01*
X110380200Y-66455500D01*
X110313161Y-66435815D01*
X110267406Y-66383011D01*
X110257462Y-66313853D01*
X110286487Y-66250297D01*
X110309074Y-66229926D01*
X110483139Y-66108047D01*
X110644047Y-65947139D01*
X110774568Y-65760734D01*
X110781893Y-65745024D01*
X110828064Y-65692586D01*
X110895257Y-65673433D01*
X110962138Y-65693648D01*
X111006657Y-65745024D01*
X111013864Y-65760480D01*
X111064974Y-65833472D01*
X111744000Y-65154446D01*
X111744000Y-65160661D01*
G37*
%TD.AperFunction*%
%TA.AperFunction,Conductor*%
G36*
X116488488Y-62907685D02*
G01*
X116509136Y-62924325D01*
X117981964Y-64397350D01*
X118015445Y-64458675D01*
X118010456Y-64528366D01*
X117993546Y-64559333D01*
X117975705Y-64583166D01*
X117975702Y-64583171D01*
X117925408Y-64718017D01*
X117921492Y-64754446D01*
X117919001Y-64777623D01*
X117919000Y-64777635D01*
X117919000Y-66032370D01*
X117919001Y-66032376D01*
X117926238Y-66099696D01*
X117923659Y-66099973D01*
X117920591Y-66157195D01*
X117879725Y-66213867D01*
X117814706Y-66239448D01*
X117762701Y-66232983D01*
X117710257Y-66214632D01*
X117710249Y-66214630D01*
X117531004Y-66194435D01*
X117530996Y-66194435D01*
X117351750Y-66214630D01*
X117351745Y-66214631D01*
X117181476Y-66274211D01*
X117028737Y-66370184D01*
X116979741Y-66419181D01*
X116918418Y-66452666D01*
X116892060Y-66455500D01*
X112879329Y-66455500D01*
X112812290Y-66435815D01*
X112766535Y-66383011D01*
X112756591Y-66313853D01*
X112785616Y-66250297D01*
X112808204Y-66229926D01*
X112869471Y-66187024D01*
X112190447Y-65508000D01*
X112196661Y-65508000D01*
X112298394Y-65480741D01*
X112389606Y-65428080D01*
X112464080Y-65353606D01*
X112516741Y-65262394D01*
X112544000Y-65160661D01*
X112544000Y-65154447D01*
X113223024Y-65833471D01*
X113274136Y-65760478D01*
X113370264Y-65554331D01*
X113370269Y-65554317D01*
X113429139Y-65334610D01*
X113429141Y-65334599D01*
X113448966Y-65108002D01*
X113448966Y-65107997D01*
X113429141Y-64881400D01*
X113429139Y-64881389D01*
X113370269Y-64661682D01*
X113370264Y-64661668D01*
X113274136Y-64455521D01*
X113274132Y-64455513D01*
X113223025Y-64382526D01*
X112544000Y-65061551D01*
X112544000Y-65055339D01*
X112516741Y-64953606D01*
X112464080Y-64862394D01*
X112389606Y-64787920D01*
X112298394Y-64735259D01*
X112196661Y-64708000D01*
X112190445Y-64708000D01*
X112869472Y-64028974D01*
X112796478Y-63977863D01*
X112590331Y-63881735D01*
X112590317Y-63881730D01*
X112472490Y-63850159D01*
X112412829Y-63813794D01*
X112382300Y-63750947D01*
X112390595Y-63681572D01*
X112435080Y-63627694D01*
X112481794Y-63608496D01*
X112523940Y-63600618D01*
X112731401Y-63520247D01*
X112920562Y-63403124D01*
X113084981Y-63253236D01*
X113219058Y-63075689D01*
X113261596Y-62990262D01*
X113309099Y-62939025D01*
X113376762Y-62921604D01*
X113443102Y-62943530D01*
X113478133Y-62980435D01*
X113486288Y-62993656D01*
X113610344Y-63117712D01*
X113759666Y-63209814D01*
X113926203Y-63264999D01*
X114028991Y-63275500D01*
X115079008Y-63275499D01*
X115079016Y-63275498D01*
X115079019Y-63275498D01*
X115135302Y-63269748D01*
X115181797Y-63264999D01*
X115348334Y-63209814D01*
X115497656Y-63117712D01*
X115621712Y-62993656D01*
X115650549Y-62946902D01*
X115702497Y-62900179D01*
X115756088Y-62888000D01*
X116421449Y-62888000D01*
X116488488Y-62907685D01*
G37*
%TD.AperFunction*%
%TA.AperFunction,Conductor*%
G36*
X95353562Y-62704083D02*
G01*
X95406749Y-62749393D01*
X95422266Y-62783372D01*
X95448769Y-62876523D01*
X95448775Y-62876538D01*
X95547938Y-63075683D01*
X95547943Y-63075691D01*
X95682020Y-63253238D01*
X95846437Y-63403123D01*
X95846439Y-63403125D01*
X96035595Y-63520245D01*
X96035597Y-63520246D01*
X96035599Y-63520247D01*
X96241802Y-63600130D01*
X96297202Y-63642702D01*
X96320793Y-63708468D01*
X96305082Y-63776549D01*
X96255058Y-63825328D01*
X96229101Y-63835531D01*
X96056680Y-63881731D01*
X96056673Y-63881734D01*
X95850516Y-63977866D01*
X95850512Y-63977868D01*
X95777526Y-64028973D01*
X95777526Y-64028974D01*
X96456553Y-64708000D01*
X96450339Y-64708000D01*
X96348606Y-64735259D01*
X96257394Y-64787920D01*
X96182920Y-64862394D01*
X96130259Y-64953606D01*
X96103000Y-65055339D01*
X96103000Y-65061552D01*
X95423974Y-64382526D01*
X95423973Y-64382526D01*
X95372868Y-64455512D01*
X95372867Y-64455514D01*
X95365656Y-64470979D01*
X95319482Y-64523417D01*
X95252288Y-64542567D01*
X95185407Y-64522350D01*
X95140893Y-64470976D01*
X95133568Y-64455266D01*
X95020152Y-64293289D01*
X95003045Y-64268858D01*
X94842141Y-64107954D01*
X94655734Y-63977432D01*
X94655732Y-63977431D01*
X94449497Y-63881261D01*
X94449488Y-63881258D01*
X94324409Y-63847744D01*
X94264748Y-63811379D01*
X94234219Y-63748532D01*
X94242514Y-63679157D01*
X94286999Y-63625279D01*
X94333713Y-63606081D01*
X94362940Y-63600618D01*
X94570401Y-63520247D01*
X94759562Y-63403124D01*
X94923981Y-63253236D01*
X95058058Y-63075689D01*
X95157229Y-62876528D01*
X95183734Y-62783371D01*
X95221013Y-62724278D01*
X95284323Y-62694721D01*
X95353562Y-62704083D01*
G37*
%TD.AperFunction*%
%TA.AperFunction,Conductor*%
G36*
X110974562Y-62704083D02*
G01*
X111027749Y-62749393D01*
X111043266Y-62783372D01*
X111069769Y-62876523D01*
X111069775Y-62876538D01*
X111168938Y-63075683D01*
X111168943Y-63075691D01*
X111303020Y-63253238D01*
X111467437Y-63403123D01*
X111467439Y-63403125D01*
X111656595Y-63520245D01*
X111656596Y-63520245D01*
X111656599Y-63520247D01*
X111864060Y-63600618D01*
X111864065Y-63600618D01*
X111869406Y-63602688D01*
X111868604Y-63604757D01*
X111919479Y-63636829D01*
X111949056Y-63700129D01*
X111939716Y-63769371D01*
X111894423Y-63822572D01*
X111858571Y-63838620D01*
X111697680Y-63881731D01*
X111697673Y-63881734D01*
X111491516Y-63977866D01*
X111491512Y-63977868D01*
X111418526Y-64028973D01*
X111418526Y-64028974D01*
X112097553Y-64708000D01*
X112091339Y-64708000D01*
X111989606Y-64735259D01*
X111898394Y-64787920D01*
X111823920Y-64862394D01*
X111771259Y-64953606D01*
X111744000Y-65055339D01*
X111744000Y-65061552D01*
X111064974Y-64382526D01*
X111064973Y-64382526D01*
X111013868Y-64455512D01*
X111013867Y-64455514D01*
X111006656Y-64470979D01*
X110960482Y-64523417D01*
X110893288Y-64542567D01*
X110826407Y-64522350D01*
X110781893Y-64470976D01*
X110774568Y-64455266D01*
X110661152Y-64293289D01*
X110644045Y-64268858D01*
X110483140Y-64107953D01*
X110297377Y-63977881D01*
X110253752Y-63923304D01*
X110244500Y-63876306D01*
X110244500Y-63556436D01*
X110264185Y-63489397D01*
X110303218Y-63451012D01*
X110380562Y-63403124D01*
X110544981Y-63253236D01*
X110679058Y-63075689D01*
X110778229Y-62876528D01*
X110804734Y-62783371D01*
X110842013Y-62724278D01*
X110905323Y-62694721D01*
X110974562Y-62704083D01*
G37*
%TD.AperFunction*%
%TA.AperFunction,Conductor*%
G36*
X167943039Y-29520185D02*
G01*
X167988794Y-29572989D01*
X168000000Y-29624500D01*
X168000000Y-80375500D01*
X167980315Y-80442539D01*
X167927511Y-80488294D01*
X167876000Y-80499500D01*
X71124000Y-80499500D01*
X71056961Y-80479815D01*
X71011206Y-80427011D01*
X71000000Y-80375500D01*
X71000000Y-78199735D01*
X71019685Y-78132696D01*
X71072489Y-78086941D01*
X71141647Y-78076997D01*
X71205203Y-78106022D01*
X71225300Y-78128222D01*
X71275780Y-78199735D01*
X71366812Y-78328700D01*
X71451923Y-78419831D01*
X71562947Y-78538708D01*
X71785853Y-78720055D01*
X71987735Y-78842823D01*
X72031382Y-78869365D01*
X72218237Y-78950526D01*
X72294942Y-78983844D01*
X72571642Y-79061371D01*
X72821920Y-79095771D01*
X72856321Y-79100500D01*
X72856322Y-79100500D01*
X73143679Y-79100500D01*
X73174370Y-79096281D01*
X73428358Y-79061371D01*
X73705058Y-78983844D01*
X73818015Y-78934779D01*
X73968617Y-78869365D01*
X73968620Y-78869363D01*
X73968625Y-78869361D01*
X74214147Y-78720055D01*
X74437053Y-78538708D01*
X74633189Y-78328698D01*
X74798901Y-78093936D01*
X74931104Y-77838797D01*
X75027334Y-77568032D01*
X75085798Y-77286686D01*
X75105408Y-77000000D01*
X75085798Y-76713314D01*
X75027334Y-76431968D01*
X74931105Y-76161206D01*
X74931106Y-76161206D01*
X74798901Y-75906064D01*
X74633187Y-75671299D01*
X74550341Y-75582594D01*
X74437053Y-75461292D01*
X74236742Y-75298327D01*
X74214146Y-75279944D01*
X73968617Y-75130634D01*
X73705063Y-75016158D01*
X73705061Y-75016157D01*
X73705058Y-75016156D01*
X73575578Y-74979877D01*
X73428364Y-74938630D01*
X73428359Y-74938629D01*
X73428358Y-74938629D01*
X73286018Y-74919064D01*
X73143679Y-74899500D01*
X73143678Y-74899500D01*
X72856322Y-74899500D01*
X72856321Y-74899500D01*
X72571642Y-74938629D01*
X72571635Y-74938630D01*
X72363861Y-74996845D01*
X72294942Y-75016156D01*
X72294939Y-75016156D01*
X72294936Y-75016158D01*
X72294935Y-75016158D01*
X72031382Y-75130634D01*
X71785853Y-75279944D01*
X71562950Y-75461289D01*
X71366812Y-75671299D01*
X71225305Y-75871772D01*
X71170563Y-75915190D01*
X71101038Y-75922119D01*
X71038803Y-75890361D01*
X71003618Y-75829997D01*
X71000000Y-75800264D01*
X71000000Y-71373994D01*
X81225202Y-71373994D01*
X81225202Y-71374005D01*
X81244361Y-71605218D01*
X81301317Y-71830135D01*
X81394516Y-72042609D01*
X81478811Y-72171633D01*
X82065387Y-71585058D01*
X82070889Y-71605591D01*
X82149881Y-71742408D01*
X82261592Y-71854119D01*
X82398409Y-71933111D01*
X82418940Y-71938612D01*
X81831201Y-72526351D01*
X81861649Y-72550050D01*
X82065697Y-72660476D01*
X82065706Y-72660479D01*
X82285139Y-72735811D01*
X82513993Y-72774000D01*
X82746007Y-72774000D01*
X82974860Y-72735811D01*
X83194293Y-72660479D01*
X83194301Y-72660476D01*
X83398355Y-72550047D01*
X83428797Y-72526351D01*
X83428798Y-72526350D01*
X82841060Y-71938612D01*
X82861591Y-71933111D01*
X82998408Y-71854119D01*
X83110119Y-71742408D01*
X83189111Y-71605591D01*
X83194612Y-71585059D01*
X83781186Y-72171634D01*
X83785969Y-72171138D01*
X83829037Y-72134381D01*
X83898269Y-72124957D01*
X83961605Y-72154458D01*
X83983510Y-72179738D01*
X84021016Y-72237147D01*
X84021019Y-72237151D01*
X84021021Y-72237153D01*
X84178216Y-72407913D01*
X84178219Y-72407915D01*
X84178222Y-72407918D01*
X84361365Y-72550464D01*
X84361371Y-72550468D01*
X84361374Y-72550470D01*
X84401308Y-72572081D01*
X84564652Y-72660479D01*
X84565497Y-72660936D01*
X84645809Y-72688507D01*
X84785015Y-72736297D01*
X84785017Y-72736297D01*
X84785019Y-72736298D01*
X85013951Y-72774500D01*
X85013952Y-72774500D01*
X85246048Y-72774500D01*
X85246049Y-72774500D01*
X85474981Y-72736298D01*
X85694503Y-72660936D01*
X85898626Y-72550470D01*
X85899170Y-72550047D01*
X86006390Y-72466594D01*
X86081784Y-72407913D01*
X86238979Y-72237153D01*
X86261708Y-72202364D01*
X86276191Y-72180196D01*
X86329337Y-72134839D01*
X86398569Y-72125415D01*
X86461904Y-72154917D01*
X86483809Y-72180196D01*
X86521016Y-72237147D01*
X86521019Y-72237151D01*
X86521021Y-72237153D01*
X86678216Y-72407913D01*
X86678219Y-72407915D01*
X86678222Y-72407918D01*
X86861365Y-72550464D01*
X86861371Y-72550468D01*
X86861374Y-72550470D01*
X86901308Y-72572081D01*
X87064652Y-72660479D01*
X87065497Y-72660936D01*
X87145809Y-72688507D01*
X87285015Y-72736297D01*
X87285017Y-72736297D01*
X87285019Y-72736298D01*
X87513951Y-72774500D01*
X87513952Y-72774500D01*
X87746048Y-72774500D01*
X87746049Y-72774500D01*
X87974981Y-72736298D01*
X88194503Y-72660936D01*
X88398626Y-72550470D01*
X88399170Y-72550047D01*
X88506390Y-72466594D01*
X88581784Y-72407913D01*
X88738979Y-72237153D01*
X88865924Y-72042849D01*
X88959157Y-71830300D01*
X89016134Y-71605305D01*
X89016135Y-71605297D01*
X89035300Y-71374006D01*
X89035300Y-71373993D01*
X89016135Y-71142702D01*
X89016133Y-71142691D01*
X88959157Y-70917699D01*
X88865924Y-70705151D01*
X88738983Y-70510852D01*
X88738980Y-70510849D01*
X88738979Y-70510847D01*
X88581784Y-70340087D01*
X88581779Y-70340083D01*
X88581777Y-70340081D01*
X88398634Y-70197535D01*
X88398628Y-70197531D01*
X88194504Y-70087064D01*
X88194495Y-70087061D01*
X87974984Y-70011702D01*
X87764554Y-69976588D01*
X87746049Y-69973500D01*
X87746048Y-69973500D01*
X87690100Y-69973500D01*
X87623061Y-69953815D01*
X87577306Y-69901011D01*
X87566100Y-69849500D01*
X87566100Y-66554938D01*
X87585785Y-66487899D01*
X87638589Y-66442144D01*
X87707747Y-66432200D01*
X87766573Y-66457327D01*
X87977763Y-66622785D01*
X88260153Y-66793495D01*
X88260155Y-66793497D01*
X88561049Y-66928918D01*
X88561064Y-66928924D01*
X88876065Y-67027081D01*
X89200640Y-67086562D01*
X89530000Y-67106484D01*
X89859359Y-67086562D01*
X90026151Y-67055996D01*
X91650435Y-67055996D01*
X91650435Y-67056003D01*
X91670630Y-67235249D01*
X91670631Y-67235254D01*
X91730211Y-67405523D01*
X91791012Y-67502286D01*
X91826184Y-67558262D01*
X91953738Y-67685816D01*
X92017353Y-67725788D01*
X92083342Y-67767252D01*
X92106478Y-67781789D01*
X92247252Y-67831048D01*
X92276745Y-67841368D01*
X92276750Y-67841369D01*
X92455996Y-67861565D01*
X92456000Y-67861565D01*
X92456004Y-67861565D01*
X92635249Y-67841369D01*
X92635252Y-67841368D01*
X92635255Y-67841368D01*
X92805522Y-67781789D01*
X92958262Y-67685816D01*
X92958267Y-67685810D01*
X92961097Y-67683555D01*
X92963275Y-67682665D01*
X92964158Y-67682111D01*
X92964255Y-67682265D01*
X93025783Y-67657145D01*
X93038412Y-67656500D01*
X96445588Y-67656500D01*
X96512627Y-67676185D01*
X96522903Y-67683555D01*
X96525736Y-67685814D01*
X96525738Y-67685816D01*
X96639270Y-67757152D01*
X96655342Y-67767252D01*
X96678478Y-67781789D01*
X96819252Y-67831048D01*
X96848745Y-67841368D01*
X96848750Y-67841369D01*
X97027996Y-67861565D01*
X97028000Y-67861565D01*
X97028004Y-67861565D01*
X97207249Y-67841369D01*
X97207252Y-67841368D01*
X97207255Y-67841368D01*
X97377522Y-67781789D01*
X97530262Y-67685816D01*
X97657816Y-67558262D01*
X97753789Y-67405522D01*
X97813083Y-67236068D01*
X97853805Y-67179293D01*
X97918757Y-67153545D01*
X97987319Y-67167001D01*
X98017806Y-67189342D01*
X99279240Y-68450776D01*
X99312725Y-68512099D01*
X99307741Y-68581791D01*
X99265870Y-68637723D01*
X99207455Y-68681452D01*
X99207452Y-68681455D01*
X99121206Y-68796664D01*
X99121202Y-68796671D01*
X99070908Y-68931517D01*
X99064501Y-68991116D01*
X99064500Y-68991135D01*
X99064500Y-70786870D01*
X99064501Y-70786876D01*
X99070908Y-70846483D01*
X99121202Y-70981328D01*
X99121206Y-70981335D01*
X99207452Y-71096544D01*
X99207455Y-71096547D01*
X99322664Y-71182793D01*
X99322671Y-71182797D01*
X99367618Y-71199561D01*
X99457517Y-71233091D01*
X99517127Y-71239500D01*
X99690500Y-71239499D01*
X99757539Y-71259183D01*
X99803294Y-71311987D01*
X99814500Y-71363499D01*
X99814500Y-72058500D01*
X99794815Y-72125539D01*
X99742011Y-72171294D01*
X99690501Y-72182500D01*
X99559130Y-72182500D01*
X99559123Y-72182501D01*
X99499516Y-72188908D01*
X99364671Y-72239202D01*
X99364664Y-72239206D01*
X99249455Y-72325452D01*
X99249452Y-72325455D01*
X99163206Y-72440664D01*
X99163202Y-72440671D01*
X99112908Y-72575517D01*
X99106501Y-72635116D01*
X99106500Y-72635135D01*
X99106500Y-74430870D01*
X99106501Y-74430876D01*
X99112908Y-74490483D01*
X99163202Y-74625328D01*
X99163206Y-74625335D01*
X99249452Y-74740544D01*
X99249455Y-74740547D01*
X99364664Y-74826793D01*
X99364671Y-74826797D01*
X99499517Y-74877091D01*
X99499516Y-74877091D01*
X99506444Y-74877835D01*
X99559127Y-74883500D01*
X101354872Y-74883499D01*
X101414483Y-74877091D01*
X101549331Y-74826796D01*
X101664546Y-74740546D01*
X101750796Y-74625331D01*
X101799810Y-74493916D01*
X101841681Y-74437984D01*
X101907145Y-74413566D01*
X101975418Y-74428417D01*
X102003673Y-74449569D01*
X102125599Y-74571495D01*
X102210752Y-74631120D01*
X102319165Y-74707032D01*
X102319167Y-74707033D01*
X102319170Y-74707035D01*
X102533337Y-74806903D01*
X102761592Y-74868063D01*
X102938034Y-74883500D01*
X102996999Y-74888659D01*
X102997000Y-74888659D01*
X102997001Y-74888659D01*
X103055966Y-74883500D01*
X103232408Y-74868063D01*
X103460663Y-74806903D01*
X103674830Y-74707035D01*
X103868401Y-74571495D01*
X104035495Y-74404401D01*
X104165730Y-74218405D01*
X104220307Y-74174781D01*
X104289805Y-74167587D01*
X104352160Y-74199110D01*
X104368879Y-74218405D01*
X104498890Y-74404078D01*
X104665917Y-74571105D01*
X104859421Y-74706600D01*
X105073507Y-74806429D01*
X105073516Y-74806433D01*
X105287000Y-74863634D01*
X105287000Y-73966012D01*
X105344007Y-73998925D01*
X105471174Y-74033000D01*
X105602826Y-74033000D01*
X105729993Y-73998925D01*
X105787000Y-73966012D01*
X105787000Y-74863633D01*
X106000483Y-74806433D01*
X106000492Y-74806429D01*
X106214578Y-74706600D01*
X106408082Y-74571105D01*
X106575105Y-74404082D01*
X106710600Y-74210578D01*
X106810429Y-73996492D01*
X106810432Y-73996486D01*
X106867636Y-73783000D01*
X105970012Y-73783000D01*
X106002925Y-73725993D01*
X106037000Y-73598826D01*
X106037000Y-73467174D01*
X106002925Y-73340007D01*
X105970012Y-73283000D01*
X106867636Y-73283000D01*
X106867635Y-73282999D01*
X106810432Y-73069513D01*
X106810429Y-73069507D01*
X106710600Y-72855422D01*
X106710599Y-72855420D01*
X106575113Y-72661926D01*
X106575108Y-72661920D01*
X106408082Y-72494894D01*
X106214578Y-72359399D01*
X106000492Y-72259570D01*
X106000486Y-72259567D01*
X105787000Y-72202364D01*
X105787000Y-73099988D01*
X105729993Y-73067075D01*
X105602826Y-73033000D01*
X105471174Y-73033000D01*
X105344007Y-73067075D01*
X105287000Y-73099988D01*
X105287000Y-72202364D01*
X105286999Y-72202364D01*
X105073513Y-72259567D01*
X105073507Y-72259570D01*
X104859422Y-72359399D01*
X104859420Y-72359400D01*
X104665926Y-72494886D01*
X104665920Y-72494891D01*
X104498891Y-72661920D01*
X104498890Y-72661922D01*
X104368880Y-72847595D01*
X104314303Y-72891219D01*
X104244804Y-72898412D01*
X104182450Y-72866890D01*
X104165730Y-72847594D01*
X104035494Y-72661597D01*
X103868402Y-72494506D01*
X103868395Y-72494501D01*
X103856097Y-72485890D01*
X103791518Y-72440671D01*
X103674831Y-72358965D01*
X103674826Y-72358962D01*
X103669091Y-72356288D01*
X103616653Y-72310113D01*
X103597500Y-72243908D01*
X103597500Y-71171759D01*
X103597501Y-71171746D01*
X103597501Y-71152323D01*
X103617186Y-71085284D01*
X103650378Y-71050748D01*
X103714867Y-71005592D01*
X103826401Y-70927495D01*
X103993495Y-70760401D01*
X104123730Y-70574405D01*
X104178307Y-70530781D01*
X104247805Y-70523587D01*
X104310160Y-70555110D01*
X104326879Y-70574405D01*
X104456890Y-70760078D01*
X104623917Y-70927105D01*
X104817421Y-71062600D01*
X105031507Y-71162429D01*
X105031516Y-71162433D01*
X105245000Y-71219634D01*
X105245000Y-70322012D01*
X105302007Y-70354925D01*
X105429174Y-70389000D01*
X105560826Y-70389000D01*
X105687993Y-70354925D01*
X105745000Y-70322012D01*
X105745000Y-71219633D01*
X105958483Y-71162433D01*
X105958492Y-71162429D01*
X106172578Y-71062600D01*
X106366082Y-70927105D01*
X106533105Y-70760082D01*
X106668600Y-70566578D01*
X106768429Y-70352492D01*
X106768432Y-70352486D01*
X106825636Y-70139000D01*
X105928012Y-70139000D01*
X105960925Y-70081993D01*
X105995000Y-69954826D01*
X105995000Y-69823174D01*
X105960925Y-69696007D01*
X105928012Y-69639000D01*
X106825636Y-69639000D01*
X106825635Y-69638999D01*
X106768432Y-69425513D01*
X106768429Y-69425507D01*
X106668600Y-69211422D01*
X106668599Y-69211420D01*
X106533113Y-69017926D01*
X106533108Y-69017920D01*
X106366082Y-68850894D01*
X106172578Y-68715399D01*
X105958492Y-68615570D01*
X105958486Y-68615567D01*
X105745000Y-68558364D01*
X105745000Y-69455988D01*
X105687993Y-69423075D01*
X105560826Y-69389000D01*
X105429174Y-69389000D01*
X105302007Y-69423075D01*
X105245000Y-69455988D01*
X105245000Y-68558364D01*
X105244999Y-68558364D01*
X105031513Y-68615567D01*
X105031507Y-68615570D01*
X104817422Y-68715399D01*
X104817420Y-68715400D01*
X104623926Y-68850886D01*
X104623920Y-68850891D01*
X104456891Y-69017920D01*
X104456890Y-69017922D01*
X104326880Y-69203595D01*
X104272303Y-69247219D01*
X104202804Y-69254412D01*
X104140450Y-69222890D01*
X104123730Y-69203594D01*
X103993494Y-69017597D01*
X103826402Y-68850506D01*
X103826395Y-68850501D01*
X103814254Y-68842000D01*
X103749518Y-68796671D01*
X103632831Y-68714965D01*
X103632826Y-68714962D01*
X103627091Y-68712288D01*
X103574653Y-68666113D01*
X103555500Y-68599908D01*
X103555500Y-68210190D01*
X103575185Y-68143151D01*
X103591814Y-68122513D01*
X104542329Y-67171963D01*
X104603649Y-67138479D01*
X104673340Y-67143462D01*
X104729275Y-67185333D01*
X104750899Y-67232048D01*
X104751629Y-67235247D01*
X104811211Y-67405523D01*
X104872012Y-67502286D01*
X104907184Y-67558262D01*
X105034738Y-67685816D01*
X105098353Y-67725788D01*
X105164342Y-67767252D01*
X105187478Y-67781789D01*
X105328252Y-67831048D01*
X105357745Y-67841368D01*
X105357750Y-67841369D01*
X105536996Y-67861565D01*
X105537000Y-67861565D01*
X105537004Y-67861565D01*
X105716249Y-67841369D01*
X105716252Y-67841368D01*
X105716255Y-67841368D01*
X105886522Y-67781789D01*
X106039262Y-67685816D01*
X106039267Y-67685810D01*
X106042097Y-67683555D01*
X106044275Y-67682665D01*
X106045158Y-67682111D01*
X106045255Y-67682265D01*
X106106783Y-67657145D01*
X106119412Y-67656500D01*
X117035481Y-67656500D01*
X117101453Y-67675506D01*
X117181477Y-67725789D01*
X117181481Y-67725790D01*
X117351737Y-67785366D01*
X117351743Y-67785367D01*
X117351745Y-67785368D01*
X117351746Y-67785368D01*
X117351750Y-67785369D01*
X117530996Y-67805565D01*
X117531000Y-67805565D01*
X117531004Y-67805565D01*
X117710249Y-67785369D01*
X117710252Y-67785368D01*
X117710255Y-67785368D01*
X117880522Y-67725789D01*
X118033262Y-67629816D01*
X118160816Y-67502262D01*
X118256789Y-67349522D01*
X118316368Y-67179255D01*
X118317190Y-67171965D01*
X118336654Y-66999211D01*
X118363720Y-66934797D01*
X118421315Y-66895242D01*
X118491152Y-66893104D01*
X118547555Y-66925413D01*
X120675181Y-69053037D01*
X120708666Y-69114360D01*
X120711500Y-69140718D01*
X120711500Y-75231288D01*
X120691815Y-75298327D01*
X120658624Y-75332863D01*
X120540594Y-75415508D01*
X120373505Y-75582597D01*
X120243575Y-75768158D01*
X120188998Y-75811783D01*
X120119500Y-75818977D01*
X120057145Y-75787454D01*
X120040425Y-75768158D01*
X119910494Y-75582597D01*
X119743402Y-75415506D01*
X119743395Y-75415501D01*
X119549834Y-75279967D01*
X119549830Y-75279965D01*
X119546225Y-75278284D01*
X119335663Y-75180097D01*
X119335659Y-75180096D01*
X119335655Y-75180094D01*
X119107413Y-75118938D01*
X119107403Y-75118936D01*
X118872001Y-75098341D01*
X118871999Y-75098341D01*
X118636596Y-75118936D01*
X118636586Y-75118938D01*
X118408344Y-75180094D01*
X118408335Y-75180098D01*
X118194171Y-75279964D01*
X118194169Y-75279965D01*
X118000597Y-75415505D01*
X117833505Y-75582597D01*
X117697965Y-75776169D01*
X117697964Y-75776171D01*
X117598098Y-75990335D01*
X117598094Y-75990344D01*
X117536938Y-76218586D01*
X117536936Y-76218596D01*
X117516341Y-76453999D01*
X117516341Y-76454000D01*
X117536936Y-76689403D01*
X117536938Y-76689413D01*
X117598094Y-76917655D01*
X117598096Y-76917659D01*
X117598097Y-76917663D01*
X117677801Y-77088588D01*
X117697965Y-77131830D01*
X117697967Y-77131834D01*
X117806281Y-77286521D01*
X117833505Y-77325401D01*
X118000599Y-77492495D01*
X118097384Y-77560265D01*
X118194165Y-77628032D01*
X118194167Y-77628033D01*
X118194170Y-77628035D01*
X118408337Y-77727903D01*
X118636592Y-77789063D01*
X118824918Y-77805539D01*
X118871999Y-77809659D01*
X118872000Y-77809659D01*
X118872001Y-77809659D01*
X118911234Y-77806226D01*
X119107408Y-77789063D01*
X119235757Y-77754672D01*
X119305606Y-77756335D01*
X119355530Y-77786765D01*
X121049284Y-79480520D01*
X121049286Y-79480521D01*
X121049290Y-79480524D01*
X121186209Y-79559573D01*
X121186216Y-79559577D01*
X121338943Y-79600501D01*
X121338945Y-79600501D01*
X121504654Y-79600501D01*
X121504670Y-79600500D01*
X126997723Y-79600500D01*
X127078907Y-79600519D01*
X127078907Y-79600518D01*
X127078917Y-79600519D01*
X127078927Y-79600516D01*
X127079045Y-79600500D01*
X127079057Y-79600500D01*
X127153930Y-79580437D01*
X127153961Y-79580437D01*
X127153959Y-79580430D01*
X127182407Y-79572813D01*
X127231654Y-79559631D01*
X127231661Y-79559626D01*
X127231737Y-79559596D01*
X127231775Y-79559579D01*
X127231784Y-79559577D01*
X127301315Y-79519433D01*
X127368604Y-79480605D01*
X127368608Y-79480600D01*
X127368623Y-79480592D01*
X127368700Y-79480533D01*
X127368709Y-79480523D01*
X127368716Y-79480520D01*
X127426560Y-79422674D01*
X127426584Y-79422661D01*
X127426579Y-79422656D01*
X128006476Y-78843027D01*
X128006712Y-78842823D01*
X128012713Y-78836821D01*
X128012716Y-78836820D01*
X128070751Y-78778784D01*
X128124433Y-78725128D01*
X128124435Y-78725123D01*
X128124445Y-78725114D01*
X128124511Y-78725029D01*
X128124516Y-78725019D01*
X128124520Y-78725016D01*
X128165546Y-78653954D01*
X128203522Y-78588215D01*
X128203523Y-78588208D01*
X128203539Y-78588182D01*
X128203569Y-78588110D01*
X128203575Y-78588087D01*
X128203577Y-78588084D01*
X128224053Y-78511659D01*
X128224070Y-78511632D01*
X128224062Y-78511630D01*
X128228643Y-78494547D01*
X128244482Y-78435498D01*
X128244482Y-78435487D01*
X128244498Y-78435360D01*
X128244500Y-78435357D01*
X128244500Y-78358577D01*
X128244519Y-78277383D01*
X128244518Y-78277380D01*
X128244520Y-78269447D01*
X128244500Y-78269127D01*
X128244500Y-77928499D01*
X128264185Y-77861460D01*
X128316989Y-77815705D01*
X128368500Y-77804499D01*
X129929871Y-77804499D01*
X129929872Y-77804499D01*
X129989483Y-77798091D01*
X130124331Y-77747796D01*
X130239546Y-77661546D01*
X130325796Y-77546331D01*
X130376091Y-77411483D01*
X130382500Y-77351873D01*
X130382500Y-77000000D01*
X162894592Y-77000000D01*
X162914201Y-77286680D01*
X162972666Y-77568034D01*
X162972667Y-77568037D01*
X163068894Y-77838793D01*
X163068893Y-77838793D01*
X163201098Y-78093935D01*
X163366812Y-78328700D01*
X163451923Y-78419831D01*
X163562947Y-78538708D01*
X163785853Y-78720055D01*
X163987735Y-78842823D01*
X164031382Y-78869365D01*
X164218237Y-78950526D01*
X164294942Y-78983844D01*
X164571642Y-79061371D01*
X164821920Y-79095771D01*
X164856321Y-79100500D01*
X164856322Y-79100500D01*
X165143679Y-79100500D01*
X165174370Y-79096281D01*
X165428358Y-79061371D01*
X165705058Y-78983844D01*
X165818015Y-78934779D01*
X165968617Y-78869365D01*
X165968620Y-78869363D01*
X165968625Y-78869361D01*
X166214147Y-78720055D01*
X166437053Y-78538708D01*
X166633189Y-78328698D01*
X166798901Y-78093936D01*
X166931104Y-77838797D01*
X167027334Y-77568032D01*
X167085798Y-77286686D01*
X167105408Y-77000000D01*
X167085798Y-76713314D01*
X167027334Y-76431968D01*
X166931105Y-76161206D01*
X166931106Y-76161206D01*
X166798901Y-75906064D01*
X166633187Y-75671299D01*
X166550341Y-75582594D01*
X166437053Y-75461292D01*
X166236742Y-75298327D01*
X166214146Y-75279944D01*
X165968617Y-75130634D01*
X165705063Y-75016158D01*
X165705061Y-75016157D01*
X165705058Y-75016156D01*
X165575578Y-74979877D01*
X165428364Y-74938630D01*
X165428359Y-74938629D01*
X165428358Y-74938629D01*
X165286018Y-74919064D01*
X165143679Y-74899500D01*
X165143678Y-74899500D01*
X164856322Y-74899500D01*
X164856321Y-74899500D01*
X164571642Y-74938629D01*
X164571635Y-74938630D01*
X164363861Y-74996845D01*
X164294942Y-75016156D01*
X164294939Y-75016156D01*
X164294936Y-75016158D01*
X164294935Y-75016158D01*
X164031382Y-75130634D01*
X163785853Y-75279944D01*
X163562950Y-75461289D01*
X163366812Y-75671299D01*
X163201098Y-75906064D01*
X163068894Y-76161206D01*
X162972667Y-76431962D01*
X162972666Y-76431965D01*
X162914201Y-76713319D01*
X162894592Y-77000000D01*
X130382500Y-77000000D01*
X130382499Y-75556128D01*
X130376091Y-75496517D01*
X130346019Y-75415891D01*
X130325797Y-75361671D01*
X130325793Y-75361664D01*
X130239547Y-75246455D01*
X130239544Y-75246452D01*
X130124335Y-75160206D01*
X130124328Y-75160202D01*
X129989482Y-75109908D01*
X129989483Y-75109908D01*
X129929883Y-75103501D01*
X129929881Y-75103500D01*
X129929873Y-75103500D01*
X129929865Y-75103500D01*
X129682219Y-75103500D01*
X129615180Y-75083815D01*
X129574840Y-75041515D01*
X129553659Y-75004840D01*
X129553651Y-75004825D01*
X129515433Y-74938630D01*
X129512520Y-74933584D01*
X129512515Y-74933579D01*
X129512472Y-74933522D01*
X129462435Y-74883498D01*
X129462435Y-74883497D01*
X129462423Y-74883487D01*
X129394832Y-74815896D01*
X129394687Y-74815769D01*
X128516830Y-73938139D01*
X128483337Y-73876820D01*
X128480500Y-73850446D01*
X128480500Y-66477776D01*
X128500185Y-66410737D01*
X128552989Y-66364982D01*
X128622147Y-66355038D01*
X128669779Y-66372351D01*
X128675534Y-66375914D01*
X128675542Y-66375919D01*
X128693849Y-66383011D01*
X128862178Y-66448222D01*
X129058923Y-66485000D01*
X129058925Y-66485000D01*
X129259075Y-66485000D01*
X129259077Y-66485000D01*
X129455822Y-66448222D01*
X129642460Y-66375918D01*
X129812634Y-66270551D01*
X129941401Y-66153164D01*
X129960547Y-66135710D01*
X129970192Y-66122939D01*
X130081168Y-65975983D01*
X130170385Y-65796812D01*
X130225159Y-65604300D01*
X130243627Y-65405000D01*
X130225159Y-65205700D01*
X130170385Y-65013188D01*
X130157500Y-64987311D01*
X130081171Y-64834022D01*
X130081166Y-64834014D01*
X129960547Y-64674289D01*
X129812634Y-64539449D01*
X129812632Y-64539447D01*
X129642463Y-64434083D01*
X129642457Y-64434080D01*
X129495362Y-64377096D01*
X129455822Y-64361778D01*
X129259077Y-64325000D01*
X129058923Y-64325000D01*
X128862178Y-64361778D01*
X128862175Y-64361778D01*
X128862175Y-64361779D01*
X128675543Y-64434080D01*
X128675540Y-64434082D01*
X128669774Y-64437651D01*
X128602416Y-64456205D01*
X128535717Y-64435397D01*
X128490856Y-64381831D01*
X128480500Y-64332223D01*
X128480500Y-61279617D01*
X128480500Y-61270389D01*
X128480504Y-61189266D01*
X128480501Y-61189256D01*
X128480500Y-61189246D01*
X128480500Y-61189243D01*
X128460468Y-61114481D01*
X128452996Y-61086592D01*
X128439583Y-61036526D01*
X128396119Y-60961244D01*
X128361183Y-60900728D01*
X128360586Y-60899665D01*
X128360542Y-60899606D01*
X128297223Y-60836287D01*
X128297220Y-60836283D01*
X128297220Y-60836284D01*
X126165101Y-58703997D01*
X126131620Y-58642673D01*
X126136607Y-58572982D01*
X126178480Y-58517050D01*
X126243946Y-58492636D01*
X126297580Y-58500692D01*
X126322178Y-58510222D01*
X126518923Y-58547000D01*
X126518925Y-58547000D01*
X126719075Y-58547000D01*
X126719077Y-58547000D01*
X126915822Y-58510222D01*
X127102460Y-58437918D01*
X127272634Y-58332551D01*
X127420549Y-58197708D01*
X127541168Y-58037983D01*
X127630385Y-57858812D01*
X127685159Y-57666300D01*
X127703627Y-57467000D01*
X127703627Y-57466999D01*
X128074373Y-57466999D01*
X128074373Y-57467000D01*
X128092840Y-57666295D01*
X128092840Y-57666297D01*
X128092841Y-57666300D01*
X128142755Y-57841730D01*
X128147616Y-57858815D01*
X128236828Y-58037977D01*
X128236833Y-58037985D01*
X128357452Y-58197710D01*
X128473922Y-58303886D01*
X128496760Y-58324706D01*
X128505365Y-58332550D01*
X128505367Y-58332552D01*
X128675536Y-58437916D01*
X128675542Y-58437919D01*
X128686495Y-58442162D01*
X128862178Y-58510222D01*
X129058923Y-58547000D01*
X129058925Y-58547000D01*
X129259075Y-58547000D01*
X129259077Y-58547000D01*
X129455822Y-58510222D01*
X129642460Y-58437918D01*
X129812634Y-58332551D01*
X129960549Y-58197708D01*
X130081168Y-58037983D01*
X130170385Y-57858812D01*
X130225159Y-57666300D01*
X130243627Y-57467000D01*
X130225159Y-57267700D01*
X130170385Y-57075188D01*
X130095835Y-56925472D01*
X130081171Y-56896022D01*
X130081166Y-56896014D01*
X129960547Y-56736289D01*
X129812634Y-56601449D01*
X129812632Y-56601447D01*
X129642463Y-56496083D01*
X129642457Y-56496080D01*
X129455827Y-56423780D01*
X129455822Y-56423778D01*
X129259077Y-56387000D01*
X129058923Y-56387000D01*
X128862178Y-56423778D01*
X128862175Y-56423778D01*
X128862175Y-56423779D01*
X128675542Y-56496080D01*
X128675536Y-56496083D01*
X128505367Y-56601447D01*
X128505365Y-56601449D01*
X128357452Y-56736289D01*
X128236833Y-56896014D01*
X128236828Y-56896022D01*
X128147616Y-57075184D01*
X128092840Y-57267704D01*
X128074373Y-57466999D01*
X127703627Y-57466999D01*
X127685159Y-57267700D01*
X127630385Y-57075188D01*
X127555835Y-56925472D01*
X127541171Y-56896022D01*
X127541166Y-56896014D01*
X127420547Y-56736289D01*
X127272634Y-56601449D01*
X127272632Y-56601447D01*
X127102463Y-56496083D01*
X127102457Y-56496080D01*
X126915827Y-56423780D01*
X126915822Y-56423778D01*
X126719077Y-56387000D01*
X126518923Y-56387000D01*
X126322178Y-56423778D01*
X126322175Y-56423778D01*
X126322175Y-56423779D01*
X126135542Y-56496080D01*
X126135536Y-56496083D01*
X125965367Y-56601447D01*
X125965365Y-56601449D01*
X125817452Y-56736289D01*
X125696833Y-56896014D01*
X125696828Y-56896022D01*
X125607616Y-57075184D01*
X125552840Y-57267704D01*
X125534373Y-57466999D01*
X125534373Y-57467000D01*
X125552840Y-57666295D01*
X125552840Y-57666297D01*
X125552841Y-57666300D01*
X125591340Y-57801610D01*
X125590752Y-57871478D01*
X125552485Y-57929936D01*
X125488688Y-57958426D01*
X125419615Y-57947901D01*
X125384388Y-57923222D01*
X125236990Y-57775813D01*
X125184815Y-57723633D01*
X125151334Y-57662311D01*
X125149030Y-57624521D01*
X125163627Y-57467000D01*
X125145159Y-57267700D01*
X125090385Y-57075188D01*
X125015835Y-56925472D01*
X125001171Y-56896022D01*
X125001166Y-56896014D01*
X124880547Y-56736289D01*
X124732634Y-56601449D01*
X124732632Y-56601447D01*
X124562463Y-56496083D01*
X124562457Y-56496080D01*
X124375827Y-56423780D01*
X124375822Y-56423778D01*
X124179077Y-56387000D01*
X123978923Y-56387000D01*
X123782178Y-56423778D01*
X123782175Y-56423778D01*
X123782175Y-56423779D01*
X123595542Y-56496080D01*
X123595536Y-56496083D01*
X123425367Y-56601447D01*
X123425365Y-56601449D01*
X123277452Y-56736289D01*
X123156833Y-56896014D01*
X123156828Y-56896022D01*
X123067616Y-57075184D01*
X123012840Y-57267704D01*
X122994373Y-57466999D01*
X122994373Y-57467000D01*
X123012840Y-57666297D01*
X123051279Y-57801398D01*
X123050691Y-57871265D01*
X123012424Y-57929723D01*
X122948626Y-57958213D01*
X122879554Y-57947688D01*
X122844335Y-57923016D01*
X122825226Y-57903909D01*
X122644833Y-57723533D01*
X122611346Y-57662213D01*
X122609040Y-57624413D01*
X122623627Y-57467000D01*
X122605159Y-57267700D01*
X122550385Y-57075188D01*
X122475835Y-56925472D01*
X122461171Y-56896022D01*
X122461166Y-56896014D01*
X122340547Y-56736289D01*
X122192634Y-56601449D01*
X122192632Y-56601447D01*
X122022463Y-56496083D01*
X122022457Y-56496080D01*
X121835827Y-56423780D01*
X121835822Y-56423778D01*
X121639077Y-56387000D01*
X121438923Y-56387000D01*
X121242178Y-56423778D01*
X121242175Y-56423778D01*
X121242175Y-56423779D01*
X121055542Y-56496080D01*
X121055536Y-56496083D01*
X120885367Y-56601447D01*
X120880792Y-56604903D01*
X120879494Y-56603184D01*
X120825201Y-56629635D01*
X120755816Y-56621418D01*
X120701888Y-56576994D01*
X120680539Y-56510466D01*
X120680500Y-56507375D01*
X120680500Y-53946329D01*
X120700185Y-53879290D01*
X120716818Y-53858649D01*
X124092004Y-50483609D01*
X124153327Y-50450127D01*
X124200092Y-50448985D01*
X124388951Y-50480500D01*
X124388952Y-50480500D01*
X124621048Y-50480500D01*
X124621049Y-50480500D01*
X124849981Y-50442298D01*
X125069503Y-50366936D01*
X125273626Y-50256470D01*
X125274170Y-50256047D01*
X125350707Y-50196476D01*
X125456784Y-50113913D01*
X125613979Y-49943153D01*
X125740924Y-49748849D01*
X125834157Y-49536300D01*
X125891134Y-49311305D01*
X125891135Y-49311297D01*
X125910300Y-49080006D01*
X125910300Y-49079993D01*
X125891135Y-48848702D01*
X125891134Y-48848699D01*
X125891134Y-48848695D01*
X125835585Y-48629339D01*
X125838210Y-48559520D01*
X125878166Y-48502203D01*
X125942767Y-48475586D01*
X125955791Y-48474900D01*
X127808905Y-48474900D01*
X127875944Y-48494585D01*
X127896583Y-48511215D01*
X132074066Y-52688641D01*
X132130077Y-52744651D01*
X132163562Y-52805974D01*
X132158578Y-52875666D01*
X132144225Y-52901024D01*
X132144889Y-52901442D01*
X132045211Y-53060076D01*
X131985631Y-53230345D01*
X131985630Y-53230350D01*
X131965435Y-53409596D01*
X131965435Y-53409603D01*
X131985630Y-53588849D01*
X131985631Y-53588854D01*
X132045211Y-53759123D01*
X132141185Y-53911863D01*
X132143445Y-53914697D01*
X132144334Y-53916875D01*
X132144889Y-53917758D01*
X132144734Y-53917855D01*
X132169855Y-53979383D01*
X132170500Y-53992012D01*
X132170500Y-56310430D01*
X132150815Y-56377469D01*
X132098011Y-56423224D01*
X132028853Y-56433168D01*
X132001711Y-56426058D01*
X131995830Y-56423780D01*
X131995824Y-56423778D01*
X131995822Y-56423778D01*
X131799077Y-56387000D01*
X131598923Y-56387000D01*
X131402178Y-56423778D01*
X131402175Y-56423778D01*
X131402175Y-56423779D01*
X131215542Y-56496080D01*
X131215536Y-56496083D01*
X131045367Y-56601447D01*
X131045365Y-56601449D01*
X130897452Y-56736289D01*
X130776833Y-56896014D01*
X130776828Y-56896022D01*
X130687616Y-57075184D01*
X130632840Y-57267704D01*
X130614373Y-57466999D01*
X130614373Y-57467000D01*
X130632840Y-57666295D01*
X130632840Y-57666297D01*
X130632841Y-57666300D01*
X130682755Y-57841730D01*
X130687616Y-57858815D01*
X130776828Y-58037977D01*
X130776833Y-58037985D01*
X130897452Y-58197710D01*
X131013922Y-58303886D01*
X131036760Y-58324706D01*
X131045365Y-58332550D01*
X131045367Y-58332552D01*
X131215536Y-58437916D01*
X131215542Y-58437919D01*
X131226495Y-58442162D01*
X131402178Y-58510222D01*
X131598923Y-58547000D01*
X131598925Y-58547000D01*
X131799075Y-58547000D01*
X131799077Y-58547000D01*
X131995822Y-58510222D01*
X132001705Y-58507942D01*
X132071325Y-58502078D01*
X132133066Y-58534786D01*
X132167323Y-58595681D01*
X132170500Y-58623568D01*
X132170500Y-63850330D01*
X132170499Y-63850348D01*
X132170499Y-64016054D01*
X132170498Y-64016054D01*
X132211423Y-64168786D01*
X132211424Y-64168787D01*
X132233774Y-64207499D01*
X132241121Y-64220224D01*
X132257595Y-64288124D01*
X132234743Y-64354151D01*
X132179823Y-64397342D01*
X132110269Y-64403984D01*
X132088942Y-64397852D01*
X131995826Y-64361779D01*
X131995823Y-64361778D01*
X131995822Y-64361778D01*
X131799077Y-64325000D01*
X131598923Y-64325000D01*
X131402178Y-64361778D01*
X131402175Y-64361778D01*
X131402175Y-64361779D01*
X131215542Y-64434080D01*
X131215536Y-64434083D01*
X131045367Y-64539447D01*
X131045365Y-64539449D01*
X130897452Y-64674289D01*
X130776833Y-64834014D01*
X130776828Y-64834022D01*
X130687616Y-65013184D01*
X130632840Y-65205704D01*
X130614373Y-65404999D01*
X130614373Y-65405000D01*
X130632840Y-65604295D01*
X130632840Y-65604297D01*
X130632841Y-65604300D01*
X130677350Y-65760734D01*
X130687616Y-65796815D01*
X130776828Y-65975977D01*
X130776833Y-65975985D01*
X130897452Y-66135710D01*
X131045365Y-66270550D01*
X131045367Y-66270552D01*
X131215536Y-66375916D01*
X131215542Y-66375919D01*
X131233849Y-66383011D01*
X131402178Y-66448222D01*
X131598923Y-66485000D01*
X131598925Y-66485000D01*
X131799075Y-66485000D01*
X131799077Y-66485000D01*
X131995822Y-66448222D01*
X132182460Y-66375918D01*
X132352634Y-66270551D01*
X132481401Y-66153164D01*
X132500547Y-66135710D01*
X132510192Y-66122939D01*
X132621168Y-65975983D01*
X132710385Y-65796812D01*
X132765159Y-65604300D01*
X132783627Y-65405000D01*
X132765159Y-65205700D01*
X132726687Y-65070484D01*
X132727275Y-65000617D01*
X132765542Y-64942159D01*
X132829339Y-64913669D01*
X132898412Y-64924194D01*
X132933632Y-64948868D01*
X133040103Y-65055339D01*
X133133174Y-65148410D01*
X133166659Y-65209733D01*
X133168964Y-65247532D01*
X133154373Y-65404998D01*
X133154373Y-65405000D01*
X133172840Y-65604295D01*
X133172840Y-65604297D01*
X133172841Y-65604300D01*
X133217350Y-65760734D01*
X133227616Y-65796815D01*
X133316828Y-65975977D01*
X133316833Y-65975985D01*
X133437452Y-66135710D01*
X133585365Y-66270550D01*
X133585367Y-66270552D01*
X133755536Y-66375916D01*
X133755542Y-66375919D01*
X133773849Y-66383011D01*
X133942178Y-66448222D01*
X134138923Y-66485000D01*
X134138925Y-66485000D01*
X134339075Y-66485000D01*
X134339077Y-66485000D01*
X134535822Y-66448222D01*
X134722460Y-66375918D01*
X134892634Y-66270551D01*
X135021401Y-66153164D01*
X135040547Y-66135710D01*
X135050192Y-66122939D01*
X135161168Y-65975983D01*
X135250385Y-65796812D01*
X135305159Y-65604300D01*
X135323627Y-65405000D01*
X135305159Y-65205700D01*
X135250385Y-65013188D01*
X135237500Y-64987311D01*
X135161171Y-64834022D01*
X135161166Y-64834014D01*
X135040547Y-64674289D01*
X134892634Y-64539449D01*
X134892632Y-64539447D01*
X134722463Y-64434083D01*
X134722457Y-64434080D01*
X134575362Y-64377096D01*
X134535822Y-64361778D01*
X134339077Y-64325000D01*
X134138923Y-64325000D01*
X134138921Y-64325000D01*
X134093063Y-64333572D01*
X134023548Y-64326540D01*
X133982599Y-64299364D01*
X133699292Y-64016057D01*
X133407819Y-63724583D01*
X133374334Y-63663260D01*
X133371500Y-63636902D01*
X133371500Y-58418419D01*
X133391185Y-58351380D01*
X133443989Y-58305625D01*
X133513147Y-58295681D01*
X133576703Y-58324706D01*
X133579041Y-58326785D01*
X133585365Y-58332550D01*
X133585367Y-58332552D01*
X133755536Y-58437916D01*
X133755542Y-58437919D01*
X133766495Y-58442162D01*
X133942178Y-58510222D01*
X134138923Y-58547000D01*
X134138925Y-58547000D01*
X134339075Y-58547000D01*
X134339077Y-58547000D01*
X134535822Y-58510222D01*
X134722460Y-58437918D01*
X134722464Y-58437915D01*
X134727586Y-58435365D01*
X134728574Y-58437350D01*
X134786561Y-58421366D01*
X134853264Y-58442162D01*
X134898135Y-58495719D01*
X134908500Y-58545349D01*
X134908500Y-61508330D01*
X134908499Y-61508348D01*
X134908499Y-61674054D01*
X134908498Y-61674054D01*
X134911335Y-61684642D01*
X134947791Y-61820695D01*
X134949424Y-61826787D01*
X134963114Y-61850498D01*
X134963115Y-61850500D01*
X135028477Y-61963712D01*
X135028481Y-61963717D01*
X135147349Y-62082585D01*
X135147355Y-62082590D01*
X137232680Y-64167916D01*
X137266165Y-64229239D01*
X137261181Y-64298931D01*
X137219309Y-64354864D01*
X137153845Y-64379281D01*
X137100205Y-64371224D01*
X137097210Y-64370064D01*
X137075822Y-64361778D01*
X136879077Y-64325000D01*
X136678923Y-64325000D01*
X136482178Y-64361778D01*
X136482175Y-64361778D01*
X136482175Y-64361779D01*
X136295542Y-64434080D01*
X136295536Y-64434083D01*
X136125367Y-64539447D01*
X136125365Y-64539449D01*
X135977452Y-64674289D01*
X135856833Y-64834014D01*
X135856828Y-64834022D01*
X135767616Y-65013184D01*
X135712840Y-65205704D01*
X135694373Y-65404999D01*
X135694373Y-65405000D01*
X135712840Y-65604295D01*
X135712840Y-65604297D01*
X135712841Y-65604300D01*
X135757350Y-65760734D01*
X135767616Y-65796815D01*
X135856828Y-65975977D01*
X135856833Y-65975985D01*
X135977452Y-66135710D01*
X136125365Y-66270550D01*
X136125367Y-66270552D01*
X136295536Y-66375916D01*
X136295542Y-66375919D01*
X136313849Y-66383011D01*
X136482178Y-66448222D01*
X136678923Y-66485000D01*
X136678925Y-66485000D01*
X136879075Y-66485000D01*
X136879077Y-66485000D01*
X137075822Y-66448222D01*
X137262460Y-66375918D01*
X137432634Y-66270551D01*
X137561401Y-66153164D01*
X137580547Y-66135710D01*
X137590192Y-66122939D01*
X137701168Y-65975983D01*
X137790385Y-65796812D01*
X137845159Y-65604300D01*
X137863627Y-65405000D01*
X137845159Y-65205700D01*
X137806687Y-65070484D01*
X137807275Y-65000619D01*
X137845542Y-64942160D01*
X137909339Y-64913670D01*
X137978412Y-64924194D01*
X138013635Y-64948871D01*
X138213174Y-65148410D01*
X138246659Y-65209733D01*
X138248964Y-65247532D01*
X138234373Y-65404998D01*
X138234373Y-65405000D01*
X138252840Y-65604295D01*
X138252840Y-65604297D01*
X138252841Y-65604300D01*
X138297350Y-65760734D01*
X138307616Y-65796815D01*
X138396828Y-65975977D01*
X138396833Y-65975985D01*
X138517452Y-66135710D01*
X138665365Y-66270550D01*
X138665367Y-66270552D01*
X138835536Y-66375916D01*
X138835542Y-66375919D01*
X138853849Y-66383011D01*
X139022178Y-66448222D01*
X139218923Y-66485000D01*
X139218925Y-66485000D01*
X139419075Y-66485000D01*
X139419077Y-66485000D01*
X139615822Y-66448222D01*
X139802460Y-66375918D01*
X139915552Y-66305894D01*
X139982910Y-66287338D01*
X140049610Y-66308146D01*
X140068507Y-66323638D01*
X141603848Y-67858915D01*
X142339835Y-68594871D01*
X142414284Y-68669320D01*
X142414286Y-68669321D01*
X142414290Y-68669324D01*
X142414292Y-68669325D01*
X142414294Y-68669327D01*
X142474730Y-68704218D01*
X142551218Y-68748379D01*
X142551275Y-68748402D01*
X142552103Y-68748616D01*
X142647153Y-68774083D01*
X142703111Y-68789077D01*
X142703899Y-68789295D01*
X142703945Y-68789301D01*
X142703951Y-68789300D01*
X142703955Y-68789302D01*
X142809365Y-68789300D01*
X143231872Y-68789300D01*
X143298911Y-68808985D01*
X143344666Y-68861789D01*
X143354610Y-68930947D01*
X143351647Y-68945394D01*
X143312364Y-69091999D01*
X143312364Y-69092000D01*
X144209988Y-69092000D01*
X144177075Y-69149007D01*
X144143000Y-69276174D01*
X144143000Y-69407826D01*
X144177075Y-69534993D01*
X144209988Y-69592000D01*
X143312364Y-69592000D01*
X143369567Y-69805486D01*
X143369570Y-69805492D01*
X143469399Y-70019578D01*
X143604894Y-70213082D01*
X143771917Y-70380105D01*
X143965421Y-70515600D01*
X144179507Y-70615429D01*
X144179516Y-70615433D01*
X144393000Y-70672634D01*
X144393000Y-69775012D01*
X144450007Y-69807925D01*
X144577174Y-69842000D01*
X144708826Y-69842000D01*
X144835993Y-69807925D01*
X144893000Y-69775012D01*
X144893000Y-70672633D01*
X145106483Y-70615433D01*
X145106492Y-70615429D01*
X145320578Y-70515600D01*
X145514082Y-70380105D01*
X145681105Y-70213082D01*
X145811119Y-70027405D01*
X145865696Y-69983781D01*
X145935195Y-69976588D01*
X145997549Y-70008110D01*
X146014269Y-70027405D01*
X146144505Y-70213401D01*
X146311599Y-70380495D01*
X146408384Y-70448265D01*
X146505165Y-70516032D01*
X146505167Y-70516033D01*
X146505170Y-70516035D01*
X146510894Y-70518704D01*
X146520904Y-70523372D01*
X146573344Y-70569544D01*
X146592500Y-70635754D01*
X146592500Y-71862908D01*
X146572815Y-71929947D01*
X146520914Y-71975286D01*
X146515173Y-71977963D01*
X146515169Y-71977965D01*
X146321597Y-72113505D01*
X146154508Y-72280594D01*
X146024269Y-72466595D01*
X145969692Y-72510219D01*
X145900193Y-72517412D01*
X145837839Y-72485890D01*
X145821119Y-72466594D01*
X145691113Y-72280926D01*
X145691108Y-72280920D01*
X145524082Y-72113894D01*
X145330578Y-71978399D01*
X145116492Y-71878570D01*
X145116486Y-71878567D01*
X144903000Y-71821364D01*
X144903000Y-72718988D01*
X144845993Y-72686075D01*
X144718826Y-72652000D01*
X144587174Y-72652000D01*
X144460007Y-72686075D01*
X144403000Y-72718988D01*
X144403000Y-71821364D01*
X144402999Y-71821364D01*
X144189513Y-71878567D01*
X144189507Y-71878570D01*
X143975422Y-71978399D01*
X143975420Y-71978400D01*
X143781926Y-72113886D01*
X143781920Y-72113891D01*
X143614891Y-72280920D01*
X143614886Y-72280926D01*
X143479400Y-72474420D01*
X143479399Y-72474422D01*
X143379570Y-72688507D01*
X143379567Y-72688513D01*
X143322364Y-72901999D01*
X143322364Y-72902000D01*
X144219988Y-72902000D01*
X144187075Y-72959007D01*
X144153000Y-73086174D01*
X144153000Y-73217826D01*
X144187075Y-73344993D01*
X144219988Y-73402000D01*
X143322364Y-73402000D01*
X143379567Y-73615486D01*
X143379570Y-73615492D01*
X143479399Y-73829578D01*
X143614894Y-74023082D01*
X143781917Y-74190105D01*
X143975421Y-74325600D01*
X144189507Y-74425429D01*
X144189516Y-74425433D01*
X144403000Y-74482634D01*
X144403000Y-73585012D01*
X144460007Y-73617925D01*
X144587174Y-73652000D01*
X144718826Y-73652000D01*
X144845993Y-73617925D01*
X144903000Y-73585012D01*
X144903000Y-74482633D01*
X145116483Y-74425433D01*
X145116492Y-74425429D01*
X145330578Y-74325600D01*
X145524082Y-74190105D01*
X145691105Y-74023082D01*
X145821119Y-73837405D01*
X145875696Y-73793781D01*
X145945195Y-73786588D01*
X146007549Y-73818110D01*
X146024269Y-73837405D01*
X146154505Y-74023401D01*
X146321599Y-74190495D01*
X146418384Y-74258265D01*
X146515165Y-74326032D01*
X146515167Y-74326033D01*
X146515170Y-74326035D01*
X146729337Y-74425903D01*
X146729343Y-74425904D01*
X146729344Y-74425905D01*
X146774424Y-74437984D01*
X146957592Y-74487063D01*
X147134034Y-74502500D01*
X147192999Y-74507659D01*
X147193000Y-74507659D01*
X147193001Y-74507659D01*
X147251966Y-74502500D01*
X147428408Y-74487063D01*
X147656663Y-74425903D01*
X147870830Y-74326035D01*
X148064401Y-74190495D01*
X148231495Y-74023401D01*
X148361425Y-73837842D01*
X148416002Y-73794217D01*
X148485500Y-73787023D01*
X148547855Y-73818546D01*
X148564575Y-73837842D01*
X148694281Y-74023082D01*
X148694505Y-74023401D01*
X148861599Y-74190495D01*
X148958384Y-74258265D01*
X149055165Y-74326032D01*
X149055167Y-74326033D01*
X149055170Y-74326035D01*
X149269337Y-74425903D01*
X149269343Y-74425904D01*
X149269344Y-74425905D01*
X149314424Y-74437984D01*
X149497592Y-74487063D01*
X149674034Y-74502500D01*
X149732999Y-74507659D01*
X149733000Y-74507659D01*
X149733001Y-74507659D01*
X149791966Y-74502500D01*
X149968408Y-74487063D01*
X150196663Y-74425903D01*
X150410830Y-74326035D01*
X150604401Y-74190495D01*
X150726329Y-74068566D01*
X150787648Y-74035084D01*
X150857340Y-74040068D01*
X150913274Y-74081939D01*
X150930189Y-74112917D01*
X150979202Y-74244328D01*
X150979206Y-74244335D01*
X151065452Y-74359544D01*
X151065455Y-74359547D01*
X151180664Y-74445793D01*
X151180671Y-74445797D01*
X151315517Y-74496091D01*
X151315516Y-74496091D01*
X151322444Y-74496835D01*
X151375127Y-74502500D01*
X153170872Y-74502499D01*
X153230483Y-74496091D01*
X153365331Y-74445796D01*
X153480546Y-74359546D01*
X153566796Y-74244331D01*
X153617091Y-74109483D01*
X153623500Y-74049873D01*
X153623499Y-72254128D01*
X153617091Y-72194517D01*
X153615810Y-72191083D01*
X153566797Y-72059671D01*
X153566793Y-72059664D01*
X153480547Y-71944455D01*
X153480544Y-71944452D01*
X153365335Y-71858206D01*
X153365328Y-71858202D01*
X153230482Y-71807908D01*
X153230483Y-71807908D01*
X153170883Y-71801501D01*
X153170881Y-71801500D01*
X153170873Y-71801500D01*
X153170865Y-71801500D01*
X152997500Y-71801500D01*
X152930461Y-71781815D01*
X152884706Y-71729011D01*
X152873500Y-71677500D01*
X152873500Y-70816499D01*
X152893185Y-70749460D01*
X152945989Y-70703705D01*
X152997500Y-70692499D01*
X153160871Y-70692499D01*
X153160872Y-70692499D01*
X153220483Y-70686091D01*
X153355331Y-70635796D01*
X153470546Y-70549546D01*
X153556796Y-70434331D01*
X153607091Y-70299483D01*
X153613500Y-70239873D01*
X153613499Y-68444128D01*
X153607091Y-68384517D01*
X153605810Y-68381083D01*
X153556797Y-68249671D01*
X153556793Y-68249664D01*
X153470547Y-68134455D01*
X153470544Y-68134452D01*
X153355335Y-68048206D01*
X153355328Y-68048202D01*
X153220482Y-67997908D01*
X153220483Y-67997908D01*
X153160883Y-67991501D01*
X153160881Y-67991500D01*
X153160873Y-67991500D01*
X153160865Y-67991500D01*
X152987501Y-67991500D01*
X152920462Y-67971815D01*
X152874707Y-67919011D01*
X152863501Y-67867500D01*
X152863501Y-67791945D01*
X152863501Y-67791943D01*
X152822577Y-67639215D01*
X152793177Y-67588293D01*
X152743520Y-67502284D01*
X152631716Y-67390480D01*
X152631715Y-67390479D01*
X152627385Y-67386149D01*
X152627374Y-67386139D01*
X142964825Y-57723590D01*
X142931340Y-57662267D01*
X142929035Y-57624467D01*
X142929689Y-57617418D01*
X142943627Y-57467000D01*
X142925159Y-57267700D01*
X142870385Y-57075188D01*
X142795835Y-56925472D01*
X142781171Y-56896022D01*
X142781166Y-56896014D01*
X142660547Y-56736289D01*
X142512634Y-56601449D01*
X142512632Y-56601447D01*
X142342463Y-56496083D01*
X142342457Y-56496080D01*
X142155827Y-56423780D01*
X142155822Y-56423778D01*
X141959077Y-56387000D01*
X141758923Y-56387000D01*
X141610458Y-56414752D01*
X141562172Y-56423779D01*
X141443293Y-56469833D01*
X141373670Y-56475695D01*
X141311930Y-56442984D01*
X141277675Y-56382088D01*
X141274500Y-56354206D01*
X141274500Y-50421343D01*
X141294185Y-50354304D01*
X141339483Y-50312288D01*
X141344459Y-50309595D01*
X141442626Y-50256470D01*
X141443170Y-50256047D01*
X141519707Y-50196476D01*
X141625784Y-50113913D01*
X141782979Y-49943153D01*
X141820191Y-49886196D01*
X141873337Y-49840839D01*
X141942569Y-49831415D01*
X142005904Y-49860917D01*
X142027809Y-49886196D01*
X142065016Y-49943147D01*
X142065019Y-49943151D01*
X142065021Y-49943153D01*
X142222216Y-50113913D01*
X142222219Y-50113915D01*
X142222222Y-50113918D01*
X142405365Y-50256464D01*
X142405371Y-50256468D01*
X142405374Y-50256470D01*
X142521760Y-50319455D01*
X142608652Y-50366479D01*
X142609497Y-50366936D01*
X142686418Y-50393343D01*
X142829015Y-50442297D01*
X142829017Y-50442297D01*
X142829019Y-50442298D01*
X143057951Y-50480500D01*
X143057952Y-50480500D01*
X143290048Y-50480500D01*
X143290049Y-50480500D01*
X143518981Y-50442298D01*
X143738503Y-50366936D01*
X143942626Y-50256470D01*
X143943170Y-50256047D01*
X144019707Y-50196476D01*
X144125784Y-50113913D01*
X144282979Y-49943153D01*
X144320490Y-49885738D01*
X144352542Y-49836679D01*
X144405688Y-49791322D01*
X144456351Y-49780500D01*
X155780500Y-49780500D01*
X155847539Y-49800185D01*
X155893294Y-49852989D01*
X155904500Y-49904500D01*
X155904500Y-57486142D01*
X155904492Y-57555121D01*
X155904499Y-57555195D01*
X155917429Y-57620194D01*
X155917430Y-57620206D01*
X155917432Y-57620206D01*
X155917432Y-57620207D01*
X155922561Y-57646004D01*
X155931401Y-57690471D01*
X155931416Y-57690520D01*
X155945133Y-57723635D01*
X155958286Y-57755389D01*
X155984192Y-57817948D01*
X155984194Y-57817951D01*
X155984197Y-57817958D01*
X155984228Y-57818016D01*
X155996615Y-57836555D01*
X156017493Y-57903233D01*
X155999009Y-57970613D01*
X155967826Y-58004711D01*
X155941454Y-58024453D01*
X155941452Y-58024455D01*
X155855206Y-58139664D01*
X155855202Y-58139671D01*
X155804908Y-58274517D01*
X155798669Y-58332551D01*
X155798501Y-58334123D01*
X155798500Y-58334135D01*
X155798500Y-60029870D01*
X155798501Y-60029876D01*
X155804908Y-60089483D01*
X155855202Y-60224328D01*
X155855206Y-60224335D01*
X155941452Y-60339544D01*
X155941455Y-60339547D01*
X156056664Y-60425793D01*
X156056671Y-60425797D01*
X156101618Y-60442561D01*
X156191517Y-60476091D01*
X156251127Y-60482500D01*
X156251153Y-60482499D01*
X156254453Y-60482678D01*
X156254372Y-60484183D01*
X156315672Y-60502112D01*
X156361483Y-60554867D01*
X156369016Y-60598464D01*
X157052553Y-61282000D01*
X157046339Y-61282000D01*
X156944606Y-61309259D01*
X156853394Y-61361920D01*
X156778920Y-61436394D01*
X156726259Y-61527606D01*
X156699000Y-61629339D01*
X156699000Y-61635552D01*
X156019974Y-60956526D01*
X156019973Y-60956526D01*
X155968868Y-61029512D01*
X155968866Y-61029516D01*
X155872734Y-61235673D01*
X155872730Y-61235682D01*
X155813860Y-61455389D01*
X155813858Y-61455400D01*
X155794034Y-61681997D01*
X155794034Y-61682002D01*
X155813858Y-61908599D01*
X155813860Y-61908610D01*
X155872730Y-62128317D01*
X155872735Y-62128331D01*
X155968863Y-62334478D01*
X156019974Y-62407472D01*
X156699000Y-61728446D01*
X156699000Y-61734661D01*
X156726259Y-61836394D01*
X156778920Y-61927606D01*
X156853394Y-62002080D01*
X156944606Y-62054741D01*
X157046339Y-62082000D01*
X157052553Y-62082000D01*
X156373526Y-62761025D01*
X156446513Y-62812132D01*
X156446521Y-62812136D01*
X156652668Y-62908264D01*
X156652682Y-62908269D01*
X156872389Y-62967139D01*
X156872400Y-62967141D01*
X157098998Y-62986966D01*
X157099002Y-62986966D01*
X157325599Y-62967141D01*
X157325610Y-62967139D01*
X157545317Y-62908269D01*
X157545331Y-62908264D01*
X157751478Y-62812136D01*
X157824471Y-62761024D01*
X157145447Y-62082000D01*
X157151661Y-62082000D01*
X157253394Y-62054741D01*
X157344606Y-62002080D01*
X157419080Y-61927606D01*
X157471741Y-61836394D01*
X157499000Y-61734661D01*
X157499000Y-61728447D01*
X158178024Y-62407471D01*
X158229136Y-62334478D01*
X158325264Y-62128331D01*
X158325269Y-62128317D01*
X158384139Y-61908610D01*
X158384141Y-61908599D01*
X158403966Y-61682002D01*
X158403966Y-61681997D01*
X158384141Y-61455400D01*
X158384139Y-61455389D01*
X158325269Y-61235682D01*
X158325264Y-61235668D01*
X158229136Y-61029521D01*
X158229132Y-61029513D01*
X158178025Y-60956526D01*
X157499000Y-61635551D01*
X157499000Y-61629339D01*
X157471741Y-61527606D01*
X157419080Y-61436394D01*
X157344606Y-61361920D01*
X157253394Y-61309259D01*
X157151661Y-61282000D01*
X157145445Y-61282000D01*
X157829646Y-60597800D01*
X157839492Y-60548807D01*
X157888107Y-60498624D01*
X157943633Y-60483981D01*
X157943576Y-60482900D01*
X157943571Y-60482854D01*
X157943573Y-60482853D01*
X157943564Y-60482676D01*
X157946857Y-60482499D01*
X157946872Y-60482499D01*
X158006483Y-60476091D01*
X158141331Y-60425796D01*
X158256546Y-60339546D01*
X158342796Y-60224331D01*
X158393091Y-60089483D01*
X158399500Y-60029873D01*
X158399499Y-58350135D01*
X161866700Y-58350135D01*
X161866700Y-60145870D01*
X161866701Y-60145876D01*
X161873108Y-60205483D01*
X161923402Y-60340328D01*
X161923406Y-60340335D01*
X162009652Y-60455544D01*
X162009655Y-60455547D01*
X162124864Y-60541793D01*
X162124871Y-60541797D01*
X162124874Y-60541798D01*
X162256798Y-60591002D01*
X162312731Y-60632873D01*
X162337149Y-60698337D01*
X162322298Y-60766610D01*
X162301147Y-60794865D01*
X162179086Y-60916926D01*
X162043600Y-61110420D01*
X162043599Y-61110422D01*
X161943770Y-61324507D01*
X161943767Y-61324513D01*
X161886564Y-61537999D01*
X161886564Y-61538000D01*
X162784188Y-61538000D01*
X162751275Y-61595007D01*
X162717200Y-61722174D01*
X162717200Y-61853826D01*
X162751275Y-61980993D01*
X162784188Y-62038000D01*
X161886564Y-62038000D01*
X161943767Y-62251486D01*
X161943770Y-62251492D01*
X162043599Y-62465578D01*
X162179094Y-62659082D01*
X162346117Y-62826105D01*
X162539621Y-62961600D01*
X162753707Y-63061429D01*
X162753716Y-63061433D01*
X162967200Y-63118634D01*
X162967200Y-62221012D01*
X163024207Y-62253925D01*
X163151374Y-62288000D01*
X163283026Y-62288000D01*
X163410193Y-62253925D01*
X163467200Y-62221012D01*
X163467200Y-63118633D01*
X163680683Y-63061433D01*
X163680692Y-63061429D01*
X163894778Y-62961600D01*
X164088282Y-62826105D01*
X164255305Y-62659082D01*
X164390800Y-62465578D01*
X164490629Y-62251492D01*
X164490632Y-62251486D01*
X164547836Y-62038000D01*
X163650212Y-62038000D01*
X163683125Y-61980993D01*
X163717200Y-61853826D01*
X163717200Y-61722174D01*
X163683125Y-61595007D01*
X163650212Y-61538000D01*
X164547836Y-61538000D01*
X164547835Y-61537999D01*
X164490632Y-61324513D01*
X164490629Y-61324507D01*
X164390800Y-61110422D01*
X164390799Y-61110420D01*
X164255313Y-60916926D01*
X164255308Y-60916920D01*
X164133253Y-60794865D01*
X164099768Y-60733542D01*
X164104752Y-60663850D01*
X164146624Y-60607917D01*
X164177600Y-60591002D01*
X164309531Y-60541796D01*
X164424746Y-60455546D01*
X164510996Y-60340331D01*
X164561291Y-60205483D01*
X164567700Y-60145873D01*
X164567699Y-58350128D01*
X164561291Y-58290517D01*
X164558672Y-58283496D01*
X164510997Y-58155671D01*
X164510993Y-58155664D01*
X164424747Y-58040455D01*
X164424744Y-58040452D01*
X164309535Y-57954206D01*
X164309528Y-57954202D01*
X164174682Y-57903908D01*
X164174683Y-57903908D01*
X164115083Y-57897501D01*
X164115081Y-57897500D01*
X164115073Y-57897500D01*
X164115064Y-57897500D01*
X162319329Y-57897500D01*
X162319323Y-57897501D01*
X162259716Y-57903908D01*
X162124871Y-57954202D01*
X162124864Y-57954206D01*
X162009655Y-58040452D01*
X162009652Y-58040455D01*
X161923406Y-58155664D01*
X161923402Y-58155671D01*
X161873108Y-58290517D01*
X161867676Y-58341046D01*
X161866701Y-58350123D01*
X161866700Y-58350135D01*
X158399499Y-58350135D01*
X158399499Y-58334128D01*
X158393091Y-58274517D01*
X158391239Y-58269552D01*
X158342797Y-58139671D01*
X158342793Y-58139664D01*
X158256547Y-58024455D01*
X158256544Y-58024452D01*
X158141335Y-57938206D01*
X158141328Y-57938202D01*
X158006482Y-57887908D01*
X158006483Y-57887908D01*
X157946883Y-57881501D01*
X157946881Y-57881500D01*
X157946873Y-57881500D01*
X157946865Y-57881500D01*
X157895342Y-57881500D01*
X157828303Y-57861815D01*
X157782548Y-57809011D01*
X157773721Y-57781674D01*
X157772694Y-57776507D01*
X157772602Y-57776024D01*
X157772600Y-57776017D01*
X157772514Y-57775813D01*
X157746482Y-57712965D01*
X157746477Y-57712955D01*
X157720009Y-57649038D01*
X157719803Y-57648526D01*
X157719609Y-57648240D01*
X157682568Y-57592805D01*
X157643159Y-57533812D01*
X157643157Y-57533810D01*
X157643112Y-57533755D01*
X157598792Y-57489436D01*
X157598782Y-57489426D01*
X157341810Y-57232401D01*
X157308331Y-57171075D01*
X157305500Y-57144729D01*
X157305500Y-50271731D01*
X157325185Y-50204692D01*
X157377989Y-50158937D01*
X157447147Y-50148993D01*
X157461594Y-50151956D01*
X157631342Y-50197440D01*
X157631350Y-50197441D01*
X157860998Y-50217533D01*
X157861002Y-50217533D01*
X158090649Y-50197441D01*
X158090660Y-50197439D01*
X158313325Y-50137777D01*
X158313334Y-50137773D01*
X158522266Y-50040347D01*
X158522270Y-50040345D01*
X158599037Y-49986591D01*
X158027151Y-49414705D01*
X158071362Y-49402859D01*
X158195638Y-49331109D01*
X158297109Y-49229638D01*
X158368859Y-49105362D01*
X158380705Y-49061151D01*
X158952591Y-49633037D01*
X159006345Y-49556270D01*
X159006347Y-49556266D01*
X159103773Y-49347334D01*
X159103777Y-49347325D01*
X159163439Y-49124660D01*
X159163441Y-49124649D01*
X159183533Y-48895001D01*
X159183533Y-48894998D01*
X159163441Y-48665350D01*
X159163439Y-48665339D01*
X159103777Y-48442674D01*
X159103773Y-48442665D01*
X159006350Y-48233740D01*
X158952589Y-48156961D01*
X158380704Y-48728847D01*
X158368859Y-48684638D01*
X158297109Y-48560362D01*
X158195638Y-48458891D01*
X158071362Y-48387141D01*
X158027151Y-48375294D01*
X158599037Y-47803408D01*
X158522262Y-47749650D01*
X158495953Y-47737382D01*
X158443513Y-47691210D01*
X158424361Y-47624016D01*
X158444577Y-47557135D01*
X158495953Y-47512618D01*
X158522262Y-47500349D01*
X158522270Y-47500345D01*
X158599037Y-47446591D01*
X158027151Y-46874705D01*
X158071362Y-46862859D01*
X158195638Y-46791109D01*
X158297109Y-46689638D01*
X158368859Y-46565362D01*
X158380705Y-46521151D01*
X158952591Y-47093037D01*
X159006345Y-47016270D01*
X159006347Y-47016266D01*
X159103773Y-46807334D01*
X159103777Y-46807325D01*
X159163439Y-46584660D01*
X159163441Y-46584649D01*
X159183533Y-46355001D01*
X159183533Y-46354998D01*
X159163441Y-46125350D01*
X159163439Y-46125339D01*
X159103777Y-45902674D01*
X159103773Y-45902665D01*
X159006350Y-45693740D01*
X158952589Y-45616961D01*
X158380704Y-46188847D01*
X158368859Y-46144638D01*
X158297109Y-46020362D01*
X158195638Y-45918891D01*
X158071362Y-45847141D01*
X158027151Y-45835294D01*
X158599037Y-45263408D01*
X158522262Y-45209650D01*
X158522261Y-45209649D01*
X158496542Y-45197656D01*
X158444103Y-45151483D01*
X158424952Y-45084290D01*
X158445169Y-45017409D01*
X158496541Y-44972895D01*
X158522518Y-44960782D01*
X158711431Y-44828504D01*
X158874504Y-44665431D01*
X159006782Y-44476518D01*
X159104246Y-44267505D01*
X159163935Y-44044743D01*
X159184035Y-43815000D01*
X159163935Y-43585257D01*
X159104246Y-43362495D01*
X159006782Y-43153483D01*
X158874504Y-42964569D01*
X158874502Y-42964566D01*
X158711432Y-42801496D01*
X158522522Y-42669220D01*
X158522519Y-42669219D01*
X158522520Y-42669219D01*
X158522518Y-42669218D01*
X158497134Y-42657381D01*
X158444696Y-42611211D01*
X158425543Y-42544018D01*
X158445758Y-42477136D01*
X158497134Y-42432618D01*
X158522518Y-42420782D01*
X158711431Y-42288504D01*
X158874504Y-42125431D01*
X159006782Y-41936518D01*
X159104246Y-41727505D01*
X159163935Y-41504743D01*
X159184035Y-41275000D01*
X159183920Y-41273690D01*
X159171497Y-41131690D01*
X159163935Y-41045257D01*
X159104246Y-40822495D01*
X159006782Y-40613483D01*
X158874504Y-40424569D01*
X158874502Y-40424566D01*
X158711432Y-40261496D01*
X158522522Y-40129220D01*
X158522518Y-40129218D01*
X158522514Y-40129216D01*
X158496542Y-40117105D01*
X158444104Y-40070934D01*
X158424952Y-40003740D01*
X158445168Y-39936859D01*
X158496545Y-39892341D01*
X158522267Y-39880346D01*
X158522270Y-39880345D01*
X158599037Y-39826591D01*
X158027151Y-39254705D01*
X158071362Y-39242859D01*
X158195638Y-39171109D01*
X158297109Y-39069638D01*
X158368859Y-38945362D01*
X158380705Y-38901151D01*
X158952591Y-39473037D01*
X159006345Y-39396270D01*
X159006347Y-39396266D01*
X159103773Y-39187334D01*
X159103777Y-39187325D01*
X159163439Y-38964660D01*
X159163441Y-38964649D01*
X159183533Y-38735001D01*
X159183533Y-38734998D01*
X159163441Y-38505350D01*
X159163439Y-38505339D01*
X159103777Y-38282674D01*
X159103773Y-38282665D01*
X159006350Y-38073740D01*
X158952589Y-37996961D01*
X158380704Y-38568847D01*
X158368859Y-38524638D01*
X158297109Y-38400362D01*
X158195638Y-38298891D01*
X158071362Y-38227141D01*
X158027151Y-38215294D01*
X158599037Y-37643408D01*
X158522264Y-37589651D01*
X158313334Y-37492226D01*
X158313325Y-37492222D01*
X158090660Y-37432560D01*
X158090649Y-37432558D01*
X157861002Y-37412467D01*
X157860998Y-37412467D01*
X157631350Y-37432558D01*
X157631339Y-37432560D01*
X157408674Y-37492222D01*
X157408665Y-37492225D01*
X157199731Y-37589654D01*
X157122961Y-37643407D01*
X157694848Y-38215294D01*
X157650638Y-38227141D01*
X157526362Y-38298891D01*
X157424891Y-38400362D01*
X157353141Y-38524638D01*
X157341294Y-38568848D01*
X156769407Y-37996961D01*
X156715654Y-38073731D01*
X156618225Y-38282665D01*
X156618222Y-38282674D01*
X156558560Y-38505339D01*
X156558558Y-38505350D01*
X156538467Y-38734998D01*
X156538467Y-38735001D01*
X156558558Y-38964649D01*
X156558560Y-38964660D01*
X156618222Y-39187325D01*
X156618226Y-39187334D01*
X156715651Y-39396264D01*
X156769408Y-39473037D01*
X157341294Y-38901151D01*
X157353141Y-38945362D01*
X157424891Y-39069638D01*
X157526362Y-39171109D01*
X157650638Y-39242859D01*
X157694848Y-39254705D01*
X157122961Y-39826590D01*
X157199735Y-39880348D01*
X157225456Y-39892342D01*
X157277895Y-39938514D01*
X157297047Y-40005708D01*
X157276831Y-40072589D01*
X157225458Y-40117105D01*
X157199486Y-40129216D01*
X157199482Y-40129218D01*
X157010566Y-40261497D01*
X156847497Y-40424566D01*
X156715218Y-40613482D01*
X156715217Y-40613484D01*
X156617755Y-40822493D01*
X156617751Y-40822502D01*
X156558066Y-41045251D01*
X156558064Y-41045262D01*
X156537965Y-41274998D01*
X156537965Y-41275001D01*
X156558064Y-41504737D01*
X156559006Y-41510077D01*
X156556772Y-41510470D01*
X156555308Y-41570650D01*
X156524901Y-41620508D01*
X156110541Y-42034902D01*
X156110538Y-42034904D01*
X156060877Y-42084564D01*
X156040292Y-42115376D01*
X156033575Y-42125431D01*
X156008557Y-42162872D01*
X155984217Y-42199300D01*
X155956501Y-42266220D01*
X155956500Y-42266222D01*
X155931412Y-42326790D01*
X155919132Y-42388541D01*
X155919132Y-42388544D01*
X155904498Y-42462117D01*
X155904500Y-42512066D01*
X155904500Y-48255500D01*
X155884815Y-48322539D01*
X155832011Y-48368294D01*
X155780500Y-48379500D01*
X144456351Y-48379500D01*
X144389312Y-48359815D01*
X144352542Y-48323321D01*
X144282983Y-48216852D01*
X144282980Y-48216849D01*
X144282979Y-48216847D01*
X144125784Y-48046087D01*
X144125779Y-48046083D01*
X144125777Y-48046081D01*
X143942634Y-47903535D01*
X143942628Y-47903531D01*
X143738504Y-47793064D01*
X143738495Y-47793061D01*
X143518984Y-47717702D01*
X143347282Y-47689050D01*
X143290049Y-47679500D01*
X143057951Y-47679500D01*
X143012164Y-47687140D01*
X142829015Y-47717702D01*
X142609504Y-47793061D01*
X142609495Y-47793064D01*
X142405371Y-47903531D01*
X142405365Y-47903535D01*
X142222222Y-48046081D01*
X142222219Y-48046084D01*
X142222216Y-48046086D01*
X142222216Y-48046087D01*
X142090791Y-48188854D01*
X142065015Y-48216854D01*
X142027808Y-48273804D01*
X141974662Y-48319161D01*
X141905430Y-48328584D01*
X141842095Y-48299082D01*
X141820192Y-48273804D01*
X141782984Y-48216854D01*
X141782982Y-48216852D01*
X141782979Y-48216847D01*
X141625784Y-48046087D01*
X141625779Y-48046083D01*
X141625777Y-48046081D01*
X141442634Y-47903535D01*
X141442628Y-47903531D01*
X141238504Y-47793064D01*
X141238495Y-47793061D01*
X141018984Y-47717702D01*
X140847282Y-47689050D01*
X140790049Y-47679500D01*
X140557951Y-47679500D01*
X140512164Y-47687140D01*
X140329015Y-47717702D01*
X140109504Y-47793061D01*
X140109495Y-47793064D01*
X139905371Y-47903531D01*
X139905365Y-47903535D01*
X139722222Y-48046081D01*
X139722219Y-48046084D01*
X139722216Y-48046086D01*
X139722216Y-48046087D01*
X139565021Y-48216847D01*
X139565019Y-48216849D01*
X139565017Y-48216852D01*
X139527509Y-48274262D01*
X139474362Y-48319618D01*
X139405131Y-48329041D01*
X139341795Y-48299538D01*
X139327084Y-48282561D01*
X139325186Y-48282364D01*
X138738612Y-48868939D01*
X138733111Y-48848409D01*
X138654119Y-48711592D01*
X138542408Y-48599881D01*
X138405591Y-48520889D01*
X138385058Y-48515387D01*
X138972797Y-47927647D01*
X138972797Y-47927645D01*
X138942360Y-47903955D01*
X138942354Y-47903951D01*
X138738302Y-47793523D01*
X138738293Y-47793520D01*
X138518860Y-47718188D01*
X138290007Y-47680000D01*
X138057993Y-47680000D01*
X137829139Y-47718188D01*
X137609706Y-47793520D01*
X137609697Y-47793523D01*
X137405650Y-47903949D01*
X137375200Y-47927647D01*
X137962941Y-48515387D01*
X137942409Y-48520889D01*
X137805592Y-48599881D01*
X137693881Y-48711592D01*
X137614889Y-48848409D01*
X137609387Y-48868940D01*
X137022812Y-48282365D01*
X136938516Y-48411391D01*
X136938514Y-48411395D01*
X136845317Y-48623864D01*
X136788361Y-48848781D01*
X136769202Y-49079994D01*
X136769202Y-49080005D01*
X136788361Y-49311218D01*
X136845317Y-49536135D01*
X136938516Y-49748609D01*
X137022811Y-49877633D01*
X137609387Y-49291058D01*
X137614889Y-49311591D01*
X137693881Y-49448408D01*
X137805592Y-49560119D01*
X137942409Y-49639111D01*
X137962940Y-49644612D01*
X137375201Y-50232351D01*
X137405649Y-50256050D01*
X137609697Y-50366476D01*
X137609706Y-50366479D01*
X137829139Y-50441811D01*
X138057993Y-50480000D01*
X138290007Y-50480000D01*
X138518860Y-50441811D01*
X138738293Y-50366479D01*
X138738301Y-50366476D01*
X138942355Y-50256047D01*
X138972797Y-50232351D01*
X138972798Y-50232350D01*
X138385060Y-49644612D01*
X138405591Y-49639111D01*
X138542408Y-49560119D01*
X138654119Y-49448408D01*
X138733111Y-49311591D01*
X138738612Y-49291060D01*
X139325186Y-49877634D01*
X139329969Y-49877138D01*
X139373037Y-49840381D01*
X139442269Y-49830957D01*
X139505605Y-49860458D01*
X139527510Y-49885738D01*
X139565016Y-49943147D01*
X139565019Y-49943151D01*
X139565021Y-49943153D01*
X139722216Y-50113913D01*
X139722219Y-50113915D01*
X139722222Y-50113918D01*
X139905365Y-50256464D01*
X139905372Y-50256468D01*
X139905374Y-50256470D01*
X140003541Y-50309595D01*
X140008517Y-50312288D01*
X140058108Y-50361507D01*
X140073500Y-50421343D01*
X140073500Y-56441280D01*
X140053815Y-56508319D01*
X140001011Y-56554074D01*
X139931853Y-56564018D01*
X139884223Y-56546707D01*
X139802463Y-56496083D01*
X139802457Y-56496080D01*
X139615827Y-56423780D01*
X139615822Y-56423778D01*
X139419077Y-56387000D01*
X139218923Y-56387000D01*
X139022178Y-56423778D01*
X139022175Y-56423778D01*
X139022175Y-56423779D01*
X138835542Y-56496080D01*
X138835536Y-56496083D01*
X138665367Y-56601447D01*
X138665365Y-56601449D01*
X138517452Y-56736289D01*
X138396833Y-56896014D01*
X138396828Y-56896022D01*
X138307616Y-57075184D01*
X138252840Y-57267704D01*
X138234373Y-57466999D01*
X138234373Y-57467000D01*
X138252840Y-57666295D01*
X138252840Y-57666297D01*
X138252841Y-57666300D01*
X138302755Y-57841730D01*
X138307616Y-57858815D01*
X138396828Y-58037977D01*
X138396833Y-58037985D01*
X138517452Y-58197710D01*
X138665365Y-58332551D01*
X138669222Y-58335463D01*
X138710861Y-58391570D01*
X138718500Y-58434420D01*
X138718500Y-61764473D01*
X138698815Y-61831512D01*
X138646011Y-61877267D01*
X138576853Y-61887211D01*
X138513297Y-61858186D01*
X138506816Y-61852152D01*
X137415816Y-60761092D01*
X137382333Y-60699768D01*
X137379500Y-60673413D01*
X137379500Y-58434420D01*
X137399185Y-58367381D01*
X137428778Y-58335463D01*
X137432634Y-58332551D01*
X137580547Y-58197710D01*
X137581837Y-58196003D01*
X137701168Y-58037983D01*
X137790385Y-57858812D01*
X137845159Y-57666300D01*
X137863627Y-57467000D01*
X137845159Y-57267700D01*
X137790385Y-57075188D01*
X137715835Y-56925472D01*
X137701171Y-56896022D01*
X137701166Y-56896014D01*
X137580547Y-56736289D01*
X137432634Y-56601449D01*
X137432632Y-56601447D01*
X137262463Y-56496083D01*
X137262457Y-56496080D01*
X137075827Y-56423780D01*
X137075822Y-56423778D01*
X136879077Y-56387000D01*
X136678923Y-56387000D01*
X136482178Y-56423778D01*
X136482175Y-56423778D01*
X136482175Y-56423779D01*
X136295542Y-56496080D01*
X136290414Y-56498635D01*
X136289429Y-56496658D01*
X136231385Y-56512632D01*
X136164691Y-56491807D01*
X136119843Y-56438230D01*
X136109500Y-56388650D01*
X136109500Y-55353357D01*
X136109501Y-55353354D01*
X136109500Y-55195239D01*
X136076879Y-55073500D01*
X136068577Y-55042516D01*
X136048278Y-55007356D01*
X135989524Y-54905590D01*
X135989521Y-54905586D01*
X135989520Y-54905584D01*
X135877716Y-54793780D01*
X135877715Y-54793779D01*
X135874612Y-54790676D01*
X135874597Y-54790662D01*
X128552087Y-47468251D01*
X128552087Y-47468250D01*
X128552086Y-47468250D01*
X128477716Y-47393880D01*
X128477712Y-47393877D01*
X128477611Y-47393819D01*
X128441021Y-47372693D01*
X128441020Y-47372693D01*
X128408665Y-47354013D01*
X128340789Y-47314825D01*
X128340784Y-47314823D01*
X128340767Y-47314818D01*
X128292353Y-47301845D01*
X128188053Y-47273899D01*
X128188051Y-47273899D01*
X128029939Y-47273900D01*
X123217181Y-47273900D01*
X123132042Y-47273886D01*
X123132041Y-47273886D01*
X123132039Y-47273886D01*
X123131951Y-47273897D01*
X123058118Y-47293681D01*
X123058099Y-47293686D01*
X122979262Y-47314796D01*
X122910158Y-47354693D01*
X122910142Y-47354702D01*
X122842327Y-47393840D01*
X122842313Y-47393851D01*
X122785080Y-47451083D01*
X122785067Y-47451096D01*
X122530059Y-47706019D01*
X122468730Y-47739494D01*
X122402129Y-47735604D01*
X122349984Y-47717702D01*
X122178282Y-47689050D01*
X122121049Y-47679500D01*
X121888951Y-47679500D01*
X121843164Y-47687140D01*
X121660015Y-47717702D01*
X121440504Y-47793061D01*
X121440495Y-47793064D01*
X121236371Y-47903531D01*
X121236365Y-47903535D01*
X121053222Y-48046081D01*
X121053219Y-48046084D01*
X121053216Y-48046086D01*
X121053216Y-48046087D01*
X120896021Y-48216847D01*
X120896019Y-48216849D01*
X120896017Y-48216852D01*
X120858509Y-48274262D01*
X120805362Y-48319618D01*
X120736131Y-48329041D01*
X120672795Y-48299538D01*
X120658084Y-48282561D01*
X120656186Y-48282364D01*
X120069612Y-48868939D01*
X120064111Y-48848409D01*
X119985119Y-48711592D01*
X119873408Y-48599881D01*
X119736591Y-48520889D01*
X119716058Y-48515387D01*
X120303797Y-47927647D01*
X120303797Y-47927645D01*
X120273360Y-47903955D01*
X120273354Y-47903951D01*
X120069302Y-47793523D01*
X120069293Y-47793520D01*
X119849860Y-47718188D01*
X119621007Y-47680000D01*
X119388993Y-47680000D01*
X119160139Y-47718188D01*
X118940706Y-47793520D01*
X118940697Y-47793523D01*
X118736650Y-47903949D01*
X118706200Y-47927647D01*
X119293941Y-48515387D01*
X119273409Y-48520889D01*
X119136592Y-48599881D01*
X119024881Y-48711592D01*
X118945889Y-48848409D01*
X118940387Y-48868940D01*
X118353812Y-48282365D01*
X118269516Y-48411391D01*
X118269514Y-48411395D01*
X118176317Y-48623864D01*
X118119361Y-48848781D01*
X118100202Y-49079994D01*
X118100202Y-49080005D01*
X118119361Y-49311218D01*
X118176317Y-49536135D01*
X118269516Y-49748609D01*
X118353811Y-49877633D01*
X118940387Y-49291058D01*
X118945889Y-49311591D01*
X119024881Y-49448408D01*
X119136592Y-49560119D01*
X119273409Y-49639111D01*
X119293940Y-49644612D01*
X118706201Y-50232351D01*
X118736649Y-50256050D01*
X118940697Y-50366476D01*
X118940706Y-50366479D01*
X119160139Y-50441811D01*
X119388993Y-50480000D01*
X119621007Y-50480000D01*
X119849860Y-50441811D01*
X120069293Y-50366479D01*
X120069301Y-50366476D01*
X120273355Y-50256047D01*
X120303797Y-50232351D01*
X120303798Y-50232350D01*
X119716060Y-49644612D01*
X119736591Y-49639111D01*
X119873408Y-49560119D01*
X119985119Y-49448408D01*
X120064111Y-49311591D01*
X120069612Y-49291059D01*
X120656186Y-49877634D01*
X120660969Y-49877138D01*
X120704037Y-49840381D01*
X120773269Y-49830957D01*
X120836605Y-49860458D01*
X120858510Y-49885738D01*
X120896016Y-49943147D01*
X120896019Y-49943151D01*
X120896021Y-49943153D01*
X121053216Y-50113913D01*
X121053219Y-50113915D01*
X121053222Y-50113918D01*
X121236365Y-50256464D01*
X121236371Y-50256468D01*
X121236374Y-50256470D01*
X121352760Y-50319455D01*
X121439652Y-50366479D01*
X121440497Y-50366936D01*
X121660019Y-50442298D01*
X121843991Y-50472997D01*
X121906876Y-50503447D01*
X121943315Y-50563062D01*
X121941740Y-50632914D01*
X121911260Y-50682989D01*
X119533460Y-53060684D01*
X119533457Y-53060685D01*
X119533458Y-53060686D01*
X119503875Y-53090268D01*
X119435895Y-53158246D01*
X119435880Y-53158266D01*
X119398150Y-53214732D01*
X119398149Y-53214731D01*
X119359253Y-53272942D01*
X119359233Y-53272975D01*
X119359230Y-53272980D01*
X119359225Y-53272989D01*
X119332901Y-53336540D01*
X119332901Y-53336541D01*
X119306426Y-53400451D01*
X119306425Y-53400453D01*
X119306422Y-53400462D01*
X119306418Y-53400480D01*
X119306404Y-53400551D01*
X119293981Y-53463003D01*
X119293981Y-53463005D01*
X119279527Y-53535666D01*
X119279502Y-53535791D01*
X119279500Y-53535810D01*
X119279500Y-53627784D01*
X119279499Y-53679889D01*
X119279500Y-53679910D01*
X119279500Y-56271908D01*
X119259815Y-56338947D01*
X119207011Y-56384702D01*
X119137853Y-56394646D01*
X119132716Y-56393797D01*
X119099028Y-56387500D01*
X118898972Y-56387500D01*
X118702312Y-56424262D01*
X118515765Y-56496530D01*
X118515758Y-56496534D01*
X118433203Y-56547649D01*
X118433202Y-56547650D01*
X118973053Y-57087500D01*
X118949038Y-57087500D01*
X118852518Y-57113362D01*
X118765981Y-57163324D01*
X118695324Y-57233981D01*
X118645362Y-57320518D01*
X118619500Y-57417038D01*
X118619500Y-57441052D01*
X118076417Y-56897969D01*
X117988085Y-57075363D01*
X117988085Y-57075365D01*
X117933333Y-57267793D01*
X117914875Y-57466999D01*
X117914875Y-57467000D01*
X117933333Y-57666206D01*
X117988083Y-57858628D01*
X117988088Y-57858641D01*
X118076417Y-58036029D01*
X118619500Y-57492946D01*
X118619500Y-57516962D01*
X118645362Y-57613482D01*
X118695324Y-57700019D01*
X118765981Y-57770676D01*
X118852518Y-57820638D01*
X118949038Y-57846500D01*
X118973052Y-57846500D01*
X118433202Y-58386348D01*
X118515763Y-58437468D01*
X118515764Y-58437469D01*
X118702312Y-58509737D01*
X118898972Y-58546500D01*
X119099029Y-58546500D01*
X119099032Y-58546499D01*
X119132713Y-58540203D01*
X119202228Y-58547232D01*
X119256907Y-58590729D01*
X119279391Y-58656882D01*
X119279500Y-58662091D01*
X119279500Y-63101130D01*
X119259815Y-63168169D01*
X119243192Y-63188799D01*
X119167010Y-63264998D01*
X119086668Y-63345356D01*
X119025348Y-63378847D01*
X118955656Y-63373869D01*
X118911293Y-63345359D01*
X117311469Y-61745319D01*
X117311400Y-61745243D01*
X117261768Y-61695612D01*
X117261761Y-61695605D01*
X117209575Y-61643412D01*
X117209549Y-61643390D01*
X117150597Y-61604000D01*
X117150591Y-61603996D01*
X117137140Y-61595007D01*
X117094853Y-61566748D01*
X117094851Y-61566747D01*
X117094830Y-61566733D01*
X117068853Y-61555973D01*
X117027827Y-61538979D01*
X117025462Y-61537999D01*
X116967353Y-61513925D01*
X116967354Y-61513925D01*
X116935443Y-61507577D01*
X116897535Y-61500036D01*
X116897531Y-61500034D01*
X116897531Y-61500035D01*
X116866757Y-61493912D01*
X116832017Y-61487000D01*
X116831993Y-61487000D01*
X116755382Y-61487000D01*
X116755370Y-61486999D01*
X116694053Y-61486996D01*
X116694051Y-61486996D01*
X116687975Y-61486996D01*
X116687895Y-61487000D01*
X115756088Y-61487000D01*
X115689049Y-61467315D01*
X115650549Y-61428097D01*
X115625756Y-61387901D01*
X115621712Y-61381344D01*
X115497656Y-61257288D01*
X115494342Y-61255243D01*
X115492546Y-61253248D01*
X115491989Y-61252807D01*
X115492064Y-61252711D01*
X115447618Y-61203297D01*
X115436397Y-61134334D01*
X115464240Y-61070252D01*
X115494348Y-61044165D01*
X115497342Y-61042318D01*
X115621315Y-60918345D01*
X115713356Y-60769124D01*
X115713358Y-60769119D01*
X115768505Y-60602697D01*
X115768506Y-60602690D01*
X115778999Y-60499986D01*
X115779000Y-60499973D01*
X115779000Y-60362500D01*
X113329001Y-60362500D01*
X113329001Y-60499986D01*
X113339494Y-60602697D01*
X113394641Y-60769119D01*
X113394643Y-60769124D01*
X113486684Y-60918345D01*
X113610655Y-61042316D01*
X113610659Y-61042319D01*
X113613656Y-61044168D01*
X113615279Y-61045972D01*
X113616323Y-61046798D01*
X113616181Y-61046976D01*
X113660381Y-61096116D01*
X113671602Y-61165079D01*
X113643759Y-61229161D01*
X113613661Y-61255241D01*
X113610349Y-61257283D01*
X113610343Y-61257288D01*
X113486289Y-61381342D01*
X113394187Y-61530663D01*
X113394186Y-61530666D01*
X113361680Y-61628764D01*
X113351596Y-61659194D01*
X113311823Y-61716638D01*
X113247307Y-61743461D01*
X113178531Y-61731146D01*
X113134937Y-61694916D01*
X113084981Y-61628764D01*
X113047951Y-61595007D01*
X112920562Y-61478876D01*
X112920560Y-61478874D01*
X112731404Y-61361754D01*
X112731398Y-61361752D01*
X112523940Y-61281382D01*
X112305243Y-61240500D01*
X112082757Y-61240500D01*
X111864060Y-61281382D01*
X111754293Y-61323906D01*
X111656601Y-61361752D01*
X111656595Y-61361754D01*
X111467439Y-61478874D01*
X111467437Y-61478876D01*
X111303020Y-61628761D01*
X111168943Y-61806308D01*
X111168938Y-61806316D01*
X111069775Y-62005461D01*
X111069769Y-62005476D01*
X111043266Y-62098627D01*
X111005987Y-62157721D01*
X110942677Y-62187278D01*
X110873438Y-62177916D01*
X110820251Y-62132606D01*
X110804734Y-62098627D01*
X110778230Y-62005476D01*
X110778229Y-62005472D01*
X110766040Y-61980993D01*
X110679061Y-61806316D01*
X110679056Y-61806308D01*
X110544979Y-61628761D01*
X110380562Y-61478876D01*
X110380560Y-61478874D01*
X110191404Y-61361754D01*
X110191398Y-61361752D01*
X109983940Y-61281382D01*
X109925128Y-61270388D01*
X109862849Y-61238721D01*
X109827576Y-61178408D01*
X109830510Y-61108600D01*
X109870719Y-61051460D01*
X109935437Y-61025129D01*
X109947915Y-61024500D01*
X110096241Y-61024500D01*
X110096243Y-61024500D01*
X110314940Y-60983618D01*
X110522401Y-60903247D01*
X110711562Y-60786124D01*
X110875981Y-60636236D01*
X111010058Y-60458689D01*
X111109229Y-60259528D01*
X111170115Y-60045536D01*
X111190643Y-59824000D01*
X111183210Y-59743789D01*
X111181470Y-59725013D01*
X113329000Y-59725013D01*
X113329000Y-59862500D01*
X114304000Y-59862500D01*
X114804000Y-59862500D01*
X115778999Y-59862500D01*
X115778999Y-59725028D01*
X115778998Y-59725013D01*
X115768505Y-59622302D01*
X115713358Y-59455880D01*
X115713356Y-59455875D01*
X115621315Y-59306654D01*
X115497345Y-59182684D01*
X115348124Y-59090643D01*
X115348119Y-59090641D01*
X115181697Y-59035494D01*
X115181690Y-59035493D01*
X115078986Y-59025000D01*
X114804000Y-59025000D01*
X114804000Y-59862500D01*
X114304000Y-59862500D01*
X114304000Y-59025000D01*
X114029029Y-59025000D01*
X114029012Y-59025001D01*
X113926302Y-59035494D01*
X113759880Y-59090641D01*
X113759875Y-59090643D01*
X113610654Y-59182684D01*
X113486684Y-59306654D01*
X113394643Y-59455875D01*
X113394641Y-59455880D01*
X113339494Y-59622302D01*
X113339493Y-59622309D01*
X113329000Y-59725013D01*
X111181470Y-59725013D01*
X111170115Y-59602464D01*
X111170114Y-59602462D01*
X111159842Y-59566361D01*
X111109229Y-59388472D01*
X111101536Y-59373022D01*
X111010061Y-59189316D01*
X111010056Y-59189308D01*
X110875979Y-59011761D01*
X110711562Y-58861876D01*
X110711560Y-58861874D01*
X110522404Y-58744754D01*
X110522395Y-58744750D01*
X110417200Y-58703998D01*
X110328475Y-58669625D01*
X110273075Y-58627054D01*
X110249484Y-58561288D01*
X110265195Y-58493207D01*
X110315219Y-58444428D01*
X110328466Y-58438377D01*
X110522401Y-58363247D01*
X110711562Y-58246124D01*
X110875981Y-58096236D01*
X111010058Y-57918689D01*
X111109229Y-57719528D01*
X111170115Y-57505536D01*
X111190643Y-57284000D01*
X111170115Y-57062464D01*
X111109229Y-56848472D01*
X111101536Y-56833022D01*
X111010061Y-56649316D01*
X111010056Y-56649308D01*
X110875979Y-56471761D01*
X110711561Y-56321875D01*
X110711560Y-56321874D01*
X110522404Y-56204754D01*
X110522398Y-56204752D01*
X110513699Y-56201382D01*
X110314940Y-56124382D01*
X110096243Y-56083500D01*
X109873757Y-56083500D01*
X109655060Y-56124382D01*
X109561829Y-56160500D01*
X109447601Y-56204752D01*
X109447595Y-56204754D01*
X109258439Y-56321874D01*
X109258439Y-56321875D01*
X109094020Y-56471761D01*
X108959943Y-56649308D01*
X108959938Y-56649316D01*
X108860775Y-56848461D01*
X108860769Y-56848476D01*
X108799885Y-57062462D01*
X108799884Y-57062464D01*
X108779357Y-57283999D01*
X108779357Y-57284000D01*
X108799884Y-57505533D01*
X108805248Y-57524384D01*
X108804660Y-57594251D01*
X108773657Y-57646004D01*
X108081691Y-58337881D01*
X108081614Y-58337949D01*
X108010820Y-58408742D01*
X108010817Y-58408746D01*
X107964486Y-58455071D01*
X107924431Y-58524451D01*
X107924427Y-58524459D01*
X107885428Y-58591995D01*
X107866035Y-58664373D01*
X107866033Y-58664381D01*
X107844500Y-58744723D01*
X107844500Y-58816583D01*
X107844494Y-58897233D01*
X107824804Y-58964271D01*
X107771997Y-59010022D01*
X107702838Y-59019961D01*
X107655217Y-59002652D01*
X107607460Y-58973082D01*
X107607457Y-58973081D01*
X107607456Y-58973080D01*
X107483034Y-58924879D01*
X107420822Y-58900778D01*
X107224077Y-58864000D01*
X107023923Y-58864000D01*
X106827178Y-58900778D01*
X106827175Y-58900778D01*
X106827175Y-58900779D01*
X106640542Y-58973080D01*
X106640536Y-58973083D01*
X106470367Y-59078447D01*
X106470365Y-59078449D01*
X106322452Y-59213289D01*
X106201833Y-59373014D01*
X106201828Y-59373022D01*
X106112616Y-59552184D01*
X106112615Y-59552188D01*
X106063443Y-59725013D01*
X106057840Y-59744704D01*
X106039373Y-59943999D01*
X106039373Y-59944000D01*
X106057840Y-60143295D01*
X106057840Y-60143297D01*
X106057841Y-60143300D01*
X106097706Y-60283411D01*
X106112616Y-60335815D01*
X106201828Y-60514977D01*
X106201833Y-60514985D01*
X106322452Y-60674710D01*
X106470365Y-60809551D01*
X106474222Y-60812463D01*
X106515861Y-60868570D01*
X106523500Y-60911420D01*
X106523500Y-61462260D01*
X106503815Y-61529299D01*
X106451011Y-61575054D01*
X106381853Y-61584998D01*
X106318297Y-61555973D01*
X106311819Y-61549941D01*
X106230262Y-61468384D01*
X106077521Y-61372410D01*
X105907252Y-61312831D01*
X105907247Y-61312830D01*
X105820435Y-61303049D01*
X105756021Y-61275982D01*
X105746628Y-61267500D01*
X105644230Y-61165079D01*
X105390630Y-60911420D01*
X104181809Y-59702322D01*
X104148331Y-59640995D01*
X104145500Y-59614651D01*
X104145500Y-55197499D01*
X104165185Y-55130460D01*
X104217989Y-55084705D01*
X104269495Y-55073499D01*
X104821325Y-55073499D01*
X104888364Y-55093184D01*
X104909015Y-55109827D01*
X106310591Y-56511683D01*
X106344070Y-56573009D01*
X106339078Y-56642700D01*
X106321856Y-56674079D01*
X106307266Y-56693400D01*
X106201833Y-56833014D01*
X106201828Y-56833022D01*
X106112616Y-57012184D01*
X106112615Y-57012188D01*
X106060293Y-57196084D01*
X106057840Y-57204704D01*
X106039373Y-57403999D01*
X106039373Y-57404000D01*
X106057840Y-57603295D01*
X106057840Y-57603297D01*
X106057841Y-57603300D01*
X106112615Y-57795812D01*
X106112616Y-57795815D01*
X106201828Y-57974977D01*
X106201833Y-57974985D01*
X106322452Y-58134710D01*
X106470363Y-58269549D01*
X106470367Y-58269552D01*
X106640536Y-58374916D01*
X106640542Y-58374919D01*
X106670044Y-58386348D01*
X106827178Y-58447222D01*
X107023923Y-58484000D01*
X107023925Y-58484000D01*
X107224075Y-58484000D01*
X107224077Y-58484000D01*
X107420822Y-58447222D01*
X107607460Y-58374918D01*
X107777634Y-58269551D01*
X107777634Y-58269550D01*
X107777637Y-58269549D01*
X107925547Y-58134710D01*
X107954602Y-58096236D01*
X108046168Y-57974983D01*
X108135385Y-57795812D01*
X108190159Y-57603300D01*
X108208627Y-57404000D01*
X108190159Y-57204700D01*
X108135385Y-57012188D01*
X108133967Y-57009341D01*
X108046171Y-56833022D01*
X108046166Y-56833014D01*
X108003576Y-56776616D01*
X107925549Y-56673292D01*
X107925546Y-56673289D01*
X107864961Y-56618057D01*
X107828680Y-56558346D01*
X107824500Y-56526421D01*
X107824500Y-56321875D01*
X107824506Y-56265572D01*
X107824500Y-56265512D01*
X107824500Y-56265507D01*
X107810069Y-56192961D01*
X107797600Y-56130239D01*
X107797598Y-56130236D01*
X107797598Y-56130232D01*
X107797583Y-56130180D01*
X107795181Y-56124382D01*
X107770444Y-56064662D01*
X107745025Y-56003276D01*
X107744803Y-56002726D01*
X107744580Y-56002397D01*
X107706841Y-55945917D01*
X107706842Y-55945915D01*
X107706832Y-55945905D01*
X107668158Y-55888011D01*
X107668149Y-55888002D01*
X107668116Y-55887961D01*
X107668114Y-55887958D01*
X107668111Y-55887955D01*
X107668107Y-55887950D01*
X107623443Y-55843287D01*
X107623433Y-55843277D01*
X105761809Y-53981278D01*
X105728330Y-53919952D01*
X105725499Y-53893606D01*
X105725499Y-53802296D01*
X105745184Y-53735257D01*
X105761802Y-53714630D01*
X105802635Y-53673783D01*
X106541384Y-52934771D01*
X106541387Y-52934774D01*
X106541398Y-52934756D01*
X106589114Y-52887042D01*
X106589117Y-52887036D01*
X106589136Y-52887018D01*
X106589169Y-52886978D01*
X106589185Y-52886953D01*
X106589193Y-52886946D01*
X106627964Y-52828895D01*
X106627980Y-52828882D01*
X106627976Y-52828880D01*
X106665691Y-52772437D01*
X106665803Y-52772271D01*
X106665807Y-52772264D01*
X106665818Y-52772238D01*
X106665832Y-52772203D01*
X106665834Y-52772201D01*
X106692360Y-52708127D01*
X106692372Y-52708112D01*
X106692367Y-52708110D01*
X106692368Y-52708108D01*
X106718580Y-52644828D01*
X106718582Y-52644818D01*
X106718613Y-52644715D01*
X106718616Y-52644709D01*
X106730250Y-52586166D01*
X106731884Y-52577946D01*
X106731887Y-52577946D01*
X106731887Y-52577927D01*
X106745500Y-52509493D01*
X106745500Y-52509488D01*
X106745511Y-52509376D01*
X106745510Y-52509374D01*
X106745512Y-52509369D01*
X106745500Y-52443135D01*
X106745500Y-50339225D01*
X106765185Y-50272186D01*
X106810487Y-50230168D01*
X106813626Y-50228470D01*
X106996784Y-50085913D01*
X107153979Y-49915153D01*
X107280924Y-49720849D01*
X107374157Y-49508300D01*
X107431134Y-49283305D01*
X107431135Y-49283297D01*
X107450300Y-49052006D01*
X107450300Y-49051993D01*
X107431135Y-48820702D01*
X107431133Y-48820691D01*
X107374157Y-48595699D01*
X107280924Y-48383151D01*
X107153983Y-48188852D01*
X107153980Y-48188849D01*
X107153979Y-48188847D01*
X106996784Y-48018087D01*
X106996779Y-48018083D01*
X106996777Y-48018081D01*
X106813634Y-47875535D01*
X106813628Y-47875531D01*
X106609504Y-47765064D01*
X106609495Y-47765061D01*
X106389984Y-47689702D01*
X106218282Y-47661050D01*
X106161049Y-47651500D01*
X105928951Y-47651500D01*
X105883164Y-47659140D01*
X105700015Y-47689702D01*
X105480504Y-47765061D01*
X105480495Y-47765064D01*
X105276371Y-47875531D01*
X105276365Y-47875535D01*
X105093222Y-48018081D01*
X105093219Y-48018084D01*
X105093216Y-48018086D01*
X105093216Y-48018087D01*
X104963460Y-48159041D01*
X104936015Y-48188854D01*
X104898808Y-48245804D01*
X104845662Y-48291161D01*
X104776430Y-48300584D01*
X104713095Y-48271082D01*
X104691192Y-48245804D01*
X104653984Y-48188854D01*
X104653982Y-48188852D01*
X104653979Y-48188847D01*
X104496784Y-48018087D01*
X104496779Y-48018083D01*
X104496777Y-48018081D01*
X104313634Y-47875535D01*
X104313628Y-47875531D01*
X104109504Y-47765064D01*
X104109495Y-47765061D01*
X103889984Y-47689702D01*
X103718282Y-47661050D01*
X103661049Y-47651500D01*
X103428951Y-47651500D01*
X103383164Y-47659140D01*
X103200015Y-47689702D01*
X102980504Y-47765061D01*
X102980495Y-47765064D01*
X102776371Y-47875531D01*
X102776365Y-47875535D01*
X102593222Y-48018081D01*
X102593219Y-48018084D01*
X102593216Y-48018086D01*
X102593216Y-48018087D01*
X102436021Y-48188847D01*
X102436019Y-48188849D01*
X102436017Y-48188852D01*
X102398509Y-48246262D01*
X102345362Y-48291618D01*
X102276131Y-48301041D01*
X102212795Y-48271538D01*
X102198084Y-48254561D01*
X102196186Y-48254364D01*
X101609612Y-48840939D01*
X101604111Y-48820409D01*
X101525119Y-48683592D01*
X101413408Y-48571881D01*
X101276591Y-48492889D01*
X101256058Y-48487387D01*
X101843797Y-47899647D01*
X101843797Y-47899645D01*
X101813360Y-47875955D01*
X101813354Y-47875951D01*
X101609302Y-47765523D01*
X101609293Y-47765520D01*
X101389860Y-47690188D01*
X101161007Y-47652000D01*
X100928993Y-47652000D01*
X100700139Y-47690188D01*
X100480706Y-47765520D01*
X100480697Y-47765523D01*
X100276650Y-47875949D01*
X100246200Y-47899647D01*
X100833941Y-48487387D01*
X100813409Y-48492889D01*
X100676592Y-48571881D01*
X100564881Y-48683592D01*
X100485889Y-48820409D01*
X100480387Y-48840940D01*
X99893812Y-48254365D01*
X99809516Y-48383391D01*
X99809514Y-48383395D01*
X99716317Y-48595864D01*
X99659361Y-48820781D01*
X99640202Y-49051994D01*
X99640202Y-49052005D01*
X99659361Y-49283218D01*
X99716317Y-49508135D01*
X99809516Y-49720609D01*
X99893811Y-49849633D01*
X100480387Y-49263058D01*
X100485889Y-49283591D01*
X100564881Y-49420408D01*
X100676592Y-49532119D01*
X100813409Y-49611111D01*
X100833940Y-49616612D01*
X100246201Y-50204351D01*
X100276649Y-50228050D01*
X100480697Y-50338476D01*
X100480706Y-50338479D01*
X100700139Y-50413811D01*
X100928993Y-50452000D01*
X101161007Y-50452000D01*
X101389860Y-50413811D01*
X101609293Y-50338479D01*
X101609301Y-50338476D01*
X101813355Y-50228047D01*
X101843797Y-50204351D01*
X101843798Y-50204350D01*
X101256060Y-49616612D01*
X101276591Y-49611111D01*
X101413408Y-49532119D01*
X101525119Y-49420408D01*
X101604111Y-49283591D01*
X101609612Y-49263059D01*
X102196186Y-49849634D01*
X102200969Y-49849138D01*
X102244037Y-49812381D01*
X102313269Y-49802957D01*
X102376605Y-49832458D01*
X102398510Y-49857738D01*
X102436016Y-49915147D01*
X102436019Y-49915151D01*
X102436021Y-49915153D01*
X102593216Y-50085913D01*
X102593219Y-50085915D01*
X102593222Y-50085918D01*
X102776365Y-50228464D01*
X102776370Y-50228467D01*
X102776374Y-50228470D01*
X102857361Y-50272298D01*
X102879517Y-50284288D01*
X102929108Y-50333507D01*
X102944500Y-50393343D01*
X102944500Y-52499000D01*
X102924815Y-52566039D01*
X102872011Y-52611794D01*
X102820500Y-52623000D01*
X102812500Y-52623000D01*
X102812500Y-55072999D01*
X102820500Y-55072999D01*
X102887539Y-55092684D01*
X102933294Y-55145488D01*
X102944500Y-55196999D01*
X102944500Y-59907781D01*
X102944489Y-59993687D01*
X102944497Y-59993747D01*
X102963883Y-60066096D01*
X102963886Y-60066108D01*
X102985397Y-60146425D01*
X102985419Y-60146478D01*
X103004550Y-60179613D01*
X103025159Y-60215310D01*
X103025157Y-60215311D01*
X103025166Y-60215322D01*
X103030369Y-60224335D01*
X103064438Y-60283363D01*
X103064475Y-60283411D01*
X103064479Y-60283415D01*
X103064480Y-60283416D01*
X103120610Y-60339546D01*
X103239720Y-60458683D01*
X104897296Y-62116638D01*
X104930774Y-62177965D01*
X104932825Y-62190425D01*
X104942630Y-62277449D01*
X105002210Y-62447721D01*
X105025005Y-62483999D01*
X105098184Y-62600462D01*
X105225738Y-62728016D01*
X105313836Y-62783372D01*
X105359607Y-62812132D01*
X105378478Y-62823989D01*
X105548742Y-62883567D01*
X105548745Y-62883568D01*
X105548750Y-62883569D01*
X105727996Y-62903765D01*
X105728000Y-62903765D01*
X105728004Y-62903765D01*
X105907249Y-62883569D01*
X105907250Y-62883568D01*
X105907255Y-62883568D01*
X105982219Y-62857336D01*
X106051994Y-62853774D01*
X106112622Y-62888502D01*
X106134172Y-62919106D01*
X106201828Y-63054977D01*
X106201833Y-63054985D01*
X106322452Y-63214710D01*
X106474602Y-63353413D01*
X106473325Y-63354813D01*
X106509849Y-63404046D01*
X106514531Y-63473758D01*
X106481163Y-63534555D01*
X102556452Y-67459411D01*
X102474479Y-67541384D01*
X102474474Y-67541391D01*
X102473285Y-67543366D01*
X102472612Y-67544618D01*
X102450709Y-67582557D01*
X102395423Y-67678316D01*
X102395421Y-67678321D01*
X102395419Y-67678326D01*
X102382702Y-67725790D01*
X102371592Y-67767252D01*
X102354498Y-67831048D01*
X102354500Y-67936463D01*
X102354500Y-68599908D01*
X102334815Y-68666947D01*
X102282914Y-68712286D01*
X102277173Y-68714963D01*
X102277169Y-68714965D01*
X102083600Y-68850503D01*
X101961673Y-68972430D01*
X101900350Y-69005914D01*
X101830658Y-69000930D01*
X101774725Y-68959058D01*
X101757810Y-68928081D01*
X101708797Y-68796671D01*
X101708793Y-68796664D01*
X101622547Y-68681455D01*
X101622544Y-68681452D01*
X101507335Y-68595206D01*
X101507328Y-68595202D01*
X101372482Y-68544908D01*
X101372483Y-68544908D01*
X101312883Y-68538501D01*
X101312881Y-68538500D01*
X101312873Y-68538500D01*
X101312865Y-68538500D01*
X101065212Y-68538500D01*
X100998173Y-68518815D01*
X100957825Y-68476499D01*
X100895524Y-68368590D01*
X100895518Y-68368582D01*
X98741423Y-66214487D01*
X98707938Y-66153164D01*
X98712922Y-66083472D01*
X98754794Y-66027539D01*
X98820258Y-66003122D01*
X98873898Y-66011179D01*
X99017312Y-66066737D01*
X99213972Y-66103500D01*
X99414028Y-66103500D01*
X99610687Y-66066737D01*
X99797235Y-65994469D01*
X99797239Y-65994467D01*
X99879795Y-65943349D01*
X99879795Y-65943348D01*
X99339946Y-65403500D01*
X99363962Y-65403500D01*
X99460482Y-65377638D01*
X99547019Y-65327676D01*
X99617676Y-65257019D01*
X99667638Y-65170482D01*
X99693500Y-65073962D01*
X99693500Y-65049947D01*
X100236582Y-65593029D01*
X100324915Y-65415634D01*
X100379666Y-65223206D01*
X100398125Y-65024000D01*
X100398125Y-65023999D01*
X100379666Y-64824793D01*
X100324916Y-64632371D01*
X100324911Y-64632358D01*
X100236581Y-64454969D01*
X99693500Y-64998051D01*
X99693500Y-64974038D01*
X99667638Y-64877518D01*
X99617676Y-64790981D01*
X99547019Y-64720324D01*
X99460482Y-64670362D01*
X99363962Y-64644500D01*
X99339947Y-64644500D01*
X99879796Y-64104650D01*
X99797234Y-64053530D01*
X99797233Y-64053529D01*
X99610687Y-63981262D01*
X99414028Y-63944500D01*
X99213972Y-63944500D01*
X99017312Y-63981262D01*
X98830765Y-64053530D01*
X98830758Y-64053534D01*
X98748203Y-64104649D01*
X98748202Y-64104650D01*
X99288054Y-64644500D01*
X99264038Y-64644500D01*
X99167518Y-64670362D01*
X99080981Y-64720324D01*
X99010324Y-64790981D01*
X98960362Y-64877518D01*
X98934500Y-64974038D01*
X98934500Y-64998053D01*
X98391204Y-64454757D01*
X98322730Y-64446230D01*
X98269071Y-64401482D01*
X98248122Y-64334826D01*
X98248100Y-64332482D01*
X98248100Y-63234616D01*
X98267785Y-63167577D01*
X98320589Y-63121822D01*
X98389747Y-63111878D01*
X98453303Y-63140903D01*
X98471054Y-63159890D01*
X98512449Y-63214706D01*
X98512451Y-63214709D01*
X98660365Y-63349550D01*
X98660367Y-63349552D01*
X98830536Y-63454916D01*
X98830542Y-63454919D01*
X98870080Y-63470236D01*
X99017178Y-63527222D01*
X99213923Y-63564000D01*
X99213925Y-63564000D01*
X99414075Y-63564000D01*
X99414077Y-63564000D01*
X99610822Y-63527222D01*
X99797460Y-63454918D01*
X99967634Y-63349551D01*
X100115549Y-63214708D01*
X100236168Y-63054983D01*
X100325385Y-62875812D01*
X100380159Y-62683300D01*
X100398627Y-62484000D01*
X100380159Y-62284700D01*
X100325385Y-62092188D01*
X100300181Y-62041571D01*
X100236171Y-61913022D01*
X100236166Y-61913014D01*
X100115547Y-61753289D01*
X99967634Y-61618449D01*
X99967632Y-61618447D01*
X99797463Y-61513083D01*
X99797457Y-61513080D01*
X99648537Y-61455389D01*
X99610822Y-61440778D01*
X99414077Y-61404000D01*
X99213923Y-61404000D01*
X99017178Y-61440778D01*
X99017175Y-61440778D01*
X99017175Y-61440779D01*
X98830542Y-61513080D01*
X98830536Y-61513083D01*
X98660367Y-61618447D01*
X98660365Y-61618449D01*
X98512452Y-61753289D01*
X98471054Y-61808110D01*
X98414945Y-61849746D01*
X98345233Y-61854437D01*
X98284051Y-61820695D01*
X98250824Y-61759231D01*
X98248100Y-61733383D01*
X98248100Y-60694616D01*
X98267785Y-60627577D01*
X98320589Y-60581822D01*
X98389747Y-60571878D01*
X98453303Y-60600903D01*
X98471054Y-60619890D01*
X98512449Y-60674706D01*
X98512451Y-60674709D01*
X98660365Y-60809550D01*
X98660367Y-60809552D01*
X98830536Y-60914916D01*
X98830542Y-60914919D01*
X98835723Y-60916926D01*
X99017178Y-60987222D01*
X99213923Y-61024000D01*
X99213925Y-61024000D01*
X99414075Y-61024000D01*
X99414077Y-61024000D01*
X99610822Y-60987222D01*
X99797460Y-60914918D01*
X99967634Y-60809551D01*
X100115549Y-60674708D01*
X100236168Y-60514983D01*
X100325385Y-60335812D01*
X100380159Y-60143300D01*
X100398627Y-59944000D01*
X100395269Y-59907767D01*
X100380159Y-59744704D01*
X100380159Y-59744700D01*
X100325385Y-59552188D01*
X100323967Y-59549341D01*
X100236171Y-59373022D01*
X100236166Y-59373014D01*
X100115547Y-59213289D01*
X99967637Y-59078451D01*
X99963770Y-59075531D01*
X99922136Y-59019420D01*
X99914500Y-58976579D01*
X99914500Y-58595942D01*
X99934185Y-58528903D01*
X99986989Y-58483148D01*
X99995167Y-58479760D01*
X100000982Y-58477591D01*
X100000983Y-58477591D01*
X100135831Y-58427296D01*
X100251046Y-58341046D01*
X100337296Y-58225831D01*
X100387591Y-58090983D01*
X100394000Y-58031373D01*
X100393999Y-56776628D01*
X100387591Y-56717017D01*
X100378782Y-56693400D01*
X100337297Y-56582171D01*
X100337293Y-56582164D01*
X100251047Y-56466955D01*
X100251044Y-56466952D01*
X100135835Y-56380706D01*
X100135828Y-56380702D01*
X100000982Y-56330408D01*
X100000983Y-56330408D01*
X99941383Y-56324001D01*
X99941381Y-56324000D01*
X99941373Y-56324000D01*
X99941364Y-56324000D01*
X98686629Y-56324000D01*
X98686623Y-56324001D01*
X98627016Y-56330408D01*
X98492171Y-56380702D01*
X98492164Y-56380706D01*
X98376955Y-56466952D01*
X98376952Y-56466955D01*
X98290706Y-56582164D01*
X98290702Y-56582171D01*
X98240408Y-56717017D01*
X98234001Y-56776616D01*
X98234001Y-56776623D01*
X98234000Y-56776635D01*
X98234000Y-58031370D01*
X98234001Y-58031376D01*
X98240408Y-58090983D01*
X98290702Y-58225828D01*
X98290706Y-58225835D01*
X98376952Y-58341044D01*
X98376955Y-58341047D01*
X98492164Y-58427293D01*
X98492171Y-58427297D01*
X98538102Y-58444428D01*
X98627017Y-58477591D01*
X98632833Y-58479760D01*
X98688766Y-58521631D01*
X98713184Y-58587095D01*
X98713500Y-58595942D01*
X98713500Y-58976579D01*
X98693815Y-59043618D01*
X98664230Y-59075531D01*
X98660362Y-59078451D01*
X98512451Y-59213290D01*
X98431787Y-59320106D01*
X98375678Y-59361741D01*
X98305966Y-59366432D01*
X98244784Y-59332689D01*
X98213060Y-59277472D01*
X98207177Y-59255516D01*
X98182798Y-59213290D01*
X98128124Y-59118590D01*
X98128118Y-59118582D01*
X97790181Y-58780645D01*
X97384858Y-58375323D01*
X97351374Y-58314001D01*
X97356358Y-58244310D01*
X97389002Y-58196006D01*
X97413981Y-58173236D01*
X97548058Y-57995689D01*
X97647229Y-57796528D01*
X97708115Y-57582536D01*
X97728643Y-57361000D01*
X97708115Y-57139464D01*
X97647229Y-56925472D01*
X97647224Y-56925461D01*
X97548061Y-56726316D01*
X97548056Y-56726308D01*
X97413979Y-56548761D01*
X97249562Y-56398876D01*
X97249560Y-56398874D01*
X97060404Y-56281754D01*
X97060398Y-56281752D01*
X96852940Y-56201382D01*
X96634243Y-56160500D01*
X96411757Y-56160500D01*
X96193060Y-56201382D01*
X96061864Y-56252207D01*
X95985601Y-56281752D01*
X95985595Y-56281754D01*
X95796439Y-56398874D01*
X95796437Y-56398876D01*
X95632020Y-56548761D01*
X95497943Y-56726308D01*
X95497938Y-56726316D01*
X95398775Y-56925461D01*
X95398769Y-56925476D01*
X95337885Y-57139462D01*
X95337884Y-57139464D01*
X95317357Y-57360999D01*
X95317357Y-57361000D01*
X95337884Y-57582535D01*
X95337885Y-57582537D01*
X95398769Y-57796523D01*
X95398775Y-57796538D01*
X95497938Y-57995683D01*
X95497943Y-57995691D01*
X95632020Y-58173238D01*
X95796437Y-58323123D01*
X95796439Y-58323125D01*
X95867683Y-58367237D01*
X95914319Y-58419264D01*
X95922181Y-58440570D01*
X95922499Y-58441756D01*
X95922499Y-58441757D01*
X95926067Y-58455071D01*
X95963424Y-58594489D01*
X95967244Y-58601105D01*
X95967249Y-58601111D01*
X96005803Y-58667890D01*
X96022274Y-58735790D01*
X95999422Y-58801817D01*
X95963693Y-58835316D01*
X95796436Y-58938877D01*
X95632020Y-59088761D01*
X95497943Y-59266308D01*
X95497938Y-59266316D01*
X95398775Y-59465461D01*
X95398769Y-59465476D01*
X95337885Y-59679462D01*
X95337884Y-59679464D01*
X95317357Y-59900999D01*
X95317357Y-59901000D01*
X95337884Y-60122535D01*
X95337885Y-60122537D01*
X95398769Y-60336523D01*
X95398775Y-60336538D01*
X95497938Y-60535683D01*
X95497943Y-60535691D01*
X95632020Y-60713238D01*
X95796437Y-60863123D01*
X95796439Y-60863125D01*
X95985595Y-60980245D01*
X95985596Y-60980245D01*
X95985599Y-60980247D01*
X96193060Y-61060618D01*
X96193067Y-61060619D01*
X96193069Y-61060620D01*
X96194603Y-61061057D01*
X96195250Y-61061465D01*
X96198406Y-61062688D01*
X96198166Y-61063305D01*
X96253695Y-61098338D01*
X96283251Y-61161649D01*
X96273886Y-61230888D01*
X96228575Y-61284073D01*
X96205461Y-61295947D01*
X96187131Y-61303049D01*
X96035601Y-61361751D01*
X96035595Y-61361754D01*
X95846439Y-61478874D01*
X95846437Y-61478876D01*
X95682020Y-61628761D01*
X95547943Y-61806308D01*
X95547938Y-61806316D01*
X95448775Y-62005461D01*
X95448769Y-62005476D01*
X95422266Y-62098627D01*
X95384987Y-62157721D01*
X95321677Y-62187278D01*
X95252438Y-62177916D01*
X95199251Y-62132606D01*
X95183734Y-62098627D01*
X95157230Y-62005476D01*
X95157229Y-62005472D01*
X95145040Y-61980993D01*
X95058061Y-61806316D01*
X95058056Y-61806308D01*
X94923979Y-61628761D01*
X94759562Y-61478876D01*
X94759560Y-61478874D01*
X94570404Y-61361754D01*
X94570398Y-61361752D01*
X94362940Y-61281382D01*
X94144243Y-61240500D01*
X93921757Y-61240500D01*
X93703060Y-61281382D01*
X93593293Y-61323906D01*
X93495601Y-61361752D01*
X93495595Y-61361754D01*
X93306439Y-61478874D01*
X93306437Y-61478876D01*
X93142020Y-61628761D01*
X93007943Y-61806308D01*
X93007938Y-61806316D01*
X92908775Y-62005461D01*
X92908769Y-62005476D01*
X92847885Y-62219462D01*
X92847884Y-62219464D01*
X92827357Y-62440999D01*
X92827357Y-62441000D01*
X92847884Y-62662535D01*
X92847885Y-62662537D01*
X92908769Y-62876523D01*
X92908775Y-62876538D01*
X93007938Y-63075683D01*
X93007943Y-63075691D01*
X93142020Y-63253238D01*
X93306437Y-63403123D01*
X93306439Y-63403125D01*
X93495595Y-63520245D01*
X93495596Y-63520245D01*
X93495599Y-63520247D01*
X93703060Y-63600618D01*
X93703067Y-63600619D01*
X93708175Y-63602073D01*
X93767268Y-63639353D01*
X93796825Y-63702662D01*
X93787463Y-63771902D01*
X93742153Y-63825088D01*
X93706334Y-63841114D01*
X93556508Y-63881259D01*
X93556502Y-63881261D01*
X93350267Y-63977431D01*
X93350265Y-63977432D01*
X93163858Y-64107954D01*
X93002954Y-64268858D01*
X92872432Y-64455265D01*
X92872431Y-64455267D01*
X92776261Y-64661502D01*
X92776258Y-64661511D01*
X92717366Y-64881302D01*
X92717364Y-64881313D01*
X92697532Y-65107998D01*
X92697532Y-65108001D01*
X92717364Y-65334686D01*
X92717366Y-65334697D01*
X92776258Y-65554488D01*
X92776261Y-65554497D01*
X92872431Y-65760732D01*
X92872432Y-65760734D01*
X93002954Y-65947141D01*
X93163858Y-66108045D01*
X93185129Y-66122939D01*
X93337923Y-66229925D01*
X93381548Y-66284501D01*
X93388742Y-66354000D01*
X93357220Y-66416354D01*
X93296990Y-66451769D01*
X93266800Y-66455500D01*
X93038412Y-66455500D01*
X92971373Y-66435815D01*
X92961097Y-66428445D01*
X92958263Y-66426185D01*
X92958262Y-66426184D01*
X92860860Y-66364982D01*
X92805523Y-66330211D01*
X92635254Y-66270631D01*
X92635249Y-66270630D01*
X92456004Y-66250435D01*
X92455996Y-66250435D01*
X92276750Y-66270630D01*
X92276745Y-66270631D01*
X92106476Y-66330211D01*
X91953737Y-66426184D01*
X91826184Y-66553737D01*
X91730211Y-66706476D01*
X91670631Y-66876745D01*
X91670630Y-66876750D01*
X91650435Y-67055996D01*
X90026151Y-67055996D01*
X90183934Y-67027081D01*
X90498935Y-66928924D01*
X90498950Y-66928918D01*
X90799844Y-66793497D01*
X90799846Y-66793495D01*
X91082226Y-66622791D01*
X91082234Y-66622785D01*
X91274556Y-66472110D01*
X91274556Y-66472109D01*
X90388367Y-65585920D01*
X90497413Y-65506695D01*
X90662695Y-65341413D01*
X90741920Y-65232367D01*
X91628109Y-66118556D01*
X91628110Y-66118556D01*
X91778785Y-65926234D01*
X91778791Y-65926226D01*
X91949495Y-65643846D01*
X91949497Y-65643844D01*
X92084918Y-65342950D01*
X92084924Y-65342935D01*
X92183081Y-65027934D01*
X92242562Y-64703359D01*
X92262484Y-64374000D01*
X92242562Y-64044640D01*
X92183081Y-63720065D01*
X92084924Y-63405064D01*
X92084918Y-63405049D01*
X91949497Y-63104155D01*
X91949495Y-63104153D01*
X91778785Y-62821763D01*
X91628109Y-62629442D01*
X90741920Y-63515631D01*
X90662695Y-63406587D01*
X90497413Y-63241305D01*
X90388366Y-63162078D01*
X91274556Y-62275889D01*
X91274556Y-62275888D01*
X91082236Y-62125214D01*
X90799846Y-61954504D01*
X90799844Y-61954502D01*
X90498950Y-61819081D01*
X90498935Y-61819075D01*
X90183934Y-61720918D01*
X89859359Y-61661437D01*
X89530000Y-61641515D01*
X89200640Y-61661437D01*
X88876065Y-61720918D01*
X88561064Y-61819075D01*
X88561049Y-61819081D01*
X88260155Y-61954502D01*
X88260153Y-61954504D01*
X87977763Y-62125215D01*
X87766573Y-62290672D01*
X87701661Y-62316521D01*
X87633078Y-62303172D01*
X87582599Y-62254864D01*
X87566100Y-62193061D01*
X87566100Y-54372986D01*
X101475001Y-54372986D01*
X101485494Y-54475697D01*
X101540641Y-54642119D01*
X101540643Y-54642124D01*
X101632684Y-54791345D01*
X101756654Y-54915315D01*
X101905875Y-55007356D01*
X101905880Y-55007358D01*
X102072302Y-55062505D01*
X102072309Y-55062506D01*
X102175019Y-55072999D01*
X102312499Y-55072999D01*
X102312500Y-55072998D01*
X102312500Y-54098000D01*
X101475001Y-54098000D01*
X101475001Y-54372986D01*
X87566100Y-54372986D01*
X87566100Y-53323013D01*
X101475000Y-53323013D01*
X101475000Y-53598000D01*
X102312500Y-53598000D01*
X102312500Y-52623000D01*
X102175027Y-52623000D01*
X102175012Y-52623001D01*
X102072302Y-52633494D01*
X101905880Y-52688641D01*
X101905875Y-52688643D01*
X101756654Y-52780684D01*
X101632684Y-52904654D01*
X101540643Y-53053875D01*
X101540641Y-53053880D01*
X101485494Y-53220302D01*
X101485493Y-53220309D01*
X101475000Y-53323013D01*
X87566100Y-53323013D01*
X87566100Y-50422389D01*
X87585785Y-50355350D01*
X87638589Y-50309595D01*
X87707747Y-50299651D01*
X87710489Y-50300076D01*
X87772951Y-50310500D01*
X87772952Y-50310500D01*
X88005048Y-50310500D01*
X88005049Y-50310500D01*
X88233981Y-50272298D01*
X88453503Y-50196936D01*
X88657626Y-50086470D01*
X88658170Y-50086047D01*
X88785951Y-49986591D01*
X88840784Y-49943913D01*
X88997979Y-49773153D01*
X89124924Y-49578849D01*
X89218157Y-49366300D01*
X89275134Y-49141305D01*
X89275135Y-49141297D01*
X89294300Y-48910006D01*
X89294300Y-48909993D01*
X89275135Y-48678702D01*
X89275133Y-48678691D01*
X89218157Y-48453699D01*
X89124924Y-48241151D01*
X88997983Y-48046852D01*
X88997980Y-48046849D01*
X88997979Y-48046847D01*
X88840784Y-47876087D01*
X88840779Y-47876083D01*
X88840777Y-47876081D01*
X88657634Y-47733535D01*
X88657628Y-47733531D01*
X88453504Y-47623064D01*
X88453495Y-47623061D01*
X88233984Y-47547702D01*
X88062282Y-47519050D01*
X88005049Y-47509500D01*
X87772951Y-47509500D01*
X87754266Y-47512618D01*
X87544015Y-47547702D01*
X87324504Y-47623061D01*
X87324495Y-47623064D01*
X87120371Y-47733531D01*
X87120365Y-47733535D01*
X86937222Y-47876081D01*
X86937219Y-47876084D01*
X86937216Y-47876086D01*
X86937216Y-47876087D01*
X86780724Y-48046084D01*
X86780015Y-48046854D01*
X86742808Y-48103804D01*
X86689662Y-48149161D01*
X86620430Y-48158584D01*
X86557095Y-48129082D01*
X86535192Y-48103804D01*
X86497984Y-48046854D01*
X86497982Y-48046852D01*
X86497979Y-48046847D01*
X86340784Y-47876087D01*
X86340779Y-47876083D01*
X86340777Y-47876081D01*
X86157634Y-47733535D01*
X86157628Y-47733531D01*
X85953504Y-47623064D01*
X85953495Y-47623061D01*
X85733984Y-47547702D01*
X85562282Y-47519050D01*
X85505049Y-47509500D01*
X85272951Y-47509500D01*
X85254266Y-47512618D01*
X85044015Y-47547702D01*
X84824504Y-47623061D01*
X84824495Y-47623064D01*
X84620371Y-47733531D01*
X84620365Y-47733535D01*
X84437222Y-47876081D01*
X84437219Y-47876084D01*
X84437216Y-47876086D01*
X84437216Y-47876087D01*
X84280021Y-48046847D01*
X84280019Y-48046849D01*
X84280017Y-48046852D01*
X84242509Y-48104262D01*
X84189362Y-48149618D01*
X84120131Y-48159041D01*
X84056795Y-48129538D01*
X84042084Y-48112561D01*
X84040186Y-48112364D01*
X83453612Y-48698939D01*
X83448111Y-48678409D01*
X83369119Y-48541592D01*
X83257408Y-48429881D01*
X83120591Y-48350889D01*
X83100058Y-48345387D01*
X83687797Y-47757647D01*
X83687797Y-47757645D01*
X83657360Y-47733955D01*
X83657354Y-47733951D01*
X83453302Y-47623523D01*
X83453293Y-47623520D01*
X83233860Y-47548188D01*
X83005007Y-47510000D01*
X82772993Y-47510000D01*
X82544139Y-47548188D01*
X82324706Y-47623520D01*
X82324697Y-47623523D01*
X82120650Y-47733949D01*
X82090200Y-47757647D01*
X82677941Y-48345387D01*
X82657409Y-48350889D01*
X82520592Y-48429881D01*
X82408881Y-48541592D01*
X82329889Y-48678409D01*
X82324387Y-48698940D01*
X81737812Y-48112365D01*
X81653516Y-48241391D01*
X81653514Y-48241395D01*
X81560317Y-48453864D01*
X81503361Y-48678781D01*
X81484202Y-48909994D01*
X81484202Y-48910005D01*
X81503361Y-49141218D01*
X81560317Y-49366135D01*
X81653516Y-49578609D01*
X81737811Y-49707633D01*
X82324387Y-49121058D01*
X82329889Y-49141591D01*
X82408881Y-49278408D01*
X82520592Y-49390119D01*
X82657409Y-49469111D01*
X82677940Y-49474612D01*
X82090201Y-50062351D01*
X82120649Y-50086050D01*
X82324697Y-50196476D01*
X82324706Y-50196479D01*
X82544139Y-50271811D01*
X82772993Y-50310000D01*
X83005007Y-50310000D01*
X83233860Y-50271811D01*
X83453293Y-50196479D01*
X83453301Y-50196476D01*
X83657355Y-50086047D01*
X83687797Y-50062351D01*
X83687798Y-50062350D01*
X83100060Y-49474612D01*
X83120591Y-49469111D01*
X83257408Y-49390119D01*
X83369119Y-49278408D01*
X83448111Y-49141591D01*
X83453612Y-49121059D01*
X84040186Y-49707634D01*
X84044969Y-49707138D01*
X84088037Y-49670381D01*
X84157269Y-49660957D01*
X84220605Y-49690458D01*
X84242510Y-49715738D01*
X84280016Y-49773147D01*
X84280019Y-49773151D01*
X84280021Y-49773153D01*
X84437216Y-49943913D01*
X84437219Y-49943915D01*
X84437222Y-49943918D01*
X84620365Y-50086464D01*
X84620371Y-50086468D01*
X84620374Y-50086470D01*
X84754281Y-50158937D01*
X84823652Y-50196479D01*
X84824497Y-50196936D01*
X84927657Y-50232351D01*
X85044015Y-50272297D01*
X85044017Y-50272297D01*
X85044019Y-50272298D01*
X85272951Y-50310500D01*
X85272952Y-50310500D01*
X85505048Y-50310500D01*
X85505049Y-50310500D01*
X85733981Y-50272298D01*
X85953503Y-50196936D01*
X85982082Y-50181469D01*
X86050409Y-50166874D01*
X86115782Y-50191536D01*
X86157443Y-50247626D01*
X86165100Y-50290524D01*
X86165100Y-70151288D01*
X86145415Y-70218327D01*
X86092611Y-70264082D01*
X86023453Y-70274026D01*
X85964938Y-70249142D01*
X85898627Y-70197531D01*
X85898626Y-70197530D01*
X85763509Y-70124408D01*
X85694504Y-70087064D01*
X85694495Y-70087061D01*
X85474984Y-70011702D01*
X85264554Y-69976588D01*
X85246049Y-69973500D01*
X85013951Y-69973500D01*
X84995446Y-69976588D01*
X84785015Y-70011702D01*
X84565504Y-70087061D01*
X84565495Y-70087064D01*
X84361371Y-70197531D01*
X84361365Y-70197535D01*
X84178222Y-70340081D01*
X84178219Y-70340084D01*
X84178216Y-70340086D01*
X84178216Y-70340087D01*
X84021021Y-70510847D01*
X84021019Y-70510849D01*
X84021017Y-70510852D01*
X83983509Y-70568262D01*
X83930362Y-70613618D01*
X83861131Y-70623041D01*
X83797795Y-70593538D01*
X83783084Y-70576561D01*
X83781186Y-70576364D01*
X83194612Y-71162939D01*
X83189111Y-71142409D01*
X83110119Y-71005592D01*
X82998408Y-70893881D01*
X82861591Y-70814889D01*
X82841058Y-70809387D01*
X83428797Y-70221647D01*
X83428797Y-70221645D01*
X83398360Y-70197955D01*
X83398354Y-70197951D01*
X83194302Y-70087523D01*
X83194293Y-70087520D01*
X82974860Y-70012188D01*
X82746007Y-69974000D01*
X82513993Y-69974000D01*
X82285139Y-70012188D01*
X82065706Y-70087520D01*
X82065697Y-70087523D01*
X81861650Y-70197949D01*
X81831200Y-70221647D01*
X82418941Y-70809387D01*
X82398409Y-70814889D01*
X82261592Y-70893881D01*
X82149881Y-71005592D01*
X82070889Y-71142409D01*
X82065387Y-71162940D01*
X81478812Y-70576365D01*
X81394516Y-70705391D01*
X81394514Y-70705395D01*
X81301317Y-70917864D01*
X81244361Y-71142781D01*
X81225202Y-71373994D01*
X71000000Y-71373994D01*
X71000000Y-64374000D01*
X77997515Y-64374000D01*
X78017437Y-64703359D01*
X78076918Y-65027934D01*
X78175075Y-65342935D01*
X78175081Y-65342950D01*
X78310502Y-65643844D01*
X78310504Y-65643846D01*
X78481214Y-65926236D01*
X78631889Y-66118556D01*
X79518078Y-65232366D01*
X79597305Y-65341413D01*
X79762587Y-65506695D01*
X79871631Y-65585920D01*
X78985442Y-66472109D01*
X78985442Y-66472110D01*
X79177763Y-66622785D01*
X79460153Y-66793495D01*
X79460155Y-66793497D01*
X79761049Y-66928918D01*
X79761064Y-66928924D01*
X80076065Y-67027081D01*
X80400640Y-67086562D01*
X80730000Y-67106484D01*
X81059359Y-67086562D01*
X81383934Y-67027081D01*
X81698935Y-66928924D01*
X81698950Y-66928918D01*
X81999844Y-66793497D01*
X81999846Y-66793495D01*
X82282226Y-66622791D01*
X82282234Y-66622785D01*
X82474556Y-66472110D01*
X82474556Y-66472109D01*
X81588367Y-65585920D01*
X81697413Y-65506695D01*
X81862695Y-65341413D01*
X81941920Y-65232367D01*
X82828109Y-66118556D01*
X82828110Y-66118556D01*
X82978785Y-65926234D01*
X82978791Y-65926226D01*
X83149495Y-65643846D01*
X83149497Y-65643844D01*
X83284918Y-65342950D01*
X83284924Y-65342935D01*
X83383081Y-65027934D01*
X83442562Y-64703359D01*
X83462484Y-64374000D01*
X83442562Y-64044640D01*
X83383081Y-63720065D01*
X83284924Y-63405064D01*
X83284918Y-63405049D01*
X83149497Y-63104155D01*
X83149495Y-63104153D01*
X82978785Y-62821763D01*
X82828109Y-62629442D01*
X81941920Y-63515631D01*
X81862695Y-63406587D01*
X81697413Y-63241305D01*
X81588366Y-63162078D01*
X82474556Y-62275889D01*
X82474556Y-62275888D01*
X82282236Y-62125214D01*
X81999846Y-61954504D01*
X81999844Y-61954502D01*
X81698950Y-61819081D01*
X81698935Y-61819075D01*
X81383934Y-61720918D01*
X81059359Y-61661437D01*
X80730000Y-61641515D01*
X80400640Y-61661437D01*
X80076065Y-61720918D01*
X79761064Y-61819075D01*
X79761049Y-61819081D01*
X79460155Y-61954502D01*
X79460153Y-61954504D01*
X79177773Y-62125208D01*
X78985442Y-62275889D01*
X79871632Y-63162079D01*
X79762587Y-63241305D01*
X79597305Y-63406587D01*
X79518079Y-63515632D01*
X78631889Y-62629442D01*
X78481208Y-62821773D01*
X78310504Y-63104153D01*
X78310502Y-63104155D01*
X78175081Y-63405049D01*
X78175075Y-63405064D01*
X78076918Y-63720065D01*
X78017437Y-64044640D01*
X77997515Y-64374000D01*
X71000000Y-64374000D01*
X71000000Y-41910000D01*
X78256515Y-41910000D01*
X78276437Y-42239359D01*
X78335918Y-42563934D01*
X78434075Y-42878935D01*
X78434081Y-42878950D01*
X78569502Y-43179844D01*
X78569504Y-43179846D01*
X78740214Y-43462236D01*
X78890889Y-43654556D01*
X79777078Y-42768366D01*
X79856305Y-42877413D01*
X80021587Y-43042695D01*
X80130631Y-43121920D01*
X79244442Y-44008109D01*
X79244442Y-44008110D01*
X79436763Y-44158785D01*
X79719153Y-44329495D01*
X79719155Y-44329497D01*
X80020049Y-44464918D01*
X80020064Y-44464924D01*
X80335065Y-44563081D01*
X80659640Y-44622562D01*
X80989000Y-44642484D01*
X81318359Y-44622562D01*
X81642934Y-44563081D01*
X81957935Y-44464924D01*
X81957950Y-44464918D01*
X82258844Y-44329497D01*
X82258846Y-44329495D01*
X82541226Y-44158791D01*
X82541234Y-44158785D01*
X82733556Y-44008110D01*
X82733556Y-44008109D01*
X81847367Y-43121920D01*
X81956413Y-43042695D01*
X82121695Y-42877413D01*
X82200920Y-42768367D01*
X83087109Y-43654556D01*
X83087110Y-43654556D01*
X83237785Y-43462234D01*
X83237791Y-43462226D01*
X83408495Y-43179846D01*
X83408497Y-43179844D01*
X83543918Y-42878950D01*
X83543924Y-42878935D01*
X83642081Y-42563934D01*
X83701562Y-42239359D01*
X83721484Y-41910000D01*
X87056515Y-41910000D01*
X87076437Y-42239359D01*
X87135918Y-42563934D01*
X87234075Y-42878935D01*
X87234081Y-42878950D01*
X87369502Y-43179844D01*
X87369504Y-43179846D01*
X87540214Y-43462236D01*
X87690889Y-43654556D01*
X88577078Y-42768366D01*
X88656305Y-42877413D01*
X88821587Y-43042695D01*
X88930631Y-43121920D01*
X88044442Y-44008109D01*
X88044442Y-44008110D01*
X88236763Y-44158785D01*
X88519153Y-44329495D01*
X88519155Y-44329497D01*
X88820049Y-44464918D01*
X88820064Y-44464924D01*
X89135065Y-44563081D01*
X89459640Y-44622562D01*
X89789000Y-44642484D01*
X90118359Y-44622562D01*
X90442934Y-44563081D01*
X90757935Y-44464924D01*
X90757950Y-44464918D01*
X91058844Y-44329497D01*
X91058846Y-44329495D01*
X91341226Y-44158791D01*
X91341234Y-44158785D01*
X91533556Y-44008110D01*
X91533556Y-44008109D01*
X90647367Y-43121920D01*
X90756413Y-43042695D01*
X90921695Y-42877413D01*
X91000920Y-42768367D01*
X91887109Y-43654556D01*
X91887110Y-43654556D01*
X92037785Y-43462234D01*
X92037791Y-43462226D01*
X92208495Y-43179846D01*
X92208497Y-43179844D01*
X92343918Y-42878950D01*
X92343924Y-42878935D01*
X92442081Y-42563934D01*
X92501562Y-42239359D01*
X92512895Y-42052000D01*
X96412515Y-42052000D01*
X96432437Y-42381359D01*
X96491918Y-42705934D01*
X96590075Y-43020935D01*
X96590081Y-43020950D01*
X96725502Y-43321844D01*
X96725504Y-43321846D01*
X96896214Y-43604236D01*
X97046889Y-43796556D01*
X97933078Y-42910366D01*
X98012305Y-43019413D01*
X98177587Y-43184695D01*
X98286631Y-43263920D01*
X97400442Y-44150109D01*
X97400442Y-44150110D01*
X97592763Y-44300785D01*
X97875153Y-44471495D01*
X97875155Y-44471497D01*
X98176049Y-44606918D01*
X98176064Y-44606924D01*
X98491065Y-44705081D01*
X98815640Y-44764562D01*
X99145000Y-44784484D01*
X99474359Y-44764562D01*
X99798934Y-44705081D01*
X100113935Y-44606924D01*
X100113950Y-44606918D01*
X100414844Y-44471497D01*
X100414846Y-44471495D01*
X100697226Y-44300791D01*
X100697234Y-44300785D01*
X100889556Y-44150110D01*
X100889556Y-44150109D01*
X100003367Y-43263920D01*
X100112413Y-43184695D01*
X100277695Y-43019413D01*
X100356920Y-42910367D01*
X101243109Y-43796556D01*
X101243110Y-43796556D01*
X101393785Y-43604234D01*
X101393791Y-43604226D01*
X101564495Y-43321846D01*
X101564497Y-43321844D01*
X101699918Y-43020950D01*
X101699924Y-43020935D01*
X101798081Y-42705934D01*
X101857562Y-42381359D01*
X101877484Y-42052000D01*
X105212515Y-42052000D01*
X105232437Y-42381359D01*
X105291918Y-42705934D01*
X105390075Y-43020935D01*
X105390081Y-43020950D01*
X105525502Y-43321844D01*
X105525504Y-43321846D01*
X105696214Y-43604236D01*
X105846889Y-43796556D01*
X106733078Y-42910366D01*
X106812305Y-43019413D01*
X106977587Y-43184695D01*
X107086631Y-43263920D01*
X106200442Y-44150109D01*
X106200442Y-44150110D01*
X106392763Y-44300785D01*
X106675153Y-44471495D01*
X106675155Y-44471497D01*
X106976049Y-44606918D01*
X106976064Y-44606924D01*
X107291065Y-44705081D01*
X107615640Y-44764562D01*
X107945000Y-44784484D01*
X108274359Y-44764562D01*
X108598934Y-44705081D01*
X108913935Y-44606924D01*
X108913950Y-44606918D01*
X109214844Y-44471497D01*
X109214846Y-44471495D01*
X109497226Y-44300791D01*
X109497234Y-44300785D01*
X109689556Y-44150110D01*
X109689556Y-44150109D01*
X108803367Y-43263920D01*
X108912413Y-43184695D01*
X109077695Y-43019413D01*
X109156920Y-42910367D01*
X110043109Y-43796556D01*
X110043110Y-43796556D01*
X110193785Y-43604234D01*
X110193791Y-43604226D01*
X110364495Y-43321846D01*
X110364497Y-43321844D01*
X110499918Y-43020950D01*
X110499924Y-43020935D01*
X110598081Y-42705934D01*
X110657562Y-42381359D01*
X110675790Y-42080000D01*
X114872515Y-42080000D01*
X114892437Y-42409359D01*
X114951918Y-42733934D01*
X115050075Y-43048935D01*
X115050081Y-43048950D01*
X115185502Y-43349844D01*
X115185504Y-43349846D01*
X115356214Y-43632236D01*
X115506889Y-43824556D01*
X116393078Y-42938366D01*
X116472305Y-43047413D01*
X116637587Y-43212695D01*
X116746631Y-43291920D01*
X115860442Y-44178109D01*
X115860442Y-44178110D01*
X116052763Y-44328785D01*
X116335153Y-44499495D01*
X116335155Y-44499497D01*
X116636049Y-44634918D01*
X116636064Y-44634924D01*
X116951065Y-44733081D01*
X117275640Y-44792562D01*
X117605000Y-44812484D01*
X117934359Y-44792562D01*
X118258934Y-44733081D01*
X118573935Y-44634924D01*
X118573950Y-44634918D01*
X118874844Y-44499497D01*
X118874846Y-44499495D01*
X119157226Y-44328791D01*
X119157234Y-44328785D01*
X119349556Y-44178110D01*
X119349556Y-44178109D01*
X118463367Y-43291920D01*
X118572413Y-43212695D01*
X118737695Y-43047413D01*
X118816920Y-42938367D01*
X119703109Y-43824556D01*
X119703110Y-43824556D01*
X119853785Y-43632234D01*
X119853791Y-43632226D01*
X120024495Y-43349846D01*
X120024497Y-43349844D01*
X120159918Y-43048950D01*
X120159924Y-43048935D01*
X120258081Y-42733934D01*
X120317562Y-42409359D01*
X120337484Y-42080000D01*
X123672515Y-42080000D01*
X123692437Y-42409359D01*
X123751918Y-42733934D01*
X123850075Y-43048935D01*
X123850081Y-43048950D01*
X123985502Y-43349844D01*
X123985504Y-43349846D01*
X124156214Y-43632236D01*
X124306889Y-43824556D01*
X125193078Y-42938366D01*
X125272305Y-43047413D01*
X125437587Y-43212695D01*
X125546631Y-43291920D01*
X124660442Y-44178109D01*
X124660442Y-44178110D01*
X124852763Y-44328785D01*
X125135153Y-44499495D01*
X125135155Y-44499497D01*
X125436049Y-44634918D01*
X125436064Y-44634924D01*
X125751065Y-44733081D01*
X126075640Y-44792562D01*
X126405000Y-44812484D01*
X126734359Y-44792562D01*
X127058934Y-44733081D01*
X127373935Y-44634924D01*
X127373950Y-44634918D01*
X127674844Y-44499497D01*
X127674846Y-44499495D01*
X127957226Y-44328791D01*
X127957234Y-44328785D01*
X128149556Y-44178110D01*
X128149556Y-44178109D01*
X127263367Y-43291920D01*
X127372413Y-43212695D01*
X127537695Y-43047413D01*
X127616920Y-42938367D01*
X128503109Y-43824556D01*
X128503110Y-43824556D01*
X128653785Y-43632234D01*
X128653791Y-43632226D01*
X128824495Y-43349846D01*
X128824497Y-43349844D01*
X128959918Y-43048950D01*
X128959924Y-43048935D01*
X129058081Y-42733934D01*
X129117562Y-42409359D01*
X129137484Y-42080000D01*
X133541515Y-42080000D01*
X133561437Y-42409359D01*
X133620918Y-42733934D01*
X133719075Y-43048935D01*
X133719081Y-43048950D01*
X133854502Y-43349844D01*
X133854504Y-43349846D01*
X134025214Y-43632236D01*
X134175889Y-43824556D01*
X135062078Y-42938366D01*
X135141305Y-43047413D01*
X135306587Y-43212695D01*
X135415631Y-43291920D01*
X134529442Y-44178109D01*
X134529442Y-44178110D01*
X134721763Y-44328785D01*
X135004153Y-44499495D01*
X135004155Y-44499497D01*
X135305049Y-44634918D01*
X135305064Y-44634924D01*
X135620065Y-44733081D01*
X135944640Y-44792562D01*
X136274000Y-44812484D01*
X136603359Y-44792562D01*
X136927934Y-44733081D01*
X137242935Y-44634924D01*
X137242950Y-44634918D01*
X137543844Y-44499497D01*
X137543846Y-44499495D01*
X137826226Y-44328791D01*
X137826234Y-44328785D01*
X138018556Y-44178110D01*
X138018556Y-44178109D01*
X137132367Y-43291920D01*
X137241413Y-43212695D01*
X137406695Y-43047413D01*
X137485920Y-42938367D01*
X138372109Y-43824556D01*
X138372110Y-43824556D01*
X138522785Y-43632234D01*
X138522791Y-43632226D01*
X138693495Y-43349846D01*
X138693497Y-43349844D01*
X138828918Y-43048950D01*
X138828924Y-43048935D01*
X138927081Y-42733934D01*
X138986562Y-42409359D01*
X139006484Y-42080000D01*
X142341515Y-42080000D01*
X142361437Y-42409359D01*
X142420918Y-42733934D01*
X142519075Y-43048935D01*
X142519081Y-43048950D01*
X142654502Y-43349844D01*
X142654504Y-43349846D01*
X142825214Y-43632236D01*
X142975889Y-43824556D01*
X143862078Y-42938366D01*
X143941305Y-43047413D01*
X144106587Y-43212695D01*
X144215631Y-43291920D01*
X143329442Y-44178109D01*
X143329442Y-44178110D01*
X143521763Y-44328785D01*
X143804153Y-44499495D01*
X143804155Y-44499497D01*
X144105049Y-44634918D01*
X144105064Y-44634924D01*
X144420065Y-44733081D01*
X144744640Y-44792562D01*
X145074000Y-44812484D01*
X145403359Y-44792562D01*
X145727934Y-44733081D01*
X146042935Y-44634924D01*
X146042950Y-44634918D01*
X146343844Y-44499497D01*
X146343846Y-44499495D01*
X146626226Y-44328791D01*
X146626234Y-44328785D01*
X146818556Y-44178110D01*
X146818556Y-44178109D01*
X145932367Y-43291920D01*
X146041413Y-43212695D01*
X146206695Y-43047413D01*
X146285920Y-42938367D01*
X147172109Y-43824556D01*
X147172110Y-43824556D01*
X147322785Y-43632234D01*
X147322791Y-43632226D01*
X147493495Y-43349846D01*
X147493497Y-43349844D01*
X147628918Y-43048950D01*
X147628924Y-43048935D01*
X147727081Y-42733934D01*
X147786562Y-42409359D01*
X147806484Y-42080000D01*
X147786562Y-41750640D01*
X147727081Y-41426065D01*
X147628924Y-41111064D01*
X147628918Y-41111049D01*
X147493497Y-40810155D01*
X147493495Y-40810153D01*
X147322785Y-40527763D01*
X147172109Y-40335442D01*
X146285920Y-41221631D01*
X146206695Y-41112587D01*
X146041413Y-40947305D01*
X145932366Y-40868078D01*
X146818556Y-39981889D01*
X146818556Y-39981888D01*
X146626236Y-39831214D01*
X146343846Y-39660504D01*
X146343844Y-39660502D01*
X146042950Y-39525081D01*
X146042935Y-39525075D01*
X145727934Y-39426918D01*
X145403359Y-39367437D01*
X145074000Y-39347515D01*
X144744640Y-39367437D01*
X144420065Y-39426918D01*
X144105064Y-39525075D01*
X144105049Y-39525081D01*
X143804155Y-39660502D01*
X143804153Y-39660504D01*
X143521773Y-39831208D01*
X143329442Y-39981889D01*
X144215632Y-40868079D01*
X144106587Y-40947305D01*
X143941305Y-41112587D01*
X143862079Y-41221632D01*
X142975889Y-40335442D01*
X142825208Y-40527773D01*
X142654504Y-40810153D01*
X142654502Y-40810155D01*
X142519081Y-41111049D01*
X142519075Y-41111064D01*
X142420918Y-41426065D01*
X142361437Y-41750640D01*
X142341515Y-42080000D01*
X139006484Y-42080000D01*
X138986562Y-41750640D01*
X138927081Y-41426065D01*
X138828924Y-41111064D01*
X138828918Y-41111049D01*
X138693497Y-40810155D01*
X138693495Y-40810153D01*
X138522785Y-40527763D01*
X138372109Y-40335442D01*
X137485920Y-41221631D01*
X137406695Y-41112587D01*
X137241413Y-40947305D01*
X137132366Y-40868078D01*
X138018556Y-39981889D01*
X138018556Y-39981888D01*
X137826236Y-39831214D01*
X137543846Y-39660504D01*
X137543844Y-39660502D01*
X137242950Y-39525081D01*
X137242935Y-39525075D01*
X136927934Y-39426918D01*
X136603359Y-39367437D01*
X136274000Y-39347515D01*
X135944640Y-39367437D01*
X135620065Y-39426918D01*
X135305064Y-39525075D01*
X135305049Y-39525081D01*
X135004155Y-39660502D01*
X135004153Y-39660504D01*
X134721773Y-39831208D01*
X134529442Y-39981889D01*
X135415632Y-40868079D01*
X135306587Y-40947305D01*
X135141305Y-41112587D01*
X135062079Y-41221632D01*
X134175889Y-40335442D01*
X134025208Y-40527773D01*
X133854504Y-40810153D01*
X133854502Y-40810155D01*
X133719081Y-41111049D01*
X133719075Y-41111064D01*
X133620918Y-41426065D01*
X133561437Y-41750640D01*
X133541515Y-42080000D01*
X129137484Y-42080000D01*
X129117562Y-41750640D01*
X129058081Y-41426065D01*
X128959924Y-41111064D01*
X128959918Y-41111049D01*
X128824497Y-40810155D01*
X128824495Y-40810153D01*
X128653785Y-40527763D01*
X128503109Y-40335442D01*
X127616920Y-41221631D01*
X127537695Y-41112587D01*
X127372413Y-40947305D01*
X127263366Y-40868078D01*
X128149556Y-39981889D01*
X128149556Y-39981888D01*
X127957236Y-39831214D01*
X127674846Y-39660504D01*
X127674844Y-39660502D01*
X127373950Y-39525081D01*
X127373935Y-39525075D01*
X127058934Y-39426918D01*
X126734359Y-39367437D01*
X126405000Y-39347515D01*
X126075640Y-39367437D01*
X125751065Y-39426918D01*
X125436064Y-39525075D01*
X125436049Y-39525081D01*
X125135155Y-39660502D01*
X125135153Y-39660504D01*
X124852773Y-39831208D01*
X124660442Y-39981889D01*
X125546632Y-40868079D01*
X125437587Y-40947305D01*
X125272305Y-41112587D01*
X125193079Y-41221632D01*
X124306889Y-40335442D01*
X124156208Y-40527773D01*
X123985504Y-40810153D01*
X123985502Y-40810155D01*
X123850081Y-41111049D01*
X123850075Y-41111064D01*
X123751918Y-41426065D01*
X123692437Y-41750640D01*
X123672515Y-42080000D01*
X120337484Y-42080000D01*
X120317562Y-41750640D01*
X120258081Y-41426065D01*
X120159924Y-41111064D01*
X120159918Y-41111049D01*
X120024497Y-40810155D01*
X120024495Y-40810153D01*
X119853785Y-40527763D01*
X119703109Y-40335442D01*
X118816920Y-41221631D01*
X118737695Y-41112587D01*
X118572413Y-40947305D01*
X118463366Y-40868078D01*
X119349556Y-39981889D01*
X119349556Y-39981888D01*
X119157236Y-39831214D01*
X118874846Y-39660504D01*
X118874844Y-39660502D01*
X118573950Y-39525081D01*
X118573935Y-39525075D01*
X118258934Y-39426918D01*
X117934359Y-39367437D01*
X117605000Y-39347515D01*
X117275640Y-39367437D01*
X116951065Y-39426918D01*
X116636064Y-39525075D01*
X116636049Y-39525081D01*
X116335155Y-39660502D01*
X116335153Y-39660504D01*
X116052773Y-39831208D01*
X115860442Y-39981889D01*
X116746632Y-40868079D01*
X116637587Y-40947305D01*
X116472305Y-41112587D01*
X116393079Y-41221632D01*
X115506889Y-40335442D01*
X115356208Y-40527773D01*
X115185504Y-40810153D01*
X115185502Y-40810155D01*
X115050081Y-41111049D01*
X115050075Y-41111064D01*
X114951918Y-41426065D01*
X114892437Y-41750640D01*
X114872515Y-42080000D01*
X110675790Y-42080000D01*
X110677484Y-42052000D01*
X110657562Y-41722640D01*
X110598081Y-41398065D01*
X110499924Y-41083064D01*
X110499918Y-41083049D01*
X110364497Y-40782155D01*
X110364495Y-40782153D01*
X110193785Y-40499763D01*
X110043109Y-40307442D01*
X109156920Y-41193631D01*
X109077695Y-41084587D01*
X108912413Y-40919305D01*
X108803366Y-40840078D01*
X109689556Y-39953889D01*
X109689556Y-39953888D01*
X109497236Y-39803214D01*
X109214846Y-39632504D01*
X109214844Y-39632502D01*
X108913950Y-39497081D01*
X108913935Y-39497075D01*
X108598934Y-39398918D01*
X108274359Y-39339437D01*
X107945000Y-39319515D01*
X107615640Y-39339437D01*
X107291065Y-39398918D01*
X106976064Y-39497075D01*
X106976049Y-39497081D01*
X106675155Y-39632502D01*
X106675153Y-39632504D01*
X106392773Y-39803208D01*
X106200442Y-39953889D01*
X107086632Y-40840079D01*
X106977587Y-40919305D01*
X106812305Y-41084587D01*
X106733079Y-41193632D01*
X105846889Y-40307442D01*
X105696208Y-40499773D01*
X105525504Y-40782153D01*
X105525502Y-40782155D01*
X105390081Y-41083049D01*
X105390075Y-41083064D01*
X105291918Y-41398065D01*
X105232437Y-41722640D01*
X105212515Y-42052000D01*
X101877484Y-42052000D01*
X101857562Y-41722640D01*
X101798081Y-41398065D01*
X101699924Y-41083064D01*
X101699918Y-41083049D01*
X101564497Y-40782155D01*
X101564495Y-40782153D01*
X101393785Y-40499763D01*
X101243109Y-40307442D01*
X100356920Y-41193631D01*
X100277695Y-41084587D01*
X100112413Y-40919305D01*
X100003366Y-40840078D01*
X100889556Y-39953889D01*
X100889556Y-39953888D01*
X100697236Y-39803214D01*
X100414846Y-39632504D01*
X100414844Y-39632502D01*
X100113950Y-39497081D01*
X100113935Y-39497075D01*
X99798934Y-39398918D01*
X99474359Y-39339437D01*
X99145000Y-39319515D01*
X98815640Y-39339437D01*
X98491065Y-39398918D01*
X98176064Y-39497075D01*
X98176049Y-39497081D01*
X97875155Y-39632502D01*
X97875153Y-39632504D01*
X97592773Y-39803208D01*
X97400442Y-39953889D01*
X98286632Y-40840079D01*
X98177587Y-40919305D01*
X98012305Y-41084587D01*
X97933079Y-41193632D01*
X97046889Y-40307442D01*
X96896208Y-40499773D01*
X96725504Y-40782153D01*
X96725502Y-40782155D01*
X96590081Y-41083049D01*
X96590075Y-41083064D01*
X96491918Y-41398065D01*
X96432437Y-41722640D01*
X96412515Y-42052000D01*
X92512895Y-42052000D01*
X92521484Y-41910000D01*
X92501562Y-41580640D01*
X92442081Y-41256065D01*
X92343924Y-40941064D01*
X92343918Y-40941049D01*
X92208497Y-40640155D01*
X92208495Y-40640153D01*
X92037785Y-40357763D01*
X91887109Y-40165442D01*
X91000920Y-41051631D01*
X90921695Y-40942587D01*
X90756413Y-40777305D01*
X90647366Y-40698078D01*
X91533556Y-39811889D01*
X91533556Y-39811888D01*
X91341236Y-39661214D01*
X91058846Y-39490504D01*
X91058844Y-39490502D01*
X90757950Y-39355081D01*
X90757935Y-39355075D01*
X90442934Y-39256918D01*
X90118359Y-39197437D01*
X89789000Y-39177515D01*
X89459640Y-39197437D01*
X89135065Y-39256918D01*
X88820064Y-39355075D01*
X88820049Y-39355081D01*
X88519155Y-39490502D01*
X88519153Y-39490504D01*
X88236773Y-39661208D01*
X88044442Y-39811889D01*
X88930632Y-40698079D01*
X88821587Y-40777305D01*
X88656305Y-40942587D01*
X88577079Y-41051632D01*
X87690889Y-40165442D01*
X87540208Y-40357773D01*
X87369504Y-40640153D01*
X87369502Y-40640155D01*
X87234081Y-40941049D01*
X87234075Y-40941064D01*
X87135918Y-41256065D01*
X87076437Y-41580640D01*
X87056515Y-41910000D01*
X83721484Y-41910000D01*
X83701562Y-41580640D01*
X83642081Y-41256065D01*
X83543924Y-40941064D01*
X83543918Y-40941049D01*
X83408497Y-40640155D01*
X83408495Y-40640153D01*
X83237785Y-40357763D01*
X83087109Y-40165442D01*
X82200920Y-41051631D01*
X82121695Y-40942587D01*
X81956413Y-40777305D01*
X81847366Y-40698078D01*
X82733556Y-39811889D01*
X82733556Y-39811888D01*
X82541236Y-39661214D01*
X82258846Y-39490504D01*
X82258844Y-39490502D01*
X81957950Y-39355081D01*
X81957935Y-39355075D01*
X81642934Y-39256918D01*
X81318359Y-39197437D01*
X80989000Y-39177515D01*
X80659640Y-39197437D01*
X80335065Y-39256918D01*
X80020064Y-39355075D01*
X80020049Y-39355081D01*
X79719155Y-39490502D01*
X79719153Y-39490504D01*
X79436773Y-39661208D01*
X79244442Y-39811889D01*
X80130632Y-40698079D01*
X80021587Y-40777305D01*
X79856305Y-40942587D01*
X79777079Y-41051632D01*
X78890889Y-40165442D01*
X78740208Y-40357773D01*
X78569504Y-40640153D01*
X78569502Y-40640155D01*
X78434081Y-40941049D01*
X78434075Y-40941064D01*
X78335918Y-41256065D01*
X78276437Y-41580640D01*
X78256515Y-41910000D01*
X71000000Y-41910000D01*
X71000000Y-32000000D01*
X71894592Y-32000000D01*
X71914201Y-32286680D01*
X71972666Y-32568034D01*
X71972667Y-32568037D01*
X72068894Y-32838793D01*
X72068893Y-32838793D01*
X72201098Y-33093935D01*
X72366812Y-33328700D01*
X72451923Y-33419831D01*
X72562947Y-33538708D01*
X72785853Y-33720055D01*
X73031382Y-33869365D01*
X73218237Y-33950526D01*
X73294942Y-33983844D01*
X73571642Y-34061371D01*
X73821920Y-34095771D01*
X73856321Y-34100500D01*
X73856322Y-34100500D01*
X74143679Y-34100500D01*
X74174370Y-34096281D01*
X74428358Y-34061371D01*
X74705058Y-33983844D01*
X74818015Y-33934779D01*
X74968617Y-33869365D01*
X74968620Y-33869363D01*
X74968625Y-33869361D01*
X75214147Y-33720055D01*
X75437053Y-33538708D01*
X75633189Y-33328698D01*
X75798901Y-33093936D01*
X75931104Y-32838797D01*
X76027334Y-32568032D01*
X76085798Y-32286686D01*
X76105408Y-32000000D01*
X162894592Y-32000000D01*
X162914201Y-32286680D01*
X162972666Y-32568034D01*
X162972667Y-32568037D01*
X163068894Y-32838793D01*
X163068893Y-32838793D01*
X163201098Y-33093935D01*
X163366812Y-33328700D01*
X163451923Y-33419831D01*
X163562947Y-33538708D01*
X163785853Y-33720055D01*
X164031382Y-33869365D01*
X164218237Y-33950526D01*
X164294942Y-33983844D01*
X164571642Y-34061371D01*
X164821920Y-34095771D01*
X164856321Y-34100500D01*
X164856322Y-34100500D01*
X165143679Y-34100500D01*
X165174370Y-34096281D01*
X165428358Y-34061371D01*
X165705058Y-33983844D01*
X165818015Y-33934779D01*
X165968617Y-33869365D01*
X165968620Y-33869363D01*
X165968625Y-33869361D01*
X166214147Y-33720055D01*
X166437053Y-33538708D01*
X166633189Y-33328698D01*
X166798901Y-33093936D01*
X166931104Y-32838797D01*
X167027334Y-32568032D01*
X167085798Y-32286686D01*
X167105408Y-32000000D01*
X167085798Y-31713314D01*
X167027334Y-31431968D01*
X166931105Y-31161206D01*
X166931106Y-31161206D01*
X166798901Y-30906064D01*
X166633187Y-30671299D01*
X166554554Y-30587105D01*
X166437053Y-30461292D01*
X166214147Y-30279945D01*
X166214146Y-30279944D01*
X165968617Y-30130634D01*
X165705063Y-30016158D01*
X165705061Y-30016157D01*
X165705058Y-30016156D01*
X165575578Y-29979877D01*
X165428364Y-29938630D01*
X165428359Y-29938629D01*
X165428358Y-29938629D01*
X165286018Y-29919064D01*
X165143679Y-29899500D01*
X165143678Y-29899500D01*
X164856322Y-29899500D01*
X164856321Y-29899500D01*
X164571642Y-29938629D01*
X164571635Y-29938630D01*
X164363861Y-29996845D01*
X164294942Y-30016156D01*
X164294939Y-30016156D01*
X164294936Y-30016158D01*
X164294935Y-30016158D01*
X164031382Y-30130634D01*
X163785853Y-30279944D01*
X163562950Y-30461289D01*
X163366812Y-30671299D01*
X163201098Y-30906064D01*
X163068894Y-31161206D01*
X162972667Y-31431962D01*
X162972666Y-31431965D01*
X162914201Y-31713319D01*
X162894592Y-32000000D01*
X76105408Y-32000000D01*
X76085798Y-31713314D01*
X76027334Y-31431968D01*
X75931105Y-31161206D01*
X75931106Y-31161206D01*
X75798901Y-30906064D01*
X75633187Y-30671299D01*
X75554554Y-30587105D01*
X75437053Y-30461292D01*
X75214147Y-30279945D01*
X75214146Y-30279944D01*
X74968617Y-30130634D01*
X74705063Y-30016158D01*
X74705061Y-30016157D01*
X74705058Y-30016156D01*
X74575578Y-29979877D01*
X74428364Y-29938630D01*
X74428359Y-29938629D01*
X74428358Y-29938629D01*
X74286018Y-29919064D01*
X74143679Y-29899500D01*
X74143678Y-29899500D01*
X73856322Y-29899500D01*
X73856321Y-29899500D01*
X73571642Y-29938629D01*
X73571635Y-29938630D01*
X73363861Y-29996845D01*
X73294942Y-30016156D01*
X73294939Y-30016156D01*
X73294936Y-30016158D01*
X73294935Y-30016158D01*
X73031382Y-30130634D01*
X72785853Y-30279944D01*
X72562950Y-30461289D01*
X72366812Y-30671299D01*
X72201098Y-30906064D01*
X72068894Y-31161206D01*
X71972667Y-31431962D01*
X71972666Y-31431965D01*
X71914201Y-31713319D01*
X71894592Y-32000000D01*
X71000000Y-32000000D01*
X71000000Y-29624500D01*
X71019685Y-29557461D01*
X71072489Y-29511706D01*
X71124000Y-29500500D01*
X167876000Y-29500500D01*
X167943039Y-29520185D01*
G37*
%TD.AperFunction*%
%TD*%
M02*
