M48
; DRILL file {KiCad 8.0.8} date 2025-06-29T12:40:05+0900
; FORMAT={-:-/ absolute / metric / decimal}
; #@! TF.CreationDate,2025-06-29T12:40:05+09:00
; #@! TF.GenerationSoftware,Kicad,Pcbnew,8.0.8
; #@! TF.FileFunction,Plated,1,2,PTH
FMAT,2
METRIC
; #@! TA.AperFunction,Plated,PTH,ViaDrill
T1C0.300
; #@! TA.AperFunction,Plated,PTH,ComponentDrill
T2C0.700
; #@! TA.AperFunction,Plated,PTH,ComponentDrill
T3C0.759
; #@! TA.AperFunction,Plated,PTH,ComponentDrill
T4C0.800
; #@! TA.AperFunction,Plated,PTH,ComponentDrill
T5C1.000
; #@! TA.AperFunction,Plated,PTH,ComponentDrill
T6C1.090
; #@! TA.AperFunction,Plated,PTH,ComponentDrill
T7C1.200
; #@! TA.AperFunction,Plated,PTH,ComponentDrill
T8C2.970
%
G90
G05
T1
X92.456Y-67.056
X97.028Y-67.056
X102.562Y-52.611
X105.537Y-67.056
X105.728Y-62.098
X115.124Y-58.712
X117.531Y-67.0
X132.771Y-53.41
T2
X94.033Y-62.441
X96.523Y-57.361
X96.523Y-59.901
X96.573Y-62.441
X109.654Y-62.441
X109.985Y-57.284
X109.985Y-59.824
X112.194Y-62.441
T3
X99.314Y-57.404
X99.314Y-59.944
X99.314Y-62.484
X99.314Y-65.024
X107.124Y-57.404
X107.124Y-59.944
X107.124Y-62.484
X107.124Y-65.024
X118.999Y-57.467
X118.999Y-65.405
X121.539Y-57.467
X121.539Y-65.405
X124.079Y-57.467
X124.079Y-65.405
X126.619Y-57.467
X126.619Y-65.405
X129.159Y-57.467
X129.159Y-65.405
X131.699Y-57.467
X131.699Y-65.405
X134.239Y-57.467
X134.239Y-65.405
X136.779Y-57.467
X136.779Y-65.405
X139.319Y-57.467
X139.319Y-65.405
X141.859Y-57.467
X141.859Y-65.405
T4
X94.003Y-65.108
X96.503Y-65.108
X109.644Y-65.108
X112.144Y-65.108
X157.099Y-59.182
X157.099Y-61.682
T5
X100.415Y-69.889
X100.457Y-73.533
X102.955Y-69.889
X102.997Y-73.533
X105.495Y-69.889
X105.537Y-73.533
X118.872Y-76.454
X121.412Y-76.454
X123.952Y-76.454
X126.492Y-76.454
X129.032Y-76.454
X144.643Y-69.342
X144.653Y-73.152
X147.183Y-69.342
X147.193Y-73.152
X149.723Y-69.342
X149.733Y-73.152
X152.263Y-69.342
X152.273Y-73.152
X163.217Y-59.248
X163.217Y-61.788
T6
X157.861Y-38.735
X157.861Y-41.275
X157.861Y-43.815
X157.861Y-46.355
X157.861Y-48.895
T7
X82.63Y-71.374
X82.889Y-48.91
X85.13Y-71.374
X85.389Y-48.91
X87.63Y-71.374
X87.889Y-48.91
X101.045Y-49.052
X103.545Y-49.052
X106.045Y-49.052
X119.505Y-49.08
X122.005Y-49.08
X124.505Y-49.08
X138.174Y-49.08
X140.674Y-49.08
X143.174Y-49.08
T8
X80.73Y-64.374
X80.989Y-41.91
X89.53Y-64.374
X89.789Y-41.91
X99.145Y-42.052
X107.945Y-42.052
X117.605Y-42.08
X126.405Y-42.08
X136.274Y-42.08
X145.074Y-42.08
M30
