%TF.GenerationSoftware,KiCad,Pcbnew,8.0.8*%
%TF.CreationDate,2025-06-29T12:39:58+09:00*%
%TF.ProjectId,EGSeparate,45475365-7061-4726-9174-652e6b696361,rev?*%
%TF.SameCoordinates,Original*%
%TF.FileFunction,Legend,Bot*%
%TF.FilePolarity,Positive*%
%FSLAX46Y46*%
G04 Gerber Fmt 4.6, Leading zero omitted, Abs format (unit mm)*
G04 Created by KiCad (PCBNEW 8.0.8) date 2025-06-29 12:39:58*
%MOMM*%
%LPD*%
G01*
G04 APERTURE LIST*
%ADD10C,0.150000*%
%ADD11C,0.120000*%
G04 APERTURE END LIST*
D10*
X103766666Y-52527580D02*
X103814285Y-52575200D01*
X103814285Y-52575200D02*
X103957142Y-52622819D01*
X103957142Y-52622819D02*
X104052380Y-52622819D01*
X104052380Y-52622819D02*
X104195237Y-52575200D01*
X104195237Y-52575200D02*
X104290475Y-52479961D01*
X104290475Y-52479961D02*
X104338094Y-52384723D01*
X104338094Y-52384723D02*
X104385713Y-52194247D01*
X104385713Y-52194247D02*
X104385713Y-52051390D01*
X104385713Y-52051390D02*
X104338094Y-51860914D01*
X104338094Y-51860914D02*
X104290475Y-51765676D01*
X104290475Y-51765676D02*
X104195237Y-51670438D01*
X104195237Y-51670438D02*
X104052380Y-51622819D01*
X104052380Y-51622819D02*
X103957142Y-51622819D01*
X103957142Y-51622819D02*
X103814285Y-51670438D01*
X103814285Y-51670438D02*
X103766666Y-51718057D01*
X102861904Y-51622819D02*
X103338094Y-51622819D01*
X103338094Y-51622819D02*
X103385713Y-52099009D01*
X103385713Y-52099009D02*
X103338094Y-52051390D01*
X103338094Y-52051390D02*
X103242856Y-52003771D01*
X103242856Y-52003771D02*
X103004761Y-52003771D01*
X103004761Y-52003771D02*
X102909523Y-52051390D01*
X102909523Y-52051390D02*
X102861904Y-52099009D01*
X102861904Y-52099009D02*
X102814285Y-52194247D01*
X102814285Y-52194247D02*
X102814285Y-52432342D01*
X102814285Y-52432342D02*
X102861904Y-52527580D01*
X102861904Y-52527580D02*
X102909523Y-52575200D01*
X102909523Y-52575200D02*
X103004761Y-52622819D01*
X103004761Y-52622819D02*
X103242856Y-52622819D01*
X103242856Y-52622819D02*
X103338094Y-52575200D01*
X103338094Y-52575200D02*
X103385713Y-52527580D01*
X115040580Y-64009833D02*
X115088200Y-63962214D01*
X115088200Y-63962214D02*
X115135819Y-63819357D01*
X115135819Y-63819357D02*
X115135819Y-63724119D01*
X115135819Y-63724119D02*
X115088200Y-63581262D01*
X115088200Y-63581262D02*
X114992961Y-63486024D01*
X114992961Y-63486024D02*
X114897723Y-63438405D01*
X114897723Y-63438405D02*
X114707247Y-63390786D01*
X114707247Y-63390786D02*
X114564390Y-63390786D01*
X114564390Y-63390786D02*
X114373914Y-63438405D01*
X114373914Y-63438405D02*
X114278676Y-63486024D01*
X114278676Y-63486024D02*
X114183438Y-63581262D01*
X114183438Y-63581262D02*
X114135819Y-63724119D01*
X114135819Y-63724119D02*
X114135819Y-63819357D01*
X114135819Y-63819357D02*
X114183438Y-63962214D01*
X114183438Y-63962214D02*
X114231057Y-64009833D01*
X114469152Y-64866976D02*
X115135819Y-64866976D01*
X114088200Y-64628881D02*
X114802485Y-64390786D01*
X114802485Y-64390786D02*
X114802485Y-65009833D01*
D11*
%TO.C,C5*%
X103338748Y-53113000D02*
X103861252Y-53113000D01*
X103338748Y-54583000D02*
X103861252Y-54583000D01*
%TO.C,C4*%
X113819000Y-60888748D02*
X113819000Y-61411252D01*
X115289000Y-60888748D02*
X115289000Y-61411252D01*
%TD*%
M02*
