M48
; DRILL file {KiCad 8.0.8} date 2025-06-29T12:52:20+0900
; FORMAT={-:-/ absolute / metric / decimal}
; #@! TF.CreationDate,2025-06-29T12:52:20+09:00
; #@! TF.GenerationSoftware,Kicad,Pcbnew,8.0.8
; #@! TF.FileFunction,Plated,1,2,PTH
FMAT,2
METRIC
; #@! TA.AperFunction,Plated,PTH,ViaDrill
T1C0.300
; #@! TA.AperFunction,Plated,PTH,ComponentDrill
T2C0.600
; #@! TA.AperFunction,Plated,PTH,ComponentDrill
T3C0.700
; #@! TA.AperFunction,Plated,PTH,ComponentDrill
T4C0.710
; #@! TA.AperFunction,Plated,PTH,ComponentDrill
T5C0.750
; #@! TA.AperFunction,Plated,PTH,ComponentDrill
T6C0.800
; #@! TA.AperFunction,Plated,PTH,ComponentDrill
T7C1.000
; #@! TA.AperFunction,Plated,PTH,ComponentDrill
T8C1.200
; #@! TA.AperFunction,Plated,PTH,ComponentDrill
T9C2.970
%
G90
G05
T1
X68.262Y-39.813
X74.056Y-46.166
X77.003Y-46.165
X90.551Y-74.422
X92.583Y-85.344
X101.295Y-53.77
X101.473Y-52.197
X109.421Y-44.186
X110.564Y-67.5
X110.656Y-69.748
X115.062Y-82.804
X115.113Y-81.084
X116.205Y-80.391
X119.45Y-69.215
X125.628Y-39.767
X130.051Y-83.977
X131.699Y-68.453
X131.699Y-70.358
X135.945Y-40.591
X136.459Y-41.647
T2
X76.297Y-61.595
X78.297Y-61.595
T3
X66.979Y-46.482
X69.519Y-46.482
X77.978Y-49.911
X77.978Y-52.451
X81.111Y-55.88
X82.423Y-46.482
X83.651Y-55.88
X84.024Y-61.595
X84.024Y-73.533
X84.074Y-66.167
X84.074Y-71.247
X84.124Y-63.881
X84.151Y-89.789
X84.201Y-77.978
X84.251Y-80.264
X84.251Y-82.55
X84.251Y-87.503
X84.963Y-46.482
X86.564Y-61.595
X86.564Y-73.533
X86.614Y-66.167
X86.614Y-71.247
X86.664Y-63.881
X86.691Y-89.789
X86.741Y-77.978
X86.791Y-80.264
X86.791Y-82.55
X86.791Y-87.503
X93.98Y-46.482
X96.52Y-46.482
X96.647Y-50.038
X96.647Y-52.578
X96.978Y-87.63
X97.028Y-89.916
X97.105Y-80.264
X97.105Y-82.55
X97.155Y-70.866
X97.155Y-73.279
X97.232Y-63.246
X97.232Y-65.532
X97.282Y-60.96
X97.282Y-77.978
X99.518Y-87.63
X99.568Y-89.916
X99.645Y-80.264
X99.645Y-82.55
X99.695Y-70.866
X99.695Y-73.279
X99.772Y-63.246
X99.772Y-65.532
X99.822Y-60.96
X99.822Y-77.978
X101.854Y-46.482
X104.394Y-46.482
X107.088Y-89.535
X107.262Y-61.722
X107.265Y-78.613
X107.265Y-81.153
X107.327Y-70.866
X107.362Y-64.008
X107.362Y-66.294
X107.377Y-68.58
X107.569Y-74.676
X109.628Y-89.535
X109.678Y-78.613
X109.678Y-81.153
X109.802Y-61.722
X109.867Y-70.866
X109.902Y-64.008
X109.902Y-66.294
X109.917Y-68.58
X110.109Y-74.676
X111.81Y-46.609
X114.35Y-46.609
X120.189Y-65.786
X120.266Y-63.5
X120.266Y-68.072
X120.266Y-70.358
X120.284Y-72.644
X120.334Y-58.928
X120.366Y-61.214
X120.981Y-47.879
X120.981Y-50.165
X122.729Y-65.786
X122.806Y-63.5
X122.806Y-68.072
X122.806Y-70.358
X122.824Y-72.644
X122.874Y-58.928
X122.906Y-61.214
X123.521Y-47.879
X123.521Y-50.165
X127.889Y-59.513
X127.889Y-62.053
X129.047Y-56.896
X131.587Y-56.896
X134.458Y-65.278
X136.998Y-65.278
T4
X133.985Y-50.038
X136.525Y-50.038
X139.065Y-50.038
T5
X90.367Y-50.419
X90.367Y-52.959
X91.637Y-51.689
X108.966Y-50.673
X108.966Y-53.213
X110.236Y-51.943
X126.188Y-48.768
X127.458Y-50.038
X128.728Y-48.768
X139.919Y-61.214
X141.189Y-59.944
X141.189Y-62.484
T6
X84.094Y-68.707
X84.241Y-85.09
X86.594Y-68.707
X86.741Y-85.09
X89.634Y-55.88
X92.174Y-55.88
X93.726Y-89.027
X93.726Y-91.527
X97.252Y-68.199
X99.752Y-68.199
X106.924Y-85.217
X108.204Y-56.261
X109.424Y-85.217
X110.744Y-56.261
X113.488Y-74.676
X115.988Y-74.676
X120.374Y-56.261
X120.374Y-75.184
X122.874Y-56.261
X122.874Y-75.184
X139.538Y-65.532
X142.078Y-65.532
T7
X65.0Y-66.46
X65.0Y-69.0
X65.0Y-71.54
X65.0Y-74.08
X65.0Y-76.62
X67.54Y-66.46
X67.54Y-69.0
X67.54Y-71.54
X67.54Y-74.08
X67.54Y-76.62
X149.733Y-59.314
X149.733Y-61.854
X149.733Y-69.85
X149.733Y-72.39
X149.733Y-74.93
X149.733Y-77.47
X149.733Y-80.01
X149.733Y-82.55
T8
X64.347Y-42.052
X66.847Y-42.052
X69.347Y-42.052
X79.714Y-42.04
X82.214Y-42.04
X84.714Y-42.04
X95.081Y-42.052
X97.581Y-42.052
X100.081Y-42.052
X110.358Y-42.052
X112.858Y-42.052
X115.358Y-42.052
X125.725Y-42.052
X128.225Y-42.052
X130.725Y-42.052
X141.055Y-42.052
X143.555Y-42.052
X146.055Y-42.052
T9
X62.447Y-35.052
X71.247Y-35.052
X77.814Y-35.04
X86.614Y-35.04
X93.181Y-35.052
X101.981Y-35.052
X108.458Y-35.052
X117.258Y-35.052
X123.825Y-35.052
X132.625Y-35.052
X139.155Y-35.052
X147.955Y-35.052
M30
