%TF.GenerationSoftware,KiCad,Pcbnew,8.0.8*%
%TF.CreationDate,2025-06-29T12:52:17+09:00*%
%TF.ProjectId,VCFSeparate,56434653-6570-4617-9261-74652e6b6963,rev?*%
%TF.SameCoordinates,Original*%
%TF.FileFunction,Paste,Top*%
%TF.FilePolarity,Positive*%
%FSLAX46Y46*%
G04 Gerber Fmt 4.6, Leading zero omitted, Abs format (unit mm)*
G04 Created by KiCad (PCBNEW 8.0.8) date 2025-06-29 12:52:17*
%MOMM*%
%LPD*%
G01*
G04 APERTURE LIST*
G04 Aperture macros list*
%AMRoundRect*
0 Rectangle with rounded corners*
0 $1 Rounding radius*
0 $2 $3 $4 $5 $6 $7 $8 $9 X,Y pos of 4 corners*
0 Add a 4 corners polygon primitive as box body*
4,1,4,$2,$3,$4,$5,$6,$7,$8,$9,$2,$3,0*
0 Add four circle primitives for the rounded corners*
1,1,$1+$1,$2,$3*
1,1,$1+$1,$4,$5*
1,1,$1+$1,$6,$7*
1,1,$1+$1,$8,$9*
0 Add four rect primitives between the rounded corners*
20,1,$1+$1,$2,$3,$4,$5,0*
20,1,$1+$1,$4,$5,$6,$7,0*
20,1,$1+$1,$6,$7,$8,$9,0*
20,1,$1+$1,$8,$9,$2,$3,0*%
G04 Aperture macros list end*
%ADD10RoundRect,0.150000X-0.725000X-0.150000X0.725000X-0.150000X0.725000X0.150000X-0.725000X0.150000X0*%
%ADD11RoundRect,0.150000X-0.825000X-0.150000X0.825000X-0.150000X0.825000X0.150000X-0.825000X0.150000X0*%
G04 APERTURE END LIST*
D10*
%TO.C,U7*%
X112564000Y-78994000D03*
X112564000Y-80264000D03*
X112564000Y-81534000D03*
X112564000Y-82804000D03*
X117714000Y-82804000D03*
X117714000Y-81534000D03*
X117714000Y-80264000D03*
X117714000Y-78994000D03*
%TD*%
%TO.C,U5*%
X81280000Y-49784000D03*
X81280000Y-51054000D03*
X81280000Y-52324000D03*
X81280000Y-53594000D03*
X86430000Y-53594000D03*
X86430000Y-52324000D03*
X86430000Y-51054000D03*
X86430000Y-49784000D03*
%TD*%
D11*
%TO.C,U3*%
X112395000Y-61976000D03*
X112395000Y-63246000D03*
X112395000Y-64516000D03*
X112395000Y-65786000D03*
X112395000Y-67056000D03*
X112395000Y-68326000D03*
X112395000Y-69596000D03*
X112395000Y-70866000D03*
X117345000Y-70866000D03*
X117345000Y-69596000D03*
X117345000Y-68326000D03*
X117345000Y-67056000D03*
X117345000Y-65786000D03*
X117345000Y-64516000D03*
X117345000Y-63246000D03*
X117345000Y-61976000D03*
%TD*%
%TO.C,U2*%
X89411000Y-77724000D03*
X89411000Y-78994000D03*
X89411000Y-80264000D03*
X89411000Y-81534000D03*
X89411000Y-82804000D03*
X89411000Y-84074000D03*
X89411000Y-85344000D03*
X89411000Y-86614000D03*
X94361000Y-86614000D03*
X94361000Y-85344000D03*
X94361000Y-84074000D03*
X94361000Y-82804000D03*
X94361000Y-81534000D03*
X94361000Y-80264000D03*
X94361000Y-78994000D03*
X94361000Y-77724000D03*
%TD*%
%TO.C,U1*%
X89473000Y-61976000D03*
X89473000Y-63246000D03*
X89473000Y-64516000D03*
X89473000Y-65786000D03*
X89473000Y-67056000D03*
X89473000Y-68326000D03*
X89473000Y-69596000D03*
X89473000Y-70866000D03*
X94423000Y-70866000D03*
X94423000Y-69596000D03*
X94423000Y-68326000D03*
X94423000Y-67056000D03*
X94423000Y-65786000D03*
X94423000Y-64516000D03*
X94423000Y-63246000D03*
X94423000Y-61976000D03*
%TD*%
D10*
%TO.C,U4*%
X99660000Y-49911000D03*
X99660000Y-51181000D03*
X99660000Y-52451000D03*
X99660000Y-53721000D03*
X104810000Y-53721000D03*
X104810000Y-52451000D03*
X104810000Y-51181000D03*
X104810000Y-49911000D03*
%TD*%
%TO.C,U6*%
X131629000Y-59309000D03*
X131629000Y-60579000D03*
X131629000Y-61849000D03*
X131629000Y-63119000D03*
X136779000Y-63119000D03*
X136779000Y-61849000D03*
X136779000Y-60579000D03*
X136779000Y-59309000D03*
%TD*%
M02*
