%TF.GenerationSoftware,KiCad,Pcbnew,8.0.8*%
%TF.CreationDate,2025-06-29T12:52:17+09:00*%
%TF.ProjectId,VCFSeparate,56434653-6570-4617-9261-74652e6b6963,rev?*%
%TF.SameCoordinates,Original*%
%TF.FileFunction,Soldermask,Top*%
%TF.FilePolarity,Negative*%
%FSLAX46Y46*%
G04 Gerber Fmt 4.6, Leading zero omitted, Abs format (unit mm)*
G04 Created by KiCad (PCBNEW 8.0.8) date 2025-06-29 12:52:17*
%MOMM*%
%LPD*%
G01*
G04 APERTURE LIST*
G04 Aperture macros list*
%AMRoundRect*
0 Rectangle with rounded corners*
0 $1 Rounding radius*
0 $2 $3 $4 $5 $6 $7 $8 $9 X,Y pos of 4 corners*
0 Add a 4 corners polygon primitive as box body*
4,1,4,$2,$3,$4,$5,$6,$7,$8,$9,$2,$3,0*
0 Add four circle primitives for the rounded corners*
1,1,$1+$1,$2,$3*
1,1,$1+$1,$4,$5*
1,1,$1+$1,$6,$7*
1,1,$1+$1,$8,$9*
0 Add four rect primitives between the rounded corners*
20,1,$1+$1,$2,$3,$4,$5,0*
20,1,$1+$1,$4,$5,$6,$7,0*
20,1,$1+$1,$6,$7,$8,$9,0*
20,1,$1+$1,$8,$9,$2,$3,0*%
G04 Aperture macros list end*
%ADD10C,1.600000*%
%ADD11C,1.400000*%
%ADD12O,1.400000X1.400000*%
%ADD13R,1.600000X1.600000*%
%ADD14O,1.600000X1.600000*%
%ADD15R,1.217000X1.217000*%
%ADD16C,1.217000*%
%ADD17R,1.700000X1.700000*%
%ADD18O,1.700000X1.700000*%
%ADD19RoundRect,0.150000X-0.725000X-0.150000X0.725000X-0.150000X0.725000X0.150000X-0.725000X0.150000X0*%
%ADD20C,1.800000*%
%ADD21C,4.455000*%
%ADD22RoundRect,0.150000X-0.825000X-0.150000X0.825000X-0.150000X0.825000X0.150000X-0.825000X0.150000X0*%
%ADD23R,1.800000X1.100000*%
%ADD24RoundRect,0.275000X0.625000X-0.275000X0.625000X0.275000X-0.625000X0.275000X-0.625000X-0.275000X0*%
%ADD25C,1.200000*%
%ADD26R,1.100000X1.800000*%
%ADD27RoundRect,0.275000X0.275000X0.625000X-0.275000X0.625000X-0.275000X-0.625000X0.275000X-0.625000X0*%
%ADD28RoundRect,0.275000X-0.625000X0.275000X-0.625000X-0.275000X0.625000X-0.275000X0.625000X0.275000X0*%
G04 APERTURE END LIST*
D10*
%TO.C,C5*%
X120374000Y-75184000D03*
X122874000Y-75184000D03*
%TD*%
D11*
%TO.C,R45*%
X127889000Y-62053000D03*
D12*
X127889000Y-59513000D03*
%TD*%
D11*
%TO.C,R7*%
X84074000Y-66167000D03*
D12*
X86614000Y-66167000D03*
%TD*%
D11*
%TO.C,R29*%
X123521000Y-50165000D03*
D12*
X120981000Y-50165000D03*
%TD*%
D13*
%TO.C,D2*%
X89633700Y-55880000D03*
D14*
X92173700Y-55880000D03*
%TD*%
D11*
%TO.C,R13*%
X99645000Y-80264000D03*
D12*
X97105000Y-80264000D03*
%TD*%
D10*
%TO.C,C1*%
X97252000Y-68199000D03*
X99752000Y-68199000D03*
%TD*%
D11*
%TO.C,R12*%
X99645000Y-82550000D03*
D12*
X97105000Y-82550000D03*
%TD*%
D13*
%TO.C,D3*%
X139538000Y-65532000D03*
D14*
X142078000Y-65532000D03*
%TD*%
D11*
%TO.C,R46*%
X134458000Y-65278000D03*
D12*
X136998000Y-65278000D03*
%TD*%
D11*
%TO.C,R38*%
X107569000Y-74676000D03*
D12*
X110109000Y-74676000D03*
%TD*%
D15*
%TO.C,VR1*%
X139065000Y-50038000D03*
D16*
X136525000Y-50038000D03*
X133985000Y-50038000D03*
%TD*%
D11*
%TO.C,R4*%
X99822000Y-60960000D03*
D12*
X97282000Y-60960000D03*
%TD*%
D11*
%TO.C,R17*%
X84251000Y-82550000D03*
D12*
X86791000Y-82550000D03*
%TD*%
D11*
%TO.C,R36*%
X122806000Y-68072000D03*
D12*
X120266000Y-68072000D03*
%TD*%
D13*
%TO.C,C7*%
X115988000Y-74676000D03*
D10*
X113488000Y-74676000D03*
%TD*%
D11*
%TO.C,R26*%
X111810000Y-46609000D03*
D12*
X114350000Y-46609000D03*
%TD*%
D17*
%TO.C,J3*%
X149733000Y-59314000D03*
D18*
X149733000Y-61854000D03*
%TD*%
D11*
%TO.C,R20*%
X107362000Y-66294000D03*
D12*
X109902000Y-66294000D03*
%TD*%
D11*
%TO.C,R37*%
X122806000Y-70358000D03*
D12*
X120266000Y-70358000D03*
%TD*%
D11*
%TO.C,R6*%
X99695000Y-73279000D03*
D12*
X97155000Y-73279000D03*
%TD*%
D19*
%TO.C,U7*%
X112564000Y-78994000D03*
X112564000Y-80264000D03*
X112564000Y-81534000D03*
X112564000Y-82804000D03*
X117714000Y-82804000D03*
X117714000Y-81534000D03*
X117714000Y-80264000D03*
X117714000Y-78994000D03*
%TD*%
D11*
%TO.C,R39*%
X96647000Y-52578000D03*
D12*
X96647000Y-50038000D03*
%TD*%
D11*
%TO.C,R22*%
X107377000Y-68580000D03*
D12*
X109917000Y-68580000D03*
%TD*%
D11*
%TO.C,R16*%
X84201000Y-77978000D03*
D12*
X86741000Y-77978000D03*
%TD*%
D10*
%TO.C,C4*%
X86741000Y-85090000D03*
X84241000Y-85090000D03*
%TD*%
D11*
%TO.C,R3*%
X99695000Y-70866000D03*
D12*
X97155000Y-70866000D03*
%TD*%
D11*
%TO.C,R9*%
X84074000Y-71247000D03*
D12*
X86614000Y-71247000D03*
%TD*%
D19*
%TO.C,U5*%
X81280000Y-49784000D03*
X81280000Y-51054000D03*
X81280000Y-52324000D03*
X81280000Y-53594000D03*
X86430000Y-53594000D03*
X86430000Y-52324000D03*
X86430000Y-51054000D03*
X86430000Y-49784000D03*
%TD*%
D10*
%TO.C,C3*%
X93726000Y-89027000D03*
X93726000Y-91527000D03*
%TD*%
D11*
%TO.C,R35*%
X120334000Y-58928000D03*
D12*
X122874000Y-58928000D03*
%TD*%
D20*
%TO.C,VR7*%
X141055000Y-42052000D03*
X143555000Y-42052000D03*
X146055000Y-42052000D03*
D21*
X139155000Y-35052000D03*
X147955000Y-35052000D03*
%TD*%
D22*
%TO.C,U3*%
X112395000Y-61976000D03*
X112395000Y-63246000D03*
X112395000Y-64516000D03*
X112395000Y-65786000D03*
X112395000Y-67056000D03*
X112395000Y-68326000D03*
X112395000Y-69596000D03*
X112395000Y-70866000D03*
X117345000Y-70866000D03*
X117345000Y-69596000D03*
X117345000Y-68326000D03*
X117345000Y-67056000D03*
X117345000Y-65786000D03*
X117345000Y-64516000D03*
X117345000Y-63246000D03*
X117345000Y-61976000D03*
%TD*%
D11*
%TO.C,R8*%
X84124000Y-63881000D03*
D12*
X86664000Y-63881000D03*
%TD*%
D11*
%TO.C,R43*%
X82423000Y-46482000D03*
D12*
X84963000Y-46482000D03*
%TD*%
D23*
%TO.C,Q4*%
X141589000Y-62484000D03*
D24*
X139519000Y-61214000D03*
X141589000Y-59944000D03*
%TD*%
D11*
%TO.C,R23*%
X107327000Y-70866000D03*
D12*
X109867000Y-70866000D03*
%TD*%
D11*
%TO.C,R34*%
X122824000Y-72644000D03*
D12*
X120284000Y-72644000D03*
%TD*%
D13*
%TO.C,D1*%
X108204000Y-56261000D03*
D14*
X110744000Y-56261000D03*
%TD*%
D11*
%TO.C,R11*%
X97282000Y-77978000D03*
D12*
X99822000Y-77978000D03*
%TD*%
D13*
%TO.C,C9*%
X109424000Y-85217000D03*
D10*
X106924000Y-85217000D03*
%TD*%
D11*
%TO.C,R2*%
X99772000Y-63246000D03*
D12*
X97232000Y-63246000D03*
%TD*%
D11*
%TO.C,R42*%
X81111000Y-55880000D03*
D12*
X83651000Y-55880000D03*
%TD*%
D11*
%TO.C,R24*%
X84251000Y-87503000D03*
D12*
X86791000Y-87503000D03*
%TD*%
D17*
%TO.C,J1*%
X149733000Y-69850000D03*
D18*
X149733000Y-72390000D03*
X149733000Y-74930000D03*
X149733000Y-77470000D03*
X149733000Y-80010000D03*
X149733000Y-82550000D03*
%TD*%
D11*
%TO.C,R47*%
X109678000Y-78613000D03*
D12*
X109678000Y-81153000D03*
%TD*%
D17*
%TO.C,J2*%
X65000000Y-76620000D03*
D18*
X67540000Y-76620000D03*
X65000000Y-74080000D03*
X67540000Y-74080000D03*
X65000000Y-71540000D03*
X67540000Y-71540000D03*
X65000000Y-69000000D03*
X67540000Y-69000000D03*
X65000000Y-66460000D03*
X67540000Y-66460000D03*
%TD*%
D25*
%TO.C,C8*%
X76297000Y-61595000D03*
X78297000Y-61595000D03*
%TD*%
D11*
%TO.C,R1*%
X99772000Y-65532000D03*
D12*
X97232000Y-65532000D03*
%TD*%
D11*
%TO.C,R18*%
X84251000Y-80264000D03*
D12*
X86791000Y-80264000D03*
%TD*%
D11*
%TO.C,R44*%
X129047000Y-56896000D03*
D12*
X131587000Y-56896000D03*
%TD*%
D11*
%TO.C,R48*%
X107265000Y-78613000D03*
D12*
X107265000Y-81153000D03*
%TD*%
D20*
%TO.C,VR4*%
X110358000Y-42052000D03*
X112858000Y-42052000D03*
X115358000Y-42052000D03*
D21*
X108458000Y-35052000D03*
X117258000Y-35052000D03*
%TD*%
D20*
%TO.C,VR2*%
X125725000Y-42052000D03*
X128225000Y-42052000D03*
X130725000Y-42052000D03*
D21*
X123825000Y-35052000D03*
X132625000Y-35052000D03*
%TD*%
D11*
%TO.C,R21*%
X109802000Y-61722000D03*
D12*
X107262000Y-61722000D03*
%TD*%
D10*
%TO.C,C2*%
X86594000Y-68707000D03*
X84094000Y-68707000D03*
%TD*%
D26*
%TO.C,Q1*%
X128728000Y-48368000D03*
D27*
X127458000Y-50438000D03*
X126188000Y-48368000D03*
%TD*%
D20*
%TO.C,VR5*%
X64347000Y-42052000D03*
X66847000Y-42052000D03*
X69347000Y-42052000D03*
D21*
X62447000Y-35052000D03*
X71247000Y-35052000D03*
%TD*%
D11*
%TO.C,R49*%
X109628000Y-89535000D03*
D12*
X107088000Y-89535000D03*
%TD*%
D11*
%TO.C,R25*%
X93980000Y-46482000D03*
D12*
X96520000Y-46482000D03*
%TD*%
D20*
%TO.C,VR6*%
X79714000Y-42040000D03*
X82214000Y-42040000D03*
X84714000Y-42040000D03*
D21*
X77814000Y-35040000D03*
X86614000Y-35040000D03*
%TD*%
D11*
%TO.C,R30*%
X86691000Y-89789000D03*
D12*
X84151000Y-89789000D03*
%TD*%
D23*
%TO.C,Q3*%
X89967000Y-50419000D03*
D28*
X92037000Y-51689000D03*
X89967000Y-52959000D03*
%TD*%
D22*
%TO.C,U2*%
X89411000Y-77724000D03*
X89411000Y-78994000D03*
X89411000Y-80264000D03*
X89411000Y-81534000D03*
X89411000Y-82804000D03*
X89411000Y-84074000D03*
X89411000Y-85344000D03*
X89411000Y-86614000D03*
X94361000Y-86614000D03*
X94361000Y-85344000D03*
X94361000Y-84074000D03*
X94361000Y-82804000D03*
X94361000Y-81534000D03*
X94361000Y-80264000D03*
X94361000Y-78994000D03*
X94361000Y-77724000D03*
%TD*%
D11*
%TO.C,R10*%
X86564000Y-73533000D03*
D12*
X84024000Y-73533000D03*
%TD*%
D11*
%TO.C,R5*%
X86564000Y-61595000D03*
D12*
X84024000Y-61595000D03*
%TD*%
D11*
%TO.C,R14*%
X99518000Y-87630000D03*
D12*
X96978000Y-87630000D03*
%TD*%
D22*
%TO.C,U1*%
X89473000Y-61976000D03*
X89473000Y-63246000D03*
X89473000Y-64516000D03*
X89473000Y-65786000D03*
X89473000Y-67056000D03*
X89473000Y-68326000D03*
X89473000Y-69596000D03*
X89473000Y-70866000D03*
X94423000Y-70866000D03*
X94423000Y-69596000D03*
X94423000Y-68326000D03*
X94423000Y-67056000D03*
X94423000Y-65786000D03*
X94423000Y-64516000D03*
X94423000Y-63246000D03*
X94423000Y-61976000D03*
%TD*%
D23*
%TO.C,Q2*%
X108566000Y-50673000D03*
D28*
X110636000Y-51943000D03*
X108566000Y-53213000D03*
%TD*%
D11*
%TO.C,R40*%
X101854000Y-46482000D03*
D12*
X104394000Y-46482000D03*
%TD*%
D11*
%TO.C,R28*%
X123521000Y-47879000D03*
D12*
X120981000Y-47879000D03*
%TD*%
D11*
%TO.C,R32*%
X122729000Y-65786000D03*
D12*
X120189000Y-65786000D03*
%TD*%
D11*
%TO.C,R31*%
X120366000Y-61214000D03*
D12*
X122906000Y-61214000D03*
%TD*%
D10*
%TO.C,C6*%
X120374000Y-56261000D03*
X122874000Y-56261000D03*
%TD*%
D19*
%TO.C,U4*%
X99660000Y-49911000D03*
X99660000Y-51181000D03*
X99660000Y-52451000D03*
X99660000Y-53721000D03*
X104810000Y-53721000D03*
X104810000Y-52451000D03*
X104810000Y-51181000D03*
X104810000Y-49911000D03*
%TD*%
%TO.C,U6*%
X131629000Y-59309000D03*
X131629000Y-60579000D03*
X131629000Y-61849000D03*
X131629000Y-63119000D03*
X136779000Y-63119000D03*
X136779000Y-61849000D03*
X136779000Y-60579000D03*
X136779000Y-59309000D03*
%TD*%
D11*
%TO.C,R41*%
X77978000Y-52451000D03*
D12*
X77978000Y-49911000D03*
%TD*%
D11*
%TO.C,R33*%
X122806000Y-63500000D03*
D12*
X120266000Y-63500000D03*
%TD*%
D11*
%TO.C,R19*%
X107362000Y-64008000D03*
D12*
X109902000Y-64008000D03*
%TD*%
D20*
%TO.C,VR3*%
X95081000Y-42052000D03*
X97581000Y-42052000D03*
X100081000Y-42052000D03*
D21*
X93181000Y-35052000D03*
X101981000Y-35052000D03*
%TD*%
D11*
%TO.C,R27*%
X66979000Y-46482000D03*
D12*
X69519000Y-46482000D03*
%TD*%
D11*
%TO.C,R15*%
X97028000Y-89916000D03*
D12*
X99568000Y-89916000D03*
%TD*%
M02*
