%TF.GenerationSoftware,KiCad,Pcbnew,9.0.3*%
%TF.CreationDate,2025-10-30T19:50:34+09:00*%
%TF.ProjectId,VCOBoard,56434f42-6f61-4726-942e-6b696361645f,rev?*%
%TF.SameCoordinates,Original*%
%TF.FileFunction,Paste,Top*%
%TF.FilePolarity,Positive*%
%FSLAX46Y46*%
G04 Gerber Fmt 4.6, Leading zero omitted, Abs format (unit mm)*
G04 Created by KiCad (PCBNEW 9.0.3) date 2025-10-30 19:50:34*
%MOMM*%
%LPD*%
G01*
G04 APERTURE LIST*
G04 Aperture macros list*
%AMRoundRect*
0 Rectangle with rounded corners*
0 $1 Rounding radius*
0 $2 $3 $4 $5 $6 $7 $8 $9 X,Y pos of 4 corners*
0 Add a 4 corners polygon primitive as box body*
4,1,4,$2,$3,$4,$5,$6,$7,$8,$9,$2,$3,0*
0 Add four circle primitives for the rounded corners*
1,1,$1+$1,$2,$3*
1,1,$1+$1,$4,$5*
1,1,$1+$1,$6,$7*
1,1,$1+$1,$8,$9*
0 Add four rect primitives between the rounded corners*
20,1,$1+$1,$2,$3,$4,$5,0*
20,1,$1+$1,$4,$5,$6,$7,0*
20,1,$1+$1,$6,$7,$8,$9,0*
20,1,$1+$1,$8,$9,$2,$3,0*%
G04 Aperture macros list end*
%ADD10RoundRect,0.250000X-0.450000X0.350000X-0.450000X-0.350000X0.450000X-0.350000X0.450000X0.350000X0*%
%ADD11RoundRect,0.250000X0.350000X0.450000X-0.350000X0.450000X-0.350000X-0.450000X0.350000X-0.450000X0*%
%ADD12RoundRect,0.250000X0.450000X-0.350000X0.450000X0.350000X-0.450000X0.350000X-0.450000X-0.350000X0*%
%ADD13RoundRect,0.250000X-0.350000X-0.450000X0.350000X-0.450000X0.350000X0.450000X-0.350000X0.450000X0*%
%ADD14RoundRect,0.250000X-0.475000X0.337500X-0.475000X-0.337500X0.475000X-0.337500X0.475000X0.337500X0*%
%ADD15RoundRect,0.250000X0.475000X-0.337500X0.475000X0.337500X-0.475000X0.337500X-0.475000X-0.337500X0*%
%ADD16R,1.200000X0.600000*%
%ADD17RoundRect,0.250000X-0.412500X-0.650000X0.412500X-0.650000X0.412500X0.650000X-0.412500X0.650000X0*%
%ADD18RoundRect,0.250000X0.337500X0.475000X-0.337500X0.475000X-0.337500X-0.475000X0.337500X-0.475000X0*%
%ADD19RoundRect,0.250000X-0.337500X-0.475000X0.337500X-0.475000X0.337500X0.475000X-0.337500X0.475000X0*%
%ADD20R,1.100000X0.600000*%
%ADD21RoundRect,0.225000X-0.375000X0.225000X-0.375000X-0.225000X0.375000X-0.225000X0.375000X0.225000X0*%
%ADD22RoundRect,0.150000X0.150000X-0.825000X0.150000X0.825000X-0.150000X0.825000X-0.150000X-0.825000X0*%
%ADD23RoundRect,0.225000X0.225000X0.375000X-0.225000X0.375000X-0.225000X-0.375000X0.225000X-0.375000X0*%
%ADD24R,0.600000X1.200000*%
%ADD25RoundRect,0.150000X-0.150000X0.850000X-0.150000X-0.850000X0.150000X-0.850000X0.150000X0.850000X0*%
G04 APERTURE END LIST*
D10*
%TO.C,R114*%
X113009000Y-53489000D03*
X113009000Y-55489000D03*
%TD*%
D11*
%TO.C,R39*%
X107664000Y-83185000D03*
X105664000Y-83185000D03*
%TD*%
D12*
%TO.C,R2*%
X161777000Y-84778000D03*
X161777000Y-82778000D03*
%TD*%
D11*
%TO.C,R191*%
X178565000Y-78349000D03*
X176565000Y-78349000D03*
%TD*%
D13*
%TO.C,R1250*%
X125111000Y-76327000D03*
X127111000Y-76327000D03*
%TD*%
D14*
%TO.C,C51*%
X130048000Y-78337500D03*
X130048000Y-80412500D03*
%TD*%
D11*
%TO.C,R113*%
X142497000Y-55372000D03*
X140497000Y-55372000D03*
%TD*%
D13*
%TO.C,R1190*%
X132200500Y-95163000D03*
X134200500Y-95163000D03*
%TD*%
%TO.C,R112*%
X114169000Y-83124000D03*
X116169000Y-83124000D03*
%TD*%
D11*
%TO.C,R119*%
X134200500Y-92583000D03*
X132200500Y-92583000D03*
%TD*%
%TO.C,R44*%
X90233000Y-81026000D03*
X88233000Y-81026000D03*
%TD*%
D15*
%TO.C,C50*%
X138430000Y-79867000D03*
X138430000Y-77792000D03*
%TD*%
D16*
%TO.C,IC4*%
X114157000Y-77597000D03*
X114157000Y-78547000D03*
X114157000Y-79497000D03*
X116657000Y-79497000D03*
X116657000Y-77597000D03*
%TD*%
D11*
%TO.C,R4*%
X174532800Y-83362800D03*
X172532800Y-83362800D03*
%TD*%
D13*
%TO.C,R16*%
X126670000Y-55489000D03*
X128670000Y-55489000D03*
%TD*%
D12*
%TO.C,R6*%
X151403000Y-80111000D03*
X151403000Y-78111000D03*
%TD*%
D13*
%TO.C,R118*%
X136137500Y-92583000D03*
X138137500Y-92583000D03*
%TD*%
D10*
%TO.C,R120*%
X136144000Y-77867000D03*
X136144000Y-79867000D03*
%TD*%
D11*
%TO.C,R41*%
X99044000Y-83185000D03*
X97044000Y-83185000D03*
%TD*%
D13*
%TO.C,R116*%
X108632000Y-86868000D03*
X110632000Y-86868000D03*
%TD*%
%TO.C,R3*%
X139563600Y-84632800D03*
X141563600Y-84632800D03*
%TD*%
D10*
%TO.C,R55*%
X154197000Y-76095000D03*
X154197000Y-78095000D03*
%TD*%
%TO.C,R121*%
X133604000Y-77851000D03*
X133604000Y-79851000D03*
%TD*%
D11*
%TO.C,R117*%
X110648000Y-91694000D03*
X108648000Y-91694000D03*
%TD*%
D17*
%TO.C,C49*%
X137629500Y-89194000D03*
X140754500Y-89194000D03*
%TD*%
D18*
%TO.C,C42*%
X178602500Y-76063000D03*
X176527500Y-76063000D03*
%TD*%
D19*
%TO.C,C13*%
X117197000Y-55489000D03*
X119272000Y-55489000D03*
%TD*%
D13*
%TO.C,R17*%
X121844000Y-55489000D03*
X123844000Y-55489000D03*
%TD*%
D20*
%TO.C,Q1*%
X148906000Y-82860000D03*
X148906000Y-84760000D03*
X151106000Y-83810000D03*
%TD*%
D10*
%TO.C,R193*%
X157118000Y-76079000D03*
X157118000Y-78079000D03*
%TD*%
D12*
%TO.C,R38*%
X110591600Y-82686400D03*
X110591600Y-80686400D03*
%TD*%
D11*
%TO.C,R127*%
X129993500Y-92583000D03*
X127993500Y-92583000D03*
%TD*%
%TO.C,R102*%
X174120000Y-78349000D03*
X172120000Y-78349000D03*
%TD*%
D13*
%TO.C,R8*%
X175509000Y-88128000D03*
X177509000Y-88128000D03*
%TD*%
D10*
%TO.C,R7*%
X162864800Y-91913200D03*
X162864800Y-93913200D03*
%TD*%
D11*
%TO.C,R45*%
X90249000Y-78867000D03*
X88249000Y-78867000D03*
%TD*%
%TO.C,R42*%
X94726000Y-83185000D03*
X92726000Y-83185000D03*
%TD*%
D15*
%TO.C,C55*%
X128016000Y-97020200D03*
X128016000Y-94945200D03*
%TD*%
D13*
%TO.C,R126*%
X120936000Y-79883000D03*
X122936000Y-79883000D03*
%TD*%
D19*
%TO.C,C52*%
X121746100Y-89204800D03*
X123821100Y-89204800D03*
%TD*%
D21*
%TO.C,D2*%
X180446000Y-88638000D03*
X180446000Y-91938000D03*
%TD*%
D22*
%TO.C,IC2*%
X165460000Y-92000000D03*
X166730000Y-92000000D03*
X168000000Y-92000000D03*
X169270000Y-92000000D03*
X170540000Y-92000000D03*
X171810000Y-92000000D03*
X173080000Y-92000000D03*
X173080000Y-87050000D03*
X171810000Y-87050000D03*
X170540000Y-87050000D03*
X169270000Y-87050000D03*
X168000000Y-87050000D03*
X166730000Y-87050000D03*
X165460000Y-87050000D03*
%TD*%
D19*
%TO.C,C48*%
X136141500Y-55372000D03*
X138216500Y-55372000D03*
%TD*%
%TO.C,C53*%
X123422500Y-95163000D03*
X125497500Y-95163000D03*
%TD*%
%TO.C,C1*%
X163279000Y-97917000D03*
X165354000Y-97917000D03*
%TD*%
D23*
%TO.C,D1*%
X169269000Y-83429000D03*
X165969000Y-83429000D03*
%TD*%
D24*
%TO.C,IC1*%
X157464000Y-84921000D03*
X158414000Y-84921000D03*
X159364000Y-84921000D03*
X159364000Y-82421000D03*
X157464000Y-82421000D03*
%TD*%
D12*
%TO.C,R1*%
X154919000Y-84921000D03*
X154919000Y-82921000D03*
%TD*%
D13*
%TO.C,R125*%
X125000000Y-79883000D03*
X127000000Y-79883000D03*
%TD*%
D11*
%TO.C,R43*%
X90233000Y-83185000D03*
X88233000Y-83185000D03*
%TD*%
D13*
%TO.C,R5*%
X139512800Y-82245200D03*
X141512800Y-82245200D03*
%TD*%
D12*
%TO.C,R214*%
X160039000Y-78095000D03*
X160039000Y-76095000D03*
%TD*%
D25*
%TO.C,IC5*%
X135509000Y-83773000D03*
X134239000Y-83773000D03*
X132969000Y-83773000D03*
X131699000Y-83773000D03*
X130429000Y-83773000D03*
X129159000Y-83773000D03*
X127889000Y-83773000D03*
X126619000Y-83773000D03*
X126619000Y-88773000D03*
X127889000Y-88773000D03*
X129159000Y-88773000D03*
X130429000Y-88773000D03*
X131699000Y-88773000D03*
X132969000Y-88773000D03*
X134239000Y-88773000D03*
X135509000Y-88773000D03*
%TD*%
D23*
%TO.C,D3*%
X180572000Y-84826000D03*
X177272000Y-84826000D03*
%TD*%
D11*
%TO.C,R104*%
X146815000Y-55372000D03*
X144815000Y-55372000D03*
%TD*%
%TO.C,R40*%
X103473000Y-83185000D03*
X101473000Y-83185000D03*
%TD*%
D13*
%TO.C,R101*%
X172104000Y-76063000D03*
X174104000Y-76063000D03*
%TD*%
D11*
%TO.C,R115*%
X133353000Y-55489000D03*
X131353000Y-55489000D03*
%TD*%
M02*
