M48
; DRILL file {KiCad 9.0.3} date 2025-10-30T19:50:37+0900
; FORMAT={-:-/ absolute / metric / decimal}
; #@! TF.CreationDate,2025-10-30T19:50:37+09:00
; #@! TF.GenerationSoftware,Kicad,Pcbnew,9.0.3
; #@! TF.FileFunction,Plated,1,2,PTH
FMAT,2
METRIC
; #@! TA.AperFunction,Plated,PTH,ViaDrill
T1C0.300
; #@! TA.AperFunction,Plated,PTH,ComponentDrill
T2C0.690
; #@! TA.AperFunction,Plated,PTH,ComponentDrill
T3C0.750
; #@! TA.AperFunction,Plated,PTH,ComponentDrill
T4C0.800
; #@! TA.AperFunction,Plated,PTH,ComponentDrill
T5C1.000
; #@! TA.AperFunction,Plated,PTH,ComponentDrill
T6C1.200
; #@! TA.AperFunction,Plated,PTH,ComponentDrill
T7C1.350
; #@! TA.AperFunction,Plated,PTH,ComponentDrill
T8C2.970
%
G90
G05
T1
X104.22Y-90.314
X115.214Y-53.489
X119.792Y-57.665
X120.552Y-55.28
X120.752Y-82.804
X121.0Y-50.14
X122.123Y-85.903
X122.739Y-75.805
X124.358Y-92.659
X124.661Y-57.508
X125.497Y-56.04
X138.989Y-94.793
X139.519Y-89.437
X139.802Y-78.74
X139.954Y-76.454
X140.421Y-92.375
X143.368Y-75.317
X144.323Y-82.245
X145.055Y-57.331
X145.745Y-84.48
X146.812Y-79.959
X147.676Y-83.007
X149.264Y-98.231
X150.371Y-86.585
X153.196Y-74.317
X153.258Y-83.873
X153.924Y-99.218
X153.928Y-86.022
X154.813Y-46.101
X155.658Y-77.689
X158.211Y-83.774
X158.578Y-75.921
X158.64Y-78.097
X163.496Y-95.648
X163.858Y-85.941
X165.468Y-94.01
X166.726Y-90.272
X166.903Y-89.002
X168.402Y-84.785
X170.536Y-89.611
X170.586Y-81.788
X171.501Y-84.785
X174.142Y-81.737
X174.396Y-89.205
X176.073Y-85.552
T2
X100.092Y-89.408
X102.632Y-86.868
X105.172Y-89.408
X143.529Y-77.867
X146.069Y-75.327
X148.609Y-77.867
X164.23Y-77.613
X166.77Y-75.073
X169.31Y-77.613
T3
X156.631Y-106.619
X156.631Y-108.619
X156.631Y-110.619
X156.631Y-114.619
X156.885Y-61.124
X156.885Y-63.124
X156.885Y-65.124
X156.885Y-69.124
X159.131Y-106.619
X159.131Y-108.619
X159.131Y-110.619
X159.131Y-114.619
X159.385Y-61.124
X159.385Y-63.124
X159.385Y-65.124
X159.385Y-69.124
T4
X97.155Y-121.319
X104.775Y-121.319
X118.745Y-121.192
X126.365Y-121.192
X138.303Y-121.827
X145.923Y-121.827
X171.577Y-121.827
X179.197Y-121.827
T5
X96.0Y-48.0
X98.54Y-48.0
X101.08Y-48.0
X106.0Y-48.0
X108.54Y-48.0
X111.08Y-48.0
X113.62Y-48.0
X116.16Y-48.0
X121.0Y-48.0
X123.54Y-48.0
X126.08Y-48.0
X128.62Y-48.0
X131.16Y-48.0
X146.0Y-48.0
X148.54Y-48.0
X151.08Y-48.0
X153.62Y-48.0
X156.16Y-48.0
X158.7Y-48.0
X163.0Y-48.006
X165.54Y-48.006
X168.08Y-48.006
X170.62Y-48.006
X173.16Y-48.006
X175.7Y-48.006
T6
X98.256Y-116.0
X100.756Y-116.0
X103.256Y-116.0
X120.1Y-115.746
X120.876Y-70.76
X122.6Y-115.746
X123.376Y-70.76
X125.1Y-115.746
X125.876Y-70.76
X139.658Y-115.873
X141.055Y-70.5
X142.158Y-115.873
X143.555Y-70.5
X144.658Y-115.873
X146.055Y-70.5
X173.181Y-116.112
X174.493Y-70.373
X175.681Y-116.112
X176.993Y-70.373
X178.181Y-116.112
X179.493Y-70.373
T7
X154.656Y-103.129
X154.656Y-118.129
X154.91Y-57.634
X154.91Y-72.634
X161.106Y-103.129
X161.106Y-118.129
X161.36Y-57.634
X161.36Y-72.634
T8
X96.356Y-109.0
X105.156Y-109.0
X118.2Y-108.746
X118.976Y-63.76
X127.0Y-108.746
X127.776Y-63.76
X137.758Y-108.873
X139.155Y-63.5
X146.558Y-108.873
X147.955Y-63.5
X171.281Y-109.112
X172.593Y-63.373
X180.081Y-109.112
X181.393Y-63.373
T6
X89.89Y-66.207G85X89.89Y-64.807
G05
X91.728Y-71.663G85X91.028Y-70.451
G05
X91.028Y-60.563G85X91.728Y-59.351
G05
X96.047Y-75.47G85X94.834Y-74.77
G05
X94.834Y-56.244G85X96.047Y-55.544
G05
X101.69Y-69.357G85X100.29Y-69.357
G05
X100.29Y-54.407G85X101.69Y-54.407
G05
X101.69Y-76.607G85X100.29Y-76.607
G05
X105.934Y-55.544G85X107.147Y-56.244
G05
X107.147Y-74.77G85X105.934Y-75.47
G05
X110.953Y-70.451G85X110.253Y-71.663
G05
X110.253Y-59.351G85X110.953Y-60.563
G05
X112.09Y-64.807G85X112.09Y-66.207
G05
M30
