%TF.GenerationSoftware,KiCad,Pcbnew,8.0.8*%
%TF.CreationDate,2025-06-29T12:49:39+09:00*%
%TF.ProjectId,NJM2374A_Invert,4e4a4d32-3337-4344-915f-496e76657274,rev?*%
%TF.SameCoordinates,Original*%
%TF.FileFunction,Drillmap*%
%TF.FilePolarity,Positive*%
%FSLAX45Y45*%
G04 Gerber Fmt 4.5, Leading zero omitted, Abs format (unit mm)*
G04 Created by KiCad (PCBNEW 8.0.8) date 2025-06-29 12:49:39*
%MOMM*%
%LPD*%
G01*
G04 APERTURE LIST*
%ADD10C,0.050000*%
%ADD11C,0.200000*%
G04 APERTURE END LIST*
D10*
X8100000Y-7600000D02*
X12600000Y-7600000D01*
X13000000Y-10100000D02*
X8100000Y-10100000D01*
X12860000Y-7900000D02*
G75*
G02*
X12540000Y-7900000I-160000J0D01*
G01*
X12540000Y-7900000D02*
G75*
G02*
X12860000Y-7900000I160000J0D01*
G01*
X8560000Y-7900000D02*
G75*
G02*
X8240000Y-7900000I-160000J0D01*
G01*
X8240000Y-7900000D02*
G75*
G02*
X8560000Y-7900000I160000J0D01*
G01*
X12600000Y-7600000D02*
X13000000Y-7600000D01*
X12860000Y-9800000D02*
G75*
G02*
X12540000Y-9800000I-160000J0D01*
G01*
X12540000Y-9800000D02*
G75*
G02*
X12860000Y-9800000I160000J0D01*
G01*
X13000000Y-7600000D02*
X13000000Y-10100000D01*
X8560000Y-9800000D02*
G75*
G02*
X8240000Y-9800000I-160000J0D01*
G01*
X8240000Y-9800000D02*
G75*
G02*
X8560000Y-9800000I160000J0D01*
G01*
X8100000Y-10100000D02*
X8100000Y-7600000D01*
D11*
X8358277Y-10413984D02*
X8358277Y-10213984D01*
X8358277Y-10213984D02*
X8405896Y-10213984D01*
X8405896Y-10213984D02*
X8434467Y-10223508D01*
X8434467Y-10223508D02*
X8453515Y-10242555D01*
X8453515Y-10242555D02*
X8463039Y-10261603D01*
X8463039Y-10261603D02*
X8472563Y-10299698D01*
X8472563Y-10299698D02*
X8472563Y-10328270D01*
X8472563Y-10328270D02*
X8463039Y-10366365D01*
X8463039Y-10366365D02*
X8453515Y-10385412D01*
X8453515Y-10385412D02*
X8434467Y-10404460D01*
X8434467Y-10404460D02*
X8405896Y-10413984D01*
X8405896Y-10413984D02*
X8358277Y-10413984D01*
X8558277Y-10413984D02*
X8558277Y-10280650D01*
X8558277Y-10318746D02*
X8567801Y-10299698D01*
X8567801Y-10299698D02*
X8577324Y-10290174D01*
X8577324Y-10290174D02*
X8596372Y-10280650D01*
X8596372Y-10280650D02*
X8615420Y-10280650D01*
X8682086Y-10413984D02*
X8682086Y-10280650D01*
X8682086Y-10213984D02*
X8672563Y-10223508D01*
X8672563Y-10223508D02*
X8682086Y-10233031D01*
X8682086Y-10233031D02*
X8691610Y-10223508D01*
X8691610Y-10223508D02*
X8682086Y-10213984D01*
X8682086Y-10213984D02*
X8682086Y-10233031D01*
X8805896Y-10413984D02*
X8786848Y-10404460D01*
X8786848Y-10404460D02*
X8777324Y-10385412D01*
X8777324Y-10385412D02*
X8777324Y-10213984D01*
X8910658Y-10413984D02*
X8891610Y-10404460D01*
X8891610Y-10404460D02*
X8882086Y-10385412D01*
X8882086Y-10385412D02*
X8882086Y-10213984D01*
X9139229Y-10413984D02*
X9139229Y-10213984D01*
X9139229Y-10213984D02*
X9205896Y-10356841D01*
X9205896Y-10356841D02*
X9272563Y-10213984D01*
X9272563Y-10213984D02*
X9272563Y-10413984D01*
X9453515Y-10413984D02*
X9453515Y-10309222D01*
X9453515Y-10309222D02*
X9443991Y-10290174D01*
X9443991Y-10290174D02*
X9424944Y-10280650D01*
X9424944Y-10280650D02*
X9386848Y-10280650D01*
X9386848Y-10280650D02*
X9367801Y-10290174D01*
X9453515Y-10404460D02*
X9434467Y-10413984D01*
X9434467Y-10413984D02*
X9386848Y-10413984D01*
X9386848Y-10413984D02*
X9367801Y-10404460D01*
X9367801Y-10404460D02*
X9358277Y-10385412D01*
X9358277Y-10385412D02*
X9358277Y-10366365D01*
X9358277Y-10366365D02*
X9367801Y-10347317D01*
X9367801Y-10347317D02*
X9386848Y-10337793D01*
X9386848Y-10337793D02*
X9434467Y-10337793D01*
X9434467Y-10337793D02*
X9453515Y-10328270D01*
X9548753Y-10280650D02*
X9548753Y-10480650D01*
X9548753Y-10290174D02*
X9567801Y-10280650D01*
X9567801Y-10280650D02*
X9605896Y-10280650D01*
X9605896Y-10280650D02*
X9624944Y-10290174D01*
X9624944Y-10290174D02*
X9634467Y-10299698D01*
X9634467Y-10299698D02*
X9643991Y-10318746D01*
X9643991Y-10318746D02*
X9643991Y-10375889D01*
X9643991Y-10375889D02*
X9634467Y-10394936D01*
X9634467Y-10394936D02*
X9624944Y-10404460D01*
X9624944Y-10404460D02*
X9605896Y-10413984D01*
X9605896Y-10413984D02*
X9567801Y-10413984D01*
X9567801Y-10413984D02*
X9548753Y-10404460D01*
X9729705Y-10394936D02*
X9739229Y-10404460D01*
X9739229Y-10404460D02*
X9729705Y-10413984D01*
X9729705Y-10413984D02*
X9720182Y-10404460D01*
X9720182Y-10404460D02*
X9729705Y-10394936D01*
X9729705Y-10394936D02*
X9729705Y-10413984D01*
X9729705Y-10290174D02*
X9739229Y-10299698D01*
X9739229Y-10299698D02*
X9729705Y-10309222D01*
X9729705Y-10309222D02*
X9720182Y-10299698D01*
X9720182Y-10299698D02*
X9729705Y-10290174D01*
X9729705Y-10290174D02*
X9729705Y-10309222D01*
M02*
