M48
; DRILL file {KiCad 8.0.8} date 2025-06-29T12:49:37+0900
; FORMAT={-:-/ absolute / metric / decimal}
; #@! TF.CreationDate,2025-06-29T12:49:37+09:00
; #@! TF.GenerationSoftware,Kicad,Pcbnew,8.0.8
; #@! TF.FileFunction,Plated,1,2,PTH
FMAT,2
METRIC
; #@! TA.AperFunction,Plated,PTH,ComponentDrill
T1C0.760
; #@! TA.AperFunction,Plated,PTH,ComponentDrill
T2C0.800
; #@! TA.AperFunction,Plated,PTH,ComponentDrill
T3C1.000
; #@! TA.AperFunction,Plated,PTH,ComponentDrill
T4C1.100
; #@! TA.AperFunction,Plated,PTH,ComponentDrill
T5C1.300
%
G90
G05
T1
X108.19Y-82.063
X108.19Y-84.603
X108.19Y-87.143
X108.19Y-89.683
X115.81Y-82.063
X115.81Y-84.603
X115.81Y-87.143
X115.81Y-89.683
T2
X95.504Y-92.202
X95.504Y-94.702
X105.664Y-92.71
X105.664Y-96.012
X115.824Y-92.71
X115.824Y-96.012
X119.888Y-83.439
X119.888Y-96.139
X125.349Y-84.0
X125.349Y-86.5
T3
X83.439Y-90.678
X83.439Y-93.218
X99.354Y-89.027
X104.354Y-89.027
X125.349Y-91.239
X125.349Y-93.779
T4
X96.774Y-82.042
X96.774Y-85.598
X104.394Y-82.042
X104.394Y-85.598
T5
X89.027Y-81.788
X89.027Y-86.788
M30
