%TF.GenerationSoftware,KiCad,Pcbnew,8.0.8*%
%TF.CreationDate,2025-06-29T12:49:33+09:00*%
%TF.ProjectId,NJM2374A_Invert,4e4a4d32-3337-4344-915f-496e76657274,rev?*%
%TF.SameCoordinates,Original*%
%TF.FileFunction,Copper,L1,Top*%
%TF.FilePolarity,Positive*%
%FSLAX46Y46*%
G04 Gerber Fmt 4.6, Leading zero omitted, Abs format (unit mm)*
G04 Created by KiCad (PCBNEW 8.0.8) date 2025-06-29 12:49:33*
%MOMM*%
%LPD*%
G01*
G04 APERTURE LIST*
%TA.AperFunction,ComponentPad*%
%ADD10C,1.600000*%
%TD*%
%TA.AperFunction,ComponentPad*%
%ADD11O,1.600000X1.600000*%
%TD*%
%TA.AperFunction,ComponentPad*%
%ADD12R,1.600000X1.600000*%
%TD*%
%TA.AperFunction,ComponentPad*%
%ADD13R,2.200000X2.200000*%
%TD*%
%TA.AperFunction,ComponentPad*%
%ADD14O,2.200000X2.200000*%
%TD*%
%TA.AperFunction,ComponentPad*%
%ADD15R,1.700000X1.700000*%
%TD*%
%TA.AperFunction,ComponentPad*%
%ADD16O,1.700000X1.700000*%
%TD*%
%TA.AperFunction,ComponentPad*%
%ADD17R,1.160000X1.160000*%
%TD*%
%TA.AperFunction,ComponentPad*%
%ADD18C,1.160000*%
%TD*%
%TA.AperFunction,ComponentPad*%
%ADD19C,2.000000*%
%TD*%
%TA.AperFunction,ComponentPad*%
%ADD20C,2.600000*%
%TD*%
%TA.AperFunction,Conductor*%
%ADD21C,0.500000*%
%TD*%
G04 APERTURE END LIST*
D10*
%TO.P,R4,1*%
%TO.N,Net-(PS1-CD)*%
X119888000Y-83439000D03*
D11*
%TO.P,R4,2*%
%TO.N,Vin*%
X119888000Y-96139000D03*
%TD*%
D12*
%TO.P,C3,1*%
%TO.N,GND*%
X95504000Y-94702000D03*
D10*
%TO.P,C3,2*%
%TO.N,Vout*%
X95504000Y-92202000D03*
%TD*%
%TO.P,R1,1*%
%TO.N,Vout*%
X105664000Y-92710000D03*
D11*
%TO.P,R1,2*%
%TO.N,Net-(PS1-IN+)*%
X115824000Y-92710000D03*
%TD*%
D13*
%TO.P,D1,1,K*%
%TO.N,Net-(D1-K)*%
X96774000Y-82042000D03*
D14*
%TO.P,D1,2,A*%
%TO.N,Vout*%
X104394000Y-82042000D03*
%TD*%
D15*
%TO.P,J2,1,Pin_1*%
%TO.N,Vout*%
X83439000Y-90678000D03*
D16*
%TO.P,J2,2,Pin_2*%
%TO.N,GND*%
X83439000Y-93218000D03*
%TD*%
D13*
%TO.P,D2,1,K*%
%TO.N,Net-(D1-K)*%
X96774000Y-85598000D03*
D14*
%TO.P,D2,2,A*%
%TO.N,Net-(D2-A)*%
X104394000Y-85598000D03*
%TD*%
D10*
%TO.P,R2,1*%
%TO.N,Net-(PS1-IN+)*%
X115824000Y-96012000D03*
D11*
%TO.P,R2,2*%
%TO.N,GND*%
X105664000Y-96012000D03*
%TD*%
D12*
%TO.P,C1,1*%
%TO.N,Vin*%
X125349000Y-86500000D03*
D10*
%TO.P,C1,2*%
%TO.N,GND*%
X125349000Y-84000000D03*
%TD*%
D15*
%TO.P,J1,1,Pin_1*%
%TO.N,Vin*%
X125349000Y-91239000D03*
D16*
%TO.P,J1,2,Pin_2*%
%TO.N,GND*%
X125349000Y-93779000D03*
%TD*%
D17*
%TO.P,PS1,1,CS*%
%TO.N,Net-(PS1-CD)*%
X108190000Y-82063000D03*
D18*
%TO.P,PS1,2,ES*%
%TO.N,Net-(D2-A)*%
X108190000Y-84603000D03*
%TO.P,PS1,3,CT*%
%TO.N,Net-(PS1-CT)*%
X108190000Y-87143000D03*
%TO.P,PS1,4,GND*%
%TO.N,Vout*%
X108190000Y-89683000D03*
%TO.P,PS1,5,IN+*%
%TO.N,Net-(PS1-IN+)*%
X115810000Y-89683000D03*
%TO.P,PS1,6,V+*%
%TO.N,Vin*%
X115810000Y-87143000D03*
%TO.P,PS1,7,SI*%
%TO.N,Net-(PS1-CD)*%
X115810000Y-84603000D03*
%TO.P,PS1,8,CD*%
X115810000Y-82063000D03*
%TD*%
D19*
%TO.P,C2,1*%
%TO.N,Vout*%
X99354000Y-89027000D03*
%TO.P,C2,2*%
%TO.N,Net-(PS1-CT)*%
X104354000Y-89027000D03*
%TD*%
D20*
%TO.P,L1,1,1*%
%TO.N,GND*%
X89027000Y-81788000D03*
%TO.P,L1,2,2*%
%TO.N,Net-(D1-K)*%
X89027000Y-86788000D03*
%TD*%
D21*
%TO.N,Vin*%
X125349000Y-86500000D02*
X116453000Y-86500000D01*
X116453000Y-86500000D02*
X115810000Y-87143000D01*
%TO.N,Vout*%
X95504000Y-92202000D02*
X105156000Y-92202000D01*
X93980000Y-90678000D02*
X95504000Y-92202000D01*
X105156000Y-92202000D02*
X105664000Y-92710000D01*
X83439000Y-90678000D02*
X93980000Y-90678000D01*
%TO.N,Net-(PS1-CT)*%
X106238000Y-87143000D02*
X108190000Y-87143000D01*
X104354000Y-89027000D02*
X106238000Y-87143000D01*
%TO.N,Net-(D1-K)*%
X89027000Y-86788000D02*
X94821300Y-86788000D01*
X97663000Y-85598000D02*
X96011300Y-85598000D01*
X94821300Y-86788000D02*
X96011300Y-85598000D01*
%TO.N,Net-(D2-A)*%
X107929700Y-84603000D02*
X106934700Y-85598000D01*
X108190000Y-84603000D02*
X107929700Y-84603000D01*
X105283000Y-85598000D02*
X106934700Y-85598000D01*
%TO.N,Net-(PS1-CD)*%
X119888000Y-83439000D02*
X118724000Y-84603000D01*
X118724000Y-84603000D02*
X115810000Y-84603000D01*
X108190000Y-82063000D02*
X115810000Y-82063000D01*
%TD*%
%TA.AperFunction,Conductor*%
%TO.N,GND*%
G36*
X129442539Y-76520185D02*
G01*
X129488294Y-76572989D01*
X129499500Y-76624500D01*
X129499500Y-100375500D01*
X129479815Y-100442539D01*
X129427011Y-100488294D01*
X129375500Y-100499500D01*
X81624500Y-100499500D01*
X81557461Y-100479815D01*
X81511706Y-100427011D01*
X81500500Y-100375500D01*
X81500500Y-98000000D01*
X81894592Y-98000000D01*
X81914201Y-98286680D01*
X81972666Y-98568034D01*
X81972667Y-98568037D01*
X82068894Y-98838793D01*
X82068893Y-98838793D01*
X82201098Y-99093935D01*
X82366812Y-99328700D01*
X82451923Y-99419831D01*
X82562947Y-99538708D01*
X82785853Y-99720055D01*
X83031382Y-99869365D01*
X83218237Y-99950526D01*
X83294942Y-99983844D01*
X83571642Y-100061371D01*
X83821920Y-100095771D01*
X83856321Y-100100500D01*
X83856322Y-100100500D01*
X84143679Y-100100500D01*
X84174370Y-100096281D01*
X84428358Y-100061371D01*
X84705058Y-99983844D01*
X84818015Y-99934779D01*
X84968617Y-99869365D01*
X84968620Y-99869363D01*
X84968625Y-99869361D01*
X85214147Y-99720055D01*
X85437053Y-99538708D01*
X85633189Y-99328698D01*
X85798901Y-99093936D01*
X85931104Y-98838797D01*
X86027334Y-98568032D01*
X86085798Y-98286686D01*
X86105408Y-98000000D01*
X124894592Y-98000000D01*
X124914201Y-98286680D01*
X124972666Y-98568034D01*
X124972667Y-98568037D01*
X125068894Y-98838793D01*
X125068893Y-98838793D01*
X125201098Y-99093935D01*
X125366812Y-99328700D01*
X125451923Y-99419831D01*
X125562947Y-99538708D01*
X125785853Y-99720055D01*
X126031382Y-99869365D01*
X126218237Y-99950526D01*
X126294942Y-99983844D01*
X126571642Y-100061371D01*
X126821920Y-100095771D01*
X126856321Y-100100500D01*
X126856322Y-100100500D01*
X127143679Y-100100500D01*
X127174370Y-100096281D01*
X127428358Y-100061371D01*
X127705058Y-99983844D01*
X127818015Y-99934779D01*
X127968617Y-99869365D01*
X127968620Y-99869363D01*
X127968625Y-99869361D01*
X128214147Y-99720055D01*
X128437053Y-99538708D01*
X128633189Y-99328698D01*
X128798901Y-99093936D01*
X128931104Y-98838797D01*
X129027334Y-98568032D01*
X129085798Y-98286686D01*
X129105408Y-98000000D01*
X129085798Y-97713314D01*
X129027334Y-97431968D01*
X128931105Y-97161206D01*
X128931106Y-97161206D01*
X128798901Y-96906064D01*
X128633187Y-96671299D01*
X128553044Y-96585488D01*
X128437053Y-96461292D01*
X128214147Y-96279945D01*
X128214146Y-96279944D01*
X127968617Y-96130634D01*
X127705063Y-96016158D01*
X127705061Y-96016157D01*
X127705058Y-96016156D01*
X127575578Y-95979877D01*
X127428364Y-95938630D01*
X127428359Y-95938629D01*
X127428358Y-95938629D01*
X127236818Y-95912302D01*
X127143679Y-95899500D01*
X127143678Y-95899500D01*
X126856322Y-95899500D01*
X126856321Y-95899500D01*
X126571642Y-95938629D01*
X126571635Y-95938630D01*
X126368322Y-95995596D01*
X126294942Y-96016156D01*
X126294939Y-96016156D01*
X126294936Y-96016158D01*
X126294935Y-96016158D01*
X126031382Y-96130634D01*
X125785853Y-96279944D01*
X125562950Y-96461289D01*
X125366812Y-96671299D01*
X125201098Y-96906064D01*
X125068894Y-97161206D01*
X124972667Y-97431962D01*
X124972666Y-97431965D01*
X124914201Y-97713319D01*
X124894592Y-98000000D01*
X86105408Y-98000000D01*
X86085798Y-97713314D01*
X86027334Y-97431968D01*
X85931105Y-97161206D01*
X85931106Y-97161206D01*
X85798901Y-96906064D01*
X85633187Y-96671299D01*
X85553044Y-96585488D01*
X85437053Y-96461292D01*
X85214147Y-96279945D01*
X85214146Y-96279944D01*
X84968617Y-96130634D01*
X84705063Y-96016158D01*
X84705061Y-96016157D01*
X84705058Y-96016156D01*
X84575578Y-95979877D01*
X84428364Y-95938630D01*
X84428359Y-95938629D01*
X84428358Y-95938629D01*
X84236818Y-95912302D01*
X84143679Y-95899500D01*
X84143678Y-95899500D01*
X83856322Y-95899500D01*
X83856321Y-95899500D01*
X83571642Y-95938629D01*
X83571635Y-95938630D01*
X83368322Y-95995596D01*
X83294942Y-96016156D01*
X83294939Y-96016156D01*
X83294936Y-96016158D01*
X83294935Y-96016158D01*
X83031382Y-96130634D01*
X82785853Y-96279944D01*
X82562950Y-96461289D01*
X82366812Y-96671299D01*
X82201098Y-96906064D01*
X82068894Y-97161206D01*
X81972667Y-97431962D01*
X81972666Y-97431965D01*
X81914201Y-97713319D01*
X81894592Y-98000000D01*
X81500500Y-98000000D01*
X81500500Y-89780135D01*
X82088500Y-89780135D01*
X82088500Y-91575870D01*
X82088501Y-91575876D01*
X82094908Y-91635483D01*
X82145202Y-91770328D01*
X82145206Y-91770335D01*
X82231452Y-91885544D01*
X82231455Y-91885547D01*
X82346664Y-91971793D01*
X82346671Y-91971797D01*
X82346674Y-91971798D01*
X82478598Y-92021002D01*
X82534531Y-92062873D01*
X82558949Y-92128337D01*
X82544098Y-92196610D01*
X82522947Y-92224865D01*
X82400886Y-92346926D01*
X82265400Y-92540420D01*
X82265399Y-92540422D01*
X82165570Y-92754507D01*
X82165567Y-92754513D01*
X82108364Y-92967999D01*
X82108364Y-92968000D01*
X83005988Y-92968000D01*
X82973075Y-93025007D01*
X82939000Y-93152174D01*
X82939000Y-93283826D01*
X82973075Y-93410993D01*
X83005988Y-93468000D01*
X82108364Y-93468000D01*
X82165567Y-93681486D01*
X82165570Y-93681492D01*
X82265399Y-93895578D01*
X82400894Y-94089082D01*
X82567917Y-94256105D01*
X82761421Y-94391600D01*
X82975507Y-94491429D01*
X82975516Y-94491433D01*
X83189000Y-94548634D01*
X83189000Y-93651012D01*
X83246007Y-93683925D01*
X83373174Y-93718000D01*
X83504826Y-93718000D01*
X83631993Y-93683925D01*
X83689000Y-93651012D01*
X83689000Y-94548633D01*
X83902483Y-94491433D01*
X83902492Y-94491429D01*
X84116578Y-94391600D01*
X84310082Y-94256105D01*
X84477105Y-94089082D01*
X84612600Y-93895578D01*
X84712429Y-93681492D01*
X84712432Y-93681486D01*
X84769636Y-93468000D01*
X83872012Y-93468000D01*
X83904925Y-93410993D01*
X83939000Y-93283826D01*
X83939000Y-93152174D01*
X83904925Y-93025007D01*
X83872012Y-92968000D01*
X84769636Y-92968000D01*
X84769635Y-92967999D01*
X84712432Y-92754513D01*
X84712429Y-92754507D01*
X84612600Y-92540422D01*
X84612599Y-92540420D01*
X84477113Y-92346926D01*
X84477108Y-92346920D01*
X84355053Y-92224865D01*
X84321568Y-92163542D01*
X84326552Y-92093850D01*
X84368424Y-92037917D01*
X84399400Y-92021002D01*
X84531331Y-91971796D01*
X84646546Y-91885546D01*
X84732796Y-91770331D01*
X84783091Y-91635483D01*
X84789500Y-91575873D01*
X84789500Y-91552500D01*
X84809185Y-91485461D01*
X84861989Y-91439706D01*
X84913500Y-91428500D01*
X93617770Y-91428500D01*
X93684809Y-91448185D01*
X93705451Y-91464819D01*
X94177282Y-91936650D01*
X94210767Y-91997973D01*
X94213129Y-92035137D01*
X94198532Y-92201996D01*
X94198532Y-92202001D01*
X94218364Y-92428686D01*
X94218366Y-92428697D01*
X94277258Y-92648488D01*
X94277261Y-92648497D01*
X94373431Y-92854732D01*
X94373432Y-92854734D01*
X94503954Y-93041141D01*
X94661506Y-93198693D01*
X94694991Y-93260016D01*
X94690007Y-93329708D01*
X94648135Y-93385641D01*
X94602343Y-93407050D01*
X94596626Y-93408401D01*
X94461913Y-93458645D01*
X94461906Y-93458649D01*
X94346812Y-93544809D01*
X94346809Y-93544812D01*
X94260649Y-93659906D01*
X94260645Y-93659913D01*
X94210403Y-93794620D01*
X94210401Y-93794627D01*
X94204000Y-93854155D01*
X94204000Y-94452000D01*
X95188314Y-94452000D01*
X95183920Y-94456394D01*
X95131259Y-94547606D01*
X95104000Y-94649339D01*
X95104000Y-94754661D01*
X95131259Y-94856394D01*
X95183920Y-94947606D01*
X95188314Y-94952000D01*
X94204000Y-94952000D01*
X94204000Y-95549844D01*
X94210401Y-95609372D01*
X94210403Y-95609379D01*
X94260645Y-95744086D01*
X94260649Y-95744093D01*
X94346809Y-95859187D01*
X94346812Y-95859190D01*
X94461906Y-95945350D01*
X94461913Y-95945354D01*
X94596620Y-95995596D01*
X94596627Y-95995598D01*
X94656155Y-96001999D01*
X94656172Y-96002000D01*
X95254000Y-96002000D01*
X95254000Y-95017686D01*
X95258394Y-95022080D01*
X95349606Y-95074741D01*
X95451339Y-95102000D01*
X95556661Y-95102000D01*
X95658394Y-95074741D01*
X95749606Y-95022080D01*
X95754000Y-95017686D01*
X95754000Y-96002000D01*
X96351828Y-96002000D01*
X96351844Y-96001999D01*
X96411372Y-95995598D01*
X96411379Y-95995596D01*
X96546086Y-95945354D01*
X96546093Y-95945350D01*
X96661187Y-95859190D01*
X96661190Y-95859187D01*
X96733945Y-95761999D01*
X104385127Y-95761999D01*
X104385128Y-95762000D01*
X105348314Y-95762000D01*
X105343920Y-95766394D01*
X105291259Y-95857606D01*
X105264000Y-95959339D01*
X105264000Y-96064661D01*
X105291259Y-96166394D01*
X105343920Y-96257606D01*
X105348314Y-96262000D01*
X104385128Y-96262000D01*
X104437730Y-96458317D01*
X104437734Y-96458326D01*
X104533865Y-96664482D01*
X104664342Y-96850820D01*
X104825179Y-97011657D01*
X105011517Y-97142134D01*
X105217673Y-97238265D01*
X105217682Y-97238269D01*
X105413999Y-97290872D01*
X105414000Y-97290871D01*
X105414000Y-96327686D01*
X105418394Y-96332080D01*
X105509606Y-96384741D01*
X105611339Y-96412000D01*
X105716661Y-96412000D01*
X105818394Y-96384741D01*
X105909606Y-96332080D01*
X105914000Y-96327686D01*
X105914000Y-97290872D01*
X106110317Y-97238269D01*
X106110326Y-97238265D01*
X106316482Y-97142134D01*
X106502820Y-97011657D01*
X106663657Y-96850820D01*
X106794134Y-96664482D01*
X106890265Y-96458326D01*
X106890269Y-96458317D01*
X106942872Y-96262000D01*
X105979686Y-96262000D01*
X105984080Y-96257606D01*
X106036741Y-96166394D01*
X106064000Y-96064661D01*
X106064000Y-96011998D01*
X114518532Y-96011998D01*
X114518532Y-96012001D01*
X114538364Y-96238686D01*
X114538366Y-96238697D01*
X114597258Y-96458488D01*
X114597261Y-96458497D01*
X114693431Y-96664732D01*
X114693432Y-96664734D01*
X114823954Y-96851141D01*
X114984858Y-97012045D01*
X114984861Y-97012047D01*
X115171266Y-97142568D01*
X115377504Y-97238739D01*
X115597308Y-97297635D01*
X115759230Y-97311801D01*
X115823998Y-97317468D01*
X115824000Y-97317468D01*
X115824002Y-97317468D01*
X115880673Y-97312509D01*
X116050692Y-97297635D01*
X116270496Y-97238739D01*
X116476734Y-97142568D01*
X116663139Y-97012047D01*
X116824047Y-96851139D01*
X116954568Y-96664734D01*
X117050739Y-96458496D01*
X117109635Y-96238692D01*
X117118357Y-96138998D01*
X118582532Y-96138998D01*
X118582532Y-96139001D01*
X118602364Y-96365686D01*
X118602366Y-96365697D01*
X118661258Y-96585488D01*
X118661261Y-96585497D01*
X118757431Y-96791732D01*
X118757432Y-96791734D01*
X118887954Y-96978141D01*
X119048858Y-97139045D01*
X119080503Y-97161203D01*
X119235266Y-97269568D01*
X119441504Y-97365739D01*
X119661308Y-97424635D01*
X119823230Y-97438801D01*
X119887998Y-97444468D01*
X119888000Y-97444468D01*
X119888002Y-97444468D01*
X119944673Y-97439509D01*
X120114692Y-97424635D01*
X120334496Y-97365739D01*
X120540734Y-97269568D01*
X120727139Y-97139047D01*
X120888047Y-96978139D01*
X121018568Y-96791734D01*
X121114739Y-96585496D01*
X121173635Y-96365692D01*
X121193468Y-96139000D01*
X121173635Y-95912308D01*
X121114739Y-95692504D01*
X121018568Y-95486266D01*
X120888047Y-95299861D01*
X120888045Y-95299858D01*
X120727141Y-95138954D01*
X120540734Y-95008432D01*
X120540732Y-95008431D01*
X120334497Y-94912261D01*
X120334488Y-94912258D01*
X120114697Y-94853366D01*
X120114693Y-94853365D01*
X120114692Y-94853365D01*
X120114691Y-94853364D01*
X120114686Y-94853364D01*
X119888002Y-94833532D01*
X119887998Y-94833532D01*
X119661313Y-94853364D01*
X119661302Y-94853366D01*
X119441511Y-94912258D01*
X119441502Y-94912261D01*
X119235267Y-95008431D01*
X119235265Y-95008432D01*
X119048858Y-95138954D01*
X118887954Y-95299858D01*
X118757432Y-95486265D01*
X118757431Y-95486267D01*
X118661261Y-95692502D01*
X118661258Y-95692511D01*
X118602366Y-95912302D01*
X118602364Y-95912313D01*
X118582532Y-96138998D01*
X117118357Y-96138998D01*
X117129468Y-96012000D01*
X117109635Y-95785308D01*
X117050739Y-95565504D01*
X116954568Y-95359266D01*
X116824047Y-95172861D01*
X116824045Y-95172858D01*
X116663141Y-95011954D01*
X116476734Y-94881432D01*
X116476732Y-94881431D01*
X116270497Y-94785261D01*
X116270488Y-94785258D01*
X116050697Y-94726366D01*
X116050693Y-94726365D01*
X116050692Y-94726365D01*
X116050691Y-94726364D01*
X116050686Y-94726364D01*
X115824002Y-94706532D01*
X115823998Y-94706532D01*
X115597313Y-94726364D01*
X115597302Y-94726366D01*
X115377511Y-94785258D01*
X115377502Y-94785261D01*
X115171267Y-94881431D01*
X115171265Y-94881432D01*
X114984858Y-95011954D01*
X114823954Y-95172858D01*
X114693432Y-95359265D01*
X114693431Y-95359267D01*
X114597261Y-95565502D01*
X114597258Y-95565511D01*
X114538366Y-95785302D01*
X114538364Y-95785313D01*
X114518532Y-96011998D01*
X106064000Y-96011998D01*
X106064000Y-95959339D01*
X106036741Y-95857606D01*
X105984080Y-95766394D01*
X105979686Y-95762000D01*
X106942872Y-95762000D01*
X106942872Y-95761999D01*
X106890269Y-95565682D01*
X106890265Y-95565673D01*
X106794134Y-95359517D01*
X106663657Y-95173179D01*
X106502820Y-95012342D01*
X106316482Y-94881865D01*
X106110328Y-94785734D01*
X105914000Y-94733127D01*
X105914000Y-95696314D01*
X105909606Y-95691920D01*
X105818394Y-95639259D01*
X105716661Y-95612000D01*
X105611339Y-95612000D01*
X105509606Y-95639259D01*
X105418394Y-95691920D01*
X105414000Y-95696314D01*
X105414000Y-94733127D01*
X105217671Y-94785734D01*
X105011517Y-94881865D01*
X104825179Y-95012342D01*
X104664342Y-95173179D01*
X104533865Y-95359517D01*
X104437734Y-95565673D01*
X104437730Y-95565682D01*
X104385127Y-95761999D01*
X96733945Y-95761999D01*
X96747350Y-95744093D01*
X96747354Y-95744086D01*
X96797596Y-95609379D01*
X96797598Y-95609372D01*
X96803999Y-95549844D01*
X96804000Y-95549827D01*
X96804000Y-94952000D01*
X95819686Y-94952000D01*
X95824080Y-94947606D01*
X95876741Y-94856394D01*
X95904000Y-94754661D01*
X95904000Y-94649339D01*
X95876741Y-94547606D01*
X95824080Y-94456394D01*
X95819686Y-94452000D01*
X96804000Y-94452000D01*
X96804000Y-93854172D01*
X96803999Y-93854155D01*
X96797598Y-93794627D01*
X96797596Y-93794620D01*
X96747354Y-93659913D01*
X96747350Y-93659906D01*
X96661190Y-93544812D01*
X96661187Y-93544809D01*
X96546093Y-93458649D01*
X96546086Y-93458645D01*
X96411378Y-93408402D01*
X96405658Y-93407051D01*
X96344942Y-93372477D01*
X96312557Y-93310566D01*
X96318784Y-93240974D01*
X96346491Y-93198694D01*
X96504047Y-93041139D01*
X96529088Y-93005377D01*
X96583665Y-92961752D01*
X96630663Y-92952500D01*
X104287452Y-92952500D01*
X104354491Y-92972185D01*
X104400246Y-93024989D01*
X104407227Y-93044407D01*
X104437258Y-93156488D01*
X104437261Y-93156497D01*
X104533431Y-93362732D01*
X104533432Y-93362734D01*
X104663954Y-93549141D01*
X104824858Y-93710045D01*
X104824861Y-93710047D01*
X105011266Y-93840568D01*
X105217504Y-93936739D01*
X105437308Y-93995635D01*
X105599230Y-94009801D01*
X105663998Y-94015468D01*
X105664000Y-94015468D01*
X105664002Y-94015468D01*
X105720673Y-94010509D01*
X105890692Y-93995635D01*
X106110496Y-93936739D01*
X106316734Y-93840568D01*
X106503139Y-93710047D01*
X106664047Y-93549139D01*
X106794568Y-93362734D01*
X106890739Y-93156496D01*
X106949635Y-92936692D01*
X106969468Y-92710000D01*
X106969468Y-92709998D01*
X114518532Y-92709998D01*
X114518532Y-92710001D01*
X114538364Y-92936686D01*
X114538366Y-92936697D01*
X114597258Y-93156488D01*
X114597261Y-93156497D01*
X114693431Y-93362732D01*
X114693432Y-93362734D01*
X114823954Y-93549141D01*
X114984858Y-93710045D01*
X114984861Y-93710047D01*
X115171266Y-93840568D01*
X115377504Y-93936739D01*
X115597308Y-93995635D01*
X115759230Y-94009801D01*
X115823998Y-94015468D01*
X115824000Y-94015468D01*
X115824002Y-94015468D01*
X115880673Y-94010509D01*
X116050692Y-93995635D01*
X116270496Y-93936739D01*
X116476734Y-93840568D01*
X116663139Y-93710047D01*
X116824047Y-93549139D01*
X116954568Y-93362734D01*
X117050739Y-93156496D01*
X117109635Y-92936692D01*
X117129468Y-92710000D01*
X117109635Y-92483308D01*
X117050739Y-92263504D01*
X116954568Y-92057266D01*
X116834330Y-91885547D01*
X116824045Y-91870858D01*
X116663141Y-91709954D01*
X116476734Y-91579432D01*
X116476732Y-91579431D01*
X116270497Y-91483261D01*
X116270488Y-91483258D01*
X116050697Y-91424366D01*
X116050693Y-91424365D01*
X116050692Y-91424365D01*
X116050691Y-91424364D01*
X116050686Y-91424364D01*
X115824002Y-91404532D01*
X115823998Y-91404532D01*
X115597313Y-91424364D01*
X115597302Y-91424366D01*
X115377511Y-91483258D01*
X115377502Y-91483261D01*
X115171267Y-91579431D01*
X115171265Y-91579432D01*
X114984858Y-91709954D01*
X114823954Y-91870858D01*
X114693432Y-92057265D01*
X114693431Y-92057267D01*
X114597261Y-92263502D01*
X114597258Y-92263511D01*
X114538366Y-92483302D01*
X114538364Y-92483313D01*
X114518532Y-92709998D01*
X106969468Y-92709998D01*
X106949635Y-92483308D01*
X106890739Y-92263504D01*
X106794568Y-92057266D01*
X106674330Y-91885547D01*
X106664045Y-91870858D01*
X106503141Y-91709954D01*
X106316734Y-91579432D01*
X106316732Y-91579431D01*
X106110497Y-91483261D01*
X106110488Y-91483258D01*
X105890697Y-91424366D01*
X105890693Y-91424365D01*
X105890692Y-91424365D01*
X105890691Y-91424364D01*
X105890686Y-91424364D01*
X105664002Y-91404532D01*
X105663998Y-91404532D01*
X105437313Y-91424364D01*
X105437302Y-91424366D01*
X105318750Y-91456132D01*
X105262464Y-91457974D01*
X105229919Y-91451500D01*
X105229918Y-91451500D01*
X96630663Y-91451500D01*
X96563624Y-91431815D01*
X96529088Y-91398623D01*
X96504045Y-91362858D01*
X96343141Y-91201954D01*
X96156734Y-91071432D01*
X96156732Y-91071431D01*
X95950497Y-90975261D01*
X95950488Y-90975258D01*
X95730697Y-90916366D01*
X95730693Y-90916365D01*
X95730692Y-90916365D01*
X95730691Y-90916364D01*
X95730686Y-90916364D01*
X95504002Y-90896532D01*
X95503997Y-90896532D01*
X95337137Y-90911129D01*
X95268637Y-90897362D01*
X95238650Y-90875282D01*
X94458421Y-90095052D01*
X94458414Y-90095046D01*
X94363239Y-90031453D01*
X94363238Y-90031453D01*
X94335495Y-90012916D01*
X94335488Y-90012912D01*
X94198917Y-89956343D01*
X94198907Y-89956340D01*
X94053920Y-89927500D01*
X94053918Y-89927500D01*
X84913499Y-89927500D01*
X84846460Y-89907815D01*
X84800705Y-89855011D01*
X84789499Y-89803500D01*
X84789499Y-89780129D01*
X84789498Y-89780123D01*
X84789497Y-89780116D01*
X84783091Y-89720517D01*
X84732796Y-89585669D01*
X84732795Y-89585668D01*
X84732793Y-89585664D01*
X84646547Y-89470455D01*
X84646544Y-89470452D01*
X84531335Y-89384206D01*
X84531328Y-89384202D01*
X84396482Y-89333908D01*
X84396483Y-89333908D01*
X84336883Y-89327501D01*
X84336881Y-89327500D01*
X84336873Y-89327500D01*
X84336864Y-89327500D01*
X82541129Y-89327500D01*
X82541123Y-89327501D01*
X82481516Y-89333908D01*
X82346671Y-89384202D01*
X82346664Y-89384206D01*
X82231455Y-89470452D01*
X82231452Y-89470455D01*
X82145206Y-89585664D01*
X82145202Y-89585671D01*
X82094908Y-89720517D01*
X82092426Y-89743607D01*
X82088501Y-89780123D01*
X82088500Y-89780135D01*
X81500500Y-89780135D01*
X81500500Y-89026994D01*
X97848357Y-89026994D01*
X97848357Y-89027005D01*
X97868890Y-89274812D01*
X97868892Y-89274824D01*
X97929936Y-89515881D01*
X98029826Y-89743606D01*
X98165833Y-89951782D01*
X98165836Y-89951785D01*
X98334256Y-90134738D01*
X98530491Y-90287474D01*
X98749190Y-90405828D01*
X98984386Y-90486571D01*
X99229665Y-90527500D01*
X99478335Y-90527500D01*
X99723614Y-90486571D01*
X99958810Y-90405828D01*
X100177509Y-90287474D01*
X100373744Y-90134738D01*
X100542164Y-89951785D01*
X100678173Y-89743607D01*
X100778063Y-89515881D01*
X100839108Y-89274821D01*
X100852620Y-89111758D01*
X100859643Y-89027005D01*
X100859643Y-89026994D01*
X100839109Y-88779187D01*
X100839107Y-88779175D01*
X100778063Y-88538118D01*
X100678173Y-88310393D01*
X100542166Y-88102217D01*
X100462879Y-88016089D01*
X100373744Y-87919262D01*
X100177509Y-87766526D01*
X100177507Y-87766525D01*
X100177506Y-87766524D01*
X99958811Y-87648172D01*
X99958802Y-87648169D01*
X99723616Y-87567429D01*
X99478335Y-87526500D01*
X99229665Y-87526500D01*
X98984383Y-87567429D01*
X98749197Y-87648169D01*
X98749188Y-87648172D01*
X98530493Y-87766524D01*
X98334257Y-87919261D01*
X98165833Y-88102217D01*
X98029826Y-88310393D01*
X97929936Y-88538118D01*
X97868892Y-88779175D01*
X97868890Y-88779187D01*
X97848357Y-89026994D01*
X81500500Y-89026994D01*
X81500500Y-86787995D01*
X87221451Y-86787995D01*
X87221451Y-86788004D01*
X87241616Y-87057101D01*
X87301664Y-87320188D01*
X87301666Y-87320195D01*
X87400256Y-87571396D01*
X87400258Y-87571400D01*
X87417059Y-87600500D01*
X87535185Y-87805102D01*
X87621379Y-87913185D01*
X87703442Y-88016089D01*
X87887322Y-88186703D01*
X87901259Y-88199635D01*
X88124226Y-88351651D01*
X88367359Y-88468738D01*
X88625228Y-88548280D01*
X88625229Y-88548280D01*
X88625232Y-88548281D01*
X88892063Y-88588499D01*
X88892068Y-88588499D01*
X88892071Y-88588500D01*
X88892072Y-88588500D01*
X89161928Y-88588500D01*
X89161929Y-88588500D01*
X89161936Y-88588499D01*
X89428767Y-88548281D01*
X89428768Y-88548280D01*
X89428772Y-88548280D01*
X89686641Y-88468738D01*
X89929775Y-88351651D01*
X90152741Y-88199635D01*
X90350561Y-88016085D01*
X90518815Y-87805102D01*
X90636941Y-87600499D01*
X90687508Y-87552285D01*
X90744328Y-87538500D01*
X94895220Y-87538500D01*
X94992762Y-87519096D01*
X95040213Y-87509658D01*
X95176795Y-87453084D01*
X95255493Y-87400500D01*
X95299716Y-87370952D01*
X95446488Y-87224178D01*
X95507809Y-87190695D01*
X95562691Y-87191186D01*
X95566512Y-87192089D01*
X95566517Y-87192091D01*
X95566522Y-87192091D01*
X95566524Y-87192092D01*
X95580370Y-87193580D01*
X95626127Y-87198500D01*
X97921872Y-87198499D01*
X97981483Y-87192091D01*
X98116331Y-87141796D01*
X98231546Y-87055546D01*
X98317796Y-86940331D01*
X98368091Y-86805483D01*
X98374500Y-86745873D01*
X98374499Y-85866102D01*
X98383112Y-85822803D01*
X98382891Y-85822736D01*
X98383572Y-85820489D01*
X98383939Y-85818648D01*
X98384658Y-85816913D01*
X98401983Y-85729815D01*
X98413500Y-85671920D01*
X98413500Y-85598000D01*
X102788551Y-85598000D01*
X102808317Y-85849151D01*
X102867126Y-86094110D01*
X102963533Y-86326859D01*
X103095160Y-86541653D01*
X103095161Y-86541656D01*
X103120871Y-86571758D01*
X103258776Y-86733224D01*
X103407066Y-86859875D01*
X103450343Y-86896838D01*
X103450346Y-86896839D01*
X103665140Y-87028466D01*
X103897889Y-87124873D01*
X104142852Y-87183683D01*
X104394000Y-87203449D01*
X104645148Y-87183683D01*
X104863485Y-87131265D01*
X104933265Y-87134756D01*
X104990083Y-87175419D01*
X105015896Y-87240346D01*
X105002510Y-87308921D01*
X104980111Y-87339520D01*
X104793248Y-87526383D01*
X104731925Y-87559868D01*
X104685158Y-87561011D01*
X104478335Y-87526500D01*
X104229665Y-87526500D01*
X103984383Y-87567429D01*
X103749197Y-87648169D01*
X103749188Y-87648172D01*
X103530493Y-87766524D01*
X103334257Y-87919261D01*
X103165833Y-88102217D01*
X103029826Y-88310393D01*
X102929936Y-88538118D01*
X102868892Y-88779175D01*
X102868890Y-88779187D01*
X102848357Y-89026994D01*
X102848357Y-89027005D01*
X102868890Y-89274812D01*
X102868892Y-89274824D01*
X102929936Y-89515881D01*
X103029826Y-89743606D01*
X103165833Y-89951782D01*
X103165836Y-89951785D01*
X103334256Y-90134738D01*
X103530491Y-90287474D01*
X103749190Y-90405828D01*
X103984386Y-90486571D01*
X104229665Y-90527500D01*
X104478335Y-90527500D01*
X104723614Y-90486571D01*
X104958810Y-90405828D01*
X105177509Y-90287474D01*
X105373744Y-90134738D01*
X105542164Y-89951785D01*
X105678173Y-89743607D01*
X105704758Y-89682999D01*
X107104871Y-89682999D01*
X107104871Y-89683000D01*
X107123346Y-89882391D01*
X107123347Y-89882393D01*
X107178145Y-90074989D01*
X107178151Y-90075004D01*
X107267401Y-90254241D01*
X107267406Y-90254249D01*
X107388081Y-90414049D01*
X107467634Y-90486570D01*
X107536064Y-90548952D01*
X107706316Y-90654368D01*
X107893040Y-90726705D01*
X108089877Y-90763500D01*
X108089879Y-90763500D01*
X108290121Y-90763500D01*
X108290123Y-90763500D01*
X108486960Y-90726705D01*
X108673684Y-90654368D01*
X108843936Y-90548952D01*
X108991920Y-90414047D01*
X109112595Y-90254247D01*
X109201853Y-90074994D01*
X109256653Y-89882392D01*
X109275129Y-89683000D01*
X109275129Y-89682999D01*
X114724871Y-89682999D01*
X114724871Y-89683000D01*
X114743346Y-89882391D01*
X114743347Y-89882393D01*
X114798145Y-90074989D01*
X114798151Y-90075004D01*
X114887401Y-90254241D01*
X114887406Y-90254249D01*
X115008081Y-90414049D01*
X115087634Y-90486570D01*
X115156064Y-90548952D01*
X115326316Y-90654368D01*
X115513040Y-90726705D01*
X115709877Y-90763500D01*
X115709879Y-90763500D01*
X115910121Y-90763500D01*
X115910123Y-90763500D01*
X116106960Y-90726705D01*
X116293684Y-90654368D01*
X116463936Y-90548952D01*
X116611920Y-90414047D01*
X116666980Y-90341135D01*
X123998500Y-90341135D01*
X123998500Y-92136870D01*
X123998501Y-92136876D01*
X124004908Y-92196483D01*
X124055202Y-92331328D01*
X124055206Y-92331335D01*
X124141452Y-92446544D01*
X124141455Y-92446547D01*
X124256664Y-92532793D01*
X124256671Y-92532797D01*
X124256674Y-92532798D01*
X124388598Y-92582002D01*
X124444531Y-92623873D01*
X124468949Y-92689337D01*
X124454098Y-92757610D01*
X124432947Y-92785865D01*
X124310886Y-92907926D01*
X124175400Y-93101420D01*
X124175399Y-93101422D01*
X124075570Y-93315507D01*
X124075567Y-93315513D01*
X124018364Y-93528999D01*
X124018364Y-93529000D01*
X124915988Y-93529000D01*
X124883075Y-93586007D01*
X124849000Y-93713174D01*
X124849000Y-93844826D01*
X124883075Y-93971993D01*
X124915988Y-94029000D01*
X124018364Y-94029000D01*
X124075567Y-94242486D01*
X124075570Y-94242492D01*
X124175399Y-94456578D01*
X124310894Y-94650082D01*
X124477917Y-94817105D01*
X124671421Y-94952600D01*
X124885507Y-95052429D01*
X124885516Y-95052433D01*
X125099000Y-95109634D01*
X125099000Y-94212012D01*
X125156007Y-94244925D01*
X125283174Y-94279000D01*
X125414826Y-94279000D01*
X125541993Y-94244925D01*
X125599000Y-94212012D01*
X125599000Y-95109633D01*
X125812483Y-95052433D01*
X125812492Y-95052429D01*
X126026578Y-94952600D01*
X126220082Y-94817105D01*
X126387105Y-94650082D01*
X126522600Y-94456578D01*
X126622429Y-94242492D01*
X126622432Y-94242486D01*
X126679636Y-94029000D01*
X125782012Y-94029000D01*
X125814925Y-93971993D01*
X125849000Y-93844826D01*
X125849000Y-93713174D01*
X125814925Y-93586007D01*
X125782012Y-93529000D01*
X126679636Y-93529000D01*
X126679635Y-93528999D01*
X126622432Y-93315513D01*
X126622429Y-93315507D01*
X126522600Y-93101422D01*
X126522599Y-93101420D01*
X126387113Y-92907926D01*
X126387108Y-92907920D01*
X126265053Y-92785865D01*
X126231568Y-92724542D01*
X126236552Y-92654850D01*
X126278424Y-92598917D01*
X126309400Y-92582002D01*
X126441331Y-92532796D01*
X126556546Y-92446546D01*
X126642796Y-92331331D01*
X126693091Y-92196483D01*
X126699500Y-92136873D01*
X126699499Y-90341128D01*
X126694299Y-90292757D01*
X126693091Y-90281516D01*
X126642797Y-90146671D01*
X126642793Y-90146664D01*
X126556547Y-90031455D01*
X126556544Y-90031452D01*
X126441335Y-89945206D01*
X126441328Y-89945202D01*
X126306482Y-89894908D01*
X126306483Y-89894908D01*
X126246883Y-89888501D01*
X126246881Y-89888500D01*
X126246873Y-89888500D01*
X126246864Y-89888500D01*
X124451129Y-89888500D01*
X124451123Y-89888501D01*
X124391516Y-89894908D01*
X124256671Y-89945202D01*
X124256664Y-89945206D01*
X124141455Y-90031452D01*
X124141452Y-90031455D01*
X124055206Y-90146664D01*
X124055202Y-90146671D01*
X124004908Y-90281517D01*
X124004268Y-90287475D01*
X123998501Y-90341123D01*
X123998500Y-90341135D01*
X116666980Y-90341135D01*
X116732595Y-90254247D01*
X116821853Y-90074994D01*
X116876653Y-89882392D01*
X116895129Y-89683000D01*
X116876653Y-89483608D01*
X116821853Y-89291006D01*
X116821848Y-89290995D01*
X116732598Y-89111758D01*
X116732593Y-89111750D01*
X116611918Y-88951950D01*
X116463937Y-88817049D01*
X116463936Y-88817048D01*
X116399101Y-88776903D01*
X116293685Y-88711632D01*
X116293683Y-88711631D01*
X116157152Y-88658739D01*
X116106960Y-88639295D01*
X115910123Y-88602500D01*
X115709877Y-88602500D01*
X115513040Y-88639295D01*
X115513037Y-88639295D01*
X115513037Y-88639296D01*
X115326316Y-88711631D01*
X115326314Y-88711632D01*
X115156062Y-88817049D01*
X115008081Y-88951950D01*
X114887406Y-89111750D01*
X114887401Y-89111758D01*
X114798151Y-89290995D01*
X114798145Y-89291010D01*
X114743347Y-89483606D01*
X114743346Y-89483608D01*
X114724871Y-89682999D01*
X109275129Y-89682999D01*
X109256653Y-89483608D01*
X109201853Y-89291006D01*
X109201848Y-89290995D01*
X109112598Y-89111758D01*
X109112593Y-89111750D01*
X108991918Y-88951950D01*
X108843937Y-88817049D01*
X108843936Y-88817048D01*
X108779101Y-88776903D01*
X108673685Y-88711632D01*
X108673683Y-88711631D01*
X108537152Y-88658739D01*
X108486960Y-88639295D01*
X108290123Y-88602500D01*
X108089877Y-88602500D01*
X107893040Y-88639295D01*
X107893037Y-88639295D01*
X107893037Y-88639296D01*
X107706316Y-88711631D01*
X107706314Y-88711632D01*
X107536062Y-88817049D01*
X107388081Y-88951950D01*
X107267406Y-89111750D01*
X107267401Y-89111758D01*
X107178151Y-89290995D01*
X107178145Y-89291010D01*
X107123347Y-89483606D01*
X107123346Y-89483608D01*
X107104871Y-89682999D01*
X105704758Y-89682999D01*
X105778063Y-89515881D01*
X105839108Y-89274821D01*
X105852620Y-89111758D01*
X105859643Y-89027005D01*
X105859643Y-89026994D01*
X105839109Y-88779187D01*
X105839108Y-88779184D01*
X105839108Y-88779179D01*
X105820856Y-88707105D01*
X105823480Y-88637288D01*
X105853378Y-88588987D01*
X106512548Y-87929819D01*
X106573871Y-87896334D01*
X106600229Y-87893500D01*
X107361381Y-87893500D01*
X107428420Y-87913185D01*
X107444919Y-87925863D01*
X107449259Y-87929819D01*
X107536064Y-88008952D01*
X107665734Y-88089240D01*
X107686691Y-88102217D01*
X107706316Y-88114368D01*
X107893040Y-88186705D01*
X108089877Y-88223500D01*
X108089879Y-88223500D01*
X108290121Y-88223500D01*
X108290123Y-88223500D01*
X108486960Y-88186705D01*
X108673684Y-88114368D01*
X108843936Y-88008952D01*
X108991920Y-87874047D01*
X109112595Y-87714247D01*
X109201853Y-87534994D01*
X109256653Y-87342392D01*
X109275129Y-87143000D01*
X109275017Y-87141796D01*
X109256653Y-86943608D01*
X109256652Y-86943606D01*
X109255721Y-86940335D01*
X109201853Y-86751006D01*
X109201848Y-86750995D01*
X109112598Y-86571758D01*
X109112593Y-86571750D01*
X108991918Y-86411950D01*
X108843937Y-86277049D01*
X108843936Y-86277048D01*
X108779101Y-86236903D01*
X108673685Y-86171632D01*
X108673683Y-86171631D01*
X108519655Y-86111961D01*
X108486960Y-86099295D01*
X108290123Y-86062500D01*
X108089877Y-86062500D01*
X107941341Y-86090265D01*
X107893034Y-86099296D01*
X107791040Y-86138809D01*
X107721417Y-86144671D01*
X107659677Y-86111961D01*
X107625422Y-86051064D01*
X107629529Y-85981315D01*
X107658565Y-85935502D01*
X107892591Y-85701475D01*
X107953912Y-85667992D01*
X108003054Y-85667270D01*
X108089877Y-85683500D01*
X108089878Y-85683500D01*
X108290121Y-85683500D01*
X108290123Y-85683500D01*
X108486960Y-85646705D01*
X108673684Y-85574368D01*
X108843936Y-85468952D01*
X108991920Y-85334047D01*
X109112595Y-85174247D01*
X109201853Y-84994994D01*
X109256653Y-84802392D01*
X109275129Y-84603000D01*
X109275129Y-84602999D01*
X114724871Y-84602999D01*
X114724871Y-84603000D01*
X114743346Y-84802391D01*
X114743347Y-84802393D01*
X114798145Y-84994989D01*
X114798151Y-84995004D01*
X114887401Y-85174241D01*
X114887406Y-85174249D01*
X115008081Y-85334049D01*
X115069577Y-85390109D01*
X115156064Y-85468952D01*
X115238627Y-85520073D01*
X115302965Y-85559910D01*
X115326316Y-85574368D01*
X115513040Y-85646705D01*
X115709877Y-85683500D01*
X115709879Y-85683500D01*
X115915341Y-85683500D01*
X115982380Y-85703185D01*
X116028135Y-85755989D01*
X116038079Y-85825147D01*
X116009054Y-85888703D01*
X115984232Y-85910602D01*
X115974585Y-85917047D01*
X115920019Y-85971614D01*
X115865450Y-86026182D01*
X115804130Y-86059666D01*
X115777771Y-86062500D01*
X115709877Y-86062500D01*
X115513040Y-86099295D01*
X115513037Y-86099295D01*
X115513037Y-86099296D01*
X115326316Y-86171631D01*
X115326314Y-86171632D01*
X115156062Y-86277049D01*
X115008081Y-86411950D01*
X114887406Y-86571750D01*
X114887401Y-86571758D01*
X114798151Y-86750995D01*
X114798145Y-86751010D01*
X114743347Y-86943606D01*
X114743346Y-86943608D01*
X114724871Y-87142999D01*
X114724871Y-87143000D01*
X114743346Y-87342391D01*
X114743347Y-87342393D01*
X114798145Y-87534989D01*
X114798151Y-87535004D01*
X114887401Y-87714241D01*
X114887406Y-87714249D01*
X115008081Y-87874049D01*
X115135386Y-87990102D01*
X115156064Y-88008952D01*
X115285734Y-88089240D01*
X115306691Y-88102217D01*
X115326316Y-88114368D01*
X115513040Y-88186705D01*
X115709877Y-88223500D01*
X115709879Y-88223500D01*
X115910121Y-88223500D01*
X115910123Y-88223500D01*
X116106960Y-88186705D01*
X116293684Y-88114368D01*
X116463936Y-88008952D01*
X116611920Y-87874047D01*
X116732595Y-87714247D01*
X116821853Y-87534994D01*
X116876653Y-87342392D01*
X116876653Y-87342391D01*
X116877173Y-87340565D01*
X116914452Y-87281472D01*
X116977762Y-87251915D01*
X116996439Y-87250500D01*
X123926649Y-87250500D01*
X123993688Y-87270185D01*
X124039443Y-87322989D01*
X124049939Y-87361248D01*
X124054908Y-87407483D01*
X124105202Y-87542328D01*
X124105206Y-87542335D01*
X124191452Y-87657544D01*
X124191455Y-87657547D01*
X124306664Y-87743793D01*
X124306671Y-87743797D01*
X124441517Y-87794091D01*
X124441516Y-87794091D01*
X124448444Y-87794835D01*
X124501127Y-87800500D01*
X126196872Y-87800499D01*
X126256483Y-87794091D01*
X126391331Y-87743796D01*
X126506546Y-87657546D01*
X126592796Y-87542331D01*
X126643091Y-87407483D01*
X126649500Y-87347873D01*
X126649499Y-85652128D01*
X126643091Y-85592517D01*
X126636321Y-85574367D01*
X126592797Y-85457671D01*
X126592793Y-85457664D01*
X126506547Y-85342455D01*
X126506544Y-85342452D01*
X126391335Y-85256206D01*
X126391328Y-85256202D01*
X126256482Y-85205908D01*
X126256483Y-85205908D01*
X126196883Y-85199501D01*
X126196881Y-85199500D01*
X126196873Y-85199500D01*
X126196864Y-85199500D01*
X126193548Y-85199322D01*
X126193627Y-85197847D01*
X126132215Y-85179815D01*
X126086460Y-85127011D01*
X126078969Y-85083522D01*
X125395447Y-84400000D01*
X125401661Y-84400000D01*
X125503394Y-84372741D01*
X125594606Y-84320080D01*
X125669080Y-84245606D01*
X125721741Y-84154394D01*
X125749000Y-84052661D01*
X125749000Y-84046447D01*
X126428024Y-84725471D01*
X126479136Y-84652478D01*
X126575264Y-84446331D01*
X126575269Y-84446317D01*
X126634139Y-84226610D01*
X126634141Y-84226599D01*
X126653966Y-84000002D01*
X126653966Y-83999997D01*
X126634141Y-83773400D01*
X126634139Y-83773389D01*
X126575269Y-83553682D01*
X126575264Y-83553668D01*
X126479136Y-83347521D01*
X126479132Y-83347513D01*
X126428025Y-83274526D01*
X125749000Y-83953551D01*
X125749000Y-83947339D01*
X125721741Y-83845606D01*
X125669080Y-83754394D01*
X125594606Y-83679920D01*
X125503394Y-83627259D01*
X125401661Y-83600000D01*
X125395445Y-83600000D01*
X126074472Y-82920974D01*
X126001478Y-82869863D01*
X125795331Y-82773735D01*
X125795317Y-82773730D01*
X125575610Y-82714860D01*
X125575599Y-82714858D01*
X125349002Y-82695034D01*
X125348998Y-82695034D01*
X125122400Y-82714858D01*
X125122389Y-82714860D01*
X124902682Y-82773730D01*
X124902673Y-82773734D01*
X124696516Y-82869866D01*
X124696512Y-82869868D01*
X124623526Y-82920973D01*
X124623526Y-82920974D01*
X125302553Y-83600000D01*
X125296339Y-83600000D01*
X125194606Y-83627259D01*
X125103394Y-83679920D01*
X125028920Y-83754394D01*
X124976259Y-83845606D01*
X124949000Y-83947339D01*
X124949000Y-83953552D01*
X124269974Y-83274526D01*
X124269973Y-83274526D01*
X124218868Y-83347512D01*
X124218866Y-83347516D01*
X124122734Y-83553673D01*
X124122730Y-83553682D01*
X124063860Y-83773389D01*
X124063858Y-83773400D01*
X124044034Y-83999997D01*
X124044034Y-84000002D01*
X124063858Y-84226599D01*
X124063860Y-84226610D01*
X124122730Y-84446317D01*
X124122735Y-84446331D01*
X124218863Y-84652478D01*
X124269974Y-84725472D01*
X124949000Y-84046446D01*
X124949000Y-84052661D01*
X124976259Y-84154394D01*
X125028920Y-84245606D01*
X125103394Y-84320080D01*
X125194606Y-84372741D01*
X125296339Y-84400000D01*
X125302553Y-84400000D01*
X124618352Y-85084199D01*
X124608506Y-85133194D01*
X124559890Y-85183377D01*
X124504367Y-85198049D01*
X124504423Y-85199099D01*
X124504429Y-85199146D01*
X124504426Y-85199146D01*
X124504436Y-85199324D01*
X124501123Y-85199501D01*
X124441516Y-85205908D01*
X124306671Y-85256202D01*
X124306664Y-85256206D01*
X124191455Y-85342452D01*
X124191452Y-85342455D01*
X124105206Y-85457664D01*
X124105202Y-85457671D01*
X124061678Y-85574368D01*
X124054909Y-85592517D01*
X124049937Y-85638757D01*
X124023201Y-85703306D01*
X123965809Y-85743154D01*
X123926649Y-85749500D01*
X116446651Y-85749500D01*
X116379612Y-85729815D01*
X116333857Y-85677011D01*
X116323913Y-85607853D01*
X116352938Y-85544297D01*
X116381373Y-85520073D01*
X116463936Y-85468952D01*
X116550423Y-85390109D01*
X116555081Y-85385863D01*
X116617885Y-85355246D01*
X116638619Y-85353500D01*
X118797920Y-85353500D01*
X118916580Y-85329896D01*
X118942913Y-85324658D01*
X119079495Y-85268084D01*
X119128729Y-85235186D01*
X119144949Y-85224349D01*
X119172548Y-85205908D01*
X119202416Y-85185952D01*
X119622652Y-84765714D01*
X119683973Y-84732231D01*
X119721135Y-84729869D01*
X119864366Y-84742400D01*
X119887999Y-84744468D01*
X119888000Y-84744468D01*
X119888002Y-84744468D01*
X119944673Y-84739509D01*
X120114692Y-84724635D01*
X120334496Y-84665739D01*
X120540734Y-84569568D01*
X120727139Y-84439047D01*
X120888047Y-84278139D01*
X121018568Y-84091734D01*
X121114739Y-83885496D01*
X121173635Y-83665692D01*
X121193468Y-83439000D01*
X121173635Y-83212308D01*
X121114739Y-82992504D01*
X121018568Y-82786266D01*
X120888047Y-82599861D01*
X120888045Y-82599858D01*
X120727141Y-82438954D01*
X120540734Y-82308432D01*
X120540732Y-82308431D01*
X120334497Y-82212261D01*
X120334488Y-82212258D01*
X120114697Y-82153366D01*
X120114693Y-82153365D01*
X120114692Y-82153365D01*
X120114691Y-82153364D01*
X120114686Y-82153364D01*
X119888002Y-82133532D01*
X119887998Y-82133532D01*
X119661313Y-82153364D01*
X119661302Y-82153366D01*
X119441511Y-82212258D01*
X119441502Y-82212261D01*
X119235267Y-82308431D01*
X119235265Y-82308432D01*
X119048858Y-82438954D01*
X118887954Y-82599858D01*
X118757432Y-82786265D01*
X118757431Y-82786267D01*
X118661261Y-82992502D01*
X118661258Y-82992511D01*
X118602366Y-83212302D01*
X118602364Y-83212313D01*
X118582532Y-83438998D01*
X118582532Y-83439003D01*
X118597129Y-83605861D01*
X118583362Y-83674360D01*
X118561283Y-83704347D01*
X118449452Y-83816180D01*
X118388129Y-83849666D01*
X118361770Y-83852500D01*
X116638619Y-83852500D01*
X116571580Y-83832815D01*
X116555081Y-83820137D01*
X116463937Y-83737049D01*
X116463936Y-83737048D01*
X116399101Y-83696903D01*
X116293685Y-83631632D01*
X116293683Y-83631631D01*
X116157152Y-83578739D01*
X116106960Y-83559295D01*
X115910123Y-83522500D01*
X115709877Y-83522500D01*
X115513040Y-83559295D01*
X115513037Y-83559295D01*
X115513037Y-83559296D01*
X115326316Y-83631631D01*
X115326314Y-83631632D01*
X115156062Y-83737049D01*
X115008081Y-83871950D01*
X114887406Y-84031750D01*
X114887401Y-84031758D01*
X114798151Y-84210995D01*
X114798145Y-84211010D01*
X114743347Y-84403606D01*
X114743346Y-84403608D01*
X114724871Y-84602999D01*
X109275129Y-84602999D01*
X109260610Y-84446317D01*
X109256653Y-84403608D01*
X109256652Y-84403606D01*
X109247870Y-84372741D01*
X109201853Y-84211006D01*
X109201848Y-84210995D01*
X109112598Y-84031758D01*
X109112593Y-84031750D01*
X108991918Y-83871950D01*
X108843937Y-83737049D01*
X108843936Y-83737048D01*
X108779101Y-83696903D01*
X108673685Y-83631632D01*
X108673683Y-83631631D01*
X108537152Y-83578739D01*
X108486960Y-83559295D01*
X108290123Y-83522500D01*
X108089877Y-83522500D01*
X107893040Y-83559295D01*
X107893037Y-83559295D01*
X107893037Y-83559296D01*
X107706316Y-83631631D01*
X107706314Y-83631632D01*
X107536062Y-83737049D01*
X107388081Y-83871950D01*
X107267406Y-84031750D01*
X107267399Y-84031762D01*
X107178151Y-84210996D01*
X107178144Y-84211014D01*
X107154279Y-84294891D01*
X107122694Y-84348637D01*
X106660151Y-84811181D01*
X106598828Y-84844666D01*
X106572470Y-84847500D01*
X105880647Y-84847500D01*
X105813608Y-84827815D01*
X105774919Y-84788289D01*
X105761086Y-84765716D01*
X105692836Y-84654341D01*
X105529224Y-84462776D01*
X105368923Y-84325866D01*
X105337656Y-84299161D01*
X105337653Y-84299160D01*
X105122859Y-84167533D01*
X104890110Y-84071126D01*
X104645151Y-84012317D01*
X104394000Y-83992551D01*
X104142848Y-84012317D01*
X103897889Y-84071126D01*
X103665140Y-84167533D01*
X103450346Y-84299160D01*
X103450343Y-84299161D01*
X103258776Y-84462776D01*
X103095161Y-84654343D01*
X103095160Y-84654346D01*
X102963533Y-84869140D01*
X102867126Y-85101889D01*
X102808317Y-85346848D01*
X102788551Y-85598000D01*
X98413500Y-85598000D01*
X98413500Y-85524079D01*
X98384659Y-85379092D01*
X98384658Y-85379091D01*
X98384658Y-85379087D01*
X98383936Y-85377345D01*
X98383569Y-85375500D01*
X98382890Y-85373260D01*
X98383110Y-85373193D01*
X98374499Y-85329896D01*
X98374499Y-84450129D01*
X98374498Y-84450123D01*
X98374497Y-84450116D01*
X98368091Y-84390517D01*
X98354304Y-84353553D01*
X98317797Y-84255671D01*
X98317793Y-84255664D01*
X98231547Y-84140455D01*
X98231544Y-84140452D01*
X98116335Y-84054206D01*
X98116328Y-84054202D01*
X97981482Y-84003908D01*
X97981483Y-84003908D01*
X97921883Y-83997501D01*
X97921881Y-83997500D01*
X97921873Y-83997500D01*
X97921864Y-83997500D01*
X95626129Y-83997500D01*
X95626123Y-83997501D01*
X95566516Y-84003908D01*
X95431671Y-84054202D01*
X95431664Y-84054206D01*
X95316455Y-84140452D01*
X95316452Y-84140455D01*
X95230206Y-84255664D01*
X95230202Y-84255671D01*
X95179908Y-84390517D01*
X95173908Y-84446331D01*
X95173501Y-84450123D01*
X95173500Y-84450135D01*
X95173500Y-85323070D01*
X95153815Y-85390109D01*
X95137181Y-85410751D01*
X94546751Y-86001181D01*
X94485428Y-86034666D01*
X94459070Y-86037500D01*
X90744328Y-86037500D01*
X90677289Y-86017815D01*
X90636941Y-85975500D01*
X90613848Y-85935501D01*
X90518815Y-85770898D01*
X90350561Y-85559915D01*
X90350560Y-85559914D01*
X90350557Y-85559910D01*
X90152741Y-85376365D01*
X90109453Y-85346852D01*
X89929775Y-85224349D01*
X89929769Y-85224346D01*
X89929768Y-85224345D01*
X89929767Y-85224344D01*
X89686643Y-85107263D01*
X89686645Y-85107263D01*
X89428773Y-85027720D01*
X89428767Y-85027718D01*
X89161936Y-84987500D01*
X89161929Y-84987500D01*
X88892071Y-84987500D01*
X88892063Y-84987500D01*
X88625232Y-85027718D01*
X88625226Y-85027720D01*
X88367358Y-85107262D01*
X88124230Y-85224346D01*
X87901258Y-85376365D01*
X87703442Y-85559910D01*
X87535185Y-85770898D01*
X87400258Y-86004599D01*
X87400256Y-86004603D01*
X87301666Y-86255804D01*
X87301664Y-86255811D01*
X87241616Y-86518898D01*
X87221451Y-86787995D01*
X81500500Y-86787995D01*
X81500500Y-81787995D01*
X87221953Y-81787995D01*
X87221953Y-81788004D01*
X87242113Y-82057026D01*
X87242113Y-82057028D01*
X87302142Y-82320033D01*
X87302148Y-82320052D01*
X87400709Y-82571181D01*
X87400708Y-82571181D01*
X87535600Y-82804818D01*
X87589294Y-82872150D01*
X87589295Y-82872150D01*
X88425958Y-82035487D01*
X88450978Y-82095890D01*
X88522112Y-82202351D01*
X88612649Y-82292888D01*
X88719110Y-82364022D01*
X88779511Y-82389041D01*
X87941848Y-83226703D01*
X88124476Y-83351216D01*
X88124485Y-83351221D01*
X88367539Y-83468269D01*
X88367537Y-83468269D01*
X88625337Y-83547790D01*
X88625343Y-83547792D01*
X88892101Y-83587999D01*
X88892110Y-83588000D01*
X89161890Y-83588000D01*
X89161898Y-83587999D01*
X89428656Y-83547792D01*
X89428662Y-83547790D01*
X89686461Y-83468269D01*
X89929516Y-83351221D01*
X89929517Y-83351220D01*
X90112150Y-83226703D01*
X89274487Y-82389041D01*
X89334890Y-82364022D01*
X89441351Y-82292888D01*
X89531888Y-82202351D01*
X89603022Y-82095890D01*
X89628041Y-82035487D01*
X90464703Y-82872150D01*
X90464704Y-82872149D01*
X90518400Y-82804818D01*
X90653290Y-82571181D01*
X90751851Y-82320052D01*
X90751857Y-82320033D01*
X90811886Y-82057028D01*
X90811886Y-82057026D01*
X90832047Y-81788004D01*
X90832047Y-81787995D01*
X90811886Y-81518973D01*
X90811886Y-81518971D01*
X90751857Y-81255966D01*
X90751851Y-81255947D01*
X90653290Y-81004818D01*
X90653291Y-81004818D01*
X90589388Y-80894135D01*
X95173500Y-80894135D01*
X95173500Y-83189870D01*
X95173501Y-83189876D01*
X95179908Y-83249483D01*
X95230202Y-83384328D01*
X95230206Y-83384335D01*
X95316452Y-83499544D01*
X95316455Y-83499547D01*
X95431664Y-83585793D01*
X95431671Y-83585797D01*
X95566517Y-83636091D01*
X95566516Y-83636091D01*
X95573444Y-83636835D01*
X95626127Y-83642500D01*
X97921872Y-83642499D01*
X97981483Y-83636091D01*
X98116331Y-83585796D01*
X98231546Y-83499546D01*
X98317796Y-83384331D01*
X98368091Y-83249483D01*
X98374500Y-83189873D01*
X98374499Y-82042000D01*
X102788551Y-82042000D01*
X102808317Y-82293151D01*
X102867126Y-82538110D01*
X102963533Y-82770859D01*
X103095160Y-82985653D01*
X103095161Y-82985656D01*
X103136765Y-83034368D01*
X103258776Y-83177224D01*
X103372702Y-83274526D01*
X103450343Y-83340838D01*
X103450346Y-83340839D01*
X103665140Y-83472466D01*
X103874768Y-83559296D01*
X103897889Y-83568873D01*
X104142852Y-83627683D01*
X104394000Y-83647449D01*
X104645148Y-83627683D01*
X104890111Y-83568873D01*
X105122859Y-83472466D01*
X105337659Y-83340836D01*
X105529224Y-83177224D01*
X105692836Y-82985659D01*
X105824466Y-82770859D01*
X105920873Y-82538111D01*
X105979683Y-82293148D01*
X105999449Y-82042000D01*
X105979683Y-81790852D01*
X105920873Y-81545889D01*
X105893627Y-81480110D01*
X105874998Y-81435135D01*
X107109500Y-81435135D01*
X107109500Y-82690870D01*
X107109501Y-82690876D01*
X107115908Y-82750483D01*
X107166202Y-82885328D01*
X107166206Y-82885335D01*
X107252452Y-83000544D01*
X107252455Y-83000547D01*
X107367664Y-83086793D01*
X107367671Y-83086797D01*
X107502517Y-83137091D01*
X107502516Y-83137091D01*
X107509444Y-83137835D01*
X107562127Y-83143500D01*
X108817872Y-83143499D01*
X108877483Y-83137091D01*
X109012331Y-83086796D01*
X109127546Y-83000546D01*
X109213796Y-82885331D01*
X109213796Y-82885328D01*
X109217761Y-82878071D01*
X109267168Y-82828666D01*
X109326592Y-82813500D01*
X114981381Y-82813500D01*
X115048420Y-82833185D01*
X115064919Y-82845863D01*
X115108214Y-82885331D01*
X115156064Y-82928952D01*
X115326316Y-83034368D01*
X115513040Y-83106705D01*
X115709877Y-83143500D01*
X115709879Y-83143500D01*
X115910121Y-83143500D01*
X115910123Y-83143500D01*
X116106960Y-83106705D01*
X116293684Y-83034368D01*
X116463936Y-82928952D01*
X116611920Y-82794047D01*
X116732595Y-82634247D01*
X116821853Y-82454994D01*
X116876653Y-82262392D01*
X116895129Y-82063000D01*
X116894575Y-82057026D01*
X116876653Y-81863608D01*
X116876652Y-81863606D01*
X116873355Y-81852019D01*
X116821853Y-81671006D01*
X116821848Y-81670995D01*
X116732598Y-81491758D01*
X116732593Y-81491750D01*
X116611918Y-81331950D01*
X116463937Y-81197049D01*
X116463936Y-81197048D01*
X116348310Y-81125455D01*
X116293685Y-81091632D01*
X116293683Y-81091631D01*
X116157152Y-81038739D01*
X116106960Y-81019295D01*
X115910123Y-80982500D01*
X115709877Y-80982500D01*
X115513040Y-81019295D01*
X115513037Y-81019295D01*
X115513037Y-81019296D01*
X115326316Y-81091631D01*
X115326314Y-81091632D01*
X115156062Y-81197049D01*
X115064919Y-81280137D01*
X115002115Y-81310754D01*
X114981381Y-81312500D01*
X109326592Y-81312500D01*
X109259553Y-81292815D01*
X109217761Y-81247929D01*
X109213795Y-81240667D01*
X109127547Y-81125455D01*
X109127544Y-81125452D01*
X109012335Y-81039206D01*
X109012328Y-81039202D01*
X108877482Y-80988908D01*
X108877483Y-80988908D01*
X108817883Y-80982501D01*
X108817881Y-80982500D01*
X108817873Y-80982500D01*
X108817864Y-80982500D01*
X107562129Y-80982500D01*
X107562123Y-80982501D01*
X107502516Y-80988908D01*
X107367671Y-81039202D01*
X107367664Y-81039206D01*
X107252455Y-81125452D01*
X107252452Y-81125455D01*
X107166206Y-81240664D01*
X107166202Y-81240671D01*
X107115908Y-81375517D01*
X107109501Y-81435116D01*
X107109500Y-81435135D01*
X105874998Y-81435135D01*
X105824466Y-81313140D01*
X105692839Y-81098346D01*
X105692838Y-81098343D01*
X105642328Y-81039204D01*
X105529224Y-80906776D01*
X105370451Y-80771171D01*
X105337656Y-80743161D01*
X105337653Y-80743160D01*
X105122859Y-80611533D01*
X104890110Y-80515126D01*
X104645151Y-80456317D01*
X104394000Y-80436551D01*
X104142848Y-80456317D01*
X103897889Y-80515126D01*
X103665140Y-80611533D01*
X103450346Y-80743160D01*
X103450343Y-80743161D01*
X103258776Y-80906776D01*
X103095161Y-81098343D01*
X103095160Y-81098346D01*
X102963533Y-81313140D01*
X102867126Y-81545889D01*
X102808317Y-81790848D01*
X102788551Y-82042000D01*
X98374499Y-82042000D01*
X98374499Y-80894128D01*
X98368091Y-80834517D01*
X98344464Y-80771171D01*
X98317797Y-80699671D01*
X98317793Y-80699664D01*
X98231547Y-80584455D01*
X98231544Y-80584452D01*
X98116335Y-80498206D01*
X98116328Y-80498202D01*
X97981482Y-80447908D01*
X97981483Y-80447908D01*
X97921883Y-80441501D01*
X97921881Y-80441500D01*
X97921873Y-80441500D01*
X97921864Y-80441500D01*
X95626129Y-80441500D01*
X95626123Y-80441501D01*
X95566516Y-80447908D01*
X95431671Y-80498202D01*
X95431664Y-80498206D01*
X95316455Y-80584452D01*
X95316452Y-80584455D01*
X95230206Y-80699664D01*
X95230202Y-80699671D01*
X95179908Y-80834517D01*
X95176162Y-80869365D01*
X95173501Y-80894123D01*
X95173500Y-80894135D01*
X90589388Y-80894135D01*
X90518400Y-80771182D01*
X90518393Y-80771171D01*
X90464704Y-80703849D01*
X90464703Y-80703848D01*
X89628041Y-81540511D01*
X89603022Y-81480110D01*
X89531888Y-81373649D01*
X89441351Y-81283112D01*
X89334890Y-81211978D01*
X89274488Y-81186958D01*
X90112150Y-80349295D01*
X89929524Y-80224783D01*
X89929516Y-80224778D01*
X89686460Y-80107730D01*
X89686462Y-80107730D01*
X89428662Y-80028209D01*
X89428656Y-80028207D01*
X89161898Y-79988000D01*
X88892101Y-79988000D01*
X88625343Y-80028207D01*
X88625337Y-80028209D01*
X88367538Y-80107730D01*
X88124482Y-80224780D01*
X88124469Y-80224787D01*
X87941848Y-80349294D01*
X88779512Y-81186958D01*
X88719110Y-81211978D01*
X88612649Y-81283112D01*
X88522112Y-81373649D01*
X88450978Y-81480110D01*
X88425958Y-81540512D01*
X87589294Y-80703848D01*
X87535602Y-80771177D01*
X87400709Y-81004818D01*
X87302148Y-81255947D01*
X87302142Y-81255966D01*
X87242113Y-81518971D01*
X87242113Y-81518973D01*
X87221953Y-81787995D01*
X81500500Y-81787995D01*
X81500500Y-79000000D01*
X81894592Y-79000000D01*
X81914201Y-79286680D01*
X81972666Y-79568034D01*
X81972667Y-79568037D01*
X82068894Y-79838793D01*
X82068893Y-79838793D01*
X82201098Y-80093935D01*
X82366812Y-80328700D01*
X82386046Y-80349294D01*
X82562947Y-80538708D01*
X82760789Y-80699664D01*
X82785853Y-80720055D01*
X83031382Y-80869365D01*
X83218237Y-80950526D01*
X83294942Y-80983844D01*
X83571642Y-81061371D01*
X83791804Y-81091632D01*
X83856321Y-81100500D01*
X83856322Y-81100500D01*
X84143679Y-81100500D01*
X84174370Y-81096281D01*
X84428358Y-81061371D01*
X84705058Y-80983844D01*
X84882487Y-80906776D01*
X84968617Y-80869365D01*
X84968620Y-80869363D01*
X84968625Y-80869361D01*
X85214147Y-80720055D01*
X85437053Y-80538708D01*
X85633189Y-80328698D01*
X85798901Y-80093936D01*
X85931104Y-79838797D01*
X86027334Y-79568032D01*
X86085798Y-79286686D01*
X86105408Y-79000000D01*
X124894592Y-79000000D01*
X124914201Y-79286680D01*
X124972666Y-79568034D01*
X124972667Y-79568037D01*
X125068894Y-79838793D01*
X125068893Y-79838793D01*
X125201098Y-80093935D01*
X125366812Y-80328700D01*
X125386046Y-80349294D01*
X125562947Y-80538708D01*
X125760789Y-80699664D01*
X125785853Y-80720055D01*
X126031382Y-80869365D01*
X126218237Y-80950526D01*
X126294942Y-80983844D01*
X126571642Y-81061371D01*
X126791804Y-81091632D01*
X126856321Y-81100500D01*
X126856322Y-81100500D01*
X127143679Y-81100500D01*
X127174370Y-81096281D01*
X127428358Y-81061371D01*
X127705058Y-80983844D01*
X127882487Y-80906776D01*
X127968617Y-80869365D01*
X127968620Y-80869363D01*
X127968625Y-80869361D01*
X128214147Y-80720055D01*
X128437053Y-80538708D01*
X128633189Y-80328698D01*
X128798901Y-80093936D01*
X128931104Y-79838797D01*
X129027334Y-79568032D01*
X129085798Y-79286686D01*
X129105408Y-79000000D01*
X129085798Y-78713314D01*
X129027334Y-78431968D01*
X128931105Y-78161206D01*
X128931106Y-78161206D01*
X128798901Y-77906064D01*
X128633187Y-77671299D01*
X128554554Y-77587105D01*
X128437053Y-77461292D01*
X128214147Y-77279945D01*
X128214146Y-77279944D01*
X127968617Y-77130634D01*
X127705063Y-77016158D01*
X127705061Y-77016157D01*
X127705058Y-77016156D01*
X127575578Y-76979877D01*
X127428364Y-76938630D01*
X127428359Y-76938629D01*
X127428358Y-76938629D01*
X127286018Y-76919064D01*
X127143679Y-76899500D01*
X127143678Y-76899500D01*
X126856322Y-76899500D01*
X126856321Y-76899500D01*
X126571642Y-76938629D01*
X126571635Y-76938630D01*
X126363861Y-76996845D01*
X126294942Y-77016156D01*
X126294939Y-77016156D01*
X126294936Y-77016158D01*
X126294935Y-77016158D01*
X126031382Y-77130634D01*
X125785853Y-77279944D01*
X125562950Y-77461289D01*
X125366812Y-77671299D01*
X125201098Y-77906064D01*
X125068894Y-78161206D01*
X124972667Y-78431962D01*
X124972666Y-78431965D01*
X124914201Y-78713319D01*
X124894592Y-79000000D01*
X86105408Y-79000000D01*
X86085798Y-78713314D01*
X86027334Y-78431968D01*
X85931105Y-78161206D01*
X85931106Y-78161206D01*
X85798901Y-77906064D01*
X85633187Y-77671299D01*
X85554554Y-77587105D01*
X85437053Y-77461292D01*
X85214147Y-77279945D01*
X85214146Y-77279944D01*
X84968617Y-77130634D01*
X84705063Y-77016158D01*
X84705061Y-77016157D01*
X84705058Y-77016156D01*
X84575578Y-76979877D01*
X84428364Y-76938630D01*
X84428359Y-76938629D01*
X84428358Y-76938629D01*
X84286018Y-76919064D01*
X84143679Y-76899500D01*
X84143678Y-76899500D01*
X83856322Y-76899500D01*
X83856321Y-76899500D01*
X83571642Y-76938629D01*
X83571635Y-76938630D01*
X83363861Y-76996845D01*
X83294942Y-77016156D01*
X83294939Y-77016156D01*
X83294936Y-77016158D01*
X83294935Y-77016158D01*
X83031382Y-77130634D01*
X82785853Y-77279944D01*
X82562950Y-77461289D01*
X82366812Y-77671299D01*
X82201098Y-77906064D01*
X82068894Y-78161206D01*
X81972667Y-78431962D01*
X81972666Y-78431965D01*
X81914201Y-78713319D01*
X81894592Y-79000000D01*
X81500500Y-79000000D01*
X81500500Y-76624500D01*
X81520185Y-76557461D01*
X81572989Y-76511706D01*
X81624500Y-76500500D01*
X125934108Y-76500500D01*
X129375500Y-76500500D01*
X129442539Y-76520185D01*
G37*
%TD.AperFunction*%
%TD*%
M02*
