%TF.GenerationSoftware,KiCad,Pcbnew,8.0.8*%
%TF.CreationDate,2025-06-29T12:49:39+09:00*%
%TF.ProjectId,NJM2374A_Invert,4e4a4d32-3337-4344-915f-496e76657274,rev?*%
%TF.SameCoordinates,Original*%
%TF.FileFunction,Drillmap*%
%TF.FilePolarity,Positive*%
%FSLAX45Y45*%
G04 Gerber Fmt 4.5, Leading zero omitted, Abs format (unit mm)*
G04 Created by KiCad (PCBNEW 8.0.8) date 2025-06-29 12:49:39*
%MOMM*%
%LPD*%
G01*
G04 APERTURE LIST*
%ADD10C,0.050000*%
%ADD11C,0.200000*%
%ADD12C,0.100000*%
%ADD13C,0.110000*%
%ADD14C,0.130000*%
G04 APERTURE END LIST*
D10*
X8100000Y-7600000D02*
X12600000Y-7600000D01*
X13000000Y-10100000D02*
X8100000Y-10100000D01*
X12860000Y-7900000D02*
G75*
G02*
X12540000Y-7900000I-160000J0D01*
G01*
X12540000Y-7900000D02*
G75*
G02*
X12860000Y-7900000I160000J0D01*
G01*
X8560000Y-7900000D02*
G75*
G02*
X8240000Y-7900000I-160000J0D01*
G01*
X8240000Y-7900000D02*
G75*
G02*
X8560000Y-7900000I160000J0D01*
G01*
X12600000Y-7600000D02*
X13000000Y-7600000D01*
X12860000Y-9800000D02*
G75*
G02*
X12540000Y-9800000I-160000J0D01*
G01*
X12540000Y-9800000D02*
G75*
G02*
X12860000Y-9800000I160000J0D01*
G01*
X13000000Y-7600000D02*
X13000000Y-10100000D01*
X8560000Y-9800000D02*
G75*
G02*
X8240000Y-9800000I-160000J0D01*
G01*
X8240000Y-9800000D02*
G75*
G02*
X8560000Y-9800000I160000J0D01*
G01*
X8100000Y-10100000D02*
X8100000Y-7600000D01*
D11*
D12*
X10781000Y-8168300D02*
X10857000Y-8244300D01*
X10857000Y-8168300D02*
X10781000Y-8244300D01*
X10781000Y-8422300D02*
X10857000Y-8498300D01*
X10857000Y-8422300D02*
X10781000Y-8498300D01*
X10781000Y-8676300D02*
X10857000Y-8752300D01*
X10857000Y-8676300D02*
X10781000Y-8752300D01*
X10781000Y-8930300D02*
X10857000Y-9006300D01*
X10857000Y-8930300D02*
X10781000Y-9006300D01*
X11543000Y-8168300D02*
X11619000Y-8244300D01*
X11619000Y-8168300D02*
X11543000Y-8244300D01*
X11543000Y-8422300D02*
X11619000Y-8498300D01*
X11619000Y-8422300D02*
X11543000Y-8498300D01*
X11543000Y-8676300D02*
X11619000Y-8752300D01*
X11619000Y-8676300D02*
X11543000Y-8752300D01*
X11543000Y-8930300D02*
X11619000Y-9006300D01*
X11619000Y-8930300D02*
X11543000Y-9006300D01*
X9590400Y-9220200D02*
G75*
G02*
X9510400Y-9220200I-40000J0D01*
G01*
X9510400Y-9220200D02*
G75*
G02*
X9590400Y-9220200I40000J0D01*
G01*
X9590400Y-9470200D02*
G75*
G02*
X9510400Y-9470200I-40000J0D01*
G01*
X9510400Y-9470200D02*
G75*
G02*
X9590400Y-9470200I40000J0D01*
G01*
X10606400Y-9271000D02*
G75*
G02*
X10526400Y-9271000I-40000J0D01*
G01*
X10526400Y-9271000D02*
G75*
G02*
X10606400Y-9271000I40000J0D01*
G01*
X10606400Y-9601200D02*
G75*
G02*
X10526400Y-9601200I-40000J0D01*
G01*
X10526400Y-9601200D02*
G75*
G02*
X10606400Y-9601200I40000J0D01*
G01*
X11622400Y-9271000D02*
G75*
G02*
X11542400Y-9271000I-40000J0D01*
G01*
X11542400Y-9271000D02*
G75*
G02*
X11622400Y-9271000I40000J0D01*
G01*
X11622400Y-9601200D02*
G75*
G02*
X11542400Y-9601200I-40000J0D01*
G01*
X11542400Y-9601200D02*
G75*
G02*
X11622400Y-9601200I40000J0D01*
G01*
X12028800Y-8343900D02*
G75*
G02*
X11948800Y-8343900I-40000J0D01*
G01*
X11948800Y-8343900D02*
G75*
G02*
X12028800Y-8343900I40000J0D01*
G01*
X12028800Y-9613900D02*
G75*
G02*
X11948800Y-9613900I-40000J0D01*
G01*
X11948800Y-9613900D02*
G75*
G02*
X12028800Y-9613900I40000J0D01*
G01*
X12574900Y-8400000D02*
G75*
G02*
X12494900Y-8400000I-40000J0D01*
G01*
X12494900Y-8400000D02*
G75*
G02*
X12574900Y-8400000I40000J0D01*
G01*
X12574900Y-8650000D02*
G75*
G02*
X12494900Y-8650000I-40000J0D01*
G01*
X12494900Y-8650000D02*
G75*
G02*
X12574900Y-8650000I40000J0D01*
G01*
X8343900Y-9017800D02*
X8343900Y-9117800D01*
X8293900Y-9067800D02*
X8393900Y-9067800D01*
X8343900Y-9271800D02*
X8343900Y-9371800D01*
X8293900Y-9321800D02*
X8393900Y-9321800D01*
X9935400Y-8852700D02*
X9935400Y-8952700D01*
X9885400Y-8902700D02*
X9985400Y-8902700D01*
X10435400Y-8852700D02*
X10435400Y-8952700D01*
X10385400Y-8902700D02*
X10485400Y-8902700D01*
X12534900Y-9073900D02*
X12534900Y-9173900D01*
X12484900Y-9123900D02*
X12584900Y-9123900D01*
X12534900Y-9327900D02*
X12534900Y-9427900D01*
X12484900Y-9377900D02*
X12584900Y-9377900D01*
D13*
X9716291Y-8243091D02*
X9716291Y-8165309D01*
X9638509Y-8165309D01*
X9638509Y-8243091D01*
X9716291Y-8243091D01*
X9716291Y-8598691D02*
X9716291Y-8520909D01*
X9638509Y-8520909D01*
X9638509Y-8598691D01*
X9716291Y-8598691D01*
X10478291Y-8243091D02*
X10478291Y-8165309D01*
X10400509Y-8165309D01*
X10400509Y-8243091D01*
X10478291Y-8243091D01*
X10478291Y-8598691D02*
X10478291Y-8520909D01*
X10400509Y-8520909D01*
X10400509Y-8598691D01*
X10478291Y-8598691D01*
D14*
X8902700Y-8243800D02*
X8967700Y-8178800D01*
X8902700Y-8113800D01*
X8837700Y-8178800D01*
X8902700Y-8243800D01*
X8902700Y-8743800D02*
X8967700Y-8678800D01*
X8902700Y-8613800D01*
X8837700Y-8678800D01*
X8902700Y-8743800D01*
D11*
X8358277Y-10413984D02*
X8358277Y-10213984D01*
X8358277Y-10213984D02*
X8405896Y-10213984D01*
X8405896Y-10213984D02*
X8434467Y-10223508D01*
X8434467Y-10223508D02*
X8453515Y-10242555D01*
X8453515Y-10242555D02*
X8463039Y-10261603D01*
X8463039Y-10261603D02*
X8472563Y-10299698D01*
X8472563Y-10299698D02*
X8472563Y-10328270D01*
X8472563Y-10328270D02*
X8463039Y-10366365D01*
X8463039Y-10366365D02*
X8453515Y-10385412D01*
X8453515Y-10385412D02*
X8434467Y-10404460D01*
X8434467Y-10404460D02*
X8405896Y-10413984D01*
X8405896Y-10413984D02*
X8358277Y-10413984D01*
X8558277Y-10413984D02*
X8558277Y-10280650D01*
X8558277Y-10318746D02*
X8567801Y-10299698D01*
X8567801Y-10299698D02*
X8577324Y-10290174D01*
X8577324Y-10290174D02*
X8596372Y-10280650D01*
X8596372Y-10280650D02*
X8615420Y-10280650D01*
X8682086Y-10413984D02*
X8682086Y-10280650D01*
X8682086Y-10213984D02*
X8672563Y-10223508D01*
X8672563Y-10223508D02*
X8682086Y-10233031D01*
X8682086Y-10233031D02*
X8691610Y-10223508D01*
X8691610Y-10223508D02*
X8682086Y-10213984D01*
X8682086Y-10213984D02*
X8682086Y-10233031D01*
X8805896Y-10413984D02*
X8786848Y-10404460D01*
X8786848Y-10404460D02*
X8777324Y-10385412D01*
X8777324Y-10385412D02*
X8777324Y-10213984D01*
X8910658Y-10413984D02*
X8891610Y-10404460D01*
X8891610Y-10404460D02*
X8882086Y-10385412D01*
X8882086Y-10385412D02*
X8882086Y-10213984D01*
X9139229Y-10413984D02*
X9139229Y-10213984D01*
X9139229Y-10213984D02*
X9205896Y-10356841D01*
X9205896Y-10356841D02*
X9272563Y-10213984D01*
X9272563Y-10213984D02*
X9272563Y-10413984D01*
X9453515Y-10413984D02*
X9453515Y-10309222D01*
X9453515Y-10309222D02*
X9443991Y-10290174D01*
X9443991Y-10290174D02*
X9424944Y-10280650D01*
X9424944Y-10280650D02*
X9386848Y-10280650D01*
X9386848Y-10280650D02*
X9367801Y-10290174D01*
X9453515Y-10404460D02*
X9434467Y-10413984D01*
X9434467Y-10413984D02*
X9386848Y-10413984D01*
X9386848Y-10413984D02*
X9367801Y-10404460D01*
X9367801Y-10404460D02*
X9358277Y-10385412D01*
X9358277Y-10385412D02*
X9358277Y-10366365D01*
X9358277Y-10366365D02*
X9367801Y-10347317D01*
X9367801Y-10347317D02*
X9386848Y-10337793D01*
X9386848Y-10337793D02*
X9434467Y-10337793D01*
X9434467Y-10337793D02*
X9453515Y-10328270D01*
X9548753Y-10280650D02*
X9548753Y-10480650D01*
X9548753Y-10290174D02*
X9567801Y-10280650D01*
X9567801Y-10280650D02*
X9605896Y-10280650D01*
X9605896Y-10280650D02*
X9624944Y-10290174D01*
X9624944Y-10290174D02*
X9634467Y-10299698D01*
X9634467Y-10299698D02*
X9643991Y-10318746D01*
X9643991Y-10318746D02*
X9643991Y-10375889D01*
X9643991Y-10375889D02*
X9634467Y-10394936D01*
X9634467Y-10394936D02*
X9624944Y-10404460D01*
X9624944Y-10404460D02*
X9605896Y-10413984D01*
X9605896Y-10413984D02*
X9567801Y-10413984D01*
X9567801Y-10413984D02*
X9548753Y-10404460D01*
X9729705Y-10394936D02*
X9739229Y-10404460D01*
X9739229Y-10404460D02*
X9729705Y-10413984D01*
X9729705Y-10413984D02*
X9720182Y-10404460D01*
X9720182Y-10404460D02*
X9729705Y-10394936D01*
X9729705Y-10394936D02*
X9729705Y-10413984D01*
X9729705Y-10290174D02*
X9739229Y-10299698D01*
X9739229Y-10299698D02*
X9729705Y-10309222D01*
X9729705Y-10309222D02*
X9720182Y-10299698D01*
X9720182Y-10299698D02*
X9729705Y-10290174D01*
X9729705Y-10290174D02*
X9729705Y-10309222D01*
D12*
X8021500Y-10704500D02*
X8097500Y-10780500D01*
X8097500Y-10704500D02*
X8021500Y-10780500D01*
D11*
X8396372Y-10633984D02*
X8415420Y-10633984D01*
X8415420Y-10633984D02*
X8434467Y-10643508D01*
X8434467Y-10643508D02*
X8443991Y-10653031D01*
X8443991Y-10653031D02*
X8453515Y-10672079D01*
X8453515Y-10672079D02*
X8463039Y-10710174D01*
X8463039Y-10710174D02*
X8463039Y-10757793D01*
X8463039Y-10757793D02*
X8453515Y-10795889D01*
X8453515Y-10795889D02*
X8443991Y-10814936D01*
X8443991Y-10814936D02*
X8434467Y-10824460D01*
X8434467Y-10824460D02*
X8415420Y-10833984D01*
X8415420Y-10833984D02*
X8396372Y-10833984D01*
X8396372Y-10833984D02*
X8377324Y-10824460D01*
X8377324Y-10824460D02*
X8367801Y-10814936D01*
X8367801Y-10814936D02*
X8358277Y-10795889D01*
X8358277Y-10795889D02*
X8348753Y-10757793D01*
X8348753Y-10757793D02*
X8348753Y-10710174D01*
X8348753Y-10710174D02*
X8358277Y-10672079D01*
X8358277Y-10672079D02*
X8367801Y-10653031D01*
X8367801Y-10653031D02*
X8377324Y-10643508D01*
X8377324Y-10643508D02*
X8396372Y-10633984D01*
X8548753Y-10814936D02*
X8558277Y-10824460D01*
X8558277Y-10824460D02*
X8548753Y-10833984D01*
X8548753Y-10833984D02*
X8539229Y-10824460D01*
X8539229Y-10824460D02*
X8548753Y-10814936D01*
X8548753Y-10814936D02*
X8548753Y-10833984D01*
X8624944Y-10633984D02*
X8758277Y-10633984D01*
X8758277Y-10633984D02*
X8672563Y-10833984D01*
X8920182Y-10633984D02*
X8882086Y-10633984D01*
X8882086Y-10633984D02*
X8863039Y-10643508D01*
X8863039Y-10643508D02*
X8853515Y-10653031D01*
X8853515Y-10653031D02*
X8834467Y-10681603D01*
X8834467Y-10681603D02*
X8824944Y-10719698D01*
X8824944Y-10719698D02*
X8824944Y-10795889D01*
X8824944Y-10795889D02*
X8834467Y-10814936D01*
X8834467Y-10814936D02*
X8843991Y-10824460D01*
X8843991Y-10824460D02*
X8863039Y-10833984D01*
X8863039Y-10833984D02*
X8901134Y-10833984D01*
X8901134Y-10833984D02*
X8920182Y-10824460D01*
X8920182Y-10824460D02*
X8929705Y-10814936D01*
X8929705Y-10814936D02*
X8939229Y-10795889D01*
X8939229Y-10795889D02*
X8939229Y-10748270D01*
X8939229Y-10748270D02*
X8929705Y-10729222D01*
X8929705Y-10729222D02*
X8920182Y-10719698D01*
X8920182Y-10719698D02*
X8901134Y-10710174D01*
X8901134Y-10710174D02*
X8863039Y-10710174D01*
X8863039Y-10710174D02*
X8843991Y-10719698D01*
X8843991Y-10719698D02*
X8834467Y-10729222D01*
X8834467Y-10729222D02*
X8824944Y-10748270D01*
X9063039Y-10633984D02*
X9082086Y-10633984D01*
X9082086Y-10633984D02*
X9101134Y-10643508D01*
X9101134Y-10643508D02*
X9110658Y-10653031D01*
X9110658Y-10653031D02*
X9120182Y-10672079D01*
X9120182Y-10672079D02*
X9129705Y-10710174D01*
X9129705Y-10710174D02*
X9129705Y-10757793D01*
X9129705Y-10757793D02*
X9120182Y-10795889D01*
X9120182Y-10795889D02*
X9110658Y-10814936D01*
X9110658Y-10814936D02*
X9101134Y-10824460D01*
X9101134Y-10824460D02*
X9082086Y-10833984D01*
X9082086Y-10833984D02*
X9063039Y-10833984D01*
X9063039Y-10833984D02*
X9043991Y-10824460D01*
X9043991Y-10824460D02*
X9034467Y-10814936D01*
X9034467Y-10814936D02*
X9024944Y-10795889D01*
X9024944Y-10795889D02*
X9015420Y-10757793D01*
X9015420Y-10757793D02*
X9015420Y-10710174D01*
X9015420Y-10710174D02*
X9024944Y-10672079D01*
X9024944Y-10672079D02*
X9034467Y-10653031D01*
X9034467Y-10653031D02*
X9043991Y-10643508D01*
X9043991Y-10643508D02*
X9063039Y-10633984D01*
X9215420Y-10833984D02*
X9215420Y-10700650D01*
X9215420Y-10719698D02*
X9224944Y-10710174D01*
X9224944Y-10710174D02*
X9243991Y-10700650D01*
X9243991Y-10700650D02*
X9272563Y-10700650D01*
X9272563Y-10700650D02*
X9291610Y-10710174D01*
X9291610Y-10710174D02*
X9301134Y-10729222D01*
X9301134Y-10729222D02*
X9301134Y-10833984D01*
X9301134Y-10729222D02*
X9310658Y-10710174D01*
X9310658Y-10710174D02*
X9329705Y-10700650D01*
X9329705Y-10700650D02*
X9358277Y-10700650D01*
X9358277Y-10700650D02*
X9377325Y-10710174D01*
X9377325Y-10710174D02*
X9386848Y-10729222D01*
X9386848Y-10729222D02*
X9386848Y-10833984D01*
X9482086Y-10833984D02*
X9482086Y-10700650D01*
X9482086Y-10719698D02*
X9491610Y-10710174D01*
X9491610Y-10710174D02*
X9510658Y-10700650D01*
X9510658Y-10700650D02*
X9539229Y-10700650D01*
X9539229Y-10700650D02*
X9558277Y-10710174D01*
X9558277Y-10710174D02*
X9567801Y-10729222D01*
X9567801Y-10729222D02*
X9567801Y-10833984D01*
X9567801Y-10729222D02*
X9577325Y-10710174D01*
X9577325Y-10710174D02*
X9596372Y-10700650D01*
X9596372Y-10700650D02*
X9624944Y-10700650D01*
X9624944Y-10700650D02*
X9643991Y-10710174D01*
X9643991Y-10710174D02*
X9653515Y-10729222D01*
X9653515Y-10729222D02*
X9653515Y-10833984D01*
X10043991Y-10624460D02*
X9872563Y-10881603D01*
X10301134Y-10633984D02*
X10320182Y-10633984D01*
X10320182Y-10633984D02*
X10339229Y-10643508D01*
X10339229Y-10643508D02*
X10348753Y-10653031D01*
X10348753Y-10653031D02*
X10358277Y-10672079D01*
X10358277Y-10672079D02*
X10367801Y-10710174D01*
X10367801Y-10710174D02*
X10367801Y-10757793D01*
X10367801Y-10757793D02*
X10358277Y-10795889D01*
X10358277Y-10795889D02*
X10348753Y-10814936D01*
X10348753Y-10814936D02*
X10339229Y-10824460D01*
X10339229Y-10824460D02*
X10320182Y-10833984D01*
X10320182Y-10833984D02*
X10301134Y-10833984D01*
X10301134Y-10833984D02*
X10282087Y-10824460D01*
X10282087Y-10824460D02*
X10272563Y-10814936D01*
X10272563Y-10814936D02*
X10263039Y-10795889D01*
X10263039Y-10795889D02*
X10253515Y-10757793D01*
X10253515Y-10757793D02*
X10253515Y-10710174D01*
X10253515Y-10710174D02*
X10263039Y-10672079D01*
X10263039Y-10672079D02*
X10272563Y-10653031D01*
X10272563Y-10653031D02*
X10282087Y-10643508D01*
X10282087Y-10643508D02*
X10301134Y-10633984D01*
X10453515Y-10814936D02*
X10463039Y-10824460D01*
X10463039Y-10824460D02*
X10453515Y-10833984D01*
X10453515Y-10833984D02*
X10443991Y-10824460D01*
X10443991Y-10824460D02*
X10453515Y-10814936D01*
X10453515Y-10814936D02*
X10453515Y-10833984D01*
X10586848Y-10633984D02*
X10605896Y-10633984D01*
X10605896Y-10633984D02*
X10624944Y-10643508D01*
X10624944Y-10643508D02*
X10634468Y-10653031D01*
X10634468Y-10653031D02*
X10643991Y-10672079D01*
X10643991Y-10672079D02*
X10653515Y-10710174D01*
X10653515Y-10710174D02*
X10653515Y-10757793D01*
X10653515Y-10757793D02*
X10643991Y-10795889D01*
X10643991Y-10795889D02*
X10634468Y-10814936D01*
X10634468Y-10814936D02*
X10624944Y-10824460D01*
X10624944Y-10824460D02*
X10605896Y-10833984D01*
X10605896Y-10833984D02*
X10586848Y-10833984D01*
X10586848Y-10833984D02*
X10567801Y-10824460D01*
X10567801Y-10824460D02*
X10558277Y-10814936D01*
X10558277Y-10814936D02*
X10548753Y-10795889D01*
X10548753Y-10795889D02*
X10539229Y-10757793D01*
X10539229Y-10757793D02*
X10539229Y-10710174D01*
X10539229Y-10710174D02*
X10548753Y-10672079D01*
X10548753Y-10672079D02*
X10558277Y-10653031D01*
X10558277Y-10653031D02*
X10567801Y-10643508D01*
X10567801Y-10643508D02*
X10586848Y-10633984D01*
X10729706Y-10653031D02*
X10739229Y-10643508D01*
X10739229Y-10643508D02*
X10758277Y-10633984D01*
X10758277Y-10633984D02*
X10805896Y-10633984D01*
X10805896Y-10633984D02*
X10824944Y-10643508D01*
X10824944Y-10643508D02*
X10834468Y-10653031D01*
X10834468Y-10653031D02*
X10843991Y-10672079D01*
X10843991Y-10672079D02*
X10843991Y-10691127D01*
X10843991Y-10691127D02*
X10834468Y-10719698D01*
X10834468Y-10719698D02*
X10720182Y-10833984D01*
X10720182Y-10833984D02*
X10843991Y-10833984D01*
X10939229Y-10833984D02*
X10977325Y-10833984D01*
X10977325Y-10833984D02*
X10996372Y-10824460D01*
X10996372Y-10824460D02*
X11005896Y-10814936D01*
X11005896Y-10814936D02*
X11024944Y-10786365D01*
X11024944Y-10786365D02*
X11034468Y-10748270D01*
X11034468Y-10748270D02*
X11034468Y-10672079D01*
X11034468Y-10672079D02*
X11024944Y-10653031D01*
X11024944Y-10653031D02*
X11015420Y-10643508D01*
X11015420Y-10643508D02*
X10996372Y-10633984D01*
X10996372Y-10633984D02*
X10958277Y-10633984D01*
X10958277Y-10633984D02*
X10939229Y-10643508D01*
X10939229Y-10643508D02*
X10929706Y-10653031D01*
X10929706Y-10653031D02*
X10920182Y-10672079D01*
X10920182Y-10672079D02*
X10920182Y-10719698D01*
X10920182Y-10719698D02*
X10929706Y-10738746D01*
X10929706Y-10738746D02*
X10939229Y-10748270D01*
X10939229Y-10748270D02*
X10958277Y-10757793D01*
X10958277Y-10757793D02*
X10996372Y-10757793D01*
X10996372Y-10757793D02*
X11015420Y-10748270D01*
X11015420Y-10748270D02*
X11024944Y-10738746D01*
X11024944Y-10738746D02*
X11034468Y-10719698D01*
X11129706Y-10833984D02*
X11167801Y-10833984D01*
X11167801Y-10833984D02*
X11186848Y-10824460D01*
X11186848Y-10824460D02*
X11196372Y-10814936D01*
X11196372Y-10814936D02*
X11215420Y-10786365D01*
X11215420Y-10786365D02*
X11224944Y-10748270D01*
X11224944Y-10748270D02*
X11224944Y-10672079D01*
X11224944Y-10672079D02*
X11215420Y-10653031D01*
X11215420Y-10653031D02*
X11205896Y-10643508D01*
X11205896Y-10643508D02*
X11186848Y-10633984D01*
X11186848Y-10633984D02*
X11148753Y-10633984D01*
X11148753Y-10633984D02*
X11129706Y-10643508D01*
X11129706Y-10643508D02*
X11120182Y-10653031D01*
X11120182Y-10653031D02*
X11110658Y-10672079D01*
X11110658Y-10672079D02*
X11110658Y-10719698D01*
X11110658Y-10719698D02*
X11120182Y-10738746D01*
X11120182Y-10738746D02*
X11129706Y-10748270D01*
X11129706Y-10748270D02*
X11148753Y-10757793D01*
X11148753Y-10757793D02*
X11186848Y-10757793D01*
X11186848Y-10757793D02*
X11205896Y-10748270D01*
X11205896Y-10748270D02*
X11215420Y-10738746D01*
X11215420Y-10738746D02*
X11224944Y-10719698D01*
X11301134Y-10633984D02*
X11301134Y-10672079D01*
X11377325Y-10633984D02*
X11377325Y-10672079D01*
X11672563Y-10910174D02*
X11663039Y-10900650D01*
X11663039Y-10900650D02*
X11643991Y-10872079D01*
X11643991Y-10872079D02*
X11634468Y-10853031D01*
X11634468Y-10853031D02*
X11624944Y-10824460D01*
X11624944Y-10824460D02*
X11615420Y-10776841D01*
X11615420Y-10776841D02*
X11615420Y-10738746D01*
X11615420Y-10738746D02*
X11624944Y-10691127D01*
X11624944Y-10691127D02*
X11634468Y-10662555D01*
X11634468Y-10662555D02*
X11643991Y-10643508D01*
X11643991Y-10643508D02*
X11663039Y-10614936D01*
X11663039Y-10614936D02*
X11672563Y-10605412D01*
X11777325Y-10719698D02*
X11758277Y-10710174D01*
X11758277Y-10710174D02*
X11748753Y-10700650D01*
X11748753Y-10700650D02*
X11739229Y-10681603D01*
X11739229Y-10681603D02*
X11739229Y-10672079D01*
X11739229Y-10672079D02*
X11748753Y-10653031D01*
X11748753Y-10653031D02*
X11758277Y-10643508D01*
X11758277Y-10643508D02*
X11777325Y-10633984D01*
X11777325Y-10633984D02*
X11815420Y-10633984D01*
X11815420Y-10633984D02*
X11834468Y-10643508D01*
X11834468Y-10643508D02*
X11843991Y-10653031D01*
X11843991Y-10653031D02*
X11853515Y-10672079D01*
X11853515Y-10672079D02*
X11853515Y-10681603D01*
X11853515Y-10681603D02*
X11843991Y-10700650D01*
X11843991Y-10700650D02*
X11834468Y-10710174D01*
X11834468Y-10710174D02*
X11815420Y-10719698D01*
X11815420Y-10719698D02*
X11777325Y-10719698D01*
X11777325Y-10719698D02*
X11758277Y-10729222D01*
X11758277Y-10729222D02*
X11748753Y-10738746D01*
X11748753Y-10738746D02*
X11739229Y-10757793D01*
X11739229Y-10757793D02*
X11739229Y-10795889D01*
X11739229Y-10795889D02*
X11748753Y-10814936D01*
X11748753Y-10814936D02*
X11758277Y-10824460D01*
X11758277Y-10824460D02*
X11777325Y-10833984D01*
X11777325Y-10833984D02*
X11815420Y-10833984D01*
X11815420Y-10833984D02*
X11834468Y-10824460D01*
X11834468Y-10824460D02*
X11843991Y-10814936D01*
X11843991Y-10814936D02*
X11853515Y-10795889D01*
X11853515Y-10795889D02*
X11853515Y-10757793D01*
X11853515Y-10757793D02*
X11843991Y-10738746D01*
X11843991Y-10738746D02*
X11834468Y-10729222D01*
X11834468Y-10729222D02*
X11815420Y-10719698D01*
X12091610Y-10833984D02*
X12091610Y-10633984D01*
X12177325Y-10833984D02*
X12177325Y-10729222D01*
X12177325Y-10729222D02*
X12167801Y-10710174D01*
X12167801Y-10710174D02*
X12148753Y-10700650D01*
X12148753Y-10700650D02*
X12120182Y-10700650D01*
X12120182Y-10700650D02*
X12101134Y-10710174D01*
X12101134Y-10710174D02*
X12091610Y-10719698D01*
X12301134Y-10833984D02*
X12282087Y-10824460D01*
X12282087Y-10824460D02*
X12272563Y-10814936D01*
X12272563Y-10814936D02*
X12263039Y-10795889D01*
X12263039Y-10795889D02*
X12263039Y-10738746D01*
X12263039Y-10738746D02*
X12272563Y-10719698D01*
X12272563Y-10719698D02*
X12282087Y-10710174D01*
X12282087Y-10710174D02*
X12301134Y-10700650D01*
X12301134Y-10700650D02*
X12329706Y-10700650D01*
X12329706Y-10700650D02*
X12348753Y-10710174D01*
X12348753Y-10710174D02*
X12358277Y-10719698D01*
X12358277Y-10719698D02*
X12367801Y-10738746D01*
X12367801Y-10738746D02*
X12367801Y-10795889D01*
X12367801Y-10795889D02*
X12358277Y-10814936D01*
X12358277Y-10814936D02*
X12348753Y-10824460D01*
X12348753Y-10824460D02*
X12329706Y-10833984D01*
X12329706Y-10833984D02*
X12301134Y-10833984D01*
X12482087Y-10833984D02*
X12463039Y-10824460D01*
X12463039Y-10824460D02*
X12453515Y-10805412D01*
X12453515Y-10805412D02*
X12453515Y-10633984D01*
X12634468Y-10824460D02*
X12615420Y-10833984D01*
X12615420Y-10833984D02*
X12577325Y-10833984D01*
X12577325Y-10833984D02*
X12558277Y-10824460D01*
X12558277Y-10824460D02*
X12548753Y-10805412D01*
X12548753Y-10805412D02*
X12548753Y-10729222D01*
X12548753Y-10729222D02*
X12558277Y-10710174D01*
X12558277Y-10710174D02*
X12577325Y-10700650D01*
X12577325Y-10700650D02*
X12615420Y-10700650D01*
X12615420Y-10700650D02*
X12634468Y-10710174D01*
X12634468Y-10710174D02*
X12643991Y-10729222D01*
X12643991Y-10729222D02*
X12643991Y-10748270D01*
X12643991Y-10748270D02*
X12548753Y-10767317D01*
X12720182Y-10824460D02*
X12739230Y-10833984D01*
X12739230Y-10833984D02*
X12777325Y-10833984D01*
X12777325Y-10833984D02*
X12796372Y-10824460D01*
X12796372Y-10824460D02*
X12805896Y-10805412D01*
X12805896Y-10805412D02*
X12805896Y-10795889D01*
X12805896Y-10795889D02*
X12796372Y-10776841D01*
X12796372Y-10776841D02*
X12777325Y-10767317D01*
X12777325Y-10767317D02*
X12748753Y-10767317D01*
X12748753Y-10767317D02*
X12729706Y-10757793D01*
X12729706Y-10757793D02*
X12720182Y-10738746D01*
X12720182Y-10738746D02*
X12720182Y-10729222D01*
X12720182Y-10729222D02*
X12729706Y-10710174D01*
X12729706Y-10710174D02*
X12748753Y-10700650D01*
X12748753Y-10700650D02*
X12777325Y-10700650D01*
X12777325Y-10700650D02*
X12796372Y-10710174D01*
X12872563Y-10910174D02*
X12882087Y-10900650D01*
X12882087Y-10900650D02*
X12901134Y-10872079D01*
X12901134Y-10872079D02*
X12910658Y-10853031D01*
X12910658Y-10853031D02*
X12920182Y-10824460D01*
X12920182Y-10824460D02*
X12929706Y-10776841D01*
X12929706Y-10776841D02*
X12929706Y-10738746D01*
X12929706Y-10738746D02*
X12920182Y-10691127D01*
X12920182Y-10691127D02*
X12910658Y-10662555D01*
X12910658Y-10662555D02*
X12901134Y-10643508D01*
X12901134Y-10643508D02*
X12882087Y-10614936D01*
X12882087Y-10614936D02*
X12872563Y-10605412D01*
D12*
X8097500Y-11006500D02*
G75*
G02*
X8017500Y-11006500I-40000J0D01*
G01*
X8017500Y-11006500D02*
G75*
G02*
X8097500Y-11006500I40000J0D01*
G01*
D11*
X8396372Y-10897984D02*
X8415420Y-10897984D01*
X8415420Y-10897984D02*
X8434467Y-10907508D01*
X8434467Y-10907508D02*
X8443991Y-10917031D01*
X8443991Y-10917031D02*
X8453515Y-10936079D01*
X8453515Y-10936079D02*
X8463039Y-10974174D01*
X8463039Y-10974174D02*
X8463039Y-11021793D01*
X8463039Y-11021793D02*
X8453515Y-11059889D01*
X8453515Y-11059889D02*
X8443991Y-11078936D01*
X8443991Y-11078936D02*
X8434467Y-11088460D01*
X8434467Y-11088460D02*
X8415420Y-11097984D01*
X8415420Y-11097984D02*
X8396372Y-11097984D01*
X8396372Y-11097984D02*
X8377324Y-11088460D01*
X8377324Y-11088460D02*
X8367801Y-11078936D01*
X8367801Y-11078936D02*
X8358277Y-11059889D01*
X8358277Y-11059889D02*
X8348753Y-11021793D01*
X8348753Y-11021793D02*
X8348753Y-10974174D01*
X8348753Y-10974174D02*
X8358277Y-10936079D01*
X8358277Y-10936079D02*
X8367801Y-10917031D01*
X8367801Y-10917031D02*
X8377324Y-10907508D01*
X8377324Y-10907508D02*
X8396372Y-10897984D01*
X8548753Y-11078936D02*
X8558277Y-11088460D01*
X8558277Y-11088460D02*
X8548753Y-11097984D01*
X8548753Y-11097984D02*
X8539229Y-11088460D01*
X8539229Y-11088460D02*
X8548753Y-11078936D01*
X8548753Y-11078936D02*
X8548753Y-11097984D01*
X8672563Y-10983698D02*
X8653515Y-10974174D01*
X8653515Y-10974174D02*
X8643991Y-10964650D01*
X8643991Y-10964650D02*
X8634467Y-10945603D01*
X8634467Y-10945603D02*
X8634467Y-10936079D01*
X8634467Y-10936079D02*
X8643991Y-10917031D01*
X8643991Y-10917031D02*
X8653515Y-10907508D01*
X8653515Y-10907508D02*
X8672563Y-10897984D01*
X8672563Y-10897984D02*
X8710658Y-10897984D01*
X8710658Y-10897984D02*
X8729705Y-10907508D01*
X8729705Y-10907508D02*
X8739229Y-10917031D01*
X8739229Y-10917031D02*
X8748753Y-10936079D01*
X8748753Y-10936079D02*
X8748753Y-10945603D01*
X8748753Y-10945603D02*
X8739229Y-10964650D01*
X8739229Y-10964650D02*
X8729705Y-10974174D01*
X8729705Y-10974174D02*
X8710658Y-10983698D01*
X8710658Y-10983698D02*
X8672563Y-10983698D01*
X8672563Y-10983698D02*
X8653515Y-10993222D01*
X8653515Y-10993222D02*
X8643991Y-11002746D01*
X8643991Y-11002746D02*
X8634467Y-11021793D01*
X8634467Y-11021793D02*
X8634467Y-11059889D01*
X8634467Y-11059889D02*
X8643991Y-11078936D01*
X8643991Y-11078936D02*
X8653515Y-11088460D01*
X8653515Y-11088460D02*
X8672563Y-11097984D01*
X8672563Y-11097984D02*
X8710658Y-11097984D01*
X8710658Y-11097984D02*
X8729705Y-11088460D01*
X8729705Y-11088460D02*
X8739229Y-11078936D01*
X8739229Y-11078936D02*
X8748753Y-11059889D01*
X8748753Y-11059889D02*
X8748753Y-11021793D01*
X8748753Y-11021793D02*
X8739229Y-11002746D01*
X8739229Y-11002746D02*
X8729705Y-10993222D01*
X8729705Y-10993222D02*
X8710658Y-10983698D01*
X8872563Y-10897984D02*
X8891610Y-10897984D01*
X8891610Y-10897984D02*
X8910658Y-10907508D01*
X8910658Y-10907508D02*
X8920182Y-10917031D01*
X8920182Y-10917031D02*
X8929705Y-10936079D01*
X8929705Y-10936079D02*
X8939229Y-10974174D01*
X8939229Y-10974174D02*
X8939229Y-11021793D01*
X8939229Y-11021793D02*
X8929705Y-11059889D01*
X8929705Y-11059889D02*
X8920182Y-11078936D01*
X8920182Y-11078936D02*
X8910658Y-11088460D01*
X8910658Y-11088460D02*
X8891610Y-11097984D01*
X8891610Y-11097984D02*
X8872563Y-11097984D01*
X8872563Y-11097984D02*
X8853515Y-11088460D01*
X8853515Y-11088460D02*
X8843991Y-11078936D01*
X8843991Y-11078936D02*
X8834467Y-11059889D01*
X8834467Y-11059889D02*
X8824944Y-11021793D01*
X8824944Y-11021793D02*
X8824944Y-10974174D01*
X8824944Y-10974174D02*
X8834467Y-10936079D01*
X8834467Y-10936079D02*
X8843991Y-10917031D01*
X8843991Y-10917031D02*
X8853515Y-10907508D01*
X8853515Y-10907508D02*
X8872563Y-10897984D01*
X9063039Y-10897984D02*
X9082086Y-10897984D01*
X9082086Y-10897984D02*
X9101134Y-10907508D01*
X9101134Y-10907508D02*
X9110658Y-10917031D01*
X9110658Y-10917031D02*
X9120182Y-10936079D01*
X9120182Y-10936079D02*
X9129705Y-10974174D01*
X9129705Y-10974174D02*
X9129705Y-11021793D01*
X9129705Y-11021793D02*
X9120182Y-11059889D01*
X9120182Y-11059889D02*
X9110658Y-11078936D01*
X9110658Y-11078936D02*
X9101134Y-11088460D01*
X9101134Y-11088460D02*
X9082086Y-11097984D01*
X9082086Y-11097984D02*
X9063039Y-11097984D01*
X9063039Y-11097984D02*
X9043991Y-11088460D01*
X9043991Y-11088460D02*
X9034467Y-11078936D01*
X9034467Y-11078936D02*
X9024944Y-11059889D01*
X9024944Y-11059889D02*
X9015420Y-11021793D01*
X9015420Y-11021793D02*
X9015420Y-10974174D01*
X9015420Y-10974174D02*
X9024944Y-10936079D01*
X9024944Y-10936079D02*
X9034467Y-10917031D01*
X9034467Y-10917031D02*
X9043991Y-10907508D01*
X9043991Y-10907508D02*
X9063039Y-10897984D01*
X9215420Y-11097984D02*
X9215420Y-10964650D01*
X9215420Y-10983698D02*
X9224944Y-10974174D01*
X9224944Y-10974174D02*
X9243991Y-10964650D01*
X9243991Y-10964650D02*
X9272563Y-10964650D01*
X9272563Y-10964650D02*
X9291610Y-10974174D01*
X9291610Y-10974174D02*
X9301134Y-10993222D01*
X9301134Y-10993222D02*
X9301134Y-11097984D01*
X9301134Y-10993222D02*
X9310658Y-10974174D01*
X9310658Y-10974174D02*
X9329705Y-10964650D01*
X9329705Y-10964650D02*
X9358277Y-10964650D01*
X9358277Y-10964650D02*
X9377325Y-10974174D01*
X9377325Y-10974174D02*
X9386848Y-10993222D01*
X9386848Y-10993222D02*
X9386848Y-11097984D01*
X9482086Y-11097984D02*
X9482086Y-10964650D01*
X9482086Y-10983698D02*
X9491610Y-10974174D01*
X9491610Y-10974174D02*
X9510658Y-10964650D01*
X9510658Y-10964650D02*
X9539229Y-10964650D01*
X9539229Y-10964650D02*
X9558277Y-10974174D01*
X9558277Y-10974174D02*
X9567801Y-10993222D01*
X9567801Y-10993222D02*
X9567801Y-11097984D01*
X9567801Y-10993222D02*
X9577325Y-10974174D01*
X9577325Y-10974174D02*
X9596372Y-10964650D01*
X9596372Y-10964650D02*
X9624944Y-10964650D01*
X9624944Y-10964650D02*
X9643991Y-10974174D01*
X9643991Y-10974174D02*
X9653515Y-10993222D01*
X9653515Y-10993222D02*
X9653515Y-11097984D01*
X10043991Y-10888460D02*
X9872563Y-11145603D01*
X10301134Y-10897984D02*
X10320182Y-10897984D01*
X10320182Y-10897984D02*
X10339229Y-10907508D01*
X10339229Y-10907508D02*
X10348753Y-10917031D01*
X10348753Y-10917031D02*
X10358277Y-10936079D01*
X10358277Y-10936079D02*
X10367801Y-10974174D01*
X10367801Y-10974174D02*
X10367801Y-11021793D01*
X10367801Y-11021793D02*
X10358277Y-11059889D01*
X10358277Y-11059889D02*
X10348753Y-11078936D01*
X10348753Y-11078936D02*
X10339229Y-11088460D01*
X10339229Y-11088460D02*
X10320182Y-11097984D01*
X10320182Y-11097984D02*
X10301134Y-11097984D01*
X10301134Y-11097984D02*
X10282087Y-11088460D01*
X10282087Y-11088460D02*
X10272563Y-11078936D01*
X10272563Y-11078936D02*
X10263039Y-11059889D01*
X10263039Y-11059889D02*
X10253515Y-11021793D01*
X10253515Y-11021793D02*
X10253515Y-10974174D01*
X10253515Y-10974174D02*
X10263039Y-10936079D01*
X10263039Y-10936079D02*
X10272563Y-10917031D01*
X10272563Y-10917031D02*
X10282087Y-10907508D01*
X10282087Y-10907508D02*
X10301134Y-10897984D01*
X10453515Y-11078936D02*
X10463039Y-11088460D01*
X10463039Y-11088460D02*
X10453515Y-11097984D01*
X10453515Y-11097984D02*
X10443991Y-11088460D01*
X10443991Y-11088460D02*
X10453515Y-11078936D01*
X10453515Y-11078936D02*
X10453515Y-11097984D01*
X10586848Y-10897984D02*
X10605896Y-10897984D01*
X10605896Y-10897984D02*
X10624944Y-10907508D01*
X10624944Y-10907508D02*
X10634468Y-10917031D01*
X10634468Y-10917031D02*
X10643991Y-10936079D01*
X10643991Y-10936079D02*
X10653515Y-10974174D01*
X10653515Y-10974174D02*
X10653515Y-11021793D01*
X10653515Y-11021793D02*
X10643991Y-11059889D01*
X10643991Y-11059889D02*
X10634468Y-11078936D01*
X10634468Y-11078936D02*
X10624944Y-11088460D01*
X10624944Y-11088460D02*
X10605896Y-11097984D01*
X10605896Y-11097984D02*
X10586848Y-11097984D01*
X10586848Y-11097984D02*
X10567801Y-11088460D01*
X10567801Y-11088460D02*
X10558277Y-11078936D01*
X10558277Y-11078936D02*
X10548753Y-11059889D01*
X10548753Y-11059889D02*
X10539229Y-11021793D01*
X10539229Y-11021793D02*
X10539229Y-10974174D01*
X10539229Y-10974174D02*
X10548753Y-10936079D01*
X10548753Y-10936079D02*
X10558277Y-10917031D01*
X10558277Y-10917031D02*
X10567801Y-10907508D01*
X10567801Y-10907508D02*
X10586848Y-10897984D01*
X10720182Y-10897984D02*
X10843991Y-10897984D01*
X10843991Y-10897984D02*
X10777325Y-10974174D01*
X10777325Y-10974174D02*
X10805896Y-10974174D01*
X10805896Y-10974174D02*
X10824944Y-10983698D01*
X10824944Y-10983698D02*
X10834468Y-10993222D01*
X10834468Y-10993222D02*
X10843991Y-11012270D01*
X10843991Y-11012270D02*
X10843991Y-11059889D01*
X10843991Y-11059889D02*
X10834468Y-11078936D01*
X10834468Y-11078936D02*
X10824944Y-11088460D01*
X10824944Y-11088460D02*
X10805896Y-11097984D01*
X10805896Y-11097984D02*
X10748753Y-11097984D01*
X10748753Y-11097984D02*
X10729706Y-11088460D01*
X10729706Y-11088460D02*
X10720182Y-11078936D01*
X11034468Y-11097984D02*
X10920182Y-11097984D01*
X10977325Y-11097984D02*
X10977325Y-10897984D01*
X10977325Y-10897984D02*
X10958277Y-10926555D01*
X10958277Y-10926555D02*
X10939229Y-10945603D01*
X10939229Y-10945603D02*
X10920182Y-10955127D01*
X11215420Y-10897984D02*
X11120182Y-10897984D01*
X11120182Y-10897984D02*
X11110658Y-10993222D01*
X11110658Y-10993222D02*
X11120182Y-10983698D01*
X11120182Y-10983698D02*
X11139229Y-10974174D01*
X11139229Y-10974174D02*
X11186848Y-10974174D01*
X11186848Y-10974174D02*
X11205896Y-10983698D01*
X11205896Y-10983698D02*
X11215420Y-10993222D01*
X11215420Y-10993222D02*
X11224944Y-11012270D01*
X11224944Y-11012270D02*
X11224944Y-11059889D01*
X11224944Y-11059889D02*
X11215420Y-11078936D01*
X11215420Y-11078936D02*
X11205896Y-11088460D01*
X11205896Y-11088460D02*
X11186848Y-11097984D01*
X11186848Y-11097984D02*
X11139229Y-11097984D01*
X11139229Y-11097984D02*
X11120182Y-11088460D01*
X11120182Y-11088460D02*
X11110658Y-11078936D01*
X11301134Y-10897984D02*
X11301134Y-10936079D01*
X11377325Y-10897984D02*
X11377325Y-10936079D01*
X11672563Y-11174174D02*
X11663039Y-11164650D01*
X11663039Y-11164650D02*
X11643991Y-11136079D01*
X11643991Y-11136079D02*
X11634468Y-11117031D01*
X11634468Y-11117031D02*
X11624944Y-11088460D01*
X11624944Y-11088460D02*
X11615420Y-11040841D01*
X11615420Y-11040841D02*
X11615420Y-11002746D01*
X11615420Y-11002746D02*
X11624944Y-10955127D01*
X11624944Y-10955127D02*
X11634468Y-10926555D01*
X11634468Y-10926555D02*
X11643991Y-10907508D01*
X11643991Y-10907508D02*
X11663039Y-10878936D01*
X11663039Y-10878936D02*
X11672563Y-10869412D01*
X11853515Y-11097984D02*
X11739229Y-11097984D01*
X11796372Y-11097984D02*
X11796372Y-10897984D01*
X11796372Y-10897984D02*
X11777325Y-10926555D01*
X11777325Y-10926555D02*
X11758277Y-10945603D01*
X11758277Y-10945603D02*
X11739229Y-10955127D01*
X11977325Y-10897984D02*
X11996372Y-10897984D01*
X11996372Y-10897984D02*
X12015420Y-10907508D01*
X12015420Y-10907508D02*
X12024944Y-10917031D01*
X12024944Y-10917031D02*
X12034468Y-10936079D01*
X12034468Y-10936079D02*
X12043991Y-10974174D01*
X12043991Y-10974174D02*
X12043991Y-11021793D01*
X12043991Y-11021793D02*
X12034468Y-11059889D01*
X12034468Y-11059889D02*
X12024944Y-11078936D01*
X12024944Y-11078936D02*
X12015420Y-11088460D01*
X12015420Y-11088460D02*
X11996372Y-11097984D01*
X11996372Y-11097984D02*
X11977325Y-11097984D01*
X11977325Y-11097984D02*
X11958277Y-11088460D01*
X11958277Y-11088460D02*
X11948753Y-11078936D01*
X11948753Y-11078936D02*
X11939229Y-11059889D01*
X11939229Y-11059889D02*
X11929706Y-11021793D01*
X11929706Y-11021793D02*
X11929706Y-10974174D01*
X11929706Y-10974174D02*
X11939229Y-10936079D01*
X11939229Y-10936079D02*
X11948753Y-10917031D01*
X11948753Y-10917031D02*
X11958277Y-10907508D01*
X11958277Y-10907508D02*
X11977325Y-10897984D01*
X12282087Y-11097984D02*
X12282087Y-10897984D01*
X12367801Y-11097984D02*
X12367801Y-10993222D01*
X12367801Y-10993222D02*
X12358277Y-10974174D01*
X12358277Y-10974174D02*
X12339230Y-10964650D01*
X12339230Y-10964650D02*
X12310658Y-10964650D01*
X12310658Y-10964650D02*
X12291610Y-10974174D01*
X12291610Y-10974174D02*
X12282087Y-10983698D01*
X12491610Y-11097984D02*
X12472563Y-11088460D01*
X12472563Y-11088460D02*
X12463039Y-11078936D01*
X12463039Y-11078936D02*
X12453515Y-11059889D01*
X12453515Y-11059889D02*
X12453515Y-11002746D01*
X12453515Y-11002746D02*
X12463039Y-10983698D01*
X12463039Y-10983698D02*
X12472563Y-10974174D01*
X12472563Y-10974174D02*
X12491610Y-10964650D01*
X12491610Y-10964650D02*
X12520182Y-10964650D01*
X12520182Y-10964650D02*
X12539230Y-10974174D01*
X12539230Y-10974174D02*
X12548753Y-10983698D01*
X12548753Y-10983698D02*
X12558277Y-11002746D01*
X12558277Y-11002746D02*
X12558277Y-11059889D01*
X12558277Y-11059889D02*
X12548753Y-11078936D01*
X12548753Y-11078936D02*
X12539230Y-11088460D01*
X12539230Y-11088460D02*
X12520182Y-11097984D01*
X12520182Y-11097984D02*
X12491610Y-11097984D01*
X12672563Y-11097984D02*
X12653515Y-11088460D01*
X12653515Y-11088460D02*
X12643991Y-11069412D01*
X12643991Y-11069412D02*
X12643991Y-10897984D01*
X12824944Y-11088460D02*
X12805896Y-11097984D01*
X12805896Y-11097984D02*
X12767801Y-11097984D01*
X12767801Y-11097984D02*
X12748753Y-11088460D01*
X12748753Y-11088460D02*
X12739230Y-11069412D01*
X12739230Y-11069412D02*
X12739230Y-10993222D01*
X12739230Y-10993222D02*
X12748753Y-10974174D01*
X12748753Y-10974174D02*
X12767801Y-10964650D01*
X12767801Y-10964650D02*
X12805896Y-10964650D01*
X12805896Y-10964650D02*
X12824944Y-10974174D01*
X12824944Y-10974174D02*
X12834468Y-10993222D01*
X12834468Y-10993222D02*
X12834468Y-11012270D01*
X12834468Y-11012270D02*
X12739230Y-11031317D01*
X12910658Y-11088460D02*
X12929706Y-11097984D01*
X12929706Y-11097984D02*
X12967801Y-11097984D01*
X12967801Y-11097984D02*
X12986849Y-11088460D01*
X12986849Y-11088460D02*
X12996372Y-11069412D01*
X12996372Y-11069412D02*
X12996372Y-11059889D01*
X12996372Y-11059889D02*
X12986849Y-11040841D01*
X12986849Y-11040841D02*
X12967801Y-11031317D01*
X12967801Y-11031317D02*
X12939230Y-11031317D01*
X12939230Y-11031317D02*
X12920182Y-11021793D01*
X12920182Y-11021793D02*
X12910658Y-11002746D01*
X12910658Y-11002746D02*
X12910658Y-10993222D01*
X12910658Y-10993222D02*
X12920182Y-10974174D01*
X12920182Y-10974174D02*
X12939230Y-10964650D01*
X12939230Y-10964650D02*
X12967801Y-10964650D01*
X12967801Y-10964650D02*
X12986849Y-10974174D01*
X13063039Y-11174174D02*
X13072563Y-11164650D01*
X13072563Y-11164650D02*
X13091611Y-11136079D01*
X13091611Y-11136079D02*
X13101134Y-11117031D01*
X13101134Y-11117031D02*
X13110658Y-11088460D01*
X13110658Y-11088460D02*
X13120182Y-11040841D01*
X13120182Y-11040841D02*
X13120182Y-11002746D01*
X13120182Y-11002746D02*
X13110658Y-10955127D01*
X13110658Y-10955127D02*
X13101134Y-10926555D01*
X13101134Y-10926555D02*
X13091611Y-10907508D01*
X13091611Y-10907508D02*
X13072563Y-10878936D01*
X13072563Y-10878936D02*
X13063039Y-10869412D01*
D12*
X8047500Y-11220500D02*
X8047500Y-11320500D01*
X7997500Y-11270500D02*
X8097500Y-11270500D01*
D11*
X8463039Y-11361984D02*
X8348753Y-11361984D01*
X8405896Y-11361984D02*
X8405896Y-11161984D01*
X8405896Y-11161984D02*
X8386848Y-11190555D01*
X8386848Y-11190555D02*
X8367801Y-11209603D01*
X8367801Y-11209603D02*
X8348753Y-11219127D01*
X8548753Y-11342936D02*
X8558277Y-11352460D01*
X8558277Y-11352460D02*
X8548753Y-11361984D01*
X8548753Y-11361984D02*
X8539229Y-11352460D01*
X8539229Y-11352460D02*
X8548753Y-11342936D01*
X8548753Y-11342936D02*
X8548753Y-11361984D01*
X8682086Y-11161984D02*
X8701134Y-11161984D01*
X8701134Y-11161984D02*
X8720182Y-11171508D01*
X8720182Y-11171508D02*
X8729705Y-11181031D01*
X8729705Y-11181031D02*
X8739229Y-11200079D01*
X8739229Y-11200079D02*
X8748753Y-11238174D01*
X8748753Y-11238174D02*
X8748753Y-11285793D01*
X8748753Y-11285793D02*
X8739229Y-11323888D01*
X8739229Y-11323888D02*
X8729705Y-11342936D01*
X8729705Y-11342936D02*
X8720182Y-11352460D01*
X8720182Y-11352460D02*
X8701134Y-11361984D01*
X8701134Y-11361984D02*
X8682086Y-11361984D01*
X8682086Y-11361984D02*
X8663039Y-11352460D01*
X8663039Y-11352460D02*
X8653515Y-11342936D01*
X8653515Y-11342936D02*
X8643991Y-11323888D01*
X8643991Y-11323888D02*
X8634467Y-11285793D01*
X8634467Y-11285793D02*
X8634467Y-11238174D01*
X8634467Y-11238174D02*
X8643991Y-11200079D01*
X8643991Y-11200079D02*
X8653515Y-11181031D01*
X8653515Y-11181031D02*
X8663039Y-11171508D01*
X8663039Y-11171508D02*
X8682086Y-11161984D01*
X8872563Y-11161984D02*
X8891610Y-11161984D01*
X8891610Y-11161984D02*
X8910658Y-11171508D01*
X8910658Y-11171508D02*
X8920182Y-11181031D01*
X8920182Y-11181031D02*
X8929705Y-11200079D01*
X8929705Y-11200079D02*
X8939229Y-11238174D01*
X8939229Y-11238174D02*
X8939229Y-11285793D01*
X8939229Y-11285793D02*
X8929705Y-11323888D01*
X8929705Y-11323888D02*
X8920182Y-11342936D01*
X8920182Y-11342936D02*
X8910658Y-11352460D01*
X8910658Y-11352460D02*
X8891610Y-11361984D01*
X8891610Y-11361984D02*
X8872563Y-11361984D01*
X8872563Y-11361984D02*
X8853515Y-11352460D01*
X8853515Y-11352460D02*
X8843991Y-11342936D01*
X8843991Y-11342936D02*
X8834467Y-11323888D01*
X8834467Y-11323888D02*
X8824944Y-11285793D01*
X8824944Y-11285793D02*
X8824944Y-11238174D01*
X8824944Y-11238174D02*
X8834467Y-11200079D01*
X8834467Y-11200079D02*
X8843991Y-11181031D01*
X8843991Y-11181031D02*
X8853515Y-11171508D01*
X8853515Y-11171508D02*
X8872563Y-11161984D01*
X9063039Y-11161984D02*
X9082086Y-11161984D01*
X9082086Y-11161984D02*
X9101134Y-11171508D01*
X9101134Y-11171508D02*
X9110658Y-11181031D01*
X9110658Y-11181031D02*
X9120182Y-11200079D01*
X9120182Y-11200079D02*
X9129705Y-11238174D01*
X9129705Y-11238174D02*
X9129705Y-11285793D01*
X9129705Y-11285793D02*
X9120182Y-11323888D01*
X9120182Y-11323888D02*
X9110658Y-11342936D01*
X9110658Y-11342936D02*
X9101134Y-11352460D01*
X9101134Y-11352460D02*
X9082086Y-11361984D01*
X9082086Y-11361984D02*
X9063039Y-11361984D01*
X9063039Y-11361984D02*
X9043991Y-11352460D01*
X9043991Y-11352460D02*
X9034467Y-11342936D01*
X9034467Y-11342936D02*
X9024944Y-11323888D01*
X9024944Y-11323888D02*
X9015420Y-11285793D01*
X9015420Y-11285793D02*
X9015420Y-11238174D01*
X9015420Y-11238174D02*
X9024944Y-11200079D01*
X9024944Y-11200079D02*
X9034467Y-11181031D01*
X9034467Y-11181031D02*
X9043991Y-11171508D01*
X9043991Y-11171508D02*
X9063039Y-11161984D01*
X9215420Y-11361984D02*
X9215420Y-11228650D01*
X9215420Y-11247698D02*
X9224944Y-11238174D01*
X9224944Y-11238174D02*
X9243991Y-11228650D01*
X9243991Y-11228650D02*
X9272563Y-11228650D01*
X9272563Y-11228650D02*
X9291610Y-11238174D01*
X9291610Y-11238174D02*
X9301134Y-11257222D01*
X9301134Y-11257222D02*
X9301134Y-11361984D01*
X9301134Y-11257222D02*
X9310658Y-11238174D01*
X9310658Y-11238174D02*
X9329705Y-11228650D01*
X9329705Y-11228650D02*
X9358277Y-11228650D01*
X9358277Y-11228650D02*
X9377325Y-11238174D01*
X9377325Y-11238174D02*
X9386848Y-11257222D01*
X9386848Y-11257222D02*
X9386848Y-11361984D01*
X9482086Y-11361984D02*
X9482086Y-11228650D01*
X9482086Y-11247698D02*
X9491610Y-11238174D01*
X9491610Y-11238174D02*
X9510658Y-11228650D01*
X9510658Y-11228650D02*
X9539229Y-11228650D01*
X9539229Y-11228650D02*
X9558277Y-11238174D01*
X9558277Y-11238174D02*
X9567801Y-11257222D01*
X9567801Y-11257222D02*
X9567801Y-11361984D01*
X9567801Y-11257222D02*
X9577325Y-11238174D01*
X9577325Y-11238174D02*
X9596372Y-11228650D01*
X9596372Y-11228650D02*
X9624944Y-11228650D01*
X9624944Y-11228650D02*
X9643991Y-11238174D01*
X9643991Y-11238174D02*
X9653515Y-11257222D01*
X9653515Y-11257222D02*
X9653515Y-11361984D01*
X10043991Y-11152460D02*
X9872563Y-11409603D01*
X10301134Y-11161984D02*
X10320182Y-11161984D01*
X10320182Y-11161984D02*
X10339229Y-11171508D01*
X10339229Y-11171508D02*
X10348753Y-11181031D01*
X10348753Y-11181031D02*
X10358277Y-11200079D01*
X10358277Y-11200079D02*
X10367801Y-11238174D01*
X10367801Y-11238174D02*
X10367801Y-11285793D01*
X10367801Y-11285793D02*
X10358277Y-11323888D01*
X10358277Y-11323888D02*
X10348753Y-11342936D01*
X10348753Y-11342936D02*
X10339229Y-11352460D01*
X10339229Y-11352460D02*
X10320182Y-11361984D01*
X10320182Y-11361984D02*
X10301134Y-11361984D01*
X10301134Y-11361984D02*
X10282087Y-11352460D01*
X10282087Y-11352460D02*
X10272563Y-11342936D01*
X10272563Y-11342936D02*
X10263039Y-11323888D01*
X10263039Y-11323888D02*
X10253515Y-11285793D01*
X10253515Y-11285793D02*
X10253515Y-11238174D01*
X10253515Y-11238174D02*
X10263039Y-11200079D01*
X10263039Y-11200079D02*
X10272563Y-11181031D01*
X10272563Y-11181031D02*
X10282087Y-11171508D01*
X10282087Y-11171508D02*
X10301134Y-11161984D01*
X10453515Y-11342936D02*
X10463039Y-11352460D01*
X10463039Y-11352460D02*
X10453515Y-11361984D01*
X10453515Y-11361984D02*
X10443991Y-11352460D01*
X10443991Y-11352460D02*
X10453515Y-11342936D01*
X10453515Y-11342936D02*
X10453515Y-11361984D01*
X10586848Y-11161984D02*
X10605896Y-11161984D01*
X10605896Y-11161984D02*
X10624944Y-11171508D01*
X10624944Y-11171508D02*
X10634468Y-11181031D01*
X10634468Y-11181031D02*
X10643991Y-11200079D01*
X10643991Y-11200079D02*
X10653515Y-11238174D01*
X10653515Y-11238174D02*
X10653515Y-11285793D01*
X10653515Y-11285793D02*
X10643991Y-11323888D01*
X10643991Y-11323888D02*
X10634468Y-11342936D01*
X10634468Y-11342936D02*
X10624944Y-11352460D01*
X10624944Y-11352460D02*
X10605896Y-11361984D01*
X10605896Y-11361984D02*
X10586848Y-11361984D01*
X10586848Y-11361984D02*
X10567801Y-11352460D01*
X10567801Y-11352460D02*
X10558277Y-11342936D01*
X10558277Y-11342936D02*
X10548753Y-11323888D01*
X10548753Y-11323888D02*
X10539229Y-11285793D01*
X10539229Y-11285793D02*
X10539229Y-11238174D01*
X10539229Y-11238174D02*
X10548753Y-11200079D01*
X10548753Y-11200079D02*
X10558277Y-11181031D01*
X10558277Y-11181031D02*
X10567801Y-11171508D01*
X10567801Y-11171508D02*
X10586848Y-11161984D01*
X10720182Y-11161984D02*
X10843991Y-11161984D01*
X10843991Y-11161984D02*
X10777325Y-11238174D01*
X10777325Y-11238174D02*
X10805896Y-11238174D01*
X10805896Y-11238174D02*
X10824944Y-11247698D01*
X10824944Y-11247698D02*
X10834468Y-11257222D01*
X10834468Y-11257222D02*
X10843991Y-11276269D01*
X10843991Y-11276269D02*
X10843991Y-11323888D01*
X10843991Y-11323888D02*
X10834468Y-11342936D01*
X10834468Y-11342936D02*
X10824944Y-11352460D01*
X10824944Y-11352460D02*
X10805896Y-11361984D01*
X10805896Y-11361984D02*
X10748753Y-11361984D01*
X10748753Y-11361984D02*
X10729706Y-11352460D01*
X10729706Y-11352460D02*
X10720182Y-11342936D01*
X10939229Y-11361984D02*
X10977325Y-11361984D01*
X10977325Y-11361984D02*
X10996372Y-11352460D01*
X10996372Y-11352460D02*
X11005896Y-11342936D01*
X11005896Y-11342936D02*
X11024944Y-11314365D01*
X11024944Y-11314365D02*
X11034468Y-11276269D01*
X11034468Y-11276269D02*
X11034468Y-11200079D01*
X11034468Y-11200079D02*
X11024944Y-11181031D01*
X11024944Y-11181031D02*
X11015420Y-11171508D01*
X11015420Y-11171508D02*
X10996372Y-11161984D01*
X10996372Y-11161984D02*
X10958277Y-11161984D01*
X10958277Y-11161984D02*
X10939229Y-11171508D01*
X10939229Y-11171508D02*
X10929706Y-11181031D01*
X10929706Y-11181031D02*
X10920182Y-11200079D01*
X10920182Y-11200079D02*
X10920182Y-11247698D01*
X10920182Y-11247698D02*
X10929706Y-11266746D01*
X10929706Y-11266746D02*
X10939229Y-11276269D01*
X10939229Y-11276269D02*
X10958277Y-11285793D01*
X10958277Y-11285793D02*
X10996372Y-11285793D01*
X10996372Y-11285793D02*
X11015420Y-11276269D01*
X11015420Y-11276269D02*
X11024944Y-11266746D01*
X11024944Y-11266746D02*
X11034468Y-11247698D01*
X11205896Y-11228650D02*
X11205896Y-11361984D01*
X11158277Y-11152460D02*
X11110658Y-11295317D01*
X11110658Y-11295317D02*
X11234467Y-11295317D01*
X11301134Y-11161984D02*
X11301134Y-11200079D01*
X11377325Y-11161984D02*
X11377325Y-11200079D01*
X11672563Y-11438174D02*
X11663039Y-11428650D01*
X11663039Y-11428650D02*
X11643991Y-11400079D01*
X11643991Y-11400079D02*
X11634468Y-11381031D01*
X11634468Y-11381031D02*
X11624944Y-11352460D01*
X11624944Y-11352460D02*
X11615420Y-11304841D01*
X11615420Y-11304841D02*
X11615420Y-11266746D01*
X11615420Y-11266746D02*
X11624944Y-11219127D01*
X11624944Y-11219127D02*
X11634468Y-11190555D01*
X11634468Y-11190555D02*
X11643991Y-11171508D01*
X11643991Y-11171508D02*
X11663039Y-11142936D01*
X11663039Y-11142936D02*
X11672563Y-11133412D01*
X11834468Y-11161984D02*
X11796372Y-11161984D01*
X11796372Y-11161984D02*
X11777325Y-11171508D01*
X11777325Y-11171508D02*
X11767801Y-11181031D01*
X11767801Y-11181031D02*
X11748753Y-11209603D01*
X11748753Y-11209603D02*
X11739229Y-11247698D01*
X11739229Y-11247698D02*
X11739229Y-11323888D01*
X11739229Y-11323888D02*
X11748753Y-11342936D01*
X11748753Y-11342936D02*
X11758277Y-11352460D01*
X11758277Y-11352460D02*
X11777325Y-11361984D01*
X11777325Y-11361984D02*
X11815420Y-11361984D01*
X11815420Y-11361984D02*
X11834468Y-11352460D01*
X11834468Y-11352460D02*
X11843991Y-11342936D01*
X11843991Y-11342936D02*
X11853515Y-11323888D01*
X11853515Y-11323888D02*
X11853515Y-11276269D01*
X11853515Y-11276269D02*
X11843991Y-11257222D01*
X11843991Y-11257222D02*
X11834468Y-11247698D01*
X11834468Y-11247698D02*
X11815420Y-11238174D01*
X11815420Y-11238174D02*
X11777325Y-11238174D01*
X11777325Y-11238174D02*
X11758277Y-11247698D01*
X11758277Y-11247698D02*
X11748753Y-11257222D01*
X11748753Y-11257222D02*
X11739229Y-11276269D01*
X12091610Y-11361984D02*
X12091610Y-11161984D01*
X12177325Y-11361984D02*
X12177325Y-11257222D01*
X12177325Y-11257222D02*
X12167801Y-11238174D01*
X12167801Y-11238174D02*
X12148753Y-11228650D01*
X12148753Y-11228650D02*
X12120182Y-11228650D01*
X12120182Y-11228650D02*
X12101134Y-11238174D01*
X12101134Y-11238174D02*
X12091610Y-11247698D01*
X12301134Y-11361984D02*
X12282087Y-11352460D01*
X12282087Y-11352460D02*
X12272563Y-11342936D01*
X12272563Y-11342936D02*
X12263039Y-11323888D01*
X12263039Y-11323888D02*
X12263039Y-11266746D01*
X12263039Y-11266746D02*
X12272563Y-11247698D01*
X12272563Y-11247698D02*
X12282087Y-11238174D01*
X12282087Y-11238174D02*
X12301134Y-11228650D01*
X12301134Y-11228650D02*
X12329706Y-11228650D01*
X12329706Y-11228650D02*
X12348753Y-11238174D01*
X12348753Y-11238174D02*
X12358277Y-11247698D01*
X12358277Y-11247698D02*
X12367801Y-11266746D01*
X12367801Y-11266746D02*
X12367801Y-11323888D01*
X12367801Y-11323888D02*
X12358277Y-11342936D01*
X12358277Y-11342936D02*
X12348753Y-11352460D01*
X12348753Y-11352460D02*
X12329706Y-11361984D01*
X12329706Y-11361984D02*
X12301134Y-11361984D01*
X12482087Y-11361984D02*
X12463039Y-11352460D01*
X12463039Y-11352460D02*
X12453515Y-11333412D01*
X12453515Y-11333412D02*
X12453515Y-11161984D01*
X12634468Y-11352460D02*
X12615420Y-11361984D01*
X12615420Y-11361984D02*
X12577325Y-11361984D01*
X12577325Y-11361984D02*
X12558277Y-11352460D01*
X12558277Y-11352460D02*
X12548753Y-11333412D01*
X12548753Y-11333412D02*
X12548753Y-11257222D01*
X12548753Y-11257222D02*
X12558277Y-11238174D01*
X12558277Y-11238174D02*
X12577325Y-11228650D01*
X12577325Y-11228650D02*
X12615420Y-11228650D01*
X12615420Y-11228650D02*
X12634468Y-11238174D01*
X12634468Y-11238174D02*
X12643991Y-11257222D01*
X12643991Y-11257222D02*
X12643991Y-11276269D01*
X12643991Y-11276269D02*
X12548753Y-11295317D01*
X12720182Y-11352460D02*
X12739230Y-11361984D01*
X12739230Y-11361984D02*
X12777325Y-11361984D01*
X12777325Y-11361984D02*
X12796372Y-11352460D01*
X12796372Y-11352460D02*
X12805896Y-11333412D01*
X12805896Y-11333412D02*
X12805896Y-11323888D01*
X12805896Y-11323888D02*
X12796372Y-11304841D01*
X12796372Y-11304841D02*
X12777325Y-11295317D01*
X12777325Y-11295317D02*
X12748753Y-11295317D01*
X12748753Y-11295317D02*
X12729706Y-11285793D01*
X12729706Y-11285793D02*
X12720182Y-11266746D01*
X12720182Y-11266746D02*
X12720182Y-11257222D01*
X12720182Y-11257222D02*
X12729706Y-11238174D01*
X12729706Y-11238174D02*
X12748753Y-11228650D01*
X12748753Y-11228650D02*
X12777325Y-11228650D01*
X12777325Y-11228650D02*
X12796372Y-11238174D01*
X12872563Y-11438174D02*
X12882087Y-11428650D01*
X12882087Y-11428650D02*
X12901134Y-11400079D01*
X12901134Y-11400079D02*
X12910658Y-11381031D01*
X12910658Y-11381031D02*
X12920182Y-11352460D01*
X12920182Y-11352460D02*
X12929706Y-11304841D01*
X12929706Y-11304841D02*
X12929706Y-11266746D01*
X12929706Y-11266746D02*
X12920182Y-11219127D01*
X12920182Y-11219127D02*
X12910658Y-11190555D01*
X12910658Y-11190555D02*
X12901134Y-11171508D01*
X12901134Y-11171508D02*
X12882087Y-11142936D01*
X12882087Y-11142936D02*
X12872563Y-11133412D01*
D13*
X8081391Y-11573391D02*
X8081391Y-11495609D01*
X8003609Y-11495609D01*
X8003609Y-11573391D01*
X8081391Y-11573391D01*
D11*
X8463039Y-11625984D02*
X8348753Y-11625984D01*
X8405896Y-11625984D02*
X8405896Y-11425984D01*
X8405896Y-11425984D02*
X8386848Y-11454555D01*
X8386848Y-11454555D02*
X8367801Y-11473603D01*
X8367801Y-11473603D02*
X8348753Y-11483127D01*
X8548753Y-11606936D02*
X8558277Y-11616460D01*
X8558277Y-11616460D02*
X8548753Y-11625984D01*
X8548753Y-11625984D02*
X8539229Y-11616460D01*
X8539229Y-11616460D02*
X8548753Y-11606936D01*
X8548753Y-11606936D02*
X8548753Y-11625984D01*
X8748753Y-11625984D02*
X8634467Y-11625984D01*
X8691610Y-11625984D02*
X8691610Y-11425984D01*
X8691610Y-11425984D02*
X8672563Y-11454555D01*
X8672563Y-11454555D02*
X8653515Y-11473603D01*
X8653515Y-11473603D02*
X8634467Y-11483127D01*
X8872563Y-11425984D02*
X8891610Y-11425984D01*
X8891610Y-11425984D02*
X8910658Y-11435508D01*
X8910658Y-11435508D02*
X8920182Y-11445031D01*
X8920182Y-11445031D02*
X8929705Y-11464079D01*
X8929705Y-11464079D02*
X8939229Y-11502174D01*
X8939229Y-11502174D02*
X8939229Y-11549793D01*
X8939229Y-11549793D02*
X8929705Y-11587888D01*
X8929705Y-11587888D02*
X8920182Y-11606936D01*
X8920182Y-11606936D02*
X8910658Y-11616460D01*
X8910658Y-11616460D02*
X8891610Y-11625984D01*
X8891610Y-11625984D02*
X8872563Y-11625984D01*
X8872563Y-11625984D02*
X8853515Y-11616460D01*
X8853515Y-11616460D02*
X8843991Y-11606936D01*
X8843991Y-11606936D02*
X8834467Y-11587888D01*
X8834467Y-11587888D02*
X8824944Y-11549793D01*
X8824944Y-11549793D02*
X8824944Y-11502174D01*
X8824944Y-11502174D02*
X8834467Y-11464079D01*
X8834467Y-11464079D02*
X8843991Y-11445031D01*
X8843991Y-11445031D02*
X8853515Y-11435508D01*
X8853515Y-11435508D02*
X8872563Y-11425984D01*
X9063039Y-11425984D02*
X9082086Y-11425984D01*
X9082086Y-11425984D02*
X9101134Y-11435508D01*
X9101134Y-11435508D02*
X9110658Y-11445031D01*
X9110658Y-11445031D02*
X9120182Y-11464079D01*
X9120182Y-11464079D02*
X9129705Y-11502174D01*
X9129705Y-11502174D02*
X9129705Y-11549793D01*
X9129705Y-11549793D02*
X9120182Y-11587888D01*
X9120182Y-11587888D02*
X9110658Y-11606936D01*
X9110658Y-11606936D02*
X9101134Y-11616460D01*
X9101134Y-11616460D02*
X9082086Y-11625984D01*
X9082086Y-11625984D02*
X9063039Y-11625984D01*
X9063039Y-11625984D02*
X9043991Y-11616460D01*
X9043991Y-11616460D02*
X9034467Y-11606936D01*
X9034467Y-11606936D02*
X9024944Y-11587888D01*
X9024944Y-11587888D02*
X9015420Y-11549793D01*
X9015420Y-11549793D02*
X9015420Y-11502174D01*
X9015420Y-11502174D02*
X9024944Y-11464079D01*
X9024944Y-11464079D02*
X9034467Y-11445031D01*
X9034467Y-11445031D02*
X9043991Y-11435508D01*
X9043991Y-11435508D02*
X9063039Y-11425984D01*
X9215420Y-11625984D02*
X9215420Y-11492650D01*
X9215420Y-11511698D02*
X9224944Y-11502174D01*
X9224944Y-11502174D02*
X9243991Y-11492650D01*
X9243991Y-11492650D02*
X9272563Y-11492650D01*
X9272563Y-11492650D02*
X9291610Y-11502174D01*
X9291610Y-11502174D02*
X9301134Y-11521222D01*
X9301134Y-11521222D02*
X9301134Y-11625984D01*
X9301134Y-11521222D02*
X9310658Y-11502174D01*
X9310658Y-11502174D02*
X9329705Y-11492650D01*
X9329705Y-11492650D02*
X9358277Y-11492650D01*
X9358277Y-11492650D02*
X9377325Y-11502174D01*
X9377325Y-11502174D02*
X9386848Y-11521222D01*
X9386848Y-11521222D02*
X9386848Y-11625984D01*
X9482086Y-11625984D02*
X9482086Y-11492650D01*
X9482086Y-11511698D02*
X9491610Y-11502174D01*
X9491610Y-11502174D02*
X9510658Y-11492650D01*
X9510658Y-11492650D02*
X9539229Y-11492650D01*
X9539229Y-11492650D02*
X9558277Y-11502174D01*
X9558277Y-11502174D02*
X9567801Y-11521222D01*
X9567801Y-11521222D02*
X9567801Y-11625984D01*
X9567801Y-11521222D02*
X9577325Y-11502174D01*
X9577325Y-11502174D02*
X9596372Y-11492650D01*
X9596372Y-11492650D02*
X9624944Y-11492650D01*
X9624944Y-11492650D02*
X9643991Y-11502174D01*
X9643991Y-11502174D02*
X9653515Y-11521222D01*
X9653515Y-11521222D02*
X9653515Y-11625984D01*
X10043991Y-11416460D02*
X9872563Y-11673603D01*
X10301134Y-11425984D02*
X10320182Y-11425984D01*
X10320182Y-11425984D02*
X10339229Y-11435508D01*
X10339229Y-11435508D02*
X10348753Y-11445031D01*
X10348753Y-11445031D02*
X10358277Y-11464079D01*
X10358277Y-11464079D02*
X10367801Y-11502174D01*
X10367801Y-11502174D02*
X10367801Y-11549793D01*
X10367801Y-11549793D02*
X10358277Y-11587888D01*
X10358277Y-11587888D02*
X10348753Y-11606936D01*
X10348753Y-11606936D02*
X10339229Y-11616460D01*
X10339229Y-11616460D02*
X10320182Y-11625984D01*
X10320182Y-11625984D02*
X10301134Y-11625984D01*
X10301134Y-11625984D02*
X10282087Y-11616460D01*
X10282087Y-11616460D02*
X10272563Y-11606936D01*
X10272563Y-11606936D02*
X10263039Y-11587888D01*
X10263039Y-11587888D02*
X10253515Y-11549793D01*
X10253515Y-11549793D02*
X10253515Y-11502174D01*
X10253515Y-11502174D02*
X10263039Y-11464079D01*
X10263039Y-11464079D02*
X10272563Y-11445031D01*
X10272563Y-11445031D02*
X10282087Y-11435508D01*
X10282087Y-11435508D02*
X10301134Y-11425984D01*
X10453515Y-11606936D02*
X10463039Y-11616460D01*
X10463039Y-11616460D02*
X10453515Y-11625984D01*
X10453515Y-11625984D02*
X10443991Y-11616460D01*
X10443991Y-11616460D02*
X10453515Y-11606936D01*
X10453515Y-11606936D02*
X10453515Y-11625984D01*
X10586848Y-11425984D02*
X10605896Y-11425984D01*
X10605896Y-11425984D02*
X10624944Y-11435508D01*
X10624944Y-11435508D02*
X10634468Y-11445031D01*
X10634468Y-11445031D02*
X10643991Y-11464079D01*
X10643991Y-11464079D02*
X10653515Y-11502174D01*
X10653515Y-11502174D02*
X10653515Y-11549793D01*
X10653515Y-11549793D02*
X10643991Y-11587888D01*
X10643991Y-11587888D02*
X10634468Y-11606936D01*
X10634468Y-11606936D02*
X10624944Y-11616460D01*
X10624944Y-11616460D02*
X10605896Y-11625984D01*
X10605896Y-11625984D02*
X10586848Y-11625984D01*
X10586848Y-11625984D02*
X10567801Y-11616460D01*
X10567801Y-11616460D02*
X10558277Y-11606936D01*
X10558277Y-11606936D02*
X10548753Y-11587888D01*
X10548753Y-11587888D02*
X10539229Y-11549793D01*
X10539229Y-11549793D02*
X10539229Y-11502174D01*
X10539229Y-11502174D02*
X10548753Y-11464079D01*
X10548753Y-11464079D02*
X10558277Y-11445031D01*
X10558277Y-11445031D02*
X10567801Y-11435508D01*
X10567801Y-11435508D02*
X10586848Y-11425984D01*
X10824944Y-11492650D02*
X10824944Y-11625984D01*
X10777325Y-11416460D02*
X10729706Y-11559317D01*
X10729706Y-11559317D02*
X10853515Y-11559317D01*
X10910658Y-11425984D02*
X11034468Y-11425984D01*
X11034468Y-11425984D02*
X10967801Y-11502174D01*
X10967801Y-11502174D02*
X10996372Y-11502174D01*
X10996372Y-11502174D02*
X11015420Y-11511698D01*
X11015420Y-11511698D02*
X11024944Y-11521222D01*
X11024944Y-11521222D02*
X11034468Y-11540269D01*
X11034468Y-11540269D02*
X11034468Y-11587888D01*
X11034468Y-11587888D02*
X11024944Y-11606936D01*
X11024944Y-11606936D02*
X11015420Y-11616460D01*
X11015420Y-11616460D02*
X10996372Y-11625984D01*
X10996372Y-11625984D02*
X10939229Y-11625984D01*
X10939229Y-11625984D02*
X10920182Y-11616460D01*
X10920182Y-11616460D02*
X10910658Y-11606936D01*
X11101134Y-11425984D02*
X11224944Y-11425984D01*
X11224944Y-11425984D02*
X11158277Y-11502174D01*
X11158277Y-11502174D02*
X11186848Y-11502174D01*
X11186848Y-11502174D02*
X11205896Y-11511698D01*
X11205896Y-11511698D02*
X11215420Y-11521222D01*
X11215420Y-11521222D02*
X11224944Y-11540269D01*
X11224944Y-11540269D02*
X11224944Y-11587888D01*
X11224944Y-11587888D02*
X11215420Y-11606936D01*
X11215420Y-11606936D02*
X11205896Y-11616460D01*
X11205896Y-11616460D02*
X11186848Y-11625984D01*
X11186848Y-11625984D02*
X11129706Y-11625984D01*
X11129706Y-11625984D02*
X11110658Y-11616460D01*
X11110658Y-11616460D02*
X11101134Y-11606936D01*
X11301134Y-11425984D02*
X11301134Y-11464079D01*
X11377325Y-11425984D02*
X11377325Y-11464079D01*
X11672563Y-11702174D02*
X11663039Y-11692650D01*
X11663039Y-11692650D02*
X11643991Y-11664079D01*
X11643991Y-11664079D02*
X11634468Y-11645031D01*
X11634468Y-11645031D02*
X11624944Y-11616460D01*
X11624944Y-11616460D02*
X11615420Y-11568841D01*
X11615420Y-11568841D02*
X11615420Y-11530746D01*
X11615420Y-11530746D02*
X11624944Y-11483127D01*
X11624944Y-11483127D02*
X11634468Y-11454555D01*
X11634468Y-11454555D02*
X11643991Y-11435508D01*
X11643991Y-11435508D02*
X11663039Y-11406936D01*
X11663039Y-11406936D02*
X11672563Y-11397412D01*
X11834468Y-11492650D02*
X11834468Y-11625984D01*
X11786848Y-11416460D02*
X11739229Y-11559317D01*
X11739229Y-11559317D02*
X11863039Y-11559317D01*
X12091610Y-11625984D02*
X12091610Y-11425984D01*
X12177325Y-11625984D02*
X12177325Y-11521222D01*
X12177325Y-11521222D02*
X12167801Y-11502174D01*
X12167801Y-11502174D02*
X12148753Y-11492650D01*
X12148753Y-11492650D02*
X12120182Y-11492650D01*
X12120182Y-11492650D02*
X12101134Y-11502174D01*
X12101134Y-11502174D02*
X12091610Y-11511698D01*
X12301134Y-11625984D02*
X12282087Y-11616460D01*
X12282087Y-11616460D02*
X12272563Y-11606936D01*
X12272563Y-11606936D02*
X12263039Y-11587888D01*
X12263039Y-11587888D02*
X12263039Y-11530746D01*
X12263039Y-11530746D02*
X12272563Y-11511698D01*
X12272563Y-11511698D02*
X12282087Y-11502174D01*
X12282087Y-11502174D02*
X12301134Y-11492650D01*
X12301134Y-11492650D02*
X12329706Y-11492650D01*
X12329706Y-11492650D02*
X12348753Y-11502174D01*
X12348753Y-11502174D02*
X12358277Y-11511698D01*
X12358277Y-11511698D02*
X12367801Y-11530746D01*
X12367801Y-11530746D02*
X12367801Y-11587888D01*
X12367801Y-11587888D02*
X12358277Y-11606936D01*
X12358277Y-11606936D02*
X12348753Y-11616460D01*
X12348753Y-11616460D02*
X12329706Y-11625984D01*
X12329706Y-11625984D02*
X12301134Y-11625984D01*
X12482087Y-11625984D02*
X12463039Y-11616460D01*
X12463039Y-11616460D02*
X12453515Y-11597412D01*
X12453515Y-11597412D02*
X12453515Y-11425984D01*
X12634468Y-11616460D02*
X12615420Y-11625984D01*
X12615420Y-11625984D02*
X12577325Y-11625984D01*
X12577325Y-11625984D02*
X12558277Y-11616460D01*
X12558277Y-11616460D02*
X12548753Y-11597412D01*
X12548753Y-11597412D02*
X12548753Y-11521222D01*
X12548753Y-11521222D02*
X12558277Y-11502174D01*
X12558277Y-11502174D02*
X12577325Y-11492650D01*
X12577325Y-11492650D02*
X12615420Y-11492650D01*
X12615420Y-11492650D02*
X12634468Y-11502174D01*
X12634468Y-11502174D02*
X12643991Y-11521222D01*
X12643991Y-11521222D02*
X12643991Y-11540269D01*
X12643991Y-11540269D02*
X12548753Y-11559317D01*
X12720182Y-11616460D02*
X12739230Y-11625984D01*
X12739230Y-11625984D02*
X12777325Y-11625984D01*
X12777325Y-11625984D02*
X12796372Y-11616460D01*
X12796372Y-11616460D02*
X12805896Y-11597412D01*
X12805896Y-11597412D02*
X12805896Y-11587888D01*
X12805896Y-11587888D02*
X12796372Y-11568841D01*
X12796372Y-11568841D02*
X12777325Y-11559317D01*
X12777325Y-11559317D02*
X12748753Y-11559317D01*
X12748753Y-11559317D02*
X12729706Y-11549793D01*
X12729706Y-11549793D02*
X12720182Y-11530746D01*
X12720182Y-11530746D02*
X12720182Y-11521222D01*
X12720182Y-11521222D02*
X12729706Y-11502174D01*
X12729706Y-11502174D02*
X12748753Y-11492650D01*
X12748753Y-11492650D02*
X12777325Y-11492650D01*
X12777325Y-11492650D02*
X12796372Y-11502174D01*
X12872563Y-11702174D02*
X12882087Y-11692650D01*
X12882087Y-11692650D02*
X12901134Y-11664079D01*
X12901134Y-11664079D02*
X12910658Y-11645031D01*
X12910658Y-11645031D02*
X12920182Y-11616460D01*
X12920182Y-11616460D02*
X12929706Y-11568841D01*
X12929706Y-11568841D02*
X12929706Y-11530746D01*
X12929706Y-11530746D02*
X12920182Y-11483127D01*
X12920182Y-11483127D02*
X12910658Y-11454555D01*
X12910658Y-11454555D02*
X12901134Y-11435508D01*
X12901134Y-11435508D02*
X12882087Y-11406936D01*
X12882087Y-11406936D02*
X12872563Y-11397412D01*
D14*
X8032500Y-11863500D02*
X8097500Y-11798500D01*
X8032500Y-11733500D01*
X7967500Y-11798500D01*
X8032500Y-11863500D01*
D11*
X8463039Y-11889984D02*
X8348753Y-11889984D01*
X8405896Y-11889984D02*
X8405896Y-11689984D01*
X8405896Y-11689984D02*
X8386848Y-11718555D01*
X8386848Y-11718555D02*
X8367801Y-11737603D01*
X8367801Y-11737603D02*
X8348753Y-11747127D01*
X8548753Y-11870936D02*
X8558277Y-11880460D01*
X8558277Y-11880460D02*
X8548753Y-11889984D01*
X8548753Y-11889984D02*
X8539229Y-11880460D01*
X8539229Y-11880460D02*
X8548753Y-11870936D01*
X8548753Y-11870936D02*
X8548753Y-11889984D01*
X8624944Y-11689984D02*
X8748753Y-11689984D01*
X8748753Y-11689984D02*
X8682086Y-11766174D01*
X8682086Y-11766174D02*
X8710658Y-11766174D01*
X8710658Y-11766174D02*
X8729705Y-11775698D01*
X8729705Y-11775698D02*
X8739229Y-11785222D01*
X8739229Y-11785222D02*
X8748753Y-11804269D01*
X8748753Y-11804269D02*
X8748753Y-11851888D01*
X8748753Y-11851888D02*
X8739229Y-11870936D01*
X8739229Y-11870936D02*
X8729705Y-11880460D01*
X8729705Y-11880460D02*
X8710658Y-11889984D01*
X8710658Y-11889984D02*
X8653515Y-11889984D01*
X8653515Y-11889984D02*
X8634467Y-11880460D01*
X8634467Y-11880460D02*
X8624944Y-11870936D01*
X8872563Y-11689984D02*
X8891610Y-11689984D01*
X8891610Y-11689984D02*
X8910658Y-11699508D01*
X8910658Y-11699508D02*
X8920182Y-11709031D01*
X8920182Y-11709031D02*
X8929705Y-11728079D01*
X8929705Y-11728079D02*
X8939229Y-11766174D01*
X8939229Y-11766174D02*
X8939229Y-11813793D01*
X8939229Y-11813793D02*
X8929705Y-11851888D01*
X8929705Y-11851888D02*
X8920182Y-11870936D01*
X8920182Y-11870936D02*
X8910658Y-11880460D01*
X8910658Y-11880460D02*
X8891610Y-11889984D01*
X8891610Y-11889984D02*
X8872563Y-11889984D01*
X8872563Y-11889984D02*
X8853515Y-11880460D01*
X8853515Y-11880460D02*
X8843991Y-11870936D01*
X8843991Y-11870936D02*
X8834467Y-11851888D01*
X8834467Y-11851888D02*
X8824944Y-11813793D01*
X8824944Y-11813793D02*
X8824944Y-11766174D01*
X8824944Y-11766174D02*
X8834467Y-11728079D01*
X8834467Y-11728079D02*
X8843991Y-11709031D01*
X8843991Y-11709031D02*
X8853515Y-11699508D01*
X8853515Y-11699508D02*
X8872563Y-11689984D01*
X9063039Y-11689984D02*
X9082086Y-11689984D01*
X9082086Y-11689984D02*
X9101134Y-11699508D01*
X9101134Y-11699508D02*
X9110658Y-11709031D01*
X9110658Y-11709031D02*
X9120182Y-11728079D01*
X9120182Y-11728079D02*
X9129705Y-11766174D01*
X9129705Y-11766174D02*
X9129705Y-11813793D01*
X9129705Y-11813793D02*
X9120182Y-11851888D01*
X9120182Y-11851888D02*
X9110658Y-11870936D01*
X9110658Y-11870936D02*
X9101134Y-11880460D01*
X9101134Y-11880460D02*
X9082086Y-11889984D01*
X9082086Y-11889984D02*
X9063039Y-11889984D01*
X9063039Y-11889984D02*
X9043991Y-11880460D01*
X9043991Y-11880460D02*
X9034467Y-11870936D01*
X9034467Y-11870936D02*
X9024944Y-11851888D01*
X9024944Y-11851888D02*
X9015420Y-11813793D01*
X9015420Y-11813793D02*
X9015420Y-11766174D01*
X9015420Y-11766174D02*
X9024944Y-11728079D01*
X9024944Y-11728079D02*
X9034467Y-11709031D01*
X9034467Y-11709031D02*
X9043991Y-11699508D01*
X9043991Y-11699508D02*
X9063039Y-11689984D01*
X9215420Y-11889984D02*
X9215420Y-11756650D01*
X9215420Y-11775698D02*
X9224944Y-11766174D01*
X9224944Y-11766174D02*
X9243991Y-11756650D01*
X9243991Y-11756650D02*
X9272563Y-11756650D01*
X9272563Y-11756650D02*
X9291610Y-11766174D01*
X9291610Y-11766174D02*
X9301134Y-11785222D01*
X9301134Y-11785222D02*
X9301134Y-11889984D01*
X9301134Y-11785222D02*
X9310658Y-11766174D01*
X9310658Y-11766174D02*
X9329705Y-11756650D01*
X9329705Y-11756650D02*
X9358277Y-11756650D01*
X9358277Y-11756650D02*
X9377325Y-11766174D01*
X9377325Y-11766174D02*
X9386848Y-11785222D01*
X9386848Y-11785222D02*
X9386848Y-11889984D01*
X9482086Y-11889984D02*
X9482086Y-11756650D01*
X9482086Y-11775698D02*
X9491610Y-11766174D01*
X9491610Y-11766174D02*
X9510658Y-11756650D01*
X9510658Y-11756650D02*
X9539229Y-11756650D01*
X9539229Y-11756650D02*
X9558277Y-11766174D01*
X9558277Y-11766174D02*
X9567801Y-11785222D01*
X9567801Y-11785222D02*
X9567801Y-11889984D01*
X9567801Y-11785222D02*
X9577325Y-11766174D01*
X9577325Y-11766174D02*
X9596372Y-11756650D01*
X9596372Y-11756650D02*
X9624944Y-11756650D01*
X9624944Y-11756650D02*
X9643991Y-11766174D01*
X9643991Y-11766174D02*
X9653515Y-11785222D01*
X9653515Y-11785222D02*
X9653515Y-11889984D01*
X10043991Y-11680460D02*
X9872563Y-11937603D01*
X10301134Y-11689984D02*
X10320182Y-11689984D01*
X10320182Y-11689984D02*
X10339229Y-11699508D01*
X10339229Y-11699508D02*
X10348753Y-11709031D01*
X10348753Y-11709031D02*
X10358277Y-11728079D01*
X10358277Y-11728079D02*
X10367801Y-11766174D01*
X10367801Y-11766174D02*
X10367801Y-11813793D01*
X10367801Y-11813793D02*
X10358277Y-11851888D01*
X10358277Y-11851888D02*
X10348753Y-11870936D01*
X10348753Y-11870936D02*
X10339229Y-11880460D01*
X10339229Y-11880460D02*
X10320182Y-11889984D01*
X10320182Y-11889984D02*
X10301134Y-11889984D01*
X10301134Y-11889984D02*
X10282087Y-11880460D01*
X10282087Y-11880460D02*
X10272563Y-11870936D01*
X10272563Y-11870936D02*
X10263039Y-11851888D01*
X10263039Y-11851888D02*
X10253515Y-11813793D01*
X10253515Y-11813793D02*
X10253515Y-11766174D01*
X10253515Y-11766174D02*
X10263039Y-11728079D01*
X10263039Y-11728079D02*
X10272563Y-11709031D01*
X10272563Y-11709031D02*
X10282087Y-11699508D01*
X10282087Y-11699508D02*
X10301134Y-11689984D01*
X10453515Y-11870936D02*
X10463039Y-11880460D01*
X10463039Y-11880460D02*
X10453515Y-11889984D01*
X10453515Y-11889984D02*
X10443991Y-11880460D01*
X10443991Y-11880460D02*
X10453515Y-11870936D01*
X10453515Y-11870936D02*
X10453515Y-11889984D01*
X10586848Y-11689984D02*
X10605896Y-11689984D01*
X10605896Y-11689984D02*
X10624944Y-11699508D01*
X10624944Y-11699508D02*
X10634468Y-11709031D01*
X10634468Y-11709031D02*
X10643991Y-11728079D01*
X10643991Y-11728079D02*
X10653515Y-11766174D01*
X10653515Y-11766174D02*
X10653515Y-11813793D01*
X10653515Y-11813793D02*
X10643991Y-11851888D01*
X10643991Y-11851888D02*
X10634468Y-11870936D01*
X10634468Y-11870936D02*
X10624944Y-11880460D01*
X10624944Y-11880460D02*
X10605896Y-11889984D01*
X10605896Y-11889984D02*
X10586848Y-11889984D01*
X10586848Y-11889984D02*
X10567801Y-11880460D01*
X10567801Y-11880460D02*
X10558277Y-11870936D01*
X10558277Y-11870936D02*
X10548753Y-11851888D01*
X10548753Y-11851888D02*
X10539229Y-11813793D01*
X10539229Y-11813793D02*
X10539229Y-11766174D01*
X10539229Y-11766174D02*
X10548753Y-11728079D01*
X10548753Y-11728079D02*
X10558277Y-11709031D01*
X10558277Y-11709031D02*
X10567801Y-11699508D01*
X10567801Y-11699508D02*
X10586848Y-11689984D01*
X10834468Y-11689984D02*
X10739229Y-11689984D01*
X10739229Y-11689984D02*
X10729706Y-11785222D01*
X10729706Y-11785222D02*
X10739229Y-11775698D01*
X10739229Y-11775698D02*
X10758277Y-11766174D01*
X10758277Y-11766174D02*
X10805896Y-11766174D01*
X10805896Y-11766174D02*
X10824944Y-11775698D01*
X10824944Y-11775698D02*
X10834468Y-11785222D01*
X10834468Y-11785222D02*
X10843991Y-11804269D01*
X10843991Y-11804269D02*
X10843991Y-11851888D01*
X10843991Y-11851888D02*
X10834468Y-11870936D01*
X10834468Y-11870936D02*
X10824944Y-11880460D01*
X10824944Y-11880460D02*
X10805896Y-11889984D01*
X10805896Y-11889984D02*
X10758277Y-11889984D01*
X10758277Y-11889984D02*
X10739229Y-11880460D01*
X10739229Y-11880460D02*
X10729706Y-11870936D01*
X11034468Y-11889984D02*
X10920182Y-11889984D01*
X10977325Y-11889984D02*
X10977325Y-11689984D01*
X10977325Y-11689984D02*
X10958277Y-11718555D01*
X10958277Y-11718555D02*
X10939229Y-11737603D01*
X10939229Y-11737603D02*
X10920182Y-11747127D01*
X11110658Y-11709031D02*
X11120182Y-11699508D01*
X11120182Y-11699508D02*
X11139229Y-11689984D01*
X11139229Y-11689984D02*
X11186848Y-11689984D01*
X11186848Y-11689984D02*
X11205896Y-11699508D01*
X11205896Y-11699508D02*
X11215420Y-11709031D01*
X11215420Y-11709031D02*
X11224944Y-11728079D01*
X11224944Y-11728079D02*
X11224944Y-11747127D01*
X11224944Y-11747127D02*
X11215420Y-11775698D01*
X11215420Y-11775698D02*
X11101134Y-11889984D01*
X11101134Y-11889984D02*
X11224944Y-11889984D01*
X11301134Y-11689984D02*
X11301134Y-11728079D01*
X11377325Y-11689984D02*
X11377325Y-11728079D01*
X11672563Y-11966174D02*
X11663039Y-11956650D01*
X11663039Y-11956650D02*
X11643991Y-11928079D01*
X11643991Y-11928079D02*
X11634468Y-11909031D01*
X11634468Y-11909031D02*
X11624944Y-11880460D01*
X11624944Y-11880460D02*
X11615420Y-11832841D01*
X11615420Y-11832841D02*
X11615420Y-11794746D01*
X11615420Y-11794746D02*
X11624944Y-11747127D01*
X11624944Y-11747127D02*
X11634468Y-11718555D01*
X11634468Y-11718555D02*
X11643991Y-11699508D01*
X11643991Y-11699508D02*
X11663039Y-11670936D01*
X11663039Y-11670936D02*
X11672563Y-11661412D01*
X11739229Y-11709031D02*
X11748753Y-11699508D01*
X11748753Y-11699508D02*
X11767801Y-11689984D01*
X11767801Y-11689984D02*
X11815420Y-11689984D01*
X11815420Y-11689984D02*
X11834468Y-11699508D01*
X11834468Y-11699508D02*
X11843991Y-11709031D01*
X11843991Y-11709031D02*
X11853515Y-11728079D01*
X11853515Y-11728079D02*
X11853515Y-11747127D01*
X11853515Y-11747127D02*
X11843991Y-11775698D01*
X11843991Y-11775698D02*
X11729706Y-11889984D01*
X11729706Y-11889984D02*
X11853515Y-11889984D01*
X12091610Y-11889984D02*
X12091610Y-11689984D01*
X12177325Y-11889984D02*
X12177325Y-11785222D01*
X12177325Y-11785222D02*
X12167801Y-11766174D01*
X12167801Y-11766174D02*
X12148753Y-11756650D01*
X12148753Y-11756650D02*
X12120182Y-11756650D01*
X12120182Y-11756650D02*
X12101134Y-11766174D01*
X12101134Y-11766174D02*
X12091610Y-11775698D01*
X12301134Y-11889984D02*
X12282087Y-11880460D01*
X12282087Y-11880460D02*
X12272563Y-11870936D01*
X12272563Y-11870936D02*
X12263039Y-11851888D01*
X12263039Y-11851888D02*
X12263039Y-11794746D01*
X12263039Y-11794746D02*
X12272563Y-11775698D01*
X12272563Y-11775698D02*
X12282087Y-11766174D01*
X12282087Y-11766174D02*
X12301134Y-11756650D01*
X12301134Y-11756650D02*
X12329706Y-11756650D01*
X12329706Y-11756650D02*
X12348753Y-11766174D01*
X12348753Y-11766174D02*
X12358277Y-11775698D01*
X12358277Y-11775698D02*
X12367801Y-11794746D01*
X12367801Y-11794746D02*
X12367801Y-11851888D01*
X12367801Y-11851888D02*
X12358277Y-11870936D01*
X12358277Y-11870936D02*
X12348753Y-11880460D01*
X12348753Y-11880460D02*
X12329706Y-11889984D01*
X12329706Y-11889984D02*
X12301134Y-11889984D01*
X12482087Y-11889984D02*
X12463039Y-11880460D01*
X12463039Y-11880460D02*
X12453515Y-11861412D01*
X12453515Y-11861412D02*
X12453515Y-11689984D01*
X12634468Y-11880460D02*
X12615420Y-11889984D01*
X12615420Y-11889984D02*
X12577325Y-11889984D01*
X12577325Y-11889984D02*
X12558277Y-11880460D01*
X12558277Y-11880460D02*
X12548753Y-11861412D01*
X12548753Y-11861412D02*
X12548753Y-11785222D01*
X12548753Y-11785222D02*
X12558277Y-11766174D01*
X12558277Y-11766174D02*
X12577325Y-11756650D01*
X12577325Y-11756650D02*
X12615420Y-11756650D01*
X12615420Y-11756650D02*
X12634468Y-11766174D01*
X12634468Y-11766174D02*
X12643991Y-11785222D01*
X12643991Y-11785222D02*
X12643991Y-11804269D01*
X12643991Y-11804269D02*
X12548753Y-11823317D01*
X12720182Y-11880460D02*
X12739230Y-11889984D01*
X12739230Y-11889984D02*
X12777325Y-11889984D01*
X12777325Y-11889984D02*
X12796372Y-11880460D01*
X12796372Y-11880460D02*
X12805896Y-11861412D01*
X12805896Y-11861412D02*
X12805896Y-11851888D01*
X12805896Y-11851888D02*
X12796372Y-11832841D01*
X12796372Y-11832841D02*
X12777325Y-11823317D01*
X12777325Y-11823317D02*
X12748753Y-11823317D01*
X12748753Y-11823317D02*
X12729706Y-11813793D01*
X12729706Y-11813793D02*
X12720182Y-11794746D01*
X12720182Y-11794746D02*
X12720182Y-11785222D01*
X12720182Y-11785222D02*
X12729706Y-11766174D01*
X12729706Y-11766174D02*
X12748753Y-11756650D01*
X12748753Y-11756650D02*
X12777325Y-11756650D01*
X12777325Y-11756650D02*
X12796372Y-11766174D01*
X12872563Y-11966174D02*
X12882087Y-11956650D01*
X12882087Y-11956650D02*
X12901134Y-11928079D01*
X12901134Y-11928079D02*
X12910658Y-11909031D01*
X12910658Y-11909031D02*
X12920182Y-11880460D01*
X12920182Y-11880460D02*
X12929706Y-11832841D01*
X12929706Y-11832841D02*
X12929706Y-11794746D01*
X12929706Y-11794746D02*
X12920182Y-11747127D01*
X12920182Y-11747127D02*
X12910658Y-11718555D01*
X12910658Y-11718555D02*
X12901134Y-11699508D01*
X12901134Y-11699508D02*
X12882087Y-11670936D01*
X12882087Y-11670936D02*
X12872563Y-11661412D01*
M02*
