M48
; DRILL file {KiCad 8.0.8} date 2025-06-29T12:51:10+0900
; FORMAT={-:-/ absolute / metric / decimal}
; #@! TF.CreationDate,2025-06-29T12:51:10+09:00
; #@! TF.GenerationSoftware,Kicad,Pcbnew,8.0.8
; #@! TF.FileFunction,Plated,1,2,PTH
FMAT,2
METRIC
; #@! TA.AperFunction,Plated,PTH,ViaDrill
T1C0.300
; #@! TA.AperFunction,Plated,PTH,ComponentDrill
T2C0.710
; #@! TA.AperFunction,Plated,PTH,ComponentDrill
T3C0.760
; #@! TA.AperFunction,Plated,PTH,ComponentDrill
T4C0.800
; #@! TA.AperFunction,Plated,PTH,ComponentDrill
T5C0.870
; #@! TA.AperFunction,Plated,PTH,ComponentDrill
T6C1.000
; #@! TA.AperFunction,Plated,PTH,ComponentDrill
T7C1.090
%
G90
G05
T1
X123.444Y-81.534
X126.127Y-89.881
X127.508Y-83.312
X129.57Y-78.952
T2
X92.558Y-94.456
X93.726Y-67.056
X95.148Y-89.356
X96.316Y-61.956
T3
X101.6Y-78.12
X101.6Y-80.66
X101.6Y-83.2
X101.6Y-85.74
X101.6Y-90.82
X101.6Y-93.36
X101.6Y-95.9
T4
X87.122Y-89.6
X87.122Y-92.1
X100.33Y-63.413
X100.33Y-68.413
X114.54Y-69.556
X114.808Y-88.517
X114.808Y-91.017
X115.0Y-82.254
X115.0Y-84.754
X118.872Y-92.668
X119.732Y-79.841
X121.412Y-92.668
X122.16Y-69.556
X122.272Y-79.841
X123.176Y-61.087
X123.176Y-66.087
X124.489Y-92.668
X124.939Y-79.841
X127.029Y-92.668
X127.479Y-79.841
X128.637Y-65.024
X128.637Y-67.524
X130.556Y-91.398
X133.056Y-91.398
T5
X109.46Y-66.0
X112.0Y-66.0
X114.54Y-66.0
T6
X82.804Y-79.629
X82.804Y-82.169
X85.217Y-64.389
X85.217Y-66.929
X87.503Y-79.634
X87.503Y-82.174
X89.662Y-64.389
X89.662Y-66.929
X95.377Y-79.46
X95.377Y-82.0
X95.377Y-84.54
X131.445Y-80.222
X131.445Y-84.159
X133.985Y-80.222
X133.985Y-84.159
X138.303Y-66.421
X138.303Y-68.961
X138.43Y-76.835
X138.43Y-79.375
X138.43Y-81.915
X138.43Y-84.455
X138.43Y-86.995
X138.43Y-89.535
X143.383Y-66.421
X143.383Y-68.961
X143.383Y-76.835
X143.383Y-79.375
X143.383Y-81.915
X143.383Y-84.455
X143.383Y-86.995
X143.383Y-89.535
X148.209Y-66.421
X148.209Y-68.961
X148.209Y-76.835
X148.209Y-79.375
X148.209Y-81.915
X148.209Y-84.455
X148.209Y-86.995
X148.209Y-89.535
T7
X70.485Y-81.92
X70.485Y-87.0
X75.565Y-81.92
X75.565Y-84.46
X75.565Y-87.0
T6
X74.041Y-66.907G85X74.041Y-68.907
G05
X76.041Y-72.608G85X78.041Y-72.608
G05
X80.041Y-66.907G85X80.041Y-68.907
G05
M30
