%TF.GenerationSoftware,KiCad,Pcbnew,8.0.8*%
%TF.CreationDate,2025-06-29T12:51:07+09:00*%
%TF.ProjectId,PowerSeparate,506f7765-7253-4657-9061-726174652e6b,rev?*%
%TF.SameCoordinates,Original*%
%TF.FileFunction,Legend,Top*%
%TF.FilePolarity,Positive*%
%FSLAX46Y46*%
G04 Gerber Fmt 4.6, Leading zero omitted, Abs format (unit mm)*
G04 Created by KiCad (PCBNEW 8.0.8) date 2025-06-29 12:51:07*
%MOMM*%
%LPD*%
G01*
G04 APERTURE LIST*
%ADD10C,0.100000*%
%ADD11C,0.690312*%
%ADD12C,0.150000*%
%ADD13C,0.200000*%
%ADD14C,0.254000*%
%ADD15C,0.120000*%
G04 APERTURE END LIST*
D10*
X83288665Y-60071000D02*
X81688665Y-60071000D01*
X82488665Y-59271000D02*
X82488665Y-60771000D01*
X76988665Y-60071000D02*
X75388665Y-60071000D01*
X77270330Y-60052665D02*
G75*
G02*
X75107000Y-60052665I-1081665J0D01*
G01*
X75107000Y-60052665D02*
G75*
G02*
X77270330Y-60052665I1081665J0D01*
G01*
X77270330Y-60071000D02*
X78257296Y-60071000D01*
X80188664Y-60870999D02*
G75*
G02*
X80188664Y-59271001I-799964J799999D01*
G01*
X81407000Y-60071000D02*
X79988665Y-60071000D01*
X83570330Y-60089335D02*
G75*
G02*
X81407000Y-60089335I-1081665J0D01*
G01*
X81407000Y-60089335D02*
G75*
G02*
X83570330Y-60089335I1081665J0D01*
G01*
D11*
X79693509Y-60071000D02*
G75*
G02*
X79003197Y-60071000I-345156J0D01*
G01*
X79003197Y-60071000D02*
G75*
G02*
X79693509Y-60071000I345156J0D01*
G01*
D12*
X150082524Y-84528866D02*
X150844429Y-84528866D01*
X151844428Y-84909819D02*
X151273000Y-84909819D01*
X151558714Y-84909819D02*
X151558714Y-83909819D01*
X151558714Y-83909819D02*
X151463476Y-84052676D01*
X151463476Y-84052676D02*
X151368238Y-84147914D01*
X151368238Y-84147914D02*
X151273000Y-84195533D01*
X152225381Y-84005057D02*
X152273000Y-83957438D01*
X152273000Y-83957438D02*
X152368238Y-83909819D01*
X152368238Y-83909819D02*
X152606333Y-83909819D01*
X152606333Y-83909819D02*
X152701571Y-83957438D01*
X152701571Y-83957438D02*
X152749190Y-84005057D01*
X152749190Y-84005057D02*
X152796809Y-84100295D01*
X152796809Y-84100295D02*
X152796809Y-84195533D01*
X152796809Y-84195533D02*
X152749190Y-84338390D01*
X152749190Y-84338390D02*
X152177762Y-84909819D01*
X152177762Y-84909819D02*
X152796809Y-84909819D01*
X153082524Y-83909819D02*
X153415857Y-84909819D01*
X153415857Y-84909819D02*
X153749190Y-83909819D01*
X154034905Y-84624104D02*
X154511095Y-84624104D01*
X153939667Y-84909819D02*
X154273000Y-83909819D01*
X154273000Y-83909819D02*
X154606333Y-84909819D01*
D13*
X125338572Y-57769070D02*
X125338572Y-56269070D01*
X125338572Y-56269070D02*
X125838572Y-57340499D01*
X125838572Y-57340499D02*
X126338572Y-56269070D01*
X126338572Y-56269070D02*
X126338572Y-57769070D01*
X127910001Y-57626213D02*
X127838573Y-57697642D01*
X127838573Y-57697642D02*
X127624287Y-57769070D01*
X127624287Y-57769070D02*
X127481430Y-57769070D01*
X127481430Y-57769070D02*
X127267144Y-57697642D01*
X127267144Y-57697642D02*
X127124287Y-57554784D01*
X127124287Y-57554784D02*
X127052858Y-57411927D01*
X127052858Y-57411927D02*
X126981430Y-57126213D01*
X126981430Y-57126213D02*
X126981430Y-56911927D01*
X126981430Y-56911927D02*
X127052858Y-56626213D01*
X127052858Y-56626213D02*
X127124287Y-56483356D01*
X127124287Y-56483356D02*
X127267144Y-56340499D01*
X127267144Y-56340499D02*
X127481430Y-56269070D01*
X127481430Y-56269070D02*
X127624287Y-56269070D01*
X127624287Y-56269070D02*
X127838573Y-56340499D01*
X127838573Y-56340499D02*
X127910001Y-56411927D01*
X128481430Y-56411927D02*
X128552858Y-56340499D01*
X128552858Y-56340499D02*
X128695716Y-56269070D01*
X128695716Y-56269070D02*
X129052858Y-56269070D01*
X129052858Y-56269070D02*
X129195716Y-56340499D01*
X129195716Y-56340499D02*
X129267144Y-56411927D01*
X129267144Y-56411927D02*
X129338573Y-56554784D01*
X129338573Y-56554784D02*
X129338573Y-56697642D01*
X129338573Y-56697642D02*
X129267144Y-56911927D01*
X129267144Y-56911927D02*
X128410001Y-57769070D01*
X128410001Y-57769070D02*
X129338573Y-57769070D01*
X131124286Y-57769070D02*
X131124286Y-56269070D01*
X131124286Y-56269070D02*
X131695715Y-56269070D01*
X131695715Y-56269070D02*
X131838572Y-56340499D01*
X131838572Y-56340499D02*
X131910001Y-56411927D01*
X131910001Y-56411927D02*
X131981429Y-56554784D01*
X131981429Y-56554784D02*
X131981429Y-56769070D01*
X131981429Y-56769070D02*
X131910001Y-56911927D01*
X131910001Y-56911927D02*
X131838572Y-56983356D01*
X131838572Y-56983356D02*
X131695715Y-57054784D01*
X131695715Y-57054784D02*
X131124286Y-57054784D01*
X132838572Y-57769070D02*
X132695715Y-57697642D01*
X132695715Y-57697642D02*
X132624286Y-57626213D01*
X132624286Y-57626213D02*
X132552858Y-57483356D01*
X132552858Y-57483356D02*
X132552858Y-57054784D01*
X132552858Y-57054784D02*
X132624286Y-56911927D01*
X132624286Y-56911927D02*
X132695715Y-56840499D01*
X132695715Y-56840499D02*
X132838572Y-56769070D01*
X132838572Y-56769070D02*
X133052858Y-56769070D01*
X133052858Y-56769070D02*
X133195715Y-56840499D01*
X133195715Y-56840499D02*
X133267144Y-56911927D01*
X133267144Y-56911927D02*
X133338572Y-57054784D01*
X133338572Y-57054784D02*
X133338572Y-57483356D01*
X133338572Y-57483356D02*
X133267144Y-57626213D01*
X133267144Y-57626213D02*
X133195715Y-57697642D01*
X133195715Y-57697642D02*
X133052858Y-57769070D01*
X133052858Y-57769070D02*
X132838572Y-57769070D01*
X133838572Y-56769070D02*
X134124287Y-57769070D01*
X134124287Y-57769070D02*
X134410001Y-57054784D01*
X134410001Y-57054784D02*
X134695715Y-57769070D01*
X134695715Y-57769070D02*
X134981429Y-56769070D01*
X136124287Y-57697642D02*
X135981430Y-57769070D01*
X135981430Y-57769070D02*
X135695716Y-57769070D01*
X135695716Y-57769070D02*
X135552858Y-57697642D01*
X135552858Y-57697642D02*
X135481430Y-57554784D01*
X135481430Y-57554784D02*
X135481430Y-56983356D01*
X135481430Y-56983356D02*
X135552858Y-56840499D01*
X135552858Y-56840499D02*
X135695716Y-56769070D01*
X135695716Y-56769070D02*
X135981430Y-56769070D01*
X135981430Y-56769070D02*
X136124287Y-56840499D01*
X136124287Y-56840499D02*
X136195716Y-56983356D01*
X136195716Y-56983356D02*
X136195716Y-57126213D01*
X136195716Y-57126213D02*
X135481430Y-57269070D01*
X136838572Y-57769070D02*
X136838572Y-56769070D01*
X136838572Y-57054784D02*
X136910001Y-56911927D01*
X136910001Y-56911927D02*
X136981430Y-56840499D01*
X136981430Y-56840499D02*
X137124287Y-56769070D01*
X137124287Y-56769070D02*
X137267144Y-56769070D01*
X138838572Y-57697642D02*
X139052858Y-57769070D01*
X139052858Y-57769070D02*
X139410000Y-57769070D01*
X139410000Y-57769070D02*
X139552858Y-57697642D01*
X139552858Y-57697642D02*
X139624286Y-57626213D01*
X139624286Y-57626213D02*
X139695715Y-57483356D01*
X139695715Y-57483356D02*
X139695715Y-57340499D01*
X139695715Y-57340499D02*
X139624286Y-57197642D01*
X139624286Y-57197642D02*
X139552858Y-57126213D01*
X139552858Y-57126213D02*
X139410000Y-57054784D01*
X139410000Y-57054784D02*
X139124286Y-56983356D01*
X139124286Y-56983356D02*
X138981429Y-56911927D01*
X138981429Y-56911927D02*
X138910000Y-56840499D01*
X138910000Y-56840499D02*
X138838572Y-56697642D01*
X138838572Y-56697642D02*
X138838572Y-56554784D01*
X138838572Y-56554784D02*
X138910000Y-56411927D01*
X138910000Y-56411927D02*
X138981429Y-56340499D01*
X138981429Y-56340499D02*
X139124286Y-56269070D01*
X139124286Y-56269070D02*
X139481429Y-56269070D01*
X139481429Y-56269070D02*
X139695715Y-56340499D01*
X140910000Y-57697642D02*
X140767143Y-57769070D01*
X140767143Y-57769070D02*
X140481429Y-57769070D01*
X140481429Y-57769070D02*
X140338571Y-57697642D01*
X140338571Y-57697642D02*
X140267143Y-57554784D01*
X140267143Y-57554784D02*
X140267143Y-56983356D01*
X140267143Y-56983356D02*
X140338571Y-56840499D01*
X140338571Y-56840499D02*
X140481429Y-56769070D01*
X140481429Y-56769070D02*
X140767143Y-56769070D01*
X140767143Y-56769070D02*
X140910000Y-56840499D01*
X140910000Y-56840499D02*
X140981429Y-56983356D01*
X140981429Y-56983356D02*
X140981429Y-57126213D01*
X140981429Y-57126213D02*
X140267143Y-57269070D01*
X141624285Y-56769070D02*
X141624285Y-58269070D01*
X141624285Y-56840499D02*
X141767143Y-56769070D01*
X141767143Y-56769070D02*
X142052857Y-56769070D01*
X142052857Y-56769070D02*
X142195714Y-56840499D01*
X142195714Y-56840499D02*
X142267143Y-56911927D01*
X142267143Y-56911927D02*
X142338571Y-57054784D01*
X142338571Y-57054784D02*
X142338571Y-57483356D01*
X142338571Y-57483356D02*
X142267143Y-57626213D01*
X142267143Y-57626213D02*
X142195714Y-57697642D01*
X142195714Y-57697642D02*
X142052857Y-57769070D01*
X142052857Y-57769070D02*
X141767143Y-57769070D01*
X141767143Y-57769070D02*
X141624285Y-57697642D01*
X143624286Y-57769070D02*
X143624286Y-56983356D01*
X143624286Y-56983356D02*
X143552857Y-56840499D01*
X143552857Y-56840499D02*
X143410000Y-56769070D01*
X143410000Y-56769070D02*
X143124286Y-56769070D01*
X143124286Y-56769070D02*
X142981428Y-56840499D01*
X143624286Y-57697642D02*
X143481428Y-57769070D01*
X143481428Y-57769070D02*
X143124286Y-57769070D01*
X143124286Y-57769070D02*
X142981428Y-57697642D01*
X142981428Y-57697642D02*
X142910000Y-57554784D01*
X142910000Y-57554784D02*
X142910000Y-57411927D01*
X142910000Y-57411927D02*
X142981428Y-57269070D01*
X142981428Y-57269070D02*
X143124286Y-57197642D01*
X143124286Y-57197642D02*
X143481428Y-57197642D01*
X143481428Y-57197642D02*
X143624286Y-57126213D01*
X144338571Y-57769070D02*
X144338571Y-56769070D01*
X144338571Y-57054784D02*
X144410000Y-56911927D01*
X144410000Y-56911927D02*
X144481429Y-56840499D01*
X144481429Y-56840499D02*
X144624286Y-56769070D01*
X144624286Y-56769070D02*
X144767143Y-56769070D01*
X145910000Y-57769070D02*
X145910000Y-56983356D01*
X145910000Y-56983356D02*
X145838571Y-56840499D01*
X145838571Y-56840499D02*
X145695714Y-56769070D01*
X145695714Y-56769070D02*
X145410000Y-56769070D01*
X145410000Y-56769070D02*
X145267142Y-56840499D01*
X145910000Y-57697642D02*
X145767142Y-57769070D01*
X145767142Y-57769070D02*
X145410000Y-57769070D01*
X145410000Y-57769070D02*
X145267142Y-57697642D01*
X145267142Y-57697642D02*
X145195714Y-57554784D01*
X145195714Y-57554784D02*
X145195714Y-57411927D01*
X145195714Y-57411927D02*
X145267142Y-57269070D01*
X145267142Y-57269070D02*
X145410000Y-57197642D01*
X145410000Y-57197642D02*
X145767142Y-57197642D01*
X145767142Y-57197642D02*
X145910000Y-57126213D01*
X146410000Y-56769070D02*
X146981428Y-56769070D01*
X146624285Y-56269070D02*
X146624285Y-57554784D01*
X146624285Y-57554784D02*
X146695714Y-57697642D01*
X146695714Y-57697642D02*
X146838571Y-57769070D01*
X146838571Y-57769070D02*
X146981428Y-57769070D01*
X148052857Y-57697642D02*
X147910000Y-57769070D01*
X147910000Y-57769070D02*
X147624286Y-57769070D01*
X147624286Y-57769070D02*
X147481428Y-57697642D01*
X147481428Y-57697642D02*
X147410000Y-57554784D01*
X147410000Y-57554784D02*
X147410000Y-56983356D01*
X147410000Y-56983356D02*
X147481428Y-56840499D01*
X147481428Y-56840499D02*
X147624286Y-56769070D01*
X147624286Y-56769070D02*
X147910000Y-56769070D01*
X147910000Y-56769070D02*
X148052857Y-56840499D01*
X148052857Y-56840499D02*
X148124286Y-56983356D01*
X148124286Y-56983356D02*
X148124286Y-57126213D01*
X148124286Y-57126213D02*
X147410000Y-57269070D01*
X148767142Y-57769070D02*
X148767142Y-56769070D01*
X148767142Y-57054784D02*
X148838571Y-56911927D01*
X148838571Y-56911927D02*
X148910000Y-56840499D01*
X148910000Y-56840499D02*
X149052857Y-56769070D01*
X149052857Y-56769070D02*
X149195714Y-56769070D01*
X130874287Y-58826843D02*
X130945715Y-58755415D01*
X130945715Y-58755415D02*
X131088573Y-58683986D01*
X131088573Y-58683986D02*
X131445715Y-58683986D01*
X131445715Y-58683986D02*
X131588573Y-58755415D01*
X131588573Y-58755415D02*
X131660001Y-58826843D01*
X131660001Y-58826843D02*
X131731430Y-58969700D01*
X131731430Y-58969700D02*
X131731430Y-59112558D01*
X131731430Y-59112558D02*
X131660001Y-59326843D01*
X131660001Y-59326843D02*
X130802858Y-60183986D01*
X130802858Y-60183986D02*
X131731430Y-60183986D01*
X132660001Y-58683986D02*
X132802858Y-58683986D01*
X132802858Y-58683986D02*
X132945715Y-58755415D01*
X132945715Y-58755415D02*
X133017144Y-58826843D01*
X133017144Y-58826843D02*
X133088572Y-58969700D01*
X133088572Y-58969700D02*
X133160001Y-59255415D01*
X133160001Y-59255415D02*
X133160001Y-59612558D01*
X133160001Y-59612558D02*
X133088572Y-59898272D01*
X133088572Y-59898272D02*
X133017144Y-60041129D01*
X133017144Y-60041129D02*
X132945715Y-60112558D01*
X132945715Y-60112558D02*
X132802858Y-60183986D01*
X132802858Y-60183986D02*
X132660001Y-60183986D01*
X132660001Y-60183986D02*
X132517144Y-60112558D01*
X132517144Y-60112558D02*
X132445715Y-60041129D01*
X132445715Y-60041129D02*
X132374286Y-59898272D01*
X132374286Y-59898272D02*
X132302858Y-59612558D01*
X132302858Y-59612558D02*
X132302858Y-59255415D01*
X132302858Y-59255415D02*
X132374286Y-58969700D01*
X132374286Y-58969700D02*
X132445715Y-58826843D01*
X132445715Y-58826843D02*
X132517144Y-58755415D01*
X132517144Y-58755415D02*
X132660001Y-58683986D01*
X133731429Y-58826843D02*
X133802857Y-58755415D01*
X133802857Y-58755415D02*
X133945715Y-58683986D01*
X133945715Y-58683986D02*
X134302857Y-58683986D01*
X134302857Y-58683986D02*
X134445715Y-58755415D01*
X134445715Y-58755415D02*
X134517143Y-58826843D01*
X134517143Y-58826843D02*
X134588572Y-58969700D01*
X134588572Y-58969700D02*
X134588572Y-59112558D01*
X134588572Y-59112558D02*
X134517143Y-59326843D01*
X134517143Y-59326843D02*
X133660000Y-60183986D01*
X133660000Y-60183986D02*
X134588572Y-60183986D01*
X135945714Y-58683986D02*
X135231428Y-58683986D01*
X135231428Y-58683986D02*
X135160000Y-59398272D01*
X135160000Y-59398272D02*
X135231428Y-59326843D01*
X135231428Y-59326843D02*
X135374286Y-59255415D01*
X135374286Y-59255415D02*
X135731428Y-59255415D01*
X135731428Y-59255415D02*
X135874286Y-59326843D01*
X135874286Y-59326843D02*
X135945714Y-59398272D01*
X135945714Y-59398272D02*
X136017143Y-59541129D01*
X136017143Y-59541129D02*
X136017143Y-59898272D01*
X136017143Y-59898272D02*
X135945714Y-60041129D01*
X135945714Y-60041129D02*
X135874286Y-60112558D01*
X135874286Y-60112558D02*
X135731428Y-60183986D01*
X135731428Y-60183986D02*
X135374286Y-60183986D01*
X135374286Y-60183986D02*
X135231428Y-60112558D01*
X135231428Y-60112558D02*
X135160000Y-60041129D01*
X137731428Y-58612558D02*
X136445714Y-60541129D01*
X138874286Y-58683986D02*
X138588571Y-58683986D01*
X138588571Y-58683986D02*
X138445714Y-58755415D01*
X138445714Y-58755415D02*
X138374286Y-58826843D01*
X138374286Y-58826843D02*
X138231428Y-59041129D01*
X138231428Y-59041129D02*
X138160000Y-59326843D01*
X138160000Y-59326843D02*
X138160000Y-59898272D01*
X138160000Y-59898272D02*
X138231428Y-60041129D01*
X138231428Y-60041129D02*
X138302857Y-60112558D01*
X138302857Y-60112558D02*
X138445714Y-60183986D01*
X138445714Y-60183986D02*
X138731428Y-60183986D01*
X138731428Y-60183986D02*
X138874286Y-60112558D01*
X138874286Y-60112558D02*
X138945714Y-60041129D01*
X138945714Y-60041129D02*
X139017143Y-59898272D01*
X139017143Y-59898272D02*
X139017143Y-59541129D01*
X139017143Y-59541129D02*
X138945714Y-59398272D01*
X138945714Y-59398272D02*
X138874286Y-59326843D01*
X138874286Y-59326843D02*
X138731428Y-59255415D01*
X138731428Y-59255415D02*
X138445714Y-59255415D01*
X138445714Y-59255415D02*
X138302857Y-59326843D01*
X138302857Y-59326843D02*
X138231428Y-59398272D01*
X138231428Y-59398272D02*
X138160000Y-59541129D01*
X140731428Y-58612558D02*
X139445714Y-60541129D01*
X141160000Y-58826843D02*
X141231428Y-58755415D01*
X141231428Y-58755415D02*
X141374286Y-58683986D01*
X141374286Y-58683986D02*
X141731428Y-58683986D01*
X141731428Y-58683986D02*
X141874286Y-58755415D01*
X141874286Y-58755415D02*
X141945714Y-58826843D01*
X141945714Y-58826843D02*
X142017143Y-58969700D01*
X142017143Y-58969700D02*
X142017143Y-59112558D01*
X142017143Y-59112558D02*
X141945714Y-59326843D01*
X141945714Y-59326843D02*
X141088571Y-60183986D01*
X141088571Y-60183986D02*
X142017143Y-60183986D01*
X142874285Y-59326843D02*
X142731428Y-59255415D01*
X142731428Y-59255415D02*
X142659999Y-59183986D01*
X142659999Y-59183986D02*
X142588571Y-59041129D01*
X142588571Y-59041129D02*
X142588571Y-58969700D01*
X142588571Y-58969700D02*
X142659999Y-58826843D01*
X142659999Y-58826843D02*
X142731428Y-58755415D01*
X142731428Y-58755415D02*
X142874285Y-58683986D01*
X142874285Y-58683986D02*
X143159999Y-58683986D01*
X143159999Y-58683986D02*
X143302857Y-58755415D01*
X143302857Y-58755415D02*
X143374285Y-58826843D01*
X143374285Y-58826843D02*
X143445714Y-58969700D01*
X143445714Y-58969700D02*
X143445714Y-59041129D01*
X143445714Y-59041129D02*
X143374285Y-59183986D01*
X143374285Y-59183986D02*
X143302857Y-59255415D01*
X143302857Y-59255415D02*
X143159999Y-59326843D01*
X143159999Y-59326843D02*
X142874285Y-59326843D01*
X142874285Y-59326843D02*
X142731428Y-59398272D01*
X142731428Y-59398272D02*
X142659999Y-59469700D01*
X142659999Y-59469700D02*
X142588571Y-59612558D01*
X142588571Y-59612558D02*
X142588571Y-59898272D01*
X142588571Y-59898272D02*
X142659999Y-60041129D01*
X142659999Y-60041129D02*
X142731428Y-60112558D01*
X142731428Y-60112558D02*
X142874285Y-60183986D01*
X142874285Y-60183986D02*
X143159999Y-60183986D01*
X143159999Y-60183986D02*
X143302857Y-60112558D01*
X143302857Y-60112558D02*
X143374285Y-60041129D01*
X143374285Y-60041129D02*
X143445714Y-59898272D01*
X143445714Y-59898272D02*
X143445714Y-59612558D01*
X143445714Y-59612558D02*
X143374285Y-59469700D01*
X143374285Y-59469700D02*
X143302857Y-59398272D01*
X143302857Y-59398272D02*
X143159999Y-59326843D01*
X75660666Y-58318838D02*
X75660666Y-56318838D01*
X75660666Y-56318838D02*
X76136856Y-56318838D01*
X76136856Y-56318838D02*
X76422571Y-56414076D01*
X76422571Y-56414076D02*
X76613047Y-56604552D01*
X76613047Y-56604552D02*
X76708285Y-56795028D01*
X76708285Y-56795028D02*
X76803523Y-57175980D01*
X76803523Y-57175980D02*
X76803523Y-57461695D01*
X76803523Y-57461695D02*
X76708285Y-57842647D01*
X76708285Y-57842647D02*
X76613047Y-58033123D01*
X76613047Y-58033123D02*
X76422571Y-58223600D01*
X76422571Y-58223600D02*
X76136856Y-58318838D01*
X76136856Y-58318838D02*
X75660666Y-58318838D01*
X78803523Y-58128361D02*
X78708285Y-58223600D01*
X78708285Y-58223600D02*
X78422571Y-58318838D01*
X78422571Y-58318838D02*
X78232095Y-58318838D01*
X78232095Y-58318838D02*
X77946380Y-58223600D01*
X77946380Y-58223600D02*
X77755904Y-58033123D01*
X77755904Y-58033123D02*
X77660666Y-57842647D01*
X77660666Y-57842647D02*
X77565428Y-57461695D01*
X77565428Y-57461695D02*
X77565428Y-57175980D01*
X77565428Y-57175980D02*
X77660666Y-56795028D01*
X77660666Y-56795028D02*
X77755904Y-56604552D01*
X77755904Y-56604552D02*
X77946380Y-56414076D01*
X77946380Y-56414076D02*
X78232095Y-56318838D01*
X78232095Y-56318838D02*
X78422571Y-56318838D01*
X78422571Y-56318838D02*
X78708285Y-56414076D01*
X78708285Y-56414076D02*
X78803523Y-56509314D01*
X79755904Y-58318838D02*
X80136856Y-58318838D01*
X80136856Y-58318838D02*
X80327333Y-58223600D01*
X80327333Y-58223600D02*
X80422571Y-58128361D01*
X80422571Y-58128361D02*
X80613047Y-57842647D01*
X80613047Y-57842647D02*
X80708285Y-57461695D01*
X80708285Y-57461695D02*
X80708285Y-56699790D01*
X80708285Y-56699790D02*
X80613047Y-56509314D01*
X80613047Y-56509314D02*
X80517809Y-56414076D01*
X80517809Y-56414076D02*
X80327333Y-56318838D01*
X80327333Y-56318838D02*
X79946380Y-56318838D01*
X79946380Y-56318838D02*
X79755904Y-56414076D01*
X79755904Y-56414076D02*
X79660666Y-56509314D01*
X79660666Y-56509314D02*
X79565428Y-56699790D01*
X79565428Y-56699790D02*
X79565428Y-57175980D01*
X79565428Y-57175980D02*
X79660666Y-57366457D01*
X79660666Y-57366457D02*
X79755904Y-57461695D01*
X79755904Y-57461695D02*
X79946380Y-57556933D01*
X79946380Y-57556933D02*
X80327333Y-57556933D01*
X80327333Y-57556933D02*
X80517809Y-57461695D01*
X80517809Y-57461695D02*
X80613047Y-57366457D01*
X80613047Y-57366457D02*
X80708285Y-57175980D01*
X81279714Y-56318838D02*
X81946380Y-58318838D01*
X81946380Y-58318838D02*
X82613047Y-56318838D01*
D12*
X150082524Y-77035866D02*
X150844429Y-77035866D01*
X150463476Y-77416819D02*
X150463476Y-76654914D01*
X151844428Y-77416819D02*
X151273000Y-77416819D01*
X151558714Y-77416819D02*
X151558714Y-76416819D01*
X151558714Y-76416819D02*
X151463476Y-76559676D01*
X151463476Y-76559676D02*
X151368238Y-76654914D01*
X151368238Y-76654914D02*
X151273000Y-76702533D01*
X152225381Y-76512057D02*
X152273000Y-76464438D01*
X152273000Y-76464438D02*
X152368238Y-76416819D01*
X152368238Y-76416819D02*
X152606333Y-76416819D01*
X152606333Y-76416819D02*
X152701571Y-76464438D01*
X152701571Y-76464438D02*
X152749190Y-76512057D01*
X152749190Y-76512057D02*
X152796809Y-76607295D01*
X152796809Y-76607295D02*
X152796809Y-76702533D01*
X152796809Y-76702533D02*
X152749190Y-76845390D01*
X152749190Y-76845390D02*
X152177762Y-77416819D01*
X152177762Y-77416819D02*
X152796809Y-77416819D01*
X153082524Y-76416819D02*
X153415857Y-77416819D01*
X153415857Y-77416819D02*
X153749190Y-76416819D01*
X154034905Y-77131104D02*
X154511095Y-77131104D01*
X153939667Y-77416819D02*
X154273000Y-76416819D01*
X154273000Y-76416819D02*
X154606333Y-77416819D01*
X140549666Y-92244104D02*
X141025856Y-92244104D01*
X140454428Y-92529819D02*
X140787761Y-91529819D01*
X140787761Y-91529819D02*
X141121094Y-92529819D01*
X141216333Y-92625057D02*
X141978237Y-92625057D01*
X142216333Y-92529819D02*
X142216333Y-91529819D01*
X142216333Y-91529819D02*
X142597285Y-91529819D01*
X142597285Y-91529819D02*
X142692523Y-91577438D01*
X142692523Y-91577438D02*
X142740142Y-91625057D01*
X142740142Y-91625057D02*
X142787761Y-91720295D01*
X142787761Y-91720295D02*
X142787761Y-91863152D01*
X142787761Y-91863152D02*
X142740142Y-91958390D01*
X142740142Y-91958390D02*
X142692523Y-92006009D01*
X142692523Y-92006009D02*
X142597285Y-92053628D01*
X142597285Y-92053628D02*
X142216333Y-92053628D01*
X143359190Y-92529819D02*
X143263952Y-92482200D01*
X143263952Y-92482200D02*
X143216333Y-92434580D01*
X143216333Y-92434580D02*
X143168714Y-92339342D01*
X143168714Y-92339342D02*
X143168714Y-92053628D01*
X143168714Y-92053628D02*
X143216333Y-91958390D01*
X143216333Y-91958390D02*
X143263952Y-91910771D01*
X143263952Y-91910771D02*
X143359190Y-91863152D01*
X143359190Y-91863152D02*
X143502047Y-91863152D01*
X143502047Y-91863152D02*
X143597285Y-91910771D01*
X143597285Y-91910771D02*
X143644904Y-91958390D01*
X143644904Y-91958390D02*
X143692523Y-92053628D01*
X143692523Y-92053628D02*
X143692523Y-92339342D01*
X143692523Y-92339342D02*
X143644904Y-92434580D01*
X143644904Y-92434580D02*
X143597285Y-92482200D01*
X143597285Y-92482200D02*
X143502047Y-92529819D01*
X143502047Y-92529819D02*
X143359190Y-92529819D01*
X144025857Y-91863152D02*
X144216333Y-92529819D01*
X144216333Y-92529819D02*
X144406809Y-92053628D01*
X144406809Y-92053628D02*
X144597285Y-92529819D01*
X144597285Y-92529819D02*
X144787761Y-91863152D01*
X145549666Y-92482200D02*
X145454428Y-92529819D01*
X145454428Y-92529819D02*
X145263952Y-92529819D01*
X145263952Y-92529819D02*
X145168714Y-92482200D01*
X145168714Y-92482200D02*
X145121095Y-92386961D01*
X145121095Y-92386961D02*
X145121095Y-92006009D01*
X145121095Y-92006009D02*
X145168714Y-91910771D01*
X145168714Y-91910771D02*
X145263952Y-91863152D01*
X145263952Y-91863152D02*
X145454428Y-91863152D01*
X145454428Y-91863152D02*
X145549666Y-91910771D01*
X145549666Y-91910771D02*
X145597285Y-92006009D01*
X145597285Y-92006009D02*
X145597285Y-92101247D01*
X145597285Y-92101247D02*
X145121095Y-92196485D01*
X146025857Y-92529819D02*
X146025857Y-91863152D01*
X146025857Y-92053628D02*
X146073476Y-91958390D01*
X146073476Y-91958390D02*
X146121095Y-91910771D01*
X146121095Y-91910771D02*
X146216333Y-91863152D01*
X146216333Y-91863152D02*
X146311571Y-91863152D01*
X150050714Y-81988866D02*
X150812619Y-81988866D01*
X151764999Y-81369819D02*
X151288809Y-81369819D01*
X151288809Y-81369819D02*
X151241190Y-81846009D01*
X151241190Y-81846009D02*
X151288809Y-81798390D01*
X151288809Y-81798390D02*
X151384047Y-81750771D01*
X151384047Y-81750771D02*
X151622142Y-81750771D01*
X151622142Y-81750771D02*
X151717380Y-81798390D01*
X151717380Y-81798390D02*
X151764999Y-81846009D01*
X151764999Y-81846009D02*
X151812618Y-81941247D01*
X151812618Y-81941247D02*
X151812618Y-82179342D01*
X151812618Y-82179342D02*
X151764999Y-82274580D01*
X151764999Y-82274580D02*
X151717380Y-82322200D01*
X151717380Y-82322200D02*
X151622142Y-82369819D01*
X151622142Y-82369819D02*
X151384047Y-82369819D01*
X151384047Y-82369819D02*
X151288809Y-82322200D01*
X151288809Y-82322200D02*
X151241190Y-82274580D01*
X152098333Y-81369819D02*
X152431666Y-82369819D01*
X152431666Y-82369819D02*
X152764999Y-81369819D01*
X153050714Y-82084104D02*
X153526904Y-82084104D01*
X152955476Y-82369819D02*
X153288809Y-81369819D01*
X153288809Y-81369819D02*
X153622142Y-82369819D01*
X151082523Y-88910438D02*
X150987285Y-88862819D01*
X150987285Y-88862819D02*
X150844428Y-88862819D01*
X150844428Y-88862819D02*
X150701571Y-88910438D01*
X150701571Y-88910438D02*
X150606333Y-89005676D01*
X150606333Y-89005676D02*
X150558714Y-89100914D01*
X150558714Y-89100914D02*
X150511095Y-89291390D01*
X150511095Y-89291390D02*
X150511095Y-89434247D01*
X150511095Y-89434247D02*
X150558714Y-89624723D01*
X150558714Y-89624723D02*
X150606333Y-89719961D01*
X150606333Y-89719961D02*
X150701571Y-89815200D01*
X150701571Y-89815200D02*
X150844428Y-89862819D01*
X150844428Y-89862819D02*
X150939666Y-89862819D01*
X150939666Y-89862819D02*
X151082523Y-89815200D01*
X151082523Y-89815200D02*
X151130142Y-89767580D01*
X151130142Y-89767580D02*
X151130142Y-89434247D01*
X151130142Y-89434247D02*
X150939666Y-89434247D01*
X151558714Y-89862819D02*
X151558714Y-88862819D01*
X151558714Y-88862819D02*
X152130142Y-89862819D01*
X152130142Y-89862819D02*
X152130142Y-88862819D01*
X152606333Y-89862819D02*
X152606333Y-88862819D01*
X152606333Y-88862819D02*
X152844428Y-88862819D01*
X152844428Y-88862819D02*
X152987285Y-88910438D01*
X152987285Y-88910438D02*
X153082523Y-89005676D01*
X153082523Y-89005676D02*
X153130142Y-89100914D01*
X153130142Y-89100914D02*
X153177761Y-89291390D01*
X153177761Y-89291390D02*
X153177761Y-89434247D01*
X153177761Y-89434247D02*
X153130142Y-89624723D01*
X153130142Y-89624723D02*
X153082523Y-89719961D01*
X153082523Y-89719961D02*
X152987285Y-89815200D01*
X152987285Y-89815200D02*
X152844428Y-89862819D01*
X152844428Y-89862819D02*
X152606333Y-89862819D01*
X153558714Y-89577104D02*
X154034904Y-89577104D01*
X153463476Y-89862819D02*
X153796809Y-88862819D01*
X153796809Y-88862819D02*
X154130142Y-89862819D01*
X150360286Y-69288866D02*
X151122191Y-69288866D01*
X150741238Y-69669819D02*
X150741238Y-68907914D01*
X152074571Y-68669819D02*
X151598381Y-68669819D01*
X151598381Y-68669819D02*
X151550762Y-69146009D01*
X151550762Y-69146009D02*
X151598381Y-69098390D01*
X151598381Y-69098390D02*
X151693619Y-69050771D01*
X151693619Y-69050771D02*
X151931714Y-69050771D01*
X151931714Y-69050771D02*
X152026952Y-69098390D01*
X152026952Y-69098390D02*
X152074571Y-69146009D01*
X152074571Y-69146009D02*
X152122190Y-69241247D01*
X152122190Y-69241247D02*
X152122190Y-69479342D01*
X152122190Y-69479342D02*
X152074571Y-69574580D01*
X152074571Y-69574580D02*
X152026952Y-69622200D01*
X152026952Y-69622200D02*
X151931714Y-69669819D01*
X151931714Y-69669819D02*
X151693619Y-69669819D01*
X151693619Y-69669819D02*
X151598381Y-69622200D01*
X151598381Y-69622200D02*
X151550762Y-69574580D01*
X152407905Y-68669819D02*
X152741238Y-69669819D01*
X152741238Y-69669819D02*
X153074571Y-68669819D01*
X153407905Y-69669819D02*
X153407905Y-68669819D01*
X153407905Y-68669819D02*
X153646000Y-68669819D01*
X153646000Y-68669819D02*
X153788857Y-68717438D01*
X153788857Y-68717438D02*
X153884095Y-68812676D01*
X153884095Y-68812676D02*
X153931714Y-68907914D01*
X153931714Y-68907914D02*
X153979333Y-69098390D01*
X153979333Y-69098390D02*
X153979333Y-69241247D01*
X153979333Y-69241247D02*
X153931714Y-69431723D01*
X153931714Y-69431723D02*
X153884095Y-69526961D01*
X153884095Y-69526961D02*
X153788857Y-69622200D01*
X153788857Y-69622200D02*
X153646000Y-69669819D01*
X153646000Y-69669819D02*
X153407905Y-69669819D01*
X140271857Y-63954819D02*
X140271857Y-62954819D01*
X140271857Y-62954819D02*
X140509952Y-62954819D01*
X140509952Y-62954819D02*
X140652809Y-63002438D01*
X140652809Y-63002438D02*
X140748047Y-63097676D01*
X140748047Y-63097676D02*
X140795666Y-63192914D01*
X140795666Y-63192914D02*
X140843285Y-63383390D01*
X140843285Y-63383390D02*
X140843285Y-63526247D01*
X140843285Y-63526247D02*
X140795666Y-63716723D01*
X140795666Y-63716723D02*
X140748047Y-63811961D01*
X140748047Y-63811961D02*
X140652809Y-63907200D01*
X140652809Y-63907200D02*
X140509952Y-63954819D01*
X140509952Y-63954819D02*
X140271857Y-63954819D01*
X141033762Y-64050057D02*
X141795666Y-64050057D01*
X142033762Y-63954819D02*
X142033762Y-62954819D01*
X142033762Y-62954819D02*
X142414714Y-62954819D01*
X142414714Y-62954819D02*
X142509952Y-63002438D01*
X142509952Y-63002438D02*
X142557571Y-63050057D01*
X142557571Y-63050057D02*
X142605190Y-63145295D01*
X142605190Y-63145295D02*
X142605190Y-63288152D01*
X142605190Y-63288152D02*
X142557571Y-63383390D01*
X142557571Y-63383390D02*
X142509952Y-63431009D01*
X142509952Y-63431009D02*
X142414714Y-63478628D01*
X142414714Y-63478628D02*
X142033762Y-63478628D01*
X143176619Y-63954819D02*
X143081381Y-63907200D01*
X143081381Y-63907200D02*
X143033762Y-63859580D01*
X143033762Y-63859580D02*
X142986143Y-63764342D01*
X142986143Y-63764342D02*
X142986143Y-63478628D01*
X142986143Y-63478628D02*
X143033762Y-63383390D01*
X143033762Y-63383390D02*
X143081381Y-63335771D01*
X143081381Y-63335771D02*
X143176619Y-63288152D01*
X143176619Y-63288152D02*
X143319476Y-63288152D01*
X143319476Y-63288152D02*
X143414714Y-63335771D01*
X143414714Y-63335771D02*
X143462333Y-63383390D01*
X143462333Y-63383390D02*
X143509952Y-63478628D01*
X143509952Y-63478628D02*
X143509952Y-63764342D01*
X143509952Y-63764342D02*
X143462333Y-63859580D01*
X143462333Y-63859580D02*
X143414714Y-63907200D01*
X143414714Y-63907200D02*
X143319476Y-63954819D01*
X143319476Y-63954819D02*
X143176619Y-63954819D01*
X143843286Y-63288152D02*
X144033762Y-63954819D01*
X144033762Y-63954819D02*
X144224238Y-63478628D01*
X144224238Y-63478628D02*
X144414714Y-63954819D01*
X144414714Y-63954819D02*
X144605190Y-63288152D01*
X145367095Y-63907200D02*
X145271857Y-63954819D01*
X145271857Y-63954819D02*
X145081381Y-63954819D01*
X145081381Y-63954819D02*
X144986143Y-63907200D01*
X144986143Y-63907200D02*
X144938524Y-63811961D01*
X144938524Y-63811961D02*
X144938524Y-63431009D01*
X144938524Y-63431009D02*
X144986143Y-63335771D01*
X144986143Y-63335771D02*
X145081381Y-63288152D01*
X145081381Y-63288152D02*
X145271857Y-63288152D01*
X145271857Y-63288152D02*
X145367095Y-63335771D01*
X145367095Y-63335771D02*
X145414714Y-63431009D01*
X145414714Y-63431009D02*
X145414714Y-63526247D01*
X145414714Y-63526247D02*
X144938524Y-63621485D01*
X145843286Y-63954819D02*
X145843286Y-63288152D01*
X145843286Y-63478628D02*
X145890905Y-63383390D01*
X145890905Y-63383390D02*
X145938524Y-63335771D01*
X145938524Y-63335771D02*
X146033762Y-63288152D01*
X146033762Y-63288152D02*
X146129000Y-63288152D01*
X151511095Y-65923438D02*
X151415857Y-65875819D01*
X151415857Y-65875819D02*
X151273000Y-65875819D01*
X151273000Y-65875819D02*
X151130143Y-65923438D01*
X151130143Y-65923438D02*
X151034905Y-66018676D01*
X151034905Y-66018676D02*
X150987286Y-66113914D01*
X150987286Y-66113914D02*
X150939667Y-66304390D01*
X150939667Y-66304390D02*
X150939667Y-66447247D01*
X150939667Y-66447247D02*
X150987286Y-66637723D01*
X150987286Y-66637723D02*
X151034905Y-66732961D01*
X151034905Y-66732961D02*
X151130143Y-66828200D01*
X151130143Y-66828200D02*
X151273000Y-66875819D01*
X151273000Y-66875819D02*
X151368238Y-66875819D01*
X151368238Y-66875819D02*
X151511095Y-66828200D01*
X151511095Y-66828200D02*
X151558714Y-66780580D01*
X151558714Y-66780580D02*
X151558714Y-66447247D01*
X151558714Y-66447247D02*
X151368238Y-66447247D01*
X151987286Y-66875819D02*
X151987286Y-65875819D01*
X151987286Y-65875819D02*
X152558714Y-66875819D01*
X152558714Y-66875819D02*
X152558714Y-65875819D01*
X153034905Y-66875819D02*
X153034905Y-65875819D01*
X153034905Y-65875819D02*
X153273000Y-65875819D01*
X153273000Y-65875819D02*
X153415857Y-65923438D01*
X153415857Y-65923438D02*
X153511095Y-66018676D01*
X153511095Y-66018676D02*
X153558714Y-66113914D01*
X153558714Y-66113914D02*
X153606333Y-66304390D01*
X153606333Y-66304390D02*
X153606333Y-66447247D01*
X153606333Y-66447247D02*
X153558714Y-66637723D01*
X153558714Y-66637723D02*
X153511095Y-66732961D01*
X153511095Y-66732961D02*
X153415857Y-66828200D01*
X153415857Y-66828200D02*
X153273000Y-66875819D01*
X153273000Y-66875819D02*
X153034905Y-66875819D01*
X150050714Y-79575866D02*
X150812619Y-79575866D01*
X150431666Y-79956819D02*
X150431666Y-79194914D01*
X151764999Y-78956819D02*
X151288809Y-78956819D01*
X151288809Y-78956819D02*
X151241190Y-79433009D01*
X151241190Y-79433009D02*
X151288809Y-79385390D01*
X151288809Y-79385390D02*
X151384047Y-79337771D01*
X151384047Y-79337771D02*
X151622142Y-79337771D01*
X151622142Y-79337771D02*
X151717380Y-79385390D01*
X151717380Y-79385390D02*
X151764999Y-79433009D01*
X151764999Y-79433009D02*
X151812618Y-79528247D01*
X151812618Y-79528247D02*
X151812618Y-79766342D01*
X151812618Y-79766342D02*
X151764999Y-79861580D01*
X151764999Y-79861580D02*
X151717380Y-79909200D01*
X151717380Y-79909200D02*
X151622142Y-79956819D01*
X151622142Y-79956819D02*
X151384047Y-79956819D01*
X151384047Y-79956819D02*
X151288809Y-79909200D01*
X151288809Y-79909200D02*
X151241190Y-79861580D01*
X152098333Y-78956819D02*
X152431666Y-79956819D01*
X152431666Y-79956819D02*
X152764999Y-78956819D01*
X153050714Y-79671104D02*
X153526904Y-79671104D01*
X152955476Y-79956819D02*
X153288809Y-78956819D01*
X153288809Y-78956819D02*
X153622142Y-79956819D01*
X111212333Y-92773580D02*
X111164714Y-92821200D01*
X111164714Y-92821200D02*
X111021857Y-92868819D01*
X111021857Y-92868819D02*
X110926619Y-92868819D01*
X110926619Y-92868819D02*
X110783762Y-92821200D01*
X110783762Y-92821200D02*
X110688524Y-92725961D01*
X110688524Y-92725961D02*
X110640905Y-92630723D01*
X110640905Y-92630723D02*
X110593286Y-92440247D01*
X110593286Y-92440247D02*
X110593286Y-92297390D01*
X110593286Y-92297390D02*
X110640905Y-92106914D01*
X110640905Y-92106914D02*
X110688524Y-92011676D01*
X110688524Y-92011676D02*
X110783762Y-91916438D01*
X110783762Y-91916438D02*
X110926619Y-91868819D01*
X110926619Y-91868819D02*
X111021857Y-91868819D01*
X111021857Y-91868819D02*
X111164714Y-91916438D01*
X111164714Y-91916438D02*
X111212333Y-91964057D01*
X111545667Y-91868819D02*
X112164714Y-91868819D01*
X112164714Y-91868819D02*
X111831381Y-92249771D01*
X111831381Y-92249771D02*
X111974238Y-92249771D01*
X111974238Y-92249771D02*
X112069476Y-92297390D01*
X112069476Y-92297390D02*
X112117095Y-92345009D01*
X112117095Y-92345009D02*
X112164714Y-92440247D01*
X112164714Y-92440247D02*
X112164714Y-92678342D01*
X112164714Y-92678342D02*
X112117095Y-92773580D01*
X112117095Y-92773580D02*
X112069476Y-92821200D01*
X112069476Y-92821200D02*
X111974238Y-92868819D01*
X111974238Y-92868819D02*
X111688524Y-92868819D01*
X111688524Y-92868819D02*
X111593286Y-92821200D01*
X111593286Y-92821200D02*
X111545667Y-92773580D01*
X69948143Y-74112319D02*
X69948143Y-73112319D01*
X69948143Y-73112319D02*
X70329095Y-73112319D01*
X70329095Y-73112319D02*
X70424333Y-73159938D01*
X70424333Y-73159938D02*
X70471952Y-73207557D01*
X70471952Y-73207557D02*
X70519571Y-73302795D01*
X70519571Y-73302795D02*
X70519571Y-73445652D01*
X70519571Y-73445652D02*
X70471952Y-73540890D01*
X70471952Y-73540890D02*
X70424333Y-73588509D01*
X70424333Y-73588509D02*
X70329095Y-73636128D01*
X70329095Y-73636128D02*
X69948143Y-73636128D01*
X70852905Y-73445652D02*
X71043381Y-74112319D01*
X71043381Y-74112319D02*
X71233857Y-73636128D01*
X71233857Y-73636128D02*
X71424333Y-74112319D01*
X71424333Y-74112319D02*
X71614809Y-73445652D01*
X72281476Y-73112319D02*
X72281476Y-73826604D01*
X72281476Y-73826604D02*
X72233857Y-73969461D01*
X72233857Y-73969461D02*
X72138619Y-74064700D01*
X72138619Y-74064700D02*
X71995762Y-74112319D01*
X71995762Y-74112319D02*
X71900524Y-74112319D01*
X73281476Y-74112319D02*
X72710048Y-74112319D01*
X72995762Y-74112319D02*
X72995762Y-73112319D01*
X72995762Y-73112319D02*
X72900524Y-73255176D01*
X72900524Y-73255176D02*
X72805286Y-73350414D01*
X72805286Y-73350414D02*
X72710048Y-73398033D01*
X83447143Y-62049819D02*
X83447143Y-61049819D01*
X83447143Y-61049819D02*
X83828095Y-61049819D01*
X83828095Y-61049819D02*
X83923333Y-61097438D01*
X83923333Y-61097438D02*
X83970952Y-61145057D01*
X83970952Y-61145057D02*
X84018571Y-61240295D01*
X84018571Y-61240295D02*
X84018571Y-61383152D01*
X84018571Y-61383152D02*
X83970952Y-61478390D01*
X83970952Y-61478390D02*
X83923333Y-61526009D01*
X83923333Y-61526009D02*
X83828095Y-61573628D01*
X83828095Y-61573628D02*
X83447143Y-61573628D01*
X84351905Y-61383152D02*
X84542381Y-62049819D01*
X84542381Y-62049819D02*
X84732857Y-61573628D01*
X84732857Y-61573628D02*
X84923333Y-62049819D01*
X84923333Y-62049819D02*
X85113809Y-61383152D01*
X85780476Y-61049819D02*
X85780476Y-61764104D01*
X85780476Y-61764104D02*
X85732857Y-61906961D01*
X85732857Y-61906961D02*
X85637619Y-62002200D01*
X85637619Y-62002200D02*
X85494762Y-62049819D01*
X85494762Y-62049819D02*
X85399524Y-62049819D01*
X86209048Y-61145057D02*
X86256667Y-61097438D01*
X86256667Y-61097438D02*
X86351905Y-61049819D01*
X86351905Y-61049819D02*
X86590000Y-61049819D01*
X86590000Y-61049819D02*
X86685238Y-61097438D01*
X86685238Y-61097438D02*
X86732857Y-61145057D01*
X86732857Y-61145057D02*
X86780476Y-61240295D01*
X86780476Y-61240295D02*
X86780476Y-61335533D01*
X86780476Y-61335533D02*
X86732857Y-61478390D01*
X86732857Y-61478390D02*
X86161429Y-62049819D01*
X86161429Y-62049819D02*
X86780476Y-62049819D01*
X131639333Y-88007580D02*
X131591714Y-88055200D01*
X131591714Y-88055200D02*
X131448857Y-88102819D01*
X131448857Y-88102819D02*
X131353619Y-88102819D01*
X131353619Y-88102819D02*
X131210762Y-88055200D01*
X131210762Y-88055200D02*
X131115524Y-87959961D01*
X131115524Y-87959961D02*
X131067905Y-87864723D01*
X131067905Y-87864723D02*
X131020286Y-87674247D01*
X131020286Y-87674247D02*
X131020286Y-87531390D01*
X131020286Y-87531390D02*
X131067905Y-87340914D01*
X131067905Y-87340914D02*
X131115524Y-87245676D01*
X131115524Y-87245676D02*
X131210762Y-87150438D01*
X131210762Y-87150438D02*
X131353619Y-87102819D01*
X131353619Y-87102819D02*
X131448857Y-87102819D01*
X131448857Y-87102819D02*
X131591714Y-87150438D01*
X131591714Y-87150438D02*
X131639333Y-87198057D01*
X132496476Y-87436152D02*
X132496476Y-88102819D01*
X132258381Y-87055200D02*
X132020286Y-87769485D01*
X132020286Y-87769485D02*
X132639333Y-87769485D01*
X125592333Y-95492819D02*
X125259000Y-95016628D01*
X125020905Y-95492819D02*
X125020905Y-94492819D01*
X125020905Y-94492819D02*
X125401857Y-94492819D01*
X125401857Y-94492819D02*
X125497095Y-94540438D01*
X125497095Y-94540438D02*
X125544714Y-94588057D01*
X125544714Y-94588057D02*
X125592333Y-94683295D01*
X125592333Y-94683295D02*
X125592333Y-94826152D01*
X125592333Y-94826152D02*
X125544714Y-94921390D01*
X125544714Y-94921390D02*
X125497095Y-94969009D01*
X125497095Y-94969009D02*
X125401857Y-95016628D01*
X125401857Y-95016628D02*
X125020905Y-95016628D01*
X125973286Y-94588057D02*
X126020905Y-94540438D01*
X126020905Y-94540438D02*
X126116143Y-94492819D01*
X126116143Y-94492819D02*
X126354238Y-94492819D01*
X126354238Y-94492819D02*
X126449476Y-94540438D01*
X126449476Y-94540438D02*
X126497095Y-94588057D01*
X126497095Y-94588057D02*
X126544714Y-94683295D01*
X126544714Y-94683295D02*
X126544714Y-94778533D01*
X126544714Y-94778533D02*
X126497095Y-94921390D01*
X126497095Y-94921390D02*
X125925667Y-95492819D01*
X125925667Y-95492819D02*
X126544714Y-95492819D01*
X126875095Y-71091707D02*
X126875095Y-70091707D01*
X126875095Y-70091707D02*
X127256047Y-70091707D01*
X127256047Y-70091707D02*
X127351285Y-70139326D01*
X127351285Y-70139326D02*
X127398904Y-70186945D01*
X127398904Y-70186945D02*
X127446523Y-70282183D01*
X127446523Y-70282183D02*
X127446523Y-70425040D01*
X127446523Y-70425040D02*
X127398904Y-70520278D01*
X127398904Y-70520278D02*
X127351285Y-70567897D01*
X127351285Y-70567897D02*
X127256047Y-70615516D01*
X127256047Y-70615516D02*
X126875095Y-70615516D01*
X127779857Y-70425040D02*
X127970333Y-71091707D01*
X127970333Y-71091707D02*
X128160809Y-70615516D01*
X128160809Y-70615516D02*
X128351285Y-71091707D01*
X128351285Y-71091707D02*
X128541761Y-70425040D01*
X129494142Y-70996468D02*
X129446523Y-71044088D01*
X129446523Y-71044088D02*
X129303666Y-71091707D01*
X129303666Y-71091707D02*
X129208428Y-71091707D01*
X129208428Y-71091707D02*
X129065571Y-71044088D01*
X129065571Y-71044088D02*
X128970333Y-70948849D01*
X128970333Y-70948849D02*
X128922714Y-70853611D01*
X128922714Y-70853611D02*
X128875095Y-70663135D01*
X128875095Y-70663135D02*
X128875095Y-70520278D01*
X128875095Y-70520278D02*
X128922714Y-70329802D01*
X128922714Y-70329802D02*
X128970333Y-70234564D01*
X128970333Y-70234564D02*
X129065571Y-70139326D01*
X129065571Y-70139326D02*
X129208428Y-70091707D01*
X129208428Y-70091707D02*
X129303666Y-70091707D01*
X129303666Y-70091707D02*
X129446523Y-70139326D01*
X129446523Y-70139326D02*
X129494142Y-70186945D01*
X129827476Y-70091707D02*
X130446523Y-70091707D01*
X130446523Y-70091707D02*
X130113190Y-70472659D01*
X130113190Y-70472659D02*
X130256047Y-70472659D01*
X130256047Y-70472659D02*
X130351285Y-70520278D01*
X130351285Y-70520278D02*
X130398904Y-70567897D01*
X130398904Y-70567897D02*
X130446523Y-70663135D01*
X130446523Y-70663135D02*
X130446523Y-70901230D01*
X130446523Y-70901230D02*
X130398904Y-70996468D01*
X130398904Y-70996468D02*
X130351285Y-71044088D01*
X130351285Y-71044088D02*
X130256047Y-71091707D01*
X130256047Y-71091707D02*
X129970333Y-71091707D01*
X129970333Y-71091707D02*
X129875095Y-71044088D01*
X129875095Y-71044088D02*
X129827476Y-70996468D01*
X147875666Y-71185819D02*
X147875666Y-71900104D01*
X147875666Y-71900104D02*
X147828047Y-72042961D01*
X147828047Y-72042961D02*
X147732809Y-72138200D01*
X147732809Y-72138200D02*
X147589952Y-72185819D01*
X147589952Y-72185819D02*
X147494714Y-72185819D01*
X148780428Y-71519152D02*
X148780428Y-72185819D01*
X148542333Y-71138200D02*
X148304238Y-71852485D01*
X148304238Y-71852485D02*
X148923285Y-71852485D01*
X126042333Y-77925819D02*
X125709000Y-77449628D01*
X125470905Y-77925819D02*
X125470905Y-76925819D01*
X125470905Y-76925819D02*
X125851857Y-76925819D01*
X125851857Y-76925819D02*
X125947095Y-76973438D01*
X125947095Y-76973438D02*
X125994714Y-77021057D01*
X125994714Y-77021057D02*
X126042333Y-77116295D01*
X126042333Y-77116295D02*
X126042333Y-77259152D01*
X126042333Y-77259152D02*
X125994714Y-77354390D01*
X125994714Y-77354390D02*
X125947095Y-77402009D01*
X125947095Y-77402009D02*
X125851857Y-77449628D01*
X125851857Y-77449628D02*
X125470905Y-77449628D01*
X126375667Y-76925819D02*
X126994714Y-76925819D01*
X126994714Y-76925819D02*
X126661381Y-77306771D01*
X126661381Y-77306771D02*
X126804238Y-77306771D01*
X126804238Y-77306771D02*
X126899476Y-77354390D01*
X126899476Y-77354390D02*
X126947095Y-77402009D01*
X126947095Y-77402009D02*
X126994714Y-77497247D01*
X126994714Y-77497247D02*
X126994714Y-77735342D01*
X126994714Y-77735342D02*
X126947095Y-77830580D01*
X126947095Y-77830580D02*
X126899476Y-77878200D01*
X126899476Y-77878200D02*
X126804238Y-77925819D01*
X126804238Y-77925819D02*
X126518524Y-77925819D01*
X126518524Y-77925819D02*
X126423286Y-77878200D01*
X126423286Y-77878200D02*
X126375667Y-77830580D01*
X143049666Y-73959819D02*
X143049666Y-74674104D01*
X143049666Y-74674104D02*
X143002047Y-74816961D01*
X143002047Y-74816961D02*
X142906809Y-74912200D01*
X142906809Y-74912200D02*
X142763952Y-74959819D01*
X142763952Y-74959819D02*
X142668714Y-74959819D01*
X143430619Y-73959819D02*
X144049666Y-73959819D01*
X144049666Y-73959819D02*
X143716333Y-74340771D01*
X143716333Y-74340771D02*
X143859190Y-74340771D01*
X143859190Y-74340771D02*
X143954428Y-74388390D01*
X143954428Y-74388390D02*
X144002047Y-74436009D01*
X144002047Y-74436009D02*
X144049666Y-74531247D01*
X144049666Y-74531247D02*
X144049666Y-74769342D01*
X144049666Y-74769342D02*
X144002047Y-74864580D01*
X144002047Y-74864580D02*
X143954428Y-74912200D01*
X143954428Y-74912200D02*
X143859190Y-74959819D01*
X143859190Y-74959819D02*
X143573476Y-74959819D01*
X143573476Y-74959819D02*
X143478238Y-74912200D01*
X143478238Y-74912200D02*
X143430619Y-74864580D01*
X128190666Y-83867819D02*
X128190666Y-84582104D01*
X128190666Y-84582104D02*
X128143047Y-84724961D01*
X128143047Y-84724961D02*
X128047809Y-84820200D01*
X128047809Y-84820200D02*
X127904952Y-84867819D01*
X127904952Y-84867819D02*
X127809714Y-84867819D01*
X128809714Y-84296390D02*
X128714476Y-84248771D01*
X128714476Y-84248771D02*
X128666857Y-84201152D01*
X128666857Y-84201152D02*
X128619238Y-84105914D01*
X128619238Y-84105914D02*
X128619238Y-84058295D01*
X128619238Y-84058295D02*
X128666857Y-83963057D01*
X128666857Y-83963057D02*
X128714476Y-83915438D01*
X128714476Y-83915438D02*
X128809714Y-83867819D01*
X128809714Y-83867819D02*
X129000190Y-83867819D01*
X129000190Y-83867819D02*
X129095428Y-83915438D01*
X129095428Y-83915438D02*
X129143047Y-83963057D01*
X129143047Y-83963057D02*
X129190666Y-84058295D01*
X129190666Y-84058295D02*
X129190666Y-84105914D01*
X129190666Y-84105914D02*
X129143047Y-84201152D01*
X129143047Y-84201152D02*
X129095428Y-84248771D01*
X129095428Y-84248771D02*
X129000190Y-84296390D01*
X129000190Y-84296390D02*
X128809714Y-84296390D01*
X128809714Y-84296390D02*
X128714476Y-84344009D01*
X128714476Y-84344009D02*
X128666857Y-84391628D01*
X128666857Y-84391628D02*
X128619238Y-84486866D01*
X128619238Y-84486866D02*
X128619238Y-84677342D01*
X128619238Y-84677342D02*
X128666857Y-84772580D01*
X128666857Y-84772580D02*
X128714476Y-84820200D01*
X128714476Y-84820200D02*
X128809714Y-84867819D01*
X128809714Y-84867819D02*
X129000190Y-84867819D01*
X129000190Y-84867819D02*
X129095428Y-84820200D01*
X129095428Y-84820200D02*
X129143047Y-84772580D01*
X129143047Y-84772580D02*
X129190666Y-84677342D01*
X129190666Y-84677342D02*
X129190666Y-84486866D01*
X129190666Y-84486866D02*
X129143047Y-84391628D01*
X129143047Y-84391628D02*
X129095428Y-84344009D01*
X129095428Y-84344009D02*
X129000190Y-84296390D01*
X138096666Y-73959819D02*
X138096666Y-74674104D01*
X138096666Y-74674104D02*
X138049047Y-74816961D01*
X138049047Y-74816961D02*
X137953809Y-74912200D01*
X137953809Y-74912200D02*
X137810952Y-74959819D01*
X137810952Y-74959819D02*
X137715714Y-74959819D01*
X138525238Y-74055057D02*
X138572857Y-74007438D01*
X138572857Y-74007438D02*
X138668095Y-73959819D01*
X138668095Y-73959819D02*
X138906190Y-73959819D01*
X138906190Y-73959819D02*
X139001428Y-74007438D01*
X139001428Y-74007438D02*
X139049047Y-74055057D01*
X139049047Y-74055057D02*
X139096666Y-74150295D01*
X139096666Y-74150295D02*
X139096666Y-74245533D01*
X139096666Y-74245533D02*
X139049047Y-74388390D01*
X139049047Y-74388390D02*
X138477619Y-74959819D01*
X138477619Y-74959819D02*
X139096666Y-74959819D01*
X86701333Y-87673480D02*
X86653714Y-87721100D01*
X86653714Y-87721100D02*
X86510857Y-87768719D01*
X86510857Y-87768719D02*
X86415619Y-87768719D01*
X86415619Y-87768719D02*
X86272762Y-87721100D01*
X86272762Y-87721100D02*
X86177524Y-87625861D01*
X86177524Y-87625861D02*
X86129905Y-87530623D01*
X86129905Y-87530623D02*
X86082286Y-87340147D01*
X86082286Y-87340147D02*
X86082286Y-87197290D01*
X86082286Y-87197290D02*
X86129905Y-87006814D01*
X86129905Y-87006814D02*
X86177524Y-86911576D01*
X86177524Y-86911576D02*
X86272762Y-86816338D01*
X86272762Y-86816338D02*
X86415619Y-86768719D01*
X86415619Y-86768719D02*
X86510857Y-86768719D01*
X86510857Y-86768719D02*
X86653714Y-86816338D01*
X86653714Y-86816338D02*
X86701333Y-86863957D01*
X87653714Y-87768719D02*
X87082286Y-87768719D01*
X87368000Y-87768719D02*
X87368000Y-86768719D01*
X87368000Y-86768719D02*
X87272762Y-86911576D01*
X87272762Y-86911576D02*
X87177524Y-87006814D01*
X87177524Y-87006814D02*
X87082286Y-87054433D01*
X98695095Y-61668819D02*
X98695095Y-60668819D01*
X98695095Y-60668819D02*
X99076047Y-60668819D01*
X99076047Y-60668819D02*
X99171285Y-60716438D01*
X99171285Y-60716438D02*
X99218904Y-60764057D01*
X99218904Y-60764057D02*
X99266523Y-60859295D01*
X99266523Y-60859295D02*
X99266523Y-61002152D01*
X99266523Y-61002152D02*
X99218904Y-61097390D01*
X99218904Y-61097390D02*
X99171285Y-61145009D01*
X99171285Y-61145009D02*
X99076047Y-61192628D01*
X99076047Y-61192628D02*
X98695095Y-61192628D01*
X99599857Y-61002152D02*
X99790333Y-61668819D01*
X99790333Y-61668819D02*
X99980809Y-61192628D01*
X99980809Y-61192628D02*
X100171285Y-61668819D01*
X100171285Y-61668819D02*
X100361761Y-61002152D01*
X101314142Y-61573580D02*
X101266523Y-61621200D01*
X101266523Y-61621200D02*
X101123666Y-61668819D01*
X101123666Y-61668819D02*
X101028428Y-61668819D01*
X101028428Y-61668819D02*
X100885571Y-61621200D01*
X100885571Y-61621200D02*
X100790333Y-61525961D01*
X100790333Y-61525961D02*
X100742714Y-61430723D01*
X100742714Y-61430723D02*
X100695095Y-61240247D01*
X100695095Y-61240247D02*
X100695095Y-61097390D01*
X100695095Y-61097390D02*
X100742714Y-60906914D01*
X100742714Y-60906914D02*
X100790333Y-60811676D01*
X100790333Y-60811676D02*
X100885571Y-60716438D01*
X100885571Y-60716438D02*
X101028428Y-60668819D01*
X101028428Y-60668819D02*
X101123666Y-60668819D01*
X101123666Y-60668819D02*
X101266523Y-60716438D01*
X101266523Y-60716438D02*
X101314142Y-60764057D01*
X102266523Y-61668819D02*
X101695095Y-61668819D01*
X101980809Y-61668819D02*
X101980809Y-60668819D01*
X101980809Y-60668819D02*
X101885571Y-60811676D01*
X101885571Y-60811676D02*
X101790333Y-60906914D01*
X101790333Y-60906914D02*
X101695095Y-60954533D01*
D14*
X104249318Y-88542143D02*
X102979318Y-88542143D01*
X102979318Y-88542143D02*
X102979318Y-88058333D01*
X102979318Y-88058333D02*
X103039794Y-87937381D01*
X103039794Y-87937381D02*
X103100270Y-87876904D01*
X103100270Y-87876904D02*
X103221222Y-87816428D01*
X103221222Y-87816428D02*
X103402651Y-87816428D01*
X103402651Y-87816428D02*
X103523603Y-87876904D01*
X103523603Y-87876904D02*
X103584080Y-87937381D01*
X103584080Y-87937381D02*
X103644556Y-88058333D01*
X103644556Y-88058333D02*
X103644556Y-88542143D01*
X104188842Y-87332619D02*
X104249318Y-87151190D01*
X104249318Y-87151190D02*
X104249318Y-86848809D01*
X104249318Y-86848809D02*
X104188842Y-86727857D01*
X104188842Y-86727857D02*
X104128365Y-86667381D01*
X104128365Y-86667381D02*
X104007413Y-86606904D01*
X104007413Y-86606904D02*
X103886461Y-86606904D01*
X103886461Y-86606904D02*
X103765508Y-86667381D01*
X103765508Y-86667381D02*
X103705032Y-86727857D01*
X103705032Y-86727857D02*
X103644556Y-86848809D01*
X103644556Y-86848809D02*
X103584080Y-87090714D01*
X103584080Y-87090714D02*
X103523603Y-87211666D01*
X103523603Y-87211666D02*
X103463127Y-87272143D01*
X103463127Y-87272143D02*
X103342175Y-87332619D01*
X103342175Y-87332619D02*
X103221222Y-87332619D01*
X103221222Y-87332619D02*
X103100270Y-87272143D01*
X103100270Y-87272143D02*
X103039794Y-87211666D01*
X103039794Y-87211666D02*
X102979318Y-87090714D01*
X102979318Y-87090714D02*
X102979318Y-86788333D01*
X102979318Y-86788333D02*
X103039794Y-86606904D01*
X104249318Y-85397380D02*
X104249318Y-86123095D01*
X104249318Y-85760238D02*
X102979318Y-85760238D01*
X102979318Y-85760238D02*
X103160746Y-85881190D01*
X103160746Y-85881190D02*
X103281699Y-86002142D01*
X103281699Y-86002142D02*
X103342175Y-86123095D01*
D12*
X111593345Y-81216580D02*
X111545726Y-81264200D01*
X111545726Y-81264200D02*
X111402869Y-81311819D01*
X111402869Y-81311819D02*
X111307631Y-81311819D01*
X111307631Y-81311819D02*
X111164774Y-81264200D01*
X111164774Y-81264200D02*
X111069536Y-81168961D01*
X111069536Y-81168961D02*
X111021917Y-81073723D01*
X111021917Y-81073723D02*
X110974298Y-80883247D01*
X110974298Y-80883247D02*
X110974298Y-80740390D01*
X110974298Y-80740390D02*
X111021917Y-80549914D01*
X111021917Y-80549914D02*
X111069536Y-80454676D01*
X111069536Y-80454676D02*
X111164774Y-80359438D01*
X111164774Y-80359438D02*
X111307631Y-80311819D01*
X111307631Y-80311819D02*
X111402869Y-80311819D01*
X111402869Y-80311819D02*
X111545726Y-80359438D01*
X111545726Y-80359438D02*
X111593345Y-80407057D01*
X111974298Y-80407057D02*
X112021917Y-80359438D01*
X112021917Y-80359438D02*
X112117155Y-80311819D01*
X112117155Y-80311819D02*
X112355250Y-80311819D01*
X112355250Y-80311819D02*
X112450488Y-80359438D01*
X112450488Y-80359438D02*
X112498107Y-80407057D01*
X112498107Y-80407057D02*
X112545726Y-80502295D01*
X112545726Y-80502295D02*
X112545726Y-80597533D01*
X112545726Y-80597533D02*
X112498107Y-80740390D01*
X112498107Y-80740390D02*
X111926679Y-81311819D01*
X111926679Y-81311819D02*
X112545726Y-81311819D01*
X137969666Y-71185819D02*
X137969666Y-71900104D01*
X137969666Y-71900104D02*
X137922047Y-72042961D01*
X137922047Y-72042961D02*
X137826809Y-72138200D01*
X137826809Y-72138200D02*
X137683952Y-72185819D01*
X137683952Y-72185819D02*
X137588714Y-72185819D01*
X138874428Y-71185819D02*
X138683952Y-71185819D01*
X138683952Y-71185819D02*
X138588714Y-71233438D01*
X138588714Y-71233438D02*
X138541095Y-71281057D01*
X138541095Y-71281057D02*
X138445857Y-71423914D01*
X138445857Y-71423914D02*
X138398238Y-71614390D01*
X138398238Y-71614390D02*
X138398238Y-71995342D01*
X138398238Y-71995342D02*
X138445857Y-72090580D01*
X138445857Y-72090580D02*
X138493476Y-72138200D01*
X138493476Y-72138200D02*
X138588714Y-72185819D01*
X138588714Y-72185819D02*
X138779190Y-72185819D01*
X138779190Y-72185819D02*
X138874428Y-72138200D01*
X138874428Y-72138200D02*
X138922047Y-72090580D01*
X138922047Y-72090580D02*
X138969666Y-71995342D01*
X138969666Y-71995342D02*
X138969666Y-71757247D01*
X138969666Y-71757247D02*
X138922047Y-71662009D01*
X138922047Y-71662009D02*
X138874428Y-71614390D01*
X138874428Y-71614390D02*
X138779190Y-71566771D01*
X138779190Y-71566771D02*
X138588714Y-71566771D01*
X138588714Y-71566771D02*
X138493476Y-71614390D01*
X138493476Y-71614390D02*
X138445857Y-71662009D01*
X138445857Y-71662009D02*
X138398238Y-71757247D01*
X132000666Y-77009819D02*
X132000666Y-77724104D01*
X132000666Y-77724104D02*
X131953047Y-77866961D01*
X131953047Y-77866961D02*
X131857809Y-77962200D01*
X131857809Y-77962200D02*
X131714952Y-78009819D01*
X131714952Y-78009819D02*
X131619714Y-78009819D01*
X132524476Y-78009819D02*
X132714952Y-78009819D01*
X132714952Y-78009819D02*
X132810190Y-77962200D01*
X132810190Y-77962200D02*
X132857809Y-77914580D01*
X132857809Y-77914580D02*
X132953047Y-77771723D01*
X132953047Y-77771723D02*
X133000666Y-77581247D01*
X133000666Y-77581247D02*
X133000666Y-77200295D01*
X133000666Y-77200295D02*
X132953047Y-77105057D01*
X132953047Y-77105057D02*
X132905428Y-77057438D01*
X132905428Y-77057438D02*
X132810190Y-77009819D01*
X132810190Y-77009819D02*
X132619714Y-77009819D01*
X132619714Y-77009819D02*
X132524476Y-77057438D01*
X132524476Y-77057438D02*
X132476857Y-77105057D01*
X132476857Y-77105057D02*
X132429238Y-77200295D01*
X132429238Y-77200295D02*
X132429238Y-77438390D01*
X132429238Y-77438390D02*
X132476857Y-77533628D01*
X132476857Y-77533628D02*
X132524476Y-77581247D01*
X132524476Y-77581247D02*
X132619714Y-77628866D01*
X132619714Y-77628866D02*
X132810190Y-77628866D01*
X132810190Y-77628866D02*
X132905428Y-77581247D01*
X132905428Y-77581247D02*
X132953047Y-77533628D01*
X132953047Y-77533628D02*
X133000666Y-77438390D01*
D14*
X91604095Y-98820318D02*
X91604095Y-97550318D01*
X91604095Y-97550318D02*
X92087905Y-97550318D01*
X92087905Y-97550318D02*
X92208857Y-97610794D01*
X92208857Y-97610794D02*
X92269334Y-97671270D01*
X92269334Y-97671270D02*
X92329810Y-97792222D01*
X92329810Y-97792222D02*
X92329810Y-97973651D01*
X92329810Y-97973651D02*
X92269334Y-98094603D01*
X92269334Y-98094603D02*
X92208857Y-98155080D01*
X92208857Y-98155080D02*
X92087905Y-98215556D01*
X92087905Y-98215556D02*
X91604095Y-98215556D01*
X92753143Y-97973651D02*
X92995048Y-98820318D01*
X92995048Y-98820318D02*
X93236953Y-98215556D01*
X93236953Y-98215556D02*
X93478857Y-98820318D01*
X93478857Y-98820318D02*
X93720762Y-97973651D01*
X94627905Y-98155080D02*
X94204571Y-98155080D01*
X94204571Y-98820318D02*
X94204571Y-97550318D01*
X94204571Y-97550318D02*
X94809333Y-97550318D01*
X95232666Y-97671270D02*
X95293142Y-97610794D01*
X95293142Y-97610794D02*
X95414095Y-97550318D01*
X95414095Y-97550318D02*
X95716476Y-97550318D01*
X95716476Y-97550318D02*
X95837428Y-97610794D01*
X95837428Y-97610794D02*
X95897904Y-97671270D01*
X95897904Y-97671270D02*
X95958381Y-97792222D01*
X95958381Y-97792222D02*
X95958381Y-97913175D01*
X95958381Y-97913175D02*
X95897904Y-98094603D01*
X95897904Y-98094603D02*
X95172190Y-98820318D01*
X95172190Y-98820318D02*
X95958381Y-98820318D01*
D12*
X147875666Y-73959819D02*
X147875666Y-74674104D01*
X147875666Y-74674104D02*
X147828047Y-74816961D01*
X147828047Y-74816961D02*
X147732809Y-74912200D01*
X147732809Y-74912200D02*
X147589952Y-74959819D01*
X147589952Y-74959819D02*
X147494714Y-74959819D01*
X148256619Y-73959819D02*
X148923285Y-73959819D01*
X148923285Y-73959819D02*
X148494714Y-74959819D01*
D14*
X92595095Y-59121318D02*
X92595095Y-57851318D01*
X92595095Y-57851318D02*
X93078905Y-57851318D01*
X93078905Y-57851318D02*
X93199857Y-57911794D01*
X93199857Y-57911794D02*
X93260334Y-57972270D01*
X93260334Y-57972270D02*
X93320810Y-58093222D01*
X93320810Y-58093222D02*
X93320810Y-58274651D01*
X93320810Y-58274651D02*
X93260334Y-58395603D01*
X93260334Y-58395603D02*
X93199857Y-58456080D01*
X93199857Y-58456080D02*
X93078905Y-58516556D01*
X93078905Y-58516556D02*
X92595095Y-58516556D01*
X93744143Y-58274651D02*
X93986048Y-59121318D01*
X93986048Y-59121318D02*
X94227953Y-58516556D01*
X94227953Y-58516556D02*
X94469857Y-59121318D01*
X94469857Y-59121318D02*
X94711762Y-58274651D01*
X95618905Y-58456080D02*
X95195571Y-58456080D01*
X95195571Y-59121318D02*
X95195571Y-57851318D01*
X95195571Y-57851318D02*
X95800333Y-57851318D01*
X96949381Y-59121318D02*
X96223666Y-59121318D01*
X96586523Y-59121318D02*
X96586523Y-57851318D01*
X96586523Y-57851318D02*
X96465571Y-58032746D01*
X96465571Y-58032746D02*
X96344619Y-58153699D01*
X96344619Y-58153699D02*
X96223666Y-58214175D01*
D12*
X85987143Y-85168819D02*
X85987143Y-84168819D01*
X85987143Y-84168819D02*
X86368095Y-84168819D01*
X86368095Y-84168819D02*
X86463333Y-84216438D01*
X86463333Y-84216438D02*
X86510952Y-84264057D01*
X86510952Y-84264057D02*
X86558571Y-84359295D01*
X86558571Y-84359295D02*
X86558571Y-84502152D01*
X86558571Y-84502152D02*
X86510952Y-84597390D01*
X86510952Y-84597390D02*
X86463333Y-84645009D01*
X86463333Y-84645009D02*
X86368095Y-84692628D01*
X86368095Y-84692628D02*
X85987143Y-84692628D01*
X86891905Y-84502152D02*
X87082381Y-85168819D01*
X87082381Y-85168819D02*
X87272857Y-84692628D01*
X87272857Y-84692628D02*
X87463333Y-85168819D01*
X87463333Y-85168819D02*
X87653809Y-84502152D01*
X88320476Y-84168819D02*
X88320476Y-84883104D01*
X88320476Y-84883104D02*
X88272857Y-85025961D01*
X88272857Y-85025961D02*
X88177619Y-85121200D01*
X88177619Y-85121200D02*
X88034762Y-85168819D01*
X88034762Y-85168819D02*
X87939524Y-85168819D01*
X89272857Y-84168819D02*
X88796667Y-84168819D01*
X88796667Y-84168819D02*
X88749048Y-84645009D01*
X88749048Y-84645009D02*
X88796667Y-84597390D01*
X88796667Y-84597390D02*
X88891905Y-84549771D01*
X88891905Y-84549771D02*
X89130000Y-84549771D01*
X89130000Y-84549771D02*
X89225238Y-84597390D01*
X89225238Y-84597390D02*
X89272857Y-84645009D01*
X89272857Y-84645009D02*
X89320476Y-84740247D01*
X89320476Y-84740247D02*
X89320476Y-84978342D01*
X89320476Y-84978342D02*
X89272857Y-85073580D01*
X89272857Y-85073580D02*
X89225238Y-85121200D01*
X89225238Y-85121200D02*
X89130000Y-85168819D01*
X89130000Y-85168819D02*
X88891905Y-85168819D01*
X88891905Y-85168819D02*
X88796667Y-85121200D01*
X88796667Y-85121200D02*
X88749048Y-85073580D01*
D14*
X79574318Y-90207381D02*
X78304318Y-90207381D01*
X78304318Y-90207381D02*
X78304318Y-89723571D01*
X78304318Y-89723571D02*
X78364794Y-89602619D01*
X78364794Y-89602619D02*
X78425270Y-89542142D01*
X78425270Y-89542142D02*
X78546222Y-89481666D01*
X78546222Y-89481666D02*
X78727651Y-89481666D01*
X78727651Y-89481666D02*
X78848603Y-89542142D01*
X78848603Y-89542142D02*
X78909080Y-89602619D01*
X78909080Y-89602619D02*
X78969556Y-89723571D01*
X78969556Y-89723571D02*
X78969556Y-90207381D01*
X78727651Y-89058333D02*
X79574318Y-88816428D01*
X79574318Y-88816428D02*
X78969556Y-88574523D01*
X78969556Y-88574523D02*
X79574318Y-88332619D01*
X79574318Y-88332619D02*
X78727651Y-88090714D01*
X79513842Y-87667381D02*
X79574318Y-87485952D01*
X79574318Y-87485952D02*
X79574318Y-87183571D01*
X79574318Y-87183571D02*
X79513842Y-87062619D01*
X79513842Y-87062619D02*
X79453365Y-87002143D01*
X79453365Y-87002143D02*
X79332413Y-86941666D01*
X79332413Y-86941666D02*
X79211461Y-86941666D01*
X79211461Y-86941666D02*
X79090508Y-87002143D01*
X79090508Y-87002143D02*
X79030032Y-87062619D01*
X79030032Y-87062619D02*
X78969556Y-87183571D01*
X78969556Y-87183571D02*
X78909080Y-87425476D01*
X78909080Y-87425476D02*
X78848603Y-87546428D01*
X78848603Y-87546428D02*
X78788127Y-87606905D01*
X78788127Y-87606905D02*
X78667175Y-87667381D01*
X78667175Y-87667381D02*
X78546222Y-87667381D01*
X78546222Y-87667381D02*
X78425270Y-87606905D01*
X78425270Y-87606905D02*
X78364794Y-87546428D01*
X78364794Y-87546428D02*
X78304318Y-87425476D01*
X78304318Y-87425476D02*
X78304318Y-87123095D01*
X78304318Y-87123095D02*
X78364794Y-86941666D01*
X79574318Y-85732142D02*
X79574318Y-86457857D01*
X79574318Y-86095000D02*
X78304318Y-86095000D01*
X78304318Y-86095000D02*
X78485746Y-86215952D01*
X78485746Y-86215952D02*
X78606699Y-86336904D01*
X78606699Y-86336904D02*
X78667175Y-86457857D01*
D12*
X116683333Y-67640819D02*
X116683333Y-66640819D01*
X116683333Y-66640819D02*
X117064285Y-66640819D01*
X117064285Y-66640819D02*
X117159523Y-66688438D01*
X117159523Y-66688438D02*
X117207142Y-66736057D01*
X117207142Y-66736057D02*
X117254761Y-66831295D01*
X117254761Y-66831295D02*
X117254761Y-66974152D01*
X117254761Y-66974152D02*
X117207142Y-67069390D01*
X117207142Y-67069390D02*
X117159523Y-67117009D01*
X117159523Y-67117009D02*
X117064285Y-67164628D01*
X117064285Y-67164628D02*
X116683333Y-67164628D01*
X117588095Y-66974152D02*
X117778571Y-67640819D01*
X117778571Y-67640819D02*
X117969047Y-67164628D01*
X117969047Y-67164628D02*
X118159523Y-67640819D01*
X118159523Y-67640819D02*
X118349999Y-66974152D01*
X119207142Y-67640819D02*
X118730952Y-67640819D01*
X118730952Y-67640819D02*
X118730952Y-66640819D01*
X120064285Y-67640819D02*
X119492857Y-67640819D01*
X119778571Y-67640819D02*
X119778571Y-66640819D01*
X119778571Y-66640819D02*
X119683333Y-66783676D01*
X119683333Y-66783676D02*
X119588095Y-66878914D01*
X119588095Y-66878914D02*
X119492857Y-66926533D01*
X95212819Y-76872333D02*
X95927104Y-76872333D01*
X95927104Y-76872333D02*
X96069961Y-76919952D01*
X96069961Y-76919952D02*
X96165200Y-77015190D01*
X96165200Y-77015190D02*
X96212819Y-77158047D01*
X96212819Y-77158047D02*
X96212819Y-77253285D01*
X96212819Y-75872333D02*
X96212819Y-76443761D01*
X96212819Y-76158047D02*
X95212819Y-76158047D01*
X95212819Y-76158047D02*
X95355676Y-76253285D01*
X95355676Y-76253285D02*
X95450914Y-76348523D01*
X95450914Y-76348523D02*
X95498533Y-76443761D01*
X118863819Y-86698904D02*
X119673342Y-86698904D01*
X119673342Y-86698904D02*
X119768580Y-86651285D01*
X119768580Y-86651285D02*
X119816200Y-86603666D01*
X119816200Y-86603666D02*
X119863819Y-86508428D01*
X119863819Y-86508428D02*
X119863819Y-86317952D01*
X119863819Y-86317952D02*
X119816200Y-86222714D01*
X119816200Y-86222714D02*
X119768580Y-86175095D01*
X119768580Y-86175095D02*
X119673342Y-86127476D01*
X119673342Y-86127476D02*
X118863819Y-86127476D01*
X119863819Y-85127476D02*
X119863819Y-85698904D01*
X119863819Y-85413190D02*
X118863819Y-85413190D01*
X118863819Y-85413190D02*
X119006676Y-85508428D01*
X119006676Y-85508428D02*
X119101914Y-85603666D01*
X119101914Y-85603666D02*
X119149533Y-85698904D01*
X119975333Y-95492819D02*
X119642000Y-95016628D01*
X119403905Y-95492819D02*
X119403905Y-94492819D01*
X119403905Y-94492819D02*
X119784857Y-94492819D01*
X119784857Y-94492819D02*
X119880095Y-94540438D01*
X119880095Y-94540438D02*
X119927714Y-94588057D01*
X119927714Y-94588057D02*
X119975333Y-94683295D01*
X119975333Y-94683295D02*
X119975333Y-94826152D01*
X119975333Y-94826152D02*
X119927714Y-94921390D01*
X119927714Y-94921390D02*
X119880095Y-94969009D01*
X119880095Y-94969009D02*
X119784857Y-95016628D01*
X119784857Y-95016628D02*
X119403905Y-95016628D01*
X120927714Y-95492819D02*
X120356286Y-95492819D01*
X120642000Y-95492819D02*
X120642000Y-94492819D01*
X120642000Y-94492819D02*
X120546762Y-94635676D01*
X120546762Y-94635676D02*
X120451524Y-94730914D01*
X120451524Y-94730914D02*
X120356286Y-94778533D01*
X143049666Y-71185819D02*
X143049666Y-71900104D01*
X143049666Y-71900104D02*
X143002047Y-72042961D01*
X143002047Y-72042961D02*
X142906809Y-72138200D01*
X142906809Y-72138200D02*
X142763952Y-72185819D01*
X142763952Y-72185819D02*
X142668714Y-72185819D01*
X144002047Y-71185819D02*
X143525857Y-71185819D01*
X143525857Y-71185819D02*
X143478238Y-71662009D01*
X143478238Y-71662009D02*
X143525857Y-71614390D01*
X143525857Y-71614390D02*
X143621095Y-71566771D01*
X143621095Y-71566771D02*
X143859190Y-71566771D01*
X143859190Y-71566771D02*
X143954428Y-71614390D01*
X143954428Y-71614390D02*
X144002047Y-71662009D01*
X144002047Y-71662009D02*
X144049666Y-71757247D01*
X144049666Y-71757247D02*
X144049666Y-71995342D01*
X144049666Y-71995342D02*
X144002047Y-72090580D01*
X144002047Y-72090580D02*
X143954428Y-72138200D01*
X143954428Y-72138200D02*
X143859190Y-72185819D01*
X143859190Y-72185819D02*
X143621095Y-72185819D01*
X143621095Y-72185819D02*
X143525857Y-72138200D01*
X143525857Y-72138200D02*
X143478238Y-72090580D01*
X120835333Y-77925819D02*
X120502000Y-77449628D01*
X120263905Y-77925819D02*
X120263905Y-76925819D01*
X120263905Y-76925819D02*
X120644857Y-76925819D01*
X120644857Y-76925819D02*
X120740095Y-76973438D01*
X120740095Y-76973438D02*
X120787714Y-77021057D01*
X120787714Y-77021057D02*
X120835333Y-77116295D01*
X120835333Y-77116295D02*
X120835333Y-77259152D01*
X120835333Y-77259152D02*
X120787714Y-77354390D01*
X120787714Y-77354390D02*
X120740095Y-77402009D01*
X120740095Y-77402009D02*
X120644857Y-77449628D01*
X120644857Y-77449628D02*
X120263905Y-77449628D01*
X121692476Y-77259152D02*
X121692476Y-77925819D01*
X121454381Y-76878200D02*
X121216286Y-77592485D01*
X121216286Y-77592485D02*
X121835333Y-77592485D01*
X121541095Y-59469819D02*
X121541095Y-58469819D01*
X121541095Y-58469819D02*
X121922047Y-58469819D01*
X121922047Y-58469819D02*
X122017285Y-58517438D01*
X122017285Y-58517438D02*
X122064904Y-58565057D01*
X122064904Y-58565057D02*
X122112523Y-58660295D01*
X122112523Y-58660295D02*
X122112523Y-58803152D01*
X122112523Y-58803152D02*
X122064904Y-58898390D01*
X122064904Y-58898390D02*
X122017285Y-58946009D01*
X122017285Y-58946009D02*
X121922047Y-58993628D01*
X121922047Y-58993628D02*
X121541095Y-58993628D01*
X122445857Y-58803152D02*
X122636333Y-59469819D01*
X122636333Y-59469819D02*
X122826809Y-58993628D01*
X122826809Y-58993628D02*
X123017285Y-59469819D01*
X123017285Y-59469819D02*
X123207761Y-58803152D01*
X124160142Y-59374580D02*
X124112523Y-59422200D01*
X124112523Y-59422200D02*
X123969666Y-59469819D01*
X123969666Y-59469819D02*
X123874428Y-59469819D01*
X123874428Y-59469819D02*
X123731571Y-59422200D01*
X123731571Y-59422200D02*
X123636333Y-59326961D01*
X123636333Y-59326961D02*
X123588714Y-59231723D01*
X123588714Y-59231723D02*
X123541095Y-59041247D01*
X123541095Y-59041247D02*
X123541095Y-58898390D01*
X123541095Y-58898390D02*
X123588714Y-58707914D01*
X123588714Y-58707914D02*
X123636333Y-58612676D01*
X123636333Y-58612676D02*
X123731571Y-58517438D01*
X123731571Y-58517438D02*
X123874428Y-58469819D01*
X123874428Y-58469819D02*
X123969666Y-58469819D01*
X123969666Y-58469819D02*
X124112523Y-58517438D01*
X124112523Y-58517438D02*
X124160142Y-58565057D01*
X124541095Y-58565057D02*
X124588714Y-58517438D01*
X124588714Y-58517438D02*
X124683952Y-58469819D01*
X124683952Y-58469819D02*
X124922047Y-58469819D01*
X124922047Y-58469819D02*
X125017285Y-58517438D01*
X125017285Y-58517438D02*
X125064904Y-58565057D01*
X125064904Y-58565057D02*
X125112523Y-58660295D01*
X125112523Y-58660295D02*
X125112523Y-58755533D01*
X125112523Y-58755533D02*
X125064904Y-58898390D01*
X125064904Y-58898390D02*
X124493476Y-59469819D01*
X124493476Y-59469819D02*
X125112523Y-59469819D01*
X88146143Y-62049819D02*
X88146143Y-61049819D01*
X88146143Y-61049819D02*
X88527095Y-61049819D01*
X88527095Y-61049819D02*
X88622333Y-61097438D01*
X88622333Y-61097438D02*
X88669952Y-61145057D01*
X88669952Y-61145057D02*
X88717571Y-61240295D01*
X88717571Y-61240295D02*
X88717571Y-61383152D01*
X88717571Y-61383152D02*
X88669952Y-61478390D01*
X88669952Y-61478390D02*
X88622333Y-61526009D01*
X88622333Y-61526009D02*
X88527095Y-61573628D01*
X88527095Y-61573628D02*
X88146143Y-61573628D01*
X89050905Y-61383152D02*
X89241381Y-62049819D01*
X89241381Y-62049819D02*
X89431857Y-61573628D01*
X89431857Y-61573628D02*
X89622333Y-62049819D01*
X89622333Y-62049819D02*
X89812809Y-61383152D01*
X90479476Y-61049819D02*
X90479476Y-61764104D01*
X90479476Y-61764104D02*
X90431857Y-61906961D01*
X90431857Y-61906961D02*
X90336619Y-62002200D01*
X90336619Y-62002200D02*
X90193762Y-62049819D01*
X90193762Y-62049819D02*
X90098524Y-62049819D01*
X91384238Y-61383152D02*
X91384238Y-62049819D01*
X91146143Y-61002200D02*
X90908048Y-61716485D01*
X90908048Y-61716485D02*
X91527095Y-61716485D01*
D14*
X106919999Y-60224318D02*
X106919999Y-58954318D01*
X106919999Y-58954318D02*
X107403809Y-58954318D01*
X107403809Y-58954318D02*
X107524761Y-59014794D01*
X107524761Y-59014794D02*
X107585238Y-59075270D01*
X107585238Y-59075270D02*
X107645714Y-59196222D01*
X107645714Y-59196222D02*
X107645714Y-59377651D01*
X107645714Y-59377651D02*
X107585238Y-59498603D01*
X107585238Y-59498603D02*
X107524761Y-59559080D01*
X107524761Y-59559080D02*
X107403809Y-59619556D01*
X107403809Y-59619556D02*
X106919999Y-59619556D01*
X108069047Y-59377651D02*
X108310952Y-60224318D01*
X108310952Y-60224318D02*
X108552857Y-59619556D01*
X108552857Y-59619556D02*
X108794761Y-60224318D01*
X108794761Y-60224318D02*
X109036666Y-59377651D01*
X109520475Y-60224318D02*
X109520475Y-58954318D01*
X110850952Y-60103365D02*
X110790476Y-60163842D01*
X110790476Y-60163842D02*
X110609047Y-60224318D01*
X110609047Y-60224318D02*
X110488095Y-60224318D01*
X110488095Y-60224318D02*
X110306666Y-60163842D01*
X110306666Y-60163842D02*
X110185714Y-60042889D01*
X110185714Y-60042889D02*
X110125237Y-59921937D01*
X110125237Y-59921937D02*
X110064761Y-59680032D01*
X110064761Y-59680032D02*
X110064761Y-59498603D01*
X110064761Y-59498603D02*
X110125237Y-59256699D01*
X110125237Y-59256699D02*
X110185714Y-59135746D01*
X110185714Y-59135746D02*
X110306666Y-59014794D01*
X110306666Y-59014794D02*
X110488095Y-58954318D01*
X110488095Y-58954318D02*
X110609047Y-58954318D01*
X110609047Y-58954318D02*
X110790476Y-59014794D01*
X110790476Y-59014794D02*
X110850952Y-59075270D01*
X112060476Y-60224318D02*
X111334761Y-60224318D01*
X111697618Y-60224318D02*
X111697618Y-58954318D01*
X111697618Y-58954318D02*
X111576666Y-59135746D01*
X111576666Y-59135746D02*
X111455714Y-59256699D01*
X111455714Y-59256699D02*
X111334761Y-59317175D01*
D12*
X81161143Y-85158819D02*
X81161143Y-84158819D01*
X81161143Y-84158819D02*
X81542095Y-84158819D01*
X81542095Y-84158819D02*
X81637333Y-84206438D01*
X81637333Y-84206438D02*
X81684952Y-84254057D01*
X81684952Y-84254057D02*
X81732571Y-84349295D01*
X81732571Y-84349295D02*
X81732571Y-84492152D01*
X81732571Y-84492152D02*
X81684952Y-84587390D01*
X81684952Y-84587390D02*
X81637333Y-84635009D01*
X81637333Y-84635009D02*
X81542095Y-84682628D01*
X81542095Y-84682628D02*
X81161143Y-84682628D01*
X82065905Y-84492152D02*
X82256381Y-85158819D01*
X82256381Y-85158819D02*
X82446857Y-84682628D01*
X82446857Y-84682628D02*
X82637333Y-85158819D01*
X82637333Y-85158819D02*
X82827809Y-84492152D01*
X83494476Y-84158819D02*
X83494476Y-84873104D01*
X83494476Y-84873104D02*
X83446857Y-85015961D01*
X83446857Y-85015961D02*
X83351619Y-85111200D01*
X83351619Y-85111200D02*
X83208762Y-85158819D01*
X83208762Y-85158819D02*
X83113524Y-85158819D01*
X83875429Y-84158819D02*
X84494476Y-84158819D01*
X84494476Y-84158819D02*
X84161143Y-84539771D01*
X84161143Y-84539771D02*
X84304000Y-84539771D01*
X84304000Y-84539771D02*
X84399238Y-84587390D01*
X84399238Y-84587390D02*
X84446857Y-84635009D01*
X84446857Y-84635009D02*
X84494476Y-84730247D01*
X84494476Y-84730247D02*
X84494476Y-84968342D01*
X84494476Y-84968342D02*
X84446857Y-85063580D01*
X84446857Y-85063580D02*
X84399238Y-85111200D01*
X84399238Y-85111200D02*
X84304000Y-85158819D01*
X84304000Y-85158819D02*
X84018286Y-85158819D01*
X84018286Y-85158819D02*
X83923048Y-85111200D01*
X83923048Y-85111200D02*
X83875429Y-85063580D01*
D15*
%TO.C,C3*%
X113768000Y-90007000D02*
X112239000Y-90007000D01*
X113768000Y-90047000D02*
X112243000Y-90047000D01*
X113768000Y-90087000D02*
X112247000Y-90087000D01*
X113768000Y-90127000D02*
X112252000Y-90127000D01*
X113768000Y-90167000D02*
X112258000Y-90167000D01*
X113768000Y-90207000D02*
X112265000Y-90207000D01*
X113768000Y-90247000D02*
X112272000Y-90247000D01*
X113768000Y-90287000D02*
X112280000Y-90287000D01*
X113768000Y-90327000D02*
X112288000Y-90327000D01*
X113768000Y-90367000D02*
X112297000Y-90367000D01*
X113768000Y-90407000D02*
X112307000Y-90407000D01*
X113768000Y-90447000D02*
X112317000Y-90447000D01*
X113768000Y-90488000D02*
X112328000Y-90488000D01*
X113768000Y-90528000D02*
X112340000Y-90528000D01*
X113768000Y-90568000D02*
X112353000Y-90568000D01*
X113768000Y-90608000D02*
X112366000Y-90608000D01*
X113768000Y-90648000D02*
X112380000Y-90648000D01*
X113768000Y-90688000D02*
X112394000Y-90688000D01*
X113768000Y-90728000D02*
X112410000Y-90728000D01*
X113768000Y-90768000D02*
X112426000Y-90768000D01*
X113768000Y-90808000D02*
X112443000Y-90808000D01*
X113768000Y-90848000D02*
X112460000Y-90848000D01*
X113768000Y-90888000D02*
X112479000Y-90888000D01*
X113768000Y-90928000D02*
X112498000Y-90928000D01*
X113768000Y-90968000D02*
X112518000Y-90968000D01*
X113768000Y-91008000D02*
X112540000Y-91008000D01*
X113768000Y-91048000D02*
X112561000Y-91048000D01*
X113768000Y-91088000D02*
X112584000Y-91088000D01*
X113768000Y-91128000D02*
X112608000Y-91128000D01*
X113768000Y-91168000D02*
X112633000Y-91168000D01*
X113768000Y-91208000D02*
X112659000Y-91208000D01*
X113768000Y-91248000D02*
X112686000Y-91248000D01*
X113768000Y-91288000D02*
X112713000Y-91288000D01*
X113768000Y-91328000D02*
X112743000Y-91328000D01*
X113768000Y-91368000D02*
X112773000Y-91368000D01*
X113768000Y-91408000D02*
X112804000Y-91408000D01*
X113768000Y-91448000D02*
X112837000Y-91448000D01*
X113768000Y-91488000D02*
X112871000Y-91488000D01*
X113768000Y-91528000D02*
X112907000Y-91528000D01*
X113768000Y-91568000D02*
X112944000Y-91568000D01*
X113768000Y-91608000D02*
X112982000Y-91608000D01*
X113768000Y-91648000D02*
X113023000Y-91648000D01*
X113768000Y-91688000D02*
X113065000Y-91688000D01*
X113768000Y-91728000D02*
X113109000Y-91728000D01*
X113768000Y-91768000D02*
X113155000Y-91768000D01*
X113768000Y-91808000D02*
X113203000Y-91808000D01*
X113768000Y-91848000D02*
X113254000Y-91848000D01*
X113768000Y-91888000D02*
X113308000Y-91888000D01*
X113768000Y-91928000D02*
X113365000Y-91928000D01*
X113768000Y-91968000D02*
X113425000Y-91968000D01*
X113768000Y-92008000D02*
X113489000Y-92008000D01*
X113768000Y-92048000D02*
X113557000Y-92048000D01*
X115092000Y-92368000D02*
X114524000Y-92368000D01*
X115326000Y-92328000D02*
X114290000Y-92328000D01*
X115485000Y-92288000D02*
X114131000Y-92288000D01*
X115613000Y-92248000D02*
X114003000Y-92248000D01*
X115723000Y-92208000D02*
X113893000Y-92208000D01*
X115819000Y-92168000D02*
X113797000Y-92168000D01*
X115906000Y-92128000D02*
X113710000Y-92128000D01*
X115986000Y-92088000D02*
X113630000Y-92088000D01*
X116059000Y-92048000D02*
X115848000Y-92048000D01*
X116127000Y-92008000D02*
X115848000Y-92008000D01*
X116191000Y-91968000D02*
X115848000Y-91968000D01*
X116251000Y-91928000D02*
X115848000Y-91928000D01*
X116283000Y-86962225D02*
X116283000Y-87462225D01*
X116308000Y-91888000D02*
X115848000Y-91888000D01*
X116362000Y-91848000D02*
X115848000Y-91848000D01*
X116413000Y-91808000D02*
X115848000Y-91808000D01*
X116461000Y-91768000D02*
X115848000Y-91768000D01*
X116507000Y-91728000D02*
X115848000Y-91728000D01*
X116533000Y-87212225D02*
X116033000Y-87212225D01*
X116551000Y-91688000D02*
X115848000Y-91688000D01*
X116593000Y-91648000D02*
X115848000Y-91648000D01*
X116634000Y-91608000D02*
X115848000Y-91608000D01*
X116672000Y-91568000D02*
X115848000Y-91568000D01*
X116709000Y-91528000D02*
X115848000Y-91528000D01*
X116745000Y-91488000D02*
X115848000Y-91488000D01*
X116779000Y-91448000D02*
X115848000Y-91448000D01*
X116812000Y-91408000D02*
X115848000Y-91408000D01*
X116843000Y-91368000D02*
X115848000Y-91368000D01*
X116873000Y-91328000D02*
X115848000Y-91328000D01*
X116903000Y-91288000D02*
X115848000Y-91288000D01*
X116930000Y-91248000D02*
X115848000Y-91248000D01*
X116957000Y-91208000D02*
X115848000Y-91208000D01*
X116983000Y-91168000D02*
X115848000Y-91168000D01*
X117008000Y-91128000D02*
X115848000Y-91128000D01*
X117032000Y-91088000D02*
X115848000Y-91088000D01*
X117055000Y-91048000D02*
X115848000Y-91048000D01*
X117076000Y-91008000D02*
X115848000Y-91008000D01*
X117098000Y-90968000D02*
X115848000Y-90968000D01*
X117118000Y-90928000D02*
X115848000Y-90928000D01*
X117137000Y-90888000D02*
X115848000Y-90888000D01*
X117156000Y-90848000D02*
X115848000Y-90848000D01*
X117173000Y-90808000D02*
X115848000Y-90808000D01*
X117190000Y-90768000D02*
X115848000Y-90768000D01*
X117206000Y-90728000D02*
X115848000Y-90728000D01*
X117222000Y-90688000D02*
X115848000Y-90688000D01*
X117236000Y-90648000D02*
X115848000Y-90648000D01*
X117250000Y-90608000D02*
X115848000Y-90608000D01*
X117263000Y-90568000D02*
X115848000Y-90568000D01*
X117276000Y-90528000D02*
X115848000Y-90528000D01*
X117288000Y-90488000D02*
X115848000Y-90488000D01*
X117299000Y-90447000D02*
X115848000Y-90447000D01*
X117309000Y-90407000D02*
X115848000Y-90407000D01*
X117319000Y-90367000D02*
X115848000Y-90367000D01*
X117328000Y-90327000D02*
X115848000Y-90327000D01*
X117336000Y-90287000D02*
X115848000Y-90287000D01*
X117344000Y-90247000D02*
X115848000Y-90247000D01*
X117351000Y-90207000D02*
X115848000Y-90207000D01*
X117358000Y-90167000D02*
X115848000Y-90167000D01*
X117364000Y-90127000D02*
X115848000Y-90127000D01*
X117369000Y-90087000D02*
X115848000Y-90087000D01*
X117373000Y-90047000D02*
X115848000Y-90047000D01*
X117377000Y-90007000D02*
X115848000Y-90007000D01*
X117381000Y-89967000D02*
X112235000Y-89967000D01*
X117384000Y-89927000D02*
X112232000Y-89927000D01*
X117386000Y-89887000D02*
X112230000Y-89887000D01*
X117387000Y-89847000D02*
X112229000Y-89847000D01*
X117388000Y-89767000D02*
X112228000Y-89767000D01*
X117388000Y-89807000D02*
X112228000Y-89807000D01*
X117428000Y-89767000D02*
G75*
G02*
X112188000Y-89767000I-2620000J0D01*
G01*
X112188000Y-89767000D02*
G75*
G02*
X117428000Y-89767000I2620000J0D01*
G01*
%TO.C,PwJ1*%
X66241000Y-63307500D02*
X80941000Y-63307500D01*
X66241000Y-72507500D02*
X66241000Y-63307500D01*
X75041000Y-72507500D02*
X66241000Y-72507500D01*
X80091000Y-63107500D02*
X81141000Y-63107500D01*
X80941000Y-63307500D02*
X80941000Y-65907500D01*
X80941000Y-69807500D02*
X80941000Y-72507500D01*
X80941000Y-72507500D02*
X79041000Y-72507500D01*
X81141000Y-64157500D02*
X81141000Y-63107500D01*
%TO.C,PwJ2*%
X83887000Y-65659000D02*
X83887000Y-63059000D01*
X86547000Y-63059000D02*
X83887000Y-63059000D01*
X86547000Y-65659000D02*
X83887000Y-65659000D01*
X86547000Y-65659000D02*
X86547000Y-63059000D01*
X86547000Y-66929000D02*
X86547000Y-68259000D01*
X86547000Y-68259000D02*
X85217000Y-68259000D01*
%TO.C,C4*%
X129001225Y-89923000D02*
X129501225Y-89923000D01*
X129251225Y-89673000D02*
X129251225Y-90173000D01*
X131806000Y-88818000D02*
X131806000Y-93978000D01*
X131846000Y-88818000D02*
X131846000Y-93978000D01*
X131886000Y-88819000D02*
X131886000Y-93977000D01*
X131926000Y-88820000D02*
X131926000Y-93976000D01*
X131966000Y-88822000D02*
X131966000Y-93974000D01*
X132006000Y-88825000D02*
X132006000Y-93971000D01*
X132046000Y-88829000D02*
X132046000Y-90358000D01*
X132046000Y-92438000D02*
X132046000Y-93967000D01*
X132086000Y-88833000D02*
X132086000Y-90358000D01*
X132086000Y-92438000D02*
X132086000Y-93963000D01*
X132126000Y-88837000D02*
X132126000Y-90358000D01*
X132126000Y-92438000D02*
X132126000Y-93959000D01*
X132166000Y-88842000D02*
X132166000Y-90358000D01*
X132166000Y-92438000D02*
X132166000Y-93954000D01*
X132206000Y-88848000D02*
X132206000Y-90358000D01*
X132206000Y-92438000D02*
X132206000Y-93948000D01*
X132246000Y-88855000D02*
X132246000Y-90358000D01*
X132246000Y-92438000D02*
X132246000Y-93941000D01*
X132286000Y-88862000D02*
X132286000Y-90358000D01*
X132286000Y-92438000D02*
X132286000Y-93934000D01*
X132326000Y-88870000D02*
X132326000Y-90358000D01*
X132326000Y-92438000D02*
X132326000Y-93926000D01*
X132366000Y-88878000D02*
X132366000Y-90358000D01*
X132366000Y-92438000D02*
X132366000Y-93918000D01*
X132406000Y-88887000D02*
X132406000Y-90358000D01*
X132406000Y-92438000D02*
X132406000Y-93909000D01*
X132446000Y-88897000D02*
X132446000Y-90358000D01*
X132446000Y-92438000D02*
X132446000Y-93899000D01*
X132486000Y-88907000D02*
X132486000Y-90358000D01*
X132486000Y-92438000D02*
X132486000Y-93889000D01*
X132527000Y-88918000D02*
X132527000Y-90358000D01*
X132527000Y-92438000D02*
X132527000Y-93878000D01*
X132567000Y-88930000D02*
X132567000Y-90358000D01*
X132567000Y-92438000D02*
X132567000Y-93866000D01*
X132607000Y-88943000D02*
X132607000Y-90358000D01*
X132607000Y-92438000D02*
X132607000Y-93853000D01*
X132647000Y-88956000D02*
X132647000Y-90358000D01*
X132647000Y-92438000D02*
X132647000Y-93840000D01*
X132687000Y-88970000D02*
X132687000Y-90358000D01*
X132687000Y-92438000D02*
X132687000Y-93826000D01*
X132727000Y-88984000D02*
X132727000Y-90358000D01*
X132727000Y-92438000D02*
X132727000Y-93812000D01*
X132767000Y-89000000D02*
X132767000Y-90358000D01*
X132767000Y-92438000D02*
X132767000Y-93796000D01*
X132807000Y-89016000D02*
X132807000Y-90358000D01*
X132807000Y-92438000D02*
X132807000Y-93780000D01*
X132847000Y-89033000D02*
X132847000Y-90358000D01*
X132847000Y-92438000D02*
X132847000Y-93763000D01*
X132887000Y-89050000D02*
X132887000Y-90358000D01*
X132887000Y-92438000D02*
X132887000Y-93746000D01*
X132927000Y-89069000D02*
X132927000Y-90358000D01*
X132927000Y-92438000D02*
X132927000Y-93727000D01*
X132967000Y-89088000D02*
X132967000Y-90358000D01*
X132967000Y-92438000D02*
X132967000Y-93708000D01*
X133007000Y-89108000D02*
X133007000Y-90358000D01*
X133007000Y-92438000D02*
X133007000Y-93688000D01*
X133047000Y-89130000D02*
X133047000Y-90358000D01*
X133047000Y-92438000D02*
X133047000Y-93666000D01*
X133087000Y-89151000D02*
X133087000Y-90358000D01*
X133087000Y-92438000D02*
X133087000Y-93645000D01*
X133127000Y-89174000D02*
X133127000Y-90358000D01*
X133127000Y-92438000D02*
X133127000Y-93622000D01*
X133167000Y-89198000D02*
X133167000Y-90358000D01*
X133167000Y-92438000D02*
X133167000Y-93598000D01*
X133207000Y-89223000D02*
X133207000Y-90358000D01*
X133207000Y-92438000D02*
X133207000Y-93573000D01*
X133247000Y-89249000D02*
X133247000Y-90358000D01*
X133247000Y-92438000D02*
X133247000Y-93547000D01*
X133287000Y-89276000D02*
X133287000Y-90358000D01*
X133287000Y-92438000D02*
X133287000Y-93520000D01*
X133327000Y-89303000D02*
X133327000Y-90358000D01*
X133327000Y-92438000D02*
X133327000Y-93493000D01*
X133367000Y-89333000D02*
X133367000Y-90358000D01*
X133367000Y-92438000D02*
X133367000Y-93463000D01*
X133407000Y-89363000D02*
X133407000Y-90358000D01*
X133407000Y-92438000D02*
X133407000Y-93433000D01*
X133447000Y-89394000D02*
X133447000Y-90358000D01*
X133447000Y-92438000D02*
X133447000Y-93402000D01*
X133487000Y-89427000D02*
X133487000Y-90358000D01*
X133487000Y-92438000D02*
X133487000Y-93369000D01*
X133527000Y-89461000D02*
X133527000Y-90358000D01*
X133527000Y-92438000D02*
X133527000Y-93335000D01*
X133567000Y-89497000D02*
X133567000Y-90358000D01*
X133567000Y-92438000D02*
X133567000Y-93299000D01*
X133607000Y-89534000D02*
X133607000Y-90358000D01*
X133607000Y-92438000D02*
X133607000Y-93262000D01*
X133647000Y-89572000D02*
X133647000Y-90358000D01*
X133647000Y-92438000D02*
X133647000Y-93224000D01*
X133687000Y-89613000D02*
X133687000Y-90358000D01*
X133687000Y-92438000D02*
X133687000Y-93183000D01*
X133727000Y-89655000D02*
X133727000Y-90358000D01*
X133727000Y-92438000D02*
X133727000Y-93141000D01*
X133767000Y-89699000D02*
X133767000Y-90358000D01*
X133767000Y-92438000D02*
X133767000Y-93097000D01*
X133807000Y-89745000D02*
X133807000Y-90358000D01*
X133807000Y-92438000D02*
X133807000Y-93051000D01*
X133847000Y-89793000D02*
X133847000Y-90358000D01*
X133847000Y-92438000D02*
X133847000Y-93003000D01*
X133887000Y-89844000D02*
X133887000Y-90358000D01*
X133887000Y-92438000D02*
X133887000Y-92952000D01*
X133927000Y-89898000D02*
X133927000Y-90358000D01*
X133927000Y-92438000D02*
X133927000Y-92898000D01*
X133967000Y-89955000D02*
X133967000Y-90358000D01*
X133967000Y-92438000D02*
X133967000Y-92841000D01*
X134007000Y-90015000D02*
X134007000Y-90358000D01*
X134007000Y-92438000D02*
X134007000Y-92781000D01*
X134047000Y-90079000D02*
X134047000Y-90358000D01*
X134047000Y-92438000D02*
X134047000Y-92717000D01*
X134087000Y-90147000D02*
X134087000Y-90358000D01*
X134087000Y-92438000D02*
X134087000Y-92649000D01*
X134127000Y-90220000D02*
X134127000Y-92576000D01*
X134167000Y-90300000D02*
X134167000Y-92496000D01*
X134207000Y-90387000D02*
X134207000Y-92409000D01*
X134247000Y-90483000D02*
X134247000Y-92313000D01*
X134287000Y-90593000D02*
X134287000Y-92203000D01*
X134327000Y-90721000D02*
X134327000Y-92075000D01*
X134367000Y-90880000D02*
X134367000Y-91916000D01*
X134407000Y-91114000D02*
X134407000Y-91682000D01*
X134426000Y-91398000D02*
G75*
G02*
X129186000Y-91398000I-2620000J0D01*
G01*
X129186000Y-91398000D02*
G75*
G02*
X134426000Y-91398000I2620000J0D01*
G01*
%TO.C,R2*%
X125659000Y-92668000D02*
X125589000Y-92668000D01*
X128399000Y-92668000D02*
G75*
G02*
X125659000Y-92668000I-1370000J0D01*
G01*
X125659000Y-92668000D02*
G75*
G02*
X128399000Y-92668000I1370000J0D01*
G01*
%TO.C,PwC3*%
X126057000Y-66234000D02*
X131217000Y-66234000D01*
X126057000Y-66274000D02*
X131217000Y-66274000D01*
X126058000Y-66194000D02*
X131216000Y-66194000D01*
X126059000Y-66154000D02*
X131215000Y-66154000D01*
X126061000Y-66114000D02*
X131213000Y-66114000D01*
X126064000Y-66074000D02*
X131210000Y-66074000D01*
X126068000Y-66034000D02*
X127597000Y-66034000D01*
X126072000Y-65994000D02*
X127597000Y-65994000D01*
X126076000Y-65954000D02*
X127597000Y-65954000D01*
X126081000Y-65914000D02*
X127597000Y-65914000D01*
X126087000Y-65874000D02*
X127597000Y-65874000D01*
X126094000Y-65834000D02*
X127597000Y-65834000D01*
X126101000Y-65794000D02*
X127597000Y-65794000D01*
X126109000Y-65754000D02*
X127597000Y-65754000D01*
X126117000Y-65714000D02*
X127597000Y-65714000D01*
X126126000Y-65674000D02*
X127597000Y-65674000D01*
X126136000Y-65634000D02*
X127597000Y-65634000D01*
X126146000Y-65594000D02*
X127597000Y-65594000D01*
X126157000Y-65553000D02*
X127597000Y-65553000D01*
X126169000Y-65513000D02*
X127597000Y-65513000D01*
X126182000Y-65473000D02*
X127597000Y-65473000D01*
X126195000Y-65433000D02*
X127597000Y-65433000D01*
X126209000Y-65393000D02*
X127597000Y-65393000D01*
X126223000Y-65353000D02*
X127597000Y-65353000D01*
X126239000Y-65313000D02*
X127597000Y-65313000D01*
X126255000Y-65273000D02*
X127597000Y-65273000D01*
X126272000Y-65233000D02*
X127597000Y-65233000D01*
X126289000Y-65193000D02*
X127597000Y-65193000D01*
X126308000Y-65153000D02*
X127597000Y-65153000D01*
X126327000Y-65113000D02*
X127597000Y-65113000D01*
X126347000Y-65073000D02*
X127597000Y-65073000D01*
X126369000Y-65033000D02*
X127597000Y-65033000D01*
X126390000Y-64993000D02*
X127597000Y-64993000D01*
X126413000Y-64953000D02*
X127597000Y-64953000D01*
X126437000Y-64913000D02*
X127597000Y-64913000D01*
X126462000Y-64873000D02*
X127597000Y-64873000D01*
X126488000Y-64833000D02*
X127597000Y-64833000D01*
X126515000Y-64793000D02*
X127597000Y-64793000D01*
X126542000Y-64753000D02*
X127597000Y-64753000D01*
X126572000Y-64713000D02*
X127597000Y-64713000D01*
X126602000Y-64673000D02*
X127597000Y-64673000D01*
X126633000Y-64633000D02*
X127597000Y-64633000D01*
X126666000Y-64593000D02*
X127597000Y-64593000D01*
X126700000Y-64553000D02*
X127597000Y-64553000D01*
X126736000Y-64513000D02*
X127597000Y-64513000D01*
X126773000Y-64473000D02*
X127597000Y-64473000D01*
X126811000Y-64433000D02*
X127597000Y-64433000D01*
X126852000Y-64393000D02*
X127597000Y-64393000D01*
X126894000Y-64353000D02*
X127597000Y-64353000D01*
X126912000Y-68828775D02*
X127412000Y-68828775D01*
X126938000Y-64313000D02*
X127597000Y-64313000D01*
X126984000Y-64273000D02*
X127597000Y-64273000D01*
X127032000Y-64233000D02*
X127597000Y-64233000D01*
X127083000Y-64193000D02*
X127597000Y-64193000D01*
X127137000Y-64153000D02*
X127597000Y-64153000D01*
X127162000Y-69078775D02*
X127162000Y-68578775D01*
X127194000Y-64113000D02*
X127597000Y-64113000D01*
X127254000Y-64073000D02*
X127597000Y-64073000D01*
X127318000Y-64033000D02*
X127597000Y-64033000D01*
X127386000Y-63993000D02*
X127597000Y-63993000D01*
X127459000Y-63953000D02*
X129815000Y-63953000D01*
X127539000Y-63913000D02*
X129735000Y-63913000D01*
X127626000Y-63873000D02*
X129648000Y-63873000D01*
X127722000Y-63833000D02*
X129552000Y-63833000D01*
X127832000Y-63793000D02*
X129442000Y-63793000D01*
X127960000Y-63753000D02*
X129314000Y-63753000D01*
X128119000Y-63713000D02*
X129155000Y-63713000D01*
X128353000Y-63673000D02*
X128921000Y-63673000D01*
X129677000Y-63993000D02*
X129888000Y-63993000D01*
X129677000Y-64033000D02*
X129956000Y-64033000D01*
X129677000Y-64073000D02*
X130020000Y-64073000D01*
X129677000Y-64113000D02*
X130080000Y-64113000D01*
X129677000Y-64153000D02*
X130137000Y-64153000D01*
X129677000Y-64193000D02*
X130191000Y-64193000D01*
X129677000Y-64233000D02*
X130242000Y-64233000D01*
X129677000Y-64273000D02*
X130290000Y-64273000D01*
X129677000Y-64313000D02*
X130336000Y-64313000D01*
X129677000Y-64353000D02*
X130380000Y-64353000D01*
X129677000Y-64393000D02*
X130422000Y-64393000D01*
X129677000Y-64433000D02*
X130463000Y-64433000D01*
X129677000Y-64473000D02*
X130501000Y-64473000D01*
X129677000Y-64513000D02*
X130538000Y-64513000D01*
X129677000Y-64553000D02*
X130574000Y-64553000D01*
X129677000Y-64593000D02*
X130608000Y-64593000D01*
X129677000Y-64633000D02*
X130641000Y-64633000D01*
X129677000Y-64673000D02*
X130672000Y-64673000D01*
X129677000Y-64713000D02*
X130702000Y-64713000D01*
X129677000Y-64753000D02*
X130732000Y-64753000D01*
X129677000Y-64793000D02*
X130759000Y-64793000D01*
X129677000Y-64833000D02*
X130786000Y-64833000D01*
X129677000Y-64873000D02*
X130812000Y-64873000D01*
X129677000Y-64913000D02*
X130837000Y-64913000D01*
X129677000Y-64953000D02*
X130861000Y-64953000D01*
X129677000Y-64993000D02*
X130884000Y-64993000D01*
X129677000Y-65033000D02*
X130905000Y-65033000D01*
X129677000Y-65073000D02*
X130927000Y-65073000D01*
X129677000Y-65113000D02*
X130947000Y-65113000D01*
X129677000Y-65153000D02*
X130966000Y-65153000D01*
X129677000Y-65193000D02*
X130985000Y-65193000D01*
X129677000Y-65233000D02*
X131002000Y-65233000D01*
X129677000Y-65273000D02*
X131019000Y-65273000D01*
X129677000Y-65313000D02*
X131035000Y-65313000D01*
X129677000Y-65353000D02*
X131051000Y-65353000D01*
X129677000Y-65393000D02*
X131065000Y-65393000D01*
X129677000Y-65433000D02*
X131079000Y-65433000D01*
X129677000Y-65473000D02*
X131092000Y-65473000D01*
X129677000Y-65513000D02*
X131105000Y-65513000D01*
X129677000Y-65553000D02*
X131117000Y-65553000D01*
X129677000Y-65594000D02*
X131128000Y-65594000D01*
X129677000Y-65634000D02*
X131138000Y-65634000D01*
X129677000Y-65674000D02*
X131148000Y-65674000D01*
X129677000Y-65714000D02*
X131157000Y-65714000D01*
X129677000Y-65754000D02*
X131165000Y-65754000D01*
X129677000Y-65794000D02*
X131173000Y-65794000D01*
X129677000Y-65834000D02*
X131180000Y-65834000D01*
X129677000Y-65874000D02*
X131187000Y-65874000D01*
X129677000Y-65914000D02*
X131193000Y-65914000D01*
X129677000Y-65954000D02*
X131198000Y-65954000D01*
X129677000Y-65994000D02*
X131202000Y-65994000D01*
X129677000Y-66034000D02*
X131206000Y-66034000D01*
X131257000Y-66274000D02*
G75*
G02*
X126017000Y-66274000I-2620000J0D01*
G01*
X126017000Y-66274000D02*
G75*
G02*
X131257000Y-66274000I2620000J0D01*
G01*
%TO.C,J4*%
X146879000Y-67691000D02*
X146879000Y-65091000D01*
X146879000Y-70291000D02*
X146879000Y-68961000D01*
X148209000Y-70291000D02*
X146879000Y-70291000D01*
X149539000Y-65091000D02*
X146879000Y-65091000D01*
X149539000Y-67691000D02*
X146879000Y-67691000D01*
X149539000Y-67691000D02*
X149539000Y-65091000D01*
%TO.C,R3*%
X126309000Y-79841000D02*
X126379000Y-79841000D01*
X126309000Y-79841000D02*
G75*
G02*
X123569000Y-79841000I-1370000J0D01*
G01*
X123569000Y-79841000D02*
G75*
G02*
X126309000Y-79841000I1370000J0D01*
G01*
%TO.C,J3*%
X142053000Y-75505000D02*
X143383000Y-75505000D01*
X142053000Y-76835000D02*
X142053000Y-75505000D01*
X142053000Y-78105000D02*
X142053000Y-90865000D01*
X142053000Y-78105000D02*
X144713000Y-78105000D01*
X142053000Y-90865000D02*
X144713000Y-90865000D01*
X144713000Y-78105000D02*
X144713000Y-90865000D01*
%TO.C,J8*%
X130115000Y-82829000D02*
X130115000Y-85489000D01*
X132715000Y-82829000D02*
X130115000Y-82829000D01*
X132715000Y-82829000D02*
X132715000Y-85489000D01*
X132715000Y-85489000D02*
X130115000Y-85489000D01*
X133985000Y-82829000D02*
X135315000Y-82829000D01*
X135315000Y-82829000D02*
X135315000Y-84159000D01*
%TO.C,J2*%
X137100000Y-75505000D02*
X138430000Y-75505000D01*
X137100000Y-76835000D02*
X137100000Y-75505000D01*
X137100000Y-78105000D02*
X137100000Y-90865000D01*
X137100000Y-78105000D02*
X139760000Y-78105000D01*
X137100000Y-90865000D02*
X139760000Y-90865000D01*
X139760000Y-78105000D02*
X139760000Y-90865000D01*
%TO.C,C1*%
X86082000Y-91089900D02*
X84553000Y-91089900D01*
X86082000Y-91129900D02*
X84557000Y-91129900D01*
X86082000Y-91169900D02*
X84561000Y-91169900D01*
X86082000Y-91209900D02*
X84566000Y-91209900D01*
X86082000Y-91249900D02*
X84572000Y-91249900D01*
X86082000Y-91289900D02*
X84579000Y-91289900D01*
X86082000Y-91329900D02*
X84586000Y-91329900D01*
X86082000Y-91369900D02*
X84594000Y-91369900D01*
X86082000Y-91409900D02*
X84602000Y-91409900D01*
X86082000Y-91449900D02*
X84611000Y-91449900D01*
X86082000Y-91489900D02*
X84621000Y-91489900D01*
X86082000Y-91529900D02*
X84631000Y-91529900D01*
X86082000Y-91570900D02*
X84642000Y-91570900D01*
X86082000Y-91610900D02*
X84654000Y-91610900D01*
X86082000Y-91650900D02*
X84667000Y-91650900D01*
X86082000Y-91690900D02*
X84680000Y-91690900D01*
X86082000Y-91730900D02*
X84694000Y-91730900D01*
X86082000Y-91770900D02*
X84708000Y-91770900D01*
X86082000Y-91810900D02*
X84724000Y-91810900D01*
X86082000Y-91850900D02*
X84740000Y-91850900D01*
X86082000Y-91890900D02*
X84757000Y-91890900D01*
X86082000Y-91930900D02*
X84774000Y-91930900D01*
X86082000Y-91970900D02*
X84793000Y-91970900D01*
X86082000Y-92010900D02*
X84812000Y-92010900D01*
X86082000Y-92050900D02*
X84832000Y-92050900D01*
X86082000Y-92090900D02*
X84854000Y-92090900D01*
X86082000Y-92130900D02*
X84875000Y-92130900D01*
X86082000Y-92170900D02*
X84898000Y-92170900D01*
X86082000Y-92210900D02*
X84922000Y-92210900D01*
X86082000Y-92250900D02*
X84947000Y-92250900D01*
X86082000Y-92290900D02*
X84973000Y-92290900D01*
X86082000Y-92330900D02*
X85000000Y-92330900D01*
X86082000Y-92370900D02*
X85027000Y-92370900D01*
X86082000Y-92410900D02*
X85057000Y-92410900D01*
X86082000Y-92450900D02*
X85087000Y-92450900D01*
X86082000Y-92490900D02*
X85118000Y-92490900D01*
X86082000Y-92530900D02*
X85151000Y-92530900D01*
X86082000Y-92570900D02*
X85185000Y-92570900D01*
X86082000Y-92610900D02*
X85221000Y-92610900D01*
X86082000Y-92650900D02*
X85258000Y-92650900D01*
X86082000Y-92690900D02*
X85296000Y-92690900D01*
X86082000Y-92730900D02*
X85337000Y-92730900D01*
X86082000Y-92770900D02*
X85379000Y-92770900D01*
X86082000Y-92810900D02*
X85423000Y-92810900D01*
X86082000Y-92850900D02*
X85469000Y-92850900D01*
X86082000Y-92890900D02*
X85517000Y-92890900D01*
X86082000Y-92930900D02*
X85568000Y-92930900D01*
X86082000Y-92970900D02*
X85622000Y-92970900D01*
X86082000Y-93010900D02*
X85679000Y-93010900D01*
X86082000Y-93050900D02*
X85739000Y-93050900D01*
X86082000Y-93090900D02*
X85803000Y-93090900D01*
X86082000Y-93130900D02*
X85871000Y-93130900D01*
X87406000Y-93450900D02*
X86838000Y-93450900D01*
X87640000Y-93410900D02*
X86604000Y-93410900D01*
X87799000Y-93370900D02*
X86445000Y-93370900D01*
X87927000Y-93330900D02*
X86317000Y-93330900D01*
X88037000Y-93290900D02*
X86207000Y-93290900D01*
X88133000Y-93250900D02*
X86111000Y-93250900D01*
X88220000Y-93210900D02*
X86024000Y-93210900D01*
X88300000Y-93170900D02*
X85944000Y-93170900D01*
X88373000Y-93130900D02*
X88162000Y-93130900D01*
X88441000Y-93090900D02*
X88162000Y-93090900D01*
X88505000Y-93050900D02*
X88162000Y-93050900D01*
X88565000Y-93010900D02*
X88162000Y-93010900D01*
X88597000Y-88045125D02*
X88597000Y-88545125D01*
X88622000Y-92970900D02*
X88162000Y-92970900D01*
X88676000Y-92930900D02*
X88162000Y-92930900D01*
X88727000Y-92890900D02*
X88162000Y-92890900D01*
X88775000Y-92850900D02*
X88162000Y-92850900D01*
X88821000Y-92810900D02*
X88162000Y-92810900D01*
X88847000Y-88295125D02*
X88347000Y-88295125D01*
X88865000Y-92770900D02*
X88162000Y-92770900D01*
X88907000Y-92730900D02*
X88162000Y-92730900D01*
X88948000Y-92690900D02*
X88162000Y-92690900D01*
X88986000Y-92650900D02*
X88162000Y-92650900D01*
X89023000Y-92610900D02*
X88162000Y-92610900D01*
X89059000Y-92570900D02*
X88162000Y-92570900D01*
X89093000Y-92530900D02*
X88162000Y-92530900D01*
X89126000Y-92490900D02*
X88162000Y-92490900D01*
X89157000Y-92450900D02*
X88162000Y-92450900D01*
X89187000Y-92410900D02*
X88162000Y-92410900D01*
X89217000Y-92370900D02*
X88162000Y-92370900D01*
X89244000Y-92330900D02*
X88162000Y-92330900D01*
X89271000Y-92290900D02*
X88162000Y-92290900D01*
X89297000Y-92250900D02*
X88162000Y-92250900D01*
X89322000Y-92210900D02*
X88162000Y-92210900D01*
X89346000Y-92170900D02*
X88162000Y-92170900D01*
X89369000Y-92130900D02*
X88162000Y-92130900D01*
X89390000Y-92090900D02*
X88162000Y-92090900D01*
X89412000Y-92050900D02*
X88162000Y-92050900D01*
X89432000Y-92010900D02*
X88162000Y-92010900D01*
X89451000Y-91970900D02*
X88162000Y-91970900D01*
X89470000Y-91930900D02*
X88162000Y-91930900D01*
X89487000Y-91890900D02*
X88162000Y-91890900D01*
X89504000Y-91850900D02*
X88162000Y-91850900D01*
X89520000Y-91810900D02*
X88162000Y-91810900D01*
X89536000Y-91770900D02*
X88162000Y-91770900D01*
X89550000Y-91730900D02*
X88162000Y-91730900D01*
X89564000Y-91690900D02*
X88162000Y-91690900D01*
X89577000Y-91650900D02*
X88162000Y-91650900D01*
X89590000Y-91610900D02*
X88162000Y-91610900D01*
X89602000Y-91570900D02*
X88162000Y-91570900D01*
X89613000Y-91529900D02*
X88162000Y-91529900D01*
X89623000Y-91489900D02*
X88162000Y-91489900D01*
X89633000Y-91449900D02*
X88162000Y-91449900D01*
X89642000Y-91409900D02*
X88162000Y-91409900D01*
X89650000Y-91369900D02*
X88162000Y-91369900D01*
X89658000Y-91329900D02*
X88162000Y-91329900D01*
X89665000Y-91289900D02*
X88162000Y-91289900D01*
X89672000Y-91249900D02*
X88162000Y-91249900D01*
X89678000Y-91209900D02*
X88162000Y-91209900D01*
X89683000Y-91169900D02*
X88162000Y-91169900D01*
X89687000Y-91129900D02*
X88162000Y-91129900D01*
X89691000Y-91089900D02*
X88162000Y-91089900D01*
X89695000Y-91049900D02*
X84549000Y-91049900D01*
X89698000Y-91009900D02*
X84546000Y-91009900D01*
X89700000Y-90969900D02*
X84544000Y-90969900D01*
X89701000Y-90929900D02*
X84543000Y-90929900D01*
X89702000Y-90849900D02*
X84542000Y-90849900D01*
X89702000Y-90889900D02*
X84542000Y-90889900D01*
X89742000Y-90849900D02*
G75*
G02*
X84502000Y-90849900I-2620000J0D01*
G01*
X84502000Y-90849900D02*
G75*
G02*
X89742000Y-90849900I2620000J0D01*
G01*
%TO.C,PwC1*%
X98609000Y-63243000D02*
X99275000Y-63243000D01*
X98609000Y-68583000D02*
X98609000Y-63243000D01*
X98609000Y-68583000D02*
X99275000Y-68583000D01*
X101385000Y-63243000D02*
X102051000Y-63243000D01*
X101385000Y-68583000D02*
X102051000Y-68583000D01*
X102051000Y-68583000D02*
X102051000Y-63243000D01*
D13*
%TO.C,PS1*%
X99025000Y-76100000D02*
X99025000Y-97900000D01*
X99025000Y-97900000D02*
X108325000Y-97900000D01*
D10*
X101600000Y-98340000D02*
X101600000Y-98340000D01*
X101600000Y-98440000D02*
X101600000Y-98440000D01*
D13*
X108325000Y-76100000D02*
X99025000Y-76100000D01*
X108325000Y-97900000D02*
X108325000Y-76100000D01*
D10*
X101600000Y-98340000D02*
G75*
G02*
X101600000Y-98440000I0J-50000D01*
G01*
X101600000Y-98440000D02*
G75*
G02*
X101600000Y-98340000I0J50000D01*
G01*
D15*
%TO.C,C2*%
X113959900Y-83744000D02*
X112430900Y-83744000D01*
X113959900Y-83784000D02*
X112434900Y-83784000D01*
X113959900Y-83824000D02*
X112438900Y-83824000D01*
X113959900Y-83864000D02*
X112443900Y-83864000D01*
X113959900Y-83904000D02*
X112449900Y-83904000D01*
X113959900Y-83944000D02*
X112456900Y-83944000D01*
X113959900Y-83984000D02*
X112463900Y-83984000D01*
X113959900Y-84024000D02*
X112471900Y-84024000D01*
X113959900Y-84064000D02*
X112479900Y-84064000D01*
X113959900Y-84104000D02*
X112488900Y-84104000D01*
X113959900Y-84144000D02*
X112498900Y-84144000D01*
X113959900Y-84184000D02*
X112508900Y-84184000D01*
X113959900Y-84225000D02*
X112519900Y-84225000D01*
X113959900Y-84265000D02*
X112531900Y-84265000D01*
X113959900Y-84305000D02*
X112544900Y-84305000D01*
X113959900Y-84345000D02*
X112557900Y-84345000D01*
X113959900Y-84385000D02*
X112571900Y-84385000D01*
X113959900Y-84425000D02*
X112585900Y-84425000D01*
X113959900Y-84465000D02*
X112601900Y-84465000D01*
X113959900Y-84505000D02*
X112617900Y-84505000D01*
X113959900Y-84545000D02*
X112634900Y-84545000D01*
X113959900Y-84585000D02*
X112651900Y-84585000D01*
X113959900Y-84625000D02*
X112670900Y-84625000D01*
X113959900Y-84665000D02*
X112689900Y-84665000D01*
X113959900Y-84705000D02*
X112709900Y-84705000D01*
X113959900Y-84745000D02*
X112731900Y-84745000D01*
X113959900Y-84785000D02*
X112752900Y-84785000D01*
X113959900Y-84825000D02*
X112775900Y-84825000D01*
X113959900Y-84865000D02*
X112799900Y-84865000D01*
X113959900Y-84905000D02*
X112824900Y-84905000D01*
X113959900Y-84945000D02*
X112850900Y-84945000D01*
X113959900Y-84985000D02*
X112877900Y-84985000D01*
X113959900Y-85025000D02*
X112904900Y-85025000D01*
X113959900Y-85065000D02*
X112934900Y-85065000D01*
X113959900Y-85105000D02*
X112964900Y-85105000D01*
X113959900Y-85145000D02*
X112995900Y-85145000D01*
X113959900Y-85185000D02*
X113028900Y-85185000D01*
X113959900Y-85225000D02*
X113062900Y-85225000D01*
X113959900Y-85265000D02*
X113098900Y-85265000D01*
X113959900Y-85305000D02*
X113135900Y-85305000D01*
X113959900Y-85345000D02*
X113173900Y-85345000D01*
X113959900Y-85385000D02*
X113214900Y-85385000D01*
X113959900Y-85425000D02*
X113256900Y-85425000D01*
X113959900Y-85465000D02*
X113300900Y-85465000D01*
X113959900Y-85505000D02*
X113346900Y-85505000D01*
X113959900Y-85545000D02*
X113394900Y-85545000D01*
X113959900Y-85585000D02*
X113445900Y-85585000D01*
X113959900Y-85625000D02*
X113499900Y-85625000D01*
X113959900Y-85665000D02*
X113556900Y-85665000D01*
X113959900Y-85705000D02*
X113616900Y-85705000D01*
X113959900Y-85745000D02*
X113680900Y-85745000D01*
X113959900Y-85785000D02*
X113748900Y-85785000D01*
X115283900Y-86105000D02*
X114715900Y-86105000D01*
X115517900Y-86065000D02*
X114481900Y-86065000D01*
X115676900Y-86025000D02*
X114322900Y-86025000D01*
X115804900Y-85985000D02*
X114194900Y-85985000D01*
X115914900Y-85945000D02*
X114084900Y-85945000D01*
X116010900Y-85905000D02*
X113988900Y-85905000D01*
X116097900Y-85865000D02*
X113901900Y-85865000D01*
X116177900Y-85825000D02*
X113821900Y-85825000D01*
X116250900Y-85785000D02*
X116039900Y-85785000D01*
X116318900Y-85745000D02*
X116039900Y-85745000D01*
X116382900Y-85705000D02*
X116039900Y-85705000D01*
X116442900Y-85665000D02*
X116039900Y-85665000D01*
X116474900Y-80699225D02*
X116474900Y-81199225D01*
X116499900Y-85625000D02*
X116039900Y-85625000D01*
X116553900Y-85585000D02*
X116039900Y-85585000D01*
X116604900Y-85545000D02*
X116039900Y-85545000D01*
X116652900Y-85505000D02*
X116039900Y-85505000D01*
X116698900Y-85465000D02*
X116039900Y-85465000D01*
X116724900Y-80949225D02*
X116224900Y-80949225D01*
X116742900Y-85425000D02*
X116039900Y-85425000D01*
X116784900Y-85385000D02*
X116039900Y-85385000D01*
X116825900Y-85345000D02*
X116039900Y-85345000D01*
X116863900Y-85305000D02*
X116039900Y-85305000D01*
X116900900Y-85265000D02*
X116039900Y-85265000D01*
X116936900Y-85225000D02*
X116039900Y-85225000D01*
X116970900Y-85185000D02*
X116039900Y-85185000D01*
X117003900Y-85145000D02*
X116039900Y-85145000D01*
X117034900Y-85105000D02*
X116039900Y-85105000D01*
X117064900Y-85065000D02*
X116039900Y-85065000D01*
X117094900Y-85025000D02*
X116039900Y-85025000D01*
X117121900Y-84985000D02*
X116039900Y-84985000D01*
X117148900Y-84945000D02*
X116039900Y-84945000D01*
X117174900Y-84905000D02*
X116039900Y-84905000D01*
X117199900Y-84865000D02*
X116039900Y-84865000D01*
X117223900Y-84825000D02*
X116039900Y-84825000D01*
X117246900Y-84785000D02*
X116039900Y-84785000D01*
X117267900Y-84745000D02*
X116039900Y-84745000D01*
X117289900Y-84705000D02*
X116039900Y-84705000D01*
X117309900Y-84665000D02*
X116039900Y-84665000D01*
X117328900Y-84625000D02*
X116039900Y-84625000D01*
X117347900Y-84585000D02*
X116039900Y-84585000D01*
X117364900Y-84545000D02*
X116039900Y-84545000D01*
X117381900Y-84505000D02*
X116039900Y-84505000D01*
X117397900Y-84465000D02*
X116039900Y-84465000D01*
X117413900Y-84425000D02*
X116039900Y-84425000D01*
X117427900Y-84385000D02*
X116039900Y-84385000D01*
X117441900Y-84345000D02*
X116039900Y-84345000D01*
X117454900Y-84305000D02*
X116039900Y-84305000D01*
X117467900Y-84265000D02*
X116039900Y-84265000D01*
X117479900Y-84225000D02*
X116039900Y-84225000D01*
X117490900Y-84184000D02*
X116039900Y-84184000D01*
X117500900Y-84144000D02*
X116039900Y-84144000D01*
X117510900Y-84104000D02*
X116039900Y-84104000D01*
X117519900Y-84064000D02*
X116039900Y-84064000D01*
X117527900Y-84024000D02*
X116039900Y-84024000D01*
X117535900Y-83984000D02*
X116039900Y-83984000D01*
X117542900Y-83944000D02*
X116039900Y-83944000D01*
X117549900Y-83904000D02*
X116039900Y-83904000D01*
X117555900Y-83864000D02*
X116039900Y-83864000D01*
X117560900Y-83824000D02*
X116039900Y-83824000D01*
X117564900Y-83784000D02*
X116039900Y-83784000D01*
X117568900Y-83744000D02*
X116039900Y-83744000D01*
X117572900Y-83704000D02*
X112426900Y-83704000D01*
X117575900Y-83664000D02*
X112423900Y-83664000D01*
X117577900Y-83624000D02*
X112421900Y-83624000D01*
X117578900Y-83584000D02*
X112420900Y-83584000D01*
X117579900Y-83504000D02*
X112419900Y-83504000D01*
X117579900Y-83544000D02*
X112419900Y-83544000D01*
X117619900Y-83504000D02*
G75*
G02*
X112379900Y-83504000I-2620000J0D01*
G01*
X112379900Y-83504000D02*
G75*
G02*
X117619900Y-83504000I2620000J0D01*
G01*
%TO.C,J6*%
X136973000Y-67691000D02*
X136973000Y-65091000D01*
X136973000Y-70291000D02*
X136973000Y-68961000D01*
X138303000Y-70291000D02*
X136973000Y-70291000D01*
X139633000Y-65091000D02*
X136973000Y-65091000D01*
X139633000Y-67691000D02*
X136973000Y-67691000D01*
X139633000Y-67691000D02*
X139633000Y-65091000D01*
%TO.C,J9*%
X130115000Y-81552000D02*
X130115000Y-80222000D01*
X131445000Y-81552000D02*
X130115000Y-81552000D01*
X132715000Y-78892000D02*
X135315000Y-78892000D01*
X132715000Y-81552000D02*
X132715000Y-78892000D01*
X132715000Y-81552000D02*
X135315000Y-81552000D01*
X135315000Y-81552000D02*
X135315000Y-78892000D01*
D13*
%TO.C,PwF2*%
X92303000Y-87956000D02*
X92303000Y-93356000D01*
X92303000Y-95356000D02*
X92303000Y-95856000D01*
X92303000Y-95856000D02*
X95403000Y-95856000D01*
X95403000Y-87956000D02*
X92303000Y-87956000D01*
X95403000Y-88356000D02*
X95403000Y-87956000D01*
X95403000Y-95856000D02*
X95403000Y-90356000D01*
D10*
X96148000Y-89356000D02*
X96148000Y-89356000D01*
X96248000Y-89356000D02*
X96248000Y-89356000D01*
X96148000Y-89356000D02*
G75*
G02*
X96248000Y-89356000I50000J0D01*
G01*
X96248000Y-89356000D02*
G75*
G02*
X96148000Y-89356000I-50000J0D01*
G01*
D15*
%TO.C,J7*%
X146879000Y-75505000D02*
X148209000Y-75505000D01*
X146879000Y-76835000D02*
X146879000Y-75505000D01*
X146879000Y-78105000D02*
X146879000Y-90865000D01*
X146879000Y-78105000D02*
X149539000Y-78105000D01*
X146879000Y-90865000D02*
X149539000Y-90865000D01*
X149539000Y-78105000D02*
X149539000Y-90865000D01*
D10*
%TO.C,PwF1*%
X92626000Y-67056000D02*
X92626000Y-67056000D01*
X92726000Y-67056000D02*
X92726000Y-67056000D01*
D13*
X93471000Y-60556000D02*
X93471000Y-66056000D01*
X93471000Y-68056000D02*
X93471000Y-68456000D01*
X93471000Y-68456000D02*
X96571000Y-68456000D01*
X96571000Y-60556000D02*
X93471000Y-60556000D01*
X96571000Y-61056000D02*
X96571000Y-60556000D01*
X96571000Y-68456000D02*
X96571000Y-63056000D01*
D10*
X92626000Y-67056000D02*
G75*
G02*
X92726000Y-67056000I50000J0D01*
G01*
X92726000Y-67056000D02*
G75*
G02*
X92626000Y-67056000I-50000J0D01*
G01*
D15*
%TO.C,PwJ5*%
X86173000Y-80904000D02*
X86173000Y-78304000D01*
X88833000Y-78304000D02*
X86173000Y-78304000D01*
X88833000Y-80904000D02*
X86173000Y-80904000D01*
X88833000Y-80904000D02*
X88833000Y-78304000D01*
X88833000Y-82174000D02*
X88833000Y-83504000D01*
X88833000Y-83504000D02*
X87503000Y-83504000D01*
D10*
%TO.C,PwS1*%
X55675000Y-77095000D02*
X55675000Y-77095000D01*
X55675000Y-77095000D02*
X55675000Y-77095000D01*
X55675000Y-77095000D02*
X55675000Y-91825000D01*
X55675000Y-77095000D02*
X66475000Y-77095000D01*
X55675000Y-91825000D02*
X55675000Y-77095000D01*
X55675000Y-91825000D02*
X55675000Y-91825000D01*
X55675000Y-91825000D02*
X55675000Y-91825000D01*
X55675000Y-91825000D02*
X66475000Y-91825000D01*
X66475000Y-77095000D02*
X55675000Y-77095000D01*
X66475000Y-77095000D02*
X66475000Y-77095000D01*
X66475000Y-77095000D02*
X66475000Y-77095000D01*
X66475000Y-77095000D02*
X66475000Y-80395000D01*
X66475000Y-80395000D02*
X66475000Y-77095000D01*
X66475000Y-80395000D02*
X66475000Y-80395000D01*
X66475000Y-80395000D02*
X66475000Y-80395000D01*
X66475000Y-80395000D02*
X75565000Y-80395000D01*
X66475000Y-88525000D02*
X66475000Y-88525000D01*
X66475000Y-88525000D02*
X66475000Y-91825000D01*
X66475000Y-91825000D02*
X55675000Y-91825000D01*
X66475000Y-91825000D02*
X66475000Y-88525000D01*
X66475000Y-91825000D02*
X66475000Y-91825000D01*
X66475000Y-91825000D02*
X66475000Y-91825000D01*
X66565000Y-88500000D02*
X66565000Y-88500000D01*
X66565000Y-88500000D02*
X75565000Y-88500000D01*
X75565000Y-80395000D02*
X66475000Y-80395000D01*
X75565000Y-80395000D02*
X75565000Y-80395000D01*
X75565000Y-88500000D02*
X66565000Y-88500000D01*
X75565000Y-88500000D02*
X75565000Y-88500000D01*
D13*
X76865000Y-87500000D02*
X76865000Y-87500000D01*
X76865000Y-87500000D02*
X76865000Y-87500000D01*
X76865000Y-87600000D02*
X76865000Y-87600000D01*
X76865000Y-87500000D02*
G75*
G02*
X76865000Y-87600000I0J-50000D01*
G01*
X76865000Y-87600000D02*
G75*
G02*
X76865000Y-87500000I0J50000D01*
G01*
X76865000Y-87600000D02*
G75*
G02*
X76865000Y-87500000I0J50000D01*
G01*
D15*
%TO.C,PwL1*%
X115080000Y-68186000D02*
X121620000Y-68186000D01*
X115080000Y-68516000D02*
X115080000Y-68186000D01*
X115080000Y-70596000D02*
X115080000Y-70926000D01*
X115080000Y-70926000D02*
X121620000Y-70926000D01*
X121620000Y-68186000D02*
X121620000Y-68516000D01*
X121620000Y-70926000D02*
X121620000Y-70596000D01*
%TO.C,J1*%
X94047000Y-80730000D02*
X94047000Y-85870000D01*
X94047000Y-80730000D02*
X96707000Y-80730000D01*
X94047000Y-85870000D02*
X96707000Y-85870000D01*
X95377000Y-78130000D02*
X96707000Y-78130000D01*
X96707000Y-78130000D02*
X96707000Y-79460000D01*
X96707000Y-80730000D02*
X96707000Y-85870000D01*
%TO.C,U1*%
X120249000Y-85937000D02*
X120249000Y-83987000D01*
X120249000Y-85937000D02*
X120249000Y-87887000D01*
X125369000Y-85937000D02*
X125369000Y-83987000D01*
X125369000Y-85937000D02*
X125369000Y-87887000D01*
X120344000Y-88637000D02*
X120014000Y-88877000D01*
X120014000Y-88397000D01*
X120344000Y-88637000D01*
G36*
X120344000Y-88637000D02*
G01*
X120014000Y-88877000D01*
X120014000Y-88397000D01*
X120344000Y-88637000D01*
G37*
%TO.C,R1*%
X120042000Y-92668000D02*
X119972000Y-92668000D01*
X122782000Y-92668000D02*
G75*
G02*
X120042000Y-92668000I-1370000J0D01*
G01*
X120042000Y-92668000D02*
G75*
G02*
X122782000Y-92668000I1370000J0D01*
G01*
%TO.C,J5*%
X142053000Y-67691000D02*
X142053000Y-65091000D01*
X142053000Y-70291000D02*
X142053000Y-68961000D01*
X143383000Y-70291000D02*
X142053000Y-70291000D01*
X144713000Y-65091000D02*
X142053000Y-65091000D01*
X144713000Y-67691000D02*
X142053000Y-67691000D01*
X144713000Y-67691000D02*
X144713000Y-65091000D01*
%TO.C,R4*%
X121102000Y-79841000D02*
X121172000Y-79841000D01*
X121102000Y-79841000D02*
G75*
G02*
X118362000Y-79841000I-1370000J0D01*
G01*
X118362000Y-79841000D02*
G75*
G02*
X121102000Y-79841000I1370000J0D01*
G01*
%TO.C,PwC2*%
X121455000Y-60917000D02*
X122121000Y-60917000D01*
X121455000Y-66257000D02*
X121455000Y-60917000D01*
X121455000Y-66257000D02*
X122121000Y-66257000D01*
X124231000Y-60917000D02*
X124897000Y-60917000D01*
X124231000Y-66257000D02*
X124897000Y-66257000D01*
X124897000Y-66257000D02*
X124897000Y-60917000D01*
%TO.C,PwJ4*%
X88332000Y-65659000D02*
X88332000Y-63059000D01*
X90992000Y-63059000D02*
X88332000Y-63059000D01*
X90992000Y-65659000D02*
X88332000Y-65659000D01*
X90992000Y-65659000D02*
X90992000Y-63059000D01*
X90992000Y-66929000D02*
X90992000Y-68259000D01*
X90992000Y-68259000D02*
X89662000Y-68259000D01*
D13*
%TO.C,PwIC1*%
X103500000Y-61150000D02*
X103500000Y-66000000D01*
X120500000Y-61150000D02*
X103500000Y-61150000D01*
X120500000Y-66850000D02*
X120500000Y-61150000D01*
D15*
%TO.C,PwJ3*%
X81474000Y-80899000D02*
X81474000Y-78299000D01*
X84134000Y-78299000D02*
X81474000Y-78299000D01*
X84134000Y-80899000D02*
X81474000Y-80899000D01*
X84134000Y-80899000D02*
X84134000Y-78299000D01*
X84134000Y-82169000D02*
X84134000Y-83499000D01*
X84134000Y-83499000D02*
X82804000Y-83499000D01*
%TD*%
M02*
