%TF.GenerationSoftware,KiCad,Pcbnew,8.0.8*%
%TF.CreationDate,2025-06-29T12:51:11+09:00*%
%TF.ProjectId,PowerSeparate,506f7765-7253-4657-9061-726174652e6b,rev?*%
%TF.SameCoordinates,Original*%
%TF.FileFunction,Drillmap*%
%TF.FilePolarity,Positive*%
%FSLAX45Y45*%
G04 Gerber Fmt 4.5, Leading zero omitted, Abs format (unit mm)*
G04 Created by KiCad (PCBNEW 8.0.8) date 2025-06-29 12:51:11*
%MOMM*%
%LPD*%
G01*
G04 APERTURE LIST*
%ADD10C,0.050000*%
%ADD11C,0.200000*%
%ADD12C,0.100000*%
%ADD13C,0.109000*%
G04 APERTURE END LIST*
D10*
X15400000Y-9700000D02*
G75*
G02*
X15080000Y-9700000I-160000J0D01*
G01*
X15080000Y-9700000D02*
G75*
G02*
X15400000Y-9700000I160000J0D01*
G01*
X6600000Y-5500000D02*
X15600000Y-5500000D01*
X6600000Y-10000000D02*
X15600000Y-10000000D01*
X15600000Y-5500000D02*
X15600000Y-10000000D01*
X6600000Y-5500000D02*
X6600000Y-10000000D01*
X15400000Y-5800000D02*
G75*
G02*
X15080000Y-5800000I-160000J0D01*
G01*
X15080000Y-5800000D02*
G75*
G02*
X15400000Y-5800000I160000J0D01*
G01*
X7160000Y-9700000D02*
G75*
G02*
X6840000Y-9700000I-160000J0D01*
G01*
X6840000Y-9700000D02*
G75*
G02*
X7160000Y-9700000I160000J0D01*
G01*
X7160000Y-5800000D02*
G75*
G02*
X6840000Y-5800000I-160000J0D01*
G01*
X6840000Y-5800000D02*
G75*
G02*
X7160000Y-5800000I160000J0D01*
G01*
D11*
D12*
X12329400Y-8138400D02*
X12359400Y-8168400D01*
X12359400Y-8138400D02*
X12329400Y-8168400D01*
X12597670Y-8973140D02*
X12627670Y-9003140D01*
X12627670Y-8973140D02*
X12597670Y-9003140D01*
X12735800Y-8316200D02*
X12765800Y-8346200D01*
X12765800Y-8316200D02*
X12735800Y-8346200D01*
X12941990Y-7880180D02*
X12971990Y-7910180D01*
X12971990Y-7880180D02*
X12941990Y-7910180D01*
X9291300Y-9445600D02*
G75*
G02*
X9220300Y-9445600I-35500J0D01*
G01*
X9220300Y-9445600D02*
G75*
G02*
X9291300Y-9445600I35500J0D01*
G01*
X9408100Y-6705600D02*
G75*
G02*
X9337100Y-6705600I-35500J0D01*
G01*
X9337100Y-6705600D02*
G75*
G02*
X9408100Y-6705600I35500J0D01*
G01*
X9550300Y-8935600D02*
G75*
G02*
X9479300Y-8935600I-35500J0D01*
G01*
X9479300Y-8935600D02*
G75*
G02*
X9550300Y-8935600I35500J0D01*
G01*
X9667100Y-6195600D02*
G75*
G02*
X9596100Y-6195600I-35500J0D01*
G01*
X9596100Y-6195600D02*
G75*
G02*
X9667100Y-6195600I35500J0D01*
G01*
X10160000Y-7774000D02*
X10160000Y-7850000D01*
X10122000Y-7812000D02*
X10198000Y-7812000D01*
X10160000Y-8028000D02*
X10160000Y-8104000D01*
X10122000Y-8066000D02*
X10198000Y-8066000D01*
X10160000Y-8282000D02*
X10160000Y-8358000D01*
X10122000Y-8320000D02*
X10198000Y-8320000D01*
X10160000Y-8536000D02*
X10160000Y-8612000D01*
X10122000Y-8574000D02*
X10198000Y-8574000D01*
X10160000Y-9044000D02*
X10160000Y-9120000D01*
X10122000Y-9082000D02*
X10198000Y-9082000D01*
X10160000Y-9298000D02*
X10160000Y-9374000D01*
X10122000Y-9336000D02*
X10198000Y-9336000D01*
X10160000Y-9552000D02*
X10160000Y-9628000D01*
X10122000Y-9590000D02*
X10198000Y-9590000D01*
X8740485Y-8988275D02*
X8740485Y-8931706D01*
X8683916Y-8931706D01*
X8683916Y-8988275D01*
X8740485Y-8988275D01*
X8740485Y-9238275D02*
X8740485Y-9181706D01*
X8683916Y-9181706D01*
X8683916Y-9238275D01*
X8740485Y-9238275D01*
X10061285Y-6369584D02*
X10061285Y-6313015D01*
X10004716Y-6313015D01*
X10004716Y-6369584D01*
X10061285Y-6369584D01*
X10061285Y-6869584D02*
X10061285Y-6813015D01*
X10004716Y-6813015D01*
X10004716Y-6869584D01*
X10061285Y-6869584D01*
X11482284Y-6983884D02*
X11482284Y-6927315D01*
X11425715Y-6927315D01*
X11425715Y-6983884D01*
X11482284Y-6983884D01*
X11509084Y-8879985D02*
X11509084Y-8823416D01*
X11452515Y-8823416D01*
X11452515Y-8879985D01*
X11509084Y-8879985D01*
X11509084Y-9129985D02*
X11509084Y-9073416D01*
X11452515Y-9073416D01*
X11452515Y-9129985D01*
X11509084Y-9129985D01*
X11528274Y-8253684D02*
X11528274Y-8197115D01*
X11471705Y-8197115D01*
X11471705Y-8253684D01*
X11528274Y-8253684D01*
X11528274Y-8503685D02*
X11528274Y-8447116D01*
X11471705Y-8447116D01*
X11471705Y-8503685D01*
X11528274Y-8503685D01*
X11915484Y-9295085D02*
X11915484Y-9238516D01*
X11858915Y-9238516D01*
X11858915Y-9295085D01*
X11915484Y-9295085D01*
X12001484Y-8012384D02*
X12001484Y-7955815D01*
X11944915Y-7955815D01*
X11944915Y-8012384D01*
X12001484Y-8012384D01*
X12169484Y-9295085D02*
X12169484Y-9238516D01*
X12112915Y-9238516D01*
X12112915Y-9295085D01*
X12169484Y-9295085D01*
X12244284Y-6983884D02*
X12244284Y-6927315D01*
X12187715Y-6927315D01*
X12187715Y-6983884D01*
X12244284Y-6983884D01*
X12255484Y-8012384D02*
X12255484Y-7955815D01*
X12198915Y-7955815D01*
X12198915Y-8012384D01*
X12255484Y-8012384D01*
X12345884Y-6136984D02*
X12345884Y-6080415D01*
X12289315Y-6080415D01*
X12289315Y-6136984D01*
X12345884Y-6136984D01*
X12345884Y-6636984D02*
X12345884Y-6580415D01*
X12289315Y-6580415D01*
X12289315Y-6636984D01*
X12345884Y-6636984D01*
X12477184Y-9295085D02*
X12477184Y-9238516D01*
X12420615Y-9238516D01*
X12420615Y-9295085D01*
X12477184Y-9295085D01*
X12522184Y-8012384D02*
X12522184Y-7955815D01*
X12465615Y-7955815D01*
X12465615Y-8012384D01*
X12522184Y-8012384D01*
X12731184Y-9295085D02*
X12731184Y-9238516D01*
X12674615Y-9238516D01*
X12674615Y-9295085D01*
X12731184Y-9295085D01*
X12776184Y-8012384D02*
X12776184Y-7955815D01*
X12719615Y-7955815D01*
X12719615Y-8012384D01*
X12776184Y-8012384D01*
X12891984Y-6530684D02*
X12891984Y-6474115D01*
X12835415Y-6474115D01*
X12835415Y-6530684D01*
X12891984Y-6530684D01*
X12891984Y-6780684D02*
X12891984Y-6724115D01*
X12835415Y-6724115D01*
X12835415Y-6780684D01*
X12891984Y-6780684D01*
X13083884Y-9168085D02*
X13083884Y-9111516D01*
X13027315Y-9111516D01*
X13027315Y-9168085D01*
X13083884Y-9168085D01*
X13333884Y-9168085D02*
X13333884Y-9111516D01*
X13277315Y-9111516D01*
X13277315Y-9168085D01*
X13333884Y-9168085D01*
X10946000Y-6643500D02*
X10989500Y-6600000D01*
X10946000Y-6556500D01*
X10902500Y-6600000D01*
X10946000Y-6643500D01*
X11200000Y-6643500D02*
X11243500Y-6600000D01*
X11200000Y-6556500D01*
X11156500Y-6600000D01*
X11200000Y-6643500D01*
X11454000Y-6643500D02*
X11497500Y-6600000D01*
X11454000Y-6556500D01*
X11410500Y-6600000D01*
X11454000Y-6643500D01*
X7354100Y-6740750D02*
X7454100Y-6840750D01*
X7454100Y-6740750D02*
X7354100Y-6840750D01*
X7454100Y-6790750D02*
G75*
G02*
X7354100Y-6790750I-50000J0D01*
G01*
X7354100Y-6790750D02*
G75*
G02*
X7454100Y-6790750I50000J0D01*
G01*
X7354100Y-6690750D02*
X7354100Y-6890750D01*
X7454100Y-6890750D02*
G75*
G02*
X7354100Y-6890750I-50000J0D01*
G01*
X7454100Y-6890750D02*
X7454100Y-6690750D01*
X7454100Y-6690750D02*
G75*
G03*
X7354100Y-6690750I-50000J0D01*
G01*
X7654100Y-7210750D02*
X7754100Y-7310750D01*
X7754100Y-7210750D02*
X7654100Y-7310750D01*
X7754100Y-7260750D02*
G75*
G02*
X7654100Y-7260750I-50000J0D01*
G01*
X7654100Y-7260750D02*
G75*
G02*
X7754100Y-7260750I50000J0D01*
G01*
X7604100Y-7310750D02*
X7804100Y-7310750D01*
X7804100Y-7210750D02*
G75*
G02*
X7804100Y-7310750I0J-50000D01*
G01*
X7804100Y-7210750D02*
X7604100Y-7210750D01*
X7604100Y-7210750D02*
G75*
G03*
X7604100Y-7310750I0J-50000D01*
G01*
X7954100Y-6740750D02*
X8054100Y-6840750D01*
X8054100Y-6740750D02*
X7954100Y-6840750D01*
X8054100Y-6790750D02*
G75*
G02*
X7954100Y-6790750I-50000J0D01*
G01*
X7954100Y-6790750D02*
G75*
G02*
X8054100Y-6790750I50000J0D01*
G01*
X7954100Y-6690750D02*
X7954100Y-6890750D01*
X8054100Y-6890750D02*
G75*
G02*
X7954100Y-6890750I-50000J0D01*
G01*
X8054100Y-6890750D02*
X8054100Y-6690750D01*
X8054100Y-6690750D02*
G75*
G03*
X7954100Y-6690750I-50000J0D01*
G01*
X8230400Y-7912900D02*
X8330400Y-8012900D01*
X8330400Y-7912900D02*
X8230400Y-8012900D01*
X8330400Y-7962900D02*
G75*
G02*
X8230400Y-7962900I-50000J0D01*
G01*
X8230400Y-7962900D02*
G75*
G02*
X8330400Y-7962900I50000J0D01*
G01*
X8230400Y-8166900D02*
X8330400Y-8266900D01*
X8330400Y-8166900D02*
X8230400Y-8266900D01*
X8330400Y-8216900D02*
G75*
G02*
X8230400Y-8216900I-50000J0D01*
G01*
X8230400Y-8216900D02*
G75*
G02*
X8330400Y-8216900I50000J0D01*
G01*
X8471700Y-6388900D02*
X8571700Y-6488900D01*
X8571700Y-6388900D02*
X8471700Y-6488900D01*
X8571700Y-6438900D02*
G75*
G02*
X8471700Y-6438900I-50000J0D01*
G01*
X8471700Y-6438900D02*
G75*
G02*
X8571700Y-6438900I50000J0D01*
G01*
X8471700Y-6642900D02*
X8571700Y-6742900D01*
X8571700Y-6642900D02*
X8471700Y-6742900D01*
X8571700Y-6692900D02*
G75*
G02*
X8471700Y-6692900I-50000J0D01*
G01*
X8471700Y-6692900D02*
G75*
G02*
X8571700Y-6692900I50000J0D01*
G01*
X8700300Y-7913400D02*
X8800300Y-8013400D01*
X8800300Y-7913400D02*
X8700300Y-8013400D01*
X8800300Y-7963400D02*
G75*
G02*
X8700300Y-7963400I-50000J0D01*
G01*
X8700300Y-7963400D02*
G75*
G02*
X8800300Y-7963400I50000J0D01*
G01*
X8700300Y-8167400D02*
X8800300Y-8267400D01*
X8800300Y-8167400D02*
X8700300Y-8267400D01*
X8800300Y-8217400D02*
G75*
G02*
X8700300Y-8217400I-50000J0D01*
G01*
X8700300Y-8217400D02*
G75*
G02*
X8800300Y-8217400I50000J0D01*
G01*
X8916200Y-6388900D02*
X9016200Y-6488900D01*
X9016200Y-6388900D02*
X8916200Y-6488900D01*
X9016200Y-6438900D02*
G75*
G02*
X8916200Y-6438900I-50000J0D01*
G01*
X8916200Y-6438900D02*
G75*
G02*
X9016200Y-6438900I50000J0D01*
G01*
X8916200Y-6642900D02*
X9016200Y-6742900D01*
X9016200Y-6642900D02*
X8916200Y-6742900D01*
X9016200Y-6692900D02*
G75*
G02*
X8916200Y-6692900I-50000J0D01*
G01*
X8916200Y-6692900D02*
G75*
G02*
X9016200Y-6692900I50000J0D01*
G01*
X9487700Y-7896000D02*
X9587700Y-7996000D01*
X9587700Y-7896000D02*
X9487700Y-7996000D01*
X9587700Y-7946000D02*
G75*
G02*
X9487700Y-7946000I-50000J0D01*
G01*
X9487700Y-7946000D02*
G75*
G02*
X9587700Y-7946000I50000J0D01*
G01*
X9487700Y-8150000D02*
X9587700Y-8250000D01*
X9587700Y-8150000D02*
X9487700Y-8250000D01*
X9587700Y-8200000D02*
G75*
G02*
X9487700Y-8200000I-50000J0D01*
G01*
X9487700Y-8200000D02*
G75*
G02*
X9587700Y-8200000I50000J0D01*
G01*
X9487700Y-8404000D02*
X9587700Y-8504000D01*
X9587700Y-8404000D02*
X9487700Y-8504000D01*
X9587700Y-8454000D02*
G75*
G02*
X9487700Y-8454000I-50000J0D01*
G01*
X9487700Y-8454000D02*
G75*
G02*
X9587700Y-8454000I50000J0D01*
G01*
X13094500Y-7972200D02*
X13194500Y-8072200D01*
X13194500Y-7972200D02*
X13094500Y-8072200D01*
X13194500Y-8022200D02*
G75*
G02*
X13094500Y-8022200I-50000J0D01*
G01*
X13094500Y-8022200D02*
G75*
G02*
X13194500Y-8022200I50000J0D01*
G01*
X13094500Y-8365900D02*
X13194500Y-8465900D01*
X13194500Y-8365900D02*
X13094500Y-8465900D01*
X13194500Y-8415900D02*
G75*
G02*
X13094500Y-8415900I-50000J0D01*
G01*
X13094500Y-8415900D02*
G75*
G02*
X13194500Y-8415900I50000J0D01*
G01*
X13348500Y-7972200D02*
X13448500Y-8072200D01*
X13448500Y-7972200D02*
X13348500Y-8072200D01*
X13448500Y-8022200D02*
G75*
G02*
X13348500Y-8022200I-50000J0D01*
G01*
X13348500Y-8022200D02*
G75*
G02*
X13448500Y-8022200I50000J0D01*
G01*
X13348500Y-8365900D02*
X13448500Y-8465900D01*
X13448500Y-8365900D02*
X13348500Y-8465900D01*
X13448500Y-8415900D02*
G75*
G02*
X13348500Y-8415900I-50000J0D01*
G01*
X13348500Y-8415900D02*
G75*
G02*
X13448500Y-8415900I50000J0D01*
G01*
X13780300Y-6592100D02*
X13880300Y-6692100D01*
X13880300Y-6592100D02*
X13780300Y-6692100D01*
X13880300Y-6642100D02*
G75*
G02*
X13780300Y-6642100I-50000J0D01*
G01*
X13780300Y-6642100D02*
G75*
G02*
X13880300Y-6642100I50000J0D01*
G01*
X13780300Y-6846100D02*
X13880300Y-6946100D01*
X13880300Y-6846100D02*
X13780300Y-6946100D01*
X13880300Y-6896100D02*
G75*
G02*
X13780300Y-6896100I-50000J0D01*
G01*
X13780300Y-6896100D02*
G75*
G02*
X13880300Y-6896100I50000J0D01*
G01*
X13793000Y-7633500D02*
X13893000Y-7733500D01*
X13893000Y-7633500D02*
X13793000Y-7733500D01*
X13893000Y-7683500D02*
G75*
G02*
X13793000Y-7683500I-50000J0D01*
G01*
X13793000Y-7683500D02*
G75*
G02*
X13893000Y-7683500I50000J0D01*
G01*
X13793000Y-7887500D02*
X13893000Y-7987500D01*
X13893000Y-7887500D02*
X13793000Y-7987500D01*
X13893000Y-7937500D02*
G75*
G02*
X13793000Y-7937500I-50000J0D01*
G01*
X13793000Y-7937500D02*
G75*
G02*
X13893000Y-7937500I50000J0D01*
G01*
X13793000Y-8141500D02*
X13893000Y-8241500D01*
X13893000Y-8141500D02*
X13793000Y-8241500D01*
X13893000Y-8191500D02*
G75*
G02*
X13793000Y-8191500I-50000J0D01*
G01*
X13793000Y-8191500D02*
G75*
G02*
X13893000Y-8191500I50000J0D01*
G01*
X13793000Y-8395500D02*
X13893000Y-8495500D01*
X13893000Y-8395500D02*
X13793000Y-8495500D01*
X13893000Y-8445500D02*
G75*
G02*
X13793000Y-8445500I-50000J0D01*
G01*
X13793000Y-8445500D02*
G75*
G02*
X13893000Y-8445500I50000J0D01*
G01*
X13793000Y-8649500D02*
X13893000Y-8749500D01*
X13893000Y-8649500D02*
X13793000Y-8749500D01*
X13893000Y-8699500D02*
G75*
G02*
X13793000Y-8699500I-50000J0D01*
G01*
X13793000Y-8699500D02*
G75*
G02*
X13893000Y-8699500I50000J0D01*
G01*
X13793000Y-8903500D02*
X13893000Y-9003500D01*
X13893000Y-8903500D02*
X13793000Y-9003500D01*
X13893000Y-8953500D02*
G75*
G02*
X13793000Y-8953500I-50000J0D01*
G01*
X13793000Y-8953500D02*
G75*
G02*
X13893000Y-8953500I50000J0D01*
G01*
X14288300Y-6592100D02*
X14388300Y-6692100D01*
X14388300Y-6592100D02*
X14288300Y-6692100D01*
X14388300Y-6642100D02*
G75*
G02*
X14288300Y-6642100I-50000J0D01*
G01*
X14288300Y-6642100D02*
G75*
G02*
X14388300Y-6642100I50000J0D01*
G01*
X14288300Y-6846100D02*
X14388300Y-6946100D01*
X14388300Y-6846100D02*
X14288300Y-6946100D01*
X14388300Y-6896100D02*
G75*
G02*
X14288300Y-6896100I-50000J0D01*
G01*
X14288300Y-6896100D02*
G75*
G02*
X14388300Y-6896100I50000J0D01*
G01*
X14288300Y-7633500D02*
X14388300Y-7733500D01*
X14388300Y-7633500D02*
X14288300Y-7733500D01*
X14388300Y-7683500D02*
G75*
G02*
X14288300Y-7683500I-50000J0D01*
G01*
X14288300Y-7683500D02*
G75*
G02*
X14388300Y-7683500I50000J0D01*
G01*
X14288300Y-7887500D02*
X14388300Y-7987500D01*
X14388300Y-7887500D02*
X14288300Y-7987500D01*
X14388300Y-7937500D02*
G75*
G02*
X14288300Y-7937500I-50000J0D01*
G01*
X14288300Y-7937500D02*
G75*
G02*
X14388300Y-7937500I50000J0D01*
G01*
X14288300Y-8141500D02*
X14388300Y-8241500D01*
X14388300Y-8141500D02*
X14288300Y-8241500D01*
X14388300Y-8191500D02*
G75*
G02*
X14288300Y-8191500I-50000J0D01*
G01*
X14288300Y-8191500D02*
G75*
G02*
X14388300Y-8191500I50000J0D01*
G01*
X14288300Y-8395500D02*
X14388300Y-8495500D01*
X14388300Y-8395500D02*
X14288300Y-8495500D01*
X14388300Y-8445500D02*
G75*
G02*
X14288300Y-8445500I-50000J0D01*
G01*
X14288300Y-8445500D02*
G75*
G02*
X14388300Y-8445500I50000J0D01*
G01*
X14288300Y-8649500D02*
X14388300Y-8749500D01*
X14388300Y-8649500D02*
X14288300Y-8749500D01*
X14388300Y-8699500D02*
G75*
G02*
X14288300Y-8699500I-50000J0D01*
G01*
X14288300Y-8699500D02*
G75*
G02*
X14388300Y-8699500I50000J0D01*
G01*
X14288300Y-8903500D02*
X14388300Y-9003500D01*
X14388300Y-8903500D02*
X14288300Y-9003500D01*
X14388300Y-8953500D02*
G75*
G02*
X14288300Y-8953500I-50000J0D01*
G01*
X14288300Y-8953500D02*
G75*
G02*
X14388300Y-8953500I50000J0D01*
G01*
X14770900Y-6592100D02*
X14870900Y-6692100D01*
X14870900Y-6592100D02*
X14770900Y-6692100D01*
X14870900Y-6642100D02*
G75*
G02*
X14770900Y-6642100I-50000J0D01*
G01*
X14770900Y-6642100D02*
G75*
G02*
X14870900Y-6642100I50000J0D01*
G01*
X14770900Y-6846100D02*
X14870900Y-6946100D01*
X14870900Y-6846100D02*
X14770900Y-6946100D01*
X14870900Y-6896100D02*
G75*
G02*
X14770900Y-6896100I-50000J0D01*
G01*
X14770900Y-6896100D02*
G75*
G02*
X14870900Y-6896100I50000J0D01*
G01*
X14770900Y-7633500D02*
X14870900Y-7733500D01*
X14870900Y-7633500D02*
X14770900Y-7733500D01*
X14870900Y-7683500D02*
G75*
G02*
X14770900Y-7683500I-50000J0D01*
G01*
X14770900Y-7683500D02*
G75*
G02*
X14870900Y-7683500I50000J0D01*
G01*
X14770900Y-7887500D02*
X14870900Y-7987500D01*
X14870900Y-7887500D02*
X14770900Y-7987500D01*
X14870900Y-7937500D02*
G75*
G02*
X14770900Y-7937500I-50000J0D01*
G01*
X14770900Y-7937500D02*
G75*
G02*
X14870900Y-7937500I50000J0D01*
G01*
X14770900Y-8141500D02*
X14870900Y-8241500D01*
X14870900Y-8141500D02*
X14770900Y-8241500D01*
X14870900Y-8191500D02*
G75*
G02*
X14770900Y-8191500I-50000J0D01*
G01*
X14770900Y-8191500D02*
G75*
G02*
X14870900Y-8191500I50000J0D01*
G01*
X14770900Y-8395500D02*
X14870900Y-8495500D01*
X14870900Y-8395500D02*
X14770900Y-8495500D01*
X14870900Y-8445500D02*
G75*
G02*
X14770900Y-8445500I-50000J0D01*
G01*
X14770900Y-8445500D02*
G75*
G02*
X14870900Y-8445500I50000J0D01*
G01*
X14770900Y-8649500D02*
X14870900Y-8749500D01*
X14870900Y-8649500D02*
X14770900Y-8749500D01*
X14870900Y-8699500D02*
G75*
G02*
X14770900Y-8699500I-50000J0D01*
G01*
X14770900Y-8699500D02*
G75*
G02*
X14870900Y-8699500I50000J0D01*
G01*
X14770900Y-8903500D02*
X14870900Y-9003500D01*
X14870900Y-8903500D02*
X14770900Y-9003500D01*
X14870900Y-8953500D02*
G75*
G02*
X14770900Y-8953500I-50000J0D01*
G01*
X14770900Y-8953500D02*
G75*
G02*
X14870900Y-8953500I50000J0D01*
G01*
D13*
X6994000Y-8137500D02*
X7103000Y-8246500D01*
X7103000Y-8137500D02*
X6994000Y-8246500D01*
X7048500Y-8137500D02*
X7048500Y-8246500D01*
X6994000Y-8192000D02*
X7103000Y-8192000D01*
X6994000Y-8645500D02*
X7103000Y-8754500D01*
X7103000Y-8645500D02*
X6994000Y-8754500D01*
X7048500Y-8645500D02*
X7048500Y-8754500D01*
X6994000Y-8700000D02*
X7103000Y-8700000D01*
X7502000Y-8137500D02*
X7611000Y-8246500D01*
X7611000Y-8137500D02*
X7502000Y-8246500D01*
X7556500Y-8137500D02*
X7556500Y-8246500D01*
X7502000Y-8192000D02*
X7611000Y-8192000D01*
X7502000Y-8391500D02*
X7611000Y-8500500D01*
X7611000Y-8391500D02*
X7502000Y-8500500D01*
X7556500Y-8391500D02*
X7556500Y-8500500D01*
X7502000Y-8446000D02*
X7611000Y-8446000D01*
X7502000Y-8645500D02*
X7611000Y-8754500D01*
X7611000Y-8645500D02*
X7502000Y-8754500D01*
X7556500Y-8645500D02*
X7556500Y-8754500D01*
X7502000Y-8700000D02*
X7611000Y-8700000D01*
D11*
X6858277Y-10313984D02*
X6858277Y-10113984D01*
X6858277Y-10113984D02*
X6905896Y-10113984D01*
X6905896Y-10113984D02*
X6934467Y-10123508D01*
X6934467Y-10123508D02*
X6953515Y-10142555D01*
X6953515Y-10142555D02*
X6963039Y-10161603D01*
X6963039Y-10161603D02*
X6972562Y-10199698D01*
X6972562Y-10199698D02*
X6972562Y-10228270D01*
X6972562Y-10228270D02*
X6963039Y-10266365D01*
X6963039Y-10266365D02*
X6953515Y-10285412D01*
X6953515Y-10285412D02*
X6934467Y-10304460D01*
X6934467Y-10304460D02*
X6905896Y-10313984D01*
X6905896Y-10313984D02*
X6858277Y-10313984D01*
X7058277Y-10313984D02*
X7058277Y-10180650D01*
X7058277Y-10218746D02*
X7067801Y-10199698D01*
X7067801Y-10199698D02*
X7077324Y-10190174D01*
X7077324Y-10190174D02*
X7096372Y-10180650D01*
X7096372Y-10180650D02*
X7115420Y-10180650D01*
X7182086Y-10313984D02*
X7182086Y-10180650D01*
X7182086Y-10113984D02*
X7172562Y-10123508D01*
X7172562Y-10123508D02*
X7182086Y-10133031D01*
X7182086Y-10133031D02*
X7191610Y-10123508D01*
X7191610Y-10123508D02*
X7182086Y-10113984D01*
X7182086Y-10113984D02*
X7182086Y-10133031D01*
X7305896Y-10313984D02*
X7286848Y-10304460D01*
X7286848Y-10304460D02*
X7277324Y-10285412D01*
X7277324Y-10285412D02*
X7277324Y-10113984D01*
X7410658Y-10313984D02*
X7391610Y-10304460D01*
X7391610Y-10304460D02*
X7382086Y-10285412D01*
X7382086Y-10285412D02*
X7382086Y-10113984D01*
X7639229Y-10313984D02*
X7639229Y-10113984D01*
X7639229Y-10113984D02*
X7705896Y-10256841D01*
X7705896Y-10256841D02*
X7772562Y-10113984D01*
X7772562Y-10113984D02*
X7772562Y-10313984D01*
X7953515Y-10313984D02*
X7953515Y-10209222D01*
X7953515Y-10209222D02*
X7943991Y-10190174D01*
X7943991Y-10190174D02*
X7924943Y-10180650D01*
X7924943Y-10180650D02*
X7886848Y-10180650D01*
X7886848Y-10180650D02*
X7867801Y-10190174D01*
X7953515Y-10304460D02*
X7934467Y-10313984D01*
X7934467Y-10313984D02*
X7886848Y-10313984D01*
X7886848Y-10313984D02*
X7867801Y-10304460D01*
X7867801Y-10304460D02*
X7858277Y-10285412D01*
X7858277Y-10285412D02*
X7858277Y-10266365D01*
X7858277Y-10266365D02*
X7867801Y-10247317D01*
X7867801Y-10247317D02*
X7886848Y-10237793D01*
X7886848Y-10237793D02*
X7934467Y-10237793D01*
X7934467Y-10237793D02*
X7953515Y-10228270D01*
X8048753Y-10180650D02*
X8048753Y-10380650D01*
X8048753Y-10190174D02*
X8067801Y-10180650D01*
X8067801Y-10180650D02*
X8105896Y-10180650D01*
X8105896Y-10180650D02*
X8124943Y-10190174D01*
X8124943Y-10190174D02*
X8134467Y-10199698D01*
X8134467Y-10199698D02*
X8143991Y-10218746D01*
X8143991Y-10218746D02*
X8143991Y-10275889D01*
X8143991Y-10275889D02*
X8134467Y-10294936D01*
X8134467Y-10294936D02*
X8124943Y-10304460D01*
X8124943Y-10304460D02*
X8105896Y-10313984D01*
X8105896Y-10313984D02*
X8067801Y-10313984D01*
X8067801Y-10313984D02*
X8048753Y-10304460D01*
X8229705Y-10294936D02*
X8239229Y-10304460D01*
X8239229Y-10304460D02*
X8229705Y-10313984D01*
X8229705Y-10313984D02*
X8220182Y-10304460D01*
X8220182Y-10304460D02*
X8229705Y-10294936D01*
X8229705Y-10294936D02*
X8229705Y-10313984D01*
X8229705Y-10190174D02*
X8239229Y-10199698D01*
X8239229Y-10199698D02*
X8229705Y-10209222D01*
X8229705Y-10209222D02*
X8220182Y-10199698D01*
X8220182Y-10199698D02*
X8229705Y-10190174D01*
X8229705Y-10190174D02*
X8229705Y-10209222D01*
D12*
X6567500Y-10627500D02*
X6597500Y-10657500D01*
X6597500Y-10627500D02*
X6567500Y-10657500D01*
D11*
X6896372Y-10533984D02*
X6915420Y-10533984D01*
X6915420Y-10533984D02*
X6934467Y-10543508D01*
X6934467Y-10543508D02*
X6943991Y-10553031D01*
X6943991Y-10553031D02*
X6953515Y-10572079D01*
X6953515Y-10572079D02*
X6963039Y-10610174D01*
X6963039Y-10610174D02*
X6963039Y-10657793D01*
X6963039Y-10657793D02*
X6953515Y-10695889D01*
X6953515Y-10695889D02*
X6943991Y-10714936D01*
X6943991Y-10714936D02*
X6934467Y-10724460D01*
X6934467Y-10724460D02*
X6915420Y-10733984D01*
X6915420Y-10733984D02*
X6896372Y-10733984D01*
X6896372Y-10733984D02*
X6877324Y-10724460D01*
X6877324Y-10724460D02*
X6867801Y-10714936D01*
X6867801Y-10714936D02*
X6858277Y-10695889D01*
X6858277Y-10695889D02*
X6848753Y-10657793D01*
X6848753Y-10657793D02*
X6848753Y-10610174D01*
X6848753Y-10610174D02*
X6858277Y-10572079D01*
X6858277Y-10572079D02*
X6867801Y-10553031D01*
X6867801Y-10553031D02*
X6877324Y-10543508D01*
X6877324Y-10543508D02*
X6896372Y-10533984D01*
X7048753Y-10714936D02*
X7058277Y-10724460D01*
X7058277Y-10724460D02*
X7048753Y-10733984D01*
X7048753Y-10733984D02*
X7039229Y-10724460D01*
X7039229Y-10724460D02*
X7048753Y-10714936D01*
X7048753Y-10714936D02*
X7048753Y-10733984D01*
X7124943Y-10533984D02*
X7248753Y-10533984D01*
X7248753Y-10533984D02*
X7182086Y-10610174D01*
X7182086Y-10610174D02*
X7210658Y-10610174D01*
X7210658Y-10610174D02*
X7229705Y-10619698D01*
X7229705Y-10619698D02*
X7239229Y-10629222D01*
X7239229Y-10629222D02*
X7248753Y-10648270D01*
X7248753Y-10648270D02*
X7248753Y-10695889D01*
X7248753Y-10695889D02*
X7239229Y-10714936D01*
X7239229Y-10714936D02*
X7229705Y-10724460D01*
X7229705Y-10724460D02*
X7210658Y-10733984D01*
X7210658Y-10733984D02*
X7153515Y-10733984D01*
X7153515Y-10733984D02*
X7134467Y-10724460D01*
X7134467Y-10724460D02*
X7124943Y-10714936D01*
X7372562Y-10533984D02*
X7391610Y-10533984D01*
X7391610Y-10533984D02*
X7410658Y-10543508D01*
X7410658Y-10543508D02*
X7420182Y-10553031D01*
X7420182Y-10553031D02*
X7429705Y-10572079D01*
X7429705Y-10572079D02*
X7439229Y-10610174D01*
X7439229Y-10610174D02*
X7439229Y-10657793D01*
X7439229Y-10657793D02*
X7429705Y-10695889D01*
X7429705Y-10695889D02*
X7420182Y-10714936D01*
X7420182Y-10714936D02*
X7410658Y-10724460D01*
X7410658Y-10724460D02*
X7391610Y-10733984D01*
X7391610Y-10733984D02*
X7372562Y-10733984D01*
X7372562Y-10733984D02*
X7353515Y-10724460D01*
X7353515Y-10724460D02*
X7343991Y-10714936D01*
X7343991Y-10714936D02*
X7334467Y-10695889D01*
X7334467Y-10695889D02*
X7324943Y-10657793D01*
X7324943Y-10657793D02*
X7324943Y-10610174D01*
X7324943Y-10610174D02*
X7334467Y-10572079D01*
X7334467Y-10572079D02*
X7343991Y-10553031D01*
X7343991Y-10553031D02*
X7353515Y-10543508D01*
X7353515Y-10543508D02*
X7372562Y-10533984D01*
X7563039Y-10533984D02*
X7582086Y-10533984D01*
X7582086Y-10533984D02*
X7601134Y-10543508D01*
X7601134Y-10543508D02*
X7610658Y-10553031D01*
X7610658Y-10553031D02*
X7620182Y-10572079D01*
X7620182Y-10572079D02*
X7629705Y-10610174D01*
X7629705Y-10610174D02*
X7629705Y-10657793D01*
X7629705Y-10657793D02*
X7620182Y-10695889D01*
X7620182Y-10695889D02*
X7610658Y-10714936D01*
X7610658Y-10714936D02*
X7601134Y-10724460D01*
X7601134Y-10724460D02*
X7582086Y-10733984D01*
X7582086Y-10733984D02*
X7563039Y-10733984D01*
X7563039Y-10733984D02*
X7543991Y-10724460D01*
X7543991Y-10724460D02*
X7534467Y-10714936D01*
X7534467Y-10714936D02*
X7524943Y-10695889D01*
X7524943Y-10695889D02*
X7515420Y-10657793D01*
X7515420Y-10657793D02*
X7515420Y-10610174D01*
X7515420Y-10610174D02*
X7524943Y-10572079D01*
X7524943Y-10572079D02*
X7534467Y-10553031D01*
X7534467Y-10553031D02*
X7543991Y-10543508D01*
X7543991Y-10543508D02*
X7563039Y-10533984D01*
X7715420Y-10733984D02*
X7715420Y-10600650D01*
X7715420Y-10619698D02*
X7724943Y-10610174D01*
X7724943Y-10610174D02*
X7743991Y-10600650D01*
X7743991Y-10600650D02*
X7772563Y-10600650D01*
X7772563Y-10600650D02*
X7791610Y-10610174D01*
X7791610Y-10610174D02*
X7801134Y-10629222D01*
X7801134Y-10629222D02*
X7801134Y-10733984D01*
X7801134Y-10629222D02*
X7810658Y-10610174D01*
X7810658Y-10610174D02*
X7829705Y-10600650D01*
X7829705Y-10600650D02*
X7858277Y-10600650D01*
X7858277Y-10600650D02*
X7877324Y-10610174D01*
X7877324Y-10610174D02*
X7886848Y-10629222D01*
X7886848Y-10629222D02*
X7886848Y-10733984D01*
X7982086Y-10733984D02*
X7982086Y-10600650D01*
X7982086Y-10619698D02*
X7991610Y-10610174D01*
X7991610Y-10610174D02*
X8010658Y-10600650D01*
X8010658Y-10600650D02*
X8039229Y-10600650D01*
X8039229Y-10600650D02*
X8058277Y-10610174D01*
X8058277Y-10610174D02*
X8067801Y-10629222D01*
X8067801Y-10629222D02*
X8067801Y-10733984D01*
X8067801Y-10629222D02*
X8077324Y-10610174D01*
X8077324Y-10610174D02*
X8096372Y-10600650D01*
X8096372Y-10600650D02*
X8124943Y-10600650D01*
X8124943Y-10600650D02*
X8143991Y-10610174D01*
X8143991Y-10610174D02*
X8153515Y-10629222D01*
X8153515Y-10629222D02*
X8153515Y-10733984D01*
X8543991Y-10524460D02*
X8372563Y-10781603D01*
X8801134Y-10533984D02*
X8820182Y-10533984D01*
X8820182Y-10533984D02*
X8839229Y-10543508D01*
X8839229Y-10543508D02*
X8848753Y-10553031D01*
X8848753Y-10553031D02*
X8858277Y-10572079D01*
X8858277Y-10572079D02*
X8867801Y-10610174D01*
X8867801Y-10610174D02*
X8867801Y-10657793D01*
X8867801Y-10657793D02*
X8858277Y-10695889D01*
X8858277Y-10695889D02*
X8848753Y-10714936D01*
X8848753Y-10714936D02*
X8839229Y-10724460D01*
X8839229Y-10724460D02*
X8820182Y-10733984D01*
X8820182Y-10733984D02*
X8801134Y-10733984D01*
X8801134Y-10733984D02*
X8782087Y-10724460D01*
X8782087Y-10724460D02*
X8772563Y-10714936D01*
X8772563Y-10714936D02*
X8763039Y-10695889D01*
X8763039Y-10695889D02*
X8753515Y-10657793D01*
X8753515Y-10657793D02*
X8753515Y-10610174D01*
X8753515Y-10610174D02*
X8763039Y-10572079D01*
X8763039Y-10572079D02*
X8772563Y-10553031D01*
X8772563Y-10553031D02*
X8782087Y-10543508D01*
X8782087Y-10543508D02*
X8801134Y-10533984D01*
X8953515Y-10714936D02*
X8963039Y-10724460D01*
X8963039Y-10724460D02*
X8953515Y-10733984D01*
X8953515Y-10733984D02*
X8943991Y-10724460D01*
X8943991Y-10724460D02*
X8953515Y-10714936D01*
X8953515Y-10714936D02*
X8953515Y-10733984D01*
X9086848Y-10533984D02*
X9105896Y-10533984D01*
X9105896Y-10533984D02*
X9124944Y-10543508D01*
X9124944Y-10543508D02*
X9134468Y-10553031D01*
X9134468Y-10553031D02*
X9143991Y-10572079D01*
X9143991Y-10572079D02*
X9153515Y-10610174D01*
X9153515Y-10610174D02*
X9153515Y-10657793D01*
X9153515Y-10657793D02*
X9143991Y-10695889D01*
X9143991Y-10695889D02*
X9134468Y-10714936D01*
X9134468Y-10714936D02*
X9124944Y-10724460D01*
X9124944Y-10724460D02*
X9105896Y-10733984D01*
X9105896Y-10733984D02*
X9086848Y-10733984D01*
X9086848Y-10733984D02*
X9067801Y-10724460D01*
X9067801Y-10724460D02*
X9058277Y-10714936D01*
X9058277Y-10714936D02*
X9048753Y-10695889D01*
X9048753Y-10695889D02*
X9039229Y-10657793D01*
X9039229Y-10657793D02*
X9039229Y-10610174D01*
X9039229Y-10610174D02*
X9048753Y-10572079D01*
X9048753Y-10572079D02*
X9058277Y-10553031D01*
X9058277Y-10553031D02*
X9067801Y-10543508D01*
X9067801Y-10543508D02*
X9086848Y-10533984D01*
X9343991Y-10733984D02*
X9229706Y-10733984D01*
X9286848Y-10733984D02*
X9286848Y-10533984D01*
X9286848Y-10533984D02*
X9267801Y-10562555D01*
X9267801Y-10562555D02*
X9248753Y-10581603D01*
X9248753Y-10581603D02*
X9229706Y-10591127D01*
X9534468Y-10733984D02*
X9420182Y-10733984D01*
X9477325Y-10733984D02*
X9477325Y-10533984D01*
X9477325Y-10533984D02*
X9458277Y-10562555D01*
X9458277Y-10562555D02*
X9439229Y-10581603D01*
X9439229Y-10581603D02*
X9420182Y-10591127D01*
X9648753Y-10619698D02*
X9629706Y-10610174D01*
X9629706Y-10610174D02*
X9620182Y-10600650D01*
X9620182Y-10600650D02*
X9610658Y-10581603D01*
X9610658Y-10581603D02*
X9610658Y-10572079D01*
X9610658Y-10572079D02*
X9620182Y-10553031D01*
X9620182Y-10553031D02*
X9629706Y-10543508D01*
X9629706Y-10543508D02*
X9648753Y-10533984D01*
X9648753Y-10533984D02*
X9686849Y-10533984D01*
X9686849Y-10533984D02*
X9705896Y-10543508D01*
X9705896Y-10543508D02*
X9715420Y-10553031D01*
X9715420Y-10553031D02*
X9724944Y-10572079D01*
X9724944Y-10572079D02*
X9724944Y-10581603D01*
X9724944Y-10581603D02*
X9715420Y-10600650D01*
X9715420Y-10600650D02*
X9705896Y-10610174D01*
X9705896Y-10610174D02*
X9686849Y-10619698D01*
X9686849Y-10619698D02*
X9648753Y-10619698D01*
X9648753Y-10619698D02*
X9629706Y-10629222D01*
X9629706Y-10629222D02*
X9620182Y-10638746D01*
X9620182Y-10638746D02*
X9610658Y-10657793D01*
X9610658Y-10657793D02*
X9610658Y-10695889D01*
X9610658Y-10695889D02*
X9620182Y-10714936D01*
X9620182Y-10714936D02*
X9629706Y-10724460D01*
X9629706Y-10724460D02*
X9648753Y-10733984D01*
X9648753Y-10733984D02*
X9686849Y-10733984D01*
X9686849Y-10733984D02*
X9705896Y-10724460D01*
X9705896Y-10724460D02*
X9715420Y-10714936D01*
X9715420Y-10714936D02*
X9724944Y-10695889D01*
X9724944Y-10695889D02*
X9724944Y-10657793D01*
X9724944Y-10657793D02*
X9715420Y-10638746D01*
X9715420Y-10638746D02*
X9705896Y-10629222D01*
X9705896Y-10629222D02*
X9686849Y-10619698D01*
X9801134Y-10533984D02*
X9801134Y-10572079D01*
X9877325Y-10533984D02*
X9877325Y-10572079D01*
X10172563Y-10810174D02*
X10163039Y-10800650D01*
X10163039Y-10800650D02*
X10143991Y-10772079D01*
X10143991Y-10772079D02*
X10134468Y-10753031D01*
X10134468Y-10753031D02*
X10124944Y-10724460D01*
X10124944Y-10724460D02*
X10115420Y-10676841D01*
X10115420Y-10676841D02*
X10115420Y-10638746D01*
X10115420Y-10638746D02*
X10124944Y-10591127D01*
X10124944Y-10591127D02*
X10134468Y-10562555D01*
X10134468Y-10562555D02*
X10143991Y-10543508D01*
X10143991Y-10543508D02*
X10163039Y-10514936D01*
X10163039Y-10514936D02*
X10172563Y-10505412D01*
X10334468Y-10600650D02*
X10334468Y-10733984D01*
X10286849Y-10524460D02*
X10239230Y-10667317D01*
X10239230Y-10667317D02*
X10363039Y-10667317D01*
X10591611Y-10733984D02*
X10591611Y-10533984D01*
X10677325Y-10733984D02*
X10677325Y-10629222D01*
X10677325Y-10629222D02*
X10667801Y-10610174D01*
X10667801Y-10610174D02*
X10648753Y-10600650D01*
X10648753Y-10600650D02*
X10620182Y-10600650D01*
X10620182Y-10600650D02*
X10601134Y-10610174D01*
X10601134Y-10610174D02*
X10591611Y-10619698D01*
X10801134Y-10733984D02*
X10782087Y-10724460D01*
X10782087Y-10724460D02*
X10772563Y-10714936D01*
X10772563Y-10714936D02*
X10763039Y-10695889D01*
X10763039Y-10695889D02*
X10763039Y-10638746D01*
X10763039Y-10638746D02*
X10772563Y-10619698D01*
X10772563Y-10619698D02*
X10782087Y-10610174D01*
X10782087Y-10610174D02*
X10801134Y-10600650D01*
X10801134Y-10600650D02*
X10829706Y-10600650D01*
X10829706Y-10600650D02*
X10848753Y-10610174D01*
X10848753Y-10610174D02*
X10858277Y-10619698D01*
X10858277Y-10619698D02*
X10867801Y-10638746D01*
X10867801Y-10638746D02*
X10867801Y-10695889D01*
X10867801Y-10695889D02*
X10858277Y-10714936D01*
X10858277Y-10714936D02*
X10848753Y-10724460D01*
X10848753Y-10724460D02*
X10829706Y-10733984D01*
X10829706Y-10733984D02*
X10801134Y-10733984D01*
X10982087Y-10733984D02*
X10963039Y-10724460D01*
X10963039Y-10724460D02*
X10953515Y-10705412D01*
X10953515Y-10705412D02*
X10953515Y-10533984D01*
X11134468Y-10724460D02*
X11115420Y-10733984D01*
X11115420Y-10733984D02*
X11077325Y-10733984D01*
X11077325Y-10733984D02*
X11058277Y-10724460D01*
X11058277Y-10724460D02*
X11048753Y-10705412D01*
X11048753Y-10705412D02*
X11048753Y-10629222D01*
X11048753Y-10629222D02*
X11058277Y-10610174D01*
X11058277Y-10610174D02*
X11077325Y-10600650D01*
X11077325Y-10600650D02*
X11115420Y-10600650D01*
X11115420Y-10600650D02*
X11134468Y-10610174D01*
X11134468Y-10610174D02*
X11143992Y-10629222D01*
X11143992Y-10629222D02*
X11143992Y-10648270D01*
X11143992Y-10648270D02*
X11048753Y-10667317D01*
X11220182Y-10724460D02*
X11239230Y-10733984D01*
X11239230Y-10733984D02*
X11277325Y-10733984D01*
X11277325Y-10733984D02*
X11296372Y-10724460D01*
X11296372Y-10724460D02*
X11305896Y-10705412D01*
X11305896Y-10705412D02*
X11305896Y-10695889D01*
X11305896Y-10695889D02*
X11296372Y-10676841D01*
X11296372Y-10676841D02*
X11277325Y-10667317D01*
X11277325Y-10667317D02*
X11248753Y-10667317D01*
X11248753Y-10667317D02*
X11229706Y-10657793D01*
X11229706Y-10657793D02*
X11220182Y-10638746D01*
X11220182Y-10638746D02*
X11220182Y-10629222D01*
X11220182Y-10629222D02*
X11229706Y-10610174D01*
X11229706Y-10610174D02*
X11248753Y-10600650D01*
X11248753Y-10600650D02*
X11277325Y-10600650D01*
X11277325Y-10600650D02*
X11296372Y-10610174D01*
X11372563Y-10810174D02*
X11382087Y-10800650D01*
X11382087Y-10800650D02*
X11401134Y-10772079D01*
X11401134Y-10772079D02*
X11410658Y-10753031D01*
X11410658Y-10753031D02*
X11420182Y-10724460D01*
X11420182Y-10724460D02*
X11429706Y-10676841D01*
X11429706Y-10676841D02*
X11429706Y-10638746D01*
X11429706Y-10638746D02*
X11420182Y-10591127D01*
X11420182Y-10591127D02*
X11410658Y-10562555D01*
X11410658Y-10562555D02*
X11401134Y-10543508D01*
X11401134Y-10543508D02*
X11382087Y-10514936D01*
X11382087Y-10514936D02*
X11372563Y-10505412D01*
D12*
X6597500Y-10906500D02*
G75*
G02*
X6526500Y-10906500I-35500J0D01*
G01*
X6526500Y-10906500D02*
G75*
G02*
X6597500Y-10906500I35500J0D01*
G01*
D11*
X6896372Y-10797984D02*
X6915420Y-10797984D01*
X6915420Y-10797984D02*
X6934467Y-10807508D01*
X6934467Y-10807508D02*
X6943991Y-10817031D01*
X6943991Y-10817031D02*
X6953515Y-10836079D01*
X6953515Y-10836079D02*
X6963039Y-10874174D01*
X6963039Y-10874174D02*
X6963039Y-10921793D01*
X6963039Y-10921793D02*
X6953515Y-10959889D01*
X6953515Y-10959889D02*
X6943991Y-10978936D01*
X6943991Y-10978936D02*
X6934467Y-10988460D01*
X6934467Y-10988460D02*
X6915420Y-10997984D01*
X6915420Y-10997984D02*
X6896372Y-10997984D01*
X6896372Y-10997984D02*
X6877324Y-10988460D01*
X6877324Y-10988460D02*
X6867801Y-10978936D01*
X6867801Y-10978936D02*
X6858277Y-10959889D01*
X6858277Y-10959889D02*
X6848753Y-10921793D01*
X6848753Y-10921793D02*
X6848753Y-10874174D01*
X6848753Y-10874174D02*
X6858277Y-10836079D01*
X6858277Y-10836079D02*
X6867801Y-10817031D01*
X6867801Y-10817031D02*
X6877324Y-10807508D01*
X6877324Y-10807508D02*
X6896372Y-10797984D01*
X7048753Y-10978936D02*
X7058277Y-10988460D01*
X7058277Y-10988460D02*
X7048753Y-10997984D01*
X7048753Y-10997984D02*
X7039229Y-10988460D01*
X7039229Y-10988460D02*
X7048753Y-10978936D01*
X7048753Y-10978936D02*
X7048753Y-10997984D01*
X7124943Y-10797984D02*
X7258277Y-10797984D01*
X7258277Y-10797984D02*
X7172562Y-10997984D01*
X7439229Y-10997984D02*
X7324943Y-10997984D01*
X7382086Y-10997984D02*
X7382086Y-10797984D01*
X7382086Y-10797984D02*
X7363039Y-10826555D01*
X7363039Y-10826555D02*
X7343991Y-10845603D01*
X7343991Y-10845603D02*
X7324943Y-10855127D01*
X7563039Y-10797984D02*
X7582086Y-10797984D01*
X7582086Y-10797984D02*
X7601134Y-10807508D01*
X7601134Y-10807508D02*
X7610658Y-10817031D01*
X7610658Y-10817031D02*
X7620182Y-10836079D01*
X7620182Y-10836079D02*
X7629705Y-10874174D01*
X7629705Y-10874174D02*
X7629705Y-10921793D01*
X7629705Y-10921793D02*
X7620182Y-10959889D01*
X7620182Y-10959889D02*
X7610658Y-10978936D01*
X7610658Y-10978936D02*
X7601134Y-10988460D01*
X7601134Y-10988460D02*
X7582086Y-10997984D01*
X7582086Y-10997984D02*
X7563039Y-10997984D01*
X7563039Y-10997984D02*
X7543991Y-10988460D01*
X7543991Y-10988460D02*
X7534467Y-10978936D01*
X7534467Y-10978936D02*
X7524943Y-10959889D01*
X7524943Y-10959889D02*
X7515420Y-10921793D01*
X7515420Y-10921793D02*
X7515420Y-10874174D01*
X7515420Y-10874174D02*
X7524943Y-10836079D01*
X7524943Y-10836079D02*
X7534467Y-10817031D01*
X7534467Y-10817031D02*
X7543991Y-10807508D01*
X7543991Y-10807508D02*
X7563039Y-10797984D01*
X7715420Y-10997984D02*
X7715420Y-10864650D01*
X7715420Y-10883698D02*
X7724943Y-10874174D01*
X7724943Y-10874174D02*
X7743991Y-10864650D01*
X7743991Y-10864650D02*
X7772563Y-10864650D01*
X7772563Y-10864650D02*
X7791610Y-10874174D01*
X7791610Y-10874174D02*
X7801134Y-10893222D01*
X7801134Y-10893222D02*
X7801134Y-10997984D01*
X7801134Y-10893222D02*
X7810658Y-10874174D01*
X7810658Y-10874174D02*
X7829705Y-10864650D01*
X7829705Y-10864650D02*
X7858277Y-10864650D01*
X7858277Y-10864650D02*
X7877324Y-10874174D01*
X7877324Y-10874174D02*
X7886848Y-10893222D01*
X7886848Y-10893222D02*
X7886848Y-10997984D01*
X7982086Y-10997984D02*
X7982086Y-10864650D01*
X7982086Y-10883698D02*
X7991610Y-10874174D01*
X7991610Y-10874174D02*
X8010658Y-10864650D01*
X8010658Y-10864650D02*
X8039229Y-10864650D01*
X8039229Y-10864650D02*
X8058277Y-10874174D01*
X8058277Y-10874174D02*
X8067801Y-10893222D01*
X8067801Y-10893222D02*
X8067801Y-10997984D01*
X8067801Y-10893222D02*
X8077324Y-10874174D01*
X8077324Y-10874174D02*
X8096372Y-10864650D01*
X8096372Y-10864650D02*
X8124943Y-10864650D01*
X8124943Y-10864650D02*
X8143991Y-10874174D01*
X8143991Y-10874174D02*
X8153515Y-10893222D01*
X8153515Y-10893222D02*
X8153515Y-10997984D01*
X8543991Y-10788460D02*
X8372563Y-11045603D01*
X8801134Y-10797984D02*
X8820182Y-10797984D01*
X8820182Y-10797984D02*
X8839229Y-10807508D01*
X8839229Y-10807508D02*
X8848753Y-10817031D01*
X8848753Y-10817031D02*
X8858277Y-10836079D01*
X8858277Y-10836079D02*
X8867801Y-10874174D01*
X8867801Y-10874174D02*
X8867801Y-10921793D01*
X8867801Y-10921793D02*
X8858277Y-10959889D01*
X8858277Y-10959889D02*
X8848753Y-10978936D01*
X8848753Y-10978936D02*
X8839229Y-10988460D01*
X8839229Y-10988460D02*
X8820182Y-10997984D01*
X8820182Y-10997984D02*
X8801134Y-10997984D01*
X8801134Y-10997984D02*
X8782087Y-10988460D01*
X8782087Y-10988460D02*
X8772563Y-10978936D01*
X8772563Y-10978936D02*
X8763039Y-10959889D01*
X8763039Y-10959889D02*
X8753515Y-10921793D01*
X8753515Y-10921793D02*
X8753515Y-10874174D01*
X8753515Y-10874174D02*
X8763039Y-10836079D01*
X8763039Y-10836079D02*
X8772563Y-10817031D01*
X8772563Y-10817031D02*
X8782087Y-10807508D01*
X8782087Y-10807508D02*
X8801134Y-10797984D01*
X8953515Y-10978936D02*
X8963039Y-10988460D01*
X8963039Y-10988460D02*
X8953515Y-10997984D01*
X8953515Y-10997984D02*
X8943991Y-10988460D01*
X8943991Y-10988460D02*
X8953515Y-10978936D01*
X8953515Y-10978936D02*
X8953515Y-10997984D01*
X9086848Y-10797984D02*
X9105896Y-10797984D01*
X9105896Y-10797984D02*
X9124944Y-10807508D01*
X9124944Y-10807508D02*
X9134468Y-10817031D01*
X9134468Y-10817031D02*
X9143991Y-10836079D01*
X9143991Y-10836079D02*
X9153515Y-10874174D01*
X9153515Y-10874174D02*
X9153515Y-10921793D01*
X9153515Y-10921793D02*
X9143991Y-10959889D01*
X9143991Y-10959889D02*
X9134468Y-10978936D01*
X9134468Y-10978936D02*
X9124944Y-10988460D01*
X9124944Y-10988460D02*
X9105896Y-10997984D01*
X9105896Y-10997984D02*
X9086848Y-10997984D01*
X9086848Y-10997984D02*
X9067801Y-10988460D01*
X9067801Y-10988460D02*
X9058277Y-10978936D01*
X9058277Y-10978936D02*
X9048753Y-10959889D01*
X9048753Y-10959889D02*
X9039229Y-10921793D01*
X9039229Y-10921793D02*
X9039229Y-10874174D01*
X9039229Y-10874174D02*
X9048753Y-10836079D01*
X9048753Y-10836079D02*
X9058277Y-10817031D01*
X9058277Y-10817031D02*
X9067801Y-10807508D01*
X9067801Y-10807508D02*
X9086848Y-10797984D01*
X9229706Y-10817031D02*
X9239229Y-10807508D01*
X9239229Y-10807508D02*
X9258277Y-10797984D01*
X9258277Y-10797984D02*
X9305896Y-10797984D01*
X9305896Y-10797984D02*
X9324944Y-10807508D01*
X9324944Y-10807508D02*
X9334468Y-10817031D01*
X9334468Y-10817031D02*
X9343991Y-10836079D01*
X9343991Y-10836079D02*
X9343991Y-10855127D01*
X9343991Y-10855127D02*
X9334468Y-10883698D01*
X9334468Y-10883698D02*
X9220182Y-10997984D01*
X9220182Y-10997984D02*
X9343991Y-10997984D01*
X9458277Y-10883698D02*
X9439229Y-10874174D01*
X9439229Y-10874174D02*
X9429706Y-10864650D01*
X9429706Y-10864650D02*
X9420182Y-10845603D01*
X9420182Y-10845603D02*
X9420182Y-10836079D01*
X9420182Y-10836079D02*
X9429706Y-10817031D01*
X9429706Y-10817031D02*
X9439229Y-10807508D01*
X9439229Y-10807508D02*
X9458277Y-10797984D01*
X9458277Y-10797984D02*
X9496372Y-10797984D01*
X9496372Y-10797984D02*
X9515420Y-10807508D01*
X9515420Y-10807508D02*
X9524944Y-10817031D01*
X9524944Y-10817031D02*
X9534468Y-10836079D01*
X9534468Y-10836079D02*
X9534468Y-10845603D01*
X9534468Y-10845603D02*
X9524944Y-10864650D01*
X9524944Y-10864650D02*
X9515420Y-10874174D01*
X9515420Y-10874174D02*
X9496372Y-10883698D01*
X9496372Y-10883698D02*
X9458277Y-10883698D01*
X9458277Y-10883698D02*
X9439229Y-10893222D01*
X9439229Y-10893222D02*
X9429706Y-10902746D01*
X9429706Y-10902746D02*
X9420182Y-10921793D01*
X9420182Y-10921793D02*
X9420182Y-10959889D01*
X9420182Y-10959889D02*
X9429706Y-10978936D01*
X9429706Y-10978936D02*
X9439229Y-10988460D01*
X9439229Y-10988460D02*
X9458277Y-10997984D01*
X9458277Y-10997984D02*
X9496372Y-10997984D01*
X9496372Y-10997984D02*
X9515420Y-10988460D01*
X9515420Y-10988460D02*
X9524944Y-10978936D01*
X9524944Y-10978936D02*
X9534468Y-10959889D01*
X9534468Y-10959889D02*
X9534468Y-10921793D01*
X9534468Y-10921793D02*
X9524944Y-10902746D01*
X9524944Y-10902746D02*
X9515420Y-10893222D01*
X9515420Y-10893222D02*
X9496372Y-10883698D01*
X9658277Y-10797984D02*
X9677325Y-10797984D01*
X9677325Y-10797984D02*
X9696372Y-10807508D01*
X9696372Y-10807508D02*
X9705896Y-10817031D01*
X9705896Y-10817031D02*
X9715420Y-10836079D01*
X9715420Y-10836079D02*
X9724944Y-10874174D01*
X9724944Y-10874174D02*
X9724944Y-10921793D01*
X9724944Y-10921793D02*
X9715420Y-10959889D01*
X9715420Y-10959889D02*
X9705896Y-10978936D01*
X9705896Y-10978936D02*
X9696372Y-10988460D01*
X9696372Y-10988460D02*
X9677325Y-10997984D01*
X9677325Y-10997984D02*
X9658277Y-10997984D01*
X9658277Y-10997984D02*
X9639229Y-10988460D01*
X9639229Y-10988460D02*
X9629706Y-10978936D01*
X9629706Y-10978936D02*
X9620182Y-10959889D01*
X9620182Y-10959889D02*
X9610658Y-10921793D01*
X9610658Y-10921793D02*
X9610658Y-10874174D01*
X9610658Y-10874174D02*
X9620182Y-10836079D01*
X9620182Y-10836079D02*
X9629706Y-10817031D01*
X9629706Y-10817031D02*
X9639229Y-10807508D01*
X9639229Y-10807508D02*
X9658277Y-10797984D01*
X9801134Y-10797984D02*
X9801134Y-10836079D01*
X9877325Y-10797984D02*
X9877325Y-10836079D01*
X10172563Y-11074174D02*
X10163039Y-11064650D01*
X10163039Y-11064650D02*
X10143991Y-11036079D01*
X10143991Y-11036079D02*
X10134468Y-11017031D01*
X10134468Y-11017031D02*
X10124944Y-10988460D01*
X10124944Y-10988460D02*
X10115420Y-10940841D01*
X10115420Y-10940841D02*
X10115420Y-10902746D01*
X10115420Y-10902746D02*
X10124944Y-10855127D01*
X10124944Y-10855127D02*
X10134468Y-10826555D01*
X10134468Y-10826555D02*
X10143991Y-10807508D01*
X10143991Y-10807508D02*
X10163039Y-10778936D01*
X10163039Y-10778936D02*
X10172563Y-10769412D01*
X10334468Y-10864650D02*
X10334468Y-10997984D01*
X10286849Y-10788460D02*
X10239230Y-10931317D01*
X10239230Y-10931317D02*
X10363039Y-10931317D01*
X10591611Y-10997984D02*
X10591611Y-10797984D01*
X10677325Y-10997984D02*
X10677325Y-10893222D01*
X10677325Y-10893222D02*
X10667801Y-10874174D01*
X10667801Y-10874174D02*
X10648753Y-10864650D01*
X10648753Y-10864650D02*
X10620182Y-10864650D01*
X10620182Y-10864650D02*
X10601134Y-10874174D01*
X10601134Y-10874174D02*
X10591611Y-10883698D01*
X10801134Y-10997984D02*
X10782087Y-10988460D01*
X10782087Y-10988460D02*
X10772563Y-10978936D01*
X10772563Y-10978936D02*
X10763039Y-10959889D01*
X10763039Y-10959889D02*
X10763039Y-10902746D01*
X10763039Y-10902746D02*
X10772563Y-10883698D01*
X10772563Y-10883698D02*
X10782087Y-10874174D01*
X10782087Y-10874174D02*
X10801134Y-10864650D01*
X10801134Y-10864650D02*
X10829706Y-10864650D01*
X10829706Y-10864650D02*
X10848753Y-10874174D01*
X10848753Y-10874174D02*
X10858277Y-10883698D01*
X10858277Y-10883698D02*
X10867801Y-10902746D01*
X10867801Y-10902746D02*
X10867801Y-10959889D01*
X10867801Y-10959889D02*
X10858277Y-10978936D01*
X10858277Y-10978936D02*
X10848753Y-10988460D01*
X10848753Y-10988460D02*
X10829706Y-10997984D01*
X10829706Y-10997984D02*
X10801134Y-10997984D01*
X10982087Y-10997984D02*
X10963039Y-10988460D01*
X10963039Y-10988460D02*
X10953515Y-10969412D01*
X10953515Y-10969412D02*
X10953515Y-10797984D01*
X11134468Y-10988460D02*
X11115420Y-10997984D01*
X11115420Y-10997984D02*
X11077325Y-10997984D01*
X11077325Y-10997984D02*
X11058277Y-10988460D01*
X11058277Y-10988460D02*
X11048753Y-10969412D01*
X11048753Y-10969412D02*
X11048753Y-10893222D01*
X11048753Y-10893222D02*
X11058277Y-10874174D01*
X11058277Y-10874174D02*
X11077325Y-10864650D01*
X11077325Y-10864650D02*
X11115420Y-10864650D01*
X11115420Y-10864650D02*
X11134468Y-10874174D01*
X11134468Y-10874174D02*
X11143992Y-10893222D01*
X11143992Y-10893222D02*
X11143992Y-10912270D01*
X11143992Y-10912270D02*
X11048753Y-10931317D01*
X11220182Y-10988460D02*
X11239230Y-10997984D01*
X11239230Y-10997984D02*
X11277325Y-10997984D01*
X11277325Y-10997984D02*
X11296372Y-10988460D01*
X11296372Y-10988460D02*
X11305896Y-10969412D01*
X11305896Y-10969412D02*
X11305896Y-10959889D01*
X11305896Y-10959889D02*
X11296372Y-10940841D01*
X11296372Y-10940841D02*
X11277325Y-10931317D01*
X11277325Y-10931317D02*
X11248753Y-10931317D01*
X11248753Y-10931317D02*
X11229706Y-10921793D01*
X11229706Y-10921793D02*
X11220182Y-10902746D01*
X11220182Y-10902746D02*
X11220182Y-10893222D01*
X11220182Y-10893222D02*
X11229706Y-10874174D01*
X11229706Y-10874174D02*
X11248753Y-10864650D01*
X11248753Y-10864650D02*
X11277325Y-10864650D01*
X11277325Y-10864650D02*
X11296372Y-10874174D01*
X11372563Y-11074174D02*
X11382087Y-11064650D01*
X11382087Y-11064650D02*
X11401134Y-11036079D01*
X11401134Y-11036079D02*
X11410658Y-11017031D01*
X11410658Y-11017031D02*
X11420182Y-10988460D01*
X11420182Y-10988460D02*
X11429706Y-10940841D01*
X11429706Y-10940841D02*
X11429706Y-10902746D01*
X11429706Y-10902746D02*
X11420182Y-10855127D01*
X11420182Y-10855127D02*
X11410658Y-10826555D01*
X11410658Y-10826555D02*
X11401134Y-10807508D01*
X11401134Y-10807508D02*
X11382087Y-10778936D01*
X11382087Y-10778936D02*
X11372563Y-10769412D01*
D12*
X6559500Y-11132500D02*
X6559500Y-11208500D01*
X6521500Y-11170500D02*
X6597500Y-11170500D01*
D11*
X6896372Y-11061984D02*
X6915420Y-11061984D01*
X6915420Y-11061984D02*
X6934467Y-11071508D01*
X6934467Y-11071508D02*
X6943991Y-11081031D01*
X6943991Y-11081031D02*
X6953515Y-11100079D01*
X6953515Y-11100079D02*
X6963039Y-11138174D01*
X6963039Y-11138174D02*
X6963039Y-11185793D01*
X6963039Y-11185793D02*
X6953515Y-11223888D01*
X6953515Y-11223888D02*
X6943991Y-11242936D01*
X6943991Y-11242936D02*
X6934467Y-11252460D01*
X6934467Y-11252460D02*
X6915420Y-11261984D01*
X6915420Y-11261984D02*
X6896372Y-11261984D01*
X6896372Y-11261984D02*
X6877324Y-11252460D01*
X6877324Y-11252460D02*
X6867801Y-11242936D01*
X6867801Y-11242936D02*
X6858277Y-11223888D01*
X6858277Y-11223888D02*
X6848753Y-11185793D01*
X6848753Y-11185793D02*
X6848753Y-11138174D01*
X6848753Y-11138174D02*
X6858277Y-11100079D01*
X6858277Y-11100079D02*
X6867801Y-11081031D01*
X6867801Y-11081031D02*
X6877324Y-11071508D01*
X6877324Y-11071508D02*
X6896372Y-11061984D01*
X7048753Y-11242936D02*
X7058277Y-11252460D01*
X7058277Y-11252460D02*
X7048753Y-11261984D01*
X7048753Y-11261984D02*
X7039229Y-11252460D01*
X7039229Y-11252460D02*
X7048753Y-11242936D01*
X7048753Y-11242936D02*
X7048753Y-11261984D01*
X7124943Y-11061984D02*
X7258277Y-11061984D01*
X7258277Y-11061984D02*
X7172562Y-11261984D01*
X7420182Y-11061984D02*
X7382086Y-11061984D01*
X7382086Y-11061984D02*
X7363039Y-11071508D01*
X7363039Y-11071508D02*
X7353515Y-11081031D01*
X7353515Y-11081031D02*
X7334467Y-11109603D01*
X7334467Y-11109603D02*
X7324943Y-11147698D01*
X7324943Y-11147698D02*
X7324943Y-11223888D01*
X7324943Y-11223888D02*
X7334467Y-11242936D01*
X7334467Y-11242936D02*
X7343991Y-11252460D01*
X7343991Y-11252460D02*
X7363039Y-11261984D01*
X7363039Y-11261984D02*
X7401134Y-11261984D01*
X7401134Y-11261984D02*
X7420182Y-11252460D01*
X7420182Y-11252460D02*
X7429705Y-11242936D01*
X7429705Y-11242936D02*
X7439229Y-11223888D01*
X7439229Y-11223888D02*
X7439229Y-11176270D01*
X7439229Y-11176270D02*
X7429705Y-11157222D01*
X7429705Y-11157222D02*
X7420182Y-11147698D01*
X7420182Y-11147698D02*
X7401134Y-11138174D01*
X7401134Y-11138174D02*
X7363039Y-11138174D01*
X7363039Y-11138174D02*
X7343991Y-11147698D01*
X7343991Y-11147698D02*
X7334467Y-11157222D01*
X7334467Y-11157222D02*
X7324943Y-11176270D01*
X7563039Y-11061984D02*
X7582086Y-11061984D01*
X7582086Y-11061984D02*
X7601134Y-11071508D01*
X7601134Y-11071508D02*
X7610658Y-11081031D01*
X7610658Y-11081031D02*
X7620182Y-11100079D01*
X7620182Y-11100079D02*
X7629705Y-11138174D01*
X7629705Y-11138174D02*
X7629705Y-11185793D01*
X7629705Y-11185793D02*
X7620182Y-11223888D01*
X7620182Y-11223888D02*
X7610658Y-11242936D01*
X7610658Y-11242936D02*
X7601134Y-11252460D01*
X7601134Y-11252460D02*
X7582086Y-11261984D01*
X7582086Y-11261984D02*
X7563039Y-11261984D01*
X7563039Y-11261984D02*
X7543991Y-11252460D01*
X7543991Y-11252460D02*
X7534467Y-11242936D01*
X7534467Y-11242936D02*
X7524943Y-11223888D01*
X7524943Y-11223888D02*
X7515420Y-11185793D01*
X7515420Y-11185793D02*
X7515420Y-11138174D01*
X7515420Y-11138174D02*
X7524943Y-11100079D01*
X7524943Y-11100079D02*
X7534467Y-11081031D01*
X7534467Y-11081031D02*
X7543991Y-11071508D01*
X7543991Y-11071508D02*
X7563039Y-11061984D01*
X7715420Y-11261984D02*
X7715420Y-11128650D01*
X7715420Y-11147698D02*
X7724943Y-11138174D01*
X7724943Y-11138174D02*
X7743991Y-11128650D01*
X7743991Y-11128650D02*
X7772563Y-11128650D01*
X7772563Y-11128650D02*
X7791610Y-11138174D01*
X7791610Y-11138174D02*
X7801134Y-11157222D01*
X7801134Y-11157222D02*
X7801134Y-11261984D01*
X7801134Y-11157222D02*
X7810658Y-11138174D01*
X7810658Y-11138174D02*
X7829705Y-11128650D01*
X7829705Y-11128650D02*
X7858277Y-11128650D01*
X7858277Y-11128650D02*
X7877324Y-11138174D01*
X7877324Y-11138174D02*
X7886848Y-11157222D01*
X7886848Y-11157222D02*
X7886848Y-11261984D01*
X7982086Y-11261984D02*
X7982086Y-11128650D01*
X7982086Y-11147698D02*
X7991610Y-11138174D01*
X7991610Y-11138174D02*
X8010658Y-11128650D01*
X8010658Y-11128650D02*
X8039229Y-11128650D01*
X8039229Y-11128650D02*
X8058277Y-11138174D01*
X8058277Y-11138174D02*
X8067801Y-11157222D01*
X8067801Y-11157222D02*
X8067801Y-11261984D01*
X8067801Y-11157222D02*
X8077324Y-11138174D01*
X8077324Y-11138174D02*
X8096372Y-11128650D01*
X8096372Y-11128650D02*
X8124943Y-11128650D01*
X8124943Y-11128650D02*
X8143991Y-11138174D01*
X8143991Y-11138174D02*
X8153515Y-11157222D01*
X8153515Y-11157222D02*
X8153515Y-11261984D01*
X8543991Y-11052460D02*
X8372563Y-11309603D01*
X8801134Y-11061984D02*
X8820182Y-11061984D01*
X8820182Y-11061984D02*
X8839229Y-11071508D01*
X8839229Y-11071508D02*
X8848753Y-11081031D01*
X8848753Y-11081031D02*
X8858277Y-11100079D01*
X8858277Y-11100079D02*
X8867801Y-11138174D01*
X8867801Y-11138174D02*
X8867801Y-11185793D01*
X8867801Y-11185793D02*
X8858277Y-11223888D01*
X8858277Y-11223888D02*
X8848753Y-11242936D01*
X8848753Y-11242936D02*
X8839229Y-11252460D01*
X8839229Y-11252460D02*
X8820182Y-11261984D01*
X8820182Y-11261984D02*
X8801134Y-11261984D01*
X8801134Y-11261984D02*
X8782087Y-11252460D01*
X8782087Y-11252460D02*
X8772563Y-11242936D01*
X8772563Y-11242936D02*
X8763039Y-11223888D01*
X8763039Y-11223888D02*
X8753515Y-11185793D01*
X8753515Y-11185793D02*
X8753515Y-11138174D01*
X8753515Y-11138174D02*
X8763039Y-11100079D01*
X8763039Y-11100079D02*
X8772563Y-11081031D01*
X8772563Y-11081031D02*
X8782087Y-11071508D01*
X8782087Y-11071508D02*
X8801134Y-11061984D01*
X8953515Y-11242936D02*
X8963039Y-11252460D01*
X8963039Y-11252460D02*
X8953515Y-11261984D01*
X8953515Y-11261984D02*
X8943991Y-11252460D01*
X8943991Y-11252460D02*
X8953515Y-11242936D01*
X8953515Y-11242936D02*
X8953515Y-11261984D01*
X9086848Y-11061984D02*
X9105896Y-11061984D01*
X9105896Y-11061984D02*
X9124944Y-11071508D01*
X9124944Y-11071508D02*
X9134468Y-11081031D01*
X9134468Y-11081031D02*
X9143991Y-11100079D01*
X9143991Y-11100079D02*
X9153515Y-11138174D01*
X9153515Y-11138174D02*
X9153515Y-11185793D01*
X9153515Y-11185793D02*
X9143991Y-11223888D01*
X9143991Y-11223888D02*
X9134468Y-11242936D01*
X9134468Y-11242936D02*
X9124944Y-11252460D01*
X9124944Y-11252460D02*
X9105896Y-11261984D01*
X9105896Y-11261984D02*
X9086848Y-11261984D01*
X9086848Y-11261984D02*
X9067801Y-11252460D01*
X9067801Y-11252460D02*
X9058277Y-11242936D01*
X9058277Y-11242936D02*
X9048753Y-11223888D01*
X9048753Y-11223888D02*
X9039229Y-11185793D01*
X9039229Y-11185793D02*
X9039229Y-11138174D01*
X9039229Y-11138174D02*
X9048753Y-11100079D01*
X9048753Y-11100079D02*
X9058277Y-11081031D01*
X9058277Y-11081031D02*
X9067801Y-11071508D01*
X9067801Y-11071508D02*
X9086848Y-11061984D01*
X9229706Y-11081031D02*
X9239229Y-11071508D01*
X9239229Y-11071508D02*
X9258277Y-11061984D01*
X9258277Y-11061984D02*
X9305896Y-11061984D01*
X9305896Y-11061984D02*
X9324944Y-11071508D01*
X9324944Y-11071508D02*
X9334468Y-11081031D01*
X9334468Y-11081031D02*
X9343991Y-11100079D01*
X9343991Y-11100079D02*
X9343991Y-11119127D01*
X9343991Y-11119127D02*
X9334468Y-11147698D01*
X9334468Y-11147698D02*
X9220182Y-11261984D01*
X9220182Y-11261984D02*
X9343991Y-11261984D01*
X9439229Y-11261984D02*
X9477325Y-11261984D01*
X9477325Y-11261984D02*
X9496372Y-11252460D01*
X9496372Y-11252460D02*
X9505896Y-11242936D01*
X9505896Y-11242936D02*
X9524944Y-11214365D01*
X9524944Y-11214365D02*
X9534468Y-11176270D01*
X9534468Y-11176270D02*
X9534468Y-11100079D01*
X9534468Y-11100079D02*
X9524944Y-11081031D01*
X9524944Y-11081031D02*
X9515420Y-11071508D01*
X9515420Y-11071508D02*
X9496372Y-11061984D01*
X9496372Y-11061984D02*
X9458277Y-11061984D01*
X9458277Y-11061984D02*
X9439229Y-11071508D01*
X9439229Y-11071508D02*
X9429706Y-11081031D01*
X9429706Y-11081031D02*
X9420182Y-11100079D01*
X9420182Y-11100079D02*
X9420182Y-11147698D01*
X9420182Y-11147698D02*
X9429706Y-11166746D01*
X9429706Y-11166746D02*
X9439229Y-11176270D01*
X9439229Y-11176270D02*
X9458277Y-11185793D01*
X9458277Y-11185793D02*
X9496372Y-11185793D01*
X9496372Y-11185793D02*
X9515420Y-11176270D01*
X9515420Y-11176270D02*
X9524944Y-11166746D01*
X9524944Y-11166746D02*
X9534468Y-11147698D01*
X9629706Y-11261984D02*
X9667801Y-11261984D01*
X9667801Y-11261984D02*
X9686849Y-11252460D01*
X9686849Y-11252460D02*
X9696372Y-11242936D01*
X9696372Y-11242936D02*
X9715420Y-11214365D01*
X9715420Y-11214365D02*
X9724944Y-11176270D01*
X9724944Y-11176270D02*
X9724944Y-11100079D01*
X9724944Y-11100079D02*
X9715420Y-11081031D01*
X9715420Y-11081031D02*
X9705896Y-11071508D01*
X9705896Y-11071508D02*
X9686849Y-11061984D01*
X9686849Y-11061984D02*
X9648753Y-11061984D01*
X9648753Y-11061984D02*
X9629706Y-11071508D01*
X9629706Y-11071508D02*
X9620182Y-11081031D01*
X9620182Y-11081031D02*
X9610658Y-11100079D01*
X9610658Y-11100079D02*
X9610658Y-11147698D01*
X9610658Y-11147698D02*
X9620182Y-11166746D01*
X9620182Y-11166746D02*
X9629706Y-11176270D01*
X9629706Y-11176270D02*
X9648753Y-11185793D01*
X9648753Y-11185793D02*
X9686849Y-11185793D01*
X9686849Y-11185793D02*
X9705896Y-11176270D01*
X9705896Y-11176270D02*
X9715420Y-11166746D01*
X9715420Y-11166746D02*
X9724944Y-11147698D01*
X9801134Y-11061984D02*
X9801134Y-11100079D01*
X9877325Y-11061984D02*
X9877325Y-11100079D01*
X10172563Y-11338174D02*
X10163039Y-11328650D01*
X10163039Y-11328650D02*
X10143991Y-11300079D01*
X10143991Y-11300079D02*
X10134468Y-11281031D01*
X10134468Y-11281031D02*
X10124944Y-11252460D01*
X10124944Y-11252460D02*
X10115420Y-11204841D01*
X10115420Y-11204841D02*
X10115420Y-11166746D01*
X10115420Y-11166746D02*
X10124944Y-11119127D01*
X10124944Y-11119127D02*
X10134468Y-11090555D01*
X10134468Y-11090555D02*
X10143991Y-11071508D01*
X10143991Y-11071508D02*
X10163039Y-11042936D01*
X10163039Y-11042936D02*
X10172563Y-11033412D01*
X10229706Y-11061984D02*
X10363039Y-11061984D01*
X10363039Y-11061984D02*
X10277325Y-11261984D01*
X10591611Y-11261984D02*
X10591611Y-11061984D01*
X10677325Y-11261984D02*
X10677325Y-11157222D01*
X10677325Y-11157222D02*
X10667801Y-11138174D01*
X10667801Y-11138174D02*
X10648753Y-11128650D01*
X10648753Y-11128650D02*
X10620182Y-11128650D01*
X10620182Y-11128650D02*
X10601134Y-11138174D01*
X10601134Y-11138174D02*
X10591611Y-11147698D01*
X10801134Y-11261984D02*
X10782087Y-11252460D01*
X10782087Y-11252460D02*
X10772563Y-11242936D01*
X10772563Y-11242936D02*
X10763039Y-11223888D01*
X10763039Y-11223888D02*
X10763039Y-11166746D01*
X10763039Y-11166746D02*
X10772563Y-11147698D01*
X10772563Y-11147698D02*
X10782087Y-11138174D01*
X10782087Y-11138174D02*
X10801134Y-11128650D01*
X10801134Y-11128650D02*
X10829706Y-11128650D01*
X10829706Y-11128650D02*
X10848753Y-11138174D01*
X10848753Y-11138174D02*
X10858277Y-11147698D01*
X10858277Y-11147698D02*
X10867801Y-11166746D01*
X10867801Y-11166746D02*
X10867801Y-11223888D01*
X10867801Y-11223888D02*
X10858277Y-11242936D01*
X10858277Y-11242936D02*
X10848753Y-11252460D01*
X10848753Y-11252460D02*
X10829706Y-11261984D01*
X10829706Y-11261984D02*
X10801134Y-11261984D01*
X10982087Y-11261984D02*
X10963039Y-11252460D01*
X10963039Y-11252460D02*
X10953515Y-11233412D01*
X10953515Y-11233412D02*
X10953515Y-11061984D01*
X11134468Y-11252460D02*
X11115420Y-11261984D01*
X11115420Y-11261984D02*
X11077325Y-11261984D01*
X11077325Y-11261984D02*
X11058277Y-11252460D01*
X11058277Y-11252460D02*
X11048753Y-11233412D01*
X11048753Y-11233412D02*
X11048753Y-11157222D01*
X11048753Y-11157222D02*
X11058277Y-11138174D01*
X11058277Y-11138174D02*
X11077325Y-11128650D01*
X11077325Y-11128650D02*
X11115420Y-11128650D01*
X11115420Y-11128650D02*
X11134468Y-11138174D01*
X11134468Y-11138174D02*
X11143992Y-11157222D01*
X11143992Y-11157222D02*
X11143992Y-11176270D01*
X11143992Y-11176270D02*
X11048753Y-11195317D01*
X11220182Y-11252460D02*
X11239230Y-11261984D01*
X11239230Y-11261984D02*
X11277325Y-11261984D01*
X11277325Y-11261984D02*
X11296372Y-11252460D01*
X11296372Y-11252460D02*
X11305896Y-11233412D01*
X11305896Y-11233412D02*
X11305896Y-11223888D01*
X11305896Y-11223888D02*
X11296372Y-11204841D01*
X11296372Y-11204841D02*
X11277325Y-11195317D01*
X11277325Y-11195317D02*
X11248753Y-11195317D01*
X11248753Y-11195317D02*
X11229706Y-11185793D01*
X11229706Y-11185793D02*
X11220182Y-11166746D01*
X11220182Y-11166746D02*
X11220182Y-11157222D01*
X11220182Y-11157222D02*
X11229706Y-11138174D01*
X11229706Y-11138174D02*
X11248753Y-11128650D01*
X11248753Y-11128650D02*
X11277325Y-11128650D01*
X11277325Y-11128650D02*
X11296372Y-11138174D01*
X11372563Y-11338174D02*
X11382087Y-11328650D01*
X11382087Y-11328650D02*
X11401134Y-11300079D01*
X11401134Y-11300079D02*
X11410658Y-11281031D01*
X11410658Y-11281031D02*
X11420182Y-11252460D01*
X11420182Y-11252460D02*
X11429706Y-11204841D01*
X11429706Y-11204841D02*
X11429706Y-11166746D01*
X11429706Y-11166746D02*
X11420182Y-11119127D01*
X11420182Y-11119127D02*
X11410658Y-11090555D01*
X11410658Y-11090555D02*
X11401134Y-11071508D01*
X11401134Y-11071508D02*
X11382087Y-11042936D01*
X11382087Y-11042936D02*
X11372563Y-11033412D01*
D12*
X6585784Y-11462784D02*
X6585784Y-11406215D01*
X6529215Y-11406215D01*
X6529215Y-11462784D01*
X6585784Y-11462784D01*
D11*
X6896372Y-11325984D02*
X6915420Y-11325984D01*
X6915420Y-11325984D02*
X6934467Y-11335508D01*
X6934467Y-11335508D02*
X6943991Y-11345031D01*
X6943991Y-11345031D02*
X6953515Y-11364079D01*
X6953515Y-11364079D02*
X6963039Y-11402174D01*
X6963039Y-11402174D02*
X6963039Y-11449793D01*
X6963039Y-11449793D02*
X6953515Y-11487888D01*
X6953515Y-11487888D02*
X6943991Y-11506936D01*
X6943991Y-11506936D02*
X6934467Y-11516460D01*
X6934467Y-11516460D02*
X6915420Y-11525984D01*
X6915420Y-11525984D02*
X6896372Y-11525984D01*
X6896372Y-11525984D02*
X6877324Y-11516460D01*
X6877324Y-11516460D02*
X6867801Y-11506936D01*
X6867801Y-11506936D02*
X6858277Y-11487888D01*
X6858277Y-11487888D02*
X6848753Y-11449793D01*
X6848753Y-11449793D02*
X6848753Y-11402174D01*
X6848753Y-11402174D02*
X6858277Y-11364079D01*
X6858277Y-11364079D02*
X6867801Y-11345031D01*
X6867801Y-11345031D02*
X6877324Y-11335508D01*
X6877324Y-11335508D02*
X6896372Y-11325984D01*
X7048753Y-11506936D02*
X7058277Y-11516460D01*
X7058277Y-11516460D02*
X7048753Y-11525984D01*
X7048753Y-11525984D02*
X7039229Y-11516460D01*
X7039229Y-11516460D02*
X7048753Y-11506936D01*
X7048753Y-11506936D02*
X7048753Y-11525984D01*
X7172562Y-11411698D02*
X7153515Y-11402174D01*
X7153515Y-11402174D02*
X7143991Y-11392650D01*
X7143991Y-11392650D02*
X7134467Y-11373603D01*
X7134467Y-11373603D02*
X7134467Y-11364079D01*
X7134467Y-11364079D02*
X7143991Y-11345031D01*
X7143991Y-11345031D02*
X7153515Y-11335508D01*
X7153515Y-11335508D02*
X7172562Y-11325984D01*
X7172562Y-11325984D02*
X7210658Y-11325984D01*
X7210658Y-11325984D02*
X7229705Y-11335508D01*
X7229705Y-11335508D02*
X7239229Y-11345031D01*
X7239229Y-11345031D02*
X7248753Y-11364079D01*
X7248753Y-11364079D02*
X7248753Y-11373603D01*
X7248753Y-11373603D02*
X7239229Y-11392650D01*
X7239229Y-11392650D02*
X7229705Y-11402174D01*
X7229705Y-11402174D02*
X7210658Y-11411698D01*
X7210658Y-11411698D02*
X7172562Y-11411698D01*
X7172562Y-11411698D02*
X7153515Y-11421222D01*
X7153515Y-11421222D02*
X7143991Y-11430746D01*
X7143991Y-11430746D02*
X7134467Y-11449793D01*
X7134467Y-11449793D02*
X7134467Y-11487888D01*
X7134467Y-11487888D02*
X7143991Y-11506936D01*
X7143991Y-11506936D02*
X7153515Y-11516460D01*
X7153515Y-11516460D02*
X7172562Y-11525984D01*
X7172562Y-11525984D02*
X7210658Y-11525984D01*
X7210658Y-11525984D02*
X7229705Y-11516460D01*
X7229705Y-11516460D02*
X7239229Y-11506936D01*
X7239229Y-11506936D02*
X7248753Y-11487888D01*
X7248753Y-11487888D02*
X7248753Y-11449793D01*
X7248753Y-11449793D02*
X7239229Y-11430746D01*
X7239229Y-11430746D02*
X7229705Y-11421222D01*
X7229705Y-11421222D02*
X7210658Y-11411698D01*
X7372562Y-11325984D02*
X7391610Y-11325984D01*
X7391610Y-11325984D02*
X7410658Y-11335508D01*
X7410658Y-11335508D02*
X7420182Y-11345031D01*
X7420182Y-11345031D02*
X7429705Y-11364079D01*
X7429705Y-11364079D02*
X7439229Y-11402174D01*
X7439229Y-11402174D02*
X7439229Y-11449793D01*
X7439229Y-11449793D02*
X7429705Y-11487888D01*
X7429705Y-11487888D02*
X7420182Y-11506936D01*
X7420182Y-11506936D02*
X7410658Y-11516460D01*
X7410658Y-11516460D02*
X7391610Y-11525984D01*
X7391610Y-11525984D02*
X7372562Y-11525984D01*
X7372562Y-11525984D02*
X7353515Y-11516460D01*
X7353515Y-11516460D02*
X7343991Y-11506936D01*
X7343991Y-11506936D02*
X7334467Y-11487888D01*
X7334467Y-11487888D02*
X7324943Y-11449793D01*
X7324943Y-11449793D02*
X7324943Y-11402174D01*
X7324943Y-11402174D02*
X7334467Y-11364079D01*
X7334467Y-11364079D02*
X7343991Y-11345031D01*
X7343991Y-11345031D02*
X7353515Y-11335508D01*
X7353515Y-11335508D02*
X7372562Y-11325984D01*
X7563039Y-11325984D02*
X7582086Y-11325984D01*
X7582086Y-11325984D02*
X7601134Y-11335508D01*
X7601134Y-11335508D02*
X7610658Y-11345031D01*
X7610658Y-11345031D02*
X7620182Y-11364079D01*
X7620182Y-11364079D02*
X7629705Y-11402174D01*
X7629705Y-11402174D02*
X7629705Y-11449793D01*
X7629705Y-11449793D02*
X7620182Y-11487888D01*
X7620182Y-11487888D02*
X7610658Y-11506936D01*
X7610658Y-11506936D02*
X7601134Y-11516460D01*
X7601134Y-11516460D02*
X7582086Y-11525984D01*
X7582086Y-11525984D02*
X7563039Y-11525984D01*
X7563039Y-11525984D02*
X7543991Y-11516460D01*
X7543991Y-11516460D02*
X7534467Y-11506936D01*
X7534467Y-11506936D02*
X7524943Y-11487888D01*
X7524943Y-11487888D02*
X7515420Y-11449793D01*
X7515420Y-11449793D02*
X7515420Y-11402174D01*
X7515420Y-11402174D02*
X7524943Y-11364079D01*
X7524943Y-11364079D02*
X7534467Y-11345031D01*
X7534467Y-11345031D02*
X7543991Y-11335508D01*
X7543991Y-11335508D02*
X7563039Y-11325984D01*
X7715420Y-11525984D02*
X7715420Y-11392650D01*
X7715420Y-11411698D02*
X7724943Y-11402174D01*
X7724943Y-11402174D02*
X7743991Y-11392650D01*
X7743991Y-11392650D02*
X7772563Y-11392650D01*
X7772563Y-11392650D02*
X7791610Y-11402174D01*
X7791610Y-11402174D02*
X7801134Y-11421222D01*
X7801134Y-11421222D02*
X7801134Y-11525984D01*
X7801134Y-11421222D02*
X7810658Y-11402174D01*
X7810658Y-11402174D02*
X7829705Y-11392650D01*
X7829705Y-11392650D02*
X7858277Y-11392650D01*
X7858277Y-11392650D02*
X7877324Y-11402174D01*
X7877324Y-11402174D02*
X7886848Y-11421222D01*
X7886848Y-11421222D02*
X7886848Y-11525984D01*
X7982086Y-11525984D02*
X7982086Y-11392650D01*
X7982086Y-11411698D02*
X7991610Y-11402174D01*
X7991610Y-11402174D02*
X8010658Y-11392650D01*
X8010658Y-11392650D02*
X8039229Y-11392650D01*
X8039229Y-11392650D02*
X8058277Y-11402174D01*
X8058277Y-11402174D02*
X8067801Y-11421222D01*
X8067801Y-11421222D02*
X8067801Y-11525984D01*
X8067801Y-11421222D02*
X8077324Y-11402174D01*
X8077324Y-11402174D02*
X8096372Y-11392650D01*
X8096372Y-11392650D02*
X8124943Y-11392650D01*
X8124943Y-11392650D02*
X8143991Y-11402174D01*
X8143991Y-11402174D02*
X8153515Y-11421222D01*
X8153515Y-11421222D02*
X8153515Y-11525984D01*
X8543991Y-11316460D02*
X8372563Y-11573603D01*
X8801134Y-11325984D02*
X8820182Y-11325984D01*
X8820182Y-11325984D02*
X8839229Y-11335508D01*
X8839229Y-11335508D02*
X8848753Y-11345031D01*
X8848753Y-11345031D02*
X8858277Y-11364079D01*
X8858277Y-11364079D02*
X8867801Y-11402174D01*
X8867801Y-11402174D02*
X8867801Y-11449793D01*
X8867801Y-11449793D02*
X8858277Y-11487888D01*
X8858277Y-11487888D02*
X8848753Y-11506936D01*
X8848753Y-11506936D02*
X8839229Y-11516460D01*
X8839229Y-11516460D02*
X8820182Y-11525984D01*
X8820182Y-11525984D02*
X8801134Y-11525984D01*
X8801134Y-11525984D02*
X8782087Y-11516460D01*
X8782087Y-11516460D02*
X8772563Y-11506936D01*
X8772563Y-11506936D02*
X8763039Y-11487888D01*
X8763039Y-11487888D02*
X8753515Y-11449793D01*
X8753515Y-11449793D02*
X8753515Y-11402174D01*
X8753515Y-11402174D02*
X8763039Y-11364079D01*
X8763039Y-11364079D02*
X8772563Y-11345031D01*
X8772563Y-11345031D02*
X8782087Y-11335508D01*
X8782087Y-11335508D02*
X8801134Y-11325984D01*
X8953515Y-11506936D02*
X8963039Y-11516460D01*
X8963039Y-11516460D02*
X8953515Y-11525984D01*
X8953515Y-11525984D02*
X8943991Y-11516460D01*
X8943991Y-11516460D02*
X8953515Y-11506936D01*
X8953515Y-11506936D02*
X8953515Y-11525984D01*
X9086848Y-11325984D02*
X9105896Y-11325984D01*
X9105896Y-11325984D02*
X9124944Y-11335508D01*
X9124944Y-11335508D02*
X9134468Y-11345031D01*
X9134468Y-11345031D02*
X9143991Y-11364079D01*
X9143991Y-11364079D02*
X9153515Y-11402174D01*
X9153515Y-11402174D02*
X9153515Y-11449793D01*
X9153515Y-11449793D02*
X9143991Y-11487888D01*
X9143991Y-11487888D02*
X9134468Y-11506936D01*
X9134468Y-11506936D02*
X9124944Y-11516460D01*
X9124944Y-11516460D02*
X9105896Y-11525984D01*
X9105896Y-11525984D02*
X9086848Y-11525984D01*
X9086848Y-11525984D02*
X9067801Y-11516460D01*
X9067801Y-11516460D02*
X9058277Y-11506936D01*
X9058277Y-11506936D02*
X9048753Y-11487888D01*
X9048753Y-11487888D02*
X9039229Y-11449793D01*
X9039229Y-11449793D02*
X9039229Y-11402174D01*
X9039229Y-11402174D02*
X9048753Y-11364079D01*
X9048753Y-11364079D02*
X9058277Y-11345031D01*
X9058277Y-11345031D02*
X9067801Y-11335508D01*
X9067801Y-11335508D02*
X9086848Y-11325984D01*
X9220182Y-11325984D02*
X9343991Y-11325984D01*
X9343991Y-11325984D02*
X9277325Y-11402174D01*
X9277325Y-11402174D02*
X9305896Y-11402174D01*
X9305896Y-11402174D02*
X9324944Y-11411698D01*
X9324944Y-11411698D02*
X9334468Y-11421222D01*
X9334468Y-11421222D02*
X9343991Y-11440269D01*
X9343991Y-11440269D02*
X9343991Y-11487888D01*
X9343991Y-11487888D02*
X9334468Y-11506936D01*
X9334468Y-11506936D02*
X9324944Y-11516460D01*
X9324944Y-11516460D02*
X9305896Y-11525984D01*
X9305896Y-11525984D02*
X9248753Y-11525984D01*
X9248753Y-11525984D02*
X9229706Y-11516460D01*
X9229706Y-11516460D02*
X9220182Y-11506936D01*
X9534468Y-11525984D02*
X9420182Y-11525984D01*
X9477325Y-11525984D02*
X9477325Y-11325984D01*
X9477325Y-11325984D02*
X9458277Y-11354555D01*
X9458277Y-11354555D02*
X9439229Y-11373603D01*
X9439229Y-11373603D02*
X9420182Y-11383127D01*
X9715420Y-11325984D02*
X9620182Y-11325984D01*
X9620182Y-11325984D02*
X9610658Y-11421222D01*
X9610658Y-11421222D02*
X9620182Y-11411698D01*
X9620182Y-11411698D02*
X9639229Y-11402174D01*
X9639229Y-11402174D02*
X9686849Y-11402174D01*
X9686849Y-11402174D02*
X9705896Y-11411698D01*
X9705896Y-11411698D02*
X9715420Y-11421222D01*
X9715420Y-11421222D02*
X9724944Y-11440269D01*
X9724944Y-11440269D02*
X9724944Y-11487888D01*
X9724944Y-11487888D02*
X9715420Y-11506936D01*
X9715420Y-11506936D02*
X9705896Y-11516460D01*
X9705896Y-11516460D02*
X9686849Y-11525984D01*
X9686849Y-11525984D02*
X9639229Y-11525984D01*
X9639229Y-11525984D02*
X9620182Y-11516460D01*
X9620182Y-11516460D02*
X9610658Y-11506936D01*
X9801134Y-11325984D02*
X9801134Y-11364079D01*
X9877325Y-11325984D02*
X9877325Y-11364079D01*
X10172563Y-11602174D02*
X10163039Y-11592650D01*
X10163039Y-11592650D02*
X10143991Y-11564079D01*
X10143991Y-11564079D02*
X10134468Y-11545031D01*
X10134468Y-11545031D02*
X10124944Y-11516460D01*
X10124944Y-11516460D02*
X10115420Y-11468841D01*
X10115420Y-11468841D02*
X10115420Y-11430746D01*
X10115420Y-11430746D02*
X10124944Y-11383127D01*
X10124944Y-11383127D02*
X10134468Y-11354555D01*
X10134468Y-11354555D02*
X10143991Y-11335508D01*
X10143991Y-11335508D02*
X10163039Y-11306936D01*
X10163039Y-11306936D02*
X10172563Y-11297412D01*
X10239230Y-11345031D02*
X10248753Y-11335508D01*
X10248753Y-11335508D02*
X10267801Y-11325984D01*
X10267801Y-11325984D02*
X10315420Y-11325984D01*
X10315420Y-11325984D02*
X10334468Y-11335508D01*
X10334468Y-11335508D02*
X10343991Y-11345031D01*
X10343991Y-11345031D02*
X10353515Y-11364079D01*
X10353515Y-11364079D02*
X10353515Y-11383127D01*
X10353515Y-11383127D02*
X10343991Y-11411698D01*
X10343991Y-11411698D02*
X10229706Y-11525984D01*
X10229706Y-11525984D02*
X10353515Y-11525984D01*
X10524944Y-11392650D02*
X10524944Y-11525984D01*
X10477325Y-11316460D02*
X10429706Y-11459317D01*
X10429706Y-11459317D02*
X10553515Y-11459317D01*
X10782087Y-11525984D02*
X10782087Y-11325984D01*
X10867801Y-11525984D02*
X10867801Y-11421222D01*
X10867801Y-11421222D02*
X10858277Y-11402174D01*
X10858277Y-11402174D02*
X10839230Y-11392650D01*
X10839230Y-11392650D02*
X10810658Y-11392650D01*
X10810658Y-11392650D02*
X10791611Y-11402174D01*
X10791611Y-11402174D02*
X10782087Y-11411698D01*
X10991611Y-11525984D02*
X10972563Y-11516460D01*
X10972563Y-11516460D02*
X10963039Y-11506936D01*
X10963039Y-11506936D02*
X10953515Y-11487888D01*
X10953515Y-11487888D02*
X10953515Y-11430746D01*
X10953515Y-11430746D02*
X10963039Y-11411698D01*
X10963039Y-11411698D02*
X10972563Y-11402174D01*
X10972563Y-11402174D02*
X10991611Y-11392650D01*
X10991611Y-11392650D02*
X11020182Y-11392650D01*
X11020182Y-11392650D02*
X11039230Y-11402174D01*
X11039230Y-11402174D02*
X11048753Y-11411698D01*
X11048753Y-11411698D02*
X11058277Y-11430746D01*
X11058277Y-11430746D02*
X11058277Y-11487888D01*
X11058277Y-11487888D02*
X11048753Y-11506936D01*
X11048753Y-11506936D02*
X11039230Y-11516460D01*
X11039230Y-11516460D02*
X11020182Y-11525984D01*
X11020182Y-11525984D02*
X10991611Y-11525984D01*
X11172563Y-11525984D02*
X11153515Y-11516460D01*
X11153515Y-11516460D02*
X11143992Y-11497412D01*
X11143992Y-11497412D02*
X11143992Y-11325984D01*
X11324944Y-11516460D02*
X11305896Y-11525984D01*
X11305896Y-11525984D02*
X11267801Y-11525984D01*
X11267801Y-11525984D02*
X11248753Y-11516460D01*
X11248753Y-11516460D02*
X11239230Y-11497412D01*
X11239230Y-11497412D02*
X11239230Y-11421222D01*
X11239230Y-11421222D02*
X11248753Y-11402174D01*
X11248753Y-11402174D02*
X11267801Y-11392650D01*
X11267801Y-11392650D02*
X11305896Y-11392650D01*
X11305896Y-11392650D02*
X11324944Y-11402174D01*
X11324944Y-11402174D02*
X11334468Y-11421222D01*
X11334468Y-11421222D02*
X11334468Y-11440269D01*
X11334468Y-11440269D02*
X11239230Y-11459317D01*
X11410658Y-11516460D02*
X11429706Y-11525984D01*
X11429706Y-11525984D02*
X11467801Y-11525984D01*
X11467801Y-11525984D02*
X11486849Y-11516460D01*
X11486849Y-11516460D02*
X11496372Y-11497412D01*
X11496372Y-11497412D02*
X11496372Y-11487888D01*
X11496372Y-11487888D02*
X11486849Y-11468841D01*
X11486849Y-11468841D02*
X11467801Y-11459317D01*
X11467801Y-11459317D02*
X11439230Y-11459317D01*
X11439230Y-11459317D02*
X11420182Y-11449793D01*
X11420182Y-11449793D02*
X11410658Y-11430746D01*
X11410658Y-11430746D02*
X11410658Y-11421222D01*
X11410658Y-11421222D02*
X11420182Y-11402174D01*
X11420182Y-11402174D02*
X11439230Y-11392650D01*
X11439230Y-11392650D02*
X11467801Y-11392650D01*
X11467801Y-11392650D02*
X11486849Y-11402174D01*
X11563039Y-11602174D02*
X11572563Y-11592650D01*
X11572563Y-11592650D02*
X11591611Y-11564079D01*
X11591611Y-11564079D02*
X11601134Y-11545031D01*
X11601134Y-11545031D02*
X11610658Y-11516460D01*
X11610658Y-11516460D02*
X11620182Y-11468841D01*
X11620182Y-11468841D02*
X11620182Y-11430746D01*
X11620182Y-11430746D02*
X11610658Y-11383127D01*
X11610658Y-11383127D02*
X11601134Y-11354555D01*
X11601134Y-11354555D02*
X11591611Y-11335508D01*
X11591611Y-11335508D02*
X11572563Y-11306936D01*
X11572563Y-11306936D02*
X11563039Y-11297412D01*
D12*
X6554000Y-11742000D02*
X6597500Y-11698500D01*
X6554000Y-11655000D01*
X6510500Y-11698500D01*
X6554000Y-11742000D01*
D11*
X6896372Y-11589984D02*
X6915420Y-11589984D01*
X6915420Y-11589984D02*
X6934467Y-11599508D01*
X6934467Y-11599508D02*
X6943991Y-11609031D01*
X6943991Y-11609031D02*
X6953515Y-11628079D01*
X6953515Y-11628079D02*
X6963039Y-11666174D01*
X6963039Y-11666174D02*
X6963039Y-11713793D01*
X6963039Y-11713793D02*
X6953515Y-11751888D01*
X6953515Y-11751888D02*
X6943991Y-11770936D01*
X6943991Y-11770936D02*
X6934467Y-11780460D01*
X6934467Y-11780460D02*
X6915420Y-11789984D01*
X6915420Y-11789984D02*
X6896372Y-11789984D01*
X6896372Y-11789984D02*
X6877324Y-11780460D01*
X6877324Y-11780460D02*
X6867801Y-11770936D01*
X6867801Y-11770936D02*
X6858277Y-11751888D01*
X6858277Y-11751888D02*
X6848753Y-11713793D01*
X6848753Y-11713793D02*
X6848753Y-11666174D01*
X6848753Y-11666174D02*
X6858277Y-11628079D01*
X6858277Y-11628079D02*
X6867801Y-11609031D01*
X6867801Y-11609031D02*
X6877324Y-11599508D01*
X6877324Y-11599508D02*
X6896372Y-11589984D01*
X7048753Y-11770936D02*
X7058277Y-11780460D01*
X7058277Y-11780460D02*
X7048753Y-11789984D01*
X7048753Y-11789984D02*
X7039229Y-11780460D01*
X7039229Y-11780460D02*
X7048753Y-11770936D01*
X7048753Y-11770936D02*
X7048753Y-11789984D01*
X7172562Y-11675698D02*
X7153515Y-11666174D01*
X7153515Y-11666174D02*
X7143991Y-11656650D01*
X7143991Y-11656650D02*
X7134467Y-11637603D01*
X7134467Y-11637603D02*
X7134467Y-11628079D01*
X7134467Y-11628079D02*
X7143991Y-11609031D01*
X7143991Y-11609031D02*
X7153515Y-11599508D01*
X7153515Y-11599508D02*
X7172562Y-11589984D01*
X7172562Y-11589984D02*
X7210658Y-11589984D01*
X7210658Y-11589984D02*
X7229705Y-11599508D01*
X7229705Y-11599508D02*
X7239229Y-11609031D01*
X7239229Y-11609031D02*
X7248753Y-11628079D01*
X7248753Y-11628079D02*
X7248753Y-11637603D01*
X7248753Y-11637603D02*
X7239229Y-11656650D01*
X7239229Y-11656650D02*
X7229705Y-11666174D01*
X7229705Y-11666174D02*
X7210658Y-11675698D01*
X7210658Y-11675698D02*
X7172562Y-11675698D01*
X7172562Y-11675698D02*
X7153515Y-11685222D01*
X7153515Y-11685222D02*
X7143991Y-11694746D01*
X7143991Y-11694746D02*
X7134467Y-11713793D01*
X7134467Y-11713793D02*
X7134467Y-11751888D01*
X7134467Y-11751888D02*
X7143991Y-11770936D01*
X7143991Y-11770936D02*
X7153515Y-11780460D01*
X7153515Y-11780460D02*
X7172562Y-11789984D01*
X7172562Y-11789984D02*
X7210658Y-11789984D01*
X7210658Y-11789984D02*
X7229705Y-11780460D01*
X7229705Y-11780460D02*
X7239229Y-11770936D01*
X7239229Y-11770936D02*
X7248753Y-11751888D01*
X7248753Y-11751888D02*
X7248753Y-11713793D01*
X7248753Y-11713793D02*
X7239229Y-11694746D01*
X7239229Y-11694746D02*
X7229705Y-11685222D01*
X7229705Y-11685222D02*
X7210658Y-11675698D01*
X7315420Y-11589984D02*
X7448753Y-11589984D01*
X7448753Y-11589984D02*
X7363039Y-11789984D01*
X7563039Y-11589984D02*
X7582086Y-11589984D01*
X7582086Y-11589984D02*
X7601134Y-11599508D01*
X7601134Y-11599508D02*
X7610658Y-11609031D01*
X7610658Y-11609031D02*
X7620182Y-11628079D01*
X7620182Y-11628079D02*
X7629705Y-11666174D01*
X7629705Y-11666174D02*
X7629705Y-11713793D01*
X7629705Y-11713793D02*
X7620182Y-11751888D01*
X7620182Y-11751888D02*
X7610658Y-11770936D01*
X7610658Y-11770936D02*
X7601134Y-11780460D01*
X7601134Y-11780460D02*
X7582086Y-11789984D01*
X7582086Y-11789984D02*
X7563039Y-11789984D01*
X7563039Y-11789984D02*
X7543991Y-11780460D01*
X7543991Y-11780460D02*
X7534467Y-11770936D01*
X7534467Y-11770936D02*
X7524943Y-11751888D01*
X7524943Y-11751888D02*
X7515420Y-11713793D01*
X7515420Y-11713793D02*
X7515420Y-11666174D01*
X7515420Y-11666174D02*
X7524943Y-11628079D01*
X7524943Y-11628079D02*
X7534467Y-11609031D01*
X7534467Y-11609031D02*
X7543991Y-11599508D01*
X7543991Y-11599508D02*
X7563039Y-11589984D01*
X7715420Y-11789984D02*
X7715420Y-11656650D01*
X7715420Y-11675698D02*
X7724943Y-11666174D01*
X7724943Y-11666174D02*
X7743991Y-11656650D01*
X7743991Y-11656650D02*
X7772563Y-11656650D01*
X7772563Y-11656650D02*
X7791610Y-11666174D01*
X7791610Y-11666174D02*
X7801134Y-11685222D01*
X7801134Y-11685222D02*
X7801134Y-11789984D01*
X7801134Y-11685222D02*
X7810658Y-11666174D01*
X7810658Y-11666174D02*
X7829705Y-11656650D01*
X7829705Y-11656650D02*
X7858277Y-11656650D01*
X7858277Y-11656650D02*
X7877324Y-11666174D01*
X7877324Y-11666174D02*
X7886848Y-11685222D01*
X7886848Y-11685222D02*
X7886848Y-11789984D01*
X7982086Y-11789984D02*
X7982086Y-11656650D01*
X7982086Y-11675698D02*
X7991610Y-11666174D01*
X7991610Y-11666174D02*
X8010658Y-11656650D01*
X8010658Y-11656650D02*
X8039229Y-11656650D01*
X8039229Y-11656650D02*
X8058277Y-11666174D01*
X8058277Y-11666174D02*
X8067801Y-11685222D01*
X8067801Y-11685222D02*
X8067801Y-11789984D01*
X8067801Y-11685222D02*
X8077324Y-11666174D01*
X8077324Y-11666174D02*
X8096372Y-11656650D01*
X8096372Y-11656650D02*
X8124943Y-11656650D01*
X8124943Y-11656650D02*
X8143991Y-11666174D01*
X8143991Y-11666174D02*
X8153515Y-11685222D01*
X8153515Y-11685222D02*
X8153515Y-11789984D01*
X8543991Y-11580460D02*
X8372563Y-11837603D01*
X8801134Y-11589984D02*
X8820182Y-11589984D01*
X8820182Y-11589984D02*
X8839229Y-11599508D01*
X8839229Y-11599508D02*
X8848753Y-11609031D01*
X8848753Y-11609031D02*
X8858277Y-11628079D01*
X8858277Y-11628079D02*
X8867801Y-11666174D01*
X8867801Y-11666174D02*
X8867801Y-11713793D01*
X8867801Y-11713793D02*
X8858277Y-11751888D01*
X8858277Y-11751888D02*
X8848753Y-11770936D01*
X8848753Y-11770936D02*
X8839229Y-11780460D01*
X8839229Y-11780460D02*
X8820182Y-11789984D01*
X8820182Y-11789984D02*
X8801134Y-11789984D01*
X8801134Y-11789984D02*
X8782087Y-11780460D01*
X8782087Y-11780460D02*
X8772563Y-11770936D01*
X8772563Y-11770936D02*
X8763039Y-11751888D01*
X8763039Y-11751888D02*
X8753515Y-11713793D01*
X8753515Y-11713793D02*
X8753515Y-11666174D01*
X8753515Y-11666174D02*
X8763039Y-11628079D01*
X8763039Y-11628079D02*
X8772563Y-11609031D01*
X8772563Y-11609031D02*
X8782087Y-11599508D01*
X8782087Y-11599508D02*
X8801134Y-11589984D01*
X8953515Y-11770936D02*
X8963039Y-11780460D01*
X8963039Y-11780460D02*
X8953515Y-11789984D01*
X8953515Y-11789984D02*
X8943991Y-11780460D01*
X8943991Y-11780460D02*
X8953515Y-11770936D01*
X8953515Y-11770936D02*
X8953515Y-11789984D01*
X9086848Y-11589984D02*
X9105896Y-11589984D01*
X9105896Y-11589984D02*
X9124944Y-11599508D01*
X9124944Y-11599508D02*
X9134468Y-11609031D01*
X9134468Y-11609031D02*
X9143991Y-11628079D01*
X9143991Y-11628079D02*
X9153515Y-11666174D01*
X9153515Y-11666174D02*
X9153515Y-11713793D01*
X9153515Y-11713793D02*
X9143991Y-11751888D01*
X9143991Y-11751888D02*
X9134468Y-11770936D01*
X9134468Y-11770936D02*
X9124944Y-11780460D01*
X9124944Y-11780460D02*
X9105896Y-11789984D01*
X9105896Y-11789984D02*
X9086848Y-11789984D01*
X9086848Y-11789984D02*
X9067801Y-11780460D01*
X9067801Y-11780460D02*
X9058277Y-11770936D01*
X9058277Y-11770936D02*
X9048753Y-11751888D01*
X9048753Y-11751888D02*
X9039229Y-11713793D01*
X9039229Y-11713793D02*
X9039229Y-11666174D01*
X9039229Y-11666174D02*
X9048753Y-11628079D01*
X9048753Y-11628079D02*
X9058277Y-11609031D01*
X9058277Y-11609031D02*
X9067801Y-11599508D01*
X9067801Y-11599508D02*
X9086848Y-11589984D01*
X9220182Y-11589984D02*
X9343991Y-11589984D01*
X9343991Y-11589984D02*
X9277325Y-11666174D01*
X9277325Y-11666174D02*
X9305896Y-11666174D01*
X9305896Y-11666174D02*
X9324944Y-11675698D01*
X9324944Y-11675698D02*
X9334468Y-11685222D01*
X9334468Y-11685222D02*
X9343991Y-11704269D01*
X9343991Y-11704269D02*
X9343991Y-11751888D01*
X9343991Y-11751888D02*
X9334468Y-11770936D01*
X9334468Y-11770936D02*
X9324944Y-11780460D01*
X9324944Y-11780460D02*
X9305896Y-11789984D01*
X9305896Y-11789984D02*
X9248753Y-11789984D01*
X9248753Y-11789984D02*
X9229706Y-11780460D01*
X9229706Y-11780460D02*
X9220182Y-11770936D01*
X9515420Y-11656650D02*
X9515420Y-11789984D01*
X9467801Y-11580460D02*
X9420182Y-11723317D01*
X9420182Y-11723317D02*
X9543991Y-11723317D01*
X9601134Y-11589984D02*
X9724944Y-11589984D01*
X9724944Y-11589984D02*
X9658277Y-11666174D01*
X9658277Y-11666174D02*
X9686849Y-11666174D01*
X9686849Y-11666174D02*
X9705896Y-11675698D01*
X9705896Y-11675698D02*
X9715420Y-11685222D01*
X9715420Y-11685222D02*
X9724944Y-11704269D01*
X9724944Y-11704269D02*
X9724944Y-11751888D01*
X9724944Y-11751888D02*
X9715420Y-11770936D01*
X9715420Y-11770936D02*
X9705896Y-11780460D01*
X9705896Y-11780460D02*
X9686849Y-11789984D01*
X9686849Y-11789984D02*
X9629706Y-11789984D01*
X9629706Y-11789984D02*
X9610658Y-11780460D01*
X9610658Y-11780460D02*
X9601134Y-11770936D01*
X9801134Y-11589984D02*
X9801134Y-11628079D01*
X9877325Y-11589984D02*
X9877325Y-11628079D01*
X10172563Y-11866174D02*
X10163039Y-11856650D01*
X10163039Y-11856650D02*
X10143991Y-11828079D01*
X10143991Y-11828079D02*
X10134468Y-11809031D01*
X10134468Y-11809031D02*
X10124944Y-11780460D01*
X10124944Y-11780460D02*
X10115420Y-11732841D01*
X10115420Y-11732841D02*
X10115420Y-11694746D01*
X10115420Y-11694746D02*
X10124944Y-11647127D01*
X10124944Y-11647127D02*
X10134468Y-11618555D01*
X10134468Y-11618555D02*
X10143991Y-11599508D01*
X10143991Y-11599508D02*
X10163039Y-11570936D01*
X10163039Y-11570936D02*
X10172563Y-11561412D01*
X10229706Y-11589984D02*
X10353515Y-11589984D01*
X10353515Y-11589984D02*
X10286849Y-11666174D01*
X10286849Y-11666174D02*
X10315420Y-11666174D01*
X10315420Y-11666174D02*
X10334468Y-11675698D01*
X10334468Y-11675698D02*
X10343991Y-11685222D01*
X10343991Y-11685222D02*
X10353515Y-11704269D01*
X10353515Y-11704269D02*
X10353515Y-11751888D01*
X10353515Y-11751888D02*
X10343991Y-11770936D01*
X10343991Y-11770936D02*
X10334468Y-11780460D01*
X10334468Y-11780460D02*
X10315420Y-11789984D01*
X10315420Y-11789984D02*
X10258277Y-11789984D01*
X10258277Y-11789984D02*
X10239230Y-11780460D01*
X10239230Y-11780460D02*
X10229706Y-11770936D01*
X10591611Y-11789984D02*
X10591611Y-11589984D01*
X10677325Y-11789984D02*
X10677325Y-11685222D01*
X10677325Y-11685222D02*
X10667801Y-11666174D01*
X10667801Y-11666174D02*
X10648753Y-11656650D01*
X10648753Y-11656650D02*
X10620182Y-11656650D01*
X10620182Y-11656650D02*
X10601134Y-11666174D01*
X10601134Y-11666174D02*
X10591611Y-11675698D01*
X10801134Y-11789984D02*
X10782087Y-11780460D01*
X10782087Y-11780460D02*
X10772563Y-11770936D01*
X10772563Y-11770936D02*
X10763039Y-11751888D01*
X10763039Y-11751888D02*
X10763039Y-11694746D01*
X10763039Y-11694746D02*
X10772563Y-11675698D01*
X10772563Y-11675698D02*
X10782087Y-11666174D01*
X10782087Y-11666174D02*
X10801134Y-11656650D01*
X10801134Y-11656650D02*
X10829706Y-11656650D01*
X10829706Y-11656650D02*
X10848753Y-11666174D01*
X10848753Y-11666174D02*
X10858277Y-11675698D01*
X10858277Y-11675698D02*
X10867801Y-11694746D01*
X10867801Y-11694746D02*
X10867801Y-11751888D01*
X10867801Y-11751888D02*
X10858277Y-11770936D01*
X10858277Y-11770936D02*
X10848753Y-11780460D01*
X10848753Y-11780460D02*
X10829706Y-11789984D01*
X10829706Y-11789984D02*
X10801134Y-11789984D01*
X10982087Y-11789984D02*
X10963039Y-11780460D01*
X10963039Y-11780460D02*
X10953515Y-11761412D01*
X10953515Y-11761412D02*
X10953515Y-11589984D01*
X11134468Y-11780460D02*
X11115420Y-11789984D01*
X11115420Y-11789984D02*
X11077325Y-11789984D01*
X11077325Y-11789984D02*
X11058277Y-11780460D01*
X11058277Y-11780460D02*
X11048753Y-11761412D01*
X11048753Y-11761412D02*
X11048753Y-11685222D01*
X11048753Y-11685222D02*
X11058277Y-11666174D01*
X11058277Y-11666174D02*
X11077325Y-11656650D01*
X11077325Y-11656650D02*
X11115420Y-11656650D01*
X11115420Y-11656650D02*
X11134468Y-11666174D01*
X11134468Y-11666174D02*
X11143992Y-11685222D01*
X11143992Y-11685222D02*
X11143992Y-11704269D01*
X11143992Y-11704269D02*
X11048753Y-11723317D01*
X11220182Y-11780460D02*
X11239230Y-11789984D01*
X11239230Y-11789984D02*
X11277325Y-11789984D01*
X11277325Y-11789984D02*
X11296372Y-11780460D01*
X11296372Y-11780460D02*
X11305896Y-11761412D01*
X11305896Y-11761412D02*
X11305896Y-11751888D01*
X11305896Y-11751888D02*
X11296372Y-11732841D01*
X11296372Y-11732841D02*
X11277325Y-11723317D01*
X11277325Y-11723317D02*
X11248753Y-11723317D01*
X11248753Y-11723317D02*
X11229706Y-11713793D01*
X11229706Y-11713793D02*
X11220182Y-11694746D01*
X11220182Y-11694746D02*
X11220182Y-11685222D01*
X11220182Y-11685222D02*
X11229706Y-11666174D01*
X11229706Y-11666174D02*
X11248753Y-11656650D01*
X11248753Y-11656650D02*
X11277325Y-11656650D01*
X11277325Y-11656650D02*
X11296372Y-11666174D01*
X11372563Y-11866174D02*
X11382087Y-11856650D01*
X11382087Y-11856650D02*
X11401134Y-11828079D01*
X11401134Y-11828079D02*
X11410658Y-11809031D01*
X11410658Y-11809031D02*
X11420182Y-11780460D01*
X11420182Y-11780460D02*
X11429706Y-11732841D01*
X11429706Y-11732841D02*
X11429706Y-11694746D01*
X11429706Y-11694746D02*
X11420182Y-11647127D01*
X11420182Y-11647127D02*
X11410658Y-11618555D01*
X11410658Y-11618555D02*
X11401134Y-11599508D01*
X11401134Y-11599508D02*
X11382087Y-11570936D01*
X11382087Y-11570936D02*
X11372563Y-11561412D01*
D12*
X6497500Y-11912500D02*
X6597500Y-12012500D01*
X6597500Y-11912500D02*
X6497500Y-12012500D01*
X6597500Y-11962500D02*
G75*
G02*
X6497500Y-11962500I-50000J0D01*
G01*
X6497500Y-11962500D02*
G75*
G02*
X6597500Y-11962500I50000J0D01*
G01*
D11*
X6963039Y-12053984D02*
X6848753Y-12053984D01*
X6905896Y-12053984D02*
X6905896Y-11853984D01*
X6905896Y-11853984D02*
X6886848Y-11882555D01*
X6886848Y-11882555D02*
X6867801Y-11901603D01*
X6867801Y-11901603D02*
X6848753Y-11911127D01*
X7048753Y-12034936D02*
X7058277Y-12044460D01*
X7058277Y-12044460D02*
X7048753Y-12053984D01*
X7048753Y-12053984D02*
X7039229Y-12044460D01*
X7039229Y-12044460D02*
X7048753Y-12034936D01*
X7048753Y-12034936D02*
X7048753Y-12053984D01*
X7182086Y-11853984D02*
X7201134Y-11853984D01*
X7201134Y-11853984D02*
X7220182Y-11863508D01*
X7220182Y-11863508D02*
X7229705Y-11873031D01*
X7229705Y-11873031D02*
X7239229Y-11892079D01*
X7239229Y-11892079D02*
X7248753Y-11930174D01*
X7248753Y-11930174D02*
X7248753Y-11977793D01*
X7248753Y-11977793D02*
X7239229Y-12015888D01*
X7239229Y-12015888D02*
X7229705Y-12034936D01*
X7229705Y-12034936D02*
X7220182Y-12044460D01*
X7220182Y-12044460D02*
X7201134Y-12053984D01*
X7201134Y-12053984D02*
X7182086Y-12053984D01*
X7182086Y-12053984D02*
X7163039Y-12044460D01*
X7163039Y-12044460D02*
X7153515Y-12034936D01*
X7153515Y-12034936D02*
X7143991Y-12015888D01*
X7143991Y-12015888D02*
X7134467Y-11977793D01*
X7134467Y-11977793D02*
X7134467Y-11930174D01*
X7134467Y-11930174D02*
X7143991Y-11892079D01*
X7143991Y-11892079D02*
X7153515Y-11873031D01*
X7153515Y-11873031D02*
X7163039Y-11863508D01*
X7163039Y-11863508D02*
X7182086Y-11853984D01*
X7372562Y-11853984D02*
X7391610Y-11853984D01*
X7391610Y-11853984D02*
X7410658Y-11863508D01*
X7410658Y-11863508D02*
X7420182Y-11873031D01*
X7420182Y-11873031D02*
X7429705Y-11892079D01*
X7429705Y-11892079D02*
X7439229Y-11930174D01*
X7439229Y-11930174D02*
X7439229Y-11977793D01*
X7439229Y-11977793D02*
X7429705Y-12015888D01*
X7429705Y-12015888D02*
X7420182Y-12034936D01*
X7420182Y-12034936D02*
X7410658Y-12044460D01*
X7410658Y-12044460D02*
X7391610Y-12053984D01*
X7391610Y-12053984D02*
X7372562Y-12053984D01*
X7372562Y-12053984D02*
X7353515Y-12044460D01*
X7353515Y-12044460D02*
X7343991Y-12034936D01*
X7343991Y-12034936D02*
X7334467Y-12015888D01*
X7334467Y-12015888D02*
X7324943Y-11977793D01*
X7324943Y-11977793D02*
X7324943Y-11930174D01*
X7324943Y-11930174D02*
X7334467Y-11892079D01*
X7334467Y-11892079D02*
X7343991Y-11873031D01*
X7343991Y-11873031D02*
X7353515Y-11863508D01*
X7353515Y-11863508D02*
X7372562Y-11853984D01*
X7563039Y-11853984D02*
X7582086Y-11853984D01*
X7582086Y-11853984D02*
X7601134Y-11863508D01*
X7601134Y-11863508D02*
X7610658Y-11873031D01*
X7610658Y-11873031D02*
X7620182Y-11892079D01*
X7620182Y-11892079D02*
X7629705Y-11930174D01*
X7629705Y-11930174D02*
X7629705Y-11977793D01*
X7629705Y-11977793D02*
X7620182Y-12015888D01*
X7620182Y-12015888D02*
X7610658Y-12034936D01*
X7610658Y-12034936D02*
X7601134Y-12044460D01*
X7601134Y-12044460D02*
X7582086Y-12053984D01*
X7582086Y-12053984D02*
X7563039Y-12053984D01*
X7563039Y-12053984D02*
X7543991Y-12044460D01*
X7543991Y-12044460D02*
X7534467Y-12034936D01*
X7534467Y-12034936D02*
X7524943Y-12015888D01*
X7524943Y-12015888D02*
X7515420Y-11977793D01*
X7515420Y-11977793D02*
X7515420Y-11930174D01*
X7515420Y-11930174D02*
X7524943Y-11892079D01*
X7524943Y-11892079D02*
X7534467Y-11873031D01*
X7534467Y-11873031D02*
X7543991Y-11863508D01*
X7543991Y-11863508D02*
X7563039Y-11853984D01*
X7715420Y-12053984D02*
X7715420Y-11920650D01*
X7715420Y-11939698D02*
X7724943Y-11930174D01*
X7724943Y-11930174D02*
X7743991Y-11920650D01*
X7743991Y-11920650D02*
X7772563Y-11920650D01*
X7772563Y-11920650D02*
X7791610Y-11930174D01*
X7791610Y-11930174D02*
X7801134Y-11949222D01*
X7801134Y-11949222D02*
X7801134Y-12053984D01*
X7801134Y-11949222D02*
X7810658Y-11930174D01*
X7810658Y-11930174D02*
X7829705Y-11920650D01*
X7829705Y-11920650D02*
X7858277Y-11920650D01*
X7858277Y-11920650D02*
X7877324Y-11930174D01*
X7877324Y-11930174D02*
X7886848Y-11949222D01*
X7886848Y-11949222D02*
X7886848Y-12053984D01*
X7982086Y-12053984D02*
X7982086Y-11920650D01*
X7982086Y-11939698D02*
X7991610Y-11930174D01*
X7991610Y-11930174D02*
X8010658Y-11920650D01*
X8010658Y-11920650D02*
X8039229Y-11920650D01*
X8039229Y-11920650D02*
X8058277Y-11930174D01*
X8058277Y-11930174D02*
X8067801Y-11949222D01*
X8067801Y-11949222D02*
X8067801Y-12053984D01*
X8067801Y-11949222D02*
X8077324Y-11930174D01*
X8077324Y-11930174D02*
X8096372Y-11920650D01*
X8096372Y-11920650D02*
X8124943Y-11920650D01*
X8124943Y-11920650D02*
X8143991Y-11930174D01*
X8143991Y-11930174D02*
X8153515Y-11949222D01*
X8153515Y-11949222D02*
X8153515Y-12053984D01*
X8543991Y-11844460D02*
X8372563Y-12101603D01*
X8801134Y-11853984D02*
X8820182Y-11853984D01*
X8820182Y-11853984D02*
X8839229Y-11863508D01*
X8839229Y-11863508D02*
X8848753Y-11873031D01*
X8848753Y-11873031D02*
X8858277Y-11892079D01*
X8858277Y-11892079D02*
X8867801Y-11930174D01*
X8867801Y-11930174D02*
X8867801Y-11977793D01*
X8867801Y-11977793D02*
X8858277Y-12015888D01*
X8858277Y-12015888D02*
X8848753Y-12034936D01*
X8848753Y-12034936D02*
X8839229Y-12044460D01*
X8839229Y-12044460D02*
X8820182Y-12053984D01*
X8820182Y-12053984D02*
X8801134Y-12053984D01*
X8801134Y-12053984D02*
X8782087Y-12044460D01*
X8782087Y-12044460D02*
X8772563Y-12034936D01*
X8772563Y-12034936D02*
X8763039Y-12015888D01*
X8763039Y-12015888D02*
X8753515Y-11977793D01*
X8753515Y-11977793D02*
X8753515Y-11930174D01*
X8753515Y-11930174D02*
X8763039Y-11892079D01*
X8763039Y-11892079D02*
X8772563Y-11873031D01*
X8772563Y-11873031D02*
X8782087Y-11863508D01*
X8782087Y-11863508D02*
X8801134Y-11853984D01*
X8953515Y-12034936D02*
X8963039Y-12044460D01*
X8963039Y-12044460D02*
X8953515Y-12053984D01*
X8953515Y-12053984D02*
X8943991Y-12044460D01*
X8943991Y-12044460D02*
X8953515Y-12034936D01*
X8953515Y-12034936D02*
X8953515Y-12053984D01*
X9086848Y-11853984D02*
X9105896Y-11853984D01*
X9105896Y-11853984D02*
X9124944Y-11863508D01*
X9124944Y-11863508D02*
X9134468Y-11873031D01*
X9134468Y-11873031D02*
X9143991Y-11892079D01*
X9143991Y-11892079D02*
X9153515Y-11930174D01*
X9153515Y-11930174D02*
X9153515Y-11977793D01*
X9153515Y-11977793D02*
X9143991Y-12015888D01*
X9143991Y-12015888D02*
X9134468Y-12034936D01*
X9134468Y-12034936D02*
X9124944Y-12044460D01*
X9124944Y-12044460D02*
X9105896Y-12053984D01*
X9105896Y-12053984D02*
X9086848Y-12053984D01*
X9086848Y-12053984D02*
X9067801Y-12044460D01*
X9067801Y-12044460D02*
X9058277Y-12034936D01*
X9058277Y-12034936D02*
X9048753Y-12015888D01*
X9048753Y-12015888D02*
X9039229Y-11977793D01*
X9039229Y-11977793D02*
X9039229Y-11930174D01*
X9039229Y-11930174D02*
X9048753Y-11892079D01*
X9048753Y-11892079D02*
X9058277Y-11873031D01*
X9058277Y-11873031D02*
X9067801Y-11863508D01*
X9067801Y-11863508D02*
X9086848Y-11853984D01*
X9220182Y-11853984D02*
X9343991Y-11853984D01*
X9343991Y-11853984D02*
X9277325Y-11930174D01*
X9277325Y-11930174D02*
X9305896Y-11930174D01*
X9305896Y-11930174D02*
X9324944Y-11939698D01*
X9324944Y-11939698D02*
X9334468Y-11949222D01*
X9334468Y-11949222D02*
X9343991Y-11968269D01*
X9343991Y-11968269D02*
X9343991Y-12015888D01*
X9343991Y-12015888D02*
X9334468Y-12034936D01*
X9334468Y-12034936D02*
X9324944Y-12044460D01*
X9324944Y-12044460D02*
X9305896Y-12053984D01*
X9305896Y-12053984D02*
X9248753Y-12053984D01*
X9248753Y-12053984D02*
X9229706Y-12044460D01*
X9229706Y-12044460D02*
X9220182Y-12034936D01*
X9439229Y-12053984D02*
X9477325Y-12053984D01*
X9477325Y-12053984D02*
X9496372Y-12044460D01*
X9496372Y-12044460D02*
X9505896Y-12034936D01*
X9505896Y-12034936D02*
X9524944Y-12006365D01*
X9524944Y-12006365D02*
X9534468Y-11968269D01*
X9534468Y-11968269D02*
X9534468Y-11892079D01*
X9534468Y-11892079D02*
X9524944Y-11873031D01*
X9524944Y-11873031D02*
X9515420Y-11863508D01*
X9515420Y-11863508D02*
X9496372Y-11853984D01*
X9496372Y-11853984D02*
X9458277Y-11853984D01*
X9458277Y-11853984D02*
X9439229Y-11863508D01*
X9439229Y-11863508D02*
X9429706Y-11873031D01*
X9429706Y-11873031D02*
X9420182Y-11892079D01*
X9420182Y-11892079D02*
X9420182Y-11939698D01*
X9420182Y-11939698D02*
X9429706Y-11958746D01*
X9429706Y-11958746D02*
X9439229Y-11968269D01*
X9439229Y-11968269D02*
X9458277Y-11977793D01*
X9458277Y-11977793D02*
X9496372Y-11977793D01*
X9496372Y-11977793D02*
X9515420Y-11968269D01*
X9515420Y-11968269D02*
X9524944Y-11958746D01*
X9524944Y-11958746D02*
X9534468Y-11939698D01*
X9705896Y-11920650D02*
X9705896Y-12053984D01*
X9658277Y-11844460D02*
X9610658Y-11987317D01*
X9610658Y-11987317D02*
X9734468Y-11987317D01*
X9801134Y-11853984D02*
X9801134Y-11892079D01*
X9877325Y-11853984D02*
X9877325Y-11892079D01*
X10172563Y-12130174D02*
X10163039Y-12120650D01*
X10163039Y-12120650D02*
X10143991Y-12092079D01*
X10143991Y-12092079D02*
X10134468Y-12073031D01*
X10134468Y-12073031D02*
X10124944Y-12044460D01*
X10124944Y-12044460D02*
X10115420Y-11996841D01*
X10115420Y-11996841D02*
X10115420Y-11958746D01*
X10115420Y-11958746D02*
X10124944Y-11911127D01*
X10124944Y-11911127D02*
X10134468Y-11882555D01*
X10134468Y-11882555D02*
X10143991Y-11863508D01*
X10143991Y-11863508D02*
X10163039Y-11834936D01*
X10163039Y-11834936D02*
X10172563Y-11825412D01*
X10229706Y-11853984D02*
X10353515Y-11853984D01*
X10353515Y-11853984D02*
X10286849Y-11930174D01*
X10286849Y-11930174D02*
X10315420Y-11930174D01*
X10315420Y-11930174D02*
X10334468Y-11939698D01*
X10334468Y-11939698D02*
X10343991Y-11949222D01*
X10343991Y-11949222D02*
X10353515Y-11968269D01*
X10353515Y-11968269D02*
X10353515Y-12015888D01*
X10353515Y-12015888D02*
X10343991Y-12034936D01*
X10343991Y-12034936D02*
X10334468Y-12044460D01*
X10334468Y-12044460D02*
X10315420Y-12053984D01*
X10315420Y-12053984D02*
X10258277Y-12053984D01*
X10258277Y-12053984D02*
X10239230Y-12044460D01*
X10239230Y-12044460D02*
X10229706Y-12034936D01*
X10448753Y-12053984D02*
X10486849Y-12053984D01*
X10486849Y-12053984D02*
X10505896Y-12044460D01*
X10505896Y-12044460D02*
X10515420Y-12034936D01*
X10515420Y-12034936D02*
X10534468Y-12006365D01*
X10534468Y-12006365D02*
X10543991Y-11968269D01*
X10543991Y-11968269D02*
X10543991Y-11892079D01*
X10543991Y-11892079D02*
X10534468Y-11873031D01*
X10534468Y-11873031D02*
X10524944Y-11863508D01*
X10524944Y-11863508D02*
X10505896Y-11853984D01*
X10505896Y-11853984D02*
X10467801Y-11853984D01*
X10467801Y-11853984D02*
X10448753Y-11863508D01*
X10448753Y-11863508D02*
X10439230Y-11873031D01*
X10439230Y-11873031D02*
X10429706Y-11892079D01*
X10429706Y-11892079D02*
X10429706Y-11939698D01*
X10429706Y-11939698D02*
X10439230Y-11958746D01*
X10439230Y-11958746D02*
X10448753Y-11968269D01*
X10448753Y-11968269D02*
X10467801Y-11977793D01*
X10467801Y-11977793D02*
X10505896Y-11977793D01*
X10505896Y-11977793D02*
X10524944Y-11968269D01*
X10524944Y-11968269D02*
X10534468Y-11958746D01*
X10534468Y-11958746D02*
X10543991Y-11939698D01*
X10782087Y-12053984D02*
X10782087Y-11853984D01*
X10867801Y-12053984D02*
X10867801Y-11949222D01*
X10867801Y-11949222D02*
X10858277Y-11930174D01*
X10858277Y-11930174D02*
X10839230Y-11920650D01*
X10839230Y-11920650D02*
X10810658Y-11920650D01*
X10810658Y-11920650D02*
X10791611Y-11930174D01*
X10791611Y-11930174D02*
X10782087Y-11939698D01*
X10991611Y-12053984D02*
X10972563Y-12044460D01*
X10972563Y-12044460D02*
X10963039Y-12034936D01*
X10963039Y-12034936D02*
X10953515Y-12015888D01*
X10953515Y-12015888D02*
X10953515Y-11958746D01*
X10953515Y-11958746D02*
X10963039Y-11939698D01*
X10963039Y-11939698D02*
X10972563Y-11930174D01*
X10972563Y-11930174D02*
X10991611Y-11920650D01*
X10991611Y-11920650D02*
X11020182Y-11920650D01*
X11020182Y-11920650D02*
X11039230Y-11930174D01*
X11039230Y-11930174D02*
X11048753Y-11939698D01*
X11048753Y-11939698D02*
X11058277Y-11958746D01*
X11058277Y-11958746D02*
X11058277Y-12015888D01*
X11058277Y-12015888D02*
X11048753Y-12034936D01*
X11048753Y-12034936D02*
X11039230Y-12044460D01*
X11039230Y-12044460D02*
X11020182Y-12053984D01*
X11020182Y-12053984D02*
X10991611Y-12053984D01*
X11172563Y-12053984D02*
X11153515Y-12044460D01*
X11153515Y-12044460D02*
X11143992Y-12025412D01*
X11143992Y-12025412D02*
X11143992Y-11853984D01*
X11324944Y-12044460D02*
X11305896Y-12053984D01*
X11305896Y-12053984D02*
X11267801Y-12053984D01*
X11267801Y-12053984D02*
X11248753Y-12044460D01*
X11248753Y-12044460D02*
X11239230Y-12025412D01*
X11239230Y-12025412D02*
X11239230Y-11949222D01*
X11239230Y-11949222D02*
X11248753Y-11930174D01*
X11248753Y-11930174D02*
X11267801Y-11920650D01*
X11267801Y-11920650D02*
X11305896Y-11920650D01*
X11305896Y-11920650D02*
X11324944Y-11930174D01*
X11324944Y-11930174D02*
X11334468Y-11949222D01*
X11334468Y-11949222D02*
X11334468Y-11968269D01*
X11334468Y-11968269D02*
X11239230Y-11987317D01*
X11410658Y-12044460D02*
X11429706Y-12053984D01*
X11429706Y-12053984D02*
X11467801Y-12053984D01*
X11467801Y-12053984D02*
X11486849Y-12044460D01*
X11486849Y-12044460D02*
X11496372Y-12025412D01*
X11496372Y-12025412D02*
X11496372Y-12015888D01*
X11496372Y-12015888D02*
X11486849Y-11996841D01*
X11486849Y-11996841D02*
X11467801Y-11987317D01*
X11467801Y-11987317D02*
X11439230Y-11987317D01*
X11439230Y-11987317D02*
X11420182Y-11977793D01*
X11420182Y-11977793D02*
X11410658Y-11958746D01*
X11410658Y-11958746D02*
X11410658Y-11949222D01*
X11410658Y-11949222D02*
X11420182Y-11930174D01*
X11420182Y-11930174D02*
X11439230Y-11920650D01*
X11439230Y-11920650D02*
X11467801Y-11920650D01*
X11467801Y-11920650D02*
X11486849Y-11930174D01*
X11734468Y-11977793D02*
X11886849Y-11977793D01*
X11810658Y-12053984D02*
X11810658Y-11901603D01*
X12115420Y-11853984D02*
X12239230Y-11853984D01*
X12239230Y-11853984D02*
X12172563Y-11930174D01*
X12172563Y-11930174D02*
X12201134Y-11930174D01*
X12201134Y-11930174D02*
X12220182Y-11939698D01*
X12220182Y-11939698D02*
X12229706Y-11949222D01*
X12229706Y-11949222D02*
X12239230Y-11968269D01*
X12239230Y-11968269D02*
X12239230Y-12015888D01*
X12239230Y-12015888D02*
X12229706Y-12034936D01*
X12229706Y-12034936D02*
X12220182Y-12044460D01*
X12220182Y-12044460D02*
X12201134Y-12053984D01*
X12201134Y-12053984D02*
X12143992Y-12053984D01*
X12143992Y-12053984D02*
X12124944Y-12044460D01*
X12124944Y-12044460D02*
X12115420Y-12034936D01*
X12467801Y-12044460D02*
X12486849Y-12053984D01*
X12486849Y-12053984D02*
X12524944Y-12053984D01*
X12524944Y-12053984D02*
X12543992Y-12044460D01*
X12543992Y-12044460D02*
X12553515Y-12025412D01*
X12553515Y-12025412D02*
X12553515Y-12015888D01*
X12553515Y-12015888D02*
X12543992Y-11996841D01*
X12543992Y-11996841D02*
X12524944Y-11987317D01*
X12524944Y-11987317D02*
X12496373Y-11987317D01*
X12496373Y-11987317D02*
X12477325Y-11977793D01*
X12477325Y-11977793D02*
X12467801Y-11958746D01*
X12467801Y-11958746D02*
X12467801Y-11949222D01*
X12467801Y-11949222D02*
X12477325Y-11930174D01*
X12477325Y-11930174D02*
X12496373Y-11920650D01*
X12496373Y-11920650D02*
X12524944Y-11920650D01*
X12524944Y-11920650D02*
X12543992Y-11930174D01*
X12667801Y-12053984D02*
X12648754Y-12044460D01*
X12648754Y-12044460D02*
X12639230Y-12025412D01*
X12639230Y-12025412D02*
X12639230Y-11853984D01*
X12772563Y-12053984D02*
X12753515Y-12044460D01*
X12753515Y-12044460D02*
X12743992Y-12034936D01*
X12743992Y-12034936D02*
X12734468Y-12015888D01*
X12734468Y-12015888D02*
X12734468Y-11958746D01*
X12734468Y-11958746D02*
X12743992Y-11939698D01*
X12743992Y-11939698D02*
X12753515Y-11930174D01*
X12753515Y-11930174D02*
X12772563Y-11920650D01*
X12772563Y-11920650D02*
X12801135Y-11920650D01*
X12801135Y-11920650D02*
X12820182Y-11930174D01*
X12820182Y-11930174D02*
X12829706Y-11939698D01*
X12829706Y-11939698D02*
X12839230Y-11958746D01*
X12839230Y-11958746D02*
X12839230Y-12015888D01*
X12839230Y-12015888D02*
X12829706Y-12034936D01*
X12829706Y-12034936D02*
X12820182Y-12044460D01*
X12820182Y-12044460D02*
X12801135Y-12053984D01*
X12801135Y-12053984D02*
X12772563Y-12053984D01*
X12896373Y-11920650D02*
X12972563Y-11920650D01*
X12924944Y-11853984D02*
X12924944Y-12025412D01*
X12924944Y-12025412D02*
X12934468Y-12044460D01*
X12934468Y-12044460D02*
X12953515Y-12053984D01*
X12953515Y-12053984D02*
X12972563Y-12053984D01*
X13029706Y-12044460D02*
X13048754Y-12053984D01*
X13048754Y-12053984D02*
X13086849Y-12053984D01*
X13086849Y-12053984D02*
X13105896Y-12044460D01*
X13105896Y-12044460D02*
X13115420Y-12025412D01*
X13115420Y-12025412D02*
X13115420Y-12015888D01*
X13115420Y-12015888D02*
X13105896Y-11996841D01*
X13105896Y-11996841D02*
X13086849Y-11987317D01*
X13086849Y-11987317D02*
X13058277Y-11987317D01*
X13058277Y-11987317D02*
X13039230Y-11977793D01*
X13039230Y-11977793D02*
X13029706Y-11958746D01*
X13029706Y-11958746D02*
X13029706Y-11949222D01*
X13029706Y-11949222D02*
X13039230Y-11930174D01*
X13039230Y-11930174D02*
X13058277Y-11920650D01*
X13058277Y-11920650D02*
X13086849Y-11920650D01*
X13086849Y-11920650D02*
X13105896Y-11930174D01*
X13182087Y-12130174D02*
X13191611Y-12120650D01*
X13191611Y-12120650D02*
X13210658Y-12092079D01*
X13210658Y-12092079D02*
X13220182Y-12073031D01*
X13220182Y-12073031D02*
X13229706Y-12044460D01*
X13229706Y-12044460D02*
X13239230Y-11996841D01*
X13239230Y-11996841D02*
X13239230Y-11958746D01*
X13239230Y-11958746D02*
X13229706Y-11911127D01*
X13229706Y-11911127D02*
X13220182Y-11882555D01*
X13220182Y-11882555D02*
X13210658Y-11863508D01*
X13210658Y-11863508D02*
X13191611Y-11834936D01*
X13191611Y-11834936D02*
X13182087Y-11825412D01*
D13*
X6488500Y-12172000D02*
X6597500Y-12281000D01*
X6597500Y-12172000D02*
X6488500Y-12281000D01*
X6543000Y-12172000D02*
X6543000Y-12281000D01*
X6488500Y-12226500D02*
X6597500Y-12226500D01*
D11*
X6963039Y-12317984D02*
X6848753Y-12317984D01*
X6905896Y-12317984D02*
X6905896Y-12117984D01*
X6905896Y-12117984D02*
X6886848Y-12146555D01*
X6886848Y-12146555D02*
X6867801Y-12165603D01*
X6867801Y-12165603D02*
X6848753Y-12175127D01*
X7048753Y-12298936D02*
X7058277Y-12308460D01*
X7058277Y-12308460D02*
X7048753Y-12317984D01*
X7048753Y-12317984D02*
X7039229Y-12308460D01*
X7039229Y-12308460D02*
X7048753Y-12298936D01*
X7048753Y-12298936D02*
X7048753Y-12317984D01*
X7182086Y-12117984D02*
X7201134Y-12117984D01*
X7201134Y-12117984D02*
X7220182Y-12127508D01*
X7220182Y-12127508D02*
X7229705Y-12137031D01*
X7229705Y-12137031D02*
X7239229Y-12156079D01*
X7239229Y-12156079D02*
X7248753Y-12194174D01*
X7248753Y-12194174D02*
X7248753Y-12241793D01*
X7248753Y-12241793D02*
X7239229Y-12279888D01*
X7239229Y-12279888D02*
X7229705Y-12298936D01*
X7229705Y-12298936D02*
X7220182Y-12308460D01*
X7220182Y-12308460D02*
X7201134Y-12317984D01*
X7201134Y-12317984D02*
X7182086Y-12317984D01*
X7182086Y-12317984D02*
X7163039Y-12308460D01*
X7163039Y-12308460D02*
X7153515Y-12298936D01*
X7153515Y-12298936D02*
X7143991Y-12279888D01*
X7143991Y-12279888D02*
X7134467Y-12241793D01*
X7134467Y-12241793D02*
X7134467Y-12194174D01*
X7134467Y-12194174D02*
X7143991Y-12156079D01*
X7143991Y-12156079D02*
X7153515Y-12137031D01*
X7153515Y-12137031D02*
X7163039Y-12127508D01*
X7163039Y-12127508D02*
X7182086Y-12117984D01*
X7343991Y-12317984D02*
X7382086Y-12317984D01*
X7382086Y-12317984D02*
X7401134Y-12308460D01*
X7401134Y-12308460D02*
X7410658Y-12298936D01*
X7410658Y-12298936D02*
X7429705Y-12270365D01*
X7429705Y-12270365D02*
X7439229Y-12232269D01*
X7439229Y-12232269D02*
X7439229Y-12156079D01*
X7439229Y-12156079D02*
X7429705Y-12137031D01*
X7429705Y-12137031D02*
X7420182Y-12127508D01*
X7420182Y-12127508D02*
X7401134Y-12117984D01*
X7401134Y-12117984D02*
X7363039Y-12117984D01*
X7363039Y-12117984D02*
X7343991Y-12127508D01*
X7343991Y-12127508D02*
X7334467Y-12137031D01*
X7334467Y-12137031D02*
X7324943Y-12156079D01*
X7324943Y-12156079D02*
X7324943Y-12203698D01*
X7324943Y-12203698D02*
X7334467Y-12222746D01*
X7334467Y-12222746D02*
X7343991Y-12232269D01*
X7343991Y-12232269D02*
X7363039Y-12241793D01*
X7363039Y-12241793D02*
X7401134Y-12241793D01*
X7401134Y-12241793D02*
X7420182Y-12232269D01*
X7420182Y-12232269D02*
X7429705Y-12222746D01*
X7429705Y-12222746D02*
X7439229Y-12203698D01*
X7563039Y-12117984D02*
X7582086Y-12117984D01*
X7582086Y-12117984D02*
X7601134Y-12127508D01*
X7601134Y-12127508D02*
X7610658Y-12137031D01*
X7610658Y-12137031D02*
X7620182Y-12156079D01*
X7620182Y-12156079D02*
X7629705Y-12194174D01*
X7629705Y-12194174D02*
X7629705Y-12241793D01*
X7629705Y-12241793D02*
X7620182Y-12279888D01*
X7620182Y-12279888D02*
X7610658Y-12298936D01*
X7610658Y-12298936D02*
X7601134Y-12308460D01*
X7601134Y-12308460D02*
X7582086Y-12317984D01*
X7582086Y-12317984D02*
X7563039Y-12317984D01*
X7563039Y-12317984D02*
X7543991Y-12308460D01*
X7543991Y-12308460D02*
X7534467Y-12298936D01*
X7534467Y-12298936D02*
X7524943Y-12279888D01*
X7524943Y-12279888D02*
X7515420Y-12241793D01*
X7515420Y-12241793D02*
X7515420Y-12194174D01*
X7515420Y-12194174D02*
X7524943Y-12156079D01*
X7524943Y-12156079D02*
X7534467Y-12137031D01*
X7534467Y-12137031D02*
X7543991Y-12127508D01*
X7543991Y-12127508D02*
X7563039Y-12117984D01*
X7715420Y-12317984D02*
X7715420Y-12184650D01*
X7715420Y-12203698D02*
X7724943Y-12194174D01*
X7724943Y-12194174D02*
X7743991Y-12184650D01*
X7743991Y-12184650D02*
X7772563Y-12184650D01*
X7772563Y-12184650D02*
X7791610Y-12194174D01*
X7791610Y-12194174D02*
X7801134Y-12213222D01*
X7801134Y-12213222D02*
X7801134Y-12317984D01*
X7801134Y-12213222D02*
X7810658Y-12194174D01*
X7810658Y-12194174D02*
X7829705Y-12184650D01*
X7829705Y-12184650D02*
X7858277Y-12184650D01*
X7858277Y-12184650D02*
X7877324Y-12194174D01*
X7877324Y-12194174D02*
X7886848Y-12213222D01*
X7886848Y-12213222D02*
X7886848Y-12317984D01*
X7982086Y-12317984D02*
X7982086Y-12184650D01*
X7982086Y-12203698D02*
X7991610Y-12194174D01*
X7991610Y-12194174D02*
X8010658Y-12184650D01*
X8010658Y-12184650D02*
X8039229Y-12184650D01*
X8039229Y-12184650D02*
X8058277Y-12194174D01*
X8058277Y-12194174D02*
X8067801Y-12213222D01*
X8067801Y-12213222D02*
X8067801Y-12317984D01*
X8067801Y-12213222D02*
X8077324Y-12194174D01*
X8077324Y-12194174D02*
X8096372Y-12184650D01*
X8096372Y-12184650D02*
X8124943Y-12184650D01*
X8124943Y-12184650D02*
X8143991Y-12194174D01*
X8143991Y-12194174D02*
X8153515Y-12213222D01*
X8153515Y-12213222D02*
X8153515Y-12317984D01*
X8543991Y-12108460D02*
X8372563Y-12365603D01*
X8801134Y-12117984D02*
X8820182Y-12117984D01*
X8820182Y-12117984D02*
X8839229Y-12127508D01*
X8839229Y-12127508D02*
X8848753Y-12137031D01*
X8848753Y-12137031D02*
X8858277Y-12156079D01*
X8858277Y-12156079D02*
X8867801Y-12194174D01*
X8867801Y-12194174D02*
X8867801Y-12241793D01*
X8867801Y-12241793D02*
X8858277Y-12279888D01*
X8858277Y-12279888D02*
X8848753Y-12298936D01*
X8848753Y-12298936D02*
X8839229Y-12308460D01*
X8839229Y-12308460D02*
X8820182Y-12317984D01*
X8820182Y-12317984D02*
X8801134Y-12317984D01*
X8801134Y-12317984D02*
X8782087Y-12308460D01*
X8782087Y-12308460D02*
X8772563Y-12298936D01*
X8772563Y-12298936D02*
X8763039Y-12279888D01*
X8763039Y-12279888D02*
X8753515Y-12241793D01*
X8753515Y-12241793D02*
X8753515Y-12194174D01*
X8753515Y-12194174D02*
X8763039Y-12156079D01*
X8763039Y-12156079D02*
X8772563Y-12137031D01*
X8772563Y-12137031D02*
X8782087Y-12127508D01*
X8782087Y-12127508D02*
X8801134Y-12117984D01*
X8953515Y-12298936D02*
X8963039Y-12308460D01*
X8963039Y-12308460D02*
X8953515Y-12317984D01*
X8953515Y-12317984D02*
X8943991Y-12308460D01*
X8943991Y-12308460D02*
X8953515Y-12298936D01*
X8953515Y-12298936D02*
X8953515Y-12317984D01*
X9086848Y-12117984D02*
X9105896Y-12117984D01*
X9105896Y-12117984D02*
X9124944Y-12127508D01*
X9124944Y-12127508D02*
X9134468Y-12137031D01*
X9134468Y-12137031D02*
X9143991Y-12156079D01*
X9143991Y-12156079D02*
X9153515Y-12194174D01*
X9153515Y-12194174D02*
X9153515Y-12241793D01*
X9153515Y-12241793D02*
X9143991Y-12279888D01*
X9143991Y-12279888D02*
X9134468Y-12298936D01*
X9134468Y-12298936D02*
X9124944Y-12308460D01*
X9124944Y-12308460D02*
X9105896Y-12317984D01*
X9105896Y-12317984D02*
X9086848Y-12317984D01*
X9086848Y-12317984D02*
X9067801Y-12308460D01*
X9067801Y-12308460D02*
X9058277Y-12298936D01*
X9058277Y-12298936D02*
X9048753Y-12279888D01*
X9048753Y-12279888D02*
X9039229Y-12241793D01*
X9039229Y-12241793D02*
X9039229Y-12194174D01*
X9039229Y-12194174D02*
X9048753Y-12156079D01*
X9048753Y-12156079D02*
X9058277Y-12137031D01*
X9058277Y-12137031D02*
X9067801Y-12127508D01*
X9067801Y-12127508D02*
X9086848Y-12117984D01*
X9324944Y-12184650D02*
X9324944Y-12317984D01*
X9277325Y-12108460D02*
X9229706Y-12251317D01*
X9229706Y-12251317D02*
X9353515Y-12251317D01*
X9420182Y-12137031D02*
X9429706Y-12127508D01*
X9429706Y-12127508D02*
X9448753Y-12117984D01*
X9448753Y-12117984D02*
X9496372Y-12117984D01*
X9496372Y-12117984D02*
X9515420Y-12127508D01*
X9515420Y-12127508D02*
X9524944Y-12137031D01*
X9524944Y-12137031D02*
X9534468Y-12156079D01*
X9534468Y-12156079D02*
X9534468Y-12175127D01*
X9534468Y-12175127D02*
X9524944Y-12203698D01*
X9524944Y-12203698D02*
X9410658Y-12317984D01*
X9410658Y-12317984D02*
X9534468Y-12317984D01*
X9629706Y-12317984D02*
X9667801Y-12317984D01*
X9667801Y-12317984D02*
X9686849Y-12308460D01*
X9686849Y-12308460D02*
X9696372Y-12298936D01*
X9696372Y-12298936D02*
X9715420Y-12270365D01*
X9715420Y-12270365D02*
X9724944Y-12232269D01*
X9724944Y-12232269D02*
X9724944Y-12156079D01*
X9724944Y-12156079D02*
X9715420Y-12137031D01*
X9715420Y-12137031D02*
X9705896Y-12127508D01*
X9705896Y-12127508D02*
X9686849Y-12117984D01*
X9686849Y-12117984D02*
X9648753Y-12117984D01*
X9648753Y-12117984D02*
X9629706Y-12127508D01*
X9629706Y-12127508D02*
X9620182Y-12137031D01*
X9620182Y-12137031D02*
X9610658Y-12156079D01*
X9610658Y-12156079D02*
X9610658Y-12203698D01*
X9610658Y-12203698D02*
X9620182Y-12222746D01*
X9620182Y-12222746D02*
X9629706Y-12232269D01*
X9629706Y-12232269D02*
X9648753Y-12241793D01*
X9648753Y-12241793D02*
X9686849Y-12241793D01*
X9686849Y-12241793D02*
X9705896Y-12232269D01*
X9705896Y-12232269D02*
X9715420Y-12222746D01*
X9715420Y-12222746D02*
X9724944Y-12203698D01*
X9801134Y-12117984D02*
X9801134Y-12156079D01*
X9877325Y-12117984D02*
X9877325Y-12156079D01*
X10172563Y-12394174D02*
X10163039Y-12384650D01*
X10163039Y-12384650D02*
X10143991Y-12356079D01*
X10143991Y-12356079D02*
X10134468Y-12337031D01*
X10134468Y-12337031D02*
X10124944Y-12308460D01*
X10124944Y-12308460D02*
X10115420Y-12260841D01*
X10115420Y-12260841D02*
X10115420Y-12222746D01*
X10115420Y-12222746D02*
X10124944Y-12175127D01*
X10124944Y-12175127D02*
X10134468Y-12146555D01*
X10134468Y-12146555D02*
X10143991Y-12127508D01*
X10143991Y-12127508D02*
X10163039Y-12098936D01*
X10163039Y-12098936D02*
X10172563Y-12089412D01*
X10343991Y-12117984D02*
X10248753Y-12117984D01*
X10248753Y-12117984D02*
X10239230Y-12213222D01*
X10239230Y-12213222D02*
X10248753Y-12203698D01*
X10248753Y-12203698D02*
X10267801Y-12194174D01*
X10267801Y-12194174D02*
X10315420Y-12194174D01*
X10315420Y-12194174D02*
X10334468Y-12203698D01*
X10334468Y-12203698D02*
X10343991Y-12213222D01*
X10343991Y-12213222D02*
X10353515Y-12232269D01*
X10353515Y-12232269D02*
X10353515Y-12279888D01*
X10353515Y-12279888D02*
X10343991Y-12298936D01*
X10343991Y-12298936D02*
X10334468Y-12308460D01*
X10334468Y-12308460D02*
X10315420Y-12317984D01*
X10315420Y-12317984D02*
X10267801Y-12317984D01*
X10267801Y-12317984D02*
X10248753Y-12308460D01*
X10248753Y-12308460D02*
X10239230Y-12298936D01*
X10591611Y-12317984D02*
X10591611Y-12117984D01*
X10677325Y-12317984D02*
X10677325Y-12213222D01*
X10677325Y-12213222D02*
X10667801Y-12194174D01*
X10667801Y-12194174D02*
X10648753Y-12184650D01*
X10648753Y-12184650D02*
X10620182Y-12184650D01*
X10620182Y-12184650D02*
X10601134Y-12194174D01*
X10601134Y-12194174D02*
X10591611Y-12203698D01*
X10801134Y-12317984D02*
X10782087Y-12308460D01*
X10782087Y-12308460D02*
X10772563Y-12298936D01*
X10772563Y-12298936D02*
X10763039Y-12279888D01*
X10763039Y-12279888D02*
X10763039Y-12222746D01*
X10763039Y-12222746D02*
X10772563Y-12203698D01*
X10772563Y-12203698D02*
X10782087Y-12194174D01*
X10782087Y-12194174D02*
X10801134Y-12184650D01*
X10801134Y-12184650D02*
X10829706Y-12184650D01*
X10829706Y-12184650D02*
X10848753Y-12194174D01*
X10848753Y-12194174D02*
X10858277Y-12203698D01*
X10858277Y-12203698D02*
X10867801Y-12222746D01*
X10867801Y-12222746D02*
X10867801Y-12279888D01*
X10867801Y-12279888D02*
X10858277Y-12298936D01*
X10858277Y-12298936D02*
X10848753Y-12308460D01*
X10848753Y-12308460D02*
X10829706Y-12317984D01*
X10829706Y-12317984D02*
X10801134Y-12317984D01*
X10982087Y-12317984D02*
X10963039Y-12308460D01*
X10963039Y-12308460D02*
X10953515Y-12289412D01*
X10953515Y-12289412D02*
X10953515Y-12117984D01*
X11134468Y-12308460D02*
X11115420Y-12317984D01*
X11115420Y-12317984D02*
X11077325Y-12317984D01*
X11077325Y-12317984D02*
X11058277Y-12308460D01*
X11058277Y-12308460D02*
X11048753Y-12289412D01*
X11048753Y-12289412D02*
X11048753Y-12213222D01*
X11048753Y-12213222D02*
X11058277Y-12194174D01*
X11058277Y-12194174D02*
X11077325Y-12184650D01*
X11077325Y-12184650D02*
X11115420Y-12184650D01*
X11115420Y-12184650D02*
X11134468Y-12194174D01*
X11134468Y-12194174D02*
X11143992Y-12213222D01*
X11143992Y-12213222D02*
X11143992Y-12232269D01*
X11143992Y-12232269D02*
X11048753Y-12251317D01*
X11220182Y-12308460D02*
X11239230Y-12317984D01*
X11239230Y-12317984D02*
X11277325Y-12317984D01*
X11277325Y-12317984D02*
X11296372Y-12308460D01*
X11296372Y-12308460D02*
X11305896Y-12289412D01*
X11305896Y-12289412D02*
X11305896Y-12279888D01*
X11305896Y-12279888D02*
X11296372Y-12260841D01*
X11296372Y-12260841D02*
X11277325Y-12251317D01*
X11277325Y-12251317D02*
X11248753Y-12251317D01*
X11248753Y-12251317D02*
X11229706Y-12241793D01*
X11229706Y-12241793D02*
X11220182Y-12222746D01*
X11220182Y-12222746D02*
X11220182Y-12213222D01*
X11220182Y-12213222D02*
X11229706Y-12194174D01*
X11229706Y-12194174D02*
X11248753Y-12184650D01*
X11248753Y-12184650D02*
X11277325Y-12184650D01*
X11277325Y-12184650D02*
X11296372Y-12194174D01*
X11372563Y-12394174D02*
X11382087Y-12384650D01*
X11382087Y-12384650D02*
X11401134Y-12356079D01*
X11401134Y-12356079D02*
X11410658Y-12337031D01*
X11410658Y-12337031D02*
X11420182Y-12308460D01*
X11420182Y-12308460D02*
X11429706Y-12260841D01*
X11429706Y-12260841D02*
X11429706Y-12222746D01*
X11429706Y-12222746D02*
X11420182Y-12175127D01*
X11420182Y-12175127D02*
X11410658Y-12146555D01*
X11410658Y-12146555D02*
X11401134Y-12127508D01*
X11401134Y-12127508D02*
X11382087Y-12098936D01*
X11382087Y-12098936D02*
X11372563Y-12089412D01*
M02*
