%TF.GenerationSoftware,KiCad,Pcbnew,8.0.8*%
%TF.CreationDate,2025-06-29T12:51:07+09:00*%
%TF.ProjectId,PowerSeparate,506f7765-7253-4657-9061-726174652e6b,rev?*%
%TF.SameCoordinates,Original*%
%TF.FileFunction,Soldermask,Top*%
%TF.FilePolarity,Negative*%
%FSLAX46Y46*%
G04 Gerber Fmt 4.6, Leading zero omitted, Abs format (unit mm)*
G04 Created by KiCad (PCBNEW 8.0.8) date 2025-06-29 12:51:07*
%MOMM*%
%LPD*%
G01*
G04 APERTURE LIST*
G04 Aperture macros list*
%AMRoundRect*
0 Rectangle with rounded corners*
0 $1 Rounding radius*
0 $2 $3 $4 $5 $6 $7 $8 $9 X,Y pos of 4 corners*
0 Add a 4 corners polygon primitive as box body*
4,1,4,$2,$3,$4,$5,$6,$7,$8,$9,$2,$3,0*
0 Add four circle primitives for the rounded corners*
1,1,$1+$1,$2,$3*
1,1,$1+$1,$4,$5*
1,1,$1+$1,$6,$7*
1,1,$1+$1,$8,$9*
0 Add four rect primitives between the rounded corners*
20,1,$1+$1,$2,$3,$4,$5,0*
20,1,$1+$1,$4,$5,$6,$7,0*
20,1,$1+$1,$6,$7,$8,$9,0*
20,1,$1+$1,$8,$9,$2,$3,0*%
G04 Aperture macros list end*
%ADD10R,1.600000X1.600000*%
%ADD11C,1.600000*%
%ADD12R,3.500000X3.500000*%
%ADD13RoundRect,0.750000X-0.750000X-1.000000X0.750000X-1.000000X0.750000X1.000000X-0.750000X1.000000X0*%
%ADD14RoundRect,0.875000X-0.875000X-0.875000X0.875000X-0.875000X0.875000X0.875000X-0.875000X0.875000X0*%
%ADD15R,1.700000X1.700000*%
%ADD16O,1.700000X1.700000*%
%ADD17O,1.600000X1.600000*%
%ADD18R,1.303000X1.303000*%
%ADD19C,1.303000*%
%ADD20R,1.217000X1.217000*%
%ADD21C,1.217000*%
%ADD22C,1.635000*%
%ADD23RoundRect,0.150000X0.150000X-0.825000X0.150000X0.825000X-0.150000X0.825000X-0.150000X-0.825000X0*%
%ADD24R,1.305000X1.305000*%
%ADD25C,1.305000*%
G04 APERTURE END LIST*
D10*
%TO.C,C3*%
X114808000Y-88517000D03*
D11*
X114808000Y-91017000D03*
%TD*%
D12*
%TO.C,PwJ1*%
X80041000Y-67907500D03*
D13*
X74041000Y-67907500D03*
D14*
X77041000Y-72607500D03*
%TD*%
D15*
%TO.C,PwJ2*%
X85217000Y-66929000D03*
D16*
X85217000Y-64389000D03*
%TD*%
D10*
%TO.C,C4*%
X130556000Y-91398000D03*
D11*
X133056000Y-91398000D03*
%TD*%
%TO.C,R2*%
X127029000Y-92668000D03*
D17*
X124489000Y-92668000D03*
%TD*%
D10*
%TO.C,PwC3*%
X128637000Y-67524000D03*
D11*
X128637000Y-65024000D03*
%TD*%
D15*
%TO.C,J4*%
X148209000Y-68961000D03*
D16*
X148209000Y-66421000D03*
%TD*%
D11*
%TO.C,R3*%
X124939000Y-79841000D03*
D17*
X127479000Y-79841000D03*
%TD*%
D15*
%TO.C,J3*%
X143383000Y-76835000D03*
D16*
X143383000Y-79375000D03*
X143383000Y-81915000D03*
X143383000Y-84455000D03*
X143383000Y-86995000D03*
X143383000Y-89535000D03*
%TD*%
D15*
%TO.C,J8*%
X133985000Y-84159000D03*
D16*
X131445000Y-84159000D03*
%TD*%
D15*
%TO.C,J2*%
X138430000Y-76835000D03*
D16*
X138430000Y-79375000D03*
X138430000Y-81915000D03*
X138430000Y-84455000D03*
X138430000Y-86995000D03*
X138430000Y-89535000D03*
%TD*%
D10*
%TO.C,C1*%
X87122000Y-89599900D03*
D11*
X87122000Y-92099900D03*
%TD*%
%TO.C,PwC1*%
X100330000Y-68413000D03*
X100330000Y-63413000D03*
%TD*%
D18*
%TO.C,PS1*%
X101600000Y-95900000D03*
D19*
X101600000Y-93360000D03*
X101600000Y-90820000D03*
X101600000Y-85740000D03*
X101600000Y-83200000D03*
X101600000Y-80660000D03*
X101600000Y-78120000D03*
%TD*%
D10*
%TO.C,C2*%
X114999900Y-82254000D03*
D11*
X114999900Y-84754000D03*
%TD*%
D15*
%TO.C,J6*%
X138303000Y-68961000D03*
D16*
X138303000Y-66421000D03*
%TD*%
D15*
%TO.C,J9*%
X131445000Y-80222000D03*
D16*
X133985000Y-80222000D03*
%TD*%
D20*
%TO.C,PwF2*%
X95148000Y-89356000D03*
D21*
X92558000Y-94456000D03*
%TD*%
D15*
%TO.C,J7*%
X148209000Y-76835000D03*
D16*
X148209000Y-79375000D03*
X148209000Y-81915000D03*
X148209000Y-84455000D03*
X148209000Y-86995000D03*
X148209000Y-89535000D03*
%TD*%
D20*
%TO.C,PwF1*%
X93726000Y-67056000D03*
D21*
X96316000Y-61956000D03*
%TD*%
D15*
%TO.C,PwJ5*%
X87503000Y-82174000D03*
D16*
X87503000Y-79634000D03*
%TD*%
D22*
%TO.C,PwS1*%
X75565000Y-87000000D03*
X75565000Y-84460000D03*
X75565000Y-81920000D03*
X70485000Y-81920000D03*
X70485000Y-87000000D03*
%TD*%
D11*
%TO.C,PwL1*%
X114540000Y-69556000D03*
D17*
X122160000Y-69556000D03*
%TD*%
D15*
%TO.C,J1*%
X95377000Y-79460000D03*
D16*
X95377000Y-82000000D03*
X95377000Y-84540000D03*
%TD*%
D23*
%TO.C,U1*%
X120904000Y-88412000D03*
X122174000Y-88412000D03*
X123444000Y-88412000D03*
X124714000Y-88412000D03*
X124714000Y-83462000D03*
X123444000Y-83462000D03*
X122174000Y-83462000D03*
X120904000Y-83462000D03*
%TD*%
D11*
%TO.C,R1*%
X121412000Y-92668000D03*
D17*
X118872000Y-92668000D03*
%TD*%
D15*
%TO.C,J5*%
X143383000Y-68961000D03*
D16*
X143383000Y-66421000D03*
%TD*%
D11*
%TO.C,R4*%
X119732000Y-79841000D03*
D17*
X122272000Y-79841000D03*
%TD*%
D11*
%TO.C,PwC2*%
X123176000Y-66087000D03*
X123176000Y-61087000D03*
%TD*%
D15*
%TO.C,PwJ4*%
X89662000Y-66929000D03*
D16*
X89662000Y-64389000D03*
%TD*%
D24*
%TO.C,PwIC1*%
X109460000Y-66000000D03*
D25*
X112000000Y-66000000D03*
X114540000Y-66000000D03*
%TD*%
D15*
%TO.C,PwJ3*%
X82804000Y-82169000D03*
D16*
X82804000Y-79629000D03*
%TD*%
M02*
