%TF.GenerationSoftware,KiCad,Pcbnew,8.0.8*%
%TF.CreationDate,2025-06-29T12:51:07+09:00*%
%TF.ProjectId,PowerSeparate,506f7765-7253-4657-9061-726174652e6b,rev?*%
%TF.SameCoordinates,Original*%
%TF.FileFunction,Copper,L1,Top*%
%TF.FilePolarity,Positive*%
%FSLAX46Y46*%
G04 Gerber Fmt 4.6, Leading zero omitted, Abs format (unit mm)*
G04 Created by KiCad (PCBNEW 8.0.8) date 2025-06-29 12:51:07*
%MOMM*%
%LPD*%
G01*
G04 APERTURE LIST*
G04 Aperture macros list*
%AMRoundRect*
0 Rectangle with rounded corners*
0 $1 Rounding radius*
0 $2 $3 $4 $5 $6 $7 $8 $9 X,Y pos of 4 corners*
0 Add a 4 corners polygon primitive as box body*
4,1,4,$2,$3,$4,$5,$6,$7,$8,$9,$2,$3,0*
0 Add four circle primitives for the rounded corners*
1,1,$1+$1,$2,$3*
1,1,$1+$1,$4,$5*
1,1,$1+$1,$6,$7*
1,1,$1+$1,$8,$9*
0 Add four rect primitives between the rounded corners*
20,1,$1+$1,$2,$3,$4,$5,0*
20,1,$1+$1,$4,$5,$6,$7,0*
20,1,$1+$1,$6,$7,$8,$9,0*
20,1,$1+$1,$8,$9,$2,$3,0*%
G04 Aperture macros list end*
%TA.AperFunction,ComponentPad*%
%ADD10R,1.600000X1.600000*%
%TD*%
%TA.AperFunction,ComponentPad*%
%ADD11C,1.600000*%
%TD*%
%TA.AperFunction,ComponentPad*%
%ADD12R,3.500000X3.500000*%
%TD*%
%TA.AperFunction,ComponentPad*%
%ADD13RoundRect,0.750000X-0.750000X-1.000000X0.750000X-1.000000X0.750000X1.000000X-0.750000X1.000000X0*%
%TD*%
%TA.AperFunction,ComponentPad*%
%ADD14RoundRect,0.875000X-0.875000X-0.875000X0.875000X-0.875000X0.875000X0.875000X-0.875000X0.875000X0*%
%TD*%
%TA.AperFunction,ComponentPad*%
%ADD15R,1.700000X1.700000*%
%TD*%
%TA.AperFunction,ComponentPad*%
%ADD16O,1.700000X1.700000*%
%TD*%
%TA.AperFunction,ComponentPad*%
%ADD17O,1.600000X1.600000*%
%TD*%
%TA.AperFunction,ComponentPad*%
%ADD18R,1.303000X1.303000*%
%TD*%
%TA.AperFunction,ComponentPad*%
%ADD19C,1.303000*%
%TD*%
%TA.AperFunction,ComponentPad*%
%ADD20R,1.217000X1.217000*%
%TD*%
%TA.AperFunction,ComponentPad*%
%ADD21C,1.217000*%
%TD*%
%TA.AperFunction,ComponentPad*%
%ADD22C,1.635000*%
%TD*%
%TA.AperFunction,SMDPad,CuDef*%
%ADD23RoundRect,0.150000X0.150000X-0.825000X0.150000X0.825000X-0.150000X0.825000X-0.150000X-0.825000X0*%
%TD*%
%TA.AperFunction,ComponentPad*%
%ADD24R,1.305000X1.305000*%
%TD*%
%TA.AperFunction,ComponentPad*%
%ADD25C,1.305000*%
%TD*%
%TA.AperFunction,ViaPad*%
%ADD26C,0.600000*%
%TD*%
%TA.AperFunction,Conductor*%
%ADD27C,0.400000*%
%TD*%
G04 APERTURE END LIST*
D10*
%TO.P,C3,1*%
%TO.N,GNDA*%
X114808000Y-88517000D03*
D11*
%TO.P,C3,2*%
%TO.N,-12VA*%
X114808000Y-91017000D03*
%TD*%
D12*
%TO.P,PwJ1,1*%
%TO.N,Net-(PwJ1-Pad1)*%
X80041000Y-67907500D03*
D13*
%TO.P,PwJ1,2*%
%TO.N,ADAPTER GND*%
X74041000Y-67907500D03*
D14*
%TO.P,PwJ1,3*%
X77041000Y-72607500D03*
%TD*%
D15*
%TO.P,PwJ2,1,Pin_1*%
%TO.N,ADAPTER+9V*%
X85217000Y-66929000D03*
D16*
%TO.P,PwJ2,2,Pin_2*%
%TO.N,ADAPTER GND*%
X85217000Y-64389000D03*
%TD*%
D10*
%TO.P,C4,1*%
%TO.N,Net-(U1A-+)*%
X130556000Y-91398000D03*
D11*
%TO.P,C4,2*%
%TO.N,GNDA*%
X133056000Y-91398000D03*
%TD*%
%TO.P,R2,1*%
%TO.N,GNDA*%
X127029000Y-92668000D03*
D17*
%TO.P,R2,2*%
%TO.N,Net-(U1A-+)*%
X124489000Y-92668000D03*
%TD*%
D10*
%TO.P,PwC3,1*%
%TO.N,+5VD*%
X128637000Y-67524000D03*
D11*
%TO.P,PwC3,2*%
%TO.N,GND*%
X128637000Y-65024000D03*
%TD*%
D15*
%TO.P,J4,1,Pin_1*%
%TO.N,+5VD*%
X148209000Y-68961000D03*
D16*
%TO.P,J4,2,Pin_2*%
%TO.N,GND*%
X148209000Y-66421000D03*
%TD*%
D11*
%TO.P,R3,1*%
%TO.N,Net-(U1B--)*%
X124939000Y-79841000D03*
D17*
%TO.P,R3,2*%
%TO.N,+5VA*%
X127479000Y-79841000D03*
%TD*%
D15*
%TO.P,J3,1,Pin_1*%
%TO.N,+12VA*%
X143383000Y-76835000D03*
D16*
%TO.P,J3,2,Pin_2*%
%TO.N,+5VA*%
X143383000Y-79375000D03*
%TO.P,J3,3,Pin_3*%
%TO.N,-5VA*%
X143383000Y-81915000D03*
%TO.P,J3,4,Pin_4*%
%TO.N,-12VA*%
X143383000Y-84455000D03*
%TO.P,J3,5,Pin_5*%
%TO.N,unconnected-(J3-Pin_5-Pad5)*%
X143383000Y-86995000D03*
%TO.P,J3,6,Pin_6*%
%TO.N,GNDA*%
X143383000Y-89535000D03*
%TD*%
D15*
%TO.P,J8,1,Pin_1*%
%TO.N,+5VA*%
X133985000Y-84159000D03*
D16*
%TO.P,J8,2,Pin_2*%
%TO.N,Net-(J8-Pin_2)*%
X131445000Y-84159000D03*
%TD*%
D15*
%TO.P,J2,1,Pin_1*%
%TO.N,+12VA*%
X138430000Y-76835000D03*
D16*
%TO.P,J2,2,Pin_2*%
%TO.N,+5VA*%
X138430000Y-79375000D03*
%TO.P,J2,3,Pin_3*%
%TO.N,-5VA*%
X138430000Y-81915000D03*
%TO.P,J2,4,Pin_4*%
%TO.N,-12VA*%
X138430000Y-84455000D03*
%TO.P,J2,5,Pin_5*%
%TO.N,unconnected-(J2-Pin_5-Pad5)*%
X138430000Y-86995000D03*
%TO.P,J2,6,Pin_6*%
%TO.N,GNDA*%
X138430000Y-89535000D03*
%TD*%
D10*
%TO.P,C1,1*%
%TO.N,Net-(PwJ5-Pin_1)*%
X87122000Y-89599900D03*
D11*
%TO.P,C1,2*%
%TO.N,Net-(J1-Pin_3)*%
X87122000Y-92099900D03*
%TD*%
%TO.P,PwC1,1*%
%TO.N,D+9VPre*%
X100330000Y-68413000D03*
%TO.P,PwC1,2*%
%TO.N,GND*%
X100330000Y-63413000D03*
%TD*%
D18*
%TO.P,PS1,1,-VIN*%
%TO.N,Net-(J1-Pin_3)*%
X101600000Y-95900000D03*
D19*
%TO.P,PS1,2,+VIN*%
%TO.N,Net-(J1-Pin_1)*%
X101600000Y-93360000D03*
%TO.P,PS1,3,REMOTE_ON/OFF*%
%TO.N,Net-(J1-Pin_2)*%
X101600000Y-90820000D03*
%TO.P,PS1,5,NC*%
%TO.N,unconnected-(PS1-NC-Pad5)*%
X101600000Y-85740000D03*
%TO.P,PS1,6,+VOUT*%
%TO.N,+12VA*%
X101600000Y-83200000D03*
%TO.P,PS1,7,COMMON*%
%TO.N,GNDA*%
X101600000Y-80660000D03*
%TO.P,PS1,8,-VOUT*%
%TO.N,-12VA*%
X101600000Y-78120000D03*
%TD*%
D10*
%TO.P,C2,1*%
%TO.N,+12VA*%
X114999900Y-82254000D03*
D11*
%TO.P,C2,2*%
%TO.N,GNDA*%
X114999900Y-84754000D03*
%TD*%
D15*
%TO.P,J6,1,Pin_1*%
%TO.N,+5VD*%
X138303000Y-68961000D03*
D16*
%TO.P,J6,2,Pin_2*%
%TO.N,GND*%
X138303000Y-66421000D03*
%TD*%
D15*
%TO.P,J9,1,Pin_1*%
%TO.N,Net-(J9-Pin_1)*%
X131445000Y-80222000D03*
D16*
%TO.P,J9,2,Pin_2*%
%TO.N,-5VA*%
X133985000Y-80222000D03*
%TD*%
D20*
%TO.P,PwF2,1,1*%
%TO.N,Net-(PwJ5-Pin_1)*%
X95148000Y-89356000D03*
D21*
%TO.P,PwF2,2,2*%
%TO.N,Net-(J1-Pin_1)*%
X92558000Y-94456000D03*
%TD*%
D15*
%TO.P,J7,1,Pin_1*%
%TO.N,+12VA*%
X148209000Y-76835000D03*
D16*
%TO.P,J7,2,Pin_2*%
%TO.N,+5VA*%
X148209000Y-79375000D03*
%TO.P,J7,3,Pin_3*%
%TO.N,-5VA*%
X148209000Y-81915000D03*
%TO.P,J7,4,Pin_4*%
%TO.N,-12VA*%
X148209000Y-84455000D03*
%TO.P,J7,5,Pin_5*%
%TO.N,unconnected-(J7-Pin_5-Pad5)*%
X148209000Y-86995000D03*
%TO.P,J7,6,Pin_6*%
%TO.N,GNDA*%
X148209000Y-89535000D03*
%TD*%
D20*
%TO.P,PwF1,1,1*%
%TO.N,D+9VPre*%
X93726000Y-67056000D03*
D21*
%TO.P,PwF1,2,2*%
%TO.N,D+9V*%
X96316000Y-61956000D03*
%TD*%
D15*
%TO.P,PwJ5,1,Pin_1*%
%TO.N,Net-(PwJ5-Pin_1)*%
X87503000Y-82174000D03*
D16*
%TO.P,PwJ5,2,Pin_2*%
%TO.N,Net-(J1-Pin_3)*%
X87503000Y-79634000D03*
%TD*%
D22*
%TO.P,PwS1,1,1*%
%TO.N,Net-(PwJ1-Pad1)*%
X75565000Y-87000000D03*
%TO.P,PwS1,2,2*%
%TO.N,ADAPTER+9V*%
X75565000Y-84460000D03*
%TO.P,PwS1,3,3*%
%TO.N,unconnected-(PwS1-Pad3)*%
X75565000Y-81920000D03*
%TO.P,PwS1,4,4*%
%TO.N,unconnected-(PwS1-Pad4)*%
X70485000Y-81920000D03*
%TO.P,PwS1,5,5*%
%TO.N,unconnected-(PwS1-Pad5)*%
X70485000Y-87000000D03*
%TD*%
D11*
%TO.P,PwL1,1,1*%
%TO.N,Net-(PwIC1-VOUT)*%
X114540000Y-69556000D03*
D17*
%TO.P,PwL1,2,2*%
%TO.N,+5VD*%
X122160000Y-69556000D03*
%TD*%
D15*
%TO.P,J1,1,Pin_1*%
%TO.N,Net-(J1-Pin_1)*%
X95377000Y-79460000D03*
D16*
%TO.P,J1,2,Pin_2*%
%TO.N,Net-(J1-Pin_2)*%
X95377000Y-82000000D03*
%TO.P,J1,3,Pin_3*%
%TO.N,Net-(J1-Pin_3)*%
X95377000Y-84540000D03*
%TD*%
D23*
%TO.P,U1,1*%
%TO.N,Net-(J8-Pin_2)*%
X120904000Y-88412000D03*
%TO.P,U1,2,-*%
X122174000Y-88412000D03*
%TO.P,U1,3,+*%
%TO.N,Net-(U1A-+)*%
X123444000Y-88412000D03*
%TO.P,U1,4,V-*%
%TO.N,-12VA*%
X124714000Y-88412000D03*
%TO.P,U1,5,+*%
%TO.N,GNDA*%
X124714000Y-83462000D03*
%TO.P,U1,6,-*%
%TO.N,Net-(U1B--)*%
X123444000Y-83462000D03*
%TO.P,U1,7*%
%TO.N,Net-(J9-Pin_1)*%
X122174000Y-83462000D03*
%TO.P,U1,8,V+*%
%TO.N,+12VA*%
X120904000Y-83462000D03*
%TD*%
D11*
%TO.P,R1,1*%
%TO.N,Net-(U1A-+)*%
X121412000Y-92668000D03*
D17*
%TO.P,R1,2*%
%TO.N,+12VA*%
X118872000Y-92668000D03*
%TD*%
D15*
%TO.P,J5,1,Pin_1*%
%TO.N,+5VD*%
X143383000Y-68961000D03*
D16*
%TO.P,J5,2,Pin_2*%
%TO.N,GND*%
X143383000Y-66421000D03*
%TD*%
D11*
%TO.P,R4,1*%
%TO.N,Net-(J9-Pin_1)*%
X119732000Y-79841000D03*
D17*
%TO.P,R4,2*%
%TO.N,Net-(U1B--)*%
X122272000Y-79841000D03*
%TD*%
D11*
%TO.P,PwC2,1*%
%TO.N,Net-(PwIC1-VOUT)*%
X123176000Y-66087000D03*
%TO.P,PwC2,2*%
%TO.N,GND*%
X123176000Y-61087000D03*
%TD*%
D15*
%TO.P,PwJ4,1,Pin_1*%
%TO.N,D+9VPre*%
X89662000Y-66929000D03*
D16*
%TO.P,PwJ4,2,Pin_2*%
%TO.N,GND*%
X89662000Y-64389000D03*
%TD*%
D24*
%TO.P,PwIC1,1,VIN*%
%TO.N,D+9V*%
X109460000Y-66000000D03*
D25*
%TO.P,PwIC1,2,GND*%
%TO.N,GND*%
X112000000Y-66000000D03*
%TO.P,PwIC1,3,VOUT*%
%TO.N,Net-(PwIC1-VOUT)*%
X114540000Y-66000000D03*
%TD*%
D15*
%TO.P,PwJ3,1,Pin_1*%
%TO.N,ADAPTER+9V*%
X82804000Y-82169000D03*
D16*
%TO.P,PwJ3,2,Pin_2*%
%TO.N,ADAPTER GND*%
X82804000Y-79629000D03*
%TD*%
D26*
%TO.N,GNDA*%
X127508000Y-83312000D03*
%TO.N,-12VA*%
X126126700Y-89881400D03*
%TO.N,+5VA*%
X129569900Y-78951800D03*
%TO.N,Net-(U1B--)*%
X123444000Y-81534000D03*
%TD*%
D27*
%TO.N,Net-(J1-Pin_3)*%
X94125300Y-84540000D02*
X89219300Y-79634000D01*
X95377000Y-84540000D02*
X94125300Y-84540000D01*
X89219300Y-79634000D02*
X87503000Y-79634000D01*
%TO.N,Net-(J1-Pin_1)*%
X93654000Y-93360000D02*
X92558000Y-94456000D01*
X101600000Y-93360000D02*
X93654000Y-93360000D01*
%TO.N,+12VA*%
X117409600Y-83462000D02*
X116201600Y-82254000D01*
X120904000Y-83462000D02*
X117409600Y-83462000D01*
X116201600Y-81596700D02*
X116201600Y-82254000D01*
X138430000Y-76835000D02*
X120963300Y-76835000D01*
X120963300Y-76835000D02*
X116201600Y-81596700D01*
X112852200Y-83200000D02*
X113798200Y-82254000D01*
X101600000Y-83200000D02*
X112852200Y-83200000D01*
X143383000Y-76835000D02*
X138430000Y-76835000D01*
X114999900Y-82254000D02*
X116201600Y-82254000D01*
X148209000Y-76835000D02*
X143383000Y-76835000D01*
X114999900Y-82254000D02*
X113798200Y-82254000D01*
%TO.N,-12VA*%
X126126700Y-89881400D02*
X124714000Y-88468700D01*
X138430000Y-84455000D02*
X143383000Y-84455000D01*
X124714000Y-88412000D02*
X133221300Y-88412000D01*
X138430000Y-84455000D02*
X137178300Y-84455000D01*
X143383000Y-84455000D02*
X148209000Y-84455000D01*
X124714000Y-88468700D02*
X124714000Y-88412000D01*
X133221300Y-88412000D02*
X137178300Y-84455000D01*
%TO.N,Net-(U1A-+)*%
X123444000Y-88412000D02*
X123444000Y-88969600D01*
X124602400Y-92668000D02*
X124489000Y-92668000D01*
X130556000Y-91398000D02*
X126587200Y-91398000D01*
X123444000Y-88969600D02*
X125872400Y-91398000D01*
X126504500Y-91398000D02*
X126587200Y-91398000D01*
X125872400Y-91398000D02*
X124602400Y-92668000D01*
X125872400Y-91398000D02*
X126504500Y-91398000D01*
X121412000Y-92668000D02*
X124489000Y-92668000D01*
%TO.N,-5VA*%
X133985000Y-80222000D02*
X135485300Y-80222000D01*
X138430000Y-81915000D02*
X137178300Y-81915000D01*
X148209000Y-81915000D02*
X143383000Y-81915000D01*
X138430000Y-81915000D02*
X143383000Y-81915000D01*
X135485300Y-80222000D02*
X137178300Y-81915000D01*
%TO.N,+5VA*%
X138430000Y-79375000D02*
X137178300Y-79375000D01*
X136755100Y-78951800D02*
X137178300Y-79375000D01*
X129569900Y-78951800D02*
X136755100Y-78951800D01*
X138430000Y-79375000D02*
X143383000Y-79375000D01*
X143383000Y-79375000D02*
X148209000Y-79375000D01*
%TO.N,+5VD*%
X128036200Y-67524000D02*
X127435300Y-67524000D01*
X128036200Y-67524000D02*
X129473200Y-68961000D01*
X129473200Y-68961000D02*
X138303000Y-68961000D01*
X127435300Y-67524000D02*
X125403300Y-69556000D01*
X143383000Y-68961000D02*
X148209000Y-68961000D01*
X143383000Y-68961000D02*
X138303000Y-68961000D01*
X128637000Y-67524000D02*
X128036200Y-67524000D01*
X125403300Y-69556000D02*
X122160000Y-69556000D01*
%TO.N,Net-(J8-Pin_2)*%
X120904000Y-87875600D02*
X123735500Y-85044100D01*
X120904000Y-88412000D02*
X120904000Y-87875600D01*
X123735500Y-85044100D02*
X129308200Y-85044100D01*
X131445000Y-84159000D02*
X130193300Y-84159000D01*
X122174000Y-88412000D02*
X120904000Y-88412000D01*
X129308200Y-85044100D02*
X130193300Y-84159000D01*
%TO.N,Net-(J9-Pin_1)*%
X122174000Y-83462000D02*
X122140200Y-83428200D01*
X122140200Y-82249200D02*
X119732000Y-79841000D01*
X122140200Y-83428200D02*
X122140200Y-82249200D01*
%TO.N,D+9VPre*%
X93726000Y-67056000D02*
X98973000Y-67056000D01*
X93599000Y-66929000D02*
X93726000Y-67056000D01*
X89662000Y-66929000D02*
X93599000Y-66929000D01*
X98973000Y-67056000D02*
X100330000Y-68413000D01*
%TO.N,Net-(PwIC1-VOUT)*%
X123176000Y-66087000D02*
X114627000Y-66087000D01*
X114627000Y-66087000D02*
X114540000Y-66000000D01*
%TO.N,D+9V*%
X109460000Y-66000000D02*
X100360000Y-66000000D01*
X100360000Y-66000000D02*
X96316000Y-61956000D01*
%TO.N,ADAPTER+9V*%
X82804000Y-82169000D02*
X81552300Y-82169000D01*
X75565000Y-84460000D02*
X79261300Y-84460000D01*
X79261300Y-84460000D02*
X81552300Y-82169000D01*
%TO.N,Net-(U1B--)*%
X122272000Y-79841000D02*
X124939000Y-79841000D01*
X123444000Y-81534000D02*
X123444000Y-83462000D01*
%TO.N,Net-(PwJ5-Pin_1)*%
X87365900Y-89356000D02*
X87122000Y-89599900D01*
X95148000Y-89356000D02*
X87365900Y-89356000D01*
%TD*%
%TA.AperFunction,Conductor*%
%TO.N,GNDA*%
G36*
X128935490Y-79459113D02*
G01*
X128968992Y-79482970D01*
X129067638Y-79581616D01*
X129151007Y-79634000D01*
X129216717Y-79675289D01*
X129220378Y-79677589D01*
X129378636Y-79732966D01*
X129390645Y-79737168D01*
X129390650Y-79737169D01*
X129569896Y-79757365D01*
X129569900Y-79757365D01*
X129569904Y-79757365D01*
X129749149Y-79737169D01*
X129749152Y-79737168D01*
X129749155Y-79737168D01*
X129919422Y-79677589D01*
X129919422Y-79677588D01*
X129925995Y-79675289D01*
X129926684Y-79677258D01*
X129985628Y-79667547D01*
X130049765Y-79695264D01*
X130088736Y-79753255D01*
X130094500Y-79790621D01*
X130094500Y-81119870D01*
X130094501Y-81119876D01*
X130100908Y-81179483D01*
X130151202Y-81314328D01*
X130151206Y-81314335D01*
X130237452Y-81429544D01*
X130237455Y-81429547D01*
X130352664Y-81515793D01*
X130352671Y-81515797D01*
X130487517Y-81566091D01*
X130487516Y-81566091D01*
X130494444Y-81566835D01*
X130547127Y-81572500D01*
X132342872Y-81572499D01*
X132402483Y-81566091D01*
X132537331Y-81515796D01*
X132652546Y-81429546D01*
X132738796Y-81314331D01*
X132787810Y-81182916D01*
X132829681Y-81126984D01*
X132895145Y-81102566D01*
X132963418Y-81117417D01*
X132991673Y-81138569D01*
X133113599Y-81260495D01*
X133201679Y-81322169D01*
X133307165Y-81396032D01*
X133307167Y-81396033D01*
X133307170Y-81396035D01*
X133521337Y-81495903D01*
X133749592Y-81557063D01*
X133926034Y-81572500D01*
X133984999Y-81577659D01*
X133985000Y-81577659D01*
X133985001Y-81577659D01*
X134043966Y-81572500D01*
X134220408Y-81557063D01*
X134448663Y-81495903D01*
X134662830Y-81396035D01*
X134856401Y-81260495D01*
X135023495Y-81093401D01*
X135079809Y-81012974D01*
X135134383Y-80969353D01*
X135203881Y-80962159D01*
X135266236Y-80993681D01*
X135269063Y-80996420D01*
X136731753Y-82459111D01*
X136731754Y-82459112D01*
X136846492Y-82535777D01*
X136973967Y-82588578D01*
X136973972Y-82588580D01*
X136973976Y-82588580D01*
X136973977Y-82588581D01*
X137109303Y-82615500D01*
X137109306Y-82615500D01*
X137109307Y-82615500D01*
X137207289Y-82615500D01*
X137274328Y-82635185D01*
X137308864Y-82668377D01*
X137391505Y-82786402D01*
X137558597Y-82953493D01*
X137558603Y-82953498D01*
X137744158Y-83083425D01*
X137787783Y-83138002D01*
X137794977Y-83207500D01*
X137763454Y-83269855D01*
X137744158Y-83286575D01*
X137558597Y-83416505D01*
X137391506Y-83583596D01*
X137308864Y-83701623D01*
X137254287Y-83745248D01*
X137207289Y-83754500D01*
X137109304Y-83754500D01*
X136973977Y-83781418D01*
X136973967Y-83781421D01*
X136846492Y-83834222D01*
X136731754Y-83910887D01*
X135547180Y-85095461D01*
X135485857Y-85128946D01*
X135416165Y-85123962D01*
X135360232Y-85082090D01*
X135335815Y-85016626D01*
X135335499Y-85007807D01*
X135335499Y-83261128D01*
X135329091Y-83201517D01*
X135328525Y-83200000D01*
X135278797Y-83066671D01*
X135278793Y-83066664D01*
X135192547Y-82951455D01*
X135192544Y-82951452D01*
X135077335Y-82865206D01*
X135077328Y-82865202D01*
X134942482Y-82814908D01*
X134942483Y-82814908D01*
X134882883Y-82808501D01*
X134882881Y-82808500D01*
X134882873Y-82808500D01*
X134882864Y-82808500D01*
X133087129Y-82808500D01*
X133087123Y-82808501D01*
X133027516Y-82814908D01*
X132892671Y-82865202D01*
X132892664Y-82865206D01*
X132777455Y-82951452D01*
X132777452Y-82951455D01*
X132691206Y-83066664D01*
X132691203Y-83066669D01*
X132642189Y-83198083D01*
X132600317Y-83254016D01*
X132534853Y-83278433D01*
X132466580Y-83263581D01*
X132438326Y-83242430D01*
X132316402Y-83120506D01*
X132316395Y-83120501D01*
X132122834Y-82984967D01*
X132122830Y-82984965D01*
X132055349Y-82953498D01*
X131908663Y-82885097D01*
X131908659Y-82885096D01*
X131908655Y-82885094D01*
X131680413Y-82823938D01*
X131680403Y-82823936D01*
X131445001Y-82803341D01*
X131444999Y-82803341D01*
X131209596Y-82823936D01*
X131209586Y-82823938D01*
X130981344Y-82885094D01*
X130981335Y-82885098D01*
X130767171Y-82984964D01*
X130767169Y-82984965D01*
X130573597Y-83120505D01*
X130406506Y-83287596D01*
X130323864Y-83405623D01*
X130269287Y-83449248D01*
X130222289Y-83458500D01*
X130124303Y-83458500D01*
X130015890Y-83480065D01*
X130015889Y-83480065D01*
X129988971Y-83485420D01*
X129950139Y-83501505D01*
X129861491Y-83538223D01*
X129834613Y-83556183D01*
X129793583Y-83583599D01*
X129781954Y-83591369D01*
X129746754Y-83614888D01*
X129746753Y-83614889D01*
X129054362Y-84307281D01*
X128993039Y-84340766D01*
X128966681Y-84343600D01*
X125638000Y-84343600D01*
X125570961Y-84323915D01*
X125525206Y-84271111D01*
X125514000Y-84219600D01*
X125514000Y-83712000D01*
X124838000Y-83712000D01*
X124770961Y-83692315D01*
X124725206Y-83639511D01*
X124714000Y-83588000D01*
X124714000Y-83462000D01*
X124588000Y-83462000D01*
X124520961Y-83442315D01*
X124475206Y-83389511D01*
X124464000Y-83338000D01*
X124464000Y-83212000D01*
X124964000Y-83212000D01*
X125514000Y-83212000D01*
X125514000Y-82571365D01*
X125513999Y-82571350D01*
X125511100Y-82534510D01*
X125511099Y-82534504D01*
X125465283Y-82376806D01*
X125465282Y-82376803D01*
X125381685Y-82235447D01*
X125381678Y-82235438D01*
X125265561Y-82119321D01*
X125265552Y-82119314D01*
X125124196Y-82035717D01*
X125124193Y-82035716D01*
X124966494Y-81989900D01*
X124966497Y-81989900D01*
X124964000Y-81989703D01*
X124964000Y-83212000D01*
X124464000Y-83212000D01*
X124464000Y-81989703D01*
X124461503Y-81989900D01*
X124326472Y-82029131D01*
X124256602Y-82028932D01*
X124197932Y-81990990D01*
X124169089Y-81927351D01*
X124174836Y-81869100D01*
X124229366Y-81713262D01*
X124229369Y-81713249D01*
X124249565Y-81534003D01*
X124249565Y-81533996D01*
X124229369Y-81354750D01*
X124229368Y-81354745D01*
X124215228Y-81314335D01*
X124169789Y-81184478D01*
X124169787Y-81184475D01*
X124169787Y-81184474D01*
X124156038Y-81162593D01*
X124137036Y-81095357D01*
X124157402Y-81028521D01*
X124210669Y-80983306D01*
X124279926Y-80974067D01*
X124313433Y-80984236D01*
X124492504Y-81067739D01*
X124492510Y-81067740D01*
X124492511Y-81067741D01*
X124544466Y-81081662D01*
X124712308Y-81126635D01*
X124874230Y-81140801D01*
X124938998Y-81146468D01*
X124939000Y-81146468D01*
X124939002Y-81146468D01*
X124995673Y-81141509D01*
X125165692Y-81126635D01*
X125385496Y-81067739D01*
X125591734Y-80971568D01*
X125778139Y-80841047D01*
X125939047Y-80680139D01*
X126069568Y-80493734D01*
X126096618Y-80435724D01*
X126142790Y-80383285D01*
X126209983Y-80364133D01*
X126276865Y-80384348D01*
X126321381Y-80435724D01*
X126335517Y-80466038D01*
X126348429Y-80493728D01*
X126348432Y-80493734D01*
X126478954Y-80680141D01*
X126639858Y-80841045D01*
X126639861Y-80841047D01*
X126826266Y-80971568D01*
X127032504Y-81067739D01*
X127032509Y-81067740D01*
X127032511Y-81067741D01*
X127084466Y-81081662D01*
X127252308Y-81126635D01*
X127414230Y-81140801D01*
X127478998Y-81146468D01*
X127479000Y-81146468D01*
X127479002Y-81146468D01*
X127535673Y-81141509D01*
X127705692Y-81126635D01*
X127925496Y-81067739D01*
X128131734Y-80971568D01*
X128318139Y-80841047D01*
X128479047Y-80680139D01*
X128609568Y-80493734D01*
X128705739Y-80287496D01*
X128764635Y-80067692D01*
X128784468Y-79841000D01*
X128764635Y-79614308D01*
X128761537Y-79602746D01*
X128763198Y-79532897D01*
X128802360Y-79475034D01*
X128866588Y-79447528D01*
X128935490Y-79459113D01*
G37*
%TD.AperFunction*%
%TA.AperFunction,Conductor*%
G36*
X155442539Y-73019685D02*
G01*
X155488294Y-73072489D01*
X155499500Y-73124000D01*
X155499500Y-99375500D01*
X155479815Y-99442539D01*
X155427011Y-99488294D01*
X155375500Y-99499500D01*
X86124000Y-99499500D01*
X86056961Y-99479815D01*
X86011206Y-99427011D01*
X86000000Y-99375500D01*
X86000000Y-94455999D01*
X91444249Y-94455999D01*
X91444249Y-94456000D01*
X91463212Y-94660646D01*
X91463212Y-94660648D01*
X91463213Y-94660651D01*
X91504200Y-94804706D01*
X91519459Y-94858336D01*
X91611070Y-95042314D01*
X91734929Y-95206331D01*
X91815680Y-95279944D01*
X91886815Y-95344792D01*
X92061558Y-95452989D01*
X92253208Y-95527234D01*
X92455236Y-95565000D01*
X92455238Y-95565000D01*
X92660762Y-95565000D01*
X92660764Y-95565000D01*
X92862792Y-95527234D01*
X93054442Y-95452989D01*
X93229185Y-95344792D01*
X93381072Y-95206329D01*
X93504930Y-95042314D01*
X93596542Y-94858333D01*
X93652787Y-94660651D01*
X93671751Y-94456000D01*
X93666682Y-94401305D01*
X93680096Y-94332737D01*
X93702466Y-94302190D01*
X93907839Y-94096816D01*
X93969161Y-94063334D01*
X93995519Y-94060500D01*
X100623671Y-94060500D01*
X100690710Y-94080185D01*
X100722625Y-94109773D01*
X100745015Y-94139422D01*
X100902791Y-94283254D01*
X101084310Y-94395646D01*
X101084311Y-94395646D01*
X101084312Y-94395647D01*
X101126486Y-94411985D01*
X101283390Y-94472770D01*
X101440359Y-94502112D01*
X101502637Y-94533779D01*
X101537910Y-94594091D01*
X101534976Y-94663899D01*
X101494768Y-94721040D01*
X101430049Y-94747371D01*
X101417571Y-94748000D01*
X100900629Y-94748000D01*
X100900623Y-94748001D01*
X100841016Y-94754408D01*
X100706171Y-94804702D01*
X100706164Y-94804706D01*
X100590955Y-94890952D01*
X100590952Y-94890955D01*
X100504706Y-95006164D01*
X100504702Y-95006171D01*
X100454408Y-95141017D01*
X100448001Y-95200616D01*
X100448001Y-95200623D01*
X100448000Y-95200635D01*
X100448000Y-96599370D01*
X100448001Y-96599376D01*
X100454408Y-96658983D01*
X100504702Y-96793828D01*
X100504706Y-96793835D01*
X100590952Y-96909044D01*
X100590955Y-96909047D01*
X100706164Y-96995293D01*
X100706171Y-96995297D01*
X100841017Y-97045591D01*
X100841016Y-97045591D01*
X100847944Y-97046335D01*
X100900627Y-97052000D01*
X102299372Y-97051999D01*
X102358983Y-97045591D01*
X102481219Y-97000000D01*
X150294592Y-97000000D01*
X150314201Y-97286680D01*
X150372666Y-97568034D01*
X150372667Y-97568037D01*
X150468894Y-97838793D01*
X150468893Y-97838793D01*
X150601098Y-98093935D01*
X150766812Y-98328700D01*
X150851923Y-98419831D01*
X150962947Y-98538708D01*
X151185853Y-98720055D01*
X151431382Y-98869365D01*
X151618237Y-98950526D01*
X151694942Y-98983844D01*
X151971642Y-99061371D01*
X152221920Y-99095771D01*
X152256321Y-99100500D01*
X152256322Y-99100500D01*
X152543679Y-99100500D01*
X152574370Y-99096281D01*
X152828358Y-99061371D01*
X153105058Y-98983844D01*
X153218015Y-98934779D01*
X153368617Y-98869365D01*
X153368620Y-98869363D01*
X153368625Y-98869361D01*
X153614147Y-98720055D01*
X153837053Y-98538708D01*
X154033189Y-98328698D01*
X154198901Y-98093936D01*
X154331104Y-97838797D01*
X154427334Y-97568032D01*
X154485798Y-97286686D01*
X154505408Y-97000000D01*
X154485798Y-96713314D01*
X154427334Y-96431968D01*
X154331105Y-96161206D01*
X154331106Y-96161206D01*
X154198901Y-95906064D01*
X154033187Y-95671299D01*
X153954554Y-95587105D01*
X153837053Y-95461292D01*
X153614147Y-95279945D01*
X153614146Y-95279944D01*
X153368617Y-95130634D01*
X153105063Y-95016158D01*
X153105061Y-95016157D01*
X153105058Y-95016156D01*
X152975578Y-94979877D01*
X152828364Y-94938630D01*
X152828359Y-94938629D01*
X152828358Y-94938629D01*
X152686018Y-94919064D01*
X152543679Y-94899500D01*
X152543678Y-94899500D01*
X152256322Y-94899500D01*
X152256321Y-94899500D01*
X151971642Y-94938629D01*
X151971635Y-94938630D01*
X151763861Y-94996845D01*
X151694942Y-95016156D01*
X151694939Y-95016156D01*
X151694936Y-95016158D01*
X151694935Y-95016158D01*
X151431382Y-95130634D01*
X151185853Y-95279944D01*
X150962950Y-95461289D01*
X150766812Y-95671299D01*
X150601098Y-95906064D01*
X150468894Y-96161206D01*
X150372667Y-96431962D01*
X150372666Y-96431965D01*
X150314201Y-96713319D01*
X150294592Y-97000000D01*
X102481219Y-97000000D01*
X102493831Y-96995296D01*
X102609046Y-96909046D01*
X102695296Y-96793831D01*
X102745591Y-96658983D01*
X102752000Y-96599373D01*
X102751999Y-95200628D01*
X102745591Y-95141017D01*
X102741720Y-95130639D01*
X102695297Y-95006171D01*
X102695293Y-95006164D01*
X102609047Y-94890955D01*
X102609044Y-94890952D01*
X102493835Y-94804706D01*
X102493828Y-94804702D01*
X102358982Y-94754408D01*
X102358983Y-94754408D01*
X102299383Y-94748001D01*
X102299381Y-94748000D01*
X102299373Y-94748000D01*
X102299365Y-94748000D01*
X101782430Y-94748000D01*
X101715391Y-94728315D01*
X101669636Y-94675511D01*
X101659692Y-94606353D01*
X101688717Y-94542797D01*
X101747495Y-94505023D01*
X101759629Y-94502114D01*
X101916610Y-94472770D01*
X102115690Y-94395646D01*
X102297209Y-94283254D01*
X102454985Y-94139422D01*
X102583646Y-93969048D01*
X102678810Y-93777933D01*
X102737236Y-93572586D01*
X102756935Y-93360000D01*
X102737236Y-93147414D01*
X102678810Y-92942067D01*
X102583646Y-92750952D01*
X102487975Y-92624264D01*
X102454983Y-92580575D01*
X102301146Y-92440335D01*
X102297209Y-92436746D01*
X102115690Y-92324354D01*
X102115688Y-92324353D01*
X102115687Y-92324352D01*
X101935616Y-92254593D01*
X101916610Y-92247230D01*
X101727548Y-92211888D01*
X101665269Y-92180221D01*
X101629996Y-92119908D01*
X101632930Y-92050100D01*
X101673139Y-91992960D01*
X101727548Y-91968111D01*
X101916610Y-91932770D01*
X102115690Y-91855646D01*
X102297209Y-91743254D01*
X102454985Y-91599422D01*
X102583646Y-91429048D01*
X102678810Y-91237933D01*
X102737236Y-91032586D01*
X102738680Y-91016998D01*
X113502532Y-91016998D01*
X113502532Y-91017001D01*
X113522364Y-91243686D01*
X113522366Y-91243697D01*
X113581258Y-91463488D01*
X113581261Y-91463497D01*
X113677431Y-91669732D01*
X113677432Y-91669734D01*
X113807954Y-91856141D01*
X113968858Y-92017045D01*
X113968861Y-92017047D01*
X114155266Y-92147568D01*
X114361504Y-92243739D01*
X114361509Y-92243740D01*
X114361511Y-92243741D01*
X114374536Y-92247231D01*
X114581308Y-92302635D01*
X114743230Y-92316801D01*
X114807998Y-92322468D01*
X114808000Y-92322468D01*
X114808002Y-92322468D01*
X114864673Y-92317509D01*
X115034692Y-92302635D01*
X115254496Y-92243739D01*
X115460734Y-92147568D01*
X115647139Y-92017047D01*
X115808047Y-91856139D01*
X115938568Y-91669734D01*
X116034739Y-91463496D01*
X116093635Y-91243692D01*
X116113468Y-91017000D01*
X116109584Y-90972611D01*
X116098306Y-90843696D01*
X116093635Y-90790308D01*
X116034739Y-90570504D01*
X115938568Y-90364266D01*
X115808047Y-90177861D01*
X115808045Y-90177858D01*
X115650493Y-90020306D01*
X115617008Y-89958983D01*
X115621992Y-89889291D01*
X115663864Y-89833358D01*
X115709667Y-89811946D01*
X115715381Y-89810595D01*
X115850086Y-89760354D01*
X115850093Y-89760350D01*
X115965187Y-89674190D01*
X115965190Y-89674187D01*
X116051350Y-89559093D01*
X116051354Y-89559086D01*
X116101596Y-89424379D01*
X116101598Y-89424372D01*
X116107999Y-89364844D01*
X116108000Y-89364827D01*
X116108000Y-88767000D01*
X115123686Y-88767000D01*
X115128080Y-88762606D01*
X115180741Y-88671394D01*
X115208000Y-88569661D01*
X115208000Y-88464339D01*
X115180741Y-88362606D01*
X115128080Y-88271394D01*
X115123686Y-88267000D01*
X116108000Y-88267000D01*
X116108000Y-87669172D01*
X116107999Y-87669155D01*
X116101598Y-87609627D01*
X116101596Y-87609620D01*
X116051354Y-87474913D01*
X116051350Y-87474906D01*
X115965190Y-87359812D01*
X115965187Y-87359809D01*
X115850093Y-87273649D01*
X115850086Y-87273645D01*
X115715379Y-87223403D01*
X115715372Y-87223401D01*
X115655844Y-87217000D01*
X115058000Y-87217000D01*
X115058000Y-88201314D01*
X115053606Y-88196920D01*
X114962394Y-88144259D01*
X114860661Y-88117000D01*
X114755339Y-88117000D01*
X114653606Y-88144259D01*
X114562394Y-88196920D01*
X114558000Y-88201314D01*
X114558000Y-87217000D01*
X113960155Y-87217000D01*
X113900627Y-87223401D01*
X113900620Y-87223403D01*
X113765913Y-87273645D01*
X113765906Y-87273649D01*
X113650812Y-87359809D01*
X113650809Y-87359812D01*
X113564649Y-87474906D01*
X113564645Y-87474913D01*
X113514403Y-87609620D01*
X113514401Y-87609627D01*
X113508000Y-87669155D01*
X113508000Y-88267000D01*
X114492314Y-88267000D01*
X114487920Y-88271394D01*
X114435259Y-88362606D01*
X114408000Y-88464339D01*
X114408000Y-88569661D01*
X114435259Y-88671394D01*
X114487920Y-88762606D01*
X114492314Y-88767000D01*
X113508000Y-88767000D01*
X113508000Y-89364844D01*
X113514401Y-89424372D01*
X113514403Y-89424379D01*
X113564645Y-89559086D01*
X113564649Y-89559093D01*
X113650809Y-89674187D01*
X113650812Y-89674190D01*
X113765906Y-89760350D01*
X113765913Y-89760354D01*
X113900622Y-89810597D01*
X113906334Y-89811947D01*
X113967052Y-89846517D01*
X113999441Y-89908427D01*
X113993218Y-89978018D01*
X113965507Y-90020306D01*
X113807951Y-90177862D01*
X113677432Y-90364265D01*
X113677431Y-90364267D01*
X113581261Y-90570502D01*
X113581258Y-90570511D01*
X113522366Y-90790302D01*
X113522364Y-90790313D01*
X113502532Y-91016998D01*
X102738680Y-91016998D01*
X102756935Y-90820000D01*
X102737236Y-90607414D01*
X102678810Y-90402067D01*
X102583646Y-90210952D01*
X102502810Y-90103908D01*
X102454983Y-90040575D01*
X102297210Y-89896747D01*
X102297209Y-89896746D01*
X102115690Y-89784354D01*
X102115688Y-89784353D01*
X102115687Y-89784352D01*
X101958786Y-89723569D01*
X101916610Y-89707230D01*
X101706748Y-89668000D01*
X101493252Y-89668000D01*
X101283390Y-89707230D01*
X101283387Y-89707230D01*
X101283387Y-89707231D01*
X101084312Y-89784352D01*
X101084311Y-89784353D01*
X100902789Y-89896747D01*
X100745016Y-90040575D01*
X100616354Y-90210951D01*
X100521191Y-90402063D01*
X100519418Y-90408296D01*
X100479064Y-90550127D01*
X100462763Y-90607418D01*
X100443065Y-90819999D01*
X100443065Y-90820000D01*
X100462763Y-91032581D01*
X100462763Y-91032583D01*
X100462764Y-91032586D01*
X100475663Y-91077920D01*
X100521191Y-91237936D01*
X100616354Y-91429048D01*
X100745016Y-91599424D01*
X100822141Y-91669732D01*
X100902791Y-91743254D01*
X101084310Y-91855646D01*
X101084311Y-91855646D01*
X101084312Y-91855647D01*
X101126486Y-91871985D01*
X101283390Y-91932770D01*
X101472449Y-91968111D01*
X101534730Y-91999779D01*
X101570003Y-92060092D01*
X101567069Y-92129900D01*
X101526860Y-92187040D01*
X101472449Y-92211888D01*
X101283390Y-92247230D01*
X101283387Y-92247230D01*
X101283387Y-92247231D01*
X101084312Y-92324352D01*
X101084311Y-92324353D01*
X100902789Y-92436747D01*
X100745016Y-92580576D01*
X100722625Y-92610227D01*
X100666516Y-92651863D01*
X100623671Y-92659500D01*
X93585004Y-92659500D01*
X93449677Y-92686418D01*
X93449667Y-92686421D01*
X93322192Y-92739222D01*
X93207454Y-92815887D01*
X93207453Y-92815888D01*
X92712661Y-93310681D01*
X92651338Y-93344166D01*
X92624980Y-93347000D01*
X92455236Y-93347000D01*
X92253208Y-93384766D01*
X92253205Y-93384766D01*
X92253205Y-93384767D01*
X92061558Y-93459010D01*
X92061557Y-93459011D01*
X91886813Y-93567209D01*
X91734929Y-93705668D01*
X91611070Y-93869685D01*
X91519459Y-94053663D01*
X91463212Y-94251353D01*
X91444249Y-94455999D01*
X86000000Y-94455999D01*
X86000000Y-93116449D01*
X86019685Y-93049410D01*
X86072489Y-93003655D01*
X86141647Y-92993711D01*
X86205203Y-93022736D01*
X86211681Y-93028768D01*
X86282858Y-93099945D01*
X86329693Y-93132739D01*
X86469266Y-93230468D01*
X86675504Y-93326639D01*
X86895308Y-93385535D01*
X87057230Y-93399701D01*
X87121998Y-93405368D01*
X87122000Y-93405368D01*
X87122002Y-93405368D01*
X87178673Y-93400409D01*
X87348692Y-93385535D01*
X87568496Y-93326639D01*
X87774734Y-93230468D01*
X87961139Y-93099947D01*
X88122047Y-92939039D01*
X88252568Y-92752634D01*
X88348739Y-92546396D01*
X88407635Y-92326592D01*
X88427468Y-92099900D01*
X88407635Y-91873208D01*
X88348739Y-91653404D01*
X88252568Y-91447166D01*
X88122047Y-91260761D01*
X88122045Y-91260758D01*
X87964913Y-91103626D01*
X87931428Y-91042303D01*
X87936412Y-90972611D01*
X87978284Y-90916678D01*
X88024078Y-90895268D01*
X88029480Y-90893991D01*
X88029483Y-90893991D01*
X88164331Y-90843696D01*
X88279546Y-90757446D01*
X88365796Y-90642231D01*
X88416091Y-90507383D01*
X88422500Y-90447773D01*
X88422500Y-90180500D01*
X88442185Y-90113461D01*
X88494989Y-90067706D01*
X88546500Y-90056500D01*
X93953539Y-90056500D01*
X94020578Y-90076185D01*
X94066333Y-90128989D01*
X94069721Y-90137167D01*
X94095702Y-90206828D01*
X94095706Y-90206835D01*
X94181952Y-90322044D01*
X94181955Y-90322047D01*
X94297164Y-90408293D01*
X94297171Y-90408297D01*
X94432017Y-90458591D01*
X94432016Y-90458591D01*
X94438944Y-90459335D01*
X94491627Y-90465000D01*
X95804372Y-90464999D01*
X95863983Y-90458591D01*
X95998831Y-90408296D01*
X96114046Y-90322046D01*
X96200296Y-90206831D01*
X96250591Y-90071983D01*
X96257000Y-90012373D01*
X96256999Y-88699628D01*
X96250591Y-88640017D01*
X96226278Y-88574831D01*
X96200297Y-88505171D01*
X96200293Y-88505164D01*
X96114047Y-88389955D01*
X96114044Y-88389952D01*
X95998835Y-88303706D01*
X95998828Y-88303702D01*
X95863982Y-88253408D01*
X95863983Y-88253408D01*
X95804383Y-88247001D01*
X95804381Y-88247000D01*
X95804373Y-88247000D01*
X95804364Y-88247000D01*
X94491629Y-88247000D01*
X94491623Y-88247001D01*
X94432016Y-88253408D01*
X94297171Y-88303702D01*
X94297164Y-88303706D01*
X94181955Y-88389952D01*
X94181952Y-88389955D01*
X94095706Y-88505164D01*
X94095702Y-88505171D01*
X94069721Y-88574833D01*
X94027850Y-88630766D01*
X93962386Y-88655184D01*
X93953539Y-88655500D01*
X88488417Y-88655500D01*
X88421378Y-88635815D01*
X88375623Y-88583011D01*
X88372234Y-88574831D01*
X88365796Y-88557569D01*
X88365793Y-88557564D01*
X88279547Y-88442355D01*
X88279544Y-88442352D01*
X88164335Y-88356106D01*
X88164328Y-88356102D01*
X88029482Y-88305808D01*
X88029483Y-88305808D01*
X87969883Y-88299401D01*
X87969881Y-88299400D01*
X87969873Y-88299400D01*
X87969864Y-88299400D01*
X86274129Y-88299400D01*
X86274123Y-88299401D01*
X86214516Y-88305808D01*
X86167333Y-88323407D01*
X86097641Y-88328391D01*
X86036318Y-88294905D01*
X86002834Y-88233582D01*
X86000000Y-88207225D01*
X86000000Y-83359427D01*
X86019685Y-83292388D01*
X86072489Y-83246633D01*
X86141647Y-83236689D01*
X86205203Y-83265714D01*
X86223264Y-83285113D01*
X86295454Y-83381546D01*
X86327336Y-83405413D01*
X86410664Y-83467793D01*
X86410671Y-83467797D01*
X86545517Y-83518091D01*
X86545516Y-83518091D01*
X86552444Y-83518835D01*
X86605127Y-83524500D01*
X88400872Y-83524499D01*
X88460483Y-83518091D01*
X88595331Y-83467796D01*
X88710546Y-83381546D01*
X88796796Y-83266331D01*
X88847091Y-83131483D01*
X88853500Y-83071873D01*
X88853499Y-81276128D01*
X88847091Y-81216517D01*
X88835141Y-81184478D01*
X88796797Y-81081671D01*
X88796792Y-81081662D01*
X88710547Y-80966455D01*
X88710544Y-80966452D01*
X88595335Y-80880206D01*
X88595328Y-80880202D01*
X88463917Y-80831189D01*
X88407983Y-80789318D01*
X88383566Y-80723853D01*
X88398418Y-80655580D01*
X88419563Y-80627332D01*
X88541495Y-80505401D01*
X88624136Y-80387376D01*
X88678713Y-80343752D01*
X88725711Y-80334500D01*
X88877781Y-80334500D01*
X88944820Y-80354185D01*
X88965462Y-80370819D01*
X93678753Y-85084111D01*
X93678754Y-85084112D01*
X93793492Y-85160777D01*
X93920967Y-85213578D01*
X93920972Y-85213580D01*
X93920976Y-85213580D01*
X93920977Y-85213581D01*
X94056303Y-85240500D01*
X94056306Y-85240500D01*
X94056307Y-85240500D01*
X94154289Y-85240500D01*
X94221328Y-85260185D01*
X94255864Y-85293377D01*
X94338505Y-85411402D01*
X94430195Y-85503091D01*
X94505599Y-85578495D01*
X94569766Y-85623425D01*
X94699165Y-85714032D01*
X94699167Y-85714033D01*
X94699170Y-85714035D01*
X94913337Y-85813903D01*
X95141592Y-85875063D01*
X95329918Y-85891539D01*
X95376999Y-85895659D01*
X95377000Y-85895659D01*
X95377001Y-85895659D01*
X95416234Y-85892226D01*
X95612408Y-85875063D01*
X95840663Y-85813903D01*
X96054830Y-85714035D01*
X96248401Y-85578495D01*
X96415495Y-85411401D01*
X96551035Y-85217830D01*
X96650903Y-85003663D01*
X96712063Y-84775408D01*
X96732659Y-84540000D01*
X96712063Y-84304592D01*
X96650903Y-84076337D01*
X96551035Y-83862171D01*
X96522050Y-83820775D01*
X96415494Y-83668597D01*
X96248401Y-83501505D01*
X96248396Y-83501501D01*
X96062842Y-83371575D01*
X96019217Y-83316998D01*
X96012023Y-83247500D01*
X96043546Y-83185145D01*
X96062842Y-83168425D01*
X96131277Y-83120506D01*
X96248401Y-83038495D01*
X96415495Y-82871401D01*
X96551035Y-82677830D01*
X96650903Y-82463663D01*
X96712063Y-82235408D01*
X96732659Y-82000000D01*
X96712063Y-81764592D01*
X96660593Y-81572500D01*
X96650905Y-81536344D01*
X96650904Y-81536343D01*
X96650903Y-81536337D01*
X96551035Y-81322171D01*
X96545548Y-81314335D01*
X96415496Y-81128600D01*
X96354633Y-81067737D01*
X96293567Y-81006671D01*
X96260084Y-80945351D01*
X96265068Y-80875659D01*
X96306939Y-80819725D01*
X96337915Y-80802810D01*
X96469331Y-80753796D01*
X96584546Y-80667546D01*
X96670796Y-80552331D01*
X96721091Y-80417483D01*
X96727500Y-80357873D01*
X96727499Y-78562128D01*
X96722299Y-78513757D01*
X96721091Y-78502516D01*
X96670797Y-78367671D01*
X96670793Y-78367664D01*
X96584547Y-78252455D01*
X96584544Y-78252452D01*
X96469335Y-78166206D01*
X96469328Y-78166202D01*
X96345451Y-78119999D01*
X100443065Y-78119999D01*
X100443065Y-78120000D01*
X100462763Y-78332581D01*
X100462763Y-78332583D01*
X100462764Y-78332586D01*
X100512573Y-78507647D01*
X100521191Y-78537936D01*
X100616354Y-78729048D01*
X100745016Y-78899424D01*
X100869851Y-79013225D01*
X100902791Y-79043254D01*
X101084310Y-79155646D01*
X101084311Y-79155646D01*
X101084312Y-79155647D01*
X101122232Y-79170337D01*
X101283390Y-79232770D01*
X101473812Y-79268366D01*
X101536091Y-79300033D01*
X101571364Y-79360346D01*
X101568430Y-79430154D01*
X101528221Y-79487294D01*
X101473810Y-79512143D01*
X101283529Y-79547713D01*
X101283528Y-79547713D01*
X101084535Y-79624803D01*
X101084532Y-79624804D01*
X100981901Y-79688349D01*
X101573554Y-80280000D01*
X101549972Y-80280000D01*
X101453325Y-80305896D01*
X101366675Y-80355924D01*
X101295924Y-80426675D01*
X101245896Y-80513325D01*
X101220000Y-80609972D01*
X101220000Y-80633553D01*
X100625765Y-80039318D01*
X100625764Y-80039318D01*
X100616780Y-80051216D01*
X100521662Y-80242237D01*
X100521658Y-80242249D01*
X100463257Y-80447504D01*
X100443567Y-80659999D01*
X100443567Y-80660000D01*
X100463257Y-80872495D01*
X100521656Y-81077747D01*
X100521662Y-81077762D01*
X100616777Y-81268777D01*
X100616785Y-81268790D01*
X100625764Y-81280680D01*
X101220000Y-80686445D01*
X101220000Y-80710028D01*
X101245896Y-80806675D01*
X101295924Y-80893325D01*
X101366675Y-80964076D01*
X101453325Y-81014104D01*
X101549972Y-81040000D01*
X101573553Y-81040000D01*
X100981901Y-81631649D01*
X100981902Y-81631650D01*
X101084529Y-81695194D01*
X101084535Y-81695196D01*
X101283528Y-81772286D01*
X101473810Y-81807856D01*
X101536091Y-81839524D01*
X101571364Y-81899836D01*
X101568430Y-81969644D01*
X101528222Y-82026785D01*
X101473811Y-82051634D01*
X101402181Y-82065023D01*
X101283390Y-82087230D01*
X101283388Y-82087230D01*
X101283386Y-82087231D01*
X101084312Y-82164352D01*
X101084311Y-82164353D01*
X100902789Y-82276747D01*
X100745016Y-82420575D01*
X100616354Y-82590951D01*
X100521191Y-82782063D01*
X100515137Y-82803341D01*
X100472996Y-82951454D01*
X100462763Y-82987418D01*
X100443065Y-83199999D01*
X100443065Y-83200000D01*
X100462763Y-83412581D01*
X100462763Y-83412583D01*
X100462764Y-83412586D01*
X100520323Y-83614887D01*
X100521191Y-83617936D01*
X100616354Y-83809048D01*
X100745016Y-83979424D01*
X100851333Y-84076344D01*
X100902791Y-84123254D01*
X101084310Y-84235646D01*
X101084311Y-84235646D01*
X101084312Y-84235647D01*
X101126486Y-84251985D01*
X101283390Y-84312770D01*
X101472449Y-84348111D01*
X101534730Y-84379779D01*
X101570003Y-84440092D01*
X101567069Y-84509900D01*
X101526860Y-84567040D01*
X101472449Y-84591888D01*
X101283390Y-84627230D01*
X101283387Y-84627230D01*
X101283387Y-84627231D01*
X101084312Y-84704352D01*
X101084311Y-84704353D01*
X100902789Y-84816747D01*
X100745016Y-84960575D01*
X100616354Y-85130951D01*
X100521191Y-85322063D01*
X100518070Y-85333032D01*
X100469685Y-85503091D01*
X100462763Y-85527418D01*
X100443065Y-85739999D01*
X100443065Y-85740000D01*
X100462763Y-85952581D01*
X100462763Y-85952583D01*
X100462764Y-85952586D01*
X100487391Y-86039141D01*
X100521191Y-86157936D01*
X100616354Y-86349048D01*
X100745016Y-86519424D01*
X100880745Y-86643157D01*
X100902791Y-86663254D01*
X101084310Y-86775646D01*
X101084311Y-86775646D01*
X101084312Y-86775647D01*
X101126486Y-86791985D01*
X101283390Y-86852770D01*
X101493252Y-86892000D01*
X101493254Y-86892000D01*
X101706746Y-86892000D01*
X101706748Y-86892000D01*
X101916610Y-86852770D01*
X102115690Y-86775646D01*
X102297209Y-86663254D01*
X102454985Y-86519422D01*
X102583646Y-86349048D01*
X102678810Y-86157933D01*
X102737236Y-85952586D01*
X102756935Y-85740000D01*
X102737236Y-85527414D01*
X102678810Y-85322067D01*
X102583646Y-85130952D01*
X102497311Y-85016626D01*
X102454983Y-84960575D01*
X102297210Y-84816747D01*
X102297209Y-84816746D01*
X102115690Y-84704354D01*
X102115688Y-84704353D01*
X102115687Y-84704352D01*
X101958786Y-84643569D01*
X101916610Y-84627230D01*
X101727548Y-84591888D01*
X101665269Y-84560221D01*
X101629996Y-84499908D01*
X101632930Y-84430100D01*
X101673139Y-84372960D01*
X101727548Y-84348111D01*
X101916610Y-84312770D01*
X102115690Y-84235646D01*
X102297209Y-84123254D01*
X102454985Y-83979422D01*
X102477375Y-83949773D01*
X102533484Y-83908137D01*
X102576329Y-83900500D01*
X112921196Y-83900500D01*
X113012240Y-83882389D01*
X113056528Y-83873580D01*
X113151547Y-83834222D01*
X113184007Y-83820777D01*
X113184008Y-83820776D01*
X113184011Y-83820775D01*
X113298743Y-83744114D01*
X113650817Y-83392038D01*
X113712136Y-83358556D01*
X113781828Y-83363540D01*
X113837760Y-83405409D01*
X113842354Y-83411546D01*
X113848980Y-83416506D01*
X113957564Y-83497793D01*
X113957571Y-83497797D01*
X113967513Y-83501505D01*
X114092417Y-83548091D01*
X114152027Y-83554500D01*
X114152053Y-83554499D01*
X114155353Y-83554678D01*
X114155272Y-83556183D01*
X114216572Y-83574112D01*
X114262383Y-83626867D01*
X114269916Y-83670464D01*
X114953453Y-84354000D01*
X114947239Y-84354000D01*
X114845506Y-84381259D01*
X114754294Y-84433920D01*
X114679820Y-84508394D01*
X114627159Y-84599606D01*
X114599900Y-84701339D01*
X114599900Y-84707552D01*
X113920874Y-84028526D01*
X113920873Y-84028526D01*
X113869768Y-84101512D01*
X113869766Y-84101516D01*
X113773634Y-84307673D01*
X113773630Y-84307682D01*
X113714760Y-84527389D01*
X113714758Y-84527400D01*
X113694934Y-84753997D01*
X113694934Y-84754002D01*
X113714758Y-84980599D01*
X113714760Y-84980610D01*
X113773630Y-85200317D01*
X113773635Y-85200331D01*
X113869763Y-85406478D01*
X113920874Y-85479472D01*
X114599900Y-84800446D01*
X114599900Y-84806661D01*
X114627159Y-84908394D01*
X114679820Y-84999606D01*
X114754294Y-85074080D01*
X114845506Y-85126741D01*
X114947239Y-85154000D01*
X114953453Y-85154000D01*
X114274426Y-85833025D01*
X114347413Y-85884132D01*
X114347421Y-85884136D01*
X114553568Y-85980264D01*
X114553582Y-85980269D01*
X114773289Y-86039139D01*
X114773300Y-86039141D01*
X114999898Y-86058966D01*
X114999902Y-86058966D01*
X115226499Y-86039141D01*
X115226510Y-86039139D01*
X115446217Y-85980269D01*
X115446231Y-85980264D01*
X115652378Y-85884136D01*
X115725371Y-85833024D01*
X115046347Y-85154000D01*
X115052561Y-85154000D01*
X115154294Y-85126741D01*
X115245506Y-85074080D01*
X115319980Y-84999606D01*
X115372641Y-84908394D01*
X115399900Y-84806661D01*
X115399900Y-84800447D01*
X116078924Y-85479471D01*
X116130036Y-85406478D01*
X116226164Y-85200331D01*
X116226169Y-85200317D01*
X116285039Y-84980610D01*
X116285041Y-84980599D01*
X116304866Y-84754002D01*
X116304866Y-84753997D01*
X116285041Y-84527400D01*
X116285039Y-84527389D01*
X116226169Y-84307682D01*
X116226164Y-84307668D01*
X116130036Y-84101521D01*
X116130032Y-84101513D01*
X116078925Y-84028526D01*
X115399900Y-84707551D01*
X115399900Y-84701339D01*
X115372641Y-84599606D01*
X115319980Y-84508394D01*
X115245506Y-84433920D01*
X115154294Y-84381259D01*
X115052561Y-84354000D01*
X115046345Y-84354000D01*
X115730546Y-83669800D01*
X115740392Y-83620807D01*
X115789007Y-83570624D01*
X115844533Y-83555981D01*
X115844476Y-83554900D01*
X115844471Y-83554854D01*
X115844473Y-83554853D01*
X115844464Y-83554676D01*
X115847757Y-83554499D01*
X115847772Y-83554499D01*
X115907383Y-83548091D01*
X116042231Y-83497796D01*
X116157446Y-83411546D01*
X116162037Y-83405412D01*
X116217970Y-83363541D01*
X116287662Y-83358557D01*
X116348982Y-83392039D01*
X116348985Y-83392042D01*
X116963053Y-84006111D01*
X116963054Y-84006112D01*
X117077792Y-84082777D01*
X117175509Y-84123252D01*
X117205272Y-84135580D01*
X117205276Y-84135580D01*
X117205277Y-84135581D01*
X117340603Y-84162500D01*
X117340606Y-84162500D01*
X117340607Y-84162500D01*
X119979500Y-84162500D01*
X120046539Y-84182185D01*
X120092294Y-84234989D01*
X120103500Y-84286500D01*
X120103500Y-84352701D01*
X120106401Y-84389567D01*
X120106402Y-84389573D01*
X120152254Y-84547393D01*
X120152255Y-84547396D01*
X120152256Y-84547398D01*
X120163872Y-84567040D01*
X120235917Y-84688862D01*
X120235923Y-84688870D01*
X120352129Y-84805076D01*
X120352133Y-84805079D01*
X120352135Y-84805081D01*
X120493602Y-84888744D01*
X120512254Y-84894163D01*
X120651426Y-84934597D01*
X120651429Y-84934597D01*
X120651431Y-84934598D01*
X120688306Y-84937500D01*
X120688314Y-84937500D01*
X121119686Y-84937500D01*
X121119694Y-84937500D01*
X121156569Y-84934598D01*
X121156571Y-84934597D01*
X121156573Y-84934597D01*
X121198191Y-84922505D01*
X121314398Y-84888744D01*
X121455865Y-84805081D01*
X121455870Y-84805075D01*
X121462031Y-84800298D01*
X121463933Y-84802750D01*
X121512579Y-84776155D01*
X121582274Y-84781104D01*
X121614695Y-84801940D01*
X121615969Y-84800298D01*
X121622132Y-84805078D01*
X121622135Y-84805081D01*
X121763602Y-84888744D01*
X121782254Y-84894163D01*
X121921426Y-84934597D01*
X121921429Y-84934597D01*
X121921431Y-84934598D01*
X121958306Y-84937500D01*
X121958314Y-84937500D01*
X122389686Y-84937500D01*
X122389694Y-84937500D01*
X122426569Y-84934598D01*
X122565745Y-84894163D01*
X122635614Y-84894362D01*
X122694284Y-84932304D01*
X122723128Y-84995942D01*
X122712987Y-85065072D01*
X122688021Y-85100920D01*
X120888762Y-86900181D01*
X120827439Y-86933666D01*
X120801081Y-86936500D01*
X120688298Y-86936500D01*
X120651432Y-86939401D01*
X120651426Y-86939402D01*
X120493606Y-86985254D01*
X120493603Y-86985255D01*
X120352137Y-87068917D01*
X120352129Y-87068923D01*
X120235923Y-87185129D01*
X120235917Y-87185137D01*
X120152255Y-87326603D01*
X120152254Y-87326606D01*
X120106402Y-87484426D01*
X120106401Y-87484432D01*
X120103500Y-87521298D01*
X120103500Y-89302701D01*
X120106401Y-89339567D01*
X120106402Y-89339573D01*
X120152254Y-89497393D01*
X120152255Y-89497396D01*
X120235917Y-89638862D01*
X120235923Y-89638870D01*
X120352129Y-89755076D01*
X120352133Y-89755079D01*
X120352135Y-89755081D01*
X120493602Y-89838744D01*
X120520357Y-89846517D01*
X120651426Y-89884597D01*
X120651429Y-89884597D01*
X120651431Y-89884598D01*
X120688306Y-89887500D01*
X120688314Y-89887500D01*
X121119686Y-89887500D01*
X121119694Y-89887500D01*
X121156569Y-89884598D01*
X121156571Y-89884597D01*
X121156573Y-89884597D01*
X121198191Y-89872505D01*
X121314398Y-89838744D01*
X121455865Y-89755081D01*
X121455870Y-89755075D01*
X121462031Y-89750298D01*
X121463933Y-89752750D01*
X121512579Y-89726155D01*
X121582274Y-89731104D01*
X121614695Y-89751940D01*
X121615969Y-89750298D01*
X121622132Y-89755078D01*
X121622135Y-89755081D01*
X121763602Y-89838744D01*
X121790357Y-89846517D01*
X121921426Y-89884597D01*
X121921429Y-89884597D01*
X121921431Y-89884598D01*
X121958306Y-89887500D01*
X121958314Y-89887500D01*
X122389686Y-89887500D01*
X122389694Y-89887500D01*
X122426569Y-89884598D01*
X122426571Y-89884597D01*
X122426573Y-89884597D01*
X122468191Y-89872505D01*
X122584398Y-89838744D01*
X122725865Y-89755081D01*
X122725870Y-89755075D01*
X122732031Y-89750298D01*
X122733933Y-89752750D01*
X122782579Y-89726155D01*
X122852274Y-89731104D01*
X122884695Y-89751940D01*
X122885969Y-89750298D01*
X122892132Y-89755078D01*
X122892135Y-89755081D01*
X123033602Y-89838744D01*
X123060357Y-89846517D01*
X123191426Y-89884597D01*
X123191429Y-89884597D01*
X123191431Y-89884598D01*
X123228306Y-89887500D01*
X123319881Y-89887500D01*
X123386920Y-89907185D01*
X123407562Y-89923819D01*
X124639627Y-91155884D01*
X124673112Y-91217207D01*
X124668128Y-91286899D01*
X124626256Y-91342832D01*
X124560792Y-91367249D01*
X124541140Y-91367093D01*
X124489003Y-91362532D01*
X124488998Y-91362532D01*
X124262313Y-91382364D01*
X124262302Y-91382366D01*
X124042511Y-91441258D01*
X124042502Y-91441261D01*
X123836267Y-91537431D01*
X123836265Y-91537432D01*
X123649858Y-91667954D01*
X123488954Y-91828858D01*
X123428902Y-91914623D01*
X123374325Y-91958248D01*
X123327327Y-91967500D01*
X122573673Y-91967500D01*
X122506634Y-91947815D01*
X122472098Y-91914623D01*
X122412045Y-91828858D01*
X122251141Y-91667954D01*
X122064734Y-91537432D01*
X122064732Y-91537431D01*
X121858497Y-91441261D01*
X121858488Y-91441258D01*
X121638697Y-91382366D01*
X121638693Y-91382365D01*
X121638692Y-91382365D01*
X121638691Y-91382364D01*
X121638686Y-91382364D01*
X121412002Y-91362532D01*
X121411998Y-91362532D01*
X121185313Y-91382364D01*
X121185302Y-91382366D01*
X120965511Y-91441258D01*
X120965502Y-91441261D01*
X120759267Y-91537431D01*
X120759265Y-91537432D01*
X120572858Y-91667954D01*
X120411954Y-91828858D01*
X120281432Y-92015265D01*
X120281431Y-92015267D01*
X120254382Y-92073275D01*
X120208209Y-92125714D01*
X120141016Y-92144866D01*
X120074135Y-92124650D01*
X120029618Y-92073275D01*
X120023471Y-92060092D01*
X120002568Y-92015266D01*
X119903095Y-91873202D01*
X119872045Y-91828858D01*
X119711141Y-91667954D01*
X119524734Y-91537432D01*
X119524732Y-91537431D01*
X119318497Y-91441261D01*
X119318488Y-91441258D01*
X119098697Y-91382366D01*
X119098693Y-91382365D01*
X119098692Y-91382365D01*
X119098691Y-91382364D01*
X119098686Y-91382364D01*
X118872002Y-91362532D01*
X118871998Y-91362532D01*
X118645313Y-91382364D01*
X118645302Y-91382366D01*
X118425511Y-91441258D01*
X118425502Y-91441261D01*
X118219267Y-91537431D01*
X118219265Y-91537432D01*
X118032858Y-91667954D01*
X117871954Y-91828858D01*
X117741432Y-92015265D01*
X117741431Y-92015267D01*
X117645261Y-92221502D01*
X117645258Y-92221511D01*
X117586366Y-92441302D01*
X117586364Y-92441313D01*
X117566532Y-92667998D01*
X117566532Y-92668000D01*
X117586364Y-92894686D01*
X117586366Y-92894697D01*
X117645258Y-93114488D01*
X117645261Y-93114497D01*
X117741431Y-93320732D01*
X117741432Y-93320734D01*
X117871954Y-93507141D01*
X118032858Y-93668045D01*
X118032861Y-93668047D01*
X118219266Y-93798568D01*
X118425504Y-93894739D01*
X118645308Y-93953635D01*
X118807230Y-93967801D01*
X118871998Y-93973468D01*
X118872000Y-93973468D01*
X118872002Y-93973468D01*
X118928673Y-93968509D01*
X119098692Y-93953635D01*
X119318496Y-93894739D01*
X119524734Y-93798568D01*
X119711139Y-93668047D01*
X119872047Y-93507139D01*
X120002568Y-93320734D01*
X120029618Y-93262724D01*
X120075790Y-93210285D01*
X120142983Y-93191133D01*
X120209865Y-93211348D01*
X120254382Y-93262725D01*
X120281429Y-93320728D01*
X120281432Y-93320734D01*
X120411954Y-93507141D01*
X120572858Y-93668045D01*
X120572861Y-93668047D01*
X120759266Y-93798568D01*
X120965504Y-93894739D01*
X121185308Y-93953635D01*
X121347230Y-93967801D01*
X121411998Y-93973468D01*
X121412000Y-93973468D01*
X121412002Y-93973468D01*
X121468673Y-93968509D01*
X121638692Y-93953635D01*
X121858496Y-93894739D01*
X122064734Y-93798568D01*
X122251139Y-93668047D01*
X122412047Y-93507139D01*
X122472098Y-93421377D01*
X122526675Y-93377752D01*
X122573673Y-93368500D01*
X123327327Y-93368500D01*
X123394366Y-93388185D01*
X123428902Y-93421377D01*
X123488954Y-93507141D01*
X123649858Y-93668045D01*
X123649861Y-93668047D01*
X123836266Y-93798568D01*
X124042504Y-93894739D01*
X124262308Y-93953635D01*
X124424230Y-93967801D01*
X124488998Y-93973468D01*
X124489000Y-93973468D01*
X124489002Y-93973468D01*
X124545673Y-93968509D01*
X124715692Y-93953635D01*
X124935496Y-93894739D01*
X125141734Y-93798568D01*
X125328139Y-93668047D01*
X125489047Y-93507139D01*
X125619568Y-93320734D01*
X125646893Y-93262134D01*
X125693065Y-93209695D01*
X125760258Y-93190543D01*
X125827139Y-93210758D01*
X125871657Y-93262134D01*
X125898864Y-93320480D01*
X125949974Y-93393472D01*
X126629000Y-92714446D01*
X126629000Y-92720661D01*
X126656259Y-92822394D01*
X126708920Y-92913606D01*
X126783394Y-92988080D01*
X126874606Y-93040741D01*
X126976339Y-93068000D01*
X126982553Y-93068000D01*
X126303526Y-93747025D01*
X126376513Y-93798132D01*
X126376521Y-93798136D01*
X126582668Y-93894264D01*
X126582682Y-93894269D01*
X126802389Y-93953139D01*
X126802400Y-93953141D01*
X127028998Y-93972966D01*
X127029002Y-93972966D01*
X127255599Y-93953141D01*
X127255610Y-93953139D01*
X127475317Y-93894269D01*
X127475331Y-93894264D01*
X127681478Y-93798136D01*
X127754471Y-93747024D01*
X127075447Y-93068000D01*
X127081661Y-93068000D01*
X127183394Y-93040741D01*
X127274606Y-92988080D01*
X127349080Y-92913606D01*
X127401741Y-92822394D01*
X127429000Y-92720661D01*
X127429000Y-92714447D01*
X128108024Y-93393471D01*
X128159136Y-93320478D01*
X128255264Y-93114331D01*
X128255269Y-93114317D01*
X128314139Y-92894610D01*
X128314141Y-92894599D01*
X128333966Y-92668000D01*
X128333966Y-92667997D01*
X128314141Y-92441400D01*
X128314139Y-92441389D01*
X128264088Y-92254593D01*
X128265751Y-92184743D01*
X128304914Y-92126881D01*
X128369142Y-92099377D01*
X128383863Y-92098500D01*
X129131501Y-92098500D01*
X129198540Y-92118185D01*
X129244295Y-92170989D01*
X129255501Y-92222500D01*
X129255501Y-92245876D01*
X129261908Y-92305483D01*
X129312202Y-92440328D01*
X129312206Y-92440335D01*
X129398452Y-92555544D01*
X129398455Y-92555547D01*
X129513664Y-92641793D01*
X129513671Y-92641797D01*
X129648517Y-92692091D01*
X129648516Y-92692091D01*
X129655444Y-92692835D01*
X129708127Y-92698500D01*
X131403872Y-92698499D01*
X131463483Y-92692091D01*
X131598331Y-92641796D01*
X131713546Y-92555546D01*
X131799796Y-92440331D01*
X131850091Y-92305483D01*
X131856500Y-92245873D01*
X131856499Y-92245845D01*
X131856678Y-92242547D01*
X131858183Y-92242627D01*
X131876112Y-92181326D01*
X131928868Y-92135514D01*
X131972465Y-92127981D01*
X132656000Y-91444446D01*
X132656000Y-91450661D01*
X132683259Y-91552394D01*
X132735920Y-91643606D01*
X132810394Y-91718080D01*
X132901606Y-91770741D01*
X133003339Y-91798000D01*
X133009553Y-91798000D01*
X132330526Y-92477025D01*
X132403513Y-92528132D01*
X132403521Y-92528136D01*
X132609668Y-92624264D01*
X132609682Y-92624269D01*
X132829389Y-92683139D01*
X132829400Y-92683141D01*
X133055998Y-92702966D01*
X133056002Y-92702966D01*
X133282599Y-92683141D01*
X133282610Y-92683139D01*
X133502317Y-92624269D01*
X133502331Y-92624264D01*
X133708478Y-92528136D01*
X133781471Y-92477024D01*
X133102447Y-91798000D01*
X133108661Y-91798000D01*
X133210394Y-91770741D01*
X133301606Y-91718080D01*
X133376080Y-91643606D01*
X133428741Y-91552394D01*
X133456000Y-91450661D01*
X133456000Y-91444447D01*
X134135024Y-92123471D01*
X134186136Y-92050478D01*
X134282264Y-91844331D01*
X134282269Y-91844317D01*
X134341139Y-91624610D01*
X134341141Y-91624599D01*
X134360966Y-91398002D01*
X134360966Y-91397997D01*
X134341141Y-91171400D01*
X134341139Y-91171389D01*
X134282269Y-90951682D01*
X134282264Y-90951668D01*
X134186136Y-90745521D01*
X134186132Y-90745513D01*
X134135025Y-90672526D01*
X133456000Y-91351551D01*
X133456000Y-91345339D01*
X133428741Y-91243606D01*
X133376080Y-91152394D01*
X133301606Y-91077920D01*
X133210394Y-91025259D01*
X133108661Y-90998000D01*
X133102445Y-90998000D01*
X133781472Y-90318974D01*
X133708478Y-90267863D01*
X133502331Y-90171735D01*
X133502317Y-90171730D01*
X133282610Y-90112860D01*
X133282599Y-90112858D01*
X133056002Y-90093034D01*
X133055998Y-90093034D01*
X132829400Y-90112858D01*
X132829389Y-90112860D01*
X132609682Y-90171730D01*
X132609673Y-90171734D01*
X132403516Y-90267866D01*
X132403512Y-90267868D01*
X132330526Y-90318973D01*
X132330526Y-90318974D01*
X133009553Y-90998000D01*
X133003339Y-90998000D01*
X132901606Y-91025259D01*
X132810394Y-91077920D01*
X132735920Y-91152394D01*
X132683259Y-91243606D01*
X132656000Y-91345339D01*
X132656000Y-91351552D01*
X131971799Y-90667351D01*
X131922805Y-90657505D01*
X131872622Y-90608889D01*
X131857981Y-90553366D01*
X131856900Y-90553423D01*
X131856854Y-90553429D01*
X131856853Y-90553426D01*
X131856676Y-90553436D01*
X131856499Y-90550135D01*
X131856499Y-90550128D01*
X131850091Y-90490517D01*
X131840573Y-90464999D01*
X131799797Y-90355671D01*
X131799793Y-90355664D01*
X131713547Y-90240455D01*
X131713544Y-90240452D01*
X131598335Y-90154206D01*
X131598328Y-90154202D01*
X131463482Y-90103908D01*
X131463483Y-90103908D01*
X131403883Y-90097501D01*
X131403881Y-90097500D01*
X131403873Y-90097500D01*
X131403864Y-90097500D01*
X129708129Y-90097500D01*
X129708123Y-90097501D01*
X129648516Y-90103908D01*
X129513671Y-90154202D01*
X129513664Y-90154206D01*
X129398455Y-90240452D01*
X129398452Y-90240455D01*
X129312206Y-90355664D01*
X129312202Y-90355671D01*
X129261908Y-90490517D01*
X129255501Y-90550116D01*
X129255501Y-90550123D01*
X129255500Y-90550135D01*
X129255500Y-90573500D01*
X129235815Y-90640539D01*
X129183011Y-90686294D01*
X129131500Y-90697500D01*
X126742040Y-90697500D01*
X126675001Y-90677815D01*
X126629246Y-90625011D01*
X126619302Y-90555853D01*
X126648327Y-90492297D01*
X126654359Y-90485819D01*
X126692414Y-90447764D01*
X126756516Y-90383662D01*
X126852489Y-90230922D01*
X126912068Y-90060655D01*
X126914330Y-90040578D01*
X126932265Y-89881403D01*
X126932265Y-89881396D01*
X126912069Y-89702150D01*
X126912068Y-89702145D01*
X126852488Y-89531876D01*
X126756515Y-89379137D01*
X126701559Y-89324181D01*
X126668074Y-89262858D01*
X126673058Y-89193166D01*
X126714930Y-89137233D01*
X126780394Y-89112816D01*
X126789240Y-89112500D01*
X133290296Y-89112500D01*
X133381340Y-89094389D01*
X133425628Y-89085580D01*
X133489369Y-89059177D01*
X133553107Y-89032777D01*
X133553108Y-89032776D01*
X133553111Y-89032775D01*
X133667843Y-88956114D01*
X137256850Y-85367105D01*
X137318171Y-85333622D01*
X137387863Y-85338606D01*
X137432210Y-85367106D01*
X137558599Y-85493495D01*
X137558602Y-85493497D01*
X137558603Y-85493498D01*
X137744158Y-85623425D01*
X137787783Y-85678002D01*
X137794977Y-85747500D01*
X137763454Y-85809855D01*
X137744158Y-85826575D01*
X137558597Y-85956505D01*
X137391505Y-86123597D01*
X137255965Y-86317169D01*
X137255964Y-86317171D01*
X137156098Y-86531335D01*
X137156094Y-86531344D01*
X137094938Y-86759586D01*
X137094936Y-86759596D01*
X137074341Y-86994999D01*
X137074341Y-86995000D01*
X137094936Y-87230403D01*
X137094938Y-87230413D01*
X137156094Y-87458655D01*
X137156096Y-87458659D01*
X137156097Y-87458663D01*
X137216175Y-87587500D01*
X137255965Y-87672830D01*
X137255967Y-87672834D01*
X137391501Y-87866395D01*
X137391506Y-87866402D01*
X137558597Y-88033493D01*
X137558603Y-88033498D01*
X137744594Y-88163730D01*
X137788219Y-88218307D01*
X137795413Y-88287805D01*
X137763890Y-88350160D01*
X137744595Y-88366880D01*
X137558922Y-88496890D01*
X137558920Y-88496891D01*
X137391891Y-88663920D01*
X137391886Y-88663926D01*
X137256400Y-88857420D01*
X137256399Y-88857422D01*
X137156570Y-89071507D01*
X137156567Y-89071513D01*
X137099364Y-89284999D01*
X137099364Y-89285000D01*
X137996988Y-89285000D01*
X137964075Y-89342007D01*
X137930000Y-89469174D01*
X137930000Y-89600826D01*
X137964075Y-89727993D01*
X137996988Y-89785000D01*
X137099364Y-89785000D01*
X137156567Y-89998486D01*
X137156570Y-89998492D01*
X137256399Y-90212578D01*
X137391894Y-90406082D01*
X137558917Y-90573105D01*
X137752421Y-90708600D01*
X137966507Y-90808429D01*
X137966516Y-90808433D01*
X138180000Y-90865634D01*
X138180000Y-89968012D01*
X138237007Y-90000925D01*
X138364174Y-90035000D01*
X138495826Y-90035000D01*
X138622993Y-90000925D01*
X138680000Y-89968012D01*
X138680000Y-90865633D01*
X138893483Y-90808433D01*
X138893492Y-90808429D01*
X139107578Y-90708600D01*
X139301082Y-90573105D01*
X139468105Y-90406082D01*
X139603600Y-90212578D01*
X139703429Y-89998492D01*
X139703432Y-89998486D01*
X139760636Y-89785000D01*
X138863012Y-89785000D01*
X138895925Y-89727993D01*
X138930000Y-89600826D01*
X138930000Y-89469174D01*
X138895925Y-89342007D01*
X138863012Y-89285000D01*
X139760636Y-89285000D01*
X139760635Y-89284999D01*
X139703432Y-89071513D01*
X139703429Y-89071507D01*
X139603600Y-88857422D01*
X139603599Y-88857420D01*
X139468113Y-88663926D01*
X139468108Y-88663920D01*
X139301078Y-88496890D01*
X139115405Y-88366879D01*
X139071780Y-88312302D01*
X139064588Y-88242804D01*
X139096110Y-88180449D01*
X139115406Y-88163730D01*
X139301401Y-88033495D01*
X139468495Y-87866401D01*
X139604035Y-87672830D01*
X139703903Y-87458663D01*
X139765063Y-87230408D01*
X139785659Y-86995000D01*
X139784806Y-86985256D01*
X139773020Y-86850537D01*
X139765063Y-86759592D01*
X139703903Y-86531337D01*
X139604035Y-86317171D01*
X139468495Y-86123599D01*
X139468494Y-86123597D01*
X139301402Y-85956506D01*
X139301396Y-85956501D01*
X139115842Y-85826575D01*
X139072217Y-85771998D01*
X139065023Y-85702500D01*
X139096546Y-85640145D01*
X139115842Y-85623425D01*
X139180004Y-85578498D01*
X139301401Y-85493495D01*
X139468495Y-85326401D01*
X139551136Y-85208376D01*
X139605713Y-85164752D01*
X139652711Y-85155500D01*
X142160289Y-85155500D01*
X142227328Y-85175185D01*
X142261864Y-85208377D01*
X142344505Y-85326402D01*
X142511597Y-85493493D01*
X142511603Y-85493498D01*
X142697158Y-85623425D01*
X142740783Y-85678002D01*
X142747977Y-85747500D01*
X142716454Y-85809855D01*
X142697158Y-85826575D01*
X142511597Y-85956505D01*
X142344505Y-86123597D01*
X142208965Y-86317169D01*
X142208964Y-86317171D01*
X142109098Y-86531335D01*
X142109094Y-86531344D01*
X142047938Y-86759586D01*
X142047936Y-86759596D01*
X142027341Y-86994999D01*
X142027341Y-86995000D01*
X142047936Y-87230403D01*
X142047938Y-87230413D01*
X142109094Y-87458655D01*
X142109096Y-87458659D01*
X142109097Y-87458663D01*
X142169175Y-87587500D01*
X142208965Y-87672830D01*
X142208967Y-87672834D01*
X142344501Y-87866395D01*
X142344506Y-87866402D01*
X142511597Y-88033493D01*
X142511603Y-88033498D01*
X142697594Y-88163730D01*
X142741219Y-88218307D01*
X142748413Y-88287805D01*
X142716890Y-88350160D01*
X142697595Y-88366880D01*
X142511922Y-88496890D01*
X142511920Y-88496891D01*
X142344891Y-88663920D01*
X142344886Y-88663926D01*
X142209400Y-88857420D01*
X142209399Y-88857422D01*
X142109570Y-89071507D01*
X142109567Y-89071513D01*
X142052364Y-89284999D01*
X142052364Y-89285000D01*
X142949988Y-89285000D01*
X142917075Y-89342007D01*
X142883000Y-89469174D01*
X142883000Y-89600826D01*
X142917075Y-89727993D01*
X142949988Y-89785000D01*
X142052364Y-89785000D01*
X142109567Y-89998486D01*
X142109570Y-89998492D01*
X142209399Y-90212578D01*
X142344894Y-90406082D01*
X142511917Y-90573105D01*
X142705421Y-90708600D01*
X142919507Y-90808429D01*
X142919516Y-90808433D01*
X143133000Y-90865634D01*
X143133000Y-89968012D01*
X143190007Y-90000925D01*
X143317174Y-90035000D01*
X143448826Y-90035000D01*
X143575993Y-90000925D01*
X143633000Y-89968012D01*
X143633000Y-90865633D01*
X143846483Y-90808433D01*
X143846492Y-90808429D01*
X144060578Y-90708600D01*
X144254082Y-90573105D01*
X144421105Y-90406082D01*
X144556600Y-90212578D01*
X144656429Y-89998492D01*
X144656432Y-89998486D01*
X144713636Y-89785000D01*
X143816012Y-89785000D01*
X143848925Y-89727993D01*
X143883000Y-89600826D01*
X143883000Y-89469174D01*
X143848925Y-89342007D01*
X143816012Y-89285000D01*
X144713636Y-89285000D01*
X144713635Y-89284999D01*
X144656432Y-89071513D01*
X144656429Y-89071507D01*
X144556600Y-88857422D01*
X144556599Y-88857420D01*
X144421113Y-88663926D01*
X144421108Y-88663920D01*
X144254078Y-88496890D01*
X144068405Y-88366879D01*
X144024780Y-88312302D01*
X144017588Y-88242804D01*
X144049110Y-88180449D01*
X144068406Y-88163730D01*
X144254401Y-88033495D01*
X144421495Y-87866401D01*
X144557035Y-87672830D01*
X144656903Y-87458663D01*
X144718063Y-87230408D01*
X144738659Y-86995000D01*
X144737806Y-86985256D01*
X144726020Y-86850537D01*
X144718063Y-86759592D01*
X144656903Y-86531337D01*
X144557035Y-86317171D01*
X144421495Y-86123599D01*
X144421494Y-86123597D01*
X144254402Y-85956506D01*
X144254396Y-85956501D01*
X144068842Y-85826575D01*
X144025217Y-85771998D01*
X144018023Y-85702500D01*
X144049546Y-85640145D01*
X144068842Y-85623425D01*
X144133004Y-85578498D01*
X144254401Y-85493495D01*
X144421495Y-85326401D01*
X144504136Y-85208376D01*
X144558713Y-85164752D01*
X144605711Y-85155500D01*
X146986289Y-85155500D01*
X147053328Y-85175185D01*
X147087864Y-85208377D01*
X147170505Y-85326402D01*
X147337597Y-85493493D01*
X147337603Y-85493498D01*
X147523158Y-85623425D01*
X147566783Y-85678002D01*
X147573977Y-85747500D01*
X147542454Y-85809855D01*
X147523158Y-85826575D01*
X147337597Y-85956505D01*
X147170505Y-86123597D01*
X147034965Y-86317169D01*
X147034964Y-86317171D01*
X146935098Y-86531335D01*
X146935094Y-86531344D01*
X146873938Y-86759586D01*
X146873936Y-86759596D01*
X146853341Y-86994999D01*
X146853341Y-86995000D01*
X146873936Y-87230403D01*
X146873938Y-87230413D01*
X146935094Y-87458655D01*
X146935096Y-87458659D01*
X146935097Y-87458663D01*
X146995175Y-87587500D01*
X147034965Y-87672830D01*
X147034967Y-87672834D01*
X147170501Y-87866395D01*
X147170506Y-87866402D01*
X147337597Y-88033493D01*
X147337603Y-88033498D01*
X147523594Y-88163730D01*
X147567219Y-88218307D01*
X147574413Y-88287805D01*
X147542890Y-88350160D01*
X147523595Y-88366880D01*
X147337922Y-88496890D01*
X147337920Y-88496891D01*
X147170891Y-88663920D01*
X147170886Y-88663926D01*
X147035400Y-88857420D01*
X147035399Y-88857422D01*
X146935570Y-89071507D01*
X146935567Y-89071513D01*
X146878364Y-89284999D01*
X146878364Y-89285000D01*
X147775988Y-89285000D01*
X147743075Y-89342007D01*
X147709000Y-89469174D01*
X147709000Y-89600826D01*
X147743075Y-89727993D01*
X147775988Y-89785000D01*
X146878364Y-89785000D01*
X146935567Y-89998486D01*
X146935570Y-89998492D01*
X147035399Y-90212578D01*
X147170894Y-90406082D01*
X147337917Y-90573105D01*
X147531421Y-90708600D01*
X147745507Y-90808429D01*
X147745516Y-90808433D01*
X147959000Y-90865634D01*
X147959000Y-89968012D01*
X148016007Y-90000925D01*
X148143174Y-90035000D01*
X148274826Y-90035000D01*
X148401993Y-90000925D01*
X148459000Y-89968012D01*
X148459000Y-90865633D01*
X148672483Y-90808433D01*
X148672492Y-90808429D01*
X148886578Y-90708600D01*
X149080082Y-90573105D01*
X149247105Y-90406082D01*
X149382600Y-90212578D01*
X149482429Y-89998492D01*
X149482432Y-89998486D01*
X149539636Y-89785000D01*
X148642012Y-89785000D01*
X148674925Y-89727993D01*
X148709000Y-89600826D01*
X148709000Y-89469174D01*
X148674925Y-89342007D01*
X148642012Y-89285000D01*
X149539636Y-89285000D01*
X149539635Y-89284999D01*
X149482432Y-89071513D01*
X149482429Y-89071507D01*
X149382600Y-88857422D01*
X149382599Y-88857420D01*
X149247113Y-88663926D01*
X149247108Y-88663920D01*
X149080078Y-88496890D01*
X148894405Y-88366879D01*
X148850780Y-88312302D01*
X148843588Y-88242804D01*
X148875110Y-88180449D01*
X148894406Y-88163730D01*
X149080401Y-88033495D01*
X149247495Y-87866401D01*
X149383035Y-87672830D01*
X149482903Y-87458663D01*
X149544063Y-87230408D01*
X149564659Y-86995000D01*
X149563806Y-86985256D01*
X149552020Y-86850537D01*
X149544063Y-86759592D01*
X149482903Y-86531337D01*
X149383035Y-86317171D01*
X149247495Y-86123599D01*
X149247494Y-86123597D01*
X149080402Y-85956506D01*
X149080396Y-85956501D01*
X148894842Y-85826575D01*
X148851217Y-85771998D01*
X148844023Y-85702500D01*
X148875546Y-85640145D01*
X148894842Y-85623425D01*
X148959004Y-85578498D01*
X149080401Y-85493495D01*
X149247495Y-85326401D01*
X149383035Y-85132830D01*
X149482903Y-84918663D01*
X149544063Y-84690408D01*
X149564659Y-84455000D01*
X149562480Y-84430100D01*
X149555307Y-84348111D01*
X149544063Y-84219592D01*
X149492868Y-84028526D01*
X149482905Y-83991344D01*
X149482904Y-83991343D01*
X149482903Y-83991337D01*
X149383035Y-83777171D01*
X149360683Y-83745248D01*
X149247494Y-83583597D01*
X149080402Y-83416506D01*
X149080396Y-83416501D01*
X148894842Y-83286575D01*
X148851217Y-83231998D01*
X148844023Y-83162500D01*
X148875546Y-83100145D01*
X148894842Y-83083425D01*
X148959004Y-83038498D01*
X149080401Y-82953495D01*
X149247495Y-82786401D01*
X149383035Y-82592830D01*
X149482903Y-82378663D01*
X149544063Y-82150408D01*
X149564659Y-81915000D01*
X149544063Y-81679592D01*
X149482903Y-81451337D01*
X149383035Y-81237171D01*
X149368573Y-81216516D01*
X149247494Y-81043597D01*
X149080402Y-80876506D01*
X149080396Y-80876501D01*
X148894842Y-80746575D01*
X148851217Y-80691998D01*
X148844023Y-80622500D01*
X148875546Y-80560145D01*
X148894842Y-80543425D01*
X148949146Y-80505401D01*
X149080401Y-80413495D01*
X149247495Y-80246401D01*
X149383035Y-80052830D01*
X149482903Y-79838663D01*
X149544063Y-79610408D01*
X149564659Y-79375000D01*
X149544063Y-79139592D01*
X149493744Y-78951796D01*
X149482905Y-78911344D01*
X149482904Y-78911343D01*
X149482903Y-78911337D01*
X149383035Y-78697171D01*
X149376539Y-78687894D01*
X149247496Y-78503600D01*
X149193433Y-78449537D01*
X149125567Y-78381671D01*
X149092084Y-78320351D01*
X149097068Y-78250659D01*
X149138939Y-78194725D01*
X149169915Y-78177810D01*
X149301331Y-78128796D01*
X149416546Y-78042546D01*
X149502796Y-77927331D01*
X149553091Y-77792483D01*
X149559500Y-77732873D01*
X149559499Y-75937128D01*
X149553091Y-75877517D01*
X149502796Y-75742669D01*
X149502795Y-75742668D01*
X149502793Y-75742664D01*
X149416547Y-75627455D01*
X149416544Y-75627452D01*
X149301335Y-75541206D01*
X149301328Y-75541202D01*
X149166482Y-75490908D01*
X149166483Y-75490908D01*
X149106883Y-75484501D01*
X149106881Y-75484500D01*
X149106873Y-75484500D01*
X149106864Y-75484500D01*
X147311129Y-75484500D01*
X147311123Y-75484501D01*
X147251516Y-75490908D01*
X147116671Y-75541202D01*
X147116664Y-75541206D01*
X147001455Y-75627452D01*
X147001452Y-75627455D01*
X146915206Y-75742664D01*
X146915202Y-75742671D01*
X146864908Y-75877517D01*
X146858501Y-75937116D01*
X146858501Y-75937123D01*
X146858500Y-75937135D01*
X146858500Y-76010500D01*
X146838815Y-76077539D01*
X146786011Y-76123294D01*
X146734500Y-76134500D01*
X144857499Y-76134500D01*
X144790460Y-76114815D01*
X144744705Y-76062011D01*
X144733499Y-76010500D01*
X144733499Y-75937129D01*
X144733498Y-75937123D01*
X144733497Y-75937116D01*
X144727091Y-75877517D01*
X144676796Y-75742669D01*
X144676795Y-75742668D01*
X144676793Y-75742664D01*
X144590547Y-75627455D01*
X144590544Y-75627452D01*
X144475335Y-75541206D01*
X144475328Y-75541202D01*
X144340482Y-75490908D01*
X144340483Y-75490908D01*
X144280883Y-75484501D01*
X144280881Y-75484500D01*
X144280873Y-75484500D01*
X144280864Y-75484500D01*
X142485129Y-75484500D01*
X142485123Y-75484501D01*
X142425516Y-75490908D01*
X142290671Y-75541202D01*
X142290664Y-75541206D01*
X142175455Y-75627452D01*
X142175452Y-75627455D01*
X142089206Y-75742664D01*
X142089202Y-75742671D01*
X142038908Y-75877517D01*
X142032501Y-75937116D01*
X142032501Y-75937123D01*
X142032500Y-75937135D01*
X142032500Y-76010500D01*
X142012815Y-76077539D01*
X141960011Y-76123294D01*
X141908500Y-76134500D01*
X139904499Y-76134500D01*
X139837460Y-76114815D01*
X139791705Y-76062011D01*
X139780499Y-76010500D01*
X139780499Y-75937129D01*
X139780498Y-75937123D01*
X139780497Y-75937116D01*
X139774091Y-75877517D01*
X139723796Y-75742669D01*
X139723795Y-75742668D01*
X139723793Y-75742664D01*
X139637547Y-75627455D01*
X139637544Y-75627452D01*
X139522335Y-75541206D01*
X139522328Y-75541202D01*
X139387482Y-75490908D01*
X139387483Y-75490908D01*
X139327883Y-75484501D01*
X139327881Y-75484500D01*
X139327873Y-75484500D01*
X139327864Y-75484500D01*
X137532129Y-75484500D01*
X137532123Y-75484501D01*
X137472516Y-75490908D01*
X137337671Y-75541202D01*
X137337664Y-75541206D01*
X137222455Y-75627452D01*
X137222452Y-75627455D01*
X137136206Y-75742664D01*
X137136202Y-75742671D01*
X137085908Y-75877517D01*
X137079501Y-75937116D01*
X137079501Y-75937123D01*
X137079500Y-75937135D01*
X137079500Y-76010500D01*
X137059815Y-76077539D01*
X137007011Y-76123294D01*
X136955500Y-76134500D01*
X120894304Y-76134500D01*
X120758977Y-76161418D01*
X120758967Y-76161421D01*
X120631492Y-76214222D01*
X120516754Y-76290887D01*
X115890460Y-80917181D01*
X115829137Y-80950666D01*
X115802779Y-80953500D01*
X114152029Y-80953500D01*
X114152023Y-80953501D01*
X114092416Y-80959908D01*
X113957571Y-81010202D01*
X113957564Y-81010206D01*
X113842355Y-81096452D01*
X113842352Y-81096455D01*
X113756106Y-81211664D01*
X113756102Y-81211671D01*
X113705808Y-81346517D01*
X113699401Y-81406116D01*
X113699400Y-81406135D01*
X113699400Y-81457664D01*
X113679715Y-81524703D01*
X113626911Y-81570458D01*
X113599598Y-81579280D01*
X113593878Y-81580418D01*
X113593869Y-81580420D01*
X113466392Y-81633222D01*
X113351654Y-81709887D01*
X113351653Y-81709888D01*
X112598362Y-82463181D01*
X112537039Y-82496666D01*
X112510681Y-82499500D01*
X102576329Y-82499500D01*
X102509290Y-82479815D01*
X102477375Y-82450227D01*
X102454983Y-82420576D01*
X102297210Y-82276747D01*
X102297209Y-82276746D01*
X102115690Y-82164354D01*
X102115688Y-82164353D01*
X102115687Y-82164352D01*
X101958786Y-82103569D01*
X101916610Y-82087230D01*
X101763407Y-82058591D01*
X101726189Y-82051634D01*
X101663908Y-82019965D01*
X101628635Y-81959653D01*
X101631569Y-81889845D01*
X101671778Y-81832705D01*
X101726189Y-81807856D01*
X101916470Y-81772286D01*
X101916471Y-81772286D01*
X102115466Y-81695196D01*
X102115468Y-81695195D01*
X102218097Y-81631649D01*
X101626448Y-81040000D01*
X101650028Y-81040000D01*
X101746675Y-81014104D01*
X101833325Y-80964076D01*
X101904076Y-80893325D01*
X101954104Y-80806675D01*
X101980000Y-80710028D01*
X101980000Y-80686448D01*
X102574233Y-81280681D01*
X102574234Y-81280680D01*
X102583217Y-81268786D01*
X102583219Y-81268782D01*
X102678337Y-81077762D01*
X102678343Y-81077747D01*
X102736742Y-80872495D01*
X102756433Y-80660000D01*
X102756433Y-80659999D01*
X102736742Y-80447504D01*
X102678342Y-80242249D01*
X102678337Y-80242237D01*
X102583222Y-80051221D01*
X102583217Y-80051213D01*
X102574233Y-80039317D01*
X101980000Y-80633551D01*
X101980000Y-80609972D01*
X101954104Y-80513325D01*
X101904076Y-80426675D01*
X101833325Y-80355924D01*
X101746675Y-80305896D01*
X101650028Y-80280000D01*
X101626447Y-80280000D01*
X102218097Y-79688349D01*
X102218096Y-79688348D01*
X102115470Y-79624806D01*
X102115464Y-79624803D01*
X101916470Y-79547713D01*
X101726189Y-79512143D01*
X101663908Y-79480475D01*
X101628635Y-79420162D01*
X101631569Y-79350354D01*
X101671778Y-79293214D01*
X101726185Y-79268366D01*
X101916610Y-79232770D01*
X102115690Y-79155646D01*
X102297209Y-79043254D01*
X102454985Y-78899422D01*
X102583646Y-78729048D01*
X102678810Y-78537933D01*
X102737236Y-78332586D01*
X102756935Y-78120000D01*
X102737236Y-77907414D01*
X102678810Y-77702067D01*
X102583646Y-77510952D01*
X102454985Y-77340578D01*
X102454983Y-77340575D01*
X102297210Y-77196747D01*
X102297209Y-77196746D01*
X102115690Y-77084354D01*
X102115688Y-77084353D01*
X102115687Y-77084352D01*
X101958786Y-77023569D01*
X101916610Y-77007230D01*
X101706748Y-76968000D01*
X101493252Y-76968000D01*
X101283390Y-77007230D01*
X101283387Y-77007230D01*
X101283387Y-77007231D01*
X101084312Y-77084352D01*
X101084311Y-77084353D01*
X100902789Y-77196747D01*
X100745016Y-77340575D01*
X100616354Y-77510951D01*
X100521191Y-77702063D01*
X100462763Y-77907418D01*
X100443065Y-78119999D01*
X96345451Y-78119999D01*
X96334482Y-78115908D01*
X96334483Y-78115908D01*
X96274883Y-78109501D01*
X96274881Y-78109500D01*
X96274873Y-78109500D01*
X96274864Y-78109500D01*
X94479129Y-78109500D01*
X94479123Y-78109501D01*
X94419516Y-78115908D01*
X94284671Y-78166202D01*
X94284664Y-78166206D01*
X94169455Y-78252452D01*
X94169452Y-78252455D01*
X94083206Y-78367664D01*
X94083202Y-78367671D01*
X94032908Y-78502517D01*
X94026501Y-78562116D01*
X94026501Y-78562123D01*
X94026500Y-78562135D01*
X94026500Y-80357870D01*
X94026501Y-80357876D01*
X94032908Y-80417483D01*
X94083202Y-80552328D01*
X94083206Y-80552335D01*
X94169452Y-80667544D01*
X94169455Y-80667547D01*
X94284664Y-80753793D01*
X94284671Y-80753797D01*
X94416081Y-80802810D01*
X94472015Y-80844681D01*
X94496432Y-80910145D01*
X94481580Y-80978418D01*
X94460430Y-81006673D01*
X94338503Y-81128600D01*
X94202965Y-81322169D01*
X94202964Y-81322171D01*
X94103098Y-81536335D01*
X94103094Y-81536344D01*
X94041938Y-81764586D01*
X94041936Y-81764596D01*
X94021341Y-81999999D01*
X94021341Y-82000000D01*
X94041936Y-82235403D01*
X94041938Y-82235413D01*
X94103094Y-82463655D01*
X94103096Y-82463659D01*
X94103097Y-82463663D01*
X94162453Y-82590951D01*
X94202965Y-82677830D01*
X94202967Y-82677834D01*
X94278983Y-82786395D01*
X94334164Y-82865202D01*
X94338501Y-82871395D01*
X94338506Y-82871402D01*
X94505597Y-83038493D01*
X94505603Y-83038498D01*
X94691158Y-83168425D01*
X94734783Y-83223002D01*
X94741977Y-83292500D01*
X94710454Y-83354855D01*
X94691158Y-83371575D01*
X94505597Y-83501505D01*
X94379211Y-83627892D01*
X94317888Y-83661377D01*
X94248196Y-83656393D01*
X94203849Y-83627892D01*
X89665846Y-79089888D01*
X89665845Y-79089887D01*
X89551107Y-79013222D01*
X89423632Y-78960421D01*
X89423622Y-78960418D01*
X89288296Y-78933500D01*
X89288294Y-78933500D01*
X89288293Y-78933500D01*
X88725711Y-78933500D01*
X88658672Y-78913815D01*
X88624136Y-78880623D01*
X88541494Y-78762597D01*
X88374402Y-78595506D01*
X88374395Y-78595501D01*
X88180834Y-78459967D01*
X88180830Y-78459965D01*
X88158467Y-78449537D01*
X87966663Y-78360097D01*
X87966659Y-78360096D01*
X87966655Y-78360094D01*
X87738413Y-78298938D01*
X87738403Y-78298936D01*
X87503001Y-78278341D01*
X87502999Y-78278341D01*
X87267596Y-78298936D01*
X87267586Y-78298938D01*
X87039344Y-78360094D01*
X87039335Y-78360098D01*
X86825171Y-78459964D01*
X86825169Y-78459965D01*
X86631597Y-78595505D01*
X86464505Y-78762597D01*
X86328965Y-78956169D01*
X86328964Y-78956171D01*
X86236382Y-79154714D01*
X86190209Y-79207153D01*
X86123016Y-79226305D01*
X86056135Y-79206089D01*
X86010800Y-79152924D01*
X86000000Y-79102309D01*
X86000000Y-76051362D01*
X86019685Y-75984323D01*
X86036319Y-75963681D01*
X88963681Y-73036319D01*
X89025004Y-73002834D01*
X89051362Y-73000000D01*
X155375500Y-73000000D01*
X155442539Y-73019685D01*
G37*
%TD.AperFunction*%
%TD*%
%TA.AperFunction,Conductor*%
%TO.N,ADAPTER GND*%
G36*
X86943039Y-55520185D02*
G01*
X86988794Y-55572989D01*
X87000000Y-55624500D01*
X87000000Y-72948638D01*
X86980315Y-73015677D01*
X86963681Y-73036319D01*
X85000000Y-74999999D01*
X85000000Y-99375500D01*
X84980315Y-99442539D01*
X84927511Y-99488294D01*
X84876000Y-99499500D01*
X66624500Y-99499500D01*
X66557461Y-99479815D01*
X66511706Y-99427011D01*
X66500500Y-99375500D01*
X66500500Y-97000000D01*
X67894592Y-97000000D01*
X67914201Y-97286680D01*
X67972666Y-97568034D01*
X67972667Y-97568037D01*
X68068894Y-97838793D01*
X68068893Y-97838793D01*
X68201098Y-98093935D01*
X68366812Y-98328700D01*
X68451923Y-98419831D01*
X68562947Y-98538708D01*
X68785853Y-98720055D01*
X69031382Y-98869365D01*
X69218237Y-98950526D01*
X69294942Y-98983844D01*
X69571642Y-99061371D01*
X69821920Y-99095771D01*
X69856321Y-99100500D01*
X69856322Y-99100500D01*
X70143679Y-99100500D01*
X70174370Y-99096281D01*
X70428358Y-99061371D01*
X70705058Y-98983844D01*
X70818015Y-98934779D01*
X70968617Y-98869365D01*
X70968620Y-98869363D01*
X70968625Y-98869361D01*
X71214147Y-98720055D01*
X71437053Y-98538708D01*
X71633189Y-98328698D01*
X71798901Y-98093936D01*
X71931104Y-97838797D01*
X72027334Y-97568032D01*
X72085798Y-97286686D01*
X72105408Y-97000000D01*
X72085798Y-96713314D01*
X72027334Y-96431968D01*
X71931105Y-96161206D01*
X71931106Y-96161206D01*
X71798901Y-95906064D01*
X71633187Y-95671299D01*
X71554554Y-95587105D01*
X71437053Y-95461292D01*
X71214147Y-95279945D01*
X71214146Y-95279944D01*
X70968617Y-95130634D01*
X70705063Y-95016158D01*
X70705061Y-95016157D01*
X70705058Y-95016156D01*
X70575578Y-94979877D01*
X70428364Y-94938630D01*
X70428359Y-94938629D01*
X70428358Y-94938629D01*
X70286018Y-94919064D01*
X70143679Y-94899500D01*
X70143678Y-94899500D01*
X69856322Y-94899500D01*
X69856321Y-94899500D01*
X69571642Y-94938629D01*
X69571635Y-94938630D01*
X69363861Y-94996845D01*
X69294942Y-95016156D01*
X69294939Y-95016156D01*
X69294936Y-95016158D01*
X69294935Y-95016158D01*
X69031382Y-95130634D01*
X68785853Y-95279944D01*
X68562950Y-95461289D01*
X68366812Y-95671299D01*
X68201098Y-95906064D01*
X68068894Y-96161206D01*
X67972667Y-96431962D01*
X67972666Y-96431965D01*
X67914201Y-96713319D01*
X67894592Y-97000000D01*
X66500500Y-97000000D01*
X66500500Y-86999998D01*
X69161965Y-86999998D01*
X69161965Y-87000001D01*
X69182064Y-87229737D01*
X69182066Y-87229748D01*
X69241751Y-87452497D01*
X69241753Y-87452501D01*
X69241754Y-87452505D01*
X69339218Y-87661518D01*
X69339220Y-87661522D01*
X69471496Y-87850432D01*
X69634567Y-88013503D01*
X69823477Y-88145779D01*
X69823479Y-88145780D01*
X69823482Y-88145782D01*
X70032495Y-88243246D01*
X70255257Y-88302935D01*
X70419359Y-88317292D01*
X70484998Y-88323035D01*
X70485000Y-88323035D01*
X70485002Y-88323035D01*
X70542435Y-88318010D01*
X70714743Y-88302935D01*
X70937505Y-88243246D01*
X71146518Y-88145782D01*
X71335431Y-88013504D01*
X71498504Y-87850431D01*
X71630782Y-87661518D01*
X71728246Y-87452505D01*
X71787935Y-87229743D01*
X71808035Y-87000000D01*
X71787935Y-86770257D01*
X71728246Y-86547495D01*
X71630782Y-86338483D01*
X71498504Y-86149569D01*
X71498502Y-86149566D01*
X71335432Y-85986496D01*
X71146522Y-85854220D01*
X71146518Y-85854218D01*
X71121133Y-85842381D01*
X70937505Y-85756754D01*
X70937501Y-85756753D01*
X70937497Y-85756751D01*
X70714748Y-85697066D01*
X70714744Y-85697065D01*
X70714743Y-85697065D01*
X70714742Y-85697064D01*
X70714737Y-85697064D01*
X70485002Y-85676965D01*
X70484998Y-85676965D01*
X70255262Y-85697064D01*
X70255251Y-85697066D01*
X70032502Y-85756751D01*
X70032493Y-85756755D01*
X69823484Y-85854217D01*
X69823482Y-85854218D01*
X69634566Y-85986497D01*
X69471497Y-86149566D01*
X69339218Y-86338482D01*
X69339217Y-86338484D01*
X69241755Y-86547493D01*
X69241751Y-86547502D01*
X69182066Y-86770251D01*
X69182064Y-86770262D01*
X69161965Y-86999998D01*
X66500500Y-86999998D01*
X66500500Y-81919998D01*
X69161965Y-81919998D01*
X69161965Y-81920001D01*
X69182064Y-82149737D01*
X69182066Y-82149748D01*
X69241751Y-82372497D01*
X69241753Y-82372501D01*
X69241754Y-82372505D01*
X69339218Y-82581518D01*
X69339220Y-82581522D01*
X69471496Y-82770432D01*
X69634567Y-82933503D01*
X69823477Y-83065779D01*
X69823479Y-83065780D01*
X69823482Y-83065782D01*
X70032495Y-83163246D01*
X70255257Y-83222935D01*
X70419359Y-83237292D01*
X70484998Y-83243035D01*
X70485000Y-83243035D01*
X70485002Y-83243035D01*
X70542435Y-83238010D01*
X70714743Y-83222935D01*
X70937505Y-83163246D01*
X71146518Y-83065782D01*
X71335431Y-82933504D01*
X71498504Y-82770431D01*
X71630782Y-82581518D01*
X71728246Y-82372505D01*
X71787935Y-82149743D01*
X71808035Y-81920000D01*
X71808035Y-81919998D01*
X74241965Y-81919998D01*
X74241965Y-81920001D01*
X74262064Y-82149737D01*
X74262066Y-82149748D01*
X74321751Y-82372497D01*
X74321753Y-82372501D01*
X74321754Y-82372505D01*
X74419218Y-82581518D01*
X74419220Y-82581522D01*
X74551496Y-82770432D01*
X74714567Y-82933503D01*
X74903477Y-83065779D01*
X74903479Y-83065780D01*
X74903482Y-83065782D01*
X74928865Y-83077618D01*
X74981304Y-83123790D01*
X75000456Y-83190984D01*
X74980240Y-83257865D01*
X74928866Y-83302381D01*
X74903489Y-83314214D01*
X74903482Y-83314218D01*
X74714566Y-83446497D01*
X74551497Y-83609566D01*
X74419218Y-83798482D01*
X74419217Y-83798484D01*
X74321755Y-84007493D01*
X74321751Y-84007502D01*
X74262066Y-84230251D01*
X74262064Y-84230262D01*
X74241965Y-84459998D01*
X74241965Y-84460001D01*
X74262064Y-84689737D01*
X74262066Y-84689748D01*
X74321751Y-84912497D01*
X74321753Y-84912501D01*
X74321754Y-84912505D01*
X74364471Y-85004112D01*
X74419218Y-85121518D01*
X74419220Y-85121522D01*
X74551496Y-85310432D01*
X74714567Y-85473503D01*
X74903477Y-85605779D01*
X74903479Y-85605780D01*
X74903482Y-85605782D01*
X74928865Y-85617618D01*
X74981304Y-85663790D01*
X75000456Y-85730984D01*
X74980240Y-85797865D01*
X74928866Y-85842381D01*
X74903489Y-85854214D01*
X74903482Y-85854218D01*
X74714566Y-85986497D01*
X74551497Y-86149566D01*
X74419218Y-86338482D01*
X74419217Y-86338484D01*
X74321755Y-86547493D01*
X74321751Y-86547502D01*
X74262066Y-86770251D01*
X74262064Y-86770262D01*
X74241965Y-86999998D01*
X74241965Y-87000001D01*
X74262064Y-87229737D01*
X74262066Y-87229748D01*
X74321751Y-87452497D01*
X74321753Y-87452501D01*
X74321754Y-87452505D01*
X74419218Y-87661518D01*
X74419220Y-87661522D01*
X74551496Y-87850432D01*
X74714567Y-88013503D01*
X74903477Y-88145779D01*
X74903479Y-88145780D01*
X74903482Y-88145782D01*
X75112495Y-88243246D01*
X75335257Y-88302935D01*
X75499359Y-88317292D01*
X75564998Y-88323035D01*
X75565000Y-88323035D01*
X75565002Y-88323035D01*
X75622435Y-88318010D01*
X75794743Y-88302935D01*
X76017505Y-88243246D01*
X76226518Y-88145782D01*
X76415431Y-88013504D01*
X76578504Y-87850431D01*
X76710782Y-87661518D01*
X76808246Y-87452505D01*
X76867935Y-87229743D01*
X76888035Y-87000000D01*
X76867935Y-86770257D01*
X76808246Y-86547495D01*
X76710782Y-86338483D01*
X76578504Y-86149569D01*
X76578502Y-86149566D01*
X76415432Y-85986496D01*
X76226522Y-85854220D01*
X76226519Y-85854219D01*
X76226520Y-85854219D01*
X76226518Y-85854218D01*
X76201134Y-85842381D01*
X76148696Y-85796211D01*
X76129543Y-85729018D01*
X76149758Y-85662136D01*
X76201134Y-85617618D01*
X76226518Y-85605782D01*
X76415431Y-85473504D01*
X76578504Y-85310431D01*
X76646463Y-85213374D01*
X76701040Y-85169751D01*
X76748037Y-85160500D01*
X79330296Y-85160500D01*
X79421340Y-85142389D01*
X79465628Y-85133580D01*
X79529369Y-85107177D01*
X79593107Y-85080777D01*
X79593108Y-85080776D01*
X79593111Y-85080775D01*
X79707843Y-85004114D01*
X81383510Y-83328445D01*
X81444831Y-83294962D01*
X81514522Y-83299946D01*
X81570455Y-83341816D01*
X81596455Y-83376547D01*
X81711664Y-83462793D01*
X81711671Y-83462797D01*
X81846517Y-83513091D01*
X81846516Y-83513091D01*
X81853444Y-83513835D01*
X81906127Y-83519500D01*
X83701872Y-83519499D01*
X83761483Y-83513091D01*
X83896331Y-83462796D01*
X84011546Y-83376546D01*
X84097796Y-83261331D01*
X84148091Y-83126483D01*
X84154500Y-83066873D01*
X84154499Y-81271128D01*
X84149299Y-81222757D01*
X84148091Y-81211516D01*
X84097797Y-81076671D01*
X84097793Y-81076664D01*
X84011547Y-80961455D01*
X84011544Y-80961452D01*
X83896335Y-80875206D01*
X83896328Y-80875202D01*
X83764401Y-80825997D01*
X83708467Y-80784126D01*
X83684050Y-80718662D01*
X83698902Y-80650389D01*
X83720053Y-80622133D01*
X83842108Y-80500078D01*
X83977600Y-80306578D01*
X84077429Y-80092492D01*
X84077432Y-80092486D01*
X84134636Y-79879000D01*
X83237012Y-79879000D01*
X83269925Y-79821993D01*
X83304000Y-79694826D01*
X83304000Y-79563174D01*
X83269925Y-79436007D01*
X83237012Y-79379000D01*
X84134636Y-79379000D01*
X84134635Y-79378999D01*
X84077432Y-79165513D01*
X84077429Y-79165507D01*
X83977600Y-78951422D01*
X83977599Y-78951420D01*
X83842113Y-78757926D01*
X83842108Y-78757920D01*
X83675082Y-78590894D01*
X83481578Y-78455399D01*
X83267492Y-78355570D01*
X83267486Y-78355567D01*
X83054000Y-78298364D01*
X83054000Y-79195988D01*
X82996993Y-79163075D01*
X82869826Y-79129000D01*
X82738174Y-79129000D01*
X82611007Y-79163075D01*
X82554000Y-79195988D01*
X82554000Y-78298364D01*
X82553999Y-78298364D01*
X82340513Y-78355567D01*
X82340507Y-78355570D01*
X82126422Y-78455399D01*
X82126420Y-78455400D01*
X81932926Y-78590886D01*
X81932920Y-78590891D01*
X81765891Y-78757920D01*
X81765886Y-78757926D01*
X81630400Y-78951420D01*
X81630399Y-78951422D01*
X81530570Y-79165507D01*
X81530567Y-79165513D01*
X81473364Y-79378999D01*
X81473364Y-79379000D01*
X82370988Y-79379000D01*
X82338075Y-79436007D01*
X82304000Y-79563174D01*
X82304000Y-79694826D01*
X82338075Y-79821993D01*
X82370988Y-79879000D01*
X81473364Y-79879000D01*
X81530567Y-80092486D01*
X81530570Y-80092492D01*
X81630399Y-80306578D01*
X81765894Y-80500082D01*
X81887946Y-80622134D01*
X81921431Y-80683457D01*
X81916447Y-80753149D01*
X81874575Y-80809082D01*
X81843598Y-80825997D01*
X81711671Y-80875202D01*
X81711664Y-80875206D01*
X81596455Y-80961452D01*
X81596452Y-80961455D01*
X81510206Y-81076664D01*
X81510202Y-81076671D01*
X81459908Y-81211517D01*
X81454859Y-81258483D01*
X81453501Y-81271123D01*
X81453500Y-81271135D01*
X81453500Y-81372664D01*
X81433815Y-81439703D01*
X81381011Y-81485458D01*
X81353696Y-81494280D01*
X81347980Y-81495417D01*
X81347972Y-81495419D01*
X81220490Y-81548224D01*
X81105754Y-81624887D01*
X81105753Y-81624888D01*
X79007462Y-83723181D01*
X78946139Y-83756666D01*
X78919781Y-83759500D01*
X76748037Y-83759500D01*
X76680998Y-83739815D01*
X76646462Y-83706623D01*
X76578503Y-83609567D01*
X76415432Y-83446496D01*
X76226522Y-83314220D01*
X76226519Y-83314219D01*
X76226520Y-83314219D01*
X76226518Y-83314218D01*
X76201134Y-83302381D01*
X76148696Y-83256211D01*
X76129543Y-83189018D01*
X76149758Y-83122136D01*
X76201134Y-83077618D01*
X76226518Y-83065782D01*
X76415431Y-82933504D01*
X76578504Y-82770431D01*
X76710782Y-82581518D01*
X76808246Y-82372505D01*
X76867935Y-82149743D01*
X76888035Y-81920000D01*
X76867935Y-81690257D01*
X76822613Y-81521114D01*
X76808248Y-81467502D01*
X76808247Y-81467501D01*
X76808246Y-81467495D01*
X76710782Y-81258483D01*
X76611738Y-81117033D01*
X76578502Y-81069566D01*
X76415432Y-80906496D01*
X76226522Y-80774220D01*
X76226518Y-80774218D01*
X76107377Y-80718662D01*
X76017505Y-80676754D01*
X76017501Y-80676753D01*
X76017497Y-80676751D01*
X75794748Y-80617066D01*
X75794744Y-80617065D01*
X75794743Y-80617065D01*
X75794742Y-80617064D01*
X75794737Y-80617064D01*
X75565002Y-80596965D01*
X75564998Y-80596965D01*
X75335262Y-80617064D01*
X75335251Y-80617066D01*
X75112502Y-80676751D01*
X75112493Y-80676755D01*
X74903484Y-80774217D01*
X74903482Y-80774218D01*
X74714566Y-80906497D01*
X74551497Y-81069566D01*
X74419218Y-81258482D01*
X74419217Y-81258484D01*
X74321755Y-81467493D01*
X74321751Y-81467502D01*
X74262066Y-81690251D01*
X74262064Y-81690262D01*
X74241965Y-81919998D01*
X71808035Y-81919998D01*
X71787935Y-81690257D01*
X71742613Y-81521114D01*
X71728248Y-81467502D01*
X71728247Y-81467501D01*
X71728246Y-81467495D01*
X71630782Y-81258483D01*
X71531738Y-81117033D01*
X71498502Y-81069566D01*
X71335432Y-80906496D01*
X71146522Y-80774220D01*
X71146518Y-80774218D01*
X71027377Y-80718662D01*
X70937505Y-80676754D01*
X70937501Y-80676753D01*
X70937497Y-80676751D01*
X70714748Y-80617066D01*
X70714744Y-80617065D01*
X70714743Y-80617065D01*
X70714742Y-80617064D01*
X70714737Y-80617064D01*
X70485002Y-80596965D01*
X70484998Y-80596965D01*
X70255262Y-80617064D01*
X70255251Y-80617066D01*
X70032502Y-80676751D01*
X70032493Y-80676755D01*
X69823484Y-80774217D01*
X69823482Y-80774218D01*
X69634566Y-80906497D01*
X69471497Y-81069566D01*
X69339218Y-81258482D01*
X69339217Y-81258484D01*
X69241755Y-81467493D01*
X69241751Y-81467502D01*
X69182066Y-81690251D01*
X69182064Y-81690262D01*
X69161965Y-81919998D01*
X66500500Y-81919998D01*
X66500500Y-71638921D01*
X74791000Y-71638921D01*
X74791000Y-72357500D01*
X75607988Y-72357500D01*
X75575075Y-72414507D01*
X75541000Y-72541674D01*
X75541000Y-72673326D01*
X75575075Y-72800493D01*
X75607988Y-72857500D01*
X74791001Y-72857500D01*
X74791001Y-73576088D01*
X74793794Y-73628691D01*
X74838237Y-73858487D01*
X74920879Y-74077475D01*
X75039339Y-74279341D01*
X75039344Y-74279348D01*
X75190211Y-74458286D01*
X75190213Y-74458288D01*
X75369151Y-74609155D01*
X75369158Y-74609160D01*
X75571024Y-74727620D01*
X75790012Y-74810262D01*
X76019809Y-74854705D01*
X76072382Y-74857498D01*
X76072421Y-74857499D01*
X76790999Y-74857499D01*
X76791000Y-74857498D01*
X76791000Y-73107500D01*
X77291000Y-73107500D01*
X77291000Y-74857499D01*
X78009576Y-74857499D01*
X78009588Y-74857498D01*
X78062191Y-74854705D01*
X78291987Y-74810262D01*
X78510975Y-74727620D01*
X78712841Y-74609160D01*
X78712848Y-74609155D01*
X78891786Y-74458288D01*
X78891788Y-74458286D01*
X79042655Y-74279348D01*
X79042660Y-74279341D01*
X79161120Y-74077475D01*
X79243762Y-73858487D01*
X79288205Y-73628691D01*
X79288205Y-73628690D01*
X79290998Y-73576117D01*
X79291000Y-73576078D01*
X79291000Y-72857500D01*
X78474012Y-72857500D01*
X78506925Y-72800493D01*
X78541000Y-72673326D01*
X78541000Y-72541674D01*
X78506925Y-72414507D01*
X78474012Y-72357500D01*
X79290999Y-72357500D01*
X79290999Y-71638923D01*
X79290998Y-71638911D01*
X79288205Y-71586308D01*
X79243762Y-71356512D01*
X79161120Y-71137524D01*
X79042660Y-70935658D01*
X79042655Y-70935651D01*
X78891788Y-70756713D01*
X78891786Y-70756711D01*
X78712848Y-70605844D01*
X78712841Y-70605839D01*
X78510975Y-70487379D01*
X78291984Y-70404736D01*
X78286840Y-70403741D01*
X78224760Y-70371680D01*
X78189869Y-70311146D01*
X78193244Y-70241358D01*
X78233814Y-70184473D01*
X78298697Y-70158552D01*
X78310374Y-70157999D01*
X81838872Y-70157999D01*
X81898483Y-70151591D01*
X82033331Y-70101296D01*
X82148546Y-70015046D01*
X82234796Y-69899831D01*
X82285091Y-69764983D01*
X82291500Y-69705373D01*
X82291499Y-66109628D01*
X82285091Y-66050017D01*
X82278048Y-66031135D01*
X83866500Y-66031135D01*
X83866500Y-67826870D01*
X83866501Y-67826876D01*
X83872908Y-67886483D01*
X83923202Y-68021328D01*
X83923206Y-68021335D01*
X84009452Y-68136544D01*
X84009455Y-68136547D01*
X84124664Y-68222793D01*
X84124671Y-68222797D01*
X84259517Y-68273091D01*
X84259516Y-68273091D01*
X84266444Y-68273835D01*
X84319127Y-68279500D01*
X86114872Y-68279499D01*
X86174483Y-68273091D01*
X86309331Y-68222796D01*
X86424546Y-68136546D01*
X86510796Y-68021331D01*
X86561091Y-67886483D01*
X86567500Y-67826873D01*
X86567499Y-66031128D01*
X86561091Y-65971517D01*
X86540075Y-65915171D01*
X86510797Y-65836671D01*
X86510793Y-65836664D01*
X86424547Y-65721455D01*
X86424544Y-65721452D01*
X86309335Y-65635206D01*
X86309328Y-65635202D01*
X86177401Y-65585997D01*
X86121467Y-65544126D01*
X86097050Y-65478662D01*
X86111902Y-65410389D01*
X86133053Y-65382133D01*
X86255108Y-65260078D01*
X86390600Y-65066578D01*
X86490429Y-64852492D01*
X86490432Y-64852486D01*
X86547636Y-64639000D01*
X85650012Y-64639000D01*
X85682925Y-64581993D01*
X85717000Y-64454826D01*
X85717000Y-64323174D01*
X85682925Y-64196007D01*
X85650012Y-64139000D01*
X86547636Y-64139000D01*
X86547635Y-64138999D01*
X86490432Y-63925513D01*
X86490429Y-63925507D01*
X86390600Y-63711422D01*
X86390599Y-63711420D01*
X86255113Y-63517926D01*
X86255108Y-63517920D01*
X86088082Y-63350894D01*
X85894578Y-63215399D01*
X85680492Y-63115570D01*
X85680486Y-63115567D01*
X85467000Y-63058364D01*
X85467000Y-63955988D01*
X85409993Y-63923075D01*
X85282826Y-63889000D01*
X85151174Y-63889000D01*
X85024007Y-63923075D01*
X84967000Y-63955988D01*
X84967000Y-63058364D01*
X84966999Y-63058364D01*
X84753513Y-63115567D01*
X84753507Y-63115570D01*
X84539422Y-63215399D01*
X84539420Y-63215400D01*
X84345926Y-63350886D01*
X84345920Y-63350891D01*
X84178891Y-63517920D01*
X84178886Y-63517926D01*
X84043400Y-63711420D01*
X84043399Y-63711422D01*
X83943570Y-63925507D01*
X83943567Y-63925513D01*
X83886364Y-64138999D01*
X83886364Y-64139000D01*
X84783988Y-64139000D01*
X84751075Y-64196007D01*
X84717000Y-64323174D01*
X84717000Y-64454826D01*
X84751075Y-64581993D01*
X84783988Y-64639000D01*
X83886364Y-64639000D01*
X83943567Y-64852486D01*
X83943570Y-64852492D01*
X84043399Y-65066578D01*
X84178894Y-65260082D01*
X84300946Y-65382134D01*
X84334431Y-65443457D01*
X84329447Y-65513149D01*
X84287575Y-65569082D01*
X84256598Y-65585997D01*
X84124671Y-65635202D01*
X84124664Y-65635206D01*
X84009455Y-65721452D01*
X84009452Y-65721455D01*
X83923206Y-65836664D01*
X83923202Y-65836671D01*
X83872908Y-65971517D01*
X83866501Y-66031116D01*
X83866501Y-66031123D01*
X83866500Y-66031135D01*
X82278048Y-66031135D01*
X82234797Y-65915171D01*
X82234793Y-65915164D01*
X82148547Y-65799955D01*
X82148544Y-65799952D01*
X82033335Y-65713706D01*
X82033328Y-65713702D01*
X81898482Y-65663408D01*
X81898483Y-65663408D01*
X81838883Y-65657001D01*
X81838881Y-65657000D01*
X81838873Y-65657000D01*
X81838864Y-65657000D01*
X78243129Y-65657000D01*
X78243123Y-65657001D01*
X78183516Y-65663408D01*
X78048671Y-65713702D01*
X78048664Y-65713706D01*
X77933455Y-65799952D01*
X77933452Y-65799955D01*
X77847206Y-65915164D01*
X77847202Y-65915171D01*
X77796908Y-66050017D01*
X77790501Y-66109616D01*
X77790501Y-66109623D01*
X77790500Y-66109635D01*
X77790500Y-69705370D01*
X77790501Y-69705376D01*
X77796908Y-69764983D01*
X77847202Y-69899828D01*
X77847206Y-69899835D01*
X77933452Y-70015044D01*
X77933455Y-70015047D01*
X78048664Y-70101293D01*
X78048673Y-70101298D01*
X78097506Y-70119511D01*
X78153440Y-70161381D01*
X78177858Y-70226845D01*
X78163007Y-70295118D01*
X78113603Y-70344524D01*
X78047598Y-70359518D01*
X78009625Y-70357501D01*
X78009579Y-70357500D01*
X77291000Y-70357500D01*
X77291000Y-72107500D01*
X76791000Y-72107500D01*
X76791000Y-70357500D01*
X76072423Y-70357500D01*
X76072411Y-70357501D01*
X76019808Y-70360294D01*
X75790012Y-70404737D01*
X75571024Y-70487379D01*
X75369158Y-70605839D01*
X75369151Y-70605844D01*
X75190213Y-70756711D01*
X75190211Y-70756713D01*
X75039344Y-70935651D01*
X75039339Y-70935658D01*
X74920879Y-71137524D01*
X74838237Y-71356512D01*
X74793794Y-71586308D01*
X74793794Y-71586309D01*
X74791001Y-71638882D01*
X74791000Y-71638921D01*
X66500500Y-71638921D01*
X66500500Y-66843303D01*
X72041000Y-66843303D01*
X72041000Y-67657500D01*
X73541000Y-67657500D01*
X73541000Y-68157500D01*
X72041001Y-68157500D01*
X72041001Y-68971697D01*
X72051400Y-69103832D01*
X72106377Y-69322019D01*
X72199428Y-69526874D01*
X72199431Y-69526880D01*
X72327559Y-69711823D01*
X72327569Y-69711835D01*
X72486664Y-69870930D01*
X72486676Y-69870940D01*
X72671619Y-69999068D01*
X72671625Y-69999071D01*
X72876480Y-70092122D01*
X73094667Y-70147099D01*
X73226810Y-70157499D01*
X73790999Y-70157499D01*
X73791000Y-70157498D01*
X73791000Y-69340512D01*
X73848007Y-69373425D01*
X73975174Y-69407500D01*
X74106826Y-69407500D01*
X74233993Y-69373425D01*
X74291000Y-69340512D01*
X74291000Y-70157499D01*
X74855182Y-70157499D01*
X74855197Y-70157498D01*
X74987332Y-70147099D01*
X75205519Y-70092122D01*
X75410374Y-69999071D01*
X75410380Y-69999068D01*
X75595323Y-69870940D01*
X75595335Y-69870930D01*
X75754430Y-69711835D01*
X75754440Y-69711823D01*
X75882568Y-69526880D01*
X75882571Y-69526874D01*
X75975622Y-69322019D01*
X76030599Y-69103832D01*
X76040999Y-68971696D01*
X76041000Y-68971684D01*
X76041000Y-68157500D01*
X74541000Y-68157500D01*
X74541000Y-67657500D01*
X76040999Y-67657500D01*
X76040999Y-66843317D01*
X76040998Y-66843302D01*
X76030599Y-66711167D01*
X75975622Y-66492980D01*
X75882571Y-66288125D01*
X75882568Y-66288119D01*
X75754440Y-66103176D01*
X75754430Y-66103164D01*
X75595335Y-65944069D01*
X75595323Y-65944059D01*
X75410380Y-65815931D01*
X75410374Y-65815928D01*
X75205519Y-65722877D01*
X74987332Y-65667900D01*
X74855196Y-65657500D01*
X74291000Y-65657500D01*
X74291000Y-66474488D01*
X74233993Y-66441575D01*
X74106826Y-66407500D01*
X73975174Y-66407500D01*
X73848007Y-66441575D01*
X73791000Y-66474488D01*
X73791000Y-65657500D01*
X73226817Y-65657500D01*
X73226802Y-65657501D01*
X73094667Y-65667900D01*
X72876480Y-65722877D01*
X72671625Y-65815928D01*
X72671619Y-65815931D01*
X72486676Y-65944059D01*
X72486664Y-65944069D01*
X72327569Y-66103164D01*
X72327559Y-66103176D01*
X72199431Y-66288119D01*
X72199428Y-66288125D01*
X72106377Y-66492980D01*
X72051400Y-66711167D01*
X72041000Y-66843303D01*
X66500500Y-66843303D01*
X66500500Y-58000000D01*
X67894592Y-58000000D01*
X67914201Y-58286680D01*
X67972666Y-58568034D01*
X67972667Y-58568037D01*
X68068894Y-58838793D01*
X68068893Y-58838793D01*
X68201098Y-59093935D01*
X68366812Y-59328700D01*
X68451923Y-59419831D01*
X68562947Y-59538708D01*
X68785853Y-59720055D01*
X69031382Y-59869365D01*
X69218237Y-59950526D01*
X69294942Y-59983844D01*
X69571642Y-60061371D01*
X69821920Y-60095771D01*
X69856321Y-60100500D01*
X69856322Y-60100500D01*
X70143679Y-60100500D01*
X70174370Y-60096281D01*
X70428358Y-60061371D01*
X70705058Y-59983844D01*
X70818015Y-59934779D01*
X70968617Y-59869365D01*
X70968620Y-59869363D01*
X70968625Y-59869361D01*
X71214147Y-59720055D01*
X71437053Y-59538708D01*
X71633189Y-59328698D01*
X71798901Y-59093936D01*
X71931104Y-58838797D01*
X72027334Y-58568032D01*
X72085798Y-58286686D01*
X72105408Y-58000000D01*
X72085798Y-57713314D01*
X72027334Y-57431968D01*
X71931105Y-57161206D01*
X71931106Y-57161206D01*
X71798901Y-56906064D01*
X71633187Y-56671299D01*
X71554554Y-56587105D01*
X71437053Y-56461292D01*
X71214147Y-56279945D01*
X71214146Y-56279944D01*
X70968617Y-56130634D01*
X70705063Y-56016158D01*
X70705061Y-56016157D01*
X70705058Y-56016156D01*
X70575578Y-55979877D01*
X70428364Y-55938630D01*
X70428359Y-55938629D01*
X70428358Y-55938629D01*
X70286018Y-55919064D01*
X70143679Y-55899500D01*
X70143678Y-55899500D01*
X69856322Y-55899500D01*
X69856321Y-55899500D01*
X69571642Y-55938629D01*
X69571635Y-55938630D01*
X69363861Y-55996845D01*
X69294942Y-56016156D01*
X69294939Y-56016156D01*
X69294936Y-56016158D01*
X69294935Y-56016158D01*
X69031382Y-56130634D01*
X68785853Y-56279944D01*
X68562950Y-56461289D01*
X68366812Y-56671299D01*
X68201098Y-56906064D01*
X68068894Y-57161206D01*
X67972667Y-57431962D01*
X67972666Y-57431965D01*
X67914201Y-57713319D01*
X67894592Y-58000000D01*
X66500500Y-58000000D01*
X66500500Y-55624500D01*
X66520185Y-55557461D01*
X66572989Y-55511706D01*
X66624500Y-55500500D01*
X86876000Y-55500500D01*
X86943039Y-55520185D01*
G37*
%TD.AperFunction*%
%TD*%
%TA.AperFunction,Conductor*%
%TO.N,GND*%
G36*
X155442539Y-55520185D02*
G01*
X155488294Y-55572989D01*
X155499500Y-55624500D01*
X155499500Y-71876000D01*
X155479815Y-71943039D01*
X155427011Y-71988794D01*
X155375500Y-72000000D01*
X89051362Y-72000000D01*
X88984323Y-71980315D01*
X88963681Y-71963681D01*
X88036319Y-71036319D01*
X88002834Y-70974996D01*
X88000000Y-70948638D01*
X88000000Y-66031135D01*
X88311500Y-66031135D01*
X88311500Y-67826870D01*
X88311501Y-67826876D01*
X88317908Y-67886483D01*
X88368202Y-68021328D01*
X88368206Y-68021335D01*
X88454452Y-68136544D01*
X88454455Y-68136547D01*
X88569664Y-68222793D01*
X88569671Y-68222797D01*
X88704517Y-68273091D01*
X88704516Y-68273091D01*
X88711444Y-68273835D01*
X88764127Y-68279500D01*
X90559872Y-68279499D01*
X90619483Y-68273091D01*
X90754331Y-68222796D01*
X90869546Y-68136546D01*
X90955796Y-68021331D01*
X91006091Y-67886483D01*
X91012500Y-67826873D01*
X91012500Y-67753500D01*
X91032185Y-67686461D01*
X91084989Y-67640706D01*
X91136500Y-67629500D01*
X92496707Y-67629500D01*
X92563746Y-67649185D01*
X92609501Y-67701989D01*
X92619997Y-67740246D01*
X92623408Y-67771983D01*
X92673702Y-67906828D01*
X92673706Y-67906835D01*
X92759952Y-68022044D01*
X92759955Y-68022047D01*
X92875164Y-68108293D01*
X92875171Y-68108297D01*
X93010017Y-68158591D01*
X93010016Y-68158591D01*
X93016944Y-68159335D01*
X93069627Y-68165000D01*
X94382372Y-68164999D01*
X94441983Y-68158591D01*
X94576831Y-68108296D01*
X94692046Y-68022046D01*
X94778296Y-67906831D01*
X94804279Y-67837167D01*
X94846150Y-67781234D01*
X94911614Y-67756816D01*
X94920461Y-67756500D01*
X98631481Y-67756500D01*
X98698520Y-67776185D01*
X98719162Y-67792819D01*
X99008972Y-68082629D01*
X99042457Y-68143952D01*
X99044819Y-68181117D01*
X99024532Y-68412998D01*
X99024532Y-68413001D01*
X99044364Y-68639686D01*
X99044366Y-68639697D01*
X99103258Y-68859488D01*
X99103261Y-68859497D01*
X99199431Y-69065732D01*
X99199432Y-69065734D01*
X99329954Y-69252141D01*
X99490858Y-69413045D01*
X99490861Y-69413047D01*
X99677266Y-69543568D01*
X99883504Y-69639739D01*
X100103308Y-69698635D01*
X100265230Y-69712801D01*
X100329998Y-69718468D01*
X100330000Y-69718468D01*
X100330002Y-69718468D01*
X100386673Y-69713509D01*
X100556692Y-69698635D01*
X100776496Y-69639739D01*
X100956078Y-69555998D01*
X113234532Y-69555998D01*
X113234532Y-69556001D01*
X113254364Y-69782686D01*
X113254366Y-69782697D01*
X113313258Y-70002488D01*
X113313261Y-70002497D01*
X113409431Y-70208732D01*
X113409432Y-70208734D01*
X113539954Y-70395141D01*
X113700858Y-70556045D01*
X113700861Y-70556047D01*
X113887266Y-70686568D01*
X114093504Y-70782739D01*
X114313308Y-70841635D01*
X114475230Y-70855801D01*
X114539998Y-70861468D01*
X114540000Y-70861468D01*
X114540002Y-70861468D01*
X114596673Y-70856509D01*
X114766692Y-70841635D01*
X114986496Y-70782739D01*
X115192734Y-70686568D01*
X115379139Y-70556047D01*
X115540047Y-70395139D01*
X115670568Y-70208734D01*
X115766739Y-70002496D01*
X115825635Y-69782692D01*
X115845468Y-69556000D01*
X115845468Y-69555998D01*
X120854532Y-69555998D01*
X120854532Y-69556001D01*
X120874364Y-69782686D01*
X120874366Y-69782697D01*
X120933258Y-70002488D01*
X120933261Y-70002497D01*
X121029431Y-70208732D01*
X121029432Y-70208734D01*
X121159954Y-70395141D01*
X121320858Y-70556045D01*
X121320861Y-70556047D01*
X121507266Y-70686568D01*
X121713504Y-70782739D01*
X121933308Y-70841635D01*
X122095230Y-70855801D01*
X122159998Y-70861468D01*
X122160000Y-70861468D01*
X122160002Y-70861468D01*
X122216673Y-70856509D01*
X122386692Y-70841635D01*
X122606496Y-70782739D01*
X122812734Y-70686568D01*
X122999139Y-70556047D01*
X123160047Y-70395139D01*
X123218612Y-70311499D01*
X123220098Y-70309377D01*
X123274675Y-70265752D01*
X123321673Y-70256500D01*
X125472296Y-70256500D01*
X125563340Y-70238389D01*
X125607628Y-70229580D01*
X125671369Y-70203177D01*
X125735107Y-70176777D01*
X125735108Y-70176776D01*
X125735111Y-70176775D01*
X125849843Y-70100114D01*
X127287916Y-68662039D01*
X127349237Y-68628556D01*
X127418928Y-68633540D01*
X127474860Y-68675409D01*
X127479454Y-68681546D01*
X127525643Y-68716123D01*
X127594664Y-68767793D01*
X127594671Y-68767797D01*
X127639618Y-68784561D01*
X127729517Y-68818091D01*
X127789127Y-68824500D01*
X128294680Y-68824499D01*
X128361719Y-68844183D01*
X128382361Y-68860818D01*
X129026653Y-69505111D01*
X129026654Y-69505112D01*
X129141392Y-69581777D01*
X129268867Y-69634578D01*
X129268872Y-69634580D01*
X129268876Y-69634580D01*
X129268877Y-69634581D01*
X129404203Y-69661500D01*
X129404206Y-69661500D01*
X129404207Y-69661500D01*
X136828501Y-69661500D01*
X136895540Y-69681185D01*
X136941295Y-69733989D01*
X136952501Y-69785500D01*
X136952501Y-69858876D01*
X136958908Y-69918483D01*
X137009202Y-70053328D01*
X137009206Y-70053335D01*
X137095452Y-70168544D01*
X137095455Y-70168547D01*
X137210664Y-70254793D01*
X137210671Y-70254797D01*
X137345517Y-70305091D01*
X137345516Y-70305091D01*
X137352444Y-70305835D01*
X137405127Y-70311500D01*
X139200872Y-70311499D01*
X139260483Y-70305091D01*
X139395331Y-70254796D01*
X139510546Y-70168546D01*
X139596796Y-70053331D01*
X139647091Y-69918483D01*
X139653500Y-69858873D01*
X139653500Y-69785500D01*
X139673185Y-69718461D01*
X139725989Y-69672706D01*
X139777500Y-69661500D01*
X141908501Y-69661500D01*
X141975540Y-69681185D01*
X142021295Y-69733989D01*
X142032501Y-69785500D01*
X142032501Y-69858876D01*
X142038908Y-69918483D01*
X142089202Y-70053328D01*
X142089206Y-70053335D01*
X142175452Y-70168544D01*
X142175455Y-70168547D01*
X142290664Y-70254793D01*
X142290671Y-70254797D01*
X142425517Y-70305091D01*
X142425516Y-70305091D01*
X142432444Y-70305835D01*
X142485127Y-70311500D01*
X144280872Y-70311499D01*
X144340483Y-70305091D01*
X144475331Y-70254796D01*
X144590546Y-70168546D01*
X144676796Y-70053331D01*
X144727091Y-69918483D01*
X144733500Y-69858873D01*
X144733500Y-69785500D01*
X144753185Y-69718461D01*
X144805989Y-69672706D01*
X144857500Y-69661500D01*
X146734501Y-69661500D01*
X146801540Y-69681185D01*
X146847295Y-69733989D01*
X146858501Y-69785500D01*
X146858501Y-69858876D01*
X146864908Y-69918483D01*
X146915202Y-70053328D01*
X146915206Y-70053335D01*
X147001452Y-70168544D01*
X147001455Y-70168547D01*
X147116664Y-70254793D01*
X147116671Y-70254797D01*
X147251517Y-70305091D01*
X147251516Y-70305091D01*
X147258444Y-70305835D01*
X147311127Y-70311500D01*
X149106872Y-70311499D01*
X149166483Y-70305091D01*
X149301331Y-70254796D01*
X149416546Y-70168546D01*
X149502796Y-70053331D01*
X149553091Y-69918483D01*
X149559500Y-69858873D01*
X149559499Y-68063128D01*
X149553091Y-68003517D01*
X149539285Y-67966502D01*
X149502797Y-67868671D01*
X149502793Y-67868664D01*
X149416547Y-67753455D01*
X149416544Y-67753452D01*
X149301335Y-67667206D01*
X149301328Y-67667202D01*
X149169401Y-67617997D01*
X149113467Y-67576126D01*
X149089050Y-67510662D01*
X149103902Y-67442389D01*
X149125053Y-67414133D01*
X149247108Y-67292078D01*
X149382600Y-67098578D01*
X149482429Y-66884492D01*
X149482432Y-66884486D01*
X149539636Y-66671000D01*
X148642012Y-66671000D01*
X148674925Y-66613993D01*
X148709000Y-66486826D01*
X148709000Y-66355174D01*
X148674925Y-66228007D01*
X148642012Y-66171000D01*
X149539636Y-66171000D01*
X149539635Y-66170999D01*
X149482432Y-65957513D01*
X149482429Y-65957507D01*
X149382600Y-65743422D01*
X149382599Y-65743420D01*
X149247113Y-65549926D01*
X149247108Y-65549920D01*
X149080082Y-65382894D01*
X148886578Y-65247399D01*
X148672492Y-65147570D01*
X148672486Y-65147567D01*
X148459000Y-65090364D01*
X148459000Y-65987988D01*
X148401993Y-65955075D01*
X148274826Y-65921000D01*
X148143174Y-65921000D01*
X148016007Y-65955075D01*
X147959000Y-65987988D01*
X147959000Y-65090364D01*
X147958999Y-65090364D01*
X147745513Y-65147567D01*
X147745507Y-65147570D01*
X147531422Y-65247399D01*
X147531420Y-65247400D01*
X147337926Y-65382886D01*
X147337920Y-65382891D01*
X147170891Y-65549920D01*
X147170886Y-65549926D01*
X147035400Y-65743420D01*
X147035399Y-65743422D01*
X146935570Y-65957507D01*
X146935567Y-65957513D01*
X146878364Y-66170999D01*
X146878364Y-66171000D01*
X147775988Y-66171000D01*
X147743075Y-66228007D01*
X147709000Y-66355174D01*
X147709000Y-66486826D01*
X147743075Y-66613993D01*
X147775988Y-66671000D01*
X146878364Y-66671000D01*
X146935567Y-66884486D01*
X146935570Y-66884492D01*
X147035399Y-67098578D01*
X147170894Y-67292082D01*
X147292946Y-67414134D01*
X147326431Y-67475457D01*
X147321447Y-67545149D01*
X147279575Y-67601082D01*
X147248598Y-67617997D01*
X147116671Y-67667202D01*
X147116664Y-67667206D01*
X147001455Y-67753452D01*
X147001452Y-67753455D01*
X146915206Y-67868664D01*
X146915202Y-67868671D01*
X146864908Y-68003517D01*
X146858501Y-68063116D01*
X146858501Y-68063123D01*
X146858500Y-68063135D01*
X146858500Y-68136500D01*
X146838815Y-68203539D01*
X146786011Y-68249294D01*
X146734500Y-68260500D01*
X144857499Y-68260500D01*
X144790460Y-68240815D01*
X144744705Y-68188011D01*
X144733499Y-68136500D01*
X144733499Y-68063129D01*
X144733498Y-68063123D01*
X144733497Y-68063116D01*
X144727091Y-68003517D01*
X144713285Y-67966502D01*
X144676797Y-67868671D01*
X144676793Y-67868664D01*
X144590547Y-67753455D01*
X144590544Y-67753452D01*
X144475335Y-67667206D01*
X144475328Y-67667202D01*
X144343401Y-67617997D01*
X144287467Y-67576126D01*
X144263050Y-67510662D01*
X144277902Y-67442389D01*
X144299053Y-67414133D01*
X144421108Y-67292078D01*
X144556600Y-67098578D01*
X144656429Y-66884492D01*
X144656432Y-66884486D01*
X144713636Y-66671000D01*
X143816012Y-66671000D01*
X143848925Y-66613993D01*
X143883000Y-66486826D01*
X143883000Y-66355174D01*
X143848925Y-66228007D01*
X143816012Y-66171000D01*
X144713636Y-66171000D01*
X144713635Y-66170999D01*
X144656432Y-65957513D01*
X144656429Y-65957507D01*
X144556600Y-65743422D01*
X144556599Y-65743420D01*
X144421113Y-65549926D01*
X144421108Y-65549920D01*
X144254082Y-65382894D01*
X144060578Y-65247399D01*
X143846492Y-65147570D01*
X143846486Y-65147567D01*
X143633000Y-65090364D01*
X143633000Y-65987988D01*
X143575993Y-65955075D01*
X143448826Y-65921000D01*
X143317174Y-65921000D01*
X143190007Y-65955075D01*
X143133000Y-65987988D01*
X143133000Y-65090364D01*
X143132999Y-65090364D01*
X142919513Y-65147567D01*
X142919507Y-65147570D01*
X142705422Y-65247399D01*
X142705420Y-65247400D01*
X142511926Y-65382886D01*
X142511920Y-65382891D01*
X142344891Y-65549920D01*
X142344886Y-65549926D01*
X142209400Y-65743420D01*
X142209399Y-65743422D01*
X142109570Y-65957507D01*
X142109567Y-65957513D01*
X142052364Y-66170999D01*
X142052364Y-66171000D01*
X142949988Y-66171000D01*
X142917075Y-66228007D01*
X142883000Y-66355174D01*
X142883000Y-66486826D01*
X142917075Y-66613993D01*
X142949988Y-66671000D01*
X142052364Y-66671000D01*
X142109567Y-66884486D01*
X142109570Y-66884492D01*
X142209399Y-67098578D01*
X142344894Y-67292082D01*
X142466946Y-67414134D01*
X142500431Y-67475457D01*
X142495447Y-67545149D01*
X142453575Y-67601082D01*
X142422598Y-67617997D01*
X142290671Y-67667202D01*
X142290664Y-67667206D01*
X142175455Y-67753452D01*
X142175452Y-67753455D01*
X142089206Y-67868664D01*
X142089202Y-67868671D01*
X142038908Y-68003517D01*
X142032501Y-68063116D01*
X142032501Y-68063123D01*
X142032500Y-68063135D01*
X142032500Y-68136500D01*
X142012815Y-68203539D01*
X141960011Y-68249294D01*
X141908500Y-68260500D01*
X139777499Y-68260500D01*
X139710460Y-68240815D01*
X139664705Y-68188011D01*
X139653499Y-68136500D01*
X139653499Y-68063129D01*
X139653498Y-68063123D01*
X139653497Y-68063116D01*
X139647091Y-68003517D01*
X139633285Y-67966502D01*
X139596797Y-67868671D01*
X139596793Y-67868664D01*
X139510547Y-67753455D01*
X139510544Y-67753452D01*
X139395335Y-67667206D01*
X139395328Y-67667202D01*
X139263401Y-67617997D01*
X139207467Y-67576126D01*
X139183050Y-67510662D01*
X139197902Y-67442389D01*
X139219053Y-67414133D01*
X139341108Y-67292078D01*
X139476600Y-67098578D01*
X139576429Y-66884492D01*
X139576432Y-66884486D01*
X139633636Y-66671000D01*
X138736012Y-66671000D01*
X138768925Y-66613993D01*
X138803000Y-66486826D01*
X138803000Y-66355174D01*
X138768925Y-66228007D01*
X138736012Y-66171000D01*
X139633636Y-66171000D01*
X139633635Y-66170999D01*
X139576432Y-65957513D01*
X139576429Y-65957507D01*
X139476600Y-65743422D01*
X139476599Y-65743420D01*
X139341113Y-65549926D01*
X139341108Y-65549920D01*
X139174082Y-65382894D01*
X138980578Y-65247399D01*
X138766492Y-65147570D01*
X138766486Y-65147567D01*
X138553000Y-65090364D01*
X138553000Y-65987988D01*
X138495993Y-65955075D01*
X138368826Y-65921000D01*
X138237174Y-65921000D01*
X138110007Y-65955075D01*
X138053000Y-65987988D01*
X138053000Y-65090364D01*
X138052999Y-65090364D01*
X137839513Y-65147567D01*
X137839507Y-65147570D01*
X137625422Y-65247399D01*
X137625420Y-65247400D01*
X137431926Y-65382886D01*
X137431920Y-65382891D01*
X137264891Y-65549920D01*
X137264886Y-65549926D01*
X137129400Y-65743420D01*
X137129399Y-65743422D01*
X137029570Y-65957507D01*
X137029567Y-65957513D01*
X136972364Y-66170999D01*
X136972364Y-66171000D01*
X137869988Y-66171000D01*
X137837075Y-66228007D01*
X137803000Y-66355174D01*
X137803000Y-66486826D01*
X137837075Y-66613993D01*
X137869988Y-66671000D01*
X136972364Y-66671000D01*
X137029567Y-66884486D01*
X137029570Y-66884492D01*
X137129399Y-67098578D01*
X137264894Y-67292082D01*
X137386946Y-67414134D01*
X137420431Y-67475457D01*
X137415447Y-67545149D01*
X137373575Y-67601082D01*
X137342598Y-67617997D01*
X137210671Y-67667202D01*
X137210664Y-67667206D01*
X137095455Y-67753452D01*
X137095452Y-67753455D01*
X137009206Y-67868664D01*
X137009202Y-67868671D01*
X136958908Y-68003517D01*
X136952501Y-68063116D01*
X136952501Y-68063123D01*
X136952500Y-68063135D01*
X136952500Y-68136500D01*
X136932815Y-68203539D01*
X136880011Y-68249294D01*
X136828500Y-68260500D01*
X130061500Y-68260500D01*
X129994461Y-68240815D01*
X129948706Y-68188011D01*
X129937500Y-68136500D01*
X129937499Y-66676129D01*
X129937498Y-66676123D01*
X129937497Y-66676116D01*
X129931091Y-66616517D01*
X129928503Y-66609579D01*
X129880797Y-66481671D01*
X129880793Y-66481664D01*
X129794547Y-66366455D01*
X129794544Y-66366452D01*
X129679335Y-66280206D01*
X129679328Y-66280202D01*
X129544482Y-66229908D01*
X129544483Y-66229908D01*
X129484883Y-66223501D01*
X129484881Y-66223500D01*
X129484873Y-66223500D01*
X129484864Y-66223500D01*
X129481548Y-66223322D01*
X129481627Y-66221847D01*
X129420215Y-66203815D01*
X129374460Y-66151011D01*
X129366969Y-66107522D01*
X128683447Y-65424000D01*
X128689661Y-65424000D01*
X128791394Y-65396741D01*
X128882606Y-65344080D01*
X128957080Y-65269606D01*
X129009741Y-65178394D01*
X129037000Y-65076661D01*
X129037000Y-65070447D01*
X129716024Y-65749471D01*
X129767136Y-65676478D01*
X129863264Y-65470331D01*
X129863269Y-65470317D01*
X129922139Y-65250610D01*
X129922141Y-65250599D01*
X129941966Y-65024002D01*
X129941966Y-65023997D01*
X129922141Y-64797400D01*
X129922139Y-64797389D01*
X129863269Y-64577682D01*
X129863264Y-64577668D01*
X129767136Y-64371521D01*
X129767132Y-64371513D01*
X129716025Y-64298526D01*
X129037000Y-64977551D01*
X129037000Y-64971339D01*
X129009741Y-64869606D01*
X128957080Y-64778394D01*
X128882606Y-64703920D01*
X128791394Y-64651259D01*
X128689661Y-64624000D01*
X128683445Y-64624000D01*
X129362472Y-63944974D01*
X129289478Y-63893863D01*
X129083331Y-63797735D01*
X129083317Y-63797730D01*
X128863610Y-63738860D01*
X128863599Y-63738858D01*
X128637002Y-63719034D01*
X128636998Y-63719034D01*
X128410400Y-63738858D01*
X128410389Y-63738860D01*
X128190682Y-63797730D01*
X128190673Y-63797734D01*
X127984516Y-63893866D01*
X127984512Y-63893868D01*
X127911526Y-63944973D01*
X127911526Y-63944974D01*
X128590553Y-64624000D01*
X128584339Y-64624000D01*
X128482606Y-64651259D01*
X128391394Y-64703920D01*
X128316920Y-64778394D01*
X128264259Y-64869606D01*
X128237000Y-64971339D01*
X128237000Y-64977552D01*
X127557974Y-64298526D01*
X127557973Y-64298526D01*
X127506868Y-64371512D01*
X127506866Y-64371516D01*
X127410734Y-64577673D01*
X127410730Y-64577682D01*
X127351860Y-64797389D01*
X127351858Y-64797400D01*
X127332034Y-65023997D01*
X127332034Y-65024002D01*
X127351858Y-65250599D01*
X127351860Y-65250610D01*
X127410730Y-65470317D01*
X127410735Y-65470331D01*
X127506863Y-65676478D01*
X127557974Y-65749472D01*
X128237000Y-65070446D01*
X128237000Y-65076661D01*
X128264259Y-65178394D01*
X128316920Y-65269606D01*
X128391394Y-65344080D01*
X128482606Y-65396741D01*
X128584339Y-65424000D01*
X128590553Y-65424000D01*
X127906352Y-66108199D01*
X127896506Y-66157194D01*
X127847890Y-66207377D01*
X127792367Y-66222049D01*
X127792423Y-66223099D01*
X127792429Y-66223146D01*
X127792426Y-66223146D01*
X127792436Y-66223324D01*
X127789123Y-66223501D01*
X127729516Y-66229908D01*
X127594671Y-66280202D01*
X127594664Y-66280206D01*
X127479455Y-66366452D01*
X127479452Y-66366455D01*
X127393206Y-66481664D01*
X127393202Y-66481671D01*
X127342908Y-66616517D01*
X127337051Y-66671000D01*
X127336501Y-66676123D01*
X127336500Y-66676135D01*
X127336500Y-66727664D01*
X127316815Y-66794703D01*
X127264011Y-66840458D01*
X127236698Y-66849280D01*
X127230978Y-66850418D01*
X127230969Y-66850420D01*
X127103492Y-66903222D01*
X126988754Y-66979887D01*
X126988753Y-66979888D01*
X125149462Y-68819181D01*
X125088139Y-68852666D01*
X125061781Y-68855500D01*
X123321673Y-68855500D01*
X123254634Y-68835815D01*
X123220098Y-68802623D01*
X123160045Y-68716858D01*
X122999141Y-68555954D01*
X122812734Y-68425432D01*
X122812732Y-68425431D01*
X122606497Y-68329261D01*
X122606488Y-68329258D01*
X122386697Y-68270366D01*
X122386693Y-68270365D01*
X122386692Y-68270365D01*
X122386691Y-68270364D01*
X122386686Y-68270364D01*
X122160002Y-68250532D01*
X122159998Y-68250532D01*
X121933313Y-68270364D01*
X121933302Y-68270366D01*
X121713511Y-68329258D01*
X121713502Y-68329261D01*
X121507267Y-68425431D01*
X121507265Y-68425432D01*
X121320858Y-68555954D01*
X121159954Y-68716858D01*
X121029432Y-68903265D01*
X121029431Y-68903267D01*
X120933261Y-69109502D01*
X120933258Y-69109511D01*
X120874366Y-69329302D01*
X120874364Y-69329313D01*
X120854532Y-69555998D01*
X115845468Y-69555998D01*
X115825635Y-69329308D01*
X115766739Y-69109504D01*
X115670568Y-68903266D01*
X115540047Y-68716861D01*
X115540045Y-68716858D01*
X115379141Y-68555954D01*
X115192734Y-68425432D01*
X115192732Y-68425431D01*
X114986497Y-68329261D01*
X114986488Y-68329258D01*
X114766697Y-68270366D01*
X114766693Y-68270365D01*
X114766692Y-68270365D01*
X114766691Y-68270364D01*
X114766686Y-68270364D01*
X114540002Y-68250532D01*
X114539998Y-68250532D01*
X114313313Y-68270364D01*
X114313302Y-68270366D01*
X114093511Y-68329258D01*
X114093502Y-68329261D01*
X113887267Y-68425431D01*
X113887265Y-68425432D01*
X113700858Y-68555954D01*
X113539954Y-68716858D01*
X113409432Y-68903265D01*
X113409431Y-68903267D01*
X113313261Y-69109502D01*
X113313258Y-69109511D01*
X113254366Y-69329302D01*
X113254364Y-69329313D01*
X113234532Y-69555998D01*
X100956078Y-69555998D01*
X100982734Y-69543568D01*
X101169139Y-69413047D01*
X101330047Y-69252139D01*
X101460568Y-69065734D01*
X101556739Y-68859496D01*
X101615635Y-68639692D01*
X101635468Y-68413000D01*
X101615635Y-68186308D01*
X101556739Y-67966504D01*
X101460568Y-67760266D01*
X101330047Y-67573861D01*
X101330045Y-67573858D01*
X101169141Y-67412954D01*
X100982734Y-67282432D01*
X100982732Y-67282431D01*
X100776497Y-67186261D01*
X100776488Y-67186258D01*
X100556697Y-67127366D01*
X100556693Y-67127365D01*
X100556692Y-67127365D01*
X100556691Y-67127364D01*
X100556686Y-67127364D01*
X100330002Y-67107532D01*
X100329998Y-67107532D01*
X100098117Y-67127819D01*
X100029617Y-67114052D01*
X99999629Y-67091972D01*
X99419546Y-66511888D01*
X99419545Y-66511887D01*
X99304807Y-66435222D01*
X99177332Y-66382421D01*
X99177322Y-66382418D01*
X99041996Y-66355500D01*
X99041994Y-66355500D01*
X99041993Y-66355500D01*
X94920461Y-66355500D01*
X94853422Y-66335815D01*
X94807667Y-66283011D01*
X94804279Y-66274833D01*
X94778297Y-66205171D01*
X94778293Y-66205164D01*
X94692047Y-66089955D01*
X94692044Y-66089952D01*
X94576835Y-66003706D01*
X94576828Y-66003702D01*
X94441982Y-65953408D01*
X94441983Y-65953408D01*
X94382383Y-65947001D01*
X94382381Y-65947000D01*
X94382373Y-65947000D01*
X94382364Y-65947000D01*
X93069629Y-65947000D01*
X93069623Y-65947001D01*
X93010016Y-65953408D01*
X92875171Y-66003702D01*
X92875164Y-66003706D01*
X92759955Y-66089952D01*
X92759952Y-66089955D01*
X92693435Y-66178811D01*
X92637502Y-66220682D01*
X92594169Y-66228500D01*
X91136499Y-66228500D01*
X91069460Y-66208815D01*
X91023705Y-66156011D01*
X91012499Y-66104500D01*
X91012499Y-66031129D01*
X91012498Y-66031123D01*
X91012497Y-66031116D01*
X91006091Y-65971517D01*
X90999337Y-65953409D01*
X90955797Y-65836671D01*
X90955793Y-65836664D01*
X90869547Y-65721455D01*
X90869544Y-65721452D01*
X90754335Y-65635206D01*
X90754328Y-65635202D01*
X90622401Y-65585997D01*
X90566467Y-65544126D01*
X90542050Y-65478662D01*
X90556902Y-65410389D01*
X90578053Y-65382133D01*
X90700108Y-65260078D01*
X90835600Y-65066578D01*
X90935429Y-64852492D01*
X90935432Y-64852486D01*
X90992636Y-64639000D01*
X90095012Y-64639000D01*
X90127925Y-64581993D01*
X90162000Y-64454826D01*
X90162000Y-64323174D01*
X90127925Y-64196007D01*
X90095012Y-64139000D01*
X90992636Y-64139000D01*
X90992635Y-64138999D01*
X90935432Y-63925513D01*
X90935429Y-63925507D01*
X90835600Y-63711422D01*
X90835599Y-63711420D01*
X90700113Y-63517926D01*
X90700108Y-63517920D01*
X90533082Y-63350894D01*
X90339578Y-63215399D01*
X90125492Y-63115570D01*
X90125486Y-63115567D01*
X89912000Y-63058364D01*
X89912000Y-63955988D01*
X89854993Y-63923075D01*
X89727826Y-63889000D01*
X89596174Y-63889000D01*
X89469007Y-63923075D01*
X89412000Y-63955988D01*
X89412000Y-63058364D01*
X89411999Y-63058364D01*
X89198513Y-63115567D01*
X89198507Y-63115570D01*
X88984422Y-63215399D01*
X88984420Y-63215400D01*
X88790926Y-63350886D01*
X88790920Y-63350891D01*
X88623891Y-63517920D01*
X88623886Y-63517926D01*
X88488400Y-63711420D01*
X88488399Y-63711422D01*
X88388570Y-63925507D01*
X88388567Y-63925513D01*
X88331364Y-64138999D01*
X88331364Y-64139000D01*
X89228988Y-64139000D01*
X89196075Y-64196007D01*
X89162000Y-64323174D01*
X89162000Y-64454826D01*
X89196075Y-64581993D01*
X89228988Y-64639000D01*
X88331364Y-64639000D01*
X88388567Y-64852486D01*
X88388570Y-64852492D01*
X88488399Y-65066578D01*
X88623894Y-65260082D01*
X88745946Y-65382134D01*
X88779431Y-65443457D01*
X88774447Y-65513149D01*
X88732575Y-65569082D01*
X88701598Y-65585997D01*
X88569671Y-65635202D01*
X88569664Y-65635206D01*
X88454455Y-65721452D01*
X88454452Y-65721455D01*
X88368206Y-65836664D01*
X88368202Y-65836671D01*
X88317908Y-65971517D01*
X88314448Y-66003704D01*
X88311501Y-66031123D01*
X88311500Y-66031135D01*
X88000000Y-66031135D01*
X88000000Y-61955999D01*
X95202249Y-61955999D01*
X95202249Y-61956000D01*
X95221212Y-62160646D01*
X95221212Y-62160648D01*
X95221213Y-62160651D01*
X95255985Y-62282863D01*
X95277459Y-62358336D01*
X95369070Y-62542314D01*
X95492929Y-62706331D01*
X95623592Y-62825444D01*
X95644815Y-62844792D01*
X95819558Y-62952989D01*
X96011208Y-63027234D01*
X96213236Y-63065000D01*
X96213238Y-63065000D01*
X96382981Y-63065000D01*
X96450020Y-63084685D01*
X96470662Y-63101319D01*
X99913453Y-66544111D01*
X99913454Y-66544112D01*
X100028192Y-66620777D01*
X100149443Y-66671000D01*
X100155672Y-66673580D01*
X100155676Y-66673580D01*
X100155677Y-66673581D01*
X100291003Y-66700500D01*
X100291006Y-66700500D01*
X100291007Y-66700500D01*
X108205128Y-66700500D01*
X108272167Y-66720185D01*
X108317922Y-66772989D01*
X108321310Y-66781167D01*
X108363702Y-66894828D01*
X108363706Y-66894835D01*
X108449952Y-67010044D01*
X108449955Y-67010047D01*
X108565164Y-67096293D01*
X108565171Y-67096297D01*
X108700017Y-67146591D01*
X108700016Y-67146591D01*
X108706944Y-67147335D01*
X108759627Y-67153000D01*
X110160372Y-67152999D01*
X110219983Y-67146591D01*
X110354831Y-67096296D01*
X110470046Y-67010046D01*
X110556296Y-66894831D01*
X110606591Y-66759983D01*
X110613000Y-66700373D01*
X110612999Y-66204687D01*
X110632683Y-66137651D01*
X110685487Y-66091896D01*
X110754646Y-66081952D01*
X110818202Y-66110977D01*
X110855976Y-66169755D01*
X110860470Y-66193246D01*
X110862270Y-66212674D01*
X110920723Y-66418117D01*
X111015928Y-66609314D01*
X111025051Y-66621395D01*
X111570109Y-66076337D01*
X111594644Y-66167904D01*
X111651913Y-66267097D01*
X111732903Y-66348087D01*
X111832096Y-66405356D01*
X111923662Y-66429890D01*
X111381175Y-66972375D01*
X111381176Y-66972376D01*
X111484082Y-67036093D01*
X111484088Y-67036096D01*
X111683254Y-67113252D01*
X111893207Y-67152500D01*
X112106793Y-67152500D01*
X112316745Y-67113252D01*
X112316755Y-67113249D01*
X112515913Y-67036095D01*
X112515915Y-67036094D01*
X112618823Y-66972375D01*
X112076338Y-66429890D01*
X112167904Y-66405356D01*
X112267097Y-66348087D01*
X112348087Y-66267097D01*
X112405356Y-66167904D01*
X112429890Y-66076337D01*
X112974948Y-66621395D01*
X112984071Y-66609314D01*
X112984078Y-66609302D01*
X113079275Y-66418120D01*
X113079276Y-66418119D01*
X113137729Y-66212673D01*
X113146277Y-66120429D01*
X113172063Y-66055492D01*
X113228863Y-66014804D01*
X113298644Y-66011284D01*
X113359251Y-66046049D01*
X113391441Y-66108062D01*
X113393219Y-66120428D01*
X113401776Y-66212771D01*
X113401776Y-66212772D01*
X113460251Y-66418291D01*
X113460257Y-66418306D01*
X113555496Y-66609571D01*
X113555501Y-66609579D01*
X113684273Y-66780101D01*
X113842184Y-66924055D01*
X113842186Y-66924057D01*
X114023858Y-67036543D01*
X114023864Y-67036546D01*
X114066074Y-67052898D01*
X114223115Y-67113736D01*
X114433159Y-67153000D01*
X114433161Y-67153000D01*
X114646839Y-67153000D01*
X114646841Y-67153000D01*
X114856885Y-67113736D01*
X115056138Y-67036545D01*
X115237815Y-66924056D01*
X115318592Y-66850418D01*
X115352110Y-66819863D01*
X115414914Y-66789246D01*
X115435648Y-66787500D01*
X122014327Y-66787500D01*
X122081366Y-66807185D01*
X122115902Y-66840377D01*
X122175954Y-66926141D01*
X122336858Y-67087045D01*
X122336861Y-67087047D01*
X122523266Y-67217568D01*
X122729504Y-67313739D01*
X122949308Y-67372635D01*
X123111230Y-67386801D01*
X123175998Y-67392468D01*
X123176000Y-67392468D01*
X123176002Y-67392468D01*
X123232673Y-67387509D01*
X123402692Y-67372635D01*
X123622496Y-67313739D01*
X123828734Y-67217568D01*
X124015139Y-67087047D01*
X124176047Y-66926139D01*
X124306568Y-66739734D01*
X124402739Y-66533496D01*
X124461635Y-66313692D01*
X124481040Y-66091896D01*
X124481468Y-66087001D01*
X124481468Y-66086998D01*
X124474181Y-66003706D01*
X124461635Y-65860308D01*
X124402739Y-65640504D01*
X124306568Y-65434266D01*
X124176047Y-65247861D01*
X124176045Y-65247858D01*
X124015141Y-65086954D01*
X123828734Y-64956432D01*
X123828732Y-64956431D01*
X123622497Y-64860261D01*
X123622488Y-64860258D01*
X123402697Y-64801366D01*
X123402693Y-64801365D01*
X123402692Y-64801365D01*
X123402691Y-64801364D01*
X123402686Y-64801364D01*
X123176002Y-64781532D01*
X123175998Y-64781532D01*
X122949313Y-64801364D01*
X122949302Y-64801366D01*
X122729511Y-64860258D01*
X122729502Y-64860261D01*
X122523267Y-64956431D01*
X122523265Y-64956432D01*
X122336858Y-65086954D01*
X122175954Y-65247858D01*
X122115902Y-65333623D01*
X122061325Y-65377248D01*
X122014327Y-65386500D01*
X115583281Y-65386500D01*
X115516242Y-65366815D01*
X115484327Y-65337226D01*
X115455935Y-65299629D01*
X115395728Y-65219901D01*
X115395723Y-65219897D01*
X115395721Y-65219894D01*
X115237815Y-65075944D01*
X115237813Y-65075942D01*
X115056141Y-64963456D01*
X115056135Y-64963453D01*
X114863947Y-64889000D01*
X114856885Y-64886264D01*
X114646841Y-64847000D01*
X114433159Y-64847000D01*
X114223115Y-64886264D01*
X114223112Y-64886264D01*
X114223112Y-64886265D01*
X114023864Y-64963453D01*
X114023858Y-64963456D01*
X113842186Y-65075942D01*
X113842184Y-65075944D01*
X113684273Y-65219898D01*
X113555501Y-65390420D01*
X113555496Y-65390428D01*
X113460257Y-65581693D01*
X113460251Y-65581708D01*
X113401776Y-65787227D01*
X113401776Y-65787229D01*
X113393219Y-65879571D01*
X113367433Y-65944508D01*
X113310632Y-65985195D01*
X113240851Y-65988715D01*
X113180245Y-65953949D01*
X113148055Y-65891937D01*
X113146277Y-65879570D01*
X113137729Y-65787326D01*
X113079276Y-65581882D01*
X112984072Y-65390686D01*
X112974948Y-65378604D01*
X112429890Y-65923661D01*
X112405356Y-65832096D01*
X112348087Y-65732903D01*
X112267097Y-65651913D01*
X112167904Y-65594644D01*
X112076337Y-65570109D01*
X112618823Y-65027623D01*
X112618822Y-65027622D01*
X112515917Y-64963906D01*
X112515911Y-64963903D01*
X112316745Y-64886747D01*
X112106793Y-64847500D01*
X111893207Y-64847500D01*
X111683254Y-64886747D01*
X111683253Y-64886747D01*
X111484089Y-64963903D01*
X111381175Y-65027623D01*
X111923662Y-65570109D01*
X111832096Y-65594644D01*
X111732903Y-65651913D01*
X111651913Y-65732903D01*
X111594644Y-65832096D01*
X111570109Y-65923662D01*
X111025051Y-65378604D01*
X111025050Y-65378604D01*
X111015927Y-65390687D01*
X110920723Y-65581882D01*
X110862270Y-65787325D01*
X110860470Y-65806755D01*
X110834683Y-65871692D01*
X110777881Y-65912379D01*
X110708100Y-65915898D01*
X110647494Y-65881131D01*
X110615306Y-65819118D01*
X110612999Y-65795312D01*
X110612999Y-65299629D01*
X110612998Y-65299623D01*
X110610326Y-65274767D01*
X110606591Y-65240017D01*
X110599088Y-65219901D01*
X110556297Y-65105171D01*
X110556293Y-65105164D01*
X110470047Y-64989955D01*
X110470044Y-64989952D01*
X110354835Y-64903706D01*
X110354828Y-64903702D01*
X110219982Y-64853408D01*
X110219983Y-64853408D01*
X110160383Y-64847001D01*
X110160381Y-64847000D01*
X110160373Y-64847000D01*
X110160364Y-64847000D01*
X108759629Y-64847000D01*
X108759623Y-64847001D01*
X108700016Y-64853408D01*
X108565171Y-64903702D01*
X108565164Y-64903706D01*
X108449955Y-64989952D01*
X108449952Y-64989955D01*
X108363706Y-65105164D01*
X108363702Y-65105171D01*
X108321310Y-65218833D01*
X108279439Y-65274767D01*
X108213975Y-65299184D01*
X108205128Y-65299500D01*
X100701519Y-65299500D01*
X100634480Y-65279815D01*
X100613838Y-65263181D01*
X100277683Y-64927026D01*
X100244198Y-64865703D01*
X100249182Y-64796011D01*
X100291054Y-64740078D01*
X100354557Y-64715817D01*
X100556599Y-64698141D01*
X100556610Y-64698139D01*
X100776317Y-64639269D01*
X100776331Y-64639264D01*
X100982478Y-64543136D01*
X101055471Y-64492024D01*
X100376446Y-63813000D01*
X100382661Y-63813000D01*
X100484394Y-63785741D01*
X100575606Y-63733080D01*
X100650080Y-63658606D01*
X100702741Y-63567394D01*
X100730000Y-63465661D01*
X100730000Y-63459447D01*
X101409024Y-64138471D01*
X101460136Y-64065478D01*
X101556264Y-63859331D01*
X101556269Y-63859317D01*
X101615139Y-63639610D01*
X101615141Y-63639599D01*
X101634966Y-63413002D01*
X101634966Y-63412997D01*
X101615141Y-63186400D01*
X101615139Y-63186389D01*
X101556269Y-62966682D01*
X101556264Y-62966668D01*
X101460136Y-62760521D01*
X101460132Y-62760513D01*
X101409025Y-62687526D01*
X100730000Y-63366551D01*
X100730000Y-63360339D01*
X100702741Y-63258606D01*
X100650080Y-63167394D01*
X100575606Y-63092920D01*
X100484394Y-63040259D01*
X100382661Y-63013000D01*
X100376445Y-63013000D01*
X101055472Y-62333974D01*
X100982478Y-62282863D01*
X100776331Y-62186735D01*
X100776317Y-62186730D01*
X100556610Y-62127860D01*
X100556599Y-62127858D01*
X100330002Y-62108034D01*
X100329998Y-62108034D01*
X100103400Y-62127858D01*
X100103389Y-62127860D01*
X99883682Y-62186730D01*
X99883673Y-62186734D01*
X99677516Y-62282866D01*
X99677512Y-62282868D01*
X99604526Y-62333973D01*
X99604526Y-62333974D01*
X100283553Y-63013000D01*
X100277339Y-63013000D01*
X100175606Y-63040259D01*
X100084394Y-63092920D01*
X100009920Y-63167394D01*
X99957259Y-63258606D01*
X99930000Y-63360339D01*
X99930000Y-63366553D01*
X99250974Y-62687526D01*
X99250973Y-62687526D01*
X99199868Y-62760512D01*
X99199866Y-62760516D01*
X99103734Y-62966673D01*
X99103730Y-62966682D01*
X99044860Y-63186389D01*
X99044858Y-63186400D01*
X99027182Y-63388442D01*
X99001730Y-63453511D01*
X98945139Y-63494490D01*
X98875377Y-63498368D01*
X98815973Y-63465316D01*
X97460472Y-62109815D01*
X97426987Y-62048492D01*
X97424682Y-62010694D01*
X97429751Y-61956000D01*
X97410787Y-61751349D01*
X97354542Y-61553667D01*
X97262930Y-61369686D01*
X97139072Y-61205671D01*
X97139070Y-61205668D01*
X97008893Y-61086997D01*
X121871034Y-61086997D01*
X121871034Y-61087002D01*
X121890858Y-61313599D01*
X121890860Y-61313610D01*
X121949730Y-61533317D01*
X121949735Y-61533331D01*
X122045863Y-61739478D01*
X122096974Y-61812472D01*
X122776000Y-61133446D01*
X122776000Y-61139661D01*
X122803259Y-61241394D01*
X122855920Y-61332606D01*
X122930394Y-61407080D01*
X123021606Y-61459741D01*
X123123339Y-61487000D01*
X123129553Y-61487000D01*
X122450526Y-62166025D01*
X122523513Y-62217132D01*
X122523521Y-62217136D01*
X122729668Y-62313264D01*
X122729682Y-62313269D01*
X122949389Y-62372139D01*
X122949400Y-62372141D01*
X123175998Y-62391966D01*
X123176002Y-62391966D01*
X123402599Y-62372141D01*
X123402610Y-62372139D01*
X123622317Y-62313269D01*
X123622331Y-62313264D01*
X123828478Y-62217136D01*
X123901471Y-62166024D01*
X123222447Y-61487000D01*
X123228661Y-61487000D01*
X123330394Y-61459741D01*
X123421606Y-61407080D01*
X123496080Y-61332606D01*
X123548741Y-61241394D01*
X123576000Y-61139661D01*
X123576000Y-61133447D01*
X124255024Y-61812471D01*
X124306136Y-61739478D01*
X124402264Y-61533331D01*
X124402269Y-61533317D01*
X124461139Y-61313610D01*
X124461141Y-61313599D01*
X124480966Y-61087002D01*
X124480966Y-61086997D01*
X124461141Y-60860400D01*
X124461139Y-60860389D01*
X124402269Y-60640682D01*
X124402264Y-60640668D01*
X124306136Y-60434521D01*
X124306132Y-60434513D01*
X124255025Y-60361526D01*
X123576000Y-61040551D01*
X123576000Y-61034339D01*
X123548741Y-60932606D01*
X123496080Y-60841394D01*
X123421606Y-60766920D01*
X123330394Y-60714259D01*
X123228661Y-60687000D01*
X123222445Y-60687000D01*
X123901472Y-60007974D01*
X123828478Y-59956863D01*
X123622331Y-59860735D01*
X123622317Y-59860730D01*
X123402610Y-59801860D01*
X123402599Y-59801858D01*
X123176002Y-59782034D01*
X123175998Y-59782034D01*
X122949400Y-59801858D01*
X122949389Y-59801860D01*
X122729682Y-59860730D01*
X122729673Y-59860734D01*
X122523516Y-59956866D01*
X122523512Y-59956868D01*
X122450526Y-60007973D01*
X122450526Y-60007974D01*
X123129553Y-60687000D01*
X123123339Y-60687000D01*
X123021606Y-60714259D01*
X122930394Y-60766920D01*
X122855920Y-60841394D01*
X122803259Y-60932606D01*
X122776000Y-61034339D01*
X122776000Y-61040552D01*
X122096974Y-60361526D01*
X122096973Y-60361526D01*
X122045868Y-60434512D01*
X122045866Y-60434516D01*
X121949734Y-60640673D01*
X121949730Y-60640682D01*
X121890860Y-60860389D01*
X121890858Y-60860400D01*
X121871034Y-61086997D01*
X97008893Y-61086997D01*
X96987186Y-61067209D01*
X96987185Y-61067208D01*
X96812442Y-60959011D01*
X96812441Y-60959010D01*
X96672308Y-60904723D01*
X96620792Y-60884766D01*
X96418764Y-60847000D01*
X96213236Y-60847000D01*
X96011208Y-60884766D01*
X96011205Y-60884766D01*
X96011205Y-60884767D01*
X95819558Y-60959010D01*
X95819557Y-60959011D01*
X95644813Y-61067209D01*
X95492929Y-61205668D01*
X95369070Y-61369685D01*
X95277459Y-61553663D01*
X95221212Y-61751353D01*
X95202249Y-61955999D01*
X88000000Y-61955999D01*
X88000000Y-58000000D01*
X150294592Y-58000000D01*
X150314201Y-58286680D01*
X150372666Y-58568034D01*
X150372667Y-58568037D01*
X150468894Y-58838793D01*
X150468893Y-58838793D01*
X150601098Y-59093935D01*
X150766812Y-59328700D01*
X150851923Y-59419831D01*
X150962947Y-59538708D01*
X151185853Y-59720055D01*
X151417190Y-59860735D01*
X151431382Y-59869365D01*
X151618237Y-59950526D01*
X151694942Y-59983844D01*
X151971642Y-60061371D01*
X152221920Y-60095771D01*
X152256321Y-60100500D01*
X152256322Y-60100500D01*
X152543679Y-60100500D01*
X152574370Y-60096281D01*
X152828358Y-60061371D01*
X153105058Y-59983844D01*
X153218015Y-59934779D01*
X153368617Y-59869365D01*
X153368620Y-59869363D01*
X153368625Y-59869361D01*
X153614147Y-59720055D01*
X153837053Y-59538708D01*
X154033189Y-59328698D01*
X154198901Y-59093936D01*
X154331104Y-58838797D01*
X154427334Y-58568032D01*
X154485798Y-58286686D01*
X154505408Y-58000000D01*
X154485798Y-57713314D01*
X154427334Y-57431968D01*
X154331105Y-57161206D01*
X154331106Y-57161206D01*
X154198901Y-56906064D01*
X154033187Y-56671299D01*
X153954554Y-56587105D01*
X153837053Y-56461292D01*
X153614147Y-56279945D01*
X153614146Y-56279944D01*
X153368617Y-56130634D01*
X153105063Y-56016158D01*
X153105061Y-56016157D01*
X153105058Y-56016156D01*
X152975578Y-55979877D01*
X152828364Y-55938630D01*
X152828359Y-55938629D01*
X152828358Y-55938629D01*
X152686018Y-55919064D01*
X152543679Y-55899500D01*
X152543678Y-55899500D01*
X152256322Y-55899500D01*
X152256321Y-55899500D01*
X151971642Y-55938629D01*
X151971635Y-55938630D01*
X151763861Y-55996845D01*
X151694942Y-56016156D01*
X151694939Y-56016156D01*
X151694936Y-56016158D01*
X151694935Y-56016158D01*
X151431382Y-56130634D01*
X151185853Y-56279944D01*
X150962950Y-56461289D01*
X150766812Y-56671299D01*
X150601098Y-56906064D01*
X150468894Y-57161206D01*
X150372667Y-57431962D01*
X150372666Y-57431965D01*
X150314201Y-57713319D01*
X150294592Y-58000000D01*
X88000000Y-58000000D01*
X88000000Y-55624500D01*
X88019685Y-55557461D01*
X88072489Y-55511706D01*
X88124000Y-55500500D01*
X155375500Y-55500500D01*
X155442539Y-55520185D01*
G37*
%TD.AperFunction*%
%TD*%
M02*
