M48
; DRILL file {KiCad 9.0.3} date 2025-08-11T18:09:07+0900
; FORMAT={-:-/ absolute / metric / decimal}
; #@! TF.CreationDate,2025-08-11T18:09:07+09:00
; #@! TF.GenerationSoftware,Kicad,Pcbnew,9.0.3
; #@! TF.FileFunction,Plated,1,2,PTH
FMAT,2
METRIC
; #@! TA.AperFunction,Plated,PTH,ViaDrill
T1C0.300
; #@! TA.AperFunction,Plated,PTH,ComponentDrill
T2C0.600
; #@! TA.AperFunction,Plated,PTH,ComponentDrill
T3C0.700
; #@! TA.AperFunction,Plated,PTH,ComponentDrill
T4C0.750
; #@! TA.AperFunction,Plated,PTH,ComponentDrill
T5C0.800
; #@! TA.AperFunction,Plated,PTH,ComponentDrill
T6C1.000
; #@! TA.AperFunction,Plated,PTH,ComponentDrill
T7C1.200
; #@! TA.AperFunction,Plated,PTH,ComponentDrill
T8C2.970
%
G90
G05
T1
X118.0Y-34.431
X118.364Y-83.801
X122.723Y-72.559
X137.271Y-52.45
X160.549Y-60.545
X161.036Y-67.056
X163.576Y-60.325
X163.89Y-58.674
X166.497Y-59.563
X167.13Y-67.056
X169.509Y-65.755
X169.509Y-68.834
X175.071Y-48.671
T2
X120.476Y-64.149
X122.476Y-64.149
T3
X112.522Y-77.47
X113.332Y-50.433
X120.142Y-77.47
X120.952Y-50.433
X122.73Y-71.134
X122.73Y-78.754
X122.73Y-91.962
X122.73Y-99.582
X125.143Y-71.134
X125.143Y-78.754
X125.143Y-91.962
X125.143Y-99.582
X127.556Y-62.752
X127.683Y-71.134
X127.683Y-78.754
X127.683Y-91.962
X127.683Y-99.582
X129.461Y-50.306
X135.176Y-62.752
X135.303Y-91.962
X135.303Y-99.582
X137.081Y-50.306
X137.843Y-91.962
X137.843Y-99.582
X137.97Y-71.134
X137.97Y-78.754
X138.097Y-56.021
X138.097Y-63.641
X140.764Y-78.881
X140.764Y-86.501
X145.844Y-50.306
X151.571Y-56.148
X151.571Y-63.768
X152.702Y-71.007
X152.702Y-78.627
X152.956Y-92.089
X152.956Y-99.709
X153.464Y-50.306
X154.238Y-56.148
X154.238Y-63.768
X155.242Y-71.007
X155.242Y-78.627
X155.242Y-92.089
X155.242Y-99.709
X156.778Y-56.148
X156.778Y-63.768
X157.782Y-71.007
X157.782Y-78.627
X157.782Y-92.089
X157.782Y-99.709
X161.846Y-50.433
X164.005Y-92.089
X164.005Y-99.709
X167.942Y-70.753
X167.942Y-78.373
X167.942Y-92.089
X167.942Y-99.709
X169.466Y-50.433
X170.99Y-78.373
X170.99Y-85.993
X171.879Y-50.433
X172.399Y-55.386
X172.399Y-63.006
X179.499Y-50.433
T4
X128.064Y-57.672
X129.334Y-56.402
X129.334Y-58.942
X133.525Y-56.529
X133.525Y-59.069
X134.795Y-57.799
X178.102Y-44.464
X178.102Y-47.004
X179.372Y-45.734
T5
X120.063Y-81.548
X120.063Y-89.168
X122.603Y-81.548
X122.603Y-89.168
X125.143Y-81.548
X125.143Y-89.168
X127.683Y-81.548
X127.683Y-89.168
X130.223Y-81.548
X130.223Y-89.168
X131.493Y-93.272
X131.493Y-98.272
X131.62Y-72.277
X131.62Y-77.277
X132.763Y-81.548
X132.763Y-89.168
X135.303Y-81.548
X135.303Y-89.168
X137.843Y-81.548
X137.843Y-89.168
X142.173Y-57.291
X142.173Y-62.371
X147.253Y-59.831
X150.162Y-81.548
X150.162Y-89.168
X152.702Y-81.548
X152.702Y-89.168
X155.242Y-81.548
X155.242Y-89.168
X157.782Y-81.548
X157.782Y-89.168
X160.322Y-81.548
X160.322Y-89.168
X161.211Y-93.526
X161.211Y-98.526
X161.338Y-72.19
X161.338Y-77.19
X161.35Y-55.894
X161.35Y-63.514
X162.862Y-81.548
X162.862Y-89.168
X163.89Y-55.894
X163.89Y-63.514
X165.402Y-81.548
X165.402Y-89.168
X166.43Y-55.894
X166.43Y-63.514
X167.942Y-81.548
X167.942Y-89.168
X168.97Y-55.894
X168.97Y-63.514
X179.46Y-34.431
X179.46Y-39.511
X182.0Y-36.971
T6
X111.193Y-56.427
X111.193Y-58.967
X111.193Y-61.507
X111.193Y-64.047
X111.193Y-66.587
X111.193Y-69.127
X111.427Y-81.675
X111.427Y-84.215
X111.427Y-86.755
X113.733Y-56.427
X113.733Y-58.967
X113.733Y-61.507
X113.733Y-64.047
X113.733Y-66.587
X113.733Y-69.127
X113.967Y-81.675
X113.967Y-84.215
X113.967Y-86.755
X144.955Y-80.024
X144.955Y-82.564
X144.955Y-85.104
X178.61Y-89.168
X178.61Y-91.708
X179.372Y-56.783
X179.372Y-59.323
X179.372Y-61.863
X179.372Y-64.403
X179.372Y-66.943
X179.372Y-69.483
T7
X114.661Y-45.593
X117.161Y-45.593
X119.661Y-45.593
X131.017Y-45.593
X133.517Y-45.593
X136.017Y-45.593
X147.373Y-45.593
X149.873Y-45.593
X152.373Y-45.593
X163.729Y-45.593
X166.229Y-45.593
X168.729Y-45.593
T8
X112.761Y-38.593
X121.561Y-38.593
X129.117Y-38.593
X137.917Y-38.593
X145.473Y-38.593
X154.273Y-38.593
X161.829Y-38.593
X170.629Y-38.593
M30
