%TF.GenerationSoftware,KiCad,Pcbnew,9.0.3*%
%TF.CreationDate,2025-08-11T18:09:04+09:00*%
%TF.ProjectId,debugVCFSeparate,64656275-6756-4434-9653-657061726174,rev?*%
%TF.SameCoordinates,Original*%
%TF.FileFunction,Soldermask,Bot*%
%TF.FilePolarity,Negative*%
%FSLAX46Y46*%
G04 Gerber Fmt 4.6, Leading zero omitted, Abs format (unit mm)*
G04 Created by KiCad (PCBNEW 9.0.3) date 2025-08-11 18:09:04*
%MOMM*%
%LPD*%
G01*
G04 APERTURE LIST*
G04 Aperture macros list*
%AMRoundRect*
0 Rectangle with rounded corners*
0 $1 Rounding radius*
0 $2 $3 $4 $5 $6 $7 $8 $9 X,Y pos of 4 corners*
0 Add a 4 corners polygon primitive as box body*
4,1,4,$2,$3,$4,$5,$6,$7,$8,$9,$2,$3,0*
0 Add four circle primitives for the rounded corners*
1,1,$1+$1,$2,$3*
1,1,$1+$1,$4,$5*
1,1,$1+$1,$6,$7*
1,1,$1+$1,$8,$9*
0 Add four rect primitives between the rounded corners*
20,1,$1+$1,$2,$3,$4,$5,0*
20,1,$1+$1,$4,$5,$6,$7,0*
20,1,$1+$1,$6,$7,$8,$9,0*
20,1,$1+$1,$8,$9,$2,$3,0*%
G04 Aperture macros list end*
%ADD10C,1.400000*%
%ADD11C,1.200000*%
%ADD12RoundRect,0.250000X0.550000X-0.950000X0.550000X0.950000X-0.550000X0.950000X-0.550000X-0.950000X0*%
%ADD13O,1.600000X2.400000*%
%ADD14C,1.440000*%
%ADD15R,1.700000X1.700000*%
%ADD16C,1.700000*%
%ADD17R,1.800000X1.100000*%
%ADD18RoundRect,0.275000X0.625000X-0.275000X0.625000X0.275000X-0.625000X0.275000X-0.625000X-0.275000X0*%
%ADD19RoundRect,0.275000X-0.625000X0.275000X-0.625000X-0.275000X0.625000X-0.275000X0.625000X0.275000X0*%
%ADD20C,1.600000*%
%ADD21C,1.800000*%
%ADD22C,4.455000*%
G04 APERTURE END LIST*
D10*
%TO.C,R31*%
X112522000Y-77470000D03*
X120142000Y-77470000D03*
%TD*%
%TO.C,R20*%
X138097000Y-63641000D03*
X138097000Y-56021000D03*
%TD*%
D11*
%TO.C,C8*%
X120476000Y-64149000D03*
X122476000Y-64149000D03*
%TD*%
D12*
%TO.C,U1*%
X120063000Y-89168000D03*
D13*
X122603000Y-89168000D03*
X125143000Y-89168000D03*
X127683000Y-89168000D03*
X130223000Y-89168000D03*
X132763000Y-89168000D03*
X135303000Y-89168000D03*
X137843000Y-89168000D03*
X137843000Y-81548000D03*
X135303000Y-81548000D03*
X132763000Y-81548000D03*
X130223000Y-81548000D03*
X127683000Y-81548000D03*
X125143000Y-81548000D03*
X122603000Y-81548000D03*
X120063000Y-81548000D03*
%TD*%
D10*
%TO.C,R28*%
X171879000Y-50433000D03*
X179499000Y-50433000D03*
%TD*%
%TO.C,R30*%
X164005000Y-92089000D03*
X164005000Y-99709000D03*
%TD*%
D14*
%TO.C,RV1*%
X142173000Y-62371000D03*
X147253000Y-59831000D03*
X142173000Y-57291000D03*
%TD*%
D10*
%TO.C,R25*%
X129461000Y-50306000D03*
X137081000Y-50306000D03*
%TD*%
D15*
%TO.C,J3*%
X111427000Y-81675000D03*
D16*
X113967000Y-81675000D03*
X111427000Y-84215000D03*
X113967000Y-84215000D03*
X111427000Y-86755000D03*
X113967000Y-86755000D03*
%TD*%
D15*
%TO.C,J1*%
X179372000Y-56783000D03*
D16*
X179372000Y-59323000D03*
X179372000Y-61863000D03*
X179372000Y-64403000D03*
X179372000Y-66943000D03*
X179372000Y-69483000D03*
%TD*%
D17*
%TO.C,Q2*%
X129734000Y-58942000D03*
D18*
X127664000Y-57672000D03*
X129734000Y-56402000D03*
%TD*%
D10*
%TO.C,R18*%
X155242000Y-99709000D03*
X155242000Y-92089000D03*
%TD*%
%TO.C,R9*%
X137843000Y-91962000D03*
X137843000Y-99582000D03*
%TD*%
%TO.C,R15*%
X170990000Y-85993000D03*
X170990000Y-78373000D03*
%TD*%
D15*
%TO.C,J5*%
X178610000Y-89168000D03*
D16*
X178610000Y-91708000D03*
%TD*%
D17*
%TO.C,Q1*%
X177702000Y-44464000D03*
D19*
X179772000Y-45734000D03*
X177702000Y-47004000D03*
%TD*%
D10*
%TO.C,R19*%
X156778000Y-63768000D03*
X156778000Y-56148000D03*
%TD*%
D20*
%TO.C,C1*%
X131620000Y-77277000D03*
X131620000Y-72277000D03*
%TD*%
D10*
%TO.C,R16*%
X152956000Y-92089000D03*
X152956000Y-99709000D03*
%TD*%
D20*
%TO.C,C2*%
X131493000Y-98272000D03*
X131493000Y-93272000D03*
%TD*%
D10*
%TO.C,R10*%
X135303000Y-91962000D03*
X135303000Y-99582000D03*
%TD*%
D15*
%TO.C,J2*%
X113733000Y-56427000D03*
D16*
X111193000Y-56427000D03*
X113733000Y-58967000D03*
X111193000Y-58967000D03*
X113733000Y-61507000D03*
X111193000Y-61507000D03*
X113733000Y-64047000D03*
X111193000Y-64047000D03*
X113733000Y-66587000D03*
X111193000Y-66587000D03*
X113733000Y-69127000D03*
X111193000Y-69127000D03*
%TD*%
D20*
%TO.C,C3*%
X161338000Y-77190000D03*
X161338000Y-72190000D03*
%TD*%
%TO.C,C4*%
X161211000Y-93526000D03*
X161211000Y-98526000D03*
%TD*%
D10*
%TO.C,R26*%
X145844000Y-50306000D03*
X153464000Y-50306000D03*
%TD*%
D12*
%TO.C,U3*%
X161350000Y-63514000D03*
D13*
X163890000Y-63514000D03*
X166430000Y-63514000D03*
X168970000Y-63514000D03*
X168970000Y-55894000D03*
X166430000Y-55894000D03*
X163890000Y-55894000D03*
X161350000Y-55894000D03*
%TD*%
D12*
%TO.C,U2*%
X150162000Y-89168000D03*
D13*
X152702000Y-89168000D03*
X155242000Y-89168000D03*
X157782000Y-89168000D03*
X160322000Y-89168000D03*
X162862000Y-89168000D03*
X165402000Y-89168000D03*
X167942000Y-89168000D03*
X167942000Y-81548000D03*
X165402000Y-81548000D03*
X162862000Y-81548000D03*
X160322000Y-81548000D03*
X157782000Y-81548000D03*
X155242000Y-81548000D03*
X152702000Y-81548000D03*
X150162000Y-81548000D03*
%TD*%
D21*
%TO.C,VR1*%
X114661000Y-45593000D03*
X117161000Y-45593000D03*
X119661000Y-45593000D03*
D22*
X112761000Y-38593000D03*
X121561000Y-38593000D03*
%TD*%
D10*
%TO.C,R4*%
X122730000Y-71134000D03*
X122730000Y-78754000D03*
%TD*%
%TO.C,R1*%
X127683000Y-71134000D03*
X127683000Y-78754000D03*
%TD*%
%TO.C,R29*%
X169466000Y-50433000D03*
X161846000Y-50433000D03*
%TD*%
%TO.C,R6*%
X140764000Y-86501000D03*
X140764000Y-78881000D03*
%TD*%
D15*
%TO.C,J4*%
X144955000Y-80024000D03*
D16*
X144955000Y-82564000D03*
X144955000Y-85104000D03*
%TD*%
D10*
%TO.C,R7*%
X127683000Y-99582000D03*
X127683000Y-91962000D03*
%TD*%
%TO.C,R27*%
X113332000Y-50433000D03*
X120952000Y-50433000D03*
%TD*%
%TO.C,R17*%
X157782000Y-99709000D03*
X157782000Y-92089000D03*
%TD*%
%TO.C,R3*%
X137970000Y-71134000D03*
X137970000Y-78754000D03*
%TD*%
%TO.C,R24*%
X167942000Y-99709000D03*
X167942000Y-92089000D03*
%TD*%
D14*
%TO.C,RV2*%
X179460000Y-39511000D03*
X182000000Y-36971000D03*
X179460000Y-34431000D03*
%TD*%
D21*
%TO.C,VR4*%
X163729000Y-45593000D03*
X166229000Y-45593000D03*
X168729000Y-45593000D03*
D22*
X161829000Y-38593000D03*
X170629000Y-38593000D03*
%TD*%
D10*
%TO.C,R5*%
X122730000Y-91962000D03*
X122730000Y-99582000D03*
%TD*%
%TO.C,R14*%
X167942000Y-70753000D03*
X167942000Y-78373000D03*
%TD*%
%TO.C,R23*%
X135176000Y-62752000D03*
X127556000Y-62752000D03*
%TD*%
%TO.C,R39*%
X172399000Y-55386000D03*
X172399000Y-63006000D03*
%TD*%
%TO.C,R13*%
X155242000Y-71007000D03*
X155242000Y-78627000D03*
%TD*%
D21*
%TO.C,VR2*%
X131017000Y-45593000D03*
X133517000Y-45593000D03*
X136017000Y-45593000D03*
D22*
X129117000Y-38593000D03*
X137917000Y-38593000D03*
%TD*%
D21*
%TO.C,VR3*%
X147373000Y-45593000D03*
X149873000Y-45593000D03*
X152373000Y-45593000D03*
D22*
X145473000Y-38593000D03*
X154273000Y-38593000D03*
%TD*%
D10*
%TO.C,R21*%
X151571000Y-63768000D03*
X151571000Y-56148000D03*
%TD*%
D17*
%TO.C,Q4*%
X133125000Y-56529000D03*
D19*
X135195000Y-57799000D03*
X133125000Y-59069000D03*
%TD*%
D10*
%TO.C,R8*%
X125143000Y-99582000D03*
X125143000Y-91962000D03*
%TD*%
%TO.C,R2*%
X125143000Y-71134000D03*
X125143000Y-78754000D03*
%TD*%
%TO.C,R12*%
X157782000Y-71007000D03*
X157782000Y-78627000D03*
%TD*%
%TO.C,R11*%
X152702000Y-71007000D03*
X152702000Y-78627000D03*
%TD*%
%TO.C,R22*%
X154238000Y-63768000D03*
X154238000Y-56148000D03*
%TD*%
M02*
