M48
; DRILL file {KiCad 8.0.8} date 2025-06-29T12:55:07+0900
; FORMAT={-:-/ absolute / metric / decimal}
; #@! TF.CreationDate,2025-06-29T12:55:07+09:00
; #@! TF.GenerationSoftware,Kicad,Pcbnew,8.0.8
; #@! TF.FileFunction,Plated,1,2,PTH
FMAT,2
METRIC
; #@! TA.AperFunction,Plated,PTH,ViaDrill
T1C0.300
; #@! TA.AperFunction,Plated,PTH,ComponentDrill
T2C0.600
; #@! TA.AperFunction,Plated,PTH,ComponentDrill
T3C0.750
; #@! TA.AperFunction,Plated,PTH,ComponentDrill
T4C0.759
; #@! TA.AperFunction,Plated,PTH,ComponentDrill
T5C0.800
; #@! TA.AperFunction,Plated,PTH,ComponentDrill
T6C0.900
; #@! TA.AperFunction,Plated,PTH,ComponentDrill
T7C1.000
; #@! TA.AperFunction,Plated,PTH,ComponentDrill
T8C1.200
; #@! TA.AperFunction,Plated,PTH,ComponentDrill
T9C1.500
; #@! TA.AperFunction,Plated,PTH,ComponentDrill
T10C2.970
%
G90
G05
T1
X156.109Y-61.213
X156.109Y-84.79
X156.138Y-94.233
X171.707Y-140.442
X173.611Y-137.407
X173.863Y-148.463
X175.915Y-84.997
X176.116Y-81.5
X176.53Y-137.287
X178.689Y-144.018
X178.689Y-147.574
X178.916Y-99.077
X180.239Y-134.62
X185.928Y-139.319
X188.722Y-131.572
X191.703Y-93.632
X193.548Y-140.208
X203.263Y-89.98
X203.263Y-126.244
X204.062Y-136.823
X204.216Y-57.531
X211.455Y-78.867
X212.104Y-126.05
T2
X216.378Y-138.057
X216.378Y-139.557
T3
X199.275Y-99.822
X200.545Y-98.552
X200.545Y-101.092
T4
X213.201Y-87.727
X213.201Y-90.33
X213.201Y-92.934
X213.201Y-95.537
X213.201Y-98.141
X213.201Y-100.744
X213.201Y-103.348
X213.201Y-105.951
X221.139Y-87.727
X221.139Y-90.33
X221.139Y-92.934
X221.139Y-95.537
X221.139Y-98.141
X221.139Y-100.744
X221.139Y-103.348
X221.139Y-105.951
T5
X150.913Y-76.2
X150.913Y-78.7
X155.485Y-76.327
X155.485Y-78.867
X159.422Y-76.425
X159.422Y-78.965
X166.878Y-61.976
X166.878Y-65.151
X166.878Y-68.326
X166.878Y-71.501
X166.878Y-74.676
X166.878Y-77.851
X166.878Y-81.026
X166.878Y-84.201
X167.963Y-142.574
X167.992Y-132.922
X167.992Y-136.097
X167.992Y-139.399
X169.164Y-104.267
X169.418Y-61.976
X169.418Y-65.151
X169.418Y-68.326
X169.418Y-71.501
X169.418Y-74.676
X169.418Y-77.851
X169.418Y-81.026
X169.418Y-84.201
X170.18Y-94.234
X170.18Y-99.314
X170.503Y-142.574
X170.532Y-132.922
X170.532Y-136.097
X170.532Y-139.399
X171.704Y-104.267
X172.72Y-96.774
X174.498Y-104.267
X177.023Y-93.316
X177.023Y-95.856
X177.023Y-98.65
X177.023Y-101.19
X177.038Y-104.267
X177.546Y-86.995
X180.086Y-86.995
X183.388Y-135.447
X183.388Y-143.067
X185.928Y-135.447
X185.928Y-143.067
X187.325Y-85.598
X187.33Y-88.803
X187.706Y-82.296
X188.468Y-135.447
X188.468Y-143.067
X189.738Y-94.107
X189.738Y-99.187
X189.865Y-85.598
X189.87Y-88.803
X190.206Y-82.296
X190.91Y-146.431
X191.008Y-135.447
X191.008Y-143.067
X192.278Y-96.647
X192.659Y-76.708
X193.167Y-85.217
X193.167Y-87.757
X193.45Y-146.431
X193.548Y-135.447
X193.548Y-143.067
X195.199Y-76.708
X196.088Y-135.447
X196.088Y-143.067
X198.628Y-135.447
X198.628Y-143.067
X199.009Y-93.218
X199.009Y-95.758
X202.565Y-135.56
X202.565Y-138.1
X202.565Y-140.923
X202.565Y-143.463
X202.819Y-93.218
X202.819Y-95.758
X206.785Y-117.826
X206.785Y-121.826
X206.785Y-123.826
X206.785Y-125.826
X207.645Y-95.504
X207.772Y-100.014
X208.026Y-87.568
X208.026Y-90.616
X208.153Y-62.417
X208.153Y-64.417
X208.153Y-66.417
X208.153Y-70.417
X208.153Y-103.316
X208.153Y-106.364
X208.915Y-80.177
X208.915Y-82.677
X210.185Y-95.504
X210.272Y-100.014
X210.566Y-87.568
X210.566Y-90.616
X210.693Y-103.316
X210.693Y-106.364
X215.011Y-60.198
X215.011Y-62.738
X215.011Y-65.503
X215.011Y-68.043
X215.011Y-70.358
X215.011Y-72.898
X215.138Y-80.177
X215.138Y-82.677
X217.961Y-132.018
X220.501Y-132.018
X221.996Y-81.218
X224.028Y-105.983
X224.048Y-102.935
X224.068Y-99.76
X224.507Y-89.981
X224.507Y-96.458
X224.536Y-78.678
X224.536Y-93.283
X226.528Y-105.983
X226.548Y-102.935
X226.568Y-99.76
X227.047Y-89.981
X227.047Y-96.458
X227.076Y-81.218
X227.076Y-93.283
T6
X178.607Y-62.766
X178.607Y-65.066
X178.607Y-67.366
X178.607Y-69.666
X178.607Y-71.966
X178.607Y-74.266
T7
X149.0Y-115.0
X149.0Y-117.54
X149.0Y-120.08
X149.0Y-122.62
X149.0Y-125.16
X149.0Y-127.7
X150.622Y-92.71
X150.622Y-95.25
X150.622Y-97.79
X150.622Y-100.33
X153.162Y-92.71
X153.162Y-95.25
X153.162Y-97.79
X153.162Y-100.33
X216.218Y-143.702
X216.218Y-146.242
X218.758Y-143.702
X218.758Y-146.242
X221.298Y-143.702
X221.298Y-146.242
X223.838Y-143.702
X223.838Y-146.242
X226.378Y-143.702
X226.378Y-146.242
T8
X152.522Y-71.135
X155.022Y-71.135
X157.522Y-71.135
X160.933Y-127.207
X163.433Y-127.207
X165.933Y-127.207
X178.689Y-137.367
X178.689Y-139.907
X186.478Y-127.065
X188.978Y-127.065
X189.315Y-71.643
X191.478Y-127.065
X191.815Y-71.643
X194.315Y-71.643
X207.01Y-134.573
X207.01Y-137.113
X207.01Y-141.644
X207.01Y-144.184
X218.168Y-127.065
X220.668Y-127.065
X223.168Y-127.065
X223.687Y-71.544
X226.187Y-71.544
X228.687Y-71.544
T9
X206.785Y-115.726
X206.785Y-127.926
X208.153Y-60.317
X208.153Y-72.517
T10
X150.622Y-64.135
X159.033Y-120.207
X159.422Y-64.135
X167.833Y-120.207
X184.578Y-120.065
X187.415Y-64.643
X193.378Y-120.065
X196.215Y-64.643
X216.268Y-120.065
X221.787Y-64.544
X225.068Y-120.065
X230.587Y-64.544
M30
