%TF.GenerationSoftware,KiCad,Pcbnew,8.0.8*%
%TF.CreationDate,2025-06-29T12:55:09+09:00*%
%TF.ProjectId,VCOSeparate,56434f53-6570-4617-9261-74652e6b6963,rev?*%
%TF.SameCoordinates,Original*%
%TF.FileFunction,Drillmap*%
%TF.FilePolarity,Positive*%
%FSLAX45Y45*%
G04 Gerber Fmt 4.5, Leading zero omitted, Abs format (unit mm)*
G04 Created by KiCad (PCBNEW 8.0.8) date 2025-06-29 12:55:09*
%MOMM*%
%LPD*%
G01*
G04 APERTURE LIST*
%ADD10C,0.050000*%
%ADD11C,0.200000*%
%ADD12C,0.100000*%
%ADD13C,0.120000*%
%ADD14C,0.150000*%
%ADD15C,0.297000*%
G04 APERTURE END LIST*
D10*
X14000000Y-5100000D02*
X24000000Y-5100000D01*
X24000000Y-15100000D01*
X14000000Y-15100000D01*
X14000000Y-5100000D01*
X14520000Y-5500000D02*
G75*
G02*
X14200000Y-5500000I-160000J0D01*
G01*
X14200000Y-5500000D02*
G75*
G02*
X14520000Y-5500000I160000J0D01*
G01*
X23800000Y-5400000D02*
G75*
G02*
X23480000Y-5400000I-160000J0D01*
G01*
X23480000Y-5400000D02*
G75*
G02*
X23800000Y-5400000I160000J0D01*
G01*
X23760000Y-14600000D02*
G75*
G02*
X23440000Y-14600000I-160000J0D01*
G01*
X23440000Y-14600000D02*
G75*
G02*
X23760000Y-14600000I160000J0D01*
G01*
X14560000Y-14700000D02*
G75*
G02*
X14240000Y-14700000I-160000J0D01*
G01*
X14240000Y-14700000D02*
G75*
G02*
X14560000Y-14700000I160000J0D01*
G01*
D11*
D12*
X15595900Y-6106340D02*
X15625900Y-6136340D01*
X15625900Y-6106340D02*
X15595900Y-6136340D01*
X15595900Y-8464020D02*
X15625900Y-8494020D01*
X15625900Y-8464020D02*
X15595900Y-8494020D01*
X15598800Y-9408250D02*
X15628800Y-9438250D01*
X15628800Y-9408250D02*
X15598800Y-9438250D01*
X17155700Y-14029200D02*
X17185700Y-14059200D01*
X17185700Y-14029200D02*
X17155700Y-14059200D01*
X17346100Y-13725700D02*
X17376100Y-13755700D01*
X17376100Y-13725700D02*
X17346100Y-13755700D01*
X17371300Y-14831300D02*
X17401300Y-14861300D01*
X17401300Y-14831300D02*
X17371300Y-14861300D01*
X17576500Y-8484710D02*
X17606500Y-8514710D01*
X17606500Y-8484710D02*
X17576500Y-8514710D01*
X17596600Y-8135030D02*
X17626600Y-8165030D01*
X17626600Y-8135030D02*
X17596600Y-8165030D01*
X17638000Y-13713700D02*
X17668000Y-13743700D01*
X17668000Y-13713700D02*
X17638000Y-13743700D01*
X17853900Y-14386800D02*
X17883900Y-14416800D01*
X17883900Y-14386800D02*
X17853900Y-14416800D01*
X17853900Y-14742400D02*
X17883900Y-14772400D01*
X17883900Y-14742400D02*
X17853900Y-14772400D01*
X17876600Y-9892680D02*
X17906600Y-9922680D01*
X17906600Y-9892680D02*
X17876600Y-9922680D01*
X18008900Y-13447000D02*
X18038900Y-13477000D01*
X18038900Y-13447000D02*
X18008900Y-13477000D01*
X18577800Y-13916900D02*
X18607800Y-13946900D01*
X18607800Y-13916900D02*
X18577800Y-13946900D01*
X18857200Y-13142200D02*
X18887200Y-13172200D01*
X18887200Y-13142200D02*
X18857200Y-13172200D01*
X19155300Y-9348150D02*
X19185300Y-9378150D01*
X19185300Y-9348150D02*
X19155300Y-9378150D01*
X19339800Y-14005800D02*
X19369800Y-14035800D01*
X19369800Y-14005800D02*
X19339800Y-14035800D01*
X20311300Y-8982990D02*
X20341300Y-9012990D01*
X20341300Y-8982990D02*
X20311300Y-9012990D01*
X20311300Y-12609400D02*
X20341300Y-12639400D01*
X20341300Y-12609400D02*
X20311300Y-12639400D01*
X20391200Y-13667300D02*
X20421200Y-13697300D01*
X20421200Y-13667300D02*
X20391200Y-13697300D01*
X20406600Y-5738100D02*
X20436600Y-5768100D01*
X20436600Y-5738100D02*
X20406600Y-5768100D01*
X21130500Y-7871700D02*
X21160500Y-7901700D01*
X21160500Y-7871700D02*
X21130500Y-7901700D01*
X21195400Y-12590000D02*
X21225400Y-12620000D01*
X21225400Y-12590000D02*
X21195400Y-12620000D01*
X21667800Y-13805700D02*
G75*
G02*
X21607800Y-13805700I-30000J0D01*
G01*
X21607800Y-13805700D02*
G75*
G02*
X21667800Y-13805700I30000J0D01*
G01*
X21667800Y-13955700D02*
G75*
G02*
X21607800Y-13955700I-30000J0D01*
G01*
X21607800Y-13955700D02*
G75*
G02*
X21667800Y-13955700I30000J0D01*
G01*
X19927500Y-9944700D02*
X19927500Y-10019700D01*
X19890000Y-9982200D02*
X19965000Y-9982200D01*
X20054500Y-9817700D02*
X20054500Y-9892700D01*
X20017000Y-9855200D02*
X20092000Y-9855200D01*
X20054500Y-10071700D02*
X20054500Y-10146700D01*
X20017000Y-10109200D02*
X20092000Y-10109200D01*
X21346935Y-8799525D02*
X21346935Y-8745855D01*
X21293265Y-8745855D01*
X21293265Y-8799525D01*
X21346935Y-8799525D01*
X21346935Y-9059825D02*
X21346935Y-9006155D01*
X21293265Y-9006155D01*
X21293265Y-9059825D01*
X21346935Y-9059825D01*
X21346935Y-9320225D02*
X21346935Y-9266555D01*
X21293265Y-9266555D01*
X21293265Y-9320225D01*
X21346935Y-9320225D01*
X21346935Y-9580525D02*
X21346935Y-9526855D01*
X21293265Y-9526855D01*
X21293265Y-9580525D01*
X21346935Y-9580525D01*
X21346935Y-9840925D02*
X21346935Y-9787255D01*
X21293265Y-9787255D01*
X21293265Y-9840925D01*
X21346935Y-9840925D01*
X21346935Y-10101225D02*
X21346935Y-10047555D01*
X21293265Y-10047555D01*
X21293265Y-10101225D01*
X21346935Y-10101225D01*
X21346935Y-10361625D02*
X21346935Y-10307955D01*
X21293265Y-10307955D01*
X21293265Y-10361625D01*
X21346935Y-10361625D01*
X21346935Y-10621925D02*
X21346935Y-10568255D01*
X21293265Y-10568255D01*
X21293265Y-10621925D01*
X21346935Y-10621925D01*
X22140735Y-8799525D02*
X22140735Y-8745855D01*
X22087065Y-8745855D01*
X22087065Y-8799525D01*
X22140735Y-8799525D01*
X22140735Y-9059825D02*
X22140735Y-9006155D01*
X22087065Y-9006155D01*
X22087065Y-9059825D01*
X22140735Y-9059825D01*
X22140735Y-9320225D02*
X22140735Y-9266555D01*
X22087065Y-9266555D01*
X22087065Y-9320225D01*
X22140735Y-9320225D01*
X22140735Y-9580525D02*
X22140735Y-9526855D01*
X22087065Y-9526855D01*
X22087065Y-9580525D01*
X22140735Y-9580525D01*
X22140735Y-9840925D02*
X22140735Y-9787255D01*
X22087065Y-9787255D01*
X22087065Y-9840925D01*
X22140735Y-9840925D01*
X22140735Y-10101225D02*
X22140735Y-10047555D01*
X22087065Y-10047555D01*
X22087065Y-10101225D01*
X22140735Y-10101225D01*
X22140735Y-10361625D02*
X22140735Y-10307955D01*
X22087065Y-10307955D01*
X22087065Y-10361625D01*
X22140735Y-10361625D01*
X22140735Y-10621925D02*
X22140735Y-10568255D01*
X22087065Y-10568255D01*
X22087065Y-10621925D01*
X22140735Y-10621925D01*
X15091300Y-7660000D02*
X15131300Y-7620000D01*
X15091300Y-7580000D01*
X15051300Y-7620000D01*
X15091300Y-7660000D01*
X15091300Y-7910000D02*
X15131300Y-7870000D01*
X15091300Y-7830000D01*
X15051300Y-7870000D01*
X15091300Y-7910000D01*
X15548500Y-7672700D02*
X15588500Y-7632700D01*
X15548500Y-7592700D01*
X15508500Y-7632700D01*
X15548500Y-7672700D01*
X15548500Y-7926700D02*
X15588500Y-7886700D01*
X15548500Y-7846700D01*
X15508500Y-7886700D01*
X15548500Y-7926700D01*
X15942200Y-7682500D02*
X15982200Y-7642500D01*
X15942200Y-7602500D01*
X15902200Y-7642500D01*
X15942200Y-7682500D01*
X15942200Y-7936500D02*
X15982200Y-7896500D01*
X15942200Y-7856500D01*
X15902200Y-7896500D01*
X15942200Y-7936500D01*
X16687800Y-6237600D02*
X16727800Y-6197600D01*
X16687800Y-6157600D01*
X16647800Y-6197600D01*
X16687800Y-6237600D01*
X16687800Y-6555100D02*
X16727800Y-6515100D01*
X16687800Y-6475100D01*
X16647800Y-6515100D01*
X16687800Y-6555100D01*
X16687800Y-6872600D02*
X16727800Y-6832600D01*
X16687800Y-6792600D01*
X16647800Y-6832600D01*
X16687800Y-6872600D01*
X16687800Y-7190100D02*
X16727800Y-7150100D01*
X16687800Y-7110100D01*
X16647800Y-7150100D01*
X16687800Y-7190100D01*
X16687800Y-7507600D02*
X16727800Y-7467600D01*
X16687800Y-7427600D01*
X16647800Y-7467600D01*
X16687800Y-7507600D01*
X16687800Y-7825100D02*
X16727800Y-7785100D01*
X16687800Y-7745100D01*
X16647800Y-7785100D01*
X16687800Y-7825100D01*
X16687800Y-8142600D02*
X16727800Y-8102600D01*
X16687800Y-8062600D01*
X16647800Y-8102600D01*
X16687800Y-8142600D01*
X16687800Y-8460100D02*
X16727800Y-8420100D01*
X16687800Y-8380100D01*
X16647800Y-8420100D01*
X16687800Y-8460100D01*
X16796300Y-14297400D02*
X16836300Y-14257400D01*
X16796300Y-14217400D01*
X16756300Y-14257400D01*
X16796300Y-14297400D01*
X16799200Y-13332200D02*
X16839200Y-13292200D01*
X16799200Y-13252200D01*
X16759200Y-13292200D01*
X16799200Y-13332200D01*
X16799200Y-13649700D02*
X16839200Y-13609700D01*
X16799200Y-13569700D01*
X16759200Y-13609700D01*
X16799200Y-13649700D01*
X16799200Y-13979900D02*
X16839200Y-13939900D01*
X16799200Y-13899900D01*
X16759200Y-13939900D01*
X16799200Y-13979900D01*
X16916400Y-10466700D02*
X16956400Y-10426700D01*
X16916400Y-10386700D01*
X16876400Y-10426700D01*
X16916400Y-10466700D01*
X16941800Y-6237600D02*
X16981800Y-6197600D01*
X16941800Y-6157600D01*
X16901800Y-6197600D01*
X16941800Y-6237600D01*
X16941800Y-6555100D02*
X16981800Y-6515100D01*
X16941800Y-6475100D01*
X16901800Y-6515100D01*
X16941800Y-6555100D01*
X16941800Y-6872600D02*
X16981800Y-6832600D01*
X16941800Y-6792600D01*
X16901800Y-6832600D01*
X16941800Y-6872600D01*
X16941800Y-7190100D02*
X16981800Y-7150100D01*
X16941800Y-7110100D01*
X16901800Y-7150100D01*
X16941800Y-7190100D01*
X16941800Y-7507600D02*
X16981800Y-7467600D01*
X16941800Y-7427600D01*
X16901800Y-7467600D01*
X16941800Y-7507600D01*
X16941800Y-7825100D02*
X16981800Y-7785100D01*
X16941800Y-7745100D01*
X16901800Y-7785100D01*
X16941800Y-7825100D01*
X16941800Y-8142600D02*
X16981800Y-8102600D01*
X16941800Y-8062600D01*
X16901800Y-8102600D01*
X16941800Y-8142600D01*
X16941800Y-8460100D02*
X16981800Y-8420100D01*
X16941800Y-8380100D01*
X16901800Y-8420100D01*
X16941800Y-8460100D01*
X17018000Y-9463400D02*
X17058000Y-9423400D01*
X17018000Y-9383400D01*
X16978000Y-9423400D01*
X17018000Y-9463400D01*
X17018000Y-9971400D02*
X17058000Y-9931400D01*
X17018000Y-9891400D01*
X16978000Y-9931400D01*
X17018000Y-9971400D01*
X17050300Y-14297400D02*
X17090300Y-14257400D01*
X17050300Y-14217400D01*
X17010300Y-14257400D01*
X17050300Y-14297400D01*
X17053200Y-13332200D02*
X17093200Y-13292200D01*
X17053200Y-13252200D01*
X17013200Y-13292200D01*
X17053200Y-13332200D01*
X17053200Y-13649700D02*
X17093200Y-13609700D01*
X17053200Y-13569700D01*
X17013200Y-13609700D01*
X17053200Y-13649700D01*
X17053200Y-13979900D02*
X17093200Y-13939900D01*
X17053200Y-13899900D01*
X17013200Y-13939900D01*
X17053200Y-13979900D01*
X17170400Y-10466700D02*
X17210400Y-10426700D01*
X17170400Y-10386700D01*
X17130400Y-10426700D01*
X17170400Y-10466700D01*
X17272000Y-9717400D02*
X17312000Y-9677400D01*
X17272000Y-9637400D01*
X17232000Y-9677400D01*
X17272000Y-9717400D01*
X17449800Y-10466700D02*
X17489800Y-10426700D01*
X17449800Y-10386700D01*
X17409800Y-10426700D01*
X17449800Y-10466700D01*
X17702300Y-9371600D02*
X17742300Y-9331600D01*
X17702300Y-9291600D01*
X17662300Y-9331600D01*
X17702300Y-9371600D01*
X17702300Y-9625600D02*
X17742300Y-9585600D01*
X17702300Y-9545600D01*
X17662300Y-9585600D01*
X17702300Y-9625600D01*
X17702300Y-9905000D02*
X17742300Y-9865000D01*
X17702300Y-9825000D01*
X17662300Y-9865000D01*
X17702300Y-9905000D01*
X17702300Y-10159000D02*
X17742300Y-10119000D01*
X17702300Y-10079000D01*
X17662300Y-10119000D01*
X17702300Y-10159000D01*
X17703800Y-10466700D02*
X17743800Y-10426700D01*
X17703800Y-10386700D01*
X17663800Y-10426700D01*
X17703800Y-10466700D01*
X17754600Y-8739500D02*
X17794600Y-8699500D01*
X17754600Y-8659500D01*
X17714600Y-8699500D01*
X17754600Y-8739500D01*
X18008600Y-8739500D02*
X18048600Y-8699500D01*
X18008600Y-8659500D01*
X17968600Y-8699500D01*
X18008600Y-8739500D01*
X18338800Y-13584700D02*
X18378800Y-13544700D01*
X18338800Y-13504700D01*
X18298800Y-13544700D01*
X18338800Y-13584700D01*
X18338800Y-14346700D02*
X18378800Y-14306700D01*
X18338800Y-14266700D01*
X18298800Y-14306700D01*
X18338800Y-14346700D01*
X18592800Y-13584700D02*
X18632800Y-13544700D01*
X18592800Y-13504700D01*
X18552800Y-13544700D01*
X18592800Y-13584700D01*
X18592800Y-14346700D02*
X18632800Y-14306700D01*
X18592800Y-14266700D01*
X18552800Y-14306700D01*
X18592800Y-14346700D01*
X18732500Y-8599800D02*
X18772500Y-8559800D01*
X18732500Y-8519800D01*
X18692500Y-8559800D01*
X18732500Y-8599800D01*
X18733000Y-8920300D02*
X18773000Y-8880300D01*
X18733000Y-8840300D01*
X18693000Y-8880300D01*
X18733000Y-8920300D01*
X18770600Y-8269600D02*
X18810600Y-8229600D01*
X18770600Y-8189600D01*
X18730600Y-8229600D01*
X18770600Y-8269600D01*
X18846800Y-13584700D02*
X18886800Y-13544700D01*
X18846800Y-13504700D01*
X18806800Y-13544700D01*
X18846800Y-13584700D01*
X18846800Y-14346700D02*
X18886800Y-14306700D01*
X18846800Y-14266700D01*
X18806800Y-14306700D01*
X18846800Y-14346700D01*
X18973800Y-9450700D02*
X19013800Y-9410700D01*
X18973800Y-9370700D01*
X18933800Y-9410700D01*
X18973800Y-9450700D01*
X18973800Y-9958700D02*
X19013800Y-9918700D01*
X18973800Y-9878700D01*
X18933800Y-9918700D01*
X18973800Y-9958700D01*
X18986500Y-8599800D02*
X19026500Y-8559800D01*
X18986500Y-8519800D01*
X18946500Y-8559800D01*
X18986500Y-8599800D01*
X18987000Y-8920300D02*
X19027000Y-8880300D01*
X18987000Y-8840300D01*
X18947000Y-8880300D01*
X18987000Y-8920300D01*
X19020600Y-8269600D02*
X19060600Y-8229600D01*
X19020600Y-8189600D01*
X18980600Y-8229600D01*
X19020600Y-8269600D01*
X19091000Y-14683100D02*
X19131000Y-14643100D01*
X19091000Y-14603100D01*
X19051000Y-14643100D01*
X19091000Y-14683100D01*
X19100800Y-13584700D02*
X19140800Y-13544700D01*
X19100800Y-13504700D01*
X19060800Y-13544700D01*
X19100800Y-13584700D01*
X19100800Y-14346700D02*
X19140800Y-14306700D01*
X19100800Y-14266700D01*
X19060800Y-14306700D01*
X19100800Y-14346700D01*
X19227800Y-9704700D02*
X19267800Y-9664700D01*
X19227800Y-9624700D01*
X19187800Y-9664700D01*
X19227800Y-9704700D01*
X19265900Y-7710800D02*
X19305900Y-7670800D01*
X19265900Y-7630800D01*
X19225900Y-7670800D01*
X19265900Y-7710800D01*
X19316700Y-8561700D02*
X19356700Y-8521700D01*
X19316700Y-8481700D01*
X19276700Y-8521700D01*
X19316700Y-8561700D01*
X19316700Y-8815700D02*
X19356700Y-8775700D01*
X19316700Y-8735700D01*
X19276700Y-8775700D01*
X19316700Y-8815700D01*
X19345000Y-14683100D02*
X19385000Y-14643100D01*
X19345000Y-14603100D01*
X19305000Y-14643100D01*
X19345000Y-14683100D01*
X19354800Y-13584700D02*
X19394800Y-13544700D01*
X19354800Y-13504700D01*
X19314800Y-13544700D01*
X19354800Y-13584700D01*
X19354800Y-14346700D02*
X19394800Y-14306700D01*
X19354800Y-14266700D01*
X19314800Y-14306700D01*
X19354800Y-14346700D01*
X19519900Y-7710800D02*
X19559900Y-7670800D01*
X19519900Y-7630800D01*
X19479900Y-7670800D01*
X19519900Y-7710800D01*
X19608800Y-13584700D02*
X19648800Y-13544700D01*
X19608800Y-13504700D01*
X19568800Y-13544700D01*
X19608800Y-13584700D01*
X19608800Y-14346700D02*
X19648800Y-14306700D01*
X19608800Y-14266700D01*
X19568800Y-14306700D01*
X19608800Y-14346700D01*
X19862800Y-13584700D02*
X19902800Y-13544700D01*
X19862800Y-13504700D01*
X19822800Y-13544700D01*
X19862800Y-13584700D01*
X19862800Y-14346700D02*
X19902800Y-14306700D01*
X19862800Y-14266700D01*
X19822800Y-14306700D01*
X19862800Y-14346700D01*
X19900900Y-9361800D02*
X19940900Y-9321800D01*
X19900900Y-9281800D01*
X19860900Y-9321800D01*
X19900900Y-9361800D01*
X19900900Y-9615800D02*
X19940900Y-9575800D01*
X19900900Y-9535800D01*
X19860900Y-9575800D01*
X19900900Y-9615800D01*
X20256500Y-13596000D02*
X20296500Y-13556000D01*
X20256500Y-13516000D01*
X20216500Y-13556000D01*
X20256500Y-13596000D01*
X20256500Y-13850000D02*
X20296500Y-13810000D01*
X20256500Y-13770000D01*
X20216500Y-13810000D01*
X20256500Y-13850000D01*
X20256500Y-14132300D02*
X20296500Y-14092300D01*
X20256500Y-14052300D01*
X20216500Y-14092300D01*
X20256500Y-14132300D01*
X20256500Y-14386300D02*
X20296500Y-14346300D01*
X20256500Y-14306300D01*
X20216500Y-14346300D01*
X20256500Y-14386300D01*
X20281900Y-9361800D02*
X20321900Y-9321800D01*
X20281900Y-9281800D01*
X20241900Y-9321800D01*
X20281900Y-9361800D01*
X20281900Y-9615800D02*
X20321900Y-9575800D01*
X20281900Y-9535800D01*
X20241900Y-9575800D01*
X20281900Y-9615800D01*
X20678500Y-11822600D02*
X20718500Y-11782600D01*
X20678500Y-11742600D01*
X20638500Y-11782600D01*
X20678500Y-11822600D01*
X20678500Y-12222600D02*
X20718500Y-12182600D01*
X20678500Y-12142600D01*
X20638500Y-12182600D01*
X20678500Y-12222600D01*
X20678500Y-12422600D02*
X20718500Y-12382600D01*
X20678500Y-12342600D01*
X20638500Y-12382600D01*
X20678500Y-12422600D01*
X20678500Y-12622600D02*
X20718500Y-12582600D01*
X20678500Y-12542600D01*
X20638500Y-12582600D01*
X20678500Y-12622600D01*
X20764500Y-9590400D02*
X20804500Y-9550400D01*
X20764500Y-9510400D01*
X20724500Y-9550400D01*
X20764500Y-9590400D01*
X20777200Y-10041390D02*
X20817200Y-10001390D01*
X20777200Y-9961390D01*
X20737200Y-10001390D01*
X20777200Y-10041390D01*
X20802600Y-8796790D02*
X20842600Y-8756790D01*
X20802600Y-8716790D01*
X20762600Y-8756790D01*
X20802600Y-8796790D01*
X20802600Y-9101590D02*
X20842600Y-9061590D01*
X20802600Y-9021590D01*
X20762600Y-9061590D01*
X20802600Y-9101590D01*
X20815300Y-6281700D02*
X20855300Y-6241700D01*
X20815300Y-6201700D01*
X20775300Y-6241700D01*
X20815300Y-6281700D01*
X20815300Y-6481700D02*
X20855300Y-6441700D01*
X20815300Y-6401700D01*
X20775300Y-6441700D01*
X20815300Y-6481700D01*
X20815300Y-6681700D02*
X20855300Y-6641700D01*
X20815300Y-6601700D01*
X20775300Y-6641700D01*
X20815300Y-6681700D01*
X20815300Y-7081700D02*
X20855300Y-7041700D01*
X20815300Y-7001700D01*
X20775300Y-7041700D01*
X20815300Y-7081700D01*
X20815300Y-10371590D02*
X20855300Y-10331590D01*
X20815300Y-10291590D01*
X20775300Y-10331590D01*
X20815300Y-10371590D01*
X20815300Y-10676390D02*
X20855300Y-10636390D01*
X20815300Y-10596390D01*
X20775300Y-10636390D01*
X20815300Y-10676390D01*
X20891500Y-8057700D02*
X20931500Y-8017700D01*
X20891500Y-7977700D01*
X20851500Y-8017700D01*
X20891500Y-8057700D01*
X20891500Y-8307700D02*
X20931500Y-8267700D01*
X20891500Y-8227700D01*
X20851500Y-8267700D01*
X20891500Y-8307700D01*
X21018500Y-9590400D02*
X21058500Y-9550400D01*
X21018500Y-9510400D01*
X20978500Y-9550400D01*
X21018500Y-9590400D01*
X21027200Y-10041390D02*
X21067200Y-10001390D01*
X21027200Y-9961390D01*
X20987200Y-10001390D01*
X21027200Y-10041390D01*
X21056600Y-8796790D02*
X21096600Y-8756790D01*
X21056600Y-8716790D01*
X21016600Y-8756790D01*
X21056600Y-8796790D01*
X21056600Y-9101590D02*
X21096600Y-9061590D01*
X21056600Y-9021590D01*
X21016600Y-9061590D01*
X21056600Y-9101590D01*
X21069300Y-10371590D02*
X21109300Y-10331590D01*
X21069300Y-10291590D01*
X21029300Y-10331590D01*
X21069300Y-10371590D01*
X21069300Y-10676390D02*
X21109300Y-10636390D01*
X21069300Y-10596390D01*
X21029300Y-10636390D01*
X21069300Y-10676390D01*
X21501100Y-6059800D02*
X21541100Y-6019800D01*
X21501100Y-5979800D01*
X21461100Y-6019800D01*
X21501100Y-6059800D01*
X21501100Y-6313800D02*
X21541100Y-6273800D01*
X21501100Y-6233800D01*
X21461100Y-6273800D01*
X21501100Y-6313800D01*
X21501100Y-6590300D02*
X21541100Y-6550300D01*
X21501100Y-6510300D01*
X21461100Y-6550300D01*
X21501100Y-6590300D01*
X21501100Y-6844300D02*
X21541100Y-6804300D01*
X21501100Y-6764300D01*
X21461100Y-6804300D01*
X21501100Y-6844300D01*
X21501100Y-7075800D02*
X21541100Y-7035800D01*
X21501100Y-6995800D01*
X21461100Y-7035800D01*
X21501100Y-7075800D01*
X21501100Y-7329800D02*
X21541100Y-7289800D01*
X21501100Y-7249800D01*
X21461100Y-7289800D01*
X21501100Y-7329800D01*
X21513800Y-8057700D02*
X21553800Y-8017700D01*
X21513800Y-7977700D01*
X21473800Y-8017700D01*
X21513800Y-8057700D01*
X21513800Y-8307700D02*
X21553800Y-8267700D01*
X21513800Y-8227700D01*
X21473800Y-8267700D01*
X21513800Y-8307700D01*
X21796100Y-13241800D02*
X21836100Y-13201800D01*
X21796100Y-13161800D01*
X21756100Y-13201800D01*
X21796100Y-13241800D01*
X22050100Y-13241800D02*
X22090100Y-13201800D01*
X22050100Y-13161800D01*
X22010100Y-13201800D01*
X22050100Y-13241800D01*
X22199600Y-8161790D02*
X22239600Y-8121790D01*
X22199600Y-8081790D01*
X22159600Y-8121790D01*
X22199600Y-8161790D01*
X22402800Y-10638290D02*
X22442800Y-10598290D01*
X22402800Y-10558290D01*
X22362800Y-10598290D01*
X22402800Y-10638290D01*
X22404800Y-10333490D02*
X22444800Y-10293490D01*
X22404800Y-10253490D01*
X22364800Y-10293490D01*
X22404800Y-10333490D01*
X22406800Y-10015990D02*
X22446800Y-9975990D01*
X22406800Y-9935990D01*
X22366800Y-9975990D01*
X22406800Y-10015990D01*
X22450700Y-9038090D02*
X22490700Y-8998090D01*
X22450700Y-8958090D01*
X22410700Y-8998090D01*
X22450700Y-9038090D01*
X22450700Y-9685790D02*
X22490700Y-9645790D01*
X22450700Y-9605790D01*
X22410700Y-9645790D01*
X22450700Y-9685790D01*
X22453600Y-7907790D02*
X22493600Y-7867790D01*
X22453600Y-7827790D01*
X22413600Y-7867790D01*
X22453600Y-7907790D01*
X22453600Y-9368290D02*
X22493600Y-9328290D01*
X22453600Y-9288290D01*
X22413600Y-9328290D01*
X22453600Y-9368290D01*
X22652800Y-10638290D02*
X22692800Y-10598290D01*
X22652800Y-10558290D01*
X22612800Y-10598290D01*
X22652800Y-10638290D01*
X22654800Y-10333490D02*
X22694800Y-10293490D01*
X22654800Y-10253490D01*
X22614800Y-10293490D01*
X22654800Y-10333490D01*
X22656800Y-10015990D02*
X22696800Y-9975990D01*
X22656800Y-9935990D01*
X22616800Y-9975990D01*
X22656800Y-10015990D01*
X22704700Y-9038090D02*
X22744700Y-8998090D01*
X22704700Y-8958090D01*
X22664700Y-8998090D01*
X22704700Y-9038090D01*
X22704700Y-9685790D02*
X22744700Y-9645790D01*
X22704700Y-9605790D01*
X22664700Y-9645790D01*
X22704700Y-9685790D01*
X22707600Y-8161790D02*
X22747600Y-8121790D01*
X22707600Y-8081790D01*
X22667600Y-8121790D01*
X22707600Y-8161790D01*
X22707600Y-9368290D02*
X22747600Y-9328290D01*
X22707600Y-9288290D01*
X22667600Y-9328290D01*
X22707600Y-9368290D01*
X17815700Y-6231600D02*
X17905700Y-6321600D01*
X17905700Y-6231600D02*
X17815700Y-6321600D01*
X17905700Y-6276600D02*
G75*
G02*
X17815700Y-6276600I-45000J0D01*
G01*
X17815700Y-6276600D02*
G75*
G02*
X17905700Y-6276600I45000J0D01*
G01*
X17815700Y-6461600D02*
X17905700Y-6551600D01*
X17905700Y-6461600D02*
X17815700Y-6551600D01*
X17905700Y-6506600D02*
G75*
G02*
X17815700Y-6506600I-45000J0D01*
G01*
X17815700Y-6506600D02*
G75*
G02*
X17905700Y-6506600I45000J0D01*
G01*
X17815700Y-6691600D02*
X17905700Y-6781600D01*
X17905700Y-6691600D02*
X17815700Y-6781600D01*
X17905700Y-6736600D02*
G75*
G02*
X17815700Y-6736600I-45000J0D01*
G01*
X17815700Y-6736600D02*
G75*
G02*
X17905700Y-6736600I45000J0D01*
G01*
X17815700Y-6921600D02*
X17905700Y-7011600D01*
X17905700Y-6921600D02*
X17815700Y-7011600D01*
X17905700Y-6966600D02*
G75*
G02*
X17815700Y-6966600I-45000J0D01*
G01*
X17815700Y-6966600D02*
G75*
G02*
X17905700Y-6966600I45000J0D01*
G01*
X17815700Y-7151600D02*
X17905700Y-7241600D01*
X17905700Y-7151600D02*
X17815700Y-7241600D01*
X17905700Y-7196600D02*
G75*
G02*
X17815700Y-7196600I-45000J0D01*
G01*
X17815700Y-7196600D02*
G75*
G02*
X17905700Y-7196600I45000J0D01*
G01*
X17815700Y-7381600D02*
X17905700Y-7471600D01*
X17905700Y-7381600D02*
X17815700Y-7471600D01*
X17905700Y-7426600D02*
G75*
G02*
X17815700Y-7426600I-45000J0D01*
G01*
X17815700Y-7426600D02*
G75*
G02*
X17905700Y-7426600I45000J0D01*
G01*
X14850000Y-11450000D02*
X14950000Y-11550000D01*
X14950000Y-11450000D02*
X14850000Y-11550000D01*
X14900000Y-11450000D02*
X14900000Y-11550000D01*
X14850000Y-11500000D02*
X14950000Y-11500000D01*
X14850000Y-11704000D02*
X14950000Y-11804000D01*
X14950000Y-11704000D02*
X14850000Y-11804000D01*
X14900000Y-11704000D02*
X14900000Y-11804000D01*
X14850000Y-11754000D02*
X14950000Y-11754000D01*
X14850000Y-11958000D02*
X14950000Y-12058000D01*
X14950000Y-11958000D02*
X14850000Y-12058000D01*
X14900000Y-11958000D02*
X14900000Y-12058000D01*
X14850000Y-12008000D02*
X14950000Y-12008000D01*
X14850000Y-12212000D02*
X14950000Y-12312000D01*
X14950000Y-12212000D02*
X14850000Y-12312000D01*
X14900000Y-12212000D02*
X14900000Y-12312000D01*
X14850000Y-12262000D02*
X14950000Y-12262000D01*
X14850000Y-12466000D02*
X14950000Y-12566000D01*
X14950000Y-12466000D02*
X14850000Y-12566000D01*
X14900000Y-12466000D02*
X14900000Y-12566000D01*
X14850000Y-12516000D02*
X14950000Y-12516000D01*
X14850000Y-12720000D02*
X14950000Y-12820000D01*
X14950000Y-12720000D02*
X14850000Y-12820000D01*
X14900000Y-12720000D02*
X14900000Y-12820000D01*
X14850000Y-12770000D02*
X14950000Y-12770000D01*
X15012200Y-9221000D02*
X15112200Y-9321000D01*
X15112200Y-9221000D02*
X15012200Y-9321000D01*
X15062200Y-9221000D02*
X15062200Y-9321000D01*
X15012200Y-9271000D02*
X15112200Y-9271000D01*
X15012200Y-9475000D02*
X15112200Y-9575000D01*
X15112200Y-9475000D02*
X15012200Y-9575000D01*
X15062200Y-9475000D02*
X15062200Y-9575000D01*
X15012200Y-9525000D02*
X15112200Y-9525000D01*
X15012200Y-9729000D02*
X15112200Y-9829000D01*
X15112200Y-9729000D02*
X15012200Y-9829000D01*
X15062200Y-9729000D02*
X15062200Y-9829000D01*
X15012200Y-9779000D02*
X15112200Y-9779000D01*
X15012200Y-9983000D02*
X15112200Y-10083000D01*
X15112200Y-9983000D02*
X15012200Y-10083000D01*
X15062200Y-9983000D02*
X15062200Y-10083000D01*
X15012200Y-10033000D02*
X15112200Y-10033000D01*
X15266200Y-9221000D02*
X15366200Y-9321000D01*
X15366200Y-9221000D02*
X15266200Y-9321000D01*
X15316200Y-9221000D02*
X15316200Y-9321000D01*
X15266200Y-9271000D02*
X15366200Y-9271000D01*
X15266200Y-9475000D02*
X15366200Y-9575000D01*
X15366200Y-9475000D02*
X15266200Y-9575000D01*
X15316200Y-9475000D02*
X15316200Y-9575000D01*
X15266200Y-9525000D02*
X15366200Y-9525000D01*
X15266200Y-9729000D02*
X15366200Y-9829000D01*
X15366200Y-9729000D02*
X15266200Y-9829000D01*
X15316200Y-9729000D02*
X15316200Y-9829000D01*
X15266200Y-9779000D02*
X15366200Y-9779000D01*
X15266200Y-9983000D02*
X15366200Y-10083000D01*
X15366200Y-9983000D02*
X15266200Y-10083000D01*
X15316200Y-9983000D02*
X15316200Y-10083000D01*
X15266200Y-10033000D02*
X15366200Y-10033000D01*
X21571800Y-14320200D02*
X21671800Y-14420200D01*
X21671800Y-14320200D02*
X21571800Y-14420200D01*
X21621800Y-14320200D02*
X21621800Y-14420200D01*
X21571800Y-14370200D02*
X21671800Y-14370200D01*
X21571800Y-14574200D02*
X21671800Y-14674200D01*
X21671800Y-14574200D02*
X21571800Y-14674200D01*
X21621800Y-14574200D02*
X21621800Y-14674200D01*
X21571800Y-14624200D02*
X21671800Y-14624200D01*
X21825800Y-14320200D02*
X21925800Y-14420200D01*
X21925800Y-14320200D02*
X21825800Y-14420200D01*
X21875800Y-14320200D02*
X21875800Y-14420200D01*
X21825800Y-14370200D02*
X21925800Y-14370200D01*
X21825800Y-14574200D02*
X21925800Y-14674200D01*
X21925800Y-14574200D02*
X21825800Y-14674200D01*
X21875800Y-14574200D02*
X21875800Y-14674200D01*
X21825800Y-14624200D02*
X21925800Y-14624200D01*
X22079800Y-14320200D02*
X22179800Y-14420200D01*
X22179800Y-14320200D02*
X22079800Y-14420200D01*
X22129800Y-14320200D02*
X22129800Y-14420200D01*
X22079800Y-14370200D02*
X22179800Y-14370200D01*
X22079800Y-14574200D02*
X22179800Y-14674200D01*
X22179800Y-14574200D02*
X22079800Y-14674200D01*
X22129800Y-14574200D02*
X22129800Y-14674200D01*
X22079800Y-14624200D02*
X22179800Y-14624200D01*
X22333800Y-14320200D02*
X22433800Y-14420200D01*
X22433800Y-14320200D02*
X22333800Y-14420200D01*
X22383800Y-14320200D02*
X22383800Y-14420200D01*
X22333800Y-14370200D02*
X22433800Y-14370200D01*
X22333800Y-14574200D02*
X22433800Y-14674200D01*
X22433800Y-14574200D02*
X22333800Y-14674200D01*
X22383800Y-14574200D02*
X22383800Y-14674200D01*
X22333800Y-14624200D02*
X22433800Y-14624200D01*
X22587800Y-14320200D02*
X22687800Y-14420200D01*
X22687800Y-14320200D02*
X22587800Y-14420200D01*
X22637800Y-14320200D02*
X22637800Y-14420200D01*
X22587800Y-14370200D02*
X22687800Y-14370200D01*
X22587800Y-14574200D02*
X22687800Y-14674200D01*
X22687800Y-14574200D02*
X22587800Y-14674200D01*
X22637800Y-14574200D02*
X22637800Y-14674200D01*
X22587800Y-14624200D02*
X22687800Y-14624200D01*
D13*
X15192200Y-7053500D02*
X15312200Y-7173500D01*
X15312200Y-7053500D02*
X15192200Y-7173500D01*
X15294627Y-7155927D02*
X15294627Y-7071073D01*
X15209773Y-7071073D01*
X15209773Y-7155927D01*
X15294627Y-7155927D01*
X15442200Y-7053500D02*
X15562200Y-7173500D01*
X15562200Y-7053500D02*
X15442200Y-7173500D01*
X15544627Y-7155927D02*
X15544627Y-7071073D01*
X15459773Y-7071073D01*
X15459773Y-7155927D01*
X15544627Y-7155927D01*
X15692200Y-7053500D02*
X15812200Y-7173500D01*
X15812200Y-7053500D02*
X15692200Y-7173500D01*
X15794627Y-7155927D02*
X15794627Y-7071073D01*
X15709773Y-7071073D01*
X15709773Y-7155927D01*
X15794627Y-7155927D01*
X16033300Y-12660700D02*
X16153300Y-12780700D01*
X16153300Y-12660700D02*
X16033300Y-12780700D01*
X16135727Y-12763127D02*
X16135727Y-12678273D01*
X16050873Y-12678273D01*
X16050873Y-12763127D01*
X16135727Y-12763127D01*
X16283300Y-12660700D02*
X16403300Y-12780700D01*
X16403300Y-12660700D02*
X16283300Y-12780700D01*
X16385727Y-12763127D02*
X16385727Y-12678273D01*
X16300873Y-12678273D01*
X16300873Y-12763127D01*
X16385727Y-12763127D01*
X16533300Y-12660700D02*
X16653300Y-12780700D01*
X16653300Y-12660700D02*
X16533300Y-12780700D01*
X16635727Y-12763127D02*
X16635727Y-12678273D01*
X16550873Y-12678273D01*
X16550873Y-12763127D01*
X16635727Y-12763127D01*
X17808900Y-13676700D02*
X17928900Y-13796700D01*
X17928900Y-13676700D02*
X17808900Y-13796700D01*
X17911327Y-13779127D02*
X17911327Y-13694273D01*
X17826473Y-13694273D01*
X17826473Y-13779127D01*
X17911327Y-13779127D01*
X17808900Y-13930700D02*
X17928900Y-14050700D01*
X17928900Y-13930700D02*
X17808900Y-14050700D01*
X17911327Y-14033127D02*
X17911327Y-13948273D01*
X17826473Y-13948273D01*
X17826473Y-14033127D01*
X17911327Y-14033127D01*
X18587800Y-12646500D02*
X18707800Y-12766500D01*
X18707800Y-12646500D02*
X18587800Y-12766500D01*
X18690227Y-12748927D02*
X18690227Y-12664073D01*
X18605373Y-12664073D01*
X18605373Y-12748927D01*
X18690227Y-12748927D01*
X18837800Y-12646500D02*
X18957800Y-12766500D01*
X18957800Y-12646500D02*
X18837800Y-12766500D01*
X18940227Y-12748927D02*
X18940227Y-12664073D01*
X18855373Y-12664073D01*
X18855373Y-12748927D01*
X18940227Y-12748927D01*
X18871500Y-7104300D02*
X18991500Y-7224300D01*
X18991500Y-7104300D02*
X18871500Y-7224300D01*
X18973927Y-7206727D02*
X18973927Y-7121873D01*
X18889073Y-7121873D01*
X18889073Y-7206727D01*
X18973927Y-7206727D01*
X19087800Y-12646500D02*
X19207800Y-12766500D01*
X19207800Y-12646500D02*
X19087800Y-12766500D01*
X19190227Y-12748927D02*
X19190227Y-12664073D01*
X19105373Y-12664073D01*
X19105373Y-12748927D01*
X19190227Y-12748927D01*
X19121500Y-7104300D02*
X19241500Y-7224300D01*
X19241500Y-7104300D02*
X19121500Y-7224300D01*
X19223927Y-7206727D02*
X19223927Y-7121873D01*
X19139073Y-7121873D01*
X19139073Y-7206727D01*
X19223927Y-7206727D01*
X19371500Y-7104300D02*
X19491500Y-7224300D01*
X19491500Y-7104300D02*
X19371500Y-7224300D01*
X19473927Y-7206727D02*
X19473927Y-7121873D01*
X19389073Y-7121873D01*
X19389073Y-7206727D01*
X19473927Y-7206727D01*
X20641000Y-13397300D02*
X20761000Y-13517300D01*
X20761000Y-13397300D02*
X20641000Y-13517300D01*
X20743427Y-13499727D02*
X20743427Y-13414873D01*
X20658573Y-13414873D01*
X20658573Y-13499727D01*
X20743427Y-13499727D01*
X20641000Y-13651300D02*
X20761000Y-13771300D01*
X20761000Y-13651300D02*
X20641000Y-13771300D01*
X20743427Y-13753727D02*
X20743427Y-13668873D01*
X20658573Y-13668873D01*
X20658573Y-13753727D01*
X20743427Y-13753727D01*
X20641000Y-14104400D02*
X20761000Y-14224400D01*
X20761000Y-14104400D02*
X20641000Y-14224400D01*
X20743427Y-14206827D02*
X20743427Y-14121973D01*
X20658573Y-14121973D01*
X20658573Y-14206827D01*
X20743427Y-14206827D01*
X20641000Y-14358400D02*
X20761000Y-14478400D01*
X20761000Y-14358400D02*
X20641000Y-14478400D01*
X20743427Y-14460827D02*
X20743427Y-14375973D01*
X20658573Y-14375973D01*
X20658573Y-14460827D01*
X20743427Y-14460827D01*
X21756800Y-12646500D02*
X21876800Y-12766500D01*
X21876800Y-12646500D02*
X21756800Y-12766500D01*
X21859227Y-12748927D02*
X21859227Y-12664073D01*
X21774373Y-12664073D01*
X21774373Y-12748927D01*
X21859227Y-12748927D01*
X22006800Y-12646500D02*
X22126800Y-12766500D01*
X22126800Y-12646500D02*
X22006800Y-12766500D01*
X22109227Y-12748927D02*
X22109227Y-12664073D01*
X22024373Y-12664073D01*
X22024373Y-12748927D01*
X22109227Y-12748927D01*
X22256800Y-12646500D02*
X22376800Y-12766500D01*
X22376800Y-12646500D02*
X22256800Y-12766500D01*
X22359227Y-12748927D02*
X22359227Y-12664073D01*
X22274373Y-12664073D01*
X22274373Y-12748927D01*
X22359227Y-12748927D01*
X22308700Y-7094400D02*
X22428700Y-7214400D01*
X22428700Y-7094400D02*
X22308700Y-7214400D01*
X22411127Y-7196827D02*
X22411127Y-7111973D01*
X22326273Y-7111973D01*
X22326273Y-7196827D01*
X22411127Y-7196827D01*
X22558700Y-7094400D02*
X22678700Y-7214400D01*
X22678700Y-7094400D02*
X22558700Y-7214400D01*
X22661127Y-7196827D02*
X22661127Y-7111973D01*
X22576273Y-7111973D01*
X22576273Y-7196827D01*
X22661127Y-7196827D01*
X22808700Y-7094400D02*
X22928700Y-7214400D01*
X22928700Y-7094400D02*
X22808700Y-7214400D01*
X22911127Y-7196827D02*
X22911127Y-7111973D01*
X22826273Y-7111973D01*
X22826273Y-7196827D01*
X22911127Y-7196827D01*
D14*
X20603500Y-11497600D02*
X20753500Y-11647600D01*
X20753500Y-11497600D02*
X20603500Y-11647600D01*
X20678500Y-11647600D02*
X20753500Y-11572600D01*
X20678500Y-11497600D01*
X20603500Y-11572600D01*
X20678500Y-11647600D01*
X20603500Y-12717600D02*
X20753500Y-12867600D01*
X20753500Y-12717600D02*
X20603500Y-12867600D01*
X20678500Y-12867600D02*
X20753500Y-12792600D01*
X20678500Y-12717600D01*
X20603500Y-12792600D01*
X20678500Y-12867600D01*
X20740300Y-5956700D02*
X20890300Y-6106700D01*
X20890300Y-5956700D02*
X20740300Y-6106700D01*
X20815300Y-6106700D02*
X20890300Y-6031700D01*
X20815300Y-5956700D01*
X20740300Y-6031700D01*
X20815300Y-6106700D01*
X20740300Y-7176700D02*
X20890300Y-7326700D01*
X20890300Y-7176700D02*
X20740300Y-7326700D01*
X20815300Y-7326700D02*
X20890300Y-7251700D01*
X20815300Y-7176700D01*
X20740300Y-7251700D01*
X20815300Y-7326700D01*
D15*
X15062200Y-6265000D02*
X15062200Y-6562000D01*
X14913700Y-6413500D02*
X15210700Y-6413500D01*
X15210700Y-6413500D02*
G75*
G02*
X14913700Y-6413500I-148500J0D01*
G01*
X14913700Y-6413500D02*
G75*
G02*
X15210700Y-6413500I148500J0D01*
G01*
X15903300Y-11872200D02*
X15903300Y-12169200D01*
X15754800Y-12020700D02*
X16051800Y-12020700D01*
X16051800Y-12020700D02*
G75*
G02*
X15754800Y-12020700I-148500J0D01*
G01*
X15754800Y-12020700D02*
G75*
G02*
X16051800Y-12020700I148500J0D01*
G01*
X15942200Y-6265000D02*
X15942200Y-6562000D01*
X15793700Y-6413500D02*
X16090700Y-6413500D01*
X16090700Y-6413500D02*
G75*
G02*
X15793700Y-6413500I-148500J0D01*
G01*
X15793700Y-6413500D02*
G75*
G02*
X16090700Y-6413500I148500J0D01*
G01*
X16783300Y-11872200D02*
X16783300Y-12169200D01*
X16634800Y-12020700D02*
X16931800Y-12020700D01*
X16931800Y-12020700D02*
G75*
G02*
X16634800Y-12020700I-148500J0D01*
G01*
X16634800Y-12020700D02*
G75*
G02*
X16931800Y-12020700I148500J0D01*
G01*
X18457800Y-11858000D02*
X18457800Y-12155000D01*
X18309300Y-12006500D02*
X18606300Y-12006500D01*
X18606300Y-12006500D02*
G75*
G02*
X18309300Y-12006500I-148500J0D01*
G01*
X18309300Y-12006500D02*
G75*
G02*
X18606300Y-12006500I148500J0D01*
G01*
X18741500Y-6315800D02*
X18741500Y-6612800D01*
X18593000Y-6464300D02*
X18890000Y-6464300D01*
X18890000Y-6464300D02*
G75*
G02*
X18593000Y-6464300I-148500J0D01*
G01*
X18593000Y-6464300D02*
G75*
G02*
X18890000Y-6464300I148500J0D01*
G01*
X19337800Y-11858000D02*
X19337800Y-12155000D01*
X19189300Y-12006500D02*
X19486300Y-12006500D01*
X19486300Y-12006500D02*
G75*
G02*
X19189300Y-12006500I-148500J0D01*
G01*
X19189300Y-12006500D02*
G75*
G02*
X19486300Y-12006500I148500J0D01*
G01*
X19621500Y-6315800D02*
X19621500Y-6612800D01*
X19473000Y-6464300D02*
X19770000Y-6464300D01*
X19770000Y-6464300D02*
G75*
G02*
X19473000Y-6464300I-148500J0D01*
G01*
X19473000Y-6464300D02*
G75*
G02*
X19770000Y-6464300I148500J0D01*
G01*
X21626800Y-11858000D02*
X21626800Y-12155000D01*
X21478300Y-12006500D02*
X21775300Y-12006500D01*
X21775300Y-12006500D02*
G75*
G02*
X21478300Y-12006500I-148500J0D01*
G01*
X21478300Y-12006500D02*
G75*
G02*
X21775300Y-12006500I148500J0D01*
G01*
X22178700Y-6305900D02*
X22178700Y-6602900D01*
X22030200Y-6454400D02*
X22327200Y-6454400D01*
X22327200Y-6454400D02*
G75*
G02*
X22030200Y-6454400I-148500J0D01*
G01*
X22030200Y-6454400D02*
G75*
G02*
X22327200Y-6454400I148500J0D01*
G01*
X22506800Y-11858000D02*
X22506800Y-12155000D01*
X22358300Y-12006500D02*
X22655300Y-12006500D01*
X22655300Y-12006500D02*
G75*
G02*
X22358300Y-12006500I-148500J0D01*
G01*
X22358300Y-12006500D02*
G75*
G02*
X22655300Y-12006500I148500J0D01*
G01*
X23058700Y-6305900D02*
X23058700Y-6602900D01*
X22910200Y-6454400D02*
X23207200Y-6454400D01*
X23207200Y-6454400D02*
G75*
G02*
X22910200Y-6454400I-148500J0D01*
G01*
X22910200Y-6454400D02*
G75*
G02*
X23207200Y-6454400I148500J0D01*
G01*
D11*
X14258277Y-15413984D02*
X14258277Y-15213984D01*
X14258277Y-15213984D02*
X14305896Y-15213984D01*
X14305896Y-15213984D02*
X14334467Y-15223508D01*
X14334467Y-15223508D02*
X14353515Y-15242555D01*
X14353515Y-15242555D02*
X14363039Y-15261603D01*
X14363039Y-15261603D02*
X14372562Y-15299698D01*
X14372562Y-15299698D02*
X14372562Y-15328269D01*
X14372562Y-15328269D02*
X14363039Y-15366365D01*
X14363039Y-15366365D02*
X14353515Y-15385412D01*
X14353515Y-15385412D02*
X14334467Y-15404460D01*
X14334467Y-15404460D02*
X14305896Y-15413984D01*
X14305896Y-15413984D02*
X14258277Y-15413984D01*
X14458277Y-15413984D02*
X14458277Y-15280650D01*
X14458277Y-15318746D02*
X14467801Y-15299698D01*
X14467801Y-15299698D02*
X14477324Y-15290174D01*
X14477324Y-15290174D02*
X14496372Y-15280650D01*
X14496372Y-15280650D02*
X14515420Y-15280650D01*
X14582086Y-15413984D02*
X14582086Y-15280650D01*
X14582086Y-15213984D02*
X14572562Y-15223508D01*
X14572562Y-15223508D02*
X14582086Y-15233031D01*
X14582086Y-15233031D02*
X14591610Y-15223508D01*
X14591610Y-15223508D02*
X14582086Y-15213984D01*
X14582086Y-15213984D02*
X14582086Y-15233031D01*
X14705896Y-15413984D02*
X14686848Y-15404460D01*
X14686848Y-15404460D02*
X14677324Y-15385412D01*
X14677324Y-15385412D02*
X14677324Y-15213984D01*
X14810658Y-15413984D02*
X14791610Y-15404460D01*
X14791610Y-15404460D02*
X14782086Y-15385412D01*
X14782086Y-15385412D02*
X14782086Y-15213984D01*
X15039229Y-15413984D02*
X15039229Y-15213984D01*
X15039229Y-15213984D02*
X15105896Y-15356841D01*
X15105896Y-15356841D02*
X15172562Y-15213984D01*
X15172562Y-15213984D02*
X15172562Y-15413984D01*
X15353515Y-15413984D02*
X15353515Y-15309222D01*
X15353515Y-15309222D02*
X15343991Y-15290174D01*
X15343991Y-15290174D02*
X15324943Y-15280650D01*
X15324943Y-15280650D02*
X15286848Y-15280650D01*
X15286848Y-15280650D02*
X15267801Y-15290174D01*
X15353515Y-15404460D02*
X15334467Y-15413984D01*
X15334467Y-15413984D02*
X15286848Y-15413984D01*
X15286848Y-15413984D02*
X15267801Y-15404460D01*
X15267801Y-15404460D02*
X15258277Y-15385412D01*
X15258277Y-15385412D02*
X15258277Y-15366365D01*
X15258277Y-15366365D02*
X15267801Y-15347317D01*
X15267801Y-15347317D02*
X15286848Y-15337793D01*
X15286848Y-15337793D02*
X15334467Y-15337793D01*
X15334467Y-15337793D02*
X15353515Y-15328269D01*
X15448753Y-15280650D02*
X15448753Y-15480650D01*
X15448753Y-15290174D02*
X15467801Y-15280650D01*
X15467801Y-15280650D02*
X15505896Y-15280650D01*
X15505896Y-15280650D02*
X15524943Y-15290174D01*
X15524943Y-15290174D02*
X15534467Y-15299698D01*
X15534467Y-15299698D02*
X15543991Y-15318746D01*
X15543991Y-15318746D02*
X15543991Y-15375888D01*
X15543991Y-15375888D02*
X15534467Y-15394936D01*
X15534467Y-15394936D02*
X15524943Y-15404460D01*
X15524943Y-15404460D02*
X15505896Y-15413984D01*
X15505896Y-15413984D02*
X15467801Y-15413984D01*
X15467801Y-15413984D02*
X15448753Y-15404460D01*
X15629705Y-15394936D02*
X15639229Y-15404460D01*
X15639229Y-15404460D02*
X15629705Y-15413984D01*
X15629705Y-15413984D02*
X15620182Y-15404460D01*
X15620182Y-15404460D02*
X15629705Y-15394936D01*
X15629705Y-15394936D02*
X15629705Y-15413984D01*
X15629705Y-15290174D02*
X15639229Y-15299698D01*
X15639229Y-15299698D02*
X15629705Y-15309222D01*
X15629705Y-15309222D02*
X15620182Y-15299698D01*
X15620182Y-15299698D02*
X15629705Y-15290174D01*
X15629705Y-15290174D02*
X15629705Y-15309222D01*
D12*
X13967500Y-15727500D02*
X13997500Y-15757500D01*
X13997500Y-15727500D02*
X13967500Y-15757500D01*
D11*
X14296372Y-15633984D02*
X14315420Y-15633984D01*
X14315420Y-15633984D02*
X14334467Y-15643508D01*
X14334467Y-15643508D02*
X14343991Y-15653031D01*
X14343991Y-15653031D02*
X14353515Y-15672079D01*
X14353515Y-15672079D02*
X14363039Y-15710174D01*
X14363039Y-15710174D02*
X14363039Y-15757793D01*
X14363039Y-15757793D02*
X14353515Y-15795888D01*
X14353515Y-15795888D02*
X14343991Y-15814936D01*
X14343991Y-15814936D02*
X14334467Y-15824460D01*
X14334467Y-15824460D02*
X14315420Y-15833984D01*
X14315420Y-15833984D02*
X14296372Y-15833984D01*
X14296372Y-15833984D02*
X14277324Y-15824460D01*
X14277324Y-15824460D02*
X14267801Y-15814936D01*
X14267801Y-15814936D02*
X14258277Y-15795888D01*
X14258277Y-15795888D02*
X14248753Y-15757793D01*
X14248753Y-15757793D02*
X14248753Y-15710174D01*
X14248753Y-15710174D02*
X14258277Y-15672079D01*
X14258277Y-15672079D02*
X14267801Y-15653031D01*
X14267801Y-15653031D02*
X14277324Y-15643508D01*
X14277324Y-15643508D02*
X14296372Y-15633984D01*
X14448753Y-15814936D02*
X14458277Y-15824460D01*
X14458277Y-15824460D02*
X14448753Y-15833984D01*
X14448753Y-15833984D02*
X14439229Y-15824460D01*
X14439229Y-15824460D02*
X14448753Y-15814936D01*
X14448753Y-15814936D02*
X14448753Y-15833984D01*
X14524943Y-15633984D02*
X14648753Y-15633984D01*
X14648753Y-15633984D02*
X14582086Y-15710174D01*
X14582086Y-15710174D02*
X14610658Y-15710174D01*
X14610658Y-15710174D02*
X14629705Y-15719698D01*
X14629705Y-15719698D02*
X14639229Y-15729222D01*
X14639229Y-15729222D02*
X14648753Y-15748269D01*
X14648753Y-15748269D02*
X14648753Y-15795888D01*
X14648753Y-15795888D02*
X14639229Y-15814936D01*
X14639229Y-15814936D02*
X14629705Y-15824460D01*
X14629705Y-15824460D02*
X14610658Y-15833984D01*
X14610658Y-15833984D02*
X14553515Y-15833984D01*
X14553515Y-15833984D02*
X14534467Y-15824460D01*
X14534467Y-15824460D02*
X14524943Y-15814936D01*
X14772562Y-15633984D02*
X14791610Y-15633984D01*
X14791610Y-15633984D02*
X14810658Y-15643508D01*
X14810658Y-15643508D02*
X14820182Y-15653031D01*
X14820182Y-15653031D02*
X14829705Y-15672079D01*
X14829705Y-15672079D02*
X14839229Y-15710174D01*
X14839229Y-15710174D02*
X14839229Y-15757793D01*
X14839229Y-15757793D02*
X14829705Y-15795888D01*
X14829705Y-15795888D02*
X14820182Y-15814936D01*
X14820182Y-15814936D02*
X14810658Y-15824460D01*
X14810658Y-15824460D02*
X14791610Y-15833984D01*
X14791610Y-15833984D02*
X14772562Y-15833984D01*
X14772562Y-15833984D02*
X14753515Y-15824460D01*
X14753515Y-15824460D02*
X14743991Y-15814936D01*
X14743991Y-15814936D02*
X14734467Y-15795888D01*
X14734467Y-15795888D02*
X14724943Y-15757793D01*
X14724943Y-15757793D02*
X14724943Y-15710174D01*
X14724943Y-15710174D02*
X14734467Y-15672079D01*
X14734467Y-15672079D02*
X14743991Y-15653031D01*
X14743991Y-15653031D02*
X14753515Y-15643508D01*
X14753515Y-15643508D02*
X14772562Y-15633984D01*
X14963039Y-15633984D02*
X14982086Y-15633984D01*
X14982086Y-15633984D02*
X15001134Y-15643508D01*
X15001134Y-15643508D02*
X15010658Y-15653031D01*
X15010658Y-15653031D02*
X15020182Y-15672079D01*
X15020182Y-15672079D02*
X15029705Y-15710174D01*
X15029705Y-15710174D02*
X15029705Y-15757793D01*
X15029705Y-15757793D02*
X15020182Y-15795888D01*
X15020182Y-15795888D02*
X15010658Y-15814936D01*
X15010658Y-15814936D02*
X15001134Y-15824460D01*
X15001134Y-15824460D02*
X14982086Y-15833984D01*
X14982086Y-15833984D02*
X14963039Y-15833984D01*
X14963039Y-15833984D02*
X14943991Y-15824460D01*
X14943991Y-15824460D02*
X14934467Y-15814936D01*
X14934467Y-15814936D02*
X14924943Y-15795888D01*
X14924943Y-15795888D02*
X14915420Y-15757793D01*
X14915420Y-15757793D02*
X14915420Y-15710174D01*
X14915420Y-15710174D02*
X14924943Y-15672079D01*
X14924943Y-15672079D02*
X14934467Y-15653031D01*
X14934467Y-15653031D02*
X14943991Y-15643508D01*
X14943991Y-15643508D02*
X14963039Y-15633984D01*
X15115420Y-15833984D02*
X15115420Y-15700650D01*
X15115420Y-15719698D02*
X15124943Y-15710174D01*
X15124943Y-15710174D02*
X15143991Y-15700650D01*
X15143991Y-15700650D02*
X15172563Y-15700650D01*
X15172563Y-15700650D02*
X15191610Y-15710174D01*
X15191610Y-15710174D02*
X15201134Y-15729222D01*
X15201134Y-15729222D02*
X15201134Y-15833984D01*
X15201134Y-15729222D02*
X15210658Y-15710174D01*
X15210658Y-15710174D02*
X15229705Y-15700650D01*
X15229705Y-15700650D02*
X15258277Y-15700650D01*
X15258277Y-15700650D02*
X15277324Y-15710174D01*
X15277324Y-15710174D02*
X15286848Y-15729222D01*
X15286848Y-15729222D02*
X15286848Y-15833984D01*
X15382086Y-15833984D02*
X15382086Y-15700650D01*
X15382086Y-15719698D02*
X15391610Y-15710174D01*
X15391610Y-15710174D02*
X15410658Y-15700650D01*
X15410658Y-15700650D02*
X15439229Y-15700650D01*
X15439229Y-15700650D02*
X15458277Y-15710174D01*
X15458277Y-15710174D02*
X15467801Y-15729222D01*
X15467801Y-15729222D02*
X15467801Y-15833984D01*
X15467801Y-15729222D02*
X15477324Y-15710174D01*
X15477324Y-15710174D02*
X15496372Y-15700650D01*
X15496372Y-15700650D02*
X15524943Y-15700650D01*
X15524943Y-15700650D02*
X15543991Y-15710174D01*
X15543991Y-15710174D02*
X15553515Y-15729222D01*
X15553515Y-15729222D02*
X15553515Y-15833984D01*
X15943991Y-15624460D02*
X15772563Y-15881603D01*
X16201134Y-15633984D02*
X16220182Y-15633984D01*
X16220182Y-15633984D02*
X16239229Y-15643508D01*
X16239229Y-15643508D02*
X16248753Y-15653031D01*
X16248753Y-15653031D02*
X16258277Y-15672079D01*
X16258277Y-15672079D02*
X16267801Y-15710174D01*
X16267801Y-15710174D02*
X16267801Y-15757793D01*
X16267801Y-15757793D02*
X16258277Y-15795888D01*
X16258277Y-15795888D02*
X16248753Y-15814936D01*
X16248753Y-15814936D02*
X16239229Y-15824460D01*
X16239229Y-15824460D02*
X16220182Y-15833984D01*
X16220182Y-15833984D02*
X16201134Y-15833984D01*
X16201134Y-15833984D02*
X16182086Y-15824460D01*
X16182086Y-15824460D02*
X16172563Y-15814936D01*
X16172563Y-15814936D02*
X16163039Y-15795888D01*
X16163039Y-15795888D02*
X16153515Y-15757793D01*
X16153515Y-15757793D02*
X16153515Y-15710174D01*
X16153515Y-15710174D02*
X16163039Y-15672079D01*
X16163039Y-15672079D02*
X16172563Y-15653031D01*
X16172563Y-15653031D02*
X16182086Y-15643508D01*
X16182086Y-15643508D02*
X16201134Y-15633984D01*
X16353515Y-15814936D02*
X16363039Y-15824460D01*
X16363039Y-15824460D02*
X16353515Y-15833984D01*
X16353515Y-15833984D02*
X16343991Y-15824460D01*
X16343991Y-15824460D02*
X16353515Y-15814936D01*
X16353515Y-15814936D02*
X16353515Y-15833984D01*
X16486848Y-15633984D02*
X16505896Y-15633984D01*
X16505896Y-15633984D02*
X16524944Y-15643508D01*
X16524944Y-15643508D02*
X16534467Y-15653031D01*
X16534467Y-15653031D02*
X16543991Y-15672079D01*
X16543991Y-15672079D02*
X16553515Y-15710174D01*
X16553515Y-15710174D02*
X16553515Y-15757793D01*
X16553515Y-15757793D02*
X16543991Y-15795888D01*
X16543991Y-15795888D02*
X16534467Y-15814936D01*
X16534467Y-15814936D02*
X16524944Y-15824460D01*
X16524944Y-15824460D02*
X16505896Y-15833984D01*
X16505896Y-15833984D02*
X16486848Y-15833984D01*
X16486848Y-15833984D02*
X16467801Y-15824460D01*
X16467801Y-15824460D02*
X16458277Y-15814936D01*
X16458277Y-15814936D02*
X16448753Y-15795888D01*
X16448753Y-15795888D02*
X16439229Y-15757793D01*
X16439229Y-15757793D02*
X16439229Y-15710174D01*
X16439229Y-15710174D02*
X16448753Y-15672079D01*
X16448753Y-15672079D02*
X16458277Y-15653031D01*
X16458277Y-15653031D02*
X16467801Y-15643508D01*
X16467801Y-15643508D02*
X16486848Y-15633984D01*
X16743991Y-15833984D02*
X16629706Y-15833984D01*
X16686848Y-15833984D02*
X16686848Y-15633984D01*
X16686848Y-15633984D02*
X16667801Y-15662555D01*
X16667801Y-15662555D02*
X16648753Y-15681603D01*
X16648753Y-15681603D02*
X16629706Y-15691127D01*
X16934468Y-15833984D02*
X16820182Y-15833984D01*
X16877325Y-15833984D02*
X16877325Y-15633984D01*
X16877325Y-15633984D02*
X16858277Y-15662555D01*
X16858277Y-15662555D02*
X16839229Y-15681603D01*
X16839229Y-15681603D02*
X16820182Y-15691127D01*
X17048753Y-15719698D02*
X17029706Y-15710174D01*
X17029706Y-15710174D02*
X17020182Y-15700650D01*
X17020182Y-15700650D02*
X17010658Y-15681603D01*
X17010658Y-15681603D02*
X17010658Y-15672079D01*
X17010658Y-15672079D02*
X17020182Y-15653031D01*
X17020182Y-15653031D02*
X17029706Y-15643508D01*
X17029706Y-15643508D02*
X17048753Y-15633984D01*
X17048753Y-15633984D02*
X17086849Y-15633984D01*
X17086849Y-15633984D02*
X17105896Y-15643508D01*
X17105896Y-15643508D02*
X17115420Y-15653031D01*
X17115420Y-15653031D02*
X17124944Y-15672079D01*
X17124944Y-15672079D02*
X17124944Y-15681603D01*
X17124944Y-15681603D02*
X17115420Y-15700650D01*
X17115420Y-15700650D02*
X17105896Y-15710174D01*
X17105896Y-15710174D02*
X17086849Y-15719698D01*
X17086849Y-15719698D02*
X17048753Y-15719698D01*
X17048753Y-15719698D02*
X17029706Y-15729222D01*
X17029706Y-15729222D02*
X17020182Y-15738746D01*
X17020182Y-15738746D02*
X17010658Y-15757793D01*
X17010658Y-15757793D02*
X17010658Y-15795888D01*
X17010658Y-15795888D02*
X17020182Y-15814936D01*
X17020182Y-15814936D02*
X17029706Y-15824460D01*
X17029706Y-15824460D02*
X17048753Y-15833984D01*
X17048753Y-15833984D02*
X17086849Y-15833984D01*
X17086849Y-15833984D02*
X17105896Y-15824460D01*
X17105896Y-15824460D02*
X17115420Y-15814936D01*
X17115420Y-15814936D02*
X17124944Y-15795888D01*
X17124944Y-15795888D02*
X17124944Y-15757793D01*
X17124944Y-15757793D02*
X17115420Y-15738746D01*
X17115420Y-15738746D02*
X17105896Y-15729222D01*
X17105896Y-15729222D02*
X17086849Y-15719698D01*
X17201134Y-15633984D02*
X17201134Y-15672079D01*
X17277325Y-15633984D02*
X17277325Y-15672079D01*
X17572563Y-15910174D02*
X17563039Y-15900650D01*
X17563039Y-15900650D02*
X17543991Y-15872079D01*
X17543991Y-15872079D02*
X17534468Y-15853031D01*
X17534468Y-15853031D02*
X17524944Y-15824460D01*
X17524944Y-15824460D02*
X17515420Y-15776841D01*
X17515420Y-15776841D02*
X17515420Y-15738746D01*
X17515420Y-15738746D02*
X17524944Y-15691127D01*
X17524944Y-15691127D02*
X17534468Y-15662555D01*
X17534468Y-15662555D02*
X17543991Y-15643508D01*
X17543991Y-15643508D02*
X17563039Y-15614936D01*
X17563039Y-15614936D02*
X17572563Y-15605412D01*
X17639230Y-15653031D02*
X17648753Y-15643508D01*
X17648753Y-15643508D02*
X17667801Y-15633984D01*
X17667801Y-15633984D02*
X17715420Y-15633984D01*
X17715420Y-15633984D02*
X17734468Y-15643508D01*
X17734468Y-15643508D02*
X17743991Y-15653031D01*
X17743991Y-15653031D02*
X17753515Y-15672079D01*
X17753515Y-15672079D02*
X17753515Y-15691127D01*
X17753515Y-15691127D02*
X17743991Y-15719698D01*
X17743991Y-15719698D02*
X17629706Y-15833984D01*
X17629706Y-15833984D02*
X17753515Y-15833984D01*
X17820182Y-15633984D02*
X17943991Y-15633984D01*
X17943991Y-15633984D02*
X17877325Y-15710174D01*
X17877325Y-15710174D02*
X17905896Y-15710174D01*
X17905896Y-15710174D02*
X17924944Y-15719698D01*
X17924944Y-15719698D02*
X17934468Y-15729222D01*
X17934468Y-15729222D02*
X17943991Y-15748269D01*
X17943991Y-15748269D02*
X17943991Y-15795888D01*
X17943991Y-15795888D02*
X17934468Y-15814936D01*
X17934468Y-15814936D02*
X17924944Y-15824460D01*
X17924944Y-15824460D02*
X17905896Y-15833984D01*
X17905896Y-15833984D02*
X17848753Y-15833984D01*
X17848753Y-15833984D02*
X17829706Y-15824460D01*
X17829706Y-15824460D02*
X17820182Y-15814936D01*
X18182087Y-15833984D02*
X18182087Y-15633984D01*
X18267801Y-15833984D02*
X18267801Y-15729222D01*
X18267801Y-15729222D02*
X18258277Y-15710174D01*
X18258277Y-15710174D02*
X18239230Y-15700650D01*
X18239230Y-15700650D02*
X18210658Y-15700650D01*
X18210658Y-15700650D02*
X18191611Y-15710174D01*
X18191611Y-15710174D02*
X18182087Y-15719698D01*
X18391611Y-15833984D02*
X18372563Y-15824460D01*
X18372563Y-15824460D02*
X18363039Y-15814936D01*
X18363039Y-15814936D02*
X18353515Y-15795888D01*
X18353515Y-15795888D02*
X18353515Y-15738746D01*
X18353515Y-15738746D02*
X18363039Y-15719698D01*
X18363039Y-15719698D02*
X18372563Y-15710174D01*
X18372563Y-15710174D02*
X18391611Y-15700650D01*
X18391611Y-15700650D02*
X18420182Y-15700650D01*
X18420182Y-15700650D02*
X18439230Y-15710174D01*
X18439230Y-15710174D02*
X18448753Y-15719698D01*
X18448753Y-15719698D02*
X18458277Y-15738746D01*
X18458277Y-15738746D02*
X18458277Y-15795888D01*
X18458277Y-15795888D02*
X18448753Y-15814936D01*
X18448753Y-15814936D02*
X18439230Y-15824460D01*
X18439230Y-15824460D02*
X18420182Y-15833984D01*
X18420182Y-15833984D02*
X18391611Y-15833984D01*
X18572563Y-15833984D02*
X18553515Y-15824460D01*
X18553515Y-15824460D02*
X18543992Y-15805412D01*
X18543992Y-15805412D02*
X18543992Y-15633984D01*
X18724944Y-15824460D02*
X18705896Y-15833984D01*
X18705896Y-15833984D02*
X18667801Y-15833984D01*
X18667801Y-15833984D02*
X18648753Y-15824460D01*
X18648753Y-15824460D02*
X18639230Y-15805412D01*
X18639230Y-15805412D02*
X18639230Y-15729222D01*
X18639230Y-15729222D02*
X18648753Y-15710174D01*
X18648753Y-15710174D02*
X18667801Y-15700650D01*
X18667801Y-15700650D02*
X18705896Y-15700650D01*
X18705896Y-15700650D02*
X18724944Y-15710174D01*
X18724944Y-15710174D02*
X18734468Y-15729222D01*
X18734468Y-15729222D02*
X18734468Y-15748269D01*
X18734468Y-15748269D02*
X18639230Y-15767317D01*
X18810658Y-15824460D02*
X18829706Y-15833984D01*
X18829706Y-15833984D02*
X18867801Y-15833984D01*
X18867801Y-15833984D02*
X18886849Y-15824460D01*
X18886849Y-15824460D02*
X18896373Y-15805412D01*
X18896373Y-15805412D02*
X18896373Y-15795888D01*
X18896373Y-15795888D02*
X18886849Y-15776841D01*
X18886849Y-15776841D02*
X18867801Y-15767317D01*
X18867801Y-15767317D02*
X18839230Y-15767317D01*
X18839230Y-15767317D02*
X18820182Y-15757793D01*
X18820182Y-15757793D02*
X18810658Y-15738746D01*
X18810658Y-15738746D02*
X18810658Y-15729222D01*
X18810658Y-15729222D02*
X18820182Y-15710174D01*
X18820182Y-15710174D02*
X18839230Y-15700650D01*
X18839230Y-15700650D02*
X18867801Y-15700650D01*
X18867801Y-15700650D02*
X18886849Y-15710174D01*
X18963039Y-15910174D02*
X18972563Y-15900650D01*
X18972563Y-15900650D02*
X18991611Y-15872079D01*
X18991611Y-15872079D02*
X19001134Y-15853031D01*
X19001134Y-15853031D02*
X19010658Y-15824460D01*
X19010658Y-15824460D02*
X19020182Y-15776841D01*
X19020182Y-15776841D02*
X19020182Y-15738746D01*
X19020182Y-15738746D02*
X19010658Y-15691127D01*
X19010658Y-15691127D02*
X19001134Y-15662555D01*
X19001134Y-15662555D02*
X18991611Y-15643508D01*
X18991611Y-15643508D02*
X18972563Y-15614936D01*
X18972563Y-15614936D02*
X18963039Y-15605412D01*
D12*
X13997500Y-16006500D02*
G75*
G02*
X13937500Y-16006500I-30000J0D01*
G01*
X13937500Y-16006500D02*
G75*
G02*
X13997500Y-16006500I30000J0D01*
G01*
D11*
X14296372Y-15897984D02*
X14315420Y-15897984D01*
X14315420Y-15897984D02*
X14334467Y-15907508D01*
X14334467Y-15907508D02*
X14343991Y-15917031D01*
X14343991Y-15917031D02*
X14353515Y-15936079D01*
X14353515Y-15936079D02*
X14363039Y-15974174D01*
X14363039Y-15974174D02*
X14363039Y-16021793D01*
X14363039Y-16021793D02*
X14353515Y-16059888D01*
X14353515Y-16059888D02*
X14343991Y-16078936D01*
X14343991Y-16078936D02*
X14334467Y-16088460D01*
X14334467Y-16088460D02*
X14315420Y-16097984D01*
X14315420Y-16097984D02*
X14296372Y-16097984D01*
X14296372Y-16097984D02*
X14277324Y-16088460D01*
X14277324Y-16088460D02*
X14267801Y-16078936D01*
X14267801Y-16078936D02*
X14258277Y-16059888D01*
X14258277Y-16059888D02*
X14248753Y-16021793D01*
X14248753Y-16021793D02*
X14248753Y-15974174D01*
X14248753Y-15974174D02*
X14258277Y-15936079D01*
X14258277Y-15936079D02*
X14267801Y-15917031D01*
X14267801Y-15917031D02*
X14277324Y-15907508D01*
X14277324Y-15907508D02*
X14296372Y-15897984D01*
X14448753Y-16078936D02*
X14458277Y-16088460D01*
X14458277Y-16088460D02*
X14448753Y-16097984D01*
X14448753Y-16097984D02*
X14439229Y-16088460D01*
X14439229Y-16088460D02*
X14448753Y-16078936D01*
X14448753Y-16078936D02*
X14448753Y-16097984D01*
X14629705Y-15897984D02*
X14591610Y-15897984D01*
X14591610Y-15897984D02*
X14572562Y-15907508D01*
X14572562Y-15907508D02*
X14563039Y-15917031D01*
X14563039Y-15917031D02*
X14543991Y-15945603D01*
X14543991Y-15945603D02*
X14534467Y-15983698D01*
X14534467Y-15983698D02*
X14534467Y-16059888D01*
X14534467Y-16059888D02*
X14543991Y-16078936D01*
X14543991Y-16078936D02*
X14553515Y-16088460D01*
X14553515Y-16088460D02*
X14572562Y-16097984D01*
X14572562Y-16097984D02*
X14610658Y-16097984D01*
X14610658Y-16097984D02*
X14629705Y-16088460D01*
X14629705Y-16088460D02*
X14639229Y-16078936D01*
X14639229Y-16078936D02*
X14648753Y-16059888D01*
X14648753Y-16059888D02*
X14648753Y-16012269D01*
X14648753Y-16012269D02*
X14639229Y-15993222D01*
X14639229Y-15993222D02*
X14629705Y-15983698D01*
X14629705Y-15983698D02*
X14610658Y-15974174D01*
X14610658Y-15974174D02*
X14572562Y-15974174D01*
X14572562Y-15974174D02*
X14553515Y-15983698D01*
X14553515Y-15983698D02*
X14543991Y-15993222D01*
X14543991Y-15993222D02*
X14534467Y-16012269D01*
X14772562Y-15897984D02*
X14791610Y-15897984D01*
X14791610Y-15897984D02*
X14810658Y-15907508D01*
X14810658Y-15907508D02*
X14820182Y-15917031D01*
X14820182Y-15917031D02*
X14829705Y-15936079D01*
X14829705Y-15936079D02*
X14839229Y-15974174D01*
X14839229Y-15974174D02*
X14839229Y-16021793D01*
X14839229Y-16021793D02*
X14829705Y-16059888D01*
X14829705Y-16059888D02*
X14820182Y-16078936D01*
X14820182Y-16078936D02*
X14810658Y-16088460D01*
X14810658Y-16088460D02*
X14791610Y-16097984D01*
X14791610Y-16097984D02*
X14772562Y-16097984D01*
X14772562Y-16097984D02*
X14753515Y-16088460D01*
X14753515Y-16088460D02*
X14743991Y-16078936D01*
X14743991Y-16078936D02*
X14734467Y-16059888D01*
X14734467Y-16059888D02*
X14724943Y-16021793D01*
X14724943Y-16021793D02*
X14724943Y-15974174D01*
X14724943Y-15974174D02*
X14734467Y-15936079D01*
X14734467Y-15936079D02*
X14743991Y-15917031D01*
X14743991Y-15917031D02*
X14753515Y-15907508D01*
X14753515Y-15907508D02*
X14772562Y-15897984D01*
X14963039Y-15897984D02*
X14982086Y-15897984D01*
X14982086Y-15897984D02*
X15001134Y-15907508D01*
X15001134Y-15907508D02*
X15010658Y-15917031D01*
X15010658Y-15917031D02*
X15020182Y-15936079D01*
X15020182Y-15936079D02*
X15029705Y-15974174D01*
X15029705Y-15974174D02*
X15029705Y-16021793D01*
X15029705Y-16021793D02*
X15020182Y-16059888D01*
X15020182Y-16059888D02*
X15010658Y-16078936D01*
X15010658Y-16078936D02*
X15001134Y-16088460D01*
X15001134Y-16088460D02*
X14982086Y-16097984D01*
X14982086Y-16097984D02*
X14963039Y-16097984D01*
X14963039Y-16097984D02*
X14943991Y-16088460D01*
X14943991Y-16088460D02*
X14934467Y-16078936D01*
X14934467Y-16078936D02*
X14924943Y-16059888D01*
X14924943Y-16059888D02*
X14915420Y-16021793D01*
X14915420Y-16021793D02*
X14915420Y-15974174D01*
X14915420Y-15974174D02*
X14924943Y-15936079D01*
X14924943Y-15936079D02*
X14934467Y-15917031D01*
X14934467Y-15917031D02*
X14943991Y-15907508D01*
X14943991Y-15907508D02*
X14963039Y-15897984D01*
X15115420Y-16097984D02*
X15115420Y-15964650D01*
X15115420Y-15983698D02*
X15124943Y-15974174D01*
X15124943Y-15974174D02*
X15143991Y-15964650D01*
X15143991Y-15964650D02*
X15172563Y-15964650D01*
X15172563Y-15964650D02*
X15191610Y-15974174D01*
X15191610Y-15974174D02*
X15201134Y-15993222D01*
X15201134Y-15993222D02*
X15201134Y-16097984D01*
X15201134Y-15993222D02*
X15210658Y-15974174D01*
X15210658Y-15974174D02*
X15229705Y-15964650D01*
X15229705Y-15964650D02*
X15258277Y-15964650D01*
X15258277Y-15964650D02*
X15277324Y-15974174D01*
X15277324Y-15974174D02*
X15286848Y-15993222D01*
X15286848Y-15993222D02*
X15286848Y-16097984D01*
X15382086Y-16097984D02*
X15382086Y-15964650D01*
X15382086Y-15983698D02*
X15391610Y-15974174D01*
X15391610Y-15974174D02*
X15410658Y-15964650D01*
X15410658Y-15964650D02*
X15439229Y-15964650D01*
X15439229Y-15964650D02*
X15458277Y-15974174D01*
X15458277Y-15974174D02*
X15467801Y-15993222D01*
X15467801Y-15993222D02*
X15467801Y-16097984D01*
X15467801Y-15993222D02*
X15477324Y-15974174D01*
X15477324Y-15974174D02*
X15496372Y-15964650D01*
X15496372Y-15964650D02*
X15524943Y-15964650D01*
X15524943Y-15964650D02*
X15543991Y-15974174D01*
X15543991Y-15974174D02*
X15553515Y-15993222D01*
X15553515Y-15993222D02*
X15553515Y-16097984D01*
X15943991Y-15888460D02*
X15772563Y-16145603D01*
X16201134Y-15897984D02*
X16220182Y-15897984D01*
X16220182Y-15897984D02*
X16239229Y-15907508D01*
X16239229Y-15907508D02*
X16248753Y-15917031D01*
X16248753Y-15917031D02*
X16258277Y-15936079D01*
X16258277Y-15936079D02*
X16267801Y-15974174D01*
X16267801Y-15974174D02*
X16267801Y-16021793D01*
X16267801Y-16021793D02*
X16258277Y-16059888D01*
X16258277Y-16059888D02*
X16248753Y-16078936D01*
X16248753Y-16078936D02*
X16239229Y-16088460D01*
X16239229Y-16088460D02*
X16220182Y-16097984D01*
X16220182Y-16097984D02*
X16201134Y-16097984D01*
X16201134Y-16097984D02*
X16182086Y-16088460D01*
X16182086Y-16088460D02*
X16172563Y-16078936D01*
X16172563Y-16078936D02*
X16163039Y-16059888D01*
X16163039Y-16059888D02*
X16153515Y-16021793D01*
X16153515Y-16021793D02*
X16153515Y-15974174D01*
X16153515Y-15974174D02*
X16163039Y-15936079D01*
X16163039Y-15936079D02*
X16172563Y-15917031D01*
X16172563Y-15917031D02*
X16182086Y-15907508D01*
X16182086Y-15907508D02*
X16201134Y-15897984D01*
X16353515Y-16078936D02*
X16363039Y-16088460D01*
X16363039Y-16088460D02*
X16353515Y-16097984D01*
X16353515Y-16097984D02*
X16343991Y-16088460D01*
X16343991Y-16088460D02*
X16353515Y-16078936D01*
X16353515Y-16078936D02*
X16353515Y-16097984D01*
X16486848Y-15897984D02*
X16505896Y-15897984D01*
X16505896Y-15897984D02*
X16524944Y-15907508D01*
X16524944Y-15907508D02*
X16534467Y-15917031D01*
X16534467Y-15917031D02*
X16543991Y-15936079D01*
X16543991Y-15936079D02*
X16553515Y-15974174D01*
X16553515Y-15974174D02*
X16553515Y-16021793D01*
X16553515Y-16021793D02*
X16543991Y-16059888D01*
X16543991Y-16059888D02*
X16534467Y-16078936D01*
X16534467Y-16078936D02*
X16524944Y-16088460D01*
X16524944Y-16088460D02*
X16505896Y-16097984D01*
X16505896Y-16097984D02*
X16486848Y-16097984D01*
X16486848Y-16097984D02*
X16467801Y-16088460D01*
X16467801Y-16088460D02*
X16458277Y-16078936D01*
X16458277Y-16078936D02*
X16448753Y-16059888D01*
X16448753Y-16059888D02*
X16439229Y-16021793D01*
X16439229Y-16021793D02*
X16439229Y-15974174D01*
X16439229Y-15974174D02*
X16448753Y-15936079D01*
X16448753Y-15936079D02*
X16458277Y-15917031D01*
X16458277Y-15917031D02*
X16467801Y-15907508D01*
X16467801Y-15907508D02*
X16486848Y-15897984D01*
X16629706Y-15917031D02*
X16639229Y-15907508D01*
X16639229Y-15907508D02*
X16658277Y-15897984D01*
X16658277Y-15897984D02*
X16705896Y-15897984D01*
X16705896Y-15897984D02*
X16724944Y-15907508D01*
X16724944Y-15907508D02*
X16734467Y-15917031D01*
X16734467Y-15917031D02*
X16743991Y-15936079D01*
X16743991Y-15936079D02*
X16743991Y-15955127D01*
X16743991Y-15955127D02*
X16734467Y-15983698D01*
X16734467Y-15983698D02*
X16620182Y-16097984D01*
X16620182Y-16097984D02*
X16743991Y-16097984D01*
X16810658Y-15897984D02*
X16934468Y-15897984D01*
X16934468Y-15897984D02*
X16867801Y-15974174D01*
X16867801Y-15974174D02*
X16896372Y-15974174D01*
X16896372Y-15974174D02*
X16915420Y-15983698D01*
X16915420Y-15983698D02*
X16924944Y-15993222D01*
X16924944Y-15993222D02*
X16934468Y-16012269D01*
X16934468Y-16012269D02*
X16934468Y-16059888D01*
X16934468Y-16059888D02*
X16924944Y-16078936D01*
X16924944Y-16078936D02*
X16915420Y-16088460D01*
X16915420Y-16088460D02*
X16896372Y-16097984D01*
X16896372Y-16097984D02*
X16839229Y-16097984D01*
X16839229Y-16097984D02*
X16820182Y-16088460D01*
X16820182Y-16088460D02*
X16810658Y-16078936D01*
X17105896Y-15897984D02*
X17067801Y-15897984D01*
X17067801Y-15897984D02*
X17048753Y-15907508D01*
X17048753Y-15907508D02*
X17039229Y-15917031D01*
X17039229Y-15917031D02*
X17020182Y-15945603D01*
X17020182Y-15945603D02*
X17010658Y-15983698D01*
X17010658Y-15983698D02*
X17010658Y-16059888D01*
X17010658Y-16059888D02*
X17020182Y-16078936D01*
X17020182Y-16078936D02*
X17029706Y-16088460D01*
X17029706Y-16088460D02*
X17048753Y-16097984D01*
X17048753Y-16097984D02*
X17086849Y-16097984D01*
X17086849Y-16097984D02*
X17105896Y-16088460D01*
X17105896Y-16088460D02*
X17115420Y-16078936D01*
X17115420Y-16078936D02*
X17124944Y-16059888D01*
X17124944Y-16059888D02*
X17124944Y-16012269D01*
X17124944Y-16012269D02*
X17115420Y-15993222D01*
X17115420Y-15993222D02*
X17105896Y-15983698D01*
X17105896Y-15983698D02*
X17086849Y-15974174D01*
X17086849Y-15974174D02*
X17048753Y-15974174D01*
X17048753Y-15974174D02*
X17029706Y-15983698D01*
X17029706Y-15983698D02*
X17020182Y-15993222D01*
X17020182Y-15993222D02*
X17010658Y-16012269D01*
X17201134Y-15897984D02*
X17201134Y-15936079D01*
X17277325Y-15897984D02*
X17277325Y-15936079D01*
X17572563Y-16174174D02*
X17563039Y-16164650D01*
X17563039Y-16164650D02*
X17543991Y-16136079D01*
X17543991Y-16136079D02*
X17534468Y-16117031D01*
X17534468Y-16117031D02*
X17524944Y-16088460D01*
X17524944Y-16088460D02*
X17515420Y-16040841D01*
X17515420Y-16040841D02*
X17515420Y-16002746D01*
X17515420Y-16002746D02*
X17524944Y-15955127D01*
X17524944Y-15955127D02*
X17534468Y-15926555D01*
X17534468Y-15926555D02*
X17543991Y-15907508D01*
X17543991Y-15907508D02*
X17563039Y-15878936D01*
X17563039Y-15878936D02*
X17572563Y-15869412D01*
X17639230Y-15917031D02*
X17648753Y-15907508D01*
X17648753Y-15907508D02*
X17667801Y-15897984D01*
X17667801Y-15897984D02*
X17715420Y-15897984D01*
X17715420Y-15897984D02*
X17734468Y-15907508D01*
X17734468Y-15907508D02*
X17743991Y-15917031D01*
X17743991Y-15917031D02*
X17753515Y-15936079D01*
X17753515Y-15936079D02*
X17753515Y-15955127D01*
X17753515Y-15955127D02*
X17743991Y-15983698D01*
X17743991Y-15983698D02*
X17629706Y-16097984D01*
X17629706Y-16097984D02*
X17753515Y-16097984D01*
X17991611Y-16097984D02*
X17991611Y-15897984D01*
X18077325Y-16097984D02*
X18077325Y-15993222D01*
X18077325Y-15993222D02*
X18067801Y-15974174D01*
X18067801Y-15974174D02*
X18048753Y-15964650D01*
X18048753Y-15964650D02*
X18020182Y-15964650D01*
X18020182Y-15964650D02*
X18001134Y-15974174D01*
X18001134Y-15974174D02*
X17991611Y-15983698D01*
X18201134Y-16097984D02*
X18182087Y-16088460D01*
X18182087Y-16088460D02*
X18172563Y-16078936D01*
X18172563Y-16078936D02*
X18163039Y-16059888D01*
X18163039Y-16059888D02*
X18163039Y-16002746D01*
X18163039Y-16002746D02*
X18172563Y-15983698D01*
X18172563Y-15983698D02*
X18182087Y-15974174D01*
X18182087Y-15974174D02*
X18201134Y-15964650D01*
X18201134Y-15964650D02*
X18229706Y-15964650D01*
X18229706Y-15964650D02*
X18248753Y-15974174D01*
X18248753Y-15974174D02*
X18258277Y-15983698D01*
X18258277Y-15983698D02*
X18267801Y-16002746D01*
X18267801Y-16002746D02*
X18267801Y-16059888D01*
X18267801Y-16059888D02*
X18258277Y-16078936D01*
X18258277Y-16078936D02*
X18248753Y-16088460D01*
X18248753Y-16088460D02*
X18229706Y-16097984D01*
X18229706Y-16097984D02*
X18201134Y-16097984D01*
X18382087Y-16097984D02*
X18363039Y-16088460D01*
X18363039Y-16088460D02*
X18353515Y-16069412D01*
X18353515Y-16069412D02*
X18353515Y-15897984D01*
X18534468Y-16088460D02*
X18515420Y-16097984D01*
X18515420Y-16097984D02*
X18477325Y-16097984D01*
X18477325Y-16097984D02*
X18458277Y-16088460D01*
X18458277Y-16088460D02*
X18448753Y-16069412D01*
X18448753Y-16069412D02*
X18448753Y-15993222D01*
X18448753Y-15993222D02*
X18458277Y-15974174D01*
X18458277Y-15974174D02*
X18477325Y-15964650D01*
X18477325Y-15964650D02*
X18515420Y-15964650D01*
X18515420Y-15964650D02*
X18534468Y-15974174D01*
X18534468Y-15974174D02*
X18543992Y-15993222D01*
X18543992Y-15993222D02*
X18543992Y-16012269D01*
X18543992Y-16012269D02*
X18448753Y-16031317D01*
X18620182Y-16088460D02*
X18639230Y-16097984D01*
X18639230Y-16097984D02*
X18677325Y-16097984D01*
X18677325Y-16097984D02*
X18696373Y-16088460D01*
X18696373Y-16088460D02*
X18705896Y-16069412D01*
X18705896Y-16069412D02*
X18705896Y-16059888D01*
X18705896Y-16059888D02*
X18696373Y-16040841D01*
X18696373Y-16040841D02*
X18677325Y-16031317D01*
X18677325Y-16031317D02*
X18648753Y-16031317D01*
X18648753Y-16031317D02*
X18629706Y-16021793D01*
X18629706Y-16021793D02*
X18620182Y-16002746D01*
X18620182Y-16002746D02*
X18620182Y-15993222D01*
X18620182Y-15993222D02*
X18629706Y-15974174D01*
X18629706Y-15974174D02*
X18648753Y-15964650D01*
X18648753Y-15964650D02*
X18677325Y-15964650D01*
X18677325Y-15964650D02*
X18696373Y-15974174D01*
X18772563Y-16174174D02*
X18782087Y-16164650D01*
X18782087Y-16164650D02*
X18801134Y-16136079D01*
X18801134Y-16136079D02*
X18810658Y-16117031D01*
X18810658Y-16117031D02*
X18820182Y-16088460D01*
X18820182Y-16088460D02*
X18829706Y-16040841D01*
X18829706Y-16040841D02*
X18829706Y-16002746D01*
X18829706Y-16002746D02*
X18820182Y-15955127D01*
X18820182Y-15955127D02*
X18810658Y-15926555D01*
X18810658Y-15926555D02*
X18801134Y-15907508D01*
X18801134Y-15907508D02*
X18782087Y-15878936D01*
X18782087Y-15878936D02*
X18772563Y-15869412D01*
D12*
X13960000Y-16233000D02*
X13960000Y-16308000D01*
X13922500Y-16270500D02*
X13997500Y-16270500D01*
D11*
X14296372Y-16161984D02*
X14315420Y-16161984D01*
X14315420Y-16161984D02*
X14334467Y-16171508D01*
X14334467Y-16171508D02*
X14343991Y-16181031D01*
X14343991Y-16181031D02*
X14353515Y-16200079D01*
X14353515Y-16200079D02*
X14363039Y-16238174D01*
X14363039Y-16238174D02*
X14363039Y-16285793D01*
X14363039Y-16285793D02*
X14353515Y-16323888D01*
X14353515Y-16323888D02*
X14343991Y-16342936D01*
X14343991Y-16342936D02*
X14334467Y-16352460D01*
X14334467Y-16352460D02*
X14315420Y-16361984D01*
X14315420Y-16361984D02*
X14296372Y-16361984D01*
X14296372Y-16361984D02*
X14277324Y-16352460D01*
X14277324Y-16352460D02*
X14267801Y-16342936D01*
X14267801Y-16342936D02*
X14258277Y-16323888D01*
X14258277Y-16323888D02*
X14248753Y-16285793D01*
X14248753Y-16285793D02*
X14248753Y-16238174D01*
X14248753Y-16238174D02*
X14258277Y-16200079D01*
X14258277Y-16200079D02*
X14267801Y-16181031D01*
X14267801Y-16181031D02*
X14277324Y-16171508D01*
X14277324Y-16171508D02*
X14296372Y-16161984D01*
X14448753Y-16342936D02*
X14458277Y-16352460D01*
X14458277Y-16352460D02*
X14448753Y-16361984D01*
X14448753Y-16361984D02*
X14439229Y-16352460D01*
X14439229Y-16352460D02*
X14448753Y-16342936D01*
X14448753Y-16342936D02*
X14448753Y-16361984D01*
X14524943Y-16161984D02*
X14658277Y-16161984D01*
X14658277Y-16161984D02*
X14572562Y-16361984D01*
X14829705Y-16161984D02*
X14734467Y-16161984D01*
X14734467Y-16161984D02*
X14724943Y-16257222D01*
X14724943Y-16257222D02*
X14734467Y-16247698D01*
X14734467Y-16247698D02*
X14753515Y-16238174D01*
X14753515Y-16238174D02*
X14801134Y-16238174D01*
X14801134Y-16238174D02*
X14820182Y-16247698D01*
X14820182Y-16247698D02*
X14829705Y-16257222D01*
X14829705Y-16257222D02*
X14839229Y-16276269D01*
X14839229Y-16276269D02*
X14839229Y-16323888D01*
X14839229Y-16323888D02*
X14829705Y-16342936D01*
X14829705Y-16342936D02*
X14820182Y-16352460D01*
X14820182Y-16352460D02*
X14801134Y-16361984D01*
X14801134Y-16361984D02*
X14753515Y-16361984D01*
X14753515Y-16361984D02*
X14734467Y-16352460D01*
X14734467Y-16352460D02*
X14724943Y-16342936D01*
X14963039Y-16161984D02*
X14982086Y-16161984D01*
X14982086Y-16161984D02*
X15001134Y-16171508D01*
X15001134Y-16171508D02*
X15010658Y-16181031D01*
X15010658Y-16181031D02*
X15020182Y-16200079D01*
X15020182Y-16200079D02*
X15029705Y-16238174D01*
X15029705Y-16238174D02*
X15029705Y-16285793D01*
X15029705Y-16285793D02*
X15020182Y-16323888D01*
X15020182Y-16323888D02*
X15010658Y-16342936D01*
X15010658Y-16342936D02*
X15001134Y-16352460D01*
X15001134Y-16352460D02*
X14982086Y-16361984D01*
X14982086Y-16361984D02*
X14963039Y-16361984D01*
X14963039Y-16361984D02*
X14943991Y-16352460D01*
X14943991Y-16352460D02*
X14934467Y-16342936D01*
X14934467Y-16342936D02*
X14924943Y-16323888D01*
X14924943Y-16323888D02*
X14915420Y-16285793D01*
X14915420Y-16285793D02*
X14915420Y-16238174D01*
X14915420Y-16238174D02*
X14924943Y-16200079D01*
X14924943Y-16200079D02*
X14934467Y-16181031D01*
X14934467Y-16181031D02*
X14943991Y-16171508D01*
X14943991Y-16171508D02*
X14963039Y-16161984D01*
X15115420Y-16361984D02*
X15115420Y-16228650D01*
X15115420Y-16247698D02*
X15124943Y-16238174D01*
X15124943Y-16238174D02*
X15143991Y-16228650D01*
X15143991Y-16228650D02*
X15172563Y-16228650D01*
X15172563Y-16228650D02*
X15191610Y-16238174D01*
X15191610Y-16238174D02*
X15201134Y-16257222D01*
X15201134Y-16257222D02*
X15201134Y-16361984D01*
X15201134Y-16257222D02*
X15210658Y-16238174D01*
X15210658Y-16238174D02*
X15229705Y-16228650D01*
X15229705Y-16228650D02*
X15258277Y-16228650D01*
X15258277Y-16228650D02*
X15277324Y-16238174D01*
X15277324Y-16238174D02*
X15286848Y-16257222D01*
X15286848Y-16257222D02*
X15286848Y-16361984D01*
X15382086Y-16361984D02*
X15382086Y-16228650D01*
X15382086Y-16247698D02*
X15391610Y-16238174D01*
X15391610Y-16238174D02*
X15410658Y-16228650D01*
X15410658Y-16228650D02*
X15439229Y-16228650D01*
X15439229Y-16228650D02*
X15458277Y-16238174D01*
X15458277Y-16238174D02*
X15467801Y-16257222D01*
X15467801Y-16257222D02*
X15467801Y-16361984D01*
X15467801Y-16257222D02*
X15477324Y-16238174D01*
X15477324Y-16238174D02*
X15496372Y-16228650D01*
X15496372Y-16228650D02*
X15524943Y-16228650D01*
X15524943Y-16228650D02*
X15543991Y-16238174D01*
X15543991Y-16238174D02*
X15553515Y-16257222D01*
X15553515Y-16257222D02*
X15553515Y-16361984D01*
X15943991Y-16152460D02*
X15772563Y-16409603D01*
X16201134Y-16161984D02*
X16220182Y-16161984D01*
X16220182Y-16161984D02*
X16239229Y-16171508D01*
X16239229Y-16171508D02*
X16248753Y-16181031D01*
X16248753Y-16181031D02*
X16258277Y-16200079D01*
X16258277Y-16200079D02*
X16267801Y-16238174D01*
X16267801Y-16238174D02*
X16267801Y-16285793D01*
X16267801Y-16285793D02*
X16258277Y-16323888D01*
X16258277Y-16323888D02*
X16248753Y-16342936D01*
X16248753Y-16342936D02*
X16239229Y-16352460D01*
X16239229Y-16352460D02*
X16220182Y-16361984D01*
X16220182Y-16361984D02*
X16201134Y-16361984D01*
X16201134Y-16361984D02*
X16182086Y-16352460D01*
X16182086Y-16352460D02*
X16172563Y-16342936D01*
X16172563Y-16342936D02*
X16163039Y-16323888D01*
X16163039Y-16323888D02*
X16153515Y-16285793D01*
X16153515Y-16285793D02*
X16153515Y-16238174D01*
X16153515Y-16238174D02*
X16163039Y-16200079D01*
X16163039Y-16200079D02*
X16172563Y-16181031D01*
X16172563Y-16181031D02*
X16182086Y-16171508D01*
X16182086Y-16171508D02*
X16201134Y-16161984D01*
X16353515Y-16342936D02*
X16363039Y-16352460D01*
X16363039Y-16352460D02*
X16353515Y-16361984D01*
X16353515Y-16361984D02*
X16343991Y-16352460D01*
X16343991Y-16352460D02*
X16353515Y-16342936D01*
X16353515Y-16342936D02*
X16353515Y-16361984D01*
X16486848Y-16161984D02*
X16505896Y-16161984D01*
X16505896Y-16161984D02*
X16524944Y-16171508D01*
X16524944Y-16171508D02*
X16534467Y-16181031D01*
X16534467Y-16181031D02*
X16543991Y-16200079D01*
X16543991Y-16200079D02*
X16553515Y-16238174D01*
X16553515Y-16238174D02*
X16553515Y-16285793D01*
X16553515Y-16285793D02*
X16543991Y-16323888D01*
X16543991Y-16323888D02*
X16534467Y-16342936D01*
X16534467Y-16342936D02*
X16524944Y-16352460D01*
X16524944Y-16352460D02*
X16505896Y-16361984D01*
X16505896Y-16361984D02*
X16486848Y-16361984D01*
X16486848Y-16361984D02*
X16467801Y-16352460D01*
X16467801Y-16352460D02*
X16458277Y-16342936D01*
X16458277Y-16342936D02*
X16448753Y-16323888D01*
X16448753Y-16323888D02*
X16439229Y-16285793D01*
X16439229Y-16285793D02*
X16439229Y-16238174D01*
X16439229Y-16238174D02*
X16448753Y-16200079D01*
X16448753Y-16200079D02*
X16458277Y-16181031D01*
X16458277Y-16181031D02*
X16467801Y-16171508D01*
X16467801Y-16171508D02*
X16486848Y-16161984D01*
X16629706Y-16181031D02*
X16639229Y-16171508D01*
X16639229Y-16171508D02*
X16658277Y-16161984D01*
X16658277Y-16161984D02*
X16705896Y-16161984D01*
X16705896Y-16161984D02*
X16724944Y-16171508D01*
X16724944Y-16171508D02*
X16734467Y-16181031D01*
X16734467Y-16181031D02*
X16743991Y-16200079D01*
X16743991Y-16200079D02*
X16743991Y-16219127D01*
X16743991Y-16219127D02*
X16734467Y-16247698D01*
X16734467Y-16247698D02*
X16620182Y-16361984D01*
X16620182Y-16361984D02*
X16743991Y-16361984D01*
X16839229Y-16361984D02*
X16877325Y-16361984D01*
X16877325Y-16361984D02*
X16896372Y-16352460D01*
X16896372Y-16352460D02*
X16905896Y-16342936D01*
X16905896Y-16342936D02*
X16924944Y-16314365D01*
X16924944Y-16314365D02*
X16934468Y-16276269D01*
X16934468Y-16276269D02*
X16934468Y-16200079D01*
X16934468Y-16200079D02*
X16924944Y-16181031D01*
X16924944Y-16181031D02*
X16915420Y-16171508D01*
X16915420Y-16171508D02*
X16896372Y-16161984D01*
X16896372Y-16161984D02*
X16858277Y-16161984D01*
X16858277Y-16161984D02*
X16839229Y-16171508D01*
X16839229Y-16171508D02*
X16829706Y-16181031D01*
X16829706Y-16181031D02*
X16820182Y-16200079D01*
X16820182Y-16200079D02*
X16820182Y-16247698D01*
X16820182Y-16247698D02*
X16829706Y-16266746D01*
X16829706Y-16266746D02*
X16839229Y-16276269D01*
X16839229Y-16276269D02*
X16858277Y-16285793D01*
X16858277Y-16285793D02*
X16896372Y-16285793D01*
X16896372Y-16285793D02*
X16915420Y-16276269D01*
X16915420Y-16276269D02*
X16924944Y-16266746D01*
X16924944Y-16266746D02*
X16934468Y-16247698D01*
X17115420Y-16161984D02*
X17020182Y-16161984D01*
X17020182Y-16161984D02*
X17010658Y-16257222D01*
X17010658Y-16257222D02*
X17020182Y-16247698D01*
X17020182Y-16247698D02*
X17039229Y-16238174D01*
X17039229Y-16238174D02*
X17086849Y-16238174D01*
X17086849Y-16238174D02*
X17105896Y-16247698D01*
X17105896Y-16247698D02*
X17115420Y-16257222D01*
X17115420Y-16257222D02*
X17124944Y-16276269D01*
X17124944Y-16276269D02*
X17124944Y-16323888D01*
X17124944Y-16323888D02*
X17115420Y-16342936D01*
X17115420Y-16342936D02*
X17105896Y-16352460D01*
X17105896Y-16352460D02*
X17086849Y-16361984D01*
X17086849Y-16361984D02*
X17039229Y-16361984D01*
X17039229Y-16361984D02*
X17020182Y-16352460D01*
X17020182Y-16352460D02*
X17010658Y-16342936D01*
X17201134Y-16161984D02*
X17201134Y-16200079D01*
X17277325Y-16161984D02*
X17277325Y-16200079D01*
X17572563Y-16438174D02*
X17563039Y-16428650D01*
X17563039Y-16428650D02*
X17543991Y-16400079D01*
X17543991Y-16400079D02*
X17534468Y-16381031D01*
X17534468Y-16381031D02*
X17524944Y-16352460D01*
X17524944Y-16352460D02*
X17515420Y-16304841D01*
X17515420Y-16304841D02*
X17515420Y-16266746D01*
X17515420Y-16266746D02*
X17524944Y-16219127D01*
X17524944Y-16219127D02*
X17534468Y-16190555D01*
X17534468Y-16190555D02*
X17543991Y-16171508D01*
X17543991Y-16171508D02*
X17563039Y-16142936D01*
X17563039Y-16142936D02*
X17572563Y-16133412D01*
X17629706Y-16161984D02*
X17753515Y-16161984D01*
X17753515Y-16161984D02*
X17686849Y-16238174D01*
X17686849Y-16238174D02*
X17715420Y-16238174D01*
X17715420Y-16238174D02*
X17734468Y-16247698D01*
X17734468Y-16247698D02*
X17743991Y-16257222D01*
X17743991Y-16257222D02*
X17753515Y-16276269D01*
X17753515Y-16276269D02*
X17753515Y-16323888D01*
X17753515Y-16323888D02*
X17743991Y-16342936D01*
X17743991Y-16342936D02*
X17734468Y-16352460D01*
X17734468Y-16352460D02*
X17715420Y-16361984D01*
X17715420Y-16361984D02*
X17658277Y-16361984D01*
X17658277Y-16361984D02*
X17639230Y-16352460D01*
X17639230Y-16352460D02*
X17629706Y-16342936D01*
X17991611Y-16361984D02*
X17991611Y-16161984D01*
X18077325Y-16361984D02*
X18077325Y-16257222D01*
X18077325Y-16257222D02*
X18067801Y-16238174D01*
X18067801Y-16238174D02*
X18048753Y-16228650D01*
X18048753Y-16228650D02*
X18020182Y-16228650D01*
X18020182Y-16228650D02*
X18001134Y-16238174D01*
X18001134Y-16238174D02*
X17991611Y-16247698D01*
X18201134Y-16361984D02*
X18182087Y-16352460D01*
X18182087Y-16352460D02*
X18172563Y-16342936D01*
X18172563Y-16342936D02*
X18163039Y-16323888D01*
X18163039Y-16323888D02*
X18163039Y-16266746D01*
X18163039Y-16266746D02*
X18172563Y-16247698D01*
X18172563Y-16247698D02*
X18182087Y-16238174D01*
X18182087Y-16238174D02*
X18201134Y-16228650D01*
X18201134Y-16228650D02*
X18229706Y-16228650D01*
X18229706Y-16228650D02*
X18248753Y-16238174D01*
X18248753Y-16238174D02*
X18258277Y-16247698D01*
X18258277Y-16247698D02*
X18267801Y-16266746D01*
X18267801Y-16266746D02*
X18267801Y-16323888D01*
X18267801Y-16323888D02*
X18258277Y-16342936D01*
X18258277Y-16342936D02*
X18248753Y-16352460D01*
X18248753Y-16352460D02*
X18229706Y-16361984D01*
X18229706Y-16361984D02*
X18201134Y-16361984D01*
X18382087Y-16361984D02*
X18363039Y-16352460D01*
X18363039Y-16352460D02*
X18353515Y-16333412D01*
X18353515Y-16333412D02*
X18353515Y-16161984D01*
X18534468Y-16352460D02*
X18515420Y-16361984D01*
X18515420Y-16361984D02*
X18477325Y-16361984D01*
X18477325Y-16361984D02*
X18458277Y-16352460D01*
X18458277Y-16352460D02*
X18448753Y-16333412D01*
X18448753Y-16333412D02*
X18448753Y-16257222D01*
X18448753Y-16257222D02*
X18458277Y-16238174D01*
X18458277Y-16238174D02*
X18477325Y-16228650D01*
X18477325Y-16228650D02*
X18515420Y-16228650D01*
X18515420Y-16228650D02*
X18534468Y-16238174D01*
X18534468Y-16238174D02*
X18543992Y-16257222D01*
X18543992Y-16257222D02*
X18543992Y-16276269D01*
X18543992Y-16276269D02*
X18448753Y-16295317D01*
X18620182Y-16352460D02*
X18639230Y-16361984D01*
X18639230Y-16361984D02*
X18677325Y-16361984D01*
X18677325Y-16361984D02*
X18696373Y-16352460D01*
X18696373Y-16352460D02*
X18705896Y-16333412D01*
X18705896Y-16333412D02*
X18705896Y-16323888D01*
X18705896Y-16323888D02*
X18696373Y-16304841D01*
X18696373Y-16304841D02*
X18677325Y-16295317D01*
X18677325Y-16295317D02*
X18648753Y-16295317D01*
X18648753Y-16295317D02*
X18629706Y-16285793D01*
X18629706Y-16285793D02*
X18620182Y-16266746D01*
X18620182Y-16266746D02*
X18620182Y-16257222D01*
X18620182Y-16257222D02*
X18629706Y-16238174D01*
X18629706Y-16238174D02*
X18648753Y-16228650D01*
X18648753Y-16228650D02*
X18677325Y-16228650D01*
X18677325Y-16228650D02*
X18696373Y-16238174D01*
X18772563Y-16438174D02*
X18782087Y-16428650D01*
X18782087Y-16428650D02*
X18801134Y-16400079D01*
X18801134Y-16400079D02*
X18810658Y-16381031D01*
X18810658Y-16381031D02*
X18820182Y-16352460D01*
X18820182Y-16352460D02*
X18829706Y-16304841D01*
X18829706Y-16304841D02*
X18829706Y-16266746D01*
X18829706Y-16266746D02*
X18820182Y-16219127D01*
X18820182Y-16219127D02*
X18810658Y-16190555D01*
X18810658Y-16190555D02*
X18801134Y-16171508D01*
X18801134Y-16171508D02*
X18782087Y-16142936D01*
X18782087Y-16142936D02*
X18772563Y-16133412D01*
D12*
X13986385Y-16561335D02*
X13986385Y-16507665D01*
X13932715Y-16507665D01*
X13932715Y-16561335D01*
X13986385Y-16561335D01*
D11*
X14296372Y-16425984D02*
X14315420Y-16425984D01*
X14315420Y-16425984D02*
X14334467Y-16435508D01*
X14334467Y-16435508D02*
X14343991Y-16445031D01*
X14343991Y-16445031D02*
X14353515Y-16464079D01*
X14353515Y-16464079D02*
X14363039Y-16502174D01*
X14363039Y-16502174D02*
X14363039Y-16549793D01*
X14363039Y-16549793D02*
X14353515Y-16587888D01*
X14353515Y-16587888D02*
X14343991Y-16606936D01*
X14343991Y-16606936D02*
X14334467Y-16616460D01*
X14334467Y-16616460D02*
X14315420Y-16625984D01*
X14315420Y-16625984D02*
X14296372Y-16625984D01*
X14296372Y-16625984D02*
X14277324Y-16616460D01*
X14277324Y-16616460D02*
X14267801Y-16606936D01*
X14267801Y-16606936D02*
X14258277Y-16587888D01*
X14258277Y-16587888D02*
X14248753Y-16549793D01*
X14248753Y-16549793D02*
X14248753Y-16502174D01*
X14248753Y-16502174D02*
X14258277Y-16464079D01*
X14258277Y-16464079D02*
X14267801Y-16445031D01*
X14267801Y-16445031D02*
X14277324Y-16435508D01*
X14277324Y-16435508D02*
X14296372Y-16425984D01*
X14448753Y-16606936D02*
X14458277Y-16616460D01*
X14458277Y-16616460D02*
X14448753Y-16625984D01*
X14448753Y-16625984D02*
X14439229Y-16616460D01*
X14439229Y-16616460D02*
X14448753Y-16606936D01*
X14448753Y-16606936D02*
X14448753Y-16625984D01*
X14524943Y-16425984D02*
X14658277Y-16425984D01*
X14658277Y-16425984D02*
X14572562Y-16625984D01*
X14829705Y-16425984D02*
X14734467Y-16425984D01*
X14734467Y-16425984D02*
X14724943Y-16521222D01*
X14724943Y-16521222D02*
X14734467Y-16511698D01*
X14734467Y-16511698D02*
X14753515Y-16502174D01*
X14753515Y-16502174D02*
X14801134Y-16502174D01*
X14801134Y-16502174D02*
X14820182Y-16511698D01*
X14820182Y-16511698D02*
X14829705Y-16521222D01*
X14829705Y-16521222D02*
X14839229Y-16540269D01*
X14839229Y-16540269D02*
X14839229Y-16587888D01*
X14839229Y-16587888D02*
X14829705Y-16606936D01*
X14829705Y-16606936D02*
X14820182Y-16616460D01*
X14820182Y-16616460D02*
X14801134Y-16625984D01*
X14801134Y-16625984D02*
X14753515Y-16625984D01*
X14753515Y-16625984D02*
X14734467Y-16616460D01*
X14734467Y-16616460D02*
X14724943Y-16606936D01*
X14934467Y-16625984D02*
X14972562Y-16625984D01*
X14972562Y-16625984D02*
X14991610Y-16616460D01*
X14991610Y-16616460D02*
X15001134Y-16606936D01*
X15001134Y-16606936D02*
X15020182Y-16578365D01*
X15020182Y-16578365D02*
X15029705Y-16540269D01*
X15029705Y-16540269D02*
X15029705Y-16464079D01*
X15029705Y-16464079D02*
X15020182Y-16445031D01*
X15020182Y-16445031D02*
X15010658Y-16435508D01*
X15010658Y-16435508D02*
X14991610Y-16425984D01*
X14991610Y-16425984D02*
X14953515Y-16425984D01*
X14953515Y-16425984D02*
X14934467Y-16435508D01*
X14934467Y-16435508D02*
X14924943Y-16445031D01*
X14924943Y-16445031D02*
X14915420Y-16464079D01*
X14915420Y-16464079D02*
X14915420Y-16511698D01*
X14915420Y-16511698D02*
X14924943Y-16530746D01*
X14924943Y-16530746D02*
X14934467Y-16540269D01*
X14934467Y-16540269D02*
X14953515Y-16549793D01*
X14953515Y-16549793D02*
X14991610Y-16549793D01*
X14991610Y-16549793D02*
X15010658Y-16540269D01*
X15010658Y-16540269D02*
X15020182Y-16530746D01*
X15020182Y-16530746D02*
X15029705Y-16511698D01*
X15115420Y-16625984D02*
X15115420Y-16492650D01*
X15115420Y-16511698D02*
X15124943Y-16502174D01*
X15124943Y-16502174D02*
X15143991Y-16492650D01*
X15143991Y-16492650D02*
X15172563Y-16492650D01*
X15172563Y-16492650D02*
X15191610Y-16502174D01*
X15191610Y-16502174D02*
X15201134Y-16521222D01*
X15201134Y-16521222D02*
X15201134Y-16625984D01*
X15201134Y-16521222D02*
X15210658Y-16502174D01*
X15210658Y-16502174D02*
X15229705Y-16492650D01*
X15229705Y-16492650D02*
X15258277Y-16492650D01*
X15258277Y-16492650D02*
X15277324Y-16502174D01*
X15277324Y-16502174D02*
X15286848Y-16521222D01*
X15286848Y-16521222D02*
X15286848Y-16625984D01*
X15382086Y-16625984D02*
X15382086Y-16492650D01*
X15382086Y-16511698D02*
X15391610Y-16502174D01*
X15391610Y-16502174D02*
X15410658Y-16492650D01*
X15410658Y-16492650D02*
X15439229Y-16492650D01*
X15439229Y-16492650D02*
X15458277Y-16502174D01*
X15458277Y-16502174D02*
X15467801Y-16521222D01*
X15467801Y-16521222D02*
X15467801Y-16625984D01*
X15467801Y-16521222D02*
X15477324Y-16502174D01*
X15477324Y-16502174D02*
X15496372Y-16492650D01*
X15496372Y-16492650D02*
X15524943Y-16492650D01*
X15524943Y-16492650D02*
X15543991Y-16502174D01*
X15543991Y-16502174D02*
X15553515Y-16521222D01*
X15553515Y-16521222D02*
X15553515Y-16625984D01*
X15943991Y-16416460D02*
X15772563Y-16673603D01*
X16201134Y-16425984D02*
X16220182Y-16425984D01*
X16220182Y-16425984D02*
X16239229Y-16435508D01*
X16239229Y-16435508D02*
X16248753Y-16445031D01*
X16248753Y-16445031D02*
X16258277Y-16464079D01*
X16258277Y-16464079D02*
X16267801Y-16502174D01*
X16267801Y-16502174D02*
X16267801Y-16549793D01*
X16267801Y-16549793D02*
X16258277Y-16587888D01*
X16258277Y-16587888D02*
X16248753Y-16606936D01*
X16248753Y-16606936D02*
X16239229Y-16616460D01*
X16239229Y-16616460D02*
X16220182Y-16625984D01*
X16220182Y-16625984D02*
X16201134Y-16625984D01*
X16201134Y-16625984D02*
X16182086Y-16616460D01*
X16182086Y-16616460D02*
X16172563Y-16606936D01*
X16172563Y-16606936D02*
X16163039Y-16587888D01*
X16163039Y-16587888D02*
X16153515Y-16549793D01*
X16153515Y-16549793D02*
X16153515Y-16502174D01*
X16153515Y-16502174D02*
X16163039Y-16464079D01*
X16163039Y-16464079D02*
X16172563Y-16445031D01*
X16172563Y-16445031D02*
X16182086Y-16435508D01*
X16182086Y-16435508D02*
X16201134Y-16425984D01*
X16353515Y-16606936D02*
X16363039Y-16616460D01*
X16363039Y-16616460D02*
X16353515Y-16625984D01*
X16353515Y-16625984D02*
X16343991Y-16616460D01*
X16343991Y-16616460D02*
X16353515Y-16606936D01*
X16353515Y-16606936D02*
X16353515Y-16625984D01*
X16486848Y-16425984D02*
X16505896Y-16425984D01*
X16505896Y-16425984D02*
X16524944Y-16435508D01*
X16524944Y-16435508D02*
X16534467Y-16445031D01*
X16534467Y-16445031D02*
X16543991Y-16464079D01*
X16543991Y-16464079D02*
X16553515Y-16502174D01*
X16553515Y-16502174D02*
X16553515Y-16549793D01*
X16553515Y-16549793D02*
X16543991Y-16587888D01*
X16543991Y-16587888D02*
X16534467Y-16606936D01*
X16534467Y-16606936D02*
X16524944Y-16616460D01*
X16524944Y-16616460D02*
X16505896Y-16625984D01*
X16505896Y-16625984D02*
X16486848Y-16625984D01*
X16486848Y-16625984D02*
X16467801Y-16616460D01*
X16467801Y-16616460D02*
X16458277Y-16606936D01*
X16458277Y-16606936D02*
X16448753Y-16587888D01*
X16448753Y-16587888D02*
X16439229Y-16549793D01*
X16439229Y-16549793D02*
X16439229Y-16502174D01*
X16439229Y-16502174D02*
X16448753Y-16464079D01*
X16448753Y-16464079D02*
X16458277Y-16445031D01*
X16458277Y-16445031D02*
X16467801Y-16435508D01*
X16467801Y-16435508D02*
X16486848Y-16425984D01*
X16629706Y-16445031D02*
X16639229Y-16435508D01*
X16639229Y-16435508D02*
X16658277Y-16425984D01*
X16658277Y-16425984D02*
X16705896Y-16425984D01*
X16705896Y-16425984D02*
X16724944Y-16435508D01*
X16724944Y-16435508D02*
X16734467Y-16445031D01*
X16734467Y-16445031D02*
X16743991Y-16464079D01*
X16743991Y-16464079D02*
X16743991Y-16483127D01*
X16743991Y-16483127D02*
X16734467Y-16511698D01*
X16734467Y-16511698D02*
X16620182Y-16625984D01*
X16620182Y-16625984D02*
X16743991Y-16625984D01*
X16839229Y-16625984D02*
X16877325Y-16625984D01*
X16877325Y-16625984D02*
X16896372Y-16616460D01*
X16896372Y-16616460D02*
X16905896Y-16606936D01*
X16905896Y-16606936D02*
X16924944Y-16578365D01*
X16924944Y-16578365D02*
X16934468Y-16540269D01*
X16934468Y-16540269D02*
X16934468Y-16464079D01*
X16934468Y-16464079D02*
X16924944Y-16445031D01*
X16924944Y-16445031D02*
X16915420Y-16435508D01*
X16915420Y-16435508D02*
X16896372Y-16425984D01*
X16896372Y-16425984D02*
X16858277Y-16425984D01*
X16858277Y-16425984D02*
X16839229Y-16435508D01*
X16839229Y-16435508D02*
X16829706Y-16445031D01*
X16829706Y-16445031D02*
X16820182Y-16464079D01*
X16820182Y-16464079D02*
X16820182Y-16511698D01*
X16820182Y-16511698D02*
X16829706Y-16530746D01*
X16829706Y-16530746D02*
X16839229Y-16540269D01*
X16839229Y-16540269D02*
X16858277Y-16549793D01*
X16858277Y-16549793D02*
X16896372Y-16549793D01*
X16896372Y-16549793D02*
X16915420Y-16540269D01*
X16915420Y-16540269D02*
X16924944Y-16530746D01*
X16924944Y-16530746D02*
X16934468Y-16511698D01*
X17029706Y-16625984D02*
X17067801Y-16625984D01*
X17067801Y-16625984D02*
X17086849Y-16616460D01*
X17086849Y-16616460D02*
X17096372Y-16606936D01*
X17096372Y-16606936D02*
X17115420Y-16578365D01*
X17115420Y-16578365D02*
X17124944Y-16540269D01*
X17124944Y-16540269D02*
X17124944Y-16464079D01*
X17124944Y-16464079D02*
X17115420Y-16445031D01*
X17115420Y-16445031D02*
X17105896Y-16435508D01*
X17105896Y-16435508D02*
X17086849Y-16425984D01*
X17086849Y-16425984D02*
X17048753Y-16425984D01*
X17048753Y-16425984D02*
X17029706Y-16435508D01*
X17029706Y-16435508D02*
X17020182Y-16445031D01*
X17020182Y-16445031D02*
X17010658Y-16464079D01*
X17010658Y-16464079D02*
X17010658Y-16511698D01*
X17010658Y-16511698D02*
X17020182Y-16530746D01*
X17020182Y-16530746D02*
X17029706Y-16540269D01*
X17029706Y-16540269D02*
X17048753Y-16549793D01*
X17048753Y-16549793D02*
X17086849Y-16549793D01*
X17086849Y-16549793D02*
X17105896Y-16540269D01*
X17105896Y-16540269D02*
X17115420Y-16530746D01*
X17115420Y-16530746D02*
X17124944Y-16511698D01*
X17201134Y-16425984D02*
X17201134Y-16464079D01*
X17277325Y-16425984D02*
X17277325Y-16464079D01*
X17572563Y-16702174D02*
X17563039Y-16692650D01*
X17563039Y-16692650D02*
X17543991Y-16664079D01*
X17543991Y-16664079D02*
X17534468Y-16645031D01*
X17534468Y-16645031D02*
X17524944Y-16616460D01*
X17524944Y-16616460D02*
X17515420Y-16568841D01*
X17515420Y-16568841D02*
X17515420Y-16530746D01*
X17515420Y-16530746D02*
X17524944Y-16483127D01*
X17524944Y-16483127D02*
X17534468Y-16454555D01*
X17534468Y-16454555D02*
X17543991Y-16435508D01*
X17543991Y-16435508D02*
X17563039Y-16406936D01*
X17563039Y-16406936D02*
X17572563Y-16397412D01*
X17753515Y-16625984D02*
X17639230Y-16625984D01*
X17696372Y-16625984D02*
X17696372Y-16425984D01*
X17696372Y-16425984D02*
X17677325Y-16454555D01*
X17677325Y-16454555D02*
X17658277Y-16473603D01*
X17658277Y-16473603D02*
X17639230Y-16483127D01*
X17924944Y-16425984D02*
X17886849Y-16425984D01*
X17886849Y-16425984D02*
X17867801Y-16435508D01*
X17867801Y-16435508D02*
X17858277Y-16445031D01*
X17858277Y-16445031D02*
X17839230Y-16473603D01*
X17839230Y-16473603D02*
X17829706Y-16511698D01*
X17829706Y-16511698D02*
X17829706Y-16587888D01*
X17829706Y-16587888D02*
X17839230Y-16606936D01*
X17839230Y-16606936D02*
X17848753Y-16616460D01*
X17848753Y-16616460D02*
X17867801Y-16625984D01*
X17867801Y-16625984D02*
X17905896Y-16625984D01*
X17905896Y-16625984D02*
X17924944Y-16616460D01*
X17924944Y-16616460D02*
X17934468Y-16606936D01*
X17934468Y-16606936D02*
X17943991Y-16587888D01*
X17943991Y-16587888D02*
X17943991Y-16540269D01*
X17943991Y-16540269D02*
X17934468Y-16521222D01*
X17934468Y-16521222D02*
X17924944Y-16511698D01*
X17924944Y-16511698D02*
X17905896Y-16502174D01*
X17905896Y-16502174D02*
X17867801Y-16502174D01*
X17867801Y-16502174D02*
X17848753Y-16511698D01*
X17848753Y-16511698D02*
X17839230Y-16521222D01*
X17839230Y-16521222D02*
X17829706Y-16540269D01*
X18182087Y-16625984D02*
X18182087Y-16425984D01*
X18267801Y-16625984D02*
X18267801Y-16521222D01*
X18267801Y-16521222D02*
X18258277Y-16502174D01*
X18258277Y-16502174D02*
X18239230Y-16492650D01*
X18239230Y-16492650D02*
X18210658Y-16492650D01*
X18210658Y-16492650D02*
X18191611Y-16502174D01*
X18191611Y-16502174D02*
X18182087Y-16511698D01*
X18391611Y-16625984D02*
X18372563Y-16616460D01*
X18372563Y-16616460D02*
X18363039Y-16606936D01*
X18363039Y-16606936D02*
X18353515Y-16587888D01*
X18353515Y-16587888D02*
X18353515Y-16530746D01*
X18353515Y-16530746D02*
X18363039Y-16511698D01*
X18363039Y-16511698D02*
X18372563Y-16502174D01*
X18372563Y-16502174D02*
X18391611Y-16492650D01*
X18391611Y-16492650D02*
X18420182Y-16492650D01*
X18420182Y-16492650D02*
X18439230Y-16502174D01*
X18439230Y-16502174D02*
X18448753Y-16511698D01*
X18448753Y-16511698D02*
X18458277Y-16530746D01*
X18458277Y-16530746D02*
X18458277Y-16587888D01*
X18458277Y-16587888D02*
X18448753Y-16606936D01*
X18448753Y-16606936D02*
X18439230Y-16616460D01*
X18439230Y-16616460D02*
X18420182Y-16625984D01*
X18420182Y-16625984D02*
X18391611Y-16625984D01*
X18572563Y-16625984D02*
X18553515Y-16616460D01*
X18553515Y-16616460D02*
X18543992Y-16597412D01*
X18543992Y-16597412D02*
X18543992Y-16425984D01*
X18724944Y-16616460D02*
X18705896Y-16625984D01*
X18705896Y-16625984D02*
X18667801Y-16625984D01*
X18667801Y-16625984D02*
X18648753Y-16616460D01*
X18648753Y-16616460D02*
X18639230Y-16597412D01*
X18639230Y-16597412D02*
X18639230Y-16521222D01*
X18639230Y-16521222D02*
X18648753Y-16502174D01*
X18648753Y-16502174D02*
X18667801Y-16492650D01*
X18667801Y-16492650D02*
X18705896Y-16492650D01*
X18705896Y-16492650D02*
X18724944Y-16502174D01*
X18724944Y-16502174D02*
X18734468Y-16521222D01*
X18734468Y-16521222D02*
X18734468Y-16540269D01*
X18734468Y-16540269D02*
X18639230Y-16559317D01*
X18810658Y-16616460D02*
X18829706Y-16625984D01*
X18829706Y-16625984D02*
X18867801Y-16625984D01*
X18867801Y-16625984D02*
X18886849Y-16616460D01*
X18886849Y-16616460D02*
X18896373Y-16597412D01*
X18896373Y-16597412D02*
X18896373Y-16587888D01*
X18896373Y-16587888D02*
X18886849Y-16568841D01*
X18886849Y-16568841D02*
X18867801Y-16559317D01*
X18867801Y-16559317D02*
X18839230Y-16559317D01*
X18839230Y-16559317D02*
X18820182Y-16549793D01*
X18820182Y-16549793D02*
X18810658Y-16530746D01*
X18810658Y-16530746D02*
X18810658Y-16521222D01*
X18810658Y-16521222D02*
X18820182Y-16502174D01*
X18820182Y-16502174D02*
X18839230Y-16492650D01*
X18839230Y-16492650D02*
X18867801Y-16492650D01*
X18867801Y-16492650D02*
X18886849Y-16502174D01*
X18963039Y-16702174D02*
X18972563Y-16692650D01*
X18972563Y-16692650D02*
X18991611Y-16664079D01*
X18991611Y-16664079D02*
X19001134Y-16645031D01*
X19001134Y-16645031D02*
X19010658Y-16616460D01*
X19010658Y-16616460D02*
X19020182Y-16568841D01*
X19020182Y-16568841D02*
X19020182Y-16530746D01*
X19020182Y-16530746D02*
X19010658Y-16483127D01*
X19010658Y-16483127D02*
X19001134Y-16454555D01*
X19001134Y-16454555D02*
X18991611Y-16435508D01*
X18991611Y-16435508D02*
X18972563Y-16406936D01*
X18972563Y-16406936D02*
X18963039Y-16397412D01*
D12*
X13957500Y-16838500D02*
X13997500Y-16798500D01*
X13957500Y-16758500D01*
X13917500Y-16798500D01*
X13957500Y-16838500D01*
D11*
X14296372Y-16689984D02*
X14315420Y-16689984D01*
X14315420Y-16689984D02*
X14334467Y-16699508D01*
X14334467Y-16699508D02*
X14343991Y-16709031D01*
X14343991Y-16709031D02*
X14353515Y-16728079D01*
X14353515Y-16728079D02*
X14363039Y-16766174D01*
X14363039Y-16766174D02*
X14363039Y-16813793D01*
X14363039Y-16813793D02*
X14353515Y-16851889D01*
X14353515Y-16851889D02*
X14343991Y-16870936D01*
X14343991Y-16870936D02*
X14334467Y-16880460D01*
X14334467Y-16880460D02*
X14315420Y-16889984D01*
X14315420Y-16889984D02*
X14296372Y-16889984D01*
X14296372Y-16889984D02*
X14277324Y-16880460D01*
X14277324Y-16880460D02*
X14267801Y-16870936D01*
X14267801Y-16870936D02*
X14258277Y-16851889D01*
X14258277Y-16851889D02*
X14248753Y-16813793D01*
X14248753Y-16813793D02*
X14248753Y-16766174D01*
X14248753Y-16766174D02*
X14258277Y-16728079D01*
X14258277Y-16728079D02*
X14267801Y-16709031D01*
X14267801Y-16709031D02*
X14277324Y-16699508D01*
X14277324Y-16699508D02*
X14296372Y-16689984D01*
X14448753Y-16870936D02*
X14458277Y-16880460D01*
X14458277Y-16880460D02*
X14448753Y-16889984D01*
X14448753Y-16889984D02*
X14439229Y-16880460D01*
X14439229Y-16880460D02*
X14448753Y-16870936D01*
X14448753Y-16870936D02*
X14448753Y-16889984D01*
X14572562Y-16775698D02*
X14553515Y-16766174D01*
X14553515Y-16766174D02*
X14543991Y-16756650D01*
X14543991Y-16756650D02*
X14534467Y-16737603D01*
X14534467Y-16737603D02*
X14534467Y-16728079D01*
X14534467Y-16728079D02*
X14543991Y-16709031D01*
X14543991Y-16709031D02*
X14553515Y-16699508D01*
X14553515Y-16699508D02*
X14572562Y-16689984D01*
X14572562Y-16689984D02*
X14610658Y-16689984D01*
X14610658Y-16689984D02*
X14629705Y-16699508D01*
X14629705Y-16699508D02*
X14639229Y-16709031D01*
X14639229Y-16709031D02*
X14648753Y-16728079D01*
X14648753Y-16728079D02*
X14648753Y-16737603D01*
X14648753Y-16737603D02*
X14639229Y-16756650D01*
X14639229Y-16756650D02*
X14629705Y-16766174D01*
X14629705Y-16766174D02*
X14610658Y-16775698D01*
X14610658Y-16775698D02*
X14572562Y-16775698D01*
X14572562Y-16775698D02*
X14553515Y-16785222D01*
X14553515Y-16785222D02*
X14543991Y-16794746D01*
X14543991Y-16794746D02*
X14534467Y-16813793D01*
X14534467Y-16813793D02*
X14534467Y-16851889D01*
X14534467Y-16851889D02*
X14543991Y-16870936D01*
X14543991Y-16870936D02*
X14553515Y-16880460D01*
X14553515Y-16880460D02*
X14572562Y-16889984D01*
X14572562Y-16889984D02*
X14610658Y-16889984D01*
X14610658Y-16889984D02*
X14629705Y-16880460D01*
X14629705Y-16880460D02*
X14639229Y-16870936D01*
X14639229Y-16870936D02*
X14648753Y-16851889D01*
X14648753Y-16851889D02*
X14648753Y-16813793D01*
X14648753Y-16813793D02*
X14639229Y-16794746D01*
X14639229Y-16794746D02*
X14629705Y-16785222D01*
X14629705Y-16785222D02*
X14610658Y-16775698D01*
X14772562Y-16689984D02*
X14791610Y-16689984D01*
X14791610Y-16689984D02*
X14810658Y-16699508D01*
X14810658Y-16699508D02*
X14820182Y-16709031D01*
X14820182Y-16709031D02*
X14829705Y-16728079D01*
X14829705Y-16728079D02*
X14839229Y-16766174D01*
X14839229Y-16766174D02*
X14839229Y-16813793D01*
X14839229Y-16813793D02*
X14829705Y-16851889D01*
X14829705Y-16851889D02*
X14820182Y-16870936D01*
X14820182Y-16870936D02*
X14810658Y-16880460D01*
X14810658Y-16880460D02*
X14791610Y-16889984D01*
X14791610Y-16889984D02*
X14772562Y-16889984D01*
X14772562Y-16889984D02*
X14753515Y-16880460D01*
X14753515Y-16880460D02*
X14743991Y-16870936D01*
X14743991Y-16870936D02*
X14734467Y-16851889D01*
X14734467Y-16851889D02*
X14724943Y-16813793D01*
X14724943Y-16813793D02*
X14724943Y-16766174D01*
X14724943Y-16766174D02*
X14734467Y-16728079D01*
X14734467Y-16728079D02*
X14743991Y-16709031D01*
X14743991Y-16709031D02*
X14753515Y-16699508D01*
X14753515Y-16699508D02*
X14772562Y-16689984D01*
X14963039Y-16689984D02*
X14982086Y-16689984D01*
X14982086Y-16689984D02*
X15001134Y-16699508D01*
X15001134Y-16699508D02*
X15010658Y-16709031D01*
X15010658Y-16709031D02*
X15020182Y-16728079D01*
X15020182Y-16728079D02*
X15029705Y-16766174D01*
X15029705Y-16766174D02*
X15029705Y-16813793D01*
X15029705Y-16813793D02*
X15020182Y-16851889D01*
X15020182Y-16851889D02*
X15010658Y-16870936D01*
X15010658Y-16870936D02*
X15001134Y-16880460D01*
X15001134Y-16880460D02*
X14982086Y-16889984D01*
X14982086Y-16889984D02*
X14963039Y-16889984D01*
X14963039Y-16889984D02*
X14943991Y-16880460D01*
X14943991Y-16880460D02*
X14934467Y-16870936D01*
X14934467Y-16870936D02*
X14924943Y-16851889D01*
X14924943Y-16851889D02*
X14915420Y-16813793D01*
X14915420Y-16813793D02*
X14915420Y-16766174D01*
X14915420Y-16766174D02*
X14924943Y-16728079D01*
X14924943Y-16728079D02*
X14934467Y-16709031D01*
X14934467Y-16709031D02*
X14943991Y-16699508D01*
X14943991Y-16699508D02*
X14963039Y-16689984D01*
X15115420Y-16889984D02*
X15115420Y-16756650D01*
X15115420Y-16775698D02*
X15124943Y-16766174D01*
X15124943Y-16766174D02*
X15143991Y-16756650D01*
X15143991Y-16756650D02*
X15172563Y-16756650D01*
X15172563Y-16756650D02*
X15191610Y-16766174D01*
X15191610Y-16766174D02*
X15201134Y-16785222D01*
X15201134Y-16785222D02*
X15201134Y-16889984D01*
X15201134Y-16785222D02*
X15210658Y-16766174D01*
X15210658Y-16766174D02*
X15229705Y-16756650D01*
X15229705Y-16756650D02*
X15258277Y-16756650D01*
X15258277Y-16756650D02*
X15277324Y-16766174D01*
X15277324Y-16766174D02*
X15286848Y-16785222D01*
X15286848Y-16785222D02*
X15286848Y-16889984D01*
X15382086Y-16889984D02*
X15382086Y-16756650D01*
X15382086Y-16775698D02*
X15391610Y-16766174D01*
X15391610Y-16766174D02*
X15410658Y-16756650D01*
X15410658Y-16756650D02*
X15439229Y-16756650D01*
X15439229Y-16756650D02*
X15458277Y-16766174D01*
X15458277Y-16766174D02*
X15467801Y-16785222D01*
X15467801Y-16785222D02*
X15467801Y-16889984D01*
X15467801Y-16785222D02*
X15477324Y-16766174D01*
X15477324Y-16766174D02*
X15496372Y-16756650D01*
X15496372Y-16756650D02*
X15524943Y-16756650D01*
X15524943Y-16756650D02*
X15543991Y-16766174D01*
X15543991Y-16766174D02*
X15553515Y-16785222D01*
X15553515Y-16785222D02*
X15553515Y-16889984D01*
X15943991Y-16680460D02*
X15772563Y-16937603D01*
X16201134Y-16689984D02*
X16220182Y-16689984D01*
X16220182Y-16689984D02*
X16239229Y-16699508D01*
X16239229Y-16699508D02*
X16248753Y-16709031D01*
X16248753Y-16709031D02*
X16258277Y-16728079D01*
X16258277Y-16728079D02*
X16267801Y-16766174D01*
X16267801Y-16766174D02*
X16267801Y-16813793D01*
X16267801Y-16813793D02*
X16258277Y-16851889D01*
X16258277Y-16851889D02*
X16248753Y-16870936D01*
X16248753Y-16870936D02*
X16239229Y-16880460D01*
X16239229Y-16880460D02*
X16220182Y-16889984D01*
X16220182Y-16889984D02*
X16201134Y-16889984D01*
X16201134Y-16889984D02*
X16182086Y-16880460D01*
X16182086Y-16880460D02*
X16172563Y-16870936D01*
X16172563Y-16870936D02*
X16163039Y-16851889D01*
X16163039Y-16851889D02*
X16153515Y-16813793D01*
X16153515Y-16813793D02*
X16153515Y-16766174D01*
X16153515Y-16766174D02*
X16163039Y-16728079D01*
X16163039Y-16728079D02*
X16172563Y-16709031D01*
X16172563Y-16709031D02*
X16182086Y-16699508D01*
X16182086Y-16699508D02*
X16201134Y-16689984D01*
X16353515Y-16870936D02*
X16363039Y-16880460D01*
X16363039Y-16880460D02*
X16353515Y-16889984D01*
X16353515Y-16889984D02*
X16343991Y-16880460D01*
X16343991Y-16880460D02*
X16353515Y-16870936D01*
X16353515Y-16870936D02*
X16353515Y-16889984D01*
X16486848Y-16689984D02*
X16505896Y-16689984D01*
X16505896Y-16689984D02*
X16524944Y-16699508D01*
X16524944Y-16699508D02*
X16534467Y-16709031D01*
X16534467Y-16709031D02*
X16543991Y-16728079D01*
X16543991Y-16728079D02*
X16553515Y-16766174D01*
X16553515Y-16766174D02*
X16553515Y-16813793D01*
X16553515Y-16813793D02*
X16543991Y-16851889D01*
X16543991Y-16851889D02*
X16534467Y-16870936D01*
X16534467Y-16870936D02*
X16524944Y-16880460D01*
X16524944Y-16880460D02*
X16505896Y-16889984D01*
X16505896Y-16889984D02*
X16486848Y-16889984D01*
X16486848Y-16889984D02*
X16467801Y-16880460D01*
X16467801Y-16880460D02*
X16458277Y-16870936D01*
X16458277Y-16870936D02*
X16448753Y-16851889D01*
X16448753Y-16851889D02*
X16439229Y-16813793D01*
X16439229Y-16813793D02*
X16439229Y-16766174D01*
X16439229Y-16766174D02*
X16448753Y-16728079D01*
X16448753Y-16728079D02*
X16458277Y-16709031D01*
X16458277Y-16709031D02*
X16467801Y-16699508D01*
X16467801Y-16699508D02*
X16486848Y-16689984D01*
X16620182Y-16689984D02*
X16743991Y-16689984D01*
X16743991Y-16689984D02*
X16677325Y-16766174D01*
X16677325Y-16766174D02*
X16705896Y-16766174D01*
X16705896Y-16766174D02*
X16724944Y-16775698D01*
X16724944Y-16775698D02*
X16734467Y-16785222D01*
X16734467Y-16785222D02*
X16743991Y-16804270D01*
X16743991Y-16804270D02*
X16743991Y-16851889D01*
X16743991Y-16851889D02*
X16734467Y-16870936D01*
X16734467Y-16870936D02*
X16724944Y-16880460D01*
X16724944Y-16880460D02*
X16705896Y-16889984D01*
X16705896Y-16889984D02*
X16648753Y-16889984D01*
X16648753Y-16889984D02*
X16629706Y-16880460D01*
X16629706Y-16880460D02*
X16620182Y-16870936D01*
X16934468Y-16889984D02*
X16820182Y-16889984D01*
X16877325Y-16889984D02*
X16877325Y-16689984D01*
X16877325Y-16689984D02*
X16858277Y-16718555D01*
X16858277Y-16718555D02*
X16839229Y-16737603D01*
X16839229Y-16737603D02*
X16820182Y-16747127D01*
X17115420Y-16689984D02*
X17020182Y-16689984D01*
X17020182Y-16689984D02*
X17010658Y-16785222D01*
X17010658Y-16785222D02*
X17020182Y-16775698D01*
X17020182Y-16775698D02*
X17039229Y-16766174D01*
X17039229Y-16766174D02*
X17086849Y-16766174D01*
X17086849Y-16766174D02*
X17105896Y-16775698D01*
X17105896Y-16775698D02*
X17115420Y-16785222D01*
X17115420Y-16785222D02*
X17124944Y-16804270D01*
X17124944Y-16804270D02*
X17124944Y-16851889D01*
X17124944Y-16851889D02*
X17115420Y-16870936D01*
X17115420Y-16870936D02*
X17105896Y-16880460D01*
X17105896Y-16880460D02*
X17086849Y-16889984D01*
X17086849Y-16889984D02*
X17039229Y-16889984D01*
X17039229Y-16889984D02*
X17020182Y-16880460D01*
X17020182Y-16880460D02*
X17010658Y-16870936D01*
X17201134Y-16689984D02*
X17201134Y-16728079D01*
X17277325Y-16689984D02*
X17277325Y-16728079D01*
X17572563Y-16966174D02*
X17563039Y-16956650D01*
X17563039Y-16956650D02*
X17543991Y-16928079D01*
X17543991Y-16928079D02*
X17534468Y-16909031D01*
X17534468Y-16909031D02*
X17524944Y-16880460D01*
X17524944Y-16880460D02*
X17515420Y-16832841D01*
X17515420Y-16832841D02*
X17515420Y-16794746D01*
X17515420Y-16794746D02*
X17524944Y-16747127D01*
X17524944Y-16747127D02*
X17534468Y-16718555D01*
X17534468Y-16718555D02*
X17543991Y-16699508D01*
X17543991Y-16699508D02*
X17563039Y-16670936D01*
X17563039Y-16670936D02*
X17572563Y-16661412D01*
X17753515Y-16889984D02*
X17639230Y-16889984D01*
X17696372Y-16889984D02*
X17696372Y-16689984D01*
X17696372Y-16689984D02*
X17677325Y-16718555D01*
X17677325Y-16718555D02*
X17658277Y-16737603D01*
X17658277Y-16737603D02*
X17639230Y-16747127D01*
X17829706Y-16709031D02*
X17839230Y-16699508D01*
X17839230Y-16699508D02*
X17858277Y-16689984D01*
X17858277Y-16689984D02*
X17905896Y-16689984D01*
X17905896Y-16689984D02*
X17924944Y-16699508D01*
X17924944Y-16699508D02*
X17934468Y-16709031D01*
X17934468Y-16709031D02*
X17943991Y-16728079D01*
X17943991Y-16728079D02*
X17943991Y-16747127D01*
X17943991Y-16747127D02*
X17934468Y-16775698D01*
X17934468Y-16775698D02*
X17820182Y-16889984D01*
X17820182Y-16889984D02*
X17943991Y-16889984D01*
X18010658Y-16689984D02*
X18143991Y-16689984D01*
X18143991Y-16689984D02*
X18058277Y-16889984D01*
X18372563Y-16889984D02*
X18372563Y-16689984D01*
X18458277Y-16889984D02*
X18458277Y-16785222D01*
X18458277Y-16785222D02*
X18448753Y-16766174D01*
X18448753Y-16766174D02*
X18429706Y-16756650D01*
X18429706Y-16756650D02*
X18401134Y-16756650D01*
X18401134Y-16756650D02*
X18382087Y-16766174D01*
X18382087Y-16766174D02*
X18372563Y-16775698D01*
X18582087Y-16889984D02*
X18563039Y-16880460D01*
X18563039Y-16880460D02*
X18553515Y-16870936D01*
X18553515Y-16870936D02*
X18543992Y-16851889D01*
X18543992Y-16851889D02*
X18543992Y-16794746D01*
X18543992Y-16794746D02*
X18553515Y-16775698D01*
X18553515Y-16775698D02*
X18563039Y-16766174D01*
X18563039Y-16766174D02*
X18582087Y-16756650D01*
X18582087Y-16756650D02*
X18610658Y-16756650D01*
X18610658Y-16756650D02*
X18629706Y-16766174D01*
X18629706Y-16766174D02*
X18639230Y-16775698D01*
X18639230Y-16775698D02*
X18648753Y-16794746D01*
X18648753Y-16794746D02*
X18648753Y-16851889D01*
X18648753Y-16851889D02*
X18639230Y-16870936D01*
X18639230Y-16870936D02*
X18629706Y-16880460D01*
X18629706Y-16880460D02*
X18610658Y-16889984D01*
X18610658Y-16889984D02*
X18582087Y-16889984D01*
X18763039Y-16889984D02*
X18743992Y-16880460D01*
X18743992Y-16880460D02*
X18734468Y-16861412D01*
X18734468Y-16861412D02*
X18734468Y-16689984D01*
X18915420Y-16880460D02*
X18896373Y-16889984D01*
X18896373Y-16889984D02*
X18858277Y-16889984D01*
X18858277Y-16889984D02*
X18839230Y-16880460D01*
X18839230Y-16880460D02*
X18829706Y-16861412D01*
X18829706Y-16861412D02*
X18829706Y-16785222D01*
X18829706Y-16785222D02*
X18839230Y-16766174D01*
X18839230Y-16766174D02*
X18858277Y-16756650D01*
X18858277Y-16756650D02*
X18896373Y-16756650D01*
X18896373Y-16756650D02*
X18915420Y-16766174D01*
X18915420Y-16766174D02*
X18924944Y-16785222D01*
X18924944Y-16785222D02*
X18924944Y-16804270D01*
X18924944Y-16804270D02*
X18829706Y-16823317D01*
X19001134Y-16880460D02*
X19020182Y-16889984D01*
X19020182Y-16889984D02*
X19058277Y-16889984D01*
X19058277Y-16889984D02*
X19077325Y-16880460D01*
X19077325Y-16880460D02*
X19086849Y-16861412D01*
X19086849Y-16861412D02*
X19086849Y-16851889D01*
X19086849Y-16851889D02*
X19077325Y-16832841D01*
X19077325Y-16832841D02*
X19058277Y-16823317D01*
X19058277Y-16823317D02*
X19029706Y-16823317D01*
X19029706Y-16823317D02*
X19010658Y-16813793D01*
X19010658Y-16813793D02*
X19001134Y-16794746D01*
X19001134Y-16794746D02*
X19001134Y-16785222D01*
X19001134Y-16785222D02*
X19010658Y-16766174D01*
X19010658Y-16766174D02*
X19029706Y-16756650D01*
X19029706Y-16756650D02*
X19058277Y-16756650D01*
X19058277Y-16756650D02*
X19077325Y-16766174D01*
X19153515Y-16966174D02*
X19163039Y-16956650D01*
X19163039Y-16956650D02*
X19182087Y-16928079D01*
X19182087Y-16928079D02*
X19191611Y-16909031D01*
X19191611Y-16909031D02*
X19201134Y-16880460D01*
X19201134Y-16880460D02*
X19210658Y-16832841D01*
X19210658Y-16832841D02*
X19210658Y-16794746D01*
X19210658Y-16794746D02*
X19201134Y-16747127D01*
X19201134Y-16747127D02*
X19191611Y-16718555D01*
X19191611Y-16718555D02*
X19182087Y-16699508D01*
X19182087Y-16699508D02*
X19163039Y-16670936D01*
X19163039Y-16670936D02*
X19153515Y-16661412D01*
D12*
X13907500Y-17017500D02*
X13997500Y-17107500D01*
X13997500Y-17017500D02*
X13907500Y-17107500D01*
X13997500Y-17062500D02*
G75*
G02*
X13907500Y-17062500I-45000J0D01*
G01*
X13907500Y-17062500D02*
G75*
G02*
X13997500Y-17062500I45000J0D01*
G01*
D11*
X14296372Y-16953984D02*
X14315420Y-16953984D01*
X14315420Y-16953984D02*
X14334467Y-16963508D01*
X14334467Y-16963508D02*
X14343991Y-16973031D01*
X14343991Y-16973031D02*
X14353515Y-16992079D01*
X14353515Y-16992079D02*
X14363039Y-17030174D01*
X14363039Y-17030174D02*
X14363039Y-17077793D01*
X14363039Y-17077793D02*
X14353515Y-17115889D01*
X14353515Y-17115889D02*
X14343991Y-17134936D01*
X14343991Y-17134936D02*
X14334467Y-17144460D01*
X14334467Y-17144460D02*
X14315420Y-17153984D01*
X14315420Y-17153984D02*
X14296372Y-17153984D01*
X14296372Y-17153984D02*
X14277324Y-17144460D01*
X14277324Y-17144460D02*
X14267801Y-17134936D01*
X14267801Y-17134936D02*
X14258277Y-17115889D01*
X14258277Y-17115889D02*
X14248753Y-17077793D01*
X14248753Y-17077793D02*
X14248753Y-17030174D01*
X14248753Y-17030174D02*
X14258277Y-16992079D01*
X14258277Y-16992079D02*
X14267801Y-16973031D01*
X14267801Y-16973031D02*
X14277324Y-16963508D01*
X14277324Y-16963508D02*
X14296372Y-16953984D01*
X14448753Y-17134936D02*
X14458277Y-17144460D01*
X14458277Y-17144460D02*
X14448753Y-17153984D01*
X14448753Y-17153984D02*
X14439229Y-17144460D01*
X14439229Y-17144460D02*
X14448753Y-17134936D01*
X14448753Y-17134936D02*
X14448753Y-17153984D01*
X14553515Y-17153984D02*
X14591610Y-17153984D01*
X14591610Y-17153984D02*
X14610658Y-17144460D01*
X14610658Y-17144460D02*
X14620182Y-17134936D01*
X14620182Y-17134936D02*
X14639229Y-17106365D01*
X14639229Y-17106365D02*
X14648753Y-17068270D01*
X14648753Y-17068270D02*
X14648753Y-16992079D01*
X14648753Y-16992079D02*
X14639229Y-16973031D01*
X14639229Y-16973031D02*
X14629705Y-16963508D01*
X14629705Y-16963508D02*
X14610658Y-16953984D01*
X14610658Y-16953984D02*
X14572562Y-16953984D01*
X14572562Y-16953984D02*
X14553515Y-16963508D01*
X14553515Y-16963508D02*
X14543991Y-16973031D01*
X14543991Y-16973031D02*
X14534467Y-16992079D01*
X14534467Y-16992079D02*
X14534467Y-17039698D01*
X14534467Y-17039698D02*
X14543991Y-17058746D01*
X14543991Y-17058746D02*
X14553515Y-17068270D01*
X14553515Y-17068270D02*
X14572562Y-17077793D01*
X14572562Y-17077793D02*
X14610658Y-17077793D01*
X14610658Y-17077793D02*
X14629705Y-17068270D01*
X14629705Y-17068270D02*
X14639229Y-17058746D01*
X14639229Y-17058746D02*
X14648753Y-17039698D01*
X14772562Y-16953984D02*
X14791610Y-16953984D01*
X14791610Y-16953984D02*
X14810658Y-16963508D01*
X14810658Y-16963508D02*
X14820182Y-16973031D01*
X14820182Y-16973031D02*
X14829705Y-16992079D01*
X14829705Y-16992079D02*
X14839229Y-17030174D01*
X14839229Y-17030174D02*
X14839229Y-17077793D01*
X14839229Y-17077793D02*
X14829705Y-17115889D01*
X14829705Y-17115889D02*
X14820182Y-17134936D01*
X14820182Y-17134936D02*
X14810658Y-17144460D01*
X14810658Y-17144460D02*
X14791610Y-17153984D01*
X14791610Y-17153984D02*
X14772562Y-17153984D01*
X14772562Y-17153984D02*
X14753515Y-17144460D01*
X14753515Y-17144460D02*
X14743991Y-17134936D01*
X14743991Y-17134936D02*
X14734467Y-17115889D01*
X14734467Y-17115889D02*
X14724943Y-17077793D01*
X14724943Y-17077793D02*
X14724943Y-17030174D01*
X14724943Y-17030174D02*
X14734467Y-16992079D01*
X14734467Y-16992079D02*
X14743991Y-16973031D01*
X14743991Y-16973031D02*
X14753515Y-16963508D01*
X14753515Y-16963508D02*
X14772562Y-16953984D01*
X14963039Y-16953984D02*
X14982086Y-16953984D01*
X14982086Y-16953984D02*
X15001134Y-16963508D01*
X15001134Y-16963508D02*
X15010658Y-16973031D01*
X15010658Y-16973031D02*
X15020182Y-16992079D01*
X15020182Y-16992079D02*
X15029705Y-17030174D01*
X15029705Y-17030174D02*
X15029705Y-17077793D01*
X15029705Y-17077793D02*
X15020182Y-17115889D01*
X15020182Y-17115889D02*
X15010658Y-17134936D01*
X15010658Y-17134936D02*
X15001134Y-17144460D01*
X15001134Y-17144460D02*
X14982086Y-17153984D01*
X14982086Y-17153984D02*
X14963039Y-17153984D01*
X14963039Y-17153984D02*
X14943991Y-17144460D01*
X14943991Y-17144460D02*
X14934467Y-17134936D01*
X14934467Y-17134936D02*
X14924943Y-17115889D01*
X14924943Y-17115889D02*
X14915420Y-17077793D01*
X14915420Y-17077793D02*
X14915420Y-17030174D01*
X14915420Y-17030174D02*
X14924943Y-16992079D01*
X14924943Y-16992079D02*
X14934467Y-16973031D01*
X14934467Y-16973031D02*
X14943991Y-16963508D01*
X14943991Y-16963508D02*
X14963039Y-16953984D01*
X15115420Y-17153984D02*
X15115420Y-17020650D01*
X15115420Y-17039698D02*
X15124943Y-17030174D01*
X15124943Y-17030174D02*
X15143991Y-17020650D01*
X15143991Y-17020650D02*
X15172563Y-17020650D01*
X15172563Y-17020650D02*
X15191610Y-17030174D01*
X15191610Y-17030174D02*
X15201134Y-17049222D01*
X15201134Y-17049222D02*
X15201134Y-17153984D01*
X15201134Y-17049222D02*
X15210658Y-17030174D01*
X15210658Y-17030174D02*
X15229705Y-17020650D01*
X15229705Y-17020650D02*
X15258277Y-17020650D01*
X15258277Y-17020650D02*
X15277324Y-17030174D01*
X15277324Y-17030174D02*
X15286848Y-17049222D01*
X15286848Y-17049222D02*
X15286848Y-17153984D01*
X15382086Y-17153984D02*
X15382086Y-17020650D01*
X15382086Y-17039698D02*
X15391610Y-17030174D01*
X15391610Y-17030174D02*
X15410658Y-17020650D01*
X15410658Y-17020650D02*
X15439229Y-17020650D01*
X15439229Y-17020650D02*
X15458277Y-17030174D01*
X15458277Y-17030174D02*
X15467801Y-17049222D01*
X15467801Y-17049222D02*
X15467801Y-17153984D01*
X15467801Y-17049222D02*
X15477324Y-17030174D01*
X15477324Y-17030174D02*
X15496372Y-17020650D01*
X15496372Y-17020650D02*
X15524943Y-17020650D01*
X15524943Y-17020650D02*
X15543991Y-17030174D01*
X15543991Y-17030174D02*
X15553515Y-17049222D01*
X15553515Y-17049222D02*
X15553515Y-17153984D01*
X15943991Y-16944460D02*
X15772563Y-17201603D01*
X16201134Y-16953984D02*
X16220182Y-16953984D01*
X16220182Y-16953984D02*
X16239229Y-16963508D01*
X16239229Y-16963508D02*
X16248753Y-16973031D01*
X16248753Y-16973031D02*
X16258277Y-16992079D01*
X16258277Y-16992079D02*
X16267801Y-17030174D01*
X16267801Y-17030174D02*
X16267801Y-17077793D01*
X16267801Y-17077793D02*
X16258277Y-17115889D01*
X16258277Y-17115889D02*
X16248753Y-17134936D01*
X16248753Y-17134936D02*
X16239229Y-17144460D01*
X16239229Y-17144460D02*
X16220182Y-17153984D01*
X16220182Y-17153984D02*
X16201134Y-17153984D01*
X16201134Y-17153984D02*
X16182086Y-17144460D01*
X16182086Y-17144460D02*
X16172563Y-17134936D01*
X16172563Y-17134936D02*
X16163039Y-17115889D01*
X16163039Y-17115889D02*
X16153515Y-17077793D01*
X16153515Y-17077793D02*
X16153515Y-17030174D01*
X16153515Y-17030174D02*
X16163039Y-16992079D01*
X16163039Y-16992079D02*
X16172563Y-16973031D01*
X16172563Y-16973031D02*
X16182086Y-16963508D01*
X16182086Y-16963508D02*
X16201134Y-16953984D01*
X16353515Y-17134936D02*
X16363039Y-17144460D01*
X16363039Y-17144460D02*
X16353515Y-17153984D01*
X16353515Y-17153984D02*
X16343991Y-17144460D01*
X16343991Y-17144460D02*
X16353515Y-17134936D01*
X16353515Y-17134936D02*
X16353515Y-17153984D01*
X16486848Y-16953984D02*
X16505896Y-16953984D01*
X16505896Y-16953984D02*
X16524944Y-16963508D01*
X16524944Y-16963508D02*
X16534467Y-16973031D01*
X16534467Y-16973031D02*
X16543991Y-16992079D01*
X16543991Y-16992079D02*
X16553515Y-17030174D01*
X16553515Y-17030174D02*
X16553515Y-17077793D01*
X16553515Y-17077793D02*
X16543991Y-17115889D01*
X16543991Y-17115889D02*
X16534467Y-17134936D01*
X16534467Y-17134936D02*
X16524944Y-17144460D01*
X16524944Y-17144460D02*
X16505896Y-17153984D01*
X16505896Y-17153984D02*
X16486848Y-17153984D01*
X16486848Y-17153984D02*
X16467801Y-17144460D01*
X16467801Y-17144460D02*
X16458277Y-17134936D01*
X16458277Y-17134936D02*
X16448753Y-17115889D01*
X16448753Y-17115889D02*
X16439229Y-17077793D01*
X16439229Y-17077793D02*
X16439229Y-17030174D01*
X16439229Y-17030174D02*
X16448753Y-16992079D01*
X16448753Y-16992079D02*
X16458277Y-16973031D01*
X16458277Y-16973031D02*
X16467801Y-16963508D01*
X16467801Y-16963508D02*
X16486848Y-16953984D01*
X16620182Y-16953984D02*
X16743991Y-16953984D01*
X16743991Y-16953984D02*
X16677325Y-17030174D01*
X16677325Y-17030174D02*
X16705896Y-17030174D01*
X16705896Y-17030174D02*
X16724944Y-17039698D01*
X16724944Y-17039698D02*
X16734467Y-17049222D01*
X16734467Y-17049222D02*
X16743991Y-17068270D01*
X16743991Y-17068270D02*
X16743991Y-17115889D01*
X16743991Y-17115889D02*
X16734467Y-17134936D01*
X16734467Y-17134936D02*
X16724944Y-17144460D01*
X16724944Y-17144460D02*
X16705896Y-17153984D01*
X16705896Y-17153984D02*
X16648753Y-17153984D01*
X16648753Y-17153984D02*
X16629706Y-17144460D01*
X16629706Y-17144460D02*
X16620182Y-17134936D01*
X16924944Y-16953984D02*
X16829706Y-16953984D01*
X16829706Y-16953984D02*
X16820182Y-17049222D01*
X16820182Y-17049222D02*
X16829706Y-17039698D01*
X16829706Y-17039698D02*
X16848753Y-17030174D01*
X16848753Y-17030174D02*
X16896372Y-17030174D01*
X16896372Y-17030174D02*
X16915420Y-17039698D01*
X16915420Y-17039698D02*
X16924944Y-17049222D01*
X16924944Y-17049222D02*
X16934468Y-17068270D01*
X16934468Y-17068270D02*
X16934468Y-17115889D01*
X16934468Y-17115889D02*
X16924944Y-17134936D01*
X16924944Y-17134936D02*
X16915420Y-17144460D01*
X16915420Y-17144460D02*
X16896372Y-17153984D01*
X16896372Y-17153984D02*
X16848753Y-17153984D01*
X16848753Y-17153984D02*
X16829706Y-17144460D01*
X16829706Y-17144460D02*
X16820182Y-17134936D01*
X17105896Y-17020650D02*
X17105896Y-17153984D01*
X17058277Y-16944460D02*
X17010658Y-17087317D01*
X17010658Y-17087317D02*
X17134468Y-17087317D01*
X17201134Y-16953984D02*
X17201134Y-16992079D01*
X17277325Y-16953984D02*
X17277325Y-16992079D01*
X17572563Y-17230174D02*
X17563039Y-17220650D01*
X17563039Y-17220650D02*
X17543991Y-17192079D01*
X17543991Y-17192079D02*
X17534468Y-17173031D01*
X17534468Y-17173031D02*
X17524944Y-17144460D01*
X17524944Y-17144460D02*
X17515420Y-17096841D01*
X17515420Y-17096841D02*
X17515420Y-17058746D01*
X17515420Y-17058746D02*
X17524944Y-17011127D01*
X17524944Y-17011127D02*
X17534468Y-16982555D01*
X17534468Y-16982555D02*
X17543991Y-16963508D01*
X17543991Y-16963508D02*
X17563039Y-16934936D01*
X17563039Y-16934936D02*
X17572563Y-16925412D01*
X17734468Y-16953984D02*
X17696372Y-16953984D01*
X17696372Y-16953984D02*
X17677325Y-16963508D01*
X17677325Y-16963508D02*
X17667801Y-16973031D01*
X17667801Y-16973031D02*
X17648753Y-17001603D01*
X17648753Y-17001603D02*
X17639230Y-17039698D01*
X17639230Y-17039698D02*
X17639230Y-17115889D01*
X17639230Y-17115889D02*
X17648753Y-17134936D01*
X17648753Y-17134936D02*
X17658277Y-17144460D01*
X17658277Y-17144460D02*
X17677325Y-17153984D01*
X17677325Y-17153984D02*
X17715420Y-17153984D01*
X17715420Y-17153984D02*
X17734468Y-17144460D01*
X17734468Y-17144460D02*
X17743991Y-17134936D01*
X17743991Y-17134936D02*
X17753515Y-17115889D01*
X17753515Y-17115889D02*
X17753515Y-17068270D01*
X17753515Y-17068270D02*
X17743991Y-17049222D01*
X17743991Y-17049222D02*
X17734468Y-17039698D01*
X17734468Y-17039698D02*
X17715420Y-17030174D01*
X17715420Y-17030174D02*
X17677325Y-17030174D01*
X17677325Y-17030174D02*
X17658277Y-17039698D01*
X17658277Y-17039698D02*
X17648753Y-17049222D01*
X17648753Y-17049222D02*
X17639230Y-17068270D01*
X17991611Y-17153984D02*
X17991611Y-16953984D01*
X18077325Y-17153984D02*
X18077325Y-17049222D01*
X18077325Y-17049222D02*
X18067801Y-17030174D01*
X18067801Y-17030174D02*
X18048753Y-17020650D01*
X18048753Y-17020650D02*
X18020182Y-17020650D01*
X18020182Y-17020650D02*
X18001134Y-17030174D01*
X18001134Y-17030174D02*
X17991611Y-17039698D01*
X18201134Y-17153984D02*
X18182087Y-17144460D01*
X18182087Y-17144460D02*
X18172563Y-17134936D01*
X18172563Y-17134936D02*
X18163039Y-17115889D01*
X18163039Y-17115889D02*
X18163039Y-17058746D01*
X18163039Y-17058746D02*
X18172563Y-17039698D01*
X18172563Y-17039698D02*
X18182087Y-17030174D01*
X18182087Y-17030174D02*
X18201134Y-17020650D01*
X18201134Y-17020650D02*
X18229706Y-17020650D01*
X18229706Y-17020650D02*
X18248753Y-17030174D01*
X18248753Y-17030174D02*
X18258277Y-17039698D01*
X18258277Y-17039698D02*
X18267801Y-17058746D01*
X18267801Y-17058746D02*
X18267801Y-17115889D01*
X18267801Y-17115889D02*
X18258277Y-17134936D01*
X18258277Y-17134936D02*
X18248753Y-17144460D01*
X18248753Y-17144460D02*
X18229706Y-17153984D01*
X18229706Y-17153984D02*
X18201134Y-17153984D01*
X18382087Y-17153984D02*
X18363039Y-17144460D01*
X18363039Y-17144460D02*
X18353515Y-17125412D01*
X18353515Y-17125412D02*
X18353515Y-16953984D01*
X18534468Y-17144460D02*
X18515420Y-17153984D01*
X18515420Y-17153984D02*
X18477325Y-17153984D01*
X18477325Y-17153984D02*
X18458277Y-17144460D01*
X18458277Y-17144460D02*
X18448753Y-17125412D01*
X18448753Y-17125412D02*
X18448753Y-17049222D01*
X18448753Y-17049222D02*
X18458277Y-17030174D01*
X18458277Y-17030174D02*
X18477325Y-17020650D01*
X18477325Y-17020650D02*
X18515420Y-17020650D01*
X18515420Y-17020650D02*
X18534468Y-17030174D01*
X18534468Y-17030174D02*
X18543992Y-17049222D01*
X18543992Y-17049222D02*
X18543992Y-17068270D01*
X18543992Y-17068270D02*
X18448753Y-17087317D01*
X18620182Y-17144460D02*
X18639230Y-17153984D01*
X18639230Y-17153984D02*
X18677325Y-17153984D01*
X18677325Y-17153984D02*
X18696373Y-17144460D01*
X18696373Y-17144460D02*
X18705896Y-17125412D01*
X18705896Y-17125412D02*
X18705896Y-17115889D01*
X18705896Y-17115889D02*
X18696373Y-17096841D01*
X18696373Y-17096841D02*
X18677325Y-17087317D01*
X18677325Y-17087317D02*
X18648753Y-17087317D01*
X18648753Y-17087317D02*
X18629706Y-17077793D01*
X18629706Y-17077793D02*
X18620182Y-17058746D01*
X18620182Y-17058746D02*
X18620182Y-17049222D01*
X18620182Y-17049222D02*
X18629706Y-17030174D01*
X18629706Y-17030174D02*
X18648753Y-17020650D01*
X18648753Y-17020650D02*
X18677325Y-17020650D01*
X18677325Y-17020650D02*
X18696373Y-17030174D01*
X18772563Y-17230174D02*
X18782087Y-17220650D01*
X18782087Y-17220650D02*
X18801134Y-17192079D01*
X18801134Y-17192079D02*
X18810658Y-17173031D01*
X18810658Y-17173031D02*
X18820182Y-17144460D01*
X18820182Y-17144460D02*
X18829706Y-17096841D01*
X18829706Y-17096841D02*
X18829706Y-17058746D01*
X18829706Y-17058746D02*
X18820182Y-17011127D01*
X18820182Y-17011127D02*
X18810658Y-16982555D01*
X18810658Y-16982555D02*
X18801134Y-16963508D01*
X18801134Y-16963508D02*
X18782087Y-16934936D01*
X18782087Y-16934936D02*
X18772563Y-16925412D01*
D12*
X13897500Y-17276500D02*
X13997500Y-17376500D01*
X13997500Y-17276500D02*
X13897500Y-17376500D01*
X13947500Y-17276500D02*
X13947500Y-17376500D01*
X13897500Y-17326500D02*
X13997500Y-17326500D01*
D11*
X14363039Y-17417984D02*
X14248753Y-17417984D01*
X14305896Y-17417984D02*
X14305896Y-17217984D01*
X14305896Y-17217984D02*
X14286848Y-17246555D01*
X14286848Y-17246555D02*
X14267801Y-17265603D01*
X14267801Y-17265603D02*
X14248753Y-17275127D01*
X14448753Y-17398936D02*
X14458277Y-17408460D01*
X14458277Y-17408460D02*
X14448753Y-17417984D01*
X14448753Y-17417984D02*
X14439229Y-17408460D01*
X14439229Y-17408460D02*
X14448753Y-17398936D01*
X14448753Y-17398936D02*
X14448753Y-17417984D01*
X14582086Y-17217984D02*
X14601134Y-17217984D01*
X14601134Y-17217984D02*
X14620182Y-17227508D01*
X14620182Y-17227508D02*
X14629705Y-17237031D01*
X14629705Y-17237031D02*
X14639229Y-17256079D01*
X14639229Y-17256079D02*
X14648753Y-17294174D01*
X14648753Y-17294174D02*
X14648753Y-17341793D01*
X14648753Y-17341793D02*
X14639229Y-17379889D01*
X14639229Y-17379889D02*
X14629705Y-17398936D01*
X14629705Y-17398936D02*
X14620182Y-17408460D01*
X14620182Y-17408460D02*
X14601134Y-17417984D01*
X14601134Y-17417984D02*
X14582086Y-17417984D01*
X14582086Y-17417984D02*
X14563039Y-17408460D01*
X14563039Y-17408460D02*
X14553515Y-17398936D01*
X14553515Y-17398936D02*
X14543991Y-17379889D01*
X14543991Y-17379889D02*
X14534467Y-17341793D01*
X14534467Y-17341793D02*
X14534467Y-17294174D01*
X14534467Y-17294174D02*
X14543991Y-17256079D01*
X14543991Y-17256079D02*
X14553515Y-17237031D01*
X14553515Y-17237031D02*
X14563039Y-17227508D01*
X14563039Y-17227508D02*
X14582086Y-17217984D01*
X14772562Y-17217984D02*
X14791610Y-17217984D01*
X14791610Y-17217984D02*
X14810658Y-17227508D01*
X14810658Y-17227508D02*
X14820182Y-17237031D01*
X14820182Y-17237031D02*
X14829705Y-17256079D01*
X14829705Y-17256079D02*
X14839229Y-17294174D01*
X14839229Y-17294174D02*
X14839229Y-17341793D01*
X14839229Y-17341793D02*
X14829705Y-17379889D01*
X14829705Y-17379889D02*
X14820182Y-17398936D01*
X14820182Y-17398936D02*
X14810658Y-17408460D01*
X14810658Y-17408460D02*
X14791610Y-17417984D01*
X14791610Y-17417984D02*
X14772562Y-17417984D01*
X14772562Y-17417984D02*
X14753515Y-17408460D01*
X14753515Y-17408460D02*
X14743991Y-17398936D01*
X14743991Y-17398936D02*
X14734467Y-17379889D01*
X14734467Y-17379889D02*
X14724943Y-17341793D01*
X14724943Y-17341793D02*
X14724943Y-17294174D01*
X14724943Y-17294174D02*
X14734467Y-17256079D01*
X14734467Y-17256079D02*
X14743991Y-17237031D01*
X14743991Y-17237031D02*
X14753515Y-17227508D01*
X14753515Y-17227508D02*
X14772562Y-17217984D01*
X14963039Y-17217984D02*
X14982086Y-17217984D01*
X14982086Y-17217984D02*
X15001134Y-17227508D01*
X15001134Y-17227508D02*
X15010658Y-17237031D01*
X15010658Y-17237031D02*
X15020182Y-17256079D01*
X15020182Y-17256079D02*
X15029705Y-17294174D01*
X15029705Y-17294174D02*
X15029705Y-17341793D01*
X15029705Y-17341793D02*
X15020182Y-17379889D01*
X15020182Y-17379889D02*
X15010658Y-17398936D01*
X15010658Y-17398936D02*
X15001134Y-17408460D01*
X15001134Y-17408460D02*
X14982086Y-17417984D01*
X14982086Y-17417984D02*
X14963039Y-17417984D01*
X14963039Y-17417984D02*
X14943991Y-17408460D01*
X14943991Y-17408460D02*
X14934467Y-17398936D01*
X14934467Y-17398936D02*
X14924943Y-17379889D01*
X14924943Y-17379889D02*
X14915420Y-17341793D01*
X14915420Y-17341793D02*
X14915420Y-17294174D01*
X14915420Y-17294174D02*
X14924943Y-17256079D01*
X14924943Y-17256079D02*
X14934467Y-17237031D01*
X14934467Y-17237031D02*
X14943991Y-17227508D01*
X14943991Y-17227508D02*
X14963039Y-17217984D01*
X15115420Y-17417984D02*
X15115420Y-17284650D01*
X15115420Y-17303698D02*
X15124943Y-17294174D01*
X15124943Y-17294174D02*
X15143991Y-17284650D01*
X15143991Y-17284650D02*
X15172563Y-17284650D01*
X15172563Y-17284650D02*
X15191610Y-17294174D01*
X15191610Y-17294174D02*
X15201134Y-17313222D01*
X15201134Y-17313222D02*
X15201134Y-17417984D01*
X15201134Y-17313222D02*
X15210658Y-17294174D01*
X15210658Y-17294174D02*
X15229705Y-17284650D01*
X15229705Y-17284650D02*
X15258277Y-17284650D01*
X15258277Y-17284650D02*
X15277324Y-17294174D01*
X15277324Y-17294174D02*
X15286848Y-17313222D01*
X15286848Y-17313222D02*
X15286848Y-17417984D01*
X15382086Y-17417984D02*
X15382086Y-17284650D01*
X15382086Y-17303698D02*
X15391610Y-17294174D01*
X15391610Y-17294174D02*
X15410658Y-17284650D01*
X15410658Y-17284650D02*
X15439229Y-17284650D01*
X15439229Y-17284650D02*
X15458277Y-17294174D01*
X15458277Y-17294174D02*
X15467801Y-17313222D01*
X15467801Y-17313222D02*
X15467801Y-17417984D01*
X15467801Y-17313222D02*
X15477324Y-17294174D01*
X15477324Y-17294174D02*
X15496372Y-17284650D01*
X15496372Y-17284650D02*
X15524943Y-17284650D01*
X15524943Y-17284650D02*
X15543991Y-17294174D01*
X15543991Y-17294174D02*
X15553515Y-17313222D01*
X15553515Y-17313222D02*
X15553515Y-17417984D01*
X15943991Y-17208460D02*
X15772563Y-17465603D01*
X16201134Y-17217984D02*
X16220182Y-17217984D01*
X16220182Y-17217984D02*
X16239229Y-17227508D01*
X16239229Y-17227508D02*
X16248753Y-17237031D01*
X16248753Y-17237031D02*
X16258277Y-17256079D01*
X16258277Y-17256079D02*
X16267801Y-17294174D01*
X16267801Y-17294174D02*
X16267801Y-17341793D01*
X16267801Y-17341793D02*
X16258277Y-17379889D01*
X16258277Y-17379889D02*
X16248753Y-17398936D01*
X16248753Y-17398936D02*
X16239229Y-17408460D01*
X16239229Y-17408460D02*
X16220182Y-17417984D01*
X16220182Y-17417984D02*
X16201134Y-17417984D01*
X16201134Y-17417984D02*
X16182086Y-17408460D01*
X16182086Y-17408460D02*
X16172563Y-17398936D01*
X16172563Y-17398936D02*
X16163039Y-17379889D01*
X16163039Y-17379889D02*
X16153515Y-17341793D01*
X16153515Y-17341793D02*
X16153515Y-17294174D01*
X16153515Y-17294174D02*
X16163039Y-17256079D01*
X16163039Y-17256079D02*
X16172563Y-17237031D01*
X16172563Y-17237031D02*
X16182086Y-17227508D01*
X16182086Y-17227508D02*
X16201134Y-17217984D01*
X16353515Y-17398936D02*
X16363039Y-17408460D01*
X16363039Y-17408460D02*
X16353515Y-17417984D01*
X16353515Y-17417984D02*
X16343991Y-17408460D01*
X16343991Y-17408460D02*
X16353515Y-17398936D01*
X16353515Y-17398936D02*
X16353515Y-17417984D01*
X16486848Y-17217984D02*
X16505896Y-17217984D01*
X16505896Y-17217984D02*
X16524944Y-17227508D01*
X16524944Y-17227508D02*
X16534467Y-17237031D01*
X16534467Y-17237031D02*
X16543991Y-17256079D01*
X16543991Y-17256079D02*
X16553515Y-17294174D01*
X16553515Y-17294174D02*
X16553515Y-17341793D01*
X16553515Y-17341793D02*
X16543991Y-17379889D01*
X16543991Y-17379889D02*
X16534467Y-17398936D01*
X16534467Y-17398936D02*
X16524944Y-17408460D01*
X16524944Y-17408460D02*
X16505896Y-17417984D01*
X16505896Y-17417984D02*
X16486848Y-17417984D01*
X16486848Y-17417984D02*
X16467801Y-17408460D01*
X16467801Y-17408460D02*
X16458277Y-17398936D01*
X16458277Y-17398936D02*
X16448753Y-17379889D01*
X16448753Y-17379889D02*
X16439229Y-17341793D01*
X16439229Y-17341793D02*
X16439229Y-17294174D01*
X16439229Y-17294174D02*
X16448753Y-17256079D01*
X16448753Y-17256079D02*
X16458277Y-17237031D01*
X16458277Y-17237031D02*
X16467801Y-17227508D01*
X16467801Y-17227508D02*
X16486848Y-17217984D01*
X16620182Y-17217984D02*
X16743991Y-17217984D01*
X16743991Y-17217984D02*
X16677325Y-17294174D01*
X16677325Y-17294174D02*
X16705896Y-17294174D01*
X16705896Y-17294174D02*
X16724944Y-17303698D01*
X16724944Y-17303698D02*
X16734467Y-17313222D01*
X16734467Y-17313222D02*
X16743991Y-17332270D01*
X16743991Y-17332270D02*
X16743991Y-17379889D01*
X16743991Y-17379889D02*
X16734467Y-17398936D01*
X16734467Y-17398936D02*
X16724944Y-17408460D01*
X16724944Y-17408460D02*
X16705896Y-17417984D01*
X16705896Y-17417984D02*
X16648753Y-17417984D01*
X16648753Y-17417984D02*
X16629706Y-17408460D01*
X16629706Y-17408460D02*
X16620182Y-17398936D01*
X16839229Y-17417984D02*
X16877325Y-17417984D01*
X16877325Y-17417984D02*
X16896372Y-17408460D01*
X16896372Y-17408460D02*
X16905896Y-17398936D01*
X16905896Y-17398936D02*
X16924944Y-17370365D01*
X16924944Y-17370365D02*
X16934468Y-17332270D01*
X16934468Y-17332270D02*
X16934468Y-17256079D01*
X16934468Y-17256079D02*
X16924944Y-17237031D01*
X16924944Y-17237031D02*
X16915420Y-17227508D01*
X16915420Y-17227508D02*
X16896372Y-17217984D01*
X16896372Y-17217984D02*
X16858277Y-17217984D01*
X16858277Y-17217984D02*
X16839229Y-17227508D01*
X16839229Y-17227508D02*
X16829706Y-17237031D01*
X16829706Y-17237031D02*
X16820182Y-17256079D01*
X16820182Y-17256079D02*
X16820182Y-17303698D01*
X16820182Y-17303698D02*
X16829706Y-17322746D01*
X16829706Y-17322746D02*
X16839229Y-17332270D01*
X16839229Y-17332270D02*
X16858277Y-17341793D01*
X16858277Y-17341793D02*
X16896372Y-17341793D01*
X16896372Y-17341793D02*
X16915420Y-17332270D01*
X16915420Y-17332270D02*
X16924944Y-17322746D01*
X16924944Y-17322746D02*
X16934468Y-17303698D01*
X17105896Y-17284650D02*
X17105896Y-17417984D01*
X17058277Y-17208460D02*
X17010658Y-17351317D01*
X17010658Y-17351317D02*
X17134468Y-17351317D01*
X17201134Y-17217984D02*
X17201134Y-17256079D01*
X17277325Y-17217984D02*
X17277325Y-17256079D01*
X17572563Y-17494174D02*
X17563039Y-17484650D01*
X17563039Y-17484650D02*
X17543991Y-17456079D01*
X17543991Y-17456079D02*
X17534468Y-17437031D01*
X17534468Y-17437031D02*
X17524944Y-17408460D01*
X17524944Y-17408460D02*
X17515420Y-17360841D01*
X17515420Y-17360841D02*
X17515420Y-17322746D01*
X17515420Y-17322746D02*
X17524944Y-17275127D01*
X17524944Y-17275127D02*
X17534468Y-17246555D01*
X17534468Y-17246555D02*
X17543991Y-17227508D01*
X17543991Y-17227508D02*
X17563039Y-17198936D01*
X17563039Y-17198936D02*
X17572563Y-17189412D01*
X17639230Y-17237031D02*
X17648753Y-17227508D01*
X17648753Y-17227508D02*
X17667801Y-17217984D01*
X17667801Y-17217984D02*
X17715420Y-17217984D01*
X17715420Y-17217984D02*
X17734468Y-17227508D01*
X17734468Y-17227508D02*
X17743991Y-17237031D01*
X17743991Y-17237031D02*
X17753515Y-17256079D01*
X17753515Y-17256079D02*
X17753515Y-17275127D01*
X17753515Y-17275127D02*
X17743991Y-17303698D01*
X17743991Y-17303698D02*
X17629706Y-17417984D01*
X17629706Y-17417984D02*
X17753515Y-17417984D01*
X17924944Y-17284650D02*
X17924944Y-17417984D01*
X17877325Y-17208460D02*
X17829706Y-17351317D01*
X17829706Y-17351317D02*
X17953515Y-17351317D01*
X18182087Y-17417984D02*
X18182087Y-17217984D01*
X18267801Y-17417984D02*
X18267801Y-17313222D01*
X18267801Y-17313222D02*
X18258277Y-17294174D01*
X18258277Y-17294174D02*
X18239230Y-17284650D01*
X18239230Y-17284650D02*
X18210658Y-17284650D01*
X18210658Y-17284650D02*
X18191611Y-17294174D01*
X18191611Y-17294174D02*
X18182087Y-17303698D01*
X18391611Y-17417984D02*
X18372563Y-17408460D01*
X18372563Y-17408460D02*
X18363039Y-17398936D01*
X18363039Y-17398936D02*
X18353515Y-17379889D01*
X18353515Y-17379889D02*
X18353515Y-17322746D01*
X18353515Y-17322746D02*
X18363039Y-17303698D01*
X18363039Y-17303698D02*
X18372563Y-17294174D01*
X18372563Y-17294174D02*
X18391611Y-17284650D01*
X18391611Y-17284650D02*
X18420182Y-17284650D01*
X18420182Y-17284650D02*
X18439230Y-17294174D01*
X18439230Y-17294174D02*
X18448753Y-17303698D01*
X18448753Y-17303698D02*
X18458277Y-17322746D01*
X18458277Y-17322746D02*
X18458277Y-17379889D01*
X18458277Y-17379889D02*
X18448753Y-17398936D01*
X18448753Y-17398936D02*
X18439230Y-17408460D01*
X18439230Y-17408460D02*
X18420182Y-17417984D01*
X18420182Y-17417984D02*
X18391611Y-17417984D01*
X18572563Y-17417984D02*
X18553515Y-17408460D01*
X18553515Y-17408460D02*
X18543992Y-17389412D01*
X18543992Y-17389412D02*
X18543992Y-17217984D01*
X18724944Y-17408460D02*
X18705896Y-17417984D01*
X18705896Y-17417984D02*
X18667801Y-17417984D01*
X18667801Y-17417984D02*
X18648753Y-17408460D01*
X18648753Y-17408460D02*
X18639230Y-17389412D01*
X18639230Y-17389412D02*
X18639230Y-17313222D01*
X18639230Y-17313222D02*
X18648753Y-17294174D01*
X18648753Y-17294174D02*
X18667801Y-17284650D01*
X18667801Y-17284650D02*
X18705896Y-17284650D01*
X18705896Y-17284650D02*
X18724944Y-17294174D01*
X18724944Y-17294174D02*
X18734468Y-17313222D01*
X18734468Y-17313222D02*
X18734468Y-17332270D01*
X18734468Y-17332270D02*
X18639230Y-17351317D01*
X18810658Y-17408460D02*
X18829706Y-17417984D01*
X18829706Y-17417984D02*
X18867801Y-17417984D01*
X18867801Y-17417984D02*
X18886849Y-17408460D01*
X18886849Y-17408460D02*
X18896373Y-17389412D01*
X18896373Y-17389412D02*
X18896373Y-17379889D01*
X18896373Y-17379889D02*
X18886849Y-17360841D01*
X18886849Y-17360841D02*
X18867801Y-17351317D01*
X18867801Y-17351317D02*
X18839230Y-17351317D01*
X18839230Y-17351317D02*
X18820182Y-17341793D01*
X18820182Y-17341793D02*
X18810658Y-17322746D01*
X18810658Y-17322746D02*
X18810658Y-17313222D01*
X18810658Y-17313222D02*
X18820182Y-17294174D01*
X18820182Y-17294174D02*
X18839230Y-17284650D01*
X18839230Y-17284650D02*
X18867801Y-17284650D01*
X18867801Y-17284650D02*
X18886849Y-17294174D01*
X18963039Y-17494174D02*
X18972563Y-17484650D01*
X18972563Y-17484650D02*
X18991611Y-17456079D01*
X18991611Y-17456079D02*
X19001134Y-17437031D01*
X19001134Y-17437031D02*
X19010658Y-17408460D01*
X19010658Y-17408460D02*
X19020182Y-17360841D01*
X19020182Y-17360841D02*
X19020182Y-17322746D01*
X19020182Y-17322746D02*
X19010658Y-17275127D01*
X19010658Y-17275127D02*
X19001134Y-17246555D01*
X19001134Y-17246555D02*
X18991611Y-17227508D01*
X18991611Y-17227508D02*
X18972563Y-17198936D01*
X18972563Y-17198936D02*
X18963039Y-17189412D01*
D13*
X13877500Y-17530500D02*
X13997500Y-17650500D01*
X13997500Y-17530500D02*
X13877500Y-17650500D01*
X13979927Y-17632927D02*
X13979927Y-17548073D01*
X13895073Y-17548073D01*
X13895073Y-17632927D01*
X13979927Y-17632927D01*
D11*
X14363039Y-17681984D02*
X14248753Y-17681984D01*
X14305896Y-17681984D02*
X14305896Y-17481984D01*
X14305896Y-17481984D02*
X14286848Y-17510555D01*
X14286848Y-17510555D02*
X14267801Y-17529603D01*
X14267801Y-17529603D02*
X14248753Y-17539127D01*
X14448753Y-17662936D02*
X14458277Y-17672460D01*
X14458277Y-17672460D02*
X14448753Y-17681984D01*
X14448753Y-17681984D02*
X14439229Y-17672460D01*
X14439229Y-17672460D02*
X14448753Y-17662936D01*
X14448753Y-17662936D02*
X14448753Y-17681984D01*
X14534467Y-17501031D02*
X14543991Y-17491508D01*
X14543991Y-17491508D02*
X14563039Y-17481984D01*
X14563039Y-17481984D02*
X14610658Y-17481984D01*
X14610658Y-17481984D02*
X14629705Y-17491508D01*
X14629705Y-17491508D02*
X14639229Y-17501031D01*
X14639229Y-17501031D02*
X14648753Y-17520079D01*
X14648753Y-17520079D02*
X14648753Y-17539127D01*
X14648753Y-17539127D02*
X14639229Y-17567698D01*
X14639229Y-17567698D02*
X14524943Y-17681984D01*
X14524943Y-17681984D02*
X14648753Y-17681984D01*
X14772562Y-17481984D02*
X14791610Y-17481984D01*
X14791610Y-17481984D02*
X14810658Y-17491508D01*
X14810658Y-17491508D02*
X14820182Y-17501031D01*
X14820182Y-17501031D02*
X14829705Y-17520079D01*
X14829705Y-17520079D02*
X14839229Y-17558174D01*
X14839229Y-17558174D02*
X14839229Y-17605793D01*
X14839229Y-17605793D02*
X14829705Y-17643889D01*
X14829705Y-17643889D02*
X14820182Y-17662936D01*
X14820182Y-17662936D02*
X14810658Y-17672460D01*
X14810658Y-17672460D02*
X14791610Y-17681984D01*
X14791610Y-17681984D02*
X14772562Y-17681984D01*
X14772562Y-17681984D02*
X14753515Y-17672460D01*
X14753515Y-17672460D02*
X14743991Y-17662936D01*
X14743991Y-17662936D02*
X14734467Y-17643889D01*
X14734467Y-17643889D02*
X14724943Y-17605793D01*
X14724943Y-17605793D02*
X14724943Y-17558174D01*
X14724943Y-17558174D02*
X14734467Y-17520079D01*
X14734467Y-17520079D02*
X14743991Y-17501031D01*
X14743991Y-17501031D02*
X14753515Y-17491508D01*
X14753515Y-17491508D02*
X14772562Y-17481984D01*
X14963039Y-17481984D02*
X14982086Y-17481984D01*
X14982086Y-17481984D02*
X15001134Y-17491508D01*
X15001134Y-17491508D02*
X15010658Y-17501031D01*
X15010658Y-17501031D02*
X15020182Y-17520079D01*
X15020182Y-17520079D02*
X15029705Y-17558174D01*
X15029705Y-17558174D02*
X15029705Y-17605793D01*
X15029705Y-17605793D02*
X15020182Y-17643889D01*
X15020182Y-17643889D02*
X15010658Y-17662936D01*
X15010658Y-17662936D02*
X15001134Y-17672460D01*
X15001134Y-17672460D02*
X14982086Y-17681984D01*
X14982086Y-17681984D02*
X14963039Y-17681984D01*
X14963039Y-17681984D02*
X14943991Y-17672460D01*
X14943991Y-17672460D02*
X14934467Y-17662936D01*
X14934467Y-17662936D02*
X14924943Y-17643889D01*
X14924943Y-17643889D02*
X14915420Y-17605793D01*
X14915420Y-17605793D02*
X14915420Y-17558174D01*
X14915420Y-17558174D02*
X14924943Y-17520079D01*
X14924943Y-17520079D02*
X14934467Y-17501031D01*
X14934467Y-17501031D02*
X14943991Y-17491508D01*
X14943991Y-17491508D02*
X14963039Y-17481984D01*
X15115420Y-17681984D02*
X15115420Y-17548650D01*
X15115420Y-17567698D02*
X15124943Y-17558174D01*
X15124943Y-17558174D02*
X15143991Y-17548650D01*
X15143991Y-17548650D02*
X15172563Y-17548650D01*
X15172563Y-17548650D02*
X15191610Y-17558174D01*
X15191610Y-17558174D02*
X15201134Y-17577222D01*
X15201134Y-17577222D02*
X15201134Y-17681984D01*
X15201134Y-17577222D02*
X15210658Y-17558174D01*
X15210658Y-17558174D02*
X15229705Y-17548650D01*
X15229705Y-17548650D02*
X15258277Y-17548650D01*
X15258277Y-17548650D02*
X15277324Y-17558174D01*
X15277324Y-17558174D02*
X15286848Y-17577222D01*
X15286848Y-17577222D02*
X15286848Y-17681984D01*
X15382086Y-17681984D02*
X15382086Y-17548650D01*
X15382086Y-17567698D02*
X15391610Y-17558174D01*
X15391610Y-17558174D02*
X15410658Y-17548650D01*
X15410658Y-17548650D02*
X15439229Y-17548650D01*
X15439229Y-17548650D02*
X15458277Y-17558174D01*
X15458277Y-17558174D02*
X15467801Y-17577222D01*
X15467801Y-17577222D02*
X15467801Y-17681984D01*
X15467801Y-17577222D02*
X15477324Y-17558174D01*
X15477324Y-17558174D02*
X15496372Y-17548650D01*
X15496372Y-17548650D02*
X15524943Y-17548650D01*
X15524943Y-17548650D02*
X15543991Y-17558174D01*
X15543991Y-17558174D02*
X15553515Y-17577222D01*
X15553515Y-17577222D02*
X15553515Y-17681984D01*
X15943991Y-17472460D02*
X15772563Y-17729603D01*
X16201134Y-17481984D02*
X16220182Y-17481984D01*
X16220182Y-17481984D02*
X16239229Y-17491508D01*
X16239229Y-17491508D02*
X16248753Y-17501031D01*
X16248753Y-17501031D02*
X16258277Y-17520079D01*
X16258277Y-17520079D02*
X16267801Y-17558174D01*
X16267801Y-17558174D02*
X16267801Y-17605793D01*
X16267801Y-17605793D02*
X16258277Y-17643889D01*
X16258277Y-17643889D02*
X16248753Y-17662936D01*
X16248753Y-17662936D02*
X16239229Y-17672460D01*
X16239229Y-17672460D02*
X16220182Y-17681984D01*
X16220182Y-17681984D02*
X16201134Y-17681984D01*
X16201134Y-17681984D02*
X16182086Y-17672460D01*
X16182086Y-17672460D02*
X16172563Y-17662936D01*
X16172563Y-17662936D02*
X16163039Y-17643889D01*
X16163039Y-17643889D02*
X16153515Y-17605793D01*
X16153515Y-17605793D02*
X16153515Y-17558174D01*
X16153515Y-17558174D02*
X16163039Y-17520079D01*
X16163039Y-17520079D02*
X16172563Y-17501031D01*
X16172563Y-17501031D02*
X16182086Y-17491508D01*
X16182086Y-17491508D02*
X16201134Y-17481984D01*
X16353515Y-17662936D02*
X16363039Y-17672460D01*
X16363039Y-17672460D02*
X16353515Y-17681984D01*
X16353515Y-17681984D02*
X16343991Y-17672460D01*
X16343991Y-17672460D02*
X16353515Y-17662936D01*
X16353515Y-17662936D02*
X16353515Y-17681984D01*
X16486848Y-17481984D02*
X16505896Y-17481984D01*
X16505896Y-17481984D02*
X16524944Y-17491508D01*
X16524944Y-17491508D02*
X16534467Y-17501031D01*
X16534467Y-17501031D02*
X16543991Y-17520079D01*
X16543991Y-17520079D02*
X16553515Y-17558174D01*
X16553515Y-17558174D02*
X16553515Y-17605793D01*
X16553515Y-17605793D02*
X16543991Y-17643889D01*
X16543991Y-17643889D02*
X16534467Y-17662936D01*
X16534467Y-17662936D02*
X16524944Y-17672460D01*
X16524944Y-17672460D02*
X16505896Y-17681984D01*
X16505896Y-17681984D02*
X16486848Y-17681984D01*
X16486848Y-17681984D02*
X16467801Y-17672460D01*
X16467801Y-17672460D02*
X16458277Y-17662936D01*
X16458277Y-17662936D02*
X16448753Y-17643889D01*
X16448753Y-17643889D02*
X16439229Y-17605793D01*
X16439229Y-17605793D02*
X16439229Y-17558174D01*
X16439229Y-17558174D02*
X16448753Y-17520079D01*
X16448753Y-17520079D02*
X16458277Y-17501031D01*
X16458277Y-17501031D02*
X16467801Y-17491508D01*
X16467801Y-17491508D02*
X16486848Y-17481984D01*
X16724944Y-17548650D02*
X16724944Y-17681984D01*
X16677325Y-17472460D02*
X16629706Y-17615317D01*
X16629706Y-17615317D02*
X16753515Y-17615317D01*
X16810658Y-17481984D02*
X16943991Y-17481984D01*
X16943991Y-17481984D02*
X16858277Y-17681984D01*
X17010658Y-17501031D02*
X17020182Y-17491508D01*
X17020182Y-17491508D02*
X17039229Y-17481984D01*
X17039229Y-17481984D02*
X17086849Y-17481984D01*
X17086849Y-17481984D02*
X17105896Y-17491508D01*
X17105896Y-17491508D02*
X17115420Y-17501031D01*
X17115420Y-17501031D02*
X17124944Y-17520079D01*
X17124944Y-17520079D02*
X17124944Y-17539127D01*
X17124944Y-17539127D02*
X17115420Y-17567698D01*
X17115420Y-17567698D02*
X17001134Y-17681984D01*
X17001134Y-17681984D02*
X17124944Y-17681984D01*
X17201134Y-17481984D02*
X17201134Y-17520079D01*
X17277325Y-17481984D02*
X17277325Y-17520079D01*
X17572563Y-17758174D02*
X17563039Y-17748650D01*
X17563039Y-17748650D02*
X17543991Y-17720079D01*
X17543991Y-17720079D02*
X17534468Y-17701031D01*
X17534468Y-17701031D02*
X17524944Y-17672460D01*
X17524944Y-17672460D02*
X17515420Y-17624841D01*
X17515420Y-17624841D02*
X17515420Y-17586746D01*
X17515420Y-17586746D02*
X17524944Y-17539127D01*
X17524944Y-17539127D02*
X17534468Y-17510555D01*
X17534468Y-17510555D02*
X17543991Y-17491508D01*
X17543991Y-17491508D02*
X17563039Y-17462936D01*
X17563039Y-17462936D02*
X17572563Y-17453412D01*
X17639230Y-17501031D02*
X17648753Y-17491508D01*
X17648753Y-17491508D02*
X17667801Y-17481984D01*
X17667801Y-17481984D02*
X17715420Y-17481984D01*
X17715420Y-17481984D02*
X17734468Y-17491508D01*
X17734468Y-17491508D02*
X17743991Y-17501031D01*
X17743991Y-17501031D02*
X17753515Y-17520079D01*
X17753515Y-17520079D02*
X17753515Y-17539127D01*
X17753515Y-17539127D02*
X17743991Y-17567698D01*
X17743991Y-17567698D02*
X17629706Y-17681984D01*
X17629706Y-17681984D02*
X17753515Y-17681984D01*
X17924944Y-17548650D02*
X17924944Y-17681984D01*
X17877325Y-17472460D02*
X17829706Y-17615317D01*
X17829706Y-17615317D02*
X17953515Y-17615317D01*
X18182087Y-17681984D02*
X18182087Y-17481984D01*
X18267801Y-17681984D02*
X18267801Y-17577222D01*
X18267801Y-17577222D02*
X18258277Y-17558174D01*
X18258277Y-17558174D02*
X18239230Y-17548650D01*
X18239230Y-17548650D02*
X18210658Y-17548650D01*
X18210658Y-17548650D02*
X18191611Y-17558174D01*
X18191611Y-17558174D02*
X18182087Y-17567698D01*
X18391611Y-17681984D02*
X18372563Y-17672460D01*
X18372563Y-17672460D02*
X18363039Y-17662936D01*
X18363039Y-17662936D02*
X18353515Y-17643889D01*
X18353515Y-17643889D02*
X18353515Y-17586746D01*
X18353515Y-17586746D02*
X18363039Y-17567698D01*
X18363039Y-17567698D02*
X18372563Y-17558174D01*
X18372563Y-17558174D02*
X18391611Y-17548650D01*
X18391611Y-17548650D02*
X18420182Y-17548650D01*
X18420182Y-17548650D02*
X18439230Y-17558174D01*
X18439230Y-17558174D02*
X18448753Y-17567698D01*
X18448753Y-17567698D02*
X18458277Y-17586746D01*
X18458277Y-17586746D02*
X18458277Y-17643889D01*
X18458277Y-17643889D02*
X18448753Y-17662936D01*
X18448753Y-17662936D02*
X18439230Y-17672460D01*
X18439230Y-17672460D02*
X18420182Y-17681984D01*
X18420182Y-17681984D02*
X18391611Y-17681984D01*
X18572563Y-17681984D02*
X18553515Y-17672460D01*
X18553515Y-17672460D02*
X18543992Y-17653412D01*
X18543992Y-17653412D02*
X18543992Y-17481984D01*
X18724944Y-17672460D02*
X18705896Y-17681984D01*
X18705896Y-17681984D02*
X18667801Y-17681984D01*
X18667801Y-17681984D02*
X18648753Y-17672460D01*
X18648753Y-17672460D02*
X18639230Y-17653412D01*
X18639230Y-17653412D02*
X18639230Y-17577222D01*
X18639230Y-17577222D02*
X18648753Y-17558174D01*
X18648753Y-17558174D02*
X18667801Y-17548650D01*
X18667801Y-17548650D02*
X18705896Y-17548650D01*
X18705896Y-17548650D02*
X18724944Y-17558174D01*
X18724944Y-17558174D02*
X18734468Y-17577222D01*
X18734468Y-17577222D02*
X18734468Y-17596270D01*
X18734468Y-17596270D02*
X18639230Y-17615317D01*
X18810658Y-17672460D02*
X18829706Y-17681984D01*
X18829706Y-17681984D02*
X18867801Y-17681984D01*
X18867801Y-17681984D02*
X18886849Y-17672460D01*
X18886849Y-17672460D02*
X18896373Y-17653412D01*
X18896373Y-17653412D02*
X18896373Y-17643889D01*
X18896373Y-17643889D02*
X18886849Y-17624841D01*
X18886849Y-17624841D02*
X18867801Y-17615317D01*
X18867801Y-17615317D02*
X18839230Y-17615317D01*
X18839230Y-17615317D02*
X18820182Y-17605793D01*
X18820182Y-17605793D02*
X18810658Y-17586746D01*
X18810658Y-17586746D02*
X18810658Y-17577222D01*
X18810658Y-17577222D02*
X18820182Y-17558174D01*
X18820182Y-17558174D02*
X18839230Y-17548650D01*
X18839230Y-17548650D02*
X18867801Y-17548650D01*
X18867801Y-17548650D02*
X18886849Y-17558174D01*
X18963039Y-17758174D02*
X18972563Y-17748650D01*
X18972563Y-17748650D02*
X18991611Y-17720079D01*
X18991611Y-17720079D02*
X19001134Y-17701031D01*
X19001134Y-17701031D02*
X19010658Y-17672460D01*
X19010658Y-17672460D02*
X19020182Y-17624841D01*
X19020182Y-17624841D02*
X19020182Y-17586746D01*
X19020182Y-17586746D02*
X19010658Y-17539127D01*
X19010658Y-17539127D02*
X19001134Y-17510555D01*
X19001134Y-17510555D02*
X18991611Y-17491508D01*
X18991611Y-17491508D02*
X18972563Y-17462936D01*
X18972563Y-17462936D02*
X18963039Y-17453412D01*
D14*
X13847500Y-17779500D02*
X13997500Y-17929500D01*
X13997500Y-17779500D02*
X13847500Y-17929500D01*
X13922500Y-17929500D02*
X13997500Y-17854500D01*
X13922500Y-17779500D01*
X13847500Y-17854500D01*
X13922500Y-17929500D01*
D11*
X14363039Y-17945984D02*
X14248753Y-17945984D01*
X14305896Y-17945984D02*
X14305896Y-17745984D01*
X14305896Y-17745984D02*
X14286848Y-17774555D01*
X14286848Y-17774555D02*
X14267801Y-17793603D01*
X14267801Y-17793603D02*
X14248753Y-17803127D01*
X14448753Y-17926936D02*
X14458277Y-17936460D01*
X14458277Y-17936460D02*
X14448753Y-17945984D01*
X14448753Y-17945984D02*
X14439229Y-17936460D01*
X14439229Y-17936460D02*
X14448753Y-17926936D01*
X14448753Y-17926936D02*
X14448753Y-17945984D01*
X14639229Y-17745984D02*
X14543991Y-17745984D01*
X14543991Y-17745984D02*
X14534467Y-17841222D01*
X14534467Y-17841222D02*
X14543991Y-17831698D01*
X14543991Y-17831698D02*
X14563039Y-17822174D01*
X14563039Y-17822174D02*
X14610658Y-17822174D01*
X14610658Y-17822174D02*
X14629705Y-17831698D01*
X14629705Y-17831698D02*
X14639229Y-17841222D01*
X14639229Y-17841222D02*
X14648753Y-17860270D01*
X14648753Y-17860270D02*
X14648753Y-17907889D01*
X14648753Y-17907889D02*
X14639229Y-17926936D01*
X14639229Y-17926936D02*
X14629705Y-17936460D01*
X14629705Y-17936460D02*
X14610658Y-17945984D01*
X14610658Y-17945984D02*
X14563039Y-17945984D01*
X14563039Y-17945984D02*
X14543991Y-17936460D01*
X14543991Y-17936460D02*
X14534467Y-17926936D01*
X14772562Y-17745984D02*
X14791610Y-17745984D01*
X14791610Y-17745984D02*
X14810658Y-17755508D01*
X14810658Y-17755508D02*
X14820182Y-17765031D01*
X14820182Y-17765031D02*
X14829705Y-17784079D01*
X14829705Y-17784079D02*
X14839229Y-17822174D01*
X14839229Y-17822174D02*
X14839229Y-17869793D01*
X14839229Y-17869793D02*
X14829705Y-17907889D01*
X14829705Y-17907889D02*
X14820182Y-17926936D01*
X14820182Y-17926936D02*
X14810658Y-17936460D01*
X14810658Y-17936460D02*
X14791610Y-17945984D01*
X14791610Y-17945984D02*
X14772562Y-17945984D01*
X14772562Y-17945984D02*
X14753515Y-17936460D01*
X14753515Y-17936460D02*
X14743991Y-17926936D01*
X14743991Y-17926936D02*
X14734467Y-17907889D01*
X14734467Y-17907889D02*
X14724943Y-17869793D01*
X14724943Y-17869793D02*
X14724943Y-17822174D01*
X14724943Y-17822174D02*
X14734467Y-17784079D01*
X14734467Y-17784079D02*
X14743991Y-17765031D01*
X14743991Y-17765031D02*
X14753515Y-17755508D01*
X14753515Y-17755508D02*
X14772562Y-17745984D01*
X14963039Y-17745984D02*
X14982086Y-17745984D01*
X14982086Y-17745984D02*
X15001134Y-17755508D01*
X15001134Y-17755508D02*
X15010658Y-17765031D01*
X15010658Y-17765031D02*
X15020182Y-17784079D01*
X15020182Y-17784079D02*
X15029705Y-17822174D01*
X15029705Y-17822174D02*
X15029705Y-17869793D01*
X15029705Y-17869793D02*
X15020182Y-17907889D01*
X15020182Y-17907889D02*
X15010658Y-17926936D01*
X15010658Y-17926936D02*
X15001134Y-17936460D01*
X15001134Y-17936460D02*
X14982086Y-17945984D01*
X14982086Y-17945984D02*
X14963039Y-17945984D01*
X14963039Y-17945984D02*
X14943991Y-17936460D01*
X14943991Y-17936460D02*
X14934467Y-17926936D01*
X14934467Y-17926936D02*
X14924943Y-17907889D01*
X14924943Y-17907889D02*
X14915420Y-17869793D01*
X14915420Y-17869793D02*
X14915420Y-17822174D01*
X14915420Y-17822174D02*
X14924943Y-17784079D01*
X14924943Y-17784079D02*
X14934467Y-17765031D01*
X14934467Y-17765031D02*
X14943991Y-17755508D01*
X14943991Y-17755508D02*
X14963039Y-17745984D01*
X15115420Y-17945984D02*
X15115420Y-17812650D01*
X15115420Y-17831698D02*
X15124943Y-17822174D01*
X15124943Y-17822174D02*
X15143991Y-17812650D01*
X15143991Y-17812650D02*
X15172563Y-17812650D01*
X15172563Y-17812650D02*
X15191610Y-17822174D01*
X15191610Y-17822174D02*
X15201134Y-17841222D01*
X15201134Y-17841222D02*
X15201134Y-17945984D01*
X15201134Y-17841222D02*
X15210658Y-17822174D01*
X15210658Y-17822174D02*
X15229705Y-17812650D01*
X15229705Y-17812650D02*
X15258277Y-17812650D01*
X15258277Y-17812650D02*
X15277324Y-17822174D01*
X15277324Y-17822174D02*
X15286848Y-17841222D01*
X15286848Y-17841222D02*
X15286848Y-17945984D01*
X15382086Y-17945984D02*
X15382086Y-17812650D01*
X15382086Y-17831698D02*
X15391610Y-17822174D01*
X15391610Y-17822174D02*
X15410658Y-17812650D01*
X15410658Y-17812650D02*
X15439229Y-17812650D01*
X15439229Y-17812650D02*
X15458277Y-17822174D01*
X15458277Y-17822174D02*
X15467801Y-17841222D01*
X15467801Y-17841222D02*
X15467801Y-17945984D01*
X15467801Y-17841222D02*
X15477324Y-17822174D01*
X15477324Y-17822174D02*
X15496372Y-17812650D01*
X15496372Y-17812650D02*
X15524943Y-17812650D01*
X15524943Y-17812650D02*
X15543991Y-17822174D01*
X15543991Y-17822174D02*
X15553515Y-17841222D01*
X15553515Y-17841222D02*
X15553515Y-17945984D01*
X15943991Y-17736460D02*
X15772563Y-17993603D01*
X16201134Y-17745984D02*
X16220182Y-17745984D01*
X16220182Y-17745984D02*
X16239229Y-17755508D01*
X16239229Y-17755508D02*
X16248753Y-17765031D01*
X16248753Y-17765031D02*
X16258277Y-17784079D01*
X16258277Y-17784079D02*
X16267801Y-17822174D01*
X16267801Y-17822174D02*
X16267801Y-17869793D01*
X16267801Y-17869793D02*
X16258277Y-17907889D01*
X16258277Y-17907889D02*
X16248753Y-17926936D01*
X16248753Y-17926936D02*
X16239229Y-17936460D01*
X16239229Y-17936460D02*
X16220182Y-17945984D01*
X16220182Y-17945984D02*
X16201134Y-17945984D01*
X16201134Y-17945984D02*
X16182086Y-17936460D01*
X16182086Y-17936460D02*
X16172563Y-17926936D01*
X16172563Y-17926936D02*
X16163039Y-17907889D01*
X16163039Y-17907889D02*
X16153515Y-17869793D01*
X16153515Y-17869793D02*
X16153515Y-17822174D01*
X16153515Y-17822174D02*
X16163039Y-17784079D01*
X16163039Y-17784079D02*
X16172563Y-17765031D01*
X16172563Y-17765031D02*
X16182086Y-17755508D01*
X16182086Y-17755508D02*
X16201134Y-17745984D01*
X16353515Y-17926936D02*
X16363039Y-17936460D01*
X16363039Y-17936460D02*
X16353515Y-17945984D01*
X16353515Y-17945984D02*
X16343991Y-17936460D01*
X16343991Y-17936460D02*
X16353515Y-17926936D01*
X16353515Y-17926936D02*
X16353515Y-17945984D01*
X16486848Y-17745984D02*
X16505896Y-17745984D01*
X16505896Y-17745984D02*
X16524944Y-17755508D01*
X16524944Y-17755508D02*
X16534467Y-17765031D01*
X16534467Y-17765031D02*
X16543991Y-17784079D01*
X16543991Y-17784079D02*
X16553515Y-17822174D01*
X16553515Y-17822174D02*
X16553515Y-17869793D01*
X16553515Y-17869793D02*
X16543991Y-17907889D01*
X16543991Y-17907889D02*
X16534467Y-17926936D01*
X16534467Y-17926936D02*
X16524944Y-17936460D01*
X16524944Y-17936460D02*
X16505896Y-17945984D01*
X16505896Y-17945984D02*
X16486848Y-17945984D01*
X16486848Y-17945984D02*
X16467801Y-17936460D01*
X16467801Y-17936460D02*
X16458277Y-17926936D01*
X16458277Y-17926936D02*
X16448753Y-17907889D01*
X16448753Y-17907889D02*
X16439229Y-17869793D01*
X16439229Y-17869793D02*
X16439229Y-17822174D01*
X16439229Y-17822174D02*
X16448753Y-17784079D01*
X16448753Y-17784079D02*
X16458277Y-17765031D01*
X16458277Y-17765031D02*
X16467801Y-17755508D01*
X16467801Y-17755508D02*
X16486848Y-17745984D01*
X16734467Y-17745984D02*
X16639229Y-17745984D01*
X16639229Y-17745984D02*
X16629706Y-17841222D01*
X16629706Y-17841222D02*
X16639229Y-17831698D01*
X16639229Y-17831698D02*
X16658277Y-17822174D01*
X16658277Y-17822174D02*
X16705896Y-17822174D01*
X16705896Y-17822174D02*
X16724944Y-17831698D01*
X16724944Y-17831698D02*
X16734467Y-17841222D01*
X16734467Y-17841222D02*
X16743991Y-17860270D01*
X16743991Y-17860270D02*
X16743991Y-17907889D01*
X16743991Y-17907889D02*
X16734467Y-17926936D01*
X16734467Y-17926936D02*
X16724944Y-17936460D01*
X16724944Y-17936460D02*
X16705896Y-17945984D01*
X16705896Y-17945984D02*
X16658277Y-17945984D01*
X16658277Y-17945984D02*
X16639229Y-17936460D01*
X16639229Y-17936460D02*
X16629706Y-17926936D01*
X16839229Y-17945984D02*
X16877325Y-17945984D01*
X16877325Y-17945984D02*
X16896372Y-17936460D01*
X16896372Y-17936460D02*
X16905896Y-17926936D01*
X16905896Y-17926936D02*
X16924944Y-17898365D01*
X16924944Y-17898365D02*
X16934468Y-17860270D01*
X16934468Y-17860270D02*
X16934468Y-17784079D01*
X16934468Y-17784079D02*
X16924944Y-17765031D01*
X16924944Y-17765031D02*
X16915420Y-17755508D01*
X16915420Y-17755508D02*
X16896372Y-17745984D01*
X16896372Y-17745984D02*
X16858277Y-17745984D01*
X16858277Y-17745984D02*
X16839229Y-17755508D01*
X16839229Y-17755508D02*
X16829706Y-17765031D01*
X16829706Y-17765031D02*
X16820182Y-17784079D01*
X16820182Y-17784079D02*
X16820182Y-17831698D01*
X16820182Y-17831698D02*
X16829706Y-17850746D01*
X16829706Y-17850746D02*
X16839229Y-17860270D01*
X16839229Y-17860270D02*
X16858277Y-17869793D01*
X16858277Y-17869793D02*
X16896372Y-17869793D01*
X16896372Y-17869793D02*
X16915420Y-17860270D01*
X16915420Y-17860270D02*
X16924944Y-17850746D01*
X16924944Y-17850746D02*
X16934468Y-17831698D01*
X17124944Y-17945984D02*
X17010658Y-17945984D01*
X17067801Y-17945984D02*
X17067801Y-17745984D01*
X17067801Y-17745984D02*
X17048753Y-17774555D01*
X17048753Y-17774555D02*
X17029706Y-17793603D01*
X17029706Y-17793603D02*
X17010658Y-17803127D01*
X17201134Y-17745984D02*
X17201134Y-17784079D01*
X17277325Y-17745984D02*
X17277325Y-17784079D01*
X17572563Y-18022174D02*
X17563039Y-18012650D01*
X17563039Y-18012650D02*
X17543991Y-17984079D01*
X17543991Y-17984079D02*
X17534468Y-17965031D01*
X17534468Y-17965031D02*
X17524944Y-17936460D01*
X17524944Y-17936460D02*
X17515420Y-17888841D01*
X17515420Y-17888841D02*
X17515420Y-17850746D01*
X17515420Y-17850746D02*
X17524944Y-17803127D01*
X17524944Y-17803127D02*
X17534468Y-17774555D01*
X17534468Y-17774555D02*
X17543991Y-17755508D01*
X17543991Y-17755508D02*
X17563039Y-17726936D01*
X17563039Y-17726936D02*
X17572563Y-17717412D01*
X17734468Y-17812650D02*
X17734468Y-17945984D01*
X17686849Y-17736460D02*
X17639230Y-17879317D01*
X17639230Y-17879317D02*
X17763039Y-17879317D01*
X17991611Y-17945984D02*
X17991611Y-17745984D01*
X18077325Y-17945984D02*
X18077325Y-17841222D01*
X18077325Y-17841222D02*
X18067801Y-17822174D01*
X18067801Y-17822174D02*
X18048753Y-17812650D01*
X18048753Y-17812650D02*
X18020182Y-17812650D01*
X18020182Y-17812650D02*
X18001134Y-17822174D01*
X18001134Y-17822174D02*
X17991611Y-17831698D01*
X18201134Y-17945984D02*
X18182087Y-17936460D01*
X18182087Y-17936460D02*
X18172563Y-17926936D01*
X18172563Y-17926936D02*
X18163039Y-17907889D01*
X18163039Y-17907889D02*
X18163039Y-17850746D01*
X18163039Y-17850746D02*
X18172563Y-17831698D01*
X18172563Y-17831698D02*
X18182087Y-17822174D01*
X18182087Y-17822174D02*
X18201134Y-17812650D01*
X18201134Y-17812650D02*
X18229706Y-17812650D01*
X18229706Y-17812650D02*
X18248753Y-17822174D01*
X18248753Y-17822174D02*
X18258277Y-17831698D01*
X18258277Y-17831698D02*
X18267801Y-17850746D01*
X18267801Y-17850746D02*
X18267801Y-17907889D01*
X18267801Y-17907889D02*
X18258277Y-17926936D01*
X18258277Y-17926936D02*
X18248753Y-17936460D01*
X18248753Y-17936460D02*
X18229706Y-17945984D01*
X18229706Y-17945984D02*
X18201134Y-17945984D01*
X18382087Y-17945984D02*
X18363039Y-17936460D01*
X18363039Y-17936460D02*
X18353515Y-17917412D01*
X18353515Y-17917412D02*
X18353515Y-17745984D01*
X18534468Y-17936460D02*
X18515420Y-17945984D01*
X18515420Y-17945984D02*
X18477325Y-17945984D01*
X18477325Y-17945984D02*
X18458277Y-17936460D01*
X18458277Y-17936460D02*
X18448753Y-17917412D01*
X18448753Y-17917412D02*
X18448753Y-17841222D01*
X18448753Y-17841222D02*
X18458277Y-17822174D01*
X18458277Y-17822174D02*
X18477325Y-17812650D01*
X18477325Y-17812650D02*
X18515420Y-17812650D01*
X18515420Y-17812650D02*
X18534468Y-17822174D01*
X18534468Y-17822174D02*
X18543992Y-17841222D01*
X18543992Y-17841222D02*
X18543992Y-17860270D01*
X18543992Y-17860270D02*
X18448753Y-17879317D01*
X18620182Y-17936460D02*
X18639230Y-17945984D01*
X18639230Y-17945984D02*
X18677325Y-17945984D01*
X18677325Y-17945984D02*
X18696373Y-17936460D01*
X18696373Y-17936460D02*
X18705896Y-17917412D01*
X18705896Y-17917412D02*
X18705896Y-17907889D01*
X18705896Y-17907889D02*
X18696373Y-17888841D01*
X18696373Y-17888841D02*
X18677325Y-17879317D01*
X18677325Y-17879317D02*
X18648753Y-17879317D01*
X18648753Y-17879317D02*
X18629706Y-17869793D01*
X18629706Y-17869793D02*
X18620182Y-17850746D01*
X18620182Y-17850746D02*
X18620182Y-17841222D01*
X18620182Y-17841222D02*
X18629706Y-17822174D01*
X18629706Y-17822174D02*
X18648753Y-17812650D01*
X18648753Y-17812650D02*
X18677325Y-17812650D01*
X18677325Y-17812650D02*
X18696373Y-17822174D01*
X18772563Y-18022174D02*
X18782087Y-18012650D01*
X18782087Y-18012650D02*
X18801134Y-17984079D01*
X18801134Y-17984079D02*
X18810658Y-17965031D01*
X18810658Y-17965031D02*
X18820182Y-17936460D01*
X18820182Y-17936460D02*
X18829706Y-17888841D01*
X18829706Y-17888841D02*
X18829706Y-17850746D01*
X18829706Y-17850746D02*
X18820182Y-17803127D01*
X18820182Y-17803127D02*
X18810658Y-17774555D01*
X18810658Y-17774555D02*
X18801134Y-17755508D01*
X18801134Y-17755508D02*
X18782087Y-17726936D01*
X18782087Y-17726936D02*
X18772563Y-17717412D01*
X13897500Y-18024500D02*
X13897500Y-18224500D01*
X13797500Y-18124500D02*
X13997500Y-18124500D01*
X13997500Y-18124500D02*
G75*
G02*
X13797500Y-18124500I-100000J0D01*
G01*
X13797500Y-18124500D02*
G75*
G02*
X13997500Y-18124500I100000J0D01*
G01*
X14248753Y-18035031D02*
X14258277Y-18025508D01*
X14258277Y-18025508D02*
X14277324Y-18015984D01*
X14277324Y-18015984D02*
X14324943Y-18015984D01*
X14324943Y-18015984D02*
X14343991Y-18025508D01*
X14343991Y-18025508D02*
X14353515Y-18035031D01*
X14353515Y-18035031D02*
X14363039Y-18054079D01*
X14363039Y-18054079D02*
X14363039Y-18073127D01*
X14363039Y-18073127D02*
X14353515Y-18101698D01*
X14353515Y-18101698D02*
X14239229Y-18215984D01*
X14239229Y-18215984D02*
X14363039Y-18215984D01*
X14448753Y-18196936D02*
X14458277Y-18206460D01*
X14458277Y-18206460D02*
X14448753Y-18215984D01*
X14448753Y-18215984D02*
X14439229Y-18206460D01*
X14439229Y-18206460D02*
X14448753Y-18196936D01*
X14448753Y-18196936D02*
X14448753Y-18215984D01*
X14553515Y-18215984D02*
X14591610Y-18215984D01*
X14591610Y-18215984D02*
X14610658Y-18206460D01*
X14610658Y-18206460D02*
X14620182Y-18196936D01*
X14620182Y-18196936D02*
X14639229Y-18168365D01*
X14639229Y-18168365D02*
X14648753Y-18130270D01*
X14648753Y-18130270D02*
X14648753Y-18054079D01*
X14648753Y-18054079D02*
X14639229Y-18035031D01*
X14639229Y-18035031D02*
X14629705Y-18025508D01*
X14629705Y-18025508D02*
X14610658Y-18015984D01*
X14610658Y-18015984D02*
X14572562Y-18015984D01*
X14572562Y-18015984D02*
X14553515Y-18025508D01*
X14553515Y-18025508D02*
X14543991Y-18035031D01*
X14543991Y-18035031D02*
X14534467Y-18054079D01*
X14534467Y-18054079D02*
X14534467Y-18101698D01*
X14534467Y-18101698D02*
X14543991Y-18120746D01*
X14543991Y-18120746D02*
X14553515Y-18130270D01*
X14553515Y-18130270D02*
X14572562Y-18139793D01*
X14572562Y-18139793D02*
X14610658Y-18139793D01*
X14610658Y-18139793D02*
X14629705Y-18130270D01*
X14629705Y-18130270D02*
X14639229Y-18120746D01*
X14639229Y-18120746D02*
X14648753Y-18101698D01*
X14715420Y-18015984D02*
X14848753Y-18015984D01*
X14848753Y-18015984D02*
X14763039Y-18215984D01*
X14963039Y-18015984D02*
X14982086Y-18015984D01*
X14982086Y-18015984D02*
X15001134Y-18025508D01*
X15001134Y-18025508D02*
X15010658Y-18035031D01*
X15010658Y-18035031D02*
X15020182Y-18054079D01*
X15020182Y-18054079D02*
X15029705Y-18092174D01*
X15029705Y-18092174D02*
X15029705Y-18139793D01*
X15029705Y-18139793D02*
X15020182Y-18177889D01*
X15020182Y-18177889D02*
X15010658Y-18196936D01*
X15010658Y-18196936D02*
X15001134Y-18206460D01*
X15001134Y-18206460D02*
X14982086Y-18215984D01*
X14982086Y-18215984D02*
X14963039Y-18215984D01*
X14963039Y-18215984D02*
X14943991Y-18206460D01*
X14943991Y-18206460D02*
X14934467Y-18196936D01*
X14934467Y-18196936D02*
X14924943Y-18177889D01*
X14924943Y-18177889D02*
X14915420Y-18139793D01*
X14915420Y-18139793D02*
X14915420Y-18092174D01*
X14915420Y-18092174D02*
X14924943Y-18054079D01*
X14924943Y-18054079D02*
X14934467Y-18035031D01*
X14934467Y-18035031D02*
X14943991Y-18025508D01*
X14943991Y-18025508D02*
X14963039Y-18015984D01*
X15115420Y-18215984D02*
X15115420Y-18082650D01*
X15115420Y-18101698D02*
X15124943Y-18092174D01*
X15124943Y-18092174D02*
X15143991Y-18082650D01*
X15143991Y-18082650D02*
X15172563Y-18082650D01*
X15172563Y-18082650D02*
X15191610Y-18092174D01*
X15191610Y-18092174D02*
X15201134Y-18111222D01*
X15201134Y-18111222D02*
X15201134Y-18215984D01*
X15201134Y-18111222D02*
X15210658Y-18092174D01*
X15210658Y-18092174D02*
X15229705Y-18082650D01*
X15229705Y-18082650D02*
X15258277Y-18082650D01*
X15258277Y-18082650D02*
X15277324Y-18092174D01*
X15277324Y-18092174D02*
X15286848Y-18111222D01*
X15286848Y-18111222D02*
X15286848Y-18215984D01*
X15382086Y-18215984D02*
X15382086Y-18082650D01*
X15382086Y-18101698D02*
X15391610Y-18092174D01*
X15391610Y-18092174D02*
X15410658Y-18082650D01*
X15410658Y-18082650D02*
X15439229Y-18082650D01*
X15439229Y-18082650D02*
X15458277Y-18092174D01*
X15458277Y-18092174D02*
X15467801Y-18111222D01*
X15467801Y-18111222D02*
X15467801Y-18215984D01*
X15467801Y-18111222D02*
X15477324Y-18092174D01*
X15477324Y-18092174D02*
X15496372Y-18082650D01*
X15496372Y-18082650D02*
X15524943Y-18082650D01*
X15524943Y-18082650D02*
X15543991Y-18092174D01*
X15543991Y-18092174D02*
X15553515Y-18111222D01*
X15553515Y-18111222D02*
X15553515Y-18215984D01*
X15943991Y-18006460D02*
X15772563Y-18263603D01*
X16201134Y-18015984D02*
X16220182Y-18015984D01*
X16220182Y-18015984D02*
X16239229Y-18025508D01*
X16239229Y-18025508D02*
X16248753Y-18035031D01*
X16248753Y-18035031D02*
X16258277Y-18054079D01*
X16258277Y-18054079D02*
X16267801Y-18092174D01*
X16267801Y-18092174D02*
X16267801Y-18139793D01*
X16267801Y-18139793D02*
X16258277Y-18177889D01*
X16258277Y-18177889D02*
X16248753Y-18196936D01*
X16248753Y-18196936D02*
X16239229Y-18206460D01*
X16239229Y-18206460D02*
X16220182Y-18215984D01*
X16220182Y-18215984D02*
X16201134Y-18215984D01*
X16201134Y-18215984D02*
X16182086Y-18206460D01*
X16182086Y-18206460D02*
X16172563Y-18196936D01*
X16172563Y-18196936D02*
X16163039Y-18177889D01*
X16163039Y-18177889D02*
X16153515Y-18139793D01*
X16153515Y-18139793D02*
X16153515Y-18092174D01*
X16153515Y-18092174D02*
X16163039Y-18054079D01*
X16163039Y-18054079D02*
X16172563Y-18035031D01*
X16172563Y-18035031D02*
X16182086Y-18025508D01*
X16182086Y-18025508D02*
X16201134Y-18015984D01*
X16353515Y-18196936D02*
X16363039Y-18206460D01*
X16363039Y-18206460D02*
X16353515Y-18215984D01*
X16353515Y-18215984D02*
X16343991Y-18206460D01*
X16343991Y-18206460D02*
X16353515Y-18196936D01*
X16353515Y-18196936D02*
X16353515Y-18215984D01*
X16553515Y-18215984D02*
X16439229Y-18215984D01*
X16496372Y-18215984D02*
X16496372Y-18015984D01*
X16496372Y-18015984D02*
X16477325Y-18044555D01*
X16477325Y-18044555D02*
X16458277Y-18063603D01*
X16458277Y-18063603D02*
X16439229Y-18073127D01*
X16743991Y-18215984D02*
X16629706Y-18215984D01*
X16686848Y-18215984D02*
X16686848Y-18015984D01*
X16686848Y-18015984D02*
X16667801Y-18044555D01*
X16667801Y-18044555D02*
X16648753Y-18063603D01*
X16648753Y-18063603D02*
X16629706Y-18073127D01*
X16915420Y-18015984D02*
X16877325Y-18015984D01*
X16877325Y-18015984D02*
X16858277Y-18025508D01*
X16858277Y-18025508D02*
X16848753Y-18035031D01*
X16848753Y-18035031D02*
X16829706Y-18063603D01*
X16829706Y-18063603D02*
X16820182Y-18101698D01*
X16820182Y-18101698D02*
X16820182Y-18177889D01*
X16820182Y-18177889D02*
X16829706Y-18196936D01*
X16829706Y-18196936D02*
X16839229Y-18206460D01*
X16839229Y-18206460D02*
X16858277Y-18215984D01*
X16858277Y-18215984D02*
X16896372Y-18215984D01*
X16896372Y-18215984D02*
X16915420Y-18206460D01*
X16915420Y-18206460D02*
X16924944Y-18196936D01*
X16924944Y-18196936D02*
X16934468Y-18177889D01*
X16934468Y-18177889D02*
X16934468Y-18130270D01*
X16934468Y-18130270D02*
X16924944Y-18111222D01*
X16924944Y-18111222D02*
X16915420Y-18101698D01*
X16915420Y-18101698D02*
X16896372Y-18092174D01*
X16896372Y-18092174D02*
X16858277Y-18092174D01*
X16858277Y-18092174D02*
X16839229Y-18101698D01*
X16839229Y-18101698D02*
X16829706Y-18111222D01*
X16829706Y-18111222D02*
X16820182Y-18130270D01*
X17029706Y-18215984D02*
X17067801Y-18215984D01*
X17067801Y-18215984D02*
X17086849Y-18206460D01*
X17086849Y-18206460D02*
X17096372Y-18196936D01*
X17096372Y-18196936D02*
X17115420Y-18168365D01*
X17115420Y-18168365D02*
X17124944Y-18130270D01*
X17124944Y-18130270D02*
X17124944Y-18054079D01*
X17124944Y-18054079D02*
X17115420Y-18035031D01*
X17115420Y-18035031D02*
X17105896Y-18025508D01*
X17105896Y-18025508D02*
X17086849Y-18015984D01*
X17086849Y-18015984D02*
X17048753Y-18015984D01*
X17048753Y-18015984D02*
X17029706Y-18025508D01*
X17029706Y-18025508D02*
X17020182Y-18035031D01*
X17020182Y-18035031D02*
X17010658Y-18054079D01*
X17010658Y-18054079D02*
X17010658Y-18101698D01*
X17010658Y-18101698D02*
X17020182Y-18120746D01*
X17020182Y-18120746D02*
X17029706Y-18130270D01*
X17029706Y-18130270D02*
X17048753Y-18139793D01*
X17048753Y-18139793D02*
X17086849Y-18139793D01*
X17086849Y-18139793D02*
X17105896Y-18130270D01*
X17105896Y-18130270D02*
X17115420Y-18120746D01*
X17115420Y-18120746D02*
X17124944Y-18101698D01*
X17201134Y-18015984D02*
X17201134Y-18054079D01*
X17277325Y-18015984D02*
X17277325Y-18054079D01*
X17572563Y-18292174D02*
X17563039Y-18282650D01*
X17563039Y-18282650D02*
X17543991Y-18254079D01*
X17543991Y-18254079D02*
X17534468Y-18235031D01*
X17534468Y-18235031D02*
X17524944Y-18206460D01*
X17524944Y-18206460D02*
X17515420Y-18158841D01*
X17515420Y-18158841D02*
X17515420Y-18120746D01*
X17515420Y-18120746D02*
X17524944Y-18073127D01*
X17524944Y-18073127D02*
X17534468Y-18044555D01*
X17534468Y-18044555D02*
X17543991Y-18025508D01*
X17543991Y-18025508D02*
X17563039Y-17996936D01*
X17563039Y-17996936D02*
X17572563Y-17987412D01*
X17753515Y-18215984D02*
X17639230Y-18215984D01*
X17696372Y-18215984D02*
X17696372Y-18015984D01*
X17696372Y-18015984D02*
X17677325Y-18044555D01*
X17677325Y-18044555D02*
X17658277Y-18063603D01*
X17658277Y-18063603D02*
X17639230Y-18073127D01*
X17829706Y-18035031D02*
X17839230Y-18025508D01*
X17839230Y-18025508D02*
X17858277Y-18015984D01*
X17858277Y-18015984D02*
X17905896Y-18015984D01*
X17905896Y-18015984D02*
X17924944Y-18025508D01*
X17924944Y-18025508D02*
X17934468Y-18035031D01*
X17934468Y-18035031D02*
X17943991Y-18054079D01*
X17943991Y-18054079D02*
X17943991Y-18073127D01*
X17943991Y-18073127D02*
X17934468Y-18101698D01*
X17934468Y-18101698D02*
X17820182Y-18215984D01*
X17820182Y-18215984D02*
X17943991Y-18215984D01*
X18182087Y-18215984D02*
X18182087Y-18015984D01*
X18267801Y-18215984D02*
X18267801Y-18111222D01*
X18267801Y-18111222D02*
X18258277Y-18092174D01*
X18258277Y-18092174D02*
X18239230Y-18082650D01*
X18239230Y-18082650D02*
X18210658Y-18082650D01*
X18210658Y-18082650D02*
X18191611Y-18092174D01*
X18191611Y-18092174D02*
X18182087Y-18101698D01*
X18391611Y-18215984D02*
X18372563Y-18206460D01*
X18372563Y-18206460D02*
X18363039Y-18196936D01*
X18363039Y-18196936D02*
X18353515Y-18177889D01*
X18353515Y-18177889D02*
X18353515Y-18120746D01*
X18353515Y-18120746D02*
X18363039Y-18101698D01*
X18363039Y-18101698D02*
X18372563Y-18092174D01*
X18372563Y-18092174D02*
X18391611Y-18082650D01*
X18391611Y-18082650D02*
X18420182Y-18082650D01*
X18420182Y-18082650D02*
X18439230Y-18092174D01*
X18439230Y-18092174D02*
X18448753Y-18101698D01*
X18448753Y-18101698D02*
X18458277Y-18120746D01*
X18458277Y-18120746D02*
X18458277Y-18177889D01*
X18458277Y-18177889D02*
X18448753Y-18196936D01*
X18448753Y-18196936D02*
X18439230Y-18206460D01*
X18439230Y-18206460D02*
X18420182Y-18215984D01*
X18420182Y-18215984D02*
X18391611Y-18215984D01*
X18572563Y-18215984D02*
X18553515Y-18206460D01*
X18553515Y-18206460D02*
X18543992Y-18187412D01*
X18543992Y-18187412D02*
X18543992Y-18015984D01*
X18724944Y-18206460D02*
X18705896Y-18215984D01*
X18705896Y-18215984D02*
X18667801Y-18215984D01*
X18667801Y-18215984D02*
X18648753Y-18206460D01*
X18648753Y-18206460D02*
X18639230Y-18187412D01*
X18639230Y-18187412D02*
X18639230Y-18111222D01*
X18639230Y-18111222D02*
X18648753Y-18092174D01*
X18648753Y-18092174D02*
X18667801Y-18082650D01*
X18667801Y-18082650D02*
X18705896Y-18082650D01*
X18705896Y-18082650D02*
X18724944Y-18092174D01*
X18724944Y-18092174D02*
X18734468Y-18111222D01*
X18734468Y-18111222D02*
X18734468Y-18130270D01*
X18734468Y-18130270D02*
X18639230Y-18149317D01*
X18810658Y-18206460D02*
X18829706Y-18215984D01*
X18829706Y-18215984D02*
X18867801Y-18215984D01*
X18867801Y-18215984D02*
X18886849Y-18206460D01*
X18886849Y-18206460D02*
X18896373Y-18187412D01*
X18896373Y-18187412D02*
X18896373Y-18177889D01*
X18896373Y-18177889D02*
X18886849Y-18158841D01*
X18886849Y-18158841D02*
X18867801Y-18149317D01*
X18867801Y-18149317D02*
X18839230Y-18149317D01*
X18839230Y-18149317D02*
X18820182Y-18139793D01*
X18820182Y-18139793D02*
X18810658Y-18120746D01*
X18810658Y-18120746D02*
X18810658Y-18111222D01*
X18810658Y-18111222D02*
X18820182Y-18092174D01*
X18820182Y-18092174D02*
X18839230Y-18082650D01*
X18839230Y-18082650D02*
X18867801Y-18082650D01*
X18867801Y-18082650D02*
X18886849Y-18092174D01*
X18963039Y-18292174D02*
X18972563Y-18282650D01*
X18972563Y-18282650D02*
X18991611Y-18254079D01*
X18991611Y-18254079D02*
X19001134Y-18235031D01*
X19001134Y-18235031D02*
X19010658Y-18206460D01*
X19010658Y-18206460D02*
X19020182Y-18158841D01*
X19020182Y-18158841D02*
X19020182Y-18120746D01*
X19020182Y-18120746D02*
X19010658Y-18073127D01*
X19010658Y-18073127D02*
X19001134Y-18044555D01*
X19001134Y-18044555D02*
X18991611Y-18025508D01*
X18991611Y-18025508D02*
X18972563Y-17996936D01*
X18972563Y-17996936D02*
X18963039Y-17987412D01*
M02*
