%TF.GenerationSoftware,KiCad,Pcbnew,8.0.8*%
%TF.CreationDate,2025-06-29T12:46:52+09:00*%
%TF.ProjectId,LFOSeparate,4c464f53-6570-4617-9261-74652e6b6963,rev?*%
%TF.SameCoordinates,Original*%
%TF.FileFunction,Drillmap*%
%TF.FilePolarity,Positive*%
%FSLAX45Y45*%
G04 Gerber Fmt 4.5, Leading zero omitted, Abs format (unit mm)*
G04 Created by KiCad (PCBNEW 8.0.8) date 2025-06-29 12:46:52*
%MOMM*%
%LPD*%
G01*
G04 APERTURE LIST*
%ADD10C,0.050000*%
%ADD11C,0.200000*%
%ADD12C,0.100000*%
%ADD13C,0.120000*%
%ADD14C,0.297000*%
G04 APERTURE END LIST*
D10*
X17960000Y-7600000D02*
G75*
G02*
X17640000Y-7600000I-160000J0D01*
G01*
X17640000Y-7600000D02*
G75*
G02*
X17960000Y-7600000I160000J0D01*
G01*
X17960000Y-3700000D02*
G75*
G02*
X17640000Y-3700000I-160000J0D01*
G01*
X17640000Y-3700000D02*
G75*
G02*
X17960000Y-3700000I160000J0D01*
G01*
X9160000Y-7600000D02*
G75*
G02*
X8840000Y-7600000I-160000J0D01*
G01*
X8840000Y-7600000D02*
G75*
G02*
X9160000Y-7600000I160000J0D01*
G01*
X8700000Y-3400000D02*
X18100000Y-3400000D01*
X18100000Y-7900000D01*
X8700000Y-7900000D01*
X8700000Y-3400000D01*
X9160000Y-3700000D02*
G75*
G02*
X8840000Y-3700000I-160000J0D01*
G01*
X8840000Y-3700000D02*
G75*
G02*
X9160000Y-3700000I160000J0D01*
G01*
D11*
D12*
X12569300Y-6431680D02*
X12599300Y-6461680D01*
X12599300Y-6431680D02*
X12569300Y-6461680D01*
X9255200Y-4914900D02*
G75*
G02*
X9185200Y-4914900I-35000J0D01*
G01*
X9185200Y-4914900D02*
G75*
G02*
X9255200Y-4914900I35000J0D01*
G01*
X9255200Y-5168900D02*
G75*
G02*
X9185200Y-5168900I-35000J0D01*
G01*
X9185200Y-5168900D02*
G75*
G02*
X9255200Y-5168900I35000J0D01*
G01*
X9463400Y-4025900D02*
G75*
G02*
X9393400Y-4025900I-35000J0D01*
G01*
X9393400Y-4025900D02*
G75*
G02*
X9463400Y-4025900I35000J0D01*
G01*
X9680800Y-6515100D02*
G75*
G02*
X9610800Y-6515100I-35000J0D01*
G01*
X9610800Y-6515100D02*
G75*
G02*
X9680800Y-6515100I35000J0D01*
G01*
X9717400Y-4025900D02*
G75*
G02*
X9647400Y-4025900I-35000J0D01*
G01*
X9647400Y-4025900D02*
G75*
G02*
X9717400Y-4025900I35000J0D01*
G01*
X9747000Y-5371100D02*
G75*
G02*
X9677000Y-5371100I-35000J0D01*
G01*
X9677000Y-5371100D02*
G75*
G02*
X9747000Y-5371100I35000J0D01*
G01*
X9757000Y-5142500D02*
G75*
G02*
X9687000Y-5142500I-35000J0D01*
G01*
X9687000Y-5142500D02*
G75*
G02*
X9757000Y-5142500I35000J0D01*
G01*
X9757000Y-5599700D02*
G75*
G02*
X9687000Y-5599700I-35000J0D01*
G01*
X9687000Y-5599700D02*
G75*
G02*
X9757000Y-5599700I35000J0D01*
G01*
X9934800Y-6515100D02*
G75*
G02*
X9864800Y-6515100I-35000J0D01*
G01*
X9864800Y-6515100D02*
G75*
G02*
X9934800Y-6515100I35000J0D01*
G01*
X10001000Y-5371100D02*
G75*
G02*
X9931000Y-5371100I-35000J0D01*
G01*
X9931000Y-5371100D02*
G75*
G02*
X10001000Y-5371100I35000J0D01*
G01*
X10011000Y-5142500D02*
G75*
G02*
X9941000Y-5142500I-35000J0D01*
G01*
X9941000Y-5142500D02*
G75*
G02*
X10011000Y-5142500I35000J0D01*
G01*
X10011000Y-5599700D02*
G75*
G02*
X9941000Y-5599700I-35000J0D01*
G01*
X9941000Y-5599700D02*
G75*
G02*
X10011000Y-5599700I35000J0D01*
G01*
X11410700Y-5587000D02*
G75*
G02*
X11340700Y-5587000I-35000J0D01*
G01*
X11340700Y-5587000D02*
G75*
G02*
X11410700Y-5587000I35000J0D01*
G01*
X11420700Y-5129800D02*
G75*
G02*
X11350700Y-5129800I-35000J0D01*
G01*
X11350700Y-5129800D02*
G75*
G02*
X11420700Y-5129800I35000J0D01*
G01*
X11420700Y-5358400D02*
G75*
G02*
X11350700Y-5358400I-35000J0D01*
G01*
X11350700Y-5358400D02*
G75*
G02*
X11420700Y-5358400I35000J0D01*
G01*
X11496900Y-6514100D02*
G75*
G02*
X11426900Y-6514100I-35000J0D01*
G01*
X11426900Y-6514100D02*
G75*
G02*
X11496900Y-6514100I35000J0D01*
G01*
X11664700Y-5587000D02*
G75*
G02*
X11594700Y-5587000I-35000J0D01*
G01*
X11594700Y-5587000D02*
G75*
G02*
X11664700Y-5587000I35000J0D01*
G01*
X11674700Y-5129800D02*
G75*
G02*
X11604700Y-5129800I-35000J0D01*
G01*
X11604700Y-5129800D02*
G75*
G02*
X11674700Y-5129800I35000J0D01*
G01*
X11674700Y-5358400D02*
G75*
G02*
X11604700Y-5358400I-35000J0D01*
G01*
X11604700Y-5358400D02*
G75*
G02*
X11674700Y-5358400I35000J0D01*
G01*
X11750900Y-6514100D02*
G75*
G02*
X11680900Y-6514100I-35000J0D01*
G01*
X11680900Y-6514100D02*
G75*
G02*
X11750900Y-6514100I35000J0D01*
G01*
X12187400Y-6351000D02*
G75*
G02*
X12117400Y-6351000I-35000J0D01*
G01*
X12117400Y-6351000D02*
G75*
G02*
X12187400Y-6351000I35000J0D01*
G01*
X12281300Y-5004800D02*
G75*
G02*
X12211300Y-5004800I-35000J0D01*
G01*
X12211300Y-5004800D02*
G75*
G02*
X12281300Y-5004800I35000J0D01*
G01*
X12441400Y-6351000D02*
G75*
G02*
X12371400Y-6351000I-35000J0D01*
G01*
X12371400Y-6351000D02*
G75*
G02*
X12441400Y-6351000I35000J0D01*
G01*
X12535300Y-5004800D02*
G75*
G02*
X12465300Y-5004800I-35000J0D01*
G01*
X12465300Y-5004800D02*
G75*
G02*
X12535300Y-5004800I35000J0D01*
G01*
X13889200Y-6351000D02*
G75*
G02*
X13819200Y-6351000I-35000J0D01*
G01*
X13819200Y-6351000D02*
G75*
G02*
X13889200Y-6351000I35000J0D01*
G01*
X14143200Y-6351000D02*
G75*
G02*
X14073200Y-6351000I-35000J0D01*
G01*
X14073200Y-6351000D02*
G75*
G02*
X14143200Y-6351000I35000J0D01*
G01*
X9182100Y-4483700D02*
X9182100Y-4558700D01*
X9144600Y-4521200D02*
X9219600Y-4521200D01*
X9309100Y-4356700D02*
X9309100Y-4431700D01*
X9271600Y-4394200D02*
X9346600Y-4394200D01*
X9410700Y-3734400D02*
X9410700Y-3809400D01*
X9373200Y-3771900D02*
X9448200Y-3771900D01*
X9436100Y-4483700D02*
X9436100Y-4558700D01*
X9398600Y-4521200D02*
X9473600Y-4521200D01*
X9664700Y-3734400D02*
X9664700Y-3809400D01*
X9627200Y-3771900D02*
X9702200Y-3771900D01*
X9698485Y-6111584D02*
X9698485Y-6055015D01*
X9641916Y-6055015D01*
X9641916Y-6111584D01*
X9698485Y-6111584D01*
X9948485Y-6111584D02*
X9948485Y-6055015D01*
X9891916Y-6055015D01*
X9891916Y-6111584D01*
X9948485Y-6111584D01*
X10327985Y-5171785D02*
X10327985Y-5115216D01*
X10271416Y-5115216D01*
X10271416Y-5171785D01*
X10327985Y-5171785D01*
X10327985Y-5425785D02*
X10327985Y-5369216D01*
X10271416Y-5369216D01*
X10271416Y-5425785D01*
X10327985Y-5425785D01*
X10327985Y-5679784D02*
X10327985Y-5623215D01*
X10271416Y-5623215D01*
X10271416Y-5679784D01*
X10327985Y-5679784D01*
X10327985Y-5933784D02*
X10327985Y-5877215D01*
X10271416Y-5877215D01*
X10271416Y-5933784D01*
X10327985Y-5933784D01*
X11089985Y-5171785D02*
X11089985Y-5115216D01*
X11033416Y-5115216D01*
X11033416Y-5171785D01*
X11089985Y-5171785D01*
X11089985Y-5425785D02*
X11089985Y-5369216D01*
X11033416Y-5369216D01*
X11033416Y-5425785D01*
X11089985Y-5425785D01*
X11089985Y-5679784D02*
X11089985Y-5623215D01*
X11033416Y-5623215D01*
X11033416Y-5679784D01*
X11089985Y-5679784D01*
X11089985Y-5933784D02*
X11089985Y-5877215D01*
X11033416Y-5877215D01*
X11033416Y-5933784D01*
X11089985Y-5933784D01*
X11447084Y-6123284D02*
X11447084Y-6066715D01*
X11390515Y-6066715D01*
X11390515Y-6123284D01*
X11447084Y-6123284D01*
X11697084Y-6123284D02*
X11697084Y-6066715D01*
X11640515Y-6066715D01*
X11640515Y-6123284D01*
X11697084Y-6123284D01*
X12169984Y-6658684D02*
X12169984Y-6602115D01*
X12113415Y-6602115D01*
X12113415Y-6658684D01*
X12169984Y-6658684D01*
X12258884Y-5287085D02*
X12258884Y-5230516D01*
X12202315Y-5230516D01*
X12202315Y-5287085D01*
X12258884Y-5287085D01*
X12419984Y-6658684D02*
X12419984Y-6602115D01*
X12363415Y-6602115D01*
X12363415Y-6658684D01*
X12419984Y-6658684D01*
X12508884Y-5287085D02*
X12508884Y-5230516D01*
X12452315Y-5230516D01*
X12452315Y-5287085D01*
X12508884Y-5287085D01*
X12764884Y-5871284D02*
X12764884Y-5814715D01*
X12708315Y-5814715D01*
X12708315Y-5871284D01*
X12764884Y-5871284D01*
X12764884Y-6125284D02*
X12764884Y-6068715D01*
X12708315Y-6068715D01*
X12708315Y-6125284D01*
X12764884Y-6125284D01*
X12764884Y-6379284D02*
X12764884Y-6322715D01*
X12708315Y-6322715D01*
X12708315Y-6379284D01*
X12764884Y-6379284D01*
X12764884Y-6633284D02*
X12764884Y-6576715D01*
X12708315Y-6576715D01*
X12708315Y-6633284D01*
X12764884Y-6633284D01*
X12815684Y-4525085D02*
X12815684Y-4468516D01*
X12759115Y-4468516D01*
X12759115Y-4525085D01*
X12815684Y-4525085D01*
X12815684Y-4779085D02*
X12815684Y-4722516D01*
X12759115Y-4722516D01*
X12759115Y-4779085D01*
X12815684Y-4779085D01*
X12815684Y-5033085D02*
X12815684Y-4976516D01*
X12759115Y-4976516D01*
X12759115Y-5033085D01*
X12815684Y-5033085D01*
X12815684Y-5287085D02*
X12815684Y-5230516D01*
X12759115Y-5230516D01*
X12759115Y-5287085D01*
X12815684Y-5287085D01*
X13526884Y-5871284D02*
X13526884Y-5814715D01*
X13470315Y-5814715D01*
X13470315Y-5871284D01*
X13526884Y-5871284D01*
X13526884Y-6125284D02*
X13526884Y-6068715D01*
X13470315Y-6068715D01*
X13470315Y-6125284D01*
X13526884Y-6125284D01*
X13526884Y-6379284D02*
X13526884Y-6322715D01*
X13470315Y-6322715D01*
X13470315Y-6379284D01*
X13526884Y-6379284D01*
X13526884Y-6633284D02*
X13526884Y-6576715D01*
X13470315Y-6576715D01*
X13470315Y-6633284D01*
X13526884Y-6633284D01*
X13577684Y-4525085D02*
X13577684Y-4468516D01*
X13521115Y-4468516D01*
X13521115Y-4525085D01*
X13577684Y-4525085D01*
X13577684Y-4779085D02*
X13577684Y-4722516D01*
X13521115Y-4722516D01*
X13521115Y-4779085D01*
X13577684Y-4779085D01*
X13577684Y-5033085D02*
X13577684Y-4976516D01*
X13521115Y-4976516D01*
X13521115Y-5033085D01*
X13577684Y-5033085D01*
X13577684Y-5287085D02*
X13577684Y-5230516D01*
X13521115Y-5230516D01*
X13521115Y-5287085D01*
X13577684Y-5287085D01*
X13871784Y-6645984D02*
X13871784Y-6589415D01*
X13815215Y-6589415D01*
X13815215Y-6645984D01*
X13871784Y-6645984D01*
X14121784Y-6645984D02*
X14121784Y-6589415D01*
X14065215Y-6589415D01*
X14065215Y-6645984D01*
X14121784Y-6645984D01*
X14441284Y-4956885D02*
X14441284Y-4900316D01*
X14384715Y-4900316D01*
X14384715Y-4956885D01*
X14441284Y-4956885D01*
X14441284Y-5210885D02*
X14441284Y-5154316D01*
X14384715Y-5154316D01*
X14384715Y-5210885D01*
X14441284Y-5210885D01*
X14441284Y-5464885D02*
X14441284Y-5408316D01*
X14384715Y-5408316D01*
X14384715Y-5464885D01*
X14441284Y-5464885D01*
X14441284Y-5718884D02*
X14441284Y-5662315D01*
X14384715Y-5662315D01*
X14384715Y-5718884D01*
X14441284Y-5718884D01*
X14441284Y-5972884D02*
X14441284Y-5916315D01*
X14384715Y-5916315D01*
X14384715Y-5972884D01*
X14441284Y-5972884D01*
X14441284Y-6226884D02*
X14441284Y-6170315D01*
X14384715Y-6170315D01*
X14384715Y-6226884D01*
X14441284Y-6226884D01*
X14441284Y-6480884D02*
X14441284Y-6424315D01*
X14384715Y-6424315D01*
X14384715Y-6480884D01*
X14441284Y-6480884D01*
X15203284Y-4956885D02*
X15203284Y-4900316D01*
X15146715Y-4900316D01*
X15146715Y-4956885D01*
X15203284Y-4956885D01*
X15203284Y-5210885D02*
X15203284Y-5154316D01*
X15146715Y-5154316D01*
X15146715Y-5210885D01*
X15203284Y-5210885D01*
X15203284Y-5464885D02*
X15203284Y-5408316D01*
X15146715Y-5408316D01*
X15146715Y-5464885D01*
X15203284Y-5464885D01*
X15203284Y-5718884D02*
X15203284Y-5662315D01*
X15146715Y-5662315D01*
X15146715Y-5718884D01*
X15203284Y-5718884D01*
X15203284Y-5972884D02*
X15203284Y-5916315D01*
X15146715Y-5916315D01*
X15146715Y-5972884D01*
X15203284Y-5972884D01*
X15203284Y-6226884D02*
X15203284Y-6170315D01*
X15146715Y-6170315D01*
X15146715Y-6226884D01*
X15203284Y-6226884D01*
X15203284Y-6480884D02*
X15203284Y-6424315D01*
X15146715Y-6424315D01*
X15146715Y-6480884D01*
X15203284Y-6480884D01*
X15928284Y-3778284D02*
X15928284Y-3721715D01*
X15871715Y-3721715D01*
X15871715Y-3778284D01*
X15928284Y-3778284D01*
X15928284Y-4028284D02*
X15928284Y-3971715D01*
X15871715Y-3971715D01*
X15871715Y-4028284D01*
X15928284Y-4028284D01*
X8940800Y-5709200D02*
X8985800Y-5664200D01*
X8940800Y-5619200D01*
X8895800Y-5664200D01*
X8940800Y-5709200D01*
X9194800Y-5709200D02*
X9239800Y-5664200D01*
X9194800Y-5619200D01*
X9149800Y-5664200D01*
X9194800Y-5709200D01*
X10046500Y-7201700D02*
X10146500Y-7301700D01*
X10146500Y-7201700D02*
X10046500Y-7301700D01*
X10146500Y-7251700D02*
G75*
G02*
X10046500Y-7251700I-50000J0D01*
G01*
X10046500Y-7251700D02*
G75*
G02*
X10146500Y-7251700I50000J0D01*
G01*
X10122700Y-4026700D02*
X10222700Y-4126700D01*
X10222700Y-4026700D02*
X10122700Y-4126700D01*
X10222700Y-4076700D02*
G75*
G02*
X10122700Y-4076700I-50000J0D01*
G01*
X10122700Y-4076700D02*
G75*
G02*
X10222700Y-4076700I50000J0D01*
G01*
X10122700Y-4280700D02*
X10222700Y-4380700D01*
X10222700Y-4280700D02*
X10122700Y-4380700D01*
X10222700Y-4330700D02*
G75*
G02*
X10122700Y-4330700I-50000J0D01*
G01*
X10122700Y-4330700D02*
G75*
G02*
X10222700Y-4330700I50000J0D01*
G01*
X10300500Y-7201700D02*
X10400500Y-7301700D01*
X10400500Y-7201700D02*
X10300500Y-7301700D01*
X10400500Y-7251700D02*
G75*
G02*
X10300500Y-7251700I-50000J0D01*
G01*
X10300500Y-7251700D02*
G75*
G02*
X10400500Y-7251700I50000J0D01*
G01*
X10376700Y-4026700D02*
X10476700Y-4126700D01*
X10476700Y-4026700D02*
X10376700Y-4126700D01*
X10476700Y-4076700D02*
G75*
G02*
X10376700Y-4076700I-50000J0D01*
G01*
X10376700Y-4076700D02*
G75*
G02*
X10476700Y-4076700I50000J0D01*
G01*
X10376700Y-4280700D02*
X10476700Y-4380700D01*
X10476700Y-4280700D02*
X10376700Y-4380700D01*
X10476700Y-4330700D02*
G75*
G02*
X10376700Y-4330700I-50000J0D01*
G01*
X10376700Y-4330700D02*
G75*
G02*
X10476700Y-4330700I50000J0D01*
G01*
X10554500Y-7201700D02*
X10654500Y-7301700D01*
X10654500Y-7201700D02*
X10554500Y-7301700D01*
X10654500Y-7251700D02*
G75*
G02*
X10554500Y-7251700I-50000J0D01*
G01*
X10554500Y-7251700D02*
G75*
G02*
X10654500Y-7251700I50000J0D01*
G01*
X10630700Y-4026700D02*
X10730700Y-4126700D01*
X10730700Y-4026700D02*
X10630700Y-4126700D01*
X10730700Y-4076700D02*
G75*
G02*
X10630700Y-4076700I-50000J0D01*
G01*
X10630700Y-4076700D02*
G75*
G02*
X10730700Y-4076700I50000J0D01*
G01*
X10630700Y-4280700D02*
X10730700Y-4380700D01*
X10730700Y-4280700D02*
X10630700Y-4380700D01*
X10730700Y-4330700D02*
G75*
G02*
X10630700Y-4330700I-50000J0D01*
G01*
X10630700Y-4330700D02*
G75*
G02*
X10730700Y-4330700I50000J0D01*
G01*
X10808500Y-7201700D02*
X10908500Y-7301700D01*
X10908500Y-7201700D02*
X10808500Y-7301700D01*
X10908500Y-7251700D02*
G75*
G02*
X10808500Y-7251700I-50000J0D01*
G01*
X10808500Y-7251700D02*
G75*
G02*
X10908500Y-7251700I50000J0D01*
G01*
X10884700Y-4026700D02*
X10984700Y-4126700D01*
X10984700Y-4026700D02*
X10884700Y-4126700D01*
X10984700Y-4076700D02*
G75*
G02*
X10884700Y-4076700I-50000J0D01*
G01*
X10884700Y-4076700D02*
G75*
G02*
X10984700Y-4076700I50000J0D01*
G01*
X10884700Y-4280700D02*
X10984700Y-4380700D01*
X10984700Y-4280700D02*
X10884700Y-4380700D01*
X10984700Y-4330700D02*
G75*
G02*
X10884700Y-4330700I-50000J0D01*
G01*
X10884700Y-4330700D02*
G75*
G02*
X10984700Y-4330700I50000J0D01*
G01*
X11062500Y-7201700D02*
X11162500Y-7301700D01*
X11162500Y-7201700D02*
X11062500Y-7301700D01*
X11162500Y-7251700D02*
G75*
G02*
X11062500Y-7251700I-50000J0D01*
G01*
X11062500Y-7251700D02*
G75*
G02*
X11162500Y-7251700I50000J0D01*
G01*
X11138700Y-4026700D02*
X11238700Y-4126700D01*
X11238700Y-4026700D02*
X11138700Y-4126700D01*
X11238700Y-4076700D02*
G75*
G02*
X11138700Y-4076700I-50000J0D01*
G01*
X11138700Y-4076700D02*
G75*
G02*
X11238700Y-4076700I50000J0D01*
G01*
X11138700Y-4280700D02*
X11238700Y-4380700D01*
X11238700Y-4280700D02*
X11138700Y-4380700D01*
X11238700Y-4330700D02*
G75*
G02*
X11138700Y-4330700I-50000J0D01*
G01*
X11138700Y-4330700D02*
G75*
G02*
X11238700Y-4330700I50000J0D01*
G01*
X11316500Y-7201700D02*
X11416500Y-7301700D01*
X11416500Y-7201700D02*
X11316500Y-7301700D01*
X11416500Y-7251700D02*
G75*
G02*
X11316500Y-7251700I-50000J0D01*
G01*
X11316500Y-7251700D02*
G75*
G02*
X11416500Y-7251700I50000J0D01*
G01*
X11392700Y-4026700D02*
X11492700Y-4126700D01*
X11492700Y-4026700D02*
X11392700Y-4126700D01*
X11492700Y-4076700D02*
G75*
G02*
X11392700Y-4076700I-50000J0D01*
G01*
X11392700Y-4076700D02*
G75*
G02*
X11492700Y-4076700I50000J0D01*
G01*
X11392700Y-4280700D02*
X11492700Y-4380700D01*
X11492700Y-4280700D02*
X11392700Y-4380700D01*
X11492700Y-4330700D02*
G75*
G02*
X11392700Y-4330700I-50000J0D01*
G01*
X11392700Y-4330700D02*
G75*
G02*
X11492700Y-4330700I50000J0D01*
G01*
X13526300Y-7417600D02*
X13626300Y-7517600D01*
X13626300Y-7417600D02*
X13526300Y-7517600D01*
X13626300Y-7467600D02*
G75*
G02*
X13526300Y-7467600I-50000J0D01*
G01*
X13526300Y-7467600D02*
G75*
G02*
X13626300Y-7467600I50000J0D01*
G01*
X13780300Y-7417600D02*
X13880300Y-7517600D01*
X13880300Y-7417600D02*
X13780300Y-7517600D01*
X13880300Y-7467600D02*
G75*
G02*
X13780300Y-7467600I-50000J0D01*
G01*
X13780300Y-7467600D02*
G75*
G02*
X13880300Y-7467600I50000J0D01*
G01*
X14034300Y-7417600D02*
X14134300Y-7517600D01*
X14134300Y-7417600D02*
X14034300Y-7517600D01*
X14134300Y-7467600D02*
G75*
G02*
X14034300Y-7467600I-50000J0D01*
G01*
X14034300Y-7467600D02*
G75*
G02*
X14134300Y-7467600I50000J0D01*
G01*
X14288300Y-7417600D02*
X14388300Y-7517600D01*
X14388300Y-7417600D02*
X14288300Y-7517600D01*
X14388300Y-7467600D02*
G75*
G02*
X14288300Y-7467600I-50000J0D01*
G01*
X14288300Y-7467600D02*
G75*
G02*
X14388300Y-7467600I50000J0D01*
G01*
X14542000Y-3750000D02*
X14642000Y-3850000D01*
X14642000Y-3750000D02*
X14542000Y-3850000D01*
X14642000Y-3800000D02*
G75*
G02*
X14542000Y-3800000I-50000J0D01*
G01*
X14542000Y-3800000D02*
G75*
G02*
X14642000Y-3800000I50000J0D01*
G01*
X14542300Y-7417600D02*
X14642300Y-7517600D01*
X14642300Y-7417600D02*
X14542300Y-7517600D01*
X14642300Y-7467600D02*
G75*
G02*
X14542300Y-7467600I-50000J0D01*
G01*
X14542300Y-7467600D02*
G75*
G02*
X14642300Y-7467600I50000J0D01*
G01*
X14796000Y-3750000D02*
X14896000Y-3850000D01*
X14896000Y-3750000D02*
X14796000Y-3850000D01*
X14896000Y-3800000D02*
G75*
G02*
X14796000Y-3800000I-50000J0D01*
G01*
X14796000Y-3800000D02*
G75*
G02*
X14896000Y-3800000I50000J0D01*
G01*
X15050000Y-3750000D02*
X15150000Y-3850000D01*
X15150000Y-3750000D02*
X15050000Y-3850000D01*
X15150000Y-3800000D02*
G75*
G02*
X15050000Y-3800000I-50000J0D01*
G01*
X15050000Y-3800000D02*
G75*
G02*
X15150000Y-3800000I50000J0D01*
G01*
X16496000Y-3750000D02*
X16596000Y-3850000D01*
X16596000Y-3750000D02*
X16496000Y-3850000D01*
X16596000Y-3800000D02*
G75*
G02*
X16496000Y-3800000I-50000J0D01*
G01*
X16496000Y-3800000D02*
G75*
G02*
X16596000Y-3800000I50000J0D01*
G01*
X16750000Y-3750000D02*
X16850000Y-3850000D01*
X16850000Y-3750000D02*
X16750000Y-3850000D01*
X16850000Y-3800000D02*
G75*
G02*
X16750000Y-3800000I-50000J0D01*
G01*
X16750000Y-3800000D02*
G75*
G02*
X16850000Y-3800000I50000J0D01*
G01*
D13*
X17040000Y-4840000D02*
X17160000Y-4960000D01*
X17160000Y-4840000D02*
X17040000Y-4960000D01*
X17100000Y-4840000D02*
X17100000Y-4960000D01*
X17040000Y-4900000D02*
X17160000Y-4900000D01*
X17040000Y-5090000D02*
X17160000Y-5210000D01*
X17160000Y-5090000D02*
X17040000Y-5210000D01*
X17100000Y-5090000D02*
X17100000Y-5210000D01*
X17040000Y-5150000D02*
X17160000Y-5150000D01*
X17040000Y-5340000D02*
X17160000Y-5460000D01*
X17160000Y-5340000D02*
X17040000Y-5460000D01*
X17100000Y-5340000D02*
X17100000Y-5460000D01*
X17040000Y-5400000D02*
X17160000Y-5400000D01*
X17040000Y-6440000D02*
X17160000Y-6560000D01*
X17160000Y-6440000D02*
X17040000Y-6560000D01*
X17100000Y-6440000D02*
X17100000Y-6560000D01*
X17040000Y-6500000D02*
X17160000Y-6500000D01*
X17040000Y-6690000D02*
X17160000Y-6810000D01*
X17160000Y-6690000D02*
X17040000Y-6810000D01*
X17100000Y-6690000D02*
X17100000Y-6810000D01*
X17040000Y-6750000D02*
X17160000Y-6750000D01*
X17040000Y-6940000D02*
X17160000Y-7060000D01*
X17160000Y-6940000D02*
X17040000Y-7060000D01*
X17100000Y-6940000D02*
X17100000Y-7060000D01*
X17040000Y-7000000D02*
X17160000Y-7000000D01*
D14*
X16251500Y-4561500D02*
X16548500Y-4858500D01*
X16548500Y-4561500D02*
X16251500Y-4858500D01*
X16505006Y-4815006D02*
X16505006Y-4604994D01*
X16294994Y-4604994D01*
X16294994Y-4815006D01*
X16505006Y-4815006D01*
X16251500Y-5441500D02*
X16548500Y-5738500D01*
X16548500Y-5441500D02*
X16251500Y-5738500D01*
X16505006Y-5695006D02*
X16505006Y-5484994D01*
X16294994Y-5484994D01*
X16294994Y-5695006D01*
X16505006Y-5695006D01*
X16251500Y-6161500D02*
X16548500Y-6458500D01*
X16548500Y-6161500D02*
X16251500Y-6458500D01*
X16505006Y-6415006D02*
X16505006Y-6204994D01*
X16294994Y-6204994D01*
X16294994Y-6415006D01*
X16505006Y-6415006D01*
X16251500Y-7041500D02*
X16548500Y-7338500D01*
X16548500Y-7041500D02*
X16251500Y-7338500D01*
X16505006Y-7295006D02*
X16505006Y-7084994D01*
X16294994Y-7084994D01*
X16294994Y-7295006D01*
X16505006Y-7295006D01*
D11*
X8958277Y-8213984D02*
X8958277Y-8013984D01*
X8958277Y-8013984D02*
X9005896Y-8013984D01*
X9005896Y-8013984D02*
X9034467Y-8023508D01*
X9034467Y-8023508D02*
X9053515Y-8042555D01*
X9053515Y-8042555D02*
X9063039Y-8061603D01*
X9063039Y-8061603D02*
X9072563Y-8099698D01*
X9072563Y-8099698D02*
X9072563Y-8128269D01*
X9072563Y-8128269D02*
X9063039Y-8166365D01*
X9063039Y-8166365D02*
X9053515Y-8185412D01*
X9053515Y-8185412D02*
X9034467Y-8204460D01*
X9034467Y-8204460D02*
X9005896Y-8213984D01*
X9005896Y-8213984D02*
X8958277Y-8213984D01*
X9158277Y-8213984D02*
X9158277Y-8080650D01*
X9158277Y-8118746D02*
X9167801Y-8099698D01*
X9167801Y-8099698D02*
X9177324Y-8090174D01*
X9177324Y-8090174D02*
X9196372Y-8080650D01*
X9196372Y-8080650D02*
X9215420Y-8080650D01*
X9282086Y-8213984D02*
X9282086Y-8080650D01*
X9282086Y-8013984D02*
X9272563Y-8023508D01*
X9272563Y-8023508D02*
X9282086Y-8033031D01*
X9282086Y-8033031D02*
X9291610Y-8023508D01*
X9291610Y-8023508D02*
X9282086Y-8013984D01*
X9282086Y-8013984D02*
X9282086Y-8033031D01*
X9405896Y-8213984D02*
X9386848Y-8204460D01*
X9386848Y-8204460D02*
X9377324Y-8185412D01*
X9377324Y-8185412D02*
X9377324Y-8013984D01*
X9510658Y-8213984D02*
X9491610Y-8204460D01*
X9491610Y-8204460D02*
X9482086Y-8185412D01*
X9482086Y-8185412D02*
X9482086Y-8013984D01*
X9739229Y-8213984D02*
X9739229Y-8013984D01*
X9739229Y-8013984D02*
X9805896Y-8156841D01*
X9805896Y-8156841D02*
X9872563Y-8013984D01*
X9872563Y-8013984D02*
X9872563Y-8213984D01*
X10053515Y-8213984D02*
X10053515Y-8109222D01*
X10053515Y-8109222D02*
X10043991Y-8090174D01*
X10043991Y-8090174D02*
X10024944Y-8080650D01*
X10024944Y-8080650D02*
X9986848Y-8080650D01*
X9986848Y-8080650D02*
X9967801Y-8090174D01*
X10053515Y-8204460D02*
X10034467Y-8213984D01*
X10034467Y-8213984D02*
X9986848Y-8213984D01*
X9986848Y-8213984D02*
X9967801Y-8204460D01*
X9967801Y-8204460D02*
X9958277Y-8185412D01*
X9958277Y-8185412D02*
X9958277Y-8166365D01*
X9958277Y-8166365D02*
X9967801Y-8147317D01*
X9967801Y-8147317D02*
X9986848Y-8137793D01*
X9986848Y-8137793D02*
X10034467Y-8137793D01*
X10034467Y-8137793D02*
X10053515Y-8128269D01*
X10148753Y-8080650D02*
X10148753Y-8280650D01*
X10148753Y-8090174D02*
X10167801Y-8080650D01*
X10167801Y-8080650D02*
X10205896Y-8080650D01*
X10205896Y-8080650D02*
X10224944Y-8090174D01*
X10224944Y-8090174D02*
X10234467Y-8099698D01*
X10234467Y-8099698D02*
X10243991Y-8118746D01*
X10243991Y-8118746D02*
X10243991Y-8175888D01*
X10243991Y-8175888D02*
X10234467Y-8194936D01*
X10234467Y-8194936D02*
X10224944Y-8204460D01*
X10224944Y-8204460D02*
X10205896Y-8213984D01*
X10205896Y-8213984D02*
X10167801Y-8213984D01*
X10167801Y-8213984D02*
X10148753Y-8204460D01*
X10329705Y-8194936D02*
X10339229Y-8204460D01*
X10339229Y-8204460D02*
X10329705Y-8213984D01*
X10329705Y-8213984D02*
X10320182Y-8204460D01*
X10320182Y-8204460D02*
X10329705Y-8194936D01*
X10329705Y-8194936D02*
X10329705Y-8213984D01*
X10329705Y-8090174D02*
X10339229Y-8099698D01*
X10339229Y-8099698D02*
X10329705Y-8109222D01*
X10329705Y-8109222D02*
X10320182Y-8099698D01*
X10320182Y-8099698D02*
X10329705Y-8090174D01*
X10329705Y-8090174D02*
X10329705Y-8109222D01*
D12*
X8667500Y-8527500D02*
X8697500Y-8557500D01*
X8697500Y-8527500D02*
X8667500Y-8557500D01*
D11*
X8996372Y-8433984D02*
X9015420Y-8433984D01*
X9015420Y-8433984D02*
X9034467Y-8443508D01*
X9034467Y-8443508D02*
X9043991Y-8453031D01*
X9043991Y-8453031D02*
X9053515Y-8472079D01*
X9053515Y-8472079D02*
X9063039Y-8510174D01*
X9063039Y-8510174D02*
X9063039Y-8557793D01*
X9063039Y-8557793D02*
X9053515Y-8595889D01*
X9053515Y-8595889D02*
X9043991Y-8614936D01*
X9043991Y-8614936D02*
X9034467Y-8624460D01*
X9034467Y-8624460D02*
X9015420Y-8633984D01*
X9015420Y-8633984D02*
X8996372Y-8633984D01*
X8996372Y-8633984D02*
X8977324Y-8624460D01*
X8977324Y-8624460D02*
X8967801Y-8614936D01*
X8967801Y-8614936D02*
X8958277Y-8595889D01*
X8958277Y-8595889D02*
X8948753Y-8557793D01*
X8948753Y-8557793D02*
X8948753Y-8510174D01*
X8948753Y-8510174D02*
X8958277Y-8472079D01*
X8958277Y-8472079D02*
X8967801Y-8453031D01*
X8967801Y-8453031D02*
X8977324Y-8443508D01*
X8977324Y-8443508D02*
X8996372Y-8433984D01*
X9148753Y-8614936D02*
X9158277Y-8624460D01*
X9158277Y-8624460D02*
X9148753Y-8633984D01*
X9148753Y-8633984D02*
X9139229Y-8624460D01*
X9139229Y-8624460D02*
X9148753Y-8614936D01*
X9148753Y-8614936D02*
X9148753Y-8633984D01*
X9224944Y-8433984D02*
X9348753Y-8433984D01*
X9348753Y-8433984D02*
X9282086Y-8510174D01*
X9282086Y-8510174D02*
X9310658Y-8510174D01*
X9310658Y-8510174D02*
X9329705Y-8519698D01*
X9329705Y-8519698D02*
X9339229Y-8529222D01*
X9339229Y-8529222D02*
X9348753Y-8548270D01*
X9348753Y-8548270D02*
X9348753Y-8595889D01*
X9348753Y-8595889D02*
X9339229Y-8614936D01*
X9339229Y-8614936D02*
X9329705Y-8624460D01*
X9329705Y-8624460D02*
X9310658Y-8633984D01*
X9310658Y-8633984D02*
X9253515Y-8633984D01*
X9253515Y-8633984D02*
X9234467Y-8624460D01*
X9234467Y-8624460D02*
X9224944Y-8614936D01*
X9472563Y-8433984D02*
X9491610Y-8433984D01*
X9491610Y-8433984D02*
X9510658Y-8443508D01*
X9510658Y-8443508D02*
X9520182Y-8453031D01*
X9520182Y-8453031D02*
X9529705Y-8472079D01*
X9529705Y-8472079D02*
X9539229Y-8510174D01*
X9539229Y-8510174D02*
X9539229Y-8557793D01*
X9539229Y-8557793D02*
X9529705Y-8595889D01*
X9529705Y-8595889D02*
X9520182Y-8614936D01*
X9520182Y-8614936D02*
X9510658Y-8624460D01*
X9510658Y-8624460D02*
X9491610Y-8633984D01*
X9491610Y-8633984D02*
X9472563Y-8633984D01*
X9472563Y-8633984D02*
X9453515Y-8624460D01*
X9453515Y-8624460D02*
X9443991Y-8614936D01*
X9443991Y-8614936D02*
X9434467Y-8595889D01*
X9434467Y-8595889D02*
X9424944Y-8557793D01*
X9424944Y-8557793D02*
X9424944Y-8510174D01*
X9424944Y-8510174D02*
X9434467Y-8472079D01*
X9434467Y-8472079D02*
X9443991Y-8453031D01*
X9443991Y-8453031D02*
X9453515Y-8443508D01*
X9453515Y-8443508D02*
X9472563Y-8433984D01*
X9663039Y-8433984D02*
X9682086Y-8433984D01*
X9682086Y-8433984D02*
X9701134Y-8443508D01*
X9701134Y-8443508D02*
X9710658Y-8453031D01*
X9710658Y-8453031D02*
X9720182Y-8472079D01*
X9720182Y-8472079D02*
X9729705Y-8510174D01*
X9729705Y-8510174D02*
X9729705Y-8557793D01*
X9729705Y-8557793D02*
X9720182Y-8595889D01*
X9720182Y-8595889D02*
X9710658Y-8614936D01*
X9710658Y-8614936D02*
X9701134Y-8624460D01*
X9701134Y-8624460D02*
X9682086Y-8633984D01*
X9682086Y-8633984D02*
X9663039Y-8633984D01*
X9663039Y-8633984D02*
X9643991Y-8624460D01*
X9643991Y-8624460D02*
X9634467Y-8614936D01*
X9634467Y-8614936D02*
X9624944Y-8595889D01*
X9624944Y-8595889D02*
X9615420Y-8557793D01*
X9615420Y-8557793D02*
X9615420Y-8510174D01*
X9615420Y-8510174D02*
X9624944Y-8472079D01*
X9624944Y-8472079D02*
X9634467Y-8453031D01*
X9634467Y-8453031D02*
X9643991Y-8443508D01*
X9643991Y-8443508D02*
X9663039Y-8433984D01*
X9815420Y-8633984D02*
X9815420Y-8500650D01*
X9815420Y-8519698D02*
X9824944Y-8510174D01*
X9824944Y-8510174D02*
X9843991Y-8500650D01*
X9843991Y-8500650D02*
X9872563Y-8500650D01*
X9872563Y-8500650D02*
X9891610Y-8510174D01*
X9891610Y-8510174D02*
X9901134Y-8529222D01*
X9901134Y-8529222D02*
X9901134Y-8633984D01*
X9901134Y-8529222D02*
X9910658Y-8510174D01*
X9910658Y-8510174D02*
X9929705Y-8500650D01*
X9929705Y-8500650D02*
X9958277Y-8500650D01*
X9958277Y-8500650D02*
X9977325Y-8510174D01*
X9977325Y-8510174D02*
X9986848Y-8529222D01*
X9986848Y-8529222D02*
X9986848Y-8633984D01*
X10082086Y-8633984D02*
X10082086Y-8500650D01*
X10082086Y-8519698D02*
X10091610Y-8510174D01*
X10091610Y-8510174D02*
X10110658Y-8500650D01*
X10110658Y-8500650D02*
X10139229Y-8500650D01*
X10139229Y-8500650D02*
X10158277Y-8510174D01*
X10158277Y-8510174D02*
X10167801Y-8529222D01*
X10167801Y-8529222D02*
X10167801Y-8633984D01*
X10167801Y-8529222D02*
X10177325Y-8510174D01*
X10177325Y-8510174D02*
X10196372Y-8500650D01*
X10196372Y-8500650D02*
X10224944Y-8500650D01*
X10224944Y-8500650D02*
X10243991Y-8510174D01*
X10243991Y-8510174D02*
X10253515Y-8529222D01*
X10253515Y-8529222D02*
X10253515Y-8633984D01*
X10643991Y-8424460D02*
X10472563Y-8681603D01*
X10901134Y-8433984D02*
X10920182Y-8433984D01*
X10920182Y-8433984D02*
X10939229Y-8443508D01*
X10939229Y-8443508D02*
X10948753Y-8453031D01*
X10948753Y-8453031D02*
X10958277Y-8472079D01*
X10958277Y-8472079D02*
X10967801Y-8510174D01*
X10967801Y-8510174D02*
X10967801Y-8557793D01*
X10967801Y-8557793D02*
X10958277Y-8595889D01*
X10958277Y-8595889D02*
X10948753Y-8614936D01*
X10948753Y-8614936D02*
X10939229Y-8624460D01*
X10939229Y-8624460D02*
X10920182Y-8633984D01*
X10920182Y-8633984D02*
X10901134Y-8633984D01*
X10901134Y-8633984D02*
X10882087Y-8624460D01*
X10882087Y-8624460D02*
X10872563Y-8614936D01*
X10872563Y-8614936D02*
X10863039Y-8595889D01*
X10863039Y-8595889D02*
X10853515Y-8557793D01*
X10853515Y-8557793D02*
X10853515Y-8510174D01*
X10853515Y-8510174D02*
X10863039Y-8472079D01*
X10863039Y-8472079D02*
X10872563Y-8453031D01*
X10872563Y-8453031D02*
X10882087Y-8443508D01*
X10882087Y-8443508D02*
X10901134Y-8433984D01*
X11053515Y-8614936D02*
X11063039Y-8624460D01*
X11063039Y-8624460D02*
X11053515Y-8633984D01*
X11053515Y-8633984D02*
X11043991Y-8624460D01*
X11043991Y-8624460D02*
X11053515Y-8614936D01*
X11053515Y-8614936D02*
X11053515Y-8633984D01*
X11186848Y-8433984D02*
X11205896Y-8433984D01*
X11205896Y-8433984D02*
X11224944Y-8443508D01*
X11224944Y-8443508D02*
X11234467Y-8453031D01*
X11234467Y-8453031D02*
X11243991Y-8472079D01*
X11243991Y-8472079D02*
X11253515Y-8510174D01*
X11253515Y-8510174D02*
X11253515Y-8557793D01*
X11253515Y-8557793D02*
X11243991Y-8595889D01*
X11243991Y-8595889D02*
X11234467Y-8614936D01*
X11234467Y-8614936D02*
X11224944Y-8624460D01*
X11224944Y-8624460D02*
X11205896Y-8633984D01*
X11205896Y-8633984D02*
X11186848Y-8633984D01*
X11186848Y-8633984D02*
X11167801Y-8624460D01*
X11167801Y-8624460D02*
X11158277Y-8614936D01*
X11158277Y-8614936D02*
X11148753Y-8595889D01*
X11148753Y-8595889D02*
X11139229Y-8557793D01*
X11139229Y-8557793D02*
X11139229Y-8510174D01*
X11139229Y-8510174D02*
X11148753Y-8472079D01*
X11148753Y-8472079D02*
X11158277Y-8453031D01*
X11158277Y-8453031D02*
X11167801Y-8443508D01*
X11167801Y-8443508D02*
X11186848Y-8433984D01*
X11443991Y-8633984D02*
X11329706Y-8633984D01*
X11386848Y-8633984D02*
X11386848Y-8433984D01*
X11386848Y-8433984D02*
X11367801Y-8462555D01*
X11367801Y-8462555D02*
X11348753Y-8481603D01*
X11348753Y-8481603D02*
X11329706Y-8491127D01*
X11634467Y-8633984D02*
X11520182Y-8633984D01*
X11577325Y-8633984D02*
X11577325Y-8433984D01*
X11577325Y-8433984D02*
X11558277Y-8462555D01*
X11558277Y-8462555D02*
X11539229Y-8481603D01*
X11539229Y-8481603D02*
X11520182Y-8491127D01*
X11748753Y-8519698D02*
X11729706Y-8510174D01*
X11729706Y-8510174D02*
X11720182Y-8500650D01*
X11720182Y-8500650D02*
X11710658Y-8481603D01*
X11710658Y-8481603D02*
X11710658Y-8472079D01*
X11710658Y-8472079D02*
X11720182Y-8453031D01*
X11720182Y-8453031D02*
X11729706Y-8443508D01*
X11729706Y-8443508D02*
X11748753Y-8433984D01*
X11748753Y-8433984D02*
X11786848Y-8433984D01*
X11786848Y-8433984D02*
X11805896Y-8443508D01*
X11805896Y-8443508D02*
X11815420Y-8453031D01*
X11815420Y-8453031D02*
X11824944Y-8472079D01*
X11824944Y-8472079D02*
X11824944Y-8481603D01*
X11824944Y-8481603D02*
X11815420Y-8500650D01*
X11815420Y-8500650D02*
X11805896Y-8510174D01*
X11805896Y-8510174D02*
X11786848Y-8519698D01*
X11786848Y-8519698D02*
X11748753Y-8519698D01*
X11748753Y-8519698D02*
X11729706Y-8529222D01*
X11729706Y-8529222D02*
X11720182Y-8538746D01*
X11720182Y-8538746D02*
X11710658Y-8557793D01*
X11710658Y-8557793D02*
X11710658Y-8595889D01*
X11710658Y-8595889D02*
X11720182Y-8614936D01*
X11720182Y-8614936D02*
X11729706Y-8624460D01*
X11729706Y-8624460D02*
X11748753Y-8633984D01*
X11748753Y-8633984D02*
X11786848Y-8633984D01*
X11786848Y-8633984D02*
X11805896Y-8624460D01*
X11805896Y-8624460D02*
X11815420Y-8614936D01*
X11815420Y-8614936D02*
X11824944Y-8595889D01*
X11824944Y-8595889D02*
X11824944Y-8557793D01*
X11824944Y-8557793D02*
X11815420Y-8538746D01*
X11815420Y-8538746D02*
X11805896Y-8529222D01*
X11805896Y-8529222D02*
X11786848Y-8519698D01*
X11901134Y-8433984D02*
X11901134Y-8472079D01*
X11977325Y-8433984D02*
X11977325Y-8472079D01*
X12272563Y-8710174D02*
X12263039Y-8700650D01*
X12263039Y-8700650D02*
X12243991Y-8672079D01*
X12243991Y-8672079D02*
X12234468Y-8653031D01*
X12234468Y-8653031D02*
X12224944Y-8624460D01*
X12224944Y-8624460D02*
X12215420Y-8576841D01*
X12215420Y-8576841D02*
X12215420Y-8538746D01*
X12215420Y-8538746D02*
X12224944Y-8491127D01*
X12224944Y-8491127D02*
X12234468Y-8462555D01*
X12234468Y-8462555D02*
X12243991Y-8443508D01*
X12243991Y-8443508D02*
X12263039Y-8414936D01*
X12263039Y-8414936D02*
X12272563Y-8405412D01*
X12453515Y-8633984D02*
X12339229Y-8633984D01*
X12396372Y-8633984D02*
X12396372Y-8433984D01*
X12396372Y-8433984D02*
X12377325Y-8462555D01*
X12377325Y-8462555D02*
X12358277Y-8481603D01*
X12358277Y-8481603D02*
X12339229Y-8491127D01*
X12691610Y-8633984D02*
X12691610Y-8433984D01*
X12777325Y-8633984D02*
X12777325Y-8529222D01*
X12777325Y-8529222D02*
X12767801Y-8510174D01*
X12767801Y-8510174D02*
X12748753Y-8500650D01*
X12748753Y-8500650D02*
X12720182Y-8500650D01*
X12720182Y-8500650D02*
X12701134Y-8510174D01*
X12701134Y-8510174D02*
X12691610Y-8519698D01*
X12901134Y-8633984D02*
X12882087Y-8624460D01*
X12882087Y-8624460D02*
X12872563Y-8614936D01*
X12872563Y-8614936D02*
X12863039Y-8595889D01*
X12863039Y-8595889D02*
X12863039Y-8538746D01*
X12863039Y-8538746D02*
X12872563Y-8519698D01*
X12872563Y-8519698D02*
X12882087Y-8510174D01*
X12882087Y-8510174D02*
X12901134Y-8500650D01*
X12901134Y-8500650D02*
X12929706Y-8500650D01*
X12929706Y-8500650D02*
X12948753Y-8510174D01*
X12948753Y-8510174D02*
X12958277Y-8519698D01*
X12958277Y-8519698D02*
X12967801Y-8538746D01*
X12967801Y-8538746D02*
X12967801Y-8595889D01*
X12967801Y-8595889D02*
X12958277Y-8614936D01*
X12958277Y-8614936D02*
X12948753Y-8624460D01*
X12948753Y-8624460D02*
X12929706Y-8633984D01*
X12929706Y-8633984D02*
X12901134Y-8633984D01*
X13082087Y-8633984D02*
X13063039Y-8624460D01*
X13063039Y-8624460D02*
X13053515Y-8605412D01*
X13053515Y-8605412D02*
X13053515Y-8433984D01*
X13234468Y-8624460D02*
X13215420Y-8633984D01*
X13215420Y-8633984D02*
X13177325Y-8633984D01*
X13177325Y-8633984D02*
X13158277Y-8624460D01*
X13158277Y-8624460D02*
X13148753Y-8605412D01*
X13148753Y-8605412D02*
X13148753Y-8529222D01*
X13148753Y-8529222D02*
X13158277Y-8510174D01*
X13158277Y-8510174D02*
X13177325Y-8500650D01*
X13177325Y-8500650D02*
X13215420Y-8500650D01*
X13215420Y-8500650D02*
X13234468Y-8510174D01*
X13234468Y-8510174D02*
X13243991Y-8529222D01*
X13243991Y-8529222D02*
X13243991Y-8548270D01*
X13243991Y-8548270D02*
X13148753Y-8567317D01*
X13310658Y-8710174D02*
X13320182Y-8700650D01*
X13320182Y-8700650D02*
X13339230Y-8672079D01*
X13339230Y-8672079D02*
X13348753Y-8653031D01*
X13348753Y-8653031D02*
X13358277Y-8624460D01*
X13358277Y-8624460D02*
X13367801Y-8576841D01*
X13367801Y-8576841D02*
X13367801Y-8538746D01*
X13367801Y-8538746D02*
X13358277Y-8491127D01*
X13358277Y-8491127D02*
X13348753Y-8462555D01*
X13348753Y-8462555D02*
X13339230Y-8443508D01*
X13339230Y-8443508D02*
X13320182Y-8414936D01*
X13320182Y-8414936D02*
X13310658Y-8405412D01*
D12*
X8697500Y-8806500D02*
G75*
G02*
X8627500Y-8806500I-35000J0D01*
G01*
X8627500Y-8806500D02*
G75*
G02*
X8697500Y-8806500I35000J0D01*
G01*
D11*
X8996372Y-8697984D02*
X9015420Y-8697984D01*
X9015420Y-8697984D02*
X9034467Y-8707508D01*
X9034467Y-8707508D02*
X9043991Y-8717031D01*
X9043991Y-8717031D02*
X9053515Y-8736079D01*
X9053515Y-8736079D02*
X9063039Y-8774174D01*
X9063039Y-8774174D02*
X9063039Y-8821793D01*
X9063039Y-8821793D02*
X9053515Y-8859889D01*
X9053515Y-8859889D02*
X9043991Y-8878936D01*
X9043991Y-8878936D02*
X9034467Y-8888460D01*
X9034467Y-8888460D02*
X9015420Y-8897984D01*
X9015420Y-8897984D02*
X8996372Y-8897984D01*
X8996372Y-8897984D02*
X8977324Y-8888460D01*
X8977324Y-8888460D02*
X8967801Y-8878936D01*
X8967801Y-8878936D02*
X8958277Y-8859889D01*
X8958277Y-8859889D02*
X8948753Y-8821793D01*
X8948753Y-8821793D02*
X8948753Y-8774174D01*
X8948753Y-8774174D02*
X8958277Y-8736079D01*
X8958277Y-8736079D02*
X8967801Y-8717031D01*
X8967801Y-8717031D02*
X8977324Y-8707508D01*
X8977324Y-8707508D02*
X8996372Y-8697984D01*
X9148753Y-8878936D02*
X9158277Y-8888460D01*
X9158277Y-8888460D02*
X9148753Y-8897984D01*
X9148753Y-8897984D02*
X9139229Y-8888460D01*
X9139229Y-8888460D02*
X9148753Y-8878936D01*
X9148753Y-8878936D02*
X9148753Y-8897984D01*
X9224944Y-8697984D02*
X9358277Y-8697984D01*
X9358277Y-8697984D02*
X9272563Y-8897984D01*
X9472563Y-8697984D02*
X9491610Y-8697984D01*
X9491610Y-8697984D02*
X9510658Y-8707508D01*
X9510658Y-8707508D02*
X9520182Y-8717031D01*
X9520182Y-8717031D02*
X9529705Y-8736079D01*
X9529705Y-8736079D02*
X9539229Y-8774174D01*
X9539229Y-8774174D02*
X9539229Y-8821793D01*
X9539229Y-8821793D02*
X9529705Y-8859889D01*
X9529705Y-8859889D02*
X9520182Y-8878936D01*
X9520182Y-8878936D02*
X9510658Y-8888460D01*
X9510658Y-8888460D02*
X9491610Y-8897984D01*
X9491610Y-8897984D02*
X9472563Y-8897984D01*
X9472563Y-8897984D02*
X9453515Y-8888460D01*
X9453515Y-8888460D02*
X9443991Y-8878936D01*
X9443991Y-8878936D02*
X9434467Y-8859889D01*
X9434467Y-8859889D02*
X9424944Y-8821793D01*
X9424944Y-8821793D02*
X9424944Y-8774174D01*
X9424944Y-8774174D02*
X9434467Y-8736079D01*
X9434467Y-8736079D02*
X9443991Y-8717031D01*
X9443991Y-8717031D02*
X9453515Y-8707508D01*
X9453515Y-8707508D02*
X9472563Y-8697984D01*
X9663039Y-8697984D02*
X9682086Y-8697984D01*
X9682086Y-8697984D02*
X9701134Y-8707508D01*
X9701134Y-8707508D02*
X9710658Y-8717031D01*
X9710658Y-8717031D02*
X9720182Y-8736079D01*
X9720182Y-8736079D02*
X9729705Y-8774174D01*
X9729705Y-8774174D02*
X9729705Y-8821793D01*
X9729705Y-8821793D02*
X9720182Y-8859889D01*
X9720182Y-8859889D02*
X9710658Y-8878936D01*
X9710658Y-8878936D02*
X9701134Y-8888460D01*
X9701134Y-8888460D02*
X9682086Y-8897984D01*
X9682086Y-8897984D02*
X9663039Y-8897984D01*
X9663039Y-8897984D02*
X9643991Y-8888460D01*
X9643991Y-8888460D02*
X9634467Y-8878936D01*
X9634467Y-8878936D02*
X9624944Y-8859889D01*
X9624944Y-8859889D02*
X9615420Y-8821793D01*
X9615420Y-8821793D02*
X9615420Y-8774174D01*
X9615420Y-8774174D02*
X9624944Y-8736079D01*
X9624944Y-8736079D02*
X9634467Y-8717031D01*
X9634467Y-8717031D02*
X9643991Y-8707508D01*
X9643991Y-8707508D02*
X9663039Y-8697984D01*
X9815420Y-8897984D02*
X9815420Y-8764650D01*
X9815420Y-8783698D02*
X9824944Y-8774174D01*
X9824944Y-8774174D02*
X9843991Y-8764650D01*
X9843991Y-8764650D02*
X9872563Y-8764650D01*
X9872563Y-8764650D02*
X9891610Y-8774174D01*
X9891610Y-8774174D02*
X9901134Y-8793222D01*
X9901134Y-8793222D02*
X9901134Y-8897984D01*
X9901134Y-8793222D02*
X9910658Y-8774174D01*
X9910658Y-8774174D02*
X9929705Y-8764650D01*
X9929705Y-8764650D02*
X9958277Y-8764650D01*
X9958277Y-8764650D02*
X9977325Y-8774174D01*
X9977325Y-8774174D02*
X9986848Y-8793222D01*
X9986848Y-8793222D02*
X9986848Y-8897984D01*
X10082086Y-8897984D02*
X10082086Y-8764650D01*
X10082086Y-8783698D02*
X10091610Y-8774174D01*
X10091610Y-8774174D02*
X10110658Y-8764650D01*
X10110658Y-8764650D02*
X10139229Y-8764650D01*
X10139229Y-8764650D02*
X10158277Y-8774174D01*
X10158277Y-8774174D02*
X10167801Y-8793222D01*
X10167801Y-8793222D02*
X10167801Y-8897984D01*
X10167801Y-8793222D02*
X10177325Y-8774174D01*
X10177325Y-8774174D02*
X10196372Y-8764650D01*
X10196372Y-8764650D02*
X10224944Y-8764650D01*
X10224944Y-8764650D02*
X10243991Y-8774174D01*
X10243991Y-8774174D02*
X10253515Y-8793222D01*
X10253515Y-8793222D02*
X10253515Y-8897984D01*
X10643991Y-8688460D02*
X10472563Y-8945603D01*
X10901134Y-8697984D02*
X10920182Y-8697984D01*
X10920182Y-8697984D02*
X10939229Y-8707508D01*
X10939229Y-8707508D02*
X10948753Y-8717031D01*
X10948753Y-8717031D02*
X10958277Y-8736079D01*
X10958277Y-8736079D02*
X10967801Y-8774174D01*
X10967801Y-8774174D02*
X10967801Y-8821793D01*
X10967801Y-8821793D02*
X10958277Y-8859889D01*
X10958277Y-8859889D02*
X10948753Y-8878936D01*
X10948753Y-8878936D02*
X10939229Y-8888460D01*
X10939229Y-8888460D02*
X10920182Y-8897984D01*
X10920182Y-8897984D02*
X10901134Y-8897984D01*
X10901134Y-8897984D02*
X10882087Y-8888460D01*
X10882087Y-8888460D02*
X10872563Y-8878936D01*
X10872563Y-8878936D02*
X10863039Y-8859889D01*
X10863039Y-8859889D02*
X10853515Y-8821793D01*
X10853515Y-8821793D02*
X10853515Y-8774174D01*
X10853515Y-8774174D02*
X10863039Y-8736079D01*
X10863039Y-8736079D02*
X10872563Y-8717031D01*
X10872563Y-8717031D02*
X10882087Y-8707508D01*
X10882087Y-8707508D02*
X10901134Y-8697984D01*
X11053515Y-8878936D02*
X11063039Y-8888460D01*
X11063039Y-8888460D02*
X11053515Y-8897984D01*
X11053515Y-8897984D02*
X11043991Y-8888460D01*
X11043991Y-8888460D02*
X11053515Y-8878936D01*
X11053515Y-8878936D02*
X11053515Y-8897984D01*
X11186848Y-8697984D02*
X11205896Y-8697984D01*
X11205896Y-8697984D02*
X11224944Y-8707508D01*
X11224944Y-8707508D02*
X11234467Y-8717031D01*
X11234467Y-8717031D02*
X11243991Y-8736079D01*
X11243991Y-8736079D02*
X11253515Y-8774174D01*
X11253515Y-8774174D02*
X11253515Y-8821793D01*
X11253515Y-8821793D02*
X11243991Y-8859889D01*
X11243991Y-8859889D02*
X11234467Y-8878936D01*
X11234467Y-8878936D02*
X11224944Y-8888460D01*
X11224944Y-8888460D02*
X11205896Y-8897984D01*
X11205896Y-8897984D02*
X11186848Y-8897984D01*
X11186848Y-8897984D02*
X11167801Y-8888460D01*
X11167801Y-8888460D02*
X11158277Y-8878936D01*
X11158277Y-8878936D02*
X11148753Y-8859889D01*
X11148753Y-8859889D02*
X11139229Y-8821793D01*
X11139229Y-8821793D02*
X11139229Y-8774174D01*
X11139229Y-8774174D02*
X11148753Y-8736079D01*
X11148753Y-8736079D02*
X11158277Y-8717031D01*
X11158277Y-8717031D02*
X11167801Y-8707508D01*
X11167801Y-8707508D02*
X11186848Y-8697984D01*
X11329706Y-8717031D02*
X11339229Y-8707508D01*
X11339229Y-8707508D02*
X11358277Y-8697984D01*
X11358277Y-8697984D02*
X11405896Y-8697984D01*
X11405896Y-8697984D02*
X11424944Y-8707508D01*
X11424944Y-8707508D02*
X11434467Y-8717031D01*
X11434467Y-8717031D02*
X11443991Y-8736079D01*
X11443991Y-8736079D02*
X11443991Y-8755127D01*
X11443991Y-8755127D02*
X11434467Y-8783698D01*
X11434467Y-8783698D02*
X11320182Y-8897984D01*
X11320182Y-8897984D02*
X11443991Y-8897984D01*
X11510658Y-8697984D02*
X11643991Y-8697984D01*
X11643991Y-8697984D02*
X11558277Y-8897984D01*
X11805896Y-8697984D02*
X11767801Y-8697984D01*
X11767801Y-8697984D02*
X11748753Y-8707508D01*
X11748753Y-8707508D02*
X11739229Y-8717031D01*
X11739229Y-8717031D02*
X11720182Y-8745603D01*
X11720182Y-8745603D02*
X11710658Y-8783698D01*
X11710658Y-8783698D02*
X11710658Y-8859889D01*
X11710658Y-8859889D02*
X11720182Y-8878936D01*
X11720182Y-8878936D02*
X11729706Y-8888460D01*
X11729706Y-8888460D02*
X11748753Y-8897984D01*
X11748753Y-8897984D02*
X11786848Y-8897984D01*
X11786848Y-8897984D02*
X11805896Y-8888460D01*
X11805896Y-8888460D02*
X11815420Y-8878936D01*
X11815420Y-8878936D02*
X11824944Y-8859889D01*
X11824944Y-8859889D02*
X11824944Y-8812270D01*
X11824944Y-8812270D02*
X11815420Y-8793222D01*
X11815420Y-8793222D02*
X11805896Y-8783698D01*
X11805896Y-8783698D02*
X11786848Y-8774174D01*
X11786848Y-8774174D02*
X11748753Y-8774174D01*
X11748753Y-8774174D02*
X11729706Y-8783698D01*
X11729706Y-8783698D02*
X11720182Y-8793222D01*
X11720182Y-8793222D02*
X11710658Y-8812270D01*
X11901134Y-8697984D02*
X11901134Y-8736079D01*
X11977325Y-8697984D02*
X11977325Y-8736079D01*
X12272563Y-8974174D02*
X12263039Y-8964650D01*
X12263039Y-8964650D02*
X12243991Y-8936079D01*
X12243991Y-8936079D02*
X12234468Y-8917031D01*
X12234468Y-8917031D02*
X12224944Y-8888460D01*
X12224944Y-8888460D02*
X12215420Y-8840841D01*
X12215420Y-8840841D02*
X12215420Y-8802746D01*
X12215420Y-8802746D02*
X12224944Y-8755127D01*
X12224944Y-8755127D02*
X12234468Y-8726555D01*
X12234468Y-8726555D02*
X12243991Y-8707508D01*
X12243991Y-8707508D02*
X12263039Y-8678936D01*
X12263039Y-8678936D02*
X12272563Y-8669412D01*
X12339229Y-8717031D02*
X12348753Y-8707508D01*
X12348753Y-8707508D02*
X12367801Y-8697984D01*
X12367801Y-8697984D02*
X12415420Y-8697984D01*
X12415420Y-8697984D02*
X12434468Y-8707508D01*
X12434468Y-8707508D02*
X12443991Y-8717031D01*
X12443991Y-8717031D02*
X12453515Y-8736079D01*
X12453515Y-8736079D02*
X12453515Y-8755127D01*
X12453515Y-8755127D02*
X12443991Y-8783698D01*
X12443991Y-8783698D02*
X12329706Y-8897984D01*
X12329706Y-8897984D02*
X12453515Y-8897984D01*
X12624944Y-8697984D02*
X12586848Y-8697984D01*
X12586848Y-8697984D02*
X12567801Y-8707508D01*
X12567801Y-8707508D02*
X12558277Y-8717031D01*
X12558277Y-8717031D02*
X12539229Y-8745603D01*
X12539229Y-8745603D02*
X12529706Y-8783698D01*
X12529706Y-8783698D02*
X12529706Y-8859889D01*
X12529706Y-8859889D02*
X12539229Y-8878936D01*
X12539229Y-8878936D02*
X12548753Y-8888460D01*
X12548753Y-8888460D02*
X12567801Y-8897984D01*
X12567801Y-8897984D02*
X12605896Y-8897984D01*
X12605896Y-8897984D02*
X12624944Y-8888460D01*
X12624944Y-8888460D02*
X12634468Y-8878936D01*
X12634468Y-8878936D02*
X12643991Y-8859889D01*
X12643991Y-8859889D02*
X12643991Y-8812270D01*
X12643991Y-8812270D02*
X12634468Y-8793222D01*
X12634468Y-8793222D02*
X12624944Y-8783698D01*
X12624944Y-8783698D02*
X12605896Y-8774174D01*
X12605896Y-8774174D02*
X12567801Y-8774174D01*
X12567801Y-8774174D02*
X12548753Y-8783698D01*
X12548753Y-8783698D02*
X12539229Y-8793222D01*
X12539229Y-8793222D02*
X12529706Y-8812270D01*
X12882087Y-8897984D02*
X12882087Y-8697984D01*
X12967801Y-8897984D02*
X12967801Y-8793222D01*
X12967801Y-8793222D02*
X12958277Y-8774174D01*
X12958277Y-8774174D02*
X12939230Y-8764650D01*
X12939230Y-8764650D02*
X12910658Y-8764650D01*
X12910658Y-8764650D02*
X12891610Y-8774174D01*
X12891610Y-8774174D02*
X12882087Y-8783698D01*
X13091610Y-8897984D02*
X13072563Y-8888460D01*
X13072563Y-8888460D02*
X13063039Y-8878936D01*
X13063039Y-8878936D02*
X13053515Y-8859889D01*
X13053515Y-8859889D02*
X13053515Y-8802746D01*
X13053515Y-8802746D02*
X13063039Y-8783698D01*
X13063039Y-8783698D02*
X13072563Y-8774174D01*
X13072563Y-8774174D02*
X13091610Y-8764650D01*
X13091610Y-8764650D02*
X13120182Y-8764650D01*
X13120182Y-8764650D02*
X13139230Y-8774174D01*
X13139230Y-8774174D02*
X13148753Y-8783698D01*
X13148753Y-8783698D02*
X13158277Y-8802746D01*
X13158277Y-8802746D02*
X13158277Y-8859889D01*
X13158277Y-8859889D02*
X13148753Y-8878936D01*
X13148753Y-8878936D02*
X13139230Y-8888460D01*
X13139230Y-8888460D02*
X13120182Y-8897984D01*
X13120182Y-8897984D02*
X13091610Y-8897984D01*
X13272563Y-8897984D02*
X13253515Y-8888460D01*
X13253515Y-8888460D02*
X13243991Y-8869412D01*
X13243991Y-8869412D02*
X13243991Y-8697984D01*
X13424944Y-8888460D02*
X13405896Y-8897984D01*
X13405896Y-8897984D02*
X13367801Y-8897984D01*
X13367801Y-8897984D02*
X13348753Y-8888460D01*
X13348753Y-8888460D02*
X13339230Y-8869412D01*
X13339230Y-8869412D02*
X13339230Y-8793222D01*
X13339230Y-8793222D02*
X13348753Y-8774174D01*
X13348753Y-8774174D02*
X13367801Y-8764650D01*
X13367801Y-8764650D02*
X13405896Y-8764650D01*
X13405896Y-8764650D02*
X13424944Y-8774174D01*
X13424944Y-8774174D02*
X13434468Y-8793222D01*
X13434468Y-8793222D02*
X13434468Y-8812270D01*
X13434468Y-8812270D02*
X13339230Y-8831317D01*
X13510658Y-8888460D02*
X13529706Y-8897984D01*
X13529706Y-8897984D02*
X13567801Y-8897984D01*
X13567801Y-8897984D02*
X13586849Y-8888460D01*
X13586849Y-8888460D02*
X13596372Y-8869412D01*
X13596372Y-8869412D02*
X13596372Y-8859889D01*
X13596372Y-8859889D02*
X13586849Y-8840841D01*
X13586849Y-8840841D02*
X13567801Y-8831317D01*
X13567801Y-8831317D02*
X13539230Y-8831317D01*
X13539230Y-8831317D02*
X13520182Y-8821793D01*
X13520182Y-8821793D02*
X13510658Y-8802746D01*
X13510658Y-8802746D02*
X13510658Y-8793222D01*
X13510658Y-8793222D02*
X13520182Y-8774174D01*
X13520182Y-8774174D02*
X13539230Y-8764650D01*
X13539230Y-8764650D02*
X13567801Y-8764650D01*
X13567801Y-8764650D02*
X13586849Y-8774174D01*
X13663039Y-8974174D02*
X13672563Y-8964650D01*
X13672563Y-8964650D02*
X13691611Y-8936079D01*
X13691611Y-8936079D02*
X13701134Y-8917031D01*
X13701134Y-8917031D02*
X13710658Y-8888460D01*
X13710658Y-8888460D02*
X13720182Y-8840841D01*
X13720182Y-8840841D02*
X13720182Y-8802746D01*
X13720182Y-8802746D02*
X13710658Y-8755127D01*
X13710658Y-8755127D02*
X13701134Y-8726555D01*
X13701134Y-8726555D02*
X13691611Y-8707508D01*
X13691611Y-8707508D02*
X13672563Y-8678936D01*
X13672563Y-8678936D02*
X13663039Y-8669412D01*
D12*
X8660000Y-9033000D02*
X8660000Y-9108000D01*
X8622500Y-9070500D02*
X8697500Y-9070500D01*
D11*
X8996372Y-8961984D02*
X9015420Y-8961984D01*
X9015420Y-8961984D02*
X9034467Y-8971508D01*
X9034467Y-8971508D02*
X9043991Y-8981031D01*
X9043991Y-8981031D02*
X9053515Y-9000079D01*
X9053515Y-9000079D02*
X9063039Y-9038174D01*
X9063039Y-9038174D02*
X9063039Y-9085793D01*
X9063039Y-9085793D02*
X9053515Y-9123889D01*
X9053515Y-9123889D02*
X9043991Y-9142936D01*
X9043991Y-9142936D02*
X9034467Y-9152460D01*
X9034467Y-9152460D02*
X9015420Y-9161984D01*
X9015420Y-9161984D02*
X8996372Y-9161984D01*
X8996372Y-9161984D02*
X8977324Y-9152460D01*
X8977324Y-9152460D02*
X8967801Y-9142936D01*
X8967801Y-9142936D02*
X8958277Y-9123889D01*
X8958277Y-9123889D02*
X8948753Y-9085793D01*
X8948753Y-9085793D02*
X8948753Y-9038174D01*
X8948753Y-9038174D02*
X8958277Y-9000079D01*
X8958277Y-9000079D02*
X8967801Y-8981031D01*
X8967801Y-8981031D02*
X8977324Y-8971508D01*
X8977324Y-8971508D02*
X8996372Y-8961984D01*
X9148753Y-9142936D02*
X9158277Y-9152460D01*
X9158277Y-9152460D02*
X9148753Y-9161984D01*
X9148753Y-9161984D02*
X9139229Y-9152460D01*
X9139229Y-9152460D02*
X9148753Y-9142936D01*
X9148753Y-9142936D02*
X9148753Y-9161984D01*
X9224944Y-8961984D02*
X9358277Y-8961984D01*
X9358277Y-8961984D02*
X9272563Y-9161984D01*
X9529705Y-8961984D02*
X9434467Y-8961984D01*
X9434467Y-8961984D02*
X9424944Y-9057222D01*
X9424944Y-9057222D02*
X9434467Y-9047698D01*
X9434467Y-9047698D02*
X9453515Y-9038174D01*
X9453515Y-9038174D02*
X9501134Y-9038174D01*
X9501134Y-9038174D02*
X9520182Y-9047698D01*
X9520182Y-9047698D02*
X9529705Y-9057222D01*
X9529705Y-9057222D02*
X9539229Y-9076270D01*
X9539229Y-9076270D02*
X9539229Y-9123889D01*
X9539229Y-9123889D02*
X9529705Y-9142936D01*
X9529705Y-9142936D02*
X9520182Y-9152460D01*
X9520182Y-9152460D02*
X9501134Y-9161984D01*
X9501134Y-9161984D02*
X9453515Y-9161984D01*
X9453515Y-9161984D02*
X9434467Y-9152460D01*
X9434467Y-9152460D02*
X9424944Y-9142936D01*
X9663039Y-8961984D02*
X9682086Y-8961984D01*
X9682086Y-8961984D02*
X9701134Y-8971508D01*
X9701134Y-8971508D02*
X9710658Y-8981031D01*
X9710658Y-8981031D02*
X9720182Y-9000079D01*
X9720182Y-9000079D02*
X9729705Y-9038174D01*
X9729705Y-9038174D02*
X9729705Y-9085793D01*
X9729705Y-9085793D02*
X9720182Y-9123889D01*
X9720182Y-9123889D02*
X9710658Y-9142936D01*
X9710658Y-9142936D02*
X9701134Y-9152460D01*
X9701134Y-9152460D02*
X9682086Y-9161984D01*
X9682086Y-9161984D02*
X9663039Y-9161984D01*
X9663039Y-9161984D02*
X9643991Y-9152460D01*
X9643991Y-9152460D02*
X9634467Y-9142936D01*
X9634467Y-9142936D02*
X9624944Y-9123889D01*
X9624944Y-9123889D02*
X9615420Y-9085793D01*
X9615420Y-9085793D02*
X9615420Y-9038174D01*
X9615420Y-9038174D02*
X9624944Y-9000079D01*
X9624944Y-9000079D02*
X9634467Y-8981031D01*
X9634467Y-8981031D02*
X9643991Y-8971508D01*
X9643991Y-8971508D02*
X9663039Y-8961984D01*
X9815420Y-9161984D02*
X9815420Y-9028650D01*
X9815420Y-9047698D02*
X9824944Y-9038174D01*
X9824944Y-9038174D02*
X9843991Y-9028650D01*
X9843991Y-9028650D02*
X9872563Y-9028650D01*
X9872563Y-9028650D02*
X9891610Y-9038174D01*
X9891610Y-9038174D02*
X9901134Y-9057222D01*
X9901134Y-9057222D02*
X9901134Y-9161984D01*
X9901134Y-9057222D02*
X9910658Y-9038174D01*
X9910658Y-9038174D02*
X9929705Y-9028650D01*
X9929705Y-9028650D02*
X9958277Y-9028650D01*
X9958277Y-9028650D02*
X9977325Y-9038174D01*
X9977325Y-9038174D02*
X9986848Y-9057222D01*
X9986848Y-9057222D02*
X9986848Y-9161984D01*
X10082086Y-9161984D02*
X10082086Y-9028650D01*
X10082086Y-9047698D02*
X10091610Y-9038174D01*
X10091610Y-9038174D02*
X10110658Y-9028650D01*
X10110658Y-9028650D02*
X10139229Y-9028650D01*
X10139229Y-9028650D02*
X10158277Y-9038174D01*
X10158277Y-9038174D02*
X10167801Y-9057222D01*
X10167801Y-9057222D02*
X10167801Y-9161984D01*
X10167801Y-9057222D02*
X10177325Y-9038174D01*
X10177325Y-9038174D02*
X10196372Y-9028650D01*
X10196372Y-9028650D02*
X10224944Y-9028650D01*
X10224944Y-9028650D02*
X10243991Y-9038174D01*
X10243991Y-9038174D02*
X10253515Y-9057222D01*
X10253515Y-9057222D02*
X10253515Y-9161984D01*
X10643991Y-8952460D02*
X10472563Y-9209603D01*
X10901134Y-8961984D02*
X10920182Y-8961984D01*
X10920182Y-8961984D02*
X10939229Y-8971508D01*
X10939229Y-8971508D02*
X10948753Y-8981031D01*
X10948753Y-8981031D02*
X10958277Y-9000079D01*
X10958277Y-9000079D02*
X10967801Y-9038174D01*
X10967801Y-9038174D02*
X10967801Y-9085793D01*
X10967801Y-9085793D02*
X10958277Y-9123889D01*
X10958277Y-9123889D02*
X10948753Y-9142936D01*
X10948753Y-9142936D02*
X10939229Y-9152460D01*
X10939229Y-9152460D02*
X10920182Y-9161984D01*
X10920182Y-9161984D02*
X10901134Y-9161984D01*
X10901134Y-9161984D02*
X10882087Y-9152460D01*
X10882087Y-9152460D02*
X10872563Y-9142936D01*
X10872563Y-9142936D02*
X10863039Y-9123889D01*
X10863039Y-9123889D02*
X10853515Y-9085793D01*
X10853515Y-9085793D02*
X10853515Y-9038174D01*
X10853515Y-9038174D02*
X10863039Y-9000079D01*
X10863039Y-9000079D02*
X10872563Y-8981031D01*
X10872563Y-8981031D02*
X10882087Y-8971508D01*
X10882087Y-8971508D02*
X10901134Y-8961984D01*
X11053515Y-9142936D02*
X11063039Y-9152460D01*
X11063039Y-9152460D02*
X11053515Y-9161984D01*
X11053515Y-9161984D02*
X11043991Y-9152460D01*
X11043991Y-9152460D02*
X11053515Y-9142936D01*
X11053515Y-9142936D02*
X11053515Y-9161984D01*
X11186848Y-8961984D02*
X11205896Y-8961984D01*
X11205896Y-8961984D02*
X11224944Y-8971508D01*
X11224944Y-8971508D02*
X11234467Y-8981031D01*
X11234467Y-8981031D02*
X11243991Y-9000079D01*
X11243991Y-9000079D02*
X11253515Y-9038174D01*
X11253515Y-9038174D02*
X11253515Y-9085793D01*
X11253515Y-9085793D02*
X11243991Y-9123889D01*
X11243991Y-9123889D02*
X11234467Y-9142936D01*
X11234467Y-9142936D02*
X11224944Y-9152460D01*
X11224944Y-9152460D02*
X11205896Y-9161984D01*
X11205896Y-9161984D02*
X11186848Y-9161984D01*
X11186848Y-9161984D02*
X11167801Y-9152460D01*
X11167801Y-9152460D02*
X11158277Y-9142936D01*
X11158277Y-9142936D02*
X11148753Y-9123889D01*
X11148753Y-9123889D02*
X11139229Y-9085793D01*
X11139229Y-9085793D02*
X11139229Y-9038174D01*
X11139229Y-9038174D02*
X11148753Y-9000079D01*
X11148753Y-9000079D02*
X11158277Y-8981031D01*
X11158277Y-8981031D02*
X11167801Y-8971508D01*
X11167801Y-8971508D02*
X11186848Y-8961984D01*
X11329706Y-8981031D02*
X11339229Y-8971508D01*
X11339229Y-8971508D02*
X11358277Y-8961984D01*
X11358277Y-8961984D02*
X11405896Y-8961984D01*
X11405896Y-8961984D02*
X11424944Y-8971508D01*
X11424944Y-8971508D02*
X11434467Y-8981031D01*
X11434467Y-8981031D02*
X11443991Y-9000079D01*
X11443991Y-9000079D02*
X11443991Y-9019127D01*
X11443991Y-9019127D02*
X11434467Y-9047698D01*
X11434467Y-9047698D02*
X11320182Y-9161984D01*
X11320182Y-9161984D02*
X11443991Y-9161984D01*
X11539229Y-9161984D02*
X11577325Y-9161984D01*
X11577325Y-9161984D02*
X11596372Y-9152460D01*
X11596372Y-9152460D02*
X11605896Y-9142936D01*
X11605896Y-9142936D02*
X11624944Y-9114365D01*
X11624944Y-9114365D02*
X11634467Y-9076270D01*
X11634467Y-9076270D02*
X11634467Y-9000079D01*
X11634467Y-9000079D02*
X11624944Y-8981031D01*
X11624944Y-8981031D02*
X11615420Y-8971508D01*
X11615420Y-8971508D02*
X11596372Y-8961984D01*
X11596372Y-8961984D02*
X11558277Y-8961984D01*
X11558277Y-8961984D02*
X11539229Y-8971508D01*
X11539229Y-8971508D02*
X11529706Y-8981031D01*
X11529706Y-8981031D02*
X11520182Y-9000079D01*
X11520182Y-9000079D02*
X11520182Y-9047698D01*
X11520182Y-9047698D02*
X11529706Y-9066746D01*
X11529706Y-9066746D02*
X11539229Y-9076270D01*
X11539229Y-9076270D02*
X11558277Y-9085793D01*
X11558277Y-9085793D02*
X11596372Y-9085793D01*
X11596372Y-9085793D02*
X11615420Y-9076270D01*
X11615420Y-9076270D02*
X11624944Y-9066746D01*
X11624944Y-9066746D02*
X11634467Y-9047698D01*
X11815420Y-8961984D02*
X11720182Y-8961984D01*
X11720182Y-8961984D02*
X11710658Y-9057222D01*
X11710658Y-9057222D02*
X11720182Y-9047698D01*
X11720182Y-9047698D02*
X11739229Y-9038174D01*
X11739229Y-9038174D02*
X11786848Y-9038174D01*
X11786848Y-9038174D02*
X11805896Y-9047698D01*
X11805896Y-9047698D02*
X11815420Y-9057222D01*
X11815420Y-9057222D02*
X11824944Y-9076270D01*
X11824944Y-9076270D02*
X11824944Y-9123889D01*
X11824944Y-9123889D02*
X11815420Y-9142936D01*
X11815420Y-9142936D02*
X11805896Y-9152460D01*
X11805896Y-9152460D02*
X11786848Y-9161984D01*
X11786848Y-9161984D02*
X11739229Y-9161984D01*
X11739229Y-9161984D02*
X11720182Y-9152460D01*
X11720182Y-9152460D02*
X11710658Y-9142936D01*
X11901134Y-8961984D02*
X11901134Y-9000079D01*
X11977325Y-8961984D02*
X11977325Y-9000079D01*
X12272563Y-9238174D02*
X12263039Y-9228650D01*
X12263039Y-9228650D02*
X12243991Y-9200079D01*
X12243991Y-9200079D02*
X12234468Y-9181031D01*
X12234468Y-9181031D02*
X12224944Y-9152460D01*
X12224944Y-9152460D02*
X12215420Y-9104841D01*
X12215420Y-9104841D02*
X12215420Y-9066746D01*
X12215420Y-9066746D02*
X12224944Y-9019127D01*
X12224944Y-9019127D02*
X12234468Y-8990555D01*
X12234468Y-8990555D02*
X12243991Y-8971508D01*
X12243991Y-8971508D02*
X12263039Y-8942936D01*
X12263039Y-8942936D02*
X12272563Y-8933412D01*
X12443991Y-8961984D02*
X12348753Y-8961984D01*
X12348753Y-8961984D02*
X12339229Y-9057222D01*
X12339229Y-9057222D02*
X12348753Y-9047698D01*
X12348753Y-9047698D02*
X12367801Y-9038174D01*
X12367801Y-9038174D02*
X12415420Y-9038174D01*
X12415420Y-9038174D02*
X12434468Y-9047698D01*
X12434468Y-9047698D02*
X12443991Y-9057222D01*
X12443991Y-9057222D02*
X12453515Y-9076270D01*
X12453515Y-9076270D02*
X12453515Y-9123889D01*
X12453515Y-9123889D02*
X12443991Y-9142936D01*
X12443991Y-9142936D02*
X12434468Y-9152460D01*
X12434468Y-9152460D02*
X12415420Y-9161984D01*
X12415420Y-9161984D02*
X12367801Y-9161984D01*
X12367801Y-9161984D02*
X12348753Y-9152460D01*
X12348753Y-9152460D02*
X12339229Y-9142936D01*
X12691610Y-9161984D02*
X12691610Y-8961984D01*
X12777325Y-9161984D02*
X12777325Y-9057222D01*
X12777325Y-9057222D02*
X12767801Y-9038174D01*
X12767801Y-9038174D02*
X12748753Y-9028650D01*
X12748753Y-9028650D02*
X12720182Y-9028650D01*
X12720182Y-9028650D02*
X12701134Y-9038174D01*
X12701134Y-9038174D02*
X12691610Y-9047698D01*
X12901134Y-9161984D02*
X12882087Y-9152460D01*
X12882087Y-9152460D02*
X12872563Y-9142936D01*
X12872563Y-9142936D02*
X12863039Y-9123889D01*
X12863039Y-9123889D02*
X12863039Y-9066746D01*
X12863039Y-9066746D02*
X12872563Y-9047698D01*
X12872563Y-9047698D02*
X12882087Y-9038174D01*
X12882087Y-9038174D02*
X12901134Y-9028650D01*
X12901134Y-9028650D02*
X12929706Y-9028650D01*
X12929706Y-9028650D02*
X12948753Y-9038174D01*
X12948753Y-9038174D02*
X12958277Y-9047698D01*
X12958277Y-9047698D02*
X12967801Y-9066746D01*
X12967801Y-9066746D02*
X12967801Y-9123889D01*
X12967801Y-9123889D02*
X12958277Y-9142936D01*
X12958277Y-9142936D02*
X12948753Y-9152460D01*
X12948753Y-9152460D02*
X12929706Y-9161984D01*
X12929706Y-9161984D02*
X12901134Y-9161984D01*
X13082087Y-9161984D02*
X13063039Y-9152460D01*
X13063039Y-9152460D02*
X13053515Y-9133412D01*
X13053515Y-9133412D02*
X13053515Y-8961984D01*
X13234468Y-9152460D02*
X13215420Y-9161984D01*
X13215420Y-9161984D02*
X13177325Y-9161984D01*
X13177325Y-9161984D02*
X13158277Y-9152460D01*
X13158277Y-9152460D02*
X13148753Y-9133412D01*
X13148753Y-9133412D02*
X13148753Y-9057222D01*
X13148753Y-9057222D02*
X13158277Y-9038174D01*
X13158277Y-9038174D02*
X13177325Y-9028650D01*
X13177325Y-9028650D02*
X13215420Y-9028650D01*
X13215420Y-9028650D02*
X13234468Y-9038174D01*
X13234468Y-9038174D02*
X13243991Y-9057222D01*
X13243991Y-9057222D02*
X13243991Y-9076270D01*
X13243991Y-9076270D02*
X13148753Y-9095317D01*
X13320182Y-9152460D02*
X13339230Y-9161984D01*
X13339230Y-9161984D02*
X13377325Y-9161984D01*
X13377325Y-9161984D02*
X13396372Y-9152460D01*
X13396372Y-9152460D02*
X13405896Y-9133412D01*
X13405896Y-9133412D02*
X13405896Y-9123889D01*
X13405896Y-9123889D02*
X13396372Y-9104841D01*
X13396372Y-9104841D02*
X13377325Y-9095317D01*
X13377325Y-9095317D02*
X13348753Y-9095317D01*
X13348753Y-9095317D02*
X13329706Y-9085793D01*
X13329706Y-9085793D02*
X13320182Y-9066746D01*
X13320182Y-9066746D02*
X13320182Y-9057222D01*
X13320182Y-9057222D02*
X13329706Y-9038174D01*
X13329706Y-9038174D02*
X13348753Y-9028650D01*
X13348753Y-9028650D02*
X13377325Y-9028650D01*
X13377325Y-9028650D02*
X13396372Y-9038174D01*
X13472563Y-9238174D02*
X13482087Y-9228650D01*
X13482087Y-9228650D02*
X13501134Y-9200079D01*
X13501134Y-9200079D02*
X13510658Y-9181031D01*
X13510658Y-9181031D02*
X13520182Y-9152460D01*
X13520182Y-9152460D02*
X13529706Y-9104841D01*
X13529706Y-9104841D02*
X13529706Y-9066746D01*
X13529706Y-9066746D02*
X13520182Y-9019127D01*
X13520182Y-9019127D02*
X13510658Y-8990555D01*
X13510658Y-8990555D02*
X13501134Y-8971508D01*
X13501134Y-8971508D02*
X13482087Y-8942936D01*
X13482087Y-8942936D02*
X13472563Y-8933412D01*
D12*
X8685785Y-9362785D02*
X8685785Y-9306216D01*
X8629216Y-9306216D01*
X8629216Y-9362785D01*
X8685785Y-9362785D01*
D11*
X8996372Y-9225984D02*
X9015420Y-9225984D01*
X9015420Y-9225984D02*
X9034467Y-9235508D01*
X9034467Y-9235508D02*
X9043991Y-9245031D01*
X9043991Y-9245031D02*
X9053515Y-9264079D01*
X9053515Y-9264079D02*
X9063039Y-9302174D01*
X9063039Y-9302174D02*
X9063039Y-9349793D01*
X9063039Y-9349793D02*
X9053515Y-9387889D01*
X9053515Y-9387889D02*
X9043991Y-9406936D01*
X9043991Y-9406936D02*
X9034467Y-9416460D01*
X9034467Y-9416460D02*
X9015420Y-9425984D01*
X9015420Y-9425984D02*
X8996372Y-9425984D01*
X8996372Y-9425984D02*
X8977324Y-9416460D01*
X8977324Y-9416460D02*
X8967801Y-9406936D01*
X8967801Y-9406936D02*
X8958277Y-9387889D01*
X8958277Y-9387889D02*
X8948753Y-9349793D01*
X8948753Y-9349793D02*
X8948753Y-9302174D01*
X8948753Y-9302174D02*
X8958277Y-9264079D01*
X8958277Y-9264079D02*
X8967801Y-9245031D01*
X8967801Y-9245031D02*
X8977324Y-9235508D01*
X8977324Y-9235508D02*
X8996372Y-9225984D01*
X9148753Y-9406936D02*
X9158277Y-9416460D01*
X9158277Y-9416460D02*
X9148753Y-9425984D01*
X9148753Y-9425984D02*
X9139229Y-9416460D01*
X9139229Y-9416460D02*
X9148753Y-9406936D01*
X9148753Y-9406936D02*
X9148753Y-9425984D01*
X9272563Y-9311698D02*
X9253515Y-9302174D01*
X9253515Y-9302174D02*
X9243991Y-9292650D01*
X9243991Y-9292650D02*
X9234467Y-9273603D01*
X9234467Y-9273603D02*
X9234467Y-9264079D01*
X9234467Y-9264079D02*
X9243991Y-9245031D01*
X9243991Y-9245031D02*
X9253515Y-9235508D01*
X9253515Y-9235508D02*
X9272563Y-9225984D01*
X9272563Y-9225984D02*
X9310658Y-9225984D01*
X9310658Y-9225984D02*
X9329705Y-9235508D01*
X9329705Y-9235508D02*
X9339229Y-9245031D01*
X9339229Y-9245031D02*
X9348753Y-9264079D01*
X9348753Y-9264079D02*
X9348753Y-9273603D01*
X9348753Y-9273603D02*
X9339229Y-9292650D01*
X9339229Y-9292650D02*
X9329705Y-9302174D01*
X9329705Y-9302174D02*
X9310658Y-9311698D01*
X9310658Y-9311698D02*
X9272563Y-9311698D01*
X9272563Y-9311698D02*
X9253515Y-9321222D01*
X9253515Y-9321222D02*
X9243991Y-9330746D01*
X9243991Y-9330746D02*
X9234467Y-9349793D01*
X9234467Y-9349793D02*
X9234467Y-9387889D01*
X9234467Y-9387889D02*
X9243991Y-9406936D01*
X9243991Y-9406936D02*
X9253515Y-9416460D01*
X9253515Y-9416460D02*
X9272563Y-9425984D01*
X9272563Y-9425984D02*
X9310658Y-9425984D01*
X9310658Y-9425984D02*
X9329705Y-9416460D01*
X9329705Y-9416460D02*
X9339229Y-9406936D01*
X9339229Y-9406936D02*
X9348753Y-9387889D01*
X9348753Y-9387889D02*
X9348753Y-9349793D01*
X9348753Y-9349793D02*
X9339229Y-9330746D01*
X9339229Y-9330746D02*
X9329705Y-9321222D01*
X9329705Y-9321222D02*
X9310658Y-9311698D01*
X9472563Y-9225984D02*
X9491610Y-9225984D01*
X9491610Y-9225984D02*
X9510658Y-9235508D01*
X9510658Y-9235508D02*
X9520182Y-9245031D01*
X9520182Y-9245031D02*
X9529705Y-9264079D01*
X9529705Y-9264079D02*
X9539229Y-9302174D01*
X9539229Y-9302174D02*
X9539229Y-9349793D01*
X9539229Y-9349793D02*
X9529705Y-9387889D01*
X9529705Y-9387889D02*
X9520182Y-9406936D01*
X9520182Y-9406936D02*
X9510658Y-9416460D01*
X9510658Y-9416460D02*
X9491610Y-9425984D01*
X9491610Y-9425984D02*
X9472563Y-9425984D01*
X9472563Y-9425984D02*
X9453515Y-9416460D01*
X9453515Y-9416460D02*
X9443991Y-9406936D01*
X9443991Y-9406936D02*
X9434467Y-9387889D01*
X9434467Y-9387889D02*
X9424944Y-9349793D01*
X9424944Y-9349793D02*
X9424944Y-9302174D01*
X9424944Y-9302174D02*
X9434467Y-9264079D01*
X9434467Y-9264079D02*
X9443991Y-9245031D01*
X9443991Y-9245031D02*
X9453515Y-9235508D01*
X9453515Y-9235508D02*
X9472563Y-9225984D01*
X9663039Y-9225984D02*
X9682086Y-9225984D01*
X9682086Y-9225984D02*
X9701134Y-9235508D01*
X9701134Y-9235508D02*
X9710658Y-9245031D01*
X9710658Y-9245031D02*
X9720182Y-9264079D01*
X9720182Y-9264079D02*
X9729705Y-9302174D01*
X9729705Y-9302174D02*
X9729705Y-9349793D01*
X9729705Y-9349793D02*
X9720182Y-9387889D01*
X9720182Y-9387889D02*
X9710658Y-9406936D01*
X9710658Y-9406936D02*
X9701134Y-9416460D01*
X9701134Y-9416460D02*
X9682086Y-9425984D01*
X9682086Y-9425984D02*
X9663039Y-9425984D01*
X9663039Y-9425984D02*
X9643991Y-9416460D01*
X9643991Y-9416460D02*
X9634467Y-9406936D01*
X9634467Y-9406936D02*
X9624944Y-9387889D01*
X9624944Y-9387889D02*
X9615420Y-9349793D01*
X9615420Y-9349793D02*
X9615420Y-9302174D01*
X9615420Y-9302174D02*
X9624944Y-9264079D01*
X9624944Y-9264079D02*
X9634467Y-9245031D01*
X9634467Y-9245031D02*
X9643991Y-9235508D01*
X9643991Y-9235508D02*
X9663039Y-9225984D01*
X9815420Y-9425984D02*
X9815420Y-9292650D01*
X9815420Y-9311698D02*
X9824944Y-9302174D01*
X9824944Y-9302174D02*
X9843991Y-9292650D01*
X9843991Y-9292650D02*
X9872563Y-9292650D01*
X9872563Y-9292650D02*
X9891610Y-9302174D01*
X9891610Y-9302174D02*
X9901134Y-9321222D01*
X9901134Y-9321222D02*
X9901134Y-9425984D01*
X9901134Y-9321222D02*
X9910658Y-9302174D01*
X9910658Y-9302174D02*
X9929705Y-9292650D01*
X9929705Y-9292650D02*
X9958277Y-9292650D01*
X9958277Y-9292650D02*
X9977325Y-9302174D01*
X9977325Y-9302174D02*
X9986848Y-9321222D01*
X9986848Y-9321222D02*
X9986848Y-9425984D01*
X10082086Y-9425984D02*
X10082086Y-9292650D01*
X10082086Y-9311698D02*
X10091610Y-9302174D01*
X10091610Y-9302174D02*
X10110658Y-9292650D01*
X10110658Y-9292650D02*
X10139229Y-9292650D01*
X10139229Y-9292650D02*
X10158277Y-9302174D01*
X10158277Y-9302174D02*
X10167801Y-9321222D01*
X10167801Y-9321222D02*
X10167801Y-9425984D01*
X10167801Y-9321222D02*
X10177325Y-9302174D01*
X10177325Y-9302174D02*
X10196372Y-9292650D01*
X10196372Y-9292650D02*
X10224944Y-9292650D01*
X10224944Y-9292650D02*
X10243991Y-9302174D01*
X10243991Y-9302174D02*
X10253515Y-9321222D01*
X10253515Y-9321222D02*
X10253515Y-9425984D01*
X10643991Y-9216460D02*
X10472563Y-9473603D01*
X10901134Y-9225984D02*
X10920182Y-9225984D01*
X10920182Y-9225984D02*
X10939229Y-9235508D01*
X10939229Y-9235508D02*
X10948753Y-9245031D01*
X10948753Y-9245031D02*
X10958277Y-9264079D01*
X10958277Y-9264079D02*
X10967801Y-9302174D01*
X10967801Y-9302174D02*
X10967801Y-9349793D01*
X10967801Y-9349793D02*
X10958277Y-9387889D01*
X10958277Y-9387889D02*
X10948753Y-9406936D01*
X10948753Y-9406936D02*
X10939229Y-9416460D01*
X10939229Y-9416460D02*
X10920182Y-9425984D01*
X10920182Y-9425984D02*
X10901134Y-9425984D01*
X10901134Y-9425984D02*
X10882087Y-9416460D01*
X10882087Y-9416460D02*
X10872563Y-9406936D01*
X10872563Y-9406936D02*
X10863039Y-9387889D01*
X10863039Y-9387889D02*
X10853515Y-9349793D01*
X10853515Y-9349793D02*
X10853515Y-9302174D01*
X10853515Y-9302174D02*
X10863039Y-9264079D01*
X10863039Y-9264079D02*
X10872563Y-9245031D01*
X10872563Y-9245031D02*
X10882087Y-9235508D01*
X10882087Y-9235508D02*
X10901134Y-9225984D01*
X11053515Y-9406936D02*
X11063039Y-9416460D01*
X11063039Y-9416460D02*
X11053515Y-9425984D01*
X11053515Y-9425984D02*
X11043991Y-9416460D01*
X11043991Y-9416460D02*
X11053515Y-9406936D01*
X11053515Y-9406936D02*
X11053515Y-9425984D01*
X11186848Y-9225984D02*
X11205896Y-9225984D01*
X11205896Y-9225984D02*
X11224944Y-9235508D01*
X11224944Y-9235508D02*
X11234467Y-9245031D01*
X11234467Y-9245031D02*
X11243991Y-9264079D01*
X11243991Y-9264079D02*
X11253515Y-9302174D01*
X11253515Y-9302174D02*
X11253515Y-9349793D01*
X11253515Y-9349793D02*
X11243991Y-9387889D01*
X11243991Y-9387889D02*
X11234467Y-9406936D01*
X11234467Y-9406936D02*
X11224944Y-9416460D01*
X11224944Y-9416460D02*
X11205896Y-9425984D01*
X11205896Y-9425984D02*
X11186848Y-9425984D01*
X11186848Y-9425984D02*
X11167801Y-9416460D01*
X11167801Y-9416460D02*
X11158277Y-9406936D01*
X11158277Y-9406936D02*
X11148753Y-9387889D01*
X11148753Y-9387889D02*
X11139229Y-9349793D01*
X11139229Y-9349793D02*
X11139229Y-9302174D01*
X11139229Y-9302174D02*
X11148753Y-9264079D01*
X11148753Y-9264079D02*
X11158277Y-9245031D01*
X11158277Y-9245031D02*
X11167801Y-9235508D01*
X11167801Y-9235508D02*
X11186848Y-9225984D01*
X11320182Y-9225984D02*
X11443991Y-9225984D01*
X11443991Y-9225984D02*
X11377325Y-9302174D01*
X11377325Y-9302174D02*
X11405896Y-9302174D01*
X11405896Y-9302174D02*
X11424944Y-9311698D01*
X11424944Y-9311698D02*
X11434467Y-9321222D01*
X11434467Y-9321222D02*
X11443991Y-9340270D01*
X11443991Y-9340270D02*
X11443991Y-9387889D01*
X11443991Y-9387889D02*
X11434467Y-9406936D01*
X11434467Y-9406936D02*
X11424944Y-9416460D01*
X11424944Y-9416460D02*
X11405896Y-9425984D01*
X11405896Y-9425984D02*
X11348753Y-9425984D01*
X11348753Y-9425984D02*
X11329706Y-9416460D01*
X11329706Y-9416460D02*
X11320182Y-9406936D01*
X11634467Y-9425984D02*
X11520182Y-9425984D01*
X11577325Y-9425984D02*
X11577325Y-9225984D01*
X11577325Y-9225984D02*
X11558277Y-9254555D01*
X11558277Y-9254555D02*
X11539229Y-9273603D01*
X11539229Y-9273603D02*
X11520182Y-9283127D01*
X11815420Y-9225984D02*
X11720182Y-9225984D01*
X11720182Y-9225984D02*
X11710658Y-9321222D01*
X11710658Y-9321222D02*
X11720182Y-9311698D01*
X11720182Y-9311698D02*
X11739229Y-9302174D01*
X11739229Y-9302174D02*
X11786848Y-9302174D01*
X11786848Y-9302174D02*
X11805896Y-9311698D01*
X11805896Y-9311698D02*
X11815420Y-9321222D01*
X11815420Y-9321222D02*
X11824944Y-9340270D01*
X11824944Y-9340270D02*
X11824944Y-9387889D01*
X11824944Y-9387889D02*
X11815420Y-9406936D01*
X11815420Y-9406936D02*
X11805896Y-9416460D01*
X11805896Y-9416460D02*
X11786848Y-9425984D01*
X11786848Y-9425984D02*
X11739229Y-9425984D01*
X11739229Y-9425984D02*
X11720182Y-9416460D01*
X11720182Y-9416460D02*
X11710658Y-9406936D01*
X11901134Y-9225984D02*
X11901134Y-9264079D01*
X11977325Y-9225984D02*
X11977325Y-9264079D01*
X12272563Y-9502174D02*
X12263039Y-9492650D01*
X12263039Y-9492650D02*
X12243991Y-9464079D01*
X12243991Y-9464079D02*
X12234468Y-9445031D01*
X12234468Y-9445031D02*
X12224944Y-9416460D01*
X12224944Y-9416460D02*
X12215420Y-9368841D01*
X12215420Y-9368841D02*
X12215420Y-9330746D01*
X12215420Y-9330746D02*
X12224944Y-9283127D01*
X12224944Y-9283127D02*
X12234468Y-9254555D01*
X12234468Y-9254555D02*
X12243991Y-9235508D01*
X12243991Y-9235508D02*
X12263039Y-9206936D01*
X12263039Y-9206936D02*
X12272563Y-9197412D01*
X12443991Y-9225984D02*
X12348753Y-9225984D01*
X12348753Y-9225984D02*
X12339229Y-9321222D01*
X12339229Y-9321222D02*
X12348753Y-9311698D01*
X12348753Y-9311698D02*
X12367801Y-9302174D01*
X12367801Y-9302174D02*
X12415420Y-9302174D01*
X12415420Y-9302174D02*
X12434468Y-9311698D01*
X12434468Y-9311698D02*
X12443991Y-9321222D01*
X12443991Y-9321222D02*
X12453515Y-9340270D01*
X12453515Y-9340270D02*
X12453515Y-9387889D01*
X12453515Y-9387889D02*
X12443991Y-9406936D01*
X12443991Y-9406936D02*
X12434468Y-9416460D01*
X12434468Y-9416460D02*
X12415420Y-9425984D01*
X12415420Y-9425984D02*
X12367801Y-9425984D01*
X12367801Y-9425984D02*
X12348753Y-9416460D01*
X12348753Y-9416460D02*
X12339229Y-9406936D01*
X12577325Y-9225984D02*
X12596372Y-9225984D01*
X12596372Y-9225984D02*
X12615420Y-9235508D01*
X12615420Y-9235508D02*
X12624944Y-9245031D01*
X12624944Y-9245031D02*
X12634468Y-9264079D01*
X12634468Y-9264079D02*
X12643991Y-9302174D01*
X12643991Y-9302174D02*
X12643991Y-9349793D01*
X12643991Y-9349793D02*
X12634468Y-9387889D01*
X12634468Y-9387889D02*
X12624944Y-9406936D01*
X12624944Y-9406936D02*
X12615420Y-9416460D01*
X12615420Y-9416460D02*
X12596372Y-9425984D01*
X12596372Y-9425984D02*
X12577325Y-9425984D01*
X12577325Y-9425984D02*
X12558277Y-9416460D01*
X12558277Y-9416460D02*
X12548753Y-9406936D01*
X12548753Y-9406936D02*
X12539229Y-9387889D01*
X12539229Y-9387889D02*
X12529706Y-9349793D01*
X12529706Y-9349793D02*
X12529706Y-9302174D01*
X12529706Y-9302174D02*
X12539229Y-9264079D01*
X12539229Y-9264079D02*
X12548753Y-9245031D01*
X12548753Y-9245031D02*
X12558277Y-9235508D01*
X12558277Y-9235508D02*
X12577325Y-9225984D01*
X12882087Y-9425984D02*
X12882087Y-9225984D01*
X12967801Y-9425984D02*
X12967801Y-9321222D01*
X12967801Y-9321222D02*
X12958277Y-9302174D01*
X12958277Y-9302174D02*
X12939230Y-9292650D01*
X12939230Y-9292650D02*
X12910658Y-9292650D01*
X12910658Y-9292650D02*
X12891610Y-9302174D01*
X12891610Y-9302174D02*
X12882087Y-9311698D01*
X13091610Y-9425984D02*
X13072563Y-9416460D01*
X13072563Y-9416460D02*
X13063039Y-9406936D01*
X13063039Y-9406936D02*
X13053515Y-9387889D01*
X13053515Y-9387889D02*
X13053515Y-9330746D01*
X13053515Y-9330746D02*
X13063039Y-9311698D01*
X13063039Y-9311698D02*
X13072563Y-9302174D01*
X13072563Y-9302174D02*
X13091610Y-9292650D01*
X13091610Y-9292650D02*
X13120182Y-9292650D01*
X13120182Y-9292650D02*
X13139230Y-9302174D01*
X13139230Y-9302174D02*
X13148753Y-9311698D01*
X13148753Y-9311698D02*
X13158277Y-9330746D01*
X13158277Y-9330746D02*
X13158277Y-9387889D01*
X13158277Y-9387889D02*
X13148753Y-9406936D01*
X13148753Y-9406936D02*
X13139230Y-9416460D01*
X13139230Y-9416460D02*
X13120182Y-9425984D01*
X13120182Y-9425984D02*
X13091610Y-9425984D01*
X13272563Y-9425984D02*
X13253515Y-9416460D01*
X13253515Y-9416460D02*
X13243991Y-9397412D01*
X13243991Y-9397412D02*
X13243991Y-9225984D01*
X13424944Y-9416460D02*
X13405896Y-9425984D01*
X13405896Y-9425984D02*
X13367801Y-9425984D01*
X13367801Y-9425984D02*
X13348753Y-9416460D01*
X13348753Y-9416460D02*
X13339230Y-9397412D01*
X13339230Y-9397412D02*
X13339230Y-9321222D01*
X13339230Y-9321222D02*
X13348753Y-9302174D01*
X13348753Y-9302174D02*
X13367801Y-9292650D01*
X13367801Y-9292650D02*
X13405896Y-9292650D01*
X13405896Y-9292650D02*
X13424944Y-9302174D01*
X13424944Y-9302174D02*
X13434468Y-9321222D01*
X13434468Y-9321222D02*
X13434468Y-9340270D01*
X13434468Y-9340270D02*
X13339230Y-9359317D01*
X13510658Y-9416460D02*
X13529706Y-9425984D01*
X13529706Y-9425984D02*
X13567801Y-9425984D01*
X13567801Y-9425984D02*
X13586849Y-9416460D01*
X13586849Y-9416460D02*
X13596372Y-9397412D01*
X13596372Y-9397412D02*
X13596372Y-9387889D01*
X13596372Y-9387889D02*
X13586849Y-9368841D01*
X13586849Y-9368841D02*
X13567801Y-9359317D01*
X13567801Y-9359317D02*
X13539230Y-9359317D01*
X13539230Y-9359317D02*
X13520182Y-9349793D01*
X13520182Y-9349793D02*
X13510658Y-9330746D01*
X13510658Y-9330746D02*
X13510658Y-9321222D01*
X13510658Y-9321222D02*
X13520182Y-9302174D01*
X13520182Y-9302174D02*
X13539230Y-9292650D01*
X13539230Y-9292650D02*
X13567801Y-9292650D01*
X13567801Y-9292650D02*
X13586849Y-9302174D01*
X13663039Y-9502174D02*
X13672563Y-9492650D01*
X13672563Y-9492650D02*
X13691611Y-9464079D01*
X13691611Y-9464079D02*
X13701134Y-9445031D01*
X13701134Y-9445031D02*
X13710658Y-9416460D01*
X13710658Y-9416460D02*
X13720182Y-9368841D01*
X13720182Y-9368841D02*
X13720182Y-9330746D01*
X13720182Y-9330746D02*
X13710658Y-9283127D01*
X13710658Y-9283127D02*
X13701134Y-9254555D01*
X13701134Y-9254555D02*
X13691611Y-9235508D01*
X13691611Y-9235508D02*
X13672563Y-9206936D01*
X13672563Y-9206936D02*
X13663039Y-9197412D01*
D12*
X8652500Y-9643500D02*
X8697500Y-9598500D01*
X8652500Y-9553500D01*
X8607500Y-9598500D01*
X8652500Y-9643500D01*
D11*
X8996372Y-9489984D02*
X9015420Y-9489984D01*
X9015420Y-9489984D02*
X9034467Y-9499508D01*
X9034467Y-9499508D02*
X9043991Y-9509031D01*
X9043991Y-9509031D02*
X9053515Y-9528079D01*
X9053515Y-9528079D02*
X9063039Y-9566174D01*
X9063039Y-9566174D02*
X9063039Y-9613793D01*
X9063039Y-9613793D02*
X9053515Y-9651889D01*
X9053515Y-9651889D02*
X9043991Y-9670936D01*
X9043991Y-9670936D02*
X9034467Y-9680460D01*
X9034467Y-9680460D02*
X9015420Y-9689984D01*
X9015420Y-9689984D02*
X8996372Y-9689984D01*
X8996372Y-9689984D02*
X8977324Y-9680460D01*
X8977324Y-9680460D02*
X8967801Y-9670936D01*
X8967801Y-9670936D02*
X8958277Y-9651889D01*
X8958277Y-9651889D02*
X8948753Y-9613793D01*
X8948753Y-9613793D02*
X8948753Y-9566174D01*
X8948753Y-9566174D02*
X8958277Y-9528079D01*
X8958277Y-9528079D02*
X8967801Y-9509031D01*
X8967801Y-9509031D02*
X8977324Y-9499508D01*
X8977324Y-9499508D02*
X8996372Y-9489984D01*
X9148753Y-9670936D02*
X9158277Y-9680460D01*
X9158277Y-9680460D02*
X9148753Y-9689984D01*
X9148753Y-9689984D02*
X9139229Y-9680460D01*
X9139229Y-9680460D02*
X9148753Y-9670936D01*
X9148753Y-9670936D02*
X9148753Y-9689984D01*
X9253515Y-9689984D02*
X9291610Y-9689984D01*
X9291610Y-9689984D02*
X9310658Y-9680460D01*
X9310658Y-9680460D02*
X9320182Y-9670936D01*
X9320182Y-9670936D02*
X9339229Y-9642365D01*
X9339229Y-9642365D02*
X9348753Y-9604270D01*
X9348753Y-9604270D02*
X9348753Y-9528079D01*
X9348753Y-9528079D02*
X9339229Y-9509031D01*
X9339229Y-9509031D02*
X9329705Y-9499508D01*
X9329705Y-9499508D02*
X9310658Y-9489984D01*
X9310658Y-9489984D02*
X9272563Y-9489984D01*
X9272563Y-9489984D02*
X9253515Y-9499508D01*
X9253515Y-9499508D02*
X9243991Y-9509031D01*
X9243991Y-9509031D02*
X9234467Y-9528079D01*
X9234467Y-9528079D02*
X9234467Y-9575698D01*
X9234467Y-9575698D02*
X9243991Y-9594746D01*
X9243991Y-9594746D02*
X9253515Y-9604270D01*
X9253515Y-9604270D02*
X9272563Y-9613793D01*
X9272563Y-9613793D02*
X9310658Y-9613793D01*
X9310658Y-9613793D02*
X9329705Y-9604270D01*
X9329705Y-9604270D02*
X9339229Y-9594746D01*
X9339229Y-9594746D02*
X9348753Y-9575698D01*
X9472563Y-9489984D02*
X9491610Y-9489984D01*
X9491610Y-9489984D02*
X9510658Y-9499508D01*
X9510658Y-9499508D02*
X9520182Y-9509031D01*
X9520182Y-9509031D02*
X9529705Y-9528079D01*
X9529705Y-9528079D02*
X9539229Y-9566174D01*
X9539229Y-9566174D02*
X9539229Y-9613793D01*
X9539229Y-9613793D02*
X9529705Y-9651889D01*
X9529705Y-9651889D02*
X9520182Y-9670936D01*
X9520182Y-9670936D02*
X9510658Y-9680460D01*
X9510658Y-9680460D02*
X9491610Y-9689984D01*
X9491610Y-9689984D02*
X9472563Y-9689984D01*
X9472563Y-9689984D02*
X9453515Y-9680460D01*
X9453515Y-9680460D02*
X9443991Y-9670936D01*
X9443991Y-9670936D02*
X9434467Y-9651889D01*
X9434467Y-9651889D02*
X9424944Y-9613793D01*
X9424944Y-9613793D02*
X9424944Y-9566174D01*
X9424944Y-9566174D02*
X9434467Y-9528079D01*
X9434467Y-9528079D02*
X9443991Y-9509031D01*
X9443991Y-9509031D02*
X9453515Y-9499508D01*
X9453515Y-9499508D02*
X9472563Y-9489984D01*
X9663039Y-9489984D02*
X9682086Y-9489984D01*
X9682086Y-9489984D02*
X9701134Y-9499508D01*
X9701134Y-9499508D02*
X9710658Y-9509031D01*
X9710658Y-9509031D02*
X9720182Y-9528079D01*
X9720182Y-9528079D02*
X9729705Y-9566174D01*
X9729705Y-9566174D02*
X9729705Y-9613793D01*
X9729705Y-9613793D02*
X9720182Y-9651889D01*
X9720182Y-9651889D02*
X9710658Y-9670936D01*
X9710658Y-9670936D02*
X9701134Y-9680460D01*
X9701134Y-9680460D02*
X9682086Y-9689984D01*
X9682086Y-9689984D02*
X9663039Y-9689984D01*
X9663039Y-9689984D02*
X9643991Y-9680460D01*
X9643991Y-9680460D02*
X9634467Y-9670936D01*
X9634467Y-9670936D02*
X9624944Y-9651889D01*
X9624944Y-9651889D02*
X9615420Y-9613793D01*
X9615420Y-9613793D02*
X9615420Y-9566174D01*
X9615420Y-9566174D02*
X9624944Y-9528079D01*
X9624944Y-9528079D02*
X9634467Y-9509031D01*
X9634467Y-9509031D02*
X9643991Y-9499508D01*
X9643991Y-9499508D02*
X9663039Y-9489984D01*
X9815420Y-9689984D02*
X9815420Y-9556650D01*
X9815420Y-9575698D02*
X9824944Y-9566174D01*
X9824944Y-9566174D02*
X9843991Y-9556650D01*
X9843991Y-9556650D02*
X9872563Y-9556650D01*
X9872563Y-9556650D02*
X9891610Y-9566174D01*
X9891610Y-9566174D02*
X9901134Y-9585222D01*
X9901134Y-9585222D02*
X9901134Y-9689984D01*
X9901134Y-9585222D02*
X9910658Y-9566174D01*
X9910658Y-9566174D02*
X9929705Y-9556650D01*
X9929705Y-9556650D02*
X9958277Y-9556650D01*
X9958277Y-9556650D02*
X9977325Y-9566174D01*
X9977325Y-9566174D02*
X9986848Y-9585222D01*
X9986848Y-9585222D02*
X9986848Y-9689984D01*
X10082086Y-9689984D02*
X10082086Y-9556650D01*
X10082086Y-9575698D02*
X10091610Y-9566174D01*
X10091610Y-9566174D02*
X10110658Y-9556650D01*
X10110658Y-9556650D02*
X10139229Y-9556650D01*
X10139229Y-9556650D02*
X10158277Y-9566174D01*
X10158277Y-9566174D02*
X10167801Y-9585222D01*
X10167801Y-9585222D02*
X10167801Y-9689984D01*
X10167801Y-9585222D02*
X10177325Y-9566174D01*
X10177325Y-9566174D02*
X10196372Y-9556650D01*
X10196372Y-9556650D02*
X10224944Y-9556650D01*
X10224944Y-9556650D02*
X10243991Y-9566174D01*
X10243991Y-9566174D02*
X10253515Y-9585222D01*
X10253515Y-9585222D02*
X10253515Y-9689984D01*
X10643991Y-9480460D02*
X10472563Y-9737603D01*
X10901134Y-9489984D02*
X10920182Y-9489984D01*
X10920182Y-9489984D02*
X10939229Y-9499508D01*
X10939229Y-9499508D02*
X10948753Y-9509031D01*
X10948753Y-9509031D02*
X10958277Y-9528079D01*
X10958277Y-9528079D02*
X10967801Y-9566174D01*
X10967801Y-9566174D02*
X10967801Y-9613793D01*
X10967801Y-9613793D02*
X10958277Y-9651889D01*
X10958277Y-9651889D02*
X10948753Y-9670936D01*
X10948753Y-9670936D02*
X10939229Y-9680460D01*
X10939229Y-9680460D02*
X10920182Y-9689984D01*
X10920182Y-9689984D02*
X10901134Y-9689984D01*
X10901134Y-9689984D02*
X10882087Y-9680460D01*
X10882087Y-9680460D02*
X10872563Y-9670936D01*
X10872563Y-9670936D02*
X10863039Y-9651889D01*
X10863039Y-9651889D02*
X10853515Y-9613793D01*
X10853515Y-9613793D02*
X10853515Y-9566174D01*
X10853515Y-9566174D02*
X10863039Y-9528079D01*
X10863039Y-9528079D02*
X10872563Y-9509031D01*
X10872563Y-9509031D02*
X10882087Y-9499508D01*
X10882087Y-9499508D02*
X10901134Y-9489984D01*
X11053515Y-9670936D02*
X11063039Y-9680460D01*
X11063039Y-9680460D02*
X11053515Y-9689984D01*
X11053515Y-9689984D02*
X11043991Y-9680460D01*
X11043991Y-9680460D02*
X11053515Y-9670936D01*
X11053515Y-9670936D02*
X11053515Y-9689984D01*
X11186848Y-9489984D02*
X11205896Y-9489984D01*
X11205896Y-9489984D02*
X11224944Y-9499508D01*
X11224944Y-9499508D02*
X11234467Y-9509031D01*
X11234467Y-9509031D02*
X11243991Y-9528079D01*
X11243991Y-9528079D02*
X11253515Y-9566174D01*
X11253515Y-9566174D02*
X11253515Y-9613793D01*
X11253515Y-9613793D02*
X11243991Y-9651889D01*
X11243991Y-9651889D02*
X11234467Y-9670936D01*
X11234467Y-9670936D02*
X11224944Y-9680460D01*
X11224944Y-9680460D02*
X11205896Y-9689984D01*
X11205896Y-9689984D02*
X11186848Y-9689984D01*
X11186848Y-9689984D02*
X11167801Y-9680460D01*
X11167801Y-9680460D02*
X11158277Y-9670936D01*
X11158277Y-9670936D02*
X11148753Y-9651889D01*
X11148753Y-9651889D02*
X11139229Y-9613793D01*
X11139229Y-9613793D02*
X11139229Y-9566174D01*
X11139229Y-9566174D02*
X11148753Y-9528079D01*
X11148753Y-9528079D02*
X11158277Y-9509031D01*
X11158277Y-9509031D02*
X11167801Y-9499508D01*
X11167801Y-9499508D02*
X11186848Y-9489984D01*
X11320182Y-9489984D02*
X11443991Y-9489984D01*
X11443991Y-9489984D02*
X11377325Y-9566174D01*
X11377325Y-9566174D02*
X11405896Y-9566174D01*
X11405896Y-9566174D02*
X11424944Y-9575698D01*
X11424944Y-9575698D02*
X11434467Y-9585222D01*
X11434467Y-9585222D02*
X11443991Y-9604270D01*
X11443991Y-9604270D02*
X11443991Y-9651889D01*
X11443991Y-9651889D02*
X11434467Y-9670936D01*
X11434467Y-9670936D02*
X11424944Y-9680460D01*
X11424944Y-9680460D02*
X11405896Y-9689984D01*
X11405896Y-9689984D02*
X11348753Y-9689984D01*
X11348753Y-9689984D02*
X11329706Y-9680460D01*
X11329706Y-9680460D02*
X11320182Y-9670936D01*
X11624944Y-9489984D02*
X11529706Y-9489984D01*
X11529706Y-9489984D02*
X11520182Y-9585222D01*
X11520182Y-9585222D02*
X11529706Y-9575698D01*
X11529706Y-9575698D02*
X11548753Y-9566174D01*
X11548753Y-9566174D02*
X11596372Y-9566174D01*
X11596372Y-9566174D02*
X11615420Y-9575698D01*
X11615420Y-9575698D02*
X11624944Y-9585222D01*
X11624944Y-9585222D02*
X11634467Y-9604270D01*
X11634467Y-9604270D02*
X11634467Y-9651889D01*
X11634467Y-9651889D02*
X11624944Y-9670936D01*
X11624944Y-9670936D02*
X11615420Y-9680460D01*
X11615420Y-9680460D02*
X11596372Y-9689984D01*
X11596372Y-9689984D02*
X11548753Y-9689984D01*
X11548753Y-9689984D02*
X11529706Y-9680460D01*
X11529706Y-9680460D02*
X11520182Y-9670936D01*
X11805896Y-9556650D02*
X11805896Y-9689984D01*
X11758277Y-9480460D02*
X11710658Y-9623317D01*
X11710658Y-9623317D02*
X11834467Y-9623317D01*
X11901134Y-9489984D02*
X11901134Y-9528079D01*
X11977325Y-9489984D02*
X11977325Y-9528079D01*
X12272563Y-9766174D02*
X12263039Y-9756650D01*
X12263039Y-9756650D02*
X12243991Y-9728079D01*
X12243991Y-9728079D02*
X12234468Y-9709031D01*
X12234468Y-9709031D02*
X12224944Y-9680460D01*
X12224944Y-9680460D02*
X12215420Y-9632841D01*
X12215420Y-9632841D02*
X12215420Y-9594746D01*
X12215420Y-9594746D02*
X12224944Y-9547127D01*
X12224944Y-9547127D02*
X12234468Y-9518555D01*
X12234468Y-9518555D02*
X12243991Y-9499508D01*
X12243991Y-9499508D02*
X12263039Y-9470936D01*
X12263039Y-9470936D02*
X12272563Y-9461412D01*
X12339229Y-9509031D02*
X12348753Y-9499508D01*
X12348753Y-9499508D02*
X12367801Y-9489984D01*
X12367801Y-9489984D02*
X12415420Y-9489984D01*
X12415420Y-9489984D02*
X12434468Y-9499508D01*
X12434468Y-9499508D02*
X12443991Y-9509031D01*
X12443991Y-9509031D02*
X12453515Y-9528079D01*
X12453515Y-9528079D02*
X12453515Y-9547127D01*
X12453515Y-9547127D02*
X12443991Y-9575698D01*
X12443991Y-9575698D02*
X12329706Y-9689984D01*
X12329706Y-9689984D02*
X12453515Y-9689984D01*
X12691610Y-9689984D02*
X12691610Y-9489984D01*
X12777325Y-9689984D02*
X12777325Y-9585222D01*
X12777325Y-9585222D02*
X12767801Y-9566174D01*
X12767801Y-9566174D02*
X12748753Y-9556650D01*
X12748753Y-9556650D02*
X12720182Y-9556650D01*
X12720182Y-9556650D02*
X12701134Y-9566174D01*
X12701134Y-9566174D02*
X12691610Y-9575698D01*
X12901134Y-9689984D02*
X12882087Y-9680460D01*
X12882087Y-9680460D02*
X12872563Y-9670936D01*
X12872563Y-9670936D02*
X12863039Y-9651889D01*
X12863039Y-9651889D02*
X12863039Y-9594746D01*
X12863039Y-9594746D02*
X12872563Y-9575698D01*
X12872563Y-9575698D02*
X12882087Y-9566174D01*
X12882087Y-9566174D02*
X12901134Y-9556650D01*
X12901134Y-9556650D02*
X12929706Y-9556650D01*
X12929706Y-9556650D02*
X12948753Y-9566174D01*
X12948753Y-9566174D02*
X12958277Y-9575698D01*
X12958277Y-9575698D02*
X12967801Y-9594746D01*
X12967801Y-9594746D02*
X12967801Y-9651889D01*
X12967801Y-9651889D02*
X12958277Y-9670936D01*
X12958277Y-9670936D02*
X12948753Y-9680460D01*
X12948753Y-9680460D02*
X12929706Y-9689984D01*
X12929706Y-9689984D02*
X12901134Y-9689984D01*
X13082087Y-9689984D02*
X13063039Y-9680460D01*
X13063039Y-9680460D02*
X13053515Y-9661412D01*
X13053515Y-9661412D02*
X13053515Y-9489984D01*
X13234468Y-9680460D02*
X13215420Y-9689984D01*
X13215420Y-9689984D02*
X13177325Y-9689984D01*
X13177325Y-9689984D02*
X13158277Y-9680460D01*
X13158277Y-9680460D02*
X13148753Y-9661412D01*
X13148753Y-9661412D02*
X13148753Y-9585222D01*
X13148753Y-9585222D02*
X13158277Y-9566174D01*
X13158277Y-9566174D02*
X13177325Y-9556650D01*
X13177325Y-9556650D02*
X13215420Y-9556650D01*
X13215420Y-9556650D02*
X13234468Y-9566174D01*
X13234468Y-9566174D02*
X13243991Y-9585222D01*
X13243991Y-9585222D02*
X13243991Y-9604270D01*
X13243991Y-9604270D02*
X13148753Y-9623317D01*
X13320182Y-9680460D02*
X13339230Y-9689984D01*
X13339230Y-9689984D02*
X13377325Y-9689984D01*
X13377325Y-9689984D02*
X13396372Y-9680460D01*
X13396372Y-9680460D02*
X13405896Y-9661412D01*
X13405896Y-9661412D02*
X13405896Y-9651889D01*
X13405896Y-9651889D02*
X13396372Y-9632841D01*
X13396372Y-9632841D02*
X13377325Y-9623317D01*
X13377325Y-9623317D02*
X13348753Y-9623317D01*
X13348753Y-9623317D02*
X13329706Y-9613793D01*
X13329706Y-9613793D02*
X13320182Y-9594746D01*
X13320182Y-9594746D02*
X13320182Y-9585222D01*
X13320182Y-9585222D02*
X13329706Y-9566174D01*
X13329706Y-9566174D02*
X13348753Y-9556650D01*
X13348753Y-9556650D02*
X13377325Y-9556650D01*
X13377325Y-9556650D02*
X13396372Y-9566174D01*
X13472563Y-9766174D02*
X13482087Y-9756650D01*
X13482087Y-9756650D02*
X13501134Y-9728079D01*
X13501134Y-9728079D02*
X13510658Y-9709031D01*
X13510658Y-9709031D02*
X13520182Y-9680460D01*
X13520182Y-9680460D02*
X13529706Y-9632841D01*
X13529706Y-9632841D02*
X13529706Y-9594746D01*
X13529706Y-9594746D02*
X13520182Y-9547127D01*
X13520182Y-9547127D02*
X13510658Y-9518555D01*
X13510658Y-9518555D02*
X13501134Y-9499508D01*
X13501134Y-9499508D02*
X13482087Y-9470936D01*
X13482087Y-9470936D02*
X13472563Y-9461412D01*
D12*
X8597500Y-9812500D02*
X8697500Y-9912500D01*
X8697500Y-9812500D02*
X8597500Y-9912500D01*
X8697500Y-9862500D02*
G75*
G02*
X8597500Y-9862500I-50000J0D01*
G01*
X8597500Y-9862500D02*
G75*
G02*
X8697500Y-9862500I50000J0D01*
G01*
D11*
X9063039Y-9953984D02*
X8948753Y-9953984D01*
X9005896Y-9953984D02*
X9005896Y-9753984D01*
X9005896Y-9753984D02*
X8986848Y-9782555D01*
X8986848Y-9782555D02*
X8967801Y-9801603D01*
X8967801Y-9801603D02*
X8948753Y-9811127D01*
X9148753Y-9934936D02*
X9158277Y-9944460D01*
X9158277Y-9944460D02*
X9148753Y-9953984D01*
X9148753Y-9953984D02*
X9139229Y-9944460D01*
X9139229Y-9944460D02*
X9148753Y-9934936D01*
X9148753Y-9934936D02*
X9148753Y-9953984D01*
X9282086Y-9753984D02*
X9301134Y-9753984D01*
X9301134Y-9753984D02*
X9320182Y-9763508D01*
X9320182Y-9763508D02*
X9329705Y-9773031D01*
X9329705Y-9773031D02*
X9339229Y-9792079D01*
X9339229Y-9792079D02*
X9348753Y-9830174D01*
X9348753Y-9830174D02*
X9348753Y-9877793D01*
X9348753Y-9877793D02*
X9339229Y-9915889D01*
X9339229Y-9915889D02*
X9329705Y-9934936D01*
X9329705Y-9934936D02*
X9320182Y-9944460D01*
X9320182Y-9944460D02*
X9301134Y-9953984D01*
X9301134Y-9953984D02*
X9282086Y-9953984D01*
X9282086Y-9953984D02*
X9263039Y-9944460D01*
X9263039Y-9944460D02*
X9253515Y-9934936D01*
X9253515Y-9934936D02*
X9243991Y-9915889D01*
X9243991Y-9915889D02*
X9234467Y-9877793D01*
X9234467Y-9877793D02*
X9234467Y-9830174D01*
X9234467Y-9830174D02*
X9243991Y-9792079D01*
X9243991Y-9792079D02*
X9253515Y-9773031D01*
X9253515Y-9773031D02*
X9263039Y-9763508D01*
X9263039Y-9763508D02*
X9282086Y-9753984D01*
X9472563Y-9753984D02*
X9491610Y-9753984D01*
X9491610Y-9753984D02*
X9510658Y-9763508D01*
X9510658Y-9763508D02*
X9520182Y-9773031D01*
X9520182Y-9773031D02*
X9529705Y-9792079D01*
X9529705Y-9792079D02*
X9539229Y-9830174D01*
X9539229Y-9830174D02*
X9539229Y-9877793D01*
X9539229Y-9877793D02*
X9529705Y-9915889D01*
X9529705Y-9915889D02*
X9520182Y-9934936D01*
X9520182Y-9934936D02*
X9510658Y-9944460D01*
X9510658Y-9944460D02*
X9491610Y-9953984D01*
X9491610Y-9953984D02*
X9472563Y-9953984D01*
X9472563Y-9953984D02*
X9453515Y-9944460D01*
X9453515Y-9944460D02*
X9443991Y-9934936D01*
X9443991Y-9934936D02*
X9434467Y-9915889D01*
X9434467Y-9915889D02*
X9424944Y-9877793D01*
X9424944Y-9877793D02*
X9424944Y-9830174D01*
X9424944Y-9830174D02*
X9434467Y-9792079D01*
X9434467Y-9792079D02*
X9443991Y-9773031D01*
X9443991Y-9773031D02*
X9453515Y-9763508D01*
X9453515Y-9763508D02*
X9472563Y-9753984D01*
X9663039Y-9753984D02*
X9682086Y-9753984D01*
X9682086Y-9753984D02*
X9701134Y-9763508D01*
X9701134Y-9763508D02*
X9710658Y-9773031D01*
X9710658Y-9773031D02*
X9720182Y-9792079D01*
X9720182Y-9792079D02*
X9729705Y-9830174D01*
X9729705Y-9830174D02*
X9729705Y-9877793D01*
X9729705Y-9877793D02*
X9720182Y-9915889D01*
X9720182Y-9915889D02*
X9710658Y-9934936D01*
X9710658Y-9934936D02*
X9701134Y-9944460D01*
X9701134Y-9944460D02*
X9682086Y-9953984D01*
X9682086Y-9953984D02*
X9663039Y-9953984D01*
X9663039Y-9953984D02*
X9643991Y-9944460D01*
X9643991Y-9944460D02*
X9634467Y-9934936D01*
X9634467Y-9934936D02*
X9624944Y-9915889D01*
X9624944Y-9915889D02*
X9615420Y-9877793D01*
X9615420Y-9877793D02*
X9615420Y-9830174D01*
X9615420Y-9830174D02*
X9624944Y-9792079D01*
X9624944Y-9792079D02*
X9634467Y-9773031D01*
X9634467Y-9773031D02*
X9643991Y-9763508D01*
X9643991Y-9763508D02*
X9663039Y-9753984D01*
X9815420Y-9953984D02*
X9815420Y-9820650D01*
X9815420Y-9839698D02*
X9824944Y-9830174D01*
X9824944Y-9830174D02*
X9843991Y-9820650D01*
X9843991Y-9820650D02*
X9872563Y-9820650D01*
X9872563Y-9820650D02*
X9891610Y-9830174D01*
X9891610Y-9830174D02*
X9901134Y-9849222D01*
X9901134Y-9849222D02*
X9901134Y-9953984D01*
X9901134Y-9849222D02*
X9910658Y-9830174D01*
X9910658Y-9830174D02*
X9929705Y-9820650D01*
X9929705Y-9820650D02*
X9958277Y-9820650D01*
X9958277Y-9820650D02*
X9977325Y-9830174D01*
X9977325Y-9830174D02*
X9986848Y-9849222D01*
X9986848Y-9849222D02*
X9986848Y-9953984D01*
X10082086Y-9953984D02*
X10082086Y-9820650D01*
X10082086Y-9839698D02*
X10091610Y-9830174D01*
X10091610Y-9830174D02*
X10110658Y-9820650D01*
X10110658Y-9820650D02*
X10139229Y-9820650D01*
X10139229Y-9820650D02*
X10158277Y-9830174D01*
X10158277Y-9830174D02*
X10167801Y-9849222D01*
X10167801Y-9849222D02*
X10167801Y-9953984D01*
X10167801Y-9849222D02*
X10177325Y-9830174D01*
X10177325Y-9830174D02*
X10196372Y-9820650D01*
X10196372Y-9820650D02*
X10224944Y-9820650D01*
X10224944Y-9820650D02*
X10243991Y-9830174D01*
X10243991Y-9830174D02*
X10253515Y-9849222D01*
X10253515Y-9849222D02*
X10253515Y-9953984D01*
X10643991Y-9744460D02*
X10472563Y-10001603D01*
X10901134Y-9753984D02*
X10920182Y-9753984D01*
X10920182Y-9753984D02*
X10939229Y-9763508D01*
X10939229Y-9763508D02*
X10948753Y-9773031D01*
X10948753Y-9773031D02*
X10958277Y-9792079D01*
X10958277Y-9792079D02*
X10967801Y-9830174D01*
X10967801Y-9830174D02*
X10967801Y-9877793D01*
X10967801Y-9877793D02*
X10958277Y-9915889D01*
X10958277Y-9915889D02*
X10948753Y-9934936D01*
X10948753Y-9934936D02*
X10939229Y-9944460D01*
X10939229Y-9944460D02*
X10920182Y-9953984D01*
X10920182Y-9953984D02*
X10901134Y-9953984D01*
X10901134Y-9953984D02*
X10882087Y-9944460D01*
X10882087Y-9944460D02*
X10872563Y-9934936D01*
X10872563Y-9934936D02*
X10863039Y-9915889D01*
X10863039Y-9915889D02*
X10853515Y-9877793D01*
X10853515Y-9877793D02*
X10853515Y-9830174D01*
X10853515Y-9830174D02*
X10863039Y-9792079D01*
X10863039Y-9792079D02*
X10872563Y-9773031D01*
X10872563Y-9773031D02*
X10882087Y-9763508D01*
X10882087Y-9763508D02*
X10901134Y-9753984D01*
X11053515Y-9934936D02*
X11063039Y-9944460D01*
X11063039Y-9944460D02*
X11053515Y-9953984D01*
X11053515Y-9953984D02*
X11043991Y-9944460D01*
X11043991Y-9944460D02*
X11053515Y-9934936D01*
X11053515Y-9934936D02*
X11053515Y-9953984D01*
X11186848Y-9753984D02*
X11205896Y-9753984D01*
X11205896Y-9753984D02*
X11224944Y-9763508D01*
X11224944Y-9763508D02*
X11234467Y-9773031D01*
X11234467Y-9773031D02*
X11243991Y-9792079D01*
X11243991Y-9792079D02*
X11253515Y-9830174D01*
X11253515Y-9830174D02*
X11253515Y-9877793D01*
X11253515Y-9877793D02*
X11243991Y-9915889D01*
X11243991Y-9915889D02*
X11234467Y-9934936D01*
X11234467Y-9934936D02*
X11224944Y-9944460D01*
X11224944Y-9944460D02*
X11205896Y-9953984D01*
X11205896Y-9953984D02*
X11186848Y-9953984D01*
X11186848Y-9953984D02*
X11167801Y-9944460D01*
X11167801Y-9944460D02*
X11158277Y-9934936D01*
X11158277Y-9934936D02*
X11148753Y-9915889D01*
X11148753Y-9915889D02*
X11139229Y-9877793D01*
X11139229Y-9877793D02*
X11139229Y-9830174D01*
X11139229Y-9830174D02*
X11148753Y-9792079D01*
X11148753Y-9792079D02*
X11158277Y-9773031D01*
X11158277Y-9773031D02*
X11167801Y-9763508D01*
X11167801Y-9763508D02*
X11186848Y-9753984D01*
X11320182Y-9753984D02*
X11443991Y-9753984D01*
X11443991Y-9753984D02*
X11377325Y-9830174D01*
X11377325Y-9830174D02*
X11405896Y-9830174D01*
X11405896Y-9830174D02*
X11424944Y-9839698D01*
X11424944Y-9839698D02*
X11434467Y-9849222D01*
X11434467Y-9849222D02*
X11443991Y-9868270D01*
X11443991Y-9868270D02*
X11443991Y-9915889D01*
X11443991Y-9915889D02*
X11434467Y-9934936D01*
X11434467Y-9934936D02*
X11424944Y-9944460D01*
X11424944Y-9944460D02*
X11405896Y-9953984D01*
X11405896Y-9953984D02*
X11348753Y-9953984D01*
X11348753Y-9953984D02*
X11329706Y-9944460D01*
X11329706Y-9944460D02*
X11320182Y-9934936D01*
X11539229Y-9953984D02*
X11577325Y-9953984D01*
X11577325Y-9953984D02*
X11596372Y-9944460D01*
X11596372Y-9944460D02*
X11605896Y-9934936D01*
X11605896Y-9934936D02*
X11624944Y-9906365D01*
X11624944Y-9906365D02*
X11634467Y-9868270D01*
X11634467Y-9868270D02*
X11634467Y-9792079D01*
X11634467Y-9792079D02*
X11624944Y-9773031D01*
X11624944Y-9773031D02*
X11615420Y-9763508D01*
X11615420Y-9763508D02*
X11596372Y-9753984D01*
X11596372Y-9753984D02*
X11558277Y-9753984D01*
X11558277Y-9753984D02*
X11539229Y-9763508D01*
X11539229Y-9763508D02*
X11529706Y-9773031D01*
X11529706Y-9773031D02*
X11520182Y-9792079D01*
X11520182Y-9792079D02*
X11520182Y-9839698D01*
X11520182Y-9839698D02*
X11529706Y-9858746D01*
X11529706Y-9858746D02*
X11539229Y-9868270D01*
X11539229Y-9868270D02*
X11558277Y-9877793D01*
X11558277Y-9877793D02*
X11596372Y-9877793D01*
X11596372Y-9877793D02*
X11615420Y-9868270D01*
X11615420Y-9868270D02*
X11624944Y-9858746D01*
X11624944Y-9858746D02*
X11634467Y-9839698D01*
X11805896Y-9820650D02*
X11805896Y-9953984D01*
X11758277Y-9744460D02*
X11710658Y-9887317D01*
X11710658Y-9887317D02*
X11834467Y-9887317D01*
X11901134Y-9753984D02*
X11901134Y-9792079D01*
X11977325Y-9753984D02*
X11977325Y-9792079D01*
X12272563Y-10030174D02*
X12263039Y-10020650D01*
X12263039Y-10020650D02*
X12243991Y-9992079D01*
X12243991Y-9992079D02*
X12234468Y-9973031D01*
X12234468Y-9973031D02*
X12224944Y-9944460D01*
X12224944Y-9944460D02*
X12215420Y-9896841D01*
X12215420Y-9896841D02*
X12215420Y-9858746D01*
X12215420Y-9858746D02*
X12224944Y-9811127D01*
X12224944Y-9811127D02*
X12234468Y-9782555D01*
X12234468Y-9782555D02*
X12243991Y-9763508D01*
X12243991Y-9763508D02*
X12263039Y-9734936D01*
X12263039Y-9734936D02*
X12272563Y-9725412D01*
X12339229Y-9773031D02*
X12348753Y-9763508D01*
X12348753Y-9763508D02*
X12367801Y-9753984D01*
X12367801Y-9753984D02*
X12415420Y-9753984D01*
X12415420Y-9753984D02*
X12434468Y-9763508D01*
X12434468Y-9763508D02*
X12443991Y-9773031D01*
X12443991Y-9773031D02*
X12453515Y-9792079D01*
X12453515Y-9792079D02*
X12453515Y-9811127D01*
X12453515Y-9811127D02*
X12443991Y-9839698D01*
X12443991Y-9839698D02*
X12329706Y-9953984D01*
X12329706Y-9953984D02*
X12453515Y-9953984D01*
X12567801Y-9839698D02*
X12548753Y-9830174D01*
X12548753Y-9830174D02*
X12539229Y-9820650D01*
X12539229Y-9820650D02*
X12529706Y-9801603D01*
X12529706Y-9801603D02*
X12529706Y-9792079D01*
X12529706Y-9792079D02*
X12539229Y-9773031D01*
X12539229Y-9773031D02*
X12548753Y-9763508D01*
X12548753Y-9763508D02*
X12567801Y-9753984D01*
X12567801Y-9753984D02*
X12605896Y-9753984D01*
X12605896Y-9753984D02*
X12624944Y-9763508D01*
X12624944Y-9763508D02*
X12634468Y-9773031D01*
X12634468Y-9773031D02*
X12643991Y-9792079D01*
X12643991Y-9792079D02*
X12643991Y-9801603D01*
X12643991Y-9801603D02*
X12634468Y-9820650D01*
X12634468Y-9820650D02*
X12624944Y-9830174D01*
X12624944Y-9830174D02*
X12605896Y-9839698D01*
X12605896Y-9839698D02*
X12567801Y-9839698D01*
X12567801Y-9839698D02*
X12548753Y-9849222D01*
X12548753Y-9849222D02*
X12539229Y-9858746D01*
X12539229Y-9858746D02*
X12529706Y-9877793D01*
X12529706Y-9877793D02*
X12529706Y-9915889D01*
X12529706Y-9915889D02*
X12539229Y-9934936D01*
X12539229Y-9934936D02*
X12548753Y-9944460D01*
X12548753Y-9944460D02*
X12567801Y-9953984D01*
X12567801Y-9953984D02*
X12605896Y-9953984D01*
X12605896Y-9953984D02*
X12624944Y-9944460D01*
X12624944Y-9944460D02*
X12634468Y-9934936D01*
X12634468Y-9934936D02*
X12643991Y-9915889D01*
X12643991Y-9915889D02*
X12643991Y-9877793D01*
X12643991Y-9877793D02*
X12634468Y-9858746D01*
X12634468Y-9858746D02*
X12624944Y-9849222D01*
X12624944Y-9849222D02*
X12605896Y-9839698D01*
X12882087Y-9953984D02*
X12882087Y-9753984D01*
X12967801Y-9953984D02*
X12967801Y-9849222D01*
X12967801Y-9849222D02*
X12958277Y-9830174D01*
X12958277Y-9830174D02*
X12939230Y-9820650D01*
X12939230Y-9820650D02*
X12910658Y-9820650D01*
X12910658Y-9820650D02*
X12891610Y-9830174D01*
X12891610Y-9830174D02*
X12882087Y-9839698D01*
X13091610Y-9953984D02*
X13072563Y-9944460D01*
X13072563Y-9944460D02*
X13063039Y-9934936D01*
X13063039Y-9934936D02*
X13053515Y-9915889D01*
X13053515Y-9915889D02*
X13053515Y-9858746D01*
X13053515Y-9858746D02*
X13063039Y-9839698D01*
X13063039Y-9839698D02*
X13072563Y-9830174D01*
X13072563Y-9830174D02*
X13091610Y-9820650D01*
X13091610Y-9820650D02*
X13120182Y-9820650D01*
X13120182Y-9820650D02*
X13139230Y-9830174D01*
X13139230Y-9830174D02*
X13148753Y-9839698D01*
X13148753Y-9839698D02*
X13158277Y-9858746D01*
X13158277Y-9858746D02*
X13158277Y-9915889D01*
X13158277Y-9915889D02*
X13148753Y-9934936D01*
X13148753Y-9934936D02*
X13139230Y-9944460D01*
X13139230Y-9944460D02*
X13120182Y-9953984D01*
X13120182Y-9953984D02*
X13091610Y-9953984D01*
X13272563Y-9953984D02*
X13253515Y-9944460D01*
X13253515Y-9944460D02*
X13243991Y-9925412D01*
X13243991Y-9925412D02*
X13243991Y-9753984D01*
X13424944Y-9944460D02*
X13405896Y-9953984D01*
X13405896Y-9953984D02*
X13367801Y-9953984D01*
X13367801Y-9953984D02*
X13348753Y-9944460D01*
X13348753Y-9944460D02*
X13339230Y-9925412D01*
X13339230Y-9925412D02*
X13339230Y-9849222D01*
X13339230Y-9849222D02*
X13348753Y-9830174D01*
X13348753Y-9830174D02*
X13367801Y-9820650D01*
X13367801Y-9820650D02*
X13405896Y-9820650D01*
X13405896Y-9820650D02*
X13424944Y-9830174D01*
X13424944Y-9830174D02*
X13434468Y-9849222D01*
X13434468Y-9849222D02*
X13434468Y-9868270D01*
X13434468Y-9868270D02*
X13339230Y-9887317D01*
X13510658Y-9944460D02*
X13529706Y-9953984D01*
X13529706Y-9953984D02*
X13567801Y-9953984D01*
X13567801Y-9953984D02*
X13586849Y-9944460D01*
X13586849Y-9944460D02*
X13596372Y-9925412D01*
X13596372Y-9925412D02*
X13596372Y-9915889D01*
X13596372Y-9915889D02*
X13586849Y-9896841D01*
X13586849Y-9896841D02*
X13567801Y-9887317D01*
X13567801Y-9887317D02*
X13539230Y-9887317D01*
X13539230Y-9887317D02*
X13520182Y-9877793D01*
X13520182Y-9877793D02*
X13510658Y-9858746D01*
X13510658Y-9858746D02*
X13510658Y-9849222D01*
X13510658Y-9849222D02*
X13520182Y-9830174D01*
X13520182Y-9830174D02*
X13539230Y-9820650D01*
X13539230Y-9820650D02*
X13567801Y-9820650D01*
X13567801Y-9820650D02*
X13586849Y-9830174D01*
X13663039Y-10030174D02*
X13672563Y-10020650D01*
X13672563Y-10020650D02*
X13691611Y-9992079D01*
X13691611Y-9992079D02*
X13701134Y-9973031D01*
X13701134Y-9973031D02*
X13710658Y-9944460D01*
X13710658Y-9944460D02*
X13720182Y-9896841D01*
X13720182Y-9896841D02*
X13720182Y-9858746D01*
X13720182Y-9858746D02*
X13710658Y-9811127D01*
X13710658Y-9811127D02*
X13701134Y-9782555D01*
X13701134Y-9782555D02*
X13691611Y-9763508D01*
X13691611Y-9763508D02*
X13672563Y-9734936D01*
X13672563Y-9734936D02*
X13663039Y-9725412D01*
D13*
X8577500Y-10066500D02*
X8697500Y-10186500D01*
X8697500Y-10066500D02*
X8577500Y-10186500D01*
X8637500Y-10066500D02*
X8637500Y-10186500D01*
X8577500Y-10126500D02*
X8697500Y-10126500D01*
D11*
X9063039Y-10217984D02*
X8948753Y-10217984D01*
X9005896Y-10217984D02*
X9005896Y-10017984D01*
X9005896Y-10017984D02*
X8986848Y-10046555D01*
X8986848Y-10046555D02*
X8967801Y-10065603D01*
X8967801Y-10065603D02*
X8948753Y-10075127D01*
X9148753Y-10198936D02*
X9158277Y-10208460D01*
X9158277Y-10208460D02*
X9148753Y-10217984D01*
X9148753Y-10217984D02*
X9139229Y-10208460D01*
X9139229Y-10208460D02*
X9148753Y-10198936D01*
X9148753Y-10198936D02*
X9148753Y-10217984D01*
X9234467Y-10037031D02*
X9243991Y-10027508D01*
X9243991Y-10027508D02*
X9263039Y-10017984D01*
X9263039Y-10017984D02*
X9310658Y-10017984D01*
X9310658Y-10017984D02*
X9329705Y-10027508D01*
X9329705Y-10027508D02*
X9339229Y-10037031D01*
X9339229Y-10037031D02*
X9348753Y-10056079D01*
X9348753Y-10056079D02*
X9348753Y-10075127D01*
X9348753Y-10075127D02*
X9339229Y-10103698D01*
X9339229Y-10103698D02*
X9224944Y-10217984D01*
X9224944Y-10217984D02*
X9348753Y-10217984D01*
X9472563Y-10017984D02*
X9491610Y-10017984D01*
X9491610Y-10017984D02*
X9510658Y-10027508D01*
X9510658Y-10027508D02*
X9520182Y-10037031D01*
X9520182Y-10037031D02*
X9529705Y-10056079D01*
X9529705Y-10056079D02*
X9539229Y-10094174D01*
X9539229Y-10094174D02*
X9539229Y-10141793D01*
X9539229Y-10141793D02*
X9529705Y-10179889D01*
X9529705Y-10179889D02*
X9520182Y-10198936D01*
X9520182Y-10198936D02*
X9510658Y-10208460D01*
X9510658Y-10208460D02*
X9491610Y-10217984D01*
X9491610Y-10217984D02*
X9472563Y-10217984D01*
X9472563Y-10217984D02*
X9453515Y-10208460D01*
X9453515Y-10208460D02*
X9443991Y-10198936D01*
X9443991Y-10198936D02*
X9434467Y-10179889D01*
X9434467Y-10179889D02*
X9424944Y-10141793D01*
X9424944Y-10141793D02*
X9424944Y-10094174D01*
X9424944Y-10094174D02*
X9434467Y-10056079D01*
X9434467Y-10056079D02*
X9443991Y-10037031D01*
X9443991Y-10037031D02*
X9453515Y-10027508D01*
X9453515Y-10027508D02*
X9472563Y-10017984D01*
X9663039Y-10017984D02*
X9682086Y-10017984D01*
X9682086Y-10017984D02*
X9701134Y-10027508D01*
X9701134Y-10027508D02*
X9710658Y-10037031D01*
X9710658Y-10037031D02*
X9720182Y-10056079D01*
X9720182Y-10056079D02*
X9729705Y-10094174D01*
X9729705Y-10094174D02*
X9729705Y-10141793D01*
X9729705Y-10141793D02*
X9720182Y-10179889D01*
X9720182Y-10179889D02*
X9710658Y-10198936D01*
X9710658Y-10198936D02*
X9701134Y-10208460D01*
X9701134Y-10208460D02*
X9682086Y-10217984D01*
X9682086Y-10217984D02*
X9663039Y-10217984D01*
X9663039Y-10217984D02*
X9643991Y-10208460D01*
X9643991Y-10208460D02*
X9634467Y-10198936D01*
X9634467Y-10198936D02*
X9624944Y-10179889D01*
X9624944Y-10179889D02*
X9615420Y-10141793D01*
X9615420Y-10141793D02*
X9615420Y-10094174D01*
X9615420Y-10094174D02*
X9624944Y-10056079D01*
X9624944Y-10056079D02*
X9634467Y-10037031D01*
X9634467Y-10037031D02*
X9643991Y-10027508D01*
X9643991Y-10027508D02*
X9663039Y-10017984D01*
X9815420Y-10217984D02*
X9815420Y-10084650D01*
X9815420Y-10103698D02*
X9824944Y-10094174D01*
X9824944Y-10094174D02*
X9843991Y-10084650D01*
X9843991Y-10084650D02*
X9872563Y-10084650D01*
X9872563Y-10084650D02*
X9891610Y-10094174D01*
X9891610Y-10094174D02*
X9901134Y-10113222D01*
X9901134Y-10113222D02*
X9901134Y-10217984D01*
X9901134Y-10113222D02*
X9910658Y-10094174D01*
X9910658Y-10094174D02*
X9929705Y-10084650D01*
X9929705Y-10084650D02*
X9958277Y-10084650D01*
X9958277Y-10084650D02*
X9977325Y-10094174D01*
X9977325Y-10094174D02*
X9986848Y-10113222D01*
X9986848Y-10113222D02*
X9986848Y-10217984D01*
X10082086Y-10217984D02*
X10082086Y-10084650D01*
X10082086Y-10103698D02*
X10091610Y-10094174D01*
X10091610Y-10094174D02*
X10110658Y-10084650D01*
X10110658Y-10084650D02*
X10139229Y-10084650D01*
X10139229Y-10084650D02*
X10158277Y-10094174D01*
X10158277Y-10094174D02*
X10167801Y-10113222D01*
X10167801Y-10113222D02*
X10167801Y-10217984D01*
X10167801Y-10113222D02*
X10177325Y-10094174D01*
X10177325Y-10094174D02*
X10196372Y-10084650D01*
X10196372Y-10084650D02*
X10224944Y-10084650D01*
X10224944Y-10084650D02*
X10243991Y-10094174D01*
X10243991Y-10094174D02*
X10253515Y-10113222D01*
X10253515Y-10113222D02*
X10253515Y-10217984D01*
X10643991Y-10008460D02*
X10472563Y-10265603D01*
X10901134Y-10017984D02*
X10920182Y-10017984D01*
X10920182Y-10017984D02*
X10939229Y-10027508D01*
X10939229Y-10027508D02*
X10948753Y-10037031D01*
X10948753Y-10037031D02*
X10958277Y-10056079D01*
X10958277Y-10056079D02*
X10967801Y-10094174D01*
X10967801Y-10094174D02*
X10967801Y-10141793D01*
X10967801Y-10141793D02*
X10958277Y-10179889D01*
X10958277Y-10179889D02*
X10948753Y-10198936D01*
X10948753Y-10198936D02*
X10939229Y-10208460D01*
X10939229Y-10208460D02*
X10920182Y-10217984D01*
X10920182Y-10217984D02*
X10901134Y-10217984D01*
X10901134Y-10217984D02*
X10882087Y-10208460D01*
X10882087Y-10208460D02*
X10872563Y-10198936D01*
X10872563Y-10198936D02*
X10863039Y-10179889D01*
X10863039Y-10179889D02*
X10853515Y-10141793D01*
X10853515Y-10141793D02*
X10853515Y-10094174D01*
X10853515Y-10094174D02*
X10863039Y-10056079D01*
X10863039Y-10056079D02*
X10872563Y-10037031D01*
X10872563Y-10037031D02*
X10882087Y-10027508D01*
X10882087Y-10027508D02*
X10901134Y-10017984D01*
X11053515Y-10198936D02*
X11063039Y-10208460D01*
X11063039Y-10208460D02*
X11053515Y-10217984D01*
X11053515Y-10217984D02*
X11043991Y-10208460D01*
X11043991Y-10208460D02*
X11053515Y-10198936D01*
X11053515Y-10198936D02*
X11053515Y-10217984D01*
X11186848Y-10017984D02*
X11205896Y-10017984D01*
X11205896Y-10017984D02*
X11224944Y-10027508D01*
X11224944Y-10027508D02*
X11234467Y-10037031D01*
X11234467Y-10037031D02*
X11243991Y-10056079D01*
X11243991Y-10056079D02*
X11253515Y-10094174D01*
X11253515Y-10094174D02*
X11253515Y-10141793D01*
X11253515Y-10141793D02*
X11243991Y-10179889D01*
X11243991Y-10179889D02*
X11234467Y-10198936D01*
X11234467Y-10198936D02*
X11224944Y-10208460D01*
X11224944Y-10208460D02*
X11205896Y-10217984D01*
X11205896Y-10217984D02*
X11186848Y-10217984D01*
X11186848Y-10217984D02*
X11167801Y-10208460D01*
X11167801Y-10208460D02*
X11158277Y-10198936D01*
X11158277Y-10198936D02*
X11148753Y-10179889D01*
X11148753Y-10179889D02*
X11139229Y-10141793D01*
X11139229Y-10141793D02*
X11139229Y-10094174D01*
X11139229Y-10094174D02*
X11148753Y-10056079D01*
X11148753Y-10056079D02*
X11158277Y-10037031D01*
X11158277Y-10037031D02*
X11167801Y-10027508D01*
X11167801Y-10027508D02*
X11186848Y-10017984D01*
X11424944Y-10084650D02*
X11424944Y-10217984D01*
X11377325Y-10008460D02*
X11329706Y-10151317D01*
X11329706Y-10151317D02*
X11453515Y-10151317D01*
X11510658Y-10017984D02*
X11643991Y-10017984D01*
X11643991Y-10017984D02*
X11558277Y-10217984D01*
X11710658Y-10037031D02*
X11720182Y-10027508D01*
X11720182Y-10027508D02*
X11739229Y-10017984D01*
X11739229Y-10017984D02*
X11786848Y-10017984D01*
X11786848Y-10017984D02*
X11805896Y-10027508D01*
X11805896Y-10027508D02*
X11815420Y-10037031D01*
X11815420Y-10037031D02*
X11824944Y-10056079D01*
X11824944Y-10056079D02*
X11824944Y-10075127D01*
X11824944Y-10075127D02*
X11815420Y-10103698D01*
X11815420Y-10103698D02*
X11701134Y-10217984D01*
X11701134Y-10217984D02*
X11824944Y-10217984D01*
X11901134Y-10017984D02*
X11901134Y-10056079D01*
X11977325Y-10017984D02*
X11977325Y-10056079D01*
X12272563Y-10294174D02*
X12263039Y-10284650D01*
X12263039Y-10284650D02*
X12243991Y-10256079D01*
X12243991Y-10256079D02*
X12234468Y-10237031D01*
X12234468Y-10237031D02*
X12224944Y-10208460D01*
X12224944Y-10208460D02*
X12215420Y-10160841D01*
X12215420Y-10160841D02*
X12215420Y-10122746D01*
X12215420Y-10122746D02*
X12224944Y-10075127D01*
X12224944Y-10075127D02*
X12234468Y-10046555D01*
X12234468Y-10046555D02*
X12243991Y-10027508D01*
X12243991Y-10027508D02*
X12263039Y-9998936D01*
X12263039Y-9998936D02*
X12272563Y-9989412D01*
X12434468Y-10017984D02*
X12396372Y-10017984D01*
X12396372Y-10017984D02*
X12377325Y-10027508D01*
X12377325Y-10027508D02*
X12367801Y-10037031D01*
X12367801Y-10037031D02*
X12348753Y-10065603D01*
X12348753Y-10065603D02*
X12339229Y-10103698D01*
X12339229Y-10103698D02*
X12339229Y-10179889D01*
X12339229Y-10179889D02*
X12348753Y-10198936D01*
X12348753Y-10198936D02*
X12358277Y-10208460D01*
X12358277Y-10208460D02*
X12377325Y-10217984D01*
X12377325Y-10217984D02*
X12415420Y-10217984D01*
X12415420Y-10217984D02*
X12434468Y-10208460D01*
X12434468Y-10208460D02*
X12443991Y-10198936D01*
X12443991Y-10198936D02*
X12453515Y-10179889D01*
X12453515Y-10179889D02*
X12453515Y-10132270D01*
X12453515Y-10132270D02*
X12443991Y-10113222D01*
X12443991Y-10113222D02*
X12434468Y-10103698D01*
X12434468Y-10103698D02*
X12415420Y-10094174D01*
X12415420Y-10094174D02*
X12377325Y-10094174D01*
X12377325Y-10094174D02*
X12358277Y-10103698D01*
X12358277Y-10103698D02*
X12348753Y-10113222D01*
X12348753Y-10113222D02*
X12339229Y-10132270D01*
X12691610Y-10217984D02*
X12691610Y-10017984D01*
X12777325Y-10217984D02*
X12777325Y-10113222D01*
X12777325Y-10113222D02*
X12767801Y-10094174D01*
X12767801Y-10094174D02*
X12748753Y-10084650D01*
X12748753Y-10084650D02*
X12720182Y-10084650D01*
X12720182Y-10084650D02*
X12701134Y-10094174D01*
X12701134Y-10094174D02*
X12691610Y-10103698D01*
X12901134Y-10217984D02*
X12882087Y-10208460D01*
X12882087Y-10208460D02*
X12872563Y-10198936D01*
X12872563Y-10198936D02*
X12863039Y-10179889D01*
X12863039Y-10179889D02*
X12863039Y-10122746D01*
X12863039Y-10122746D02*
X12872563Y-10103698D01*
X12872563Y-10103698D02*
X12882087Y-10094174D01*
X12882087Y-10094174D02*
X12901134Y-10084650D01*
X12901134Y-10084650D02*
X12929706Y-10084650D01*
X12929706Y-10084650D02*
X12948753Y-10094174D01*
X12948753Y-10094174D02*
X12958277Y-10103698D01*
X12958277Y-10103698D02*
X12967801Y-10122746D01*
X12967801Y-10122746D02*
X12967801Y-10179889D01*
X12967801Y-10179889D02*
X12958277Y-10198936D01*
X12958277Y-10198936D02*
X12948753Y-10208460D01*
X12948753Y-10208460D02*
X12929706Y-10217984D01*
X12929706Y-10217984D02*
X12901134Y-10217984D01*
X13082087Y-10217984D02*
X13063039Y-10208460D01*
X13063039Y-10208460D02*
X13053515Y-10189412D01*
X13053515Y-10189412D02*
X13053515Y-10017984D01*
X13234468Y-10208460D02*
X13215420Y-10217984D01*
X13215420Y-10217984D02*
X13177325Y-10217984D01*
X13177325Y-10217984D02*
X13158277Y-10208460D01*
X13158277Y-10208460D02*
X13148753Y-10189412D01*
X13148753Y-10189412D02*
X13148753Y-10113222D01*
X13148753Y-10113222D02*
X13158277Y-10094174D01*
X13158277Y-10094174D02*
X13177325Y-10084650D01*
X13177325Y-10084650D02*
X13215420Y-10084650D01*
X13215420Y-10084650D02*
X13234468Y-10094174D01*
X13234468Y-10094174D02*
X13243991Y-10113222D01*
X13243991Y-10113222D02*
X13243991Y-10132270D01*
X13243991Y-10132270D02*
X13148753Y-10151317D01*
X13320182Y-10208460D02*
X13339230Y-10217984D01*
X13339230Y-10217984D02*
X13377325Y-10217984D01*
X13377325Y-10217984D02*
X13396372Y-10208460D01*
X13396372Y-10208460D02*
X13405896Y-10189412D01*
X13405896Y-10189412D02*
X13405896Y-10179889D01*
X13405896Y-10179889D02*
X13396372Y-10160841D01*
X13396372Y-10160841D02*
X13377325Y-10151317D01*
X13377325Y-10151317D02*
X13348753Y-10151317D01*
X13348753Y-10151317D02*
X13329706Y-10141793D01*
X13329706Y-10141793D02*
X13320182Y-10122746D01*
X13320182Y-10122746D02*
X13320182Y-10113222D01*
X13320182Y-10113222D02*
X13329706Y-10094174D01*
X13329706Y-10094174D02*
X13348753Y-10084650D01*
X13348753Y-10084650D02*
X13377325Y-10084650D01*
X13377325Y-10084650D02*
X13396372Y-10094174D01*
X13472563Y-10294174D02*
X13482087Y-10284650D01*
X13482087Y-10284650D02*
X13501134Y-10256079D01*
X13501134Y-10256079D02*
X13510658Y-10237031D01*
X13510658Y-10237031D02*
X13520182Y-10208460D01*
X13520182Y-10208460D02*
X13529706Y-10160841D01*
X13529706Y-10160841D02*
X13529706Y-10122746D01*
X13529706Y-10122746D02*
X13520182Y-10075127D01*
X13520182Y-10075127D02*
X13510658Y-10046555D01*
X13510658Y-10046555D02*
X13501134Y-10027508D01*
X13501134Y-10027508D02*
X13482087Y-9998936D01*
X13482087Y-9998936D02*
X13472563Y-9989412D01*
X8497500Y-10290500D02*
X8697500Y-10490500D01*
X8697500Y-10290500D02*
X8497500Y-10490500D01*
X8668211Y-10461211D02*
X8668211Y-10319789D01*
X8526789Y-10319789D01*
X8526789Y-10461211D01*
X8668211Y-10461211D01*
X8948753Y-10301031D02*
X8958277Y-10291508D01*
X8958277Y-10291508D02*
X8977324Y-10281984D01*
X8977324Y-10281984D02*
X9024944Y-10281984D01*
X9024944Y-10281984D02*
X9043991Y-10291508D01*
X9043991Y-10291508D02*
X9053515Y-10301031D01*
X9053515Y-10301031D02*
X9063039Y-10320079D01*
X9063039Y-10320079D02*
X9063039Y-10339127D01*
X9063039Y-10339127D02*
X9053515Y-10367698D01*
X9053515Y-10367698D02*
X8939229Y-10481984D01*
X8939229Y-10481984D02*
X9063039Y-10481984D01*
X9148753Y-10462936D02*
X9158277Y-10472460D01*
X9158277Y-10472460D02*
X9148753Y-10481984D01*
X9148753Y-10481984D02*
X9139229Y-10472460D01*
X9139229Y-10472460D02*
X9148753Y-10462936D01*
X9148753Y-10462936D02*
X9148753Y-10481984D01*
X9253515Y-10481984D02*
X9291610Y-10481984D01*
X9291610Y-10481984D02*
X9310658Y-10472460D01*
X9310658Y-10472460D02*
X9320182Y-10462936D01*
X9320182Y-10462936D02*
X9339229Y-10434365D01*
X9339229Y-10434365D02*
X9348753Y-10396270D01*
X9348753Y-10396270D02*
X9348753Y-10320079D01*
X9348753Y-10320079D02*
X9339229Y-10301031D01*
X9339229Y-10301031D02*
X9329705Y-10291508D01*
X9329705Y-10291508D02*
X9310658Y-10281984D01*
X9310658Y-10281984D02*
X9272563Y-10281984D01*
X9272563Y-10281984D02*
X9253515Y-10291508D01*
X9253515Y-10291508D02*
X9243991Y-10301031D01*
X9243991Y-10301031D02*
X9234467Y-10320079D01*
X9234467Y-10320079D02*
X9234467Y-10367698D01*
X9234467Y-10367698D02*
X9243991Y-10386746D01*
X9243991Y-10386746D02*
X9253515Y-10396270D01*
X9253515Y-10396270D02*
X9272563Y-10405793D01*
X9272563Y-10405793D02*
X9310658Y-10405793D01*
X9310658Y-10405793D02*
X9329705Y-10396270D01*
X9329705Y-10396270D02*
X9339229Y-10386746D01*
X9339229Y-10386746D02*
X9348753Y-10367698D01*
X9415420Y-10281984D02*
X9548753Y-10281984D01*
X9548753Y-10281984D02*
X9463039Y-10481984D01*
X9663039Y-10281984D02*
X9682086Y-10281984D01*
X9682086Y-10281984D02*
X9701134Y-10291508D01*
X9701134Y-10291508D02*
X9710658Y-10301031D01*
X9710658Y-10301031D02*
X9720182Y-10320079D01*
X9720182Y-10320079D02*
X9729705Y-10358174D01*
X9729705Y-10358174D02*
X9729705Y-10405793D01*
X9729705Y-10405793D02*
X9720182Y-10443889D01*
X9720182Y-10443889D02*
X9710658Y-10462936D01*
X9710658Y-10462936D02*
X9701134Y-10472460D01*
X9701134Y-10472460D02*
X9682086Y-10481984D01*
X9682086Y-10481984D02*
X9663039Y-10481984D01*
X9663039Y-10481984D02*
X9643991Y-10472460D01*
X9643991Y-10472460D02*
X9634467Y-10462936D01*
X9634467Y-10462936D02*
X9624944Y-10443889D01*
X9624944Y-10443889D02*
X9615420Y-10405793D01*
X9615420Y-10405793D02*
X9615420Y-10358174D01*
X9615420Y-10358174D02*
X9624944Y-10320079D01*
X9624944Y-10320079D02*
X9634467Y-10301031D01*
X9634467Y-10301031D02*
X9643991Y-10291508D01*
X9643991Y-10291508D02*
X9663039Y-10281984D01*
X9815420Y-10481984D02*
X9815420Y-10348650D01*
X9815420Y-10367698D02*
X9824944Y-10358174D01*
X9824944Y-10358174D02*
X9843991Y-10348650D01*
X9843991Y-10348650D02*
X9872563Y-10348650D01*
X9872563Y-10348650D02*
X9891610Y-10358174D01*
X9891610Y-10358174D02*
X9901134Y-10377222D01*
X9901134Y-10377222D02*
X9901134Y-10481984D01*
X9901134Y-10377222D02*
X9910658Y-10358174D01*
X9910658Y-10358174D02*
X9929705Y-10348650D01*
X9929705Y-10348650D02*
X9958277Y-10348650D01*
X9958277Y-10348650D02*
X9977325Y-10358174D01*
X9977325Y-10358174D02*
X9986848Y-10377222D01*
X9986848Y-10377222D02*
X9986848Y-10481984D01*
X10082086Y-10481984D02*
X10082086Y-10348650D01*
X10082086Y-10367698D02*
X10091610Y-10358174D01*
X10091610Y-10358174D02*
X10110658Y-10348650D01*
X10110658Y-10348650D02*
X10139229Y-10348650D01*
X10139229Y-10348650D02*
X10158277Y-10358174D01*
X10158277Y-10358174D02*
X10167801Y-10377222D01*
X10167801Y-10377222D02*
X10167801Y-10481984D01*
X10167801Y-10377222D02*
X10177325Y-10358174D01*
X10177325Y-10358174D02*
X10196372Y-10348650D01*
X10196372Y-10348650D02*
X10224944Y-10348650D01*
X10224944Y-10348650D02*
X10243991Y-10358174D01*
X10243991Y-10358174D02*
X10253515Y-10377222D01*
X10253515Y-10377222D02*
X10253515Y-10481984D01*
X10643991Y-10272460D02*
X10472563Y-10529603D01*
X10901134Y-10281984D02*
X10920182Y-10281984D01*
X10920182Y-10281984D02*
X10939229Y-10291508D01*
X10939229Y-10291508D02*
X10948753Y-10301031D01*
X10948753Y-10301031D02*
X10958277Y-10320079D01*
X10958277Y-10320079D02*
X10967801Y-10358174D01*
X10967801Y-10358174D02*
X10967801Y-10405793D01*
X10967801Y-10405793D02*
X10958277Y-10443889D01*
X10958277Y-10443889D02*
X10948753Y-10462936D01*
X10948753Y-10462936D02*
X10939229Y-10472460D01*
X10939229Y-10472460D02*
X10920182Y-10481984D01*
X10920182Y-10481984D02*
X10901134Y-10481984D01*
X10901134Y-10481984D02*
X10882087Y-10472460D01*
X10882087Y-10472460D02*
X10872563Y-10462936D01*
X10872563Y-10462936D02*
X10863039Y-10443889D01*
X10863039Y-10443889D02*
X10853515Y-10405793D01*
X10853515Y-10405793D02*
X10853515Y-10358174D01*
X10853515Y-10358174D02*
X10863039Y-10320079D01*
X10863039Y-10320079D02*
X10872563Y-10301031D01*
X10872563Y-10301031D02*
X10882087Y-10291508D01*
X10882087Y-10291508D02*
X10901134Y-10281984D01*
X11053515Y-10462936D02*
X11063039Y-10472460D01*
X11063039Y-10472460D02*
X11053515Y-10481984D01*
X11053515Y-10481984D02*
X11043991Y-10472460D01*
X11043991Y-10472460D02*
X11053515Y-10462936D01*
X11053515Y-10462936D02*
X11053515Y-10481984D01*
X11253515Y-10481984D02*
X11139229Y-10481984D01*
X11196372Y-10481984D02*
X11196372Y-10281984D01*
X11196372Y-10281984D02*
X11177325Y-10310555D01*
X11177325Y-10310555D02*
X11158277Y-10329603D01*
X11158277Y-10329603D02*
X11139229Y-10339127D01*
X11443991Y-10481984D02*
X11329706Y-10481984D01*
X11386848Y-10481984D02*
X11386848Y-10281984D01*
X11386848Y-10281984D02*
X11367801Y-10310555D01*
X11367801Y-10310555D02*
X11348753Y-10329603D01*
X11348753Y-10329603D02*
X11329706Y-10339127D01*
X11615420Y-10281984D02*
X11577325Y-10281984D01*
X11577325Y-10281984D02*
X11558277Y-10291508D01*
X11558277Y-10291508D02*
X11548753Y-10301031D01*
X11548753Y-10301031D02*
X11529706Y-10329603D01*
X11529706Y-10329603D02*
X11520182Y-10367698D01*
X11520182Y-10367698D02*
X11520182Y-10443889D01*
X11520182Y-10443889D02*
X11529706Y-10462936D01*
X11529706Y-10462936D02*
X11539229Y-10472460D01*
X11539229Y-10472460D02*
X11558277Y-10481984D01*
X11558277Y-10481984D02*
X11596372Y-10481984D01*
X11596372Y-10481984D02*
X11615420Y-10472460D01*
X11615420Y-10472460D02*
X11624944Y-10462936D01*
X11624944Y-10462936D02*
X11634467Y-10443889D01*
X11634467Y-10443889D02*
X11634467Y-10396270D01*
X11634467Y-10396270D02*
X11624944Y-10377222D01*
X11624944Y-10377222D02*
X11615420Y-10367698D01*
X11615420Y-10367698D02*
X11596372Y-10358174D01*
X11596372Y-10358174D02*
X11558277Y-10358174D01*
X11558277Y-10358174D02*
X11539229Y-10367698D01*
X11539229Y-10367698D02*
X11529706Y-10377222D01*
X11529706Y-10377222D02*
X11520182Y-10396270D01*
X11729706Y-10481984D02*
X11767801Y-10481984D01*
X11767801Y-10481984D02*
X11786848Y-10472460D01*
X11786848Y-10472460D02*
X11796372Y-10462936D01*
X11796372Y-10462936D02*
X11815420Y-10434365D01*
X11815420Y-10434365D02*
X11824944Y-10396270D01*
X11824944Y-10396270D02*
X11824944Y-10320079D01*
X11824944Y-10320079D02*
X11815420Y-10301031D01*
X11815420Y-10301031D02*
X11805896Y-10291508D01*
X11805896Y-10291508D02*
X11786848Y-10281984D01*
X11786848Y-10281984D02*
X11748753Y-10281984D01*
X11748753Y-10281984D02*
X11729706Y-10291508D01*
X11729706Y-10291508D02*
X11720182Y-10301031D01*
X11720182Y-10301031D02*
X11710658Y-10320079D01*
X11710658Y-10320079D02*
X11710658Y-10367698D01*
X11710658Y-10367698D02*
X11720182Y-10386746D01*
X11720182Y-10386746D02*
X11729706Y-10396270D01*
X11729706Y-10396270D02*
X11748753Y-10405793D01*
X11748753Y-10405793D02*
X11786848Y-10405793D01*
X11786848Y-10405793D02*
X11805896Y-10396270D01*
X11805896Y-10396270D02*
X11815420Y-10386746D01*
X11815420Y-10386746D02*
X11824944Y-10367698D01*
X11901134Y-10281984D02*
X11901134Y-10320079D01*
X11977325Y-10281984D02*
X11977325Y-10320079D01*
X12272563Y-10558174D02*
X12263039Y-10548650D01*
X12263039Y-10548650D02*
X12243991Y-10520079D01*
X12243991Y-10520079D02*
X12234468Y-10501031D01*
X12234468Y-10501031D02*
X12224944Y-10472460D01*
X12224944Y-10472460D02*
X12215420Y-10424841D01*
X12215420Y-10424841D02*
X12215420Y-10386746D01*
X12215420Y-10386746D02*
X12224944Y-10339127D01*
X12224944Y-10339127D02*
X12234468Y-10310555D01*
X12234468Y-10310555D02*
X12243991Y-10291508D01*
X12243991Y-10291508D02*
X12263039Y-10262936D01*
X12263039Y-10262936D02*
X12272563Y-10253412D01*
X12434468Y-10348650D02*
X12434468Y-10481984D01*
X12386848Y-10272460D02*
X12339229Y-10415317D01*
X12339229Y-10415317D02*
X12463039Y-10415317D01*
X12691610Y-10481984D02*
X12691610Y-10281984D01*
X12777325Y-10481984D02*
X12777325Y-10377222D01*
X12777325Y-10377222D02*
X12767801Y-10358174D01*
X12767801Y-10358174D02*
X12748753Y-10348650D01*
X12748753Y-10348650D02*
X12720182Y-10348650D01*
X12720182Y-10348650D02*
X12701134Y-10358174D01*
X12701134Y-10358174D02*
X12691610Y-10367698D01*
X12901134Y-10481984D02*
X12882087Y-10472460D01*
X12882087Y-10472460D02*
X12872563Y-10462936D01*
X12872563Y-10462936D02*
X12863039Y-10443889D01*
X12863039Y-10443889D02*
X12863039Y-10386746D01*
X12863039Y-10386746D02*
X12872563Y-10367698D01*
X12872563Y-10367698D02*
X12882087Y-10358174D01*
X12882087Y-10358174D02*
X12901134Y-10348650D01*
X12901134Y-10348650D02*
X12929706Y-10348650D01*
X12929706Y-10348650D02*
X12948753Y-10358174D01*
X12948753Y-10358174D02*
X12958277Y-10367698D01*
X12958277Y-10367698D02*
X12967801Y-10386746D01*
X12967801Y-10386746D02*
X12967801Y-10443889D01*
X12967801Y-10443889D02*
X12958277Y-10462936D01*
X12958277Y-10462936D02*
X12948753Y-10472460D01*
X12948753Y-10472460D02*
X12929706Y-10481984D01*
X12929706Y-10481984D02*
X12901134Y-10481984D01*
X13082087Y-10481984D02*
X13063039Y-10472460D01*
X13063039Y-10472460D02*
X13053515Y-10453412D01*
X13053515Y-10453412D02*
X13053515Y-10281984D01*
X13234468Y-10472460D02*
X13215420Y-10481984D01*
X13215420Y-10481984D02*
X13177325Y-10481984D01*
X13177325Y-10481984D02*
X13158277Y-10472460D01*
X13158277Y-10472460D02*
X13148753Y-10453412D01*
X13148753Y-10453412D02*
X13148753Y-10377222D01*
X13148753Y-10377222D02*
X13158277Y-10358174D01*
X13158277Y-10358174D02*
X13177325Y-10348650D01*
X13177325Y-10348650D02*
X13215420Y-10348650D01*
X13215420Y-10348650D02*
X13234468Y-10358174D01*
X13234468Y-10358174D02*
X13243991Y-10377222D01*
X13243991Y-10377222D02*
X13243991Y-10396270D01*
X13243991Y-10396270D02*
X13148753Y-10415317D01*
X13320182Y-10472460D02*
X13339230Y-10481984D01*
X13339230Y-10481984D02*
X13377325Y-10481984D01*
X13377325Y-10481984D02*
X13396372Y-10472460D01*
X13396372Y-10472460D02*
X13405896Y-10453412D01*
X13405896Y-10453412D02*
X13405896Y-10443889D01*
X13405896Y-10443889D02*
X13396372Y-10424841D01*
X13396372Y-10424841D02*
X13377325Y-10415317D01*
X13377325Y-10415317D02*
X13348753Y-10415317D01*
X13348753Y-10415317D02*
X13329706Y-10405793D01*
X13329706Y-10405793D02*
X13320182Y-10386746D01*
X13320182Y-10386746D02*
X13320182Y-10377222D01*
X13320182Y-10377222D02*
X13329706Y-10358174D01*
X13329706Y-10358174D02*
X13348753Y-10348650D01*
X13348753Y-10348650D02*
X13377325Y-10348650D01*
X13377325Y-10348650D02*
X13396372Y-10358174D01*
X13472563Y-10558174D02*
X13482087Y-10548650D01*
X13482087Y-10548650D02*
X13501134Y-10520079D01*
X13501134Y-10520079D02*
X13510658Y-10501031D01*
X13510658Y-10501031D02*
X13520182Y-10472460D01*
X13520182Y-10472460D02*
X13529706Y-10424841D01*
X13529706Y-10424841D02*
X13529706Y-10386746D01*
X13529706Y-10386746D02*
X13520182Y-10339127D01*
X13520182Y-10339127D02*
X13510658Y-10310555D01*
X13510658Y-10310555D02*
X13501134Y-10291508D01*
X13501134Y-10291508D02*
X13482087Y-10262936D01*
X13482087Y-10262936D02*
X13472563Y-10253412D01*
M02*
