%TF.GenerationSoftware,KiCad,Pcbnew,8.0.8*%
%TF.CreationDate,2025-06-29T12:46:52+09:00*%
%TF.ProjectId,LFOSeparate,4c464f53-6570-4617-9261-74652e6b6963,rev?*%
%TF.SameCoordinates,Original*%
%TF.FileFunction,Drillmap*%
%TF.FilePolarity,Positive*%
%FSLAX45Y45*%
G04 Gerber Fmt 4.5, Leading zero omitted, Abs format (unit mm)*
G04 Created by KiCad (PCBNEW 8.0.8) date 2025-06-29 12:46:52*
%MOMM*%
%LPD*%
G01*
G04 APERTURE LIST*
%ADD10C,0.050000*%
%ADD11C,0.200000*%
G04 APERTURE END LIST*
D10*
X17960000Y-7600000D02*
G75*
G02*
X17640000Y-7600000I-160000J0D01*
G01*
X17640000Y-7600000D02*
G75*
G02*
X17960000Y-7600000I160000J0D01*
G01*
X17960000Y-3700000D02*
G75*
G02*
X17640000Y-3700000I-160000J0D01*
G01*
X17640000Y-3700000D02*
G75*
G02*
X17960000Y-3700000I160000J0D01*
G01*
X9160000Y-7600000D02*
G75*
G02*
X8840000Y-7600000I-160000J0D01*
G01*
X8840000Y-7600000D02*
G75*
G02*
X9160000Y-7600000I160000J0D01*
G01*
X8700000Y-3400000D02*
X18100000Y-3400000D01*
X18100000Y-7900000D01*
X8700000Y-7900000D01*
X8700000Y-3400000D01*
X9160000Y-3700000D02*
G75*
G02*
X8840000Y-3700000I-160000J0D01*
G01*
X8840000Y-3700000D02*
G75*
G02*
X9160000Y-3700000I160000J0D01*
G01*
D11*
X8958277Y-8213984D02*
X8958277Y-8013984D01*
X8958277Y-8013984D02*
X9005896Y-8013984D01*
X9005896Y-8013984D02*
X9034467Y-8023508D01*
X9034467Y-8023508D02*
X9053515Y-8042555D01*
X9053515Y-8042555D02*
X9063039Y-8061603D01*
X9063039Y-8061603D02*
X9072563Y-8099698D01*
X9072563Y-8099698D02*
X9072563Y-8128269D01*
X9072563Y-8128269D02*
X9063039Y-8166365D01*
X9063039Y-8166365D02*
X9053515Y-8185412D01*
X9053515Y-8185412D02*
X9034467Y-8204460D01*
X9034467Y-8204460D02*
X9005896Y-8213984D01*
X9005896Y-8213984D02*
X8958277Y-8213984D01*
X9158277Y-8213984D02*
X9158277Y-8080650D01*
X9158277Y-8118746D02*
X9167801Y-8099698D01*
X9167801Y-8099698D02*
X9177324Y-8090174D01*
X9177324Y-8090174D02*
X9196372Y-8080650D01*
X9196372Y-8080650D02*
X9215420Y-8080650D01*
X9282086Y-8213984D02*
X9282086Y-8080650D01*
X9282086Y-8013984D02*
X9272563Y-8023508D01*
X9272563Y-8023508D02*
X9282086Y-8033031D01*
X9282086Y-8033031D02*
X9291610Y-8023508D01*
X9291610Y-8023508D02*
X9282086Y-8013984D01*
X9282086Y-8013984D02*
X9282086Y-8033031D01*
X9405896Y-8213984D02*
X9386848Y-8204460D01*
X9386848Y-8204460D02*
X9377324Y-8185412D01*
X9377324Y-8185412D02*
X9377324Y-8013984D01*
X9510658Y-8213984D02*
X9491610Y-8204460D01*
X9491610Y-8204460D02*
X9482086Y-8185412D01*
X9482086Y-8185412D02*
X9482086Y-8013984D01*
X9739229Y-8213984D02*
X9739229Y-8013984D01*
X9739229Y-8013984D02*
X9805896Y-8156841D01*
X9805896Y-8156841D02*
X9872563Y-8013984D01*
X9872563Y-8013984D02*
X9872563Y-8213984D01*
X10053515Y-8213984D02*
X10053515Y-8109222D01*
X10053515Y-8109222D02*
X10043991Y-8090174D01*
X10043991Y-8090174D02*
X10024944Y-8080650D01*
X10024944Y-8080650D02*
X9986848Y-8080650D01*
X9986848Y-8080650D02*
X9967801Y-8090174D01*
X10053515Y-8204460D02*
X10034467Y-8213984D01*
X10034467Y-8213984D02*
X9986848Y-8213984D01*
X9986848Y-8213984D02*
X9967801Y-8204460D01*
X9967801Y-8204460D02*
X9958277Y-8185412D01*
X9958277Y-8185412D02*
X9958277Y-8166365D01*
X9958277Y-8166365D02*
X9967801Y-8147317D01*
X9967801Y-8147317D02*
X9986848Y-8137793D01*
X9986848Y-8137793D02*
X10034467Y-8137793D01*
X10034467Y-8137793D02*
X10053515Y-8128269D01*
X10148753Y-8080650D02*
X10148753Y-8280650D01*
X10148753Y-8090174D02*
X10167801Y-8080650D01*
X10167801Y-8080650D02*
X10205896Y-8080650D01*
X10205896Y-8080650D02*
X10224944Y-8090174D01*
X10224944Y-8090174D02*
X10234467Y-8099698D01*
X10234467Y-8099698D02*
X10243991Y-8118746D01*
X10243991Y-8118746D02*
X10243991Y-8175888D01*
X10243991Y-8175888D02*
X10234467Y-8194936D01*
X10234467Y-8194936D02*
X10224944Y-8204460D01*
X10224944Y-8204460D02*
X10205896Y-8213984D01*
X10205896Y-8213984D02*
X10167801Y-8213984D01*
X10167801Y-8213984D02*
X10148753Y-8204460D01*
X10329705Y-8194936D02*
X10339229Y-8204460D01*
X10339229Y-8204460D02*
X10329705Y-8213984D01*
X10329705Y-8213984D02*
X10320182Y-8204460D01*
X10320182Y-8204460D02*
X10329705Y-8194936D01*
X10329705Y-8194936D02*
X10329705Y-8213984D01*
X10329705Y-8090174D02*
X10339229Y-8099698D01*
X10339229Y-8099698D02*
X10329705Y-8109222D01*
X10329705Y-8109222D02*
X10320182Y-8099698D01*
X10320182Y-8099698D02*
X10329705Y-8090174D01*
X10329705Y-8090174D02*
X10329705Y-8109222D01*
M02*
