%TF.GenerationSoftware,KiCad,Pcbnew,9.0.3*%
%TF.CreationDate,2026-03-15T08:34:23+09:00*%
%TF.ProjectId,powerAndJack,706f7765-7241-46e6-944a-61636b2e6b69,rev?*%
%TF.SameCoordinates,Original*%
%TF.FileFunction,Copper,L1,Top*%
%TF.FilePolarity,Positive*%
%FSLAX46Y46*%
G04 Gerber Fmt 4.6, Leading zero omitted, Abs format (unit mm)*
G04 Created by KiCad (PCBNEW 9.0.3) date 2026-03-15 08:34:23*
%MOMM*%
%LPD*%
G01*
G04 APERTURE LIST*
G04 Aperture macros list*
%AMRoundRect*
0 Rectangle with rounded corners*
0 $1 Rounding radius*
0 $2 $3 $4 $5 $6 $7 $8 $9 X,Y pos of 4 corners*
0 Add a 4 corners polygon primitive as box body*
4,1,4,$2,$3,$4,$5,$6,$7,$8,$9,$2,$3,0*
0 Add four circle primitives for the rounded corners*
1,1,$1+$1,$2,$3*
1,1,$1+$1,$4,$5*
1,1,$1+$1,$6,$7*
1,1,$1+$1,$8,$9*
0 Add four rect primitives between the rounded corners*
20,1,$1+$1,$2,$3,$4,$5,0*
20,1,$1+$1,$4,$5,$6,$7,0*
20,1,$1+$1,$6,$7,$8,$9,0*
20,1,$1+$1,$8,$9,$2,$3,0*%
%AMFreePoly0*
4,1,23,0.500000,-0.750000,0.000000,-0.750000,0.000000,-0.745722,-0.065263,-0.745722,-0.191342,-0.711940,-0.304381,-0.646677,-0.396677,-0.554381,-0.461940,-0.441342,-0.495722,-0.315263,-0.495722,-0.250000,-0.500000,-0.250000,-0.500000,0.250000,-0.495722,0.250000,-0.495722,0.315263,-0.461940,0.441342,-0.396677,0.554381,-0.304381,0.646677,-0.191342,0.711940,-0.065263,0.745722,0.000000,0.745722,
0.000000,0.750000,0.500000,0.750000,0.500000,-0.750000,0.500000,-0.750000,$1*%
%AMFreePoly1*
4,1,23,0.000000,0.745722,0.065263,0.745722,0.191342,0.711940,0.304381,0.646677,0.396677,0.554381,0.461940,0.441342,0.495722,0.315263,0.495722,0.250000,0.500000,0.250000,0.500000,-0.250000,0.495722,-0.250000,0.495722,-0.315263,0.461940,-0.441342,0.396677,-0.554381,0.304381,-0.646677,0.191342,-0.711940,0.065263,-0.745722,0.000000,-0.745722,0.000000,-0.750000,-0.500000,-0.750000,
-0.500000,0.750000,0.000000,0.750000,0.000000,0.745722,0.000000,0.745722,$1*%
G04 Aperture macros list end*
%TA.AperFunction,EtchedComponent*%
%ADD10C,0.000000*%
%TD*%
%TA.AperFunction,SMDPad,CuDef*%
%ADD11RoundRect,0.150000X-0.825000X-0.150000X0.825000X-0.150000X0.825000X0.150000X-0.825000X0.150000X0*%
%TD*%
%TA.AperFunction,ComponentPad*%
%ADD12C,1.600000*%
%TD*%
%TA.AperFunction,ComponentPad*%
%ADD13RoundRect,0.333333X-0.666667X1.766667X-0.666667X-1.766667X0.666667X-1.766667X0.666667X1.766667X0*%
%TD*%
%TA.AperFunction,ComponentPad*%
%ADD14RoundRect,0.333333X1.766667X0.666667X-1.766667X0.666667X-1.766667X-0.666667X1.766667X-0.666667X0*%
%TD*%
%TA.AperFunction,ComponentPad*%
%ADD15R,1.217000X1.217000*%
%TD*%
%TA.AperFunction,ComponentPad*%
%ADD16C,1.217000*%
%TD*%
%TA.AperFunction,ComponentPad*%
%ADD17R,1.700000X1.700000*%
%TD*%
%TA.AperFunction,ComponentPad*%
%ADD18C,1.700000*%
%TD*%
%TA.AperFunction,SMDPad,CuDef*%
%ADD19FreePoly0,180.000000*%
%TD*%
%TA.AperFunction,SMDPad,CuDef*%
%ADD20FreePoly1,180.000000*%
%TD*%
%TA.AperFunction,ComponentPad*%
%ADD21R,1.303000X1.303000*%
%TD*%
%TA.AperFunction,ComponentPad*%
%ADD22C,1.303000*%
%TD*%
%TA.AperFunction,ComponentPad*%
%ADD23RoundRect,0.333333X2.416667X0.666667X-2.416667X0.666667X-2.416667X-0.666667X2.416667X-0.666667X0*%
%TD*%
%TA.AperFunction,SMDPad,CuDef*%
%ADD24RoundRect,0.250000X0.475000X-0.337500X0.475000X0.337500X-0.475000X0.337500X-0.475000X-0.337500X0*%
%TD*%
%TA.AperFunction,ComponentPad*%
%ADD25RoundRect,0.250000X0.550000X-0.550000X0.550000X0.550000X-0.550000X0.550000X-0.550000X-0.550000X0*%
%TD*%
%TA.AperFunction,ComponentPad*%
%ADD26R,1.500000X2.300000*%
%TD*%
%TA.AperFunction,ComponentPad*%
%ADD27O,1.500000X2.300000*%
%TD*%
%TA.AperFunction,ComponentPad*%
%ADD28C,3.000000*%
%TD*%
%TA.AperFunction,SMDPad,CuDef*%
%ADD29FreePoly0,0.000000*%
%TD*%
%TA.AperFunction,SMDPad,CuDef*%
%ADD30FreePoly1,0.000000*%
%TD*%
%TA.AperFunction,ViaPad*%
%ADD31C,0.600000*%
%TD*%
%TA.AperFunction,Conductor*%
%ADD32C,0.400000*%
%TD*%
%TA.AperFunction,Conductor*%
%ADD33C,1.000000*%
%TD*%
G04 APERTURE END LIST*
D10*
%TA.AperFunction,EtchedComponent*%
%TO.C,JP2*%
G36*
X225787000Y-74476000D02*
G01*
X225287000Y-74476000D01*
X225287000Y-74076000D01*
X225787000Y-74076000D01*
X225787000Y-74476000D01*
G37*
%TD.AperFunction*%
%TA.AperFunction,EtchedComponent*%
G36*
X225787000Y-75276000D02*
G01*
X225287000Y-75276000D01*
X225287000Y-74876000D01*
X225787000Y-74876000D01*
X225787000Y-75276000D01*
G37*
%TD.AperFunction*%
%TA.AperFunction,EtchedComponent*%
%TO.C,JP1*%
G36*
X142729000Y-65840000D02*
G01*
X142229000Y-65840000D01*
X142229000Y-65440000D01*
X142729000Y-65440000D01*
X142729000Y-65840000D01*
G37*
%TD.AperFunction*%
%TA.AperFunction,EtchedComponent*%
G36*
X142729000Y-66640000D02*
G01*
X142229000Y-66640000D01*
X142229000Y-66240000D01*
X142729000Y-66240000D01*
X142729000Y-66640000D01*
G37*
%TD.AperFunction*%
%TD*%
D11*
%TO.P,U1,1*%
%TO.N,Net-(J8-Pin_2)*%
X170180000Y-59690000D03*
%TO.P,U1,2,-*%
X170180000Y-60960000D03*
%TO.P,U1,3,+*%
%TO.N,Net-(U1A-+)*%
X170180000Y-62230000D03*
%TO.P,U1,4,V-*%
%TO.N,-12VA*%
X170180000Y-63500000D03*
%TO.P,U1,5,+*%
%TO.N,GNDA*%
X175130000Y-63500000D03*
%TO.P,U1,6,-*%
%TO.N,Net-(U1B--)*%
X175130000Y-62230000D03*
%TO.P,U1,7*%
%TO.N,Net-(J9-Pin_1)*%
X175130000Y-60960000D03*
%TO.P,U1,8,V+*%
%TO.N,+12VA*%
X175130000Y-59690000D03*
%TD*%
D12*
%TO.P,R4,1*%
%TO.N,Net-(J9-Pin_1)*%
X178562000Y-60198000D03*
%TO.P,R4,2*%
%TO.N,Net-(U1B--)*%
X181102000Y-60198000D03*
%TD*%
%TO.P,R1,1*%
%TO.N,Net-(U1A-+)*%
X164719000Y-60071000D03*
%TO.P,R1,2*%
%TO.N,+12VA*%
X167259000Y-60071000D03*
%TD*%
%TO.P,R3,1*%
%TO.N,Net-(U1B--)*%
X178562000Y-63881000D03*
%TO.P,R3,2*%
%TO.N,+5VA*%
X181102000Y-63881000D03*
%TD*%
D13*
%TO.P,J10,G*%
%TO.N,GNDD*%
X138900000Y-60000000D03*
D14*
%TO.P,J10,S*%
%TO.N,accFlt*%
X134500000Y-55500000D03*
%TO.P,J10,T*%
X134500000Y-62900000D03*
%TD*%
D15*
%TO.P,PwF3,1,1*%
%TO.N,Net-(J4-Pad2)*%
X242707000Y-75971000D03*
D16*
%TO.P,PwF3,2,2*%
%TO.N,Net-(PwF3-Pad2)*%
X237607000Y-73381000D03*
%TD*%
D17*
%TO.P,J8,1,Pin_1*%
%TO.N,+5VA*%
X168788000Y-53467000D03*
D18*
%TO.P,J8,2,Pin_2*%
%TO.N,Net-(J8-Pin_2)*%
X166248000Y-53467000D03*
%TD*%
D19*
%TO.P,JP2,1,A*%
%TO.N,GND_ADAPTER*%
X226187000Y-74676000D03*
D20*
%TO.P,JP2,2,B*%
%TO.N,GNDD*%
X224887000Y-74676000D03*
%TD*%
D21*
%TO.P,PS1,1,-VIN*%
%TO.N,GND_ADAPTER*%
X212847000Y-61468000D03*
D22*
%TO.P,PS1,2,+VIN*%
%TO.N,DC_ADAPTER*%
X210307000Y-61468000D03*
%TO.P,PS1,3,REMOTE_ON/OFF*%
%TO.N,unconnected-(PS1-REMOTE_ON{slash}OFF-Pad3)*%
X207767000Y-61468000D03*
%TO.P,PS1,5,NC*%
%TO.N,unconnected-(PS1-NC-Pad5)*%
X202687000Y-61468000D03*
%TO.P,PS1,6,+VOUT*%
%TO.N,+12VA*%
X200147000Y-61468000D03*
%TO.P,PS1,7,COMMON*%
%TO.N,GNDA*%
X197607000Y-61468000D03*
%TO.P,PS1,8,-VOUT*%
%TO.N,-12VA*%
X195067000Y-61468000D03*
%TD*%
D23*
%TO.P,J4,1*%
%TO.N,GND_ADAPTER*%
X248539000Y-57552000D03*
%TO.P,J4,2*%
%TO.N,Net-(J4-Pad2)*%
X248539000Y-63352000D03*
%TD*%
D17*
%TO.P,J13,1,Pin_1*%
%TO.N,+5VD*%
X132588000Y-69402000D03*
D18*
%TO.P,J13,2,Pin_2*%
%TO.N,CV*%
X130048000Y-69402000D03*
%TO.P,J13,3,Pin_3*%
%TO.N,Gate*%
X127508000Y-69402000D03*
%TO.P,J13,4,Pin_4*%
%TO.N,unconnected-(J13-Pin_4-Pad4)*%
X124968000Y-69402000D03*
%TO.P,J13,5,Pin_5*%
%TO.N,unconnected-(J13-Pin_5-Pad5)*%
X122428000Y-69402000D03*
%TO.P,J13,6,Pin_6*%
%TO.N,GNDD*%
X119888000Y-69402000D03*
%TD*%
D24*
%TO.P,C9,1*%
%TO.N,DC_ADAPTER*%
X207010000Y-70379500D03*
%TO.P,C9,2*%
%TO.N,GNDD*%
X207010000Y-68304500D03*
%TD*%
D25*
%TO.P,C3,1*%
%TO.N,GNDA*%
X187447000Y-57745000D03*
D12*
%TO.P,C3,2*%
%TO.N,-12VA*%
X187447000Y-55245000D03*
%TD*%
D25*
%TO.P,C1,1*%
%TO.N,DC_ADAPTER*%
X219070000Y-60920000D03*
D12*
%TO.P,C1,2*%
%TO.N,GND_ADAPTER*%
X219070000Y-58420000D03*
%TD*%
D13*
%TO.P,J11,G*%
%TO.N,GNDD*%
X126900000Y-60000000D03*
D14*
%TO.P,J11,S*%
%TO.N,accAmp*%
X122500000Y-55500000D03*
%TO.P,J11,T*%
X122500000Y-62900000D03*
%TD*%
D24*
%TO.P,C7,1*%
%TO.N,+5VD*%
X201803000Y-70506500D03*
%TO.P,C7,2*%
%TO.N,GNDD*%
X201803000Y-68431500D03*
%TD*%
D26*
%TO.P,U2,1,IN*%
%TO.N,DC_ADAPTER*%
X206883000Y-74549000D03*
D27*
%TO.P,U2,2,GND*%
%TO.N,GNDD*%
X204343000Y-74549000D03*
%TO.P,U2,3,OUT*%
%TO.N,+5VD*%
X201803000Y-74549000D03*
%TD*%
D13*
%TO.P,J1,G*%
%TO.N,GNDD*%
X102900000Y-60000000D03*
D14*
%TO.P,J1,S*%
%TO.N,CV*%
X98500000Y-55500000D03*
%TO.P,J1,T*%
X98500000Y-62900000D03*
%TD*%
D17*
%TO.P,J12,1,Pin_1*%
%TO.N,AudioIn*%
X150011000Y-69596000D03*
D18*
%TO.P,J12,2,Pin_2*%
%TO.N,GNDA*%
X147471000Y-69596000D03*
%TD*%
D12*
%TO.P,R2,1*%
%TO.N,GNDA*%
X164592000Y-63500000D03*
%TO.P,R2,2*%
%TO.N,Net-(U1A-+)*%
X167132000Y-63500000D03*
%TD*%
D17*
%TO.P,J9,1,Pin_1*%
%TO.N,Net-(J9-Pin_1)*%
X177678000Y-53467000D03*
D18*
%TO.P,J9,2,Pin_2*%
%TO.N,-5VA*%
X175138000Y-53467000D03*
%TD*%
D25*
%TO.P,C6,1*%
%TO.N,DC_ADAPTER*%
X216535000Y-77883000D03*
D12*
%TO.P,C6,2*%
%TO.N,GNDD*%
X216535000Y-74383000D03*
%TD*%
D25*
%TO.P,C5,1*%
%TO.N,+5VD*%
X192532000Y-77304000D03*
D12*
%TO.P,C5,2*%
%TO.N,GNDD*%
X192532000Y-75304000D03*
%TD*%
D17*
%TO.P,J7,1,Pin_1*%
%TO.N,+12VA*%
X178689000Y-69977000D03*
D18*
%TO.P,J7,2,Pin_2*%
%TO.N,+5VA*%
X176149000Y-69977000D03*
%TO.P,J7,3,Pin_3*%
%TO.N,-5VA*%
X173609000Y-69977000D03*
%TO.P,J7,4,Pin_4*%
%TO.N,-12VA*%
X171069000Y-69977000D03*
%TO.P,J7,5,Pin_5*%
%TO.N,unconnected-(J7-Pin_5-Pad5)*%
X168529000Y-69977000D03*
%TO.P,J7,6,Pin_6*%
%TO.N,GNDA*%
X165989000Y-69977000D03*
%TD*%
D25*
%TO.P,C4,1*%
%TO.N,Net-(U1A-+)*%
X159893000Y-63587000D03*
D12*
%TO.P,C4,2*%
%TO.N,GNDA*%
X159893000Y-61087000D03*
%TD*%
D25*
%TO.P,C2,1*%
%TO.N,+12VA*%
X187447000Y-63841000D03*
D12*
%TO.P,C2,2*%
%TO.N,GNDA*%
X187447000Y-61341000D03*
%TD*%
D13*
%TO.P,J3,G*%
%TO.N,GNDA*%
X150900000Y-60000000D03*
D14*
%TO.P,J3,S*%
%TO.N,AudioIn*%
X146500000Y-55500000D03*
%TO.P,J3,T*%
X146500000Y-62900000D03*
%TD*%
D13*
%TO.P,J2,G*%
%TO.N,GNDD*%
X114900000Y-60000000D03*
D14*
%TO.P,J2,S*%
%TO.N,Gate*%
X110500000Y-55500000D03*
%TO.P,J2,T*%
X110500000Y-62900000D03*
%TD*%
D17*
%TO.P,J6,1,Pin_1*%
%TO.N,+5VD*%
X111633000Y-69402000D03*
D18*
%TO.P,J6,2,Pin_2*%
%TO.N,unconnected-(J6-Pin_2-Pad2)*%
X109093000Y-69402000D03*
%TO.P,J6,3,Pin_3*%
%TO.N,Gate*%
X106553000Y-69402000D03*
%TO.P,J6,4,Pin_4*%
%TO.N,accFlt*%
X104013000Y-69402000D03*
%TO.P,J6,5,Pin_5*%
%TO.N,accAmp*%
X101473000Y-69402000D03*
%TO.P,J6,6,Pin_6*%
%TO.N,GNDD*%
X98933000Y-69402000D03*
%TD*%
D28*
%TO.P,SW1,1,1*%
%TO.N,Net-(PwF3-Pad2)*%
X236342000Y-60198000D03*
%TO.P,SW1,2,2*%
%TO.N,DC_ADAPTER*%
X231142000Y-60198000D03*
%TD*%
D29*
%TO.P,JP1,1,A*%
%TO.N,GNDD*%
X141829000Y-66040000D03*
D30*
%TO.P,JP1,2,B*%
%TO.N,GNDA*%
X143129000Y-66040000D03*
%TD*%
D31*
%TO.N,GND_ADAPTER*%
X260000000Y-75000000D03*
X260000000Y-72500000D03*
X260000000Y-70000000D03*
X260000000Y-67500000D03*
X260000000Y-65000000D03*
X260000000Y-62500000D03*
X257500000Y-62500000D03*
X257500000Y-65000000D03*
X255000000Y-67500000D03*
X257500000Y-67500000D03*
X257500000Y-70000000D03*
X255000000Y-70000000D03*
X255000000Y-72500000D03*
X257500000Y-72500000D03*
X257500000Y-75000000D03*
X255000000Y-75000000D03*
X255000000Y-77500000D03*
X257500000Y-77500000D03*
X257500000Y-80000000D03*
X255000000Y-80000000D03*
X250000000Y-77500000D03*
X252500000Y-77500000D03*
X252500000Y-80000000D03*
X250000000Y-80000000D03*
X247500000Y-80000000D03*
X245000000Y-80000000D03*
X240000000Y-77500000D03*
X240000000Y-75000000D03*
X237500000Y-75000000D03*
X237500000Y-77500000D03*
X237500000Y-80000000D03*
X240000000Y-80000000D03*
X242500000Y-80000000D03*
X245000000Y-77500000D03*
X247500000Y-77500000D03*
X247500000Y-75000000D03*
X250000000Y-72500000D03*
X250000000Y-75000000D03*
X252500000Y-75000000D03*
X252500000Y-72500000D03*
X252500000Y-70000000D03*
X252500000Y-67500000D03*
X252500000Y-65000000D03*
X252500000Y-62500000D03*
X255000000Y-65000000D03*
X255000000Y-62500000D03*
X227500000Y-72500000D03*
X227500000Y-70000000D03*
X227500000Y-77500000D03*
X227500000Y-80000000D03*
X230000000Y-80000000D03*
X230000000Y-77500000D03*
X230000000Y-75000000D03*
X230000000Y-72500000D03*
X230000000Y-70000000D03*
X232500000Y-70000000D03*
X232500000Y-72500000D03*
X232500000Y-75000000D03*
X232500000Y-77500000D03*
X232500000Y-80000000D03*
X235000000Y-80000000D03*
X235000000Y-77500000D03*
X235000000Y-75000000D03*
X235000000Y-72500000D03*
X235000000Y-70000000D03*
X235000000Y-67500000D03*
X232500000Y-67500000D03*
X230000000Y-67500000D03*
X240000000Y-70000000D03*
X240000000Y-67500000D03*
X242500000Y-67500000D03*
X242500000Y-70000000D03*
X245000000Y-70000000D03*
X245000000Y-67500000D03*
X245000000Y-65000000D03*
X242500000Y-65000000D03*
X240000000Y-65000000D03*
X240000000Y-62500000D03*
X242500000Y-62500000D03*
X207500000Y-65000000D03*
X210000000Y-65000000D03*
X212500000Y-65000000D03*
X215000000Y-65000000D03*
X217500000Y-65000000D03*
X220000000Y-65000000D03*
X222500000Y-65000000D03*
X225000000Y-65000000D03*
X227500000Y-62500000D03*
X225000000Y-62500000D03*
X222500000Y-62500000D03*
X240000000Y-60000000D03*
X242500000Y-60000000D03*
X245000000Y-60000000D03*
X247500000Y-60000000D03*
X250000000Y-60000000D03*
X252500000Y-60000000D03*
X255000000Y-60000000D03*
X257500000Y-60000000D03*
X260000000Y-60000000D03*
X260000000Y-57500000D03*
X257500000Y-57500000D03*
X255000000Y-57500000D03*
X242500000Y-57500000D03*
X240000000Y-57500000D03*
X227500000Y-57500000D03*
X225000000Y-57500000D03*
X222500000Y-57500000D03*
X217500000Y-57500000D03*
X215000000Y-57500000D03*
X212500000Y-57500000D03*
X210000000Y-57500000D03*
X207500000Y-57500000D03*
X207500000Y-55000000D03*
X210000000Y-55000000D03*
X212500000Y-55000000D03*
X215000000Y-55000000D03*
X217500000Y-55000000D03*
X220000000Y-55000000D03*
X222500000Y-55000000D03*
X225000000Y-55000000D03*
X227500000Y-55000000D03*
X230000000Y-55000000D03*
X235000000Y-55000000D03*
X232500000Y-55000000D03*
X237500000Y-55000000D03*
X240000000Y-55000000D03*
X242500000Y-55000000D03*
X245000000Y-55000000D03*
X247500000Y-55000000D03*
X250000000Y-55000000D03*
X252500000Y-55000000D03*
X255000000Y-55000000D03*
X257500000Y-55000000D03*
X257500000Y-52500000D03*
X255000000Y-52500000D03*
X252500000Y-52500000D03*
X250000000Y-52500000D03*
X247500000Y-52500000D03*
X245000000Y-52500000D03*
X242500000Y-52500000D03*
X240000000Y-52500000D03*
X237500000Y-52500000D03*
X232500000Y-52500000D03*
X235000000Y-52500000D03*
X230000000Y-52500000D03*
X227500000Y-52500000D03*
X225000000Y-52500000D03*
X222500000Y-52500000D03*
X220000000Y-52500000D03*
X215000000Y-52500000D03*
X217500000Y-52500000D03*
X212500000Y-52500000D03*
X210000000Y-52500000D03*
X207500000Y-52500000D03*
%TO.N,GNDA*%
X185000000Y-72500000D03*
X187500000Y-70000000D03*
X190000000Y-67500000D03*
X192500000Y-65000000D03*
X195000000Y-65000000D03*
X197500000Y-65000000D03*
X200000000Y-65000000D03*
X202500000Y-65000000D03*
X192500000Y-55000000D03*
X195000000Y-55000000D03*
X195000000Y-57500000D03*
X197500000Y-57500000D03*
X197500000Y-55000000D03*
X200000000Y-55000000D03*
X200000000Y-57500000D03*
X202500000Y-57500000D03*
X202500000Y-55000000D03*
X202500000Y-52500000D03*
X200000000Y-52500000D03*
X197500000Y-52500000D03*
X195000000Y-52500000D03*
X192500000Y-52500000D03*
X190000000Y-52500000D03*
X187500000Y-52500000D03*
X185000000Y-65000000D03*
X185000000Y-62500000D03*
X185000000Y-60000000D03*
X185000000Y-57500000D03*
X182500000Y-57500000D03*
X180000000Y-57500000D03*
X180000000Y-55000000D03*
X182500000Y-55000000D03*
X185000000Y-55000000D03*
X185000000Y-52500000D03*
X182500000Y-52500000D03*
X180000000Y-52500000D03*
X170000000Y-72500000D03*
X167500000Y-72500000D03*
X165000000Y-72500000D03*
X162500000Y-65000000D03*
X167500000Y-67500000D03*
X165000000Y-67500000D03*
X165000000Y-55000000D03*
X165000000Y-57500000D03*
X162500000Y-67500000D03*
X160000000Y-67500000D03*
X160000000Y-70000000D03*
X162500000Y-70000000D03*
X162500000Y-72500000D03*
X160000000Y-72500000D03*
X147500000Y-72500000D03*
X150000000Y-72500000D03*
X152500000Y-72500000D03*
X152500000Y-70000000D03*
X152500000Y-67500000D03*
X152500000Y-65000000D03*
X155000000Y-65000000D03*
X155000000Y-67500000D03*
X155000000Y-70000000D03*
X155000000Y-72500000D03*
X157500000Y-72500000D03*
X157500000Y-70000000D03*
X157500000Y-67500000D03*
X157500000Y-65000000D03*
X157500000Y-62500000D03*
X157500000Y-60000000D03*
X155000000Y-62500000D03*
X147500000Y-67500000D03*
X147500000Y-65000000D03*
X145000000Y-65000000D03*
X145000000Y-72500000D03*
X145000000Y-70000000D03*
X145000000Y-67500000D03*
X145000000Y-57500000D03*
X145000000Y-60000000D03*
X155000000Y-60000000D03*
X162500000Y-57500000D03*
X162500000Y-55000000D03*
X160000000Y-55000000D03*
X162500000Y-52500000D03*
X160000000Y-57500000D03*
X157500000Y-57500000D03*
X155000000Y-57500000D03*
X150000000Y-55000000D03*
X152500000Y-55000000D03*
X155000000Y-55000000D03*
X155000000Y-52500000D03*
X152500000Y-52500000D03*
X150000000Y-52500000D03*
X147500000Y-52500000D03*
X145000000Y-52500000D03*
%TO.N,GNDD*%
X135000000Y-75000000D03*
X137500000Y-75000000D03*
X140000000Y-75000000D03*
X140000000Y-72500000D03*
X137500000Y-72500000D03*
X135000000Y-72500000D03*
X135000000Y-70000000D03*
X137500000Y-70000000D03*
X140000000Y-70000000D03*
X140000000Y-67500000D03*
X137500000Y-67500000D03*
X135000000Y-67500000D03*
X107500000Y-57500000D03*
X105000000Y-60000000D03*
X107500000Y-62500000D03*
X105000000Y-57500000D03*
X97500000Y-60000000D03*
X100000000Y-67500000D03*
X100000000Y-65000000D03*
X102500000Y-65000000D03*
X105000000Y-62500000D03*
X107500000Y-60000000D03*
X105000000Y-55000000D03*
X102500000Y-55000000D03*
X120000000Y-57500000D03*
X120000000Y-60000000D03*
X117500000Y-62500000D03*
X117500000Y-60000000D03*
X117500000Y-57500000D03*
X115000000Y-55000000D03*
X117500000Y-55000000D03*
X127500000Y-55000000D03*
X137500000Y-55000000D03*
X132500000Y-57500000D03*
X132500000Y-60000000D03*
X130000000Y-62500000D03*
X130000000Y-60000000D03*
X130000000Y-57500000D03*
X130000000Y-55000000D03*
X140000000Y-55000000D03*
X140000000Y-52500000D03*
X135000000Y-52500000D03*
X137500000Y-52500000D03*
X130000000Y-52500000D03*
X132500000Y-52500000D03*
X127500000Y-52500000D03*
X125000000Y-52500000D03*
X122500000Y-52500000D03*
X120000000Y-52500000D03*
X115000000Y-52500000D03*
X117500000Y-52500000D03*
X112500000Y-52500000D03*
X110000000Y-52500000D03*
X107500000Y-52500000D03*
X105000000Y-52500000D03*
X102500000Y-52500000D03*
X100000000Y-52500000D03*
X97500000Y-52500000D03*
X187500000Y-75000000D03*
X190000000Y-72500000D03*
X192500000Y-70000000D03*
X192500000Y-72500000D03*
X195000000Y-72500000D03*
X195000000Y-70000000D03*
X195000000Y-67500000D03*
X197500000Y-67500000D03*
X197500000Y-70000000D03*
X197500000Y-75000000D03*
X197500000Y-72500000D03*
X200000000Y-72500000D03*
X200000000Y-70000000D03*
X200000000Y-67500000D03*
X205000000Y-70000000D03*
X205000000Y-67500000D03*
X210000000Y-72500000D03*
X210000000Y-70000000D03*
X210000000Y-67500000D03*
X217500000Y-72500000D03*
X215000000Y-72500000D03*
X212500000Y-72500000D03*
X212500000Y-67500000D03*
X215000000Y-67500000D03*
X217500000Y-67500000D03*
X220000000Y-67500000D03*
X215000000Y-70000000D03*
X212500000Y-70000000D03*
X217500000Y-70000000D03*
X220000000Y-70000000D03*
X202500000Y-77500000D03*
X205000000Y-77500000D03*
X207500000Y-77500000D03*
X220000000Y-77500000D03*
X222500000Y-75000000D03*
X222500000Y-77500000D03*
X222500000Y-80000000D03*
X220000000Y-80000000D03*
X217500000Y-80000000D03*
X215000000Y-80000000D03*
X212500000Y-80000000D03*
X210000000Y-80000000D03*
X207500000Y-80000000D03*
X205000000Y-80000000D03*
X202500000Y-80000000D03*
X200000000Y-80000000D03*
X197500000Y-80000000D03*
X195000000Y-80000000D03*
X192500000Y-80000000D03*
X190000000Y-77500000D03*
X190000000Y-80000000D03*
X167500000Y-80000000D03*
X170000000Y-80000000D03*
X172500000Y-80000000D03*
X175000000Y-80000000D03*
X177500000Y-80000000D03*
X180000000Y-80000000D03*
X182500000Y-80000000D03*
X185000000Y-80000000D03*
X187500000Y-80000000D03*
X187500000Y-77500000D03*
X185000000Y-77500000D03*
X182500000Y-77500000D03*
X180000000Y-77500000D03*
X177500000Y-77500000D03*
X175000000Y-77500000D03*
X172500000Y-77500000D03*
X170000000Y-77500000D03*
X167500000Y-77500000D03*
X165000000Y-77500000D03*
X165000000Y-80000000D03*
X162500000Y-80000000D03*
X162500000Y-77500000D03*
X132500000Y-77500000D03*
X135000000Y-77500000D03*
X137500000Y-77500000D03*
X140000000Y-77500000D03*
X142500000Y-77500000D03*
X145000000Y-77500000D03*
X147500000Y-77500000D03*
X150000000Y-77500000D03*
X152500000Y-77500000D03*
X155000000Y-77500000D03*
X155000000Y-80000000D03*
X152500000Y-80000000D03*
X150000000Y-80000000D03*
X147500000Y-80000000D03*
X145000000Y-80000000D03*
X142500000Y-80000000D03*
X140000000Y-80000000D03*
X137500000Y-80000000D03*
X135000000Y-80000000D03*
X132500000Y-80000000D03*
X112500000Y-80000000D03*
X110000000Y-80000000D03*
X107500000Y-80000000D03*
X105000000Y-80000000D03*
X97500000Y-80000000D03*
X102500000Y-80000000D03*
X100000000Y-80000000D03*
X130000000Y-80000000D03*
X117500000Y-80000000D03*
X115000000Y-80000000D03*
X125000000Y-80000000D03*
X127500000Y-80000000D03*
X122500000Y-80000000D03*
X120000000Y-80000000D03*
X112500000Y-77500000D03*
X110000000Y-77500000D03*
X107500000Y-77500000D03*
X105000000Y-77500000D03*
X97500000Y-77500000D03*
X102500000Y-77500000D03*
X100000000Y-77500000D03*
X130000000Y-77500000D03*
X117500000Y-77500000D03*
X115000000Y-77500000D03*
X125000000Y-77500000D03*
X127500000Y-77500000D03*
X122500000Y-77500000D03*
X120000000Y-77500000D03*
X130000000Y-75000000D03*
X127500000Y-75000000D03*
X125000000Y-75000000D03*
X122500000Y-75000000D03*
X120000000Y-75000000D03*
X117500000Y-75000000D03*
X115000000Y-75000000D03*
X112500000Y-75000000D03*
X110000000Y-75000000D03*
X107500000Y-75000000D03*
X105000000Y-75000000D03*
X102500000Y-75000000D03*
X100000000Y-75000000D03*
X97500000Y-75000000D03*
X95000000Y-80000000D03*
X92500000Y-80000000D03*
X87500000Y-75000000D03*
X87500000Y-72500000D03*
X87500000Y-70000000D03*
X87500000Y-67500000D03*
X87500000Y-65000000D03*
X87500000Y-62500000D03*
X87500000Y-60000000D03*
X87500000Y-57500000D03*
X90000000Y-57500000D03*
X90000000Y-60000000D03*
X90000000Y-62500000D03*
X90000000Y-65000000D03*
X90000000Y-67500000D03*
X90000000Y-70000000D03*
X90000000Y-72500000D03*
X90000000Y-75000000D03*
X92500000Y-77500000D03*
X95000000Y-77500000D03*
X95000000Y-75000000D03*
X92500000Y-75000000D03*
X95000000Y-72500000D03*
X92500000Y-72500000D03*
X95000000Y-70000000D03*
X92500000Y-70000000D03*
X95000000Y-67500000D03*
X92500000Y-67500000D03*
X92500000Y-65000000D03*
X95000000Y-65000000D03*
X95000000Y-62500000D03*
X92500000Y-62500000D03*
X92500000Y-60000000D03*
X95000000Y-60000000D03*
X95000000Y-57500000D03*
X92500000Y-57500000D03*
X92500000Y-55000000D03*
X95000000Y-55000000D03*
X95000000Y-52500000D03*
X92500000Y-52500000D03*
%TO.N,-12VA*%
X171005500Y-66484500D03*
%TO.N,CV*%
X96236900Y-71808600D03*
%TO.N,Net-(J8-Pin_2)*%
X168656000Y-58801000D03*
%TD*%
D32*
%TO.N,DC_ADAPTER*%
X230507000Y-61102000D02*
X230507000Y-60833000D01*
D33*
X231142000Y-63276000D02*
X216535000Y-77883000D01*
X231142000Y-61737000D02*
X231142000Y-63276000D01*
X231142000Y-60198000D02*
X231142000Y-61737000D01*
X216535000Y-77883000D02*
X210217000Y-77883000D01*
D32*
X231142000Y-61737000D02*
X230507000Y-61102000D01*
X219157000Y-60833000D02*
X219070000Y-60920000D01*
D33*
X218186000Y-63627000D02*
X219075000Y-62738000D01*
X210217000Y-77883000D02*
X206883000Y-74549000D01*
X210307000Y-61468000D02*
X210307000Y-62606000D01*
D32*
X219075000Y-62738000D02*
X219070000Y-62733000D01*
D33*
X210307000Y-62606000D02*
X211328000Y-63627000D01*
D32*
X207010000Y-70379500D02*
X207010000Y-74422000D01*
D33*
X219070000Y-62733000D02*
X219070000Y-60920000D01*
X211328000Y-63627000D02*
X218186000Y-63627000D01*
D32*
X207010000Y-74422000D02*
X206883000Y-74549000D01*
D33*
X230507000Y-60833000D02*
X219157000Y-60833000D01*
D32*
%TO.N,+12VA*%
X168148000Y-57785000D02*
X167259000Y-58674000D01*
X175130000Y-58417000D02*
X174498000Y-57785000D01*
X167259000Y-58674000D02*
X167259000Y-60071000D01*
X197774000Y-63841000D02*
X187447000Y-63841000D01*
X174498000Y-57785000D02*
X168148000Y-57785000D01*
X200147000Y-61468000D02*
X197774000Y-63841000D01*
X175130000Y-59690000D02*
X175130000Y-58417000D01*
%TO.N,-12VA*%
X170180000Y-65659000D02*
X170180000Y-64207100D01*
X171005500Y-66484500D02*
X170180000Y-65659000D01*
X170180000Y-63500000D02*
X170180000Y-64207100D01*
%TO.N,Net-(U1A-+)*%
X170180000Y-62230000D02*
X168402000Y-62230000D01*
X168402000Y-62230000D02*
X167132000Y-63500000D01*
%TO.N,+5VD*%
X192532000Y-77304000D02*
X199048000Y-77304000D01*
X113284000Y-67437000D02*
X111633000Y-69088000D01*
X192532000Y-77304000D02*
X191809000Y-76581000D01*
X132461000Y-74676000D02*
X132461000Y-69529000D01*
X111633000Y-69088000D02*
X111633000Y-69402000D01*
X132588000Y-69402000D02*
X132588000Y-69088000D01*
X134366000Y-76581000D02*
X132461000Y-74676000D01*
X199048000Y-77304000D02*
X201803000Y-74549000D01*
X191809000Y-76581000D02*
X134366000Y-76581000D01*
X132461000Y-69529000D02*
X132588000Y-69402000D01*
X201803000Y-74549000D02*
X201803000Y-70506500D01*
X132588000Y-69088000D02*
X130937000Y-67437000D01*
X130937000Y-67437000D02*
X113284000Y-67437000D01*
%TO.N,CV*%
X130048000Y-69402000D02*
X127641400Y-71808600D01*
X127641400Y-71808600D02*
X96236900Y-71808600D01*
%TO.N,Gate*%
X126044000Y-70866000D02*
X108017000Y-70866000D01*
X127508000Y-69402000D02*
X126044000Y-70866000D01*
X108017000Y-70866000D02*
X106553000Y-69402000D01*
D33*
%TO.N,Net-(J4-Pad2)*%
X248539000Y-70139000D02*
X242707000Y-75971000D01*
X248539000Y-63352000D02*
X248539000Y-70139000D01*
D32*
%TO.N,accAmp*%
X120581900Y-65260100D02*
X122452000Y-63390000D01*
X105614900Y-65260100D02*
X120581900Y-65260100D01*
X101473000Y-69402000D02*
X105614900Y-65260100D01*
%TO.N,accFlt*%
X134644000Y-63463000D02*
X131819400Y-66287600D01*
X131819400Y-66287600D02*
X107127400Y-66287600D01*
X107127400Y-66287600D02*
X104013000Y-69402000D01*
%TO.N,Net-(J8-Pin_2)*%
X168656000Y-58801000D02*
X169545000Y-59690000D01*
X169545000Y-59690000D02*
X170180000Y-59690000D01*
X170180000Y-59690000D02*
X170180000Y-60960000D01*
%TO.N,Net-(J9-Pin_1)*%
X177800000Y-60960000D02*
X178562000Y-60198000D01*
X175130000Y-60960000D02*
X177800000Y-60960000D01*
D33*
%TO.N,Net-(PwF3-Pad2)*%
X237607000Y-61463000D02*
X236342000Y-60198000D01*
X237607000Y-73381000D02*
X237607000Y-61463000D01*
D32*
%TO.N,Net-(U1B--)*%
X175369700Y-61990300D02*
X179309700Y-61990300D01*
X179309700Y-61990300D02*
X181102000Y-60198000D01*
X175130000Y-62230000D02*
X175369700Y-61990300D01*
%TD*%
%TA.AperFunction,Conductor*%
%TO.N,GNDD*%
G36*
X140015677Y-51019685D02*
G01*
X140036319Y-51036319D01*
X141963681Y-52963681D01*
X141997166Y-53025004D01*
X142000000Y-53051362D01*
X142000000Y-74000000D01*
X143000000Y-75000000D01*
X185000000Y-75000000D01*
X191955987Y-68044013D01*
X200578000Y-68044013D01*
X200578000Y-68181500D01*
X201553000Y-68181500D01*
X202053000Y-68181500D01*
X203027999Y-68181500D01*
X203027999Y-68044028D01*
X203027998Y-68044013D01*
X203017505Y-67941302D01*
X202962358Y-67774880D01*
X202962356Y-67774875D01*
X202870315Y-67625654D01*
X202746345Y-67501684D01*
X202597124Y-67409643D01*
X202597119Y-67409641D01*
X202430697Y-67354494D01*
X202430690Y-67354493D01*
X202327986Y-67344000D01*
X202053000Y-67344000D01*
X202053000Y-68181500D01*
X201553000Y-68181500D01*
X201553000Y-67344000D01*
X201278029Y-67344000D01*
X201278012Y-67344001D01*
X201175302Y-67354494D01*
X201008880Y-67409641D01*
X201008875Y-67409643D01*
X200859654Y-67501684D01*
X200735684Y-67625654D01*
X200643643Y-67774875D01*
X200643641Y-67774880D01*
X200588494Y-67941302D01*
X200588493Y-67941309D01*
X200578000Y-68044013D01*
X191955987Y-68044013D01*
X192963681Y-67036319D01*
X193025004Y-67002834D01*
X193051362Y-67000000D01*
X206300411Y-67000000D01*
X206367450Y-67019685D01*
X206413205Y-67072489D01*
X206423149Y-67141647D01*
X206394124Y-67205203D01*
X206339415Y-67241706D01*
X206215880Y-67282641D01*
X206215875Y-67282643D01*
X206066654Y-67374684D01*
X205942684Y-67498654D01*
X205850643Y-67647875D01*
X205850641Y-67647880D01*
X205795494Y-67814302D01*
X205795493Y-67814309D01*
X205785000Y-67917013D01*
X205785000Y-68054500D01*
X208234999Y-68054500D01*
X208234999Y-67917028D01*
X208234998Y-67917013D01*
X208224505Y-67814302D01*
X208169358Y-67647880D01*
X208169356Y-67647875D01*
X208077315Y-67498654D01*
X207953345Y-67374684D01*
X207804124Y-67282643D01*
X207804119Y-67282641D01*
X207680584Y-67241706D01*
X207623139Y-67201933D01*
X207596316Y-67137418D01*
X207608631Y-67068642D01*
X207656174Y-67017442D01*
X207719588Y-67000000D01*
X223948638Y-67000000D01*
X224015677Y-67019685D01*
X224036319Y-67036319D01*
X224913858Y-67913858D01*
X224947343Y-67975181D01*
X224942359Y-68044873D01*
X224913858Y-68089220D01*
X217897249Y-75105829D01*
X217835926Y-75139314D01*
X217766234Y-75134330D01*
X217710301Y-75092458D01*
X217685884Y-75026994D01*
X217699084Y-74961852D01*
X217739754Y-74882033D01*
X217802990Y-74687417D01*
X217835000Y-74485317D01*
X217835000Y-74280682D01*
X217802990Y-74078582D01*
X217739755Y-73883968D01*
X217646859Y-73701650D01*
X217614474Y-73657077D01*
X217614474Y-73657076D01*
X216935000Y-74336553D01*
X216935000Y-74330339D01*
X216907741Y-74228606D01*
X216855080Y-74137394D01*
X216780606Y-74062920D01*
X216689394Y-74010259D01*
X216587661Y-73983000D01*
X216581446Y-73983000D01*
X217260922Y-73303524D01*
X217260921Y-73303523D01*
X217216359Y-73271147D01*
X217216350Y-73271141D01*
X217034031Y-73178244D01*
X216839417Y-73115009D01*
X216637317Y-73083000D01*
X216432683Y-73083000D01*
X216230582Y-73115009D01*
X216035968Y-73178244D01*
X215853644Y-73271143D01*
X215809077Y-73303523D01*
X215809077Y-73303524D01*
X216488554Y-73983000D01*
X216482339Y-73983000D01*
X216380606Y-74010259D01*
X216289394Y-74062920D01*
X216214920Y-74137394D01*
X216162259Y-74228606D01*
X216135000Y-74330339D01*
X216135000Y-74336553D01*
X215455524Y-73657077D01*
X215455523Y-73657077D01*
X215423143Y-73701644D01*
X215330244Y-73883968D01*
X215267009Y-74078582D01*
X215235000Y-74280682D01*
X215235000Y-74485317D01*
X215267009Y-74687417D01*
X215330244Y-74882031D01*
X215423141Y-75064350D01*
X215423147Y-75064359D01*
X215455523Y-75108921D01*
X215455524Y-75108922D01*
X216135000Y-74429446D01*
X216135000Y-74435661D01*
X216162259Y-74537394D01*
X216214920Y-74628606D01*
X216289394Y-74703080D01*
X216380606Y-74755741D01*
X216482339Y-74783000D01*
X216488553Y-74783000D01*
X215809076Y-75462474D01*
X215853650Y-75494859D01*
X216035968Y-75587755D01*
X216230582Y-75650990D01*
X216432683Y-75683000D01*
X216637317Y-75683000D01*
X216839417Y-75650990D01*
X217034033Y-75587754D01*
X217113852Y-75547084D01*
X217182521Y-75534187D01*
X217247262Y-75560463D01*
X217287520Y-75617569D01*
X217290512Y-75687374D01*
X217257829Y-75745249D01*
X216456897Y-76546181D01*
X216395574Y-76579666D01*
X216369216Y-76582500D01*
X215934998Y-76582500D01*
X215934980Y-76582501D01*
X215832203Y-76593000D01*
X215832200Y-76593001D01*
X215665668Y-76648185D01*
X215665663Y-76648187D01*
X215516345Y-76740287D01*
X215410450Y-76846182D01*
X215349127Y-76879666D01*
X215322769Y-76882500D01*
X210682782Y-76882500D01*
X210615743Y-76862815D01*
X210595101Y-76846181D01*
X208169818Y-74420898D01*
X208155114Y-74393970D01*
X208138522Y-74368152D01*
X208137630Y-74361951D01*
X208136333Y-74359575D01*
X208133499Y-74333217D01*
X208133499Y-73351129D01*
X208133498Y-73351123D01*
X208133497Y-73351116D01*
X208127091Y-73291517D01*
X208119493Y-73271147D01*
X208076797Y-73156671D01*
X208076793Y-73156664D01*
X207990547Y-73041455D01*
X207990544Y-73041452D01*
X207875335Y-72955206D01*
X207875330Y-72955203D01*
X207791166Y-72923812D01*
X207735233Y-72881940D01*
X207710816Y-72816476D01*
X207710500Y-72807630D01*
X207710500Y-71522448D01*
X207730185Y-71455409D01*
X207782989Y-71409654D01*
X207795488Y-71404744D01*
X207804334Y-71401814D01*
X207953656Y-71309712D01*
X208077712Y-71185656D01*
X208169814Y-71036334D01*
X208224999Y-70869797D01*
X208235500Y-70767009D01*
X208235499Y-69991992D01*
X208224999Y-69889203D01*
X208169814Y-69722666D01*
X208077712Y-69573344D01*
X207953656Y-69449288D01*
X207950342Y-69447243D01*
X207948546Y-69445248D01*
X207947989Y-69444807D01*
X207948064Y-69444711D01*
X207903618Y-69395297D01*
X207892397Y-69326334D01*
X207920240Y-69262252D01*
X207950348Y-69236165D01*
X207953342Y-69234318D01*
X208077315Y-69110345D01*
X208169356Y-68961124D01*
X208169358Y-68961119D01*
X208224505Y-68794697D01*
X208224506Y-68794690D01*
X208234999Y-68691986D01*
X208235000Y-68691973D01*
X208235000Y-68554500D01*
X205785001Y-68554500D01*
X205785001Y-68691986D01*
X205795494Y-68794697D01*
X205850641Y-68961119D01*
X205850643Y-68961124D01*
X205942684Y-69110345D01*
X206066655Y-69234316D01*
X206066659Y-69234319D01*
X206069656Y-69236168D01*
X206071279Y-69237972D01*
X206072323Y-69238798D01*
X206072181Y-69238976D01*
X206116381Y-69288116D01*
X206127602Y-69357079D01*
X206099759Y-69421161D01*
X206069661Y-69447241D01*
X206066349Y-69449283D01*
X206066343Y-69449288D01*
X205942289Y-69573342D01*
X205850187Y-69722663D01*
X205850186Y-69722666D01*
X205795001Y-69889203D01*
X205795001Y-69889204D01*
X205795000Y-69889204D01*
X205784500Y-69991983D01*
X205784500Y-70767001D01*
X205784501Y-70767019D01*
X205795000Y-70869796D01*
X205795001Y-70869799D01*
X205850185Y-71036331D01*
X205850187Y-71036336D01*
X205872050Y-71071781D01*
X205942288Y-71185656D01*
X206066344Y-71309712D01*
X206215666Y-71401814D01*
X206224498Y-71404740D01*
X206281944Y-71444508D01*
X206308771Y-71509022D01*
X206309500Y-71522448D01*
X206309500Y-72774500D01*
X206289815Y-72841539D01*
X206237011Y-72887294D01*
X206185501Y-72898500D01*
X206085130Y-72898500D01*
X206085123Y-72898501D01*
X206025516Y-72904908D01*
X205890671Y-72955202D01*
X205890664Y-72955206D01*
X205775455Y-73041452D01*
X205775452Y-73041455D01*
X205689206Y-73156664D01*
X205689202Y-73156671D01*
X205638908Y-73291517D01*
X205632501Y-73351116D01*
X205632501Y-73351123D01*
X205632500Y-73351135D01*
X205632500Y-73415584D01*
X205612815Y-73482623D01*
X205560011Y-73528378D01*
X205490853Y-73538322D01*
X205427297Y-73509297D01*
X205408182Y-73488470D01*
X205296444Y-73334678D01*
X205157321Y-73195555D01*
X204998143Y-73079904D01*
X204822835Y-72990581D01*
X204635705Y-72929778D01*
X204593000Y-72923014D01*
X204593000Y-74115988D01*
X204535993Y-74083075D01*
X204408826Y-74049000D01*
X204277174Y-74049000D01*
X204150007Y-74083075D01*
X204093000Y-74115988D01*
X204093000Y-72923014D01*
X204092999Y-72923014D01*
X204050294Y-72929778D01*
X203863164Y-72990581D01*
X203687856Y-73079904D01*
X203528678Y-73195555D01*
X203389555Y-73334678D01*
X203273904Y-73493856D01*
X203183765Y-73670764D01*
X203135790Y-73721560D01*
X203067969Y-73738355D01*
X203001834Y-73715817D01*
X202962795Y-73670763D01*
X202872525Y-73493596D01*
X202815845Y-73415584D01*
X202756828Y-73334354D01*
X202617646Y-73195172D01*
X202554613Y-73149375D01*
X202511948Y-73094045D01*
X202503500Y-73049058D01*
X202503500Y-71649448D01*
X202523185Y-71582409D01*
X202575989Y-71536654D01*
X202588488Y-71531744D01*
X202597334Y-71528814D01*
X202746656Y-71436712D01*
X202870712Y-71312656D01*
X202962814Y-71163334D01*
X203017999Y-70996797D01*
X203028500Y-70894009D01*
X203028499Y-70118992D01*
X203028460Y-70118614D01*
X203017999Y-70016203D01*
X203017998Y-70016200D01*
X202983550Y-69912243D01*
X202962814Y-69849666D01*
X202870712Y-69700344D01*
X202746656Y-69576288D01*
X202743342Y-69574243D01*
X202741546Y-69572248D01*
X202740989Y-69571807D01*
X202741064Y-69571711D01*
X202696618Y-69522297D01*
X202685397Y-69453334D01*
X202713240Y-69389252D01*
X202743348Y-69363165D01*
X202746342Y-69361318D01*
X202870315Y-69237345D01*
X202962356Y-69088124D01*
X202962358Y-69088119D01*
X203017505Y-68921697D01*
X203017506Y-68921690D01*
X203027999Y-68818986D01*
X203028000Y-68818973D01*
X203028000Y-68681500D01*
X200578001Y-68681500D01*
X200578001Y-68818986D01*
X200588494Y-68921697D01*
X200643641Y-69088119D01*
X200643643Y-69088124D01*
X200735684Y-69237345D01*
X200859655Y-69361316D01*
X200859659Y-69361319D01*
X200862656Y-69363168D01*
X200864279Y-69364972D01*
X200865323Y-69365798D01*
X200865181Y-69365976D01*
X200909381Y-69415116D01*
X200920602Y-69484079D01*
X200892759Y-69548161D01*
X200862661Y-69574241D01*
X200859349Y-69576283D01*
X200859343Y-69576288D01*
X200735289Y-69700342D01*
X200643187Y-69849663D01*
X200643185Y-69849668D01*
X200630086Y-69889200D01*
X200588001Y-70016203D01*
X200588001Y-70016204D01*
X200588000Y-70016204D01*
X200577500Y-70118983D01*
X200577500Y-70894001D01*
X200577501Y-70894019D01*
X200588000Y-70996796D01*
X200588001Y-70996799D01*
X200643185Y-71163331D01*
X200643187Y-71163336D01*
X200656954Y-71185656D01*
X200735288Y-71312656D01*
X200859344Y-71436712D01*
X201008666Y-71528814D01*
X201017498Y-71531740D01*
X201074944Y-71571508D01*
X201101771Y-71636022D01*
X201102500Y-71649448D01*
X201102500Y-73049058D01*
X201082815Y-73116097D01*
X201051387Y-73149375D01*
X200988354Y-73195171D01*
X200849174Y-73334351D01*
X200849174Y-73334352D01*
X200849172Y-73334354D01*
X200836980Y-73351135D01*
X200733476Y-73493594D01*
X200644117Y-73668970D01*
X200583290Y-73856173D01*
X200552500Y-74050577D01*
X200552500Y-74757481D01*
X200532815Y-74824520D01*
X200516181Y-74845162D01*
X198794162Y-76567181D01*
X198732839Y-76600666D01*
X198706481Y-76603500D01*
X193912301Y-76603500D01*
X193845262Y-76583815D01*
X193799507Y-76531011D01*
X193794595Y-76518504D01*
X193766814Y-76434666D01*
X193674712Y-76285344D01*
X193605488Y-76216120D01*
X193572003Y-76154797D01*
X193576987Y-76085105D01*
X193592852Y-76055552D01*
X193643858Y-75985349D01*
X193643863Y-75985341D01*
X193736755Y-75803031D01*
X193799990Y-75608417D01*
X193832000Y-75406317D01*
X193832000Y-75201682D01*
X193799990Y-74999582D01*
X193736755Y-74804968D01*
X193643859Y-74622650D01*
X193611474Y-74578077D01*
X193611474Y-74578076D01*
X192932000Y-75257551D01*
X192932000Y-75251339D01*
X192904741Y-75149606D01*
X192852080Y-75058394D01*
X192777606Y-74983920D01*
X192686394Y-74931259D01*
X192584661Y-74904000D01*
X192578446Y-74904000D01*
X193257922Y-74224524D01*
X193257921Y-74224523D01*
X193213359Y-74192147D01*
X193213350Y-74192141D01*
X193031031Y-74099244D01*
X192836417Y-74036009D01*
X192634317Y-74004000D01*
X192429683Y-74004000D01*
X192227582Y-74036009D01*
X192032968Y-74099244D01*
X191850644Y-74192143D01*
X191806077Y-74224523D01*
X191806077Y-74224524D01*
X192485554Y-74904000D01*
X192479339Y-74904000D01*
X192377606Y-74931259D01*
X192286394Y-74983920D01*
X192211920Y-75058394D01*
X192159259Y-75149606D01*
X192132000Y-75251339D01*
X192132000Y-75257553D01*
X191452524Y-74578077D01*
X191452523Y-74578077D01*
X191420143Y-74622644D01*
X191327244Y-74804968D01*
X191264009Y-74999582D01*
X191232000Y-75201682D01*
X191232000Y-75406317D01*
X191264009Y-75608417D01*
X191299675Y-75718181D01*
X191301670Y-75788022D01*
X191265590Y-75847855D01*
X191202890Y-75878684D01*
X191181744Y-75880500D01*
X134707519Y-75880500D01*
X134640480Y-75860815D01*
X134619838Y-75844181D01*
X133197819Y-74422162D01*
X133164334Y-74360839D01*
X133161500Y-74334481D01*
X133161500Y-70876499D01*
X133181185Y-70809460D01*
X133233989Y-70763705D01*
X133285500Y-70752499D01*
X133485871Y-70752499D01*
X133485872Y-70752499D01*
X133545483Y-70746091D01*
X133680331Y-70695796D01*
X133795546Y-70609546D01*
X133881796Y-70494331D01*
X133932091Y-70359483D01*
X133938500Y-70299873D01*
X133938499Y-68504128D01*
X133932091Y-68444517D01*
X133930810Y-68441083D01*
X133881797Y-68309671D01*
X133881793Y-68309664D01*
X133795547Y-68194455D01*
X133795544Y-68194452D01*
X133680335Y-68108206D01*
X133680328Y-68108202D01*
X133545482Y-68057908D01*
X133545483Y-68057908D01*
X133485883Y-68051501D01*
X133485881Y-68051500D01*
X133485873Y-68051500D01*
X133485865Y-68051500D01*
X132593519Y-68051500D01*
X132526480Y-68031815D01*
X132505838Y-68015181D01*
X131690438Y-67199781D01*
X131656953Y-67138458D01*
X131661937Y-67068766D01*
X131703809Y-67012833D01*
X131769273Y-66988416D01*
X131778119Y-66988100D01*
X131888396Y-66988100D01*
X131979440Y-66969989D01*
X132023728Y-66961180D01*
X132087469Y-66934777D01*
X132151207Y-66908377D01*
X132151208Y-66908376D01*
X132151211Y-66908375D01*
X132265943Y-66831714D01*
X134660838Y-64436819D01*
X134722161Y-64403334D01*
X134748519Y-64400500D01*
X136339179Y-64400500D01*
X136339180Y-64400500D01*
X136379898Y-64397739D01*
X136555907Y-64353967D01*
X136718391Y-64273383D01*
X136859753Y-64159753D01*
X136973383Y-64018391D01*
X137053967Y-63855907D01*
X137097739Y-63679898D01*
X137100500Y-63639180D01*
X137100500Y-62160820D01*
X137097739Y-62120102D01*
X137053967Y-61944093D01*
X136973383Y-61781609D01*
X136859753Y-61640247D01*
X136834166Y-61619679D01*
X136718390Y-61526616D01*
X136555909Y-61446034D01*
X136555907Y-61446033D01*
X136467444Y-61424032D01*
X136379900Y-61402261D01*
X136352752Y-61400420D01*
X136339180Y-61399500D01*
X132660820Y-61399500D01*
X132650640Y-61400190D01*
X132620099Y-61402261D01*
X132488783Y-61434918D01*
X132444093Y-61446033D01*
X132444091Y-61446033D01*
X132444090Y-61446034D01*
X132281609Y-61526616D01*
X132140247Y-61640246D01*
X132140246Y-61640247D01*
X132026616Y-61781609D01*
X131946034Y-61944090D01*
X131902261Y-62120099D01*
X131902261Y-62120102D01*
X131899500Y-62160820D01*
X131899500Y-63639180D01*
X131902261Y-63679898D01*
X131946033Y-63855907D01*
X131946034Y-63855909D01*
X132026616Y-64018390D01*
X132026617Y-64018391D01*
X132140247Y-64159753D01*
X132281609Y-64273383D01*
X132444093Y-64353967D01*
X132457615Y-64357330D01*
X132486147Y-64364426D01*
X132546454Y-64399708D01*
X132578112Y-64461994D01*
X132571071Y-64531508D01*
X132543901Y-64572441D01*
X131565562Y-65550781D01*
X131504239Y-65584266D01*
X131477881Y-65587100D01*
X121544919Y-65587100D01*
X121477880Y-65567415D01*
X121432125Y-65514611D01*
X121422181Y-65445453D01*
X121451206Y-65381897D01*
X121457238Y-65375419D01*
X122395838Y-64436819D01*
X122457161Y-64403334D01*
X122483519Y-64400500D01*
X124339179Y-64400500D01*
X124339180Y-64400500D01*
X124379898Y-64397739D01*
X124555907Y-64353967D01*
X124718391Y-64273383D01*
X124859753Y-64159753D01*
X124973383Y-64018391D01*
X125053967Y-63855907D01*
X125097739Y-63679898D01*
X125100500Y-63639180D01*
X125100500Y-62160820D01*
X125097739Y-62120102D01*
X125053967Y-61944093D01*
X124973383Y-61781609D01*
X124859753Y-61640247D01*
X124834166Y-61619679D01*
X124718390Y-61526616D01*
X124555909Y-61446034D01*
X124555907Y-61446033D01*
X124467444Y-61424032D01*
X124379900Y-61402261D01*
X124352752Y-61400420D01*
X124339180Y-61399500D01*
X120660820Y-61399500D01*
X120650640Y-61400190D01*
X120620099Y-61402261D01*
X120488783Y-61434918D01*
X120444093Y-61446033D01*
X120444091Y-61446033D01*
X120444090Y-61446034D01*
X120281609Y-61526616D01*
X120140247Y-61640246D01*
X120140246Y-61640247D01*
X120026616Y-61781609D01*
X119946034Y-61944090D01*
X119902261Y-62120099D01*
X119902261Y-62120102D01*
X119899500Y-62160820D01*
X119899500Y-63639180D01*
X119902261Y-63679898D01*
X119946033Y-63855907D01*
X119946034Y-63855909D01*
X120026616Y-64018390D01*
X120140246Y-64159752D01*
X120140247Y-64159753D01*
X120281609Y-64273383D01*
X120325055Y-64294930D01*
X120346186Y-64314458D01*
X120369226Y-64331704D01*
X120371529Y-64337878D01*
X120376368Y-64342350D01*
X120383588Y-64370206D01*
X120393645Y-64397168D01*
X120392244Y-64403606D01*
X120393898Y-64409985D01*
X120384910Y-64437324D01*
X120378795Y-64465441D01*
X120373218Y-64472890D01*
X120372078Y-64476361D01*
X120357645Y-64493696D01*
X120328065Y-64523278D01*
X120266743Y-64556765D01*
X120240381Y-64559600D01*
X112670392Y-64559600D01*
X112603353Y-64539915D01*
X112557598Y-64487111D01*
X112547654Y-64417953D01*
X112576679Y-64354397D01*
X112615298Y-64324512D01*
X112663714Y-64300500D01*
X112718391Y-64273383D01*
X112859753Y-64159753D01*
X112973383Y-64018391D01*
X113053967Y-63855907D01*
X113097739Y-63679898D01*
X113100500Y-63639180D01*
X113100500Y-62160820D01*
X113097739Y-62120102D01*
X113053967Y-61944093D01*
X112973383Y-61781609D01*
X112859753Y-61640247D01*
X112834166Y-61619679D01*
X112718390Y-61526616D01*
X112555909Y-61446034D01*
X112555907Y-61446033D01*
X112467444Y-61424032D01*
X112379900Y-61402261D01*
X112352752Y-61400420D01*
X112339180Y-61399500D01*
X108660820Y-61399500D01*
X108650640Y-61400190D01*
X108620099Y-61402261D01*
X108488783Y-61434918D01*
X108444093Y-61446033D01*
X108444091Y-61446033D01*
X108444090Y-61446034D01*
X108281609Y-61526616D01*
X108140247Y-61640246D01*
X108140246Y-61640247D01*
X108026616Y-61781609D01*
X107946034Y-61944090D01*
X107902261Y-62120099D01*
X107902261Y-62120102D01*
X107899500Y-62160820D01*
X107899500Y-63639180D01*
X107902261Y-63679898D01*
X107946033Y-63855907D01*
X107946034Y-63855909D01*
X108026616Y-64018390D01*
X108140246Y-64159752D01*
X108140247Y-64159753D01*
X108281609Y-64273383D01*
X108384702Y-64324512D01*
X108436015Y-64371933D01*
X108453545Y-64439568D01*
X108431725Y-64505943D01*
X108377484Y-64549985D01*
X108329608Y-64559600D01*
X105545905Y-64559600D01*
X105481351Y-64572441D01*
X105441017Y-64580464D01*
X105410571Y-64586520D01*
X105410570Y-64586520D01*
X105283090Y-64639324D01*
X105168354Y-64715987D01*
X101842849Y-68041492D01*
X101781526Y-68074977D01*
X101735771Y-68076284D01*
X101579287Y-68051500D01*
X101366713Y-68051500D01*
X101318042Y-68059208D01*
X101156760Y-68084753D01*
X100954585Y-68150444D01*
X100765179Y-68246951D01*
X100593213Y-68371890D01*
X100442890Y-68522213D01*
X100317949Y-68694182D01*
X100313202Y-68703499D01*
X100265227Y-68754293D01*
X100197405Y-68771087D01*
X100131271Y-68748548D01*
X100092234Y-68703495D01*
X100087626Y-68694452D01*
X100048270Y-68640282D01*
X100048269Y-68640282D01*
X99415962Y-69272590D01*
X99398925Y-69209007D01*
X99333099Y-69094993D01*
X99240007Y-69001901D01*
X99125993Y-68936075D01*
X99062409Y-68919037D01*
X99694716Y-68286728D01*
X99640550Y-68247375D01*
X99451217Y-68150904D01*
X99249129Y-68085242D01*
X99039246Y-68052000D01*
X98826754Y-68052000D01*
X98616872Y-68085242D01*
X98616869Y-68085242D01*
X98414782Y-68150904D01*
X98225439Y-68247380D01*
X98171282Y-68286727D01*
X98171282Y-68286728D01*
X98803591Y-68919037D01*
X98740007Y-68936075D01*
X98625993Y-69001901D01*
X98532901Y-69094993D01*
X98467075Y-69209007D01*
X98450037Y-69272591D01*
X97817728Y-68640282D01*
X97817727Y-68640282D01*
X97778380Y-68694439D01*
X97681904Y-68883782D01*
X97616242Y-69085869D01*
X97616242Y-69085872D01*
X97583000Y-69295753D01*
X97583000Y-69508246D01*
X97616242Y-69718127D01*
X97616242Y-69718130D01*
X97681904Y-69920217D01*
X97778375Y-70109550D01*
X97817728Y-70163716D01*
X98450037Y-69531408D01*
X98467075Y-69594993D01*
X98532901Y-69709007D01*
X98625993Y-69802099D01*
X98740007Y-69867925D01*
X98803590Y-69884962D01*
X98171282Y-70517269D01*
X98171282Y-70517270D01*
X98225449Y-70556624D01*
X98414782Y-70653095D01*
X98616870Y-70718757D01*
X98826754Y-70752000D01*
X99039246Y-70752000D01*
X99249127Y-70718757D01*
X99249130Y-70718757D01*
X99451217Y-70653095D01*
X99640554Y-70556622D01*
X99694716Y-70517270D01*
X99694717Y-70517270D01*
X99062408Y-69884962D01*
X99125993Y-69867925D01*
X99240007Y-69802099D01*
X99333099Y-69709007D01*
X99398925Y-69594993D01*
X99415962Y-69531409D01*
X100048270Y-70163717D01*
X100048270Y-70163716D01*
X100087622Y-70109555D01*
X100092232Y-70100507D01*
X100140205Y-70049709D01*
X100208025Y-70032912D01*
X100274161Y-70055447D01*
X100313204Y-70100504D01*
X100317949Y-70109817D01*
X100442890Y-70281786D01*
X100593213Y-70432109D01*
X100765179Y-70557048D01*
X100765181Y-70557049D01*
X100765184Y-70557051D01*
X100954588Y-70653557D01*
X101156757Y-70719246D01*
X101366713Y-70752500D01*
X101366714Y-70752500D01*
X101579286Y-70752500D01*
X101579287Y-70752500D01*
X101789243Y-70719246D01*
X101991412Y-70653557D01*
X102180816Y-70557051D01*
X102245179Y-70510289D01*
X102352786Y-70432109D01*
X102352788Y-70432106D01*
X102352792Y-70432104D01*
X102503104Y-70281792D01*
X102503106Y-70281788D01*
X102503109Y-70281786D01*
X102628048Y-70109820D01*
X102628050Y-70109817D01*
X102628051Y-70109816D01*
X102632514Y-70101054D01*
X102680488Y-70050259D01*
X102748308Y-70033463D01*
X102814444Y-70055999D01*
X102853486Y-70101056D01*
X102857951Y-70109820D01*
X102982890Y-70281786D01*
X103133213Y-70432109D01*
X103305179Y-70557048D01*
X103305181Y-70557049D01*
X103305184Y-70557051D01*
X103494588Y-70653557D01*
X103696757Y-70719246D01*
X103906713Y-70752500D01*
X103906714Y-70752500D01*
X104119286Y-70752500D01*
X104119287Y-70752500D01*
X104329243Y-70719246D01*
X104531412Y-70653557D01*
X104720816Y-70557051D01*
X104785179Y-70510289D01*
X104892786Y-70432109D01*
X104892788Y-70432106D01*
X104892792Y-70432104D01*
X105043104Y-70281792D01*
X105043106Y-70281788D01*
X105043109Y-70281786D01*
X105168048Y-70109820D01*
X105168050Y-70109817D01*
X105168051Y-70109816D01*
X105172514Y-70101054D01*
X105220488Y-70050259D01*
X105288308Y-70033463D01*
X105354444Y-70055999D01*
X105393486Y-70101056D01*
X105397951Y-70109820D01*
X105522890Y-70281786D01*
X105673213Y-70432109D01*
X105845179Y-70557048D01*
X105845181Y-70557049D01*
X105845184Y-70557051D01*
X106034588Y-70653557D01*
X106236757Y-70719246D01*
X106446713Y-70752500D01*
X106446714Y-70752500D01*
X106659286Y-70752500D01*
X106659287Y-70752500D01*
X106815771Y-70727715D01*
X106885064Y-70736670D01*
X106922850Y-70762507D01*
X107056762Y-70896419D01*
X107090247Y-70957742D01*
X107085263Y-71027434D01*
X107043391Y-71083367D01*
X106977927Y-71107784D01*
X106969081Y-71108100D01*
X96662216Y-71108100D01*
X96614764Y-71098661D01*
X96470401Y-71038864D01*
X96470389Y-71038861D01*
X96315745Y-71008100D01*
X96315742Y-71008100D01*
X96158058Y-71008100D01*
X96158055Y-71008100D01*
X96003410Y-71038861D01*
X96003398Y-71038864D01*
X95857727Y-71099202D01*
X95857714Y-71099209D01*
X95726611Y-71186810D01*
X95726607Y-71186813D01*
X95615113Y-71298307D01*
X95615110Y-71298311D01*
X95527509Y-71429414D01*
X95527502Y-71429427D01*
X95467164Y-71575098D01*
X95467161Y-71575110D01*
X95436400Y-71729753D01*
X95436400Y-71887446D01*
X95467161Y-72042089D01*
X95467164Y-72042101D01*
X95527502Y-72187772D01*
X95527509Y-72187785D01*
X95615110Y-72318888D01*
X95615113Y-72318892D01*
X95726607Y-72430386D01*
X95726611Y-72430389D01*
X95857714Y-72517990D01*
X95857727Y-72517997D01*
X96003398Y-72578335D01*
X96003403Y-72578337D01*
X96158053Y-72609099D01*
X96158056Y-72609100D01*
X96158058Y-72609100D01*
X96315744Y-72609100D01*
X96315745Y-72609099D01*
X96470397Y-72578337D01*
X96545863Y-72547078D01*
X96614764Y-72518539D01*
X96662216Y-72509100D01*
X127710396Y-72509100D01*
X127801440Y-72490989D01*
X127845728Y-72482180D01*
X127909469Y-72455777D01*
X127973207Y-72429377D01*
X127973208Y-72429376D01*
X127973211Y-72429375D01*
X128087943Y-72352714D01*
X129678148Y-70762506D01*
X129739471Y-70729022D01*
X129785227Y-70727715D01*
X129841767Y-70736670D01*
X129941713Y-70752500D01*
X129941714Y-70752500D01*
X130154286Y-70752500D01*
X130154287Y-70752500D01*
X130364243Y-70719246D01*
X130566412Y-70653557D01*
X130755816Y-70557051D01*
X130927792Y-70432104D01*
X131041329Y-70318566D01*
X131102648Y-70285084D01*
X131172340Y-70290068D01*
X131228274Y-70331939D01*
X131245189Y-70362917D01*
X131294202Y-70494328D01*
X131294206Y-70494335D01*
X131380452Y-70609544D01*
X131380455Y-70609547D01*
X131495664Y-70695793D01*
X131495671Y-70695797D01*
X131532127Y-70709394D01*
X131630517Y-70746091D01*
X131649756Y-70748159D01*
X131714304Y-70774895D01*
X131754154Y-70832287D01*
X131760500Y-70871448D01*
X131760500Y-74607006D01*
X131760500Y-74744994D01*
X131760500Y-74744996D01*
X131760499Y-74744996D01*
X131787418Y-74880322D01*
X131787421Y-74880332D01*
X131840222Y-75007807D01*
X131916887Y-75122545D01*
X133919454Y-77125112D01*
X134034192Y-77201777D01*
X134150021Y-77249754D01*
X134161672Y-77254580D01*
X134161676Y-77254580D01*
X134161677Y-77254581D01*
X134297003Y-77281500D01*
X134297006Y-77281500D01*
X134297007Y-77281500D01*
X156448581Y-77281500D01*
X156515620Y-77301185D01*
X156561375Y-77353989D01*
X156571319Y-77423147D01*
X156542294Y-77486703D01*
X156536262Y-77493181D01*
X156417376Y-77612066D01*
X156417370Y-77612073D01*
X156249754Y-77830516D01*
X156112080Y-78068971D01*
X156112075Y-78068982D01*
X156006704Y-78323369D01*
X155935441Y-78589331D01*
X155935438Y-78589344D01*
X155899501Y-78862315D01*
X155899500Y-78862326D01*
X155899500Y-79137667D01*
X155899501Y-79137684D01*
X155935438Y-79410655D01*
X155935439Y-79410660D01*
X155935440Y-79410666D01*
X155935441Y-79410668D01*
X156006704Y-79676630D01*
X156112075Y-79931017D01*
X156112080Y-79931028D01*
X156191809Y-80069121D01*
X156249751Y-80169479D01*
X156249753Y-80169482D01*
X156249754Y-80169483D01*
X156417370Y-80387926D01*
X156417376Y-80387933D01*
X156612066Y-80582623D01*
X156612072Y-80582628D01*
X156830521Y-80750249D01*
X156862332Y-80768615D01*
X156910545Y-80819181D01*
X156923767Y-80887788D01*
X156897799Y-80952652D01*
X156840885Y-80993180D01*
X156800329Y-81000000D01*
X90199671Y-81000000D01*
X90132632Y-80980315D01*
X90086877Y-80927511D01*
X90076933Y-80858353D01*
X90105958Y-80794797D01*
X90137666Y-80768616D01*
X90169479Y-80750249D01*
X90387928Y-80582628D01*
X90582628Y-80387928D01*
X90750249Y-80169479D01*
X90887923Y-79931021D01*
X90993295Y-79676632D01*
X91064560Y-79410666D01*
X91100500Y-79137674D01*
X91100500Y-78862326D01*
X91064560Y-78589334D01*
X90993295Y-78323368D01*
X90887923Y-78068979D01*
X90887921Y-78068976D01*
X90887919Y-78068971D01*
X90835154Y-77977580D01*
X90750249Y-77830521D01*
X90582628Y-77612072D01*
X90582623Y-77612066D01*
X90387933Y-77417376D01*
X90387926Y-77417370D01*
X90169483Y-77249754D01*
X90169482Y-77249753D01*
X90169479Y-77249751D01*
X90074407Y-77194861D01*
X89931028Y-77112080D01*
X89931017Y-77112075D01*
X89676630Y-77006704D01*
X89543649Y-76971072D01*
X89410666Y-76935440D01*
X89410660Y-76935439D01*
X89410655Y-76935438D01*
X89137684Y-76899501D01*
X89137679Y-76899500D01*
X89137674Y-76899500D01*
X88862326Y-76899500D01*
X88862320Y-76899500D01*
X88862315Y-76899501D01*
X88589344Y-76935438D01*
X88589337Y-76935439D01*
X88589334Y-76935440D01*
X88533125Y-76950500D01*
X88323369Y-77006704D01*
X88068982Y-77112075D01*
X88068971Y-77112080D01*
X87830516Y-77249754D01*
X87612073Y-77417370D01*
X87612066Y-77417376D01*
X87417376Y-77612066D01*
X87417370Y-77612073D01*
X87249756Y-77830513D01*
X87249752Y-77830518D01*
X87249751Y-77830521D01*
X87231384Y-77862332D01*
X87180819Y-77910545D01*
X87112212Y-77923767D01*
X87047348Y-77897799D01*
X87006820Y-77840885D01*
X87000000Y-77800329D01*
X87000000Y-62160820D01*
X95899500Y-62160820D01*
X95899500Y-63639180D01*
X95902261Y-63679898D01*
X95946033Y-63855907D01*
X95946034Y-63855909D01*
X96026616Y-64018390D01*
X96026617Y-64018391D01*
X96140247Y-64159753D01*
X96281609Y-64273383D01*
X96444093Y-64353967D01*
X96620102Y-64397739D01*
X96660820Y-64400500D01*
X96660821Y-64400500D01*
X100339179Y-64400500D01*
X100339180Y-64400500D01*
X100379898Y-64397739D01*
X100555907Y-64353967D01*
X100718391Y-64273383D01*
X100859753Y-64159753D01*
X100973383Y-64018391D01*
X101053967Y-63855907D01*
X101097739Y-63679898D01*
X101100500Y-63639180D01*
X101100500Y-62160820D01*
X101097739Y-62120102D01*
X101053967Y-61944093D01*
X100973383Y-61781609D01*
X100859753Y-61640247D01*
X100834166Y-61619679D01*
X100718390Y-61526616D01*
X100555909Y-61446034D01*
X100555907Y-61446033D01*
X100467444Y-61424032D01*
X100379900Y-61402261D01*
X100352752Y-61400420D01*
X100339180Y-61399500D01*
X96660820Y-61399500D01*
X96650640Y-61400190D01*
X96620099Y-61402261D01*
X96488783Y-61434918D01*
X96444093Y-61446033D01*
X96444091Y-61446033D01*
X96444090Y-61446034D01*
X96281609Y-61526616D01*
X96140247Y-61640246D01*
X96140246Y-61640247D01*
X96026616Y-61781609D01*
X95946034Y-61944090D01*
X95902261Y-62120099D01*
X95902261Y-62120102D01*
X95899500Y-62160820D01*
X87000000Y-62160820D01*
X87000000Y-58160872D01*
X101400000Y-58160872D01*
X101400000Y-58239999D01*
X101419336Y-58248009D01*
X101420414Y-58247421D01*
X101490106Y-58252403D01*
X101534457Y-58280905D01*
X102400000Y-59146448D01*
X102400000Y-59853551D01*
X101400000Y-58853551D01*
X101400000Y-61146448D01*
X102400000Y-60146448D01*
X102400000Y-60853551D01*
X101534457Y-61719094D01*
X101473134Y-61752579D01*
X101426046Y-61749211D01*
X101400000Y-61760000D01*
X101400000Y-61839127D01*
X101402760Y-61879834D01*
X101446505Y-62055733D01*
X101446506Y-62055735D01*
X101527038Y-62218116D01*
X101527040Y-62218119D01*
X101640602Y-62359396D01*
X101640603Y-62359397D01*
X101781880Y-62472959D01*
X101781883Y-62472961D01*
X101944264Y-62553493D01*
X101944266Y-62553494D01*
X102120167Y-62597239D01*
X102120163Y-62597239D01*
X102160872Y-62600000D01*
X103639128Y-62600000D01*
X103679834Y-62597239D01*
X103855733Y-62553494D01*
X103855735Y-62553493D01*
X104018116Y-62472961D01*
X104018119Y-62472959D01*
X104159396Y-62359397D01*
X104159397Y-62359396D01*
X104272959Y-62218119D01*
X104272961Y-62218116D01*
X104353493Y-62055735D01*
X104353494Y-62055733D01*
X104397239Y-61879834D01*
X104400000Y-61839127D01*
X104400000Y-61760000D01*
X104380659Y-61751989D01*
X104379578Y-61752580D01*
X104309886Y-61747594D01*
X104265542Y-61719094D01*
X103400000Y-60853552D01*
X103400000Y-60146448D01*
X104399999Y-61146448D01*
X104400000Y-61146447D01*
X104400000Y-58853552D01*
X104399999Y-58853551D01*
X103400000Y-59853550D01*
X103400000Y-59146446D01*
X104265542Y-58280905D01*
X104326865Y-58247420D01*
X104373955Y-58250787D01*
X104400000Y-58239999D01*
X104400000Y-58160872D01*
X113400000Y-58160872D01*
X113400000Y-58239999D01*
X113419336Y-58248009D01*
X113420414Y-58247421D01*
X113490106Y-58252403D01*
X113534457Y-58280905D01*
X114400000Y-59146448D01*
X114400000Y-59853551D01*
X113400000Y-58853551D01*
X113400000Y-61146448D01*
X114400000Y-60146448D01*
X114400000Y-60853551D01*
X113534457Y-61719094D01*
X113473134Y-61752579D01*
X113426046Y-61749211D01*
X113400000Y-61760000D01*
X113400000Y-61839127D01*
X113402760Y-61879834D01*
X113446505Y-62055733D01*
X113446506Y-62055735D01*
X113527038Y-62218116D01*
X113527040Y-62218119D01*
X113640602Y-62359396D01*
X113640603Y-62359397D01*
X113781880Y-62472959D01*
X113781883Y-62472961D01*
X113944264Y-62553493D01*
X113944266Y-62553494D01*
X114120167Y-62597239D01*
X114120163Y-62597239D01*
X114160872Y-62600000D01*
X115639128Y-62600000D01*
X115679834Y-62597239D01*
X115855733Y-62553494D01*
X115855735Y-62553493D01*
X116018116Y-62472961D01*
X116018119Y-62472959D01*
X116159396Y-62359397D01*
X116159397Y-62359396D01*
X116272959Y-62218119D01*
X116272961Y-62218116D01*
X116353493Y-62055735D01*
X116353494Y-62055733D01*
X116397239Y-61879834D01*
X116400000Y-61839127D01*
X116400000Y-61760000D01*
X116380659Y-61751989D01*
X116379578Y-61752580D01*
X116309886Y-61747594D01*
X116265542Y-61719094D01*
X115400000Y-60853552D01*
X115400000Y-60146448D01*
X116399999Y-61146448D01*
X116400000Y-61146447D01*
X116400000Y-58853552D01*
X116399999Y-58853551D01*
X115400000Y-59853550D01*
X115400000Y-59146446D01*
X116265542Y-58280905D01*
X116326865Y-58247420D01*
X116373955Y-58250787D01*
X116400000Y-58239999D01*
X116400000Y-58160872D01*
X125400000Y-58160872D01*
X125400000Y-58239999D01*
X125419336Y-58248009D01*
X125420414Y-58247421D01*
X125490106Y-58252403D01*
X125534457Y-58280905D01*
X126400000Y-59146448D01*
X126400000Y-59853551D01*
X125400000Y-58853551D01*
X125400000Y-61146448D01*
X126400000Y-60146448D01*
X126400000Y-60853551D01*
X125534457Y-61719094D01*
X125478852Y-61751192D01*
X125400000Y-61772308D01*
X125400000Y-61839127D01*
X125402760Y-61879834D01*
X125446505Y-62055733D01*
X125446506Y-62055735D01*
X125527038Y-62218116D01*
X125527040Y-62218119D01*
X125640602Y-62359396D01*
X125640603Y-62359397D01*
X125781880Y-62472959D01*
X125781883Y-62472961D01*
X125944264Y-62553493D01*
X125944266Y-62553494D01*
X126120167Y-62597239D01*
X126120163Y-62597239D01*
X126160872Y-62600000D01*
X127639128Y-62600000D01*
X127679834Y-62597239D01*
X127855733Y-62553494D01*
X127855735Y-62553493D01*
X128018116Y-62472961D01*
X128018119Y-62472959D01*
X128159396Y-62359397D01*
X128159397Y-62359396D01*
X128272959Y-62218119D01*
X128272961Y-62218116D01*
X128353493Y-62055735D01*
X128353494Y-62055733D01*
X128397239Y-61879834D01*
X128400000Y-61839127D01*
X128400000Y-61760000D01*
X128380659Y-61751989D01*
X128379578Y-61752580D01*
X128309886Y-61747594D01*
X128265542Y-61719094D01*
X127400000Y-60853552D01*
X127400000Y-60146448D01*
X128399999Y-61146448D01*
X128400000Y-61146447D01*
X128400000Y-58853552D01*
X128399999Y-58853551D01*
X127400000Y-59853550D01*
X127400000Y-59146446D01*
X128265542Y-58280905D01*
X128326865Y-58247420D01*
X128373955Y-58250787D01*
X128400000Y-58239999D01*
X128400000Y-58160872D01*
X137400000Y-58160872D01*
X137400000Y-58239999D01*
X137419336Y-58248009D01*
X137420414Y-58247421D01*
X137490106Y-58252403D01*
X137534457Y-58280905D01*
X138400000Y-59146448D01*
X138400000Y-59853551D01*
X137400000Y-58853551D01*
X137400000Y-61146448D01*
X138400000Y-60146448D01*
X138400000Y-60853551D01*
X137534457Y-61719094D01*
X137473134Y-61752579D01*
X137426046Y-61749211D01*
X137400000Y-61760000D01*
X137400000Y-61839127D01*
X137402760Y-61879834D01*
X137446505Y-62055733D01*
X137446506Y-62055735D01*
X137527038Y-62218116D01*
X137527040Y-62218119D01*
X137640602Y-62359396D01*
X137640603Y-62359397D01*
X137781880Y-62472959D01*
X137781883Y-62472961D01*
X137944264Y-62553493D01*
X137944266Y-62553494D01*
X138120167Y-62597239D01*
X138120163Y-62597239D01*
X138160872Y-62600000D01*
X139639128Y-62600000D01*
X139679834Y-62597239D01*
X139855733Y-62553494D01*
X139855735Y-62553493D01*
X140018116Y-62472961D01*
X140018119Y-62472959D01*
X140159396Y-62359397D01*
X140159397Y-62359396D01*
X140272959Y-62218119D01*
X140272961Y-62218116D01*
X140353493Y-62055735D01*
X140353494Y-62055733D01*
X140397239Y-61879834D01*
X140400000Y-61839127D01*
X140400000Y-61760000D01*
X140380659Y-61751989D01*
X140379578Y-61752580D01*
X140309886Y-61747594D01*
X140265542Y-61719094D01*
X139400000Y-60853552D01*
X139400000Y-60146448D01*
X140399999Y-61146448D01*
X140400000Y-61146447D01*
X140400000Y-58853552D01*
X140399999Y-58853551D01*
X139400000Y-59853550D01*
X139400000Y-59146446D01*
X140265542Y-58280905D01*
X140326865Y-58247420D01*
X140373955Y-58250787D01*
X140400000Y-58239999D01*
X140400000Y-58160872D01*
X140397239Y-58120165D01*
X140353494Y-57944266D01*
X140353493Y-57944264D01*
X140272961Y-57781883D01*
X140272959Y-57781880D01*
X140159397Y-57640603D01*
X140159396Y-57640602D01*
X140018119Y-57527040D01*
X140018116Y-57527038D01*
X139855735Y-57446506D01*
X139855733Y-57446505D01*
X139679832Y-57402760D01*
X139679836Y-57402760D01*
X139639128Y-57400000D01*
X138160872Y-57400000D01*
X138120165Y-57402760D01*
X137944266Y-57446505D01*
X137944264Y-57446506D01*
X137781883Y-57527038D01*
X137781880Y-57527040D01*
X137640603Y-57640602D01*
X137640602Y-57640603D01*
X137527040Y-57781880D01*
X137527038Y-57781883D01*
X137446506Y-57944264D01*
X137446505Y-57944266D01*
X137402760Y-58120165D01*
X137400000Y-58160872D01*
X128400000Y-58160872D01*
X128397239Y-58120165D01*
X128353494Y-57944266D01*
X128353493Y-57944264D01*
X128272961Y-57781883D01*
X128272959Y-57781880D01*
X128159397Y-57640603D01*
X128159396Y-57640602D01*
X128018119Y-57527040D01*
X128018116Y-57527038D01*
X127855735Y-57446506D01*
X127855733Y-57446505D01*
X127679832Y-57402760D01*
X127679836Y-57402760D01*
X127639128Y-57400000D01*
X126160872Y-57400000D01*
X126120165Y-57402760D01*
X125944266Y-57446505D01*
X125944264Y-57446506D01*
X125781883Y-57527038D01*
X125781880Y-57527040D01*
X125640603Y-57640602D01*
X125640602Y-57640603D01*
X125527040Y-57781880D01*
X125527038Y-57781883D01*
X125446506Y-57944264D01*
X125446505Y-57944266D01*
X125402760Y-58120165D01*
X125400000Y-58160872D01*
X116400000Y-58160872D01*
X116397239Y-58120165D01*
X116353494Y-57944266D01*
X116353493Y-57944264D01*
X116272961Y-57781883D01*
X116272959Y-57781880D01*
X116159397Y-57640603D01*
X116159396Y-57640602D01*
X116018119Y-57527040D01*
X116018116Y-57527038D01*
X115855735Y-57446506D01*
X115855733Y-57446505D01*
X115679832Y-57402760D01*
X115679836Y-57402760D01*
X115639128Y-57400000D01*
X114160872Y-57400000D01*
X114120165Y-57402760D01*
X113944266Y-57446505D01*
X113944264Y-57446506D01*
X113781883Y-57527038D01*
X113781880Y-57527040D01*
X113640603Y-57640602D01*
X113640602Y-57640603D01*
X113527040Y-57781880D01*
X113527038Y-57781883D01*
X113446506Y-57944264D01*
X113446505Y-57944266D01*
X113402760Y-58120165D01*
X113400000Y-58160872D01*
X104400000Y-58160872D01*
X104397239Y-58120165D01*
X104353494Y-57944266D01*
X104353493Y-57944264D01*
X104272961Y-57781883D01*
X104272959Y-57781880D01*
X104159397Y-57640603D01*
X104159396Y-57640602D01*
X104018119Y-57527040D01*
X104018116Y-57527038D01*
X103855735Y-57446506D01*
X103855733Y-57446505D01*
X103679832Y-57402760D01*
X103679836Y-57402760D01*
X103639128Y-57400000D01*
X102160872Y-57400000D01*
X102120165Y-57402760D01*
X101944266Y-57446505D01*
X101944264Y-57446506D01*
X101781883Y-57527038D01*
X101781880Y-57527040D01*
X101640603Y-57640602D01*
X101640602Y-57640603D01*
X101527040Y-57781880D01*
X101527038Y-57781883D01*
X101446506Y-57944264D01*
X101446505Y-57944266D01*
X101402760Y-58120165D01*
X101400000Y-58160872D01*
X87000000Y-58160872D01*
X87000000Y-54199670D01*
X87019685Y-54132631D01*
X87072489Y-54086876D01*
X87141647Y-54076932D01*
X87205203Y-54105957D01*
X87231383Y-54137665D01*
X87249751Y-54169479D01*
X87249753Y-54169481D01*
X87249755Y-54169485D01*
X87417370Y-54387926D01*
X87417376Y-54387933D01*
X87612066Y-54582623D01*
X87612072Y-54582628D01*
X87830521Y-54750249D01*
X87947003Y-54817500D01*
X88068971Y-54887919D01*
X88068976Y-54887921D01*
X88068979Y-54887923D01*
X88323368Y-54993295D01*
X88589334Y-55064560D01*
X88862326Y-55100500D01*
X88862333Y-55100500D01*
X89137667Y-55100500D01*
X89137674Y-55100500D01*
X89410666Y-55064560D01*
X89676632Y-54993295D01*
X89931021Y-54887923D01*
X90151170Y-54760820D01*
X95899500Y-54760820D01*
X95899500Y-56239180D01*
X95902261Y-56279898D01*
X95946033Y-56455907D01*
X95946034Y-56455909D01*
X96026616Y-56618390D01*
X96026617Y-56618391D01*
X96140247Y-56759753D01*
X96281609Y-56873383D01*
X96444093Y-56953967D01*
X96620102Y-56997739D01*
X96660820Y-57000500D01*
X96660821Y-57000500D01*
X100339179Y-57000500D01*
X100339180Y-57000500D01*
X100379898Y-56997739D01*
X100555907Y-56953967D01*
X100718391Y-56873383D01*
X100859753Y-56759753D01*
X100973383Y-56618391D01*
X101053967Y-56455907D01*
X101097739Y-56279898D01*
X101100500Y-56239180D01*
X101100500Y-54760820D01*
X107899500Y-54760820D01*
X107899500Y-56239180D01*
X107902261Y-56279898D01*
X107946033Y-56455907D01*
X107946034Y-56455909D01*
X108026616Y-56618390D01*
X108026617Y-56618391D01*
X108140247Y-56759753D01*
X108281609Y-56873383D01*
X108444093Y-56953967D01*
X108620102Y-56997739D01*
X108660820Y-57000500D01*
X108660821Y-57000500D01*
X112339179Y-57000500D01*
X112339180Y-57000500D01*
X112379898Y-56997739D01*
X112555907Y-56953967D01*
X112718391Y-56873383D01*
X112859753Y-56759753D01*
X112973383Y-56618391D01*
X113053967Y-56455907D01*
X113097739Y-56279898D01*
X113100500Y-56239180D01*
X113100500Y-54760820D01*
X119899500Y-54760820D01*
X119899500Y-56239180D01*
X119902261Y-56279898D01*
X119946033Y-56455907D01*
X119946034Y-56455909D01*
X120026616Y-56618390D01*
X120026617Y-56618391D01*
X120140247Y-56759753D01*
X120281609Y-56873383D01*
X120444093Y-56953967D01*
X120620102Y-56997739D01*
X120660820Y-57000500D01*
X120660821Y-57000500D01*
X124339179Y-57000500D01*
X124339180Y-57000500D01*
X124379898Y-56997739D01*
X124555907Y-56953967D01*
X124718391Y-56873383D01*
X124859753Y-56759753D01*
X124973383Y-56618391D01*
X125053967Y-56455907D01*
X125097739Y-56279898D01*
X125100500Y-56239180D01*
X125100500Y-54760820D01*
X131899500Y-54760820D01*
X131899500Y-56239180D01*
X131902261Y-56279898D01*
X131946033Y-56455907D01*
X131946034Y-56455909D01*
X132026616Y-56618390D01*
X132026617Y-56618391D01*
X132140247Y-56759753D01*
X132281609Y-56873383D01*
X132444093Y-56953967D01*
X132620102Y-56997739D01*
X132660820Y-57000500D01*
X132660821Y-57000500D01*
X136339179Y-57000500D01*
X136339180Y-57000500D01*
X136379898Y-56997739D01*
X136555907Y-56953967D01*
X136718391Y-56873383D01*
X136859753Y-56759753D01*
X136973383Y-56618391D01*
X137053967Y-56455907D01*
X137097739Y-56279898D01*
X137100500Y-56239180D01*
X137100500Y-54760820D01*
X137097739Y-54720102D01*
X137053967Y-54544093D01*
X136973383Y-54381609D01*
X136859753Y-54240247D01*
X136847333Y-54230263D01*
X136718390Y-54126616D01*
X136555909Y-54046034D01*
X136555907Y-54046033D01*
X136467444Y-54024032D01*
X136379900Y-54002261D01*
X136352752Y-54000420D01*
X136339180Y-53999500D01*
X132660820Y-53999500D01*
X132650640Y-54000190D01*
X132620099Y-54002261D01*
X132488783Y-54034918D01*
X132444093Y-54046033D01*
X132444091Y-54046033D01*
X132444090Y-54046034D01*
X132281609Y-54126616D01*
X132140247Y-54240246D01*
X132140246Y-54240247D01*
X132026616Y-54381609D01*
X131969337Y-54497104D01*
X131946033Y-54544093D01*
X131941234Y-54563390D01*
X131902261Y-54720099D01*
X131902261Y-54720102D01*
X131899500Y-54760820D01*
X125100500Y-54760820D01*
X125097739Y-54720102D01*
X125053967Y-54544093D01*
X124973383Y-54381609D01*
X124859753Y-54240247D01*
X124847333Y-54230263D01*
X124718390Y-54126616D01*
X124555909Y-54046034D01*
X124555907Y-54046033D01*
X124467444Y-54024032D01*
X124379900Y-54002261D01*
X124352752Y-54000420D01*
X124339180Y-53999500D01*
X120660820Y-53999500D01*
X120650640Y-54000190D01*
X120620099Y-54002261D01*
X120488783Y-54034918D01*
X120444093Y-54046033D01*
X120444091Y-54046033D01*
X120444090Y-54046034D01*
X120281609Y-54126616D01*
X120140247Y-54240246D01*
X120140246Y-54240247D01*
X120026616Y-54381609D01*
X119969337Y-54497104D01*
X119946033Y-54544093D01*
X119941234Y-54563390D01*
X119902261Y-54720099D01*
X119902261Y-54720102D01*
X119899500Y-54760820D01*
X113100500Y-54760820D01*
X113097739Y-54720102D01*
X113053967Y-54544093D01*
X112973383Y-54381609D01*
X112859753Y-54240247D01*
X112847333Y-54230263D01*
X112718390Y-54126616D01*
X112555909Y-54046034D01*
X112555907Y-54046033D01*
X112467444Y-54024032D01*
X112379900Y-54002261D01*
X112352752Y-54000420D01*
X112339180Y-53999500D01*
X108660820Y-53999500D01*
X108650640Y-54000190D01*
X108620099Y-54002261D01*
X108488783Y-54034918D01*
X108444093Y-54046033D01*
X108444091Y-54046033D01*
X108444090Y-54046034D01*
X108281609Y-54126616D01*
X108140247Y-54240246D01*
X108140246Y-54240247D01*
X108026616Y-54381609D01*
X107969337Y-54497104D01*
X107946033Y-54544093D01*
X107941234Y-54563390D01*
X107902261Y-54720099D01*
X107902261Y-54720102D01*
X107899500Y-54760820D01*
X101100500Y-54760820D01*
X101097739Y-54720102D01*
X101053967Y-54544093D01*
X100973383Y-54381609D01*
X100859753Y-54240247D01*
X100847333Y-54230263D01*
X100718390Y-54126616D01*
X100555909Y-54046034D01*
X100555907Y-54046033D01*
X100467444Y-54024032D01*
X100379900Y-54002261D01*
X100352752Y-54000420D01*
X100339180Y-53999500D01*
X96660820Y-53999500D01*
X96650640Y-54000190D01*
X96620099Y-54002261D01*
X96488783Y-54034918D01*
X96444093Y-54046033D01*
X96444091Y-54046033D01*
X96444090Y-54046034D01*
X96281609Y-54126616D01*
X96140247Y-54240246D01*
X96140246Y-54240247D01*
X96026616Y-54381609D01*
X95969337Y-54497104D01*
X95946033Y-54544093D01*
X95941234Y-54563390D01*
X95902261Y-54720099D01*
X95902261Y-54720102D01*
X95899500Y-54760820D01*
X90151170Y-54760820D01*
X90169479Y-54750249D01*
X90387928Y-54582628D01*
X90582628Y-54387928D01*
X90750249Y-54169479D01*
X90887923Y-53931021D01*
X90993295Y-53676632D01*
X91064560Y-53410666D01*
X91100500Y-53137674D01*
X91100500Y-52862326D01*
X91064560Y-52589334D01*
X90993295Y-52323368D01*
X90887923Y-52068979D01*
X90887921Y-52068976D01*
X90887919Y-52068971D01*
X90838732Y-51983778D01*
X90750249Y-51830521D01*
X90582628Y-51612072D01*
X90582623Y-51612066D01*
X90387933Y-51417376D01*
X90387926Y-51417370D01*
X90169486Y-51249756D01*
X90169484Y-51249754D01*
X90169479Y-51249751D01*
X90137667Y-51231384D01*
X90089455Y-51180819D01*
X90076233Y-51112212D01*
X90102201Y-51047348D01*
X90159115Y-51006820D01*
X90199671Y-51000000D01*
X139948638Y-51000000D01*
X140015677Y-51019685D01*
G37*
%TD.AperFunction*%
%TA.AperFunction,Conductor*%
G36*
X224919334Y-71016099D02*
G01*
X224975267Y-71057971D01*
X224999684Y-71123435D01*
X225000000Y-71132281D01*
X225000000Y-80876000D01*
X224980315Y-80943039D01*
X224927511Y-80988794D01*
X224876000Y-81000000D01*
X159199671Y-81000000D01*
X159132632Y-80980315D01*
X159086877Y-80927511D01*
X159076933Y-80858353D01*
X159105958Y-80794797D01*
X159137666Y-80768616D01*
X159169479Y-80750249D01*
X159387928Y-80582628D01*
X159582628Y-80387928D01*
X159750249Y-80169479D01*
X159887923Y-79931021D01*
X159993295Y-79676632D01*
X160064560Y-79410666D01*
X160100500Y-79137674D01*
X160100500Y-78862326D01*
X160064560Y-78589334D01*
X159993295Y-78323368D01*
X159887923Y-78068979D01*
X159887921Y-78068976D01*
X159887919Y-78068971D01*
X159835154Y-77977580D01*
X159750249Y-77830521D01*
X159582628Y-77612072D01*
X159582623Y-77612066D01*
X159463738Y-77493181D01*
X159430253Y-77431858D01*
X159435237Y-77362166D01*
X159477109Y-77306233D01*
X159542573Y-77281816D01*
X159551419Y-77281500D01*
X191107500Y-77281500D01*
X191174539Y-77301185D01*
X191220294Y-77353989D01*
X191231500Y-77405500D01*
X191231500Y-77904001D01*
X191231501Y-77904019D01*
X191242000Y-78006796D01*
X191242001Y-78006799D01*
X191294071Y-78163934D01*
X191297186Y-78173334D01*
X191389288Y-78322656D01*
X191513344Y-78446712D01*
X191662666Y-78538814D01*
X191829203Y-78593999D01*
X191931991Y-78604500D01*
X193132008Y-78604499D01*
X193234797Y-78593999D01*
X193401334Y-78538814D01*
X193550656Y-78446712D01*
X193674712Y-78322656D01*
X193766814Y-78173334D01*
X193794595Y-78089495D01*
X193834368Y-78032051D01*
X193898884Y-78005228D01*
X193912301Y-78004500D01*
X199116996Y-78004500D01*
X199208040Y-77986389D01*
X199252328Y-77977580D01*
X199365075Y-77930879D01*
X199379807Y-77924777D01*
X199379808Y-77924776D01*
X199379811Y-77924775D01*
X199494543Y-77848114D01*
X201202673Y-76139982D01*
X201263994Y-76106499D01*
X201328668Y-76109733D01*
X201430426Y-76142797D01*
X201510173Y-76168709D01*
X201704578Y-76199500D01*
X201704583Y-76199500D01*
X201901422Y-76199500D01*
X202095826Y-76168709D01*
X202175574Y-76142797D01*
X202283025Y-76107884D01*
X202458405Y-76018524D01*
X202617646Y-75902828D01*
X202756828Y-75763646D01*
X202872524Y-75604405D01*
X202961884Y-75429025D01*
X202961884Y-75429022D01*
X202962795Y-75427236D01*
X203010769Y-75376440D01*
X203078590Y-75359644D01*
X203144725Y-75382181D01*
X203183765Y-75427235D01*
X203273904Y-75604143D01*
X203389555Y-75763321D01*
X203528678Y-75902444D01*
X203687856Y-76018095D01*
X203863162Y-76107418D01*
X204050283Y-76168218D01*
X204093000Y-76174984D01*
X204093000Y-74982012D01*
X204150007Y-75014925D01*
X204277174Y-75049000D01*
X204408826Y-75049000D01*
X204535993Y-75014925D01*
X204593000Y-74982012D01*
X204593000Y-76174983D01*
X204635716Y-76168218D01*
X204822837Y-76107418D01*
X204998143Y-76018095D01*
X205157321Y-75902444D01*
X205296443Y-75763322D01*
X205296448Y-75763316D01*
X205408182Y-75609529D01*
X205463512Y-75566863D01*
X205533125Y-75560884D01*
X205594920Y-75593490D01*
X205629278Y-75654329D01*
X205632500Y-75682412D01*
X205632500Y-75746869D01*
X205632501Y-75746876D01*
X205638908Y-75806483D01*
X205689202Y-75941328D01*
X205689206Y-75941335D01*
X205775452Y-76056544D01*
X205775455Y-76056547D01*
X205890664Y-76142793D01*
X205890671Y-76142797D01*
X206025517Y-76193091D01*
X206025516Y-76193091D01*
X206032444Y-76193835D01*
X206085127Y-76199500D01*
X207067217Y-76199499D01*
X207134256Y-76219183D01*
X207154898Y-76235818D01*
X209436735Y-78517655D01*
X209436764Y-78517686D01*
X209579214Y-78660136D01*
X209579218Y-78660139D01*
X209743079Y-78769628D01*
X209743092Y-78769635D01*
X209871833Y-78822961D01*
X209925159Y-78845049D01*
X209925164Y-78845051D01*
X210012011Y-78862326D01*
X210038623Y-78867619D01*
X210118456Y-78883500D01*
X210118459Y-78883500D01*
X210118460Y-78883500D01*
X210315540Y-78883500D01*
X215322769Y-78883500D01*
X215389808Y-78903185D01*
X215410450Y-78919818D01*
X215516344Y-79025712D01*
X215665666Y-79117814D01*
X215832203Y-79172999D01*
X215934991Y-79183500D01*
X217135008Y-79183499D01*
X217237797Y-79172999D01*
X217404334Y-79117814D01*
X217553656Y-79025712D01*
X217677712Y-78901656D01*
X217769814Y-78752334D01*
X217824999Y-78585797D01*
X217835500Y-78483009D01*
X217835499Y-78048780D01*
X217855183Y-77981742D01*
X217871813Y-77961105D01*
X224788321Y-71044598D01*
X224849642Y-71011115D01*
X224919334Y-71016099D01*
G37*
%TD.AperFunction*%
%TA.AperFunction,Conductor*%
G36*
X119070923Y-68157185D02*
G01*
X119116678Y-68209989D01*
X119127502Y-68271229D01*
X119126282Y-68286728D01*
X119758591Y-68919037D01*
X119695007Y-68936075D01*
X119580993Y-69001901D01*
X119487901Y-69094993D01*
X119422075Y-69209007D01*
X119405037Y-69272591D01*
X118772728Y-68640282D01*
X118772727Y-68640282D01*
X118733380Y-68694439D01*
X118636904Y-68883782D01*
X118571242Y-69085869D01*
X118571242Y-69085872D01*
X118538000Y-69295753D01*
X118538000Y-69508246D01*
X118571242Y-69718127D01*
X118571242Y-69718130D01*
X118636905Y-69920219D01*
X118670017Y-69985204D01*
X118682914Y-70053873D01*
X118656638Y-70118614D01*
X118599532Y-70158872D01*
X118559533Y-70165500D01*
X113107500Y-70165500D01*
X113040461Y-70145815D01*
X112994706Y-70093011D01*
X112983500Y-70041500D01*
X112983499Y-68779519D01*
X113003184Y-68712480D01*
X113019818Y-68691838D01*
X113537838Y-68173819D01*
X113599161Y-68140334D01*
X113625519Y-68137500D01*
X119003884Y-68137500D01*
X119070923Y-68157185D01*
G37*
%TD.AperFunction*%
%TA.AperFunction,Conductor*%
G36*
X121556232Y-68157185D02*
G01*
X121601987Y-68209989D01*
X121611931Y-68279147D01*
X121582906Y-68342703D01*
X121562078Y-68361819D01*
X121548207Y-68371896D01*
X121397890Y-68522213D01*
X121272949Y-68694182D01*
X121268202Y-68703499D01*
X121220227Y-68754293D01*
X121152405Y-68771087D01*
X121086271Y-68748548D01*
X121047234Y-68703495D01*
X121042626Y-68694452D01*
X121003270Y-68640282D01*
X121003269Y-68640282D01*
X120370962Y-69272589D01*
X120353925Y-69209007D01*
X120288099Y-69094993D01*
X120195007Y-69001901D01*
X120080993Y-68936075D01*
X120017409Y-68919037D01*
X120649716Y-68286728D01*
X120648497Y-68271229D01*
X120662861Y-68202852D01*
X120711912Y-68153095D01*
X120772115Y-68137500D01*
X121489193Y-68137500D01*
X121556232Y-68157185D01*
G37*
%TD.AperFunction*%
%TD*%
%TA.AperFunction,Conductor*%
%TO.N,GNDA*%
G36*
X156867368Y-51019685D02*
G01*
X156913123Y-51072489D01*
X156923067Y-51141647D01*
X156894042Y-51205203D01*
X156862333Y-51231383D01*
X156830521Y-51249751D01*
X156830518Y-51249752D01*
X156830513Y-51249756D01*
X156612073Y-51417370D01*
X156612066Y-51417376D01*
X156417376Y-51612066D01*
X156417370Y-51612073D01*
X156249754Y-51830516D01*
X156112080Y-52068971D01*
X156112075Y-52068982D01*
X156006704Y-52323369D01*
X155980777Y-52420133D01*
X155936009Y-52587213D01*
X155935441Y-52589331D01*
X155935438Y-52589344D01*
X155899501Y-52862315D01*
X155899500Y-52862332D01*
X155899500Y-53137667D01*
X155899501Y-53137684D01*
X155935438Y-53410655D01*
X155935439Y-53410660D01*
X155935440Y-53410666D01*
X155971072Y-53543649D01*
X156006704Y-53676630D01*
X156112075Y-53931017D01*
X156112080Y-53931028D01*
X156178479Y-54046033D01*
X156249751Y-54169479D01*
X156249753Y-54169482D01*
X156249754Y-54169483D01*
X156417370Y-54387926D01*
X156417376Y-54387933D01*
X156612066Y-54582623D01*
X156612073Y-54582629D01*
X156634446Y-54599796D01*
X156830521Y-54750249D01*
X156947003Y-54817500D01*
X157068971Y-54887919D01*
X157068976Y-54887921D01*
X157068979Y-54887923D01*
X157323368Y-54993295D01*
X157589334Y-55064560D01*
X157862326Y-55100500D01*
X157862333Y-55100500D01*
X158137667Y-55100500D01*
X158137674Y-55100500D01*
X158410666Y-55064560D01*
X158676632Y-54993295D01*
X158931021Y-54887923D01*
X159169479Y-54750249D01*
X159387928Y-54582628D01*
X159582628Y-54387928D01*
X159750249Y-54169479D01*
X159887923Y-53931021D01*
X159993295Y-53676632D01*
X160064560Y-53410666D01*
X160071136Y-53360713D01*
X164897500Y-53360713D01*
X164897500Y-53573286D01*
X164919797Y-53714068D01*
X164930754Y-53783243D01*
X164993554Y-53976522D01*
X164996444Y-53985414D01*
X165092951Y-54174820D01*
X165217890Y-54346786D01*
X165368213Y-54497109D01*
X165540179Y-54622048D01*
X165540181Y-54622049D01*
X165540184Y-54622051D01*
X165729588Y-54718557D01*
X165931757Y-54784246D01*
X166141713Y-54817500D01*
X166141714Y-54817500D01*
X166354286Y-54817500D01*
X166354287Y-54817500D01*
X166564243Y-54784246D01*
X166766412Y-54718557D01*
X166955816Y-54622051D01*
X167013141Y-54580402D01*
X167127784Y-54497110D01*
X167127784Y-54497109D01*
X167127792Y-54497104D01*
X167241329Y-54383566D01*
X167302648Y-54350084D01*
X167372340Y-54355068D01*
X167428274Y-54396939D01*
X167445189Y-54427917D01*
X167494202Y-54559328D01*
X167494206Y-54559335D01*
X167580452Y-54674544D01*
X167580455Y-54674547D01*
X167695664Y-54760793D01*
X167695671Y-54760797D01*
X167830517Y-54811091D01*
X167830516Y-54811091D01*
X167837444Y-54811835D01*
X167890127Y-54817500D01*
X169685872Y-54817499D01*
X169745483Y-54811091D01*
X169880331Y-54760796D01*
X169995546Y-54674546D01*
X170081796Y-54559331D01*
X170132091Y-54424483D01*
X170138500Y-54364873D01*
X170138499Y-53360713D01*
X173787500Y-53360713D01*
X173787500Y-53573286D01*
X173809797Y-53714068D01*
X173820754Y-53783243D01*
X173883554Y-53976522D01*
X173886444Y-53985414D01*
X173982951Y-54174820D01*
X174107890Y-54346786D01*
X174258213Y-54497109D01*
X174430179Y-54622048D01*
X174430181Y-54622049D01*
X174430184Y-54622051D01*
X174619588Y-54718557D01*
X174821757Y-54784246D01*
X175031713Y-54817500D01*
X175031714Y-54817500D01*
X175244286Y-54817500D01*
X175244287Y-54817500D01*
X175454243Y-54784246D01*
X175656412Y-54718557D01*
X175845816Y-54622051D01*
X175903141Y-54580402D01*
X176017784Y-54497110D01*
X176017784Y-54497109D01*
X176017792Y-54497104D01*
X176131329Y-54383566D01*
X176192648Y-54350084D01*
X176262340Y-54355068D01*
X176318274Y-54396939D01*
X176335189Y-54427917D01*
X176384202Y-54559328D01*
X176384206Y-54559335D01*
X176470452Y-54674544D01*
X176470455Y-54674547D01*
X176585664Y-54760793D01*
X176585671Y-54760797D01*
X176720517Y-54811091D01*
X176720516Y-54811091D01*
X176727444Y-54811835D01*
X176780127Y-54817500D01*
X178575872Y-54817499D01*
X178635483Y-54811091D01*
X178770331Y-54760796D01*
X178885546Y-54674546D01*
X178971796Y-54559331D01*
X179022091Y-54424483D01*
X179028500Y-54364873D01*
X179028499Y-52569128D01*
X179022091Y-52509517D01*
X179020810Y-52506083D01*
X178971797Y-52374671D01*
X178971793Y-52374664D01*
X178885547Y-52259455D01*
X178885544Y-52259452D01*
X178770335Y-52173206D01*
X178770328Y-52173202D01*
X178635482Y-52122908D01*
X178635483Y-52122908D01*
X178575883Y-52116501D01*
X178575881Y-52116500D01*
X178575873Y-52116500D01*
X178575864Y-52116500D01*
X176780129Y-52116500D01*
X176780123Y-52116501D01*
X176720516Y-52122908D01*
X176585671Y-52173202D01*
X176585664Y-52173206D01*
X176470455Y-52259452D01*
X176470452Y-52259455D01*
X176384206Y-52374664D01*
X176384203Y-52374669D01*
X176335189Y-52506083D01*
X176293317Y-52562016D01*
X176227853Y-52586433D01*
X176159580Y-52571581D01*
X176131326Y-52550430D01*
X176017786Y-52436890D01*
X175845820Y-52311951D01*
X175656414Y-52215444D01*
X175656413Y-52215443D01*
X175656412Y-52215443D01*
X175454243Y-52149754D01*
X175454241Y-52149753D01*
X175454240Y-52149753D01*
X175292957Y-52124208D01*
X175244287Y-52116500D01*
X175031713Y-52116500D01*
X174983042Y-52124208D01*
X174821760Y-52149753D01*
X174619585Y-52215444D01*
X174430179Y-52311951D01*
X174258213Y-52436890D01*
X174107890Y-52587213D01*
X173982951Y-52759179D01*
X173886444Y-52948585D01*
X173820753Y-53150760D01*
X173787500Y-53360713D01*
X170138499Y-53360713D01*
X170138499Y-52569128D01*
X170132091Y-52509517D01*
X170130810Y-52506083D01*
X170081797Y-52374671D01*
X170081793Y-52374664D01*
X169995547Y-52259455D01*
X169995544Y-52259452D01*
X169880335Y-52173206D01*
X169880328Y-52173202D01*
X169745482Y-52122908D01*
X169745483Y-52122908D01*
X169685883Y-52116501D01*
X169685881Y-52116500D01*
X169685873Y-52116500D01*
X169685864Y-52116500D01*
X167890129Y-52116500D01*
X167890123Y-52116501D01*
X167830516Y-52122908D01*
X167695671Y-52173202D01*
X167695664Y-52173206D01*
X167580455Y-52259452D01*
X167580452Y-52259455D01*
X167494206Y-52374664D01*
X167494203Y-52374669D01*
X167445189Y-52506083D01*
X167403317Y-52562016D01*
X167337853Y-52586433D01*
X167269580Y-52571581D01*
X167241326Y-52550430D01*
X167127786Y-52436890D01*
X166955820Y-52311951D01*
X166766414Y-52215444D01*
X166766413Y-52215443D01*
X166766412Y-52215443D01*
X166564243Y-52149754D01*
X166564241Y-52149753D01*
X166564240Y-52149753D01*
X166402957Y-52124208D01*
X166354287Y-52116500D01*
X166141713Y-52116500D01*
X166093042Y-52124208D01*
X165931760Y-52149753D01*
X165729585Y-52215444D01*
X165540179Y-52311951D01*
X165368213Y-52436890D01*
X165217890Y-52587213D01*
X165092951Y-52759179D01*
X164996444Y-52948585D01*
X164930753Y-53150760D01*
X164897500Y-53360713D01*
X160071136Y-53360713D01*
X160100500Y-53137674D01*
X160100500Y-52862326D01*
X160064560Y-52589334D01*
X159993295Y-52323368D01*
X159887923Y-52068979D01*
X159887921Y-52068976D01*
X159887919Y-52068971D01*
X159816969Y-51946084D01*
X159750249Y-51830521D01*
X159627813Y-51670958D01*
X159582629Y-51612073D01*
X159582623Y-51612066D01*
X159387933Y-51417376D01*
X159387926Y-51417370D01*
X159169486Y-51249756D01*
X159169484Y-51249754D01*
X159169479Y-51249751D01*
X159137667Y-51231384D01*
X159089455Y-51180819D01*
X159076233Y-51112212D01*
X159102201Y-51047348D01*
X159159115Y-51006820D01*
X159199671Y-51000000D01*
X203876000Y-51000000D01*
X203943039Y-51019685D01*
X203988794Y-51072489D01*
X204000000Y-51124000D01*
X204000000Y-60998145D01*
X203980315Y-61065184D01*
X203927511Y-61110939D01*
X203858353Y-61120883D01*
X203794797Y-61091858D01*
X203758070Y-61036465D01*
X203754600Y-61025786D01*
X203754598Y-61025783D01*
X203754598Y-61025781D01*
X203699789Y-60918213D01*
X203672279Y-60864221D01*
X203565696Y-60717523D01*
X203437477Y-60589304D01*
X203290779Y-60482721D01*
X203129214Y-60400400D01*
X202956761Y-60344366D01*
X202956759Y-60344365D01*
X202956757Y-60344365D01*
X202777669Y-60316000D01*
X202777664Y-60316000D01*
X202596336Y-60316000D01*
X202596331Y-60316000D01*
X202417242Y-60344365D01*
X202244783Y-60400401D01*
X202083220Y-60482721D01*
X201999523Y-60543531D01*
X201936523Y-60589304D01*
X201936521Y-60589306D01*
X201936520Y-60589306D01*
X201808306Y-60717520D01*
X201808306Y-60717521D01*
X201808304Y-60717523D01*
X201782809Y-60752614D01*
X201701721Y-60864220D01*
X201619401Y-61025783D01*
X201563365Y-61198242D01*
X201539473Y-61349089D01*
X201509544Y-61412224D01*
X201450232Y-61449155D01*
X201380369Y-61448157D01*
X201322137Y-61409547D01*
X201294527Y-61349089D01*
X201277469Y-61241394D01*
X201270634Y-61198239D01*
X201214600Y-61025786D01*
X201132279Y-60864221D01*
X201025696Y-60717523D01*
X200897477Y-60589304D01*
X200750779Y-60482721D01*
X200589214Y-60400400D01*
X200416761Y-60344366D01*
X200416759Y-60344365D01*
X200416757Y-60344365D01*
X200237669Y-60316000D01*
X200237664Y-60316000D01*
X200056336Y-60316000D01*
X200056331Y-60316000D01*
X199877242Y-60344365D01*
X199704783Y-60400401D01*
X199543220Y-60482721D01*
X199459523Y-60543531D01*
X199396523Y-60589304D01*
X199396521Y-60589306D01*
X199396520Y-60589306D01*
X199268306Y-60717520D01*
X199268306Y-60717521D01*
X199268304Y-60717523D01*
X199242809Y-60752614D01*
X199161721Y-60864220D01*
X199079401Y-61025783D01*
X199023365Y-61198241D01*
X198999219Y-61350688D01*
X198969289Y-61413822D01*
X198909977Y-61450753D01*
X198840115Y-61449755D01*
X198781882Y-61411144D01*
X198754273Y-61350686D01*
X198730147Y-61198360D01*
X198730147Y-61198359D01*
X198674135Y-61025974D01*
X198591848Y-60864478D01*
X198580161Y-60848392D01*
X198580160Y-60848391D01*
X197987000Y-61441553D01*
X197987000Y-61417972D01*
X197961104Y-61321325D01*
X197911076Y-61234675D01*
X197840325Y-61163924D01*
X197753675Y-61113896D01*
X197657028Y-61088000D01*
X197633447Y-61088000D01*
X198226606Y-60494838D01*
X198226606Y-60494837D01*
X198210520Y-60483150D01*
X198049025Y-60400864D01*
X197876640Y-60344852D01*
X197876641Y-60344852D01*
X197697629Y-60316500D01*
X197516371Y-60316500D01*
X197337359Y-60344852D01*
X197164974Y-60400864D01*
X197003484Y-60483147D01*
X196987392Y-60494837D01*
X196987392Y-60494838D01*
X197580554Y-61088000D01*
X197556972Y-61088000D01*
X197460325Y-61113896D01*
X197373675Y-61163924D01*
X197302924Y-61234675D01*
X197252896Y-61321325D01*
X197227000Y-61417972D01*
X197227000Y-61441554D01*
X196633838Y-60848392D01*
X196633837Y-60848392D01*
X196622147Y-60864484D01*
X196539864Y-61025974D01*
X196483852Y-61198359D01*
X196459726Y-61350687D01*
X196429797Y-61413822D01*
X196370485Y-61450753D01*
X196300623Y-61449755D01*
X196242390Y-61411145D01*
X196214780Y-61350687D01*
X196197469Y-61241394D01*
X196190634Y-61198239D01*
X196134600Y-61025786D01*
X196052279Y-60864221D01*
X195945696Y-60717523D01*
X195817477Y-60589304D01*
X195670779Y-60482721D01*
X195509214Y-60400400D01*
X195336761Y-60344366D01*
X195336759Y-60344365D01*
X195336757Y-60344365D01*
X195157669Y-60316000D01*
X195157664Y-60316000D01*
X194976336Y-60316000D01*
X194976331Y-60316000D01*
X194797242Y-60344365D01*
X194624783Y-60400401D01*
X194463220Y-60482721D01*
X194379523Y-60543531D01*
X194316523Y-60589304D01*
X194316521Y-60589306D01*
X194316520Y-60589306D01*
X194188306Y-60717520D01*
X194188306Y-60717521D01*
X194188304Y-60717523D01*
X194162809Y-60752614D01*
X194081721Y-60864220D01*
X193999401Y-61025783D01*
X193943365Y-61198242D01*
X193915000Y-61377330D01*
X193915000Y-61558669D01*
X193943365Y-61737757D01*
X193943366Y-61737761D01*
X193999400Y-61910214D01*
X194081721Y-62071779D01*
X194188304Y-62218477D01*
X194316523Y-62346696D01*
X194463221Y-62453279D01*
X194624786Y-62535600D01*
X194797239Y-62591634D01*
X194864400Y-62602271D01*
X194976331Y-62620000D01*
X194976336Y-62620000D01*
X195157669Y-62620000D01*
X195257162Y-62604241D01*
X195336761Y-62591634D01*
X195509214Y-62535600D01*
X195670779Y-62453279D01*
X195817477Y-62346696D01*
X195945696Y-62218477D01*
X196052279Y-62071779D01*
X196134600Y-61910214D01*
X196190634Y-61737761D01*
X196206382Y-61638334D01*
X196214780Y-61585312D01*
X196244709Y-61522177D01*
X196304021Y-61485246D01*
X196373883Y-61486244D01*
X196432116Y-61524854D01*
X196459726Y-61585312D01*
X196483852Y-61737640D01*
X196539864Y-61910025D01*
X196622150Y-62071520D01*
X196633837Y-62087606D01*
X196633838Y-62087606D01*
X197227000Y-61494445D01*
X197227000Y-61518028D01*
X197252896Y-61614675D01*
X197302924Y-61701325D01*
X197373675Y-61772076D01*
X197460325Y-61822104D01*
X197556972Y-61848000D01*
X197580553Y-61848000D01*
X196987391Y-62441160D01*
X196987392Y-62441161D01*
X197003478Y-62452848D01*
X197164974Y-62535135D01*
X197337359Y-62591147D01*
X197337358Y-62591147D01*
X197516371Y-62619500D01*
X197702497Y-62619500D01*
X197702497Y-62620992D01*
X197764378Y-62633988D01*
X197814137Y-62683037D01*
X197829479Y-62751202D01*
X197805534Y-62816840D01*
X197793416Y-62830926D01*
X197520162Y-63104181D01*
X197458839Y-63137666D01*
X197432481Y-63140500D01*
X188827301Y-63140500D01*
X188760262Y-63120815D01*
X188714507Y-63068011D01*
X188709595Y-63055504D01*
X188681814Y-62971666D01*
X188589712Y-62822344D01*
X188465656Y-62698288D01*
X188371793Y-62640393D01*
X188316336Y-62606187D01*
X188316335Y-62606186D01*
X188316334Y-62606186D01*
X188254558Y-62585715D01*
X188197115Y-62545943D01*
X188170292Y-62481427D01*
X188169946Y-62458280D01*
X188172921Y-62420473D01*
X187493447Y-61741000D01*
X187499661Y-61741000D01*
X187601394Y-61713741D01*
X187692606Y-61661080D01*
X187767080Y-61586606D01*
X187819741Y-61495394D01*
X187847000Y-61393661D01*
X187847000Y-61387447D01*
X188526474Y-62066921D01*
X188558859Y-62022349D01*
X188651755Y-61840031D01*
X188714990Y-61645417D01*
X188747000Y-61443317D01*
X188747000Y-61238682D01*
X188714990Y-61036582D01*
X188651755Y-60841968D01*
X188558859Y-60659650D01*
X188526474Y-60615077D01*
X188526474Y-60615076D01*
X187847000Y-61294551D01*
X187847000Y-61288339D01*
X187819741Y-61186606D01*
X187767080Y-61095394D01*
X187692606Y-61020920D01*
X187601394Y-60968259D01*
X187499661Y-60941000D01*
X187493446Y-60941000D01*
X188172922Y-60261524D01*
X188172921Y-60261523D01*
X188128359Y-60229147D01*
X188128350Y-60229141D01*
X187946031Y-60136244D01*
X187751417Y-60073009D01*
X187549317Y-60041000D01*
X187344683Y-60041000D01*
X187142582Y-60073009D01*
X186947968Y-60136244D01*
X186765644Y-60229143D01*
X186721077Y-60261523D01*
X186721077Y-60261524D01*
X187400554Y-60941000D01*
X187394339Y-60941000D01*
X187292606Y-60968259D01*
X187201394Y-61020920D01*
X187126920Y-61095394D01*
X187074259Y-61186606D01*
X187047000Y-61288339D01*
X187047000Y-61294553D01*
X186367524Y-60615077D01*
X186367523Y-60615077D01*
X186335143Y-60659644D01*
X186242244Y-60841968D01*
X186179009Y-61036582D01*
X186147000Y-61238682D01*
X186147000Y-61443317D01*
X186179009Y-61645417D01*
X186242244Y-61840031D01*
X186335141Y-62022350D01*
X186335147Y-62022359D01*
X186367523Y-62066921D01*
X186367524Y-62066922D01*
X187047000Y-61387446D01*
X187047000Y-61393661D01*
X187074259Y-61495394D01*
X187126920Y-61586606D01*
X187201394Y-61661080D01*
X187292606Y-61713741D01*
X187394339Y-61741000D01*
X187400553Y-61741000D01*
X186721076Y-62420474D01*
X186724052Y-62458282D01*
X186709687Y-62526659D01*
X186660636Y-62576415D01*
X186639440Y-62585715D01*
X186577672Y-62606184D01*
X186577663Y-62606187D01*
X186428342Y-62698289D01*
X186304289Y-62822342D01*
X186212187Y-62971663D01*
X186212186Y-62971666D01*
X186157001Y-63138203D01*
X186157001Y-63138204D01*
X186157000Y-63138204D01*
X186146500Y-63240983D01*
X186146500Y-64441001D01*
X186146501Y-64441018D01*
X186157000Y-64543796D01*
X186157001Y-64543799D01*
X186185553Y-64629961D01*
X186212186Y-64710334D01*
X186304288Y-64859656D01*
X186428344Y-64983712D01*
X186577666Y-65075814D01*
X186744203Y-65130999D01*
X186846991Y-65141500D01*
X188047008Y-65141499D01*
X188149797Y-65130999D01*
X188316334Y-65075814D01*
X188465656Y-64983712D01*
X188589712Y-64859656D01*
X188681814Y-64710334D01*
X188709595Y-64626495D01*
X188749368Y-64569051D01*
X188813884Y-64542228D01*
X188827301Y-64541500D01*
X197842996Y-64541500D01*
X197934040Y-64523389D01*
X197978328Y-64514580D01*
X198092917Y-64467116D01*
X198105807Y-64461777D01*
X198105808Y-64461776D01*
X198105811Y-64461775D01*
X198220543Y-64385114D01*
X199950646Y-62655009D01*
X200011967Y-62621526D01*
X200051423Y-62620401D01*
X200051485Y-62619618D01*
X200056336Y-62620000D01*
X200237669Y-62620000D01*
X200337162Y-62604241D01*
X200416761Y-62591634D01*
X200589214Y-62535600D01*
X200750779Y-62453279D01*
X200897477Y-62346696D01*
X201025696Y-62218477D01*
X201132279Y-62071779D01*
X201214600Y-61910214D01*
X201270634Y-61737761D01*
X201286382Y-61638334D01*
X201294527Y-61586910D01*
X201324456Y-61523775D01*
X201383768Y-61486844D01*
X201453631Y-61487842D01*
X201511863Y-61526452D01*
X201539473Y-61586910D01*
X201563365Y-61737757D01*
X201563366Y-61737761D01*
X201619400Y-61910214D01*
X201701721Y-62071779D01*
X201808304Y-62218477D01*
X201936523Y-62346696D01*
X202083221Y-62453279D01*
X202244786Y-62535600D01*
X202417239Y-62591634D01*
X202484400Y-62602271D01*
X202596331Y-62620000D01*
X202596336Y-62620000D01*
X202777669Y-62620000D01*
X202877162Y-62604241D01*
X202956761Y-62591634D01*
X203129214Y-62535600D01*
X203290779Y-62453279D01*
X203437477Y-62346696D01*
X203565696Y-62218477D01*
X203672279Y-62071779D01*
X203754600Y-61910214D01*
X203758069Y-61899536D01*
X203797505Y-61841861D01*
X203861864Y-61814662D01*
X203930710Y-61826576D01*
X203982187Y-61873820D01*
X204000000Y-61937854D01*
X204000000Y-65876000D01*
X203980315Y-65943039D01*
X203927511Y-65988794D01*
X203876000Y-66000000D01*
X191999999Y-66000000D01*
X184036319Y-73963681D01*
X183974996Y-73997166D01*
X183948638Y-74000000D01*
X144051362Y-74000000D01*
X143984323Y-73980315D01*
X143963681Y-73963681D01*
X143036319Y-73036319D01*
X143002834Y-72974996D01*
X143000000Y-72948638D01*
X143000000Y-69489753D01*
X146121000Y-69489753D01*
X146121000Y-69702246D01*
X146154242Y-69912127D01*
X146154242Y-69912130D01*
X146219904Y-70114217D01*
X146316375Y-70303550D01*
X146355728Y-70357716D01*
X146988037Y-69725408D01*
X147005075Y-69788993D01*
X147070901Y-69903007D01*
X147163993Y-69996099D01*
X147278007Y-70061925D01*
X147341590Y-70078962D01*
X146709282Y-70711269D01*
X146709282Y-70711270D01*
X146763449Y-70750624D01*
X146952782Y-70847095D01*
X147154870Y-70912757D01*
X147364754Y-70946000D01*
X147577246Y-70946000D01*
X147787127Y-70912757D01*
X147787130Y-70912757D01*
X147989217Y-70847095D01*
X148178554Y-70750622D01*
X148232716Y-70711270D01*
X148232717Y-70711270D01*
X147600408Y-70078962D01*
X147663993Y-70061925D01*
X147778007Y-69996099D01*
X147871099Y-69903007D01*
X147936925Y-69788993D01*
X147953962Y-69725408D01*
X148624181Y-70395628D01*
X148657666Y-70456951D01*
X148660500Y-70483300D01*
X148660500Y-70493865D01*
X148660501Y-70493876D01*
X148666908Y-70553483D01*
X148717202Y-70688328D01*
X148717206Y-70688335D01*
X148803452Y-70803544D01*
X148803455Y-70803547D01*
X148918664Y-70889793D01*
X148918671Y-70889797D01*
X149053517Y-70940091D01*
X149053516Y-70940091D01*
X149060444Y-70940835D01*
X149113127Y-70946500D01*
X150908872Y-70946499D01*
X150968483Y-70940091D01*
X150983522Y-70934482D01*
X150998679Y-70928829D01*
X151103328Y-70889797D01*
X151103327Y-70889797D01*
X151103331Y-70889796D01*
X151218546Y-70803546D01*
X151304796Y-70688331D01*
X151355091Y-70553483D01*
X151361500Y-70493873D01*
X151361499Y-69870753D01*
X164639000Y-69870753D01*
X164639000Y-70083246D01*
X164672242Y-70293127D01*
X164672242Y-70293130D01*
X164737904Y-70495217D01*
X164834375Y-70684550D01*
X164873728Y-70738716D01*
X165506037Y-70106408D01*
X165523075Y-70169993D01*
X165588901Y-70284007D01*
X165681993Y-70377099D01*
X165796007Y-70442925D01*
X165859590Y-70459962D01*
X165227282Y-71092269D01*
X165227282Y-71092270D01*
X165281449Y-71131624D01*
X165470782Y-71228095D01*
X165672870Y-71293757D01*
X165882754Y-71327000D01*
X166095246Y-71327000D01*
X166305127Y-71293757D01*
X166305130Y-71293757D01*
X166507217Y-71228095D01*
X166696554Y-71131622D01*
X166750716Y-71092270D01*
X166750717Y-71092270D01*
X166118408Y-70459962D01*
X166181993Y-70442925D01*
X166296007Y-70377099D01*
X166389099Y-70284007D01*
X166454925Y-70169993D01*
X166471962Y-70106408D01*
X167104270Y-70738717D01*
X167104270Y-70738716D01*
X167143622Y-70684555D01*
X167148232Y-70675507D01*
X167196205Y-70624709D01*
X167264025Y-70607912D01*
X167330161Y-70630447D01*
X167369204Y-70675504D01*
X167373949Y-70684817D01*
X167498890Y-70856786D01*
X167649213Y-71007109D01*
X167821179Y-71132048D01*
X167821181Y-71132049D01*
X167821184Y-71132051D01*
X168010588Y-71228557D01*
X168212757Y-71294246D01*
X168422713Y-71327500D01*
X168422714Y-71327500D01*
X168635286Y-71327500D01*
X168635287Y-71327500D01*
X168845243Y-71294246D01*
X169047412Y-71228557D01*
X169236816Y-71132051D01*
X169323138Y-71069335D01*
X169408786Y-71007109D01*
X169408788Y-71007106D01*
X169408792Y-71007104D01*
X169559104Y-70856792D01*
X169559106Y-70856788D01*
X169559109Y-70856786D01*
X169684048Y-70684820D01*
X169684050Y-70684817D01*
X169684051Y-70684816D01*
X169688514Y-70676054D01*
X169736488Y-70625259D01*
X169804308Y-70608463D01*
X169870444Y-70630999D01*
X169909486Y-70676056D01*
X169913951Y-70684820D01*
X170038890Y-70856786D01*
X170189213Y-71007109D01*
X170361179Y-71132048D01*
X170361181Y-71132049D01*
X170361184Y-71132051D01*
X170550588Y-71228557D01*
X170752757Y-71294246D01*
X170962713Y-71327500D01*
X170962714Y-71327500D01*
X171175286Y-71327500D01*
X171175287Y-71327500D01*
X171385243Y-71294246D01*
X171587412Y-71228557D01*
X171776816Y-71132051D01*
X171863138Y-71069335D01*
X171948786Y-71007109D01*
X171948788Y-71007106D01*
X171948792Y-71007104D01*
X172099104Y-70856792D01*
X172099106Y-70856788D01*
X172099109Y-70856786D01*
X172224048Y-70684820D01*
X172224050Y-70684817D01*
X172224051Y-70684816D01*
X172228514Y-70676054D01*
X172276488Y-70625259D01*
X172344308Y-70608463D01*
X172410444Y-70630999D01*
X172449486Y-70676056D01*
X172453951Y-70684820D01*
X172578890Y-70856786D01*
X172729213Y-71007109D01*
X172901179Y-71132048D01*
X172901181Y-71132049D01*
X172901184Y-71132051D01*
X173090588Y-71228557D01*
X173292757Y-71294246D01*
X173502713Y-71327500D01*
X173502714Y-71327500D01*
X173715286Y-71327500D01*
X173715287Y-71327500D01*
X173925243Y-71294246D01*
X174127412Y-71228557D01*
X174316816Y-71132051D01*
X174403138Y-71069335D01*
X174488786Y-71007109D01*
X174488788Y-71007106D01*
X174488792Y-71007104D01*
X174639104Y-70856792D01*
X174639106Y-70856788D01*
X174639109Y-70856786D01*
X174764048Y-70684820D01*
X174764050Y-70684817D01*
X174764051Y-70684816D01*
X174768514Y-70676054D01*
X174816488Y-70625259D01*
X174884308Y-70608463D01*
X174950444Y-70630999D01*
X174989486Y-70676056D01*
X174993951Y-70684820D01*
X175118890Y-70856786D01*
X175269213Y-71007109D01*
X175441179Y-71132048D01*
X175441181Y-71132049D01*
X175441184Y-71132051D01*
X175630588Y-71228557D01*
X175832757Y-71294246D01*
X176042713Y-71327500D01*
X176042714Y-71327500D01*
X176255286Y-71327500D01*
X176255287Y-71327500D01*
X176465243Y-71294246D01*
X176667412Y-71228557D01*
X176856816Y-71132051D01*
X177028792Y-71007104D01*
X177142329Y-70893566D01*
X177203648Y-70860084D01*
X177273340Y-70865068D01*
X177329274Y-70906939D01*
X177346189Y-70937917D01*
X177395202Y-71069328D01*
X177395206Y-71069335D01*
X177481452Y-71184544D01*
X177481455Y-71184547D01*
X177596664Y-71270793D01*
X177596671Y-71270797D01*
X177731517Y-71321091D01*
X177731516Y-71321091D01*
X177736465Y-71321623D01*
X177791127Y-71327500D01*
X179586872Y-71327499D01*
X179646483Y-71321091D01*
X179781331Y-71270796D01*
X179896546Y-71184546D01*
X179982796Y-71069331D01*
X180033091Y-70934483D01*
X180039500Y-70874873D01*
X180039499Y-69079128D01*
X180033091Y-69019517D01*
X180031810Y-69016083D01*
X179982797Y-68884671D01*
X179982793Y-68884664D01*
X179896547Y-68769455D01*
X179896544Y-68769452D01*
X179781335Y-68683206D01*
X179781328Y-68683202D01*
X179646482Y-68632908D01*
X179646483Y-68632908D01*
X179586883Y-68626501D01*
X179586881Y-68626500D01*
X179586873Y-68626500D01*
X179586864Y-68626500D01*
X177791129Y-68626500D01*
X177791123Y-68626501D01*
X177731516Y-68632908D01*
X177596671Y-68683202D01*
X177596664Y-68683206D01*
X177481455Y-68769452D01*
X177481452Y-68769455D01*
X177395206Y-68884664D01*
X177395203Y-68884669D01*
X177346189Y-69016083D01*
X177304317Y-69072016D01*
X177238853Y-69096433D01*
X177170580Y-69081581D01*
X177142326Y-69060430D01*
X177028786Y-68946890D01*
X176856820Y-68821951D01*
X176667414Y-68725444D01*
X176667413Y-68725443D01*
X176667412Y-68725443D01*
X176465243Y-68659754D01*
X176465241Y-68659753D01*
X176465240Y-68659753D01*
X176303957Y-68634208D01*
X176255287Y-68626500D01*
X176042713Y-68626500D01*
X175994042Y-68634208D01*
X175832760Y-68659753D01*
X175731672Y-68692598D01*
X175662347Y-68715124D01*
X175630585Y-68725444D01*
X175441179Y-68821951D01*
X175269213Y-68946890D01*
X175118890Y-69097213D01*
X174993949Y-69269182D01*
X174989484Y-69277946D01*
X174941509Y-69328742D01*
X174873688Y-69345536D01*
X174807553Y-69322998D01*
X174768516Y-69277946D01*
X174764050Y-69269182D01*
X174639109Y-69097213D01*
X174488786Y-68946890D01*
X174316820Y-68821951D01*
X174127414Y-68725444D01*
X174127413Y-68725443D01*
X174127412Y-68725443D01*
X173925243Y-68659754D01*
X173925241Y-68659753D01*
X173925240Y-68659753D01*
X173763957Y-68634208D01*
X173715287Y-68626500D01*
X173502713Y-68626500D01*
X173454042Y-68634208D01*
X173292760Y-68659753D01*
X173191672Y-68692598D01*
X173122347Y-68715124D01*
X173090585Y-68725444D01*
X172901179Y-68821951D01*
X172729213Y-68946890D01*
X172578890Y-69097213D01*
X172453949Y-69269182D01*
X172449484Y-69277946D01*
X172401509Y-69328742D01*
X172333688Y-69345536D01*
X172267553Y-69322998D01*
X172228516Y-69277946D01*
X172224050Y-69269182D01*
X172099109Y-69097213D01*
X171948786Y-68946890D01*
X171776820Y-68821951D01*
X171587414Y-68725444D01*
X171587413Y-68725443D01*
X171587412Y-68725443D01*
X171385243Y-68659754D01*
X171385241Y-68659753D01*
X171385240Y-68659753D01*
X171223957Y-68634208D01*
X171175287Y-68626500D01*
X170962713Y-68626500D01*
X170914042Y-68634208D01*
X170752760Y-68659753D01*
X170651672Y-68692598D01*
X170582347Y-68715124D01*
X170550585Y-68725444D01*
X170361179Y-68821951D01*
X170189213Y-68946890D01*
X170038890Y-69097213D01*
X169913949Y-69269182D01*
X169909484Y-69277946D01*
X169861509Y-69328742D01*
X169793688Y-69345536D01*
X169727553Y-69322998D01*
X169688516Y-69277946D01*
X169684050Y-69269182D01*
X169559109Y-69097213D01*
X169408786Y-68946890D01*
X169236820Y-68821951D01*
X169047414Y-68725444D01*
X169047413Y-68725443D01*
X169047412Y-68725443D01*
X168845243Y-68659754D01*
X168845241Y-68659753D01*
X168845240Y-68659753D01*
X168683957Y-68634208D01*
X168635287Y-68626500D01*
X168422713Y-68626500D01*
X168374042Y-68634208D01*
X168212760Y-68659753D01*
X168111672Y-68692598D01*
X168042347Y-68715124D01*
X168010585Y-68725444D01*
X167821179Y-68821951D01*
X167649213Y-68946890D01*
X167498890Y-69097213D01*
X167373949Y-69269182D01*
X167369202Y-69278499D01*
X167321227Y-69329293D01*
X167253405Y-69346087D01*
X167187271Y-69323548D01*
X167148234Y-69278495D01*
X167143626Y-69269452D01*
X167104270Y-69215282D01*
X167104269Y-69215282D01*
X166471962Y-69847590D01*
X166454925Y-69784007D01*
X166389099Y-69669993D01*
X166296007Y-69576901D01*
X166181993Y-69511075D01*
X166118409Y-69494037D01*
X166750716Y-68861728D01*
X166696550Y-68822375D01*
X166507217Y-68725904D01*
X166305129Y-68660242D01*
X166095246Y-68627000D01*
X165882754Y-68627000D01*
X165672872Y-68660242D01*
X165672869Y-68660242D01*
X165470782Y-68725904D01*
X165281439Y-68822380D01*
X165227282Y-68861727D01*
X165227282Y-68861728D01*
X165859591Y-69494037D01*
X165796007Y-69511075D01*
X165681993Y-69576901D01*
X165588901Y-69669993D01*
X165523075Y-69784007D01*
X165506037Y-69847591D01*
X164873728Y-69215282D01*
X164873727Y-69215282D01*
X164834380Y-69269439D01*
X164737904Y-69458782D01*
X164672242Y-69660869D01*
X164672242Y-69660872D01*
X164639000Y-69870753D01*
X151361499Y-69870753D01*
X151361499Y-69596000D01*
X151361499Y-68908987D01*
X151361499Y-68698129D01*
X151361498Y-68698123D01*
X151361497Y-68698116D01*
X151355091Y-68638517D01*
X151352999Y-68632909D01*
X151304797Y-68503671D01*
X151304793Y-68503664D01*
X151218547Y-68388455D01*
X151218544Y-68388452D01*
X151103335Y-68302206D01*
X151103328Y-68302202D01*
X150968482Y-68251908D01*
X150968483Y-68251908D01*
X150908883Y-68245501D01*
X150908881Y-68245500D01*
X150908873Y-68245500D01*
X150908864Y-68245500D01*
X149113129Y-68245500D01*
X149113123Y-68245501D01*
X149053516Y-68251908D01*
X148918671Y-68302202D01*
X148918664Y-68302206D01*
X148803455Y-68388452D01*
X148803452Y-68388455D01*
X148717206Y-68503664D01*
X148717202Y-68503671D01*
X148666908Y-68638517D01*
X148662104Y-68683204D01*
X148660501Y-68698123D01*
X148660500Y-68698135D01*
X148660500Y-68708690D01*
X148640815Y-68775729D01*
X148624181Y-68796371D01*
X147953962Y-69466590D01*
X147936925Y-69403007D01*
X147871099Y-69288993D01*
X147778007Y-69195901D01*
X147663993Y-69130075D01*
X147600409Y-69113037D01*
X148232716Y-68480728D01*
X148178550Y-68441375D01*
X147989217Y-68344904D01*
X147787129Y-68279242D01*
X147577246Y-68246000D01*
X147364754Y-68246000D01*
X147154872Y-68279242D01*
X147154869Y-68279242D01*
X146952782Y-68344904D01*
X146763439Y-68441380D01*
X146709282Y-68480727D01*
X146709282Y-68480728D01*
X147341591Y-69113037D01*
X147278007Y-69130075D01*
X147163993Y-69195901D01*
X147070901Y-69288993D01*
X147005075Y-69403007D01*
X146988037Y-69466591D01*
X146355728Y-68834282D01*
X146355727Y-68834282D01*
X146316380Y-68888439D01*
X146219904Y-69077782D01*
X146154242Y-69279869D01*
X146154242Y-69279872D01*
X146121000Y-69489753D01*
X143000000Y-69489753D01*
X143000000Y-62160821D01*
X143899500Y-62160821D01*
X143899500Y-63639178D01*
X143902261Y-63679900D01*
X143911161Y-63715686D01*
X143946033Y-63855907D01*
X143946034Y-63855909D01*
X144026616Y-64018390D01*
X144136455Y-64155035D01*
X144140247Y-64159753D01*
X144281609Y-64273383D01*
X144444093Y-64353967D01*
X144620102Y-64397739D01*
X144660820Y-64400500D01*
X144660821Y-64400500D01*
X148339179Y-64400500D01*
X148339180Y-64400500D01*
X148379898Y-64397739D01*
X148555907Y-64353967D01*
X148718391Y-64273383D01*
X148859753Y-64159753D01*
X148973383Y-64018391D01*
X149053967Y-63855907D01*
X149097739Y-63679898D01*
X149100500Y-63639180D01*
X149100500Y-62986983D01*
X158592500Y-62986983D01*
X158592500Y-64187001D01*
X158592501Y-64187018D01*
X158603000Y-64289796D01*
X158603001Y-64289799D01*
X158658185Y-64456331D01*
X158658187Y-64456336D01*
X158678888Y-64489897D01*
X158750288Y-64605656D01*
X158874344Y-64729712D01*
X159023666Y-64821814D01*
X159190203Y-64876999D01*
X159292991Y-64887500D01*
X160493008Y-64887499D01*
X160595797Y-64876999D01*
X160762334Y-64821814D01*
X160911656Y-64729712D01*
X161035712Y-64605656D01*
X161127814Y-64456334D01*
X161182999Y-64289797D01*
X161193500Y-64187009D01*
X161193499Y-63397682D01*
X163292000Y-63397682D01*
X163292000Y-63602317D01*
X163324009Y-63804417D01*
X163387244Y-63999031D01*
X163480141Y-64181350D01*
X163480147Y-64181359D01*
X163512523Y-64225921D01*
X163512524Y-64225922D01*
X164192000Y-63546446D01*
X164192000Y-63552661D01*
X164219259Y-63654394D01*
X164271920Y-63745606D01*
X164346394Y-63820080D01*
X164437606Y-63872741D01*
X164539339Y-63900000D01*
X164545553Y-63900000D01*
X163866076Y-64579474D01*
X163910650Y-64611859D01*
X164092968Y-64704755D01*
X164287582Y-64767990D01*
X164489683Y-64800000D01*
X164694317Y-64800000D01*
X164896417Y-64767990D01*
X165091031Y-64704755D01*
X165273349Y-64611859D01*
X165317921Y-64579474D01*
X164638447Y-63900000D01*
X164644661Y-63900000D01*
X164746394Y-63872741D01*
X164837606Y-63820080D01*
X164912080Y-63745606D01*
X164964741Y-63654394D01*
X164992000Y-63552661D01*
X164992000Y-63546448D01*
X165671474Y-64225922D01*
X165671474Y-64225921D01*
X165703861Y-64181347D01*
X165703861Y-64181346D01*
X165751234Y-64088371D01*
X165799208Y-64037575D01*
X165867028Y-64020779D01*
X165933164Y-64043316D01*
X165972203Y-64088369D01*
X166019713Y-64181611D01*
X166140028Y-64347213D01*
X166284786Y-64491971D01*
X166429935Y-64597426D01*
X166450390Y-64612287D01*
X166566607Y-64671503D01*
X166632776Y-64705218D01*
X166632778Y-64705218D01*
X166632781Y-64705220D01*
X166708160Y-64729712D01*
X166827465Y-64768477D01*
X166928557Y-64784488D01*
X167029648Y-64800500D01*
X167029649Y-64800500D01*
X167234351Y-64800500D01*
X167234352Y-64800500D01*
X167436534Y-64768477D01*
X167631219Y-64705220D01*
X167813610Y-64612287D01*
X167948092Y-64514581D01*
X167979213Y-64491971D01*
X167979215Y-64491968D01*
X167979219Y-64491966D01*
X168123966Y-64347219D01*
X168123968Y-64347215D01*
X168123971Y-64347213D01*
X168199292Y-64243541D01*
X168244287Y-64181610D01*
X168337220Y-63999219D01*
X168400477Y-63804534D01*
X168432500Y-63602352D01*
X168432500Y-63397648D01*
X168414013Y-63280929D01*
X168422967Y-63211637D01*
X168448804Y-63173852D01*
X168501932Y-63120723D01*
X168563253Y-63087239D01*
X168632944Y-63092223D01*
X168688878Y-63134094D01*
X168713296Y-63199558D01*
X168708691Y-63242991D01*
X168707403Y-63247425D01*
X168707401Y-63247432D01*
X168704500Y-63284298D01*
X168704500Y-63715701D01*
X168707401Y-63752567D01*
X168707402Y-63752573D01*
X168753254Y-63910393D01*
X168753255Y-63910396D01*
X168836917Y-64051862D01*
X168836923Y-64051870D01*
X168953129Y-64168076D01*
X168953133Y-64168079D01*
X168953135Y-64168081D01*
X169094602Y-64251744D01*
X169136224Y-64263836D01*
X169252426Y-64297597D01*
X169252429Y-64297597D01*
X169252431Y-64297598D01*
X169289306Y-64300500D01*
X169355500Y-64300500D01*
X169422539Y-64320185D01*
X169468294Y-64372989D01*
X169479500Y-64424500D01*
X169479500Y-65590006D01*
X169479500Y-65727994D01*
X169479500Y-65727996D01*
X169479499Y-65727996D01*
X169506418Y-65863322D01*
X169506421Y-65863332D01*
X169559222Y-65990807D01*
X169635887Y-66105545D01*
X169635888Y-66105546D01*
X170209428Y-66679085D01*
X170236308Y-66719314D01*
X170296102Y-66863672D01*
X170296109Y-66863685D01*
X170383710Y-66994788D01*
X170383713Y-66994792D01*
X170495207Y-67106286D01*
X170495211Y-67106289D01*
X170626314Y-67193890D01*
X170626327Y-67193897D01*
X170771998Y-67254235D01*
X170772003Y-67254237D01*
X170926653Y-67284999D01*
X170926656Y-67285000D01*
X170926658Y-67285000D01*
X171084344Y-67285000D01*
X171084345Y-67284999D01*
X171238997Y-67254237D01*
X171384679Y-67193894D01*
X171515789Y-67106289D01*
X171627289Y-66994789D01*
X171714894Y-66863679D01*
X171775237Y-66717997D01*
X171806000Y-66563342D01*
X171806000Y-66405658D01*
X171806000Y-66405655D01*
X171805999Y-66405653D01*
X171800060Y-66375795D01*
X171775237Y-66251003D01*
X171775235Y-66250998D01*
X171714897Y-66105327D01*
X171714890Y-66105314D01*
X171627289Y-65974211D01*
X171627286Y-65974207D01*
X171515792Y-65862713D01*
X171515788Y-65862710D01*
X171384685Y-65775109D01*
X171384672Y-65775102D01*
X171240314Y-65715308D01*
X171200085Y-65688428D01*
X170916819Y-65405162D01*
X170883334Y-65343839D01*
X170880500Y-65317481D01*
X170880500Y-64424500D01*
X170900185Y-64357461D01*
X170952989Y-64311706D01*
X171004500Y-64300500D01*
X171070686Y-64300500D01*
X171070694Y-64300500D01*
X171107569Y-64297598D01*
X171107571Y-64297597D01*
X171107573Y-64297597D01*
X171149191Y-64285505D01*
X171265398Y-64251744D01*
X171406865Y-64168081D01*
X171523081Y-64051865D01*
X171606744Y-63910398D01*
X171652598Y-63752569D01*
X171652800Y-63750001D01*
X173657704Y-63750001D01*
X173657899Y-63752486D01*
X173703718Y-63910198D01*
X173787314Y-64051552D01*
X173787321Y-64051561D01*
X173903438Y-64167678D01*
X173903447Y-64167685D01*
X174044803Y-64251282D01*
X174044806Y-64251283D01*
X174202504Y-64297099D01*
X174202510Y-64297100D01*
X174239350Y-64299999D01*
X174239366Y-64300000D01*
X174880000Y-64300000D01*
X175380000Y-64300000D01*
X176020634Y-64300000D01*
X176020649Y-64299999D01*
X176057489Y-64297100D01*
X176057495Y-64297099D01*
X176215193Y-64251283D01*
X176215196Y-64251282D01*
X176356552Y-64167685D01*
X176356561Y-64167678D01*
X176472678Y-64051561D01*
X176472685Y-64051552D01*
X176556281Y-63910198D01*
X176602100Y-63752486D01*
X176602295Y-63750001D01*
X176602295Y-63750000D01*
X175380000Y-63750000D01*
X175380000Y-64300000D01*
X174880000Y-64300000D01*
X174880000Y-63750000D01*
X173657705Y-63750000D01*
X173657704Y-63750001D01*
X171652800Y-63750001D01*
X171655500Y-63715694D01*
X171655500Y-63284306D01*
X171652598Y-63247431D01*
X171652596Y-63247425D01*
X171606745Y-63089606D01*
X171606744Y-63089603D01*
X171606744Y-63089602D01*
X171523081Y-62948135D01*
X171523078Y-62948132D01*
X171518298Y-62941969D01*
X171520750Y-62940066D01*
X171494155Y-62891421D01*
X171499104Y-62821726D01*
X171519940Y-62789304D01*
X171518298Y-62788031D01*
X171523075Y-62781870D01*
X171523081Y-62781865D01*
X171606744Y-62640398D01*
X171652598Y-62482569D01*
X171655500Y-62445694D01*
X171655500Y-62014306D01*
X171652598Y-61977431D01*
X171642912Y-61944093D01*
X171606745Y-61819606D01*
X171606744Y-61819603D01*
X171606744Y-61819602D01*
X171523081Y-61678135D01*
X171523078Y-61678132D01*
X171518298Y-61671969D01*
X171520750Y-61670066D01*
X171494155Y-61621421D01*
X171499104Y-61551726D01*
X171519940Y-61519304D01*
X171518298Y-61518031D01*
X171523075Y-61511870D01*
X171523081Y-61511865D01*
X171606744Y-61370398D01*
X171640505Y-61254191D01*
X171652597Y-61212573D01*
X171652598Y-61212567D01*
X171653716Y-61198359D01*
X171655500Y-61175694D01*
X171655500Y-60744306D01*
X171652598Y-60707431D01*
X171649632Y-60697223D01*
X171606745Y-60549606D01*
X171606744Y-60549603D01*
X171606744Y-60549602D01*
X171523081Y-60408135D01*
X171523078Y-60408132D01*
X171518298Y-60401969D01*
X171520750Y-60400066D01*
X171494155Y-60351421D01*
X171499104Y-60281726D01*
X171519940Y-60249304D01*
X171518298Y-60248031D01*
X171523075Y-60241870D01*
X171523081Y-60241865D01*
X171606744Y-60100398D01*
X171652598Y-59942569D01*
X171655500Y-59905694D01*
X171655500Y-59474306D01*
X171652598Y-59437431D01*
X171606744Y-59279602D01*
X171523081Y-59138135D01*
X171523079Y-59138133D01*
X171523076Y-59138129D01*
X171406870Y-59021923D01*
X171406862Y-59021917D01*
X171265396Y-58938255D01*
X171265393Y-58938254D01*
X171107573Y-58892402D01*
X171107567Y-58892401D01*
X171070701Y-58889500D01*
X171070694Y-58889500D01*
X169786519Y-58889500D01*
X169757078Y-58880855D01*
X169727092Y-58874332D01*
X169722076Y-58870577D01*
X169719480Y-58869815D01*
X169698838Y-58853181D01*
X169542838Y-58697181D01*
X169509353Y-58635858D01*
X169514337Y-58566166D01*
X169556209Y-58510233D01*
X169621673Y-58485816D01*
X169630519Y-58485500D01*
X174156481Y-58485500D01*
X174223520Y-58505185D01*
X174244162Y-58521819D01*
X174393181Y-58670838D01*
X174426666Y-58732161D01*
X174429500Y-58758519D01*
X174429500Y-58765500D01*
X174409815Y-58832539D01*
X174357011Y-58878294D01*
X174305500Y-58889500D01*
X174239298Y-58889500D01*
X174202432Y-58892401D01*
X174202426Y-58892402D01*
X174044606Y-58938254D01*
X174044603Y-58938255D01*
X173903137Y-59021917D01*
X173903129Y-59021923D01*
X173786923Y-59138129D01*
X173786917Y-59138137D01*
X173703255Y-59279603D01*
X173703254Y-59279606D01*
X173657402Y-59437426D01*
X173657401Y-59437432D01*
X173654500Y-59474298D01*
X173654500Y-59905701D01*
X173657401Y-59942567D01*
X173657402Y-59942573D01*
X173703254Y-60100393D01*
X173703255Y-60100396D01*
X173703256Y-60100398D01*
X173724015Y-60135500D01*
X173786917Y-60241862D01*
X173791702Y-60248031D01*
X173789256Y-60249927D01*
X173815857Y-60298642D01*
X173810873Y-60368334D01*
X173790069Y-60400703D01*
X173791702Y-60401969D01*
X173786917Y-60408137D01*
X173703255Y-60549603D01*
X173703254Y-60549606D01*
X173657402Y-60707426D01*
X173657401Y-60707432D01*
X173654500Y-60744298D01*
X173654500Y-61175701D01*
X173657401Y-61212567D01*
X173657402Y-61212573D01*
X173703254Y-61370393D01*
X173703255Y-61370396D01*
X173786917Y-61511862D01*
X173791702Y-61518031D01*
X173789256Y-61519927D01*
X173815857Y-61568642D01*
X173810873Y-61638334D01*
X173790069Y-61670703D01*
X173791702Y-61671969D01*
X173786917Y-61678137D01*
X173703255Y-61819603D01*
X173703254Y-61819606D01*
X173657402Y-61977426D01*
X173657401Y-61977432D01*
X173654500Y-62014298D01*
X173654500Y-62445701D01*
X173657401Y-62482567D01*
X173657402Y-62482573D01*
X173703254Y-62640393D01*
X173703255Y-62640396D01*
X173703256Y-62640398D01*
X173738663Y-62700268D01*
X173786917Y-62781862D01*
X173791702Y-62788031D01*
X173789369Y-62789840D01*
X173816210Y-62838995D01*
X173811226Y-62908687D01*
X173790470Y-62941021D01*
X173792097Y-62942283D01*
X173787313Y-62948449D01*
X173703718Y-63089801D01*
X173657899Y-63247513D01*
X173657704Y-63249998D01*
X173657705Y-63250000D01*
X176602295Y-63250000D01*
X176602295Y-63249998D01*
X176602100Y-63247513D01*
X176556281Y-63089801D01*
X176472685Y-62948447D01*
X176467900Y-62942278D01*
X176470366Y-62940364D01*
X176443802Y-62891776D01*
X176448749Y-62822082D01*
X176460848Y-62797989D01*
X176467981Y-62786964D01*
X176473081Y-62781865D01*
X176492199Y-62749537D01*
X176493559Y-62747436D01*
X176518219Y-62726201D01*
X176542002Y-62703996D01*
X176544770Y-62703339D01*
X176546505Y-62701846D01*
X176557725Y-62700268D01*
X176597665Y-62690800D01*
X177613653Y-62690800D01*
X177680692Y-62710485D01*
X177726447Y-62763289D01*
X177736391Y-62832447D01*
X177707366Y-62896003D01*
X177701334Y-62902481D01*
X177570032Y-63033782D01*
X177570028Y-63033786D01*
X177449715Y-63199386D01*
X177356781Y-63381776D01*
X177293522Y-63576465D01*
X177261500Y-63778648D01*
X177261500Y-63983351D01*
X177293522Y-64185534D01*
X177356781Y-64380223D01*
X177420160Y-64504609D01*
X177448848Y-64560913D01*
X177449715Y-64562613D01*
X177570028Y-64728213D01*
X177714786Y-64872971D01*
X177844122Y-64966937D01*
X177880390Y-64993287D01*
X177993087Y-65050709D01*
X178062776Y-65086218D01*
X178062778Y-65086218D01*
X178062781Y-65086220D01*
X178167137Y-65120127D01*
X178257465Y-65149477D01*
X178358557Y-65165488D01*
X178459648Y-65181500D01*
X178459649Y-65181500D01*
X178664351Y-65181500D01*
X178664352Y-65181500D01*
X178866534Y-65149477D01*
X179061219Y-65086220D01*
X179243610Y-64993287D01*
X179389215Y-64887500D01*
X179409213Y-64872971D01*
X179409215Y-64872968D01*
X179409219Y-64872966D01*
X179553966Y-64728219D01*
X179553968Y-64728215D01*
X179553971Y-64728213D01*
X179674284Y-64562614D01*
X179674285Y-64562613D01*
X179674287Y-64562610D01*
X179721516Y-64469917D01*
X179769489Y-64419123D01*
X179837310Y-64402328D01*
X179903445Y-64424865D01*
X179942483Y-64469917D01*
X179965241Y-64514581D01*
X179989715Y-64562614D01*
X180110028Y-64728213D01*
X180254786Y-64872971D01*
X180384122Y-64966937D01*
X180420390Y-64993287D01*
X180533087Y-65050709D01*
X180602776Y-65086218D01*
X180602778Y-65086218D01*
X180602781Y-65086220D01*
X180707137Y-65120127D01*
X180797465Y-65149477D01*
X180898557Y-65165488D01*
X180999648Y-65181500D01*
X180999649Y-65181500D01*
X181204351Y-65181500D01*
X181204352Y-65181500D01*
X181406534Y-65149477D01*
X181601219Y-65086220D01*
X181783610Y-64993287D01*
X181929215Y-64887500D01*
X181949213Y-64872971D01*
X181949215Y-64872968D01*
X181949219Y-64872966D01*
X182093966Y-64728219D01*
X182093968Y-64728215D01*
X182093971Y-64728213D01*
X182162350Y-64634096D01*
X182214287Y-64562610D01*
X182307220Y-64380219D01*
X182370477Y-64185534D01*
X182402500Y-63983352D01*
X182402500Y-63778648D01*
X182380410Y-63639178D01*
X182370477Y-63576465D01*
X182328521Y-63447339D01*
X182307220Y-63381781D01*
X182307218Y-63381778D01*
X182307218Y-63381776D01*
X182257550Y-63284298D01*
X182214287Y-63199390D01*
X182195733Y-63173852D01*
X182093971Y-63033786D01*
X181949213Y-62889028D01*
X181783613Y-62768715D01*
X181783612Y-62768714D01*
X181783610Y-62768713D01*
X181683425Y-62717666D01*
X181601223Y-62675781D01*
X181406534Y-62612522D01*
X181231995Y-62584878D01*
X181204352Y-62580500D01*
X180999648Y-62580500D01*
X180975329Y-62584351D01*
X180797465Y-62612522D01*
X180602776Y-62675781D01*
X180420386Y-62768715D01*
X180254786Y-62889028D01*
X180110028Y-63033786D01*
X179989715Y-63199386D01*
X179942485Y-63292080D01*
X179894510Y-63342876D01*
X179826689Y-63359671D01*
X179760554Y-63337134D01*
X179721515Y-63292080D01*
X179700073Y-63249998D01*
X179674287Y-63199390D01*
X179655733Y-63173852D01*
X179553971Y-63033786D01*
X179405774Y-62885589D01*
X179406597Y-62884765D01*
X179371401Y-62830849D01*
X179370901Y-62760981D01*
X179408254Y-62701934D01*
X179465934Y-62673447D01*
X179484401Y-62669773D01*
X179514028Y-62663880D01*
X179616280Y-62621526D01*
X179641507Y-62611077D01*
X179641508Y-62611076D01*
X179641511Y-62611075D01*
X179756243Y-62534414D01*
X180775851Y-61514804D01*
X180837174Y-61481320D01*
X180882930Y-61480013D01*
X180999648Y-61498500D01*
X180999649Y-61498500D01*
X181204351Y-61498500D01*
X181204352Y-61498500D01*
X181406534Y-61466477D01*
X181601219Y-61403220D01*
X181783610Y-61310287D01*
X181918103Y-61212573D01*
X181949213Y-61189971D01*
X181949215Y-61189968D01*
X181949219Y-61189966D01*
X182093966Y-61045219D01*
X182093968Y-61045215D01*
X182093971Y-61045213D01*
X182186236Y-60918219D01*
X182214287Y-60879610D01*
X182307220Y-60697219D01*
X182370477Y-60502534D01*
X182402500Y-60300352D01*
X182402500Y-60095648D01*
X182398914Y-60073009D01*
X182370477Y-59893465D01*
X182307218Y-59698776D01*
X182273503Y-59632607D01*
X182214287Y-59516390D01*
X182183717Y-59474313D01*
X182093971Y-59350786D01*
X181949213Y-59206028D01*
X181783613Y-59085715D01*
X181783612Y-59085714D01*
X181783610Y-59085713D01*
X181726653Y-59056691D01*
X181601223Y-58992781D01*
X181406534Y-58929522D01*
X181231995Y-58901878D01*
X181204352Y-58897500D01*
X180999648Y-58897500D01*
X180975329Y-58901351D01*
X180797465Y-58929522D01*
X180602776Y-58992781D01*
X180420386Y-59085715D01*
X180254786Y-59206028D01*
X180110028Y-59350786D01*
X179989715Y-59516386D01*
X179942485Y-59609080D01*
X179894510Y-59659876D01*
X179826689Y-59676671D01*
X179760554Y-59654134D01*
X179721515Y-59609080D01*
X179702510Y-59571781D01*
X179674287Y-59516390D01*
X179643717Y-59474313D01*
X179553971Y-59350786D01*
X179409213Y-59206028D01*
X179243613Y-59085715D01*
X179243612Y-59085714D01*
X179243610Y-59085713D01*
X179186653Y-59056691D01*
X179061223Y-58992781D01*
X178866534Y-58929522D01*
X178691995Y-58901878D01*
X178664352Y-58897500D01*
X178459648Y-58897500D01*
X178435329Y-58901351D01*
X178257465Y-58929522D01*
X178062776Y-58992781D01*
X177880386Y-59085715D01*
X177714786Y-59206028D01*
X177570028Y-59350786D01*
X177449715Y-59516386D01*
X177356781Y-59698776D01*
X177293522Y-59893465D01*
X177261500Y-60095648D01*
X177261500Y-60135500D01*
X177241815Y-60202539D01*
X177189011Y-60248294D01*
X177137500Y-60259500D01*
X176675673Y-60259500D01*
X176608634Y-60239815D01*
X176562879Y-60187011D01*
X176552935Y-60117853D01*
X176556597Y-60100905D01*
X176602597Y-59942573D01*
X176602598Y-59942567D01*
X176605499Y-59905701D01*
X176605500Y-59905694D01*
X176605500Y-59474306D01*
X176602598Y-59437431D01*
X176556744Y-59279602D01*
X176473081Y-59138135D01*
X176473079Y-59138133D01*
X176473076Y-59138129D01*
X176356870Y-59021923D01*
X176356862Y-59021917D01*
X176215396Y-58938255D01*
X176215393Y-58938254D01*
X176057573Y-58892402D01*
X176057567Y-58892401D01*
X176020701Y-58889500D01*
X176020694Y-58889500D01*
X175954500Y-58889500D01*
X175887461Y-58869815D01*
X175841706Y-58817011D01*
X175830500Y-58765500D01*
X175830500Y-58348004D01*
X175803581Y-58212677D01*
X175803580Y-58212676D01*
X175803580Y-58212672D01*
X175782124Y-58160872D01*
X175750776Y-58085191D01*
X175750775Y-58085189D01*
X175714743Y-58031263D01*
X175674114Y-57970457D01*
X175674111Y-57970453D01*
X174944545Y-57240887D01*
X174829807Y-57164222D01*
X174702332Y-57111421D01*
X174702322Y-57111418D01*
X174566996Y-57084500D01*
X174566994Y-57084500D01*
X174566993Y-57084500D01*
X168216994Y-57084500D01*
X168079006Y-57084500D01*
X168079004Y-57084500D01*
X167943677Y-57111418D01*
X167943667Y-57111421D01*
X167816192Y-57164222D01*
X167701454Y-57240887D01*
X166714887Y-58227454D01*
X166669272Y-58295724D01*
X166653748Y-58318956D01*
X166638225Y-58342188D01*
X166638221Y-58342195D01*
X166585421Y-58469667D01*
X166585418Y-58469677D01*
X166558500Y-58605004D01*
X166558500Y-58909255D01*
X166538815Y-58976294D01*
X166507385Y-59009573D01*
X166411787Y-59079028D01*
X166411782Y-59079032D01*
X166267028Y-59223786D01*
X166146715Y-59389386D01*
X166099485Y-59482080D01*
X166051510Y-59532876D01*
X165983689Y-59549671D01*
X165917554Y-59527134D01*
X165878515Y-59482080D01*
X165874550Y-59474298D01*
X165831287Y-59389390D01*
X165803236Y-59350781D01*
X165710971Y-59223786D01*
X165566213Y-59079028D01*
X165400613Y-58958715D01*
X165400612Y-58958714D01*
X165400610Y-58958713D01*
X165343320Y-58929522D01*
X165218223Y-58865781D01*
X165023534Y-58802522D01*
X164848995Y-58774878D01*
X164821352Y-58770500D01*
X164616648Y-58770500D01*
X164592329Y-58774351D01*
X164414465Y-58802522D01*
X164219776Y-58865781D01*
X164037386Y-58958715D01*
X163871786Y-59079028D01*
X163727028Y-59223786D01*
X163606715Y-59389386D01*
X163513781Y-59571776D01*
X163450522Y-59766465D01*
X163418500Y-59968648D01*
X163418500Y-60173351D01*
X163450522Y-60375534D01*
X163513781Y-60570223D01*
X163573283Y-60687000D01*
X163602485Y-60744313D01*
X163606715Y-60752613D01*
X163727028Y-60918213D01*
X163871786Y-61062971D01*
X163986685Y-61146448D01*
X164037390Y-61183287D01*
X164146109Y-61238682D01*
X164219776Y-61276218D01*
X164219778Y-61276218D01*
X164219781Y-61276220D01*
X164324137Y-61310127D01*
X164414465Y-61339477D01*
X164485242Y-61350687D01*
X164616648Y-61371500D01*
X164616649Y-61371500D01*
X164821351Y-61371500D01*
X164821352Y-61371500D01*
X165023534Y-61339477D01*
X165218219Y-61276220D01*
X165400610Y-61183287D01*
X165521010Y-61095812D01*
X165566213Y-61062971D01*
X165566215Y-61062968D01*
X165566219Y-61062966D01*
X165710966Y-60918219D01*
X165710968Y-60918215D01*
X165710971Y-60918213D01*
X165831284Y-60752614D01*
X165831285Y-60752613D01*
X165831287Y-60752610D01*
X165878516Y-60659917D01*
X165926489Y-60609123D01*
X165994310Y-60592328D01*
X166060445Y-60614865D01*
X166099483Y-60659917D01*
X166142478Y-60744298D01*
X166146715Y-60752614D01*
X166267028Y-60918213D01*
X166411786Y-61062971D01*
X166526685Y-61146448D01*
X166577390Y-61183287D01*
X166686109Y-61238682D01*
X166759776Y-61276218D01*
X166759778Y-61276218D01*
X166759781Y-61276220D01*
X166864137Y-61310127D01*
X166954465Y-61339477D01*
X167025242Y-61350687D01*
X167156648Y-61371500D01*
X167156649Y-61371500D01*
X167361351Y-61371500D01*
X167361352Y-61371500D01*
X167563534Y-61339477D01*
X167758219Y-61276220D01*
X167940610Y-61183287D01*
X168061010Y-61095812D01*
X168106213Y-61062971D01*
X168106215Y-61062968D01*
X168106219Y-61062966D01*
X168250966Y-60918219D01*
X168250968Y-60918215D01*
X168250971Y-60918213D01*
X168360890Y-60766920D01*
X168371287Y-60752610D01*
X168464220Y-60570219D01*
X168527477Y-60375534D01*
X168555663Y-60197572D01*
X168567102Y-60173442D01*
X168575115Y-60147959D01*
X168581841Y-60142351D01*
X168585592Y-60134439D01*
X168608265Y-60120321D01*
X168628780Y-60103218D01*
X168637469Y-60102136D01*
X168644904Y-60097508D01*
X168671610Y-60097889D01*
X168698116Y-60094592D01*
X168706011Y-60098380D01*
X168714766Y-60098506D01*
X168737024Y-60113263D01*
X168761107Y-60124821D01*
X168769000Y-60134464D01*
X168772999Y-60137116D01*
X168783708Y-60151930D01*
X168784302Y-60152894D01*
X168836919Y-60241865D01*
X168842641Y-60247587D01*
X168850263Y-60259958D01*
X168855794Y-60280213D01*
X168865857Y-60298642D01*
X168864813Y-60313239D01*
X168868669Y-60327360D01*
X168862370Y-60347391D01*
X168860873Y-60368334D01*
X168850913Y-60383830D01*
X168847712Y-60394013D01*
X168840511Y-60400016D01*
X168840069Y-60400703D01*
X168841702Y-60401969D01*
X168836917Y-60408137D01*
X168753255Y-60549603D01*
X168753254Y-60549606D01*
X168707402Y-60707426D01*
X168707401Y-60707432D01*
X168704500Y-60744298D01*
X168704500Y-61175701D01*
X168707401Y-61212567D01*
X168707402Y-61212573D01*
X168753403Y-61370905D01*
X168753204Y-61440774D01*
X168715262Y-61499444D01*
X168651624Y-61528288D01*
X168634327Y-61529500D01*
X168333003Y-61529500D01*
X168224590Y-61551065D01*
X168224589Y-61551065D01*
X168197671Y-61556420D01*
X168070190Y-61609224D01*
X167955454Y-61685887D01*
X167458147Y-62183194D01*
X167396824Y-62216679D01*
X167351068Y-62217986D01*
X167264544Y-62204282D01*
X167234352Y-62199500D01*
X167029648Y-62199500D01*
X167005329Y-62203351D01*
X166827465Y-62231522D01*
X166632776Y-62294781D01*
X166450386Y-62387715D01*
X166284786Y-62508028D01*
X166140028Y-62652786D01*
X166019713Y-62818388D01*
X165972203Y-62911630D01*
X165924228Y-62962426D01*
X165856407Y-62979220D01*
X165790272Y-62956682D01*
X165751234Y-62911628D01*
X165703861Y-62818652D01*
X165671474Y-62774077D01*
X165671474Y-62774076D01*
X164992000Y-63453551D01*
X164992000Y-63447339D01*
X164964741Y-63345606D01*
X164912080Y-63254394D01*
X164837606Y-63179920D01*
X164746394Y-63127259D01*
X164644661Y-63100000D01*
X164638446Y-63100000D01*
X165317922Y-62420524D01*
X165317921Y-62420523D01*
X165273359Y-62388147D01*
X165273350Y-62388141D01*
X165091031Y-62295244D01*
X164896417Y-62232009D01*
X164694317Y-62200000D01*
X164489683Y-62200000D01*
X164287582Y-62232009D01*
X164092968Y-62295244D01*
X163910644Y-62388143D01*
X163866077Y-62420523D01*
X163866077Y-62420524D01*
X164545554Y-63100000D01*
X164539339Y-63100000D01*
X164437606Y-63127259D01*
X164346394Y-63179920D01*
X164271920Y-63254394D01*
X164219259Y-63345606D01*
X164192000Y-63447339D01*
X164192000Y-63453553D01*
X163512524Y-62774077D01*
X163512523Y-62774077D01*
X163480143Y-62818644D01*
X163387244Y-63000968D01*
X163324009Y-63195582D01*
X163292000Y-63397682D01*
X161193499Y-63397682D01*
X161193499Y-62986992D01*
X161191933Y-62971666D01*
X161182999Y-62884203D01*
X161182998Y-62884200D01*
X161176636Y-62865000D01*
X161127814Y-62717666D01*
X161035712Y-62568344D01*
X160911656Y-62444288D01*
X160774025Y-62359397D01*
X160762336Y-62352187D01*
X160762335Y-62352186D01*
X160762334Y-62352186D01*
X160700558Y-62331715D01*
X160643115Y-62291943D01*
X160616292Y-62227427D01*
X160615946Y-62204280D01*
X160618921Y-62166473D01*
X159939447Y-61487000D01*
X159945661Y-61487000D01*
X160047394Y-61459741D01*
X160138606Y-61407080D01*
X160213080Y-61332606D01*
X160265741Y-61241394D01*
X160293000Y-61139661D01*
X160293000Y-61133447D01*
X160972474Y-61812921D01*
X161004859Y-61768349D01*
X161097755Y-61586031D01*
X161160990Y-61391417D01*
X161193000Y-61189317D01*
X161193000Y-60984682D01*
X161160990Y-60782582D01*
X161097755Y-60587968D01*
X161004859Y-60405650D01*
X160972474Y-60361077D01*
X160972474Y-60361076D01*
X160293000Y-61040551D01*
X160293000Y-61034339D01*
X160265741Y-60932606D01*
X160213080Y-60841394D01*
X160138606Y-60766920D01*
X160047394Y-60714259D01*
X159945661Y-60687000D01*
X159939446Y-60687000D01*
X160618922Y-60007524D01*
X160618922Y-60007523D01*
X160574359Y-59975147D01*
X160574350Y-59975141D01*
X160392031Y-59882244D01*
X160197417Y-59819009D01*
X159995317Y-59787000D01*
X159790683Y-59787000D01*
X159588582Y-59819009D01*
X159393968Y-59882244D01*
X159211644Y-59975143D01*
X159167077Y-60007523D01*
X159167077Y-60007524D01*
X159846554Y-60687000D01*
X159840339Y-60687000D01*
X159738606Y-60714259D01*
X159647394Y-60766920D01*
X159572920Y-60841394D01*
X159520259Y-60932606D01*
X159493000Y-61034339D01*
X159493000Y-61040553D01*
X158813524Y-60361077D01*
X158813523Y-60361077D01*
X158781143Y-60405644D01*
X158688244Y-60587968D01*
X158625009Y-60782582D01*
X158593000Y-60984682D01*
X158593000Y-61189317D01*
X158625009Y-61391417D01*
X158688244Y-61586031D01*
X158781141Y-61768350D01*
X158781147Y-61768359D01*
X158813523Y-61812921D01*
X158813524Y-61812922D01*
X159493000Y-61133446D01*
X159493000Y-61139661D01*
X159520259Y-61241394D01*
X159572920Y-61332606D01*
X159647394Y-61407080D01*
X159738606Y-61459741D01*
X159840339Y-61487000D01*
X159846553Y-61487000D01*
X159167076Y-62166474D01*
X159170052Y-62204282D01*
X159155687Y-62272659D01*
X159106636Y-62322415D01*
X159085440Y-62331715D01*
X159023672Y-62352184D01*
X159023663Y-62352187D01*
X158874342Y-62444289D01*
X158750289Y-62568342D01*
X158658187Y-62717663D01*
X158658185Y-62717668D01*
X158634869Y-62788031D01*
X158603001Y-62884203D01*
X158603001Y-62884204D01*
X158603000Y-62884204D01*
X158592500Y-62986983D01*
X149100500Y-62986983D01*
X149100500Y-62160820D01*
X149097739Y-62120102D01*
X149053967Y-61944093D01*
X148973383Y-61781609D01*
X148859753Y-61640247D01*
X148836333Y-61621421D01*
X148718390Y-61526616D01*
X148555909Y-61446034D01*
X148555907Y-61446033D01*
X148443073Y-61417972D01*
X148379900Y-61402261D01*
X148352752Y-61400420D01*
X148339180Y-61399500D01*
X144660820Y-61399500D01*
X144650640Y-61400190D01*
X144620099Y-61402261D01*
X144488783Y-61434918D01*
X144444093Y-61446033D01*
X144444091Y-61446033D01*
X144444090Y-61446034D01*
X144281609Y-61526616D01*
X144140247Y-61640246D01*
X144140246Y-61640247D01*
X144026616Y-61781609D01*
X143956334Y-61923322D01*
X143946033Y-61944093D01*
X143943307Y-61955054D01*
X143902261Y-62120099D01*
X143899500Y-62160821D01*
X143000000Y-62160821D01*
X143000000Y-58160872D01*
X149400000Y-58160872D01*
X149400000Y-58239999D01*
X149419336Y-58248009D01*
X149420414Y-58247421D01*
X149490106Y-58252403D01*
X149534457Y-58280905D01*
X150400000Y-59146448D01*
X150400000Y-59853551D01*
X149400000Y-58853551D01*
X149400000Y-61146448D01*
X150400000Y-60146448D01*
X150400000Y-60853551D01*
X149534457Y-61719094D01*
X149478852Y-61751192D01*
X149400000Y-61772308D01*
X149400000Y-61839127D01*
X149402760Y-61879834D01*
X149446505Y-62055733D01*
X149446506Y-62055735D01*
X149527038Y-62218116D01*
X149527040Y-62218119D01*
X149640602Y-62359396D01*
X149640603Y-62359397D01*
X149781880Y-62472959D01*
X149781883Y-62472961D01*
X149944264Y-62553493D01*
X149944266Y-62553494D01*
X150120167Y-62597239D01*
X150120163Y-62597239D01*
X150160872Y-62600000D01*
X151639128Y-62600000D01*
X151679834Y-62597239D01*
X151855733Y-62553494D01*
X151855735Y-62553493D01*
X152018116Y-62472961D01*
X152018119Y-62472959D01*
X152159396Y-62359397D01*
X152159397Y-62359396D01*
X152272959Y-62218119D01*
X152272961Y-62218116D01*
X152353493Y-62055735D01*
X152353494Y-62055733D01*
X152397239Y-61879834D01*
X152400000Y-61839127D01*
X152400000Y-61760000D01*
X152380659Y-61751989D01*
X152379578Y-61752580D01*
X152309886Y-61747594D01*
X152265542Y-61719094D01*
X151400000Y-60853552D01*
X151400000Y-60146448D01*
X152399999Y-61146448D01*
X152400000Y-61146447D01*
X152400000Y-58853552D01*
X152399999Y-58853551D01*
X151400000Y-59853550D01*
X151400000Y-59146446D01*
X152265542Y-58280905D01*
X152326865Y-58247420D01*
X152373955Y-58250787D01*
X152400000Y-58239999D01*
X152400000Y-58160872D01*
X152397239Y-58120165D01*
X152353494Y-57944266D01*
X152353493Y-57944264D01*
X152272961Y-57781883D01*
X152272959Y-57781880D01*
X152159397Y-57640603D01*
X152159396Y-57640602D01*
X152018119Y-57527040D01*
X152018116Y-57527038D01*
X151855735Y-57446506D01*
X151855733Y-57446505D01*
X151679832Y-57402760D01*
X151679836Y-57402760D01*
X151639128Y-57400000D01*
X150160872Y-57400000D01*
X150120165Y-57402760D01*
X149944266Y-57446505D01*
X149944264Y-57446506D01*
X149781883Y-57527038D01*
X149781880Y-57527040D01*
X149640603Y-57640602D01*
X149640602Y-57640603D01*
X149527040Y-57781880D01*
X149527038Y-57781883D01*
X149446506Y-57944264D01*
X149446505Y-57944266D01*
X149402760Y-58120165D01*
X149400000Y-58160872D01*
X143000000Y-58160872D01*
X143000000Y-54760821D01*
X143899500Y-54760821D01*
X143899500Y-56239178D01*
X143902261Y-56279900D01*
X143912948Y-56322871D01*
X143946033Y-56455907D01*
X143946034Y-56455909D01*
X144026616Y-56618390D01*
X144026617Y-56618391D01*
X144140247Y-56759753D01*
X144281609Y-56873383D01*
X144444093Y-56953967D01*
X144620102Y-56997739D01*
X144660820Y-57000500D01*
X144660821Y-57000500D01*
X148339179Y-57000500D01*
X148339180Y-57000500D01*
X148379898Y-56997739D01*
X148555907Y-56953967D01*
X148718391Y-56873383D01*
X148859753Y-56759753D01*
X148973383Y-56618391D01*
X149053967Y-56455907D01*
X149097739Y-56279898D01*
X149100500Y-56239180D01*
X149100500Y-55142648D01*
X186146500Y-55142648D01*
X186146500Y-55347351D01*
X186178522Y-55549534D01*
X186241781Y-55744223D01*
X186334715Y-55926613D01*
X186455028Y-56092213D01*
X186455034Y-56092219D01*
X186599781Y-56236966D01*
X186656138Y-56277911D01*
X186698804Y-56333241D01*
X186704783Y-56402854D01*
X186672178Y-56464649D01*
X186622258Y-56495935D01*
X186577886Y-56510638D01*
X186577875Y-56510643D01*
X186428654Y-56602684D01*
X186304684Y-56726654D01*
X186212643Y-56875875D01*
X186212641Y-56875880D01*
X186157494Y-57042302D01*
X186157493Y-57042309D01*
X186147000Y-57145013D01*
X186147000Y-57495000D01*
X187131314Y-57495000D01*
X187126920Y-57499394D01*
X187074259Y-57590606D01*
X187047000Y-57692339D01*
X187047000Y-57797661D01*
X187074259Y-57899394D01*
X187126920Y-57990606D01*
X187131314Y-57995000D01*
X186147001Y-57995000D01*
X186147001Y-58344986D01*
X186157494Y-58447697D01*
X186212641Y-58614119D01*
X186212643Y-58614124D01*
X186304684Y-58763345D01*
X186428654Y-58887315D01*
X186577875Y-58979356D01*
X186577880Y-58979358D01*
X186744302Y-59034505D01*
X186744309Y-59034506D01*
X186847019Y-59044999D01*
X187196999Y-59044999D01*
X187197000Y-59044998D01*
X187197000Y-58060686D01*
X187201394Y-58065080D01*
X187292606Y-58117741D01*
X187394339Y-58145000D01*
X187499661Y-58145000D01*
X187601394Y-58117741D01*
X187692606Y-58065080D01*
X187697000Y-58060686D01*
X187697000Y-59044999D01*
X188046972Y-59044999D01*
X188046986Y-59044998D01*
X188149697Y-59034505D01*
X188316119Y-58979358D01*
X188316124Y-58979356D01*
X188465345Y-58887315D01*
X188589315Y-58763345D01*
X188681356Y-58614124D01*
X188681358Y-58614119D01*
X188736505Y-58447697D01*
X188736506Y-58447690D01*
X188746999Y-58344986D01*
X188747000Y-58344973D01*
X188747000Y-57995000D01*
X187762686Y-57995000D01*
X187767080Y-57990606D01*
X187819741Y-57899394D01*
X187847000Y-57797661D01*
X187847000Y-57692339D01*
X187819741Y-57590606D01*
X187767080Y-57499394D01*
X187762686Y-57495000D01*
X188746999Y-57495000D01*
X188746999Y-57145028D01*
X188746998Y-57145013D01*
X188736505Y-57042302D01*
X188681358Y-56875880D01*
X188681356Y-56875875D01*
X188589315Y-56726654D01*
X188465345Y-56602684D01*
X188316124Y-56510643D01*
X188316121Y-56510642D01*
X188271741Y-56495936D01*
X188214297Y-56456163D01*
X188187474Y-56391647D01*
X188199789Y-56322871D01*
X188237861Y-56277912D01*
X188291172Y-56239180D01*
X188294215Y-56236969D01*
X188294215Y-56236968D01*
X188294219Y-56236966D01*
X188438966Y-56092219D01*
X188438968Y-56092215D01*
X188438971Y-56092213D01*
X188491732Y-56019590D01*
X188559287Y-55926610D01*
X188652220Y-55744219D01*
X188715477Y-55549534D01*
X188747500Y-55347352D01*
X188747500Y-55142648D01*
X188727758Y-55018001D01*
X188715477Y-54940465D01*
X188675523Y-54817500D01*
X188652220Y-54745781D01*
X188652218Y-54745778D01*
X188652218Y-54745776D01*
X188615923Y-54674544D01*
X188559287Y-54563390D01*
X188530176Y-54523322D01*
X188438971Y-54397786D01*
X188294213Y-54253028D01*
X188128613Y-54132715D01*
X188128612Y-54132714D01*
X188128610Y-54132713D01*
X188056775Y-54096111D01*
X187946223Y-54039781D01*
X187751534Y-53976522D01*
X187576995Y-53948878D01*
X187549352Y-53944500D01*
X187344648Y-53944500D01*
X187320329Y-53948351D01*
X187142465Y-53976522D01*
X186947776Y-54039781D01*
X186765386Y-54132715D01*
X186599786Y-54253028D01*
X186455028Y-54397786D01*
X186334715Y-54563386D01*
X186241781Y-54745776D01*
X186178522Y-54940465D01*
X186146500Y-55142648D01*
X149100500Y-55142648D01*
X149100500Y-54760820D01*
X149097739Y-54720102D01*
X149053967Y-54544093D01*
X148973383Y-54381609D01*
X148859753Y-54240247D01*
X148811865Y-54201753D01*
X148718390Y-54126616D01*
X148555909Y-54046034D01*
X148555907Y-54046033D01*
X148467444Y-54024032D01*
X148379900Y-54002261D01*
X148352752Y-54000420D01*
X148339180Y-53999500D01*
X144660820Y-53999500D01*
X144650640Y-54000190D01*
X144620099Y-54002261D01*
X144488783Y-54034918D01*
X144444093Y-54046033D01*
X144444091Y-54046033D01*
X144444090Y-54046034D01*
X144281609Y-54126616D01*
X144140247Y-54240246D01*
X144140246Y-54240247D01*
X144026616Y-54381609D01*
X143956334Y-54523322D01*
X143946033Y-54544093D01*
X143941235Y-54563386D01*
X143902261Y-54720099D01*
X143899500Y-54760821D01*
X143000000Y-54760821D01*
X143000000Y-52051362D01*
X143019685Y-51984323D01*
X143036319Y-51963681D01*
X143963681Y-51036319D01*
X144025004Y-51002834D01*
X144051362Y-51000000D01*
X156800329Y-51000000D01*
X156867368Y-51019685D01*
G37*
%TD.AperFunction*%
%TD*%
%TA.AperFunction,Conductor*%
%TO.N,GND_ADAPTER*%
G36*
X259267368Y-51019685D02*
G01*
X259313123Y-51072489D01*
X259323067Y-51141647D01*
X259294042Y-51205203D01*
X259262333Y-51231383D01*
X259230521Y-51249751D01*
X259230518Y-51249752D01*
X259230513Y-51249756D01*
X259012073Y-51417370D01*
X259012066Y-51417376D01*
X258817376Y-51612066D01*
X258817370Y-51612073D01*
X258649754Y-51830516D01*
X258512080Y-52068971D01*
X258512075Y-52068982D01*
X258406704Y-52323369D01*
X258335441Y-52589331D01*
X258335438Y-52589344D01*
X258299501Y-52862315D01*
X258299500Y-52862332D01*
X258299500Y-53137667D01*
X258299501Y-53137684D01*
X258335438Y-53410655D01*
X258335439Y-53410660D01*
X258335440Y-53410666D01*
X258335441Y-53410668D01*
X258406704Y-53676630D01*
X258512075Y-53931017D01*
X258512080Y-53931028D01*
X258591809Y-54069121D01*
X258649751Y-54169479D01*
X258649753Y-54169482D01*
X258649754Y-54169483D01*
X258817370Y-54387926D01*
X258817376Y-54387933D01*
X259012066Y-54582623D01*
X259012072Y-54582628D01*
X259230521Y-54750249D01*
X259380064Y-54836588D01*
X259468971Y-54887919D01*
X259468976Y-54887921D01*
X259468979Y-54887923D01*
X259723368Y-54993295D01*
X259989334Y-55064560D01*
X260262326Y-55100500D01*
X260262333Y-55100500D01*
X260537667Y-55100500D01*
X260537674Y-55100500D01*
X260810666Y-55064560D01*
X261076632Y-54993295D01*
X261331021Y-54887923D01*
X261419936Y-54836588D01*
X261487836Y-54820115D01*
X261553863Y-54842967D01*
X261597053Y-54897888D01*
X261605936Y-54943975D01*
X261605936Y-77056024D01*
X261586251Y-77123063D01*
X261533447Y-77168818D01*
X261464289Y-77178762D01*
X261419936Y-77163411D01*
X261331028Y-77112080D01*
X261331017Y-77112075D01*
X261076630Y-77006704D01*
X260943649Y-76971072D01*
X260810666Y-76935440D01*
X260810660Y-76935439D01*
X260810655Y-76935438D01*
X260537684Y-76899501D01*
X260537679Y-76899500D01*
X260537674Y-76899500D01*
X260262326Y-76899500D01*
X260262320Y-76899500D01*
X260262315Y-76899501D01*
X259989344Y-76935438D01*
X259989337Y-76935439D01*
X259989334Y-76935440D01*
X259983337Y-76937047D01*
X259723369Y-77006704D01*
X259468982Y-77112075D01*
X259468971Y-77112080D01*
X259230516Y-77249754D01*
X259012073Y-77417370D01*
X259012066Y-77417376D01*
X258817376Y-77612066D01*
X258817370Y-77612073D01*
X258649754Y-77830516D01*
X258512080Y-78068971D01*
X258512075Y-78068982D01*
X258406704Y-78323369D01*
X258335441Y-78589331D01*
X258335438Y-78589344D01*
X258299501Y-78862315D01*
X258299500Y-78862332D01*
X258299500Y-79137667D01*
X258299501Y-79137684D01*
X258335438Y-79410655D01*
X258335439Y-79410660D01*
X258335440Y-79410666D01*
X258335441Y-79410668D01*
X258406704Y-79676630D01*
X258512075Y-79931017D01*
X258512080Y-79931028D01*
X258591809Y-80069121D01*
X258649751Y-80169479D01*
X258649753Y-80169482D01*
X258649754Y-80169483D01*
X258817370Y-80387926D01*
X258817376Y-80387933D01*
X259012066Y-80582623D01*
X259012072Y-80582628D01*
X259230521Y-80750249D01*
X259262332Y-80768615D01*
X259310545Y-80819181D01*
X259323767Y-80887788D01*
X259297799Y-80952652D01*
X259240885Y-80993180D01*
X259200329Y-81000000D01*
X226124000Y-81000000D01*
X226056961Y-80980315D01*
X226011206Y-80927511D01*
X226000000Y-80876000D01*
X226000000Y-75314635D01*
X241598000Y-75314635D01*
X241598000Y-76627370D01*
X241598001Y-76627376D01*
X241604408Y-76686983D01*
X241654702Y-76821828D01*
X241654706Y-76821835D01*
X241740952Y-76937044D01*
X241740955Y-76937047D01*
X241856164Y-77023293D01*
X241856171Y-77023297D01*
X241991017Y-77073591D01*
X241991016Y-77073591D01*
X241997944Y-77074335D01*
X242050627Y-77080000D01*
X243363372Y-77079999D01*
X243422983Y-77073591D01*
X243557831Y-77023296D01*
X243673046Y-76937046D01*
X243759296Y-76821831D01*
X243809591Y-76686983D01*
X243816000Y-76627373D01*
X243815999Y-76328280D01*
X243835683Y-76261242D01*
X243852313Y-76240605D01*
X249316139Y-70776782D01*
X249400518Y-70650500D01*
X249425632Y-70612914D01*
X249501051Y-70430835D01*
X249539500Y-70237541D01*
X249539500Y-64976500D01*
X249559185Y-64909461D01*
X249611989Y-64863706D01*
X249663500Y-64852500D01*
X251028179Y-64852500D01*
X251028180Y-64852500D01*
X251068898Y-64849739D01*
X251244907Y-64805967D01*
X251407391Y-64725383D01*
X251548753Y-64611753D01*
X251662383Y-64470391D01*
X251742967Y-64307907D01*
X251786739Y-64131898D01*
X251789500Y-64091180D01*
X251789500Y-62612820D01*
X251786739Y-62572102D01*
X251742967Y-62396093D01*
X251662383Y-62233609D01*
X251548753Y-62092247D01*
X251523161Y-62071675D01*
X251407390Y-61978616D01*
X251244909Y-61898034D01*
X251244907Y-61898033D01*
X251156432Y-61876030D01*
X251068900Y-61854261D01*
X251041752Y-61852420D01*
X251028180Y-61851500D01*
X246049820Y-61851500D01*
X246039640Y-61852190D01*
X246009099Y-61854261D01*
X245877783Y-61886918D01*
X245833093Y-61898033D01*
X245833091Y-61898033D01*
X245833090Y-61898034D01*
X245670609Y-61978616D01*
X245529247Y-62092246D01*
X245529246Y-62092247D01*
X245415616Y-62233609D01*
X245335034Y-62396090D01*
X245335033Y-62396093D01*
X245327837Y-62425030D01*
X245291261Y-62572099D01*
X245291261Y-62572102D01*
X245288500Y-62612820D01*
X245288500Y-64091180D01*
X245291261Y-64131898D01*
X245335033Y-64307907D01*
X245335034Y-64307909D01*
X245415616Y-64470390D01*
X245510999Y-64589051D01*
X245529247Y-64611753D01*
X245670609Y-64725383D01*
X245833093Y-64805967D01*
X246009102Y-64849739D01*
X246049820Y-64852500D01*
X247414500Y-64852500D01*
X247481539Y-64872185D01*
X247527294Y-64924989D01*
X247538500Y-64976500D01*
X247538500Y-69673217D01*
X247518815Y-69740256D01*
X247502181Y-69760898D01*
X242437397Y-74825681D01*
X242376074Y-74859166D01*
X242349716Y-74862000D01*
X242050630Y-74862000D01*
X242050623Y-74862001D01*
X241991016Y-74868408D01*
X241856171Y-74918702D01*
X241856164Y-74918706D01*
X241740955Y-75004952D01*
X241740952Y-75004955D01*
X241654706Y-75120164D01*
X241654702Y-75120171D01*
X241604408Y-75255017D01*
X241598001Y-75314616D01*
X241598000Y-75314635D01*
X226000000Y-75314635D01*
X226000000Y-69884282D01*
X226019685Y-69817243D01*
X226036319Y-69796601D01*
X228411763Y-67421158D01*
X231919140Y-63913781D01*
X232028632Y-63749914D01*
X232104052Y-63567835D01*
X232142501Y-63374540D01*
X232142501Y-63177459D01*
X232142501Y-63172349D01*
X232142500Y-63172323D01*
X232142500Y-62001930D01*
X232162185Y-61934891D01*
X232204500Y-61894543D01*
X232255803Y-61864924D01*
X232463851Y-61705282D01*
X232463855Y-61705277D01*
X232463860Y-61705274D01*
X232649274Y-61519860D01*
X232649277Y-61519855D01*
X232649282Y-61519851D01*
X232808924Y-61311803D01*
X232940043Y-61084697D01*
X233040398Y-60842419D01*
X233108270Y-60589116D01*
X233142500Y-60329120D01*
X233142500Y-60066880D01*
X233142499Y-60066872D01*
X234341500Y-60066872D01*
X234341500Y-60329127D01*
X234361722Y-60482721D01*
X234375730Y-60589116D01*
X234423155Y-60766109D01*
X234443602Y-60842418D01*
X234443605Y-60842428D01*
X234543953Y-61084690D01*
X234543958Y-61084700D01*
X234675075Y-61311803D01*
X234834718Y-61519851D01*
X234834726Y-61519860D01*
X235020140Y-61705274D01*
X235020148Y-61705281D01*
X235228196Y-61864924D01*
X235455299Y-61996041D01*
X235455309Y-61996046D01*
X235697571Y-62096394D01*
X235697581Y-62096398D01*
X235950884Y-62164270D01*
X236199188Y-62196960D01*
X236210249Y-62198417D01*
X236210880Y-62198500D01*
X236210887Y-62198500D01*
X236473118Y-62198500D01*
X236473120Y-62198500D01*
X236473121Y-62198499D01*
X236474383Y-62198417D01*
X236474754Y-62198500D01*
X236477180Y-62198500D01*
X236477180Y-62199042D01*
X236542567Y-62213671D01*
X236591680Y-62263366D01*
X236606500Y-62322151D01*
X236606500Y-72872040D01*
X236592986Y-72928333D01*
X236579248Y-72955295D01*
X236525308Y-73121304D01*
X236525308Y-73121307D01*
X236513609Y-73195172D01*
X236498000Y-73293720D01*
X236498000Y-73468280D01*
X236516205Y-73583220D01*
X236525308Y-73640692D01*
X236525308Y-73640695D01*
X236579249Y-73806706D01*
X236579249Y-73806707D01*
X236652787Y-73951035D01*
X236658498Y-73962243D01*
X236761102Y-74103465D01*
X236884535Y-74226898D01*
X237025757Y-74329502D01*
X237181292Y-74408750D01*
X237347309Y-74462692D01*
X237519720Y-74490000D01*
X237519721Y-74490000D01*
X237694279Y-74490000D01*
X237694280Y-74490000D01*
X237866691Y-74462692D01*
X237866694Y-74462691D01*
X237866695Y-74462691D01*
X237919089Y-74445666D01*
X238032708Y-74408750D01*
X238188243Y-74329502D01*
X238329465Y-74226898D01*
X238452898Y-74103465D01*
X238555502Y-73962243D01*
X238634750Y-73806708D01*
X238688692Y-73640691D01*
X238716000Y-73468280D01*
X238716000Y-73293720D01*
X238688692Y-73121309D01*
X238688691Y-73121305D01*
X238688691Y-73121304D01*
X238634751Y-72955295D01*
X238634750Y-72955294D01*
X238634750Y-72955292D01*
X238621014Y-72928333D01*
X238607500Y-72872040D01*
X238607500Y-61364456D01*
X238593677Y-61294966D01*
X238577008Y-61211168D01*
X238569051Y-61171164D01*
X238519247Y-61050927D01*
X238493632Y-60989086D01*
X238410200Y-60864221D01*
X238384139Y-60825217D01*
X238325031Y-60766109D01*
X238291546Y-60704786D01*
X238292938Y-60646333D01*
X238308219Y-60589306D01*
X238308270Y-60589116D01*
X238342500Y-60329120D01*
X238342500Y-60066880D01*
X238308270Y-59806884D01*
X238240398Y-59553581D01*
X238217986Y-59499473D01*
X238140046Y-59311309D01*
X238140041Y-59311299D01*
X238008924Y-59084196D01*
X237849281Y-58876148D01*
X237849274Y-58876140D01*
X237663860Y-58690726D01*
X237663851Y-58690718D01*
X237455803Y-58531075D01*
X237228700Y-58399958D01*
X237228690Y-58399953D01*
X236986428Y-58299605D01*
X236986421Y-58299603D01*
X236986419Y-58299602D01*
X236733116Y-58231730D01*
X236675339Y-58224123D01*
X236473127Y-58197500D01*
X236473120Y-58197500D01*
X236210880Y-58197500D01*
X236210872Y-58197500D01*
X235979772Y-58227926D01*
X235950884Y-58231730D01*
X235729210Y-58291127D01*
X235697581Y-58299602D01*
X235697571Y-58299605D01*
X235455309Y-58399953D01*
X235455299Y-58399958D01*
X235228196Y-58531075D01*
X235020148Y-58690718D01*
X234834718Y-58876148D01*
X234675075Y-59084196D01*
X234543958Y-59311299D01*
X234543953Y-59311309D01*
X234443605Y-59553571D01*
X234443603Y-59553578D01*
X234443602Y-59553581D01*
X234377507Y-59800254D01*
X234375730Y-59806885D01*
X234341500Y-60066872D01*
X233142499Y-60066872D01*
X233108270Y-59806884D01*
X233040398Y-59553581D01*
X233017986Y-59499473D01*
X232940046Y-59311309D01*
X232940041Y-59311299D01*
X232808924Y-59084196D01*
X232649281Y-58876148D01*
X232649274Y-58876140D01*
X232463860Y-58690726D01*
X232463851Y-58690718D01*
X232255803Y-58531075D01*
X232028700Y-58399958D01*
X232028690Y-58399953D01*
X231786428Y-58299605D01*
X231786421Y-58299603D01*
X231786419Y-58299602D01*
X231533116Y-58231730D01*
X231475339Y-58224123D01*
X231273127Y-58197500D01*
X231273120Y-58197500D01*
X231010880Y-58197500D01*
X231010872Y-58197500D01*
X230779772Y-58227926D01*
X230750884Y-58231730D01*
X230529210Y-58291127D01*
X230497581Y-58299602D01*
X230497571Y-58299605D01*
X230255309Y-58399953D01*
X230255299Y-58399958D01*
X230028196Y-58531075D01*
X229820148Y-58690718D01*
X229634718Y-58876148D01*
X229475075Y-59084196D01*
X229343958Y-59311299D01*
X229343953Y-59311309D01*
X229243605Y-59553571D01*
X229243603Y-59553578D01*
X229193492Y-59740594D01*
X229157127Y-59800254D01*
X229094280Y-59830783D01*
X229073717Y-59832500D01*
X220195230Y-59832500D01*
X220128191Y-59812815D01*
X220107549Y-59796181D01*
X220088657Y-59777289D01*
X220088656Y-59777288D01*
X219939334Y-59685186D01*
X219877558Y-59664715D01*
X219820115Y-59624943D01*
X219793292Y-59560427D01*
X219792946Y-59537280D01*
X219795921Y-59499473D01*
X219116447Y-58820000D01*
X219122661Y-58820000D01*
X219224394Y-58792741D01*
X219315606Y-58740080D01*
X219390080Y-58665606D01*
X219442741Y-58574394D01*
X219470000Y-58472661D01*
X219470000Y-58466447D01*
X220149474Y-59145921D01*
X220181859Y-59101349D01*
X220274755Y-58919031D01*
X220337990Y-58724417D01*
X220370000Y-58522317D01*
X220370000Y-58317682D01*
X220337990Y-58115582D01*
X220274755Y-57920968D01*
X220181859Y-57738650D01*
X220149474Y-57694077D01*
X220149474Y-57694076D01*
X219470000Y-58373551D01*
X219470000Y-58367339D01*
X219442741Y-58265606D01*
X219390080Y-58174394D01*
X219315606Y-58099920D01*
X219224394Y-58047259D01*
X219122661Y-58020000D01*
X219116446Y-58020000D01*
X219795922Y-57340524D01*
X219795921Y-57340523D01*
X219751359Y-57308147D01*
X219751350Y-57308141D01*
X219569031Y-57215244D01*
X219374417Y-57152009D01*
X219172317Y-57120000D01*
X218967683Y-57120000D01*
X218765582Y-57152009D01*
X218570968Y-57215244D01*
X218388644Y-57308143D01*
X218344077Y-57340523D01*
X218344077Y-57340524D01*
X219023554Y-58020000D01*
X219017339Y-58020000D01*
X218915606Y-58047259D01*
X218824394Y-58099920D01*
X218749920Y-58174394D01*
X218697259Y-58265606D01*
X218670000Y-58367339D01*
X218670000Y-58373553D01*
X217990524Y-57694077D01*
X217990523Y-57694077D01*
X217958143Y-57738644D01*
X217865244Y-57920968D01*
X217802009Y-58115582D01*
X217770000Y-58317682D01*
X217770000Y-58522317D01*
X217802009Y-58724417D01*
X217865244Y-58919031D01*
X217958141Y-59101350D01*
X217958147Y-59101359D01*
X217990523Y-59145921D01*
X217990524Y-59145922D01*
X218670000Y-58466446D01*
X218670000Y-58472661D01*
X218697259Y-58574394D01*
X218749920Y-58665606D01*
X218824394Y-58740080D01*
X218915606Y-58792741D01*
X219017339Y-58820000D01*
X219023553Y-58820000D01*
X218344076Y-59499474D01*
X218347052Y-59537282D01*
X218332687Y-59605659D01*
X218283636Y-59655415D01*
X218262440Y-59664715D01*
X218200672Y-59685184D01*
X218200663Y-59685187D01*
X218051342Y-59777289D01*
X217927289Y-59901342D01*
X217835187Y-60050663D01*
X217835186Y-60050666D01*
X217780001Y-60217203D01*
X217780001Y-60217204D01*
X217780000Y-60217204D01*
X217769500Y-60319983D01*
X217769500Y-61520001D01*
X217769501Y-61520018D01*
X217780000Y-61622796D01*
X217780001Y-61622799D01*
X217835185Y-61789331D01*
X217835187Y-61789336D01*
X217862428Y-61833500D01*
X217902232Y-61898034D01*
X217927289Y-61938657D01*
X218033181Y-62044549D01*
X218047884Y-62071476D01*
X218064477Y-62097295D01*
X218065368Y-62103495D01*
X218066666Y-62105872D01*
X218069500Y-62132230D01*
X218069500Y-62277218D01*
X218049815Y-62344257D01*
X218033181Y-62364899D01*
X217807899Y-62590181D01*
X217746576Y-62623666D01*
X217720218Y-62626500D01*
X213991263Y-62626500D01*
X213924224Y-62606815D01*
X213878469Y-62554011D01*
X213868525Y-62484853D01*
X213891996Y-62428189D01*
X213941853Y-62361588D01*
X213941854Y-62361586D01*
X213992096Y-62226879D01*
X213992098Y-62226872D01*
X213998499Y-62167344D01*
X213998500Y-62167327D01*
X213998500Y-61718000D01*
X213134401Y-61718000D01*
X213151076Y-61701325D01*
X213201104Y-61614675D01*
X213227000Y-61518028D01*
X213227000Y-61417972D01*
X213201104Y-61321325D01*
X213151076Y-61234675D01*
X213134401Y-61218000D01*
X213998500Y-61218000D01*
X213998500Y-60768672D01*
X213998499Y-60768655D01*
X213992098Y-60709127D01*
X213992096Y-60709120D01*
X213941854Y-60574413D01*
X213941850Y-60574406D01*
X213855690Y-60459312D01*
X213855687Y-60459309D01*
X213740593Y-60373149D01*
X213740586Y-60373145D01*
X213605879Y-60322903D01*
X213605872Y-60322901D01*
X213546344Y-60316500D01*
X213097000Y-60316500D01*
X213097000Y-61180599D01*
X213080325Y-61163924D01*
X212993675Y-61113896D01*
X212897028Y-61088000D01*
X212796972Y-61088000D01*
X212700325Y-61113896D01*
X212613675Y-61163924D01*
X212597000Y-61180599D01*
X212597000Y-60316500D01*
X212147655Y-60316500D01*
X212088127Y-60322901D01*
X212088120Y-60322903D01*
X211953413Y-60373145D01*
X211953406Y-60373149D01*
X211838312Y-60459309D01*
X211838309Y-60459312D01*
X211752149Y-60574406D01*
X211752145Y-60574413D01*
X211701903Y-60709120D01*
X211701901Y-60709127D01*
X211695500Y-60768655D01*
X211695500Y-61294966D01*
X211675815Y-61362005D01*
X211623011Y-61407760D01*
X211553853Y-61417704D01*
X211490297Y-61388679D01*
X211452523Y-61329901D01*
X211449027Y-61314364D01*
X211433764Y-61218000D01*
X211430634Y-61198239D01*
X211374600Y-61025786D01*
X211292279Y-60864221D01*
X211185696Y-60717523D01*
X211057477Y-60589304D01*
X210910779Y-60482721D01*
X210749214Y-60400400D01*
X210576761Y-60344366D01*
X210576759Y-60344365D01*
X210576757Y-60344365D01*
X210397669Y-60316000D01*
X210397664Y-60316000D01*
X210216336Y-60316000D01*
X210216331Y-60316000D01*
X210037242Y-60344365D01*
X209864783Y-60400401D01*
X209703220Y-60482721D01*
X209619523Y-60543531D01*
X209556523Y-60589304D01*
X209556521Y-60589306D01*
X209556520Y-60589306D01*
X209428306Y-60717520D01*
X209428306Y-60717521D01*
X209428304Y-60717523D01*
X209393004Y-60766109D01*
X209321721Y-60864220D01*
X209239401Y-61025783D01*
X209183365Y-61198242D01*
X209159473Y-61349089D01*
X209129544Y-61412224D01*
X209070232Y-61449155D01*
X209000369Y-61448157D01*
X208942137Y-61409547D01*
X208914527Y-61349089D01*
X208893764Y-61218000D01*
X208890634Y-61198239D01*
X208834600Y-61025786D01*
X208752279Y-60864221D01*
X208645696Y-60717523D01*
X208517477Y-60589304D01*
X208370779Y-60482721D01*
X208209214Y-60400400D01*
X208036761Y-60344366D01*
X208036759Y-60344365D01*
X208036757Y-60344365D01*
X207857669Y-60316000D01*
X207857664Y-60316000D01*
X207676336Y-60316000D01*
X207676331Y-60316000D01*
X207497242Y-60344365D01*
X207324783Y-60400401D01*
X207163220Y-60482721D01*
X207079523Y-60543531D01*
X207016523Y-60589304D01*
X207016521Y-60589306D01*
X207016520Y-60589306D01*
X206888306Y-60717520D01*
X206888306Y-60717521D01*
X206888304Y-60717523D01*
X206853004Y-60766109D01*
X206781721Y-60864220D01*
X206699401Y-61025783D01*
X206643365Y-61198242D01*
X206615000Y-61377330D01*
X206615000Y-61558669D01*
X206640236Y-61718000D01*
X206643366Y-61737761D01*
X206699400Y-61910214D01*
X206781721Y-62071779D01*
X206888304Y-62218477D01*
X207016523Y-62346696D01*
X207163221Y-62453279D01*
X207324786Y-62535600D01*
X207497239Y-62591634D01*
X207563389Y-62602111D01*
X207676331Y-62620000D01*
X207676336Y-62620000D01*
X207857669Y-62620000D01*
X207970611Y-62602111D01*
X208036761Y-62591634D01*
X208209214Y-62535600D01*
X208370779Y-62453279D01*
X208517477Y-62346696D01*
X208645696Y-62218477D01*
X208752279Y-62071779D01*
X208834600Y-61910214D01*
X208890634Y-61737761D01*
X208905954Y-61641033D01*
X208914527Y-61586910D01*
X208944456Y-61523775D01*
X209003768Y-61486844D01*
X209073631Y-61487842D01*
X209131863Y-61526452D01*
X209159473Y-61586910D01*
X209180236Y-61718000D01*
X209183366Y-61737761D01*
X209235442Y-61898034D01*
X209239401Y-61910216D01*
X209292985Y-62015380D01*
X209306500Y-62071675D01*
X209306500Y-62704544D01*
X209341019Y-62878083D01*
X209344948Y-62897831D01*
X209344949Y-62897837D01*
X209420364Y-63079907D01*
X209420371Y-63079920D01*
X209529860Y-63243781D01*
X209529863Y-63243785D01*
X209673537Y-63387459D01*
X209673559Y-63387479D01*
X210547735Y-64261655D01*
X210547764Y-64261686D01*
X210690214Y-64404136D01*
X210690218Y-64404139D01*
X210854079Y-64513628D01*
X210854092Y-64513635D01*
X210982833Y-64566961D01*
X211025744Y-64584735D01*
X211036164Y-64589051D01*
X211132812Y-64608275D01*
X211181135Y-64617887D01*
X211229458Y-64627500D01*
X211229459Y-64627500D01*
X218284542Y-64627500D01*
X218315566Y-64621328D01*
X218381188Y-64608275D01*
X218477836Y-64589051D01*
X218531165Y-64566961D01*
X218659914Y-64513632D01*
X218823782Y-64404139D01*
X218963139Y-64264782D01*
X218963140Y-64264779D01*
X218970206Y-64257714D01*
X218970208Y-64257710D01*
X219852139Y-63375781D01*
X219961631Y-63211914D01*
X220037051Y-63029836D01*
X220075500Y-62836540D01*
X220075500Y-62639460D01*
X220072883Y-62626303D01*
X220070500Y-62602111D01*
X220070500Y-62132230D01*
X220077992Y-62106713D01*
X220081853Y-62080397D01*
X220088538Y-62070796D01*
X220090185Y-62065191D01*
X220101019Y-62050760D01*
X220103806Y-62047561D01*
X220212712Y-61938656D01*
X220246597Y-61883718D01*
X220253298Y-61876030D01*
X220274491Y-61862495D01*
X220293188Y-61845679D01*
X220305041Y-61842985D01*
X220312184Y-61838424D01*
X220324952Y-61838460D01*
X220346779Y-61833500D01*
X229945152Y-61833500D01*
X230012191Y-61853185D01*
X230020638Y-61859124D01*
X230028198Y-61864925D01*
X230047433Y-61876030D01*
X230079498Y-61894542D01*
X230127715Y-61945108D01*
X230141500Y-62001930D01*
X230141500Y-62810216D01*
X230121815Y-62877255D01*
X230105181Y-62897897D01*
X225589220Y-67413858D01*
X225527897Y-67447343D01*
X225458205Y-67442359D01*
X225413858Y-67413858D01*
X224000000Y-66000000D01*
X205124000Y-66000000D01*
X205056961Y-65980315D01*
X205011206Y-65927511D01*
X205000000Y-65876000D01*
X205000000Y-56812872D01*
X245289000Y-56812872D01*
X245289000Y-58291127D01*
X245291760Y-58331834D01*
X245335505Y-58507733D01*
X245335506Y-58507735D01*
X245416038Y-58670116D01*
X245416040Y-58670119D01*
X245529602Y-58811396D01*
X245529603Y-58811397D01*
X245670880Y-58924959D01*
X245670883Y-58924961D01*
X245833264Y-59005493D01*
X245833266Y-59005494D01*
X246009167Y-59049239D01*
X246009163Y-59049239D01*
X246049872Y-59052000D01*
X246779000Y-59052000D01*
X246787010Y-59032661D01*
X246786420Y-59031581D01*
X246791404Y-58961889D01*
X246819905Y-58917542D01*
X247685446Y-58052000D01*
X248392552Y-58052000D01*
X247392551Y-59051999D01*
X247392552Y-59052000D01*
X249685448Y-59052000D01*
X249685448Y-59051999D01*
X248685448Y-58052000D01*
X249392552Y-58052000D01*
X250258094Y-58917542D01*
X250291579Y-58978865D01*
X250288211Y-59025953D01*
X250299000Y-59052000D01*
X251028128Y-59052000D01*
X251068834Y-59049239D01*
X251244733Y-59005494D01*
X251244735Y-59005493D01*
X251407116Y-58924961D01*
X251407119Y-58924959D01*
X251548396Y-58811397D01*
X251548397Y-58811396D01*
X251661959Y-58670119D01*
X251661961Y-58670116D01*
X251742493Y-58507735D01*
X251742494Y-58507733D01*
X251786239Y-58331834D01*
X251789000Y-58291127D01*
X251789000Y-56812872D01*
X251786239Y-56772165D01*
X251742494Y-56596266D01*
X251742493Y-56596264D01*
X251661961Y-56433883D01*
X251661959Y-56433880D01*
X251548397Y-56292603D01*
X251548396Y-56292602D01*
X251407119Y-56179040D01*
X251407116Y-56179038D01*
X251244735Y-56098506D01*
X251244733Y-56098505D01*
X251068832Y-56054760D01*
X251068836Y-56054760D01*
X251028128Y-56052000D01*
X250299000Y-56052000D01*
X250290989Y-56071338D01*
X250291579Y-56072418D01*
X250286595Y-56142110D01*
X250258094Y-56186457D01*
X249392551Y-57052000D01*
X248685448Y-57052000D01*
X249685448Y-56052000D01*
X247392551Y-56052000D01*
X248392552Y-57052000D01*
X247685448Y-57052000D01*
X246819905Y-56186457D01*
X246815566Y-56178511D01*
X246808317Y-56173084D01*
X246799083Y-56148324D01*
X246786420Y-56125134D01*
X246787065Y-56116102D01*
X246783902Y-56107619D01*
X246789519Y-56081799D01*
X246789787Y-56078044D01*
X246779000Y-56052000D01*
X246049872Y-56052000D01*
X246009165Y-56054760D01*
X245833266Y-56098505D01*
X245833264Y-56098506D01*
X245670883Y-56179038D01*
X245670880Y-56179040D01*
X245529603Y-56292602D01*
X245529602Y-56292603D01*
X245416040Y-56433880D01*
X245416038Y-56433883D01*
X245335506Y-56596264D01*
X245335505Y-56596266D01*
X245291760Y-56772165D01*
X245289000Y-56812872D01*
X205000000Y-56812872D01*
X205000000Y-51124000D01*
X205019685Y-51056961D01*
X205072489Y-51011206D01*
X205124000Y-51000000D01*
X259200329Y-51000000D01*
X259267368Y-51019685D01*
G37*
%TD.AperFunction*%
%TD*%
M02*
