M48
; DRILL file {KiCad 9.0.3} date 2026-03-15T08:34:37+0900
; FORMAT={-:-/ absolute / metric / decimal}
; #@! TF.CreationDate,2026-03-15T08:34:37+09:00
; #@! TF.GenerationSoftware,Kicad,Pcbnew,9.0.3
; #@! TF.FileFunction,Plated,1,2,PTH
FMAT,2
METRIC
; #@! TA.AperFunction,Plated,PTH,ViaDrill
T1C0.300
; #@! TA.AperFunction,Plated,PTH,ComponentDrill
T2C0.710
; #@! TA.AperFunction,Plated,PTH,ComponentDrill
T3C0.760
; #@! TA.AperFunction,Plated,PTH,ComponentDrill
T4C0.800
; #@! TA.AperFunction,Plated,PTH,ComponentDrill
T5C1.000
; #@! TA.AperFunction,Plated,PTH,ComponentDrill
T6C1.200
%
G90
G05
T1
X87.5Y-57.5
X87.5Y-60.0
X87.5Y-62.5
X87.5Y-65.0
X87.5Y-67.5
X87.5Y-70.0
X87.5Y-72.5
X87.5Y-75.0
X90.0Y-57.5
X90.0Y-60.0
X90.0Y-62.5
X90.0Y-65.0
X90.0Y-67.5
X90.0Y-70.0
X90.0Y-72.5
X90.0Y-75.0
X92.5Y-52.5
X92.5Y-55.0
X92.5Y-57.5
X92.5Y-60.0
X92.5Y-62.5
X92.5Y-65.0
X92.5Y-67.5
X92.5Y-70.0
X92.5Y-72.5
X92.5Y-75.0
X92.5Y-77.5
X92.5Y-80.0
X95.0Y-52.5
X95.0Y-55.0
X95.0Y-57.5
X95.0Y-60.0
X95.0Y-62.5
X95.0Y-65.0
X95.0Y-67.5
X95.0Y-70.0
X95.0Y-72.5
X95.0Y-75.0
X95.0Y-77.5
X95.0Y-80.0
X96.237Y-71.809
X97.5Y-52.5
X97.5Y-60.0
X97.5Y-75.0
X97.5Y-77.5
X97.5Y-80.0
X100.0Y-52.5
X100.0Y-65.0
X100.0Y-67.5
X100.0Y-75.0
X100.0Y-77.5
X100.0Y-80.0
X102.5Y-52.5
X102.5Y-55.0
X102.5Y-65.0
X102.5Y-75.0
X102.5Y-77.5
X102.5Y-80.0
X105.0Y-52.5
X105.0Y-55.0
X105.0Y-57.5
X105.0Y-60.0
X105.0Y-62.5
X105.0Y-75.0
X105.0Y-77.5
X105.0Y-80.0
X107.5Y-52.5
X107.5Y-57.5
X107.5Y-60.0
X107.5Y-62.5
X107.5Y-75.0
X107.5Y-77.5
X107.5Y-80.0
X110.0Y-52.5
X110.0Y-75.0
X110.0Y-77.5
X110.0Y-80.0
X112.5Y-52.5
X112.5Y-75.0
X112.5Y-77.5
X112.5Y-80.0
X115.0Y-52.5
X115.0Y-55.0
X115.0Y-75.0
X115.0Y-77.5
X115.0Y-80.0
X117.5Y-52.5
X117.5Y-55.0
X117.5Y-57.5
X117.5Y-60.0
X117.5Y-62.5
X117.5Y-75.0
X117.5Y-77.5
X117.5Y-80.0
X120.0Y-52.5
X120.0Y-57.5
X120.0Y-60.0
X120.0Y-75.0
X120.0Y-77.5
X120.0Y-80.0
X122.5Y-52.5
X122.5Y-75.0
X122.5Y-77.5
X122.5Y-80.0
X125.0Y-52.5
X125.0Y-75.0
X125.0Y-77.5
X125.0Y-80.0
X127.5Y-52.5
X127.5Y-55.0
X127.5Y-75.0
X127.5Y-77.5
X127.5Y-80.0
X130.0Y-52.5
X130.0Y-55.0
X130.0Y-57.5
X130.0Y-60.0
X130.0Y-62.5
X130.0Y-75.0
X130.0Y-77.5
X130.0Y-80.0
X132.5Y-52.5
X132.5Y-57.5
X132.5Y-60.0
X132.5Y-77.5
X132.5Y-80.0
X135.0Y-52.5
X135.0Y-67.5
X135.0Y-70.0
X135.0Y-72.5
X135.0Y-75.0
X135.0Y-77.5
X135.0Y-80.0
X137.5Y-52.5
X137.5Y-55.0
X137.5Y-67.5
X137.5Y-70.0
X137.5Y-72.5
X137.5Y-75.0
X137.5Y-77.5
X137.5Y-80.0
X140.0Y-52.5
X140.0Y-55.0
X140.0Y-67.5
X140.0Y-70.0
X140.0Y-72.5
X140.0Y-75.0
X140.0Y-77.5
X140.0Y-80.0
X142.5Y-77.5
X142.5Y-80.0
X145.0Y-52.5
X145.0Y-57.5
X145.0Y-60.0
X145.0Y-65.0
X145.0Y-67.5
X145.0Y-70.0
X145.0Y-72.5
X145.0Y-77.5
X145.0Y-80.0
X147.5Y-52.5
X147.5Y-65.0
X147.5Y-67.5
X147.5Y-72.5
X147.5Y-77.5
X147.5Y-80.0
X150.0Y-52.5
X150.0Y-55.0
X150.0Y-72.5
X150.0Y-77.5
X150.0Y-80.0
X152.5Y-52.5
X152.5Y-55.0
X152.5Y-65.0
X152.5Y-67.5
X152.5Y-70.0
X152.5Y-72.5
X152.5Y-77.5
X152.5Y-80.0
X155.0Y-52.5
X155.0Y-55.0
X155.0Y-57.5
X155.0Y-60.0
X155.0Y-62.5
X155.0Y-65.0
X155.0Y-67.5
X155.0Y-70.0
X155.0Y-72.5
X155.0Y-77.5
X155.0Y-80.0
X157.5Y-57.5
X157.5Y-60.0
X157.5Y-62.5
X157.5Y-65.0
X157.5Y-67.5
X157.5Y-70.0
X157.5Y-72.5
X160.0Y-55.0
X160.0Y-57.5
X160.0Y-67.5
X160.0Y-70.0
X160.0Y-72.5
X162.5Y-52.5
X162.5Y-55.0
X162.5Y-57.5
X162.5Y-65.0
X162.5Y-67.5
X162.5Y-70.0
X162.5Y-72.5
X162.5Y-77.5
X162.5Y-80.0
X165.0Y-55.0
X165.0Y-57.5
X165.0Y-67.5
X165.0Y-72.5
X165.0Y-77.5
X165.0Y-80.0
X167.5Y-67.5
X167.5Y-72.5
X167.5Y-77.5
X167.5Y-80.0
X168.656Y-58.801
X170.0Y-72.5
X170.0Y-77.5
X170.0Y-80.0
X171.005Y-66.484
X172.5Y-77.5
X172.5Y-80.0
X175.0Y-77.5
X175.0Y-80.0
X177.5Y-77.5
X177.5Y-80.0
X180.0Y-52.5
X180.0Y-55.0
X180.0Y-57.5
X180.0Y-77.5
X180.0Y-80.0
X182.5Y-52.5
X182.5Y-55.0
X182.5Y-57.5
X182.5Y-77.5
X182.5Y-80.0
X185.0Y-52.5
X185.0Y-55.0
X185.0Y-57.5
X185.0Y-60.0
X185.0Y-62.5
X185.0Y-65.0
X185.0Y-72.5
X185.0Y-77.5
X185.0Y-80.0
X187.5Y-52.5
X187.5Y-70.0
X187.5Y-75.0
X187.5Y-77.5
X187.5Y-80.0
X190.0Y-52.5
X190.0Y-67.5
X190.0Y-72.5
X190.0Y-77.5
X190.0Y-80.0
X192.5Y-52.5
X192.5Y-55.0
X192.5Y-65.0
X192.5Y-70.0
X192.5Y-72.5
X192.5Y-80.0
X195.0Y-52.5
X195.0Y-55.0
X195.0Y-57.5
X195.0Y-65.0
X195.0Y-67.5
X195.0Y-70.0
X195.0Y-72.5
X195.0Y-80.0
X197.5Y-52.5
X197.5Y-55.0
X197.5Y-57.5
X197.5Y-65.0
X197.5Y-67.5
X197.5Y-70.0
X197.5Y-72.5
X197.5Y-75.0
X197.5Y-80.0
X200.0Y-52.5
X200.0Y-55.0
X200.0Y-57.5
X200.0Y-65.0
X200.0Y-67.5
X200.0Y-70.0
X200.0Y-72.5
X200.0Y-80.0
X202.5Y-52.5
X202.5Y-55.0
X202.5Y-57.5
X202.5Y-65.0
X202.5Y-77.5
X202.5Y-80.0
X205.0Y-67.5
X205.0Y-70.0
X205.0Y-77.5
X205.0Y-80.0
X207.5Y-52.5
X207.5Y-55.0
X207.5Y-57.5
X207.5Y-65.0
X207.5Y-77.5
X207.5Y-80.0
X210.0Y-52.5
X210.0Y-55.0
X210.0Y-57.5
X210.0Y-65.0
X210.0Y-67.5
X210.0Y-70.0
X210.0Y-72.5
X210.0Y-80.0
X212.5Y-52.5
X212.5Y-55.0
X212.5Y-57.5
X212.5Y-65.0
X212.5Y-67.5
X212.5Y-70.0
X212.5Y-72.5
X212.5Y-80.0
X215.0Y-52.5
X215.0Y-55.0
X215.0Y-57.5
X215.0Y-65.0
X215.0Y-67.5
X215.0Y-70.0
X215.0Y-72.5
X215.0Y-80.0
X217.5Y-52.5
X217.5Y-55.0
X217.5Y-57.5
X217.5Y-65.0
X217.5Y-67.5
X217.5Y-70.0
X217.5Y-72.5
X217.5Y-80.0
X220.0Y-52.5
X220.0Y-55.0
X220.0Y-65.0
X220.0Y-67.5
X220.0Y-70.0
X220.0Y-77.5
X220.0Y-80.0
X222.5Y-52.5
X222.5Y-55.0
X222.5Y-57.5
X222.5Y-62.5
X222.5Y-65.0
X222.5Y-75.0
X222.5Y-77.5
X222.5Y-80.0
X225.0Y-52.5
X225.0Y-55.0
X225.0Y-57.5
X225.0Y-62.5
X225.0Y-65.0
X227.5Y-52.5
X227.5Y-55.0
X227.5Y-57.5
X227.5Y-62.5
X227.5Y-70.0
X227.5Y-72.5
X227.5Y-77.5
X227.5Y-80.0
X230.0Y-52.5
X230.0Y-55.0
X230.0Y-67.5
X230.0Y-70.0
X230.0Y-72.5
X230.0Y-75.0
X230.0Y-77.5
X230.0Y-80.0
X232.5Y-52.5
X232.5Y-55.0
X232.5Y-67.5
X232.5Y-70.0
X232.5Y-72.5
X232.5Y-75.0
X232.5Y-77.5
X232.5Y-80.0
X235.0Y-52.5
X235.0Y-55.0
X235.0Y-67.5
X235.0Y-70.0
X235.0Y-72.5
X235.0Y-75.0
X235.0Y-77.5
X235.0Y-80.0
X237.5Y-52.5
X237.5Y-55.0
X237.5Y-75.0
X237.5Y-77.5
X237.5Y-80.0
X240.0Y-52.5
X240.0Y-55.0
X240.0Y-57.5
X240.0Y-60.0
X240.0Y-62.5
X240.0Y-65.0
X240.0Y-67.5
X240.0Y-70.0
X240.0Y-75.0
X240.0Y-77.5
X240.0Y-80.0
X242.5Y-52.5
X242.5Y-55.0
X242.5Y-57.5
X242.5Y-60.0
X242.5Y-62.5
X242.5Y-65.0
X242.5Y-67.5
X242.5Y-70.0
X242.5Y-80.0
X245.0Y-52.5
X245.0Y-55.0
X245.0Y-60.0
X245.0Y-65.0
X245.0Y-67.5
X245.0Y-70.0
X245.0Y-77.5
X245.0Y-80.0
X247.5Y-52.5
X247.5Y-55.0
X247.5Y-60.0
X247.5Y-75.0
X247.5Y-77.5
X247.5Y-80.0
X250.0Y-52.5
X250.0Y-55.0
X250.0Y-60.0
X250.0Y-72.5
X250.0Y-75.0
X250.0Y-77.5
X250.0Y-80.0
X252.5Y-52.5
X252.5Y-55.0
X252.5Y-60.0
X252.5Y-62.5
X252.5Y-65.0
X252.5Y-67.5
X252.5Y-70.0
X252.5Y-72.5
X252.5Y-75.0
X252.5Y-77.5
X252.5Y-80.0
X255.0Y-52.5
X255.0Y-55.0
X255.0Y-57.5
X255.0Y-60.0
X255.0Y-62.5
X255.0Y-65.0
X255.0Y-67.5
X255.0Y-70.0
X255.0Y-72.5
X255.0Y-75.0
X255.0Y-77.5
X255.0Y-80.0
X257.5Y-52.5
X257.5Y-55.0
X257.5Y-57.5
X257.5Y-60.0
X257.5Y-62.5
X257.5Y-65.0
X257.5Y-67.5
X257.5Y-70.0
X257.5Y-72.5
X257.5Y-75.0
X257.5Y-77.5
X257.5Y-80.0
X260.0Y-57.5
X260.0Y-60.0
X260.0Y-62.5
X260.0Y-65.0
X260.0Y-67.5
X260.0Y-70.0
X260.0Y-72.5
X260.0Y-75.0
T2
X237.607Y-73.381
X242.707Y-75.971
T3
X195.067Y-61.468
X197.607Y-61.468
X200.147Y-61.468
X202.687Y-61.468
X207.767Y-61.468
X210.307Y-61.468
X212.847Y-61.468
T4
X159.893Y-61.087
X159.893Y-63.587
X164.592Y-63.5
X164.719Y-60.071
X167.132Y-63.5
X167.259Y-60.071
X178.562Y-60.198
X178.562Y-63.881
X181.102Y-60.198
X181.102Y-63.881
X187.447Y-55.245
X187.447Y-57.745
X187.447Y-61.341
X187.447Y-63.841
X192.532Y-75.304
X192.532Y-77.304
X216.535Y-74.383
X216.535Y-77.883
X219.07Y-58.42
X219.07Y-60.92
T5
X98.933Y-69.402
X101.473Y-69.402
X104.013Y-69.402
X106.553Y-69.402
X109.093Y-69.402
X111.633Y-69.402
X119.888Y-69.402
X122.428Y-69.402
X124.968Y-69.402
X127.508Y-69.402
X130.048Y-69.402
X132.588Y-69.402
X147.471Y-69.596
X150.011Y-69.596
X165.989Y-69.977
X166.248Y-53.467
X168.529Y-69.977
X168.788Y-53.467
X171.069Y-69.977
X173.609Y-69.977
X175.138Y-53.467
X176.149Y-69.977
X177.678Y-53.467
X178.689Y-69.977
X201.803Y-74.549
X204.343Y-74.549
X206.883Y-74.549
T6
X231.142Y-60.198
X236.342Y-60.198
T5
X99.75Y-55.5G85X97.25Y-55.5
G05
X99.75Y-62.9G85X97.25Y-62.9
G05
X102.9Y-58.75G85X102.9Y-61.25
G05
X111.75Y-55.5G85X109.25Y-55.5
G05
X111.75Y-62.9G85X109.25Y-62.9
G05
X114.9Y-58.75G85X114.9Y-61.25
G05
X123.75Y-55.5G85X121.25Y-55.5
G05
X123.75Y-62.9G85X121.25Y-62.9
G05
X126.9Y-58.75G85X126.9Y-61.25
G05
X135.75Y-55.5G85X133.25Y-55.5
G05
X135.75Y-62.9G85X133.25Y-62.9
G05
X138.9Y-58.75G85X138.9Y-61.25
G05
X147.75Y-55.5G85X145.25Y-55.5
G05
X147.75Y-62.9G85X145.25Y-62.9
G05
X150.9Y-58.75G85X150.9Y-61.25
G05
X250.289Y-57.552G85X246.789Y-57.552
G05
X250.289Y-63.352G85X246.789Y-63.352
G05
M30
