%TF.GenerationSoftware,KiCad,Pcbnew,9.0.3*%
%TF.CreationDate,2026-03-15T08:34:23+09:00*%
%TF.ProjectId,powerAndJack,706f7765-7241-46e6-944a-61636b2e6b69,rev?*%
%TF.SameCoordinates,Original*%
%TF.FileFunction,Soldermask,Bot*%
%TF.FilePolarity,Negative*%
%FSLAX46Y46*%
G04 Gerber Fmt 4.6, Leading zero omitted, Abs format (unit mm)*
G04 Created by KiCad (PCBNEW 9.0.3) date 2026-03-15 08:34:23*
%MOMM*%
%LPD*%
G01*
G04 APERTURE LIST*
G04 Aperture macros list*
%AMRoundRect*
0 Rectangle with rounded corners*
0 $1 Rounding radius*
0 $2 $3 $4 $5 $6 $7 $8 $9 X,Y pos of 4 corners*
0 Add a 4 corners polygon primitive as box body*
4,1,4,$2,$3,$4,$5,$6,$7,$8,$9,$2,$3,0*
0 Add four circle primitives for the rounded corners*
1,1,$1+$1,$2,$3*
1,1,$1+$1,$4,$5*
1,1,$1+$1,$6,$7*
1,1,$1+$1,$8,$9*
0 Add four rect primitives between the rounded corners*
20,1,$1+$1,$2,$3,$4,$5,0*
20,1,$1+$1,$4,$5,$6,$7,0*
20,1,$1+$1,$6,$7,$8,$9,0*
20,1,$1+$1,$8,$9,$2,$3,0*%
G04 Aperture macros list end*
%ADD10C,1.600000*%
%ADD11RoundRect,0.333333X-0.666667X1.766667X-0.666667X-1.766667X0.666667X-1.766667X0.666667X1.766667X0*%
%ADD12RoundRect,0.333333X1.766667X0.666667X-1.766667X0.666667X-1.766667X-0.666667X1.766667X-0.666667X0*%
%ADD13R,1.217000X1.217000*%
%ADD14C,1.217000*%
%ADD15R,1.700000X1.700000*%
%ADD16C,1.700000*%
%ADD17R,1.303000X1.303000*%
%ADD18C,1.303000*%
%ADD19RoundRect,0.333333X2.416667X0.666667X-2.416667X0.666667X-2.416667X-0.666667X2.416667X-0.666667X0*%
%ADD20RoundRect,0.250000X0.550000X-0.550000X0.550000X0.550000X-0.550000X0.550000X-0.550000X-0.550000X0*%
%ADD21R,1.500000X2.300000*%
%ADD22O,1.500000X2.300000*%
%ADD23C,3.000000*%
G04 APERTURE END LIST*
D10*
%TO.C,R4*%
X178562000Y-60198000D03*
X181102000Y-60198000D03*
%TD*%
%TO.C,R1*%
X164719000Y-60071000D03*
X167259000Y-60071000D03*
%TD*%
%TO.C,R3*%
X178562000Y-63881000D03*
X181102000Y-63881000D03*
%TD*%
D11*
%TO.C,J10*%
X138900000Y-60000000D03*
D12*
X134500000Y-55500000D03*
X134500000Y-62900000D03*
%TD*%
D13*
%TO.C,PwF3*%
X242707000Y-75971000D03*
D14*
X237607000Y-73381000D03*
%TD*%
D15*
%TO.C,J8*%
X168788000Y-53467000D03*
D16*
X166248000Y-53467000D03*
%TD*%
D17*
%TO.C,PS1*%
X212847000Y-61468000D03*
D18*
X210307000Y-61468000D03*
X207767000Y-61468000D03*
X202687000Y-61468000D03*
X200147000Y-61468000D03*
X197607000Y-61468000D03*
X195067000Y-61468000D03*
%TD*%
D19*
%TO.C,J4*%
X248539000Y-57552000D03*
X248539000Y-63352000D03*
%TD*%
D15*
%TO.C,J13*%
X132588000Y-69402000D03*
D16*
X130048000Y-69402000D03*
X127508000Y-69402000D03*
X124968000Y-69402000D03*
X122428000Y-69402000D03*
X119888000Y-69402000D03*
%TD*%
D20*
%TO.C,C3*%
X187447000Y-57745000D03*
D10*
X187447000Y-55245000D03*
%TD*%
D20*
%TO.C,C1*%
X219070000Y-60920000D03*
D10*
X219070000Y-58420000D03*
%TD*%
D11*
%TO.C,J11*%
X126900000Y-60000000D03*
D12*
X122500000Y-55500000D03*
X122500000Y-62900000D03*
%TD*%
D21*
%TO.C,U2*%
X206883000Y-74549000D03*
D22*
X204343000Y-74549000D03*
X201803000Y-74549000D03*
%TD*%
D11*
%TO.C,J1*%
X102900000Y-60000000D03*
D12*
X98500000Y-55500000D03*
X98500000Y-62900000D03*
%TD*%
D15*
%TO.C,J12*%
X150011000Y-69596000D03*
D16*
X147471000Y-69596000D03*
%TD*%
D10*
%TO.C,R2*%
X164592000Y-63500000D03*
X167132000Y-63500000D03*
%TD*%
D15*
%TO.C,J9*%
X177678000Y-53467000D03*
D16*
X175138000Y-53467000D03*
%TD*%
D20*
%TO.C,C6*%
X216535000Y-77883000D03*
D10*
X216535000Y-74383000D03*
%TD*%
D20*
%TO.C,C5*%
X192532000Y-77304000D03*
D10*
X192532000Y-75304000D03*
%TD*%
D15*
%TO.C,J7*%
X178689000Y-69977000D03*
D16*
X176149000Y-69977000D03*
X173609000Y-69977000D03*
X171069000Y-69977000D03*
X168529000Y-69977000D03*
X165989000Y-69977000D03*
%TD*%
D20*
%TO.C,C4*%
X159893000Y-63587000D03*
D10*
X159893000Y-61087000D03*
%TD*%
D20*
%TO.C,C2*%
X187447000Y-63841000D03*
D10*
X187447000Y-61341000D03*
%TD*%
D11*
%TO.C,J3*%
X150900000Y-60000000D03*
D12*
X146500000Y-55500000D03*
X146500000Y-62900000D03*
%TD*%
D11*
%TO.C,J2*%
X114900000Y-60000000D03*
D12*
X110500000Y-55500000D03*
X110500000Y-62900000D03*
%TD*%
D15*
%TO.C,J6*%
X111633000Y-69402000D03*
D16*
X109093000Y-69402000D03*
X106553000Y-69402000D03*
X104013000Y-69402000D03*
X101473000Y-69402000D03*
X98933000Y-69402000D03*
%TD*%
D23*
%TO.C,SW1*%
X236342000Y-60198000D03*
X231142000Y-60198000D03*
%TD*%
M02*
