%TF.GenerationSoftware,KiCad,Pcbnew,9.0.3*%
%TF.CreationDate,2026-03-15T08:34:23+09:00*%
%TF.ProjectId,powerAndJack,706f7765-7241-46e6-944a-61636b2e6b69,rev?*%
%TF.SameCoordinates,Original*%
%TF.FileFunction,Legend,Top*%
%TF.FilePolarity,Positive*%
%FSLAX46Y46*%
G04 Gerber Fmt 4.6, Leading zero omitted, Abs format (unit mm)*
G04 Created by KiCad (PCBNEW 9.0.3) date 2026-03-15 08:34:23*
%MOMM*%
%LPD*%
G01*
G04 APERTURE LIST*
%ADD10C,0.100000*%
%ADD11C,0.746631*%
%ADD12C,0.200000*%
%ADD13C,0.150000*%
%ADD14C,0.254000*%
%ADD15C,0.120000*%
G04 APERTURE END LIST*
D10*
X258064000Y-56168554D02*
X258064000Y-57912000D01*
X257175000Y-64131022D02*
X259080000Y-64131022D01*
X259461000Y-64131022D02*
G75*
G02*
X256744064Y-64131022I-1358468J0D01*
G01*
X256744064Y-64131022D02*
G75*
G02*
X259461000Y-64131022I1358468J0D01*
G01*
D11*
X258437315Y-60897582D02*
G75*
G02*
X257690685Y-60897582I-373315J0D01*
G01*
X257690685Y-60897582D02*
G75*
G02*
X258437315Y-60897582I373315J0D01*
G01*
D10*
X259422468Y-57019022D02*
G75*
G02*
X256705532Y-57019022I-1358468J0D01*
G01*
X256705532Y-57019022D02*
G75*
G02*
X259422468Y-57019022I1358468J0D01*
G01*
X258064000Y-59559022D02*
X258064000Y-58416022D01*
X257117495Y-61844087D02*
G75*
G02*
X259010505Y-61844087I946505J946505D01*
G01*
X258064000Y-62773101D02*
X258064000Y-60897582D01*
X258127500Y-63115022D02*
X258127500Y-65147022D01*
X106235038Y-67091877D02*
X106187419Y-67158544D01*
X106187419Y-67158544D02*
X106187419Y-67258544D01*
X106187419Y-67258544D02*
X106235038Y-67358544D01*
X106235038Y-67358544D02*
X106330276Y-67425211D01*
X106330276Y-67425211D02*
X106425514Y-67458544D01*
X106425514Y-67458544D02*
X106615990Y-67491877D01*
X106615990Y-67491877D02*
X106758847Y-67491877D01*
X106758847Y-67491877D02*
X106949323Y-67458544D01*
X106949323Y-67458544D02*
X107044561Y-67425211D01*
X107044561Y-67425211D02*
X107139800Y-67358544D01*
X107139800Y-67358544D02*
X107187419Y-67258544D01*
X107187419Y-67258544D02*
X107187419Y-67191877D01*
X107187419Y-67191877D02*
X107139800Y-67091877D01*
X107139800Y-67091877D02*
X107092180Y-67058544D01*
X107092180Y-67058544D02*
X106758847Y-67058544D01*
X106758847Y-67058544D02*
X106758847Y-67191877D01*
X106901704Y-66791877D02*
X106901704Y-66458544D01*
X107187419Y-66858544D02*
X106187419Y-66625211D01*
X106187419Y-66625211D02*
X107187419Y-66391877D01*
X106187419Y-66258544D02*
X106187419Y-65858544D01*
X107187419Y-66058544D02*
X106187419Y-66058544D01*
X106663609Y-65625211D02*
X106663609Y-65391878D01*
X107187419Y-65291878D02*
X107187419Y-65625211D01*
X107187419Y-65625211D02*
X106187419Y-65625211D01*
X106187419Y-65625211D02*
X106187419Y-65291878D01*
D12*
X89626724Y-57920904D02*
X90626724Y-57920904D01*
X90626724Y-57920904D02*
X89912439Y-58254237D01*
X89912439Y-58254237D02*
X90626724Y-58587570D01*
X90626724Y-58587570D02*
X89626724Y-58587570D01*
X89721963Y-59635189D02*
X89674344Y-59587570D01*
X89674344Y-59587570D02*
X89626724Y-59444713D01*
X89626724Y-59444713D02*
X89626724Y-59349475D01*
X89626724Y-59349475D02*
X89674344Y-59206618D01*
X89674344Y-59206618D02*
X89769582Y-59111380D01*
X89769582Y-59111380D02*
X89864820Y-59063761D01*
X89864820Y-59063761D02*
X90055296Y-59016142D01*
X90055296Y-59016142D02*
X90198153Y-59016142D01*
X90198153Y-59016142D02*
X90388629Y-59063761D01*
X90388629Y-59063761D02*
X90483867Y-59111380D01*
X90483867Y-59111380D02*
X90579105Y-59206618D01*
X90579105Y-59206618D02*
X90626724Y-59349475D01*
X90626724Y-59349475D02*
X90626724Y-59444713D01*
X90626724Y-59444713D02*
X90579105Y-59587570D01*
X90579105Y-59587570D02*
X90531486Y-59635189D01*
X90531486Y-60016142D02*
X90579105Y-60063761D01*
X90579105Y-60063761D02*
X90626724Y-60158999D01*
X90626724Y-60158999D02*
X90626724Y-60397094D01*
X90626724Y-60397094D02*
X90579105Y-60492332D01*
X90579105Y-60492332D02*
X90531486Y-60539951D01*
X90531486Y-60539951D02*
X90436248Y-60587570D01*
X90436248Y-60587570D02*
X90341010Y-60587570D01*
X90341010Y-60587570D02*
X90198153Y-60539951D01*
X90198153Y-60539951D02*
X89626724Y-59968523D01*
X89626724Y-59968523D02*
X89626724Y-60587570D01*
X89626724Y-61778047D02*
X90626724Y-61778047D01*
X90626724Y-61778047D02*
X90626724Y-62158999D01*
X90626724Y-62158999D02*
X90579105Y-62254237D01*
X90579105Y-62254237D02*
X90531486Y-62301856D01*
X90531486Y-62301856D02*
X90436248Y-62349475D01*
X90436248Y-62349475D02*
X90293391Y-62349475D01*
X90293391Y-62349475D02*
X90198153Y-62301856D01*
X90198153Y-62301856D02*
X90150534Y-62254237D01*
X90150534Y-62254237D02*
X90102915Y-62158999D01*
X90102915Y-62158999D02*
X90102915Y-61778047D01*
X89626724Y-62920904D02*
X89674344Y-62825666D01*
X89674344Y-62825666D02*
X89721963Y-62778047D01*
X89721963Y-62778047D02*
X89817201Y-62730428D01*
X89817201Y-62730428D02*
X90102915Y-62730428D01*
X90102915Y-62730428D02*
X90198153Y-62778047D01*
X90198153Y-62778047D02*
X90245772Y-62825666D01*
X90245772Y-62825666D02*
X90293391Y-62920904D01*
X90293391Y-62920904D02*
X90293391Y-63063761D01*
X90293391Y-63063761D02*
X90245772Y-63158999D01*
X90245772Y-63158999D02*
X90198153Y-63206618D01*
X90198153Y-63206618D02*
X90102915Y-63254237D01*
X90102915Y-63254237D02*
X89817201Y-63254237D01*
X89817201Y-63254237D02*
X89721963Y-63206618D01*
X89721963Y-63206618D02*
X89674344Y-63158999D01*
X89674344Y-63158999D02*
X89626724Y-63063761D01*
X89626724Y-63063761D02*
X89626724Y-62920904D01*
X90293391Y-63587571D02*
X89626724Y-63778047D01*
X89626724Y-63778047D02*
X90102915Y-63968523D01*
X90102915Y-63968523D02*
X89626724Y-64158999D01*
X89626724Y-64158999D02*
X90293391Y-64349475D01*
X89674344Y-65111380D02*
X89626724Y-65016142D01*
X89626724Y-65016142D02*
X89626724Y-64825666D01*
X89626724Y-64825666D02*
X89674344Y-64730428D01*
X89674344Y-64730428D02*
X89769582Y-64682809D01*
X89769582Y-64682809D02*
X90150534Y-64682809D01*
X90150534Y-64682809D02*
X90245772Y-64730428D01*
X90245772Y-64730428D02*
X90293391Y-64825666D01*
X90293391Y-64825666D02*
X90293391Y-65016142D01*
X90293391Y-65016142D02*
X90245772Y-65111380D01*
X90245772Y-65111380D02*
X90150534Y-65158999D01*
X90150534Y-65158999D02*
X90055296Y-65158999D01*
X90055296Y-65158999D02*
X89960058Y-64682809D01*
X89626724Y-65587571D02*
X90293391Y-65587571D01*
X90102915Y-65587571D02*
X90198153Y-65635190D01*
X90198153Y-65635190D02*
X90245772Y-65682809D01*
X90245772Y-65682809D02*
X90293391Y-65778047D01*
X90293391Y-65778047D02*
X90293391Y-65873285D01*
X90626724Y-66492333D02*
X89912439Y-66492333D01*
X89912439Y-66492333D02*
X89769582Y-66444714D01*
X89769582Y-66444714D02*
X89674344Y-66349476D01*
X89674344Y-66349476D02*
X89626724Y-66206619D01*
X89626724Y-66206619D02*
X89626724Y-66111381D01*
X89626724Y-67397095D02*
X90150534Y-67397095D01*
X90150534Y-67397095D02*
X90245772Y-67349476D01*
X90245772Y-67349476D02*
X90293391Y-67254238D01*
X90293391Y-67254238D02*
X90293391Y-67063762D01*
X90293391Y-67063762D02*
X90245772Y-66968524D01*
X89674344Y-67397095D02*
X89626724Y-67301857D01*
X89626724Y-67301857D02*
X89626724Y-67063762D01*
X89626724Y-67063762D02*
X89674344Y-66968524D01*
X89674344Y-66968524D02*
X89769582Y-66920905D01*
X89769582Y-66920905D02*
X89864820Y-66920905D01*
X89864820Y-66920905D02*
X89960058Y-66968524D01*
X89960058Y-66968524D02*
X90007677Y-67063762D01*
X90007677Y-67063762D02*
X90007677Y-67301857D01*
X90007677Y-67301857D02*
X90055296Y-67397095D01*
X89674344Y-68301857D02*
X89626724Y-68206619D01*
X89626724Y-68206619D02*
X89626724Y-68016143D01*
X89626724Y-68016143D02*
X89674344Y-67920905D01*
X89674344Y-67920905D02*
X89721963Y-67873286D01*
X89721963Y-67873286D02*
X89817201Y-67825667D01*
X89817201Y-67825667D02*
X90102915Y-67825667D01*
X90102915Y-67825667D02*
X90198153Y-67873286D01*
X90198153Y-67873286D02*
X90245772Y-67920905D01*
X90245772Y-67920905D02*
X90293391Y-68016143D01*
X90293391Y-68016143D02*
X90293391Y-68206619D01*
X90293391Y-68206619D02*
X90245772Y-68301857D01*
X89626724Y-68730429D02*
X90626724Y-68730429D01*
X90007677Y-68825667D02*
X89626724Y-69111381D01*
X90293391Y-69111381D02*
X89912439Y-68730429D01*
X90150534Y-69873286D02*
X90102915Y-70016143D01*
X90102915Y-70016143D02*
X90055296Y-70063762D01*
X90055296Y-70063762D02*
X89960058Y-70111381D01*
X89960058Y-70111381D02*
X89817201Y-70111381D01*
X89817201Y-70111381D02*
X89721963Y-70063762D01*
X89721963Y-70063762D02*
X89674344Y-70016143D01*
X89674344Y-70016143D02*
X89626724Y-69920905D01*
X89626724Y-69920905D02*
X89626724Y-69539953D01*
X89626724Y-69539953D02*
X90626724Y-69539953D01*
X90626724Y-69539953D02*
X90626724Y-69873286D01*
X90626724Y-69873286D02*
X90579105Y-69968524D01*
X90579105Y-69968524D02*
X90531486Y-70016143D01*
X90531486Y-70016143D02*
X90436248Y-70063762D01*
X90436248Y-70063762D02*
X90341010Y-70063762D01*
X90341010Y-70063762D02*
X90245772Y-70016143D01*
X90245772Y-70016143D02*
X90198153Y-69968524D01*
X90198153Y-69968524D02*
X90150534Y-69873286D01*
X90150534Y-69873286D02*
X90150534Y-69539953D01*
X89626724Y-70682810D02*
X89674344Y-70587572D01*
X89674344Y-70587572D02*
X89721963Y-70539953D01*
X89721963Y-70539953D02*
X89817201Y-70492334D01*
X89817201Y-70492334D02*
X90102915Y-70492334D01*
X90102915Y-70492334D02*
X90198153Y-70539953D01*
X90198153Y-70539953D02*
X90245772Y-70587572D01*
X90245772Y-70587572D02*
X90293391Y-70682810D01*
X90293391Y-70682810D02*
X90293391Y-70825667D01*
X90293391Y-70825667D02*
X90245772Y-70920905D01*
X90245772Y-70920905D02*
X90198153Y-70968524D01*
X90198153Y-70968524D02*
X90102915Y-71016143D01*
X90102915Y-71016143D02*
X89817201Y-71016143D01*
X89817201Y-71016143D02*
X89721963Y-70968524D01*
X89721963Y-70968524D02*
X89674344Y-70920905D01*
X89674344Y-70920905D02*
X89626724Y-70825667D01*
X89626724Y-70825667D02*
X89626724Y-70682810D01*
X89626724Y-71444715D02*
X90293391Y-71444715D01*
X90102915Y-71444715D02*
X90198153Y-71492334D01*
X90198153Y-71492334D02*
X90245772Y-71539953D01*
X90245772Y-71539953D02*
X90293391Y-71635191D01*
X90293391Y-71635191D02*
X90293391Y-71730429D01*
X89626724Y-72492334D02*
X90150534Y-72492334D01*
X90150534Y-72492334D02*
X90245772Y-72444715D01*
X90245772Y-72444715D02*
X90293391Y-72349477D01*
X90293391Y-72349477D02*
X90293391Y-72159001D01*
X90293391Y-72159001D02*
X90245772Y-72063763D01*
X89674344Y-72492334D02*
X89626724Y-72397096D01*
X89626724Y-72397096D02*
X89626724Y-72159001D01*
X89626724Y-72159001D02*
X89674344Y-72063763D01*
X89674344Y-72063763D02*
X89769582Y-72016144D01*
X89769582Y-72016144D02*
X89864820Y-72016144D01*
X89864820Y-72016144D02*
X89960058Y-72063763D01*
X89960058Y-72063763D02*
X90007677Y-72159001D01*
X90007677Y-72159001D02*
X90007677Y-72397096D01*
X90007677Y-72397096D02*
X90055296Y-72492334D01*
X89626724Y-73397096D02*
X90626724Y-73397096D01*
X89674344Y-73397096D02*
X89626724Y-73301858D01*
X89626724Y-73301858D02*
X89626724Y-73111382D01*
X89626724Y-73111382D02*
X89674344Y-73016144D01*
X89674344Y-73016144D02*
X89721963Y-72968525D01*
X89721963Y-72968525D02*
X89817201Y-72920906D01*
X89817201Y-72920906D02*
X90102915Y-72920906D01*
X90102915Y-72920906D02*
X90198153Y-72968525D01*
X90198153Y-72968525D02*
X90245772Y-73016144D01*
X90245772Y-73016144D02*
X90293391Y-73111382D01*
X90293391Y-73111382D02*
X90293391Y-73301858D01*
X90293391Y-73301858D02*
X90245772Y-73397096D01*
X88921542Y-61468524D02*
X88969161Y-61516143D01*
X88969161Y-61516143D02*
X89016780Y-61611381D01*
X89016780Y-61611381D02*
X89016780Y-61849476D01*
X89016780Y-61849476D02*
X88969161Y-61944714D01*
X88969161Y-61944714D02*
X88921542Y-61992333D01*
X88921542Y-61992333D02*
X88826304Y-62039952D01*
X88826304Y-62039952D02*
X88731066Y-62039952D01*
X88731066Y-62039952D02*
X88588209Y-61992333D01*
X88588209Y-61992333D02*
X88016780Y-61420905D01*
X88016780Y-61420905D02*
X88016780Y-62039952D01*
X89016780Y-62659000D02*
X89016780Y-62754238D01*
X89016780Y-62754238D02*
X88969161Y-62849476D01*
X88969161Y-62849476D02*
X88921542Y-62897095D01*
X88921542Y-62897095D02*
X88826304Y-62944714D01*
X88826304Y-62944714D02*
X88635828Y-62992333D01*
X88635828Y-62992333D02*
X88397733Y-62992333D01*
X88397733Y-62992333D02*
X88207257Y-62944714D01*
X88207257Y-62944714D02*
X88112019Y-62897095D01*
X88112019Y-62897095D02*
X88064400Y-62849476D01*
X88064400Y-62849476D02*
X88016780Y-62754238D01*
X88016780Y-62754238D02*
X88016780Y-62659000D01*
X88016780Y-62659000D02*
X88064400Y-62563762D01*
X88064400Y-62563762D02*
X88112019Y-62516143D01*
X88112019Y-62516143D02*
X88207257Y-62468524D01*
X88207257Y-62468524D02*
X88397733Y-62420905D01*
X88397733Y-62420905D02*
X88635828Y-62420905D01*
X88635828Y-62420905D02*
X88826304Y-62468524D01*
X88826304Y-62468524D02*
X88921542Y-62516143D01*
X88921542Y-62516143D02*
X88969161Y-62563762D01*
X88969161Y-62563762D02*
X89016780Y-62659000D01*
X88921542Y-63373286D02*
X88969161Y-63420905D01*
X88969161Y-63420905D02*
X89016780Y-63516143D01*
X89016780Y-63516143D02*
X89016780Y-63754238D01*
X89016780Y-63754238D02*
X88969161Y-63849476D01*
X88969161Y-63849476D02*
X88921542Y-63897095D01*
X88921542Y-63897095D02*
X88826304Y-63944714D01*
X88826304Y-63944714D02*
X88731066Y-63944714D01*
X88731066Y-63944714D02*
X88588209Y-63897095D01*
X88588209Y-63897095D02*
X88016780Y-63325667D01*
X88016780Y-63325667D02*
X88016780Y-63944714D01*
X89016780Y-64801857D02*
X89016780Y-64611381D01*
X89016780Y-64611381D02*
X88969161Y-64516143D01*
X88969161Y-64516143D02*
X88921542Y-64468524D01*
X88921542Y-64468524D02*
X88778685Y-64373286D01*
X88778685Y-64373286D02*
X88588209Y-64325667D01*
X88588209Y-64325667D02*
X88207257Y-64325667D01*
X88207257Y-64325667D02*
X88112019Y-64373286D01*
X88112019Y-64373286D02*
X88064400Y-64420905D01*
X88064400Y-64420905D02*
X88016780Y-64516143D01*
X88016780Y-64516143D02*
X88016780Y-64706619D01*
X88016780Y-64706619D02*
X88064400Y-64801857D01*
X88064400Y-64801857D02*
X88112019Y-64849476D01*
X88112019Y-64849476D02*
X88207257Y-64897095D01*
X88207257Y-64897095D02*
X88445352Y-64897095D01*
X88445352Y-64897095D02*
X88540590Y-64849476D01*
X88540590Y-64849476D02*
X88588209Y-64801857D01*
X88588209Y-64801857D02*
X88635828Y-64706619D01*
X88635828Y-64706619D02*
X88635828Y-64516143D01*
X88635828Y-64516143D02*
X88588209Y-64420905D01*
X88588209Y-64420905D02*
X88540590Y-64373286D01*
X88540590Y-64373286D02*
X88445352Y-64325667D01*
X89064400Y-66039952D02*
X87778685Y-65182810D01*
X89016780Y-66278048D02*
X89016780Y-66897095D01*
X89016780Y-66897095D02*
X88635828Y-66563762D01*
X88635828Y-66563762D02*
X88635828Y-66706619D01*
X88635828Y-66706619D02*
X88588209Y-66801857D01*
X88588209Y-66801857D02*
X88540590Y-66849476D01*
X88540590Y-66849476D02*
X88445352Y-66897095D01*
X88445352Y-66897095D02*
X88207257Y-66897095D01*
X88207257Y-66897095D02*
X88112019Y-66849476D01*
X88112019Y-66849476D02*
X88064400Y-66801857D01*
X88064400Y-66801857D02*
X88016780Y-66706619D01*
X88016780Y-66706619D02*
X88016780Y-66420905D01*
X88016780Y-66420905D02*
X88064400Y-66325667D01*
X88064400Y-66325667D02*
X88112019Y-66278048D01*
X89064400Y-68039952D02*
X87778685Y-67182810D01*
X88016780Y-68897095D02*
X88016780Y-68325667D01*
X88016780Y-68611381D02*
X89016780Y-68611381D01*
X89016780Y-68611381D02*
X88873923Y-68516143D01*
X88873923Y-68516143D02*
X88778685Y-68420905D01*
X88778685Y-68420905D02*
X88731066Y-68325667D01*
X88683447Y-69754238D02*
X88016780Y-69754238D01*
X89064400Y-69516143D02*
X88350114Y-69278048D01*
X88350114Y-69278048D02*
X88350114Y-69897095D01*
D10*
X146290122Y-66746038D02*
X146223455Y-66698419D01*
X146223455Y-66698419D02*
X146123455Y-66698419D01*
X146123455Y-66698419D02*
X146023455Y-66746038D01*
X146023455Y-66746038D02*
X145956789Y-66841276D01*
X145956789Y-66841276D02*
X145923455Y-66936514D01*
X145923455Y-66936514D02*
X145890122Y-67126990D01*
X145890122Y-67126990D02*
X145890122Y-67269847D01*
X145890122Y-67269847D02*
X145923455Y-67460323D01*
X145923455Y-67460323D02*
X145956789Y-67555561D01*
X145956789Y-67555561D02*
X146023455Y-67650800D01*
X146023455Y-67650800D02*
X146123455Y-67698419D01*
X146123455Y-67698419D02*
X146190122Y-67698419D01*
X146190122Y-67698419D02*
X146290122Y-67650800D01*
X146290122Y-67650800D02*
X146323455Y-67603180D01*
X146323455Y-67603180D02*
X146323455Y-67269847D01*
X146323455Y-67269847D02*
X146190122Y-67269847D01*
X146623455Y-67698419D02*
X146623455Y-66698419D01*
X146623455Y-66698419D02*
X147023455Y-67698419D01*
X147023455Y-67698419D02*
X147023455Y-66698419D01*
X147356788Y-67698419D02*
X147356788Y-66698419D01*
X147356788Y-66698419D02*
X147523455Y-66698419D01*
X147523455Y-66698419D02*
X147623455Y-66746038D01*
X147623455Y-66746038D02*
X147690122Y-66841276D01*
X147690122Y-66841276D02*
X147723455Y-66936514D01*
X147723455Y-66936514D02*
X147756788Y-67126990D01*
X147756788Y-67126990D02*
X147756788Y-67269847D01*
X147756788Y-67269847D02*
X147723455Y-67460323D01*
X147723455Y-67460323D02*
X147690122Y-67555561D01*
X147690122Y-67555561D02*
X147623455Y-67650800D01*
X147623455Y-67650800D02*
X147523455Y-67698419D01*
X147523455Y-67698419D02*
X147356788Y-67698419D01*
X148023455Y-67412704D02*
X148356788Y-67412704D01*
X147956788Y-67698419D02*
X148190122Y-66698419D01*
X148190122Y-66698419D02*
X148423455Y-67698419D01*
X165826122Y-66920038D02*
X165759455Y-66872419D01*
X165759455Y-66872419D02*
X165659455Y-66872419D01*
X165659455Y-66872419D02*
X165559455Y-66920038D01*
X165559455Y-66920038D02*
X165492789Y-67015276D01*
X165492789Y-67015276D02*
X165459455Y-67110514D01*
X165459455Y-67110514D02*
X165426122Y-67300990D01*
X165426122Y-67300990D02*
X165426122Y-67443847D01*
X165426122Y-67443847D02*
X165459455Y-67634323D01*
X165459455Y-67634323D02*
X165492789Y-67729561D01*
X165492789Y-67729561D02*
X165559455Y-67824800D01*
X165559455Y-67824800D02*
X165659455Y-67872419D01*
X165659455Y-67872419D02*
X165726122Y-67872419D01*
X165726122Y-67872419D02*
X165826122Y-67824800D01*
X165826122Y-67824800D02*
X165859455Y-67777180D01*
X165859455Y-67777180D02*
X165859455Y-67443847D01*
X165859455Y-67443847D02*
X165726122Y-67443847D01*
X166159455Y-67872419D02*
X166159455Y-66872419D01*
X166159455Y-66872419D02*
X166559455Y-67872419D01*
X166559455Y-67872419D02*
X166559455Y-66872419D01*
X166892788Y-67872419D02*
X166892788Y-66872419D01*
X166892788Y-66872419D02*
X167059455Y-66872419D01*
X167059455Y-66872419D02*
X167159455Y-66920038D01*
X167159455Y-66920038D02*
X167226122Y-67015276D01*
X167226122Y-67015276D02*
X167259455Y-67110514D01*
X167259455Y-67110514D02*
X167292788Y-67300990D01*
X167292788Y-67300990D02*
X167292788Y-67443847D01*
X167292788Y-67443847D02*
X167259455Y-67634323D01*
X167259455Y-67634323D02*
X167226122Y-67729561D01*
X167226122Y-67729561D02*
X167159455Y-67824800D01*
X167159455Y-67824800D02*
X167059455Y-67872419D01*
X167059455Y-67872419D02*
X166892788Y-67872419D01*
X167559455Y-67586704D02*
X167892788Y-67586704D01*
X167492788Y-67872419D02*
X167726122Y-66872419D01*
X167726122Y-66872419D02*
X167959455Y-67872419D01*
X172698455Y-67491466D02*
X173231789Y-67491466D01*
X173898456Y-66872419D02*
X173565122Y-66872419D01*
X173565122Y-66872419D02*
X173531789Y-67348609D01*
X173531789Y-67348609D02*
X173565122Y-67300990D01*
X173565122Y-67300990D02*
X173631789Y-67253371D01*
X173631789Y-67253371D02*
X173798456Y-67253371D01*
X173798456Y-67253371D02*
X173865122Y-67300990D01*
X173865122Y-67300990D02*
X173898456Y-67348609D01*
X173898456Y-67348609D02*
X173931789Y-67443847D01*
X173931789Y-67443847D02*
X173931789Y-67681942D01*
X173931789Y-67681942D02*
X173898456Y-67777180D01*
X173898456Y-67777180D02*
X173865122Y-67824800D01*
X173865122Y-67824800D02*
X173798456Y-67872419D01*
X173798456Y-67872419D02*
X173631789Y-67872419D01*
X173631789Y-67872419D02*
X173565122Y-67824800D01*
X173565122Y-67824800D02*
X173531789Y-67777180D01*
X174131789Y-66872419D02*
X174365123Y-67872419D01*
X174365123Y-67872419D02*
X174598456Y-66872419D01*
X175111455Y-67491466D02*
X175644789Y-67491466D01*
X175378122Y-67872419D02*
X175378122Y-67110514D01*
X176311456Y-66872419D02*
X175978122Y-66872419D01*
X175978122Y-66872419D02*
X175944789Y-67348609D01*
X175944789Y-67348609D02*
X175978122Y-67300990D01*
X175978122Y-67300990D02*
X176044789Y-67253371D01*
X176044789Y-67253371D02*
X176211456Y-67253371D01*
X176211456Y-67253371D02*
X176278122Y-67300990D01*
X176278122Y-67300990D02*
X176311456Y-67348609D01*
X176311456Y-67348609D02*
X176344789Y-67443847D01*
X176344789Y-67443847D02*
X176344789Y-67681942D01*
X176344789Y-67681942D02*
X176311456Y-67777180D01*
X176311456Y-67777180D02*
X176278122Y-67824800D01*
X176278122Y-67824800D02*
X176211456Y-67872419D01*
X176211456Y-67872419D02*
X176044789Y-67872419D01*
X176044789Y-67872419D02*
X175978122Y-67824800D01*
X175978122Y-67824800D02*
X175944789Y-67777180D01*
X176544789Y-66872419D02*
X176778123Y-67872419D01*
X176778123Y-67872419D02*
X177011456Y-66872419D01*
X104393419Y-67099544D02*
X103869609Y-67099544D01*
X103869609Y-67099544D02*
X103774371Y-67132877D01*
X103774371Y-67132877D02*
X103726752Y-67199544D01*
X103726752Y-67199544D02*
X103726752Y-67332877D01*
X103726752Y-67332877D02*
X103774371Y-67399544D01*
X104345800Y-67099544D02*
X104393419Y-67166211D01*
X104393419Y-67166211D02*
X104393419Y-67332877D01*
X104393419Y-67332877D02*
X104345800Y-67399544D01*
X104345800Y-67399544D02*
X104250561Y-67432877D01*
X104250561Y-67432877D02*
X104155323Y-67432877D01*
X104155323Y-67432877D02*
X104060085Y-67399544D01*
X104060085Y-67399544D02*
X104012466Y-67332877D01*
X104012466Y-67332877D02*
X104012466Y-67166211D01*
X104012466Y-67166211D02*
X103964847Y-67099544D01*
X104345800Y-66466211D02*
X104393419Y-66532878D01*
X104393419Y-66532878D02*
X104393419Y-66666211D01*
X104393419Y-66666211D02*
X104345800Y-66732878D01*
X104345800Y-66732878D02*
X104298180Y-66766211D01*
X104298180Y-66766211D02*
X104202942Y-66799544D01*
X104202942Y-66799544D02*
X103917228Y-66799544D01*
X103917228Y-66799544D02*
X103821990Y-66766211D01*
X103821990Y-66766211D02*
X103774371Y-66732878D01*
X103774371Y-66732878D02*
X103726752Y-66666211D01*
X103726752Y-66666211D02*
X103726752Y-66532878D01*
X103726752Y-66532878D02*
X103774371Y-66466211D01*
X103869609Y-65932878D02*
X103869609Y-66166211D01*
X104393419Y-66166211D02*
X103393419Y-66166211D01*
X103393419Y-66166211D02*
X103393419Y-65832878D01*
X104393419Y-65466211D02*
X104345800Y-65532878D01*
X104345800Y-65532878D02*
X104250561Y-65566211D01*
X104250561Y-65566211D02*
X103393419Y-65566211D01*
X103726752Y-65299544D02*
X103726752Y-65032877D01*
X103393419Y-65199544D02*
X104250561Y-65199544D01*
X104250561Y-65199544D02*
X104345800Y-65166211D01*
X104345800Y-65166211D02*
X104393419Y-65099544D01*
X104393419Y-65099544D02*
X104393419Y-65032877D01*
X132714466Y-67899544D02*
X132714466Y-67366211D01*
X133095419Y-67632877D02*
X132333514Y-67632877D01*
X132095419Y-66699544D02*
X132095419Y-67032877D01*
X132095419Y-67032877D02*
X132571609Y-67066210D01*
X132571609Y-67066210D02*
X132523990Y-67032877D01*
X132523990Y-67032877D02*
X132476371Y-66966210D01*
X132476371Y-66966210D02*
X132476371Y-66799544D01*
X132476371Y-66799544D02*
X132523990Y-66732877D01*
X132523990Y-66732877D02*
X132571609Y-66699544D01*
X132571609Y-66699544D02*
X132666847Y-66666210D01*
X132666847Y-66666210D02*
X132904942Y-66666210D01*
X132904942Y-66666210D02*
X133000180Y-66699544D01*
X133000180Y-66699544D02*
X133047800Y-66732877D01*
X133047800Y-66732877D02*
X133095419Y-66799544D01*
X133095419Y-66799544D02*
X133095419Y-66966210D01*
X133095419Y-66966210D02*
X133047800Y-67032877D01*
X133047800Y-67032877D02*
X133000180Y-67066210D01*
X132095419Y-66466210D02*
X133095419Y-66232877D01*
X133095419Y-66232877D02*
X132095419Y-65999543D01*
X133095419Y-65766210D02*
X132095419Y-65766210D01*
X132095419Y-65766210D02*
X132095419Y-65599543D01*
X132095419Y-65599543D02*
X132143038Y-65499543D01*
X132143038Y-65499543D02*
X132238276Y-65432877D01*
X132238276Y-65432877D02*
X132333514Y-65399543D01*
X132333514Y-65399543D02*
X132523990Y-65366210D01*
X132523990Y-65366210D02*
X132666847Y-65366210D01*
X132666847Y-65366210D02*
X132857323Y-65399543D01*
X132857323Y-65399543D02*
X132952561Y-65432877D01*
X132952561Y-65432877D02*
X133047800Y-65499543D01*
X133047800Y-65499543D02*
X133095419Y-65599543D01*
X133095419Y-65599543D02*
X133095419Y-65766210D01*
X130333180Y-67058544D02*
X130380800Y-67091877D01*
X130380800Y-67091877D02*
X130428419Y-67191877D01*
X130428419Y-67191877D02*
X130428419Y-67258544D01*
X130428419Y-67258544D02*
X130380800Y-67358544D01*
X130380800Y-67358544D02*
X130285561Y-67425211D01*
X130285561Y-67425211D02*
X130190323Y-67458544D01*
X130190323Y-67458544D02*
X129999847Y-67491877D01*
X129999847Y-67491877D02*
X129856990Y-67491877D01*
X129856990Y-67491877D02*
X129666514Y-67458544D01*
X129666514Y-67458544D02*
X129571276Y-67425211D01*
X129571276Y-67425211D02*
X129476038Y-67358544D01*
X129476038Y-67358544D02*
X129428419Y-67258544D01*
X129428419Y-67258544D02*
X129428419Y-67191877D01*
X129428419Y-67191877D02*
X129476038Y-67091877D01*
X129476038Y-67091877D02*
X129523657Y-67058544D01*
X129428419Y-66858544D02*
X130428419Y-66625211D01*
X130428419Y-66625211D02*
X129428419Y-66391877D01*
X169523455Y-67491466D02*
X170056789Y-67491466D01*
X170756789Y-67872419D02*
X170356789Y-67872419D01*
X170556789Y-67872419D02*
X170556789Y-66872419D01*
X170556789Y-66872419D02*
X170490122Y-67015276D01*
X170490122Y-67015276D02*
X170423456Y-67110514D01*
X170423456Y-67110514D02*
X170356789Y-67158133D01*
X171023456Y-66967657D02*
X171056789Y-66920038D01*
X171056789Y-66920038D02*
X171123456Y-66872419D01*
X171123456Y-66872419D02*
X171290123Y-66872419D01*
X171290123Y-66872419D02*
X171356789Y-66920038D01*
X171356789Y-66920038D02*
X171390123Y-66967657D01*
X171390123Y-66967657D02*
X171423456Y-67062895D01*
X171423456Y-67062895D02*
X171423456Y-67158133D01*
X171423456Y-67158133D02*
X171390123Y-67300990D01*
X171390123Y-67300990D02*
X170990123Y-67872419D01*
X170990123Y-67872419D02*
X171423456Y-67872419D01*
X171623456Y-66872419D02*
X171856790Y-67872419D01*
X171856790Y-67872419D02*
X172090123Y-66872419D01*
X98234038Y-67091877D02*
X98186419Y-67158544D01*
X98186419Y-67158544D02*
X98186419Y-67258544D01*
X98186419Y-67258544D02*
X98234038Y-67358544D01*
X98234038Y-67358544D02*
X98329276Y-67425211D01*
X98329276Y-67425211D02*
X98424514Y-67458544D01*
X98424514Y-67458544D02*
X98614990Y-67491877D01*
X98614990Y-67491877D02*
X98757847Y-67491877D01*
X98757847Y-67491877D02*
X98948323Y-67458544D01*
X98948323Y-67458544D02*
X99043561Y-67425211D01*
X99043561Y-67425211D02*
X99138800Y-67358544D01*
X99138800Y-67358544D02*
X99186419Y-67258544D01*
X99186419Y-67258544D02*
X99186419Y-67191877D01*
X99186419Y-67191877D02*
X99138800Y-67091877D01*
X99138800Y-67091877D02*
X99091180Y-67058544D01*
X99091180Y-67058544D02*
X98757847Y-67058544D01*
X98757847Y-67058544D02*
X98757847Y-67191877D01*
X99186419Y-66758544D02*
X98186419Y-66758544D01*
X98186419Y-66758544D02*
X99186419Y-66358544D01*
X99186419Y-66358544D02*
X98186419Y-66358544D01*
X99186419Y-66025211D02*
X98186419Y-66025211D01*
X98186419Y-66025211D02*
X98186419Y-65858544D01*
X98186419Y-65858544D02*
X98234038Y-65758544D01*
X98234038Y-65758544D02*
X98329276Y-65691878D01*
X98329276Y-65691878D02*
X98424514Y-65658544D01*
X98424514Y-65658544D02*
X98614990Y-65625211D01*
X98614990Y-65625211D02*
X98757847Y-65625211D01*
X98757847Y-65625211D02*
X98948323Y-65658544D01*
X98948323Y-65658544D02*
X99043561Y-65691878D01*
X99043561Y-65691878D02*
X99138800Y-65758544D01*
X99138800Y-65758544D02*
X99186419Y-65858544D01*
X99186419Y-65858544D02*
X99186419Y-66025211D01*
X99186419Y-65325211D02*
X98186419Y-65325211D01*
X98186419Y-65325211D02*
X98186419Y-65158544D01*
X98186419Y-65158544D02*
X98234038Y-65058544D01*
X98234038Y-65058544D02*
X98329276Y-64991878D01*
X98329276Y-64991878D02*
X98424514Y-64958544D01*
X98424514Y-64958544D02*
X98614990Y-64925211D01*
X98614990Y-64925211D02*
X98757847Y-64925211D01*
X98757847Y-64925211D02*
X98948323Y-64958544D01*
X98948323Y-64958544D02*
X99043561Y-64991878D01*
X99043561Y-64991878D02*
X99138800Y-65058544D01*
X99138800Y-65058544D02*
X99186419Y-65158544D01*
X99186419Y-65158544D02*
X99186419Y-65325211D01*
X127063038Y-67091877D02*
X127015419Y-67158544D01*
X127015419Y-67158544D02*
X127015419Y-67258544D01*
X127015419Y-67258544D02*
X127063038Y-67358544D01*
X127063038Y-67358544D02*
X127158276Y-67425211D01*
X127158276Y-67425211D02*
X127253514Y-67458544D01*
X127253514Y-67458544D02*
X127443990Y-67491877D01*
X127443990Y-67491877D02*
X127586847Y-67491877D01*
X127586847Y-67491877D02*
X127777323Y-67458544D01*
X127777323Y-67458544D02*
X127872561Y-67425211D01*
X127872561Y-67425211D02*
X127967800Y-67358544D01*
X127967800Y-67358544D02*
X128015419Y-67258544D01*
X128015419Y-67258544D02*
X128015419Y-67191877D01*
X128015419Y-67191877D02*
X127967800Y-67091877D01*
X127967800Y-67091877D02*
X127920180Y-67058544D01*
X127920180Y-67058544D02*
X127586847Y-67058544D01*
X127586847Y-67058544D02*
X127586847Y-67191877D01*
X127729704Y-66791877D02*
X127729704Y-66458544D01*
X128015419Y-66858544D02*
X127015419Y-66625211D01*
X127015419Y-66625211D02*
X128015419Y-66391877D01*
X127015419Y-66258544D02*
X127015419Y-65858544D01*
X128015419Y-66058544D02*
X127015419Y-66058544D01*
X127491609Y-65625211D02*
X127491609Y-65391878D01*
X128015419Y-65291878D02*
X128015419Y-65625211D01*
X128015419Y-65625211D02*
X127015419Y-65625211D01*
X127015419Y-65625211D02*
X127015419Y-65291878D01*
X111251466Y-67899544D02*
X111251466Y-67366211D01*
X111632419Y-67632877D02*
X110870514Y-67632877D01*
X110632419Y-66699544D02*
X110632419Y-67032877D01*
X110632419Y-67032877D02*
X111108609Y-67066210D01*
X111108609Y-67066210D02*
X111060990Y-67032877D01*
X111060990Y-67032877D02*
X111013371Y-66966210D01*
X111013371Y-66966210D02*
X111013371Y-66799544D01*
X111013371Y-66799544D02*
X111060990Y-66732877D01*
X111060990Y-66732877D02*
X111108609Y-66699544D01*
X111108609Y-66699544D02*
X111203847Y-66666210D01*
X111203847Y-66666210D02*
X111441942Y-66666210D01*
X111441942Y-66666210D02*
X111537180Y-66699544D01*
X111537180Y-66699544D02*
X111584800Y-66732877D01*
X111584800Y-66732877D02*
X111632419Y-66799544D01*
X111632419Y-66799544D02*
X111632419Y-66966210D01*
X111632419Y-66966210D02*
X111584800Y-67032877D01*
X111584800Y-67032877D02*
X111537180Y-67066210D01*
X110632419Y-66466210D02*
X111632419Y-66232877D01*
X111632419Y-66232877D02*
X110632419Y-65999543D01*
X111632419Y-65766210D02*
X110632419Y-65766210D01*
X110632419Y-65766210D02*
X110632419Y-65599543D01*
X110632419Y-65599543D02*
X110680038Y-65499543D01*
X110680038Y-65499543D02*
X110775276Y-65432877D01*
X110775276Y-65432877D02*
X110870514Y-65399543D01*
X110870514Y-65399543D02*
X111060990Y-65366210D01*
X111060990Y-65366210D02*
X111203847Y-65366210D01*
X111203847Y-65366210D02*
X111394323Y-65399543D01*
X111394323Y-65399543D02*
X111489561Y-65432877D01*
X111489561Y-65432877D02*
X111584800Y-65499543D01*
X111584800Y-65499543D02*
X111632419Y-65599543D01*
X111632419Y-65599543D02*
X111632419Y-65766210D01*
X177778455Y-67491466D02*
X178311789Y-67491466D01*
X178045122Y-67872419D02*
X178045122Y-67110514D01*
X179011789Y-67872419D02*
X178611789Y-67872419D01*
X178811789Y-67872419D02*
X178811789Y-66872419D01*
X178811789Y-66872419D02*
X178745122Y-67015276D01*
X178745122Y-67015276D02*
X178678456Y-67110514D01*
X178678456Y-67110514D02*
X178611789Y-67158133D01*
X179278456Y-66967657D02*
X179311789Y-66920038D01*
X179311789Y-66920038D02*
X179378456Y-66872419D01*
X179378456Y-66872419D02*
X179545123Y-66872419D01*
X179545123Y-66872419D02*
X179611789Y-66920038D01*
X179611789Y-66920038D02*
X179645123Y-66967657D01*
X179645123Y-66967657D02*
X179678456Y-67062895D01*
X179678456Y-67062895D02*
X179678456Y-67158133D01*
X179678456Y-67158133D02*
X179645123Y-67300990D01*
X179645123Y-67300990D02*
X179245123Y-67872419D01*
X179245123Y-67872419D02*
X179678456Y-67872419D01*
X179878456Y-66872419D02*
X180111790Y-67872419D01*
X180111790Y-67872419D02*
X180345123Y-66872419D01*
X101980419Y-67285544D02*
X101456609Y-67285544D01*
X101456609Y-67285544D02*
X101361371Y-67318877D01*
X101361371Y-67318877D02*
X101313752Y-67385544D01*
X101313752Y-67385544D02*
X101313752Y-67518877D01*
X101313752Y-67518877D02*
X101361371Y-67585544D01*
X101932800Y-67285544D02*
X101980419Y-67352211D01*
X101980419Y-67352211D02*
X101980419Y-67518877D01*
X101980419Y-67518877D02*
X101932800Y-67585544D01*
X101932800Y-67585544D02*
X101837561Y-67618877D01*
X101837561Y-67618877D02*
X101742323Y-67618877D01*
X101742323Y-67618877D02*
X101647085Y-67585544D01*
X101647085Y-67585544D02*
X101599466Y-67518877D01*
X101599466Y-67518877D02*
X101599466Y-67352211D01*
X101599466Y-67352211D02*
X101551847Y-67285544D01*
X101932800Y-66652211D02*
X101980419Y-66718878D01*
X101980419Y-66718878D02*
X101980419Y-66852211D01*
X101980419Y-66852211D02*
X101932800Y-66918878D01*
X101932800Y-66918878D02*
X101885180Y-66952211D01*
X101885180Y-66952211D02*
X101789942Y-66985544D01*
X101789942Y-66985544D02*
X101504228Y-66985544D01*
X101504228Y-66985544D02*
X101408990Y-66952211D01*
X101408990Y-66952211D02*
X101361371Y-66918878D01*
X101361371Y-66918878D02*
X101313752Y-66852211D01*
X101313752Y-66852211D02*
X101313752Y-66718878D01*
X101313752Y-66718878D02*
X101361371Y-66652211D01*
X101694704Y-66385544D02*
X101694704Y-66052211D01*
X101980419Y-66452211D02*
X100980419Y-66218878D01*
X100980419Y-66218878D02*
X101980419Y-65985544D01*
X101980419Y-65752211D02*
X101313752Y-65752211D01*
X101408990Y-65752211D02*
X101361371Y-65718878D01*
X101361371Y-65718878D02*
X101313752Y-65652211D01*
X101313752Y-65652211D02*
X101313752Y-65552211D01*
X101313752Y-65552211D02*
X101361371Y-65485544D01*
X101361371Y-65485544D02*
X101456609Y-65452211D01*
X101456609Y-65452211D02*
X101980419Y-65452211D01*
X101456609Y-65452211D02*
X101361371Y-65418878D01*
X101361371Y-65418878D02*
X101313752Y-65352211D01*
X101313752Y-65352211D02*
X101313752Y-65252211D01*
X101313752Y-65252211D02*
X101361371Y-65185544D01*
X101361371Y-65185544D02*
X101456609Y-65152211D01*
X101456609Y-65152211D02*
X101980419Y-65152211D01*
X101313752Y-64818878D02*
X102313752Y-64818878D01*
X101361371Y-64818878D02*
X101313752Y-64752211D01*
X101313752Y-64752211D02*
X101313752Y-64618878D01*
X101313752Y-64618878D02*
X101361371Y-64552211D01*
X101361371Y-64552211D02*
X101408990Y-64518878D01*
X101408990Y-64518878D02*
X101504228Y-64485545D01*
X101504228Y-64485545D02*
X101789942Y-64485545D01*
X101789942Y-64485545D02*
X101885180Y-64518878D01*
X101885180Y-64518878D02*
X101932800Y-64552211D01*
X101932800Y-64552211D02*
X101980419Y-64618878D01*
X101980419Y-64618878D02*
X101980419Y-64752211D01*
X101980419Y-64752211D02*
X101932800Y-64818878D01*
X149805122Y-67404704D02*
X150138455Y-67404704D01*
X149738455Y-67690419D02*
X149971789Y-66690419D01*
X149971789Y-66690419D02*
X150205122Y-67690419D01*
X150738455Y-67023752D02*
X150738455Y-67690419D01*
X150438455Y-67023752D02*
X150438455Y-67547561D01*
X150438455Y-67547561D02*
X150471789Y-67642800D01*
X150471789Y-67642800D02*
X150538455Y-67690419D01*
X150538455Y-67690419D02*
X150638455Y-67690419D01*
X150638455Y-67690419D02*
X150705122Y-67642800D01*
X150705122Y-67642800D02*
X150738455Y-67595180D01*
X151371788Y-67690419D02*
X151371788Y-66690419D01*
X151371788Y-67642800D02*
X151305122Y-67690419D01*
X151305122Y-67690419D02*
X151171788Y-67690419D01*
X151171788Y-67690419D02*
X151105122Y-67642800D01*
X151105122Y-67642800D02*
X151071788Y-67595180D01*
X151071788Y-67595180D02*
X151038455Y-67499942D01*
X151038455Y-67499942D02*
X151038455Y-67214228D01*
X151038455Y-67214228D02*
X151071788Y-67118990D01*
X151071788Y-67118990D02*
X151105122Y-67071371D01*
X151105122Y-67071371D02*
X151171788Y-67023752D01*
X151171788Y-67023752D02*
X151305122Y-67023752D01*
X151305122Y-67023752D02*
X151371788Y-67071371D01*
X151705121Y-67690419D02*
X151705121Y-67023752D01*
X151705121Y-66690419D02*
X151671788Y-66738038D01*
X151671788Y-66738038D02*
X151705121Y-66785657D01*
X151705121Y-66785657D02*
X151738455Y-66738038D01*
X151738455Y-66738038D02*
X151705121Y-66690419D01*
X151705121Y-66690419D02*
X151705121Y-66785657D01*
X152138454Y-67690419D02*
X152071788Y-67642800D01*
X152071788Y-67642800D02*
X152038454Y-67595180D01*
X152038454Y-67595180D02*
X152005121Y-67499942D01*
X152005121Y-67499942D02*
X152005121Y-67214228D01*
X152005121Y-67214228D02*
X152038454Y-67118990D01*
X152038454Y-67118990D02*
X152071788Y-67071371D01*
X152071788Y-67071371D02*
X152138454Y-67023752D01*
X152138454Y-67023752D02*
X152238454Y-67023752D01*
X152238454Y-67023752D02*
X152305121Y-67071371D01*
X152305121Y-67071371D02*
X152338454Y-67118990D01*
X152338454Y-67118990D02*
X152371788Y-67214228D01*
X152371788Y-67214228D02*
X152371788Y-67499942D01*
X152371788Y-67499942D02*
X152338454Y-67595180D01*
X152338454Y-67595180D02*
X152305121Y-67642800D01*
X152305121Y-67642800D02*
X152238454Y-67690419D01*
X152238454Y-67690419D02*
X152138454Y-67690419D01*
X152671787Y-67690419D02*
X152671787Y-66690419D01*
X153005120Y-67023752D02*
X153005120Y-67690419D01*
X153005120Y-67118990D02*
X153038454Y-67071371D01*
X153038454Y-67071371D02*
X153105120Y-67023752D01*
X153105120Y-67023752D02*
X153205120Y-67023752D01*
X153205120Y-67023752D02*
X153271787Y-67071371D01*
X153271787Y-67071371D02*
X153305120Y-67166609D01*
X153305120Y-67166609D02*
X153305120Y-67690419D01*
X119062038Y-67091877D02*
X119014419Y-67158544D01*
X119014419Y-67158544D02*
X119014419Y-67258544D01*
X119014419Y-67258544D02*
X119062038Y-67358544D01*
X119062038Y-67358544D02*
X119157276Y-67425211D01*
X119157276Y-67425211D02*
X119252514Y-67458544D01*
X119252514Y-67458544D02*
X119442990Y-67491877D01*
X119442990Y-67491877D02*
X119585847Y-67491877D01*
X119585847Y-67491877D02*
X119776323Y-67458544D01*
X119776323Y-67458544D02*
X119871561Y-67425211D01*
X119871561Y-67425211D02*
X119966800Y-67358544D01*
X119966800Y-67358544D02*
X120014419Y-67258544D01*
X120014419Y-67258544D02*
X120014419Y-67191877D01*
X120014419Y-67191877D02*
X119966800Y-67091877D01*
X119966800Y-67091877D02*
X119919180Y-67058544D01*
X119919180Y-67058544D02*
X119585847Y-67058544D01*
X119585847Y-67058544D02*
X119585847Y-67191877D01*
X120014419Y-66758544D02*
X119014419Y-66758544D01*
X119014419Y-66758544D02*
X120014419Y-66358544D01*
X120014419Y-66358544D02*
X119014419Y-66358544D01*
X120014419Y-66025211D02*
X119014419Y-66025211D01*
X119014419Y-66025211D02*
X119014419Y-65858544D01*
X119014419Y-65858544D02*
X119062038Y-65758544D01*
X119062038Y-65758544D02*
X119157276Y-65691878D01*
X119157276Y-65691878D02*
X119252514Y-65658544D01*
X119252514Y-65658544D02*
X119442990Y-65625211D01*
X119442990Y-65625211D02*
X119585847Y-65625211D01*
X119585847Y-65625211D02*
X119776323Y-65658544D01*
X119776323Y-65658544D02*
X119871561Y-65691878D01*
X119871561Y-65691878D02*
X119966800Y-65758544D01*
X119966800Y-65758544D02*
X120014419Y-65858544D01*
X120014419Y-65858544D02*
X120014419Y-66025211D01*
X120014419Y-65325211D02*
X119014419Y-65325211D01*
X119014419Y-65325211D02*
X119014419Y-65158544D01*
X119014419Y-65158544D02*
X119062038Y-65058544D01*
X119062038Y-65058544D02*
X119157276Y-64991878D01*
X119157276Y-64991878D02*
X119252514Y-64958544D01*
X119252514Y-64958544D02*
X119442990Y-64925211D01*
X119442990Y-64925211D02*
X119585847Y-64925211D01*
X119585847Y-64925211D02*
X119776323Y-64958544D01*
X119776323Y-64958544D02*
X119871561Y-64991878D01*
X119871561Y-64991878D02*
X119966800Y-65058544D01*
X119966800Y-65058544D02*
X120014419Y-65158544D01*
X120014419Y-65158544D02*
X120014419Y-65325211D01*
D13*
X171893095Y-57649819D02*
X171893095Y-58459342D01*
X171893095Y-58459342D02*
X171940714Y-58554580D01*
X171940714Y-58554580D02*
X171988333Y-58602200D01*
X171988333Y-58602200D02*
X172083571Y-58649819D01*
X172083571Y-58649819D02*
X172274047Y-58649819D01*
X172274047Y-58649819D02*
X172369285Y-58602200D01*
X172369285Y-58602200D02*
X172416904Y-58554580D01*
X172416904Y-58554580D02*
X172464523Y-58459342D01*
X172464523Y-58459342D02*
X172464523Y-57649819D01*
X173464523Y-58649819D02*
X172893095Y-58649819D01*
X173178809Y-58649819D02*
X173178809Y-57649819D01*
X173178809Y-57649819D02*
X173083571Y-57792676D01*
X173083571Y-57792676D02*
X172988333Y-57887914D01*
X172988333Y-57887914D02*
X172893095Y-57935533D01*
X179665333Y-58282819D02*
X179332000Y-57806628D01*
X179093905Y-58282819D02*
X179093905Y-57282819D01*
X179093905Y-57282819D02*
X179474857Y-57282819D01*
X179474857Y-57282819D02*
X179570095Y-57330438D01*
X179570095Y-57330438D02*
X179617714Y-57378057D01*
X179617714Y-57378057D02*
X179665333Y-57473295D01*
X179665333Y-57473295D02*
X179665333Y-57616152D01*
X179665333Y-57616152D02*
X179617714Y-57711390D01*
X179617714Y-57711390D02*
X179570095Y-57759009D01*
X179570095Y-57759009D02*
X179474857Y-57806628D01*
X179474857Y-57806628D02*
X179093905Y-57806628D01*
X180522476Y-57616152D02*
X180522476Y-58282819D01*
X180284381Y-57235200D02*
X180046286Y-57949485D01*
X180046286Y-57949485D02*
X180665333Y-57949485D01*
X165822333Y-58155819D02*
X165489000Y-57679628D01*
X165250905Y-58155819D02*
X165250905Y-57155819D01*
X165250905Y-57155819D02*
X165631857Y-57155819D01*
X165631857Y-57155819D02*
X165727095Y-57203438D01*
X165727095Y-57203438D02*
X165774714Y-57251057D01*
X165774714Y-57251057D02*
X165822333Y-57346295D01*
X165822333Y-57346295D02*
X165822333Y-57489152D01*
X165822333Y-57489152D02*
X165774714Y-57584390D01*
X165774714Y-57584390D02*
X165727095Y-57632009D01*
X165727095Y-57632009D02*
X165631857Y-57679628D01*
X165631857Y-57679628D02*
X165250905Y-57679628D01*
X166774714Y-58155819D02*
X166203286Y-58155819D01*
X166489000Y-58155819D02*
X166489000Y-57155819D01*
X166489000Y-57155819D02*
X166393762Y-57298676D01*
X166393762Y-57298676D02*
X166298524Y-57393914D01*
X166298524Y-57393914D02*
X166203286Y-57441533D01*
X183348333Y-65224819D02*
X183015000Y-64748628D01*
X182776905Y-65224819D02*
X182776905Y-64224819D01*
X182776905Y-64224819D02*
X183157857Y-64224819D01*
X183157857Y-64224819D02*
X183253095Y-64272438D01*
X183253095Y-64272438D02*
X183300714Y-64320057D01*
X183300714Y-64320057D02*
X183348333Y-64415295D01*
X183348333Y-64415295D02*
X183348333Y-64558152D01*
X183348333Y-64558152D02*
X183300714Y-64653390D01*
X183300714Y-64653390D02*
X183253095Y-64701009D01*
X183253095Y-64701009D02*
X183157857Y-64748628D01*
X183157857Y-64748628D02*
X182776905Y-64748628D01*
X183681667Y-64224819D02*
X184300714Y-64224819D01*
X184300714Y-64224819D02*
X183967381Y-64605771D01*
X183967381Y-64605771D02*
X184110238Y-64605771D01*
X184110238Y-64605771D02*
X184205476Y-64653390D01*
X184205476Y-64653390D02*
X184253095Y-64701009D01*
X184253095Y-64701009D02*
X184300714Y-64796247D01*
X184300714Y-64796247D02*
X184300714Y-65034342D01*
X184300714Y-65034342D02*
X184253095Y-65129580D01*
X184253095Y-65129580D02*
X184205476Y-65177200D01*
X184205476Y-65177200D02*
X184110238Y-65224819D01*
X184110238Y-65224819D02*
X183824524Y-65224819D01*
X183824524Y-65224819D02*
X183729286Y-65177200D01*
X183729286Y-65177200D02*
X183681667Y-65129580D01*
D10*
X135063476Y-52361419D02*
X135063476Y-53075704D01*
X135063476Y-53075704D02*
X135015857Y-53218561D01*
X135015857Y-53218561D02*
X134920619Y-53313800D01*
X134920619Y-53313800D02*
X134777762Y-53361419D01*
X134777762Y-53361419D02*
X134682524Y-53361419D01*
X136063476Y-53361419D02*
X135492048Y-53361419D01*
X135777762Y-53361419D02*
X135777762Y-52361419D01*
X135777762Y-52361419D02*
X135682524Y-52504276D01*
X135682524Y-52504276D02*
X135587286Y-52599514D01*
X135587286Y-52599514D02*
X135492048Y-52647133D01*
X136682524Y-52361419D02*
X136777762Y-52361419D01*
X136777762Y-52361419D02*
X136873000Y-52409038D01*
X136873000Y-52409038D02*
X136920619Y-52456657D01*
X136920619Y-52456657D02*
X136968238Y-52551895D01*
X136968238Y-52551895D02*
X137015857Y-52742371D01*
X137015857Y-52742371D02*
X137015857Y-52980466D01*
X137015857Y-52980466D02*
X136968238Y-53170942D01*
X136968238Y-53170942D02*
X136920619Y-53266180D01*
X136920619Y-53266180D02*
X136873000Y-53313800D01*
X136873000Y-53313800D02*
X136777762Y-53361419D01*
X136777762Y-53361419D02*
X136682524Y-53361419D01*
X136682524Y-53361419D02*
X136587286Y-53313800D01*
X136587286Y-53313800D02*
X136539667Y-53266180D01*
X136539667Y-53266180D02*
X136492048Y-53170942D01*
X136492048Y-53170942D02*
X136444429Y-52980466D01*
X136444429Y-52980466D02*
X136444429Y-52742371D01*
X136444429Y-52742371D02*
X136492048Y-52551895D01*
X136492048Y-52551895D02*
X136539667Y-52456657D01*
X136539667Y-52456657D02*
X136587286Y-52409038D01*
X136587286Y-52409038D02*
X136682524Y-52361419D01*
D13*
X130616666Y-51754819D02*
X130616666Y-50754819D01*
X131092856Y-51754819D02*
X131092856Y-50754819D01*
X131092856Y-50754819D02*
X131664284Y-51754819D01*
X131664284Y-51754819D02*
X131664284Y-50754819D01*
X132140475Y-51754819D02*
X132140475Y-50754819D01*
X132140475Y-50754819D02*
X132521427Y-50754819D01*
X132521427Y-50754819D02*
X132616665Y-50802438D01*
X132616665Y-50802438D02*
X132664284Y-50850057D01*
X132664284Y-50850057D02*
X132711903Y-50945295D01*
X132711903Y-50945295D02*
X132711903Y-51088152D01*
X132711903Y-51088152D02*
X132664284Y-51183390D01*
X132664284Y-51183390D02*
X132616665Y-51231009D01*
X132616665Y-51231009D02*
X132521427Y-51278628D01*
X132521427Y-51278628D02*
X132140475Y-51278628D01*
X133140475Y-50754819D02*
X133140475Y-51564342D01*
X133140475Y-51564342D02*
X133188094Y-51659580D01*
X133188094Y-51659580D02*
X133235713Y-51707200D01*
X133235713Y-51707200D02*
X133330951Y-51754819D01*
X133330951Y-51754819D02*
X133521427Y-51754819D01*
X133521427Y-51754819D02*
X133616665Y-51707200D01*
X133616665Y-51707200D02*
X133664284Y-51659580D01*
X133664284Y-51659580D02*
X133711903Y-51564342D01*
X133711903Y-51564342D02*
X133711903Y-50754819D01*
X134045237Y-50754819D02*
X134616665Y-50754819D01*
X134330951Y-51754819D02*
X134330951Y-50754819D01*
X134711904Y-51850057D02*
X135473808Y-51850057D01*
X135664285Y-51469104D02*
X136140475Y-51469104D01*
X135569047Y-51754819D02*
X135902380Y-50754819D01*
X135902380Y-50754819D02*
X136235713Y-51754819D01*
X137140475Y-51659580D02*
X137092856Y-51707200D01*
X137092856Y-51707200D02*
X136949999Y-51754819D01*
X136949999Y-51754819D02*
X136854761Y-51754819D01*
X136854761Y-51754819D02*
X136711904Y-51707200D01*
X136711904Y-51707200D02*
X136616666Y-51611961D01*
X136616666Y-51611961D02*
X136569047Y-51516723D01*
X136569047Y-51516723D02*
X136521428Y-51326247D01*
X136521428Y-51326247D02*
X136521428Y-51183390D01*
X136521428Y-51183390D02*
X136569047Y-50992914D01*
X136569047Y-50992914D02*
X136616666Y-50897676D01*
X136616666Y-50897676D02*
X136711904Y-50802438D01*
X136711904Y-50802438D02*
X136854761Y-50754819D01*
X136854761Y-50754819D02*
X136949999Y-50754819D01*
X136949999Y-50754819D02*
X137092856Y-50802438D01*
X137092856Y-50802438D02*
X137140475Y-50850057D01*
X138140475Y-51659580D02*
X138092856Y-51707200D01*
X138092856Y-51707200D02*
X137949999Y-51754819D01*
X137949999Y-51754819D02*
X137854761Y-51754819D01*
X137854761Y-51754819D02*
X137711904Y-51707200D01*
X137711904Y-51707200D02*
X137616666Y-51611961D01*
X137616666Y-51611961D02*
X137569047Y-51516723D01*
X137569047Y-51516723D02*
X137521428Y-51326247D01*
X137521428Y-51326247D02*
X137521428Y-51183390D01*
X137521428Y-51183390D02*
X137569047Y-50992914D01*
X137569047Y-50992914D02*
X137616666Y-50897676D01*
X137616666Y-50897676D02*
X137711904Y-50802438D01*
X137711904Y-50802438D02*
X137854761Y-50754819D01*
X137854761Y-50754819D02*
X137949999Y-50754819D01*
X137949999Y-50754819D02*
X138092856Y-50802438D01*
X138092856Y-50802438D02*
X138140475Y-50850057D01*
X138330952Y-51850057D02*
X139092856Y-51850057D01*
X139664285Y-51231009D02*
X139330952Y-51231009D01*
X139330952Y-51754819D02*
X139330952Y-50754819D01*
X139330952Y-50754819D02*
X139807142Y-50754819D01*
X140664285Y-51754819D02*
X140188095Y-51754819D01*
X140188095Y-51754819D02*
X140188095Y-50754819D01*
X140854762Y-50754819D02*
X141426190Y-50754819D01*
X141140476Y-51754819D02*
X141140476Y-50754819D01*
D14*
X237756095Y-79441318D02*
X237756095Y-78171318D01*
X237756095Y-78171318D02*
X238239905Y-78171318D01*
X238239905Y-78171318D02*
X238360857Y-78231794D01*
X238360857Y-78231794D02*
X238421334Y-78292270D01*
X238421334Y-78292270D02*
X238481810Y-78413222D01*
X238481810Y-78413222D02*
X238481810Y-78594651D01*
X238481810Y-78594651D02*
X238421334Y-78715603D01*
X238421334Y-78715603D02*
X238360857Y-78776080D01*
X238360857Y-78776080D02*
X238239905Y-78836556D01*
X238239905Y-78836556D02*
X237756095Y-78836556D01*
X238905143Y-78594651D02*
X239147048Y-79441318D01*
X239147048Y-79441318D02*
X239388953Y-78836556D01*
X239388953Y-78836556D02*
X239630857Y-79441318D01*
X239630857Y-79441318D02*
X239872762Y-78594651D01*
X240779905Y-78776080D02*
X240356571Y-78776080D01*
X240356571Y-79441318D02*
X240356571Y-78171318D01*
X240356571Y-78171318D02*
X240961333Y-78171318D01*
X241324190Y-78171318D02*
X242110381Y-78171318D01*
X242110381Y-78171318D02*
X241687047Y-78655127D01*
X241687047Y-78655127D02*
X241868476Y-78655127D01*
X241868476Y-78655127D02*
X241989428Y-78715603D01*
X241989428Y-78715603D02*
X242049904Y-78776080D01*
X242049904Y-78776080D02*
X242110381Y-78897032D01*
X242110381Y-78897032D02*
X242110381Y-79199413D01*
X242110381Y-79199413D02*
X242049904Y-79320365D01*
X242049904Y-79320365D02*
X241989428Y-79380842D01*
X241989428Y-79380842D02*
X241868476Y-79441318D01*
X241868476Y-79441318D02*
X241505619Y-79441318D01*
X241505619Y-79441318D02*
X241384666Y-79380842D01*
X241384666Y-79380842D02*
X241324190Y-79320365D01*
D13*
X170622819Y-53800333D02*
X171337104Y-53800333D01*
X171337104Y-53800333D02*
X171479961Y-53847952D01*
X171479961Y-53847952D02*
X171575200Y-53943190D01*
X171575200Y-53943190D02*
X171622819Y-54086047D01*
X171622819Y-54086047D02*
X171622819Y-54181285D01*
X171051390Y-53181285D02*
X171003771Y-53276523D01*
X171003771Y-53276523D02*
X170956152Y-53324142D01*
X170956152Y-53324142D02*
X170860914Y-53371761D01*
X170860914Y-53371761D02*
X170813295Y-53371761D01*
X170813295Y-53371761D02*
X170718057Y-53324142D01*
X170718057Y-53324142D02*
X170670438Y-53276523D01*
X170670438Y-53276523D02*
X170622819Y-53181285D01*
X170622819Y-53181285D02*
X170622819Y-52990809D01*
X170622819Y-52990809D02*
X170670438Y-52895571D01*
X170670438Y-52895571D02*
X170718057Y-52847952D01*
X170718057Y-52847952D02*
X170813295Y-52800333D01*
X170813295Y-52800333D02*
X170860914Y-52800333D01*
X170860914Y-52800333D02*
X170956152Y-52847952D01*
X170956152Y-52847952D02*
X171003771Y-52895571D01*
X171003771Y-52895571D02*
X171051390Y-52990809D01*
X171051390Y-52990809D02*
X171051390Y-53181285D01*
X171051390Y-53181285D02*
X171099009Y-53276523D01*
X171099009Y-53276523D02*
X171146628Y-53324142D01*
X171146628Y-53324142D02*
X171241866Y-53371761D01*
X171241866Y-53371761D02*
X171432342Y-53371761D01*
X171432342Y-53371761D02*
X171527580Y-53324142D01*
X171527580Y-53324142D02*
X171575200Y-53276523D01*
X171575200Y-53276523D02*
X171622819Y-53181285D01*
X171622819Y-53181285D02*
X171622819Y-52990809D01*
X171622819Y-52990809D02*
X171575200Y-52895571D01*
X171575200Y-52895571D02*
X171527580Y-52847952D01*
X171527580Y-52847952D02*
X171432342Y-52800333D01*
X171432342Y-52800333D02*
X171241866Y-52800333D01*
X171241866Y-52800333D02*
X171146628Y-52847952D01*
X171146628Y-52847952D02*
X171099009Y-52895571D01*
X171099009Y-52895571D02*
X171051390Y-52990809D01*
X224703666Y-75930819D02*
X224703666Y-76645104D01*
X224703666Y-76645104D02*
X224656047Y-76787961D01*
X224656047Y-76787961D02*
X224560809Y-76883200D01*
X224560809Y-76883200D02*
X224417952Y-76930819D01*
X224417952Y-76930819D02*
X224322714Y-76930819D01*
X225179857Y-76930819D02*
X225179857Y-75930819D01*
X225179857Y-75930819D02*
X225560809Y-75930819D01*
X225560809Y-75930819D02*
X225656047Y-75978438D01*
X225656047Y-75978438D02*
X225703666Y-76026057D01*
X225703666Y-76026057D02*
X225751285Y-76121295D01*
X225751285Y-76121295D02*
X225751285Y-76264152D01*
X225751285Y-76264152D02*
X225703666Y-76359390D01*
X225703666Y-76359390D02*
X225656047Y-76407009D01*
X225656047Y-76407009D02*
X225560809Y-76454628D01*
X225560809Y-76454628D02*
X225179857Y-76454628D01*
X226132238Y-76026057D02*
X226179857Y-75978438D01*
X226179857Y-75978438D02*
X226275095Y-75930819D01*
X226275095Y-75930819D02*
X226513190Y-75930819D01*
X226513190Y-75930819D02*
X226608428Y-75978438D01*
X226608428Y-75978438D02*
X226656047Y-76026057D01*
X226656047Y-76026057D02*
X226703666Y-76121295D01*
X226703666Y-76121295D02*
X226703666Y-76216533D01*
X226703666Y-76216533D02*
X226656047Y-76359390D01*
X226656047Y-76359390D02*
X226084619Y-76930819D01*
X226084619Y-76930819D02*
X226703666Y-76930819D01*
X223251286Y-73230819D02*
X223251286Y-72230819D01*
X223251286Y-72230819D02*
X223489381Y-72230819D01*
X223489381Y-72230819D02*
X223632238Y-72278438D01*
X223632238Y-72278438D02*
X223727476Y-72373676D01*
X223727476Y-72373676D02*
X223775095Y-72468914D01*
X223775095Y-72468914D02*
X223822714Y-72659390D01*
X223822714Y-72659390D02*
X223822714Y-72802247D01*
X223822714Y-72802247D02*
X223775095Y-72992723D01*
X223775095Y-72992723D02*
X223727476Y-73087961D01*
X223727476Y-73087961D02*
X223632238Y-73183200D01*
X223632238Y-73183200D02*
X223489381Y-73230819D01*
X223489381Y-73230819D02*
X223251286Y-73230819D01*
X224251286Y-73230819D02*
X224251286Y-72230819D01*
X224251286Y-72230819D02*
X224489381Y-72230819D01*
X224489381Y-72230819D02*
X224632238Y-72278438D01*
X224632238Y-72278438D02*
X224727476Y-72373676D01*
X224727476Y-72373676D02*
X224775095Y-72468914D01*
X224775095Y-72468914D02*
X224822714Y-72659390D01*
X224822714Y-72659390D02*
X224822714Y-72802247D01*
X224822714Y-72802247D02*
X224775095Y-72992723D01*
X224775095Y-72992723D02*
X224727476Y-73087961D01*
X224727476Y-73087961D02*
X224632238Y-73183200D01*
X224632238Y-73183200D02*
X224489381Y-73230819D01*
X224489381Y-73230819D02*
X224251286Y-73230819D01*
X225775095Y-72278438D02*
X225679857Y-72230819D01*
X225679857Y-72230819D02*
X225537000Y-72230819D01*
X225537000Y-72230819D02*
X225394143Y-72278438D01*
X225394143Y-72278438D02*
X225298905Y-72373676D01*
X225298905Y-72373676D02*
X225251286Y-72468914D01*
X225251286Y-72468914D02*
X225203667Y-72659390D01*
X225203667Y-72659390D02*
X225203667Y-72802247D01*
X225203667Y-72802247D02*
X225251286Y-72992723D01*
X225251286Y-72992723D02*
X225298905Y-73087961D01*
X225298905Y-73087961D02*
X225394143Y-73183200D01*
X225394143Y-73183200D02*
X225537000Y-73230819D01*
X225537000Y-73230819D02*
X225632238Y-73230819D01*
X225632238Y-73230819D02*
X225775095Y-73183200D01*
X225775095Y-73183200D02*
X225822714Y-73135580D01*
X225822714Y-73135580D02*
X225822714Y-72802247D01*
X225822714Y-72802247D02*
X225632238Y-72802247D01*
X226251286Y-73230819D02*
X226251286Y-72230819D01*
X226251286Y-72230819D02*
X226822714Y-73230819D01*
X226822714Y-73230819D02*
X226822714Y-72230819D01*
X227298905Y-73230819D02*
X227298905Y-72230819D01*
X227298905Y-72230819D02*
X227537000Y-72230819D01*
X227537000Y-72230819D02*
X227679857Y-72278438D01*
X227679857Y-72278438D02*
X227775095Y-72373676D01*
X227775095Y-72373676D02*
X227822714Y-72468914D01*
X227822714Y-72468914D02*
X227870333Y-72659390D01*
X227870333Y-72659390D02*
X227870333Y-72802247D01*
X227870333Y-72802247D02*
X227822714Y-72992723D01*
X227822714Y-72992723D02*
X227775095Y-73087961D01*
X227775095Y-73087961D02*
X227679857Y-73183200D01*
X227679857Y-73183200D02*
X227537000Y-73230819D01*
X227537000Y-73230819D02*
X227298905Y-73230819D01*
D14*
X202404856Y-59967318D02*
X202404856Y-58697318D01*
X202404856Y-58697318D02*
X202888666Y-58697318D01*
X202888666Y-58697318D02*
X203009618Y-58757794D01*
X203009618Y-58757794D02*
X203070095Y-58818270D01*
X203070095Y-58818270D02*
X203130571Y-58939222D01*
X203130571Y-58939222D02*
X203130571Y-59120651D01*
X203130571Y-59120651D02*
X203070095Y-59241603D01*
X203070095Y-59241603D02*
X203009618Y-59302080D01*
X203009618Y-59302080D02*
X202888666Y-59362556D01*
X202888666Y-59362556D02*
X202404856Y-59362556D01*
X203614380Y-59906842D02*
X203795809Y-59967318D01*
X203795809Y-59967318D02*
X204098190Y-59967318D01*
X204098190Y-59967318D02*
X204219142Y-59906842D01*
X204219142Y-59906842D02*
X204279618Y-59846365D01*
X204279618Y-59846365D02*
X204340095Y-59725413D01*
X204340095Y-59725413D02*
X204340095Y-59604461D01*
X204340095Y-59604461D02*
X204279618Y-59483508D01*
X204279618Y-59483508D02*
X204219142Y-59423032D01*
X204219142Y-59423032D02*
X204098190Y-59362556D01*
X204098190Y-59362556D02*
X203856285Y-59302080D01*
X203856285Y-59302080D02*
X203735333Y-59241603D01*
X203735333Y-59241603D02*
X203674856Y-59181127D01*
X203674856Y-59181127D02*
X203614380Y-59060175D01*
X203614380Y-59060175D02*
X203614380Y-58939222D01*
X203614380Y-58939222D02*
X203674856Y-58818270D01*
X203674856Y-58818270D02*
X203735333Y-58757794D01*
X203735333Y-58757794D02*
X203856285Y-58697318D01*
X203856285Y-58697318D02*
X204158666Y-58697318D01*
X204158666Y-58697318D02*
X204340095Y-58757794D01*
X205549619Y-59967318D02*
X204823904Y-59967318D01*
X205186761Y-59967318D02*
X205186761Y-58697318D01*
X205186761Y-58697318D02*
X205065809Y-58878746D01*
X205065809Y-58878746D02*
X204944857Y-58999699D01*
X204944857Y-58999699D02*
X204823904Y-59060175D01*
D10*
X247697666Y-53559419D02*
X247697666Y-54273704D01*
X247697666Y-54273704D02*
X247650047Y-54416561D01*
X247650047Y-54416561D02*
X247554809Y-54511800D01*
X247554809Y-54511800D02*
X247411952Y-54559419D01*
X247411952Y-54559419D02*
X247316714Y-54559419D01*
X248602428Y-53892752D02*
X248602428Y-54559419D01*
X248364333Y-53511800D02*
X248126238Y-54226085D01*
X248126238Y-54226085D02*
X248745285Y-54226085D01*
D13*
X244086667Y-52524819D02*
X244086667Y-51524819D01*
X244562857Y-52524819D02*
X244562857Y-51524819D01*
X244562857Y-51524819D02*
X245134285Y-52524819D01*
X245134285Y-52524819D02*
X245134285Y-51524819D01*
X245610476Y-52524819D02*
X245610476Y-51524819D01*
X245610476Y-51524819D02*
X245991428Y-51524819D01*
X245991428Y-51524819D02*
X246086666Y-51572438D01*
X246086666Y-51572438D02*
X246134285Y-51620057D01*
X246134285Y-51620057D02*
X246181904Y-51715295D01*
X246181904Y-51715295D02*
X246181904Y-51858152D01*
X246181904Y-51858152D02*
X246134285Y-51953390D01*
X246134285Y-51953390D02*
X246086666Y-52001009D01*
X246086666Y-52001009D02*
X245991428Y-52048628D01*
X245991428Y-52048628D02*
X245610476Y-52048628D01*
X246610476Y-51524819D02*
X246610476Y-52334342D01*
X246610476Y-52334342D02*
X246658095Y-52429580D01*
X246658095Y-52429580D02*
X246705714Y-52477200D01*
X246705714Y-52477200D02*
X246800952Y-52524819D01*
X246800952Y-52524819D02*
X246991428Y-52524819D01*
X246991428Y-52524819D02*
X247086666Y-52477200D01*
X247086666Y-52477200D02*
X247134285Y-52429580D01*
X247134285Y-52429580D02*
X247181904Y-52334342D01*
X247181904Y-52334342D02*
X247181904Y-51524819D01*
X247515238Y-51524819D02*
X248086666Y-51524819D01*
X247800952Y-52524819D02*
X247800952Y-51524819D01*
X248181905Y-52620057D02*
X248943809Y-52620057D01*
X249181905Y-52524819D02*
X249181905Y-51524819D01*
X249181905Y-51524819D02*
X249420000Y-51524819D01*
X249420000Y-51524819D02*
X249562857Y-51572438D01*
X249562857Y-51572438D02*
X249658095Y-51667676D01*
X249658095Y-51667676D02*
X249705714Y-51762914D01*
X249705714Y-51762914D02*
X249753333Y-51953390D01*
X249753333Y-51953390D02*
X249753333Y-52096247D01*
X249753333Y-52096247D02*
X249705714Y-52286723D01*
X249705714Y-52286723D02*
X249658095Y-52381961D01*
X249658095Y-52381961D02*
X249562857Y-52477200D01*
X249562857Y-52477200D02*
X249420000Y-52524819D01*
X249420000Y-52524819D02*
X249181905Y-52524819D01*
X250753333Y-52429580D02*
X250705714Y-52477200D01*
X250705714Y-52477200D02*
X250562857Y-52524819D01*
X250562857Y-52524819D02*
X250467619Y-52524819D01*
X250467619Y-52524819D02*
X250324762Y-52477200D01*
X250324762Y-52477200D02*
X250229524Y-52381961D01*
X250229524Y-52381961D02*
X250181905Y-52286723D01*
X250181905Y-52286723D02*
X250134286Y-52096247D01*
X250134286Y-52096247D02*
X250134286Y-51953390D01*
X250134286Y-51953390D02*
X250181905Y-51762914D01*
X250181905Y-51762914D02*
X250229524Y-51667676D01*
X250229524Y-51667676D02*
X250324762Y-51572438D01*
X250324762Y-51572438D02*
X250467619Y-51524819D01*
X250467619Y-51524819D02*
X250562857Y-51524819D01*
X250562857Y-51524819D02*
X250705714Y-51572438D01*
X250705714Y-51572438D02*
X250753333Y-51620057D01*
X251181905Y-52143866D02*
X251943810Y-52143866D01*
X251562857Y-52524819D02*
X251562857Y-51762914D01*
X252467619Y-52524819D02*
X252658095Y-52524819D01*
X252658095Y-52524819D02*
X252753333Y-52477200D01*
X252753333Y-52477200D02*
X252800952Y-52429580D01*
X252800952Y-52429580D02*
X252896190Y-52286723D01*
X252896190Y-52286723D02*
X252943809Y-52096247D01*
X252943809Y-52096247D02*
X252943809Y-51715295D01*
X252943809Y-51715295D02*
X252896190Y-51620057D01*
X252896190Y-51620057D02*
X252848571Y-51572438D01*
X252848571Y-51572438D02*
X252753333Y-51524819D01*
X252753333Y-51524819D02*
X252562857Y-51524819D01*
X252562857Y-51524819D02*
X252467619Y-51572438D01*
X252467619Y-51572438D02*
X252420000Y-51620057D01*
X252420000Y-51620057D02*
X252372381Y-51715295D01*
X252372381Y-51715295D02*
X252372381Y-51953390D01*
X252372381Y-51953390D02*
X252420000Y-52048628D01*
X252420000Y-52048628D02*
X252467619Y-52096247D01*
X252467619Y-52096247D02*
X252562857Y-52143866D01*
X252562857Y-52143866D02*
X252753333Y-52143866D01*
X252753333Y-52143866D02*
X252848571Y-52096247D01*
X252848571Y-52096247D02*
X252896190Y-52048628D01*
X252896190Y-52048628D02*
X252943809Y-51953390D01*
X253229524Y-51524819D02*
X253562857Y-52524819D01*
X253562857Y-52524819D02*
X253896190Y-51524819D01*
X134312819Y-74596523D02*
X135027104Y-74596523D01*
X135027104Y-74596523D02*
X135169961Y-74644142D01*
X135169961Y-74644142D02*
X135265200Y-74739380D01*
X135265200Y-74739380D02*
X135312819Y-74882237D01*
X135312819Y-74882237D02*
X135312819Y-74977475D01*
X135312819Y-73596523D02*
X135312819Y-74167951D01*
X135312819Y-73882237D02*
X134312819Y-73882237D01*
X134312819Y-73882237D02*
X134455676Y-73977475D01*
X134455676Y-73977475D02*
X134550914Y-74072713D01*
X134550914Y-74072713D02*
X134598533Y-74167951D01*
X134312819Y-73263189D02*
X134312819Y-72644142D01*
X134312819Y-72644142D02*
X134693771Y-72977475D01*
X134693771Y-72977475D02*
X134693771Y-72834618D01*
X134693771Y-72834618D02*
X134741390Y-72739380D01*
X134741390Y-72739380D02*
X134789009Y-72691761D01*
X134789009Y-72691761D02*
X134884247Y-72644142D01*
X134884247Y-72644142D02*
X135122342Y-72644142D01*
X135122342Y-72644142D02*
X135217580Y-72691761D01*
X135217580Y-72691761D02*
X135265200Y-72739380D01*
X135265200Y-72739380D02*
X135312819Y-72834618D01*
X135312819Y-72834618D02*
X135312819Y-73120332D01*
X135312819Y-73120332D02*
X135265200Y-73215570D01*
X135265200Y-73215570D02*
X135217580Y-73263189D01*
X117294819Y-79120333D02*
X117294819Y-79596523D01*
X117294819Y-79596523D02*
X116294819Y-79596523D01*
X116771009Y-78453666D02*
X116771009Y-78786999D01*
X117294819Y-78786999D02*
X116294819Y-78786999D01*
X116294819Y-78786999D02*
X116294819Y-78310809D01*
X116294819Y-77739380D02*
X116294819Y-77548904D01*
X116294819Y-77548904D02*
X116342438Y-77453666D01*
X116342438Y-77453666D02*
X116437676Y-77358428D01*
X116437676Y-77358428D02*
X116628152Y-77310809D01*
X116628152Y-77310809D02*
X116961485Y-77310809D01*
X116961485Y-77310809D02*
X117151961Y-77358428D01*
X117151961Y-77358428D02*
X117247200Y-77453666D01*
X117247200Y-77453666D02*
X117294819Y-77548904D01*
X117294819Y-77548904D02*
X117294819Y-77739380D01*
X117294819Y-77739380D02*
X117247200Y-77834618D01*
X117247200Y-77834618D02*
X117151961Y-77929856D01*
X117151961Y-77929856D02*
X116961485Y-77977475D01*
X116961485Y-77977475D02*
X116628152Y-77977475D01*
X116628152Y-77977475D02*
X116437676Y-77929856D01*
X116437676Y-77929856D02*
X116342438Y-77834618D01*
X116342438Y-77834618D02*
X116294819Y-77739380D01*
X117294819Y-76120332D02*
X116294819Y-76120332D01*
X116294819Y-76120332D02*
X116294819Y-75882237D01*
X116294819Y-75882237D02*
X116342438Y-75739380D01*
X116342438Y-75739380D02*
X116437676Y-75644142D01*
X116437676Y-75644142D02*
X116532914Y-75596523D01*
X116532914Y-75596523D02*
X116723390Y-75548904D01*
X116723390Y-75548904D02*
X116866247Y-75548904D01*
X116866247Y-75548904D02*
X117056723Y-75596523D01*
X117056723Y-75596523D02*
X117151961Y-75644142D01*
X117151961Y-75644142D02*
X117247200Y-75739380D01*
X117247200Y-75739380D02*
X117294819Y-75882237D01*
X117294819Y-75882237D02*
X117294819Y-76120332D01*
X117294819Y-75120332D02*
X116628152Y-75120332D01*
X116294819Y-75120332D02*
X116342438Y-75167951D01*
X116342438Y-75167951D02*
X116390057Y-75120332D01*
X116390057Y-75120332D02*
X116342438Y-75072713D01*
X116342438Y-75072713D02*
X116294819Y-75120332D01*
X116294819Y-75120332D02*
X116390057Y-75120332D01*
X116628152Y-74215571D02*
X117437676Y-74215571D01*
X117437676Y-74215571D02*
X117532914Y-74263190D01*
X117532914Y-74263190D02*
X117580533Y-74310809D01*
X117580533Y-74310809D02*
X117628152Y-74406047D01*
X117628152Y-74406047D02*
X117628152Y-74548904D01*
X117628152Y-74548904D02*
X117580533Y-74644142D01*
X117247200Y-74215571D02*
X117294819Y-74310809D01*
X117294819Y-74310809D02*
X117294819Y-74501285D01*
X117294819Y-74501285D02*
X117247200Y-74596523D01*
X117247200Y-74596523D02*
X117199580Y-74644142D01*
X117199580Y-74644142D02*
X117104342Y-74691761D01*
X117104342Y-74691761D02*
X116818628Y-74691761D01*
X116818628Y-74691761D02*
X116723390Y-74644142D01*
X116723390Y-74644142D02*
X116675771Y-74596523D01*
X116675771Y-74596523D02*
X116628152Y-74501285D01*
X116628152Y-74501285D02*
X116628152Y-74310809D01*
X116628152Y-74310809D02*
X116675771Y-74215571D01*
X117294819Y-73739380D02*
X116628152Y-73739380D01*
X116294819Y-73739380D02*
X116342438Y-73786999D01*
X116342438Y-73786999D02*
X116390057Y-73739380D01*
X116390057Y-73739380D02*
X116342438Y-73691761D01*
X116342438Y-73691761D02*
X116294819Y-73739380D01*
X116294819Y-73739380D02*
X116390057Y-73739380D01*
X116628152Y-73406047D02*
X116628152Y-73025095D01*
X116294819Y-73263190D02*
X117151961Y-73263190D01*
X117151961Y-73263190D02*
X117247200Y-73215571D01*
X117247200Y-73215571D02*
X117294819Y-73120333D01*
X117294819Y-73120333D02*
X117294819Y-73025095D01*
X117294819Y-72263190D02*
X116771009Y-72263190D01*
X116771009Y-72263190D02*
X116675771Y-72310809D01*
X116675771Y-72310809D02*
X116628152Y-72406047D01*
X116628152Y-72406047D02*
X116628152Y-72596523D01*
X116628152Y-72596523D02*
X116675771Y-72691761D01*
X117247200Y-72263190D02*
X117294819Y-72358428D01*
X117294819Y-72358428D02*
X117294819Y-72596523D01*
X117294819Y-72596523D02*
X117247200Y-72691761D01*
X117247200Y-72691761D02*
X117151961Y-72739380D01*
X117151961Y-72739380D02*
X117056723Y-72739380D01*
X117056723Y-72739380D02*
X116961485Y-72691761D01*
X116961485Y-72691761D02*
X116913866Y-72596523D01*
X116913866Y-72596523D02*
X116913866Y-72358428D01*
X116913866Y-72358428D02*
X116866247Y-72263190D01*
X117294819Y-71644142D02*
X117247200Y-71739380D01*
X117247200Y-71739380D02*
X117151961Y-71786999D01*
X117151961Y-71786999D02*
X116294819Y-71786999D01*
X117294819Y-71263189D02*
X116294819Y-71263189D01*
X116628152Y-70786999D02*
X117294819Y-70786999D01*
X116723390Y-70786999D02*
X116675771Y-70739380D01*
X116675771Y-70739380D02*
X116628152Y-70644142D01*
X116628152Y-70644142D02*
X116628152Y-70501285D01*
X116628152Y-70501285D02*
X116675771Y-70406047D01*
X116675771Y-70406047D02*
X116771009Y-70358428D01*
X116771009Y-70358428D02*
X117294819Y-70358428D01*
X116628152Y-69882237D02*
X117628152Y-69882237D01*
X116675771Y-69882237D02*
X116628152Y-69786999D01*
X116628152Y-69786999D02*
X116628152Y-69596523D01*
X116628152Y-69596523D02*
X116675771Y-69501285D01*
X116675771Y-69501285D02*
X116723390Y-69453666D01*
X116723390Y-69453666D02*
X116818628Y-69406047D01*
X116818628Y-69406047D02*
X117104342Y-69406047D01*
X117104342Y-69406047D02*
X117199580Y-69453666D01*
X117199580Y-69453666D02*
X117247200Y-69501285D01*
X117247200Y-69501285D02*
X117294819Y-69596523D01*
X117294819Y-69596523D02*
X117294819Y-69786999D01*
X117294819Y-69786999D02*
X117247200Y-69882237D01*
X116628152Y-68548904D02*
X117294819Y-68548904D01*
X116628152Y-68977475D02*
X117151961Y-68977475D01*
X117151961Y-68977475D02*
X117247200Y-68929856D01*
X117247200Y-68929856D02*
X117294819Y-68834618D01*
X117294819Y-68834618D02*
X117294819Y-68691761D01*
X117294819Y-68691761D02*
X117247200Y-68596523D01*
X117247200Y-68596523D02*
X117199580Y-68548904D01*
X116628152Y-68215570D02*
X116628152Y-67834618D01*
X116294819Y-68072713D02*
X117151961Y-68072713D01*
X117151961Y-68072713D02*
X117247200Y-68025094D01*
X117247200Y-68025094D02*
X117294819Y-67929856D01*
X117294819Y-67929856D02*
X117294819Y-67834618D01*
X205689580Y-69508666D02*
X205737200Y-69556285D01*
X205737200Y-69556285D02*
X205784819Y-69699142D01*
X205784819Y-69699142D02*
X205784819Y-69794380D01*
X205784819Y-69794380D02*
X205737200Y-69937237D01*
X205737200Y-69937237D02*
X205641961Y-70032475D01*
X205641961Y-70032475D02*
X205546723Y-70080094D01*
X205546723Y-70080094D02*
X205356247Y-70127713D01*
X205356247Y-70127713D02*
X205213390Y-70127713D01*
X205213390Y-70127713D02*
X205022914Y-70080094D01*
X205022914Y-70080094D02*
X204927676Y-70032475D01*
X204927676Y-70032475D02*
X204832438Y-69937237D01*
X204832438Y-69937237D02*
X204784819Y-69794380D01*
X204784819Y-69794380D02*
X204784819Y-69699142D01*
X204784819Y-69699142D02*
X204832438Y-69556285D01*
X204832438Y-69556285D02*
X204880057Y-69508666D01*
X205784819Y-69032475D02*
X205784819Y-68841999D01*
X205784819Y-68841999D02*
X205737200Y-68746761D01*
X205737200Y-68746761D02*
X205689580Y-68699142D01*
X205689580Y-68699142D02*
X205546723Y-68603904D01*
X205546723Y-68603904D02*
X205356247Y-68556285D01*
X205356247Y-68556285D02*
X204975295Y-68556285D01*
X204975295Y-68556285D02*
X204880057Y-68603904D01*
X204880057Y-68603904D02*
X204832438Y-68651523D01*
X204832438Y-68651523D02*
X204784819Y-68746761D01*
X204784819Y-68746761D02*
X204784819Y-68937237D01*
X204784819Y-68937237D02*
X204832438Y-69032475D01*
X204832438Y-69032475D02*
X204880057Y-69080094D01*
X204880057Y-69080094D02*
X204975295Y-69127713D01*
X204975295Y-69127713D02*
X205213390Y-69127713D01*
X205213390Y-69127713D02*
X205308628Y-69080094D01*
X205308628Y-69080094D02*
X205356247Y-69032475D01*
X205356247Y-69032475D02*
X205403866Y-68937237D01*
X205403866Y-68937237D02*
X205403866Y-68746761D01*
X205403866Y-68746761D02*
X205356247Y-68651523D01*
X205356247Y-68651523D02*
X205308628Y-68603904D01*
X205308628Y-68603904D02*
X205213390Y-68556285D01*
X184056580Y-56661666D02*
X184104200Y-56709285D01*
X184104200Y-56709285D02*
X184151819Y-56852142D01*
X184151819Y-56852142D02*
X184151819Y-56947380D01*
X184151819Y-56947380D02*
X184104200Y-57090237D01*
X184104200Y-57090237D02*
X184008961Y-57185475D01*
X184008961Y-57185475D02*
X183913723Y-57233094D01*
X183913723Y-57233094D02*
X183723247Y-57280713D01*
X183723247Y-57280713D02*
X183580390Y-57280713D01*
X183580390Y-57280713D02*
X183389914Y-57233094D01*
X183389914Y-57233094D02*
X183294676Y-57185475D01*
X183294676Y-57185475D02*
X183199438Y-57090237D01*
X183199438Y-57090237D02*
X183151819Y-56947380D01*
X183151819Y-56947380D02*
X183151819Y-56852142D01*
X183151819Y-56852142D02*
X183199438Y-56709285D01*
X183199438Y-56709285D02*
X183247057Y-56661666D01*
X183151819Y-56328332D02*
X183151819Y-55709285D01*
X183151819Y-55709285D02*
X183532771Y-56042618D01*
X183532771Y-56042618D02*
X183532771Y-55899761D01*
X183532771Y-55899761D02*
X183580390Y-55804523D01*
X183580390Y-55804523D02*
X183628009Y-55756904D01*
X183628009Y-55756904D02*
X183723247Y-55709285D01*
X183723247Y-55709285D02*
X183961342Y-55709285D01*
X183961342Y-55709285D02*
X184056580Y-55756904D01*
X184056580Y-55756904D02*
X184104200Y-55804523D01*
X184104200Y-55804523D02*
X184151819Y-55899761D01*
X184151819Y-55899761D02*
X184151819Y-56185475D01*
X184151819Y-56185475D02*
X184104200Y-56280713D01*
X184104200Y-56280713D02*
X184056580Y-56328332D01*
X219289333Y-64494580D02*
X219241714Y-64542200D01*
X219241714Y-64542200D02*
X219098857Y-64589819D01*
X219098857Y-64589819D02*
X219003619Y-64589819D01*
X219003619Y-64589819D02*
X218860762Y-64542200D01*
X218860762Y-64542200D02*
X218765524Y-64446961D01*
X218765524Y-64446961D02*
X218717905Y-64351723D01*
X218717905Y-64351723D02*
X218670286Y-64161247D01*
X218670286Y-64161247D02*
X218670286Y-64018390D01*
X218670286Y-64018390D02*
X218717905Y-63827914D01*
X218717905Y-63827914D02*
X218765524Y-63732676D01*
X218765524Y-63732676D02*
X218860762Y-63637438D01*
X218860762Y-63637438D02*
X219003619Y-63589819D01*
X219003619Y-63589819D02*
X219098857Y-63589819D01*
X219098857Y-63589819D02*
X219241714Y-63637438D01*
X219241714Y-63637438D02*
X219289333Y-63685057D01*
X220241714Y-64589819D02*
X219670286Y-64589819D01*
X219956000Y-64589819D02*
X219956000Y-63589819D01*
X219956000Y-63589819D02*
X219860762Y-63732676D01*
X219860762Y-63732676D02*
X219765524Y-63827914D01*
X219765524Y-63827914D02*
X219670286Y-63875533D01*
D10*
X123190476Y-52307419D02*
X123190476Y-53021704D01*
X123190476Y-53021704D02*
X123142857Y-53164561D01*
X123142857Y-53164561D02*
X123047619Y-53259800D01*
X123047619Y-53259800D02*
X122904762Y-53307419D01*
X122904762Y-53307419D02*
X122809524Y-53307419D01*
X124190476Y-53307419D02*
X123619048Y-53307419D01*
X123904762Y-53307419D02*
X123904762Y-52307419D01*
X123904762Y-52307419D02*
X123809524Y-52450276D01*
X123809524Y-52450276D02*
X123714286Y-52545514D01*
X123714286Y-52545514D02*
X123619048Y-52593133D01*
X125142857Y-53307419D02*
X124571429Y-53307419D01*
X124857143Y-53307419D02*
X124857143Y-52307419D01*
X124857143Y-52307419D02*
X124761905Y-52450276D01*
X124761905Y-52450276D02*
X124666667Y-52545514D01*
X124666667Y-52545514D02*
X124571429Y-52593133D01*
D13*
X118330952Y-51754819D02*
X118330952Y-50754819D01*
X118807142Y-51754819D02*
X118807142Y-50754819D01*
X118807142Y-50754819D02*
X119378570Y-51754819D01*
X119378570Y-51754819D02*
X119378570Y-50754819D01*
X119854761Y-51754819D02*
X119854761Y-50754819D01*
X119854761Y-50754819D02*
X120235713Y-50754819D01*
X120235713Y-50754819D02*
X120330951Y-50802438D01*
X120330951Y-50802438D02*
X120378570Y-50850057D01*
X120378570Y-50850057D02*
X120426189Y-50945295D01*
X120426189Y-50945295D02*
X120426189Y-51088152D01*
X120426189Y-51088152D02*
X120378570Y-51183390D01*
X120378570Y-51183390D02*
X120330951Y-51231009D01*
X120330951Y-51231009D02*
X120235713Y-51278628D01*
X120235713Y-51278628D02*
X119854761Y-51278628D01*
X120854761Y-50754819D02*
X120854761Y-51564342D01*
X120854761Y-51564342D02*
X120902380Y-51659580D01*
X120902380Y-51659580D02*
X120949999Y-51707200D01*
X120949999Y-51707200D02*
X121045237Y-51754819D01*
X121045237Y-51754819D02*
X121235713Y-51754819D01*
X121235713Y-51754819D02*
X121330951Y-51707200D01*
X121330951Y-51707200D02*
X121378570Y-51659580D01*
X121378570Y-51659580D02*
X121426189Y-51564342D01*
X121426189Y-51564342D02*
X121426189Y-50754819D01*
X121759523Y-50754819D02*
X122330951Y-50754819D01*
X122045237Y-51754819D02*
X122045237Y-50754819D01*
X122426190Y-51850057D02*
X123188094Y-51850057D01*
X123378571Y-51469104D02*
X123854761Y-51469104D01*
X123283333Y-51754819D02*
X123616666Y-50754819D01*
X123616666Y-50754819D02*
X123949999Y-51754819D01*
X124854761Y-51659580D02*
X124807142Y-51707200D01*
X124807142Y-51707200D02*
X124664285Y-51754819D01*
X124664285Y-51754819D02*
X124569047Y-51754819D01*
X124569047Y-51754819D02*
X124426190Y-51707200D01*
X124426190Y-51707200D02*
X124330952Y-51611961D01*
X124330952Y-51611961D02*
X124283333Y-51516723D01*
X124283333Y-51516723D02*
X124235714Y-51326247D01*
X124235714Y-51326247D02*
X124235714Y-51183390D01*
X124235714Y-51183390D02*
X124283333Y-50992914D01*
X124283333Y-50992914D02*
X124330952Y-50897676D01*
X124330952Y-50897676D02*
X124426190Y-50802438D01*
X124426190Y-50802438D02*
X124569047Y-50754819D01*
X124569047Y-50754819D02*
X124664285Y-50754819D01*
X124664285Y-50754819D02*
X124807142Y-50802438D01*
X124807142Y-50802438D02*
X124854761Y-50850057D01*
X125854761Y-51659580D02*
X125807142Y-51707200D01*
X125807142Y-51707200D02*
X125664285Y-51754819D01*
X125664285Y-51754819D02*
X125569047Y-51754819D01*
X125569047Y-51754819D02*
X125426190Y-51707200D01*
X125426190Y-51707200D02*
X125330952Y-51611961D01*
X125330952Y-51611961D02*
X125283333Y-51516723D01*
X125283333Y-51516723D02*
X125235714Y-51326247D01*
X125235714Y-51326247D02*
X125235714Y-51183390D01*
X125235714Y-51183390D02*
X125283333Y-50992914D01*
X125283333Y-50992914D02*
X125330952Y-50897676D01*
X125330952Y-50897676D02*
X125426190Y-50802438D01*
X125426190Y-50802438D02*
X125569047Y-50754819D01*
X125569047Y-50754819D02*
X125664285Y-50754819D01*
X125664285Y-50754819D02*
X125807142Y-50802438D01*
X125807142Y-50802438D02*
X125854761Y-50850057D01*
X126045238Y-51850057D02*
X126807142Y-51850057D01*
X126997619Y-51469104D02*
X127473809Y-51469104D01*
X126902381Y-51754819D02*
X127235714Y-50754819D01*
X127235714Y-50754819D02*
X127569047Y-51754819D01*
X127902381Y-51754819D02*
X127902381Y-50754819D01*
X127902381Y-50754819D02*
X128235714Y-51469104D01*
X128235714Y-51469104D02*
X128569047Y-50754819D01*
X128569047Y-50754819D02*
X128569047Y-51754819D01*
X129045238Y-51754819D02*
X129045238Y-50754819D01*
X129045238Y-50754819D02*
X129426190Y-50754819D01*
X129426190Y-50754819D02*
X129521428Y-50802438D01*
X129521428Y-50802438D02*
X129569047Y-50850057D01*
X129569047Y-50850057D02*
X129616666Y-50945295D01*
X129616666Y-50945295D02*
X129616666Y-51088152D01*
X129616666Y-51088152D02*
X129569047Y-51183390D01*
X129569047Y-51183390D02*
X129521428Y-51231009D01*
X129521428Y-51231009D02*
X129426190Y-51278628D01*
X129426190Y-51278628D02*
X129045238Y-51278628D01*
X200482580Y-69635666D02*
X200530200Y-69683285D01*
X200530200Y-69683285D02*
X200577819Y-69826142D01*
X200577819Y-69826142D02*
X200577819Y-69921380D01*
X200577819Y-69921380D02*
X200530200Y-70064237D01*
X200530200Y-70064237D02*
X200434961Y-70159475D01*
X200434961Y-70159475D02*
X200339723Y-70207094D01*
X200339723Y-70207094D02*
X200149247Y-70254713D01*
X200149247Y-70254713D02*
X200006390Y-70254713D01*
X200006390Y-70254713D02*
X199815914Y-70207094D01*
X199815914Y-70207094D02*
X199720676Y-70159475D01*
X199720676Y-70159475D02*
X199625438Y-70064237D01*
X199625438Y-70064237D02*
X199577819Y-69921380D01*
X199577819Y-69921380D02*
X199577819Y-69826142D01*
X199577819Y-69826142D02*
X199625438Y-69683285D01*
X199625438Y-69683285D02*
X199673057Y-69635666D01*
X199577819Y-69302332D02*
X199577819Y-68635666D01*
X199577819Y-68635666D02*
X200577819Y-69064237D01*
X193492095Y-80753819D02*
X193492095Y-81563342D01*
X193492095Y-81563342D02*
X193539714Y-81658580D01*
X193539714Y-81658580D02*
X193587333Y-81706200D01*
X193587333Y-81706200D02*
X193682571Y-81753819D01*
X193682571Y-81753819D02*
X193873047Y-81753819D01*
X193873047Y-81753819D02*
X193968285Y-81706200D01*
X193968285Y-81706200D02*
X194015904Y-81658580D01*
X194015904Y-81658580D02*
X194063523Y-81563342D01*
X194063523Y-81563342D02*
X194063523Y-80753819D01*
X194492095Y-80849057D02*
X194539714Y-80801438D01*
X194539714Y-80801438D02*
X194634952Y-80753819D01*
X194634952Y-80753819D02*
X194873047Y-80753819D01*
X194873047Y-80753819D02*
X194968285Y-80801438D01*
X194968285Y-80801438D02*
X195015904Y-80849057D01*
X195015904Y-80849057D02*
X195063523Y-80944295D01*
X195063523Y-80944295D02*
X195063523Y-81039533D01*
X195063523Y-81039533D02*
X195015904Y-81182390D01*
X195015904Y-81182390D02*
X194444476Y-81753819D01*
X194444476Y-81753819D02*
X195063523Y-81753819D01*
D10*
X98983332Y-52345419D02*
X98983332Y-53059704D01*
X98983332Y-53059704D02*
X98935713Y-53202561D01*
X98935713Y-53202561D02*
X98840475Y-53297800D01*
X98840475Y-53297800D02*
X98697618Y-53345419D01*
X98697618Y-53345419D02*
X98602380Y-53345419D01*
X99983332Y-53345419D02*
X99411904Y-53345419D01*
X99697618Y-53345419D02*
X99697618Y-52345419D01*
X99697618Y-52345419D02*
X99602380Y-52488276D01*
X99602380Y-52488276D02*
X99507142Y-52583514D01*
X99507142Y-52583514D02*
X99411904Y-52631133D01*
D13*
X96711905Y-51754819D02*
X96711905Y-50754819D01*
X97188095Y-51754819D02*
X97188095Y-50754819D01*
X97188095Y-50754819D02*
X97759523Y-51754819D01*
X97759523Y-51754819D02*
X97759523Y-50754819D01*
X98235714Y-51754819D02*
X98235714Y-50754819D01*
X98235714Y-50754819D02*
X98616666Y-50754819D01*
X98616666Y-50754819D02*
X98711904Y-50802438D01*
X98711904Y-50802438D02*
X98759523Y-50850057D01*
X98759523Y-50850057D02*
X98807142Y-50945295D01*
X98807142Y-50945295D02*
X98807142Y-51088152D01*
X98807142Y-51088152D02*
X98759523Y-51183390D01*
X98759523Y-51183390D02*
X98711904Y-51231009D01*
X98711904Y-51231009D02*
X98616666Y-51278628D01*
X98616666Y-51278628D02*
X98235714Y-51278628D01*
X99235714Y-50754819D02*
X99235714Y-51564342D01*
X99235714Y-51564342D02*
X99283333Y-51659580D01*
X99283333Y-51659580D02*
X99330952Y-51707200D01*
X99330952Y-51707200D02*
X99426190Y-51754819D01*
X99426190Y-51754819D02*
X99616666Y-51754819D01*
X99616666Y-51754819D02*
X99711904Y-51707200D01*
X99711904Y-51707200D02*
X99759523Y-51659580D01*
X99759523Y-51659580D02*
X99807142Y-51564342D01*
X99807142Y-51564342D02*
X99807142Y-50754819D01*
X100140476Y-50754819D02*
X100711904Y-50754819D01*
X100426190Y-51754819D02*
X100426190Y-50754819D01*
X100807143Y-51850057D02*
X101569047Y-51850057D01*
X102378571Y-51659580D02*
X102330952Y-51707200D01*
X102330952Y-51707200D02*
X102188095Y-51754819D01*
X102188095Y-51754819D02*
X102092857Y-51754819D01*
X102092857Y-51754819D02*
X101950000Y-51707200D01*
X101950000Y-51707200D02*
X101854762Y-51611961D01*
X101854762Y-51611961D02*
X101807143Y-51516723D01*
X101807143Y-51516723D02*
X101759524Y-51326247D01*
X101759524Y-51326247D02*
X101759524Y-51183390D01*
X101759524Y-51183390D02*
X101807143Y-50992914D01*
X101807143Y-50992914D02*
X101854762Y-50897676D01*
X101854762Y-50897676D02*
X101950000Y-50802438D01*
X101950000Y-50802438D02*
X102092857Y-50754819D01*
X102092857Y-50754819D02*
X102188095Y-50754819D01*
X102188095Y-50754819D02*
X102330952Y-50802438D01*
X102330952Y-50802438D02*
X102378571Y-50850057D01*
X102664286Y-50754819D02*
X102997619Y-51754819D01*
X102997619Y-51754819D02*
X103330952Y-50754819D01*
X143081476Y-69050819D02*
X143081476Y-69765104D01*
X143081476Y-69765104D02*
X143033857Y-69907961D01*
X143033857Y-69907961D02*
X142938619Y-70003200D01*
X142938619Y-70003200D02*
X142795762Y-70050819D01*
X142795762Y-70050819D02*
X142700524Y-70050819D01*
X144081476Y-70050819D02*
X143510048Y-70050819D01*
X143795762Y-70050819D02*
X143795762Y-69050819D01*
X143795762Y-69050819D02*
X143700524Y-69193676D01*
X143700524Y-69193676D02*
X143605286Y-69288914D01*
X143605286Y-69288914D02*
X143510048Y-69336533D01*
X144462429Y-69146057D02*
X144510048Y-69098438D01*
X144510048Y-69098438D02*
X144605286Y-69050819D01*
X144605286Y-69050819D02*
X144843381Y-69050819D01*
X144843381Y-69050819D02*
X144938619Y-69098438D01*
X144938619Y-69098438D02*
X144986238Y-69146057D01*
X144986238Y-69146057D02*
X145033857Y-69241295D01*
X145033857Y-69241295D02*
X145033857Y-69336533D01*
X145033857Y-69336533D02*
X144986238Y-69479390D01*
X144986238Y-69479390D02*
X144414810Y-70050819D01*
X144414810Y-70050819D02*
X145033857Y-70050819D01*
X161504333Y-65859819D02*
X161171000Y-65383628D01*
X160932905Y-65859819D02*
X160932905Y-64859819D01*
X160932905Y-64859819D02*
X161313857Y-64859819D01*
X161313857Y-64859819D02*
X161409095Y-64907438D01*
X161409095Y-64907438D02*
X161456714Y-64955057D01*
X161456714Y-64955057D02*
X161504333Y-65050295D01*
X161504333Y-65050295D02*
X161504333Y-65193152D01*
X161504333Y-65193152D02*
X161456714Y-65288390D01*
X161456714Y-65288390D02*
X161409095Y-65336009D01*
X161409095Y-65336009D02*
X161313857Y-65383628D01*
X161313857Y-65383628D02*
X160932905Y-65383628D01*
X161885286Y-64955057D02*
X161932905Y-64907438D01*
X161932905Y-64907438D02*
X162028143Y-64859819D01*
X162028143Y-64859819D02*
X162266238Y-64859819D01*
X162266238Y-64859819D02*
X162361476Y-64907438D01*
X162361476Y-64907438D02*
X162409095Y-64955057D01*
X162409095Y-64955057D02*
X162456714Y-65050295D01*
X162456714Y-65050295D02*
X162456714Y-65145533D01*
X162456714Y-65145533D02*
X162409095Y-65288390D01*
X162409095Y-65288390D02*
X161837667Y-65859819D01*
X161837667Y-65859819D02*
X162456714Y-65859819D01*
X179512819Y-53800333D02*
X180227104Y-53800333D01*
X180227104Y-53800333D02*
X180369961Y-53847952D01*
X180369961Y-53847952D02*
X180465200Y-53943190D01*
X180465200Y-53943190D02*
X180512819Y-54086047D01*
X180512819Y-54086047D02*
X180512819Y-54181285D01*
X180512819Y-53276523D02*
X180512819Y-53086047D01*
X180512819Y-53086047D02*
X180465200Y-52990809D01*
X180465200Y-52990809D02*
X180417580Y-52943190D01*
X180417580Y-52943190D02*
X180274723Y-52847952D01*
X180274723Y-52847952D02*
X180084247Y-52800333D01*
X180084247Y-52800333D02*
X179703295Y-52800333D01*
X179703295Y-52800333D02*
X179608057Y-52847952D01*
X179608057Y-52847952D02*
X179560438Y-52895571D01*
X179560438Y-52895571D02*
X179512819Y-52990809D01*
X179512819Y-52990809D02*
X179512819Y-53181285D01*
X179512819Y-53181285D02*
X179560438Y-53276523D01*
X179560438Y-53276523D02*
X179608057Y-53324142D01*
X179608057Y-53324142D02*
X179703295Y-53371761D01*
X179703295Y-53371761D02*
X179941390Y-53371761D01*
X179941390Y-53371761D02*
X180036628Y-53324142D01*
X180036628Y-53324142D02*
X180084247Y-53276523D01*
X180084247Y-53276523D02*
X180131866Y-53181285D01*
X180131866Y-53181285D02*
X180131866Y-52990809D01*
X180131866Y-52990809D02*
X180084247Y-52895571D01*
X180084247Y-52895571D02*
X180036628Y-52847952D01*
X180036628Y-52847952D02*
X179941390Y-52800333D01*
X211644580Y-76299666D02*
X211692200Y-76347285D01*
X211692200Y-76347285D02*
X211739819Y-76490142D01*
X211739819Y-76490142D02*
X211739819Y-76585380D01*
X211739819Y-76585380D02*
X211692200Y-76728237D01*
X211692200Y-76728237D02*
X211596961Y-76823475D01*
X211596961Y-76823475D02*
X211501723Y-76871094D01*
X211501723Y-76871094D02*
X211311247Y-76918713D01*
X211311247Y-76918713D02*
X211168390Y-76918713D01*
X211168390Y-76918713D02*
X210977914Y-76871094D01*
X210977914Y-76871094D02*
X210882676Y-76823475D01*
X210882676Y-76823475D02*
X210787438Y-76728237D01*
X210787438Y-76728237D02*
X210739819Y-76585380D01*
X210739819Y-76585380D02*
X210739819Y-76490142D01*
X210739819Y-76490142D02*
X210787438Y-76347285D01*
X210787438Y-76347285D02*
X210835057Y-76299666D01*
X210739819Y-75442523D02*
X210739819Y-75632999D01*
X210739819Y-75632999D02*
X210787438Y-75728237D01*
X210787438Y-75728237D02*
X210835057Y-75775856D01*
X210835057Y-75775856D02*
X210977914Y-75871094D01*
X210977914Y-75871094D02*
X211168390Y-75918713D01*
X211168390Y-75918713D02*
X211549342Y-75918713D01*
X211549342Y-75918713D02*
X211644580Y-75871094D01*
X211644580Y-75871094D02*
X211692200Y-75823475D01*
X211692200Y-75823475D02*
X211739819Y-75728237D01*
X211739819Y-75728237D02*
X211739819Y-75537761D01*
X211739819Y-75537761D02*
X211692200Y-75442523D01*
X211692200Y-75442523D02*
X211644580Y-75394904D01*
X211644580Y-75394904D02*
X211549342Y-75347285D01*
X211549342Y-75347285D02*
X211311247Y-75347285D01*
X211311247Y-75347285D02*
X211216009Y-75394904D01*
X211216009Y-75394904D02*
X211168390Y-75442523D01*
X211168390Y-75442523D02*
X211120771Y-75537761D01*
X211120771Y-75537761D02*
X211120771Y-75728237D01*
X211120771Y-75728237D02*
X211168390Y-75823475D01*
X211168390Y-75823475D02*
X211216009Y-75871094D01*
X211216009Y-75871094D02*
X211311247Y-75918713D01*
X189141580Y-76470666D02*
X189189200Y-76518285D01*
X189189200Y-76518285D02*
X189236819Y-76661142D01*
X189236819Y-76661142D02*
X189236819Y-76756380D01*
X189236819Y-76756380D02*
X189189200Y-76899237D01*
X189189200Y-76899237D02*
X189093961Y-76994475D01*
X189093961Y-76994475D02*
X188998723Y-77042094D01*
X188998723Y-77042094D02*
X188808247Y-77089713D01*
X188808247Y-77089713D02*
X188665390Y-77089713D01*
X188665390Y-77089713D02*
X188474914Y-77042094D01*
X188474914Y-77042094D02*
X188379676Y-76994475D01*
X188379676Y-76994475D02*
X188284438Y-76899237D01*
X188284438Y-76899237D02*
X188236819Y-76756380D01*
X188236819Y-76756380D02*
X188236819Y-76661142D01*
X188236819Y-76661142D02*
X188284438Y-76518285D01*
X188284438Y-76518285D02*
X188332057Y-76470666D01*
X188236819Y-75565904D02*
X188236819Y-76042094D01*
X188236819Y-76042094D02*
X188713009Y-76089713D01*
X188713009Y-76089713D02*
X188665390Y-76042094D01*
X188665390Y-76042094D02*
X188617771Y-75946856D01*
X188617771Y-75946856D02*
X188617771Y-75708761D01*
X188617771Y-75708761D02*
X188665390Y-75613523D01*
X188665390Y-75613523D02*
X188713009Y-75565904D01*
X188713009Y-75565904D02*
X188808247Y-75518285D01*
X188808247Y-75518285D02*
X189046342Y-75518285D01*
X189046342Y-75518285D02*
X189141580Y-75565904D01*
X189141580Y-75565904D02*
X189189200Y-75613523D01*
X189189200Y-75613523D02*
X189236819Y-75708761D01*
X189236819Y-75708761D02*
X189236819Y-75946856D01*
X189236819Y-75946856D02*
X189189200Y-76042094D01*
X189189200Y-76042094D02*
X189141580Y-76089713D01*
X181064819Y-74695333D02*
X181779104Y-74695333D01*
X181779104Y-74695333D02*
X181921961Y-74742952D01*
X181921961Y-74742952D02*
X182017200Y-74838190D01*
X182017200Y-74838190D02*
X182064819Y-74981047D01*
X182064819Y-74981047D02*
X182064819Y-75076285D01*
X181064819Y-74314380D02*
X181064819Y-73647714D01*
X181064819Y-73647714D02*
X182064819Y-74076285D01*
X159472333Y-58652580D02*
X159424714Y-58700200D01*
X159424714Y-58700200D02*
X159281857Y-58747819D01*
X159281857Y-58747819D02*
X159186619Y-58747819D01*
X159186619Y-58747819D02*
X159043762Y-58700200D01*
X159043762Y-58700200D02*
X158948524Y-58604961D01*
X158948524Y-58604961D02*
X158900905Y-58509723D01*
X158900905Y-58509723D02*
X158853286Y-58319247D01*
X158853286Y-58319247D02*
X158853286Y-58176390D01*
X158853286Y-58176390D02*
X158900905Y-57985914D01*
X158900905Y-57985914D02*
X158948524Y-57890676D01*
X158948524Y-57890676D02*
X159043762Y-57795438D01*
X159043762Y-57795438D02*
X159186619Y-57747819D01*
X159186619Y-57747819D02*
X159281857Y-57747819D01*
X159281857Y-57747819D02*
X159424714Y-57795438D01*
X159424714Y-57795438D02*
X159472333Y-57843057D01*
X160329476Y-58081152D02*
X160329476Y-58747819D01*
X160091381Y-57700200D02*
X159853286Y-58414485D01*
X159853286Y-58414485D02*
X160472333Y-58414485D01*
X184056580Y-62757666D02*
X184104200Y-62805285D01*
X184104200Y-62805285D02*
X184151819Y-62948142D01*
X184151819Y-62948142D02*
X184151819Y-63043380D01*
X184151819Y-63043380D02*
X184104200Y-63186237D01*
X184104200Y-63186237D02*
X184008961Y-63281475D01*
X184008961Y-63281475D02*
X183913723Y-63329094D01*
X183913723Y-63329094D02*
X183723247Y-63376713D01*
X183723247Y-63376713D02*
X183580390Y-63376713D01*
X183580390Y-63376713D02*
X183389914Y-63329094D01*
X183389914Y-63329094D02*
X183294676Y-63281475D01*
X183294676Y-63281475D02*
X183199438Y-63186237D01*
X183199438Y-63186237D02*
X183151819Y-63043380D01*
X183151819Y-63043380D02*
X183151819Y-62948142D01*
X183151819Y-62948142D02*
X183199438Y-62805285D01*
X183199438Y-62805285D02*
X183247057Y-62757666D01*
X183247057Y-62376713D02*
X183199438Y-62329094D01*
X183199438Y-62329094D02*
X183151819Y-62233856D01*
X183151819Y-62233856D02*
X183151819Y-61995761D01*
X183151819Y-61995761D02*
X183199438Y-61900523D01*
X183199438Y-61900523D02*
X183247057Y-61852904D01*
X183247057Y-61852904D02*
X183342295Y-61805285D01*
X183342295Y-61805285D02*
X183437533Y-61805285D01*
X183437533Y-61805285D02*
X183580390Y-61852904D01*
X183580390Y-61852904D02*
X184151819Y-62424332D01*
X184151819Y-62424332D02*
X184151819Y-61805285D01*
D10*
X146015666Y-52361419D02*
X146015666Y-53075704D01*
X146015666Y-53075704D02*
X145968047Y-53218561D01*
X145968047Y-53218561D02*
X145872809Y-53313800D01*
X145872809Y-53313800D02*
X145729952Y-53361419D01*
X145729952Y-53361419D02*
X145634714Y-53361419D01*
X146396619Y-52361419D02*
X147015666Y-52361419D01*
X147015666Y-52361419D02*
X146682333Y-52742371D01*
X146682333Y-52742371D02*
X146825190Y-52742371D01*
X146825190Y-52742371D02*
X146920428Y-52789990D01*
X146920428Y-52789990D02*
X146968047Y-52837609D01*
X146968047Y-52837609D02*
X147015666Y-52932847D01*
X147015666Y-52932847D02*
X147015666Y-53170942D01*
X147015666Y-53170942D02*
X146968047Y-53266180D01*
X146968047Y-53266180D02*
X146920428Y-53313800D01*
X146920428Y-53313800D02*
X146825190Y-53361419D01*
X146825190Y-53361419D02*
X146539476Y-53361419D01*
X146539476Y-53361419D02*
X146444238Y-53313800D01*
X146444238Y-53313800D02*
X146396619Y-53266180D01*
D13*
X142950000Y-50754819D02*
X143140476Y-50754819D01*
X143140476Y-50754819D02*
X143235714Y-50802438D01*
X143235714Y-50802438D02*
X143330952Y-50897676D01*
X143330952Y-50897676D02*
X143378571Y-51088152D01*
X143378571Y-51088152D02*
X143378571Y-51421485D01*
X143378571Y-51421485D02*
X143330952Y-51611961D01*
X143330952Y-51611961D02*
X143235714Y-51707200D01*
X143235714Y-51707200D02*
X143140476Y-51754819D01*
X143140476Y-51754819D02*
X142950000Y-51754819D01*
X142950000Y-51754819D02*
X142854762Y-51707200D01*
X142854762Y-51707200D02*
X142759524Y-51611961D01*
X142759524Y-51611961D02*
X142711905Y-51421485D01*
X142711905Y-51421485D02*
X142711905Y-51088152D01*
X142711905Y-51088152D02*
X142759524Y-50897676D01*
X142759524Y-50897676D02*
X142854762Y-50802438D01*
X142854762Y-50802438D02*
X142950000Y-50754819D01*
X143807143Y-50754819D02*
X143807143Y-51564342D01*
X143807143Y-51564342D02*
X143854762Y-51659580D01*
X143854762Y-51659580D02*
X143902381Y-51707200D01*
X143902381Y-51707200D02*
X143997619Y-51754819D01*
X143997619Y-51754819D02*
X144188095Y-51754819D01*
X144188095Y-51754819D02*
X144283333Y-51707200D01*
X144283333Y-51707200D02*
X144330952Y-51659580D01*
X144330952Y-51659580D02*
X144378571Y-51564342D01*
X144378571Y-51564342D02*
X144378571Y-50754819D01*
X144711905Y-50754819D02*
X145283333Y-50754819D01*
X144997619Y-51754819D02*
X144997619Y-50754819D01*
X145616667Y-51754819D02*
X145616667Y-50754819D01*
X145616667Y-50754819D02*
X145997619Y-50754819D01*
X145997619Y-50754819D02*
X146092857Y-50802438D01*
X146092857Y-50802438D02*
X146140476Y-50850057D01*
X146140476Y-50850057D02*
X146188095Y-50945295D01*
X146188095Y-50945295D02*
X146188095Y-51088152D01*
X146188095Y-51088152D02*
X146140476Y-51183390D01*
X146140476Y-51183390D02*
X146092857Y-51231009D01*
X146092857Y-51231009D02*
X145997619Y-51278628D01*
X145997619Y-51278628D02*
X145616667Y-51278628D01*
X146616667Y-50754819D02*
X146616667Y-51564342D01*
X146616667Y-51564342D02*
X146664286Y-51659580D01*
X146664286Y-51659580D02*
X146711905Y-51707200D01*
X146711905Y-51707200D02*
X146807143Y-51754819D01*
X146807143Y-51754819D02*
X146997619Y-51754819D01*
X146997619Y-51754819D02*
X147092857Y-51707200D01*
X147092857Y-51707200D02*
X147140476Y-51659580D01*
X147140476Y-51659580D02*
X147188095Y-51564342D01*
X147188095Y-51564342D02*
X147188095Y-50754819D01*
X147521429Y-50754819D02*
X148092857Y-50754819D01*
X147807143Y-51754819D02*
X147807143Y-50754819D01*
X148188096Y-51850057D02*
X148950000Y-51850057D01*
X149140477Y-51469104D02*
X149616667Y-51469104D01*
X149045239Y-51754819D02*
X149378572Y-50754819D01*
X149378572Y-50754819D02*
X149711905Y-51754819D01*
X150045239Y-50754819D02*
X150045239Y-51564342D01*
X150045239Y-51564342D02*
X150092858Y-51659580D01*
X150092858Y-51659580D02*
X150140477Y-51707200D01*
X150140477Y-51707200D02*
X150235715Y-51754819D01*
X150235715Y-51754819D02*
X150426191Y-51754819D01*
X150426191Y-51754819D02*
X150521429Y-51707200D01*
X150521429Y-51707200D02*
X150569048Y-51659580D01*
X150569048Y-51659580D02*
X150616667Y-51564342D01*
X150616667Y-51564342D02*
X150616667Y-50754819D01*
X151092858Y-51754819D02*
X151092858Y-50754819D01*
X151092858Y-50754819D02*
X151330953Y-50754819D01*
X151330953Y-50754819D02*
X151473810Y-50802438D01*
X151473810Y-50802438D02*
X151569048Y-50897676D01*
X151569048Y-50897676D02*
X151616667Y-50992914D01*
X151616667Y-50992914D02*
X151664286Y-51183390D01*
X151664286Y-51183390D02*
X151664286Y-51326247D01*
X151664286Y-51326247D02*
X151616667Y-51516723D01*
X151616667Y-51516723D02*
X151569048Y-51611961D01*
X151569048Y-51611961D02*
X151473810Y-51707200D01*
X151473810Y-51707200D02*
X151330953Y-51754819D01*
X151330953Y-51754819D02*
X151092858Y-51754819D01*
X152092858Y-51754819D02*
X152092858Y-50754819D01*
X152759524Y-50754819D02*
X152950000Y-50754819D01*
X152950000Y-50754819D02*
X153045238Y-50802438D01*
X153045238Y-50802438D02*
X153140476Y-50897676D01*
X153140476Y-50897676D02*
X153188095Y-51088152D01*
X153188095Y-51088152D02*
X153188095Y-51421485D01*
X153188095Y-51421485D02*
X153140476Y-51611961D01*
X153140476Y-51611961D02*
X153045238Y-51707200D01*
X153045238Y-51707200D02*
X152950000Y-51754819D01*
X152950000Y-51754819D02*
X152759524Y-51754819D01*
X152759524Y-51754819D02*
X152664286Y-51707200D01*
X152664286Y-51707200D02*
X152569048Y-51611961D01*
X152569048Y-51611961D02*
X152521429Y-51421485D01*
X152521429Y-51421485D02*
X152521429Y-51088152D01*
X152521429Y-51088152D02*
X152569048Y-50897676D01*
X152569048Y-50897676D02*
X152664286Y-50802438D01*
X152664286Y-50802438D02*
X152759524Y-50754819D01*
D10*
X112160666Y-52345419D02*
X112160666Y-53059704D01*
X112160666Y-53059704D02*
X112113047Y-53202561D01*
X112113047Y-53202561D02*
X112017809Y-53297800D01*
X112017809Y-53297800D02*
X111874952Y-53345419D01*
X111874952Y-53345419D02*
X111779714Y-53345419D01*
X112589238Y-52440657D02*
X112636857Y-52393038D01*
X112636857Y-52393038D02*
X112732095Y-52345419D01*
X112732095Y-52345419D02*
X112970190Y-52345419D01*
X112970190Y-52345419D02*
X113065428Y-52393038D01*
X113065428Y-52393038D02*
X113113047Y-52440657D01*
X113113047Y-52440657D02*
X113160666Y-52535895D01*
X113160666Y-52535895D02*
X113160666Y-52631133D01*
X113160666Y-52631133D02*
X113113047Y-52773990D01*
X113113047Y-52773990D02*
X112541619Y-53345419D01*
X112541619Y-53345419D02*
X113160666Y-53345419D01*
D13*
X107878571Y-51754819D02*
X107878571Y-50754819D01*
X108354761Y-51754819D02*
X108354761Y-50754819D01*
X108354761Y-50754819D02*
X108926189Y-51754819D01*
X108926189Y-51754819D02*
X108926189Y-50754819D01*
X109402380Y-51754819D02*
X109402380Y-50754819D01*
X109402380Y-50754819D02*
X109783332Y-50754819D01*
X109783332Y-50754819D02*
X109878570Y-50802438D01*
X109878570Y-50802438D02*
X109926189Y-50850057D01*
X109926189Y-50850057D02*
X109973808Y-50945295D01*
X109973808Y-50945295D02*
X109973808Y-51088152D01*
X109973808Y-51088152D02*
X109926189Y-51183390D01*
X109926189Y-51183390D02*
X109878570Y-51231009D01*
X109878570Y-51231009D02*
X109783332Y-51278628D01*
X109783332Y-51278628D02*
X109402380Y-51278628D01*
X110402380Y-50754819D02*
X110402380Y-51564342D01*
X110402380Y-51564342D02*
X110449999Y-51659580D01*
X110449999Y-51659580D02*
X110497618Y-51707200D01*
X110497618Y-51707200D02*
X110592856Y-51754819D01*
X110592856Y-51754819D02*
X110783332Y-51754819D01*
X110783332Y-51754819D02*
X110878570Y-51707200D01*
X110878570Y-51707200D02*
X110926189Y-51659580D01*
X110926189Y-51659580D02*
X110973808Y-51564342D01*
X110973808Y-51564342D02*
X110973808Y-50754819D01*
X111307142Y-50754819D02*
X111878570Y-50754819D01*
X111592856Y-51754819D02*
X111592856Y-50754819D01*
X111973809Y-51850057D02*
X112735713Y-51850057D01*
X113497618Y-50802438D02*
X113402380Y-50754819D01*
X113402380Y-50754819D02*
X113259523Y-50754819D01*
X113259523Y-50754819D02*
X113116666Y-50802438D01*
X113116666Y-50802438D02*
X113021428Y-50897676D01*
X113021428Y-50897676D02*
X112973809Y-50992914D01*
X112973809Y-50992914D02*
X112926190Y-51183390D01*
X112926190Y-51183390D02*
X112926190Y-51326247D01*
X112926190Y-51326247D02*
X112973809Y-51516723D01*
X112973809Y-51516723D02*
X113021428Y-51611961D01*
X113021428Y-51611961D02*
X113116666Y-51707200D01*
X113116666Y-51707200D02*
X113259523Y-51754819D01*
X113259523Y-51754819D02*
X113354761Y-51754819D01*
X113354761Y-51754819D02*
X113497618Y-51707200D01*
X113497618Y-51707200D02*
X113545237Y-51659580D01*
X113545237Y-51659580D02*
X113545237Y-51326247D01*
X113545237Y-51326247D02*
X113354761Y-51326247D01*
X113926190Y-51469104D02*
X114402380Y-51469104D01*
X113830952Y-51754819D02*
X114164285Y-50754819D01*
X114164285Y-50754819D02*
X114497618Y-51754819D01*
X114688095Y-50754819D02*
X115259523Y-50754819D01*
X114973809Y-51754819D02*
X114973809Y-50754819D01*
X115592857Y-51231009D02*
X115926190Y-51231009D01*
X116069047Y-51754819D02*
X115592857Y-51754819D01*
X115592857Y-51754819D02*
X115592857Y-50754819D01*
X115592857Y-50754819D02*
X116069047Y-50754819D01*
X113357819Y-74120333D02*
X114072104Y-74120333D01*
X114072104Y-74120333D02*
X114214961Y-74167952D01*
X114214961Y-74167952D02*
X114310200Y-74263190D01*
X114310200Y-74263190D02*
X114357819Y-74406047D01*
X114357819Y-74406047D02*
X114357819Y-74501285D01*
X113357819Y-73215571D02*
X113357819Y-73406047D01*
X113357819Y-73406047D02*
X113405438Y-73501285D01*
X113405438Y-73501285D02*
X113453057Y-73548904D01*
X113453057Y-73548904D02*
X113595914Y-73644142D01*
X113595914Y-73644142D02*
X113786390Y-73691761D01*
X113786390Y-73691761D02*
X114167342Y-73691761D01*
X114167342Y-73691761D02*
X114262580Y-73644142D01*
X114262580Y-73644142D02*
X114310200Y-73596523D01*
X114310200Y-73596523D02*
X114357819Y-73501285D01*
X114357819Y-73501285D02*
X114357819Y-73310809D01*
X114357819Y-73310809D02*
X114310200Y-73215571D01*
X114310200Y-73215571D02*
X114262580Y-73167952D01*
X114262580Y-73167952D02*
X114167342Y-73120333D01*
X114167342Y-73120333D02*
X113929247Y-73120333D01*
X113929247Y-73120333D02*
X113834009Y-73167952D01*
X113834009Y-73167952D02*
X113786390Y-73215571D01*
X113786390Y-73215571D02*
X113738771Y-73310809D01*
X113738771Y-73310809D02*
X113738771Y-73501285D01*
X113738771Y-73501285D02*
X113786390Y-73596523D01*
X113786390Y-73596523D02*
X113834009Y-73644142D01*
X113834009Y-73644142D02*
X113929247Y-73691761D01*
X94673009Y-79191761D02*
X94673009Y-78858428D01*
X95196819Y-78715571D02*
X95196819Y-79191761D01*
X95196819Y-79191761D02*
X94196819Y-79191761D01*
X94196819Y-79191761D02*
X94196819Y-78715571D01*
X94244438Y-77763190D02*
X94196819Y-77858428D01*
X94196819Y-77858428D02*
X94196819Y-78001285D01*
X94196819Y-78001285D02*
X94244438Y-78144142D01*
X94244438Y-78144142D02*
X94339676Y-78239380D01*
X94339676Y-78239380D02*
X94434914Y-78286999D01*
X94434914Y-78286999D02*
X94625390Y-78334618D01*
X94625390Y-78334618D02*
X94768247Y-78334618D01*
X94768247Y-78334618D02*
X94958723Y-78286999D01*
X94958723Y-78286999D02*
X95053961Y-78239380D01*
X95053961Y-78239380D02*
X95149200Y-78144142D01*
X95149200Y-78144142D02*
X95196819Y-78001285D01*
X95196819Y-78001285D02*
X95196819Y-77906047D01*
X95196819Y-77906047D02*
X95149200Y-77763190D01*
X95149200Y-77763190D02*
X95101580Y-77715571D01*
X95101580Y-77715571D02*
X94768247Y-77715571D01*
X94768247Y-77715571D02*
X94768247Y-77906047D01*
X95196819Y-76525094D02*
X94196819Y-76525094D01*
X94196819Y-76525094D02*
X94196819Y-76286999D01*
X94196819Y-76286999D02*
X94244438Y-76144142D01*
X94244438Y-76144142D02*
X94339676Y-76048904D01*
X94339676Y-76048904D02*
X94434914Y-76001285D01*
X94434914Y-76001285D02*
X94625390Y-75953666D01*
X94625390Y-75953666D02*
X94768247Y-75953666D01*
X94768247Y-75953666D02*
X94958723Y-76001285D01*
X94958723Y-76001285D02*
X95053961Y-76048904D01*
X95053961Y-76048904D02*
X95149200Y-76144142D01*
X95149200Y-76144142D02*
X95196819Y-76286999D01*
X95196819Y-76286999D02*
X95196819Y-76525094D01*
X95196819Y-75525094D02*
X94530152Y-75525094D01*
X94196819Y-75525094D02*
X94244438Y-75572713D01*
X94244438Y-75572713D02*
X94292057Y-75525094D01*
X94292057Y-75525094D02*
X94244438Y-75477475D01*
X94244438Y-75477475D02*
X94196819Y-75525094D01*
X94196819Y-75525094D02*
X94292057Y-75525094D01*
X94530152Y-74620333D02*
X95339676Y-74620333D01*
X95339676Y-74620333D02*
X95434914Y-74667952D01*
X95434914Y-74667952D02*
X95482533Y-74715571D01*
X95482533Y-74715571D02*
X95530152Y-74810809D01*
X95530152Y-74810809D02*
X95530152Y-74953666D01*
X95530152Y-74953666D02*
X95482533Y-75048904D01*
X95149200Y-74620333D02*
X95196819Y-74715571D01*
X95196819Y-74715571D02*
X95196819Y-74906047D01*
X95196819Y-74906047D02*
X95149200Y-75001285D01*
X95149200Y-75001285D02*
X95101580Y-75048904D01*
X95101580Y-75048904D02*
X95006342Y-75096523D01*
X95006342Y-75096523D02*
X94720628Y-75096523D01*
X94720628Y-75096523D02*
X94625390Y-75048904D01*
X94625390Y-75048904D02*
X94577771Y-75001285D01*
X94577771Y-75001285D02*
X94530152Y-74906047D01*
X94530152Y-74906047D02*
X94530152Y-74715571D01*
X94530152Y-74715571D02*
X94577771Y-74620333D01*
X95196819Y-74144142D02*
X94530152Y-74144142D01*
X94196819Y-74144142D02*
X94244438Y-74191761D01*
X94244438Y-74191761D02*
X94292057Y-74144142D01*
X94292057Y-74144142D02*
X94244438Y-74096523D01*
X94244438Y-74096523D02*
X94196819Y-74144142D01*
X94196819Y-74144142D02*
X94292057Y-74144142D01*
X94530152Y-73810809D02*
X94530152Y-73429857D01*
X94196819Y-73667952D02*
X95053961Y-73667952D01*
X95053961Y-73667952D02*
X95149200Y-73620333D01*
X95149200Y-73620333D02*
X95196819Y-73525095D01*
X95196819Y-73525095D02*
X95196819Y-73429857D01*
X95196819Y-72667952D02*
X94673009Y-72667952D01*
X94673009Y-72667952D02*
X94577771Y-72715571D01*
X94577771Y-72715571D02*
X94530152Y-72810809D01*
X94530152Y-72810809D02*
X94530152Y-73001285D01*
X94530152Y-73001285D02*
X94577771Y-73096523D01*
X95149200Y-72667952D02*
X95196819Y-72763190D01*
X95196819Y-72763190D02*
X95196819Y-73001285D01*
X95196819Y-73001285D02*
X95149200Y-73096523D01*
X95149200Y-73096523D02*
X95053961Y-73144142D01*
X95053961Y-73144142D02*
X94958723Y-73144142D01*
X94958723Y-73144142D02*
X94863485Y-73096523D01*
X94863485Y-73096523D02*
X94815866Y-73001285D01*
X94815866Y-73001285D02*
X94815866Y-72763190D01*
X94815866Y-72763190D02*
X94768247Y-72667952D01*
X95196819Y-72048904D02*
X95149200Y-72144142D01*
X95149200Y-72144142D02*
X95053961Y-72191761D01*
X95053961Y-72191761D02*
X94196819Y-72191761D01*
X95196819Y-71667951D02*
X94196819Y-71667951D01*
X94530152Y-71191761D02*
X95196819Y-71191761D01*
X94625390Y-71191761D02*
X94577771Y-71144142D01*
X94577771Y-71144142D02*
X94530152Y-71048904D01*
X94530152Y-71048904D02*
X94530152Y-70906047D01*
X94530152Y-70906047D02*
X94577771Y-70810809D01*
X94577771Y-70810809D02*
X94673009Y-70763190D01*
X94673009Y-70763190D02*
X95196819Y-70763190D01*
X94530152Y-70286999D02*
X95530152Y-70286999D01*
X94577771Y-70286999D02*
X94530152Y-70191761D01*
X94530152Y-70191761D02*
X94530152Y-70001285D01*
X94530152Y-70001285D02*
X94577771Y-69906047D01*
X94577771Y-69906047D02*
X94625390Y-69858428D01*
X94625390Y-69858428D02*
X94720628Y-69810809D01*
X94720628Y-69810809D02*
X95006342Y-69810809D01*
X95006342Y-69810809D02*
X95101580Y-69858428D01*
X95101580Y-69858428D02*
X95149200Y-69906047D01*
X95149200Y-69906047D02*
X95196819Y-70001285D01*
X95196819Y-70001285D02*
X95196819Y-70191761D01*
X95196819Y-70191761D02*
X95149200Y-70286999D01*
X94530152Y-68953666D02*
X95196819Y-68953666D01*
X94530152Y-69382237D02*
X95053961Y-69382237D01*
X95053961Y-69382237D02*
X95149200Y-69334618D01*
X95149200Y-69334618D02*
X95196819Y-69239380D01*
X95196819Y-69239380D02*
X95196819Y-69096523D01*
X95196819Y-69096523D02*
X95149200Y-69001285D01*
X95149200Y-69001285D02*
X95101580Y-68953666D01*
X94530152Y-68620332D02*
X94530152Y-68239380D01*
X94196819Y-68477475D02*
X95053961Y-68477475D01*
X95053961Y-68477475D02*
X95149200Y-68429856D01*
X95149200Y-68429856D02*
X95196819Y-68334618D01*
X95196819Y-68334618D02*
X95196819Y-68239380D01*
D10*
X232408667Y-54486800D02*
X232551524Y-54534419D01*
X232551524Y-54534419D02*
X232789619Y-54534419D01*
X232789619Y-54534419D02*
X232884857Y-54486800D01*
X232884857Y-54486800D02*
X232932476Y-54439180D01*
X232932476Y-54439180D02*
X232980095Y-54343942D01*
X232980095Y-54343942D02*
X232980095Y-54248704D01*
X232980095Y-54248704D02*
X232932476Y-54153466D01*
X232932476Y-54153466D02*
X232884857Y-54105847D01*
X232884857Y-54105847D02*
X232789619Y-54058228D01*
X232789619Y-54058228D02*
X232599143Y-54010609D01*
X232599143Y-54010609D02*
X232503905Y-53962990D01*
X232503905Y-53962990D02*
X232456286Y-53915371D01*
X232456286Y-53915371D02*
X232408667Y-53820133D01*
X232408667Y-53820133D02*
X232408667Y-53724895D01*
X232408667Y-53724895D02*
X232456286Y-53629657D01*
X232456286Y-53629657D02*
X232503905Y-53582038D01*
X232503905Y-53582038D02*
X232599143Y-53534419D01*
X232599143Y-53534419D02*
X232837238Y-53534419D01*
X232837238Y-53534419D02*
X232980095Y-53582038D01*
X233313429Y-53534419D02*
X233551524Y-54534419D01*
X233551524Y-54534419D02*
X233742000Y-53820133D01*
X233742000Y-53820133D02*
X233932476Y-54534419D01*
X233932476Y-54534419D02*
X234170572Y-53534419D01*
X235075333Y-54534419D02*
X234503905Y-54534419D01*
X234789619Y-54534419D02*
X234789619Y-53534419D01*
X234789619Y-53534419D02*
X234694381Y-53677276D01*
X234694381Y-53677276D02*
X234599143Y-53772514D01*
X234599143Y-53772514D02*
X234503905Y-53820133D01*
D13*
X230844381Y-52477200D02*
X230987238Y-52524819D01*
X230987238Y-52524819D02*
X231225333Y-52524819D01*
X231225333Y-52524819D02*
X231320571Y-52477200D01*
X231320571Y-52477200D02*
X231368190Y-52429580D01*
X231368190Y-52429580D02*
X231415809Y-52334342D01*
X231415809Y-52334342D02*
X231415809Y-52239104D01*
X231415809Y-52239104D02*
X231368190Y-52143866D01*
X231368190Y-52143866D02*
X231320571Y-52096247D01*
X231320571Y-52096247D02*
X231225333Y-52048628D01*
X231225333Y-52048628D02*
X231034857Y-52001009D01*
X231034857Y-52001009D02*
X230939619Y-51953390D01*
X230939619Y-51953390D02*
X230892000Y-51905771D01*
X230892000Y-51905771D02*
X230844381Y-51810533D01*
X230844381Y-51810533D02*
X230844381Y-51715295D01*
X230844381Y-51715295D02*
X230892000Y-51620057D01*
X230892000Y-51620057D02*
X230939619Y-51572438D01*
X230939619Y-51572438D02*
X231034857Y-51524819D01*
X231034857Y-51524819D02*
X231272952Y-51524819D01*
X231272952Y-51524819D02*
X231415809Y-51572438D01*
X231749143Y-51524819D02*
X231987238Y-52524819D01*
X231987238Y-52524819D02*
X232177714Y-51810533D01*
X232177714Y-51810533D02*
X232368190Y-52524819D01*
X232368190Y-52524819D02*
X232606286Y-51524819D01*
X232749143Y-52620057D02*
X233511047Y-52620057D01*
X233749143Y-52524819D02*
X233749143Y-51524819D01*
X233749143Y-51524819D02*
X234130095Y-51524819D01*
X234130095Y-51524819D02*
X234225333Y-51572438D01*
X234225333Y-51572438D02*
X234272952Y-51620057D01*
X234272952Y-51620057D02*
X234320571Y-51715295D01*
X234320571Y-51715295D02*
X234320571Y-51858152D01*
X234320571Y-51858152D02*
X234272952Y-51953390D01*
X234272952Y-51953390D02*
X234225333Y-52001009D01*
X234225333Y-52001009D02*
X234130095Y-52048628D01*
X234130095Y-52048628D02*
X233749143Y-52048628D01*
X235177714Y-51858152D02*
X235177714Y-52524819D01*
X234749143Y-51858152D02*
X234749143Y-52381961D01*
X234749143Y-52381961D02*
X234796762Y-52477200D01*
X234796762Y-52477200D02*
X234892000Y-52524819D01*
X234892000Y-52524819D02*
X235034857Y-52524819D01*
X235034857Y-52524819D02*
X235130095Y-52477200D01*
X235130095Y-52477200D02*
X235177714Y-52429580D01*
X235606286Y-52477200D02*
X235701524Y-52524819D01*
X235701524Y-52524819D02*
X235892000Y-52524819D01*
X235892000Y-52524819D02*
X235987238Y-52477200D01*
X235987238Y-52477200D02*
X236034857Y-52381961D01*
X236034857Y-52381961D02*
X236034857Y-52334342D01*
X236034857Y-52334342D02*
X235987238Y-52239104D01*
X235987238Y-52239104D02*
X235892000Y-52191485D01*
X235892000Y-52191485D02*
X235749143Y-52191485D01*
X235749143Y-52191485D02*
X235653905Y-52143866D01*
X235653905Y-52143866D02*
X235606286Y-52048628D01*
X235606286Y-52048628D02*
X235606286Y-52001009D01*
X235606286Y-52001009D02*
X235653905Y-51905771D01*
X235653905Y-51905771D02*
X235749143Y-51858152D01*
X235749143Y-51858152D02*
X235892000Y-51858152D01*
X235892000Y-51858152D02*
X235987238Y-51905771D01*
X236463429Y-52524819D02*
X236463429Y-51524819D01*
X236892000Y-52524819D02*
X236892000Y-52001009D01*
X236892000Y-52001009D02*
X236844381Y-51905771D01*
X236844381Y-51905771D02*
X236749143Y-51858152D01*
X236749143Y-51858152D02*
X236606286Y-51858152D01*
X236606286Y-51858152D02*
X236511048Y-51905771D01*
X236511048Y-51905771D02*
X236463429Y-51953390D01*
X137615819Y-69286333D02*
X138330104Y-69286333D01*
X138330104Y-69286333D02*
X138472961Y-69333952D01*
X138472961Y-69333952D02*
X138568200Y-69429190D01*
X138568200Y-69429190D02*
X138615819Y-69572047D01*
X138615819Y-69572047D02*
X138615819Y-69667285D01*
X138615819Y-68810142D02*
X137615819Y-68810142D01*
X137615819Y-68810142D02*
X137615819Y-68429190D01*
X137615819Y-68429190D02*
X137663438Y-68333952D01*
X137663438Y-68333952D02*
X137711057Y-68286333D01*
X137711057Y-68286333D02*
X137806295Y-68238714D01*
X137806295Y-68238714D02*
X137949152Y-68238714D01*
X137949152Y-68238714D02*
X138044390Y-68286333D01*
X138044390Y-68286333D02*
X138092009Y-68333952D01*
X138092009Y-68333952D02*
X138139628Y-68429190D01*
X138139628Y-68429190D02*
X138139628Y-68810142D01*
X138615819Y-67286333D02*
X138615819Y-67857761D01*
X138615819Y-67572047D02*
X137615819Y-67572047D01*
X137615819Y-67572047D02*
X137758676Y-67667285D01*
X137758676Y-67667285D02*
X137853914Y-67762523D01*
X137853914Y-67762523D02*
X137901533Y-67857761D01*
X140266819Y-72413380D02*
X139266819Y-72413380D01*
X139266819Y-72413380D02*
X139266819Y-72032428D01*
X139266819Y-72032428D02*
X139314438Y-71937190D01*
X139314438Y-71937190D02*
X139362057Y-71889571D01*
X139362057Y-71889571D02*
X139457295Y-71841952D01*
X139457295Y-71841952D02*
X139600152Y-71841952D01*
X139600152Y-71841952D02*
X139695390Y-71889571D01*
X139695390Y-71889571D02*
X139743009Y-71937190D01*
X139743009Y-71937190D02*
X139790628Y-72032428D01*
X139790628Y-72032428D02*
X139790628Y-72413380D01*
X139266819Y-71222904D02*
X139266819Y-71032428D01*
X139266819Y-71032428D02*
X139314438Y-70937190D01*
X139314438Y-70937190D02*
X139409676Y-70841952D01*
X139409676Y-70841952D02*
X139600152Y-70794333D01*
X139600152Y-70794333D02*
X139933485Y-70794333D01*
X139933485Y-70794333D02*
X140123961Y-70841952D01*
X140123961Y-70841952D02*
X140219200Y-70937190D01*
X140219200Y-70937190D02*
X140266819Y-71032428D01*
X140266819Y-71032428D02*
X140266819Y-71222904D01*
X140266819Y-71222904D02*
X140219200Y-71318142D01*
X140219200Y-71318142D02*
X140123961Y-71413380D01*
X140123961Y-71413380D02*
X139933485Y-71460999D01*
X139933485Y-71460999D02*
X139600152Y-71460999D01*
X139600152Y-71460999D02*
X139409676Y-71413380D01*
X139409676Y-71413380D02*
X139314438Y-71318142D01*
X139314438Y-71318142D02*
X139266819Y-71222904D01*
X140266819Y-70365761D02*
X139266819Y-70365761D01*
X140266819Y-69889571D02*
X139266819Y-69889571D01*
X139266819Y-69889571D02*
X140266819Y-69318143D01*
X140266819Y-69318143D02*
X139266819Y-69318143D01*
X139266819Y-68984809D02*
X139266819Y-68413381D01*
X140266819Y-68699095D02*
X139266819Y-68699095D01*
X139314438Y-67556238D02*
X139266819Y-67651476D01*
X139266819Y-67651476D02*
X139266819Y-67794333D01*
X139266819Y-67794333D02*
X139314438Y-67937190D01*
X139314438Y-67937190D02*
X139409676Y-68032428D01*
X139409676Y-68032428D02*
X139504914Y-68080047D01*
X139504914Y-68080047D02*
X139695390Y-68127666D01*
X139695390Y-68127666D02*
X139838247Y-68127666D01*
X139838247Y-68127666D02*
X140028723Y-68080047D01*
X140028723Y-68080047D02*
X140123961Y-68032428D01*
X140123961Y-68032428D02*
X140219200Y-67937190D01*
X140219200Y-67937190D02*
X140266819Y-67794333D01*
X140266819Y-67794333D02*
X140266819Y-67699095D01*
X140266819Y-67699095D02*
X140219200Y-67556238D01*
X140219200Y-67556238D02*
X140171580Y-67508619D01*
X140171580Y-67508619D02*
X139838247Y-67508619D01*
X139838247Y-67508619D02*
X139838247Y-67699095D01*
X140266819Y-67080047D02*
X139266819Y-67080047D01*
X139266819Y-67080047D02*
X140266819Y-66508619D01*
X140266819Y-66508619D02*
X139266819Y-66508619D01*
X140266819Y-66032428D02*
X139266819Y-66032428D01*
X139266819Y-66032428D02*
X139266819Y-65794333D01*
X139266819Y-65794333D02*
X139314438Y-65651476D01*
X139314438Y-65651476D02*
X139409676Y-65556238D01*
X139409676Y-65556238D02*
X139504914Y-65508619D01*
X139504914Y-65508619D02*
X139695390Y-65461000D01*
X139695390Y-65461000D02*
X139838247Y-65461000D01*
X139838247Y-65461000D02*
X140028723Y-65508619D01*
X140028723Y-65508619D02*
X140123961Y-65556238D01*
X140123961Y-65556238D02*
X140219200Y-65651476D01*
X140219200Y-65651476D02*
X140266819Y-65794333D01*
X140266819Y-65794333D02*
X140266819Y-66032428D01*
D15*
%TO.C,U1*%
X172655000Y-59035000D02*
X170705000Y-59035000D01*
X172655000Y-59035000D02*
X174605000Y-59035000D01*
X172655000Y-64155000D02*
X170705000Y-64155000D01*
X172655000Y-64155000D02*
X174605000Y-64155000D01*
X169955000Y-59130000D02*
X169715000Y-58800000D01*
X170195000Y-58800000D01*
X169955000Y-59130000D01*
G36*
X169955000Y-59130000D02*
G01*
X169715000Y-58800000D01*
X170195000Y-58800000D01*
X169955000Y-59130000D01*
G37*
%TO.C,R4*%
X179932000Y-60198000D02*
X180002000Y-60198000D01*
X179932000Y-60198000D02*
G75*
G02*
X177192000Y-60198000I-1370000J0D01*
G01*
X177192000Y-60198000D02*
G75*
G02*
X179932000Y-60198000I1370000J0D01*
G01*
%TO.C,R1*%
X166089000Y-60071000D02*
X166159000Y-60071000D01*
X166089000Y-60071000D02*
G75*
G02*
X163349000Y-60071000I-1370000J0D01*
G01*
X163349000Y-60071000D02*
G75*
G02*
X166089000Y-60071000I1370000J0D01*
G01*
%TO.C,R3*%
X179932000Y-63881000D02*
X180002000Y-63881000D01*
X179932000Y-63881000D02*
G75*
G02*
X177192000Y-63881000I-1370000J0D01*
G01*
X177192000Y-63881000D02*
G75*
G02*
X179932000Y-63881000I1370000J0D01*
G01*
%TO.C,J10*%
D10*
X131700000Y-54150000D02*
X140200000Y-54150000D01*
X140200000Y-64250000D01*
X131700000Y-64250000D01*
X131700000Y-54150000D01*
D12*
%TO.C,PwF3*%
X236207000Y-73126000D02*
X236207000Y-76226000D01*
X236207000Y-76226000D02*
X241707000Y-76226000D01*
X236707000Y-73126000D02*
X236207000Y-73126000D01*
D10*
X242707000Y-76971000D02*
X242707000Y-76971000D01*
X242707000Y-77071000D02*
X242707000Y-77071000D01*
D12*
X243707000Y-76226000D02*
X244107000Y-76226000D01*
X244107000Y-73126000D02*
X238707000Y-73126000D01*
X244107000Y-76226000D02*
X244107000Y-73126000D01*
D10*
X242707000Y-76971000D02*
G75*
G02*
X242707000Y-77071000I0J-50000D01*
G01*
X242707000Y-77071000D02*
G75*
G02*
X242707000Y-76971000I0J50000D01*
G01*
D15*
%TO.C,J8*%
X164868000Y-52087000D02*
X164868000Y-54847000D01*
X167518000Y-52087000D02*
X164868000Y-52087000D01*
X167518000Y-52087000D02*
X167518000Y-54847000D01*
X167518000Y-54847000D02*
X164868000Y-54847000D01*
X168788000Y-52087000D02*
X170168000Y-52087000D01*
X170168000Y-52087000D02*
X170168000Y-53467000D01*
%TO.C,JP2*%
X224137000Y-74976000D02*
X224137000Y-74376000D01*
X224837000Y-73676000D02*
X226237000Y-73676000D01*
X226237000Y-75676000D02*
X224837000Y-75676000D01*
X226937000Y-74376000D02*
X226937000Y-74976000D01*
X224137000Y-74376000D02*
G75*
G02*
X224837000Y-73676000I700000J0D01*
G01*
X224837000Y-75676000D02*
G75*
G02*
X224137000Y-74976000I0J700000D01*
G01*
X226237000Y-73676000D02*
G75*
G02*
X226937000Y-74376000I1J-699999D01*
G01*
X226937000Y-74976000D02*
G75*
G02*
X226237000Y-75676000I-699999J-1D01*
G01*
D12*
%TO.C,PS1*%
X193047000Y-54743000D02*
X193047000Y-64043000D01*
X193047000Y-64043000D02*
X214847000Y-64043000D01*
X214847000Y-54743000D02*
X193047000Y-54743000D01*
X214847000Y-64043000D02*
X214847000Y-54743000D01*
D10*
X215287000Y-61468000D02*
X215287000Y-61468000D01*
X215387000Y-61468000D02*
X215387000Y-61468000D01*
X215287000Y-61468000D02*
G75*
G02*
X215387000Y-61468000I50000J0D01*
G01*
X215387000Y-61468000D02*
G75*
G02*
X215287000Y-61468000I-50000J0D01*
G01*
%TO.C,J4*%
X253539000Y-60452000D02*
G75*
G02*
X243539000Y-60452000I-5000000J0D01*
G01*
X243539000Y-60452000D02*
G75*
G02*
X253539000Y-60452000I5000000J0D01*
G01*
D15*
%TO.C,J13*%
X118508000Y-70792000D02*
X118508000Y-73552000D01*
X118508000Y-73552000D02*
X133968000Y-73552000D01*
X119458000Y-70479358D02*
X119458000Y-70792000D01*
X119458000Y-79552000D02*
X119458000Y-73552000D01*
X120318000Y-70479358D02*
X120318000Y-70792000D01*
X120318000Y-73552000D02*
X120318000Y-79552000D01*
X120318000Y-79552000D02*
X119458000Y-79552000D01*
X121158000Y-70792000D02*
X121158000Y-73552000D01*
X121998000Y-70479358D02*
X121998000Y-70792000D01*
X121998000Y-79552000D02*
X121998000Y-73552000D01*
X122858000Y-70479358D02*
X122858000Y-70792000D01*
X122858000Y-73552000D02*
X122858000Y-79552000D01*
X122858000Y-79552000D02*
X121998000Y-79552000D01*
X123698000Y-70792000D02*
X123698000Y-73552000D01*
X124538000Y-70479358D02*
X124538000Y-70792000D01*
X124538000Y-79552000D02*
X124538000Y-73552000D01*
X125398000Y-70479358D02*
X125398000Y-70792000D01*
X125398000Y-73552000D02*
X125398000Y-79552000D01*
X125398000Y-79552000D02*
X124538000Y-79552000D01*
X126238000Y-70792000D02*
X126238000Y-73552000D01*
X127078000Y-70479358D02*
X127078000Y-70792000D01*
X127078000Y-79552000D02*
X127078000Y-73552000D01*
X127938000Y-70479358D02*
X127938000Y-70792000D01*
X127938000Y-73552000D02*
X127938000Y-79552000D01*
X127938000Y-79552000D02*
X127078000Y-79552000D01*
X128778000Y-70792000D02*
X128778000Y-73552000D01*
X129618000Y-70479358D02*
X129618000Y-70792000D01*
X129618000Y-79552000D02*
X129618000Y-73552000D01*
X130478000Y-70479358D02*
X130478000Y-70792000D01*
X130478000Y-73552000D02*
X130478000Y-79552000D01*
X130478000Y-79552000D02*
X129618000Y-79552000D01*
X131318000Y-70792000D02*
X131318000Y-73552000D01*
X132158000Y-70562000D02*
X132158000Y-70792000D01*
X132588000Y-68132000D02*
X133858000Y-68132000D01*
X133018000Y-70562000D02*
X133018000Y-70792000D01*
X133858000Y-68132000D02*
X133858000Y-69402000D01*
X133968000Y-70792000D02*
X118508000Y-70792000D01*
X133968000Y-73552000D02*
X133968000Y-70792000D01*
X133018000Y-73552000D02*
X132158000Y-73552000D01*
X132158000Y-79552000D01*
X133018000Y-79552000D01*
X133018000Y-73552000D01*
G36*
X133018000Y-73552000D02*
G01*
X132158000Y-73552000D01*
X132158000Y-79552000D01*
X133018000Y-79552000D01*
X133018000Y-73552000D01*
G37*
%TO.C,C9*%
X206275000Y-69603252D02*
X206275000Y-69080748D01*
X207745000Y-69603252D02*
X207745000Y-69080748D01*
%TO.C,C3*%
X184867000Y-56455000D02*
X190027000Y-56455000D01*
X184867000Y-56495000D02*
X190027000Y-56495000D01*
X184868000Y-56415000D02*
X190026000Y-56415000D01*
X184870000Y-56375000D02*
X190024000Y-56375000D01*
X184872000Y-56335000D02*
X190022000Y-56335000D01*
X184875000Y-56295000D02*
X190019000Y-56295000D01*
X184878000Y-56255000D02*
X186407000Y-56255000D01*
X184882000Y-56215000D02*
X186407000Y-56215000D01*
X184887000Y-56175000D02*
X186407000Y-56175000D01*
X184892000Y-56135000D02*
X186407000Y-56135000D01*
X184898000Y-56095000D02*
X186407000Y-56095000D01*
X184904000Y-56055000D02*
X186407000Y-56055000D01*
X184911000Y-56015000D02*
X186407000Y-56015000D01*
X184919000Y-55975000D02*
X186407000Y-55975000D01*
X184928000Y-55935000D02*
X186407000Y-55935000D01*
X184937000Y-55895000D02*
X186407000Y-55895000D01*
X184946000Y-55855000D02*
X186407000Y-55855000D01*
X184957000Y-55815000D02*
X186407000Y-55815000D01*
X184968000Y-55775000D02*
X186407000Y-55775000D01*
X184980000Y-55735000D02*
X186407000Y-55735000D01*
X184992000Y-55695000D02*
X186407000Y-55695000D01*
X185005000Y-55655000D02*
X186407000Y-55655000D01*
X185019000Y-55615000D02*
X186407000Y-55615000D01*
X185034000Y-55575000D02*
X186407000Y-55575000D01*
X185049000Y-55535000D02*
X186407000Y-55535000D01*
X185065000Y-55495000D02*
X186407000Y-55495000D01*
X185082000Y-55455000D02*
X186407000Y-55455000D01*
X185100000Y-55415000D02*
X186407000Y-55415000D01*
X185118000Y-55375000D02*
X186407000Y-55375000D01*
X185138000Y-55335000D02*
X186407000Y-55335000D01*
X185158000Y-55295000D02*
X186407000Y-55295000D01*
X185179000Y-55255000D02*
X186407000Y-55255000D01*
X185201000Y-55215000D02*
X186407000Y-55215000D01*
X185224000Y-55175000D02*
X186407000Y-55175000D01*
X185248000Y-55135000D02*
X186407000Y-55135000D01*
X185272000Y-55095000D02*
X186407000Y-55095000D01*
X185298000Y-55055000D02*
X186407000Y-55055000D01*
X185325000Y-55015000D02*
X186407000Y-55015000D01*
X185353000Y-54975000D02*
X186407000Y-54975000D01*
X185382000Y-54935000D02*
X186407000Y-54935000D01*
X185412000Y-54895000D02*
X186407000Y-54895000D01*
X185444000Y-54855000D02*
X186407000Y-54855000D01*
X185477000Y-54815000D02*
X186407000Y-54815000D01*
X185511000Y-54775000D02*
X186407000Y-54775000D01*
X185546000Y-54735000D02*
X186407000Y-54735000D01*
X185583000Y-54695000D02*
X186407000Y-54695000D01*
X185622000Y-54655000D02*
X186407000Y-54655000D01*
X185662000Y-54615000D02*
X186407000Y-54615000D01*
X185704000Y-54575000D02*
X186407000Y-54575000D01*
X185722000Y-59049775D02*
X186222000Y-59049775D01*
X185748000Y-54535000D02*
X186407000Y-54535000D01*
X185795000Y-54495000D02*
X186407000Y-54495000D01*
X185843000Y-54455000D02*
X186407000Y-54455000D01*
X185894000Y-54415000D02*
X186407000Y-54415000D01*
X185948000Y-54375000D02*
X186407000Y-54375000D01*
X185972000Y-59299775D02*
X185972000Y-58799775D01*
X186004000Y-54335000D02*
X186407000Y-54335000D01*
X186064000Y-54295000D02*
X186407000Y-54295000D01*
X186128000Y-54255000D02*
X186407000Y-54255000D01*
X186196000Y-54215000D02*
X186407000Y-54215000D01*
X186270000Y-54175000D02*
X188624000Y-54175000D01*
X186349000Y-54135000D02*
X188545000Y-54135000D01*
X186436000Y-54095000D02*
X188458000Y-54095000D01*
X186533000Y-54055000D02*
X188361000Y-54055000D01*
X186642000Y-54015000D02*
X188252000Y-54015000D01*
X186770000Y-53975000D02*
X188124000Y-53975000D01*
X186930000Y-53935000D02*
X187964000Y-53935000D01*
X187164000Y-53895000D02*
X187730000Y-53895000D01*
X188487000Y-54215000D02*
X188698000Y-54215000D01*
X188487000Y-54255000D02*
X188766000Y-54255000D01*
X188487000Y-54295000D02*
X188830000Y-54295000D01*
X188487000Y-54335000D02*
X188890000Y-54335000D01*
X188487000Y-54375000D02*
X188946000Y-54375000D01*
X188487000Y-54415000D02*
X189000000Y-54415000D01*
X188487000Y-54455000D02*
X189051000Y-54455000D01*
X188487000Y-54495000D02*
X189099000Y-54495000D01*
X188487000Y-54535000D02*
X189146000Y-54535000D01*
X188487000Y-54575000D02*
X189190000Y-54575000D01*
X188487000Y-54615000D02*
X189232000Y-54615000D01*
X188487000Y-54655000D02*
X189272000Y-54655000D01*
X188487000Y-54695000D02*
X189311000Y-54695000D01*
X188487000Y-54735000D02*
X189348000Y-54735000D01*
X188487000Y-54775000D02*
X189383000Y-54775000D01*
X188487000Y-54815000D02*
X189417000Y-54815000D01*
X188487000Y-54855000D02*
X189450000Y-54855000D01*
X188487000Y-54895000D02*
X189482000Y-54895000D01*
X188487000Y-54935000D02*
X189512000Y-54935000D01*
X188487000Y-54975000D02*
X189541000Y-54975000D01*
X188487000Y-55015000D02*
X189569000Y-55015000D01*
X188487000Y-55055000D02*
X189596000Y-55055000D01*
X188487000Y-55095000D02*
X189622000Y-55095000D01*
X188487000Y-55135000D02*
X189646000Y-55135000D01*
X188487000Y-55175000D02*
X189670000Y-55175000D01*
X188487000Y-55215000D02*
X189693000Y-55215000D01*
X188487000Y-55255000D02*
X189715000Y-55255000D01*
X188487000Y-55295000D02*
X189736000Y-55295000D01*
X188487000Y-55335000D02*
X189756000Y-55335000D01*
X188487000Y-55375000D02*
X189776000Y-55375000D01*
X188487000Y-55415000D02*
X189794000Y-55415000D01*
X188487000Y-55455000D02*
X189812000Y-55455000D01*
X188487000Y-55495000D02*
X189829000Y-55495000D01*
X188487000Y-55535000D02*
X189845000Y-55535000D01*
X188487000Y-55575000D02*
X189860000Y-55575000D01*
X188487000Y-55615000D02*
X189875000Y-55615000D01*
X188487000Y-55655000D02*
X189889000Y-55655000D01*
X188487000Y-55695000D02*
X189902000Y-55695000D01*
X188487000Y-55735000D02*
X189914000Y-55735000D01*
X188487000Y-55775000D02*
X189926000Y-55775000D01*
X188487000Y-55815000D02*
X189937000Y-55815000D01*
X188487000Y-55855000D02*
X189948000Y-55855000D01*
X188487000Y-55895000D02*
X189957000Y-55895000D01*
X188487000Y-55935000D02*
X189966000Y-55935000D01*
X188487000Y-55975000D02*
X189975000Y-55975000D01*
X188487000Y-56015000D02*
X189983000Y-56015000D01*
X188487000Y-56055000D02*
X189990000Y-56055000D01*
X188487000Y-56095000D02*
X189996000Y-56095000D01*
X188487000Y-56135000D02*
X190002000Y-56135000D01*
X188487000Y-56175000D02*
X190007000Y-56175000D01*
X188487000Y-56215000D02*
X190012000Y-56215000D01*
X188487000Y-56255000D02*
X190016000Y-56255000D01*
X190067000Y-56495000D02*
G75*
G02*
X184827000Y-56495000I-2620000J0D01*
G01*
X184827000Y-56495000D02*
G75*
G02*
X190067000Y-56495000I2620000J0D01*
G01*
%TO.C,C1*%
X216490000Y-59630000D02*
X221650000Y-59630000D01*
X216490000Y-59670000D02*
X221650000Y-59670000D01*
X216491000Y-59590000D02*
X221649000Y-59590000D01*
X216493000Y-59550000D02*
X221647000Y-59550000D01*
X216495000Y-59510000D02*
X221645000Y-59510000D01*
X216498000Y-59470000D02*
X221642000Y-59470000D01*
X216501000Y-59430000D02*
X218030000Y-59430000D01*
X216505000Y-59390000D02*
X218030000Y-59390000D01*
X216510000Y-59350000D02*
X218030000Y-59350000D01*
X216515000Y-59310000D02*
X218030000Y-59310000D01*
X216521000Y-59270000D02*
X218030000Y-59270000D01*
X216527000Y-59230000D02*
X218030000Y-59230000D01*
X216534000Y-59190000D02*
X218030000Y-59190000D01*
X216542000Y-59150000D02*
X218030000Y-59150000D01*
X216551000Y-59110000D02*
X218030000Y-59110000D01*
X216560000Y-59070000D02*
X218030000Y-59070000D01*
X216569000Y-59030000D02*
X218030000Y-59030000D01*
X216580000Y-58990000D02*
X218030000Y-58990000D01*
X216591000Y-58950000D02*
X218030000Y-58950000D01*
X216603000Y-58910000D02*
X218030000Y-58910000D01*
X216615000Y-58870000D02*
X218030000Y-58870000D01*
X216628000Y-58830000D02*
X218030000Y-58830000D01*
X216642000Y-58790000D02*
X218030000Y-58790000D01*
X216657000Y-58750000D02*
X218030000Y-58750000D01*
X216672000Y-58710000D02*
X218030000Y-58710000D01*
X216688000Y-58670000D02*
X218030000Y-58670000D01*
X216705000Y-58630000D02*
X218030000Y-58630000D01*
X216723000Y-58590000D02*
X218030000Y-58590000D01*
X216741000Y-58550000D02*
X218030000Y-58550000D01*
X216761000Y-58510000D02*
X218030000Y-58510000D01*
X216781000Y-58470000D02*
X218030000Y-58470000D01*
X216802000Y-58430000D02*
X218030000Y-58430000D01*
X216824000Y-58390000D02*
X218030000Y-58390000D01*
X216847000Y-58350000D02*
X218030000Y-58350000D01*
X216871000Y-58310000D02*
X218030000Y-58310000D01*
X216895000Y-58270000D02*
X218030000Y-58270000D01*
X216921000Y-58230000D02*
X218030000Y-58230000D01*
X216948000Y-58190000D02*
X218030000Y-58190000D01*
X216976000Y-58150000D02*
X218030000Y-58150000D01*
X217005000Y-58110000D02*
X218030000Y-58110000D01*
X217035000Y-58070000D02*
X218030000Y-58070000D01*
X217067000Y-58030000D02*
X218030000Y-58030000D01*
X217100000Y-57990000D02*
X218030000Y-57990000D01*
X217134000Y-57950000D02*
X218030000Y-57950000D01*
X217169000Y-57910000D02*
X218030000Y-57910000D01*
X217206000Y-57870000D02*
X218030000Y-57870000D01*
X217245000Y-57830000D02*
X218030000Y-57830000D01*
X217285000Y-57790000D02*
X218030000Y-57790000D01*
X217327000Y-57750000D02*
X218030000Y-57750000D01*
X217345000Y-62224775D02*
X217845000Y-62224775D01*
X217371000Y-57710000D02*
X218030000Y-57710000D01*
X217418000Y-57670000D02*
X218030000Y-57670000D01*
X217466000Y-57630000D02*
X218030000Y-57630000D01*
X217517000Y-57590000D02*
X218030000Y-57590000D01*
X217571000Y-57550000D02*
X218030000Y-57550000D01*
X217595000Y-62474775D02*
X217595000Y-61974775D01*
X217627000Y-57510000D02*
X218030000Y-57510000D01*
X217687000Y-57470000D02*
X218030000Y-57470000D01*
X217751000Y-57430000D02*
X218030000Y-57430000D01*
X217819000Y-57390000D02*
X218030000Y-57390000D01*
X217893000Y-57350000D02*
X220247000Y-57350000D01*
X217972000Y-57310000D02*
X220168000Y-57310000D01*
X218059000Y-57270000D02*
X220081000Y-57270000D01*
X218156000Y-57230000D02*
X219984000Y-57230000D01*
X218265000Y-57190000D02*
X219875000Y-57190000D01*
X218393000Y-57150000D02*
X219747000Y-57150000D01*
X218553000Y-57110000D02*
X219587000Y-57110000D01*
X218787000Y-57070000D02*
X219353000Y-57070000D01*
X220110000Y-57390000D02*
X220321000Y-57390000D01*
X220110000Y-57430000D02*
X220389000Y-57430000D01*
X220110000Y-57470000D02*
X220453000Y-57470000D01*
X220110000Y-57510000D02*
X220513000Y-57510000D01*
X220110000Y-57550000D02*
X220569000Y-57550000D01*
X220110000Y-57590000D02*
X220623000Y-57590000D01*
X220110000Y-57630000D02*
X220674000Y-57630000D01*
X220110000Y-57670000D02*
X220722000Y-57670000D01*
X220110000Y-57710000D02*
X220769000Y-57710000D01*
X220110000Y-57750000D02*
X220813000Y-57750000D01*
X220110000Y-57790000D02*
X220855000Y-57790000D01*
X220110000Y-57830000D02*
X220895000Y-57830000D01*
X220110000Y-57870000D02*
X220934000Y-57870000D01*
X220110000Y-57910000D02*
X220971000Y-57910000D01*
X220110000Y-57950000D02*
X221006000Y-57950000D01*
X220110000Y-57990000D02*
X221040000Y-57990000D01*
X220110000Y-58030000D02*
X221073000Y-58030000D01*
X220110000Y-58070000D02*
X221105000Y-58070000D01*
X220110000Y-58110000D02*
X221135000Y-58110000D01*
X220110000Y-58150000D02*
X221164000Y-58150000D01*
X220110000Y-58190000D02*
X221192000Y-58190000D01*
X220110000Y-58230000D02*
X221219000Y-58230000D01*
X220110000Y-58270000D02*
X221245000Y-58270000D01*
X220110000Y-58310000D02*
X221269000Y-58310000D01*
X220110000Y-58350000D02*
X221293000Y-58350000D01*
X220110000Y-58390000D02*
X221316000Y-58390000D01*
X220110000Y-58430000D02*
X221338000Y-58430000D01*
X220110000Y-58470000D02*
X221359000Y-58470000D01*
X220110000Y-58510000D02*
X221379000Y-58510000D01*
X220110000Y-58550000D02*
X221399000Y-58550000D01*
X220110000Y-58590000D02*
X221417000Y-58590000D01*
X220110000Y-58630000D02*
X221435000Y-58630000D01*
X220110000Y-58670000D02*
X221452000Y-58670000D01*
X220110000Y-58710000D02*
X221468000Y-58710000D01*
X220110000Y-58750000D02*
X221483000Y-58750000D01*
X220110000Y-58790000D02*
X221498000Y-58790000D01*
X220110000Y-58830000D02*
X221512000Y-58830000D01*
X220110000Y-58870000D02*
X221525000Y-58870000D01*
X220110000Y-58910000D02*
X221537000Y-58910000D01*
X220110000Y-58950000D02*
X221549000Y-58950000D01*
X220110000Y-58990000D02*
X221560000Y-58990000D01*
X220110000Y-59030000D02*
X221571000Y-59030000D01*
X220110000Y-59070000D02*
X221580000Y-59070000D01*
X220110000Y-59110000D02*
X221589000Y-59110000D01*
X220110000Y-59150000D02*
X221598000Y-59150000D01*
X220110000Y-59190000D02*
X221606000Y-59190000D01*
X220110000Y-59230000D02*
X221613000Y-59230000D01*
X220110000Y-59270000D02*
X221619000Y-59270000D01*
X220110000Y-59310000D02*
X221625000Y-59310000D01*
X220110000Y-59350000D02*
X221630000Y-59350000D01*
X220110000Y-59390000D02*
X221635000Y-59390000D01*
X220110000Y-59430000D02*
X221639000Y-59430000D01*
X221690000Y-59670000D02*
G75*
G02*
X216450000Y-59670000I-2620000J0D01*
G01*
X216450000Y-59670000D02*
G75*
G02*
X221690000Y-59670000I2620000J0D01*
G01*
%TO.C,J11*%
D10*
X119700000Y-54150000D02*
X128200000Y-54150000D01*
X128200000Y-64250000D01*
X119700000Y-64250000D01*
X119700000Y-54150000D01*
D15*
%TO.C,C7*%
X201068000Y-69730252D02*
X201068000Y-69207748D01*
X202538000Y-69730252D02*
X202538000Y-69207748D01*
%TO.C,U2*%
X198533000Y-72489000D02*
X210253000Y-72489000D01*
X198533000Y-81109000D02*
X198533000Y-72489000D01*
X210253000Y-72489000D02*
X210253000Y-81109000D01*
X210253000Y-81109000D02*
X198533000Y-81109000D01*
X210493000Y-72249000D02*
X209253000Y-72249000D01*
X210493000Y-73489000D02*
X210493000Y-72249000D01*
%TO.C,J1*%
D10*
X95700000Y-54150000D02*
X104200000Y-54150000D01*
X104200000Y-64250000D01*
X95700000Y-64250000D01*
X95700000Y-54150000D01*
D15*
%TO.C,J12*%
X146091000Y-70986000D02*
X146091000Y-73746000D01*
X146091000Y-73746000D02*
X151391000Y-73746000D01*
X147041000Y-70673358D02*
X147041000Y-70986000D01*
X147041000Y-79746000D02*
X147041000Y-73746000D01*
X147901000Y-70673358D02*
X147901000Y-70986000D01*
X147901000Y-73746000D02*
X147901000Y-79746000D01*
X147901000Y-79746000D02*
X147041000Y-79746000D01*
X148741000Y-70986000D02*
X148741000Y-73746000D01*
X149581000Y-70756000D02*
X149581000Y-70986000D01*
X150011000Y-68326000D02*
X151281000Y-68326000D01*
X150441000Y-70756000D02*
X150441000Y-70986000D01*
X151281000Y-68326000D02*
X151281000Y-69596000D01*
X151391000Y-70986000D02*
X146091000Y-70986000D01*
X151391000Y-73746000D02*
X151391000Y-70986000D01*
X150441000Y-73746000D02*
X149581000Y-73746000D01*
X149581000Y-79746000D01*
X150441000Y-79746000D01*
X150441000Y-73746000D01*
G36*
X150441000Y-73746000D02*
G01*
X149581000Y-73746000D01*
X149581000Y-79746000D01*
X150441000Y-79746000D01*
X150441000Y-73746000D01*
G37*
%TO.C,R2*%
X165962000Y-63500000D02*
X166032000Y-63500000D01*
X165962000Y-63500000D02*
G75*
G02*
X163222000Y-63500000I-1370000J0D01*
G01*
X163222000Y-63500000D02*
G75*
G02*
X165962000Y-63500000I1370000J0D01*
G01*
%TO.C,J9*%
X173758000Y-52087000D02*
X173758000Y-54847000D01*
X176408000Y-52087000D02*
X173758000Y-52087000D01*
X176408000Y-52087000D02*
X176408000Y-54847000D01*
X176408000Y-54847000D02*
X173758000Y-54847000D01*
X177678000Y-52087000D02*
X179058000Y-52087000D01*
X179058000Y-52087000D02*
X179058000Y-53467000D01*
%TO.C,C6*%
X212455000Y-76093000D02*
X220615000Y-76093000D01*
X212455000Y-76133000D02*
X220615000Y-76133000D01*
X212456000Y-76053000D02*
X220614000Y-76053000D01*
X212457000Y-76013000D02*
X220613000Y-76013000D01*
X212458000Y-75973000D02*
X220612000Y-75973000D01*
X212460000Y-75933000D02*
X220610000Y-75933000D01*
X212462000Y-75893000D02*
X220608000Y-75893000D01*
X212465000Y-75853000D02*
X220605000Y-75853000D01*
X212467000Y-75813000D02*
X220603000Y-75813000D01*
X212471000Y-75773000D02*
X220599000Y-75773000D01*
X212474000Y-75733000D02*
X220596000Y-75733000D01*
X212479000Y-75693000D02*
X220591000Y-75693000D01*
X212483000Y-75653000D02*
X220587000Y-75653000D01*
X212488000Y-75613000D02*
X220582000Y-75613000D01*
X212493000Y-75573000D02*
X220577000Y-75573000D01*
X212499000Y-75533000D02*
X220571000Y-75533000D01*
X212505000Y-75493000D02*
X220565000Y-75493000D01*
X212512000Y-75453000D02*
X220558000Y-75453000D01*
X212518000Y-75413000D02*
X215495000Y-75413000D01*
X212526000Y-75373000D02*
X215495000Y-75373000D01*
X212533000Y-75333000D02*
X215495000Y-75333000D01*
X212542000Y-75293000D02*
X215495000Y-75293000D01*
X212550000Y-75253000D02*
X215495000Y-75253000D01*
X212559000Y-75213000D02*
X215495000Y-75213000D01*
X212568000Y-75173000D02*
X215495000Y-75173000D01*
X212578000Y-75133000D02*
X215495000Y-75133000D01*
X212588000Y-75093000D02*
X215495000Y-75093000D01*
X212599000Y-75053000D02*
X215495000Y-75053000D01*
X212610000Y-75013000D02*
X215495000Y-75013000D01*
X212622000Y-74973000D02*
X215495000Y-74973000D01*
X212634000Y-74933000D02*
X215495000Y-74933000D01*
X212646000Y-74893000D02*
X215495000Y-74893000D01*
X212659000Y-74853000D02*
X215495000Y-74853000D01*
X212672000Y-74813000D02*
X215495000Y-74813000D01*
X212686000Y-74773000D02*
X215495000Y-74773000D01*
X212700000Y-74733000D02*
X215495000Y-74733000D01*
X212715000Y-74693000D02*
X215495000Y-74693000D01*
X212730000Y-74653000D02*
X215495000Y-74653000D01*
X212746000Y-74613000D02*
X215495000Y-74613000D01*
X212762000Y-74573000D02*
X215495000Y-74573000D01*
X212778000Y-74533000D02*
X215495000Y-74533000D01*
X212795000Y-74493000D02*
X215495000Y-74493000D01*
X212813000Y-74453000D02*
X215495000Y-74453000D01*
X212831000Y-74413000D02*
X215495000Y-74413000D01*
X212850000Y-74373000D02*
X215495000Y-74373000D01*
X212869000Y-74333000D02*
X215495000Y-74333000D01*
X212889000Y-74293000D02*
X215495000Y-74293000D01*
X212909000Y-74253000D02*
X215495000Y-74253000D01*
X212930000Y-74213000D02*
X215495000Y-74213000D01*
X212951000Y-74173000D02*
X215495000Y-74173000D01*
X212973000Y-74133000D02*
X215495000Y-74133000D01*
X212996000Y-74093000D02*
X215495000Y-74093000D01*
X213019000Y-74053000D02*
X215495000Y-74053000D01*
X213042000Y-74013000D02*
X215495000Y-74013000D01*
X213067000Y-73973000D02*
X215495000Y-73973000D01*
X213092000Y-73933000D02*
X215495000Y-73933000D01*
X213117000Y-73893000D02*
X215495000Y-73893000D01*
X213143000Y-73853000D02*
X215495000Y-73853000D01*
X213170000Y-73813000D02*
X215495000Y-73813000D01*
X213198000Y-73773000D02*
X215495000Y-73773000D01*
X213226000Y-73733000D02*
X215495000Y-73733000D01*
X213255000Y-73693000D02*
X215495000Y-73693000D01*
X213285000Y-73653000D02*
X215495000Y-73653000D01*
X213316000Y-73613000D02*
X215495000Y-73613000D01*
X213347000Y-73573000D02*
X215495000Y-73573000D01*
X213379000Y-73533000D02*
X215495000Y-73533000D01*
X213412000Y-73493000D02*
X215495000Y-73493000D01*
X213446000Y-73453000D02*
X215495000Y-73453000D01*
X213480000Y-73413000D02*
X215495000Y-73413000D01*
X213516000Y-73373000D02*
X215495000Y-73373000D01*
X213553000Y-73333000D02*
X219517000Y-73333000D01*
X213590000Y-73293000D02*
X219480000Y-73293000D01*
X213629000Y-73253000D02*
X219441000Y-73253000D01*
X213668000Y-73213000D02*
X219402000Y-73213000D01*
X213709000Y-73173000D02*
X219361000Y-73173000D01*
X213751000Y-73133000D02*
X219319000Y-73133000D01*
X213794000Y-73093000D02*
X219276000Y-73093000D01*
X213820000Y-80142698D02*
X214620000Y-80142698D01*
X213839000Y-73053000D02*
X219231000Y-73053000D01*
X213884000Y-73013000D02*
X219186000Y-73013000D01*
X213931000Y-72973000D02*
X219139000Y-72973000D01*
X213980000Y-72933000D02*
X219090000Y-72933000D01*
X214030000Y-72893000D02*
X219040000Y-72893000D01*
X214082000Y-72853000D02*
X218988000Y-72853000D01*
X214135000Y-72813000D02*
X218935000Y-72813000D01*
X214191000Y-72773000D02*
X218879000Y-72773000D01*
X214220000Y-80542698D02*
X214220000Y-79742698D01*
X214248000Y-72733000D02*
X218822000Y-72733000D01*
X214308000Y-72693000D02*
X218762000Y-72693000D01*
X214370000Y-72653000D02*
X218700000Y-72653000D01*
X214434000Y-72613000D02*
X218636000Y-72613000D01*
X214501000Y-72573000D02*
X218569000Y-72573000D01*
X214571000Y-72533000D02*
X218499000Y-72533000D01*
X214645000Y-72493000D02*
X218425000Y-72493000D01*
X214722000Y-72453000D02*
X218348000Y-72453000D01*
X214804000Y-72413000D02*
X218266000Y-72413000D01*
X214891000Y-72373000D02*
X218179000Y-72373000D01*
X214983000Y-72333000D02*
X218087000Y-72333000D01*
X215082000Y-72293000D02*
X217988000Y-72293000D01*
X215189000Y-72253000D02*
X217881000Y-72253000D01*
X215307000Y-72213000D02*
X217763000Y-72213000D01*
X215438000Y-72173000D02*
X217632000Y-72173000D01*
X215588000Y-72133000D02*
X217482000Y-72133000D01*
X215767000Y-72093000D02*
X217303000Y-72093000D01*
X216002000Y-72053000D02*
X217068000Y-72053000D01*
X217575000Y-73373000D02*
X219554000Y-73373000D01*
X217575000Y-73413000D02*
X219590000Y-73413000D01*
X217575000Y-73453000D02*
X219624000Y-73453000D01*
X217575000Y-73493000D02*
X219658000Y-73493000D01*
X217575000Y-73533000D02*
X219691000Y-73533000D01*
X217575000Y-73573000D02*
X219723000Y-73573000D01*
X217575000Y-73613000D02*
X219754000Y-73613000D01*
X217575000Y-73653000D02*
X219785000Y-73653000D01*
X217575000Y-73693000D02*
X219815000Y-73693000D01*
X217575000Y-73733000D02*
X219844000Y-73733000D01*
X217575000Y-73773000D02*
X219872000Y-73773000D01*
X217575000Y-73813000D02*
X219900000Y-73813000D01*
X217575000Y-73853000D02*
X219927000Y-73853000D01*
X217575000Y-73893000D02*
X219953000Y-73893000D01*
X217575000Y-73933000D02*
X219978000Y-73933000D01*
X217575000Y-73973000D02*
X220003000Y-73973000D01*
X217575000Y-74013000D02*
X220028000Y-74013000D01*
X217575000Y-74053000D02*
X220051000Y-74053000D01*
X217575000Y-74093000D02*
X220074000Y-74093000D01*
X217575000Y-74133000D02*
X220097000Y-74133000D01*
X217575000Y-74173000D02*
X220119000Y-74173000D01*
X217575000Y-74213000D02*
X220140000Y-74213000D01*
X217575000Y-74253000D02*
X220161000Y-74253000D01*
X217575000Y-74293000D02*
X220181000Y-74293000D01*
X217575000Y-74333000D02*
X220201000Y-74333000D01*
X217575000Y-74373000D02*
X220220000Y-74373000D01*
X217575000Y-74413000D02*
X220239000Y-74413000D01*
X217575000Y-74453000D02*
X220257000Y-74453000D01*
X217575000Y-74493000D02*
X220275000Y-74493000D01*
X217575000Y-74533000D02*
X220292000Y-74533000D01*
X217575000Y-74573000D02*
X220308000Y-74573000D01*
X217575000Y-74613000D02*
X220324000Y-74613000D01*
X217575000Y-74653000D02*
X220340000Y-74653000D01*
X217575000Y-74693000D02*
X220355000Y-74693000D01*
X217575000Y-74733000D02*
X220370000Y-74733000D01*
X217575000Y-74773000D02*
X220384000Y-74773000D01*
X217575000Y-74813000D02*
X220398000Y-74813000D01*
X217575000Y-74853000D02*
X220411000Y-74853000D01*
X217575000Y-74893000D02*
X220424000Y-74893000D01*
X217575000Y-74933000D02*
X220436000Y-74933000D01*
X217575000Y-74973000D02*
X220448000Y-74973000D01*
X217575000Y-75013000D02*
X220460000Y-75013000D01*
X217575000Y-75053000D02*
X220471000Y-75053000D01*
X217575000Y-75093000D02*
X220482000Y-75093000D01*
X217575000Y-75133000D02*
X220492000Y-75133000D01*
X217575000Y-75173000D02*
X220502000Y-75173000D01*
X217575000Y-75213000D02*
X220511000Y-75213000D01*
X217575000Y-75253000D02*
X220520000Y-75253000D01*
X217575000Y-75293000D02*
X220528000Y-75293000D01*
X217575000Y-75333000D02*
X220537000Y-75333000D01*
X217575000Y-75373000D02*
X220544000Y-75373000D01*
X217575000Y-75413000D02*
X220552000Y-75413000D01*
X220655000Y-76133000D02*
G75*
G02*
X212415000Y-76133000I-4120000J0D01*
G01*
X212415000Y-76133000D02*
G75*
G02*
X220655000Y-76133000I4120000J0D01*
G01*
%TO.C,C5*%
X189952000Y-76264000D02*
X191492000Y-76264000D01*
X189952000Y-76304000D02*
X191492000Y-76304000D01*
X189953000Y-76224000D02*
X191492000Y-76224000D01*
X189955000Y-76184000D02*
X191492000Y-76184000D01*
X189957000Y-76144000D02*
X191492000Y-76144000D01*
X189960000Y-76104000D02*
X191492000Y-76104000D01*
X189963000Y-76064000D02*
X191492000Y-76064000D01*
X189967000Y-76024000D02*
X191492000Y-76024000D01*
X189972000Y-75984000D02*
X191492000Y-75984000D01*
X189977000Y-75944000D02*
X191492000Y-75944000D01*
X189983000Y-75904000D02*
X191492000Y-75904000D01*
X189989000Y-75864000D02*
X191492000Y-75864000D01*
X189996000Y-75824000D02*
X191492000Y-75824000D01*
X190004000Y-75784000D02*
X191492000Y-75784000D01*
X190013000Y-75744000D02*
X191492000Y-75744000D01*
X190022000Y-75704000D02*
X191492000Y-75704000D01*
X190031000Y-75664000D02*
X191492000Y-75664000D01*
X190042000Y-75624000D02*
X191492000Y-75624000D01*
X190053000Y-75584000D02*
X191492000Y-75584000D01*
X190065000Y-75544000D02*
X191492000Y-75544000D01*
X190077000Y-75504000D02*
X191492000Y-75504000D01*
X190090000Y-75464000D02*
X191492000Y-75464000D01*
X190104000Y-75424000D02*
X191492000Y-75424000D01*
X190119000Y-75384000D02*
X191492000Y-75384000D01*
X190134000Y-75344000D02*
X191492000Y-75344000D01*
X190150000Y-75304000D02*
X191492000Y-75304000D01*
X190167000Y-75264000D02*
X191492000Y-75264000D01*
X190185000Y-75224000D02*
X191492000Y-75224000D01*
X190203000Y-75184000D02*
X191492000Y-75184000D01*
X190223000Y-75144000D02*
X191492000Y-75144000D01*
X190243000Y-75104000D02*
X191492000Y-75104000D01*
X190264000Y-75064000D02*
X191492000Y-75064000D01*
X190286000Y-75024000D02*
X191492000Y-75024000D01*
X190309000Y-74984000D02*
X191492000Y-74984000D01*
X190333000Y-74944000D02*
X191492000Y-74944000D01*
X190357000Y-74904000D02*
X191492000Y-74904000D01*
X190383000Y-74864000D02*
X191492000Y-74864000D01*
X190410000Y-74824000D02*
X191492000Y-74824000D01*
X190438000Y-74784000D02*
X191492000Y-74784000D01*
X190467000Y-74744000D02*
X191492000Y-74744000D01*
X190497000Y-74704000D02*
X191492000Y-74704000D01*
X190529000Y-74664000D02*
X191492000Y-74664000D01*
X190562000Y-74624000D02*
X191492000Y-74624000D01*
X190596000Y-74584000D02*
X191492000Y-74584000D01*
X190631000Y-74544000D02*
X191492000Y-74544000D01*
X190668000Y-74504000D02*
X191492000Y-74504000D01*
X190707000Y-74464000D02*
X191492000Y-74464000D01*
X190747000Y-74424000D02*
X191492000Y-74424000D01*
X190789000Y-74384000D02*
X191492000Y-74384000D01*
X190807000Y-78858775D02*
X191307000Y-78858775D01*
X190833000Y-74344000D02*
X191492000Y-74344000D01*
X190880000Y-74304000D02*
X191492000Y-74304000D01*
X190928000Y-74264000D02*
X194136000Y-74264000D01*
X190979000Y-74224000D02*
X194085000Y-74224000D01*
X191033000Y-74184000D02*
X194031000Y-74184000D01*
X191057000Y-79108775D02*
X191057000Y-78608775D01*
X191089000Y-74144000D02*
X193975000Y-74144000D01*
X191149000Y-74104000D02*
X193915000Y-74104000D01*
X191213000Y-74064000D02*
X193851000Y-74064000D01*
X191281000Y-74024000D02*
X193783000Y-74024000D01*
X191355000Y-73984000D02*
X193709000Y-73984000D01*
X191434000Y-73944000D02*
X193630000Y-73944000D01*
X191521000Y-73904000D02*
X193543000Y-73904000D01*
X191618000Y-73864000D02*
X193446000Y-73864000D01*
X191727000Y-73824000D02*
X193337000Y-73824000D01*
X191855000Y-73784000D02*
X193209000Y-73784000D01*
X192015000Y-73744000D02*
X193049000Y-73744000D01*
X192249000Y-73704000D02*
X192815000Y-73704000D01*
X193572000Y-74304000D02*
X194184000Y-74304000D01*
X193572000Y-74344000D02*
X194231000Y-74344000D01*
X193572000Y-74384000D02*
X194275000Y-74384000D01*
X193572000Y-74424000D02*
X194317000Y-74424000D01*
X193572000Y-74464000D02*
X194357000Y-74464000D01*
X193572000Y-74504000D02*
X194396000Y-74504000D01*
X193572000Y-74544000D02*
X194433000Y-74544000D01*
X193572000Y-74584000D02*
X194468000Y-74584000D01*
X193572000Y-74624000D02*
X194502000Y-74624000D01*
X193572000Y-74664000D02*
X194535000Y-74664000D01*
X193572000Y-74704000D02*
X194567000Y-74704000D01*
X193572000Y-74744000D02*
X194597000Y-74744000D01*
X193572000Y-74784000D02*
X194626000Y-74784000D01*
X193572000Y-74824000D02*
X194654000Y-74824000D01*
X193572000Y-74864000D02*
X194681000Y-74864000D01*
X193572000Y-74904000D02*
X194707000Y-74904000D01*
X193572000Y-74944000D02*
X194731000Y-74944000D01*
X193572000Y-74984000D02*
X194755000Y-74984000D01*
X193572000Y-75024000D02*
X194778000Y-75024000D01*
X193572000Y-75064000D02*
X194800000Y-75064000D01*
X193572000Y-75104000D02*
X194821000Y-75104000D01*
X193572000Y-75144000D02*
X194841000Y-75144000D01*
X193572000Y-75184000D02*
X194861000Y-75184000D01*
X193572000Y-75224000D02*
X194879000Y-75224000D01*
X193572000Y-75264000D02*
X194897000Y-75264000D01*
X193572000Y-75304000D02*
X194914000Y-75304000D01*
X193572000Y-75344000D02*
X194930000Y-75344000D01*
X193572000Y-75384000D02*
X194945000Y-75384000D01*
X193572000Y-75424000D02*
X194960000Y-75424000D01*
X193572000Y-75464000D02*
X194974000Y-75464000D01*
X193572000Y-75504000D02*
X194987000Y-75504000D01*
X193572000Y-75544000D02*
X194999000Y-75544000D01*
X193572000Y-75584000D02*
X195011000Y-75584000D01*
X193572000Y-75624000D02*
X195022000Y-75624000D01*
X193572000Y-75664000D02*
X195033000Y-75664000D01*
X193572000Y-75704000D02*
X195042000Y-75704000D01*
X193572000Y-75744000D02*
X195051000Y-75744000D01*
X193572000Y-75784000D02*
X195060000Y-75784000D01*
X193572000Y-75824000D02*
X195068000Y-75824000D01*
X193572000Y-75864000D02*
X195075000Y-75864000D01*
X193572000Y-75904000D02*
X195081000Y-75904000D01*
X193572000Y-75944000D02*
X195087000Y-75944000D01*
X193572000Y-75984000D02*
X195092000Y-75984000D01*
X193572000Y-76024000D02*
X195097000Y-76024000D01*
X193572000Y-76064000D02*
X195101000Y-76064000D01*
X193572000Y-76104000D02*
X195104000Y-76104000D01*
X193572000Y-76144000D02*
X195107000Y-76144000D01*
X193572000Y-76184000D02*
X195109000Y-76184000D01*
X193572000Y-76224000D02*
X195111000Y-76224000D01*
X193572000Y-76264000D02*
X195112000Y-76264000D01*
X193572000Y-76304000D02*
X195112000Y-76304000D01*
X195152000Y-76304000D02*
G75*
G02*
X189912000Y-76304000I-2620000J0D01*
G01*
X189912000Y-76304000D02*
G75*
G02*
X195152000Y-76304000I2620000J0D01*
G01*
%TO.C,J7*%
X164609000Y-71367000D02*
X164609000Y-74127000D01*
X164609000Y-74127000D02*
X180069000Y-74127000D01*
X165559000Y-71054358D02*
X165559000Y-71367000D01*
X165559000Y-80127000D02*
X165559000Y-74127000D01*
X166419000Y-71054358D02*
X166419000Y-71367000D01*
X166419000Y-74127000D02*
X166419000Y-80127000D01*
X166419000Y-80127000D02*
X165559000Y-80127000D01*
X167259000Y-71367000D02*
X167259000Y-74127000D01*
X168099000Y-71054358D02*
X168099000Y-71367000D01*
X168099000Y-80127000D02*
X168099000Y-74127000D01*
X168959000Y-71054358D02*
X168959000Y-71367000D01*
X168959000Y-74127000D02*
X168959000Y-80127000D01*
X168959000Y-80127000D02*
X168099000Y-80127000D01*
X169799000Y-71367000D02*
X169799000Y-74127000D01*
X170639000Y-71054358D02*
X170639000Y-71367000D01*
X170639000Y-80127000D02*
X170639000Y-74127000D01*
X171499000Y-71054358D02*
X171499000Y-71367000D01*
X171499000Y-74127000D02*
X171499000Y-80127000D01*
X171499000Y-80127000D02*
X170639000Y-80127000D01*
X172339000Y-71367000D02*
X172339000Y-74127000D01*
X173179000Y-71054358D02*
X173179000Y-71367000D01*
X173179000Y-80127000D02*
X173179000Y-74127000D01*
X174039000Y-71054358D02*
X174039000Y-71367000D01*
X174039000Y-74127000D02*
X174039000Y-80127000D01*
X174039000Y-80127000D02*
X173179000Y-80127000D01*
X174879000Y-71367000D02*
X174879000Y-74127000D01*
X175719000Y-71054358D02*
X175719000Y-71367000D01*
X175719000Y-80127000D02*
X175719000Y-74127000D01*
X176579000Y-71054358D02*
X176579000Y-71367000D01*
X176579000Y-74127000D02*
X176579000Y-80127000D01*
X176579000Y-80127000D02*
X175719000Y-80127000D01*
X177419000Y-71367000D02*
X177419000Y-74127000D01*
X178259000Y-71137000D02*
X178259000Y-71367000D01*
X178689000Y-68707000D02*
X179959000Y-68707000D01*
X179119000Y-71137000D02*
X179119000Y-71367000D01*
X179959000Y-68707000D02*
X179959000Y-69977000D01*
X180069000Y-71367000D02*
X164609000Y-71367000D01*
X180069000Y-74127000D02*
X180069000Y-71367000D01*
X179119000Y-74127000D02*
X178259000Y-74127000D01*
X178259000Y-80127000D01*
X179119000Y-80127000D01*
X179119000Y-74127000D01*
G36*
X179119000Y-74127000D02*
G01*
X178259000Y-74127000D01*
X178259000Y-80127000D01*
X179119000Y-80127000D01*
X179119000Y-74127000D01*
G37*
%TO.C,C4*%
X157313000Y-62297000D02*
X162473000Y-62297000D01*
X157313000Y-62337000D02*
X162473000Y-62337000D01*
X157314000Y-62257000D02*
X162472000Y-62257000D01*
X157316000Y-62217000D02*
X162470000Y-62217000D01*
X157318000Y-62177000D02*
X162468000Y-62177000D01*
X157321000Y-62137000D02*
X162465000Y-62137000D01*
X157324000Y-62097000D02*
X158853000Y-62097000D01*
X157328000Y-62057000D02*
X158853000Y-62057000D01*
X157333000Y-62017000D02*
X158853000Y-62017000D01*
X157338000Y-61977000D02*
X158853000Y-61977000D01*
X157344000Y-61937000D02*
X158853000Y-61937000D01*
X157350000Y-61897000D02*
X158853000Y-61897000D01*
X157357000Y-61857000D02*
X158853000Y-61857000D01*
X157365000Y-61817000D02*
X158853000Y-61817000D01*
X157374000Y-61777000D02*
X158853000Y-61777000D01*
X157383000Y-61737000D02*
X158853000Y-61737000D01*
X157392000Y-61697000D02*
X158853000Y-61697000D01*
X157403000Y-61657000D02*
X158853000Y-61657000D01*
X157414000Y-61617000D02*
X158853000Y-61617000D01*
X157426000Y-61577000D02*
X158853000Y-61577000D01*
X157438000Y-61537000D02*
X158853000Y-61537000D01*
X157451000Y-61497000D02*
X158853000Y-61497000D01*
X157465000Y-61457000D02*
X158853000Y-61457000D01*
X157480000Y-61417000D02*
X158853000Y-61417000D01*
X157495000Y-61377000D02*
X158853000Y-61377000D01*
X157511000Y-61337000D02*
X158853000Y-61337000D01*
X157528000Y-61297000D02*
X158853000Y-61297000D01*
X157546000Y-61257000D02*
X158853000Y-61257000D01*
X157564000Y-61217000D02*
X158853000Y-61217000D01*
X157584000Y-61177000D02*
X158853000Y-61177000D01*
X157604000Y-61137000D02*
X158853000Y-61137000D01*
X157625000Y-61097000D02*
X158853000Y-61097000D01*
X157647000Y-61057000D02*
X158853000Y-61057000D01*
X157670000Y-61017000D02*
X158853000Y-61017000D01*
X157694000Y-60977000D02*
X158853000Y-60977000D01*
X157718000Y-60937000D02*
X158853000Y-60937000D01*
X157744000Y-60897000D02*
X158853000Y-60897000D01*
X157771000Y-60857000D02*
X158853000Y-60857000D01*
X157799000Y-60817000D02*
X158853000Y-60817000D01*
X157828000Y-60777000D02*
X158853000Y-60777000D01*
X157858000Y-60737000D02*
X158853000Y-60737000D01*
X157890000Y-60697000D02*
X158853000Y-60697000D01*
X157923000Y-60657000D02*
X158853000Y-60657000D01*
X157957000Y-60617000D02*
X158853000Y-60617000D01*
X157992000Y-60577000D02*
X158853000Y-60577000D01*
X158029000Y-60537000D02*
X158853000Y-60537000D01*
X158068000Y-60497000D02*
X158853000Y-60497000D01*
X158108000Y-60457000D02*
X158853000Y-60457000D01*
X158150000Y-60417000D02*
X158853000Y-60417000D01*
X158168000Y-64891775D02*
X158668000Y-64891775D01*
X158194000Y-60377000D02*
X158853000Y-60377000D01*
X158241000Y-60337000D02*
X158853000Y-60337000D01*
X158289000Y-60297000D02*
X158853000Y-60297000D01*
X158340000Y-60257000D02*
X158853000Y-60257000D01*
X158394000Y-60217000D02*
X158853000Y-60217000D01*
X158418000Y-65141775D02*
X158418000Y-64641775D01*
X158450000Y-60177000D02*
X158853000Y-60177000D01*
X158510000Y-60137000D02*
X158853000Y-60137000D01*
X158574000Y-60097000D02*
X158853000Y-60097000D01*
X158642000Y-60057000D02*
X158853000Y-60057000D01*
X158716000Y-60017000D02*
X161070000Y-60017000D01*
X158795000Y-59977000D02*
X160991000Y-59977000D01*
X158882000Y-59937000D02*
X160904000Y-59937000D01*
X158979000Y-59897000D02*
X160807000Y-59897000D01*
X159088000Y-59857000D02*
X160698000Y-59857000D01*
X159216000Y-59817000D02*
X160570000Y-59817000D01*
X159376000Y-59777000D02*
X160410000Y-59777000D01*
X159610000Y-59737000D02*
X160176000Y-59737000D01*
X160933000Y-60057000D02*
X161144000Y-60057000D01*
X160933000Y-60097000D02*
X161212000Y-60097000D01*
X160933000Y-60137000D02*
X161276000Y-60137000D01*
X160933000Y-60177000D02*
X161336000Y-60177000D01*
X160933000Y-60217000D02*
X161392000Y-60217000D01*
X160933000Y-60257000D02*
X161446000Y-60257000D01*
X160933000Y-60297000D02*
X161497000Y-60297000D01*
X160933000Y-60337000D02*
X161545000Y-60337000D01*
X160933000Y-60377000D02*
X161592000Y-60377000D01*
X160933000Y-60417000D02*
X161636000Y-60417000D01*
X160933000Y-60457000D02*
X161678000Y-60457000D01*
X160933000Y-60497000D02*
X161718000Y-60497000D01*
X160933000Y-60537000D02*
X161757000Y-60537000D01*
X160933000Y-60577000D02*
X161794000Y-60577000D01*
X160933000Y-60617000D02*
X161829000Y-60617000D01*
X160933000Y-60657000D02*
X161863000Y-60657000D01*
X160933000Y-60697000D02*
X161896000Y-60697000D01*
X160933000Y-60737000D02*
X161928000Y-60737000D01*
X160933000Y-60777000D02*
X161958000Y-60777000D01*
X160933000Y-60817000D02*
X161987000Y-60817000D01*
X160933000Y-60857000D02*
X162015000Y-60857000D01*
X160933000Y-60897000D02*
X162042000Y-60897000D01*
X160933000Y-60937000D02*
X162068000Y-60937000D01*
X160933000Y-60977000D02*
X162092000Y-60977000D01*
X160933000Y-61017000D02*
X162116000Y-61017000D01*
X160933000Y-61057000D02*
X162139000Y-61057000D01*
X160933000Y-61097000D02*
X162161000Y-61097000D01*
X160933000Y-61137000D02*
X162182000Y-61137000D01*
X160933000Y-61177000D02*
X162202000Y-61177000D01*
X160933000Y-61217000D02*
X162222000Y-61217000D01*
X160933000Y-61257000D02*
X162240000Y-61257000D01*
X160933000Y-61297000D02*
X162258000Y-61297000D01*
X160933000Y-61337000D02*
X162275000Y-61337000D01*
X160933000Y-61377000D02*
X162291000Y-61377000D01*
X160933000Y-61417000D02*
X162306000Y-61417000D01*
X160933000Y-61457000D02*
X162321000Y-61457000D01*
X160933000Y-61497000D02*
X162335000Y-61497000D01*
X160933000Y-61537000D02*
X162348000Y-61537000D01*
X160933000Y-61577000D02*
X162360000Y-61577000D01*
X160933000Y-61617000D02*
X162372000Y-61617000D01*
X160933000Y-61657000D02*
X162383000Y-61657000D01*
X160933000Y-61697000D02*
X162394000Y-61697000D01*
X160933000Y-61737000D02*
X162403000Y-61737000D01*
X160933000Y-61777000D02*
X162412000Y-61777000D01*
X160933000Y-61817000D02*
X162421000Y-61817000D01*
X160933000Y-61857000D02*
X162429000Y-61857000D01*
X160933000Y-61897000D02*
X162436000Y-61897000D01*
X160933000Y-61937000D02*
X162442000Y-61937000D01*
X160933000Y-61977000D02*
X162448000Y-61977000D01*
X160933000Y-62017000D02*
X162453000Y-62017000D01*
X160933000Y-62057000D02*
X162458000Y-62057000D01*
X160933000Y-62097000D02*
X162462000Y-62097000D01*
X162513000Y-62337000D02*
G75*
G02*
X157273000Y-62337000I-2620000J0D01*
G01*
X157273000Y-62337000D02*
G75*
G02*
X162513000Y-62337000I2620000J0D01*
G01*
%TO.C,C2*%
X184867000Y-62551000D02*
X190027000Y-62551000D01*
X184867000Y-62591000D02*
X190027000Y-62591000D01*
X184868000Y-62511000D02*
X190026000Y-62511000D01*
X184870000Y-62471000D02*
X190024000Y-62471000D01*
X184872000Y-62431000D02*
X190022000Y-62431000D01*
X184875000Y-62391000D02*
X190019000Y-62391000D01*
X184878000Y-62351000D02*
X186407000Y-62351000D01*
X184882000Y-62311000D02*
X186407000Y-62311000D01*
X184887000Y-62271000D02*
X186407000Y-62271000D01*
X184892000Y-62231000D02*
X186407000Y-62231000D01*
X184898000Y-62191000D02*
X186407000Y-62191000D01*
X184904000Y-62151000D02*
X186407000Y-62151000D01*
X184911000Y-62111000D02*
X186407000Y-62111000D01*
X184919000Y-62071000D02*
X186407000Y-62071000D01*
X184928000Y-62031000D02*
X186407000Y-62031000D01*
X184937000Y-61991000D02*
X186407000Y-61991000D01*
X184946000Y-61951000D02*
X186407000Y-61951000D01*
X184957000Y-61911000D02*
X186407000Y-61911000D01*
X184968000Y-61871000D02*
X186407000Y-61871000D01*
X184980000Y-61831000D02*
X186407000Y-61831000D01*
X184992000Y-61791000D02*
X186407000Y-61791000D01*
X185005000Y-61751000D02*
X186407000Y-61751000D01*
X185019000Y-61711000D02*
X186407000Y-61711000D01*
X185034000Y-61671000D02*
X186407000Y-61671000D01*
X185049000Y-61631000D02*
X186407000Y-61631000D01*
X185065000Y-61591000D02*
X186407000Y-61591000D01*
X185082000Y-61551000D02*
X186407000Y-61551000D01*
X185100000Y-61511000D02*
X186407000Y-61511000D01*
X185118000Y-61471000D02*
X186407000Y-61471000D01*
X185138000Y-61431000D02*
X186407000Y-61431000D01*
X185158000Y-61391000D02*
X186407000Y-61391000D01*
X185179000Y-61351000D02*
X186407000Y-61351000D01*
X185201000Y-61311000D02*
X186407000Y-61311000D01*
X185224000Y-61271000D02*
X186407000Y-61271000D01*
X185248000Y-61231000D02*
X186407000Y-61231000D01*
X185272000Y-61191000D02*
X186407000Y-61191000D01*
X185298000Y-61151000D02*
X186407000Y-61151000D01*
X185325000Y-61111000D02*
X186407000Y-61111000D01*
X185353000Y-61071000D02*
X186407000Y-61071000D01*
X185382000Y-61031000D02*
X186407000Y-61031000D01*
X185412000Y-60991000D02*
X186407000Y-60991000D01*
X185444000Y-60951000D02*
X186407000Y-60951000D01*
X185477000Y-60911000D02*
X186407000Y-60911000D01*
X185511000Y-60871000D02*
X186407000Y-60871000D01*
X185546000Y-60831000D02*
X186407000Y-60831000D01*
X185583000Y-60791000D02*
X186407000Y-60791000D01*
X185622000Y-60751000D02*
X186407000Y-60751000D01*
X185662000Y-60711000D02*
X186407000Y-60711000D01*
X185704000Y-60671000D02*
X186407000Y-60671000D01*
X185722000Y-65145775D02*
X186222000Y-65145775D01*
X185748000Y-60631000D02*
X186407000Y-60631000D01*
X185795000Y-60591000D02*
X186407000Y-60591000D01*
X185843000Y-60551000D02*
X186407000Y-60551000D01*
X185894000Y-60511000D02*
X186407000Y-60511000D01*
X185948000Y-60471000D02*
X186407000Y-60471000D01*
X185972000Y-65395775D02*
X185972000Y-64895775D01*
X186004000Y-60431000D02*
X186407000Y-60431000D01*
X186064000Y-60391000D02*
X186407000Y-60391000D01*
X186128000Y-60351000D02*
X186407000Y-60351000D01*
X186196000Y-60311000D02*
X186407000Y-60311000D01*
X186270000Y-60271000D02*
X188624000Y-60271000D01*
X186349000Y-60231000D02*
X188545000Y-60231000D01*
X186436000Y-60191000D02*
X188458000Y-60191000D01*
X186533000Y-60151000D02*
X188361000Y-60151000D01*
X186642000Y-60111000D02*
X188252000Y-60111000D01*
X186770000Y-60071000D02*
X188124000Y-60071000D01*
X186930000Y-60031000D02*
X187964000Y-60031000D01*
X187164000Y-59991000D02*
X187730000Y-59991000D01*
X188487000Y-60311000D02*
X188698000Y-60311000D01*
X188487000Y-60351000D02*
X188766000Y-60351000D01*
X188487000Y-60391000D02*
X188830000Y-60391000D01*
X188487000Y-60431000D02*
X188890000Y-60431000D01*
X188487000Y-60471000D02*
X188946000Y-60471000D01*
X188487000Y-60511000D02*
X189000000Y-60511000D01*
X188487000Y-60551000D02*
X189051000Y-60551000D01*
X188487000Y-60591000D02*
X189099000Y-60591000D01*
X188487000Y-60631000D02*
X189146000Y-60631000D01*
X188487000Y-60671000D02*
X189190000Y-60671000D01*
X188487000Y-60711000D02*
X189232000Y-60711000D01*
X188487000Y-60751000D02*
X189272000Y-60751000D01*
X188487000Y-60791000D02*
X189311000Y-60791000D01*
X188487000Y-60831000D02*
X189348000Y-60831000D01*
X188487000Y-60871000D02*
X189383000Y-60871000D01*
X188487000Y-60911000D02*
X189417000Y-60911000D01*
X188487000Y-60951000D02*
X189450000Y-60951000D01*
X188487000Y-60991000D02*
X189482000Y-60991000D01*
X188487000Y-61031000D02*
X189512000Y-61031000D01*
X188487000Y-61071000D02*
X189541000Y-61071000D01*
X188487000Y-61111000D02*
X189569000Y-61111000D01*
X188487000Y-61151000D02*
X189596000Y-61151000D01*
X188487000Y-61191000D02*
X189622000Y-61191000D01*
X188487000Y-61231000D02*
X189646000Y-61231000D01*
X188487000Y-61271000D02*
X189670000Y-61271000D01*
X188487000Y-61311000D02*
X189693000Y-61311000D01*
X188487000Y-61351000D02*
X189715000Y-61351000D01*
X188487000Y-61391000D02*
X189736000Y-61391000D01*
X188487000Y-61431000D02*
X189756000Y-61431000D01*
X188487000Y-61471000D02*
X189776000Y-61471000D01*
X188487000Y-61511000D02*
X189794000Y-61511000D01*
X188487000Y-61551000D02*
X189812000Y-61551000D01*
X188487000Y-61591000D02*
X189829000Y-61591000D01*
X188487000Y-61631000D02*
X189845000Y-61631000D01*
X188487000Y-61671000D02*
X189860000Y-61671000D01*
X188487000Y-61711000D02*
X189875000Y-61711000D01*
X188487000Y-61751000D02*
X189889000Y-61751000D01*
X188487000Y-61791000D02*
X189902000Y-61791000D01*
X188487000Y-61831000D02*
X189914000Y-61831000D01*
X188487000Y-61871000D02*
X189926000Y-61871000D01*
X188487000Y-61911000D02*
X189937000Y-61911000D01*
X188487000Y-61951000D02*
X189948000Y-61951000D01*
X188487000Y-61991000D02*
X189957000Y-61991000D01*
X188487000Y-62031000D02*
X189966000Y-62031000D01*
X188487000Y-62071000D02*
X189975000Y-62071000D01*
X188487000Y-62111000D02*
X189983000Y-62111000D01*
X188487000Y-62151000D02*
X189990000Y-62151000D01*
X188487000Y-62191000D02*
X189996000Y-62191000D01*
X188487000Y-62231000D02*
X190002000Y-62231000D01*
X188487000Y-62271000D02*
X190007000Y-62271000D01*
X188487000Y-62311000D02*
X190012000Y-62311000D01*
X188487000Y-62351000D02*
X190016000Y-62351000D01*
X190067000Y-62591000D02*
G75*
G02*
X184827000Y-62591000I-2620000J0D01*
G01*
X184827000Y-62591000D02*
G75*
G02*
X190067000Y-62591000I2620000J0D01*
G01*
%TO.C,J3*%
D10*
X143700000Y-54150000D02*
X152200000Y-54150000D01*
X152200000Y-64250000D01*
X143700000Y-64250000D01*
X143700000Y-54150000D01*
%TO.C,J2*%
X107700000Y-54150000D02*
X116200000Y-54150000D01*
X116200000Y-64250000D01*
X107700000Y-64250000D01*
X107700000Y-54150000D01*
D15*
%TO.C,J6*%
X97553000Y-70792000D02*
X97553000Y-73552000D01*
X97553000Y-73552000D02*
X113013000Y-73552000D01*
X98503000Y-70479358D02*
X98503000Y-70792000D01*
X98503000Y-79552000D02*
X98503000Y-73552000D01*
X99363000Y-70479358D02*
X99363000Y-70792000D01*
X99363000Y-73552000D02*
X99363000Y-79552000D01*
X99363000Y-79552000D02*
X98503000Y-79552000D01*
X100203000Y-70792000D02*
X100203000Y-73552000D01*
X101043000Y-70479358D02*
X101043000Y-70792000D01*
X101043000Y-79552000D02*
X101043000Y-73552000D01*
X101903000Y-70479358D02*
X101903000Y-70792000D01*
X101903000Y-73552000D02*
X101903000Y-79552000D01*
X101903000Y-79552000D02*
X101043000Y-79552000D01*
X102743000Y-70792000D02*
X102743000Y-73552000D01*
X103583000Y-70479358D02*
X103583000Y-70792000D01*
X103583000Y-79552000D02*
X103583000Y-73552000D01*
X104443000Y-70479358D02*
X104443000Y-70792000D01*
X104443000Y-73552000D02*
X104443000Y-79552000D01*
X104443000Y-79552000D02*
X103583000Y-79552000D01*
X105283000Y-70792000D02*
X105283000Y-73552000D01*
X106123000Y-70479358D02*
X106123000Y-70792000D01*
X106123000Y-79552000D02*
X106123000Y-73552000D01*
X106983000Y-70479358D02*
X106983000Y-70792000D01*
X106983000Y-73552000D02*
X106983000Y-79552000D01*
X106983000Y-79552000D02*
X106123000Y-79552000D01*
X107823000Y-70792000D02*
X107823000Y-73552000D01*
X108663000Y-70479358D02*
X108663000Y-70792000D01*
X108663000Y-79552000D02*
X108663000Y-73552000D01*
X109523000Y-70479358D02*
X109523000Y-70792000D01*
X109523000Y-73552000D02*
X109523000Y-79552000D01*
X109523000Y-79552000D02*
X108663000Y-79552000D01*
X110363000Y-70792000D02*
X110363000Y-73552000D01*
X111203000Y-70562000D02*
X111203000Y-70792000D01*
X111633000Y-68132000D02*
X112903000Y-68132000D01*
X112063000Y-70562000D02*
X112063000Y-70792000D01*
X112903000Y-68132000D02*
X112903000Y-69402000D01*
X113013000Y-70792000D02*
X97553000Y-70792000D01*
X113013000Y-73552000D02*
X113013000Y-70792000D01*
X112063000Y-73552000D02*
X111203000Y-73552000D01*
X111203000Y-79552000D01*
X112063000Y-79552000D01*
X112063000Y-73552000D01*
G36*
X112063000Y-73552000D02*
G01*
X111203000Y-73552000D01*
X111203000Y-79552000D01*
X112063000Y-79552000D01*
X112063000Y-73552000D01*
G37*
%TO.C,SW1*%
D10*
X238942000Y-65098000D02*
X228842000Y-65098000D01*
X228842000Y-54998000D01*
X238942000Y-54998000D01*
X238942000Y-65098000D01*
D15*
%TO.C,JP1*%
X141079000Y-66340000D02*
X141079000Y-65740000D01*
X141779000Y-65040000D02*
X143179000Y-65040000D01*
X143179000Y-67040000D02*
X141779000Y-67040000D01*
X143879000Y-65740000D02*
X143879000Y-66340000D01*
X141079000Y-65740000D02*
G75*
G02*
X141779000Y-65040000I699999J1D01*
G01*
X141779000Y-67040000D02*
G75*
G02*
X141079000Y-66340000I-1J699999D01*
G01*
X143179000Y-65040000D02*
G75*
G02*
X143879000Y-65740000I0J-700000D01*
G01*
X143879000Y-66340000D02*
G75*
G02*
X143179000Y-67040000I-700000J0D01*
G01*
%TD*%
M02*
