%TF.GenerationSoftware,KiCad,Pcbnew,9.0.3*%
%TF.CreationDate,2026-03-15T08:34:23+09:00*%
%TF.ProjectId,powerAndJack,706f7765-7241-46e6-944a-61636b2e6b69,rev?*%
%TF.SameCoordinates,Original*%
%TF.FileFunction,Soldermask,Top*%
%TF.FilePolarity,Negative*%
%FSLAX46Y46*%
G04 Gerber Fmt 4.6, Leading zero omitted, Abs format (unit mm)*
G04 Created by KiCad (PCBNEW 9.0.3) date 2026-03-15 08:34:23*
%MOMM*%
%LPD*%
G01*
G04 APERTURE LIST*
G04 Aperture macros list*
%AMRoundRect*
0 Rectangle with rounded corners*
0 $1 Rounding radius*
0 $2 $3 $4 $5 $6 $7 $8 $9 X,Y pos of 4 corners*
0 Add a 4 corners polygon primitive as box body*
4,1,4,$2,$3,$4,$5,$6,$7,$8,$9,$2,$3,0*
0 Add four circle primitives for the rounded corners*
1,1,$1+$1,$2,$3*
1,1,$1+$1,$4,$5*
1,1,$1+$1,$6,$7*
1,1,$1+$1,$8,$9*
0 Add four rect primitives between the rounded corners*
20,1,$1+$1,$2,$3,$4,$5,0*
20,1,$1+$1,$4,$5,$6,$7,0*
20,1,$1+$1,$6,$7,$8,$9,0*
20,1,$1+$1,$8,$9,$2,$3,0*%
%AMFreePoly0*
4,1,23,0.500000,-0.750000,0.000000,-0.750000,0.000000,-0.745722,-0.065263,-0.745722,-0.191342,-0.711940,-0.304381,-0.646677,-0.396677,-0.554381,-0.461940,-0.441342,-0.495722,-0.315263,-0.495722,-0.250000,-0.500000,-0.250000,-0.500000,0.250000,-0.495722,0.250000,-0.495722,0.315263,-0.461940,0.441342,-0.396677,0.554381,-0.304381,0.646677,-0.191342,0.711940,-0.065263,0.745722,0.000000,0.745722,
0.000000,0.750000,0.500000,0.750000,0.500000,-0.750000,0.500000,-0.750000,$1*%
%AMFreePoly1*
4,1,23,0.000000,0.745722,0.065263,0.745722,0.191342,0.711940,0.304381,0.646677,0.396677,0.554381,0.461940,0.441342,0.495722,0.315263,0.495722,0.250000,0.500000,0.250000,0.500000,-0.250000,0.495722,-0.250000,0.495722,-0.315263,0.461940,-0.441342,0.396677,-0.554381,0.304381,-0.646677,0.191342,-0.711940,0.065263,-0.745722,0.000000,-0.745722,0.000000,-0.750000,-0.500000,-0.750000,
-0.500000,0.750000,0.000000,0.750000,0.000000,0.745722,0.000000,0.745722,$1*%
G04 Aperture macros list end*
%ADD10RoundRect,0.150000X-0.825000X-0.150000X0.825000X-0.150000X0.825000X0.150000X-0.825000X0.150000X0*%
%ADD11C,1.600000*%
%ADD12RoundRect,0.333333X-0.666667X1.766667X-0.666667X-1.766667X0.666667X-1.766667X0.666667X1.766667X0*%
%ADD13RoundRect,0.333333X1.766667X0.666667X-1.766667X0.666667X-1.766667X-0.666667X1.766667X-0.666667X0*%
%ADD14R,1.217000X1.217000*%
%ADD15C,1.217000*%
%ADD16R,1.700000X1.700000*%
%ADD17C,1.700000*%
%ADD18FreePoly0,180.000000*%
%ADD19FreePoly1,180.000000*%
%ADD20R,1.303000X1.303000*%
%ADD21C,1.303000*%
%ADD22RoundRect,0.333333X2.416667X0.666667X-2.416667X0.666667X-2.416667X-0.666667X2.416667X-0.666667X0*%
%ADD23RoundRect,0.250000X0.475000X-0.337500X0.475000X0.337500X-0.475000X0.337500X-0.475000X-0.337500X0*%
%ADD24RoundRect,0.250000X0.550000X-0.550000X0.550000X0.550000X-0.550000X0.550000X-0.550000X-0.550000X0*%
%ADD25R,1.500000X2.300000*%
%ADD26O,1.500000X2.300000*%
%ADD27C,3.000000*%
%ADD28FreePoly0,0.000000*%
%ADD29FreePoly1,0.000000*%
G04 APERTURE END LIST*
%TO.C,JP2*%
G36*
X225687000Y-75426000D02*
G01*
X225387000Y-75426000D01*
X225387000Y-73926000D01*
X225687000Y-73926000D01*
X225687000Y-75426000D01*
G37*
%TO.C,JP1*%
G36*
X142329000Y-65290000D02*
G01*
X142629000Y-65290000D01*
X142629000Y-66790000D01*
X142329000Y-66790000D01*
X142329000Y-65290000D01*
G37*
%TD*%
D10*
%TO.C,U1*%
X170180000Y-59690000D03*
X170180000Y-60960000D03*
X170180000Y-62230000D03*
X170180000Y-63500000D03*
X175130000Y-63500000D03*
X175130000Y-62230000D03*
X175130000Y-60960000D03*
X175130000Y-59690000D03*
%TD*%
D11*
%TO.C,R4*%
X178562000Y-60198000D03*
X181102000Y-60198000D03*
%TD*%
%TO.C,R1*%
X164719000Y-60071000D03*
X167259000Y-60071000D03*
%TD*%
%TO.C,R3*%
X178562000Y-63881000D03*
X181102000Y-63881000D03*
%TD*%
D12*
%TO.C,J10*%
X138900000Y-60000000D03*
D13*
X134500000Y-55500000D03*
X134500000Y-62900000D03*
%TD*%
D14*
%TO.C,PwF3*%
X242707000Y-75971000D03*
D15*
X237607000Y-73381000D03*
%TD*%
D16*
%TO.C,J8*%
X168788000Y-53467000D03*
D17*
X166248000Y-53467000D03*
%TD*%
D18*
%TO.C,JP2*%
X226187000Y-74676000D03*
D19*
X224887000Y-74676000D03*
%TD*%
D20*
%TO.C,PS1*%
X212847000Y-61468000D03*
D21*
X210307000Y-61468000D03*
X207767000Y-61468000D03*
X202687000Y-61468000D03*
X200147000Y-61468000D03*
X197607000Y-61468000D03*
X195067000Y-61468000D03*
%TD*%
D22*
%TO.C,J4*%
X248539000Y-57552000D03*
X248539000Y-63352000D03*
%TD*%
D16*
%TO.C,J13*%
X132588000Y-69402000D03*
D17*
X130048000Y-69402000D03*
X127508000Y-69402000D03*
X124968000Y-69402000D03*
X122428000Y-69402000D03*
X119888000Y-69402000D03*
%TD*%
D23*
%TO.C,C9*%
X207010000Y-70379500D03*
X207010000Y-68304500D03*
%TD*%
D24*
%TO.C,C3*%
X187447000Y-57745000D03*
D11*
X187447000Y-55245000D03*
%TD*%
D24*
%TO.C,C1*%
X219070000Y-60920000D03*
D11*
X219070000Y-58420000D03*
%TD*%
D12*
%TO.C,J11*%
X126900000Y-60000000D03*
D13*
X122500000Y-55500000D03*
X122500000Y-62900000D03*
%TD*%
D23*
%TO.C,C7*%
X201803000Y-70506500D03*
X201803000Y-68431500D03*
%TD*%
D25*
%TO.C,U2*%
X206883000Y-74549000D03*
D26*
X204343000Y-74549000D03*
X201803000Y-74549000D03*
%TD*%
D12*
%TO.C,J1*%
X102900000Y-60000000D03*
D13*
X98500000Y-55500000D03*
X98500000Y-62900000D03*
%TD*%
D16*
%TO.C,J12*%
X150011000Y-69596000D03*
D17*
X147471000Y-69596000D03*
%TD*%
D11*
%TO.C,R2*%
X164592000Y-63500000D03*
X167132000Y-63500000D03*
%TD*%
D16*
%TO.C,J9*%
X177678000Y-53467000D03*
D17*
X175138000Y-53467000D03*
%TD*%
D24*
%TO.C,C6*%
X216535000Y-77883000D03*
D11*
X216535000Y-74383000D03*
%TD*%
D24*
%TO.C,C5*%
X192532000Y-77304000D03*
D11*
X192532000Y-75304000D03*
%TD*%
D16*
%TO.C,J7*%
X178689000Y-69977000D03*
D17*
X176149000Y-69977000D03*
X173609000Y-69977000D03*
X171069000Y-69977000D03*
X168529000Y-69977000D03*
X165989000Y-69977000D03*
%TD*%
D24*
%TO.C,C4*%
X159893000Y-63587000D03*
D11*
X159893000Y-61087000D03*
%TD*%
D24*
%TO.C,C2*%
X187447000Y-63841000D03*
D11*
X187447000Y-61341000D03*
%TD*%
D12*
%TO.C,J3*%
X150900000Y-60000000D03*
D13*
X146500000Y-55500000D03*
X146500000Y-62900000D03*
%TD*%
D12*
%TO.C,J2*%
X114900000Y-60000000D03*
D13*
X110500000Y-55500000D03*
X110500000Y-62900000D03*
%TD*%
D16*
%TO.C,J6*%
X111633000Y-69402000D03*
D17*
X109093000Y-69402000D03*
X106553000Y-69402000D03*
X104013000Y-69402000D03*
X101473000Y-69402000D03*
X98933000Y-69402000D03*
%TD*%
D27*
%TO.C,SW1*%
X236342000Y-60198000D03*
X231142000Y-60198000D03*
%TD*%
D28*
%TO.C,JP1*%
X141829000Y-66040000D03*
D29*
X143129000Y-66040000D03*
%TD*%
M02*
