%TF.GenerationSoftware,KiCad,Pcbnew,9.0.3*%
%TF.CreationDate,2025-08-11T14:45:13+09:00*%
%TF.ProjectId,debugVCASeparate,64656275-6756-4434-9153-657061726174,rev?*%
%TF.SameCoordinates,Original*%
%TF.FileFunction,Copper,L2,Bot*%
%TF.FilePolarity,Positive*%
%FSLAX46Y46*%
G04 Gerber Fmt 4.6, Leading zero omitted, Abs format (unit mm)*
G04 Created by KiCad (PCBNEW 9.0.3) date 2025-08-11 14:45:13*
%MOMM*%
%LPD*%
G01*
G04 APERTURE LIST*
G04 Aperture macros list*
%AMRoundRect*
0 Rectangle with rounded corners*
0 $1 Rounding radius*
0 $2 $3 $4 $5 $6 $7 $8 $9 X,Y pos of 4 corners*
0 Add a 4 corners polygon primitive as box body*
4,1,4,$2,$3,$4,$5,$6,$7,$8,$9,$2,$3,0*
0 Add four circle primitives for the rounded corners*
1,1,$1+$1,$2,$3*
1,1,$1+$1,$4,$5*
1,1,$1+$1,$6,$7*
1,1,$1+$1,$8,$9*
0 Add four rect primitives between the rounded corners*
20,1,$1+$1,$2,$3,$4,$5,0*
20,1,$1+$1,$4,$5,$6,$7,0*
20,1,$1+$1,$6,$7,$8,$9,0*
20,1,$1+$1,$8,$9,$2,$3,0*%
G04 Aperture macros list end*
%TA.AperFunction,ComponentPad*%
%ADD10R,1.700000X1.700000*%
%TD*%
%TA.AperFunction,ComponentPad*%
%ADD11C,1.700000*%
%TD*%
%TA.AperFunction,ComponentPad*%
%ADD12C,1.400000*%
%TD*%
%TA.AperFunction,ComponentPad*%
%ADD13C,1.800000*%
%TD*%
%TA.AperFunction,ComponentPad*%
%ADD14C,4.455000*%
%TD*%
%TA.AperFunction,ComponentPad*%
%ADD15R,1.100000X1.800000*%
%TD*%
%TA.AperFunction,ComponentPad*%
%ADD16RoundRect,0.275000X-0.275000X-0.625000X0.275000X-0.625000X0.275000X0.625000X-0.275000X0.625000X0*%
%TD*%
%TA.AperFunction,ComponentPad*%
%ADD17RoundRect,0.250000X-0.550000X-0.550000X0.550000X-0.550000X0.550000X0.550000X-0.550000X0.550000X0*%
%TD*%
%TA.AperFunction,ComponentPad*%
%ADD18C,1.600000*%
%TD*%
%TA.AperFunction,ComponentPad*%
%ADD19RoundRect,0.250000X0.550000X-0.950000X0.550000X0.950000X-0.550000X0.950000X-0.550000X-0.950000X0*%
%TD*%
%TA.AperFunction,ComponentPad*%
%ADD20O,1.600000X2.400000*%
%TD*%
%TA.AperFunction,ComponentPad*%
%ADD21RoundRect,0.250000X-0.550000X0.550000X-0.550000X-0.550000X0.550000X-0.550000X0.550000X0.550000X0*%
%TD*%
%TA.AperFunction,ComponentPad*%
%ADD22RoundRect,0.250000X-0.950000X-0.550000X0.950000X-0.550000X0.950000X0.550000X-0.950000X0.550000X0*%
%TD*%
%TA.AperFunction,ComponentPad*%
%ADD23O,2.400000X1.600000*%
%TD*%
%TA.AperFunction,ComponentPad*%
%ADD24RoundRect,0.275000X0.275000X0.625000X-0.275000X0.625000X-0.275000X-0.625000X0.275000X-0.625000X0*%
%TD*%
%TA.AperFunction,ViaPad*%
%ADD25C,0.600000*%
%TD*%
%TA.AperFunction,Conductor*%
%ADD26C,0.500000*%
%TD*%
G04 APERTURE END LIST*
D10*
%TO.P,J1,1,Pin_1*%
%TO.N,+12VA*%
X56134000Y-78758000D03*
D11*
%TO.P,J1,2,Pin_2*%
%TO.N,+5VA*%
X58674000Y-78758000D03*
%TO.P,J1,3,Pin_3*%
%TO.N,-5VA*%
X61214000Y-78758000D03*
%TO.P,J1,4,Pin_4*%
%TO.N,-12VA*%
X63754000Y-78758000D03*
%TO.P,J1,5,Pin_5*%
%TO.N,unconnected-(J1-Pin_5-Pad5)*%
X66294000Y-78758000D03*
%TO.P,J1,6,Pin_6*%
%TO.N,GNDA*%
X68834000Y-78758000D03*
%TD*%
D12*
%TO.P,R1,1*%
%TO.N,GNDA*%
X106045000Y-80518000D03*
%TO.P,R1,2*%
%TO.N,Net-(U3B-+)*%
X106045000Y-88138000D03*
%TD*%
%TO.P,R34,1*%
%TO.N,Net-(R31-Pad2)*%
X90678000Y-86233000D03*
%TO.P,R34,2*%
%TO.N,Net-(C1-Pad2)*%
X83058000Y-86233000D03*
%TD*%
D10*
%TO.P,J3,1,Pin_1*%
%TO.N,Net-(J3-Pin_1)*%
X114935000Y-106553000D03*
D11*
%TO.P,J3,2,Pin_2*%
%TO.N,GNDA*%
X114935000Y-109093000D03*
%TD*%
D13*
%TO.P,VR6,1,CCW*%
%TO.N,+5VA*%
X60786000Y-128125000D03*
%TO.P,VR6,2,WIPER*%
%TO.N,Net-(VR6-WIPER)*%
X63286000Y-128125000D03*
%TO.P,VR6,3,CW*%
%TO.N,GNDA*%
X65786000Y-128125000D03*
D14*
%TO.P,VR6,MH1,MH1*%
X58886000Y-121125000D03*
%TO.P,VR6,MH2,MH2*%
X67686000Y-121125000D03*
%TD*%
D15*
%TO.P,Q1,1,E*%
%TO.N,Net-(Q1-E)*%
X52578000Y-87522000D03*
D16*
%TO.P,Q1,2,C*%
%TO.N,Net-(Q1-C)*%
X53848000Y-85452000D03*
%TO.P,Q1,3,B*%
%TO.N,Net-(Q1-B)*%
X55118000Y-87522000D03*
%TD*%
D12*
%TO.P,R11,1*%
%TO.N,Net-(R11-Pad1)*%
X48260000Y-101473000D03*
%TO.P,R11,2*%
%TO.N,Net-(U1B-+)*%
X48260000Y-93853000D03*
%TD*%
%TO.P,R23,1*%
%TO.N,-12VA*%
X69469000Y-101328000D03*
%TO.P,R23,2*%
%TO.N,ResoWav*%
X61849000Y-101328000D03*
%TD*%
%TO.P,R12,1*%
%TO.N,GNDA*%
X53340000Y-93853000D03*
%TO.P,R12,2*%
%TO.N,Net-(Q1-E)*%
X53340000Y-101473000D03*
%TD*%
%TO.P,R36,1*%
%TO.N,GNDA*%
X90678000Y-98679000D03*
%TO.P,R36,2*%
%TO.N,Net-(R36-Pad2)*%
X83058000Y-98679000D03*
%TD*%
%TO.P,R13,1*%
%TO.N,GNDA*%
X55880000Y-93853000D03*
%TO.P,R13,2*%
%TO.N,Net-(U1B-+)*%
X55880000Y-101473000D03*
%TD*%
%TO.P,R44,1*%
%TO.N,VCAEnv*%
X100965000Y-108857000D03*
%TO.P,R44,2*%
%TO.N,Net-(U3A--)*%
X100965000Y-101237000D03*
%TD*%
D17*
%TO.P,C7,1*%
%TO.N,Net-(U4A-+)*%
X83098000Y-110980000D03*
D18*
%TO.P,C7,2*%
%TO.N,Net-(C7-Pad2)*%
X85598000Y-110980000D03*
%TD*%
D19*
%TO.P,U1,1*%
%TO.N,Net-(R11-Pad1)*%
X48260000Y-111887000D03*
D20*
%TO.P,U1,2,-*%
%TO.N,Net-(U1A--)*%
X50800000Y-111887000D03*
%TO.P,U1,3,+*%
%TO.N,GNDA*%
X53340000Y-111887000D03*
%TO.P,U1,4,V-*%
%TO.N,-12VA*%
X55880000Y-111887000D03*
%TO.P,U1,5,+*%
%TO.N,Net-(U1B-+)*%
X55880000Y-104267000D03*
%TO.P,U1,6,-*%
%TO.N,Net-(Q1-E)*%
X53340000Y-104267000D03*
%TO.P,U1,7*%
%TO.N,Net-(R14-Pad1)*%
X50800000Y-104267000D03*
%TO.P,U1,8,V+*%
%TO.N,+12VA*%
X48260000Y-104267000D03*
%TD*%
D21*
%TO.P,C2,1*%
%TO.N,VCF_OUT*%
X87757000Y-78042900D03*
D18*
%TO.P,C2,2*%
%TO.N,Net-(C2-Pad2)*%
X87757000Y-80542900D03*
%TD*%
D10*
%TO.P,J4,1,Pin_1*%
%TO.N,VCAEnv*%
X114935000Y-101473000D03*
D11*
%TO.P,J4,2,Pin_2*%
%TO.N,GNDA*%
X114935000Y-98933000D03*
%TD*%
D19*
%TO.P,U3,1*%
%TO.N,Net-(R4-Pad1)*%
X98425000Y-98679000D03*
D20*
%TO.P,U3,2,-*%
%TO.N,Net-(U3A--)*%
X100965000Y-98679000D03*
%TO.P,U3,3,+*%
%TO.N,GNDA*%
X103505000Y-98679000D03*
%TO.P,U3,4,V-*%
%TO.N,-12VA*%
X106045000Y-98679000D03*
%TO.P,U3,5,+*%
%TO.N,Net-(U3B-+)*%
X106045000Y-91059000D03*
%TO.P,U3,6,-*%
%TO.N,Net-(Q2-E)*%
X103505000Y-91059000D03*
%TO.P,U3,7*%
%TO.N,Net-(R3-Pad1)*%
X100965000Y-91059000D03*
%TO.P,U3,8,V+*%
%TO.N,+12VA*%
X98425000Y-91059000D03*
%TD*%
D12*
%TO.P,R35,1*%
%TO.N,Net-(R31-Pad2)*%
X90678000Y-83947000D03*
%TO.P,R35,2*%
%TO.N,Net-(C2-Pad2)*%
X83058000Y-83947000D03*
%TD*%
D17*
%TO.P,C9,1*%
%TO.N,Net-(C9-Pad1)*%
X92115000Y-111107000D03*
D18*
%TO.P,C9,2*%
%TO.N,Net-(VR7-CCW)*%
X94615000Y-111107000D03*
%TD*%
D12*
%TO.P,R31,1*%
%TO.N,Net-(U2A-+)*%
X83058000Y-91313000D03*
%TO.P,R31,2*%
%TO.N,Net-(R31-Pad2)*%
X90678000Y-91313000D03*
%TD*%
%TO.P,R38,1*%
%TO.N,GNDA*%
X75692000Y-121394000D03*
%TO.P,R38,2*%
%TO.N,Net-(U4A-+)*%
X83312000Y-121394000D03*
%TD*%
D22*
%TO.P,U2,1*%
%TO.N,ResoCnt*%
X72517000Y-88628000D03*
D23*
%TO.P,U2,2,DIODE_BIAS*%
%TO.N,unconnected-(U2C-DIODE_BIAS-Pad2)*%
X72517000Y-91168000D03*
%TO.P,U2,3,+*%
%TO.N,Net-(U2C-+)*%
X72517000Y-93708000D03*
%TO.P,U2,4,-*%
%TO.N,Net-(U2C--)*%
X72517000Y-96248000D03*
%TO.P,U2,5*%
%TO.N,Net-(R22-Pad2)*%
X72517000Y-98788000D03*
%TO.P,U2,6,V-*%
%TO.N,-12VA*%
X72517000Y-101328000D03*
%TO.P,U2,7*%
%TO.N,Net-(R22-Pad2)*%
X72517000Y-103868000D03*
%TO.P,U2,8*%
%TO.N,ResoWav*%
X72517000Y-106408000D03*
%TO.P,U2,9*%
%TO.N,Net-(C7-Pad2)*%
X80137000Y-106408000D03*
%TO.P,U2,10*%
%TO.N,Net-(R36-Pad2)*%
X80137000Y-103868000D03*
%TO.P,U2,11,V+*%
%TO.N,+12VA*%
X80137000Y-101328000D03*
%TO.P,U2,12*%
%TO.N,Net-(R36-Pad2)*%
X80137000Y-98788000D03*
%TO.P,U2,13,-*%
%TO.N,Net-(U2A--)*%
X80137000Y-96248000D03*
%TO.P,U2,14,+*%
%TO.N,Net-(U2A-+)*%
X80137000Y-93708000D03*
%TO.P,U2,15,DIODE_BIAS*%
%TO.N,unconnected-(U2A-DIODE_BIAS-Pad15)*%
X80137000Y-91168000D03*
%TO.P,U2,16*%
%TO.N,VCACnt*%
X80137000Y-88628000D03*
%TD*%
D12*
%TO.P,R32,1*%
%TO.N,GNDA*%
X90678000Y-96266000D03*
%TO.P,R32,2*%
%TO.N,Net-(U2A--)*%
X83058000Y-96266000D03*
%TD*%
%TO.P,R19,1*%
%TO.N,GNDA*%
X61849000Y-93708000D03*
%TO.P,R19,2*%
%TO.N,Net-(U2C-+)*%
X69469000Y-93708000D03*
%TD*%
D10*
%TO.P,J2,1,Pin_1*%
%TO.N,ResoWav*%
X82042000Y-73279000D03*
D11*
%TO.P,J2,2,Pin_2*%
%TO.N,VCF_OUT*%
X84582000Y-73279000D03*
%TO.P,J2,3,Pin_3*%
%TO.N,GNDA*%
X87122000Y-73279000D03*
%TD*%
D12*
%TO.P,R41,1*%
%TO.N,Net-(U1A--)*%
X48260000Y-122428000D03*
%TO.P,R41,2*%
%TO.N,Net-(R11-Pad1)*%
X48260000Y-114808000D03*
%TD*%
%TO.P,R45,1*%
%TO.N,Net-(U3A--)*%
X98425000Y-108966000D03*
%TO.P,R45,2*%
%TO.N,Net-(R4-Pad1)*%
X98425000Y-101346000D03*
%TD*%
%TO.P,R21,1*%
%TO.N,Net-(U2C-+)*%
X69469000Y-91168000D03*
%TO.P,R21,2*%
%TO.N,VCF_OUT*%
X61849000Y-91168000D03*
%TD*%
D15*
%TO.P,Q2,1,E*%
%TO.N,Net-(Q2-E)*%
X103632000Y-73895000D03*
D24*
%TO.P,Q2,2,C*%
%TO.N,Net-(Q2-C)*%
X102362000Y-75965000D03*
%TO.P,Q2,3,B*%
%TO.N,Net-(Q2-B)*%
X101092000Y-73895000D03*
%TD*%
D10*
%TO.P,J5,1,Pin_1*%
%TO.N,+12VA*%
X56134000Y-74168000D03*
D11*
%TO.P,J5,2,Pin_2*%
%TO.N,+5VA*%
X58674000Y-74168000D03*
%TO.P,J5,3,Pin_3*%
%TO.N,-5VA*%
X61214000Y-74168000D03*
%TO.P,J5,4,Pin_4*%
%TO.N,-12VA*%
X63754000Y-74168000D03*
%TO.P,J5,5,Pin_5*%
%TO.N,unconnected-(J5-Pin_5-Pad5)*%
X66294000Y-74168000D03*
%TO.P,J5,6,Pin_6*%
%TO.N,GNDA*%
X68834000Y-74168000D03*
%TD*%
D12*
%TO.P,R49,1*%
%TO.N,GNDA*%
X86106000Y-127127000D03*
%TO.P,R49,2*%
%TO.N,Net-(VR7-CCW)*%
X93726000Y-127127000D03*
%TD*%
%TO.P,R3,1*%
%TO.N,Net-(R3-Pad1)*%
X100965000Y-88138000D03*
%TO.P,R3,2*%
%TO.N,Net-(Q2-B)*%
X100965000Y-80518000D03*
%TD*%
%TO.P,R33,1*%
%TO.N,GNDA*%
X90678000Y-93726000D03*
%TO.P,R33,2*%
%TO.N,Net-(U2A-+)*%
X83058000Y-93726000D03*
%TD*%
%TO.P,R5,1*%
%TO.N,Net-(Q2-C)*%
X90678000Y-88646000D03*
%TO.P,R5,2*%
%TO.N,VCACnt*%
X83058000Y-88646000D03*
%TD*%
%TO.P,R37,1*%
%TO.N,-12VA*%
X90678000Y-106426000D03*
%TO.P,R37,2*%
%TO.N,Net-(C7-Pad2)*%
X83058000Y-106426000D03*
%TD*%
D22*
%TO.P,U4,1*%
%TO.N,Net-(C9-Pad1)*%
X86233000Y-116314000D03*
D23*
%TO.P,U4,2,-*%
%TO.N,Net-(U4A--)*%
X86233000Y-118854000D03*
%TO.P,U4,3,+*%
%TO.N,Net-(U4A-+)*%
X86233000Y-121394000D03*
%TO.P,U4,4,V-*%
%TO.N,-12VA*%
X86233000Y-123934000D03*
%TO.P,U4,5,+*%
%TO.N,Net-(U4B-+)*%
X93853000Y-123934000D03*
%TO.P,U4,6,-*%
%TO.N,GNDA*%
X93853000Y-121394000D03*
%TO.P,U4,7*%
%TO.N,Net-(U4B-+)*%
X93853000Y-118854000D03*
%TO.P,U4,8,V+*%
%TO.N,+12VA*%
X93853000Y-116314000D03*
%TD*%
D12*
%TO.P,R15,1*%
%TO.N,Net-(Q1-C)*%
X61849000Y-88646000D03*
%TO.P,R15,2*%
%TO.N,ResoCnt*%
X69469000Y-88646000D03*
%TD*%
%TO.P,R4,1*%
%TO.N,Net-(R4-Pad1)*%
X98552000Y-88138000D03*
%TO.P,R4,2*%
%TO.N,Net-(U3B-+)*%
X98552000Y-80518000D03*
%TD*%
%TO.P,R22,1*%
%TO.N,GNDA*%
X61849000Y-98788000D03*
%TO.P,R22,2*%
%TO.N,Net-(R22-Pad2)*%
X69469000Y-98788000D03*
%TD*%
D21*
%TO.P,C1,1*%
%TO.N,ResoWav*%
X81534000Y-78169900D03*
D18*
%TO.P,C1,2*%
%TO.N,Net-(C1-Pad2)*%
X81534000Y-80669900D03*
%TD*%
D12*
%TO.P,R14,1*%
%TO.N,Net-(R14-Pad1)*%
X50800000Y-101473000D03*
%TO.P,R14,2*%
%TO.N,Net-(Q1-B)*%
X50800000Y-93853000D03*
%TD*%
%TO.P,R48,1*%
%TO.N,GNDA*%
X83312000Y-118854000D03*
%TO.P,R48,2*%
%TO.N,Net-(U4A--)*%
X75692000Y-118854000D03*
%TD*%
D13*
%TO.P,VR7,1,CCW*%
%TO.N,Net-(VR7-CCW)*%
X102188000Y-127871000D03*
%TO.P,VR7,2,WIPER*%
%TO.N,Net-(J3-Pin_1)*%
X104688000Y-127871000D03*
%TO.P,VR7,3,CW*%
%TO.N,GNDA*%
X107188000Y-127871000D03*
D14*
%TO.P,VR7,MH1,MH1*%
X100288000Y-120871000D03*
%TO.P,VR7,MH2,MH2*%
X109088000Y-120871000D03*
%TD*%
D12*
%TO.P,R43,1*%
%TO.N,Net-(VR6-WIPER)*%
X50800000Y-122301000D03*
%TO.P,R43,2*%
%TO.N,Net-(U1A--)*%
X50800000Y-114681000D03*
%TD*%
%TO.P,R47,1*%
%TO.N,Net-(C9-Pad1)*%
X83312000Y-116314000D03*
%TO.P,R47,2*%
%TO.N,Net-(U4A--)*%
X75692000Y-116314000D03*
%TD*%
%TO.P,R20,1*%
%TO.N,GNDA*%
X61849000Y-96248000D03*
%TO.P,R20,2*%
%TO.N,Net-(U2C--)*%
X69469000Y-96248000D03*
%TD*%
%TO.P,R2,1*%
%TO.N,GNDA*%
X103505000Y-80518000D03*
%TO.P,R2,2*%
%TO.N,Net-(Q2-E)*%
X103505000Y-88138000D03*
%TD*%
D25*
%TO.N,Net-(U4B-+)*%
X89680000Y-123934000D03*
%TO.N,+12VA*%
X94906900Y-94742000D03*
X79781600Y-81080100D03*
%TO.N,ResoWav*%
X74630900Y-106387500D03*
%TD*%
D26*
%TO.N,Net-(U4B-+)*%
X89680000Y-119997000D02*
X90823000Y-118854000D01*
X89680000Y-123934000D02*
X89680000Y-119997000D01*
X90823000Y-118854000D02*
X93853000Y-118854000D01*
%TO.N,-12VA*%
X88646000Y-108458000D02*
X90678000Y-106426000D01*
X88646000Y-123272700D02*
X88646000Y-108458000D01*
X87984700Y-123934000D02*
X88646000Y-123272700D01*
X86233000Y-123934000D02*
X87984700Y-123934000D01*
%TO.N,+12VA*%
X96002000Y-115916700D02*
X95604700Y-116314000D01*
X96002000Y-94986000D02*
X96002000Y-115916700D01*
X95604700Y-116314000D02*
X93853000Y-116314000D01*
X94961400Y-94687500D02*
X95703500Y-94687500D01*
X94906900Y-94742000D02*
X94961400Y-94687500D01*
X95703500Y-94687500D02*
X96002000Y-94986000D01*
%TO.N,ResoWav*%
X75000000Y-84657200D02*
X75000000Y-106018400D01*
X81487300Y-78169900D02*
X75000000Y-84657200D01*
X75000000Y-106018400D02*
X74630900Y-106387500D01*
X81534000Y-78169900D02*
X81487300Y-78169900D01*
%TO.N,Net-(R14-Pad1)*%
X50800000Y-101473000D02*
X50800000Y-104267000D01*
%TO.N,Net-(R11-Pad1)*%
X48260000Y-111887000D02*
X48260000Y-114808000D01*
%TO.N,Net-(R4-Pad1)*%
X98425000Y-98679000D02*
X98425000Y-101346000D01*
X97036600Y-97290600D02*
X98425000Y-98679000D01*
X97036600Y-89653400D02*
X97036600Y-97290600D01*
X98552000Y-88138000D02*
X97036600Y-89653400D01*
%TO.N,Net-(R3-Pad1)*%
X100965000Y-91059000D02*
X100965000Y-88138000D01*
%TO.N,Net-(Q2-C)*%
X93731000Y-85593000D02*
X90678000Y-88646000D01*
X93731000Y-83554400D02*
X93731000Y-85593000D01*
X101720400Y-75565000D02*
X93731000Y-83554400D01*
X102362000Y-75565000D02*
X101720400Y-75565000D01*
%TO.N,Net-(Q2-E)*%
X103505000Y-91059000D02*
X103505000Y-88138000D01*
X104793300Y-86849700D02*
X103505000Y-88138000D01*
X104793300Y-76508000D02*
X104793300Y-86849700D01*
X103632000Y-75346700D02*
X104793300Y-76508000D01*
X103632000Y-74295000D02*
X103632000Y-75346700D01*
%TO.N,Net-(Q1-E)*%
X53340000Y-104267000D02*
X53340000Y-101473000D01*
%TO.N,Net-(Q1-B)*%
X55118000Y-89535000D02*
X55118000Y-87122000D01*
X50800000Y-93853000D02*
X55118000Y-89535000D01*
%TO.N,Net-(U4A--)*%
X75692000Y-118854000D02*
X75692000Y-116314000D01*
%TO.N,Net-(U3B-+)*%
X106045000Y-91059000D02*
X106045000Y-88138000D01*
%TO.N,Net-(U3A--)*%
X100965000Y-98679000D02*
X100965000Y-101237000D01*
X100965000Y-106426000D02*
X100965000Y-101237000D01*
X98425000Y-108966000D02*
X100965000Y-106426000D01*
%TO.N,Net-(U1B-+)*%
X48260000Y-93853000D02*
X55880000Y-101473000D01*
%TO.N,Net-(U1A--)*%
X50800000Y-119888000D02*
X50800000Y-114681000D01*
X48260000Y-122428000D02*
X50800000Y-119888000D01*
X50800000Y-111887000D02*
X50800000Y-114681000D01*
%TO.N,Net-(R36-Pad2)*%
X83058000Y-102698700D02*
X81888700Y-103868000D01*
X83058000Y-98679000D02*
X83058000Y-102698700D01*
X80137000Y-103868000D02*
X81888700Y-103868000D01*
%TO.N,Net-(R31-Pad2)*%
X90678000Y-85090000D02*
X90678000Y-83947000D01*
X90678000Y-86233000D02*
X90678000Y-85193500D01*
X90678000Y-85193500D02*
X90678000Y-85090000D01*
X89349700Y-89984700D02*
X90678000Y-91313000D01*
X89349700Y-87561300D02*
X89349700Y-89984700D01*
X90678000Y-86233000D02*
X89349700Y-87561300D01*
%TO.N,Net-(U2A-+)*%
X83058000Y-93726000D02*
X83058000Y-91313000D01*
%TO.N,Net-(U2C-+)*%
X69469000Y-93708000D02*
X69469000Y-91168000D01*
%TO.N,Net-(J3-Pin_1)*%
X104688000Y-116800000D02*
X114935000Y-106553000D01*
X104688000Y-127871000D02*
X104688000Y-116800000D01*
%TO.N,+5VA*%
X58674000Y-74168000D02*
X58674000Y-78758000D01*
X61704600Y-127206400D02*
X60786000Y-128125000D01*
X61704600Y-115827300D02*
X61704600Y-127206400D01*
X58674000Y-112796700D02*
X61704600Y-115827300D01*
X58674000Y-78758000D02*
X58674000Y-112796700D01*
%TO.N,-12VA*%
X63754000Y-78758000D02*
X63754000Y-74168000D01*
X72517000Y-101328000D02*
X69469000Y-101328000D01*
X63754000Y-95613000D02*
X63754000Y-78758000D01*
X69469000Y-101328000D02*
X63754000Y-95613000D01*
%TO.N,+12VA*%
X56134000Y-78758000D02*
X56134000Y-74168000D01*
X46999000Y-89294700D02*
X56134000Y-80159700D01*
X46999000Y-103006000D02*
X46999000Y-89294700D01*
X48260000Y-104267000D02*
X46999000Y-103006000D01*
X56134000Y-78758000D02*
X56134000Y-80159700D01*
X78385300Y-82476400D02*
X79781600Y-81080100D01*
X78385300Y-101328000D02*
X78385300Y-82476400D01*
X80137000Y-101328000D02*
X78385300Y-101328000D01*
%TO.N,-5VA*%
X61214000Y-74168000D02*
X61214000Y-78758000D01*
%TO.N,Net-(U4A-+)*%
X82040200Y-120122200D02*
X83312000Y-121394000D01*
X82040200Y-112037800D02*
X82040200Y-120122200D01*
X83098000Y-110980000D02*
X82040200Y-112037800D01*
%TO.N,Net-(C7-Pad2)*%
X85598000Y-108966000D02*
X85598000Y-110980000D01*
X83058000Y-106426000D02*
X85598000Y-108966000D01*
%TO.N,VCF_OUT*%
X84582000Y-74867900D02*
X84582000Y-73279000D01*
X87757000Y-78042900D02*
X84582000Y-74867900D01*
%TO.N,ResoWav*%
X81534000Y-75188700D02*
X81534000Y-78169900D01*
X82042000Y-74680700D02*
X81534000Y-75188700D01*
X82042000Y-73279000D02*
X82042000Y-74680700D01*
%TO.N,Net-(C1-Pad2)*%
X81534000Y-84709000D02*
X83058000Y-86233000D01*
X81534000Y-80669900D02*
X81534000Y-84709000D01*
%TD*%
%TA.AperFunction,Conductor*%
%TO.N,GNDA*%
G36*
X84507702Y-116951654D02*
G01*
X84540862Y-117010372D01*
X84540871Y-117010370D01*
X84540885Y-117010412D01*
X84542060Y-117012493D01*
X84542535Y-117014621D01*
X84543001Y-117016797D01*
X84598186Y-117183334D01*
X84690288Y-117332656D01*
X84814344Y-117456712D01*
X84963666Y-117548814D01*
X85045570Y-117575954D01*
X85103015Y-117615727D01*
X85129838Y-117680243D01*
X85117523Y-117749018D01*
X85079451Y-117793978D01*
X84985787Y-117862028D01*
X84985782Y-117862032D01*
X84841028Y-118006786D01*
X84720715Y-118172386D01*
X84626588Y-118357119D01*
X84578613Y-118407915D01*
X84510792Y-118424710D01*
X84444657Y-118402172D01*
X84405618Y-118357119D01*
X84338329Y-118225059D01*
X84319883Y-118199670D01*
X84319882Y-118199669D01*
X83665554Y-118853999D01*
X83665554Y-118854000D01*
X84319882Y-119508328D01*
X84319883Y-119508328D01*
X84338331Y-119482937D01*
X84405618Y-119350880D01*
X84453592Y-119300084D01*
X84521413Y-119283289D01*
X84587548Y-119305826D01*
X84626588Y-119350880D01*
X84627780Y-119353219D01*
X84715699Y-119525770D01*
X84720715Y-119535613D01*
X84841028Y-119701213D01*
X84985786Y-119845971D01*
X85140749Y-119958556D01*
X85151390Y-119966287D01*
X85229981Y-120006331D01*
X85244080Y-120013515D01*
X85294876Y-120061490D01*
X85311671Y-120129311D01*
X85289134Y-120195446D01*
X85244080Y-120234485D01*
X85151386Y-120281715D01*
X84985786Y-120402028D01*
X84841028Y-120546786D01*
X84720713Y-120712388D01*
X84626867Y-120896569D01*
X84578893Y-120947364D01*
X84511072Y-120964159D01*
X84444937Y-120941621D01*
X84405898Y-120896568D01*
X84405014Y-120894833D01*
X84338760Y-120764801D01*
X84227690Y-120611927D01*
X84094073Y-120478310D01*
X83941199Y-120367240D01*
X83939580Y-120366415D01*
X83772836Y-120281454D01*
X83668574Y-120247577D01*
X83650386Y-120241667D01*
X83592712Y-120202230D01*
X83565514Y-120137871D01*
X83577429Y-120069025D01*
X83624673Y-120017549D01*
X83650389Y-120005806D01*
X83772635Y-119966086D01*
X83940937Y-119880331D01*
X83966328Y-119861883D01*
X83966328Y-119861882D01*
X83308446Y-119204000D01*
X83358078Y-119204000D01*
X83447095Y-119180148D01*
X83526905Y-119134070D01*
X83592070Y-119068905D01*
X83638148Y-118989095D01*
X83662000Y-118900078D01*
X83662000Y-118807922D01*
X83638148Y-118718905D01*
X83592070Y-118639095D01*
X83526905Y-118573930D01*
X83447095Y-118527852D01*
X83358078Y-118504000D01*
X83308444Y-118504000D01*
X83966328Y-117846116D01*
X83940933Y-117827666D01*
X83772637Y-117741914D01*
X83650388Y-117702193D01*
X83592712Y-117662755D01*
X83565514Y-117598397D01*
X83577429Y-117529550D01*
X83624673Y-117478075D01*
X83650382Y-117466333D01*
X83772832Y-117426547D01*
X83941199Y-117340760D01*
X84094073Y-117229690D01*
X84227690Y-117096073D01*
X84320965Y-116967690D01*
X84376294Y-116925027D01*
X84445907Y-116919048D01*
X84507702Y-116951654D01*
G37*
%TD.AperFunction*%
%TA.AperFunction,Conductor*%
G36*
X119442539Y-67520185D02*
G01*
X119488294Y-67572989D01*
X119499500Y-67624500D01*
X119499500Y-136375500D01*
X119479815Y-136442539D01*
X119427011Y-136488294D01*
X119375500Y-136499500D01*
X40624500Y-136499500D01*
X40557461Y-136479815D01*
X40511706Y-136427011D01*
X40500500Y-136375500D01*
X40500500Y-132862332D01*
X40899500Y-132862332D01*
X40899500Y-133137667D01*
X40899501Y-133137684D01*
X40935438Y-133410655D01*
X40935439Y-133410660D01*
X40935440Y-133410666D01*
X40935441Y-133410668D01*
X41006704Y-133676630D01*
X41112075Y-133931017D01*
X41112080Y-133931028D01*
X41191809Y-134069121D01*
X41249751Y-134169479D01*
X41249753Y-134169482D01*
X41249754Y-134169483D01*
X41417370Y-134387926D01*
X41417376Y-134387933D01*
X41612066Y-134582623D01*
X41612072Y-134582628D01*
X41830521Y-134750249D01*
X41983778Y-134838732D01*
X42068971Y-134887919D01*
X42068976Y-134887921D01*
X42068979Y-134887923D01*
X42323368Y-134993295D01*
X42589334Y-135064560D01*
X42862326Y-135100500D01*
X42862333Y-135100500D01*
X43137667Y-135100500D01*
X43137674Y-135100500D01*
X43410666Y-135064560D01*
X43676632Y-134993295D01*
X43931021Y-134887923D01*
X44169479Y-134750249D01*
X44387928Y-134582628D01*
X44582628Y-134387928D01*
X44750249Y-134169479D01*
X44887923Y-133931021D01*
X44993295Y-133676632D01*
X45064560Y-133410666D01*
X45100500Y-133137674D01*
X45100500Y-132862332D01*
X113899500Y-132862332D01*
X113899500Y-133137667D01*
X113899501Y-133137684D01*
X113935438Y-133410655D01*
X113935439Y-133410660D01*
X113935440Y-133410666D01*
X113935441Y-133410668D01*
X114006704Y-133676630D01*
X114112075Y-133931017D01*
X114112080Y-133931028D01*
X114191809Y-134069121D01*
X114249751Y-134169479D01*
X114249753Y-134169482D01*
X114249754Y-134169483D01*
X114417370Y-134387926D01*
X114417376Y-134387933D01*
X114612066Y-134582623D01*
X114612072Y-134582628D01*
X114830521Y-134750249D01*
X114983778Y-134838732D01*
X115068971Y-134887919D01*
X115068976Y-134887921D01*
X115068979Y-134887923D01*
X115323368Y-134993295D01*
X115589334Y-135064560D01*
X115862326Y-135100500D01*
X115862333Y-135100500D01*
X116137667Y-135100500D01*
X116137674Y-135100500D01*
X116410666Y-135064560D01*
X116676632Y-134993295D01*
X116931021Y-134887923D01*
X117169479Y-134750249D01*
X117387928Y-134582628D01*
X117582628Y-134387928D01*
X117750249Y-134169479D01*
X117887923Y-133931021D01*
X117993295Y-133676632D01*
X118064560Y-133410666D01*
X118100500Y-133137674D01*
X118100500Y-132862326D01*
X118064560Y-132589334D01*
X117993295Y-132323368D01*
X117887923Y-132068979D01*
X117887921Y-132068976D01*
X117887919Y-132068971D01*
X117838732Y-131983778D01*
X117750249Y-131830521D01*
X117582628Y-131612072D01*
X117582623Y-131612066D01*
X117387933Y-131417376D01*
X117387926Y-131417370D01*
X117169483Y-131249754D01*
X117169482Y-131249753D01*
X117169479Y-131249751D01*
X117074407Y-131194861D01*
X116931028Y-131112080D01*
X116931017Y-131112075D01*
X116676630Y-131006704D01*
X116543649Y-130971072D01*
X116410666Y-130935440D01*
X116410660Y-130935439D01*
X116410655Y-130935438D01*
X116137684Y-130899501D01*
X116137679Y-130899500D01*
X116137674Y-130899500D01*
X115862326Y-130899500D01*
X115862320Y-130899500D01*
X115862315Y-130899501D01*
X115589344Y-130935438D01*
X115589337Y-130935439D01*
X115589334Y-130935440D01*
X115533125Y-130950500D01*
X115323369Y-131006704D01*
X115068982Y-131112075D01*
X115068971Y-131112080D01*
X114830516Y-131249754D01*
X114612073Y-131417370D01*
X114612066Y-131417376D01*
X114417376Y-131612066D01*
X114417370Y-131612073D01*
X114249754Y-131830516D01*
X114112080Y-132068971D01*
X114112075Y-132068982D01*
X114006704Y-132323369D01*
X113935441Y-132589331D01*
X113935438Y-132589344D01*
X113899501Y-132862315D01*
X113899500Y-132862332D01*
X45100500Y-132862332D01*
X45100500Y-132862326D01*
X45064560Y-132589334D01*
X44993295Y-132323368D01*
X44887923Y-132068979D01*
X44887921Y-132068976D01*
X44887919Y-132068971D01*
X44838732Y-131983778D01*
X44750249Y-131830521D01*
X44582628Y-131612072D01*
X44582623Y-131612066D01*
X44387933Y-131417376D01*
X44387926Y-131417370D01*
X44169483Y-131249754D01*
X44169482Y-131249753D01*
X44169479Y-131249751D01*
X44074407Y-131194861D01*
X43931028Y-131112080D01*
X43931017Y-131112075D01*
X43676630Y-131006704D01*
X43543649Y-130971072D01*
X43410666Y-130935440D01*
X43410660Y-130935439D01*
X43410655Y-130935438D01*
X43137684Y-130899501D01*
X43137679Y-130899500D01*
X43137674Y-130899500D01*
X42862326Y-130899500D01*
X42862320Y-130899500D01*
X42862315Y-130899501D01*
X42589344Y-130935438D01*
X42589337Y-130935439D01*
X42589334Y-130935440D01*
X42533125Y-130950500D01*
X42323369Y-131006704D01*
X42068982Y-131112075D01*
X42068971Y-131112080D01*
X41830516Y-131249754D01*
X41612073Y-131417370D01*
X41612066Y-131417376D01*
X41417376Y-131612066D01*
X41417370Y-131612073D01*
X41249754Y-131830516D01*
X41112080Y-132068971D01*
X41112075Y-132068982D01*
X41006704Y-132323369D01*
X40935441Y-132589331D01*
X40935438Y-132589344D01*
X40899501Y-132862315D01*
X40899500Y-132862332D01*
X40500500Y-132862332D01*
X40500500Y-110886983D01*
X46959500Y-110886983D01*
X46959500Y-112887001D01*
X46959501Y-112887018D01*
X46970000Y-112989796D01*
X46970001Y-112989799D01*
X47025185Y-113156331D01*
X47025187Y-113156336D01*
X47060069Y-113212888D01*
X47117288Y-113305656D01*
X47241344Y-113429712D01*
X47390666Y-113521814D01*
X47424500Y-113533025D01*
X47444534Y-113546894D01*
X47466703Y-113557019D01*
X47472750Y-113566429D01*
X47481947Y-113572796D01*
X47491303Y-113595298D01*
X47504477Y-113615797D01*
X47506935Y-113632893D01*
X47508772Y-113637311D01*
X47509500Y-113650732D01*
X47509500Y-113809374D01*
X47489815Y-113876413D01*
X47473182Y-113897055D01*
X47344309Y-114025928D01*
X47233240Y-114178800D01*
X47147454Y-114347163D01*
X47089059Y-114526881D01*
X47059500Y-114713513D01*
X47059500Y-114902486D01*
X47089059Y-115089118D01*
X47147454Y-115268836D01*
X47188241Y-115348884D01*
X47233240Y-115437199D01*
X47344310Y-115590073D01*
X47477927Y-115723690D01*
X47630801Y-115834760D01*
X47666929Y-115853168D01*
X47799163Y-115920545D01*
X47799165Y-115920545D01*
X47799168Y-115920547D01*
X47895497Y-115951846D01*
X47978881Y-115978940D01*
X48165514Y-116008500D01*
X48165519Y-116008500D01*
X48354486Y-116008500D01*
X48541118Y-115978940D01*
X48720832Y-115920547D01*
X48889199Y-115834760D01*
X49042073Y-115723690D01*
X49175690Y-115590073D01*
X49286760Y-115437199D01*
X49372547Y-115268832D01*
X49424551Y-115108781D01*
X49432446Y-115084484D01*
X49434511Y-115085155D01*
X49464763Y-115032404D01*
X49526772Y-115000207D01*
X49596345Y-115006646D01*
X49651391Y-115049676D01*
X49668525Y-115083578D01*
X49687454Y-115141836D01*
X49761542Y-115287240D01*
X49773240Y-115310199D01*
X49884310Y-115463073D01*
X49884312Y-115463075D01*
X50013181Y-115591944D01*
X50046666Y-115653267D01*
X50049500Y-115679625D01*
X50049500Y-119525770D01*
X50029815Y-119592809D01*
X50013181Y-119613451D01*
X48435451Y-121191181D01*
X48374128Y-121224666D01*
X48347770Y-121227500D01*
X48165514Y-121227500D01*
X47978881Y-121257059D01*
X47799163Y-121315454D01*
X47630800Y-121401240D01*
X47543579Y-121464610D01*
X47477927Y-121512310D01*
X47477925Y-121512312D01*
X47477924Y-121512312D01*
X47344312Y-121645924D01*
X47344312Y-121645925D01*
X47344310Y-121645927D01*
X47308626Y-121695042D01*
X47233240Y-121798800D01*
X47147454Y-121967163D01*
X47089059Y-122146881D01*
X47059500Y-122333513D01*
X47059500Y-122522486D01*
X47089059Y-122709118D01*
X47147454Y-122888836D01*
X47192636Y-122977509D01*
X47233240Y-123057199D01*
X47344310Y-123210073D01*
X47477927Y-123343690D01*
X47630801Y-123454760D01*
X47664519Y-123471940D01*
X47799163Y-123540545D01*
X47799165Y-123540545D01*
X47799168Y-123540547D01*
X47871961Y-123564199D01*
X47978881Y-123598940D01*
X48165514Y-123628500D01*
X48165519Y-123628500D01*
X48354486Y-123628500D01*
X48541118Y-123598940D01*
X48542475Y-123598499D01*
X48720832Y-123540547D01*
X48889199Y-123454760D01*
X49042073Y-123343690D01*
X49175690Y-123210073D01*
X49286760Y-123057199D01*
X49372547Y-122888832D01*
X49413972Y-122761338D01*
X49432446Y-122704484D01*
X49434511Y-122705155D01*
X49464763Y-122652404D01*
X49526772Y-122620207D01*
X49596345Y-122626646D01*
X49651391Y-122669676D01*
X49668525Y-122703578D01*
X49687454Y-122761836D01*
X49773240Y-122930199D01*
X49884310Y-123083073D01*
X50017927Y-123216690D01*
X50170801Y-123327760D01*
X50250347Y-123368290D01*
X50339163Y-123413545D01*
X50339165Y-123413545D01*
X50339168Y-123413547D01*
X50404504Y-123434776D01*
X50518881Y-123471940D01*
X50705514Y-123501500D01*
X50705519Y-123501500D01*
X50894486Y-123501500D01*
X51081118Y-123471940D01*
X51133995Y-123454759D01*
X51260832Y-123413547D01*
X51429199Y-123327760D01*
X51582073Y-123216690D01*
X51715690Y-123083073D01*
X51826760Y-122930199D01*
X51912547Y-122761832D01*
X51970940Y-122582118D01*
X51980385Y-122522486D01*
X52000500Y-122395486D01*
X52000500Y-122206513D01*
X51970940Y-122019881D01*
X51917313Y-121854836D01*
X51912547Y-121840168D01*
X51912545Y-121840165D01*
X51912545Y-121840163D01*
X51840319Y-121698413D01*
X51826760Y-121671801D01*
X51715690Y-121518927D01*
X51582073Y-121385310D01*
X51429199Y-121274240D01*
X51403161Y-121260973D01*
X51260836Y-121188454D01*
X51081118Y-121130059D01*
X50922817Y-121104987D01*
X50911440Y-121099594D01*
X50898881Y-121098696D01*
X50880466Y-121084911D01*
X50859682Y-121075058D01*
X50853026Y-121064368D01*
X50842948Y-121056824D01*
X50834910Y-121035273D01*
X50822751Y-121015746D01*
X50822930Y-121003156D01*
X50818531Y-120991360D01*
X50823420Y-120968883D01*
X50823749Y-120945883D01*
X50831062Y-120933755D01*
X50833383Y-120923087D01*
X50854534Y-120894833D01*
X51382948Y-120366419D01*
X51382951Y-120366416D01*
X51465084Y-120243495D01*
X51521658Y-120106913D01*
X51530638Y-120061770D01*
X51531145Y-120059221D01*
X51531145Y-120059220D01*
X51550500Y-119961920D01*
X51550500Y-115679625D01*
X51570185Y-115612586D01*
X51586819Y-115591944D01*
X51650547Y-115528216D01*
X51715690Y-115463073D01*
X51826760Y-115310199D01*
X51912547Y-115141832D01*
X51970940Y-114962118D01*
X51980385Y-114902486D01*
X52000500Y-114775486D01*
X52000500Y-114586513D01*
X51970940Y-114399881D01*
X51912545Y-114220163D01*
X51826759Y-114051800D01*
X51807961Y-114025927D01*
X51715690Y-113898927D01*
X51586818Y-113770055D01*
X51553334Y-113708732D01*
X51550500Y-113682374D01*
X51550500Y-113412416D01*
X51570185Y-113345377D01*
X51601613Y-113312099D01*
X51647219Y-113278966D01*
X51791966Y-113134219D01*
X51791968Y-113134215D01*
X51791971Y-113134213D01*
X51912284Y-112968614D01*
X51912286Y-112968611D01*
X51912287Y-112968610D01*
X51959795Y-112875369D01*
X52007770Y-112824574D01*
X52075591Y-112807779D01*
X52141725Y-112830316D01*
X52180765Y-112875370D01*
X52228140Y-112968349D01*
X52348417Y-113133894D01*
X52348417Y-113133895D01*
X52493104Y-113278582D01*
X52658650Y-113398859D01*
X52840968Y-113491754D01*
X53035578Y-113554988D01*
X53090000Y-113563607D01*
X53090000Y-112202686D01*
X53094394Y-112207080D01*
X53185606Y-112259741D01*
X53287339Y-112287000D01*
X53392661Y-112287000D01*
X53494394Y-112259741D01*
X53585606Y-112207080D01*
X53590000Y-112202686D01*
X53590000Y-113563606D01*
X53644421Y-113554988D01*
X53839031Y-113491754D01*
X54021349Y-113398859D01*
X54186894Y-113278582D01*
X54186895Y-113278582D01*
X54331582Y-113133895D01*
X54331582Y-113133894D01*
X54451861Y-112968347D01*
X54499234Y-112875371D01*
X54547208Y-112824575D01*
X54615028Y-112807779D01*
X54681164Y-112830316D01*
X54720203Y-112875369D01*
X54767713Y-112968611D01*
X54888028Y-113134213D01*
X55032786Y-113278971D01*
X55154535Y-113367425D01*
X55198390Y-113399287D01*
X55314607Y-113458503D01*
X55380776Y-113492218D01*
X55380778Y-113492218D01*
X55380781Y-113492220D01*
X55471862Y-113521814D01*
X55575465Y-113555477D01*
X55644613Y-113566429D01*
X55777648Y-113587500D01*
X55777649Y-113587500D01*
X55982351Y-113587500D01*
X55982352Y-113587500D01*
X56184534Y-113555477D01*
X56379219Y-113492220D01*
X56561610Y-113399287D01*
X56690482Y-113305657D01*
X56727213Y-113278971D01*
X56727215Y-113278968D01*
X56727219Y-113278966D01*
X56871966Y-113134219D01*
X56871968Y-113134215D01*
X56871971Y-113134213D01*
X56940021Y-113040548D01*
X56992287Y-112968610D01*
X57085220Y-112786219D01*
X57148477Y-112591534D01*
X57180500Y-112389352D01*
X57180500Y-111384648D01*
X57148477Y-111182466D01*
X57085220Y-110987781D01*
X57085218Y-110987778D01*
X57085218Y-110987776D01*
X57033865Y-110886991D01*
X56992287Y-110805390D01*
X56940021Y-110733451D01*
X56871971Y-110639786D01*
X56727213Y-110495028D01*
X56561613Y-110374715D01*
X56561612Y-110374714D01*
X56561610Y-110374713D01*
X56501519Y-110344095D01*
X56379223Y-110281781D01*
X56184534Y-110218522D01*
X56009995Y-110190878D01*
X55982352Y-110186500D01*
X55777648Y-110186500D01*
X55753329Y-110190351D01*
X55575465Y-110218522D01*
X55380776Y-110281781D01*
X55198386Y-110374715D01*
X55032786Y-110495028D01*
X54888028Y-110639786D01*
X54767713Y-110805388D01*
X54720203Y-110898630D01*
X54672228Y-110949426D01*
X54604407Y-110966220D01*
X54538272Y-110943682D01*
X54499234Y-110898628D01*
X54451861Y-110805652D01*
X54331582Y-110640105D01*
X54331582Y-110640104D01*
X54186895Y-110495417D01*
X54021349Y-110375140D01*
X53839029Y-110282244D01*
X53644413Y-110219009D01*
X53590000Y-110210390D01*
X53590000Y-111571314D01*
X53585606Y-111566920D01*
X53494394Y-111514259D01*
X53392661Y-111487000D01*
X53287339Y-111487000D01*
X53185606Y-111514259D01*
X53094394Y-111566920D01*
X53090000Y-111571314D01*
X53090000Y-110210390D01*
X53035586Y-110219009D01*
X52840970Y-110282244D01*
X52658650Y-110375140D01*
X52493105Y-110495417D01*
X52493104Y-110495417D01*
X52348417Y-110640104D01*
X52348417Y-110640105D01*
X52228140Y-110805650D01*
X52180765Y-110898629D01*
X52132790Y-110949425D01*
X52064969Y-110966220D01*
X51998834Y-110943682D01*
X51959795Y-110898629D01*
X51912419Y-110805650D01*
X51912287Y-110805390D01*
X51860021Y-110733451D01*
X51791971Y-110639786D01*
X51647213Y-110495028D01*
X51481613Y-110374715D01*
X51481612Y-110374714D01*
X51481610Y-110374713D01*
X51421519Y-110344095D01*
X51299223Y-110281781D01*
X51104534Y-110218522D01*
X50929995Y-110190878D01*
X50902352Y-110186500D01*
X50697648Y-110186500D01*
X50673329Y-110190351D01*
X50495465Y-110218522D01*
X50300776Y-110281781D01*
X50118386Y-110374715D01*
X49952786Y-110495028D01*
X49808032Y-110639782D01*
X49808028Y-110639787D01*
X49739978Y-110733451D01*
X49684648Y-110776117D01*
X49615035Y-110782096D01*
X49553240Y-110749490D01*
X49521954Y-110699570D01*
X49513967Y-110675466D01*
X49494814Y-110617666D01*
X49402712Y-110468344D01*
X49278656Y-110344288D01*
X49169893Y-110277203D01*
X49129336Y-110252187D01*
X49129331Y-110252185D01*
X49115561Y-110247622D01*
X48962797Y-110197001D01*
X48962795Y-110197000D01*
X48860010Y-110186500D01*
X47659998Y-110186500D01*
X47659981Y-110186501D01*
X47557203Y-110197000D01*
X47557200Y-110197001D01*
X47390668Y-110252185D01*
X47390663Y-110252187D01*
X47241342Y-110344289D01*
X47117289Y-110468342D01*
X47025187Y-110617663D01*
X47025186Y-110617666D01*
X46970001Y-110784203D01*
X46970001Y-110784204D01*
X46970000Y-110784204D01*
X46959500Y-110886983D01*
X40500500Y-110886983D01*
X40500500Y-103079920D01*
X46248499Y-103079920D01*
X46277340Y-103224907D01*
X46277343Y-103224917D01*
X46327361Y-103345671D01*
X46333916Y-103361495D01*
X46360383Y-103401106D01*
X46360382Y-103401106D01*
X46416046Y-103484414D01*
X46416052Y-103484421D01*
X46923181Y-103991548D01*
X46956666Y-104052871D01*
X46959500Y-104079229D01*
X46959500Y-104769351D01*
X46991522Y-104971534D01*
X47054781Y-105166223D01*
X47102157Y-105259202D01*
X47146105Y-105345455D01*
X47147715Y-105348613D01*
X47268028Y-105514213D01*
X47412786Y-105658971D01*
X47559704Y-105765711D01*
X47578390Y-105779287D01*
X47694607Y-105838503D01*
X47760776Y-105872218D01*
X47760778Y-105872218D01*
X47760781Y-105872220D01*
X47865137Y-105906127D01*
X47955465Y-105935477D01*
X48056557Y-105951488D01*
X48157648Y-105967500D01*
X48157649Y-105967500D01*
X48362351Y-105967500D01*
X48362352Y-105967500D01*
X48564534Y-105935477D01*
X48759219Y-105872220D01*
X48941610Y-105779287D01*
X49054203Y-105697484D01*
X49107213Y-105658971D01*
X49107215Y-105658968D01*
X49107219Y-105658966D01*
X49251966Y-105514219D01*
X49251968Y-105514215D01*
X49251971Y-105514213D01*
X49372284Y-105348614D01*
X49372285Y-105348613D01*
X49372287Y-105348610D01*
X49419516Y-105255917D01*
X49467489Y-105205123D01*
X49535310Y-105188328D01*
X49601445Y-105210865D01*
X49640483Y-105255917D01*
X49660761Y-105295713D01*
X49687715Y-105348614D01*
X49808028Y-105514213D01*
X49952786Y-105658971D01*
X50099704Y-105765711D01*
X50118390Y-105779287D01*
X50234607Y-105838503D01*
X50300776Y-105872218D01*
X50300778Y-105872218D01*
X50300781Y-105872220D01*
X50405137Y-105906127D01*
X50495465Y-105935477D01*
X50596557Y-105951488D01*
X50697648Y-105967500D01*
X50697649Y-105967500D01*
X50902351Y-105967500D01*
X50902352Y-105967500D01*
X51104534Y-105935477D01*
X51299219Y-105872220D01*
X51481610Y-105779287D01*
X51594203Y-105697484D01*
X51647213Y-105658971D01*
X51647215Y-105658968D01*
X51647219Y-105658966D01*
X51791966Y-105514219D01*
X51791968Y-105514215D01*
X51791971Y-105514213D01*
X51912284Y-105348614D01*
X51912285Y-105348613D01*
X51912287Y-105348610D01*
X51959516Y-105255917D01*
X52007489Y-105205123D01*
X52075310Y-105188328D01*
X52141445Y-105210865D01*
X52180483Y-105255917D01*
X52200761Y-105295713D01*
X52227715Y-105348614D01*
X52348028Y-105514213D01*
X52492786Y-105658971D01*
X52639704Y-105765711D01*
X52658390Y-105779287D01*
X52774607Y-105838503D01*
X52840776Y-105872218D01*
X52840778Y-105872218D01*
X52840781Y-105872220D01*
X52945137Y-105906127D01*
X53035465Y-105935477D01*
X53136557Y-105951488D01*
X53237648Y-105967500D01*
X53237649Y-105967500D01*
X53442351Y-105967500D01*
X53442352Y-105967500D01*
X53644534Y-105935477D01*
X53839219Y-105872220D01*
X54021610Y-105779287D01*
X54134203Y-105697484D01*
X54187213Y-105658971D01*
X54187215Y-105658968D01*
X54187219Y-105658966D01*
X54331966Y-105514219D01*
X54331968Y-105514215D01*
X54331971Y-105514213D01*
X54452284Y-105348614D01*
X54452285Y-105348613D01*
X54452287Y-105348610D01*
X54499516Y-105255917D01*
X54547489Y-105205123D01*
X54615310Y-105188328D01*
X54681445Y-105210865D01*
X54720483Y-105255917D01*
X54740761Y-105295713D01*
X54767715Y-105348614D01*
X54888028Y-105514213D01*
X55032786Y-105658971D01*
X55179704Y-105765711D01*
X55198390Y-105779287D01*
X55314607Y-105838503D01*
X55380776Y-105872218D01*
X55380778Y-105872218D01*
X55380781Y-105872220D01*
X55485137Y-105906127D01*
X55575465Y-105935477D01*
X55676557Y-105951488D01*
X55777648Y-105967500D01*
X55777649Y-105967500D01*
X55982351Y-105967500D01*
X55982352Y-105967500D01*
X56184534Y-105935477D01*
X56379219Y-105872220D01*
X56561610Y-105779287D01*
X56674203Y-105697484D01*
X56727213Y-105658971D01*
X56727215Y-105658968D01*
X56727219Y-105658966D01*
X56871966Y-105514219D01*
X56871968Y-105514215D01*
X56871971Y-105514213D01*
X56955502Y-105399240D01*
X56992287Y-105348610D01*
X57085220Y-105166219D01*
X57148477Y-104971534D01*
X57180500Y-104769352D01*
X57180500Y-103764648D01*
X57150000Y-103572081D01*
X57148477Y-103562465D01*
X57085218Y-103367776D01*
X57015318Y-103230591D01*
X56992287Y-103185390D01*
X56933955Y-103105102D01*
X56871971Y-103019786D01*
X56727213Y-102875028D01*
X56561614Y-102754715D01*
X56535839Y-102741582D01*
X56502055Y-102724368D01*
X56451260Y-102676395D01*
X56434465Y-102608574D01*
X56457002Y-102542439D01*
X56502059Y-102503398D01*
X56502057Y-102503398D01*
X56509199Y-102499760D01*
X56662073Y-102388690D01*
X56795690Y-102255073D01*
X56906760Y-102102199D01*
X56992547Y-101933832D01*
X57050940Y-101754118D01*
X57059855Y-101697832D01*
X57080500Y-101567486D01*
X57080500Y-101378513D01*
X57050940Y-101191881D01*
X57009675Y-101064882D01*
X56992547Y-101012168D01*
X56992545Y-101012165D01*
X56992545Y-101012163D01*
X56906759Y-100843800D01*
X56895847Y-100828781D01*
X56795690Y-100690927D01*
X56662073Y-100557310D01*
X56509199Y-100446240D01*
X56477935Y-100430310D01*
X56340836Y-100360454D01*
X56161118Y-100302059D01*
X55974486Y-100272500D01*
X55974481Y-100272500D01*
X55792229Y-100272500D01*
X55725190Y-100252815D01*
X55704548Y-100236181D01*
X50733549Y-95265181D01*
X50700064Y-95203858D01*
X50705048Y-95134166D01*
X50746920Y-95078233D01*
X50812384Y-95053816D01*
X50821230Y-95053500D01*
X50894486Y-95053500D01*
X51081118Y-95023940D01*
X51132373Y-95007286D01*
X51260832Y-94965547D01*
X51429199Y-94879760D01*
X51455182Y-94860882D01*
X52685669Y-94860882D01*
X52685670Y-94860883D01*
X52711059Y-94879329D01*
X52879362Y-94965085D01*
X53058997Y-95023451D01*
X53245553Y-95053000D01*
X53434447Y-95053000D01*
X53621002Y-95023451D01*
X53800637Y-94965085D01*
X53968937Y-94879331D01*
X53994328Y-94860883D01*
X53994328Y-94860882D01*
X55225669Y-94860882D01*
X55225670Y-94860883D01*
X55251059Y-94879329D01*
X55419362Y-94965085D01*
X55598997Y-95023451D01*
X55785553Y-95053000D01*
X55974447Y-95053000D01*
X56161002Y-95023451D01*
X56340637Y-94965085D01*
X56508937Y-94879331D01*
X56534328Y-94860883D01*
X56534328Y-94860882D01*
X55880001Y-94206554D01*
X55880000Y-94206554D01*
X55225669Y-94860882D01*
X53994328Y-94860882D01*
X53340001Y-94206554D01*
X53340000Y-94206554D01*
X52685669Y-94860882D01*
X51455182Y-94860882D01*
X51582073Y-94768690D01*
X51715690Y-94635073D01*
X51826760Y-94482199D01*
X51912547Y-94313832D01*
X51952332Y-94191385D01*
X51991768Y-94133713D01*
X52056127Y-94106514D01*
X52124973Y-94118429D01*
X52176449Y-94165673D01*
X52188193Y-94191388D01*
X52227914Y-94313637D01*
X52313666Y-94481933D01*
X52332116Y-94507328D01*
X52990000Y-93849445D01*
X52990000Y-93899078D01*
X53013852Y-93988095D01*
X53059930Y-94067905D01*
X53125095Y-94133070D01*
X53204905Y-94179148D01*
X53293922Y-94203000D01*
X53386078Y-94203000D01*
X53475095Y-94179148D01*
X53554905Y-94133070D01*
X53620070Y-94067905D01*
X53666148Y-93988095D01*
X53690000Y-93899078D01*
X53690000Y-93852999D01*
X53693554Y-93852999D01*
X53693554Y-93853000D01*
X54347882Y-94507328D01*
X54347883Y-94507328D01*
X54366331Y-94481937D01*
X54452085Y-94313637D01*
X54492069Y-94190579D01*
X54531506Y-94132904D01*
X54595865Y-94105705D01*
X54664711Y-94117619D01*
X54716187Y-94164863D01*
X54727931Y-94190579D01*
X54767914Y-94313637D01*
X54853666Y-94481933D01*
X54872116Y-94507328D01*
X55526446Y-93853000D01*
X55526446Y-93852999D01*
X55480369Y-93806922D01*
X55530000Y-93806922D01*
X55530000Y-93899078D01*
X55553852Y-93988095D01*
X55599930Y-94067905D01*
X55665095Y-94133070D01*
X55744905Y-94179148D01*
X55833922Y-94203000D01*
X55926078Y-94203000D01*
X56015095Y-94179148D01*
X56094905Y-94133070D01*
X56160070Y-94067905D01*
X56206148Y-93988095D01*
X56230000Y-93899078D01*
X56230000Y-93852999D01*
X56233554Y-93852999D01*
X56233554Y-93853000D01*
X56887882Y-94507328D01*
X56887883Y-94507328D01*
X56906331Y-94481937D01*
X56992085Y-94313637D01*
X57050451Y-94134002D01*
X57080000Y-93947447D01*
X57080000Y-93758552D01*
X57050451Y-93571997D01*
X56992085Y-93392362D01*
X56906329Y-93224059D01*
X56887883Y-93198670D01*
X56887882Y-93198669D01*
X56233554Y-93852999D01*
X56230000Y-93852999D01*
X56230000Y-93806922D01*
X56206148Y-93717905D01*
X56160070Y-93638095D01*
X56094905Y-93572930D01*
X56015095Y-93526852D01*
X55926078Y-93503000D01*
X55833922Y-93503000D01*
X55744905Y-93526852D01*
X55665095Y-93572930D01*
X55599930Y-93638095D01*
X55553852Y-93717905D01*
X55530000Y-93806922D01*
X55480369Y-93806922D01*
X54872116Y-93198669D01*
X54872116Y-93198670D01*
X54853669Y-93224060D01*
X54767914Y-93392362D01*
X54727931Y-93515420D01*
X54688494Y-93573095D01*
X54624135Y-93600294D01*
X54555289Y-93588380D01*
X54503813Y-93541136D01*
X54492069Y-93515420D01*
X54452085Y-93392362D01*
X54366329Y-93224059D01*
X54347883Y-93198670D01*
X54347882Y-93198669D01*
X53693554Y-93852999D01*
X53690000Y-93852999D01*
X53690000Y-93806922D01*
X53666148Y-93717905D01*
X53620070Y-93638095D01*
X53554905Y-93572930D01*
X53475095Y-93526852D01*
X53386078Y-93503000D01*
X53336446Y-93503000D01*
X53994328Y-92845116D01*
X55225669Y-92845116D01*
X55880000Y-93499446D01*
X55880001Y-93499446D01*
X56534328Y-92845116D01*
X56508933Y-92826666D01*
X56340637Y-92740914D01*
X56161002Y-92682548D01*
X55974447Y-92653000D01*
X55785553Y-92653000D01*
X55598997Y-92682548D01*
X55419362Y-92740914D01*
X55251060Y-92826669D01*
X55225670Y-92845116D01*
X55225669Y-92845116D01*
X53994328Y-92845116D01*
X53968933Y-92826666D01*
X53800637Y-92740914D01*
X53621002Y-92682548D01*
X53434447Y-92653000D01*
X53360728Y-92653000D01*
X53293689Y-92633315D01*
X53247934Y-92580511D01*
X53237990Y-92511353D01*
X53267015Y-92447797D01*
X53273047Y-92441319D01*
X53859106Y-91855261D01*
X55700951Y-90013416D01*
X55783084Y-89890495D01*
X55839658Y-89753913D01*
X55855801Y-89672759D01*
X55868500Y-89608920D01*
X55868500Y-88819585D01*
X55888185Y-88752546D01*
X55904819Y-88731904D01*
X55906371Y-88730352D01*
X56003147Y-88633576D01*
X56096122Y-88485606D01*
X56153841Y-88320657D01*
X56168500Y-88190552D01*
X56168500Y-86853448D01*
X56153841Y-86723343D01*
X56096122Y-86558394D01*
X56003147Y-86410424D01*
X55879576Y-86286853D01*
X55731606Y-86193878D01*
X55731605Y-86193877D01*
X55731604Y-86193877D01*
X55566658Y-86136159D01*
X55566648Y-86136157D01*
X55436558Y-86121500D01*
X55436552Y-86121500D01*
X55022500Y-86121500D01*
X54955461Y-86101815D01*
X54909706Y-86049011D01*
X54898500Y-85997500D01*
X54898500Y-84783445D01*
X54898499Y-84783441D01*
X54898440Y-84782920D01*
X54883841Y-84653343D01*
X54826122Y-84488394D01*
X54733147Y-84340424D01*
X54609576Y-84216853D01*
X54461606Y-84123878D01*
X54461605Y-84123877D01*
X54461604Y-84123877D01*
X54296658Y-84066159D01*
X54296648Y-84066157D01*
X54166558Y-84051500D01*
X54166552Y-84051500D01*
X53602929Y-84051500D01*
X53535890Y-84031815D01*
X53490135Y-83979011D01*
X53480191Y-83909853D01*
X53509216Y-83846297D01*
X53515248Y-83839819D01*
X54608567Y-82746500D01*
X56716952Y-80638116D01*
X56766186Y-80564429D01*
X56799084Y-80515195D01*
X56855658Y-80378613D01*
X56884500Y-80233618D01*
X56884500Y-80232499D01*
X56884666Y-80231933D01*
X56885097Y-80227558D01*
X56885926Y-80227639D01*
X56904185Y-80165460D01*
X56956989Y-80119705D01*
X57008500Y-80108499D01*
X57031871Y-80108499D01*
X57031872Y-80108499D01*
X57091483Y-80102091D01*
X57226331Y-80051796D01*
X57341546Y-79965546D01*
X57427796Y-79850331D01*
X57476810Y-79718916D01*
X57518681Y-79662984D01*
X57584145Y-79638566D01*
X57652418Y-79653417D01*
X57680673Y-79674569D01*
X57794208Y-79788104D01*
X57872384Y-79844902D01*
X57915051Y-79900231D01*
X57923500Y-79945220D01*
X57923500Y-112870618D01*
X57923500Y-112870620D01*
X57923499Y-112870620D01*
X57952340Y-113015607D01*
X57952342Y-113015613D01*
X58008913Y-113152189D01*
X58008917Y-113152196D01*
X58011688Y-113156343D01*
X58011687Y-113156343D01*
X58091046Y-113275114D01*
X58091052Y-113275121D01*
X60917781Y-116101848D01*
X60951266Y-116163171D01*
X60954100Y-116189529D01*
X60954100Y-119359091D01*
X60934415Y-119426130D01*
X60917781Y-119446772D01*
X60097920Y-120266632D01*
X60018695Y-120157587D01*
X59853413Y-119992305D01*
X59744366Y-119913078D01*
X60630143Y-119027302D01*
X60466811Y-118897051D01*
X60207416Y-118734062D01*
X59931429Y-118601154D01*
X59931407Y-118601145D01*
X59642270Y-118499971D01*
X59642258Y-118499967D01*
X59343596Y-118431800D01*
X59343580Y-118431798D01*
X59039177Y-118397500D01*
X58732822Y-118397500D01*
X58428419Y-118431798D01*
X58428403Y-118431800D01*
X58129741Y-118499967D01*
X58129729Y-118499971D01*
X57840592Y-118601145D01*
X57840570Y-118601154D01*
X57564583Y-118734062D01*
X57305184Y-118897053D01*
X57305180Y-118897056D01*
X57141855Y-119027302D01*
X58027632Y-119913079D01*
X57918587Y-119992305D01*
X57753305Y-120157587D01*
X57674079Y-120266632D01*
X56788302Y-119380855D01*
X56658056Y-119544180D01*
X56658053Y-119544184D01*
X56495062Y-119803583D01*
X56362154Y-120079570D01*
X56362145Y-120079592D01*
X56260971Y-120368729D01*
X56260967Y-120368741D01*
X56192800Y-120667403D01*
X56192798Y-120667419D01*
X56158500Y-120971822D01*
X56158500Y-121278177D01*
X56192798Y-121582580D01*
X56192800Y-121582596D01*
X56260967Y-121881258D01*
X56260971Y-121881270D01*
X56362145Y-122170407D01*
X56362154Y-122170429D01*
X56495062Y-122446416D01*
X56658051Y-122705811D01*
X56788302Y-122869143D01*
X57674078Y-121983366D01*
X57753305Y-122092413D01*
X57918587Y-122257695D01*
X58027631Y-122336920D01*
X57141855Y-123222696D01*
X57305188Y-123352948D01*
X57564583Y-123515937D01*
X57840570Y-123648845D01*
X57840592Y-123648854D01*
X58129729Y-123750028D01*
X58129741Y-123750032D01*
X58428403Y-123818199D01*
X58428419Y-123818201D01*
X58732822Y-123852499D01*
X58732824Y-123852500D01*
X59039176Y-123852500D01*
X59039177Y-123852499D01*
X59343580Y-123818201D01*
X59343596Y-123818199D01*
X59642258Y-123750032D01*
X59642270Y-123750028D01*
X59931407Y-123648854D01*
X59931429Y-123648845D01*
X60207416Y-123515937D01*
X60466811Y-123352948D01*
X60630143Y-123222696D01*
X59744367Y-122336920D01*
X59853413Y-122257695D01*
X60018695Y-122092413D01*
X60097920Y-121983367D01*
X60917781Y-122803227D01*
X60951266Y-122864550D01*
X60954100Y-122890908D01*
X60954100Y-126600500D01*
X60934415Y-126667539D01*
X60881611Y-126713294D01*
X60830100Y-126724500D01*
X60675778Y-126724500D01*
X60617900Y-126733667D01*
X60458047Y-126758985D01*
X60248396Y-126827103D01*
X60248393Y-126827104D01*
X60051974Y-126927187D01*
X59873641Y-127056752D01*
X59873636Y-127056756D01*
X59717756Y-127212636D01*
X59717752Y-127212641D01*
X59588187Y-127390974D01*
X59488104Y-127587393D01*
X59488103Y-127587396D01*
X59419985Y-127797047D01*
X59385500Y-128014778D01*
X59385500Y-128235221D01*
X59419985Y-128452952D01*
X59488103Y-128662603D01*
X59488104Y-128662606D01*
X59588187Y-128859025D01*
X59717752Y-129037358D01*
X59717756Y-129037363D01*
X59873636Y-129193243D01*
X59873641Y-129193247D01*
X59987632Y-129276065D01*
X60051978Y-129322815D01*
X60180375Y-129388237D01*
X60248393Y-129422895D01*
X60248396Y-129422896D01*
X60353221Y-129456955D01*
X60458049Y-129491015D01*
X60675778Y-129525500D01*
X60675779Y-129525500D01*
X60896221Y-129525500D01*
X60896222Y-129525500D01*
X61113951Y-129491015D01*
X61323606Y-129422895D01*
X61520022Y-129322815D01*
X61698365Y-129193242D01*
X61854242Y-129037365D01*
X61935682Y-128925270D01*
X61991011Y-128882606D01*
X62060624Y-128876627D01*
X62122420Y-128909232D01*
X62136313Y-128925265D01*
X62146469Y-128939243D01*
X62217758Y-129037365D01*
X62373636Y-129193243D01*
X62373641Y-129193247D01*
X62487632Y-129276065D01*
X62551978Y-129322815D01*
X62680375Y-129388237D01*
X62748393Y-129422895D01*
X62748396Y-129422896D01*
X62853221Y-129456955D01*
X62958049Y-129491015D01*
X63175778Y-129525500D01*
X63175779Y-129525500D01*
X63396221Y-129525500D01*
X63396222Y-129525500D01*
X63613951Y-129491015D01*
X63823606Y-129422895D01*
X64020022Y-129322815D01*
X64198365Y-129193242D01*
X64354242Y-129037365D01*
X64435991Y-128924845D01*
X64491320Y-128882180D01*
X64560933Y-128876201D01*
X64622728Y-128908806D01*
X64634582Y-128922485D01*
X64634932Y-128922513D01*
X65221387Y-128336058D01*
X65226889Y-128356591D01*
X65305881Y-128493408D01*
X65417592Y-128605119D01*
X65554409Y-128684111D01*
X65574939Y-128689612D01*
X64988485Y-129276065D01*
X64988485Y-129276066D01*
X65052243Y-129322388D01*
X65248589Y-129422432D01*
X65458164Y-129490526D01*
X65675819Y-129525000D01*
X65896181Y-129525000D01*
X66113835Y-129490526D01*
X66323410Y-129422432D01*
X66519760Y-129322386D01*
X66583513Y-129276066D01*
X66583514Y-129276066D01*
X65997059Y-128689612D01*
X66017591Y-128684111D01*
X66154408Y-128605119D01*
X66266119Y-128493408D01*
X66345111Y-128356591D01*
X66350612Y-128336060D01*
X66937066Y-128922514D01*
X66937066Y-128922513D01*
X66983386Y-128858760D01*
X67083432Y-128662410D01*
X67151526Y-128452835D01*
X67186000Y-128235181D01*
X67186000Y-128134882D01*
X85451669Y-128134882D01*
X85451670Y-128134883D01*
X85477059Y-128153329D01*
X85645362Y-128239085D01*
X85824997Y-128297451D01*
X86011553Y-128327000D01*
X86200447Y-128327000D01*
X86387002Y-128297451D01*
X86566637Y-128239085D01*
X86734937Y-128153331D01*
X86760328Y-128134883D01*
X86760328Y-128134882D01*
X86106001Y-127480554D01*
X86106000Y-127480554D01*
X85451669Y-128134882D01*
X67186000Y-128134882D01*
X67186000Y-128014818D01*
X67151526Y-127797164D01*
X67083432Y-127587589D01*
X66983388Y-127391243D01*
X66937066Y-127327485D01*
X66937065Y-127327485D01*
X66350612Y-127913939D01*
X66345111Y-127893409D01*
X66266119Y-127756592D01*
X66154408Y-127644881D01*
X66017591Y-127565889D01*
X65997057Y-127560387D01*
X66524893Y-127032552D01*
X84906000Y-127032552D01*
X84906000Y-127221447D01*
X84935548Y-127408002D01*
X84993914Y-127587637D01*
X85079666Y-127755933D01*
X85098116Y-127781328D01*
X85752446Y-127127000D01*
X85752446Y-127126999D01*
X85706369Y-127080922D01*
X85756000Y-127080922D01*
X85756000Y-127173078D01*
X85779852Y-127262095D01*
X85825930Y-127341905D01*
X85891095Y-127407070D01*
X85970905Y-127453148D01*
X86059922Y-127477000D01*
X86152078Y-127477000D01*
X86241095Y-127453148D01*
X86320905Y-127407070D01*
X86386070Y-127341905D01*
X86432148Y-127262095D01*
X86456000Y-127173078D01*
X86456000Y-127126999D01*
X86459554Y-127126999D01*
X86459554Y-127127000D01*
X87113882Y-127781328D01*
X87113883Y-127781328D01*
X87132331Y-127755937D01*
X87218085Y-127587637D01*
X87276451Y-127408002D01*
X87306000Y-127221447D01*
X87306000Y-127032552D01*
X87305994Y-127032513D01*
X92525500Y-127032513D01*
X92525500Y-127221486D01*
X92555059Y-127408118D01*
X92613454Y-127587836D01*
X92670407Y-127699611D01*
X92699240Y-127756199D01*
X92810310Y-127909073D01*
X92943927Y-128042690D01*
X93096801Y-128153760D01*
X93176347Y-128194290D01*
X93265163Y-128239545D01*
X93265165Y-128239545D01*
X93265168Y-128239547D01*
X93361497Y-128270846D01*
X93444881Y-128297940D01*
X93631514Y-128327500D01*
X93631519Y-128327500D01*
X93820486Y-128327500D01*
X94007118Y-128297940D01*
X94008623Y-128297451D01*
X94186832Y-128239547D01*
X94355199Y-128153760D01*
X94508073Y-128042690D01*
X94641690Y-127909073D01*
X94749433Y-127760778D01*
X100787500Y-127760778D01*
X100787500Y-127981221D01*
X100821985Y-128198952D01*
X100890103Y-128408603D01*
X100890104Y-128408606D01*
X100990187Y-128605025D01*
X101119752Y-128783358D01*
X101119756Y-128783363D01*
X101275636Y-128939243D01*
X101275641Y-128939247D01*
X101431192Y-129052260D01*
X101453978Y-129068815D01*
X101582375Y-129134237D01*
X101650393Y-129168895D01*
X101650396Y-129168896D01*
X101725343Y-129193247D01*
X101860049Y-129237015D01*
X102077778Y-129271500D01*
X102077779Y-129271500D01*
X102298221Y-129271500D01*
X102298222Y-129271500D01*
X102515951Y-129237015D01*
X102725606Y-129168895D01*
X102922022Y-129068815D01*
X103100365Y-128939242D01*
X103256242Y-128783365D01*
X103337682Y-128671270D01*
X103393011Y-128628606D01*
X103462624Y-128622627D01*
X103524420Y-128655232D01*
X103538313Y-128671265D01*
X103577354Y-128725000D01*
X103619758Y-128783365D01*
X103775636Y-128939243D01*
X103775641Y-128939247D01*
X103931192Y-129052260D01*
X103953978Y-129068815D01*
X104082375Y-129134237D01*
X104150393Y-129168895D01*
X104150396Y-129168896D01*
X104225343Y-129193247D01*
X104360049Y-129237015D01*
X104577778Y-129271500D01*
X104577779Y-129271500D01*
X104798221Y-129271500D01*
X104798222Y-129271500D01*
X105015951Y-129237015D01*
X105225606Y-129168895D01*
X105422022Y-129068815D01*
X105600365Y-128939242D01*
X105756242Y-128783365D01*
X105837991Y-128670845D01*
X105893320Y-128628180D01*
X105962933Y-128622201D01*
X106024728Y-128654806D01*
X106036582Y-128668485D01*
X106036932Y-128668513D01*
X106623387Y-128082058D01*
X106628889Y-128102591D01*
X106707881Y-128239408D01*
X106819592Y-128351119D01*
X106956409Y-128430111D01*
X106976939Y-128435612D01*
X106390485Y-129022065D01*
X106390485Y-129022066D01*
X106454243Y-129068388D01*
X106650589Y-129168432D01*
X106860164Y-129236526D01*
X107077819Y-129271000D01*
X107298181Y-129271000D01*
X107515835Y-129236526D01*
X107725410Y-129168432D01*
X107921760Y-129068386D01*
X107985513Y-129022066D01*
X107985514Y-129022066D01*
X107399059Y-128435612D01*
X107419591Y-128430111D01*
X107556408Y-128351119D01*
X107668119Y-128239408D01*
X107747111Y-128102591D01*
X107752612Y-128082060D01*
X108339066Y-128668514D01*
X108339066Y-128668513D01*
X108385386Y-128604760D01*
X108485432Y-128408410D01*
X108553526Y-128198835D01*
X108588000Y-127981181D01*
X108588000Y-127760818D01*
X108553526Y-127543164D01*
X108485432Y-127333589D01*
X108385388Y-127137243D01*
X108339066Y-127073485D01*
X108339065Y-127073485D01*
X107752612Y-127659939D01*
X107747111Y-127639409D01*
X107668119Y-127502592D01*
X107556408Y-127390881D01*
X107419591Y-127311889D01*
X107399057Y-127306387D01*
X107985513Y-126719932D01*
X107921756Y-126673611D01*
X107725410Y-126573567D01*
X107515835Y-126505473D01*
X107298181Y-126471000D01*
X107077819Y-126471000D01*
X106860164Y-126505473D01*
X106650589Y-126573567D01*
X106454233Y-126673616D01*
X106390485Y-126719931D01*
X106390485Y-126719932D01*
X106976940Y-127306387D01*
X106956409Y-127311889D01*
X106819592Y-127390881D01*
X106707881Y-127502592D01*
X106628889Y-127639409D01*
X106623387Y-127659940D01*
X106036932Y-127073485D01*
X106035448Y-127073602D01*
X105983296Y-127113817D01*
X105913682Y-127119796D01*
X105851887Y-127087190D01*
X105837990Y-127071151D01*
X105756247Y-126958641D01*
X105756243Y-126958636D01*
X105656871Y-126859264D01*
X105600365Y-126802758D01*
X105486765Y-126720222D01*
X105484025Y-126717983D01*
X105466217Y-126691951D01*
X105446949Y-126666963D01*
X105446126Y-126662580D01*
X105444576Y-126660315D01*
X105444372Y-126653245D01*
X105438500Y-126621975D01*
X105438500Y-120717822D01*
X106360500Y-120717822D01*
X106360500Y-121024177D01*
X106394798Y-121328580D01*
X106394800Y-121328596D01*
X106462967Y-121627258D01*
X106462971Y-121627270D01*
X106564145Y-121916407D01*
X106564154Y-121916429D01*
X106697062Y-122192416D01*
X106860051Y-122451811D01*
X106990302Y-122615143D01*
X107876078Y-121729366D01*
X107955305Y-121838413D01*
X108120587Y-122003695D01*
X108229631Y-122082920D01*
X107343855Y-122968696D01*
X107507188Y-123098948D01*
X107766583Y-123261937D01*
X108042570Y-123394845D01*
X108042592Y-123394854D01*
X108331729Y-123496028D01*
X108331741Y-123496032D01*
X108630403Y-123564199D01*
X108630419Y-123564201D01*
X108934822Y-123598499D01*
X108934824Y-123598500D01*
X109241176Y-123598500D01*
X109241177Y-123598499D01*
X109545580Y-123564201D01*
X109545596Y-123564199D01*
X109844258Y-123496032D01*
X109844270Y-123496028D01*
X110133407Y-123394854D01*
X110133429Y-123394845D01*
X110409416Y-123261937D01*
X110668811Y-123098948D01*
X110832143Y-122968696D01*
X109946367Y-122082920D01*
X110055413Y-122003695D01*
X110220695Y-121838413D01*
X110299920Y-121729367D01*
X111185696Y-122615143D01*
X111315948Y-122451811D01*
X111478937Y-122192416D01*
X111611845Y-121916429D01*
X111611854Y-121916407D01*
X111713028Y-121627270D01*
X111713032Y-121627258D01*
X111781199Y-121328596D01*
X111781201Y-121328580D01*
X111815499Y-121024177D01*
X111815500Y-121024175D01*
X111815500Y-120717824D01*
X111815499Y-120717822D01*
X111781201Y-120413419D01*
X111781199Y-120413403D01*
X111713032Y-120114741D01*
X111713028Y-120114729D01*
X111611854Y-119825592D01*
X111611845Y-119825570D01*
X111478937Y-119549583D01*
X111315948Y-119290188D01*
X111185696Y-119126855D01*
X110299920Y-120012631D01*
X110220695Y-119903587D01*
X110055413Y-119738305D01*
X109946366Y-119659078D01*
X110832143Y-118773302D01*
X110668811Y-118643051D01*
X110409416Y-118480062D01*
X110133429Y-118347154D01*
X110133407Y-118347145D01*
X109844270Y-118245971D01*
X109844258Y-118245967D01*
X109545596Y-118177800D01*
X109545580Y-118177798D01*
X109241177Y-118143500D01*
X108934822Y-118143500D01*
X108630419Y-118177798D01*
X108630403Y-118177800D01*
X108331741Y-118245967D01*
X108331729Y-118245971D01*
X108042592Y-118347145D01*
X108042570Y-118347154D01*
X107766583Y-118480062D01*
X107507184Y-118643053D01*
X107507180Y-118643056D01*
X107343855Y-118773302D01*
X108229632Y-119659079D01*
X108120587Y-119738305D01*
X107955305Y-119903587D01*
X107876079Y-120012632D01*
X106990302Y-119126855D01*
X106860056Y-119290180D01*
X106860053Y-119290184D01*
X106697062Y-119549583D01*
X106564154Y-119825570D01*
X106564145Y-119825592D01*
X106462971Y-120114729D01*
X106462967Y-120114741D01*
X106394800Y-120413403D01*
X106394798Y-120413419D01*
X106360500Y-120717822D01*
X105438500Y-120717822D01*
X105438500Y-117162228D01*
X105458185Y-117095189D01*
X105474814Y-117074552D01*
X113380803Y-109168562D01*
X113442124Y-109135079D01*
X113511816Y-109140063D01*
X113567749Y-109181935D01*
X113590955Y-109236847D01*
X113618242Y-109409127D01*
X113618242Y-109409130D01*
X113683904Y-109611217D01*
X113780375Y-109800550D01*
X113819728Y-109854716D01*
X114452037Y-109222408D01*
X114469075Y-109285993D01*
X114534901Y-109400007D01*
X114627993Y-109493099D01*
X114742007Y-109558925D01*
X114805590Y-109575962D01*
X114173282Y-110208269D01*
X114173282Y-110208270D01*
X114227449Y-110247624D01*
X114416782Y-110344095D01*
X114618870Y-110409757D01*
X114828754Y-110443000D01*
X115041246Y-110443000D01*
X115251127Y-110409757D01*
X115251130Y-110409757D01*
X115453217Y-110344095D01*
X115642554Y-110247622D01*
X115696716Y-110208270D01*
X115696717Y-110208270D01*
X115064408Y-109575962D01*
X115127993Y-109558925D01*
X115242007Y-109493099D01*
X115335099Y-109400007D01*
X115400925Y-109285993D01*
X115417962Y-109222409D01*
X116050270Y-109854717D01*
X116050270Y-109854716D01*
X116089622Y-109800554D01*
X116186095Y-109611217D01*
X116251757Y-109409130D01*
X116251757Y-109409127D01*
X116285000Y-109199246D01*
X116285000Y-108986753D01*
X116251757Y-108776872D01*
X116251757Y-108776869D01*
X116186095Y-108574782D01*
X116089624Y-108385449D01*
X116050270Y-108331282D01*
X116050269Y-108331282D01*
X115417962Y-108963590D01*
X115400925Y-108900007D01*
X115335099Y-108785993D01*
X115242007Y-108692901D01*
X115127993Y-108627075D01*
X115064408Y-108610037D01*
X115734627Y-107939818D01*
X115795950Y-107906333D01*
X115822308Y-107903499D01*
X115832871Y-107903499D01*
X115832872Y-107903499D01*
X115892483Y-107897091D01*
X116027331Y-107846796D01*
X116142546Y-107760546D01*
X116228796Y-107645331D01*
X116279091Y-107510483D01*
X116285500Y-107450873D01*
X116285499Y-105655128D01*
X116279091Y-105595517D01*
X116266137Y-105560786D01*
X116228797Y-105460671D01*
X116228793Y-105460664D01*
X116142547Y-105345455D01*
X116142544Y-105345452D01*
X116027335Y-105259206D01*
X116027328Y-105259202D01*
X115892482Y-105208908D01*
X115892483Y-105208908D01*
X115832883Y-105202501D01*
X115832881Y-105202500D01*
X115832873Y-105202500D01*
X115832864Y-105202500D01*
X114037129Y-105202500D01*
X114037123Y-105202501D01*
X113977516Y-105208908D01*
X113842671Y-105259202D01*
X113842664Y-105259206D01*
X113727455Y-105345452D01*
X113727452Y-105345455D01*
X113641206Y-105460664D01*
X113641202Y-105460671D01*
X113590908Y-105595517D01*
X113587334Y-105628766D01*
X113584501Y-105655123D01*
X113584500Y-105655135D01*
X113584500Y-106790770D01*
X113564815Y-106857809D01*
X113548181Y-106878451D01*
X104105048Y-116321583D01*
X104082814Y-116354860D01*
X104060727Y-116387917D01*
X104046987Y-116408481D01*
X104022916Y-116444504D01*
X104022912Y-116444511D01*
X103966343Y-116581082D01*
X103966340Y-116581092D01*
X103937500Y-116726079D01*
X103937500Y-126621975D01*
X103917815Y-126689014D01*
X103886387Y-126722291D01*
X103814947Y-126774196D01*
X103775632Y-126802760D01*
X103619756Y-126958636D01*
X103619752Y-126958641D01*
X103538318Y-127070727D01*
X103482989Y-127113393D01*
X103413375Y-127119372D01*
X103351580Y-127086767D01*
X103337682Y-127070727D01*
X103256247Y-126958641D01*
X103256243Y-126958636D01*
X103100363Y-126802756D01*
X103100358Y-126802752D01*
X102922025Y-126673187D01*
X102922024Y-126673186D01*
X102922022Y-126673185D01*
X102821518Y-126621975D01*
X102725606Y-126573104D01*
X102725603Y-126573103D01*
X102515952Y-126504985D01*
X102407086Y-126487742D01*
X102298222Y-126470500D01*
X102077778Y-126470500D01*
X102005201Y-126481995D01*
X101860047Y-126504985D01*
X101650396Y-126573103D01*
X101650393Y-126573104D01*
X101453974Y-126673187D01*
X101275641Y-126802752D01*
X101275636Y-126802756D01*
X101119756Y-126958636D01*
X101119752Y-126958641D01*
X100990187Y-127136974D01*
X100890104Y-127333393D01*
X100890103Y-127333396D01*
X100821985Y-127543047D01*
X100787500Y-127760778D01*
X94749433Y-127760778D01*
X94752760Y-127756199D01*
X94838547Y-127587832D01*
X94896940Y-127408118D01*
X94908775Y-127333393D01*
X94926500Y-127221486D01*
X94926500Y-127032513D01*
X94896940Y-126845881D01*
X94845970Y-126689014D01*
X94838547Y-126666168D01*
X94838545Y-126666165D01*
X94838545Y-126666163D01*
X94756420Y-126504985D01*
X94752760Y-126497801D01*
X94641690Y-126344927D01*
X94508073Y-126211310D01*
X94355199Y-126100240D01*
X94186836Y-126014454D01*
X94007118Y-125956059D01*
X93820486Y-125926500D01*
X93820481Y-125926500D01*
X93631519Y-125926500D01*
X93631514Y-125926500D01*
X93444881Y-125956059D01*
X93265163Y-126014454D01*
X93096800Y-126100240D01*
X93009579Y-126163610D01*
X92943927Y-126211310D01*
X92943925Y-126211312D01*
X92943924Y-126211312D01*
X92810312Y-126344924D01*
X92810312Y-126344925D01*
X92810310Y-126344927D01*
X92762610Y-126410579D01*
X92699240Y-126497800D01*
X92613454Y-126666163D01*
X92555059Y-126845881D01*
X92525500Y-127032513D01*
X87305994Y-127032513D01*
X87276451Y-126845997D01*
X87218085Y-126666362D01*
X87132329Y-126498059D01*
X87113883Y-126472670D01*
X87113882Y-126472669D01*
X86459554Y-127126999D01*
X86456000Y-127126999D01*
X86456000Y-127080922D01*
X86432148Y-126991905D01*
X86386070Y-126912095D01*
X86320905Y-126846930D01*
X86241095Y-126800852D01*
X86152078Y-126777000D01*
X86059922Y-126777000D01*
X85970905Y-126800852D01*
X85891095Y-126846930D01*
X85825930Y-126912095D01*
X85779852Y-126991905D01*
X85756000Y-127080922D01*
X85706369Y-127080922D01*
X85098116Y-126472669D01*
X85098116Y-126472670D01*
X85079669Y-126498060D01*
X84993914Y-126666362D01*
X84935548Y-126845997D01*
X84906000Y-127032552D01*
X66524893Y-127032552D01*
X66583513Y-126973932D01*
X66519756Y-126927611D01*
X66323410Y-126827567D01*
X66113835Y-126759473D01*
X65896181Y-126725000D01*
X65675819Y-126725000D01*
X65458164Y-126759473D01*
X65248589Y-126827567D01*
X65052233Y-126927616D01*
X64988485Y-126973931D01*
X64988485Y-126973932D01*
X65574940Y-127560387D01*
X65554409Y-127565889D01*
X65417592Y-127644881D01*
X65305881Y-127756592D01*
X65226889Y-127893409D01*
X65221387Y-127913940D01*
X64634932Y-127327485D01*
X64633448Y-127327602D01*
X64581296Y-127367817D01*
X64511682Y-127373796D01*
X64449887Y-127341190D01*
X64435990Y-127325151D01*
X64354247Y-127212641D01*
X64354243Y-127212636D01*
X64198363Y-127056756D01*
X64198358Y-127056752D01*
X64020025Y-126927187D01*
X64020024Y-126927186D01*
X64020022Y-126927185D01*
X63910345Y-126871301D01*
X63823606Y-126827104D01*
X63823603Y-126827103D01*
X63613952Y-126758985D01*
X63454100Y-126733667D01*
X63396222Y-126724500D01*
X63175778Y-126724500D01*
X63117900Y-126733667D01*
X62958047Y-126758985D01*
X62748396Y-126827103D01*
X62748393Y-126827104D01*
X62635395Y-126884681D01*
X62566726Y-126897577D01*
X62501985Y-126871301D01*
X62461728Y-126814194D01*
X62455100Y-126774196D01*
X62455100Y-126119116D01*
X85451669Y-126119116D01*
X86106000Y-126773446D01*
X86106001Y-126773446D01*
X86760328Y-126119116D01*
X86734933Y-126100666D01*
X86566637Y-126014914D01*
X86387002Y-125956548D01*
X86200447Y-125927000D01*
X86011553Y-125927000D01*
X85824997Y-125956548D01*
X85645362Y-126014914D01*
X85477060Y-126100669D01*
X85451670Y-126119116D01*
X85451669Y-126119116D01*
X62455100Y-126119116D01*
X62455100Y-120971822D01*
X64958500Y-120971822D01*
X64958500Y-121278177D01*
X64992798Y-121582580D01*
X64992800Y-121582596D01*
X65060967Y-121881258D01*
X65060971Y-121881270D01*
X65162145Y-122170407D01*
X65162154Y-122170429D01*
X65295062Y-122446416D01*
X65458051Y-122705811D01*
X65588302Y-122869143D01*
X66474078Y-121983366D01*
X66553305Y-122092413D01*
X66718587Y-122257695D01*
X66827631Y-122336920D01*
X65941855Y-123222696D01*
X66105188Y-123352948D01*
X66364583Y-123515937D01*
X66640570Y-123648845D01*
X66640592Y-123648854D01*
X66929729Y-123750028D01*
X66929741Y-123750032D01*
X67228403Y-123818199D01*
X67228419Y-123818201D01*
X67532822Y-123852499D01*
X67532824Y-123852500D01*
X67839176Y-123852500D01*
X67839177Y-123852499D01*
X68143580Y-123818201D01*
X68143596Y-123818199D01*
X68442258Y-123750032D01*
X68442270Y-123750028D01*
X68731407Y-123648854D01*
X68731429Y-123648845D01*
X69007416Y-123515937D01*
X69266811Y-123352948D01*
X69430143Y-123222696D01*
X68544367Y-122336920D01*
X68653413Y-122257695D01*
X68818695Y-122092413D01*
X68897920Y-121983367D01*
X69783696Y-122869143D01*
X69913948Y-122705811D01*
X70076935Y-122446419D01*
X70098383Y-122401882D01*
X75037669Y-122401882D01*
X75037670Y-122401883D01*
X75063059Y-122420329D01*
X75231362Y-122506085D01*
X75410997Y-122564451D01*
X75597553Y-122594000D01*
X75786447Y-122594000D01*
X75973002Y-122564451D01*
X76152637Y-122506085D01*
X76320937Y-122420331D01*
X76346328Y-122401883D01*
X76346328Y-122401882D01*
X75692001Y-121747554D01*
X75692000Y-121747554D01*
X75037669Y-122401882D01*
X70098383Y-122401882D01*
X70147052Y-122300821D01*
X70147053Y-122300819D01*
X70209845Y-122170429D01*
X70209854Y-122170407D01*
X70311028Y-121881270D01*
X70311032Y-121881258D01*
X70379199Y-121582596D01*
X70379201Y-121582580D01*
X70411091Y-121299552D01*
X74492000Y-121299552D01*
X74492000Y-121488447D01*
X74521548Y-121675002D01*
X74579914Y-121854637D01*
X74665666Y-122022933D01*
X74684116Y-122048328D01*
X75338446Y-121394000D01*
X75338446Y-121393999D01*
X75292369Y-121347922D01*
X75342000Y-121347922D01*
X75342000Y-121440078D01*
X75365852Y-121529095D01*
X75411930Y-121608905D01*
X75477095Y-121674070D01*
X75556905Y-121720148D01*
X75645922Y-121744000D01*
X75738078Y-121744000D01*
X75827095Y-121720148D01*
X75906905Y-121674070D01*
X75972070Y-121608905D01*
X76018148Y-121529095D01*
X76042000Y-121440078D01*
X76042000Y-121393999D01*
X76045554Y-121393999D01*
X76045554Y-121394000D01*
X76699882Y-122048328D01*
X76699883Y-122048328D01*
X76718331Y-122022937D01*
X76804085Y-121854637D01*
X76862451Y-121675002D01*
X76892000Y-121488447D01*
X76892000Y-121299552D01*
X76862451Y-121112997D01*
X76804085Y-120933362D01*
X76718329Y-120765059D01*
X76699883Y-120739670D01*
X76699882Y-120739669D01*
X76045554Y-121393999D01*
X76042000Y-121393999D01*
X76042000Y-121347922D01*
X76018148Y-121258905D01*
X75972070Y-121179095D01*
X75906905Y-121113930D01*
X75827095Y-121067852D01*
X75738078Y-121044000D01*
X75645922Y-121044000D01*
X75556905Y-121067852D01*
X75477095Y-121113930D01*
X75411930Y-121179095D01*
X75365852Y-121258905D01*
X75342000Y-121347922D01*
X75292369Y-121347922D01*
X74684116Y-120739669D01*
X74684116Y-120739670D01*
X74665669Y-120765060D01*
X74579914Y-120933362D01*
X74521548Y-121112997D01*
X74492000Y-121299552D01*
X70411091Y-121299552D01*
X70413204Y-121280802D01*
X70413204Y-121280799D01*
X70413500Y-121278172D01*
X70413500Y-120971824D01*
X70413499Y-120971822D01*
X70379201Y-120667419D01*
X70379199Y-120667403D01*
X70311032Y-120368741D01*
X70311028Y-120368729D01*
X70209854Y-120079592D01*
X70209845Y-120079570D01*
X70076937Y-119803583D01*
X69913948Y-119544188D01*
X69783696Y-119380855D01*
X68897920Y-120266631D01*
X68818695Y-120157587D01*
X68653413Y-119992305D01*
X68544366Y-119913078D01*
X69430143Y-119027302D01*
X69266811Y-118897051D01*
X69007416Y-118734062D01*
X68731429Y-118601154D01*
X68731407Y-118601145D01*
X68442270Y-118499971D01*
X68442258Y-118499967D01*
X68143596Y-118431800D01*
X68143580Y-118431798D01*
X67839177Y-118397500D01*
X67532822Y-118397500D01*
X67228419Y-118431798D01*
X67228403Y-118431800D01*
X66929741Y-118499967D01*
X66929729Y-118499971D01*
X66640592Y-118601145D01*
X66640570Y-118601154D01*
X66364583Y-118734062D01*
X66105184Y-118897053D01*
X66105180Y-118897056D01*
X65941855Y-119027302D01*
X66827632Y-119913079D01*
X66718587Y-119992305D01*
X66553305Y-120157587D01*
X66474079Y-120266632D01*
X65588302Y-119380855D01*
X65458056Y-119544180D01*
X65458053Y-119544184D01*
X65295062Y-119803583D01*
X65162154Y-120079570D01*
X65162145Y-120079592D01*
X65060971Y-120368729D01*
X65060967Y-120368741D01*
X64992800Y-120667403D01*
X64992798Y-120667419D01*
X64958500Y-120971822D01*
X62455100Y-120971822D01*
X62455100Y-116219513D01*
X74491500Y-116219513D01*
X74491500Y-116408486D01*
X74521059Y-116595118D01*
X74579454Y-116774836D01*
X74650366Y-116914008D01*
X74665240Y-116943199D01*
X74776310Y-117096073D01*
X74776312Y-117096075D01*
X74905181Y-117224944D01*
X74938666Y-117286267D01*
X74941500Y-117312625D01*
X74941500Y-117855374D01*
X74921815Y-117922413D01*
X74905182Y-117943055D01*
X74776309Y-118071928D01*
X74665240Y-118224800D01*
X74579454Y-118393163D01*
X74521059Y-118572881D01*
X74491500Y-118759513D01*
X74491500Y-118948486D01*
X74521059Y-119135118D01*
X74579454Y-119314836D01*
X74665107Y-119482937D01*
X74665240Y-119483199D01*
X74776310Y-119636073D01*
X74909927Y-119769690D01*
X75062801Y-119880760D01*
X75231168Y-119966547D01*
X75353612Y-120006331D01*
X75411287Y-120045769D01*
X75438485Y-120110127D01*
X75426570Y-120178974D01*
X75379326Y-120230449D01*
X75353612Y-120242193D01*
X75231361Y-120281915D01*
X75063060Y-120367669D01*
X75037670Y-120386116D01*
X75037669Y-120386116D01*
X75692000Y-121040446D01*
X75692001Y-121040446D01*
X76346328Y-120386116D01*
X76320933Y-120367666D01*
X76152637Y-120281914D01*
X76030388Y-120242193D01*
X75972712Y-120202755D01*
X75945514Y-120138397D01*
X75957429Y-120069550D01*
X76004673Y-120018075D01*
X76030382Y-120006333D01*
X76152832Y-119966547D01*
X76321199Y-119880760D01*
X76474073Y-119769690D01*
X76607690Y-119636073D01*
X76718760Y-119483199D01*
X76804547Y-119314832D01*
X76862940Y-119135118D01*
X76877857Y-119040936D01*
X76892500Y-118948486D01*
X76892500Y-118759513D01*
X76862940Y-118572881D01*
X76817099Y-118431798D01*
X76804547Y-118393168D01*
X76804545Y-118393165D01*
X76804545Y-118393163D01*
X76742324Y-118271048D01*
X76718760Y-118224801D01*
X76607690Y-118071927D01*
X76478818Y-117943055D01*
X76445334Y-117881732D01*
X76442500Y-117855374D01*
X76442500Y-117312625D01*
X76462185Y-117245586D01*
X76478819Y-117224944D01*
X76542551Y-117161212D01*
X76607690Y-117096073D01*
X76718760Y-116943199D01*
X76804547Y-116774832D01*
X76862940Y-116595118D01*
X76892500Y-116408486D01*
X76892500Y-116219513D01*
X76862940Y-116032881D01*
X76804545Y-115853163D01*
X76733634Y-115713993D01*
X76718760Y-115684801D01*
X76607690Y-115531927D01*
X76474073Y-115398310D01*
X76321199Y-115287240D01*
X76285079Y-115268836D01*
X76152836Y-115201454D01*
X75973118Y-115143059D01*
X75786486Y-115113500D01*
X75786481Y-115113500D01*
X75597519Y-115113500D01*
X75597514Y-115113500D01*
X75410881Y-115143059D01*
X75231163Y-115201454D01*
X75062800Y-115287240D01*
X75014911Y-115322034D01*
X74909927Y-115398310D01*
X74909925Y-115398312D01*
X74909924Y-115398312D01*
X74776312Y-115531924D01*
X74776312Y-115531925D01*
X74776310Y-115531927D01*
X74734064Y-115590073D01*
X74665240Y-115684800D01*
X74579454Y-115853163D01*
X74521059Y-116032881D01*
X74491500Y-116219513D01*
X62455100Y-116219513D01*
X62455100Y-115753381D01*
X62455099Y-115753380D01*
X62447265Y-115713992D01*
X62426259Y-115608388D01*
X62379782Y-115496184D01*
X62369684Y-115471805D01*
X62366330Y-115466786D01*
X62287554Y-115348888D01*
X62287553Y-115348887D01*
X62287551Y-115348884D01*
X62183016Y-115244349D01*
X60830977Y-113892310D01*
X59460819Y-112522151D01*
X59427334Y-112460828D01*
X59424500Y-112434470D01*
X59424500Y-101233513D01*
X60648500Y-101233513D01*
X60648500Y-101422486D01*
X60678059Y-101609118D01*
X60736454Y-101788836D01*
X60810334Y-101933832D01*
X60822240Y-101957199D01*
X60933310Y-102110073D01*
X61066927Y-102243690D01*
X61219801Y-102354760D01*
X61277078Y-102383944D01*
X61388163Y-102440545D01*
X61388165Y-102440545D01*
X61388168Y-102440547D01*
X61443560Y-102458545D01*
X61567881Y-102498940D01*
X61754514Y-102528500D01*
X61754519Y-102528500D01*
X61943486Y-102528500D01*
X62130118Y-102498940D01*
X62165280Y-102487515D01*
X62309832Y-102440547D01*
X62478199Y-102354760D01*
X62631073Y-102243690D01*
X62764690Y-102110073D01*
X62875760Y-101957199D01*
X62961547Y-101788832D01*
X63019940Y-101609118D01*
X63034353Y-101518118D01*
X63049500Y-101422486D01*
X63049500Y-101233513D01*
X63019940Y-101046881D01*
X62989209Y-100952302D01*
X62961547Y-100867168D01*
X62961545Y-100867165D01*
X62961545Y-100867163D01*
X62875759Y-100698800D01*
X62870039Y-100690927D01*
X62764690Y-100545927D01*
X62631073Y-100412310D01*
X62478199Y-100301240D01*
X62455678Y-100289765D01*
X62309836Y-100215454D01*
X62198264Y-100179202D01*
X62187386Y-100175667D01*
X62129712Y-100136230D01*
X62102514Y-100071871D01*
X62114429Y-100003025D01*
X62161673Y-99951549D01*
X62187389Y-99939806D01*
X62309635Y-99900086D01*
X62477937Y-99814331D01*
X62503328Y-99795883D01*
X62503328Y-99795882D01*
X61849001Y-99141554D01*
X61849000Y-99141554D01*
X61194669Y-99795882D01*
X61194670Y-99795883D01*
X61220059Y-99814329D01*
X61388362Y-99900085D01*
X61510611Y-99939806D01*
X61568286Y-99979243D01*
X61595485Y-100043602D01*
X61583571Y-100112448D01*
X61536327Y-100163924D01*
X61510612Y-100175668D01*
X61388163Y-100215454D01*
X61219800Y-100301240D01*
X61138302Y-100360453D01*
X61066927Y-100412310D01*
X61066925Y-100412312D01*
X61066924Y-100412312D01*
X60933312Y-100545924D01*
X60933312Y-100545925D01*
X60933310Y-100545927D01*
X60912089Y-100575135D01*
X60822240Y-100698800D01*
X60736454Y-100867163D01*
X60678059Y-101046881D01*
X60648500Y-101233513D01*
X59424500Y-101233513D01*
X59424500Y-98693552D01*
X60649000Y-98693552D01*
X60649000Y-98882447D01*
X60678548Y-99069002D01*
X60736914Y-99248637D01*
X60822666Y-99416933D01*
X60841116Y-99442328D01*
X61495446Y-98788000D01*
X61495446Y-98787999D01*
X61449369Y-98741922D01*
X61499000Y-98741922D01*
X61499000Y-98834078D01*
X61522852Y-98923095D01*
X61568930Y-99002905D01*
X61634095Y-99068070D01*
X61713905Y-99114148D01*
X61802922Y-99138000D01*
X61895078Y-99138000D01*
X61984095Y-99114148D01*
X62063905Y-99068070D01*
X62129070Y-99002905D01*
X62175148Y-98923095D01*
X62199000Y-98834078D01*
X62199000Y-98787999D01*
X62202554Y-98787999D01*
X62202554Y-98788000D01*
X62856882Y-99442328D01*
X62856883Y-99442328D01*
X62875331Y-99416937D01*
X62961085Y-99248637D01*
X63019451Y-99069002D01*
X63049000Y-98882447D01*
X63049000Y-98693552D01*
X63019451Y-98506997D01*
X62961085Y-98327362D01*
X62875329Y-98159059D01*
X62856883Y-98133670D01*
X62856882Y-98133669D01*
X62202554Y-98787999D01*
X62199000Y-98787999D01*
X62199000Y-98741922D01*
X62175148Y-98652905D01*
X62129070Y-98573095D01*
X62063905Y-98507930D01*
X61984095Y-98461852D01*
X61895078Y-98438000D01*
X61802922Y-98438000D01*
X61713905Y-98461852D01*
X61634095Y-98507930D01*
X61568930Y-98573095D01*
X61522852Y-98652905D01*
X61499000Y-98741922D01*
X61449369Y-98741922D01*
X60841116Y-98133669D01*
X60841116Y-98133670D01*
X60822669Y-98159060D01*
X60736914Y-98327362D01*
X60678548Y-98506997D01*
X60649000Y-98693552D01*
X59424500Y-98693552D01*
X59424500Y-97255882D01*
X61194669Y-97255882D01*
X61194670Y-97255883D01*
X61220059Y-97274329D01*
X61388362Y-97360085D01*
X61511420Y-97400069D01*
X61569095Y-97439506D01*
X61596294Y-97503865D01*
X61584380Y-97572711D01*
X61537136Y-97624187D01*
X61511420Y-97635931D01*
X61388362Y-97675914D01*
X61220060Y-97761669D01*
X61194670Y-97780116D01*
X61194669Y-97780116D01*
X61849000Y-98434446D01*
X61849001Y-98434446D01*
X62503328Y-97780116D01*
X62477933Y-97761666D01*
X62309637Y-97675914D01*
X62186579Y-97635931D01*
X62128904Y-97596494D01*
X62101705Y-97532135D01*
X62113619Y-97463289D01*
X62160863Y-97411813D01*
X62186579Y-97400069D01*
X62309637Y-97360085D01*
X62477937Y-97274331D01*
X62503328Y-97255883D01*
X62503328Y-97255882D01*
X61849001Y-96601554D01*
X61849000Y-96601554D01*
X61194669Y-97255882D01*
X59424500Y-97255882D01*
X59424500Y-96153552D01*
X60649000Y-96153552D01*
X60649000Y-96342447D01*
X60678548Y-96529002D01*
X60736914Y-96708637D01*
X60822666Y-96876933D01*
X60841116Y-96902328D01*
X61495446Y-96248000D01*
X61495446Y-96247999D01*
X61449369Y-96201922D01*
X61499000Y-96201922D01*
X61499000Y-96294078D01*
X61522852Y-96383095D01*
X61568930Y-96462905D01*
X61634095Y-96528070D01*
X61713905Y-96574148D01*
X61802922Y-96598000D01*
X61895078Y-96598000D01*
X61984095Y-96574148D01*
X62063905Y-96528070D01*
X62129070Y-96462905D01*
X62175148Y-96383095D01*
X62199000Y-96294078D01*
X62199000Y-96201922D01*
X62175148Y-96112905D01*
X62129070Y-96033095D01*
X62063905Y-95967930D01*
X61984095Y-95921852D01*
X61895078Y-95898000D01*
X61802922Y-95898000D01*
X61713905Y-95921852D01*
X61634095Y-95967930D01*
X61568930Y-96033095D01*
X61522852Y-96112905D01*
X61499000Y-96201922D01*
X61449369Y-96201922D01*
X60841116Y-95593669D01*
X60841116Y-95593670D01*
X60822669Y-95619060D01*
X60736914Y-95787362D01*
X60678548Y-95966997D01*
X60649000Y-96153552D01*
X59424500Y-96153552D01*
X59424500Y-94715882D01*
X61194669Y-94715882D01*
X61194670Y-94715883D01*
X61220059Y-94734329D01*
X61388362Y-94820085D01*
X61511420Y-94860069D01*
X61569095Y-94899506D01*
X61596294Y-94963865D01*
X61584380Y-95032711D01*
X61537136Y-95084187D01*
X61511420Y-95095931D01*
X61388362Y-95135914D01*
X61220060Y-95221669D01*
X61194670Y-95240116D01*
X61194669Y-95240116D01*
X61849000Y-95894446D01*
X61849001Y-95894446D01*
X62503328Y-95240116D01*
X62477933Y-95221666D01*
X62309637Y-95135914D01*
X62186579Y-95095931D01*
X62128904Y-95056494D01*
X62101705Y-94992135D01*
X62113619Y-94923289D01*
X62160863Y-94871813D01*
X62186579Y-94860069D01*
X62309637Y-94820085D01*
X62477937Y-94734331D01*
X62503328Y-94715883D01*
X62503328Y-94715882D01*
X61849001Y-94061554D01*
X61849000Y-94061554D01*
X61194669Y-94715882D01*
X59424500Y-94715882D01*
X59424500Y-93613552D01*
X60649000Y-93613552D01*
X60649000Y-93802447D01*
X60678548Y-93989002D01*
X60736914Y-94168637D01*
X60822666Y-94336933D01*
X60841116Y-94362328D01*
X61495446Y-93708000D01*
X61495446Y-93707999D01*
X61449369Y-93661922D01*
X61499000Y-93661922D01*
X61499000Y-93754078D01*
X61522852Y-93843095D01*
X61568930Y-93922905D01*
X61634095Y-93988070D01*
X61713905Y-94034148D01*
X61802922Y-94058000D01*
X61895078Y-94058000D01*
X61984095Y-94034148D01*
X62063905Y-93988070D01*
X62129070Y-93922905D01*
X62175148Y-93843095D01*
X62199000Y-93754078D01*
X62199000Y-93661922D01*
X62175148Y-93572905D01*
X62129070Y-93493095D01*
X62063905Y-93427930D01*
X61984095Y-93381852D01*
X61895078Y-93358000D01*
X61802922Y-93358000D01*
X61713905Y-93381852D01*
X61634095Y-93427930D01*
X61568930Y-93493095D01*
X61522852Y-93572905D01*
X61499000Y-93661922D01*
X61449369Y-93661922D01*
X60841116Y-93053669D01*
X60841116Y-93053670D01*
X60822669Y-93079060D01*
X60736914Y-93247362D01*
X60678548Y-93426997D01*
X60649000Y-93613552D01*
X59424500Y-93613552D01*
X59424500Y-79945220D01*
X59444185Y-79878181D01*
X59475614Y-79844902D01*
X59553792Y-79788104D01*
X59704104Y-79637792D01*
X59704106Y-79637788D01*
X59704109Y-79637786D01*
X59829048Y-79465820D01*
X59829047Y-79465820D01*
X59829051Y-79465816D01*
X59833514Y-79457054D01*
X59881488Y-79406259D01*
X59949308Y-79389463D01*
X60015444Y-79411999D01*
X60054486Y-79457056D01*
X60058951Y-79465820D01*
X60183890Y-79637786D01*
X60334213Y-79788109D01*
X60506179Y-79913048D01*
X60506181Y-79913049D01*
X60506184Y-79913051D01*
X60695588Y-80009557D01*
X60897757Y-80075246D01*
X61107713Y-80108500D01*
X61107714Y-80108500D01*
X61320286Y-80108500D01*
X61320287Y-80108500D01*
X61530243Y-80075246D01*
X61732412Y-80009557D01*
X61921816Y-79913051D01*
X61954838Y-79889059D01*
X62093786Y-79788109D01*
X62093788Y-79788106D01*
X62093792Y-79788104D01*
X62244104Y-79637792D01*
X62244106Y-79637788D01*
X62244109Y-79637786D01*
X62369048Y-79465820D01*
X62369047Y-79465820D01*
X62369051Y-79465816D01*
X62373514Y-79457054D01*
X62421488Y-79406259D01*
X62489308Y-79389463D01*
X62555444Y-79411999D01*
X62594486Y-79457056D01*
X62598951Y-79465820D01*
X62723890Y-79637786D01*
X62723896Y-79637792D01*
X62874208Y-79788104D01*
X62952384Y-79844902D01*
X62995051Y-79900231D01*
X63003500Y-79945220D01*
X63003500Y-87810988D01*
X62983815Y-87878027D01*
X62931011Y-87923782D01*
X62861853Y-87933726D01*
X62798297Y-87904701D01*
X62779183Y-87883874D01*
X62764694Y-87863933D01*
X62764690Y-87863927D01*
X62631073Y-87730310D01*
X62478199Y-87619240D01*
X62427648Y-87593483D01*
X62309836Y-87533454D01*
X62130118Y-87475059D01*
X61943486Y-87445500D01*
X61943481Y-87445500D01*
X61754519Y-87445500D01*
X61754514Y-87445500D01*
X61567881Y-87475059D01*
X61388163Y-87533454D01*
X61219800Y-87619240D01*
X61140077Y-87677163D01*
X61066927Y-87730310D01*
X61066925Y-87730312D01*
X61066924Y-87730312D01*
X60933312Y-87863924D01*
X60933312Y-87863925D01*
X60933310Y-87863927D01*
X60918818Y-87883874D01*
X60822240Y-88016800D01*
X60736454Y-88185163D01*
X60678059Y-88364881D01*
X60648500Y-88551513D01*
X60648500Y-88740486D01*
X60678059Y-88927118D01*
X60736454Y-89106836D01*
X60822239Y-89275197D01*
X60822240Y-89275199D01*
X60933310Y-89428073D01*
X61066927Y-89561690D01*
X61219801Y-89672760D01*
X61237779Y-89681920D01*
X61388163Y-89758545D01*
X61388165Y-89758545D01*
X61388168Y-89758547D01*
X61425602Y-89770710D01*
X61482104Y-89789069D01*
X61539779Y-89828507D01*
X61566977Y-89892866D01*
X61555062Y-89961712D01*
X61507817Y-90013188D01*
X61482104Y-90024931D01*
X61388163Y-90055454D01*
X61219800Y-90141240D01*
X61171914Y-90176032D01*
X61066927Y-90252310D01*
X61066925Y-90252312D01*
X61066924Y-90252312D01*
X60933312Y-90385924D01*
X60933312Y-90385925D01*
X60933310Y-90385927D01*
X60923066Y-90400027D01*
X60822240Y-90538800D01*
X60736454Y-90707163D01*
X60678059Y-90886881D01*
X60648500Y-91073513D01*
X60648500Y-91262486D01*
X60678059Y-91449118D01*
X60736454Y-91628836D01*
X60798133Y-91749886D01*
X60822240Y-91797199D01*
X60933310Y-91950073D01*
X61066927Y-92083690D01*
X61219801Y-92194760D01*
X61388168Y-92280547D01*
X61510612Y-92320331D01*
X61568287Y-92359769D01*
X61595485Y-92424127D01*
X61583570Y-92492974D01*
X61536326Y-92544449D01*
X61510612Y-92556193D01*
X61388361Y-92595915D01*
X61220060Y-92681669D01*
X61194670Y-92700116D01*
X61194669Y-92700116D01*
X61849000Y-93354446D01*
X61849001Y-93354446D01*
X62503328Y-92700116D01*
X62477933Y-92681666D01*
X62309637Y-92595914D01*
X62187388Y-92556193D01*
X62129712Y-92516755D01*
X62102514Y-92452397D01*
X62114429Y-92383550D01*
X62161673Y-92332075D01*
X62187382Y-92320333D01*
X62309832Y-92280547D01*
X62478199Y-92194760D01*
X62631073Y-92083690D01*
X62764690Y-91950073D01*
X62779182Y-91930125D01*
X62834511Y-91887460D01*
X62904124Y-91881481D01*
X62965919Y-91914086D01*
X63000277Y-91974924D01*
X63003500Y-92003011D01*
X63003500Y-92931066D01*
X62983815Y-92998105D01*
X62931011Y-93043860D01*
X62869772Y-93054684D01*
X62856882Y-93053669D01*
X62202554Y-93707999D01*
X62202554Y-93708000D01*
X62856882Y-94362328D01*
X62869772Y-94361314D01*
X62938149Y-94375679D01*
X62987905Y-94424730D01*
X63003500Y-94484932D01*
X63003500Y-95471066D01*
X62983815Y-95538105D01*
X62931011Y-95583860D01*
X62869772Y-95594684D01*
X62856882Y-95593669D01*
X62202554Y-96247999D01*
X62202554Y-96248000D01*
X62856882Y-96902328D01*
X62856883Y-96902328D01*
X62875331Y-96876937D01*
X62961085Y-96708637D01*
X63019451Y-96529002D01*
X63049000Y-96342447D01*
X63049000Y-96268730D01*
X63068685Y-96201691D01*
X63121489Y-96155936D01*
X63190647Y-96145992D01*
X63254203Y-96175017D01*
X63260681Y-96181049D01*
X68232181Y-101152548D01*
X68265666Y-101213871D01*
X68268500Y-101240229D01*
X68268500Y-101422486D01*
X68298059Y-101609118D01*
X68356454Y-101788836D01*
X68430334Y-101933832D01*
X68442240Y-101957199D01*
X68553310Y-102110073D01*
X68686927Y-102243690D01*
X68839801Y-102354760D01*
X68897078Y-102383944D01*
X69008163Y-102440545D01*
X69008165Y-102440545D01*
X69008168Y-102440547D01*
X69063560Y-102458545D01*
X69187881Y-102498940D01*
X69374514Y-102528500D01*
X69374519Y-102528500D01*
X69563486Y-102528500D01*
X69750118Y-102498940D01*
X69785280Y-102487515D01*
X69929832Y-102440547D01*
X70098199Y-102354760D01*
X70251073Y-102243690D01*
X70379944Y-102114819D01*
X70441267Y-102081334D01*
X70467625Y-102078500D01*
X70991582Y-102078500D01*
X71058621Y-102098185D01*
X71091900Y-102129615D01*
X71125028Y-102175212D01*
X71125032Y-102175217D01*
X71269786Y-102319971D01*
X71386251Y-102404586D01*
X71435390Y-102440287D01*
X71526840Y-102486883D01*
X71528080Y-102487515D01*
X71578876Y-102535490D01*
X71595671Y-102603311D01*
X71573134Y-102669446D01*
X71528080Y-102708485D01*
X71435386Y-102755715D01*
X71269786Y-102876028D01*
X71125028Y-103020786D01*
X71004715Y-103186386D01*
X70911781Y-103368776D01*
X70848522Y-103563465D01*
X70816500Y-103765648D01*
X70816500Y-103970351D01*
X70848522Y-104172534D01*
X70911781Y-104367223D01*
X70972255Y-104485908D01*
X70982806Y-104506616D01*
X71004715Y-104549613D01*
X71125028Y-104715213D01*
X71269786Y-104859971D01*
X71410107Y-104961918D01*
X71435390Y-104980287D01*
X71526840Y-105026883D01*
X71528080Y-105027515D01*
X71578876Y-105075490D01*
X71595671Y-105143311D01*
X71573134Y-105209446D01*
X71528080Y-105248485D01*
X71435386Y-105295715D01*
X71269786Y-105416028D01*
X71125028Y-105560786D01*
X71004715Y-105726386D01*
X70911781Y-105908776D01*
X70848522Y-106103465D01*
X70816500Y-106305648D01*
X70816500Y-106510351D01*
X70848522Y-106712534D01*
X70911781Y-106907223D01*
X71004715Y-107089613D01*
X71125028Y-107255213D01*
X71269786Y-107399971D01*
X71406670Y-107499421D01*
X71435390Y-107520287D01*
X71531552Y-107569284D01*
X71617776Y-107613218D01*
X71617778Y-107613218D01*
X71617781Y-107613220D01*
X71716621Y-107645335D01*
X71812465Y-107676477D01*
X71913557Y-107692488D01*
X72014648Y-107708500D01*
X72014649Y-107708500D01*
X73019351Y-107708500D01*
X73019352Y-107708500D01*
X73221534Y-107676477D01*
X73416219Y-107613220D01*
X73598610Y-107520287D01*
X73697595Y-107448371D01*
X73764213Y-107399971D01*
X73764215Y-107399968D01*
X73764219Y-107399966D01*
X73908966Y-107255219D01*
X74028339Y-107090913D01*
X74083668Y-107048248D01*
X74153281Y-107042269D01*
X74197549Y-107060697D01*
X74251721Y-107096894D01*
X74251723Y-107096895D01*
X74251727Y-107096897D01*
X74397398Y-107157235D01*
X74397403Y-107157237D01*
X74552053Y-107187999D01*
X74552056Y-107188000D01*
X74552058Y-107188000D01*
X74709744Y-107188000D01*
X74709745Y-107187999D01*
X74864397Y-107157237D01*
X75010079Y-107096894D01*
X75141189Y-107009289D01*
X75252689Y-106897789D01*
X75340294Y-106766679D01*
X75350092Y-106743021D01*
X75376967Y-106702798D01*
X75582951Y-106496816D01*
X75665084Y-106373895D01*
X75721658Y-106237313D01*
X75731096Y-106189862D01*
X75750500Y-106092320D01*
X75750500Y-85019429D01*
X75770185Y-84952390D01*
X75786819Y-84931748D01*
X77423119Y-83295448D01*
X77484442Y-83261963D01*
X77554134Y-83266947D01*
X77610067Y-83308819D01*
X77634484Y-83374283D01*
X77634800Y-83383129D01*
X77634800Y-101254082D01*
X77634800Y-101401918D01*
X77634800Y-101401920D01*
X77634799Y-101401920D01*
X77663640Y-101546907D01*
X77663643Y-101546917D01*
X77720212Y-101683488D01*
X77720219Y-101683501D01*
X77802348Y-101806415D01*
X77802351Y-101806419D01*
X77906880Y-101910948D01*
X77906884Y-101910951D01*
X78029798Y-101993080D01*
X78029811Y-101993087D01*
X78166382Y-102049656D01*
X78166387Y-102049658D01*
X78166391Y-102049658D01*
X78166392Y-102049659D01*
X78311379Y-102078500D01*
X78311382Y-102078500D01*
X78611582Y-102078500D01*
X78678621Y-102098185D01*
X78711900Y-102129615D01*
X78745028Y-102175212D01*
X78745032Y-102175217D01*
X78889786Y-102319971D01*
X79006251Y-102404586D01*
X79055390Y-102440287D01*
X79146840Y-102486883D01*
X79148080Y-102487515D01*
X79198876Y-102535490D01*
X79215671Y-102603311D01*
X79193134Y-102669446D01*
X79148080Y-102708485D01*
X79055386Y-102755715D01*
X78889786Y-102876028D01*
X78745028Y-103020786D01*
X78624715Y-103186386D01*
X78531781Y-103368776D01*
X78468522Y-103563465D01*
X78436500Y-103765648D01*
X78436500Y-103970351D01*
X78468522Y-104172534D01*
X78531781Y-104367223D01*
X78592255Y-104485908D01*
X78602806Y-104506616D01*
X78624715Y-104549613D01*
X78745028Y-104715213D01*
X78889786Y-104859971D01*
X79030107Y-104961918D01*
X79055390Y-104980287D01*
X79146840Y-105026883D01*
X79148080Y-105027515D01*
X79198876Y-105075490D01*
X79215671Y-105143311D01*
X79193134Y-105209446D01*
X79148080Y-105248485D01*
X79055386Y-105295715D01*
X78889786Y-105416028D01*
X78745028Y-105560786D01*
X78624715Y-105726386D01*
X78531781Y-105908776D01*
X78468522Y-106103465D01*
X78436500Y-106305648D01*
X78436500Y-106510351D01*
X78468522Y-106712534D01*
X78531781Y-106907223D01*
X78624715Y-107089613D01*
X78745028Y-107255213D01*
X78889786Y-107399971D01*
X79026670Y-107499421D01*
X79055390Y-107520287D01*
X79151552Y-107569284D01*
X79237776Y-107613218D01*
X79237778Y-107613218D01*
X79237781Y-107613220D01*
X79336621Y-107645335D01*
X79432465Y-107676477D01*
X79533557Y-107692488D01*
X79634648Y-107708500D01*
X79634649Y-107708500D01*
X80639351Y-107708500D01*
X80639352Y-107708500D01*
X80841534Y-107676477D01*
X81036219Y-107613220D01*
X81218610Y-107520287D01*
X81317595Y-107448371D01*
X81384213Y-107399971D01*
X81384215Y-107399968D01*
X81384219Y-107399966D01*
X81528966Y-107255219D01*
X81528968Y-107255215D01*
X81528971Y-107255213D01*
X81649284Y-107089614D01*
X81649285Y-107089613D01*
X81649287Y-107089610D01*
X81738545Y-106914430D01*
X81786520Y-106863635D01*
X81854341Y-106846840D01*
X81920475Y-106869377D01*
X81959515Y-106914431D01*
X82031240Y-107055199D01*
X82142310Y-107208073D01*
X82275927Y-107341690D01*
X82428801Y-107452760D01*
X82508347Y-107493290D01*
X82597163Y-107538545D01*
X82597165Y-107538545D01*
X82597168Y-107538547D01*
X82691766Y-107569284D01*
X82776881Y-107596940D01*
X82963514Y-107626500D01*
X83145771Y-107626500D01*
X83212810Y-107646185D01*
X83233452Y-107662819D01*
X84811181Y-109240548D01*
X84844666Y-109301871D01*
X84847500Y-109328229D01*
X84847500Y-109854582D01*
X84827815Y-109921621D01*
X84796385Y-109954900D01*
X84750787Y-109988028D01*
X84750782Y-109988032D01*
X84606032Y-110132782D01*
X84606031Y-110132784D01*
X84565447Y-110188642D01*
X84510117Y-110231307D01*
X84440503Y-110237285D01*
X84378709Y-110204678D01*
X84347425Y-110154760D01*
X84332814Y-110110666D01*
X84240712Y-109961344D01*
X84116656Y-109837288D01*
X84011925Y-109772690D01*
X83967336Y-109745187D01*
X83967331Y-109745185D01*
X83965862Y-109744698D01*
X83800797Y-109690001D01*
X83800795Y-109690000D01*
X83698010Y-109679500D01*
X82497998Y-109679500D01*
X82497981Y-109679501D01*
X82395203Y-109690000D01*
X82395200Y-109690001D01*
X82228668Y-109745185D01*
X82228663Y-109745187D01*
X82079342Y-109837289D01*
X81955289Y-109961342D01*
X81863187Y-110110663D01*
X81863185Y-110110668D01*
X81848575Y-110154758D01*
X81808001Y-110277203D01*
X81808001Y-110277204D01*
X81808000Y-110277204D01*
X81797500Y-110379983D01*
X81797500Y-111167769D01*
X81777815Y-111234808D01*
X81761181Y-111255450D01*
X81457245Y-111559386D01*
X81425957Y-111606216D01*
X81425955Y-111606219D01*
X81375119Y-111682299D01*
X81375112Y-111682311D01*
X81318543Y-111818882D01*
X81318540Y-111818892D01*
X81289700Y-111963879D01*
X81289700Y-111963882D01*
X81289700Y-120196118D01*
X81289700Y-120196120D01*
X81289699Y-120196120D01*
X81318540Y-120341107D01*
X81318543Y-120341117D01*
X81375113Y-120477690D01*
X81375118Y-120477699D01*
X81385677Y-120493501D01*
X81385679Y-120493503D01*
X81421281Y-120546787D01*
X81457251Y-120600620D01*
X81457252Y-120600621D01*
X82075181Y-121218549D01*
X82108666Y-121279872D01*
X82111500Y-121306230D01*
X82111500Y-121488486D01*
X82141059Y-121675118D01*
X82199454Y-121854836D01*
X82256688Y-121967163D01*
X82285240Y-122023199D01*
X82396310Y-122176073D01*
X82529927Y-122309690D01*
X82682801Y-122420760D01*
X82733154Y-122446416D01*
X82851163Y-122506545D01*
X82851165Y-122506545D01*
X82851168Y-122506547D01*
X82900223Y-122522486D01*
X83030881Y-122564940D01*
X83217514Y-122594500D01*
X83217519Y-122594500D01*
X83406486Y-122594500D01*
X83593118Y-122564940D01*
X83629145Y-122553234D01*
X83772832Y-122506547D01*
X83941199Y-122420760D01*
X84094073Y-122309690D01*
X84227690Y-122176073D01*
X84338760Y-122023199D01*
X84405898Y-121891431D01*
X84453872Y-121840636D01*
X84521693Y-121823840D01*
X84587828Y-121846377D01*
X84626868Y-121891431D01*
X84720715Y-122075613D01*
X84841028Y-122241213D01*
X84985786Y-122385971D01*
X85140749Y-122498556D01*
X85151390Y-122506287D01*
X85242840Y-122552883D01*
X85244080Y-122553515D01*
X85294876Y-122601490D01*
X85311671Y-122669311D01*
X85289134Y-122735446D01*
X85244080Y-122774485D01*
X85151386Y-122821715D01*
X84985786Y-122942028D01*
X84841028Y-123086786D01*
X84720715Y-123252386D01*
X84627781Y-123434776D01*
X84564522Y-123629465D01*
X84532500Y-123831648D01*
X84532500Y-124036351D01*
X84564522Y-124238534D01*
X84627781Y-124433223D01*
X84720715Y-124615613D01*
X84841028Y-124781213D01*
X84985786Y-124925971D01*
X85140749Y-125038556D01*
X85151390Y-125046287D01*
X85267607Y-125105503D01*
X85333776Y-125139218D01*
X85333778Y-125139218D01*
X85333781Y-125139220D01*
X85438137Y-125173127D01*
X85528465Y-125202477D01*
X85629557Y-125218488D01*
X85730648Y-125234500D01*
X85730649Y-125234500D01*
X86735351Y-125234500D01*
X86735352Y-125234500D01*
X86937534Y-125202477D01*
X87132219Y-125139220D01*
X87314610Y-125046287D01*
X87407590Y-124978732D01*
X87480213Y-124925971D01*
X87480215Y-124925968D01*
X87480219Y-124925966D01*
X87624966Y-124781219D01*
X87627650Y-124777524D01*
X87658100Y-124735615D01*
X87713429Y-124692949D01*
X87758418Y-124684500D01*
X88058620Y-124684500D01*
X88156162Y-124665096D01*
X88203613Y-124655658D01*
X88340195Y-124599084D01*
X88404991Y-124555789D01*
X88404994Y-124555786D01*
X88404996Y-124555786D01*
X88434247Y-124536240D01*
X88463116Y-124516952D01*
X88750426Y-124229639D01*
X88811746Y-124196157D01*
X88881438Y-124201141D01*
X88937372Y-124243012D01*
X88952666Y-124269869D01*
X88962878Y-124294523D01*
X88970603Y-124313172D01*
X88970606Y-124313178D01*
X88970609Y-124313185D01*
X89058210Y-124444288D01*
X89058213Y-124444292D01*
X89169707Y-124555786D01*
X89169711Y-124555789D01*
X89300814Y-124643390D01*
X89300827Y-124643397D01*
X89400060Y-124684500D01*
X89446503Y-124703737D01*
X89601153Y-124734499D01*
X89601156Y-124734500D01*
X89601158Y-124734500D01*
X89758844Y-124734500D01*
X89758845Y-124734499D01*
X89913497Y-124703737D01*
X90059179Y-124643394D01*
X90190289Y-124555789D01*
X90301789Y-124444289D01*
X90389394Y-124313179D01*
X90449737Y-124167497D01*
X90480500Y-124012842D01*
X90480500Y-123855158D01*
X90480500Y-123855155D01*
X90480108Y-123853187D01*
X90480107Y-123853185D01*
X90449737Y-123700503D01*
X90436134Y-123667663D01*
X90433843Y-123657995D01*
X90434335Y-123648681D01*
X90430500Y-123629396D01*
X90430500Y-120359229D01*
X90450185Y-120292190D01*
X90466819Y-120271548D01*
X91097548Y-119640819D01*
X91158871Y-119607334D01*
X91185229Y-119604500D01*
X92327582Y-119604500D01*
X92394621Y-119624185D01*
X92427900Y-119655615D01*
X92461028Y-119701212D01*
X92461032Y-119701217D01*
X92605786Y-119845971D01*
X92760749Y-119958556D01*
X92771390Y-119966287D01*
X92843424Y-120002990D01*
X92864629Y-120013795D01*
X92915425Y-120061770D01*
X92932220Y-120129591D01*
X92909682Y-120195726D01*
X92864629Y-120234765D01*
X92771650Y-120282140D01*
X92606105Y-120402417D01*
X92606104Y-120402417D01*
X92461417Y-120547104D01*
X92461417Y-120547105D01*
X92341140Y-120712650D01*
X92248244Y-120894970D01*
X92185009Y-121089586D01*
X92176391Y-121144000D01*
X93537314Y-121144000D01*
X93532920Y-121148394D01*
X93480259Y-121239606D01*
X93453000Y-121341339D01*
X93453000Y-121446661D01*
X93480259Y-121548394D01*
X93532920Y-121639606D01*
X93537314Y-121644000D01*
X92176391Y-121644000D01*
X92185009Y-121698413D01*
X92248244Y-121893029D01*
X92341140Y-122075349D01*
X92461417Y-122240894D01*
X92461417Y-122240895D01*
X92606104Y-122385582D01*
X92771652Y-122505861D01*
X92864628Y-122553234D01*
X92915425Y-122601208D01*
X92932220Y-122669029D01*
X92909683Y-122735164D01*
X92864630Y-122774203D01*
X92771388Y-122821713D01*
X92605786Y-122942028D01*
X92461028Y-123086786D01*
X92340715Y-123252386D01*
X92247781Y-123434776D01*
X92184522Y-123629465D01*
X92152500Y-123831648D01*
X92152500Y-124036351D01*
X92184522Y-124238534D01*
X92247781Y-124433223D01*
X92340715Y-124615613D01*
X92461028Y-124781213D01*
X92605786Y-124925971D01*
X92760749Y-125038556D01*
X92771390Y-125046287D01*
X92887607Y-125105503D01*
X92953776Y-125139218D01*
X92953778Y-125139218D01*
X92953781Y-125139220D01*
X93058137Y-125173127D01*
X93148465Y-125202477D01*
X93249557Y-125218488D01*
X93350648Y-125234500D01*
X93350649Y-125234500D01*
X94355351Y-125234500D01*
X94355352Y-125234500D01*
X94557534Y-125202477D01*
X94752219Y-125139220D01*
X94934610Y-125046287D01*
X95027590Y-124978732D01*
X95100213Y-124925971D01*
X95100215Y-124925968D01*
X95100219Y-124925966D01*
X95244966Y-124781219D01*
X95244968Y-124781215D01*
X95244971Y-124781213D01*
X95301259Y-124703738D01*
X95365287Y-124615610D01*
X95458220Y-124433219D01*
X95521477Y-124238534D01*
X95553500Y-124036352D01*
X95553500Y-123831648D01*
X95540573Y-123750032D01*
X95521477Y-123629465D01*
X95478120Y-123496028D01*
X95458220Y-123434781D01*
X95458218Y-123434778D01*
X95458218Y-123434776D01*
X95370151Y-123261937D01*
X95365287Y-123252390D01*
X95339350Y-123216690D01*
X95244971Y-123086786D01*
X95100213Y-122942028D01*
X94934611Y-122821713D01*
X94841369Y-122774203D01*
X94790574Y-122726229D01*
X94773779Y-122658407D01*
X94796317Y-122592273D01*
X94841371Y-122553234D01*
X94934347Y-122505861D01*
X95099894Y-122385582D01*
X95099895Y-122385582D01*
X95244582Y-122240895D01*
X95244582Y-122240894D01*
X95364859Y-122075349D01*
X95457755Y-121893029D01*
X95520990Y-121698413D01*
X95529609Y-121644000D01*
X94168686Y-121644000D01*
X94173080Y-121639606D01*
X94225741Y-121548394D01*
X94253000Y-121446661D01*
X94253000Y-121341339D01*
X94225741Y-121239606D01*
X94173080Y-121148394D01*
X94168686Y-121144000D01*
X95529609Y-121144000D01*
X95520990Y-121089586D01*
X95457755Y-120894970D01*
X95394408Y-120770643D01*
X95394407Y-120770641D01*
X95367495Y-120717822D01*
X97560500Y-120717822D01*
X97560500Y-121024177D01*
X97594798Y-121328580D01*
X97594800Y-121328596D01*
X97662967Y-121627258D01*
X97662971Y-121627270D01*
X97764145Y-121916407D01*
X97764154Y-121916429D01*
X97897062Y-122192416D01*
X98060051Y-122451811D01*
X98190302Y-122615143D01*
X99076078Y-121729366D01*
X99155305Y-121838413D01*
X99320587Y-122003695D01*
X99429631Y-122082920D01*
X98543855Y-122968696D01*
X98707188Y-123098948D01*
X98966583Y-123261937D01*
X99242570Y-123394845D01*
X99242592Y-123394854D01*
X99531729Y-123496028D01*
X99531741Y-123496032D01*
X99830403Y-123564199D01*
X99830419Y-123564201D01*
X100134822Y-123598499D01*
X100134824Y-123598500D01*
X100441176Y-123598500D01*
X100441177Y-123598499D01*
X100745580Y-123564201D01*
X100745596Y-123564199D01*
X101044258Y-123496032D01*
X101044270Y-123496028D01*
X101333407Y-123394854D01*
X101333429Y-123394845D01*
X101609416Y-123261937D01*
X101868811Y-123098948D01*
X102032143Y-122968696D01*
X101146367Y-122082920D01*
X101255413Y-122003695D01*
X101420695Y-121838413D01*
X101499920Y-121729367D01*
X102385696Y-122615143D01*
X102515948Y-122451811D01*
X102678937Y-122192416D01*
X102811845Y-121916429D01*
X102811854Y-121916407D01*
X102913028Y-121627270D01*
X102913032Y-121627258D01*
X102981199Y-121328596D01*
X102981201Y-121328580D01*
X103015499Y-121024177D01*
X103015500Y-121024175D01*
X103015500Y-120717824D01*
X103015499Y-120717822D01*
X102981201Y-120413419D01*
X102981199Y-120413403D01*
X102913032Y-120114741D01*
X102913028Y-120114729D01*
X102811854Y-119825592D01*
X102811845Y-119825570D01*
X102678937Y-119549583D01*
X102515948Y-119290188D01*
X102385696Y-119126855D01*
X101499920Y-120012631D01*
X101420695Y-119903587D01*
X101255413Y-119738305D01*
X101146366Y-119659078D01*
X102032143Y-118773302D01*
X101868811Y-118643051D01*
X101609416Y-118480062D01*
X101333429Y-118347154D01*
X101333407Y-118347145D01*
X101044270Y-118245971D01*
X101044258Y-118245967D01*
X100745596Y-118177800D01*
X100745580Y-118177798D01*
X100441177Y-118143500D01*
X100134822Y-118143500D01*
X99830419Y-118177798D01*
X99830403Y-118177800D01*
X99531741Y-118245967D01*
X99531729Y-118245971D01*
X99242592Y-118347145D01*
X99242570Y-118347154D01*
X98966583Y-118480062D01*
X98707184Y-118643053D01*
X98707180Y-118643056D01*
X98543855Y-118773302D01*
X99429632Y-119659079D01*
X99320587Y-119738305D01*
X99155305Y-119903587D01*
X99076079Y-120012632D01*
X98190302Y-119126855D01*
X98060056Y-119290180D01*
X98060053Y-119290184D01*
X97897062Y-119549583D01*
X97764154Y-119825570D01*
X97764145Y-119825592D01*
X97662971Y-120114729D01*
X97662967Y-120114741D01*
X97594800Y-120413403D01*
X97594798Y-120413419D01*
X97560500Y-120717822D01*
X95367495Y-120717822D01*
X95364861Y-120712652D01*
X95244582Y-120547105D01*
X95244582Y-120547104D01*
X95099895Y-120402417D01*
X94934349Y-120282140D01*
X94841370Y-120234765D01*
X94790574Y-120186790D01*
X94773779Y-120118969D01*
X94796316Y-120052835D01*
X94841370Y-120013795D01*
X94856019Y-120006331D01*
X94934610Y-119966287D01*
X95052329Y-119880760D01*
X95100213Y-119845971D01*
X95100215Y-119845968D01*
X95100219Y-119845966D01*
X95244966Y-119701219D01*
X95244968Y-119701215D01*
X95244971Y-119701213D01*
X95323730Y-119592809D01*
X95365287Y-119535610D01*
X95458220Y-119353219D01*
X95521477Y-119158534D01*
X95553500Y-118956352D01*
X95553500Y-118751648D01*
X95545887Y-118703580D01*
X95521477Y-118549465D01*
X95472100Y-118397500D01*
X95458220Y-118354781D01*
X95458218Y-118354778D01*
X95458218Y-118354776D01*
X95392123Y-118225059D01*
X95365287Y-118172390D01*
X95357556Y-118161749D01*
X95244971Y-118006786D01*
X95100213Y-117862028D01*
X94934614Y-117741715D01*
X94928006Y-117738348D01*
X94841917Y-117694483D01*
X94791123Y-117646511D01*
X94774328Y-117578690D01*
X94796865Y-117512555D01*
X94841917Y-117473516D01*
X94934610Y-117426287D01*
X95052329Y-117340760D01*
X95100213Y-117305971D01*
X95100215Y-117305968D01*
X95100219Y-117305966D01*
X95244966Y-117161219D01*
X95247650Y-117157524D01*
X95278100Y-117115615D01*
X95333429Y-117072949D01*
X95378418Y-117064500D01*
X95678620Y-117064500D01*
X95776162Y-117045096D01*
X95823613Y-117035658D01*
X95960195Y-116979084D01*
X96013901Y-116943199D01*
X96013901Y-116943198D01*
X96013903Y-116943198D01*
X96057589Y-116914008D01*
X96083116Y-116896952D01*
X96584952Y-116395116D01*
X96644686Y-116305716D01*
X96667084Y-116272195D01*
X96723658Y-116135613D01*
X96752500Y-115990618D01*
X96752500Y-98367229D01*
X96758738Y-98345983D01*
X96760318Y-98323895D01*
X96768390Y-98313111D01*
X96772185Y-98300190D01*
X96788918Y-98285690D01*
X96802190Y-98267962D01*
X96814810Y-98263254D01*
X96824989Y-98254435D01*
X96846906Y-98251283D01*
X96867654Y-98243545D01*
X96880814Y-98246407D01*
X96894147Y-98244491D01*
X96914290Y-98253690D01*
X96935927Y-98258397D01*
X96953652Y-98271665D01*
X96957703Y-98273516D01*
X96964181Y-98279548D01*
X97088181Y-98403548D01*
X97121666Y-98464871D01*
X97124500Y-98491229D01*
X97124500Y-99679001D01*
X97124501Y-99679018D01*
X97135000Y-99781796D01*
X97135001Y-99781799D01*
X97151818Y-99832548D01*
X97190186Y-99948334D01*
X97275210Y-100086181D01*
X97282289Y-100097657D01*
X97406344Y-100221712D01*
X97548213Y-100309217D01*
X97594938Y-100361165D01*
X97606161Y-100430127D01*
X97578317Y-100494210D01*
X97570800Y-100502436D01*
X97509310Y-100563927D01*
X97398240Y-100716800D01*
X97312454Y-100885163D01*
X97254059Y-101064881D01*
X97224500Y-101251513D01*
X97224500Y-101440486D01*
X97254059Y-101627118D01*
X97312454Y-101806836D01*
X97393867Y-101966616D01*
X97398240Y-101975199D01*
X97509310Y-102128073D01*
X97642927Y-102261690D01*
X97795801Y-102372760D01*
X97856148Y-102403508D01*
X97964163Y-102458545D01*
X97964165Y-102458545D01*
X97964168Y-102458547D01*
X98004418Y-102471625D01*
X98143881Y-102516940D01*
X98330514Y-102546500D01*
X98330519Y-102546500D01*
X98519486Y-102546500D01*
X98706118Y-102516940D01*
X98885832Y-102458547D01*
X99054199Y-102372760D01*
X99207073Y-102261690D01*
X99340690Y-102128073D01*
X99451760Y-101975199D01*
X99537547Y-101806832D01*
X99594777Y-101630696D01*
X99634215Y-101573021D01*
X99698573Y-101545823D01*
X99767420Y-101557738D01*
X99818895Y-101604982D01*
X99830639Y-101630696D01*
X99852454Y-101697836D01*
X99907991Y-101806832D01*
X99938240Y-101866199D01*
X100049310Y-102019073D01*
X100049312Y-102019075D01*
X100178181Y-102147944D01*
X100211666Y-102209267D01*
X100214500Y-102235625D01*
X100214500Y-106063770D01*
X100194815Y-106130809D01*
X100178181Y-106151451D01*
X98600451Y-107729181D01*
X98539128Y-107762666D01*
X98512770Y-107765500D01*
X98330514Y-107765500D01*
X98143881Y-107795059D01*
X97964163Y-107853454D01*
X97795800Y-107939240D01*
X97740267Y-107979588D01*
X97642927Y-108050310D01*
X97642925Y-108050312D01*
X97642924Y-108050312D01*
X97509312Y-108183924D01*
X97509312Y-108183925D01*
X97509310Y-108183927D01*
X97469234Y-108239087D01*
X97398240Y-108336800D01*
X97312454Y-108505163D01*
X97254059Y-108684881D01*
X97224500Y-108871513D01*
X97224500Y-109060486D01*
X97254059Y-109247118D01*
X97312454Y-109426836D01*
X97397120Y-109593000D01*
X97398240Y-109595199D01*
X97509310Y-109748073D01*
X97642927Y-109881690D01*
X97795801Y-109992760D01*
X97864846Y-110027940D01*
X97964163Y-110078545D01*
X97964165Y-110078545D01*
X97964168Y-110078547D01*
X98060497Y-110109846D01*
X98143881Y-110136940D01*
X98330514Y-110166500D01*
X98330519Y-110166500D01*
X98519486Y-110166500D01*
X98706118Y-110136940D01*
X98885832Y-110078547D01*
X99054199Y-109992760D01*
X99207073Y-109881690D01*
X99340690Y-109748073D01*
X99451760Y-109595199D01*
X99537547Y-109426832D01*
X99594777Y-109250696D01*
X99634215Y-109193021D01*
X99698573Y-109165823D01*
X99767420Y-109177738D01*
X99818895Y-109224982D01*
X99830639Y-109250696D01*
X99852454Y-109317836D01*
X99907991Y-109426832D01*
X99938240Y-109486199D01*
X100049310Y-109639073D01*
X100182927Y-109772690D01*
X100335801Y-109883760D01*
X100402538Y-109917764D01*
X100504163Y-109969545D01*
X100504165Y-109969545D01*
X100504168Y-109969547D01*
X100581627Y-109994715D01*
X100683881Y-110027940D01*
X100870514Y-110057500D01*
X100870519Y-110057500D01*
X101059486Y-110057500D01*
X101246118Y-110027940D01*
X101425832Y-109969547D01*
X101594199Y-109883760D01*
X101747073Y-109772690D01*
X101880690Y-109639073D01*
X101991760Y-109486199D01*
X102077547Y-109317832D01*
X102135940Y-109138118D01*
X102148236Y-109060486D01*
X102165500Y-108951486D01*
X102165500Y-108762513D01*
X102135940Y-108575881D01*
X102077545Y-108396163D01*
X101991759Y-108227800D01*
X101880690Y-108074927D01*
X101747073Y-107941310D01*
X101594199Y-107830240D01*
X101425836Y-107744454D01*
X101246119Y-107686060D01*
X101072276Y-107658525D01*
X101009142Y-107628595D01*
X100972211Y-107569284D01*
X100973209Y-107499421D01*
X101003992Y-107448374D01*
X101547951Y-106904416D01*
X101630084Y-106781495D01*
X101686658Y-106644913D01*
X101686658Y-106644912D01*
X101695303Y-106601450D01*
X101715500Y-106499920D01*
X101715500Y-102235625D01*
X101735185Y-102168586D01*
X101751819Y-102147944D01*
X101811617Y-102088146D01*
X101880690Y-102019073D01*
X101991760Y-101866199D01*
X102077547Y-101697832D01*
X102135940Y-101518118D01*
X102148236Y-101440486D01*
X102165500Y-101331486D01*
X102165500Y-101142513D01*
X102135940Y-100955881D01*
X102077545Y-100776163D01*
X102028877Y-100680647D01*
X101991760Y-100607801D01*
X101991759Y-100607800D01*
X101968026Y-100575135D01*
X113584500Y-100575135D01*
X113584500Y-102370870D01*
X113584501Y-102370876D01*
X113590908Y-102430483D01*
X113641202Y-102565328D01*
X113641206Y-102565335D01*
X113727452Y-102680544D01*
X113727455Y-102680547D01*
X113842664Y-102766793D01*
X113842671Y-102766797D01*
X113977517Y-102817091D01*
X113977516Y-102817091D01*
X113984444Y-102817835D01*
X114037127Y-102823500D01*
X115832872Y-102823499D01*
X115892483Y-102817091D01*
X116027331Y-102766796D01*
X116142546Y-102680546D01*
X116228796Y-102565331D01*
X116279091Y-102430483D01*
X116285500Y-102370873D01*
X116285499Y-100575128D01*
X116279091Y-100515517D01*
X116274212Y-100502437D01*
X116228797Y-100380671D01*
X116228793Y-100380664D01*
X116142547Y-100265455D01*
X116142544Y-100265452D01*
X116027335Y-100179206D01*
X116027328Y-100179202D01*
X115892482Y-100128908D01*
X115892483Y-100128908D01*
X115832883Y-100122501D01*
X115832881Y-100122500D01*
X115832873Y-100122500D01*
X115832865Y-100122500D01*
X115822309Y-100122500D01*
X115755270Y-100102815D01*
X115734628Y-100086181D01*
X115064408Y-99415962D01*
X115127993Y-99398925D01*
X115242007Y-99333099D01*
X115335099Y-99240007D01*
X115400925Y-99125993D01*
X115417962Y-99062409D01*
X116050270Y-99694717D01*
X116050270Y-99694716D01*
X116089622Y-99640554D01*
X116186095Y-99451217D01*
X116251757Y-99249130D01*
X116251757Y-99249127D01*
X116285000Y-99039246D01*
X116285000Y-98826753D01*
X116251757Y-98616872D01*
X116251757Y-98616869D01*
X116186095Y-98414782D01*
X116089624Y-98225449D01*
X116050270Y-98171282D01*
X116050269Y-98171282D01*
X115417962Y-98803590D01*
X115400925Y-98740007D01*
X115335099Y-98625993D01*
X115242007Y-98532901D01*
X115127993Y-98467075D01*
X115064409Y-98450037D01*
X115696716Y-97817728D01*
X115642550Y-97778375D01*
X115453217Y-97681904D01*
X115251129Y-97616242D01*
X115041246Y-97583000D01*
X114828754Y-97583000D01*
X114618872Y-97616242D01*
X114618869Y-97616242D01*
X114416782Y-97681904D01*
X114227439Y-97778380D01*
X114173282Y-97817727D01*
X114173282Y-97817728D01*
X114805591Y-98450037D01*
X114742007Y-98467075D01*
X114627993Y-98532901D01*
X114534901Y-98625993D01*
X114469075Y-98740007D01*
X114452037Y-98803591D01*
X113819728Y-98171282D01*
X113819727Y-98171282D01*
X113780380Y-98225439D01*
X113683904Y-98414782D01*
X113618242Y-98616869D01*
X113618242Y-98616872D01*
X113585000Y-98826753D01*
X113585000Y-99039246D01*
X113618242Y-99249127D01*
X113618242Y-99249130D01*
X113683904Y-99451217D01*
X113780375Y-99640550D01*
X113819728Y-99694716D01*
X114452037Y-99062408D01*
X114469075Y-99125993D01*
X114534901Y-99240007D01*
X114627993Y-99333099D01*
X114742007Y-99398925D01*
X114805590Y-99415962D01*
X114135370Y-100086181D01*
X114074047Y-100119666D01*
X114047698Y-100122500D01*
X114037134Y-100122500D01*
X114037123Y-100122501D01*
X113977516Y-100128908D01*
X113842671Y-100179202D01*
X113842664Y-100179206D01*
X113727455Y-100265452D01*
X113727452Y-100265455D01*
X113641206Y-100380664D01*
X113641202Y-100380671D01*
X113590908Y-100515517D01*
X113586415Y-100557312D01*
X113584501Y-100575123D01*
X113584500Y-100575135D01*
X101968026Y-100575135D01*
X101946804Y-100545925D01*
X101880690Y-100454927D01*
X101751818Y-100326055D01*
X101737111Y-100299121D01*
X101720523Y-100273309D01*
X101719631Y-100267108D01*
X101718334Y-100264732D01*
X101715500Y-100238374D01*
X101715500Y-100204416D01*
X101735185Y-100137377D01*
X101766613Y-100104099D01*
X101812219Y-100070966D01*
X101956966Y-99926219D01*
X101956968Y-99926215D01*
X101956971Y-99926213D01*
X102077284Y-99760614D01*
X102077286Y-99760611D01*
X102077287Y-99760610D01*
X102124795Y-99667369D01*
X102172770Y-99616574D01*
X102240591Y-99599779D01*
X102306725Y-99622316D01*
X102345765Y-99667370D01*
X102393140Y-99760349D01*
X102513417Y-99925894D01*
X102513417Y-99925895D01*
X102658104Y-100070582D01*
X102823650Y-100190859D01*
X103005968Y-100283754D01*
X103200578Y-100346988D01*
X103255000Y-100355607D01*
X103255000Y-98994686D01*
X103259394Y-98999080D01*
X103350606Y-99051741D01*
X103452339Y-99079000D01*
X103557661Y-99079000D01*
X103659394Y-99051741D01*
X103750606Y-98999080D01*
X103755000Y-98994686D01*
X103755000Y-100355606D01*
X103809421Y-100346988D01*
X104004031Y-100283754D01*
X104186349Y-100190859D01*
X104351894Y-100070582D01*
X104351895Y-100070582D01*
X104496582Y-99925895D01*
X104496582Y-99925894D01*
X104616861Y-99760347D01*
X104664234Y-99667371D01*
X104712208Y-99616575D01*
X104780028Y-99599779D01*
X104846164Y-99622316D01*
X104885203Y-99667369D01*
X104932713Y-99760611D01*
X105053028Y-99926213D01*
X105197786Y-100070971D01*
X105328720Y-100166098D01*
X105363390Y-100191287D01*
X105474238Y-100247767D01*
X105545776Y-100284218D01*
X105545778Y-100284218D01*
X105545781Y-100284220D01*
X105642014Y-100315488D01*
X105740465Y-100347477D01*
X105822392Y-100360453D01*
X105942648Y-100379500D01*
X105942649Y-100379500D01*
X106147351Y-100379500D01*
X106147352Y-100379500D01*
X106349534Y-100347477D01*
X106544219Y-100284220D01*
X106726610Y-100191287D01*
X106825189Y-100119666D01*
X106892213Y-100070971D01*
X106892215Y-100070968D01*
X106892219Y-100070966D01*
X107036966Y-99926219D01*
X107036968Y-99926215D01*
X107036971Y-99926213D01*
X107117945Y-99814760D01*
X107157287Y-99760610D01*
X107250220Y-99578219D01*
X107313477Y-99383534D01*
X107345500Y-99181352D01*
X107345500Y-98176648D01*
X107313477Y-97974466D01*
X107313476Y-97974462D01*
X107313476Y-97974461D01*
X107290356Y-97903305D01*
X107255499Y-97796028D01*
X107250220Y-97779781D01*
X107250218Y-97779778D01*
X107250218Y-97779776D01*
X107197297Y-97675914D01*
X107157287Y-97597390D01*
X107109877Y-97532135D01*
X107036971Y-97431786D01*
X106892213Y-97287028D01*
X106726613Y-97166715D01*
X106726612Y-97166714D01*
X106726610Y-97166713D01*
X106666898Y-97136288D01*
X106544223Y-97073781D01*
X106349534Y-97010522D01*
X106174995Y-96982878D01*
X106147352Y-96978500D01*
X105942648Y-96978500D01*
X105934870Y-96979732D01*
X105740465Y-97010522D01*
X105545776Y-97073781D01*
X105363386Y-97166715D01*
X105197786Y-97287028D01*
X105053028Y-97431786D01*
X104932713Y-97597388D01*
X104885203Y-97690630D01*
X104837228Y-97741426D01*
X104769407Y-97758220D01*
X104703272Y-97735682D01*
X104664234Y-97690628D01*
X104616861Y-97597652D01*
X104496582Y-97432105D01*
X104496582Y-97432104D01*
X104351895Y-97287417D01*
X104186349Y-97167140D01*
X104004029Y-97074244D01*
X103809413Y-97011009D01*
X103755000Y-97002390D01*
X103755000Y-98363314D01*
X103750606Y-98358920D01*
X103659394Y-98306259D01*
X103557661Y-98279000D01*
X103452339Y-98279000D01*
X103350606Y-98306259D01*
X103259394Y-98358920D01*
X103255000Y-98363314D01*
X103255000Y-97002390D01*
X103200586Y-97011009D01*
X103005970Y-97074244D01*
X102823650Y-97167140D01*
X102658105Y-97287417D01*
X102658104Y-97287417D01*
X102513417Y-97432104D01*
X102513417Y-97432105D01*
X102393140Y-97597650D01*
X102345765Y-97690629D01*
X102297790Y-97741425D01*
X102229969Y-97758220D01*
X102163834Y-97735682D01*
X102124795Y-97690629D01*
X102113990Y-97669424D01*
X102077287Y-97597390D01*
X102029877Y-97532135D01*
X101956971Y-97431786D01*
X101812213Y-97287028D01*
X101646613Y-97166715D01*
X101646612Y-97166714D01*
X101646610Y-97166713D01*
X101586898Y-97136288D01*
X101464223Y-97073781D01*
X101269534Y-97010522D01*
X101094995Y-96982878D01*
X101067352Y-96978500D01*
X100862648Y-96978500D01*
X100854870Y-96979732D01*
X100660465Y-97010522D01*
X100465776Y-97073781D01*
X100283386Y-97166715D01*
X100117786Y-97287028D01*
X99973032Y-97431782D01*
X99973028Y-97431787D01*
X99904978Y-97525451D01*
X99849648Y-97568117D01*
X99780035Y-97574096D01*
X99718240Y-97541490D01*
X99686954Y-97491570D01*
X99682395Y-97477811D01*
X99659814Y-97409666D01*
X99567712Y-97260344D01*
X99443656Y-97136288D01*
X99300639Y-97048075D01*
X99294336Y-97044187D01*
X99294331Y-97044185D01*
X99292862Y-97043698D01*
X99127797Y-96989001D01*
X99127795Y-96989000D01*
X99025016Y-96978500D01*
X97911100Y-96978500D01*
X97844061Y-96958815D01*
X97798306Y-96906011D01*
X97787100Y-96854500D01*
X97787100Y-92789830D01*
X97806785Y-92722791D01*
X97859589Y-92677036D01*
X97928747Y-92667092D01*
X97949403Y-92671895D01*
X98064751Y-92709374D01*
X98120465Y-92727477D01*
X98221557Y-92743488D01*
X98322648Y-92759500D01*
X98322649Y-92759500D01*
X98527351Y-92759500D01*
X98527352Y-92759500D01*
X98729534Y-92727477D01*
X98924219Y-92664220D01*
X99106610Y-92571287D01*
X99204026Y-92500511D01*
X99272213Y-92450971D01*
X99272215Y-92450968D01*
X99272219Y-92450966D01*
X99416966Y-92306219D01*
X99416968Y-92306215D01*
X99416971Y-92306213D01*
X99537284Y-92140614D01*
X99537285Y-92140613D01*
X99537287Y-92140610D01*
X99584516Y-92047917D01*
X99632489Y-91997123D01*
X99700310Y-91980328D01*
X99766445Y-92002865D01*
X99805483Y-92047917D01*
X99823711Y-92083690D01*
X99852715Y-92140614D01*
X99973028Y-92306213D01*
X100117786Y-92450971D01*
X100246450Y-92544449D01*
X100283390Y-92571287D01*
X100399139Y-92630264D01*
X100465776Y-92664218D01*
X100465778Y-92664218D01*
X100465781Y-92664220D01*
X100520684Y-92682059D01*
X100660465Y-92727477D01*
X100761557Y-92743488D01*
X100862648Y-92759500D01*
X100862649Y-92759500D01*
X101067351Y-92759500D01*
X101067352Y-92759500D01*
X101269534Y-92727477D01*
X101464219Y-92664220D01*
X101646610Y-92571287D01*
X101744026Y-92500511D01*
X101812213Y-92450971D01*
X101812215Y-92450968D01*
X101812219Y-92450966D01*
X101956966Y-92306219D01*
X101956968Y-92306215D01*
X101956971Y-92306213D01*
X102077284Y-92140614D01*
X102077285Y-92140613D01*
X102077287Y-92140610D01*
X102124516Y-92047917D01*
X102172489Y-91997123D01*
X102240310Y-91980328D01*
X102306445Y-92002865D01*
X102345483Y-92047917D01*
X102363711Y-92083690D01*
X102392715Y-92140614D01*
X102513028Y-92306213D01*
X102657786Y-92450971D01*
X102786450Y-92544449D01*
X102823390Y-92571287D01*
X102939139Y-92630264D01*
X103005776Y-92664218D01*
X103005778Y-92664218D01*
X103005781Y-92664220D01*
X103060684Y-92682059D01*
X103200465Y-92727477D01*
X103301557Y-92743488D01*
X103402648Y-92759500D01*
X103402649Y-92759500D01*
X103607351Y-92759500D01*
X103607352Y-92759500D01*
X103809534Y-92727477D01*
X104004219Y-92664220D01*
X104186610Y-92571287D01*
X104284026Y-92500511D01*
X104352213Y-92450971D01*
X104352215Y-92450968D01*
X104352219Y-92450966D01*
X104496966Y-92306219D01*
X104496968Y-92306215D01*
X104496971Y-92306213D01*
X104617284Y-92140614D01*
X104617285Y-92140613D01*
X104617287Y-92140610D01*
X104664516Y-92047917D01*
X104712489Y-91997123D01*
X104780310Y-91980328D01*
X104846445Y-92002865D01*
X104885483Y-92047917D01*
X104903711Y-92083690D01*
X104932715Y-92140614D01*
X105053028Y-92306213D01*
X105197786Y-92450971D01*
X105326450Y-92544449D01*
X105363390Y-92571287D01*
X105479139Y-92630264D01*
X105545776Y-92664218D01*
X105545778Y-92664218D01*
X105545781Y-92664220D01*
X105600684Y-92682059D01*
X105740465Y-92727477D01*
X105841557Y-92743488D01*
X105942648Y-92759500D01*
X105942649Y-92759500D01*
X106147351Y-92759500D01*
X106147352Y-92759500D01*
X106349534Y-92727477D01*
X106544219Y-92664220D01*
X106726610Y-92571287D01*
X106824026Y-92500511D01*
X106892213Y-92450971D01*
X106892215Y-92450968D01*
X106892219Y-92450966D01*
X107036966Y-92306219D01*
X107036968Y-92306215D01*
X107036971Y-92306213D01*
X107117945Y-92194760D01*
X107157287Y-92140610D01*
X107250220Y-91958219D01*
X107313477Y-91763534D01*
X107345500Y-91561352D01*
X107345500Y-90556648D01*
X107313477Y-90354466D01*
X107308838Y-90340190D01*
X107250218Y-90159776D01*
X107216099Y-90092815D01*
X107157287Y-89977390D01*
X107121766Y-89928499D01*
X107036971Y-89811786D01*
X106892217Y-89667032D01*
X106892212Y-89667028D01*
X106846615Y-89633900D01*
X106803949Y-89578571D01*
X106795500Y-89533582D01*
X106795500Y-89136625D01*
X106815185Y-89069586D01*
X106831819Y-89048944D01*
X106842443Y-89038320D01*
X106960690Y-88920073D01*
X107071760Y-88767199D01*
X107157547Y-88598832D01*
X107215940Y-88419118D01*
X107231090Y-88323466D01*
X107245500Y-88232486D01*
X107245500Y-88043513D01*
X107215940Y-87856881D01*
X107184027Y-87758666D01*
X107157547Y-87677168D01*
X107157545Y-87677165D01*
X107157545Y-87677163D01*
X107084321Y-87533454D01*
X107071760Y-87508801D01*
X106960690Y-87355927D01*
X106827073Y-87222310D01*
X106674199Y-87111240D01*
X106505836Y-87025454D01*
X106326118Y-86967059D01*
X106139486Y-86937500D01*
X106139481Y-86937500D01*
X105950519Y-86937500D01*
X105950514Y-86937500D01*
X105763880Y-86967060D01*
X105763877Y-86967060D01*
X105706118Y-86985828D01*
X105636277Y-86987823D01*
X105576444Y-86951743D01*
X105545616Y-86889042D01*
X105543800Y-86867897D01*
X105543800Y-81787576D01*
X105563485Y-81720537D01*
X105616289Y-81674782D01*
X105685447Y-81664838D01*
X105706119Y-81669645D01*
X105764000Y-81688452D01*
X105950553Y-81718000D01*
X106139447Y-81718000D01*
X106326002Y-81688451D01*
X106505637Y-81630085D01*
X106673937Y-81544331D01*
X106699328Y-81525883D01*
X106699328Y-81525882D01*
X106041446Y-80868000D01*
X106091078Y-80868000D01*
X106180095Y-80844148D01*
X106259905Y-80798070D01*
X106325070Y-80732905D01*
X106371148Y-80653095D01*
X106395000Y-80564078D01*
X106395000Y-80517999D01*
X106398554Y-80517999D01*
X106398554Y-80518000D01*
X107052882Y-81172328D01*
X107052883Y-81172328D01*
X107071331Y-81146937D01*
X107157085Y-80978637D01*
X107215451Y-80799002D01*
X107245000Y-80612447D01*
X107245000Y-80423552D01*
X107215451Y-80236997D01*
X107157085Y-80057362D01*
X107071329Y-79889059D01*
X107052883Y-79863670D01*
X107052882Y-79863669D01*
X106398554Y-80517999D01*
X106395000Y-80517999D01*
X106395000Y-80471922D01*
X106371148Y-80382905D01*
X106325070Y-80303095D01*
X106259905Y-80237930D01*
X106180095Y-80191852D01*
X106091078Y-80168000D01*
X106041444Y-80168000D01*
X106699328Y-79510116D01*
X106673933Y-79491666D01*
X106505637Y-79405914D01*
X106326002Y-79347548D01*
X106139447Y-79318000D01*
X105950553Y-79318000D01*
X105763997Y-79347548D01*
X105706118Y-79366354D01*
X105636276Y-79368349D01*
X105576444Y-79332268D01*
X105545616Y-79269567D01*
X105543800Y-79248423D01*
X105543800Y-76434079D01*
X105514959Y-76289092D01*
X105514958Y-76289091D01*
X105514958Y-76289087D01*
X105514956Y-76289082D01*
X105458387Y-76152511D01*
X105458380Y-76152498D01*
X105376252Y-76029585D01*
X105376251Y-76029584D01*
X105271716Y-75925049D01*
X104598253Y-75251586D01*
X104564770Y-75190265D01*
X104569754Y-75120573D01*
X104586666Y-75089600D01*
X104625796Y-75037331D01*
X104676091Y-74902483D01*
X104682500Y-74842873D01*
X104682499Y-72947128D01*
X104676091Y-72887517D01*
X104672877Y-72878901D01*
X104625797Y-72752671D01*
X104625793Y-72752664D01*
X104539547Y-72637455D01*
X104539544Y-72637452D01*
X104424335Y-72551206D01*
X104424328Y-72551202D01*
X104289482Y-72500908D01*
X104289483Y-72500908D01*
X104229883Y-72494501D01*
X104229881Y-72494500D01*
X104229873Y-72494500D01*
X104229864Y-72494500D01*
X103034129Y-72494500D01*
X103034123Y-72494501D01*
X102974516Y-72500908D01*
X102839671Y-72551202D01*
X102839664Y-72551206D01*
X102724455Y-72637452D01*
X102724452Y-72637455D01*
X102638206Y-72752664D01*
X102638202Y-72752671D01*
X102587908Y-72887517D01*
X102583191Y-72931395D01*
X102581500Y-72947127D01*
X102581500Y-73744925D01*
X102581501Y-74440500D01*
X102578950Y-74449185D01*
X102580239Y-74458147D01*
X102569260Y-74482187D01*
X102561816Y-74507539D01*
X102554975Y-74513466D01*
X102551214Y-74521703D01*
X102528981Y-74535990D01*
X102509013Y-74553294D01*
X102498497Y-74555581D01*
X102492436Y-74559477D01*
X102457501Y-74564500D01*
X102266500Y-74564500D01*
X102199461Y-74544815D01*
X102153706Y-74492011D01*
X102142500Y-74440500D01*
X102142500Y-73226445D01*
X102142499Y-73226441D01*
X102127842Y-73096351D01*
X102127841Y-73096349D01*
X102127841Y-73096343D01*
X102070122Y-72931394D01*
X101977147Y-72783424D01*
X101853576Y-72659853D01*
X101705606Y-72566878D01*
X101705605Y-72566877D01*
X101705604Y-72566877D01*
X101540658Y-72509159D01*
X101540648Y-72509157D01*
X101410558Y-72494500D01*
X101410552Y-72494500D01*
X100773448Y-72494500D01*
X100773441Y-72494500D01*
X100643351Y-72509157D01*
X100643341Y-72509159D01*
X100478395Y-72566877D01*
X100330423Y-72659853D01*
X100206853Y-72783423D01*
X100113877Y-72931395D01*
X100056159Y-73096341D01*
X100056157Y-73096351D01*
X100041500Y-73226441D01*
X100041500Y-74563558D01*
X100056157Y-74693648D01*
X100056159Y-74693658D01*
X100108376Y-74842883D01*
X100113878Y-74858606D01*
X100206853Y-75006576D01*
X100330424Y-75130147D01*
X100478394Y-75223122D01*
X100643343Y-75280841D01*
X100656955Y-75282374D01*
X100721369Y-75309439D01*
X100760925Y-75367033D01*
X100763065Y-75436870D01*
X100730755Y-75493276D01*
X93148048Y-83075983D01*
X93130216Y-83102671D01*
X93112502Y-83129184D01*
X93065919Y-83198899D01*
X93065912Y-83198911D01*
X93009343Y-83335482D01*
X93009340Y-83335492D01*
X92980500Y-83480479D01*
X92980500Y-85230769D01*
X92960815Y-85297808D01*
X92944181Y-85318450D01*
X92084166Y-86178464D01*
X92022843Y-86211949D01*
X91953151Y-86206965D01*
X91897218Y-86165093D01*
X91874012Y-86110181D01*
X91865676Y-86057548D01*
X91848940Y-85951882D01*
X91790547Y-85772168D01*
X91790545Y-85772165D01*
X91790545Y-85772163D01*
X91704759Y-85603800D01*
X91593690Y-85450927D01*
X91464818Y-85322055D01*
X91431334Y-85260732D01*
X91428500Y-85234374D01*
X91428500Y-84945625D01*
X91448185Y-84878586D01*
X91464819Y-84857944D01*
X91474680Y-84848083D01*
X91593690Y-84729073D01*
X91704760Y-84576199D01*
X91790547Y-84407832D01*
X91848940Y-84228118D01*
X91865450Y-84123877D01*
X91878500Y-84041486D01*
X91878500Y-83852513D01*
X91848940Y-83665881D01*
X91790545Y-83486163D01*
X91704759Y-83317800D01*
X91698234Y-83308819D01*
X91593690Y-83164927D01*
X91460073Y-83031310D01*
X91307199Y-82920240D01*
X91271205Y-82901900D01*
X91138836Y-82834454D01*
X90959118Y-82776059D01*
X90772486Y-82746500D01*
X90772481Y-82746500D01*
X90583519Y-82746500D01*
X90583514Y-82746500D01*
X90396881Y-82776059D01*
X90217163Y-82834454D01*
X90048800Y-82920240D01*
X89961579Y-82983610D01*
X89895927Y-83031310D01*
X89895925Y-83031312D01*
X89895924Y-83031312D01*
X89762312Y-83164924D01*
X89762312Y-83164925D01*
X89762310Y-83164927D01*
X89737619Y-83198911D01*
X89651240Y-83317800D01*
X89565454Y-83486163D01*
X89507059Y-83665881D01*
X89477500Y-83852513D01*
X89477500Y-84041486D01*
X89507059Y-84228118D01*
X89565454Y-84407836D01*
X89651240Y-84576199D01*
X89762310Y-84729073D01*
X89762312Y-84729075D01*
X89891181Y-84857944D01*
X89924666Y-84919267D01*
X89927500Y-84945625D01*
X89927500Y-85234374D01*
X89907815Y-85301413D01*
X89891182Y-85322055D01*
X89762309Y-85450928D01*
X89651240Y-85603800D01*
X89565454Y-85772163D01*
X89507059Y-85951881D01*
X89477500Y-86138513D01*
X89477500Y-86320769D01*
X89457815Y-86387808D01*
X89441181Y-86408450D01*
X88766748Y-87082883D01*
X88747801Y-87111241D01*
X88684614Y-87205808D01*
X88628043Y-87342382D01*
X88628040Y-87342392D01*
X88599200Y-87487379D01*
X88599200Y-87487382D01*
X88599200Y-90058618D01*
X88599200Y-90058620D01*
X88599199Y-90058620D01*
X88628040Y-90203607D01*
X88628043Y-90203617D01*
X88684613Y-90340190D01*
X88684614Y-90340191D01*
X88684616Y-90340195D01*
X88707910Y-90375056D01*
X88707911Y-90375059D01*
X88766743Y-90463110D01*
X88766747Y-90463115D01*
X89441181Y-91137549D01*
X89474666Y-91198872D01*
X89477500Y-91225230D01*
X89477500Y-91407486D01*
X89507059Y-91594118D01*
X89565454Y-91773836D01*
X89623349Y-91887460D01*
X89651240Y-91942199D01*
X89762310Y-92095073D01*
X89895927Y-92228690D01*
X90048801Y-92339760D01*
X90185272Y-92409295D01*
X90236068Y-92457269D01*
X90252863Y-92525090D01*
X90230326Y-92591225D01*
X90185273Y-92630264D01*
X90049063Y-92699668D01*
X90023670Y-92718116D01*
X90023669Y-92718116D01*
X90678000Y-93372446D01*
X90678001Y-93372446D01*
X91332328Y-92718116D01*
X91306933Y-92699666D01*
X91170727Y-92630265D01*
X91119931Y-92582290D01*
X91103136Y-92514469D01*
X91125674Y-92448334D01*
X91170728Y-92409295D01*
X91237075Y-92375490D01*
X91307199Y-92339760D01*
X91460073Y-92228690D01*
X91593690Y-92095073D01*
X91704760Y-91942199D01*
X91790547Y-91773832D01*
X91848940Y-91594118D01*
X91863892Y-91499714D01*
X91878500Y-91407486D01*
X91878500Y-91218513D01*
X91848940Y-91031881D01*
X91790545Y-90852163D01*
X91704759Y-90683800D01*
X91693845Y-90668778D01*
X91593690Y-90530927D01*
X91460073Y-90397310D01*
X91307199Y-90286240D01*
X91138836Y-90200454D01*
X90959118Y-90142059D01*
X90772486Y-90112500D01*
X90772481Y-90112500D01*
X90590230Y-90112500D01*
X90560789Y-90103855D01*
X90530803Y-90097332D01*
X90525787Y-90093577D01*
X90523191Y-90092815D01*
X90502549Y-90076181D01*
X90484001Y-90057633D01*
X90450516Y-89996310D01*
X90455500Y-89926618D01*
X90497372Y-89870685D01*
X90562836Y-89846268D01*
X90581408Y-89846334D01*
X90583518Y-89846500D01*
X90583519Y-89846500D01*
X90772486Y-89846500D01*
X90959118Y-89816940D01*
X90974980Y-89811786D01*
X91138832Y-89758547D01*
X91307199Y-89672760D01*
X91460073Y-89561690D01*
X91593690Y-89428073D01*
X91704760Y-89275199D01*
X91790547Y-89106832D01*
X91848940Y-88927118D01*
X91849672Y-88922498D01*
X91878500Y-88740486D01*
X91878500Y-88558229D01*
X91898185Y-88491190D01*
X91914819Y-88470548D01*
X93100125Y-87285243D01*
X94313952Y-86071416D01*
X94332960Y-86042966D01*
X94371739Y-85984931D01*
X94371741Y-85984926D01*
X94371747Y-85984918D01*
X94396084Y-85948495D01*
X94452658Y-85811913D01*
X94481500Y-85666918D01*
X94481500Y-83916629D01*
X94501185Y-83849590D01*
X94517814Y-83828953D01*
X97294631Y-81052135D01*
X97355952Y-81018652D01*
X97425644Y-81023636D01*
X97481577Y-81065508D01*
X97492794Y-81083522D01*
X97525238Y-81147196D01*
X97525240Y-81147199D01*
X97636310Y-81300073D01*
X97769927Y-81433690D01*
X97922801Y-81544760D01*
X97986930Y-81577435D01*
X98091163Y-81630545D01*
X98091165Y-81630545D01*
X98091168Y-81630547D01*
X98167002Y-81655187D01*
X98270881Y-81688940D01*
X98457514Y-81718500D01*
X98457519Y-81718500D01*
X98646486Y-81718500D01*
X98833118Y-81688940D01*
X98834623Y-81688451D01*
X99012832Y-81630547D01*
X99181199Y-81544760D01*
X99334073Y-81433690D01*
X99467690Y-81300073D01*
X99578760Y-81147199D01*
X99648015Y-81011278D01*
X99695990Y-80960482D01*
X99763810Y-80943687D01*
X99829945Y-80966224D01*
X99868985Y-81011278D01*
X99938240Y-81147199D01*
X100049310Y-81300073D01*
X100182927Y-81433690D01*
X100335801Y-81544760D01*
X100399930Y-81577435D01*
X100504163Y-81630545D01*
X100504165Y-81630545D01*
X100504168Y-81630547D01*
X100580002Y-81655187D01*
X100683881Y-81688940D01*
X100870514Y-81718500D01*
X100870519Y-81718500D01*
X101059486Y-81718500D01*
X101246118Y-81688940D01*
X101247623Y-81688451D01*
X101425832Y-81630547D01*
X101594199Y-81544760D01*
X101747073Y-81433690D01*
X101880690Y-81300073D01*
X101991760Y-81147199D01*
X102077547Y-80978832D01*
X102117332Y-80856385D01*
X102156768Y-80798713D01*
X102221127Y-80771514D01*
X102289973Y-80783429D01*
X102341449Y-80830673D01*
X102353193Y-80856388D01*
X102392914Y-80978637D01*
X102478666Y-81146933D01*
X102497116Y-81172328D01*
X103151446Y-80518000D01*
X103151446Y-80517999D01*
X102497116Y-79863669D01*
X102497116Y-79863670D01*
X102478669Y-79889060D01*
X102392915Y-80057361D01*
X102353193Y-80179612D01*
X102313755Y-80237287D01*
X102249396Y-80264485D01*
X102180550Y-80252570D01*
X102129074Y-80205326D01*
X102117332Y-80179614D01*
X102077547Y-80057168D01*
X101991760Y-79888801D01*
X101880690Y-79735927D01*
X101747073Y-79602310D01*
X101594199Y-79491240D01*
X101594195Y-79491238D01*
X101425836Y-79405454D01*
X101246118Y-79347059D01*
X101059486Y-79317500D01*
X101059481Y-79317500D01*
X100870519Y-79317500D01*
X100870514Y-79317500D01*
X100683881Y-79347059D01*
X100504163Y-79405454D01*
X100335800Y-79491240D01*
X100253644Y-79550931D01*
X100182927Y-79602310D01*
X100182925Y-79602312D01*
X100182924Y-79602312D01*
X100049312Y-79735924D01*
X100049312Y-79735925D01*
X100049310Y-79735927D01*
X100011401Y-79788104D01*
X99938240Y-79888800D01*
X99868985Y-80024721D01*
X99821010Y-80075517D01*
X99753189Y-80092312D01*
X99687054Y-80069774D01*
X99648015Y-80024721D01*
X99590897Y-79912622D01*
X99578760Y-79888801D01*
X99467690Y-79735927D01*
X99334073Y-79602310D01*
X99181199Y-79491240D01*
X99181198Y-79491239D01*
X99181196Y-79491238D01*
X99117522Y-79458794D01*
X99066727Y-79410820D01*
X99049932Y-79342999D01*
X99072470Y-79276864D01*
X99086131Y-79260635D01*
X101287159Y-77059607D01*
X101348480Y-77026124D01*
X101418172Y-77031108D01*
X101472085Y-77071468D01*
X101472510Y-77071130D01*
X101473808Y-77072757D01*
X101474105Y-77072980D01*
X101474850Y-77074064D01*
X101476853Y-77076576D01*
X101600424Y-77200147D01*
X101748394Y-77293122D01*
X101913343Y-77350841D01*
X101913349Y-77350841D01*
X101913351Y-77350842D01*
X101954750Y-77355506D01*
X102043442Y-77365499D01*
X102043445Y-77365500D01*
X102043448Y-77365500D01*
X102680555Y-77365500D01*
X102680556Y-77365499D01*
X102810657Y-77350841D01*
X102975606Y-77293122D01*
X103123576Y-77200147D01*
X103247147Y-77076576D01*
X103340122Y-76928606D01*
X103397841Y-76763657D01*
X103412500Y-76633552D01*
X103412500Y-76487929D01*
X103432185Y-76420890D01*
X103484989Y-76375135D01*
X103554147Y-76365191D01*
X103617703Y-76394216D01*
X103624181Y-76400248D01*
X104006481Y-76782548D01*
X104039966Y-76843871D01*
X104042800Y-76870229D01*
X104042800Y-79260315D01*
X104023115Y-79327354D01*
X103970311Y-79373109D01*
X103901153Y-79383053D01*
X103880482Y-79378246D01*
X103786002Y-79347548D01*
X103599447Y-79318000D01*
X103410553Y-79318000D01*
X103223997Y-79347548D01*
X103044362Y-79405914D01*
X102876060Y-79491669D01*
X102850670Y-79510116D01*
X102850669Y-79510116D01*
X103508553Y-80168000D01*
X103458922Y-80168000D01*
X103369905Y-80191852D01*
X103290095Y-80237930D01*
X103224930Y-80303095D01*
X103178852Y-80382905D01*
X103155000Y-80471922D01*
X103155000Y-80564078D01*
X103178852Y-80653095D01*
X103224930Y-80732905D01*
X103290095Y-80798070D01*
X103369905Y-80844148D01*
X103458922Y-80868000D01*
X103508552Y-80868000D01*
X102850669Y-81525882D01*
X102850670Y-81525883D01*
X102876059Y-81544329D01*
X103044362Y-81630085D01*
X103223997Y-81688451D01*
X103410553Y-81718000D01*
X103599447Y-81718000D01*
X103785999Y-81688452D01*
X103880481Y-81657753D01*
X103950322Y-81655758D01*
X104010155Y-81691838D01*
X104040984Y-81754539D01*
X104042800Y-81775684D01*
X104042800Y-86487470D01*
X104023115Y-86554509D01*
X104006481Y-86575151D01*
X103680451Y-86901181D01*
X103619128Y-86934666D01*
X103592770Y-86937500D01*
X103410514Y-86937500D01*
X103223881Y-86967059D01*
X103044163Y-87025454D01*
X102875800Y-87111240D01*
X102788579Y-87174610D01*
X102722927Y-87222310D01*
X102722925Y-87222312D01*
X102722924Y-87222312D01*
X102589312Y-87355924D01*
X102589312Y-87355925D01*
X102589310Y-87355927D01*
X102541610Y-87421579D01*
X102478240Y-87508800D01*
X102392454Y-87677163D01*
X102352931Y-87798803D01*
X102313493Y-87856478D01*
X102249134Y-87883676D01*
X102180288Y-87871761D01*
X102128812Y-87824516D01*
X102117069Y-87798803D01*
X102104027Y-87758666D01*
X102077547Y-87677168D01*
X102077545Y-87677165D01*
X102077545Y-87677163D01*
X102004321Y-87533454D01*
X101991760Y-87508801D01*
X101880690Y-87355927D01*
X101747073Y-87222310D01*
X101594199Y-87111240D01*
X101425836Y-87025454D01*
X101246118Y-86967059D01*
X101059486Y-86937500D01*
X101059481Y-86937500D01*
X100870519Y-86937500D01*
X100870514Y-86937500D01*
X100683881Y-86967059D01*
X100504163Y-87025454D01*
X100335800Y-87111240D01*
X100248579Y-87174610D01*
X100182927Y-87222310D01*
X100182925Y-87222312D01*
X100182924Y-87222312D01*
X100049312Y-87355924D01*
X100049312Y-87355925D01*
X100049310Y-87355927D01*
X100001610Y-87421579D01*
X99938240Y-87508800D01*
X99868985Y-87644721D01*
X99821010Y-87695517D01*
X99753189Y-87712312D01*
X99687054Y-87689774D01*
X99648015Y-87644721D01*
X99591321Y-87533454D01*
X99578760Y-87508801D01*
X99467690Y-87355927D01*
X99334073Y-87222310D01*
X99181199Y-87111240D01*
X99012836Y-87025454D01*
X98833118Y-86967059D01*
X98646486Y-86937500D01*
X98646481Y-86937500D01*
X98457519Y-86937500D01*
X98457514Y-86937500D01*
X98270881Y-86967059D01*
X98091163Y-87025454D01*
X97922800Y-87111240D01*
X97835579Y-87174610D01*
X97769927Y-87222310D01*
X97769925Y-87222312D01*
X97769924Y-87222312D01*
X97636312Y-87355924D01*
X97636312Y-87355925D01*
X97636310Y-87355927D01*
X97588610Y-87421579D01*
X97525240Y-87508800D01*
X97439454Y-87677163D01*
X97381059Y-87856881D01*
X97351500Y-88043513D01*
X97351500Y-88225770D01*
X97331815Y-88292809D01*
X97315181Y-88313451D01*
X96453647Y-89174984D01*
X96453645Y-89174986D01*
X96418221Y-89228006D01*
X96418219Y-89228009D01*
X96371519Y-89297899D01*
X96371512Y-89297911D01*
X96314943Y-89434482D01*
X96314940Y-89434492D01*
X96286100Y-89579479D01*
X96286100Y-93942174D01*
X96283238Y-93951920D01*
X96284505Y-93962001D01*
X96273559Y-93984883D01*
X96266415Y-94009213D01*
X96258738Y-94015864D01*
X96254354Y-94025031D01*
X96232773Y-94038363D01*
X96213611Y-94054968D01*
X96203557Y-94056413D01*
X96194913Y-94061754D01*
X96169554Y-94061302D01*
X96144453Y-94064912D01*
X96133352Y-94060658D01*
X96125054Y-94060511D01*
X96093213Y-94045279D01*
X96074248Y-94032608D01*
X96074245Y-94032606D01*
X96058995Y-94022416D01*
X96058990Y-94022413D01*
X95922417Y-93965843D01*
X95922407Y-93965840D01*
X95777420Y-93937000D01*
X95777418Y-93937000D01*
X94887482Y-93937000D01*
X94876837Y-93939117D01*
X94852647Y-93941500D01*
X94828055Y-93941500D01*
X94673410Y-93972261D01*
X94673398Y-93972264D01*
X94527727Y-94032602D01*
X94527714Y-94032609D01*
X94396611Y-94120210D01*
X94396607Y-94120213D01*
X94285113Y-94231707D01*
X94285110Y-94231711D01*
X94197509Y-94362814D01*
X94197502Y-94362827D01*
X94137164Y-94508498D01*
X94137161Y-94508510D01*
X94106400Y-94663153D01*
X94106400Y-94820846D01*
X94137161Y-94975489D01*
X94137164Y-94975501D01*
X94197502Y-95121172D01*
X94197509Y-95121185D01*
X94285110Y-95252288D01*
X94285113Y-95252292D01*
X94396607Y-95363786D01*
X94396611Y-95363789D01*
X94527714Y-95451390D01*
X94527727Y-95451397D01*
X94606258Y-95483925D01*
X94673403Y-95511737D01*
X94805963Y-95538105D01*
X94828053Y-95542499D01*
X94828056Y-95542500D01*
X94828058Y-95542500D01*
X94985743Y-95542500D01*
X95018701Y-95535943D01*
X95103309Y-95519114D01*
X95172899Y-95525341D01*
X95228077Y-95568203D01*
X95251322Y-95634093D01*
X95251500Y-95640731D01*
X95251500Y-109775714D01*
X95231815Y-109842753D01*
X95179011Y-109888508D01*
X95109853Y-109898452D01*
X95089184Y-109893645D01*
X95046088Y-109879643D01*
X94919534Y-109838522D01*
X94744995Y-109810878D01*
X94717352Y-109806500D01*
X94512648Y-109806500D01*
X94488329Y-109810351D01*
X94310465Y-109838522D01*
X94115776Y-109901781D01*
X93933386Y-109994715D01*
X93767786Y-110115028D01*
X93623032Y-110259782D01*
X93623031Y-110259784D01*
X93582447Y-110315642D01*
X93527117Y-110358307D01*
X93457503Y-110364285D01*
X93395709Y-110331678D01*
X93364425Y-110281760D01*
X93349814Y-110237666D01*
X93257712Y-110088344D01*
X93133656Y-109964288D01*
X93019125Y-109893645D01*
X92984336Y-109872187D01*
X92984331Y-109872185D01*
X92931613Y-109854716D01*
X92817797Y-109817001D01*
X92817795Y-109817000D01*
X92715010Y-109806500D01*
X91514998Y-109806500D01*
X91514981Y-109806501D01*
X91412203Y-109817000D01*
X91412200Y-109817001D01*
X91245668Y-109872185D01*
X91245663Y-109872187D01*
X91096342Y-109964289D01*
X90972289Y-110088342D01*
X90880187Y-110237663D01*
X90880185Y-110237668D01*
X90875374Y-110252187D01*
X90825001Y-110404203D01*
X90825001Y-110404204D01*
X90825000Y-110404204D01*
X90814500Y-110506983D01*
X90814500Y-111707001D01*
X90814501Y-111707018D01*
X90825000Y-111809796D01*
X90825001Y-111809799D01*
X90854347Y-111898358D01*
X90880186Y-111976334D01*
X90972288Y-112125656D01*
X91096344Y-112249712D01*
X91245666Y-112341814D01*
X91412203Y-112396999D01*
X91514991Y-112407500D01*
X92715008Y-112407499D01*
X92817797Y-112396999D01*
X92984334Y-112341814D01*
X93133656Y-112249712D01*
X93257712Y-112125656D01*
X93349814Y-111976334D01*
X93364426Y-111932237D01*
X93404195Y-111874796D01*
X93468711Y-111847972D01*
X93537487Y-111860286D01*
X93582448Y-111898358D01*
X93623032Y-111954217D01*
X93767786Y-112098971D01*
X93886500Y-112185220D01*
X93933390Y-112219287D01*
X94032916Y-112269998D01*
X94115776Y-112312218D01*
X94115778Y-112312218D01*
X94115781Y-112312220D01*
X94193462Y-112337460D01*
X94310465Y-112375477D01*
X94398068Y-112389352D01*
X94512648Y-112407500D01*
X94512649Y-112407500D01*
X94717351Y-112407500D01*
X94717352Y-112407500D01*
X94919534Y-112375477D01*
X95089185Y-112320353D01*
X95159022Y-112318359D01*
X95218855Y-112354439D01*
X95249684Y-112417139D01*
X95251500Y-112438285D01*
X95251500Y-115188582D01*
X95231815Y-115255621D01*
X95179011Y-115301376D01*
X95109853Y-115311320D01*
X95054615Y-115288901D01*
X94934609Y-115201712D01*
X94752223Y-115108781D01*
X94557534Y-115045522D01*
X94382995Y-115017878D01*
X94355352Y-115013500D01*
X93350648Y-115013500D01*
X93326329Y-115017351D01*
X93148465Y-115045522D01*
X92953776Y-115108781D01*
X92771386Y-115201715D01*
X92605786Y-115322028D01*
X92461028Y-115466786D01*
X92340715Y-115632386D01*
X92247781Y-115814776D01*
X92184522Y-116009465D01*
X92152500Y-116211648D01*
X92152500Y-116416351D01*
X92184522Y-116618534D01*
X92247781Y-116813223D01*
X92340715Y-116995613D01*
X92461028Y-117161213D01*
X92605786Y-117305971D01*
X92722909Y-117391064D01*
X92771390Y-117426287D01*
X92849981Y-117466331D01*
X92864080Y-117473515D01*
X92914876Y-117521490D01*
X92931671Y-117589311D01*
X92909134Y-117655446D01*
X92864080Y-117694485D01*
X92771386Y-117741715D01*
X92605786Y-117862028D01*
X92461032Y-118006782D01*
X92461028Y-118006787D01*
X92427900Y-118052385D01*
X92372571Y-118095051D01*
X92327582Y-118103500D01*
X90749080Y-118103500D01*
X90604092Y-118132340D01*
X90604082Y-118132343D01*
X90467511Y-118188912D01*
X90467498Y-118188919D01*
X90344584Y-118271048D01*
X90344580Y-118271051D01*
X89608181Y-119007451D01*
X89546858Y-119040936D01*
X89477166Y-119035952D01*
X89421233Y-118994080D01*
X89396816Y-118928616D01*
X89396500Y-118919770D01*
X89396500Y-108820229D01*
X89416185Y-108753190D01*
X89432814Y-108732552D01*
X90502548Y-107662818D01*
X90563871Y-107629334D01*
X90590229Y-107626500D01*
X90772486Y-107626500D01*
X90959118Y-107596940D01*
X91138832Y-107538547D01*
X91307199Y-107452760D01*
X91460073Y-107341690D01*
X91593690Y-107208073D01*
X91704760Y-107055199D01*
X91790547Y-106886832D01*
X91848940Y-106707118D01*
X91858792Y-106644913D01*
X91878500Y-106520486D01*
X91878500Y-106331513D01*
X91848940Y-106144881D01*
X91821846Y-106061497D01*
X91790547Y-105965168D01*
X91790545Y-105965165D01*
X91790545Y-105965163D01*
X91743187Y-105872218D01*
X91704760Y-105796801D01*
X91593690Y-105643927D01*
X91460073Y-105510310D01*
X91307199Y-105399240D01*
X91138836Y-105313454D01*
X90959118Y-105255059D01*
X90772486Y-105225500D01*
X90772481Y-105225500D01*
X90583519Y-105225500D01*
X90583514Y-105225500D01*
X90396881Y-105255059D01*
X90217163Y-105313454D01*
X90048800Y-105399240D01*
X89964252Y-105460669D01*
X89895927Y-105510310D01*
X89895925Y-105510312D01*
X89895924Y-105510312D01*
X89762312Y-105643924D01*
X89762312Y-105643925D01*
X89762310Y-105643927D01*
X89723398Y-105697484D01*
X89651240Y-105796800D01*
X89565454Y-105965163D01*
X89507059Y-106144881D01*
X89477500Y-106331513D01*
X89477500Y-106513769D01*
X89457815Y-106580808D01*
X89441181Y-106601450D01*
X88063050Y-107979580D01*
X88063044Y-107979588D01*
X88013812Y-108053268D01*
X88013813Y-108053269D01*
X87980921Y-108102496D01*
X87980914Y-108102508D01*
X87924342Y-108239086D01*
X87924340Y-108239092D01*
X87895500Y-108384079D01*
X87895500Y-115115770D01*
X87875815Y-115182809D01*
X87823011Y-115228564D01*
X87753853Y-115238508D01*
X87690297Y-115209483D01*
X87683819Y-115203451D01*
X87651657Y-115171289D01*
X87651656Y-115171288D01*
X87550314Y-115108780D01*
X87502336Y-115079187D01*
X87502331Y-115079185D01*
X87500862Y-115078698D01*
X87335797Y-115024001D01*
X87335795Y-115024000D01*
X87233010Y-115013500D01*
X85232998Y-115013500D01*
X85232981Y-115013501D01*
X85130203Y-115024000D01*
X85130200Y-115024001D01*
X84963668Y-115079185D01*
X84963663Y-115079187D01*
X84814342Y-115171289D01*
X84690289Y-115295342D01*
X84598187Y-115444663D01*
X84598185Y-115444668D01*
X84542999Y-115611209D01*
X84542532Y-115613391D01*
X84541873Y-115614605D01*
X84540872Y-115617629D01*
X84540332Y-115617450D01*
X84509243Y-115674821D01*
X84448028Y-115708502D01*
X84378320Y-115703741D01*
X84322253Y-115662049D01*
X84320964Y-115660307D01*
X84300678Y-115632386D01*
X84227690Y-115531927D01*
X84094073Y-115398310D01*
X83941199Y-115287240D01*
X83905079Y-115268836D01*
X83772836Y-115201454D01*
X83593118Y-115143059D01*
X83406486Y-115113500D01*
X83406481Y-115113500D01*
X83217519Y-115113500D01*
X83217514Y-115113500D01*
X83030880Y-115143060D01*
X83030877Y-115143060D01*
X82953018Y-115168359D01*
X82883177Y-115170354D01*
X82823344Y-115134274D01*
X82792516Y-115071573D01*
X82790700Y-115050428D01*
X82790700Y-112404499D01*
X82810385Y-112337460D01*
X82863189Y-112291705D01*
X82914700Y-112280499D01*
X83698002Y-112280499D01*
X83698008Y-112280499D01*
X83800797Y-112269999D01*
X83967334Y-112214814D01*
X84116656Y-112122712D01*
X84240712Y-111998656D01*
X84332814Y-111849334D01*
X84347426Y-111805237D01*
X84387195Y-111747796D01*
X84451711Y-111720972D01*
X84520487Y-111733286D01*
X84565448Y-111771358D01*
X84606032Y-111827217D01*
X84750786Y-111971971D01*
X84846341Y-112041394D01*
X84916390Y-112092287D01*
X85032607Y-112151503D01*
X85098776Y-112185218D01*
X85098778Y-112185218D01*
X85098781Y-112185220D01*
X85189856Y-112214812D01*
X85293465Y-112248477D01*
X85364583Y-112259741D01*
X85495648Y-112280500D01*
X85495649Y-112280500D01*
X85700351Y-112280500D01*
X85700352Y-112280500D01*
X85902534Y-112248477D01*
X86097219Y-112185220D01*
X86279610Y-112092287D01*
X86408482Y-111998657D01*
X86445213Y-111971971D01*
X86445215Y-111971968D01*
X86445219Y-111971966D01*
X86589966Y-111827219D01*
X86589968Y-111827215D01*
X86589971Y-111827213D01*
X86677303Y-111707009D01*
X86710287Y-111661610D01*
X86803220Y-111479219D01*
X86866477Y-111284534D01*
X86898500Y-111082352D01*
X86898500Y-110877648D01*
X86887097Y-110805652D01*
X86866477Y-110675465D01*
X86811736Y-110506991D01*
X86803220Y-110480781D01*
X86803218Y-110480778D01*
X86803218Y-110480776D01*
X86751865Y-110379991D01*
X86710287Y-110298390D01*
X86694894Y-110277203D01*
X86589971Y-110132786D01*
X86445217Y-109988032D01*
X86445212Y-109988028D01*
X86399615Y-109954900D01*
X86356949Y-109899571D01*
X86348500Y-109854582D01*
X86348500Y-108892079D01*
X86319659Y-108747092D01*
X86319658Y-108747091D01*
X86319658Y-108747087D01*
X86313636Y-108732548D01*
X86263087Y-108610511D01*
X86263080Y-108610498D01*
X86180952Y-108487585D01*
X86180951Y-108487584D01*
X86076416Y-108383049D01*
X84294819Y-106601452D01*
X84261334Y-106540129D01*
X84258500Y-106513771D01*
X84258500Y-106331513D01*
X84228940Y-106144881D01*
X84201846Y-106061497D01*
X84170547Y-105965168D01*
X84170545Y-105965165D01*
X84170545Y-105965163D01*
X84123187Y-105872218D01*
X84084760Y-105796801D01*
X83973690Y-105643927D01*
X83840073Y-105510310D01*
X83687199Y-105399240D01*
X83518836Y-105313454D01*
X83339118Y-105255059D01*
X83152486Y-105225500D01*
X83152481Y-105225500D01*
X82963519Y-105225500D01*
X82963514Y-105225500D01*
X82776881Y-105255059D01*
X82597163Y-105313454D01*
X82428800Y-105399240D01*
X82344252Y-105460669D01*
X82275927Y-105510310D01*
X82275925Y-105510312D01*
X82275924Y-105510312D01*
X82142312Y-105643924D01*
X82142312Y-105643925D01*
X82142310Y-105643927D01*
X82106780Y-105692829D01*
X82031236Y-105796805D01*
X81968346Y-105920234D01*
X81920372Y-105971030D01*
X81852551Y-105987825D01*
X81786416Y-105965287D01*
X81744614Y-105913028D01*
X81744432Y-105913122D01*
X81743980Y-105912235D01*
X81743296Y-105911380D01*
X81742218Y-105908777D01*
X81723590Y-105872218D01*
X81649287Y-105726390D01*
X81597518Y-105655135D01*
X81528971Y-105560786D01*
X81384213Y-105416028D01*
X81218614Y-105295715D01*
X81212006Y-105292348D01*
X81125917Y-105248483D01*
X81075123Y-105200511D01*
X81058328Y-105132690D01*
X81080865Y-105066555D01*
X81125917Y-105027516D01*
X81218610Y-104980287D01*
X81243893Y-104961918D01*
X81384213Y-104859971D01*
X81384215Y-104859968D01*
X81384219Y-104859966D01*
X81528966Y-104715219D01*
X81531650Y-104711524D01*
X81562100Y-104669615D01*
X81617429Y-104626949D01*
X81662418Y-104618500D01*
X81962620Y-104618500D01*
X82060162Y-104599096D01*
X82107613Y-104589658D01*
X82244195Y-104533084D01*
X82314793Y-104485912D01*
X82367116Y-104450952D01*
X83640952Y-103177116D01*
X83712532Y-103069987D01*
X83723084Y-103054195D01*
X83779658Y-102917613D01*
X83799654Y-102817091D01*
X83808500Y-102772620D01*
X83808500Y-99686882D01*
X90023669Y-99686882D01*
X90023670Y-99686883D01*
X90049059Y-99705329D01*
X90217362Y-99791085D01*
X90396997Y-99849451D01*
X90583553Y-99879000D01*
X90772447Y-99879000D01*
X90959002Y-99849451D01*
X91138637Y-99791085D01*
X91306937Y-99705331D01*
X91332328Y-99686883D01*
X91332328Y-99686882D01*
X90678001Y-99032554D01*
X90678000Y-99032554D01*
X90023669Y-99686882D01*
X83808500Y-99686882D01*
X83808500Y-99677625D01*
X83817144Y-99648184D01*
X83823668Y-99618198D01*
X83827422Y-99613182D01*
X83828185Y-99610586D01*
X83844819Y-99589944D01*
X83882821Y-99551942D01*
X83914703Y-99520060D01*
X83973690Y-99461073D01*
X84084760Y-99308199D01*
X84170547Y-99139832D01*
X84228940Y-98960118D01*
X84233235Y-98932999D01*
X84258500Y-98773486D01*
X84258500Y-98584552D01*
X89478000Y-98584552D01*
X89478000Y-98773447D01*
X89507548Y-98960002D01*
X89565914Y-99139637D01*
X89651666Y-99307933D01*
X89670116Y-99333328D01*
X90324446Y-98679000D01*
X90324446Y-98678999D01*
X90278369Y-98632922D01*
X90328000Y-98632922D01*
X90328000Y-98725078D01*
X90351852Y-98814095D01*
X90397930Y-98893905D01*
X90463095Y-98959070D01*
X90542905Y-99005148D01*
X90631922Y-99029000D01*
X90724078Y-99029000D01*
X90813095Y-99005148D01*
X90892905Y-98959070D01*
X90958070Y-98893905D01*
X91004148Y-98814095D01*
X91028000Y-98725078D01*
X91028000Y-98678999D01*
X91031554Y-98678999D01*
X91031554Y-98679000D01*
X91685882Y-99333328D01*
X91685883Y-99333328D01*
X91704331Y-99307937D01*
X91790085Y-99139637D01*
X91848451Y-98960002D01*
X91878000Y-98773447D01*
X91878000Y-98584552D01*
X91848451Y-98397997D01*
X91790085Y-98218362D01*
X91704329Y-98050059D01*
X91685883Y-98024670D01*
X91685882Y-98024669D01*
X91031554Y-98678999D01*
X91028000Y-98678999D01*
X91028000Y-98632922D01*
X91004148Y-98543905D01*
X90958070Y-98464095D01*
X90892905Y-98398930D01*
X90813095Y-98352852D01*
X90724078Y-98329000D01*
X90631922Y-98329000D01*
X90542905Y-98352852D01*
X90463095Y-98398930D01*
X90397930Y-98464095D01*
X90351852Y-98543905D01*
X90328000Y-98632922D01*
X90278369Y-98632922D01*
X89670116Y-98024669D01*
X89670116Y-98024670D01*
X89651669Y-98050060D01*
X89565914Y-98218362D01*
X89507548Y-98397997D01*
X89478000Y-98584552D01*
X84258500Y-98584552D01*
X84258500Y-98584513D01*
X84228940Y-98397881D01*
X84197198Y-98300190D01*
X84170547Y-98218168D01*
X84170545Y-98218165D01*
X84170545Y-98218163D01*
X84113591Y-98106386D01*
X84084760Y-98049801D01*
X83973690Y-97896927D01*
X83840073Y-97763310D01*
X83687199Y-97652240D01*
X83551278Y-97582985D01*
X83500482Y-97535010D01*
X83483687Y-97467190D01*
X83506224Y-97401055D01*
X83551278Y-97362015D01*
X83555066Y-97360085D01*
X83687199Y-97292760D01*
X83713182Y-97273882D01*
X90023669Y-97273882D01*
X90023670Y-97273883D01*
X90049059Y-97292329D01*
X90185822Y-97362015D01*
X90236618Y-97409990D01*
X90253413Y-97477811D01*
X90230875Y-97543946D01*
X90185823Y-97582984D01*
X90049063Y-97652668D01*
X90023670Y-97671116D01*
X90023669Y-97671116D01*
X90678000Y-98325446D01*
X90678001Y-98325446D01*
X91332328Y-97671116D01*
X91306933Y-97652666D01*
X91170177Y-97582985D01*
X91119381Y-97535010D01*
X91102586Y-97467189D01*
X91125124Y-97401054D01*
X91170177Y-97362015D01*
X91306937Y-97292331D01*
X91332328Y-97273883D01*
X91332328Y-97273882D01*
X90678001Y-96619554D01*
X90678000Y-96619554D01*
X90023669Y-97273882D01*
X83713182Y-97273882D01*
X83840073Y-97181690D01*
X83973690Y-97048073D01*
X84084760Y-96895199D01*
X84170547Y-96726832D01*
X84228940Y-96547118D01*
X84234942Y-96509221D01*
X84258500Y-96360486D01*
X84258500Y-96171552D01*
X89478000Y-96171552D01*
X89478000Y-96360447D01*
X89507548Y-96547002D01*
X89565914Y-96726637D01*
X89651666Y-96894933D01*
X89670116Y-96920328D01*
X90324446Y-96266000D01*
X90324446Y-96265999D01*
X90278369Y-96219922D01*
X90328000Y-96219922D01*
X90328000Y-96312078D01*
X90351852Y-96401095D01*
X90397930Y-96480905D01*
X90463095Y-96546070D01*
X90542905Y-96592148D01*
X90631922Y-96616000D01*
X90724078Y-96616000D01*
X90813095Y-96592148D01*
X90892905Y-96546070D01*
X90958070Y-96480905D01*
X91004148Y-96401095D01*
X91028000Y-96312078D01*
X91028000Y-96265999D01*
X91031554Y-96265999D01*
X91031554Y-96266000D01*
X91685882Y-96920328D01*
X91685883Y-96920328D01*
X91704331Y-96894937D01*
X91790085Y-96726637D01*
X91848451Y-96547002D01*
X91878000Y-96360447D01*
X91878000Y-96171552D01*
X91848451Y-95984997D01*
X91790085Y-95805362D01*
X91704329Y-95637059D01*
X91685883Y-95611670D01*
X91685882Y-95611669D01*
X91031554Y-96265999D01*
X91028000Y-96265999D01*
X91028000Y-96219922D01*
X91004148Y-96130905D01*
X90958070Y-96051095D01*
X90892905Y-95985930D01*
X90813095Y-95939852D01*
X90724078Y-95916000D01*
X90631922Y-95916000D01*
X90542905Y-95939852D01*
X90463095Y-95985930D01*
X90397930Y-96051095D01*
X90351852Y-96130905D01*
X90328000Y-96219922D01*
X90278369Y-96219922D01*
X89670116Y-95611669D01*
X89670116Y-95611670D01*
X89651669Y-95637060D01*
X89565914Y-95805362D01*
X89507548Y-95984997D01*
X89478000Y-96171552D01*
X84258500Y-96171552D01*
X84258500Y-96171513D01*
X84228940Y-95984881D01*
X84179237Y-95831913D01*
X84170547Y-95805168D01*
X84170545Y-95805165D01*
X84170545Y-95805163D01*
X84086762Y-95640731D01*
X84084760Y-95636801D01*
X83973690Y-95483927D01*
X83840073Y-95350310D01*
X83687199Y-95239240D01*
X83651872Y-95221240D01*
X83518836Y-95153454D01*
X83416121Y-95120080D01*
X83397195Y-95113930D01*
X83339521Y-95074493D01*
X83312323Y-95010134D01*
X83324238Y-94941288D01*
X83371482Y-94889812D01*
X83397194Y-94878069D01*
X83518832Y-94838547D01*
X83687199Y-94752760D01*
X83713182Y-94733882D01*
X90023669Y-94733882D01*
X90023670Y-94733883D01*
X90049059Y-94752329D01*
X90217362Y-94838085D01*
X90340420Y-94878069D01*
X90398095Y-94917506D01*
X90425294Y-94981865D01*
X90413380Y-95050711D01*
X90366136Y-95102187D01*
X90340420Y-95113931D01*
X90217362Y-95153914D01*
X90049060Y-95239669D01*
X90023670Y-95258116D01*
X90023669Y-95258116D01*
X90678000Y-95912446D01*
X90678001Y-95912446D01*
X91332328Y-95258116D01*
X91306933Y-95239666D01*
X91138637Y-95153914D01*
X91015579Y-95113931D01*
X90957904Y-95074494D01*
X90930705Y-95010135D01*
X90942619Y-94941289D01*
X90989863Y-94889813D01*
X91015579Y-94878069D01*
X91138637Y-94838085D01*
X91306937Y-94752331D01*
X91332328Y-94733883D01*
X91332328Y-94733882D01*
X90678001Y-94079554D01*
X90678000Y-94079554D01*
X90023669Y-94733882D01*
X83713182Y-94733882D01*
X83840073Y-94641690D01*
X83973690Y-94508073D01*
X84084760Y-94355199D01*
X84170547Y-94186832D01*
X84228940Y-94007118D01*
X84231957Y-93988070D01*
X84258500Y-93820486D01*
X84258500Y-93631552D01*
X89478000Y-93631552D01*
X89478000Y-93820447D01*
X89507548Y-94007002D01*
X89565914Y-94186637D01*
X89651666Y-94354933D01*
X89670116Y-94380328D01*
X90324446Y-93726000D01*
X90324446Y-93725999D01*
X90278369Y-93679922D01*
X90328000Y-93679922D01*
X90328000Y-93772078D01*
X90351852Y-93861095D01*
X90397930Y-93940905D01*
X90463095Y-94006070D01*
X90542905Y-94052148D01*
X90631922Y-94076000D01*
X90724078Y-94076000D01*
X90813095Y-94052148D01*
X90892905Y-94006070D01*
X90958070Y-93940905D01*
X91004148Y-93861095D01*
X91028000Y-93772078D01*
X91028000Y-93725999D01*
X91031554Y-93725999D01*
X91031554Y-93726000D01*
X91685882Y-94380328D01*
X91685883Y-94380328D01*
X91704331Y-94354937D01*
X91790085Y-94186637D01*
X91848451Y-94007002D01*
X91878000Y-93820447D01*
X91878000Y-93631552D01*
X91848451Y-93444997D01*
X91790085Y-93265362D01*
X91704329Y-93097059D01*
X91685883Y-93071670D01*
X91685882Y-93071669D01*
X91031554Y-93725999D01*
X91028000Y-93725999D01*
X91028000Y-93679922D01*
X91004148Y-93590905D01*
X90958070Y-93511095D01*
X90892905Y-93445930D01*
X90813095Y-93399852D01*
X90724078Y-93376000D01*
X90631922Y-93376000D01*
X90542905Y-93399852D01*
X90463095Y-93445930D01*
X90397930Y-93511095D01*
X90351852Y-93590905D01*
X90328000Y-93679922D01*
X90278369Y-93679922D01*
X89670116Y-93071669D01*
X89670116Y-93071670D01*
X89651669Y-93097060D01*
X89565914Y-93265362D01*
X89507548Y-93444997D01*
X89478000Y-93631552D01*
X84258500Y-93631552D01*
X84258500Y-93631513D01*
X84228940Y-93444881D01*
X84199555Y-93354446D01*
X84170547Y-93265168D01*
X84170545Y-93265165D01*
X84170545Y-93265163D01*
X84125290Y-93176347D01*
X84084760Y-93096801D01*
X83973690Y-92943927D01*
X83844818Y-92815055D01*
X83811334Y-92753732D01*
X83808500Y-92727374D01*
X83808500Y-92311625D01*
X83828185Y-92244586D01*
X83844819Y-92223944D01*
X83908797Y-92159966D01*
X83973690Y-92095073D01*
X84084760Y-91942199D01*
X84170547Y-91773832D01*
X84228940Y-91594118D01*
X84243892Y-91499714D01*
X84258500Y-91407486D01*
X84258500Y-91218513D01*
X84228940Y-91031881D01*
X84170545Y-90852163D01*
X84084759Y-90683800D01*
X84073845Y-90668778D01*
X83973690Y-90530927D01*
X83840073Y-90397310D01*
X83687199Y-90286240D01*
X83518836Y-90200454D01*
X83339118Y-90142059D01*
X83152486Y-90112500D01*
X83152481Y-90112500D01*
X82963519Y-90112500D01*
X82963514Y-90112500D01*
X82776881Y-90142059D01*
X82597163Y-90200454D01*
X82428800Y-90286240D01*
X82354544Y-90340191D01*
X82275927Y-90397310D01*
X82275925Y-90397312D01*
X82275924Y-90397312D01*
X82142312Y-90530924D01*
X82142312Y-90530925D01*
X82142310Y-90530927D01*
X82123623Y-90556648D01*
X82031238Y-90683803D01*
X81993646Y-90757581D01*
X81945672Y-90808376D01*
X81877850Y-90825171D01*
X81811716Y-90802633D01*
X81768265Y-90747918D01*
X81765231Y-90739603D01*
X81742220Y-90668781D01*
X81649287Y-90486390D01*
X81632373Y-90463110D01*
X81528971Y-90320786D01*
X81384213Y-90176028D01*
X81218614Y-90055715D01*
X81212006Y-90052348D01*
X81125917Y-90008483D01*
X81075123Y-89960511D01*
X81058328Y-89892690D01*
X81080865Y-89826555D01*
X81125917Y-89787516D01*
X81218610Y-89740287D01*
X81311554Y-89672760D01*
X81384213Y-89619971D01*
X81384215Y-89619968D01*
X81384219Y-89619966D01*
X81528966Y-89475219D01*
X81528968Y-89475215D01*
X81528971Y-89475213D01*
X81649284Y-89309614D01*
X81649283Y-89309614D01*
X81649287Y-89309610D01*
X81738545Y-89134430D01*
X81786520Y-89083635D01*
X81854341Y-89066840D01*
X81920475Y-89089377D01*
X81959515Y-89134431D01*
X82013208Y-89239809D01*
X82031240Y-89275199D01*
X82142310Y-89428073D01*
X82275927Y-89561690D01*
X82428801Y-89672760D01*
X82446779Y-89681920D01*
X82597163Y-89758545D01*
X82597165Y-89758545D01*
X82597168Y-89758547D01*
X82634602Y-89770710D01*
X82776881Y-89816940D01*
X82963514Y-89846500D01*
X82963519Y-89846500D01*
X83152486Y-89846500D01*
X83339118Y-89816940D01*
X83354980Y-89811786D01*
X83518832Y-89758547D01*
X83687199Y-89672760D01*
X83840073Y-89561690D01*
X83973690Y-89428073D01*
X84084760Y-89275199D01*
X84170547Y-89106832D01*
X84228940Y-88927118D01*
X84229672Y-88922498D01*
X84258500Y-88740486D01*
X84258500Y-88551513D01*
X84228940Y-88364881D01*
X84189203Y-88242585D01*
X84170547Y-88185168D01*
X84170545Y-88185165D01*
X84170545Y-88185163D01*
X84090462Y-88027992D01*
X84084760Y-88016801D01*
X83973690Y-87863927D01*
X83840073Y-87730310D01*
X83687199Y-87619240D01*
X83551278Y-87549985D01*
X83500482Y-87502010D01*
X83483687Y-87434190D01*
X83506224Y-87368055D01*
X83551278Y-87329015D01*
X83554251Y-87327500D01*
X83687199Y-87259760D01*
X83840073Y-87148690D01*
X83973690Y-87015073D01*
X84084760Y-86862199D01*
X84170547Y-86693832D01*
X84228940Y-86514118D01*
X84233161Y-86487470D01*
X84258500Y-86327486D01*
X84258500Y-86138513D01*
X84228940Y-85951881D01*
X84170545Y-85772163D01*
X84084759Y-85603800D01*
X83973690Y-85450927D01*
X83840073Y-85317310D01*
X83687199Y-85206240D01*
X83675905Y-85200485D01*
X83625109Y-85152513D01*
X83608312Y-85084692D01*
X83630848Y-85018557D01*
X83675906Y-84979514D01*
X83687199Y-84973760D01*
X83840073Y-84862690D01*
X83973690Y-84729073D01*
X84084760Y-84576199D01*
X84170547Y-84407832D01*
X84228940Y-84228118D01*
X84245450Y-84123877D01*
X84258500Y-84041486D01*
X84258500Y-83852513D01*
X84228940Y-83665881D01*
X84170545Y-83486163D01*
X84084759Y-83317800D01*
X84078234Y-83308819D01*
X83973690Y-83164927D01*
X83840073Y-83031310D01*
X83687199Y-82920240D01*
X83651205Y-82901900D01*
X83518836Y-82834454D01*
X83339118Y-82776059D01*
X83152486Y-82746500D01*
X83152481Y-82746500D01*
X82963519Y-82746500D01*
X82963514Y-82746500D01*
X82776881Y-82776059D01*
X82597163Y-82834454D01*
X82464795Y-82901900D01*
X82396125Y-82914796D01*
X82331385Y-82888520D01*
X82291128Y-82831413D01*
X82284500Y-82791415D01*
X82284500Y-81795316D01*
X82304185Y-81728277D01*
X82335613Y-81694999D01*
X82381219Y-81661866D01*
X82525966Y-81517119D01*
X82525968Y-81517115D01*
X82525971Y-81517113D01*
X82618236Y-81390119D01*
X82646287Y-81351510D01*
X82739220Y-81169119D01*
X82802477Y-80974434D01*
X82834500Y-80772252D01*
X82834500Y-80567548D01*
X82812541Y-80428904D01*
X82802477Y-80365365D01*
X82761212Y-80238365D01*
X82739220Y-80170681D01*
X82739218Y-80170678D01*
X82739218Y-80170676D01*
X82681382Y-80057168D01*
X82646287Y-79988290D01*
X82614995Y-79945220D01*
X82525971Y-79822686D01*
X82381217Y-79677932D01*
X82325358Y-79637348D01*
X82282693Y-79582018D01*
X82276714Y-79512404D01*
X82309320Y-79450609D01*
X82359236Y-79419326D01*
X82403334Y-79404714D01*
X82552656Y-79312612D01*
X82676712Y-79188556D01*
X82768814Y-79039234D01*
X82823999Y-78872697D01*
X82834500Y-78769909D01*
X82834499Y-77569892D01*
X82832513Y-77550455D01*
X82823999Y-77467103D01*
X82823998Y-77467100D01*
X82800535Y-77396294D01*
X82768814Y-77300566D01*
X82676712Y-77151244D01*
X82552656Y-77027188D01*
X82459888Y-76969969D01*
X82403336Y-76935087D01*
X82403335Y-76935086D01*
X82403334Y-76935086D01*
X82403328Y-76935084D01*
X82369494Y-76923872D01*
X82312050Y-76884099D01*
X82285228Y-76819583D01*
X82284500Y-76806167D01*
X82284500Y-75550929D01*
X82304185Y-75483890D01*
X82320819Y-75463248D01*
X82624948Y-75159119D01*
X82624951Y-75159116D01*
X82707084Y-75036195D01*
X82763658Y-74899613D01*
X82766574Y-74884955D01*
X82768392Y-74875818D01*
X82792500Y-74754620D01*
X82792500Y-74753499D01*
X82792666Y-74752933D01*
X82793097Y-74748558D01*
X82793926Y-74748639D01*
X82812185Y-74686460D01*
X82864989Y-74640705D01*
X82916500Y-74629499D01*
X82939871Y-74629499D01*
X82939872Y-74629499D01*
X82999483Y-74623091D01*
X83134331Y-74572796D01*
X83249546Y-74486546D01*
X83335796Y-74371331D01*
X83384810Y-74239916D01*
X83426681Y-74183984D01*
X83492145Y-74159566D01*
X83560418Y-74174417D01*
X83588673Y-74195569D01*
X83702208Y-74309104D01*
X83780384Y-74365902D01*
X83823051Y-74421231D01*
X83831500Y-74466220D01*
X83831500Y-74941818D01*
X83831500Y-74941820D01*
X83831499Y-74941820D01*
X83860340Y-75086807D01*
X83860343Y-75086817D01*
X83916913Y-75223390D01*
X83916916Y-75223395D01*
X83927204Y-75238791D01*
X83927205Y-75238796D01*
X83927207Y-75238796D01*
X83974937Y-75310231D01*
X83999051Y-75346320D01*
X83999052Y-75346321D01*
X86420181Y-77767449D01*
X86453666Y-77828772D01*
X86456500Y-77855130D01*
X86456500Y-78642901D01*
X86456501Y-78642919D01*
X86467000Y-78745696D01*
X86467001Y-78745699D01*
X86475024Y-78769909D01*
X86522186Y-78912234D01*
X86614288Y-79061556D01*
X86738344Y-79185612D01*
X86887666Y-79277714D01*
X86931759Y-79292325D01*
X86989203Y-79332096D01*
X87016027Y-79396611D01*
X87003713Y-79465387D01*
X86965642Y-79510347D01*
X86909784Y-79550931D01*
X86909782Y-79550932D01*
X86765028Y-79695686D01*
X86644715Y-79861286D01*
X86551781Y-80043676D01*
X86488522Y-80238365D01*
X86456500Y-80440548D01*
X86456500Y-80645251D01*
X86488522Y-80847434D01*
X86551781Y-81042123D01*
X86644715Y-81224513D01*
X86765028Y-81390113D01*
X86909786Y-81534871D01*
X87064749Y-81647456D01*
X87075390Y-81655187D01*
X87191607Y-81714403D01*
X87257776Y-81748118D01*
X87257778Y-81748118D01*
X87257781Y-81748120D01*
X87342614Y-81775684D01*
X87452465Y-81811377D01*
X87545883Y-81826173D01*
X87654648Y-81843400D01*
X87654649Y-81843400D01*
X87859351Y-81843400D01*
X87859352Y-81843400D01*
X88061534Y-81811377D01*
X88256219Y-81748120D01*
X88438610Y-81655187D01*
X88545627Y-81577435D01*
X88604213Y-81534871D01*
X88604215Y-81534868D01*
X88604219Y-81534866D01*
X88748966Y-81390119D01*
X88748968Y-81390115D01*
X88748971Y-81390113D01*
X88814388Y-81300073D01*
X88869287Y-81224510D01*
X88962220Y-81042119D01*
X89025477Y-80847434D01*
X89057500Y-80645252D01*
X89057500Y-80440548D01*
X89045592Y-80365365D01*
X89025477Y-80238365D01*
X88983280Y-80108498D01*
X88962220Y-80043681D01*
X88962218Y-80043678D01*
X88962218Y-80043676D01*
X88922407Y-79965544D01*
X88869287Y-79861290D01*
X88841236Y-79822681D01*
X88748971Y-79695686D01*
X88604217Y-79550932D01*
X88548358Y-79510348D01*
X88505693Y-79455018D01*
X88499714Y-79385404D01*
X88532320Y-79323609D01*
X88582236Y-79292326D01*
X88626334Y-79277714D01*
X88775656Y-79185612D01*
X88899712Y-79061556D01*
X88991814Y-78912234D01*
X89046999Y-78745697D01*
X89057500Y-78642909D01*
X89057499Y-77442892D01*
X89057330Y-77441242D01*
X89046999Y-77340103D01*
X89046998Y-77340100D01*
X89031431Y-77293122D01*
X88991814Y-77173566D01*
X88899712Y-77024244D01*
X88775656Y-76900188D01*
X88626334Y-76808086D01*
X88459797Y-76752901D01*
X88459795Y-76752900D01*
X88357016Y-76742400D01*
X88357009Y-76742400D01*
X87569230Y-76742400D01*
X87502191Y-76722715D01*
X87481549Y-76706081D01*
X85368819Y-74593351D01*
X85354115Y-74566423D01*
X85337523Y-74540605D01*
X85336631Y-74534404D01*
X85335334Y-74532028D01*
X85332500Y-74505670D01*
X85332500Y-74466220D01*
X85352185Y-74399181D01*
X85383614Y-74365902D01*
X85461792Y-74309104D01*
X85612104Y-74158792D01*
X85612106Y-74158788D01*
X85612109Y-74158786D01*
X85682606Y-74061753D01*
X85737051Y-73986816D01*
X85741793Y-73977508D01*
X85789763Y-73926711D01*
X85857583Y-73909911D01*
X85923719Y-73932445D01*
X85962763Y-73977500D01*
X85967373Y-73986547D01*
X86006728Y-74040716D01*
X86639037Y-73408408D01*
X86656075Y-73471993D01*
X86721901Y-73586007D01*
X86814993Y-73679099D01*
X86929007Y-73744925D01*
X86992590Y-73761962D01*
X86360282Y-74394269D01*
X86360282Y-74394270D01*
X86414449Y-74433624D01*
X86603782Y-74530095D01*
X86805870Y-74595757D01*
X87015754Y-74629000D01*
X87228246Y-74629000D01*
X87438127Y-74595757D01*
X87438130Y-74595757D01*
X87640217Y-74530095D01*
X87829554Y-74433622D01*
X87883716Y-74394270D01*
X87883717Y-74394270D01*
X87251408Y-73761962D01*
X87314993Y-73744925D01*
X87429007Y-73679099D01*
X87522099Y-73586007D01*
X87587925Y-73471993D01*
X87604962Y-73408408D01*
X88237270Y-74040717D01*
X88237270Y-74040716D01*
X88276622Y-73986554D01*
X88373095Y-73797217D01*
X88438757Y-73595130D01*
X88438757Y-73595127D01*
X88472000Y-73385246D01*
X88472000Y-73172753D01*
X88438757Y-72962872D01*
X88438757Y-72962869D01*
X88373095Y-72760782D01*
X88276624Y-72571449D01*
X88237270Y-72517282D01*
X88237269Y-72517282D01*
X87604962Y-73149590D01*
X87587925Y-73086007D01*
X87522099Y-72971993D01*
X87429007Y-72878901D01*
X87314993Y-72813075D01*
X87251409Y-72796037D01*
X87883716Y-72163728D01*
X87829550Y-72124375D01*
X87640217Y-72027904D01*
X87438129Y-71962242D01*
X87228246Y-71929000D01*
X87015754Y-71929000D01*
X86805872Y-71962242D01*
X86805869Y-71962242D01*
X86603782Y-72027904D01*
X86414439Y-72124380D01*
X86360282Y-72163727D01*
X86360282Y-72163728D01*
X86992591Y-72796037D01*
X86929007Y-72813075D01*
X86814993Y-72878901D01*
X86721901Y-72971993D01*
X86656075Y-73086007D01*
X86639037Y-73149591D01*
X86006728Y-72517282D01*
X86006727Y-72517282D01*
X85967380Y-72571440D01*
X85967376Y-72571446D01*
X85962760Y-72580505D01*
X85914781Y-72631297D01*
X85846959Y-72648087D01*
X85780826Y-72625543D01*
X85741794Y-72580493D01*
X85737051Y-72571184D01*
X85737049Y-72571181D01*
X85737048Y-72571179D01*
X85612109Y-72399213D01*
X85461786Y-72248890D01*
X85289820Y-72123951D01*
X85100414Y-72027444D01*
X85100413Y-72027443D01*
X85100412Y-72027443D01*
X84898243Y-71961754D01*
X84898241Y-71961753D01*
X84898240Y-71961753D01*
X84736957Y-71936208D01*
X84688287Y-71928500D01*
X84475713Y-71928500D01*
X84427042Y-71936208D01*
X84265760Y-71961753D01*
X84063585Y-72027444D01*
X83874179Y-72123951D01*
X83702215Y-72248889D01*
X83588673Y-72362431D01*
X83527350Y-72395915D01*
X83457658Y-72390931D01*
X83401725Y-72349059D01*
X83384810Y-72318082D01*
X83335797Y-72186671D01*
X83335793Y-72186664D01*
X83249547Y-72071455D01*
X83249544Y-72071452D01*
X83134335Y-71985206D01*
X83134328Y-71985202D01*
X82999482Y-71934908D01*
X82999483Y-71934908D01*
X82939883Y-71928501D01*
X82939881Y-71928500D01*
X82939873Y-71928500D01*
X82939864Y-71928500D01*
X81144129Y-71928500D01*
X81144123Y-71928501D01*
X81084516Y-71934908D01*
X80949671Y-71985202D01*
X80949664Y-71985206D01*
X80834455Y-72071452D01*
X80834452Y-72071455D01*
X80748206Y-72186664D01*
X80748202Y-72186671D01*
X80697908Y-72321517D01*
X80691501Y-72381116D01*
X80691500Y-72381135D01*
X80691500Y-74176870D01*
X80691501Y-74176876D01*
X80697908Y-74236483D01*
X80748202Y-74371328D01*
X80748206Y-74371335D01*
X80834452Y-74486544D01*
X80834453Y-74486544D01*
X80834454Y-74486546D01*
X80881219Y-74521554D01*
X80917737Y-74548892D01*
X80959607Y-74604826D01*
X80964591Y-74674517D01*
X80946528Y-74717048D01*
X80901813Y-74783970D01*
X80901812Y-74783969D01*
X80868921Y-74833196D01*
X80868914Y-74833208D01*
X80812342Y-74969786D01*
X80812340Y-74969792D01*
X80783500Y-75114779D01*
X80783500Y-76806167D01*
X80763815Y-76873206D01*
X80711011Y-76918961D01*
X80698506Y-76923872D01*
X80664671Y-76935084D01*
X80664663Y-76935087D01*
X80515342Y-77027189D01*
X80391289Y-77151242D01*
X80299187Y-77300563D01*
X80299185Y-77300568D01*
X80282527Y-77350840D01*
X80244001Y-77467103D01*
X80244001Y-77467104D01*
X80244000Y-77467104D01*
X80233500Y-77569883D01*
X80233500Y-78310970D01*
X80213815Y-78378009D01*
X80197181Y-78398651D01*
X74417047Y-84178784D01*
X74404302Y-84197859D01*
X74391612Y-84216853D01*
X74384085Y-84228118D01*
X74334914Y-84301707D01*
X74278343Y-84438282D01*
X74278340Y-84438292D01*
X74249500Y-84583279D01*
X74249500Y-87499770D01*
X74229815Y-87566809D01*
X74177011Y-87612564D01*
X74107853Y-87622508D01*
X74044297Y-87593483D01*
X74037819Y-87587451D01*
X73935657Y-87485289D01*
X73935656Y-87485288D01*
X73786334Y-87393186D01*
X73619797Y-87338001D01*
X73619795Y-87338000D01*
X73517010Y-87327500D01*
X71516998Y-87327500D01*
X71516981Y-87327501D01*
X71414203Y-87338000D01*
X71414200Y-87338001D01*
X71247668Y-87393185D01*
X71247663Y-87393187D01*
X71098342Y-87485289D01*
X70974289Y-87609342D01*
X70882187Y-87758663D01*
X70882186Y-87758666D01*
X70827001Y-87925203D01*
X70827001Y-87925204D01*
X70827000Y-87925204D01*
X70816500Y-88027983D01*
X70816500Y-88129791D01*
X70796815Y-88196830D01*
X70744011Y-88242585D01*
X70674853Y-88252529D01*
X70611297Y-88223504D01*
X70582015Y-88186086D01*
X70501462Y-88027992D01*
X70495760Y-88016801D01*
X70384690Y-87863927D01*
X70251073Y-87730310D01*
X70098199Y-87619240D01*
X70047648Y-87593483D01*
X69929836Y-87533454D01*
X69750118Y-87475059D01*
X69563486Y-87445500D01*
X69563481Y-87445500D01*
X69374519Y-87445500D01*
X69374514Y-87445500D01*
X69187881Y-87475059D01*
X69008163Y-87533454D01*
X68839800Y-87619240D01*
X68760077Y-87677163D01*
X68686927Y-87730310D01*
X68686925Y-87730312D01*
X68686924Y-87730312D01*
X68553312Y-87863924D01*
X68553312Y-87863925D01*
X68553310Y-87863927D01*
X68538818Y-87883874D01*
X68442240Y-88016800D01*
X68356454Y-88185163D01*
X68298059Y-88364881D01*
X68268500Y-88551513D01*
X68268500Y-88740486D01*
X68298059Y-88927118D01*
X68356454Y-89106836D01*
X68442239Y-89275197D01*
X68442240Y-89275199D01*
X68553310Y-89428073D01*
X68686927Y-89561690D01*
X68839801Y-89672760D01*
X68857779Y-89681920D01*
X69008163Y-89758545D01*
X69008165Y-89758545D01*
X69008168Y-89758547D01*
X69045602Y-89770710D01*
X69102104Y-89789069D01*
X69159779Y-89828507D01*
X69186977Y-89892866D01*
X69175062Y-89961712D01*
X69127817Y-90013188D01*
X69102104Y-90024931D01*
X69008163Y-90055454D01*
X68839800Y-90141240D01*
X68791914Y-90176032D01*
X68686927Y-90252310D01*
X68686925Y-90252312D01*
X68686924Y-90252312D01*
X68553312Y-90385924D01*
X68553312Y-90385925D01*
X68553310Y-90385927D01*
X68543066Y-90400027D01*
X68442240Y-90538800D01*
X68356454Y-90707163D01*
X68298059Y-90886881D01*
X68268500Y-91073513D01*
X68268500Y-91262486D01*
X68298059Y-91449118D01*
X68356454Y-91628836D01*
X68418133Y-91749886D01*
X68442240Y-91797199D01*
X68553310Y-91950073D01*
X68553312Y-91950075D01*
X68682181Y-92078944D01*
X68715666Y-92140267D01*
X68718500Y-92166625D01*
X68718500Y-92709374D01*
X68698815Y-92776413D01*
X68682182Y-92797055D01*
X68553309Y-92925928D01*
X68442240Y-93078800D01*
X68356454Y-93247163D01*
X68298059Y-93426881D01*
X68268500Y-93613513D01*
X68268500Y-93802486D01*
X68298059Y-93989118D01*
X68356454Y-94168836D01*
X68430334Y-94313832D01*
X68442240Y-94337199D01*
X68553310Y-94490073D01*
X68686927Y-94623690D01*
X68839801Y-94734760D01*
X68906387Y-94768687D01*
X69008163Y-94820545D01*
X69008165Y-94820545D01*
X69008168Y-94820547D01*
X69063560Y-94838545D01*
X69129803Y-94860069D01*
X69187478Y-94899507D01*
X69214676Y-94963866D01*
X69202761Y-95032712D01*
X69155516Y-95084188D01*
X69129803Y-95095931D01*
X69008163Y-95135454D01*
X68839800Y-95221240D01*
X68762878Y-95277128D01*
X68686927Y-95332310D01*
X68686925Y-95332312D01*
X68686924Y-95332312D01*
X68553312Y-95465924D01*
X68553312Y-95465925D01*
X68553310Y-95465927D01*
X68520027Y-95511737D01*
X68442240Y-95618800D01*
X68356454Y-95787163D01*
X68298059Y-95966881D01*
X68268500Y-96153513D01*
X68268500Y-96342486D01*
X68298059Y-96529118D01*
X68356454Y-96708836D01*
X68430674Y-96854500D01*
X68442240Y-96877199D01*
X68553310Y-97030073D01*
X68686927Y-97163690D01*
X68839801Y-97274760D01*
X68919347Y-97315290D01*
X69008163Y-97360545D01*
X69008165Y-97360545D01*
X69008168Y-97360547D01*
X69063566Y-97378547D01*
X69129803Y-97400069D01*
X69187478Y-97439507D01*
X69214676Y-97503866D01*
X69202761Y-97572712D01*
X69155516Y-97624188D01*
X69129803Y-97635931D01*
X69008163Y-97675454D01*
X68839800Y-97761240D01*
X68791914Y-97796032D01*
X68686927Y-97872310D01*
X68686925Y-97872312D01*
X68686924Y-97872312D01*
X68553312Y-98005924D01*
X68553312Y-98005925D01*
X68553310Y-98005927D01*
X68508308Y-98067867D01*
X68442240Y-98158800D01*
X68356454Y-98327163D01*
X68298059Y-98506881D01*
X68268500Y-98693513D01*
X68268500Y-98766770D01*
X68248815Y-98833809D01*
X68196011Y-98879564D01*
X68126853Y-98889508D01*
X68063297Y-98860483D01*
X68056819Y-98854451D01*
X64540819Y-95338451D01*
X64507334Y-95277128D01*
X64504500Y-95250770D01*
X64504500Y-79945220D01*
X64524185Y-79878181D01*
X64555614Y-79844902D01*
X64633792Y-79788104D01*
X64784104Y-79637792D01*
X64784106Y-79637788D01*
X64784109Y-79637786D01*
X64909048Y-79465820D01*
X64909047Y-79465820D01*
X64909051Y-79465816D01*
X64913514Y-79457054D01*
X64961488Y-79406259D01*
X65029308Y-79389463D01*
X65095444Y-79411999D01*
X65134486Y-79457056D01*
X65138951Y-79465820D01*
X65263890Y-79637786D01*
X65414213Y-79788109D01*
X65586179Y-79913048D01*
X65586181Y-79913049D01*
X65586184Y-79913051D01*
X65775588Y-80009557D01*
X65977757Y-80075246D01*
X66187713Y-80108500D01*
X66187714Y-80108500D01*
X66400286Y-80108500D01*
X66400287Y-80108500D01*
X66610243Y-80075246D01*
X66812412Y-80009557D01*
X67001816Y-79913051D01*
X67034838Y-79889059D01*
X67173786Y-79788109D01*
X67173788Y-79788106D01*
X67173792Y-79788104D01*
X67324104Y-79637792D01*
X67324106Y-79637788D01*
X67324109Y-79637786D01*
X67409890Y-79519717D01*
X67449051Y-79465816D01*
X67453793Y-79456508D01*
X67501763Y-79405711D01*
X67569583Y-79388911D01*
X67635719Y-79411445D01*
X67674763Y-79456500D01*
X67679373Y-79465547D01*
X67718728Y-79519716D01*
X68351037Y-78887408D01*
X68368075Y-78950993D01*
X68433901Y-79065007D01*
X68526993Y-79158099D01*
X68641007Y-79223925D01*
X68704590Y-79240962D01*
X68072282Y-79873269D01*
X68072282Y-79873270D01*
X68126449Y-79912624D01*
X68315782Y-80009095D01*
X68517870Y-80074757D01*
X68727754Y-80108000D01*
X68940246Y-80108000D01*
X69150127Y-80074757D01*
X69150130Y-80074757D01*
X69352217Y-80009095D01*
X69541554Y-79912622D01*
X69595716Y-79873270D01*
X69595717Y-79873270D01*
X68963408Y-79240962D01*
X69026993Y-79223925D01*
X69141007Y-79158099D01*
X69234099Y-79065007D01*
X69299925Y-78950993D01*
X69316962Y-78887408D01*
X69949270Y-79519717D01*
X69949270Y-79519716D01*
X69988622Y-79465554D01*
X70085095Y-79276217D01*
X70150757Y-79074130D01*
X70150757Y-79074127D01*
X70184000Y-78864246D01*
X70184000Y-78651753D01*
X70150757Y-78441872D01*
X70150757Y-78441869D01*
X70085095Y-78239782D01*
X69988624Y-78050449D01*
X69949270Y-77996282D01*
X69949269Y-77996282D01*
X69316962Y-78628590D01*
X69299925Y-78565007D01*
X69234099Y-78450993D01*
X69141007Y-78357901D01*
X69026993Y-78292075D01*
X68963409Y-78275037D01*
X69595716Y-77642728D01*
X69541550Y-77603375D01*
X69352217Y-77506904D01*
X69150129Y-77441242D01*
X68940246Y-77408000D01*
X68727754Y-77408000D01*
X68517872Y-77441242D01*
X68517869Y-77441242D01*
X68315782Y-77506904D01*
X68126439Y-77603380D01*
X68072282Y-77642727D01*
X68072282Y-77642728D01*
X68704591Y-78275037D01*
X68641007Y-78292075D01*
X68526993Y-78357901D01*
X68433901Y-78450993D01*
X68368075Y-78565007D01*
X68351037Y-78628591D01*
X67718728Y-77996282D01*
X67718727Y-77996282D01*
X67679380Y-78050440D01*
X67679376Y-78050446D01*
X67674760Y-78059505D01*
X67626781Y-78110297D01*
X67558959Y-78127087D01*
X67492826Y-78104543D01*
X67453794Y-78059493D01*
X67449051Y-78050184D01*
X67449049Y-78050181D01*
X67449048Y-78050179D01*
X67324109Y-77878213D01*
X67173786Y-77727890D01*
X67001820Y-77602951D01*
X66812414Y-77506444D01*
X66812413Y-77506443D01*
X66812412Y-77506443D01*
X66610243Y-77440754D01*
X66610241Y-77440753D01*
X66610240Y-77440753D01*
X66448957Y-77415208D01*
X66400287Y-77407500D01*
X66187713Y-77407500D01*
X66139042Y-77415208D01*
X65977760Y-77440753D01*
X65775585Y-77506444D01*
X65586179Y-77602951D01*
X65414213Y-77727890D01*
X65263890Y-77878213D01*
X65138949Y-78050182D01*
X65134484Y-78058946D01*
X65086509Y-78109742D01*
X65018688Y-78126536D01*
X64952553Y-78103998D01*
X64913516Y-78058946D01*
X64909050Y-78050182D01*
X64784109Y-77878213D01*
X64633794Y-77727898D01*
X64633788Y-77727893D01*
X64555615Y-77671097D01*
X64512949Y-77615767D01*
X64504500Y-77570779D01*
X64504500Y-75355220D01*
X64524185Y-75288181D01*
X64555614Y-75254902D01*
X64633792Y-75198104D01*
X64784104Y-75047792D01*
X64784106Y-75047788D01*
X64784109Y-75047786D01*
X64909048Y-74875820D01*
X64909047Y-74875820D01*
X64909051Y-74875816D01*
X64913514Y-74867054D01*
X64961488Y-74816259D01*
X65029308Y-74799463D01*
X65095444Y-74821999D01*
X65134486Y-74867056D01*
X65138951Y-74875820D01*
X65263890Y-75047786D01*
X65414213Y-75198109D01*
X65586179Y-75323048D01*
X65586181Y-75323049D01*
X65586184Y-75323051D01*
X65775588Y-75419557D01*
X65977757Y-75485246D01*
X66187713Y-75518500D01*
X66187714Y-75518500D01*
X66400286Y-75518500D01*
X66400287Y-75518500D01*
X66610243Y-75485246D01*
X66812412Y-75419557D01*
X67001816Y-75323051D01*
X67056572Y-75283269D01*
X67173786Y-75198109D01*
X67173788Y-75198106D01*
X67173792Y-75198104D01*
X67324104Y-75047792D01*
X67324106Y-75047788D01*
X67324109Y-75047786D01*
X67409890Y-74929717D01*
X67449051Y-74875816D01*
X67453793Y-74866508D01*
X67501763Y-74815711D01*
X67569583Y-74798911D01*
X67635719Y-74821445D01*
X67674763Y-74866500D01*
X67679373Y-74875547D01*
X67718728Y-74929716D01*
X68351037Y-74297408D01*
X68368075Y-74360993D01*
X68433901Y-74475007D01*
X68526993Y-74568099D01*
X68641007Y-74633925D01*
X68704590Y-74650962D01*
X68072282Y-75283269D01*
X68072282Y-75283270D01*
X68126449Y-75322624D01*
X68315782Y-75419095D01*
X68517870Y-75484757D01*
X68727754Y-75518000D01*
X68940246Y-75518000D01*
X69150127Y-75484757D01*
X69150130Y-75484757D01*
X69352217Y-75419095D01*
X69541554Y-75322622D01*
X69595716Y-75283270D01*
X69595717Y-75283270D01*
X68963408Y-74650962D01*
X69026993Y-74633925D01*
X69141007Y-74568099D01*
X69234099Y-74475007D01*
X69299925Y-74360993D01*
X69316962Y-74297408D01*
X69949270Y-74929717D01*
X69949270Y-74929716D01*
X69988622Y-74875554D01*
X70085095Y-74686217D01*
X70150757Y-74484130D01*
X70150757Y-74484127D01*
X70184000Y-74274246D01*
X70184000Y-74061753D01*
X70150757Y-73851872D01*
X70150757Y-73851869D01*
X70085095Y-73649782D01*
X69988624Y-73460449D01*
X69949270Y-73406282D01*
X69949269Y-73406282D01*
X69316962Y-74038590D01*
X69299925Y-73975007D01*
X69234099Y-73860993D01*
X69141007Y-73767901D01*
X69026993Y-73702075D01*
X68963409Y-73685037D01*
X69595716Y-73052728D01*
X69541550Y-73013375D01*
X69352217Y-72916904D01*
X69150129Y-72851242D01*
X68940246Y-72818000D01*
X68727754Y-72818000D01*
X68517872Y-72851242D01*
X68517869Y-72851242D01*
X68315782Y-72916904D01*
X68126439Y-73013380D01*
X68072282Y-73052727D01*
X68072282Y-73052728D01*
X68704591Y-73685037D01*
X68641007Y-73702075D01*
X68526993Y-73767901D01*
X68433901Y-73860993D01*
X68368075Y-73975007D01*
X68351037Y-74038591D01*
X67718728Y-73406282D01*
X67718727Y-73406282D01*
X67679380Y-73460440D01*
X67679376Y-73460446D01*
X67674760Y-73469505D01*
X67626781Y-73520297D01*
X67558959Y-73537087D01*
X67492826Y-73514543D01*
X67453794Y-73469493D01*
X67449051Y-73460184D01*
X67449049Y-73460181D01*
X67449048Y-73460179D01*
X67324109Y-73288213D01*
X67173786Y-73137890D01*
X67001820Y-73012951D01*
X66812414Y-72916444D01*
X66812413Y-72916443D01*
X66812412Y-72916443D01*
X66610243Y-72850754D01*
X66610241Y-72850753D01*
X66610240Y-72850753D01*
X66448957Y-72825208D01*
X66400287Y-72817500D01*
X66187713Y-72817500D01*
X66139042Y-72825208D01*
X65977760Y-72850753D01*
X65775585Y-72916444D01*
X65586179Y-73012951D01*
X65414213Y-73137890D01*
X65263890Y-73288213D01*
X65138949Y-73460182D01*
X65134484Y-73468946D01*
X65086509Y-73519742D01*
X65018688Y-73536536D01*
X64952553Y-73513998D01*
X64913516Y-73468946D01*
X64909050Y-73460182D01*
X64784109Y-73288213D01*
X64633786Y-73137890D01*
X64461820Y-73012951D01*
X64272414Y-72916444D01*
X64272413Y-72916443D01*
X64272412Y-72916443D01*
X64070243Y-72850754D01*
X64070241Y-72850753D01*
X64070240Y-72850753D01*
X63908957Y-72825208D01*
X63860287Y-72817500D01*
X63647713Y-72817500D01*
X63599042Y-72825208D01*
X63437760Y-72850753D01*
X63235585Y-72916444D01*
X63046179Y-73012951D01*
X62874213Y-73137890D01*
X62723890Y-73288213D01*
X62598949Y-73460182D01*
X62594484Y-73468946D01*
X62546509Y-73519742D01*
X62478688Y-73536536D01*
X62412553Y-73513998D01*
X62373516Y-73468946D01*
X62369050Y-73460182D01*
X62244109Y-73288213D01*
X62093786Y-73137890D01*
X61921820Y-73012951D01*
X61732414Y-72916444D01*
X61732413Y-72916443D01*
X61732412Y-72916443D01*
X61530243Y-72850754D01*
X61530241Y-72850753D01*
X61530240Y-72850753D01*
X61368957Y-72825208D01*
X61320287Y-72817500D01*
X61107713Y-72817500D01*
X61059042Y-72825208D01*
X60897760Y-72850753D01*
X60695585Y-72916444D01*
X60506179Y-73012951D01*
X60334213Y-73137890D01*
X60183890Y-73288213D01*
X60058949Y-73460182D01*
X60054484Y-73468946D01*
X60006509Y-73519742D01*
X59938688Y-73536536D01*
X59872553Y-73513998D01*
X59833516Y-73468946D01*
X59829050Y-73460182D01*
X59704109Y-73288213D01*
X59553786Y-73137890D01*
X59381820Y-73012951D01*
X59192414Y-72916444D01*
X59192413Y-72916443D01*
X59192412Y-72916443D01*
X58990243Y-72850754D01*
X58990241Y-72850753D01*
X58990240Y-72850753D01*
X58828957Y-72825208D01*
X58780287Y-72817500D01*
X58567713Y-72817500D01*
X58519042Y-72825208D01*
X58357760Y-72850753D01*
X58155585Y-72916444D01*
X57966179Y-73012951D01*
X57794215Y-73137889D01*
X57680673Y-73251431D01*
X57619350Y-73284915D01*
X57549658Y-73279931D01*
X57493725Y-73238059D01*
X57476810Y-73207082D01*
X57427797Y-73075671D01*
X57427793Y-73075664D01*
X57341547Y-72960455D01*
X57341544Y-72960452D01*
X57226335Y-72874206D01*
X57226328Y-72874202D01*
X57091482Y-72823908D01*
X57091483Y-72823908D01*
X57031883Y-72817501D01*
X57031881Y-72817500D01*
X57031873Y-72817500D01*
X57031864Y-72817500D01*
X55236129Y-72817500D01*
X55236123Y-72817501D01*
X55176516Y-72823908D01*
X55041671Y-72874202D01*
X55041664Y-72874206D01*
X54926455Y-72960452D01*
X54926452Y-72960455D01*
X54840206Y-73075664D01*
X54840202Y-73075671D01*
X54789908Y-73210517D01*
X54783501Y-73270116D01*
X54783500Y-73270135D01*
X54783500Y-75065870D01*
X54783501Y-75065876D01*
X54789908Y-75125483D01*
X54840202Y-75260328D01*
X54840206Y-75260335D01*
X54926452Y-75375544D01*
X54926455Y-75375547D01*
X55041664Y-75461793D01*
X55041671Y-75461797D01*
X55086618Y-75478561D01*
X55176517Y-75512091D01*
X55236127Y-75518500D01*
X55259497Y-75518499D01*
X55326536Y-75538181D01*
X55372292Y-75590983D01*
X55383500Y-75642499D01*
X55383500Y-77283500D01*
X55363815Y-77350539D01*
X55311011Y-77396294D01*
X55259505Y-77407500D01*
X55236132Y-77407500D01*
X55236123Y-77407501D01*
X55176516Y-77413908D01*
X55041671Y-77464202D01*
X55041664Y-77464206D01*
X54926455Y-77550452D01*
X54926452Y-77550455D01*
X54840206Y-77665664D01*
X54840202Y-77665671D01*
X54789908Y-77800517D01*
X54783501Y-77860116D01*
X54783500Y-77860135D01*
X54783500Y-79655870D01*
X54783501Y-79655876D01*
X54789908Y-79715483D01*
X54840202Y-79850328D01*
X54840206Y-79850335D01*
X54926452Y-79965544D01*
X54926455Y-79965547D01*
X55006525Y-80025488D01*
X55048396Y-80081422D01*
X55053380Y-80151113D01*
X55019895Y-80212435D01*
X46416047Y-88816284D01*
X46413842Y-88819585D01*
X46393439Y-88850122D01*
X46363575Y-88894816D01*
X46333914Y-88939207D01*
X46277343Y-89075782D01*
X46277340Y-89075792D01*
X46248500Y-89220779D01*
X46248500Y-89220782D01*
X46248500Y-103079918D01*
X46248500Y-103079920D01*
X46248499Y-103079920D01*
X40500500Y-103079920D01*
X40500500Y-70862332D01*
X40899500Y-70862332D01*
X40899500Y-71137667D01*
X40899501Y-71137684D01*
X40935438Y-71410655D01*
X40935439Y-71410660D01*
X40935440Y-71410666D01*
X40935441Y-71410668D01*
X41006704Y-71676630D01*
X41112075Y-71931017D01*
X41112080Y-71931028D01*
X41191809Y-72069121D01*
X41249751Y-72169479D01*
X41249753Y-72169482D01*
X41249754Y-72169483D01*
X41417370Y-72387926D01*
X41417376Y-72387933D01*
X41612066Y-72582623D01*
X41612073Y-72582629D01*
X41697380Y-72648087D01*
X41830521Y-72750249D01*
X41939339Y-72813075D01*
X42068971Y-72887919D01*
X42068976Y-72887921D01*
X42068979Y-72887923D01*
X42323368Y-72993295D01*
X42589334Y-73064560D01*
X42862326Y-73100500D01*
X42862333Y-73100500D01*
X43137667Y-73100500D01*
X43137674Y-73100500D01*
X43410666Y-73064560D01*
X43676632Y-72993295D01*
X43931021Y-72887923D01*
X44169479Y-72750249D01*
X44387928Y-72582628D01*
X44582628Y-72387928D01*
X44750249Y-72169479D01*
X44887923Y-71931021D01*
X44993295Y-71676632D01*
X45064560Y-71410666D01*
X45100500Y-71137674D01*
X45100500Y-70862332D01*
X113899500Y-70862332D01*
X113899500Y-71137667D01*
X113899501Y-71137684D01*
X113935438Y-71410655D01*
X113935439Y-71410660D01*
X113935440Y-71410666D01*
X113935441Y-71410668D01*
X114006704Y-71676630D01*
X114112075Y-71931017D01*
X114112080Y-71931028D01*
X114191809Y-72069121D01*
X114249751Y-72169479D01*
X114249753Y-72169482D01*
X114249754Y-72169483D01*
X114417370Y-72387926D01*
X114417376Y-72387933D01*
X114612066Y-72582623D01*
X114612073Y-72582629D01*
X114697380Y-72648087D01*
X114830521Y-72750249D01*
X114939339Y-72813075D01*
X115068971Y-72887919D01*
X115068976Y-72887921D01*
X115068979Y-72887923D01*
X115323368Y-72993295D01*
X115589334Y-73064560D01*
X115862326Y-73100500D01*
X115862333Y-73100500D01*
X116137667Y-73100500D01*
X116137674Y-73100500D01*
X116410666Y-73064560D01*
X116676632Y-72993295D01*
X116931021Y-72887923D01*
X117169479Y-72750249D01*
X117387928Y-72582628D01*
X117582628Y-72387928D01*
X117750249Y-72169479D01*
X117887923Y-71931021D01*
X117993295Y-71676632D01*
X118064560Y-71410666D01*
X118100500Y-71137674D01*
X118100500Y-70862326D01*
X118064560Y-70589334D01*
X117993295Y-70323368D01*
X117887923Y-70068979D01*
X117887921Y-70068976D01*
X117887919Y-70068971D01*
X117838732Y-69983778D01*
X117750249Y-69830521D01*
X117582628Y-69612072D01*
X117582623Y-69612066D01*
X117387933Y-69417376D01*
X117387926Y-69417370D01*
X117169483Y-69249754D01*
X117169482Y-69249753D01*
X117169479Y-69249751D01*
X117074407Y-69194861D01*
X116931028Y-69112080D01*
X116931017Y-69112075D01*
X116676630Y-69006704D01*
X116543649Y-68971072D01*
X116410666Y-68935440D01*
X116410660Y-68935439D01*
X116410655Y-68935438D01*
X116137684Y-68899501D01*
X116137679Y-68899500D01*
X116137674Y-68899500D01*
X115862326Y-68899500D01*
X115862320Y-68899500D01*
X115862315Y-68899501D01*
X115589344Y-68935438D01*
X115589337Y-68935439D01*
X115589334Y-68935440D01*
X115533125Y-68950500D01*
X115323369Y-69006704D01*
X115068982Y-69112075D01*
X115068971Y-69112080D01*
X114830516Y-69249754D01*
X114612073Y-69417370D01*
X114612066Y-69417376D01*
X114417376Y-69612066D01*
X114417370Y-69612073D01*
X114249754Y-69830516D01*
X114112080Y-70068971D01*
X114112075Y-70068982D01*
X114006704Y-70323369D01*
X113935441Y-70589331D01*
X113935438Y-70589344D01*
X113899501Y-70862315D01*
X113899500Y-70862332D01*
X45100500Y-70862332D01*
X45100500Y-70862326D01*
X45064560Y-70589334D01*
X44993295Y-70323368D01*
X44887923Y-70068979D01*
X44887921Y-70068976D01*
X44887919Y-70068971D01*
X44838732Y-69983778D01*
X44750249Y-69830521D01*
X44582628Y-69612072D01*
X44582623Y-69612066D01*
X44387933Y-69417376D01*
X44387926Y-69417370D01*
X44169483Y-69249754D01*
X44169482Y-69249753D01*
X44169479Y-69249751D01*
X44074407Y-69194861D01*
X43931028Y-69112080D01*
X43931017Y-69112075D01*
X43676630Y-69006704D01*
X43543649Y-68971072D01*
X43410666Y-68935440D01*
X43410660Y-68935439D01*
X43410655Y-68935438D01*
X43137684Y-68899501D01*
X43137679Y-68899500D01*
X43137674Y-68899500D01*
X42862326Y-68899500D01*
X42862320Y-68899500D01*
X42862315Y-68899501D01*
X42589344Y-68935438D01*
X42589337Y-68935439D01*
X42589334Y-68935440D01*
X42533125Y-68950500D01*
X42323369Y-69006704D01*
X42068982Y-69112075D01*
X42068971Y-69112080D01*
X41830516Y-69249754D01*
X41612073Y-69417370D01*
X41612066Y-69417376D01*
X41417376Y-69612066D01*
X41417370Y-69612073D01*
X41249754Y-69830516D01*
X41112080Y-70068971D01*
X41112075Y-70068982D01*
X41006704Y-70323369D01*
X40935441Y-70589331D01*
X40935438Y-70589344D01*
X40899501Y-70862315D01*
X40899500Y-70862332D01*
X40500500Y-70862332D01*
X40500500Y-67624500D01*
X40520185Y-67557461D01*
X40572989Y-67511706D01*
X40624500Y-67500500D01*
X119375500Y-67500500D01*
X119442539Y-67520185D01*
G37*
%TD.AperFunction*%
%TD*%
M02*
