M48
; DRILL file {KiCad 9.0.3} date 2025-08-11T14:45:27+0900
; FORMAT={-:-/ absolute / metric / decimal}
; #@! TF.CreationDate,2025-08-11T14:45:27+09:00
; #@! TF.GenerationSoftware,Kicad,Pcbnew,9.0.3
; #@! TF.FileFunction,Plated,1,2,PTH
FMAT,2
METRIC
; #@! TA.AperFunction,Plated,PTH,ViaDrill
T1C0.300
; #@! TA.AperFunction,Plated,PTH,ComponentDrill
T2C0.700
; #@! TA.AperFunction,Plated,PTH,ComponentDrill
T3C0.750
; #@! TA.AperFunction,Plated,PTH,ComponentDrill
T4C0.800
; #@! TA.AperFunction,Plated,PTH,ComponentDrill
T5C1.000
; #@! TA.AperFunction,Plated,PTH,ComponentDrill
T6C1.200
; #@! TA.AperFunction,Plated,PTH,ComponentDrill
T7C2.970
%
G90
G05
T1
X74.631Y-106.387
X79.782Y-81.08
X89.68Y-123.934
X94.907Y-94.742
T2
X48.26Y-93.853
X48.26Y-101.473
X48.26Y-114.808
X48.26Y-122.428
X50.8Y-93.853
X50.8Y-101.473
X50.8Y-114.681
X50.8Y-122.301
X53.34Y-93.853
X53.34Y-101.473
X55.88Y-93.853
X55.88Y-101.473
X61.849Y-88.646
X61.849Y-91.168
X61.849Y-93.708
X61.849Y-96.248
X61.849Y-98.788
X61.849Y-101.328
X69.469Y-88.646
X69.469Y-91.168
X69.469Y-93.708
X69.469Y-96.248
X69.469Y-98.788
X69.469Y-101.328
X75.692Y-116.314
X75.692Y-118.854
X75.692Y-121.394
X83.058Y-83.947
X83.058Y-86.233
X83.058Y-88.646
X83.058Y-91.313
X83.058Y-93.726
X83.058Y-96.266
X83.058Y-98.679
X83.058Y-106.426
X83.312Y-116.314
X83.312Y-118.854
X83.312Y-121.394
X86.106Y-127.127
X90.678Y-83.947
X90.678Y-86.233
X90.678Y-88.646
X90.678Y-91.313
X90.678Y-93.726
X90.678Y-96.266
X90.678Y-98.679
X90.678Y-106.426
X93.726Y-127.127
X98.425Y-101.346
X98.425Y-108.966
X98.552Y-80.518
X98.552Y-88.138
X100.965Y-80.518
X100.965Y-88.138
X100.965Y-101.237
X100.965Y-108.857
X103.505Y-80.518
X103.505Y-88.138
X106.045Y-80.518
X106.045Y-88.138
T3
X52.578Y-87.122
X53.848Y-85.852
X55.118Y-87.122
X101.092Y-74.295
X102.362Y-75.565
X103.632Y-74.295
T4
X48.26Y-104.267
X48.26Y-111.887
X50.8Y-104.267
X50.8Y-111.887
X53.34Y-104.267
X53.34Y-111.887
X55.88Y-104.267
X55.88Y-111.887
X72.517Y-88.628
X72.517Y-91.168
X72.517Y-93.708
X72.517Y-96.248
X72.517Y-98.788
X72.517Y-101.328
X72.517Y-103.868
X72.517Y-106.408
X80.137Y-88.628
X80.137Y-91.168
X80.137Y-93.708
X80.137Y-96.248
X80.137Y-98.788
X80.137Y-101.328
X80.137Y-103.868
X80.137Y-106.408
X81.534Y-78.17
X81.534Y-80.67
X83.098Y-110.98
X85.598Y-110.98
X86.233Y-116.314
X86.233Y-118.854
X86.233Y-121.394
X86.233Y-123.934
X87.757Y-78.043
X87.757Y-80.543
X92.115Y-111.107
X93.853Y-116.314
X93.853Y-118.854
X93.853Y-121.394
X93.853Y-123.934
X94.615Y-111.107
X98.425Y-91.059
X98.425Y-98.679
X100.965Y-91.059
X100.965Y-98.679
X103.505Y-91.059
X103.505Y-98.679
X106.045Y-91.059
X106.045Y-98.679
T5
X56.134Y-74.168
X56.134Y-78.758
X58.674Y-74.168
X58.674Y-78.758
X61.214Y-74.168
X61.214Y-78.758
X63.754Y-74.168
X63.754Y-78.758
X66.294Y-74.168
X66.294Y-78.758
X68.834Y-74.168
X68.834Y-78.758
X82.042Y-73.279
X84.582Y-73.279
X87.122Y-73.279
X114.935Y-98.933
X114.935Y-101.473
X114.935Y-106.553
X114.935Y-109.093
T6
X60.786Y-128.125
X63.286Y-128.125
X65.786Y-128.125
X102.188Y-127.871
X104.688Y-127.871
X107.188Y-127.871
T7
X58.886Y-121.125
X67.686Y-121.125
X100.288Y-120.871
X109.088Y-120.871
M30
