%TF.GenerationSoftware,KiCad,Pcbnew,9.0.3*%
%TF.CreationDate,2025-08-11T14:45:13+09:00*%
%TF.ProjectId,debugVCASeparate,64656275-6756-4434-9153-657061726174,rev?*%
%TF.SameCoordinates,Original*%
%TF.FileFunction,Legend,Top*%
%TF.FilePolarity,Positive*%
%FSLAX46Y46*%
G04 Gerber Fmt 4.6, Leading zero omitted, Abs format (unit mm)*
G04 Created by KiCad (PCBNEW 9.0.3) date 2025-08-11 14:45:13*
%MOMM*%
%LPD*%
G01*
G04 APERTURE LIST*
%ADD10C,0.200000*%
%ADD11C,0.150000*%
%ADD12C,0.254000*%
%ADD13C,0.120000*%
%ADD14C,0.100000*%
G04 APERTURE END LIST*
D10*
X42611971Y-85840578D02*
X44111971Y-85840578D01*
X42683400Y-85840578D02*
X42611971Y-85697720D01*
X42611971Y-85697720D02*
X42611971Y-85412006D01*
X42611971Y-85412006D02*
X42683400Y-85269149D01*
X42683400Y-85269149D02*
X42754828Y-85197720D01*
X42754828Y-85197720D02*
X42897685Y-85126292D01*
X42897685Y-85126292D02*
X43326257Y-85126292D01*
X43326257Y-85126292D02*
X43469114Y-85197720D01*
X43469114Y-85197720D02*
X43540542Y-85269149D01*
X43540542Y-85269149D02*
X43611971Y-85412006D01*
X43611971Y-85412006D02*
X43611971Y-85697720D01*
X43611971Y-85697720D02*
X43540542Y-85840578D01*
X42683400Y-87126292D02*
X42611971Y-86983435D01*
X42611971Y-86983435D02*
X42611971Y-86697721D01*
X42611971Y-86697721D02*
X42683400Y-86554863D01*
X42683400Y-86554863D02*
X42826257Y-86483435D01*
X42826257Y-86483435D02*
X43397685Y-86483435D01*
X43397685Y-86483435D02*
X43540542Y-86554863D01*
X43540542Y-86554863D02*
X43611971Y-86697721D01*
X43611971Y-86697721D02*
X43611971Y-86983435D01*
X43611971Y-86983435D02*
X43540542Y-87126292D01*
X43540542Y-87126292D02*
X43397685Y-87197721D01*
X43397685Y-87197721D02*
X43254828Y-87197721D01*
X43254828Y-87197721D02*
X43111971Y-86483435D01*
X42611971Y-87840577D02*
X44111971Y-87840577D01*
X43540542Y-87840577D02*
X43611971Y-87983435D01*
X43611971Y-87983435D02*
X43611971Y-88269149D01*
X43611971Y-88269149D02*
X43540542Y-88412006D01*
X43540542Y-88412006D02*
X43469114Y-88483435D01*
X43469114Y-88483435D02*
X43326257Y-88554863D01*
X43326257Y-88554863D02*
X42897685Y-88554863D01*
X42897685Y-88554863D02*
X42754828Y-88483435D01*
X42754828Y-88483435D02*
X42683400Y-88412006D01*
X42683400Y-88412006D02*
X42611971Y-88269149D01*
X42611971Y-88269149D02*
X42611971Y-87983435D01*
X42611971Y-87983435D02*
X42683400Y-87840577D01*
X43611971Y-89840578D02*
X42611971Y-89840578D01*
X43611971Y-89197720D02*
X42826257Y-89197720D01*
X42826257Y-89197720D02*
X42683400Y-89269149D01*
X42683400Y-89269149D02*
X42611971Y-89412006D01*
X42611971Y-89412006D02*
X42611971Y-89626292D01*
X42611971Y-89626292D02*
X42683400Y-89769149D01*
X42683400Y-89769149D02*
X42754828Y-89840578D01*
X43611971Y-91197721D02*
X42397685Y-91197721D01*
X42397685Y-91197721D02*
X42254828Y-91126292D01*
X42254828Y-91126292D02*
X42183400Y-91054863D01*
X42183400Y-91054863D02*
X42111971Y-90912006D01*
X42111971Y-90912006D02*
X42111971Y-90697721D01*
X42111971Y-90697721D02*
X42183400Y-90554863D01*
X42683400Y-91197721D02*
X42611971Y-91054863D01*
X42611971Y-91054863D02*
X42611971Y-90769149D01*
X42611971Y-90769149D02*
X42683400Y-90626292D01*
X42683400Y-90626292D02*
X42754828Y-90554863D01*
X42754828Y-90554863D02*
X42897685Y-90483435D01*
X42897685Y-90483435D02*
X43326257Y-90483435D01*
X43326257Y-90483435D02*
X43469114Y-90554863D01*
X43469114Y-90554863D02*
X43540542Y-90626292D01*
X43540542Y-90626292D02*
X43611971Y-90769149D01*
X43611971Y-90769149D02*
X43611971Y-91054863D01*
X43611971Y-91054863D02*
X43540542Y-91197721D01*
X44111971Y-91697721D02*
X42611971Y-92197721D01*
X42611971Y-92197721D02*
X44111971Y-92697721D01*
X42754828Y-94054863D02*
X42683400Y-93983435D01*
X42683400Y-93983435D02*
X42611971Y-93769149D01*
X42611971Y-93769149D02*
X42611971Y-93626292D01*
X42611971Y-93626292D02*
X42683400Y-93412006D01*
X42683400Y-93412006D02*
X42826257Y-93269149D01*
X42826257Y-93269149D02*
X42969114Y-93197720D01*
X42969114Y-93197720D02*
X43254828Y-93126292D01*
X43254828Y-93126292D02*
X43469114Y-93126292D01*
X43469114Y-93126292D02*
X43754828Y-93197720D01*
X43754828Y-93197720D02*
X43897685Y-93269149D01*
X43897685Y-93269149D02*
X44040542Y-93412006D01*
X44040542Y-93412006D02*
X44111971Y-93626292D01*
X44111971Y-93626292D02*
X44111971Y-93769149D01*
X44111971Y-93769149D02*
X44040542Y-93983435D01*
X44040542Y-93983435D02*
X43969114Y-94054863D01*
X43040542Y-94626292D02*
X43040542Y-95340578D01*
X42611971Y-94483435D02*
X44111971Y-94983435D01*
X44111971Y-94983435D02*
X42611971Y-95483435D01*
X42683400Y-95912006D02*
X42611971Y-96126292D01*
X42611971Y-96126292D02*
X42611971Y-96483434D01*
X42611971Y-96483434D02*
X42683400Y-96626292D01*
X42683400Y-96626292D02*
X42754828Y-96697720D01*
X42754828Y-96697720D02*
X42897685Y-96769149D01*
X42897685Y-96769149D02*
X43040542Y-96769149D01*
X43040542Y-96769149D02*
X43183400Y-96697720D01*
X43183400Y-96697720D02*
X43254828Y-96626292D01*
X43254828Y-96626292D02*
X43326257Y-96483434D01*
X43326257Y-96483434D02*
X43397685Y-96197720D01*
X43397685Y-96197720D02*
X43469114Y-96054863D01*
X43469114Y-96054863D02*
X43540542Y-95983434D01*
X43540542Y-95983434D02*
X43683400Y-95912006D01*
X43683400Y-95912006D02*
X43826257Y-95912006D01*
X43826257Y-95912006D02*
X43969114Y-95983434D01*
X43969114Y-95983434D02*
X44040542Y-96054863D01*
X44040542Y-96054863D02*
X44111971Y-96197720D01*
X44111971Y-96197720D02*
X44111971Y-96554863D01*
X44111971Y-96554863D02*
X44040542Y-96769149D01*
X42683400Y-97983434D02*
X42611971Y-97840577D01*
X42611971Y-97840577D02*
X42611971Y-97554863D01*
X42611971Y-97554863D02*
X42683400Y-97412005D01*
X42683400Y-97412005D02*
X42826257Y-97340577D01*
X42826257Y-97340577D02*
X43397685Y-97340577D01*
X43397685Y-97340577D02*
X43540542Y-97412005D01*
X43540542Y-97412005D02*
X43611971Y-97554863D01*
X43611971Y-97554863D02*
X43611971Y-97840577D01*
X43611971Y-97840577D02*
X43540542Y-97983434D01*
X43540542Y-97983434D02*
X43397685Y-98054863D01*
X43397685Y-98054863D02*
X43254828Y-98054863D01*
X43254828Y-98054863D02*
X43111971Y-97340577D01*
X43611971Y-98697719D02*
X42111971Y-98697719D01*
X43540542Y-98697719D02*
X43611971Y-98840577D01*
X43611971Y-98840577D02*
X43611971Y-99126291D01*
X43611971Y-99126291D02*
X43540542Y-99269148D01*
X43540542Y-99269148D02*
X43469114Y-99340577D01*
X43469114Y-99340577D02*
X43326257Y-99412005D01*
X43326257Y-99412005D02*
X42897685Y-99412005D01*
X42897685Y-99412005D02*
X42754828Y-99340577D01*
X42754828Y-99340577D02*
X42683400Y-99269148D01*
X42683400Y-99269148D02*
X42611971Y-99126291D01*
X42611971Y-99126291D02*
X42611971Y-98840577D01*
X42611971Y-98840577D02*
X42683400Y-98697719D01*
X42611971Y-100697720D02*
X43397685Y-100697720D01*
X43397685Y-100697720D02*
X43540542Y-100626291D01*
X43540542Y-100626291D02*
X43611971Y-100483434D01*
X43611971Y-100483434D02*
X43611971Y-100197720D01*
X43611971Y-100197720D02*
X43540542Y-100054862D01*
X42683400Y-100697720D02*
X42611971Y-100554862D01*
X42611971Y-100554862D02*
X42611971Y-100197720D01*
X42611971Y-100197720D02*
X42683400Y-100054862D01*
X42683400Y-100054862D02*
X42826257Y-99983434D01*
X42826257Y-99983434D02*
X42969114Y-99983434D01*
X42969114Y-99983434D02*
X43111971Y-100054862D01*
X43111971Y-100054862D02*
X43183400Y-100197720D01*
X43183400Y-100197720D02*
X43183400Y-100554862D01*
X43183400Y-100554862D02*
X43254828Y-100697720D01*
X42611971Y-101412005D02*
X43611971Y-101412005D01*
X43326257Y-101412005D02*
X43469114Y-101483434D01*
X43469114Y-101483434D02*
X43540542Y-101554863D01*
X43540542Y-101554863D02*
X43611971Y-101697720D01*
X43611971Y-101697720D02*
X43611971Y-101840577D01*
X42611971Y-102983434D02*
X43397685Y-102983434D01*
X43397685Y-102983434D02*
X43540542Y-102912005D01*
X43540542Y-102912005D02*
X43611971Y-102769148D01*
X43611971Y-102769148D02*
X43611971Y-102483434D01*
X43611971Y-102483434D02*
X43540542Y-102340576D01*
X42683400Y-102983434D02*
X42611971Y-102840576D01*
X42611971Y-102840576D02*
X42611971Y-102483434D01*
X42611971Y-102483434D02*
X42683400Y-102340576D01*
X42683400Y-102340576D02*
X42826257Y-102269148D01*
X42826257Y-102269148D02*
X42969114Y-102269148D01*
X42969114Y-102269148D02*
X43111971Y-102340576D01*
X43111971Y-102340576D02*
X43183400Y-102483434D01*
X43183400Y-102483434D02*
X43183400Y-102840576D01*
X43183400Y-102840576D02*
X43254828Y-102983434D01*
X43611971Y-103483434D02*
X43611971Y-104054862D01*
X44111971Y-103697719D02*
X42826257Y-103697719D01*
X42826257Y-103697719D02*
X42683400Y-103769148D01*
X42683400Y-103769148D02*
X42611971Y-103912005D01*
X42611971Y-103912005D02*
X42611971Y-104054862D01*
X42683400Y-105126291D02*
X42611971Y-104983434D01*
X42611971Y-104983434D02*
X42611971Y-104697720D01*
X42611971Y-104697720D02*
X42683400Y-104554862D01*
X42683400Y-104554862D02*
X42826257Y-104483434D01*
X42826257Y-104483434D02*
X43397685Y-104483434D01*
X43397685Y-104483434D02*
X43540542Y-104554862D01*
X43540542Y-104554862D02*
X43611971Y-104697720D01*
X43611971Y-104697720D02*
X43611971Y-104983434D01*
X43611971Y-104983434D02*
X43540542Y-105126291D01*
X43540542Y-105126291D02*
X43397685Y-105197720D01*
X43397685Y-105197720D02*
X43254828Y-105197720D01*
X43254828Y-105197720D02*
X43111971Y-104483434D01*
X43969114Y-106912005D02*
X44040542Y-106983433D01*
X44040542Y-106983433D02*
X44111971Y-107126291D01*
X44111971Y-107126291D02*
X44111971Y-107483433D01*
X44111971Y-107483433D02*
X44040542Y-107626291D01*
X44040542Y-107626291D02*
X43969114Y-107697719D01*
X43969114Y-107697719D02*
X43826257Y-107769148D01*
X43826257Y-107769148D02*
X43683400Y-107769148D01*
X43683400Y-107769148D02*
X43469114Y-107697719D01*
X43469114Y-107697719D02*
X42611971Y-106840576D01*
X42611971Y-106840576D02*
X42611971Y-107769148D01*
X44111971Y-108697719D02*
X44111971Y-108840576D01*
X44111971Y-108840576D02*
X44040542Y-108983433D01*
X44040542Y-108983433D02*
X43969114Y-109054862D01*
X43969114Y-109054862D02*
X43826257Y-109126290D01*
X43826257Y-109126290D02*
X43540542Y-109197719D01*
X43540542Y-109197719D02*
X43183400Y-109197719D01*
X43183400Y-109197719D02*
X42897685Y-109126290D01*
X42897685Y-109126290D02*
X42754828Y-109054862D01*
X42754828Y-109054862D02*
X42683400Y-108983433D01*
X42683400Y-108983433D02*
X42611971Y-108840576D01*
X42611971Y-108840576D02*
X42611971Y-108697719D01*
X42611971Y-108697719D02*
X42683400Y-108554862D01*
X42683400Y-108554862D02*
X42754828Y-108483433D01*
X42754828Y-108483433D02*
X42897685Y-108412004D01*
X42897685Y-108412004D02*
X43183400Y-108340576D01*
X43183400Y-108340576D02*
X43540542Y-108340576D01*
X43540542Y-108340576D02*
X43826257Y-108412004D01*
X43826257Y-108412004D02*
X43969114Y-108483433D01*
X43969114Y-108483433D02*
X44040542Y-108554862D01*
X44040542Y-108554862D02*
X44111971Y-108697719D01*
X43969114Y-109769147D02*
X44040542Y-109840575D01*
X44040542Y-109840575D02*
X44111971Y-109983433D01*
X44111971Y-109983433D02*
X44111971Y-110340575D01*
X44111971Y-110340575D02*
X44040542Y-110483433D01*
X44040542Y-110483433D02*
X43969114Y-110554861D01*
X43969114Y-110554861D02*
X43826257Y-110626290D01*
X43826257Y-110626290D02*
X43683400Y-110626290D01*
X43683400Y-110626290D02*
X43469114Y-110554861D01*
X43469114Y-110554861D02*
X42611971Y-109697718D01*
X42611971Y-109697718D02*
X42611971Y-110626290D01*
X44111971Y-111983432D02*
X44111971Y-111269146D01*
X44111971Y-111269146D02*
X43397685Y-111197718D01*
X43397685Y-111197718D02*
X43469114Y-111269146D01*
X43469114Y-111269146D02*
X43540542Y-111412004D01*
X43540542Y-111412004D02*
X43540542Y-111769146D01*
X43540542Y-111769146D02*
X43469114Y-111912004D01*
X43469114Y-111912004D02*
X43397685Y-111983432D01*
X43397685Y-111983432D02*
X43254828Y-112054861D01*
X43254828Y-112054861D02*
X42897685Y-112054861D01*
X42897685Y-112054861D02*
X42754828Y-111983432D01*
X42754828Y-111983432D02*
X42683400Y-111912004D01*
X42683400Y-111912004D02*
X42611971Y-111769146D01*
X42611971Y-111769146D02*
X42611971Y-111412004D01*
X42611971Y-111412004D02*
X42683400Y-111269146D01*
X42683400Y-111269146D02*
X42754828Y-111197718D01*
X44183400Y-113769146D02*
X42254828Y-112483432D01*
X43469114Y-114483432D02*
X43540542Y-114340575D01*
X43540542Y-114340575D02*
X43611971Y-114269146D01*
X43611971Y-114269146D02*
X43754828Y-114197718D01*
X43754828Y-114197718D02*
X43826257Y-114197718D01*
X43826257Y-114197718D02*
X43969114Y-114269146D01*
X43969114Y-114269146D02*
X44040542Y-114340575D01*
X44040542Y-114340575D02*
X44111971Y-114483432D01*
X44111971Y-114483432D02*
X44111971Y-114769146D01*
X44111971Y-114769146D02*
X44040542Y-114912004D01*
X44040542Y-114912004D02*
X43969114Y-114983432D01*
X43969114Y-114983432D02*
X43826257Y-115054861D01*
X43826257Y-115054861D02*
X43754828Y-115054861D01*
X43754828Y-115054861D02*
X43611971Y-114983432D01*
X43611971Y-114983432D02*
X43540542Y-114912004D01*
X43540542Y-114912004D02*
X43469114Y-114769146D01*
X43469114Y-114769146D02*
X43469114Y-114483432D01*
X43469114Y-114483432D02*
X43397685Y-114340575D01*
X43397685Y-114340575D02*
X43326257Y-114269146D01*
X43326257Y-114269146D02*
X43183400Y-114197718D01*
X43183400Y-114197718D02*
X42897685Y-114197718D01*
X42897685Y-114197718D02*
X42754828Y-114269146D01*
X42754828Y-114269146D02*
X42683400Y-114340575D01*
X42683400Y-114340575D02*
X42611971Y-114483432D01*
X42611971Y-114483432D02*
X42611971Y-114769146D01*
X42611971Y-114769146D02*
X42683400Y-114912004D01*
X42683400Y-114912004D02*
X42754828Y-114983432D01*
X42754828Y-114983432D02*
X42897685Y-115054861D01*
X42897685Y-115054861D02*
X43183400Y-115054861D01*
X43183400Y-115054861D02*
X43326257Y-114983432D01*
X43326257Y-114983432D02*
X43397685Y-114912004D01*
X43397685Y-114912004D02*
X43469114Y-114769146D01*
X44183400Y-116769146D02*
X42254828Y-115483432D01*
X42611971Y-118054861D02*
X42611971Y-117197718D01*
X42611971Y-117626289D02*
X44111971Y-117626289D01*
X44111971Y-117626289D02*
X43897685Y-117483432D01*
X43897685Y-117483432D02*
X43754828Y-117340575D01*
X43754828Y-117340575D02*
X43683400Y-117197718D01*
X42611971Y-119483432D02*
X42611971Y-118626289D01*
X42611971Y-119054860D02*
X44111971Y-119054860D01*
X44111971Y-119054860D02*
X43897685Y-118912003D01*
X43897685Y-118912003D02*
X43754828Y-118769146D01*
X43754828Y-118769146D02*
X43683400Y-118626289D01*
D11*
X97735286Y-132845557D02*
X98449572Y-132845557D01*
X97592429Y-133274128D02*
X98092429Y-131774128D01*
X98092429Y-131774128D02*
X98592429Y-133274128D01*
X99735286Y-132274128D02*
X99735286Y-133274128D01*
X99092428Y-132274128D02*
X99092428Y-133059842D01*
X99092428Y-133059842D02*
X99163857Y-133202700D01*
X99163857Y-133202700D02*
X99306714Y-133274128D01*
X99306714Y-133274128D02*
X99521000Y-133274128D01*
X99521000Y-133274128D02*
X99663857Y-133202700D01*
X99663857Y-133202700D02*
X99735286Y-133131271D01*
X101092429Y-133274128D02*
X101092429Y-131774128D01*
X101092429Y-133202700D02*
X100949571Y-133274128D01*
X100949571Y-133274128D02*
X100663857Y-133274128D01*
X100663857Y-133274128D02*
X100521000Y-133202700D01*
X100521000Y-133202700D02*
X100449571Y-133131271D01*
X100449571Y-133131271D02*
X100378143Y-132988414D01*
X100378143Y-132988414D02*
X100378143Y-132559842D01*
X100378143Y-132559842D02*
X100449571Y-132416985D01*
X100449571Y-132416985D02*
X100521000Y-132345557D01*
X100521000Y-132345557D02*
X100663857Y-132274128D01*
X100663857Y-132274128D02*
X100949571Y-132274128D01*
X100949571Y-132274128D02*
X101092429Y-132345557D01*
X101806714Y-133274128D02*
X101806714Y-132274128D01*
X101806714Y-131774128D02*
X101735286Y-131845557D01*
X101735286Y-131845557D02*
X101806714Y-131916985D01*
X101806714Y-131916985D02*
X101878143Y-131845557D01*
X101878143Y-131845557D02*
X101806714Y-131774128D01*
X101806714Y-131774128D02*
X101806714Y-131916985D01*
X102735286Y-133274128D02*
X102592429Y-133202700D01*
X102592429Y-133202700D02*
X102521000Y-133131271D01*
X102521000Y-133131271D02*
X102449572Y-132988414D01*
X102449572Y-132988414D02*
X102449572Y-132559842D01*
X102449572Y-132559842D02*
X102521000Y-132416985D01*
X102521000Y-132416985D02*
X102592429Y-132345557D01*
X102592429Y-132345557D02*
X102735286Y-132274128D01*
X102735286Y-132274128D02*
X102949572Y-132274128D01*
X102949572Y-132274128D02*
X103092429Y-132345557D01*
X103092429Y-132345557D02*
X103163858Y-132416985D01*
X103163858Y-132416985D02*
X103235286Y-132559842D01*
X103235286Y-132559842D02*
X103235286Y-132988414D01*
X103235286Y-132988414D02*
X103163858Y-133131271D01*
X103163858Y-133131271D02*
X103092429Y-133202700D01*
X103092429Y-133202700D02*
X102949572Y-133274128D01*
X102949572Y-133274128D02*
X102735286Y-133274128D01*
X103663858Y-131774128D02*
X104163858Y-133274128D01*
X104163858Y-133274128D02*
X104663858Y-131774128D01*
X105378143Y-133274128D02*
X105235286Y-133202700D01*
X105235286Y-133202700D02*
X105163857Y-133131271D01*
X105163857Y-133131271D02*
X105092429Y-132988414D01*
X105092429Y-132988414D02*
X105092429Y-132559842D01*
X105092429Y-132559842D02*
X105163857Y-132416985D01*
X105163857Y-132416985D02*
X105235286Y-132345557D01*
X105235286Y-132345557D02*
X105378143Y-132274128D01*
X105378143Y-132274128D02*
X105592429Y-132274128D01*
X105592429Y-132274128D02*
X105735286Y-132345557D01*
X105735286Y-132345557D02*
X105806715Y-132416985D01*
X105806715Y-132416985D02*
X105878143Y-132559842D01*
X105878143Y-132559842D02*
X105878143Y-132988414D01*
X105878143Y-132988414D02*
X105806715Y-133131271D01*
X105806715Y-133131271D02*
X105735286Y-133202700D01*
X105735286Y-133202700D02*
X105592429Y-133274128D01*
X105592429Y-133274128D02*
X105378143Y-133274128D01*
X106735286Y-133274128D02*
X106592429Y-133202700D01*
X106592429Y-133202700D02*
X106521000Y-133059842D01*
X106521000Y-133059842D02*
X106521000Y-131774128D01*
X107949572Y-132274128D02*
X107949572Y-133274128D01*
X107306714Y-132274128D02*
X107306714Y-133059842D01*
X107306714Y-133059842D02*
X107378143Y-133202700D01*
X107378143Y-133202700D02*
X107521000Y-133274128D01*
X107521000Y-133274128D02*
X107735286Y-133274128D01*
X107735286Y-133274128D02*
X107878143Y-133202700D01*
X107878143Y-133202700D02*
X107949572Y-133131271D01*
X108663857Y-133274128D02*
X108663857Y-132274128D01*
X108663857Y-132416985D02*
X108735286Y-132345557D01*
X108735286Y-132345557D02*
X108878143Y-132274128D01*
X108878143Y-132274128D02*
X109092429Y-132274128D01*
X109092429Y-132274128D02*
X109235286Y-132345557D01*
X109235286Y-132345557D02*
X109306715Y-132488414D01*
X109306715Y-132488414D02*
X109306715Y-133274128D01*
X109306715Y-132488414D02*
X109378143Y-132345557D01*
X109378143Y-132345557D02*
X109521000Y-132274128D01*
X109521000Y-132274128D02*
X109735286Y-132274128D01*
X109735286Y-132274128D02*
X109878143Y-132345557D01*
X109878143Y-132345557D02*
X109949572Y-132488414D01*
X109949572Y-132488414D02*
X109949572Y-133274128D01*
X111235286Y-133202700D02*
X111092429Y-133274128D01*
X111092429Y-133274128D02*
X110806715Y-133274128D01*
X110806715Y-133274128D02*
X110663857Y-133202700D01*
X110663857Y-133202700D02*
X110592429Y-133059842D01*
X110592429Y-133059842D02*
X110592429Y-132488414D01*
X110592429Y-132488414D02*
X110663857Y-132345557D01*
X110663857Y-132345557D02*
X110806715Y-132274128D01*
X110806715Y-132274128D02*
X111092429Y-132274128D01*
X111092429Y-132274128D02*
X111235286Y-132345557D01*
X111235286Y-132345557D02*
X111306715Y-132488414D01*
X111306715Y-132488414D02*
X111306715Y-132631271D01*
X111306715Y-132631271D02*
X110592429Y-132774128D01*
X58206285Y-133274128D02*
X57706285Y-132559842D01*
X57349142Y-133274128D02*
X57349142Y-131774128D01*
X57349142Y-131774128D02*
X57920571Y-131774128D01*
X57920571Y-131774128D02*
X58063428Y-131845557D01*
X58063428Y-131845557D02*
X58134857Y-131916985D01*
X58134857Y-131916985D02*
X58206285Y-132059842D01*
X58206285Y-132059842D02*
X58206285Y-132274128D01*
X58206285Y-132274128D02*
X58134857Y-132416985D01*
X58134857Y-132416985D02*
X58063428Y-132488414D01*
X58063428Y-132488414D02*
X57920571Y-132559842D01*
X57920571Y-132559842D02*
X57349142Y-132559842D01*
X59420571Y-133202700D02*
X59277714Y-133274128D01*
X59277714Y-133274128D02*
X58992000Y-133274128D01*
X58992000Y-133274128D02*
X58849142Y-133202700D01*
X58849142Y-133202700D02*
X58777714Y-133059842D01*
X58777714Y-133059842D02*
X58777714Y-132488414D01*
X58777714Y-132488414D02*
X58849142Y-132345557D01*
X58849142Y-132345557D02*
X58992000Y-132274128D01*
X58992000Y-132274128D02*
X59277714Y-132274128D01*
X59277714Y-132274128D02*
X59420571Y-132345557D01*
X59420571Y-132345557D02*
X59492000Y-132488414D01*
X59492000Y-132488414D02*
X59492000Y-132631271D01*
X59492000Y-132631271D02*
X58777714Y-132774128D01*
X60063428Y-133202700D02*
X60206285Y-133274128D01*
X60206285Y-133274128D02*
X60491999Y-133274128D01*
X60491999Y-133274128D02*
X60634856Y-133202700D01*
X60634856Y-133202700D02*
X60706285Y-133059842D01*
X60706285Y-133059842D02*
X60706285Y-132988414D01*
X60706285Y-132988414D02*
X60634856Y-132845557D01*
X60634856Y-132845557D02*
X60491999Y-132774128D01*
X60491999Y-132774128D02*
X60277714Y-132774128D01*
X60277714Y-132774128D02*
X60134856Y-132702700D01*
X60134856Y-132702700D02*
X60063428Y-132559842D01*
X60063428Y-132559842D02*
X60063428Y-132488414D01*
X60063428Y-132488414D02*
X60134856Y-132345557D01*
X60134856Y-132345557D02*
X60277714Y-132274128D01*
X60277714Y-132274128D02*
X60491999Y-132274128D01*
X60491999Y-132274128D02*
X60634856Y-132345557D01*
X61563428Y-133274128D02*
X61420571Y-133202700D01*
X61420571Y-133202700D02*
X61349142Y-133131271D01*
X61349142Y-133131271D02*
X61277714Y-132988414D01*
X61277714Y-132988414D02*
X61277714Y-132559842D01*
X61277714Y-132559842D02*
X61349142Y-132416985D01*
X61349142Y-132416985D02*
X61420571Y-132345557D01*
X61420571Y-132345557D02*
X61563428Y-132274128D01*
X61563428Y-132274128D02*
X61777714Y-132274128D01*
X61777714Y-132274128D02*
X61920571Y-132345557D01*
X61920571Y-132345557D02*
X61992000Y-132416985D01*
X61992000Y-132416985D02*
X62063428Y-132559842D01*
X62063428Y-132559842D02*
X62063428Y-132988414D01*
X62063428Y-132988414D02*
X61992000Y-133131271D01*
X61992000Y-133131271D02*
X61920571Y-133202700D01*
X61920571Y-133202700D02*
X61777714Y-133274128D01*
X61777714Y-133274128D02*
X61563428Y-133274128D01*
X62706285Y-132274128D02*
X62706285Y-133274128D01*
X62706285Y-132416985D02*
X62777714Y-132345557D01*
X62777714Y-132345557D02*
X62920571Y-132274128D01*
X62920571Y-132274128D02*
X63134857Y-132274128D01*
X63134857Y-132274128D02*
X63277714Y-132345557D01*
X63277714Y-132345557D02*
X63349143Y-132488414D01*
X63349143Y-132488414D02*
X63349143Y-133274128D01*
X64706286Y-133274128D02*
X64706286Y-132488414D01*
X64706286Y-132488414D02*
X64634857Y-132345557D01*
X64634857Y-132345557D02*
X64492000Y-132274128D01*
X64492000Y-132274128D02*
X64206286Y-132274128D01*
X64206286Y-132274128D02*
X64063428Y-132345557D01*
X64706286Y-133202700D02*
X64563428Y-133274128D01*
X64563428Y-133274128D02*
X64206286Y-133274128D01*
X64206286Y-133274128D02*
X64063428Y-133202700D01*
X64063428Y-133202700D02*
X63992000Y-133059842D01*
X63992000Y-133059842D02*
X63992000Y-132916985D01*
X63992000Y-132916985D02*
X64063428Y-132774128D01*
X64063428Y-132774128D02*
X64206286Y-132702700D01*
X64206286Y-132702700D02*
X64563428Y-132702700D01*
X64563428Y-132702700D02*
X64706286Y-132631271D01*
X65420571Y-132274128D02*
X65420571Y-133274128D01*
X65420571Y-132416985D02*
X65492000Y-132345557D01*
X65492000Y-132345557D02*
X65634857Y-132274128D01*
X65634857Y-132274128D02*
X65849143Y-132274128D01*
X65849143Y-132274128D02*
X65992000Y-132345557D01*
X65992000Y-132345557D02*
X66063429Y-132488414D01*
X66063429Y-132488414D02*
X66063429Y-133274128D01*
X67420572Y-133202700D02*
X67277714Y-133274128D01*
X67277714Y-133274128D02*
X66992000Y-133274128D01*
X66992000Y-133274128D02*
X66849143Y-133202700D01*
X66849143Y-133202700D02*
X66777714Y-133131271D01*
X66777714Y-133131271D02*
X66706286Y-132988414D01*
X66706286Y-132988414D02*
X66706286Y-132559842D01*
X66706286Y-132559842D02*
X66777714Y-132416985D01*
X66777714Y-132416985D02*
X66849143Y-132345557D01*
X66849143Y-132345557D02*
X66992000Y-132274128D01*
X66992000Y-132274128D02*
X67277714Y-132274128D01*
X67277714Y-132274128D02*
X67420572Y-132345557D01*
X68634857Y-133202700D02*
X68492000Y-133274128D01*
X68492000Y-133274128D02*
X68206286Y-133274128D01*
X68206286Y-133274128D02*
X68063428Y-133202700D01*
X68063428Y-133202700D02*
X67992000Y-133059842D01*
X67992000Y-133059842D02*
X67992000Y-132488414D01*
X67992000Y-132488414D02*
X68063428Y-132345557D01*
X68063428Y-132345557D02*
X68206286Y-132274128D01*
X68206286Y-132274128D02*
X68492000Y-132274128D01*
X68492000Y-132274128D02*
X68634857Y-132345557D01*
X68634857Y-132345557D02*
X68706286Y-132488414D01*
X68706286Y-132488414D02*
X68706286Y-132631271D01*
X68706286Y-132631271D02*
X67992000Y-132774128D01*
X87455523Y-68971438D02*
X87360285Y-68923819D01*
X87360285Y-68923819D02*
X87217428Y-68923819D01*
X87217428Y-68923819D02*
X87074571Y-68971438D01*
X87074571Y-68971438D02*
X86979333Y-69066676D01*
X86979333Y-69066676D02*
X86931714Y-69161914D01*
X86931714Y-69161914D02*
X86884095Y-69352390D01*
X86884095Y-69352390D02*
X86884095Y-69495247D01*
X86884095Y-69495247D02*
X86931714Y-69685723D01*
X86931714Y-69685723D02*
X86979333Y-69780961D01*
X86979333Y-69780961D02*
X87074571Y-69876200D01*
X87074571Y-69876200D02*
X87217428Y-69923819D01*
X87217428Y-69923819D02*
X87312666Y-69923819D01*
X87312666Y-69923819D02*
X87455523Y-69876200D01*
X87455523Y-69876200D02*
X87503142Y-69828580D01*
X87503142Y-69828580D02*
X87503142Y-69495247D01*
X87503142Y-69495247D02*
X87312666Y-69495247D01*
X87931714Y-69923819D02*
X87931714Y-68923819D01*
X87931714Y-68923819D02*
X88503142Y-69923819D01*
X88503142Y-69923819D02*
X88503142Y-68923819D01*
X88979333Y-69923819D02*
X88979333Y-68923819D01*
X88979333Y-68923819D02*
X89217428Y-68923819D01*
X89217428Y-68923819D02*
X89360285Y-68971438D01*
X89360285Y-68971438D02*
X89455523Y-69066676D01*
X89455523Y-69066676D02*
X89503142Y-69161914D01*
X89503142Y-69161914D02*
X89550761Y-69352390D01*
X89550761Y-69352390D02*
X89550761Y-69495247D01*
X89550761Y-69495247D02*
X89503142Y-69685723D01*
X89503142Y-69685723D02*
X89455523Y-69780961D01*
X89455523Y-69780961D02*
X89360285Y-69876200D01*
X89360285Y-69876200D02*
X89217428Y-69923819D01*
X89217428Y-69923819D02*
X88979333Y-69923819D01*
X89931714Y-69638104D02*
X90407904Y-69638104D01*
X89836476Y-69923819D02*
X90169809Y-68923819D01*
X90169809Y-68923819D02*
X90503142Y-69923819D01*
X83701095Y-68245847D02*
X84034428Y-69245847D01*
X84034428Y-69245847D02*
X84367761Y-68245847D01*
X85272523Y-69150608D02*
X85224904Y-69198228D01*
X85224904Y-69198228D02*
X85082047Y-69245847D01*
X85082047Y-69245847D02*
X84986809Y-69245847D01*
X84986809Y-69245847D02*
X84843952Y-69198228D01*
X84843952Y-69198228D02*
X84748714Y-69102989D01*
X84748714Y-69102989D02*
X84701095Y-69007751D01*
X84701095Y-69007751D02*
X84653476Y-68817275D01*
X84653476Y-68817275D02*
X84653476Y-68674418D01*
X84653476Y-68674418D02*
X84701095Y-68483942D01*
X84701095Y-68483942D02*
X84748714Y-68388704D01*
X84748714Y-68388704D02*
X84843952Y-68293466D01*
X84843952Y-68293466D02*
X84986809Y-68245847D01*
X84986809Y-68245847D02*
X85082047Y-68245847D01*
X85082047Y-68245847D02*
X85224904Y-68293466D01*
X85224904Y-68293466D02*
X85272523Y-68341085D01*
X86034428Y-68722037D02*
X85701095Y-68722037D01*
X85701095Y-69245847D02*
X85701095Y-68245847D01*
X85701095Y-68245847D02*
X86177285Y-68245847D01*
X84129666Y-69855791D02*
X84320142Y-69855791D01*
X84320142Y-69855791D02*
X84415380Y-69903410D01*
X84415380Y-69903410D02*
X84510618Y-69998648D01*
X84510618Y-69998648D02*
X84558237Y-70189124D01*
X84558237Y-70189124D02*
X84558237Y-70522457D01*
X84558237Y-70522457D02*
X84510618Y-70712933D01*
X84510618Y-70712933D02*
X84415380Y-70808172D01*
X84415380Y-70808172D02*
X84320142Y-70855791D01*
X84320142Y-70855791D02*
X84129666Y-70855791D01*
X84129666Y-70855791D02*
X84034428Y-70808172D01*
X84034428Y-70808172D02*
X83939190Y-70712933D01*
X83939190Y-70712933D02*
X83891571Y-70522457D01*
X83891571Y-70522457D02*
X83891571Y-70189124D01*
X83891571Y-70189124D02*
X83939190Y-69998648D01*
X83939190Y-69998648D02*
X84034428Y-69903410D01*
X84034428Y-69903410D02*
X84129666Y-69855791D01*
X85415380Y-70189124D02*
X85415380Y-70855791D01*
X84986809Y-70189124D02*
X84986809Y-70712933D01*
X84986809Y-70712933D02*
X85034428Y-70808172D01*
X85034428Y-70808172D02*
X85129666Y-70855791D01*
X85129666Y-70855791D02*
X85272523Y-70855791D01*
X85272523Y-70855791D02*
X85367761Y-70808172D01*
X85367761Y-70808172D02*
X85415380Y-70760552D01*
X85748714Y-70189124D02*
X86129666Y-70189124D01*
X85891571Y-69855791D02*
X85891571Y-70712933D01*
X85891571Y-70712933D02*
X85939190Y-70808172D01*
X85939190Y-70808172D02*
X86034428Y-70855791D01*
X86034428Y-70855791D02*
X86129666Y-70855791D01*
X80176809Y-69245847D02*
X79843476Y-68769656D01*
X79605381Y-69245847D02*
X79605381Y-68245847D01*
X79605381Y-68245847D02*
X79986333Y-68245847D01*
X79986333Y-68245847D02*
X80081571Y-68293466D01*
X80081571Y-68293466D02*
X80129190Y-68341085D01*
X80129190Y-68341085D02*
X80176809Y-68436323D01*
X80176809Y-68436323D02*
X80176809Y-68579180D01*
X80176809Y-68579180D02*
X80129190Y-68674418D01*
X80129190Y-68674418D02*
X80081571Y-68722037D01*
X80081571Y-68722037D02*
X79986333Y-68769656D01*
X79986333Y-68769656D02*
X79605381Y-68769656D01*
X80986333Y-69198228D02*
X80891095Y-69245847D01*
X80891095Y-69245847D02*
X80700619Y-69245847D01*
X80700619Y-69245847D02*
X80605381Y-69198228D01*
X80605381Y-69198228D02*
X80557762Y-69102989D01*
X80557762Y-69102989D02*
X80557762Y-68722037D01*
X80557762Y-68722037D02*
X80605381Y-68626799D01*
X80605381Y-68626799D02*
X80700619Y-68579180D01*
X80700619Y-68579180D02*
X80891095Y-68579180D01*
X80891095Y-68579180D02*
X80986333Y-68626799D01*
X80986333Y-68626799D02*
X81033952Y-68722037D01*
X81033952Y-68722037D02*
X81033952Y-68817275D01*
X81033952Y-68817275D02*
X80557762Y-68912513D01*
X81414905Y-69198228D02*
X81510143Y-69245847D01*
X81510143Y-69245847D02*
X81700619Y-69245847D01*
X81700619Y-69245847D02*
X81795857Y-69198228D01*
X81795857Y-69198228D02*
X81843476Y-69102989D01*
X81843476Y-69102989D02*
X81843476Y-69055370D01*
X81843476Y-69055370D02*
X81795857Y-68960132D01*
X81795857Y-68960132D02*
X81700619Y-68912513D01*
X81700619Y-68912513D02*
X81557762Y-68912513D01*
X81557762Y-68912513D02*
X81462524Y-68864894D01*
X81462524Y-68864894D02*
X81414905Y-68769656D01*
X81414905Y-68769656D02*
X81414905Y-68722037D01*
X81414905Y-68722037D02*
X81462524Y-68626799D01*
X81462524Y-68626799D02*
X81557762Y-68579180D01*
X81557762Y-68579180D02*
X81700619Y-68579180D01*
X81700619Y-68579180D02*
X81795857Y-68626799D01*
X82414905Y-69245847D02*
X82319667Y-69198228D01*
X82319667Y-69198228D02*
X82272048Y-69150608D01*
X82272048Y-69150608D02*
X82224429Y-69055370D01*
X82224429Y-69055370D02*
X82224429Y-68769656D01*
X82224429Y-68769656D02*
X82272048Y-68674418D01*
X82272048Y-68674418D02*
X82319667Y-68626799D01*
X82319667Y-68626799D02*
X82414905Y-68579180D01*
X82414905Y-68579180D02*
X82557762Y-68579180D01*
X82557762Y-68579180D02*
X82653000Y-68626799D01*
X82653000Y-68626799D02*
X82700619Y-68674418D01*
X82700619Y-68674418D02*
X82748238Y-68769656D01*
X82748238Y-68769656D02*
X82748238Y-69055370D01*
X82748238Y-69055370D02*
X82700619Y-69150608D01*
X82700619Y-69150608D02*
X82653000Y-69198228D01*
X82653000Y-69198228D02*
X82557762Y-69245847D01*
X82557762Y-69245847D02*
X82414905Y-69245847D01*
X79462524Y-69855791D02*
X79700619Y-70855791D01*
X79700619Y-70855791D02*
X79891095Y-70141505D01*
X79891095Y-70141505D02*
X80081571Y-70855791D01*
X80081571Y-70855791D02*
X80319667Y-69855791D01*
X81129190Y-70855791D02*
X81129190Y-70331981D01*
X81129190Y-70331981D02*
X81081571Y-70236743D01*
X81081571Y-70236743D02*
X80986333Y-70189124D01*
X80986333Y-70189124D02*
X80795857Y-70189124D01*
X80795857Y-70189124D02*
X80700619Y-70236743D01*
X81129190Y-70808172D02*
X81033952Y-70855791D01*
X81033952Y-70855791D02*
X80795857Y-70855791D01*
X80795857Y-70855791D02*
X80700619Y-70808172D01*
X80700619Y-70808172D02*
X80653000Y-70712933D01*
X80653000Y-70712933D02*
X80653000Y-70617695D01*
X80653000Y-70617695D02*
X80700619Y-70522457D01*
X80700619Y-70522457D02*
X80795857Y-70474838D01*
X80795857Y-70474838D02*
X81033952Y-70474838D01*
X81033952Y-70474838D02*
X81129190Y-70427219D01*
X81510143Y-70189124D02*
X81748238Y-70855791D01*
X81748238Y-70855791D02*
X81986333Y-70189124D01*
X82748238Y-70808172D02*
X82653000Y-70855791D01*
X82653000Y-70855791D02*
X82462524Y-70855791D01*
X82462524Y-70855791D02*
X82367286Y-70808172D01*
X82367286Y-70808172D02*
X82319667Y-70712933D01*
X82319667Y-70712933D02*
X82319667Y-70331981D01*
X82319667Y-70331981D02*
X82367286Y-70236743D01*
X82367286Y-70236743D02*
X82462524Y-70189124D01*
X82462524Y-70189124D02*
X82653000Y-70189124D01*
X82653000Y-70189124D02*
X82748238Y-70236743D01*
X82748238Y-70236743D02*
X82795857Y-70331981D01*
X82795857Y-70331981D02*
X82795857Y-70427219D01*
X82795857Y-70427219D02*
X82319667Y-70522457D01*
X68209438Y-71167476D02*
X68161819Y-71262714D01*
X68161819Y-71262714D02*
X68161819Y-71405571D01*
X68161819Y-71405571D02*
X68209438Y-71548428D01*
X68209438Y-71548428D02*
X68304676Y-71643666D01*
X68304676Y-71643666D02*
X68399914Y-71691285D01*
X68399914Y-71691285D02*
X68590390Y-71738904D01*
X68590390Y-71738904D02*
X68733247Y-71738904D01*
X68733247Y-71738904D02*
X68923723Y-71691285D01*
X68923723Y-71691285D02*
X69018961Y-71643666D01*
X69018961Y-71643666D02*
X69114200Y-71548428D01*
X69114200Y-71548428D02*
X69161819Y-71405571D01*
X69161819Y-71405571D02*
X69161819Y-71310333D01*
X69161819Y-71310333D02*
X69114200Y-71167476D01*
X69114200Y-71167476D02*
X69066580Y-71119857D01*
X69066580Y-71119857D02*
X68733247Y-71119857D01*
X68733247Y-71119857D02*
X68733247Y-71310333D01*
X69161819Y-70691285D02*
X68161819Y-70691285D01*
X68161819Y-70691285D02*
X69161819Y-70119857D01*
X69161819Y-70119857D02*
X68161819Y-70119857D01*
X69161819Y-69643666D02*
X68161819Y-69643666D01*
X68161819Y-69643666D02*
X68161819Y-69405571D01*
X68161819Y-69405571D02*
X68209438Y-69262714D01*
X68209438Y-69262714D02*
X68304676Y-69167476D01*
X68304676Y-69167476D02*
X68399914Y-69119857D01*
X68399914Y-69119857D02*
X68590390Y-69072238D01*
X68590390Y-69072238D02*
X68733247Y-69072238D01*
X68733247Y-69072238D02*
X68923723Y-69119857D01*
X68923723Y-69119857D02*
X69018961Y-69167476D01*
X69018961Y-69167476D02*
X69114200Y-69262714D01*
X69114200Y-69262714D02*
X69161819Y-69405571D01*
X69161819Y-69405571D02*
X69161819Y-69643666D01*
X68876104Y-68691285D02*
X68876104Y-68215095D01*
X69161819Y-68786523D02*
X68161819Y-68453190D01*
X68161819Y-68453190D02*
X69161819Y-68119857D01*
X63827866Y-72167475D02*
X63827866Y-71405571D01*
X64208819Y-70405571D02*
X64208819Y-70976999D01*
X64208819Y-70691285D02*
X63208819Y-70691285D01*
X63208819Y-70691285D02*
X63351676Y-70786523D01*
X63351676Y-70786523D02*
X63446914Y-70881761D01*
X63446914Y-70881761D02*
X63494533Y-70976999D01*
X63304057Y-70024618D02*
X63256438Y-69976999D01*
X63256438Y-69976999D02*
X63208819Y-69881761D01*
X63208819Y-69881761D02*
X63208819Y-69643666D01*
X63208819Y-69643666D02*
X63256438Y-69548428D01*
X63256438Y-69548428D02*
X63304057Y-69500809D01*
X63304057Y-69500809D02*
X63399295Y-69453190D01*
X63399295Y-69453190D02*
X63494533Y-69453190D01*
X63494533Y-69453190D02*
X63637390Y-69500809D01*
X63637390Y-69500809D02*
X64208819Y-70072237D01*
X64208819Y-70072237D02*
X64208819Y-69453190D01*
X63208819Y-69167475D02*
X64208819Y-68834142D01*
X64208819Y-68834142D02*
X63208819Y-68500809D01*
X63923104Y-68215094D02*
X63923104Y-67738904D01*
X64208819Y-68310332D02*
X63208819Y-67976999D01*
X63208819Y-67976999D02*
X64208819Y-67643666D01*
X61160866Y-71183285D02*
X61160866Y-70421381D01*
X60541819Y-69469000D02*
X60541819Y-69945190D01*
X60541819Y-69945190D02*
X61018009Y-69992809D01*
X61018009Y-69992809D02*
X60970390Y-69945190D01*
X60970390Y-69945190D02*
X60922771Y-69849952D01*
X60922771Y-69849952D02*
X60922771Y-69611857D01*
X60922771Y-69611857D02*
X60970390Y-69516619D01*
X60970390Y-69516619D02*
X61018009Y-69469000D01*
X61018009Y-69469000D02*
X61113247Y-69421381D01*
X61113247Y-69421381D02*
X61351342Y-69421381D01*
X61351342Y-69421381D02*
X61446580Y-69469000D01*
X61446580Y-69469000D02*
X61494200Y-69516619D01*
X61494200Y-69516619D02*
X61541819Y-69611857D01*
X61541819Y-69611857D02*
X61541819Y-69849952D01*
X61541819Y-69849952D02*
X61494200Y-69945190D01*
X61494200Y-69945190D02*
X61446580Y-69992809D01*
X60541819Y-69135666D02*
X61541819Y-68802333D01*
X61541819Y-68802333D02*
X60541819Y-68469000D01*
X61256104Y-68183285D02*
X61256104Y-67707095D01*
X61541819Y-68278523D02*
X60541819Y-67945190D01*
X60541819Y-67945190D02*
X61541819Y-67611857D01*
X58747866Y-71183285D02*
X58747866Y-70421381D01*
X59128819Y-70802333D02*
X58366914Y-70802333D01*
X58128819Y-69469000D02*
X58128819Y-69945190D01*
X58128819Y-69945190D02*
X58605009Y-69992809D01*
X58605009Y-69992809D02*
X58557390Y-69945190D01*
X58557390Y-69945190D02*
X58509771Y-69849952D01*
X58509771Y-69849952D02*
X58509771Y-69611857D01*
X58509771Y-69611857D02*
X58557390Y-69516619D01*
X58557390Y-69516619D02*
X58605009Y-69469000D01*
X58605009Y-69469000D02*
X58700247Y-69421381D01*
X58700247Y-69421381D02*
X58938342Y-69421381D01*
X58938342Y-69421381D02*
X59033580Y-69469000D01*
X59033580Y-69469000D02*
X59081200Y-69516619D01*
X59081200Y-69516619D02*
X59128819Y-69611857D01*
X59128819Y-69611857D02*
X59128819Y-69849952D01*
X59128819Y-69849952D02*
X59081200Y-69945190D01*
X59081200Y-69945190D02*
X59033580Y-69992809D01*
X58128819Y-69135666D02*
X59128819Y-68802333D01*
X59128819Y-68802333D02*
X58128819Y-68469000D01*
X58843104Y-68183285D02*
X58843104Y-67707095D01*
X59128819Y-68278523D02*
X58128819Y-67945190D01*
X58128819Y-67945190D02*
X59128819Y-67611857D01*
X56207866Y-72040475D02*
X56207866Y-71278571D01*
X56588819Y-71659523D02*
X55826914Y-71659523D01*
X56588819Y-70278571D02*
X56588819Y-70849999D01*
X56588819Y-70564285D02*
X55588819Y-70564285D01*
X55588819Y-70564285D02*
X55731676Y-70659523D01*
X55731676Y-70659523D02*
X55826914Y-70754761D01*
X55826914Y-70754761D02*
X55874533Y-70849999D01*
X55684057Y-69897618D02*
X55636438Y-69849999D01*
X55636438Y-69849999D02*
X55588819Y-69754761D01*
X55588819Y-69754761D02*
X55588819Y-69516666D01*
X55588819Y-69516666D02*
X55636438Y-69421428D01*
X55636438Y-69421428D02*
X55684057Y-69373809D01*
X55684057Y-69373809D02*
X55779295Y-69326190D01*
X55779295Y-69326190D02*
X55874533Y-69326190D01*
X55874533Y-69326190D02*
X56017390Y-69373809D01*
X56017390Y-69373809D02*
X56588819Y-69945237D01*
X56588819Y-69945237D02*
X56588819Y-69326190D01*
X55588819Y-69040475D02*
X56588819Y-68707142D01*
X56588819Y-68707142D02*
X55588819Y-68373809D01*
X56303104Y-68088094D02*
X56303104Y-67611904D01*
X56588819Y-68183332D02*
X55588819Y-67849999D01*
X55588819Y-67849999D02*
X56588819Y-67516666D01*
X89551191Y-74083104D02*
X90027381Y-74083104D01*
X89455953Y-74368819D02*
X89789286Y-73368819D01*
X89789286Y-73368819D02*
X90122619Y-74368819D01*
X90884524Y-73702152D02*
X90884524Y-74368819D01*
X90455953Y-73702152D02*
X90455953Y-74225961D01*
X90455953Y-74225961D02*
X90503572Y-74321200D01*
X90503572Y-74321200D02*
X90598810Y-74368819D01*
X90598810Y-74368819D02*
X90741667Y-74368819D01*
X90741667Y-74368819D02*
X90836905Y-74321200D01*
X90836905Y-74321200D02*
X90884524Y-74273580D01*
X91789286Y-74368819D02*
X91789286Y-73368819D01*
X91789286Y-74321200D02*
X91694048Y-74368819D01*
X91694048Y-74368819D02*
X91503572Y-74368819D01*
X91503572Y-74368819D02*
X91408334Y-74321200D01*
X91408334Y-74321200D02*
X91360715Y-74273580D01*
X91360715Y-74273580D02*
X91313096Y-74178342D01*
X91313096Y-74178342D02*
X91313096Y-73892628D01*
X91313096Y-73892628D02*
X91360715Y-73797390D01*
X91360715Y-73797390D02*
X91408334Y-73749771D01*
X91408334Y-73749771D02*
X91503572Y-73702152D01*
X91503572Y-73702152D02*
X91694048Y-73702152D01*
X91694048Y-73702152D02*
X91789286Y-73749771D01*
X92265477Y-74368819D02*
X92265477Y-73702152D01*
X92265477Y-73368819D02*
X92217858Y-73416438D01*
X92217858Y-73416438D02*
X92265477Y-73464057D01*
X92265477Y-73464057D02*
X92313096Y-73416438D01*
X92313096Y-73416438D02*
X92265477Y-73368819D01*
X92265477Y-73368819D02*
X92265477Y-73464057D01*
X92884524Y-74368819D02*
X92789286Y-74321200D01*
X92789286Y-74321200D02*
X92741667Y-74273580D01*
X92741667Y-74273580D02*
X92694048Y-74178342D01*
X92694048Y-74178342D02*
X92694048Y-73892628D01*
X92694048Y-73892628D02*
X92741667Y-73797390D01*
X92741667Y-73797390D02*
X92789286Y-73749771D01*
X92789286Y-73749771D02*
X92884524Y-73702152D01*
X92884524Y-73702152D02*
X93027381Y-73702152D01*
X93027381Y-73702152D02*
X93122619Y-73749771D01*
X93122619Y-73749771D02*
X93170238Y-73797390D01*
X93170238Y-73797390D02*
X93217857Y-73892628D01*
X93217857Y-73892628D02*
X93217857Y-74178342D01*
X93217857Y-74178342D02*
X93170238Y-74273580D01*
X93170238Y-74273580D02*
X93122619Y-74321200D01*
X93122619Y-74321200D02*
X93027381Y-74368819D01*
X93027381Y-74368819D02*
X92884524Y-74368819D01*
X93646429Y-74368819D02*
X93646429Y-73368819D01*
X94122619Y-73702152D02*
X94122619Y-74368819D01*
X94122619Y-73797390D02*
X94170238Y-73749771D01*
X94170238Y-73749771D02*
X94265476Y-73702152D01*
X94265476Y-73702152D02*
X94408333Y-73702152D01*
X94408333Y-73702152D02*
X94503571Y-73749771D01*
X94503571Y-73749771D02*
X94551190Y-73845009D01*
X94551190Y-73845009D02*
X94551190Y-74368819D01*
X52625666Y-78194819D02*
X52625666Y-78909104D01*
X52625666Y-78909104D02*
X52578047Y-79051961D01*
X52578047Y-79051961D02*
X52482809Y-79147200D01*
X52482809Y-79147200D02*
X52339952Y-79194819D01*
X52339952Y-79194819D02*
X52244714Y-79194819D01*
X53625666Y-79194819D02*
X53054238Y-79194819D01*
X53339952Y-79194819D02*
X53339952Y-78194819D01*
X53339952Y-78194819D02*
X53244714Y-78337676D01*
X53244714Y-78337676D02*
X53149476Y-78432914D01*
X53149476Y-78432914D02*
X53054238Y-78480533D01*
X106499819Y-78652666D02*
X106023628Y-78985999D01*
X106499819Y-79224094D02*
X105499819Y-79224094D01*
X105499819Y-79224094D02*
X105499819Y-78843142D01*
X105499819Y-78843142D02*
X105547438Y-78747904D01*
X105547438Y-78747904D02*
X105595057Y-78700285D01*
X105595057Y-78700285D02*
X105690295Y-78652666D01*
X105690295Y-78652666D02*
X105833152Y-78652666D01*
X105833152Y-78652666D02*
X105928390Y-78700285D01*
X105928390Y-78700285D02*
X105976009Y-78747904D01*
X105976009Y-78747904D02*
X106023628Y-78843142D01*
X106023628Y-78843142D02*
X106023628Y-79224094D01*
X106499819Y-77700285D02*
X106499819Y-78271713D01*
X106499819Y-77985999D02*
X105499819Y-77985999D01*
X105499819Y-77985999D02*
X105642676Y-78081237D01*
X105642676Y-78081237D02*
X105737914Y-78176475D01*
X105737914Y-78176475D02*
X105785533Y-78271713D01*
X92702142Y-86687819D02*
X92368809Y-86211628D01*
X92130714Y-86687819D02*
X92130714Y-85687819D01*
X92130714Y-85687819D02*
X92511666Y-85687819D01*
X92511666Y-85687819D02*
X92606904Y-85735438D01*
X92606904Y-85735438D02*
X92654523Y-85783057D01*
X92654523Y-85783057D02*
X92702142Y-85878295D01*
X92702142Y-85878295D02*
X92702142Y-86021152D01*
X92702142Y-86021152D02*
X92654523Y-86116390D01*
X92654523Y-86116390D02*
X92606904Y-86164009D01*
X92606904Y-86164009D02*
X92511666Y-86211628D01*
X92511666Y-86211628D02*
X92130714Y-86211628D01*
X93035476Y-85687819D02*
X93654523Y-85687819D01*
X93654523Y-85687819D02*
X93321190Y-86068771D01*
X93321190Y-86068771D02*
X93464047Y-86068771D01*
X93464047Y-86068771D02*
X93559285Y-86116390D01*
X93559285Y-86116390D02*
X93606904Y-86164009D01*
X93606904Y-86164009D02*
X93654523Y-86259247D01*
X93654523Y-86259247D02*
X93654523Y-86497342D01*
X93654523Y-86497342D02*
X93606904Y-86592580D01*
X93606904Y-86592580D02*
X93559285Y-86640200D01*
X93559285Y-86640200D02*
X93464047Y-86687819D01*
X93464047Y-86687819D02*
X93178333Y-86687819D01*
X93178333Y-86687819D02*
X93083095Y-86640200D01*
X93083095Y-86640200D02*
X93035476Y-86592580D01*
X94511666Y-86021152D02*
X94511666Y-86687819D01*
X94273571Y-85640200D02*
X94035476Y-86354485D01*
X94035476Y-86354485D02*
X94654523Y-86354485D01*
X114601666Y-111214819D02*
X114601666Y-111929104D01*
X114601666Y-111929104D02*
X114554047Y-112071961D01*
X114554047Y-112071961D02*
X114458809Y-112167200D01*
X114458809Y-112167200D02*
X114315952Y-112214819D01*
X114315952Y-112214819D02*
X114220714Y-112214819D01*
X114982619Y-111214819D02*
X115601666Y-111214819D01*
X115601666Y-111214819D02*
X115268333Y-111595771D01*
X115268333Y-111595771D02*
X115411190Y-111595771D01*
X115411190Y-111595771D02*
X115506428Y-111643390D01*
X115506428Y-111643390D02*
X115554047Y-111691009D01*
X115554047Y-111691009D02*
X115601666Y-111786247D01*
X115601666Y-111786247D02*
X115601666Y-112024342D01*
X115601666Y-112024342D02*
X115554047Y-112119580D01*
X115554047Y-112119580D02*
X115506428Y-112167200D01*
X115506428Y-112167200D02*
X115411190Y-112214819D01*
X115411190Y-112214819D02*
X115125476Y-112214819D01*
X115125476Y-112214819D02*
X115030238Y-112167200D01*
X115030238Y-112167200D02*
X114982619Y-112119580D01*
X111839762Y-113453104D02*
X112315952Y-113453104D01*
X111744524Y-113738819D02*
X112077857Y-112738819D01*
X112077857Y-112738819D02*
X112411190Y-113738819D01*
X113173095Y-113072152D02*
X113173095Y-113738819D01*
X112744524Y-113072152D02*
X112744524Y-113595961D01*
X112744524Y-113595961D02*
X112792143Y-113691200D01*
X112792143Y-113691200D02*
X112887381Y-113738819D01*
X112887381Y-113738819D02*
X113030238Y-113738819D01*
X113030238Y-113738819D02*
X113125476Y-113691200D01*
X113125476Y-113691200D02*
X113173095Y-113643580D01*
X114077857Y-113738819D02*
X114077857Y-112738819D01*
X114077857Y-113691200D02*
X113982619Y-113738819D01*
X113982619Y-113738819D02*
X113792143Y-113738819D01*
X113792143Y-113738819D02*
X113696905Y-113691200D01*
X113696905Y-113691200D02*
X113649286Y-113643580D01*
X113649286Y-113643580D02*
X113601667Y-113548342D01*
X113601667Y-113548342D02*
X113601667Y-113262628D01*
X113601667Y-113262628D02*
X113649286Y-113167390D01*
X113649286Y-113167390D02*
X113696905Y-113119771D01*
X113696905Y-113119771D02*
X113792143Y-113072152D01*
X113792143Y-113072152D02*
X113982619Y-113072152D01*
X113982619Y-113072152D02*
X114077857Y-113119771D01*
X114554048Y-113738819D02*
X114554048Y-113072152D01*
X114554048Y-112738819D02*
X114506429Y-112786438D01*
X114506429Y-112786438D02*
X114554048Y-112834057D01*
X114554048Y-112834057D02*
X114601667Y-112786438D01*
X114601667Y-112786438D02*
X114554048Y-112738819D01*
X114554048Y-112738819D02*
X114554048Y-112834057D01*
X115173095Y-113738819D02*
X115077857Y-113691200D01*
X115077857Y-113691200D02*
X115030238Y-113643580D01*
X115030238Y-113643580D02*
X114982619Y-113548342D01*
X114982619Y-113548342D02*
X114982619Y-113262628D01*
X114982619Y-113262628D02*
X115030238Y-113167390D01*
X115030238Y-113167390D02*
X115077857Y-113119771D01*
X115077857Y-113119771D02*
X115173095Y-113072152D01*
X115173095Y-113072152D02*
X115315952Y-113072152D01*
X115315952Y-113072152D02*
X115411190Y-113119771D01*
X115411190Y-113119771D02*
X115458809Y-113167390D01*
X115458809Y-113167390D02*
X115506428Y-113262628D01*
X115506428Y-113262628D02*
X115506428Y-113548342D01*
X115506428Y-113548342D02*
X115458809Y-113643580D01*
X115458809Y-113643580D02*
X115411190Y-113691200D01*
X115411190Y-113691200D02*
X115315952Y-113738819D01*
X115315952Y-113738819D02*
X115173095Y-113738819D01*
X116125476Y-112738819D02*
X116315952Y-112738819D01*
X116315952Y-112738819D02*
X116411190Y-112786438D01*
X116411190Y-112786438D02*
X116506428Y-112881676D01*
X116506428Y-112881676D02*
X116554047Y-113072152D01*
X116554047Y-113072152D02*
X116554047Y-113405485D01*
X116554047Y-113405485D02*
X116506428Y-113595961D01*
X116506428Y-113595961D02*
X116411190Y-113691200D01*
X116411190Y-113691200D02*
X116315952Y-113738819D01*
X116315952Y-113738819D02*
X116125476Y-113738819D01*
X116125476Y-113738819D02*
X116030238Y-113691200D01*
X116030238Y-113691200D02*
X115935000Y-113595961D01*
X115935000Y-113595961D02*
X115887381Y-113405485D01*
X115887381Y-113405485D02*
X115887381Y-113072152D01*
X115887381Y-113072152D02*
X115935000Y-112881676D01*
X115935000Y-112881676D02*
X116030238Y-112786438D01*
X116030238Y-112786438D02*
X116125476Y-112738819D01*
X117411190Y-113072152D02*
X117411190Y-113738819D01*
X116982619Y-113072152D02*
X116982619Y-113595961D01*
X116982619Y-113595961D02*
X117030238Y-113691200D01*
X117030238Y-113691200D02*
X117125476Y-113738819D01*
X117125476Y-113738819D02*
X117268333Y-113738819D01*
X117268333Y-113738819D02*
X117363571Y-113691200D01*
X117363571Y-113691200D02*
X117411190Y-113643580D01*
X117744524Y-113072152D02*
X118125476Y-113072152D01*
X117887381Y-112738819D02*
X117887381Y-113595961D01*
X117887381Y-113595961D02*
X117935000Y-113691200D01*
X117935000Y-113691200D02*
X118030238Y-113738819D01*
X118030238Y-113738819D02*
X118125476Y-113738819D01*
D12*
X61622905Y-112588318D02*
X62046238Y-113858318D01*
X62046238Y-113858318D02*
X62469572Y-112588318D01*
X63618619Y-113858318D02*
X63195285Y-113253556D01*
X62892904Y-113858318D02*
X62892904Y-112588318D01*
X62892904Y-112588318D02*
X63376714Y-112588318D01*
X63376714Y-112588318D02*
X63497666Y-112648794D01*
X63497666Y-112648794D02*
X63558143Y-112709270D01*
X63558143Y-112709270D02*
X63618619Y-112830222D01*
X63618619Y-112830222D02*
X63618619Y-113011651D01*
X63618619Y-113011651D02*
X63558143Y-113132603D01*
X63558143Y-113132603D02*
X63497666Y-113193080D01*
X63497666Y-113193080D02*
X63376714Y-113253556D01*
X63376714Y-113253556D02*
X62892904Y-113253556D01*
X64707190Y-112588318D02*
X64465285Y-112588318D01*
X64465285Y-112588318D02*
X64344333Y-112648794D01*
X64344333Y-112648794D02*
X64283857Y-112709270D01*
X64283857Y-112709270D02*
X64162904Y-112890699D01*
X64162904Y-112890699D02*
X64102428Y-113132603D01*
X64102428Y-113132603D02*
X64102428Y-113616413D01*
X64102428Y-113616413D02*
X64162904Y-113737365D01*
X64162904Y-113737365D02*
X64223381Y-113797842D01*
X64223381Y-113797842D02*
X64344333Y-113858318D01*
X64344333Y-113858318D02*
X64586238Y-113858318D01*
X64586238Y-113858318D02*
X64707190Y-113797842D01*
X64707190Y-113797842D02*
X64767666Y-113737365D01*
X64767666Y-113737365D02*
X64828143Y-113616413D01*
X64828143Y-113616413D02*
X64828143Y-113314032D01*
X64828143Y-113314032D02*
X64767666Y-113193080D01*
X64767666Y-113193080D02*
X64707190Y-113132603D01*
X64707190Y-113132603D02*
X64586238Y-113072127D01*
X64586238Y-113072127D02*
X64344333Y-113072127D01*
X64344333Y-113072127D02*
X64223381Y-113132603D01*
X64223381Y-113132603D02*
X64162904Y-113193080D01*
X64162904Y-113193080D02*
X64102428Y-113314032D01*
D11*
X52228761Y-83862057D02*
X52133523Y-83814438D01*
X52133523Y-83814438D02*
X52038285Y-83719200D01*
X52038285Y-83719200D02*
X51895428Y-83576342D01*
X51895428Y-83576342D02*
X51800190Y-83528723D01*
X51800190Y-83528723D02*
X51704952Y-83528723D01*
X51752571Y-83766819D02*
X51657333Y-83719200D01*
X51657333Y-83719200D02*
X51562095Y-83623961D01*
X51562095Y-83623961D02*
X51514476Y-83433485D01*
X51514476Y-83433485D02*
X51514476Y-83100152D01*
X51514476Y-83100152D02*
X51562095Y-82909676D01*
X51562095Y-82909676D02*
X51657333Y-82814438D01*
X51657333Y-82814438D02*
X51752571Y-82766819D01*
X51752571Y-82766819D02*
X51943047Y-82766819D01*
X51943047Y-82766819D02*
X52038285Y-82814438D01*
X52038285Y-82814438D02*
X52133523Y-82909676D01*
X52133523Y-82909676D02*
X52181142Y-83100152D01*
X52181142Y-83100152D02*
X52181142Y-83433485D01*
X52181142Y-83433485D02*
X52133523Y-83623961D01*
X52133523Y-83623961D02*
X52038285Y-83719200D01*
X52038285Y-83719200D02*
X51943047Y-83766819D01*
X51943047Y-83766819D02*
X51752571Y-83766819D01*
X53133523Y-83766819D02*
X52562095Y-83766819D01*
X52847809Y-83766819D02*
X52847809Y-82766819D01*
X52847809Y-82766819D02*
X52752571Y-82909676D01*
X52752571Y-82909676D02*
X52657333Y-83004914D01*
X52657333Y-83004914D02*
X52562095Y-83052533D01*
X48714819Y-91828857D02*
X48238628Y-92162190D01*
X48714819Y-92400285D02*
X47714819Y-92400285D01*
X47714819Y-92400285D02*
X47714819Y-92019333D01*
X47714819Y-92019333D02*
X47762438Y-91924095D01*
X47762438Y-91924095D02*
X47810057Y-91876476D01*
X47810057Y-91876476D02*
X47905295Y-91828857D01*
X47905295Y-91828857D02*
X48048152Y-91828857D01*
X48048152Y-91828857D02*
X48143390Y-91876476D01*
X48143390Y-91876476D02*
X48191009Y-91924095D01*
X48191009Y-91924095D02*
X48238628Y-92019333D01*
X48238628Y-92019333D02*
X48238628Y-92400285D01*
X48714819Y-90876476D02*
X48714819Y-91447904D01*
X48714819Y-91162190D02*
X47714819Y-91162190D01*
X47714819Y-91162190D02*
X47857676Y-91257428D01*
X47857676Y-91257428D02*
X47952914Y-91352666D01*
X47952914Y-91352666D02*
X48000533Y-91447904D01*
X48714819Y-89924095D02*
X48714819Y-90495523D01*
X48714819Y-90209809D02*
X47714819Y-90209809D01*
X47714819Y-90209809D02*
X47857676Y-90305047D01*
X47857676Y-90305047D02*
X47952914Y-90400285D01*
X47952914Y-90400285D02*
X48000533Y-90495523D01*
X58666142Y-101655819D02*
X58332809Y-101179628D01*
X58094714Y-101655819D02*
X58094714Y-100655819D01*
X58094714Y-100655819D02*
X58475666Y-100655819D01*
X58475666Y-100655819D02*
X58570904Y-100703438D01*
X58570904Y-100703438D02*
X58618523Y-100751057D01*
X58618523Y-100751057D02*
X58666142Y-100846295D01*
X58666142Y-100846295D02*
X58666142Y-100989152D01*
X58666142Y-100989152D02*
X58618523Y-101084390D01*
X58618523Y-101084390D02*
X58570904Y-101132009D01*
X58570904Y-101132009D02*
X58475666Y-101179628D01*
X58475666Y-101179628D02*
X58094714Y-101179628D01*
X59047095Y-100751057D02*
X59094714Y-100703438D01*
X59094714Y-100703438D02*
X59189952Y-100655819D01*
X59189952Y-100655819D02*
X59428047Y-100655819D01*
X59428047Y-100655819D02*
X59523285Y-100703438D01*
X59523285Y-100703438D02*
X59570904Y-100751057D01*
X59570904Y-100751057D02*
X59618523Y-100846295D01*
X59618523Y-100846295D02*
X59618523Y-100941533D01*
X59618523Y-100941533D02*
X59570904Y-101084390D01*
X59570904Y-101084390D02*
X58999476Y-101655819D01*
X58999476Y-101655819D02*
X59618523Y-101655819D01*
X59951857Y-100655819D02*
X60570904Y-100655819D01*
X60570904Y-100655819D02*
X60237571Y-101036771D01*
X60237571Y-101036771D02*
X60380428Y-101036771D01*
X60380428Y-101036771D02*
X60475666Y-101084390D01*
X60475666Y-101084390D02*
X60523285Y-101132009D01*
X60523285Y-101132009D02*
X60570904Y-101227247D01*
X60570904Y-101227247D02*
X60570904Y-101465342D01*
X60570904Y-101465342D02*
X60523285Y-101560580D01*
X60523285Y-101560580D02*
X60475666Y-101608200D01*
X60475666Y-101608200D02*
X60380428Y-101655819D01*
X60380428Y-101655819D02*
X60094714Y-101655819D01*
X60094714Y-101655819D02*
X59999476Y-101608200D01*
X59999476Y-101608200D02*
X59951857Y-101560580D01*
X53819819Y-91828857D02*
X53343628Y-92162190D01*
X53819819Y-92400285D02*
X52819819Y-92400285D01*
X52819819Y-92400285D02*
X52819819Y-92019333D01*
X52819819Y-92019333D02*
X52867438Y-91924095D01*
X52867438Y-91924095D02*
X52915057Y-91876476D01*
X52915057Y-91876476D02*
X53010295Y-91828857D01*
X53010295Y-91828857D02*
X53153152Y-91828857D01*
X53153152Y-91828857D02*
X53248390Y-91876476D01*
X53248390Y-91876476D02*
X53296009Y-91924095D01*
X53296009Y-91924095D02*
X53343628Y-92019333D01*
X53343628Y-92019333D02*
X53343628Y-92400285D01*
X53819819Y-90876476D02*
X53819819Y-91447904D01*
X53819819Y-91162190D02*
X52819819Y-91162190D01*
X52819819Y-91162190D02*
X52962676Y-91257428D01*
X52962676Y-91257428D02*
X53057914Y-91352666D01*
X53057914Y-91352666D02*
X53105533Y-91447904D01*
X52915057Y-90495523D02*
X52867438Y-90447904D01*
X52867438Y-90447904D02*
X52819819Y-90352666D01*
X52819819Y-90352666D02*
X52819819Y-90114571D01*
X52819819Y-90114571D02*
X52867438Y-90019333D01*
X52867438Y-90019333D02*
X52915057Y-89971714D01*
X52915057Y-89971714D02*
X53010295Y-89924095D01*
X53010295Y-89924095D02*
X53105533Y-89924095D01*
X53105533Y-89924095D02*
X53248390Y-89971714D01*
X53248390Y-89971714D02*
X53819819Y-90543142D01*
X53819819Y-90543142D02*
X53819819Y-89924095D01*
X92702142Y-99133819D02*
X92368809Y-98657628D01*
X92130714Y-99133819D02*
X92130714Y-98133819D01*
X92130714Y-98133819D02*
X92511666Y-98133819D01*
X92511666Y-98133819D02*
X92606904Y-98181438D01*
X92606904Y-98181438D02*
X92654523Y-98229057D01*
X92654523Y-98229057D02*
X92702142Y-98324295D01*
X92702142Y-98324295D02*
X92702142Y-98467152D01*
X92702142Y-98467152D02*
X92654523Y-98562390D01*
X92654523Y-98562390D02*
X92606904Y-98610009D01*
X92606904Y-98610009D02*
X92511666Y-98657628D01*
X92511666Y-98657628D02*
X92130714Y-98657628D01*
X93035476Y-98133819D02*
X93654523Y-98133819D01*
X93654523Y-98133819D02*
X93321190Y-98514771D01*
X93321190Y-98514771D02*
X93464047Y-98514771D01*
X93464047Y-98514771D02*
X93559285Y-98562390D01*
X93559285Y-98562390D02*
X93606904Y-98610009D01*
X93606904Y-98610009D02*
X93654523Y-98705247D01*
X93654523Y-98705247D02*
X93654523Y-98943342D01*
X93654523Y-98943342D02*
X93606904Y-99038580D01*
X93606904Y-99038580D02*
X93559285Y-99086200D01*
X93559285Y-99086200D02*
X93464047Y-99133819D01*
X93464047Y-99133819D02*
X93178333Y-99133819D01*
X93178333Y-99133819D02*
X93083095Y-99086200D01*
X93083095Y-99086200D02*
X93035476Y-99038580D01*
X94511666Y-98133819D02*
X94321190Y-98133819D01*
X94321190Y-98133819D02*
X94225952Y-98181438D01*
X94225952Y-98181438D02*
X94178333Y-98229057D01*
X94178333Y-98229057D02*
X94083095Y-98371914D01*
X94083095Y-98371914D02*
X94035476Y-98562390D01*
X94035476Y-98562390D02*
X94035476Y-98943342D01*
X94035476Y-98943342D02*
X94083095Y-99038580D01*
X94083095Y-99038580D02*
X94130714Y-99086200D01*
X94130714Y-99086200D02*
X94225952Y-99133819D01*
X94225952Y-99133819D02*
X94416428Y-99133819D01*
X94416428Y-99133819D02*
X94511666Y-99086200D01*
X94511666Y-99086200D02*
X94559285Y-99038580D01*
X94559285Y-99038580D02*
X94606904Y-98943342D01*
X94606904Y-98943342D02*
X94606904Y-98705247D01*
X94606904Y-98705247D02*
X94559285Y-98610009D01*
X94559285Y-98610009D02*
X94511666Y-98562390D01*
X94511666Y-98562390D02*
X94416428Y-98514771D01*
X94416428Y-98514771D02*
X94225952Y-98514771D01*
X94225952Y-98514771D02*
X94130714Y-98562390D01*
X94130714Y-98562390D02*
X94083095Y-98610009D01*
X94083095Y-98610009D02*
X94035476Y-98705247D01*
X56334819Y-91828857D02*
X55858628Y-92162190D01*
X56334819Y-92400285D02*
X55334819Y-92400285D01*
X55334819Y-92400285D02*
X55334819Y-92019333D01*
X55334819Y-92019333D02*
X55382438Y-91924095D01*
X55382438Y-91924095D02*
X55430057Y-91876476D01*
X55430057Y-91876476D02*
X55525295Y-91828857D01*
X55525295Y-91828857D02*
X55668152Y-91828857D01*
X55668152Y-91828857D02*
X55763390Y-91876476D01*
X55763390Y-91876476D02*
X55811009Y-91924095D01*
X55811009Y-91924095D02*
X55858628Y-92019333D01*
X55858628Y-92019333D02*
X55858628Y-92400285D01*
X56334819Y-90876476D02*
X56334819Y-91447904D01*
X56334819Y-91162190D02*
X55334819Y-91162190D01*
X55334819Y-91162190D02*
X55477676Y-91257428D01*
X55477676Y-91257428D02*
X55572914Y-91352666D01*
X55572914Y-91352666D02*
X55620533Y-91447904D01*
X55334819Y-90543142D02*
X55334819Y-89924095D01*
X55334819Y-89924095D02*
X55715771Y-90257428D01*
X55715771Y-90257428D02*
X55715771Y-90114571D01*
X55715771Y-90114571D02*
X55763390Y-90019333D01*
X55763390Y-90019333D02*
X55811009Y-89971714D01*
X55811009Y-89971714D02*
X55906247Y-89924095D01*
X55906247Y-89924095D02*
X56144342Y-89924095D01*
X56144342Y-89924095D02*
X56239580Y-89971714D01*
X56239580Y-89971714D02*
X56287200Y-90019333D01*
X56287200Y-90019333D02*
X56334819Y-90114571D01*
X56334819Y-90114571D02*
X56334819Y-90400285D01*
X56334819Y-90400285D02*
X56287200Y-90495523D01*
X56287200Y-90495523D02*
X56239580Y-90543142D01*
X101292819Y-112039857D02*
X100816628Y-112373190D01*
X101292819Y-112611285D02*
X100292819Y-112611285D01*
X100292819Y-112611285D02*
X100292819Y-112230333D01*
X100292819Y-112230333D02*
X100340438Y-112135095D01*
X100340438Y-112135095D02*
X100388057Y-112087476D01*
X100388057Y-112087476D02*
X100483295Y-112039857D01*
X100483295Y-112039857D02*
X100626152Y-112039857D01*
X100626152Y-112039857D02*
X100721390Y-112087476D01*
X100721390Y-112087476D02*
X100769009Y-112135095D01*
X100769009Y-112135095D02*
X100816628Y-112230333D01*
X100816628Y-112230333D02*
X100816628Y-112611285D01*
X100626152Y-111182714D02*
X101292819Y-111182714D01*
X100245200Y-111420809D02*
X100959485Y-111658904D01*
X100959485Y-111658904D02*
X100959485Y-111039857D01*
X100626152Y-110230333D02*
X101292819Y-110230333D01*
X100245200Y-110468428D02*
X100959485Y-110706523D01*
X100959485Y-110706523D02*
X100959485Y-110087476D01*
X79843333Y-111339580D02*
X79795714Y-111387200D01*
X79795714Y-111387200D02*
X79652857Y-111434819D01*
X79652857Y-111434819D02*
X79557619Y-111434819D01*
X79557619Y-111434819D02*
X79414762Y-111387200D01*
X79414762Y-111387200D02*
X79319524Y-111291961D01*
X79319524Y-111291961D02*
X79271905Y-111196723D01*
X79271905Y-111196723D02*
X79224286Y-111006247D01*
X79224286Y-111006247D02*
X79224286Y-110863390D01*
X79224286Y-110863390D02*
X79271905Y-110672914D01*
X79271905Y-110672914D02*
X79319524Y-110577676D01*
X79319524Y-110577676D02*
X79414762Y-110482438D01*
X79414762Y-110482438D02*
X79557619Y-110434819D01*
X79557619Y-110434819D02*
X79652857Y-110434819D01*
X79652857Y-110434819D02*
X79795714Y-110482438D01*
X79795714Y-110482438D02*
X79843333Y-110530057D01*
X80176667Y-110434819D02*
X80843333Y-110434819D01*
X80843333Y-110434819D02*
X80414762Y-111434819D01*
X45384819Y-108838904D02*
X46194342Y-108838904D01*
X46194342Y-108838904D02*
X46289580Y-108791285D01*
X46289580Y-108791285D02*
X46337200Y-108743666D01*
X46337200Y-108743666D02*
X46384819Y-108648428D01*
X46384819Y-108648428D02*
X46384819Y-108457952D01*
X46384819Y-108457952D02*
X46337200Y-108362714D01*
X46337200Y-108362714D02*
X46289580Y-108315095D01*
X46289580Y-108315095D02*
X46194342Y-108267476D01*
X46194342Y-108267476D02*
X45384819Y-108267476D01*
X46384819Y-107267476D02*
X46384819Y-107838904D01*
X46384819Y-107553190D02*
X45384819Y-107553190D01*
X45384819Y-107553190D02*
X45527676Y-107648428D01*
X45527676Y-107648428D02*
X45622914Y-107743666D01*
X45622914Y-107743666D02*
X45670533Y-107838904D01*
X84923333Y-76686592D02*
X84875714Y-76734212D01*
X84875714Y-76734212D02*
X84732857Y-76781831D01*
X84732857Y-76781831D02*
X84637619Y-76781831D01*
X84637619Y-76781831D02*
X84494762Y-76734212D01*
X84494762Y-76734212D02*
X84399524Y-76638973D01*
X84399524Y-76638973D02*
X84351905Y-76543735D01*
X84351905Y-76543735D02*
X84304286Y-76353259D01*
X84304286Y-76353259D02*
X84304286Y-76210402D01*
X84304286Y-76210402D02*
X84351905Y-76019926D01*
X84351905Y-76019926D02*
X84399524Y-75924688D01*
X84399524Y-75924688D02*
X84494762Y-75829450D01*
X84494762Y-75829450D02*
X84637619Y-75781831D01*
X84637619Y-75781831D02*
X84732857Y-75781831D01*
X84732857Y-75781831D02*
X84875714Y-75829450D01*
X84875714Y-75829450D02*
X84923333Y-75877069D01*
X85304286Y-75877069D02*
X85351905Y-75829450D01*
X85351905Y-75829450D02*
X85447143Y-75781831D01*
X85447143Y-75781831D02*
X85685238Y-75781831D01*
X85685238Y-75781831D02*
X85780476Y-75829450D01*
X85780476Y-75829450D02*
X85828095Y-75877069D01*
X85828095Y-75877069D02*
X85875714Y-75972307D01*
X85875714Y-75972307D02*
X85875714Y-76067545D01*
X85875714Y-76067545D02*
X85828095Y-76210402D01*
X85828095Y-76210402D02*
X85256667Y-76781831D01*
X85256667Y-76781831D02*
X85875714Y-76781831D01*
X114601666Y-94196819D02*
X114601666Y-94911104D01*
X114601666Y-94911104D02*
X114554047Y-95053961D01*
X114554047Y-95053961D02*
X114458809Y-95149200D01*
X114458809Y-95149200D02*
X114315952Y-95196819D01*
X114315952Y-95196819D02*
X114220714Y-95196819D01*
X115506428Y-94530152D02*
X115506428Y-95196819D01*
X115268333Y-94149200D02*
X115030238Y-94863485D01*
X115030238Y-94863485D02*
X115649285Y-94863485D01*
X112387381Y-95617819D02*
X112720714Y-96617819D01*
X112720714Y-96617819D02*
X113054047Y-95617819D01*
X113958809Y-96522580D02*
X113911190Y-96570200D01*
X113911190Y-96570200D02*
X113768333Y-96617819D01*
X113768333Y-96617819D02*
X113673095Y-96617819D01*
X113673095Y-96617819D02*
X113530238Y-96570200D01*
X113530238Y-96570200D02*
X113435000Y-96474961D01*
X113435000Y-96474961D02*
X113387381Y-96379723D01*
X113387381Y-96379723D02*
X113339762Y-96189247D01*
X113339762Y-96189247D02*
X113339762Y-96046390D01*
X113339762Y-96046390D02*
X113387381Y-95855914D01*
X113387381Y-95855914D02*
X113435000Y-95760676D01*
X113435000Y-95760676D02*
X113530238Y-95665438D01*
X113530238Y-95665438D02*
X113673095Y-95617819D01*
X113673095Y-95617819D02*
X113768333Y-95617819D01*
X113768333Y-95617819D02*
X113911190Y-95665438D01*
X113911190Y-95665438D02*
X113958809Y-95713057D01*
X114339762Y-96332104D02*
X114815952Y-96332104D01*
X114244524Y-96617819D02*
X114577857Y-95617819D01*
X114577857Y-95617819D02*
X114911190Y-96617819D01*
X115244524Y-96094009D02*
X115577857Y-96094009D01*
X115720714Y-96617819D02*
X115244524Y-96617819D01*
X115244524Y-96617819D02*
X115244524Y-95617819D01*
X115244524Y-95617819D02*
X115720714Y-95617819D01*
X116149286Y-95951152D02*
X116149286Y-96617819D01*
X116149286Y-96046390D02*
X116196905Y-95998771D01*
X116196905Y-95998771D02*
X116292143Y-95951152D01*
X116292143Y-95951152D02*
X116435000Y-95951152D01*
X116435000Y-95951152D02*
X116530238Y-95998771D01*
X116530238Y-95998771D02*
X116577857Y-96094009D01*
X116577857Y-96094009D02*
X116577857Y-96617819D01*
X116958810Y-95951152D02*
X117196905Y-96617819D01*
X117196905Y-96617819D02*
X117435000Y-95951152D01*
X95549819Y-95630904D02*
X96359342Y-95630904D01*
X96359342Y-95630904D02*
X96454580Y-95583285D01*
X96454580Y-95583285D02*
X96502200Y-95535666D01*
X96502200Y-95535666D02*
X96549819Y-95440428D01*
X96549819Y-95440428D02*
X96549819Y-95249952D01*
X96549819Y-95249952D02*
X96502200Y-95154714D01*
X96502200Y-95154714D02*
X96454580Y-95107095D01*
X96454580Y-95107095D02*
X96359342Y-95059476D01*
X96359342Y-95059476D02*
X95549819Y-95059476D01*
X95549819Y-94678523D02*
X95549819Y-94059476D01*
X95549819Y-94059476D02*
X95930771Y-94392809D01*
X95930771Y-94392809D02*
X95930771Y-94249952D01*
X95930771Y-94249952D02*
X95978390Y-94154714D01*
X95978390Y-94154714D02*
X96026009Y-94107095D01*
X96026009Y-94107095D02*
X96121247Y-94059476D01*
X96121247Y-94059476D02*
X96359342Y-94059476D01*
X96359342Y-94059476D02*
X96454580Y-94107095D01*
X96454580Y-94107095D02*
X96502200Y-94154714D01*
X96502200Y-94154714D02*
X96549819Y-94249952D01*
X96549819Y-94249952D02*
X96549819Y-94535666D01*
X96549819Y-94535666D02*
X96502200Y-94630904D01*
X96502200Y-94630904D02*
X96454580Y-94678523D01*
X92956142Y-84401819D02*
X92622809Y-83925628D01*
X92384714Y-84401819D02*
X92384714Y-83401819D01*
X92384714Y-83401819D02*
X92765666Y-83401819D01*
X92765666Y-83401819D02*
X92860904Y-83449438D01*
X92860904Y-83449438D02*
X92908523Y-83497057D01*
X92908523Y-83497057D02*
X92956142Y-83592295D01*
X92956142Y-83592295D02*
X92956142Y-83735152D01*
X92956142Y-83735152D02*
X92908523Y-83830390D01*
X92908523Y-83830390D02*
X92860904Y-83878009D01*
X92860904Y-83878009D02*
X92765666Y-83925628D01*
X92765666Y-83925628D02*
X92384714Y-83925628D01*
X93289476Y-83401819D02*
X93908523Y-83401819D01*
X93908523Y-83401819D02*
X93575190Y-83782771D01*
X93575190Y-83782771D02*
X93718047Y-83782771D01*
X93718047Y-83782771D02*
X93813285Y-83830390D01*
X93813285Y-83830390D02*
X93860904Y-83878009D01*
X93860904Y-83878009D02*
X93908523Y-83973247D01*
X93908523Y-83973247D02*
X93908523Y-84211342D01*
X93908523Y-84211342D02*
X93860904Y-84306580D01*
X93860904Y-84306580D02*
X93813285Y-84354200D01*
X93813285Y-84354200D02*
X93718047Y-84401819D01*
X93718047Y-84401819D02*
X93432333Y-84401819D01*
X93432333Y-84401819D02*
X93337095Y-84354200D01*
X93337095Y-84354200D02*
X93289476Y-84306580D01*
X94813285Y-83401819D02*
X94337095Y-83401819D01*
X94337095Y-83401819D02*
X94289476Y-83878009D01*
X94289476Y-83878009D02*
X94337095Y-83830390D01*
X94337095Y-83830390D02*
X94432333Y-83782771D01*
X94432333Y-83782771D02*
X94670428Y-83782771D01*
X94670428Y-83782771D02*
X94765666Y-83830390D01*
X94765666Y-83830390D02*
X94813285Y-83878009D01*
X94813285Y-83878009D02*
X94860904Y-83973247D01*
X94860904Y-83973247D02*
X94860904Y-84211342D01*
X94860904Y-84211342D02*
X94813285Y-84306580D01*
X94813285Y-84306580D02*
X94765666Y-84354200D01*
X94765666Y-84354200D02*
X94670428Y-84401819D01*
X94670428Y-84401819D02*
X94432333Y-84401819D01*
X94432333Y-84401819D02*
X94337095Y-84354200D01*
X94337095Y-84354200D02*
X94289476Y-84306580D01*
X88860333Y-111466580D02*
X88812714Y-111514200D01*
X88812714Y-111514200D02*
X88669857Y-111561819D01*
X88669857Y-111561819D02*
X88574619Y-111561819D01*
X88574619Y-111561819D02*
X88431762Y-111514200D01*
X88431762Y-111514200D02*
X88336524Y-111418961D01*
X88336524Y-111418961D02*
X88288905Y-111323723D01*
X88288905Y-111323723D02*
X88241286Y-111133247D01*
X88241286Y-111133247D02*
X88241286Y-110990390D01*
X88241286Y-110990390D02*
X88288905Y-110799914D01*
X88288905Y-110799914D02*
X88336524Y-110704676D01*
X88336524Y-110704676D02*
X88431762Y-110609438D01*
X88431762Y-110609438D02*
X88574619Y-110561819D01*
X88574619Y-110561819D02*
X88669857Y-110561819D01*
X88669857Y-110561819D02*
X88812714Y-110609438D01*
X88812714Y-110609438D02*
X88860333Y-110657057D01*
X89336524Y-111561819D02*
X89527000Y-111561819D01*
X89527000Y-111561819D02*
X89622238Y-111514200D01*
X89622238Y-111514200D02*
X89669857Y-111466580D01*
X89669857Y-111466580D02*
X89765095Y-111323723D01*
X89765095Y-111323723D02*
X89812714Y-111133247D01*
X89812714Y-111133247D02*
X89812714Y-110752295D01*
X89812714Y-110752295D02*
X89765095Y-110657057D01*
X89765095Y-110657057D02*
X89717476Y-110609438D01*
X89717476Y-110609438D02*
X89622238Y-110561819D01*
X89622238Y-110561819D02*
X89431762Y-110561819D01*
X89431762Y-110561819D02*
X89336524Y-110609438D01*
X89336524Y-110609438D02*
X89288905Y-110657057D01*
X89288905Y-110657057D02*
X89241286Y-110752295D01*
X89241286Y-110752295D02*
X89241286Y-110990390D01*
X89241286Y-110990390D02*
X89288905Y-111085628D01*
X89288905Y-111085628D02*
X89336524Y-111133247D01*
X89336524Y-111133247D02*
X89431762Y-111180866D01*
X89431762Y-111180866D02*
X89622238Y-111180866D01*
X89622238Y-111180866D02*
X89717476Y-111133247D01*
X89717476Y-111133247D02*
X89765095Y-111085628D01*
X89765095Y-111085628D02*
X89812714Y-110990390D01*
X92702142Y-91767819D02*
X92368809Y-91291628D01*
X92130714Y-91767819D02*
X92130714Y-90767819D01*
X92130714Y-90767819D02*
X92511666Y-90767819D01*
X92511666Y-90767819D02*
X92606904Y-90815438D01*
X92606904Y-90815438D02*
X92654523Y-90863057D01*
X92654523Y-90863057D02*
X92702142Y-90958295D01*
X92702142Y-90958295D02*
X92702142Y-91101152D01*
X92702142Y-91101152D02*
X92654523Y-91196390D01*
X92654523Y-91196390D02*
X92606904Y-91244009D01*
X92606904Y-91244009D02*
X92511666Y-91291628D01*
X92511666Y-91291628D02*
X92130714Y-91291628D01*
X93035476Y-90767819D02*
X93654523Y-90767819D01*
X93654523Y-90767819D02*
X93321190Y-91148771D01*
X93321190Y-91148771D02*
X93464047Y-91148771D01*
X93464047Y-91148771D02*
X93559285Y-91196390D01*
X93559285Y-91196390D02*
X93606904Y-91244009D01*
X93606904Y-91244009D02*
X93654523Y-91339247D01*
X93654523Y-91339247D02*
X93654523Y-91577342D01*
X93654523Y-91577342D02*
X93606904Y-91672580D01*
X93606904Y-91672580D02*
X93559285Y-91720200D01*
X93559285Y-91720200D02*
X93464047Y-91767819D01*
X93464047Y-91767819D02*
X93178333Y-91767819D01*
X93178333Y-91767819D02*
X93083095Y-91720200D01*
X93083095Y-91720200D02*
X93035476Y-91672580D01*
X94606904Y-91767819D02*
X94035476Y-91767819D01*
X94321190Y-91767819D02*
X94321190Y-90767819D01*
X94321190Y-90767819D02*
X94225952Y-90910676D01*
X94225952Y-90910676D02*
X94130714Y-91005914D01*
X94130714Y-91005914D02*
X94035476Y-91053533D01*
X72382142Y-121721819D02*
X72048809Y-121245628D01*
X71810714Y-121721819D02*
X71810714Y-120721819D01*
X71810714Y-120721819D02*
X72191666Y-120721819D01*
X72191666Y-120721819D02*
X72286904Y-120769438D01*
X72286904Y-120769438D02*
X72334523Y-120817057D01*
X72334523Y-120817057D02*
X72382142Y-120912295D01*
X72382142Y-120912295D02*
X72382142Y-121055152D01*
X72382142Y-121055152D02*
X72334523Y-121150390D01*
X72334523Y-121150390D02*
X72286904Y-121198009D01*
X72286904Y-121198009D02*
X72191666Y-121245628D01*
X72191666Y-121245628D02*
X71810714Y-121245628D01*
X72715476Y-120721819D02*
X73334523Y-120721819D01*
X73334523Y-120721819D02*
X73001190Y-121102771D01*
X73001190Y-121102771D02*
X73144047Y-121102771D01*
X73144047Y-121102771D02*
X73239285Y-121150390D01*
X73239285Y-121150390D02*
X73286904Y-121198009D01*
X73286904Y-121198009D02*
X73334523Y-121293247D01*
X73334523Y-121293247D02*
X73334523Y-121531342D01*
X73334523Y-121531342D02*
X73286904Y-121626580D01*
X73286904Y-121626580D02*
X73239285Y-121674200D01*
X73239285Y-121674200D02*
X73144047Y-121721819D01*
X73144047Y-121721819D02*
X72858333Y-121721819D01*
X72858333Y-121721819D02*
X72763095Y-121674200D01*
X72763095Y-121674200D02*
X72715476Y-121626580D01*
X73905952Y-121150390D02*
X73810714Y-121102771D01*
X73810714Y-121102771D02*
X73763095Y-121055152D01*
X73763095Y-121055152D02*
X73715476Y-120959914D01*
X73715476Y-120959914D02*
X73715476Y-120912295D01*
X73715476Y-120912295D02*
X73763095Y-120817057D01*
X73763095Y-120817057D02*
X73810714Y-120769438D01*
X73810714Y-120769438D02*
X73905952Y-120721819D01*
X73905952Y-120721819D02*
X74096428Y-120721819D01*
X74096428Y-120721819D02*
X74191666Y-120769438D01*
X74191666Y-120769438D02*
X74239285Y-120817057D01*
X74239285Y-120817057D02*
X74286904Y-120912295D01*
X74286904Y-120912295D02*
X74286904Y-120959914D01*
X74286904Y-120959914D02*
X74239285Y-121055152D01*
X74239285Y-121055152D02*
X74191666Y-121102771D01*
X74191666Y-121102771D02*
X74096428Y-121150390D01*
X74096428Y-121150390D02*
X73905952Y-121150390D01*
X73905952Y-121150390D02*
X73810714Y-121198009D01*
X73810714Y-121198009D02*
X73763095Y-121245628D01*
X73763095Y-121245628D02*
X73715476Y-121340866D01*
X73715476Y-121340866D02*
X73715476Y-121531342D01*
X73715476Y-121531342D02*
X73763095Y-121626580D01*
X73763095Y-121626580D02*
X73810714Y-121674200D01*
X73810714Y-121674200D02*
X73905952Y-121721819D01*
X73905952Y-121721819D02*
X74096428Y-121721819D01*
X74096428Y-121721819D02*
X74191666Y-121674200D01*
X74191666Y-121674200D02*
X74239285Y-121626580D01*
X74239285Y-121626580D02*
X74286904Y-121531342D01*
X74286904Y-121531342D02*
X74286904Y-121340866D01*
X74286904Y-121340866D02*
X74239285Y-121245628D01*
X74239285Y-121245628D02*
X74191666Y-121198009D01*
X74191666Y-121198009D02*
X74096428Y-121150390D01*
X75565095Y-85752819D02*
X75565095Y-86562342D01*
X75565095Y-86562342D02*
X75612714Y-86657580D01*
X75612714Y-86657580D02*
X75660333Y-86705200D01*
X75660333Y-86705200D02*
X75755571Y-86752819D01*
X75755571Y-86752819D02*
X75946047Y-86752819D01*
X75946047Y-86752819D02*
X76041285Y-86705200D01*
X76041285Y-86705200D02*
X76088904Y-86657580D01*
X76088904Y-86657580D02*
X76136523Y-86562342D01*
X76136523Y-86562342D02*
X76136523Y-85752819D01*
X76565095Y-85848057D02*
X76612714Y-85800438D01*
X76612714Y-85800438D02*
X76707952Y-85752819D01*
X76707952Y-85752819D02*
X76946047Y-85752819D01*
X76946047Y-85752819D02*
X77041285Y-85800438D01*
X77041285Y-85800438D02*
X77088904Y-85848057D01*
X77088904Y-85848057D02*
X77136523Y-85943295D01*
X77136523Y-85943295D02*
X77136523Y-86038533D01*
X77136523Y-86038533D02*
X77088904Y-86181390D01*
X77088904Y-86181390D02*
X76517476Y-86752819D01*
X76517476Y-86752819D02*
X77136523Y-86752819D01*
X92702142Y-96593819D02*
X92368809Y-96117628D01*
X92130714Y-96593819D02*
X92130714Y-95593819D01*
X92130714Y-95593819D02*
X92511666Y-95593819D01*
X92511666Y-95593819D02*
X92606904Y-95641438D01*
X92606904Y-95641438D02*
X92654523Y-95689057D01*
X92654523Y-95689057D02*
X92702142Y-95784295D01*
X92702142Y-95784295D02*
X92702142Y-95927152D01*
X92702142Y-95927152D02*
X92654523Y-96022390D01*
X92654523Y-96022390D02*
X92606904Y-96070009D01*
X92606904Y-96070009D02*
X92511666Y-96117628D01*
X92511666Y-96117628D02*
X92130714Y-96117628D01*
X93035476Y-95593819D02*
X93654523Y-95593819D01*
X93654523Y-95593819D02*
X93321190Y-95974771D01*
X93321190Y-95974771D02*
X93464047Y-95974771D01*
X93464047Y-95974771D02*
X93559285Y-96022390D01*
X93559285Y-96022390D02*
X93606904Y-96070009D01*
X93606904Y-96070009D02*
X93654523Y-96165247D01*
X93654523Y-96165247D02*
X93654523Y-96403342D01*
X93654523Y-96403342D02*
X93606904Y-96498580D01*
X93606904Y-96498580D02*
X93559285Y-96546200D01*
X93559285Y-96546200D02*
X93464047Y-96593819D01*
X93464047Y-96593819D02*
X93178333Y-96593819D01*
X93178333Y-96593819D02*
X93083095Y-96546200D01*
X93083095Y-96546200D02*
X93035476Y-96498580D01*
X94035476Y-95689057D02*
X94083095Y-95641438D01*
X94083095Y-95641438D02*
X94178333Y-95593819D01*
X94178333Y-95593819D02*
X94416428Y-95593819D01*
X94416428Y-95593819D02*
X94511666Y-95641438D01*
X94511666Y-95641438D02*
X94559285Y-95689057D01*
X94559285Y-95689057D02*
X94606904Y-95784295D01*
X94606904Y-95784295D02*
X94606904Y-95879533D01*
X94606904Y-95879533D02*
X94559285Y-96022390D01*
X94559285Y-96022390D02*
X93987857Y-96593819D01*
X93987857Y-96593819D02*
X94606904Y-96593819D01*
X58539142Y-94162819D02*
X58205809Y-93686628D01*
X57967714Y-94162819D02*
X57967714Y-93162819D01*
X57967714Y-93162819D02*
X58348666Y-93162819D01*
X58348666Y-93162819D02*
X58443904Y-93210438D01*
X58443904Y-93210438D02*
X58491523Y-93258057D01*
X58491523Y-93258057D02*
X58539142Y-93353295D01*
X58539142Y-93353295D02*
X58539142Y-93496152D01*
X58539142Y-93496152D02*
X58491523Y-93591390D01*
X58491523Y-93591390D02*
X58443904Y-93639009D01*
X58443904Y-93639009D02*
X58348666Y-93686628D01*
X58348666Y-93686628D02*
X57967714Y-93686628D01*
X59491523Y-94162819D02*
X58920095Y-94162819D01*
X59205809Y-94162819D02*
X59205809Y-93162819D01*
X59205809Y-93162819D02*
X59110571Y-93305676D01*
X59110571Y-93305676D02*
X59015333Y-93400914D01*
X59015333Y-93400914D02*
X58920095Y-93448533D01*
X59967714Y-94162819D02*
X60158190Y-94162819D01*
X60158190Y-94162819D02*
X60253428Y-94115200D01*
X60253428Y-94115200D02*
X60301047Y-94067580D01*
X60301047Y-94067580D02*
X60396285Y-93924723D01*
X60396285Y-93924723D02*
X60443904Y-93734247D01*
X60443904Y-93734247D02*
X60443904Y-93353295D01*
X60443904Y-93353295D02*
X60396285Y-93258057D01*
X60396285Y-93258057D02*
X60348666Y-93210438D01*
X60348666Y-93210438D02*
X60253428Y-93162819D01*
X60253428Y-93162819D02*
X60062952Y-93162819D01*
X60062952Y-93162819D02*
X59967714Y-93210438D01*
X59967714Y-93210438D02*
X59920095Y-93258057D01*
X59920095Y-93258057D02*
X59872476Y-93353295D01*
X59872476Y-93353295D02*
X59872476Y-93591390D01*
X59872476Y-93591390D02*
X59920095Y-93686628D01*
X59920095Y-93686628D02*
X59967714Y-93734247D01*
X59967714Y-93734247D02*
X60062952Y-93781866D01*
X60062952Y-93781866D02*
X60253428Y-93781866D01*
X60253428Y-93781866D02*
X60348666Y-93734247D01*
X60348666Y-93734247D02*
X60396285Y-93686628D01*
X60396285Y-93686628D02*
X60443904Y-93591390D01*
X91487666Y-71844819D02*
X91487666Y-72559104D01*
X91487666Y-72559104D02*
X91440047Y-72701961D01*
X91440047Y-72701961D02*
X91344809Y-72797200D01*
X91344809Y-72797200D02*
X91201952Y-72844819D01*
X91201952Y-72844819D02*
X91106714Y-72844819D01*
X91916238Y-71940057D02*
X91963857Y-71892438D01*
X91963857Y-71892438D02*
X92059095Y-71844819D01*
X92059095Y-71844819D02*
X92297190Y-71844819D01*
X92297190Y-71844819D02*
X92392428Y-71892438D01*
X92392428Y-71892438D02*
X92440047Y-71940057D01*
X92440047Y-71940057D02*
X92487666Y-72035295D01*
X92487666Y-72035295D02*
X92487666Y-72130533D01*
X92487666Y-72130533D02*
X92440047Y-72273390D01*
X92440047Y-72273390D02*
X91868619Y-72844819D01*
X91868619Y-72844819D02*
X92487666Y-72844819D01*
X48714819Y-125610857D02*
X48238628Y-125944190D01*
X48714819Y-126182285D02*
X47714819Y-126182285D01*
X47714819Y-126182285D02*
X47714819Y-125801333D01*
X47714819Y-125801333D02*
X47762438Y-125706095D01*
X47762438Y-125706095D02*
X47810057Y-125658476D01*
X47810057Y-125658476D02*
X47905295Y-125610857D01*
X47905295Y-125610857D02*
X48048152Y-125610857D01*
X48048152Y-125610857D02*
X48143390Y-125658476D01*
X48143390Y-125658476D02*
X48191009Y-125706095D01*
X48191009Y-125706095D02*
X48238628Y-125801333D01*
X48238628Y-125801333D02*
X48238628Y-126182285D01*
X48048152Y-124753714D02*
X48714819Y-124753714D01*
X47667200Y-124991809D02*
X48381485Y-125229904D01*
X48381485Y-125229904D02*
X48381485Y-124610857D01*
X48714819Y-123706095D02*
X48714819Y-124277523D01*
X48714819Y-123991809D02*
X47714819Y-123991809D01*
X47714819Y-123991809D02*
X47857676Y-124087047D01*
X47857676Y-124087047D02*
X47952914Y-124182285D01*
X47952914Y-124182285D02*
X48000533Y-124277523D01*
X99006819Y-112148857D02*
X98530628Y-112482190D01*
X99006819Y-112720285D02*
X98006819Y-112720285D01*
X98006819Y-112720285D02*
X98006819Y-112339333D01*
X98006819Y-112339333D02*
X98054438Y-112244095D01*
X98054438Y-112244095D02*
X98102057Y-112196476D01*
X98102057Y-112196476D02*
X98197295Y-112148857D01*
X98197295Y-112148857D02*
X98340152Y-112148857D01*
X98340152Y-112148857D02*
X98435390Y-112196476D01*
X98435390Y-112196476D02*
X98483009Y-112244095D01*
X98483009Y-112244095D02*
X98530628Y-112339333D01*
X98530628Y-112339333D02*
X98530628Y-112720285D01*
X98340152Y-111291714D02*
X99006819Y-111291714D01*
X97959200Y-111529809D02*
X98673485Y-111767904D01*
X98673485Y-111767904D02*
X98673485Y-111148857D01*
X98006819Y-110291714D02*
X98006819Y-110767904D01*
X98006819Y-110767904D02*
X98483009Y-110815523D01*
X98483009Y-110815523D02*
X98435390Y-110767904D01*
X98435390Y-110767904D02*
X98387771Y-110672666D01*
X98387771Y-110672666D02*
X98387771Y-110434571D01*
X98387771Y-110434571D02*
X98435390Y-110339333D01*
X98435390Y-110339333D02*
X98483009Y-110291714D01*
X98483009Y-110291714D02*
X98578247Y-110244095D01*
X98578247Y-110244095D02*
X98816342Y-110244095D01*
X98816342Y-110244095D02*
X98911580Y-110291714D01*
X98911580Y-110291714D02*
X98959200Y-110339333D01*
X98959200Y-110339333D02*
X99006819Y-110434571D01*
X99006819Y-110434571D02*
X99006819Y-110672666D01*
X99006819Y-110672666D02*
X98959200Y-110767904D01*
X98959200Y-110767904D02*
X98911580Y-110815523D01*
X58539142Y-91622819D02*
X58205809Y-91146628D01*
X57967714Y-91622819D02*
X57967714Y-90622819D01*
X57967714Y-90622819D02*
X58348666Y-90622819D01*
X58348666Y-90622819D02*
X58443904Y-90670438D01*
X58443904Y-90670438D02*
X58491523Y-90718057D01*
X58491523Y-90718057D02*
X58539142Y-90813295D01*
X58539142Y-90813295D02*
X58539142Y-90956152D01*
X58539142Y-90956152D02*
X58491523Y-91051390D01*
X58491523Y-91051390D02*
X58443904Y-91099009D01*
X58443904Y-91099009D02*
X58348666Y-91146628D01*
X58348666Y-91146628D02*
X57967714Y-91146628D01*
X58920095Y-90718057D02*
X58967714Y-90670438D01*
X58967714Y-90670438D02*
X59062952Y-90622819D01*
X59062952Y-90622819D02*
X59301047Y-90622819D01*
X59301047Y-90622819D02*
X59396285Y-90670438D01*
X59396285Y-90670438D02*
X59443904Y-90718057D01*
X59443904Y-90718057D02*
X59491523Y-90813295D01*
X59491523Y-90813295D02*
X59491523Y-90908533D01*
X59491523Y-90908533D02*
X59443904Y-91051390D01*
X59443904Y-91051390D02*
X58872476Y-91622819D01*
X58872476Y-91622819D02*
X59491523Y-91622819D01*
X60443904Y-91622819D02*
X59872476Y-91622819D01*
X60158190Y-91622819D02*
X60158190Y-90622819D01*
X60158190Y-90622819D02*
X60062952Y-90765676D01*
X60062952Y-90765676D02*
X59967714Y-90860914D01*
X59967714Y-90860914D02*
X59872476Y-90908533D01*
X106711761Y-75480057D02*
X106616523Y-75432438D01*
X106616523Y-75432438D02*
X106521285Y-75337200D01*
X106521285Y-75337200D02*
X106378428Y-75194342D01*
X106378428Y-75194342D02*
X106283190Y-75146723D01*
X106283190Y-75146723D02*
X106187952Y-75146723D01*
X106235571Y-75384819D02*
X106140333Y-75337200D01*
X106140333Y-75337200D02*
X106045095Y-75241961D01*
X106045095Y-75241961D02*
X105997476Y-75051485D01*
X105997476Y-75051485D02*
X105997476Y-74718152D01*
X105997476Y-74718152D02*
X106045095Y-74527676D01*
X106045095Y-74527676D02*
X106140333Y-74432438D01*
X106140333Y-74432438D02*
X106235571Y-74384819D01*
X106235571Y-74384819D02*
X106426047Y-74384819D01*
X106426047Y-74384819D02*
X106521285Y-74432438D01*
X106521285Y-74432438D02*
X106616523Y-74527676D01*
X106616523Y-74527676D02*
X106664142Y-74718152D01*
X106664142Y-74718152D02*
X106664142Y-75051485D01*
X106664142Y-75051485D02*
X106616523Y-75241961D01*
X106616523Y-75241961D02*
X106521285Y-75337200D01*
X106521285Y-75337200D02*
X106426047Y-75384819D01*
X106426047Y-75384819D02*
X106235571Y-75384819D01*
X107045095Y-74480057D02*
X107092714Y-74432438D01*
X107092714Y-74432438D02*
X107187952Y-74384819D01*
X107187952Y-74384819D02*
X107426047Y-74384819D01*
X107426047Y-74384819D02*
X107521285Y-74432438D01*
X107521285Y-74432438D02*
X107568904Y-74480057D01*
X107568904Y-74480057D02*
X107616523Y-74575295D01*
X107616523Y-74575295D02*
X107616523Y-74670533D01*
X107616523Y-74670533D02*
X107568904Y-74813390D01*
X107568904Y-74813390D02*
X106997476Y-75384819D01*
X106997476Y-75384819D02*
X107616523Y-75384819D01*
X52625666Y-73622819D02*
X52625666Y-74337104D01*
X52625666Y-74337104D02*
X52578047Y-74479961D01*
X52578047Y-74479961D02*
X52482809Y-74575200D01*
X52482809Y-74575200D02*
X52339952Y-74622819D01*
X52339952Y-74622819D02*
X52244714Y-74622819D01*
X53578047Y-73622819D02*
X53101857Y-73622819D01*
X53101857Y-73622819D02*
X53054238Y-74099009D01*
X53054238Y-74099009D02*
X53101857Y-74051390D01*
X53101857Y-74051390D02*
X53197095Y-74003771D01*
X53197095Y-74003771D02*
X53435190Y-74003771D01*
X53435190Y-74003771D02*
X53530428Y-74051390D01*
X53530428Y-74051390D02*
X53578047Y-74099009D01*
X53578047Y-74099009D02*
X53625666Y-74194247D01*
X53625666Y-74194247D02*
X53625666Y-74432342D01*
X53625666Y-74432342D02*
X53578047Y-74527580D01*
X53578047Y-74527580D02*
X53530428Y-74575200D01*
X53530428Y-74575200D02*
X53435190Y-74622819D01*
X53435190Y-74622819D02*
X53197095Y-74622819D01*
X53197095Y-74622819D02*
X53101857Y-74575200D01*
X53101857Y-74575200D02*
X53054238Y-74527580D01*
X71670104Y-79414333D02*
X71670104Y-78938143D01*
X71955819Y-79509571D02*
X70955819Y-79176238D01*
X70955819Y-79176238D02*
X71955819Y-78842905D01*
X72051057Y-78747667D02*
X72051057Y-77985762D01*
X71955819Y-77747666D02*
X70955819Y-77747666D01*
X70955819Y-77747666D02*
X70955819Y-77366714D01*
X70955819Y-77366714D02*
X71003438Y-77271476D01*
X71003438Y-77271476D02*
X71051057Y-77223857D01*
X71051057Y-77223857D02*
X71146295Y-77176238D01*
X71146295Y-77176238D02*
X71289152Y-77176238D01*
X71289152Y-77176238D02*
X71384390Y-77223857D01*
X71384390Y-77223857D02*
X71432009Y-77271476D01*
X71432009Y-77271476D02*
X71479628Y-77366714D01*
X71479628Y-77366714D02*
X71479628Y-77747666D01*
X71955819Y-76604809D02*
X71908200Y-76700047D01*
X71908200Y-76700047D02*
X71860580Y-76747666D01*
X71860580Y-76747666D02*
X71765342Y-76795285D01*
X71765342Y-76795285D02*
X71479628Y-76795285D01*
X71479628Y-76795285D02*
X71384390Y-76747666D01*
X71384390Y-76747666D02*
X71336771Y-76700047D01*
X71336771Y-76700047D02*
X71289152Y-76604809D01*
X71289152Y-76604809D02*
X71289152Y-76461952D01*
X71289152Y-76461952D02*
X71336771Y-76366714D01*
X71336771Y-76366714D02*
X71384390Y-76319095D01*
X71384390Y-76319095D02*
X71479628Y-76271476D01*
X71479628Y-76271476D02*
X71765342Y-76271476D01*
X71765342Y-76271476D02*
X71860580Y-76319095D01*
X71860580Y-76319095D02*
X71908200Y-76366714D01*
X71908200Y-76366714D02*
X71955819Y-76461952D01*
X71955819Y-76461952D02*
X71955819Y-76604809D01*
X71289152Y-75938142D02*
X71955819Y-75747666D01*
X71955819Y-75747666D02*
X71479628Y-75557190D01*
X71479628Y-75557190D02*
X71955819Y-75366714D01*
X71955819Y-75366714D02*
X71289152Y-75176238D01*
X71908200Y-74414333D02*
X71955819Y-74509571D01*
X71955819Y-74509571D02*
X71955819Y-74700047D01*
X71955819Y-74700047D02*
X71908200Y-74795285D01*
X71908200Y-74795285D02*
X71812961Y-74842904D01*
X71812961Y-74842904D02*
X71432009Y-74842904D01*
X71432009Y-74842904D02*
X71336771Y-74795285D01*
X71336771Y-74795285D02*
X71289152Y-74700047D01*
X71289152Y-74700047D02*
X71289152Y-74509571D01*
X71289152Y-74509571D02*
X71336771Y-74414333D01*
X71336771Y-74414333D02*
X71432009Y-74366714D01*
X71432009Y-74366714D02*
X71527247Y-74366714D01*
X71527247Y-74366714D02*
X71622485Y-74842904D01*
X71955819Y-73938142D02*
X71289152Y-73938142D01*
X71479628Y-73938142D02*
X71384390Y-73890523D01*
X71384390Y-73890523D02*
X71336771Y-73842904D01*
X71336771Y-73842904D02*
X71289152Y-73747666D01*
X71289152Y-73747666D02*
X71289152Y-73652428D01*
X95750142Y-127581819D02*
X95416809Y-127105628D01*
X95178714Y-127581819D02*
X95178714Y-126581819D01*
X95178714Y-126581819D02*
X95559666Y-126581819D01*
X95559666Y-126581819D02*
X95654904Y-126629438D01*
X95654904Y-126629438D02*
X95702523Y-126677057D01*
X95702523Y-126677057D02*
X95750142Y-126772295D01*
X95750142Y-126772295D02*
X95750142Y-126915152D01*
X95750142Y-126915152D02*
X95702523Y-127010390D01*
X95702523Y-127010390D02*
X95654904Y-127058009D01*
X95654904Y-127058009D02*
X95559666Y-127105628D01*
X95559666Y-127105628D02*
X95178714Y-127105628D01*
X96607285Y-126915152D02*
X96607285Y-127581819D01*
X96369190Y-126534200D02*
X96131095Y-127248485D01*
X96131095Y-127248485D02*
X96750142Y-127248485D01*
X97178714Y-127581819D02*
X97369190Y-127581819D01*
X97369190Y-127581819D02*
X97464428Y-127534200D01*
X97464428Y-127534200D02*
X97512047Y-127486580D01*
X97512047Y-127486580D02*
X97607285Y-127343723D01*
X97607285Y-127343723D02*
X97654904Y-127153247D01*
X97654904Y-127153247D02*
X97654904Y-126772295D01*
X97654904Y-126772295D02*
X97607285Y-126677057D01*
X97607285Y-126677057D02*
X97559666Y-126629438D01*
X97559666Y-126629438D02*
X97464428Y-126581819D01*
X97464428Y-126581819D02*
X97273952Y-126581819D01*
X97273952Y-126581819D02*
X97178714Y-126629438D01*
X97178714Y-126629438D02*
X97131095Y-126677057D01*
X97131095Y-126677057D02*
X97083476Y-126772295D01*
X97083476Y-126772295D02*
X97083476Y-127010390D01*
X97083476Y-127010390D02*
X97131095Y-127105628D01*
X97131095Y-127105628D02*
X97178714Y-127153247D01*
X97178714Y-127153247D02*
X97273952Y-127200866D01*
X97273952Y-127200866D02*
X97464428Y-127200866D01*
X97464428Y-127200866D02*
X97559666Y-127153247D01*
X97559666Y-127153247D02*
X97607285Y-127105628D01*
X97607285Y-127105628D02*
X97654904Y-127010390D01*
X101419819Y-78652666D02*
X100943628Y-78985999D01*
X101419819Y-79224094D02*
X100419819Y-79224094D01*
X100419819Y-79224094D02*
X100419819Y-78843142D01*
X100419819Y-78843142D02*
X100467438Y-78747904D01*
X100467438Y-78747904D02*
X100515057Y-78700285D01*
X100515057Y-78700285D02*
X100610295Y-78652666D01*
X100610295Y-78652666D02*
X100753152Y-78652666D01*
X100753152Y-78652666D02*
X100848390Y-78700285D01*
X100848390Y-78700285D02*
X100896009Y-78747904D01*
X100896009Y-78747904D02*
X100943628Y-78843142D01*
X100943628Y-78843142D02*
X100943628Y-79224094D01*
X100419819Y-78319332D02*
X100419819Y-77700285D01*
X100419819Y-77700285D02*
X100800771Y-78033618D01*
X100800771Y-78033618D02*
X100800771Y-77890761D01*
X100800771Y-77890761D02*
X100848390Y-77795523D01*
X100848390Y-77795523D02*
X100896009Y-77747904D01*
X100896009Y-77747904D02*
X100991247Y-77700285D01*
X100991247Y-77700285D02*
X101229342Y-77700285D01*
X101229342Y-77700285D02*
X101324580Y-77747904D01*
X101324580Y-77747904D02*
X101372200Y-77795523D01*
X101372200Y-77795523D02*
X101419819Y-77890761D01*
X101419819Y-77890761D02*
X101419819Y-78176475D01*
X101419819Y-78176475D02*
X101372200Y-78271713D01*
X101372200Y-78271713D02*
X101324580Y-78319332D01*
X92575142Y-94180819D02*
X92241809Y-93704628D01*
X92003714Y-94180819D02*
X92003714Y-93180819D01*
X92003714Y-93180819D02*
X92384666Y-93180819D01*
X92384666Y-93180819D02*
X92479904Y-93228438D01*
X92479904Y-93228438D02*
X92527523Y-93276057D01*
X92527523Y-93276057D02*
X92575142Y-93371295D01*
X92575142Y-93371295D02*
X92575142Y-93514152D01*
X92575142Y-93514152D02*
X92527523Y-93609390D01*
X92527523Y-93609390D02*
X92479904Y-93657009D01*
X92479904Y-93657009D02*
X92384666Y-93704628D01*
X92384666Y-93704628D02*
X92003714Y-93704628D01*
X92908476Y-93180819D02*
X93527523Y-93180819D01*
X93527523Y-93180819D02*
X93194190Y-93561771D01*
X93194190Y-93561771D02*
X93337047Y-93561771D01*
X93337047Y-93561771D02*
X93432285Y-93609390D01*
X93432285Y-93609390D02*
X93479904Y-93657009D01*
X93479904Y-93657009D02*
X93527523Y-93752247D01*
X93527523Y-93752247D02*
X93527523Y-93990342D01*
X93527523Y-93990342D02*
X93479904Y-94085580D01*
X93479904Y-94085580D02*
X93432285Y-94133200D01*
X93432285Y-94133200D02*
X93337047Y-94180819D01*
X93337047Y-94180819D02*
X93051333Y-94180819D01*
X93051333Y-94180819D02*
X92956095Y-94133200D01*
X92956095Y-94133200D02*
X92908476Y-94085580D01*
X93860857Y-93180819D02*
X94479904Y-93180819D01*
X94479904Y-93180819D02*
X94146571Y-93561771D01*
X94146571Y-93561771D02*
X94289428Y-93561771D01*
X94289428Y-93561771D02*
X94384666Y-93609390D01*
X94384666Y-93609390D02*
X94432285Y-93657009D01*
X94432285Y-93657009D02*
X94479904Y-93752247D01*
X94479904Y-93752247D02*
X94479904Y-93990342D01*
X94479904Y-93990342D02*
X94432285Y-94085580D01*
X94432285Y-94085580D02*
X94384666Y-94133200D01*
X94384666Y-94133200D02*
X94289428Y-94180819D01*
X94289428Y-94180819D02*
X94003714Y-94180819D01*
X94003714Y-94180819D02*
X93908476Y-94133200D01*
X93908476Y-94133200D02*
X93860857Y-94085580D01*
X92670333Y-89100819D02*
X92337000Y-88624628D01*
X92098905Y-89100819D02*
X92098905Y-88100819D01*
X92098905Y-88100819D02*
X92479857Y-88100819D01*
X92479857Y-88100819D02*
X92575095Y-88148438D01*
X92575095Y-88148438D02*
X92622714Y-88196057D01*
X92622714Y-88196057D02*
X92670333Y-88291295D01*
X92670333Y-88291295D02*
X92670333Y-88434152D01*
X92670333Y-88434152D02*
X92622714Y-88529390D01*
X92622714Y-88529390D02*
X92575095Y-88577009D01*
X92575095Y-88577009D02*
X92479857Y-88624628D01*
X92479857Y-88624628D02*
X92098905Y-88624628D01*
X93575095Y-88100819D02*
X93098905Y-88100819D01*
X93098905Y-88100819D02*
X93051286Y-88577009D01*
X93051286Y-88577009D02*
X93098905Y-88529390D01*
X93098905Y-88529390D02*
X93194143Y-88481771D01*
X93194143Y-88481771D02*
X93432238Y-88481771D01*
X93432238Y-88481771D02*
X93527476Y-88529390D01*
X93527476Y-88529390D02*
X93575095Y-88577009D01*
X93575095Y-88577009D02*
X93622714Y-88672247D01*
X93622714Y-88672247D02*
X93622714Y-88910342D01*
X93622714Y-88910342D02*
X93575095Y-89005580D01*
X93575095Y-89005580D02*
X93527476Y-89053200D01*
X93527476Y-89053200D02*
X93432238Y-89100819D01*
X93432238Y-89100819D02*
X93194143Y-89100819D01*
X93194143Y-89100819D02*
X93098905Y-89053200D01*
X93098905Y-89053200D02*
X93051286Y-89005580D01*
X92829142Y-106626819D02*
X92495809Y-106150628D01*
X92257714Y-106626819D02*
X92257714Y-105626819D01*
X92257714Y-105626819D02*
X92638666Y-105626819D01*
X92638666Y-105626819D02*
X92733904Y-105674438D01*
X92733904Y-105674438D02*
X92781523Y-105722057D01*
X92781523Y-105722057D02*
X92829142Y-105817295D01*
X92829142Y-105817295D02*
X92829142Y-105960152D01*
X92829142Y-105960152D02*
X92781523Y-106055390D01*
X92781523Y-106055390D02*
X92733904Y-106103009D01*
X92733904Y-106103009D02*
X92638666Y-106150628D01*
X92638666Y-106150628D02*
X92257714Y-106150628D01*
X93162476Y-105626819D02*
X93781523Y-105626819D01*
X93781523Y-105626819D02*
X93448190Y-106007771D01*
X93448190Y-106007771D02*
X93591047Y-106007771D01*
X93591047Y-106007771D02*
X93686285Y-106055390D01*
X93686285Y-106055390D02*
X93733904Y-106103009D01*
X93733904Y-106103009D02*
X93781523Y-106198247D01*
X93781523Y-106198247D02*
X93781523Y-106436342D01*
X93781523Y-106436342D02*
X93733904Y-106531580D01*
X93733904Y-106531580D02*
X93686285Y-106579200D01*
X93686285Y-106579200D02*
X93591047Y-106626819D01*
X93591047Y-106626819D02*
X93305333Y-106626819D01*
X93305333Y-106626819D02*
X93210095Y-106579200D01*
X93210095Y-106579200D02*
X93162476Y-106531580D01*
X94114857Y-105626819D02*
X94781523Y-105626819D01*
X94781523Y-105626819D02*
X94352952Y-106626819D01*
X89281095Y-113228819D02*
X89281095Y-114038342D01*
X89281095Y-114038342D02*
X89328714Y-114133580D01*
X89328714Y-114133580D02*
X89376333Y-114181200D01*
X89376333Y-114181200D02*
X89471571Y-114228819D01*
X89471571Y-114228819D02*
X89662047Y-114228819D01*
X89662047Y-114228819D02*
X89757285Y-114181200D01*
X89757285Y-114181200D02*
X89804904Y-114133580D01*
X89804904Y-114133580D02*
X89852523Y-114038342D01*
X89852523Y-114038342D02*
X89852523Y-113228819D01*
X90757285Y-113562152D02*
X90757285Y-114228819D01*
X90519190Y-113181200D02*
X90281095Y-113895485D01*
X90281095Y-113895485D02*
X90900142Y-113895485D01*
X58539142Y-89100819D02*
X58205809Y-88624628D01*
X57967714Y-89100819D02*
X57967714Y-88100819D01*
X57967714Y-88100819D02*
X58348666Y-88100819D01*
X58348666Y-88100819D02*
X58443904Y-88148438D01*
X58443904Y-88148438D02*
X58491523Y-88196057D01*
X58491523Y-88196057D02*
X58539142Y-88291295D01*
X58539142Y-88291295D02*
X58539142Y-88434152D01*
X58539142Y-88434152D02*
X58491523Y-88529390D01*
X58491523Y-88529390D02*
X58443904Y-88577009D01*
X58443904Y-88577009D02*
X58348666Y-88624628D01*
X58348666Y-88624628D02*
X57967714Y-88624628D01*
X59491523Y-89100819D02*
X58920095Y-89100819D01*
X59205809Y-89100819D02*
X59205809Y-88100819D01*
X59205809Y-88100819D02*
X59110571Y-88243676D01*
X59110571Y-88243676D02*
X59015333Y-88338914D01*
X59015333Y-88338914D02*
X58920095Y-88386533D01*
X60396285Y-88100819D02*
X59920095Y-88100819D01*
X59920095Y-88100819D02*
X59872476Y-88577009D01*
X59872476Y-88577009D02*
X59920095Y-88529390D01*
X59920095Y-88529390D02*
X60015333Y-88481771D01*
X60015333Y-88481771D02*
X60253428Y-88481771D01*
X60253428Y-88481771D02*
X60348666Y-88529390D01*
X60348666Y-88529390D02*
X60396285Y-88577009D01*
X60396285Y-88577009D02*
X60443904Y-88672247D01*
X60443904Y-88672247D02*
X60443904Y-88910342D01*
X60443904Y-88910342D02*
X60396285Y-89005580D01*
X60396285Y-89005580D02*
X60348666Y-89053200D01*
X60348666Y-89053200D02*
X60253428Y-89100819D01*
X60253428Y-89100819D02*
X60015333Y-89100819D01*
X60015333Y-89100819D02*
X59920095Y-89053200D01*
X59920095Y-89053200D02*
X59872476Y-89005580D01*
X99006819Y-78652666D02*
X98530628Y-78985999D01*
X99006819Y-79224094D02*
X98006819Y-79224094D01*
X98006819Y-79224094D02*
X98006819Y-78843142D01*
X98006819Y-78843142D02*
X98054438Y-78747904D01*
X98054438Y-78747904D02*
X98102057Y-78700285D01*
X98102057Y-78700285D02*
X98197295Y-78652666D01*
X98197295Y-78652666D02*
X98340152Y-78652666D01*
X98340152Y-78652666D02*
X98435390Y-78700285D01*
X98435390Y-78700285D02*
X98483009Y-78747904D01*
X98483009Y-78747904D02*
X98530628Y-78843142D01*
X98530628Y-78843142D02*
X98530628Y-79224094D01*
X98340152Y-77795523D02*
X99006819Y-77795523D01*
X97959200Y-78033618D02*
X98673485Y-78271713D01*
X98673485Y-78271713D02*
X98673485Y-77652666D01*
X58666142Y-99242819D02*
X58332809Y-98766628D01*
X58094714Y-99242819D02*
X58094714Y-98242819D01*
X58094714Y-98242819D02*
X58475666Y-98242819D01*
X58475666Y-98242819D02*
X58570904Y-98290438D01*
X58570904Y-98290438D02*
X58618523Y-98338057D01*
X58618523Y-98338057D02*
X58666142Y-98433295D01*
X58666142Y-98433295D02*
X58666142Y-98576152D01*
X58666142Y-98576152D02*
X58618523Y-98671390D01*
X58618523Y-98671390D02*
X58570904Y-98719009D01*
X58570904Y-98719009D02*
X58475666Y-98766628D01*
X58475666Y-98766628D02*
X58094714Y-98766628D01*
X59047095Y-98338057D02*
X59094714Y-98290438D01*
X59094714Y-98290438D02*
X59189952Y-98242819D01*
X59189952Y-98242819D02*
X59428047Y-98242819D01*
X59428047Y-98242819D02*
X59523285Y-98290438D01*
X59523285Y-98290438D02*
X59570904Y-98338057D01*
X59570904Y-98338057D02*
X59618523Y-98433295D01*
X59618523Y-98433295D02*
X59618523Y-98528533D01*
X59618523Y-98528533D02*
X59570904Y-98671390D01*
X59570904Y-98671390D02*
X58999476Y-99242819D01*
X58999476Y-99242819D02*
X59618523Y-99242819D01*
X59999476Y-98338057D02*
X60047095Y-98290438D01*
X60047095Y-98290438D02*
X60142333Y-98242819D01*
X60142333Y-98242819D02*
X60380428Y-98242819D01*
X60380428Y-98242819D02*
X60475666Y-98290438D01*
X60475666Y-98290438D02*
X60523285Y-98338057D01*
X60523285Y-98338057D02*
X60570904Y-98433295D01*
X60570904Y-98433295D02*
X60570904Y-98528533D01*
X60570904Y-98528533D02*
X60523285Y-98671390D01*
X60523285Y-98671390D02*
X59951857Y-99242819D01*
X59951857Y-99242819D02*
X60570904Y-99242819D01*
X78319333Y-76813592D02*
X78271714Y-76861212D01*
X78271714Y-76861212D02*
X78128857Y-76908831D01*
X78128857Y-76908831D02*
X78033619Y-76908831D01*
X78033619Y-76908831D02*
X77890762Y-76861212D01*
X77890762Y-76861212D02*
X77795524Y-76765973D01*
X77795524Y-76765973D02*
X77747905Y-76670735D01*
X77747905Y-76670735D02*
X77700286Y-76480259D01*
X77700286Y-76480259D02*
X77700286Y-76337402D01*
X77700286Y-76337402D02*
X77747905Y-76146926D01*
X77747905Y-76146926D02*
X77795524Y-76051688D01*
X77795524Y-76051688D02*
X77890762Y-75956450D01*
X77890762Y-75956450D02*
X78033619Y-75908831D01*
X78033619Y-75908831D02*
X78128857Y-75908831D01*
X78128857Y-75908831D02*
X78271714Y-75956450D01*
X78271714Y-75956450D02*
X78319333Y-76004069D01*
X79271714Y-76908831D02*
X78700286Y-76908831D01*
X78986000Y-76908831D02*
X78986000Y-75908831D01*
X78986000Y-75908831D02*
X78890762Y-76051688D01*
X78890762Y-76051688D02*
X78795524Y-76146926D01*
X78795524Y-76146926D02*
X78700286Y-76194545D01*
X51254819Y-91828857D02*
X50778628Y-92162190D01*
X51254819Y-92400285D02*
X50254819Y-92400285D01*
X50254819Y-92400285D02*
X50254819Y-92019333D01*
X50254819Y-92019333D02*
X50302438Y-91924095D01*
X50302438Y-91924095D02*
X50350057Y-91876476D01*
X50350057Y-91876476D02*
X50445295Y-91828857D01*
X50445295Y-91828857D02*
X50588152Y-91828857D01*
X50588152Y-91828857D02*
X50683390Y-91876476D01*
X50683390Y-91876476D02*
X50731009Y-91924095D01*
X50731009Y-91924095D02*
X50778628Y-92019333D01*
X50778628Y-92019333D02*
X50778628Y-92400285D01*
X51254819Y-90876476D02*
X51254819Y-91447904D01*
X51254819Y-91162190D02*
X50254819Y-91162190D01*
X50254819Y-91162190D02*
X50397676Y-91257428D01*
X50397676Y-91257428D02*
X50492914Y-91352666D01*
X50492914Y-91352666D02*
X50540533Y-91447904D01*
X50588152Y-90019333D02*
X51254819Y-90019333D01*
X50207200Y-90257428D02*
X50921485Y-90495523D01*
X50921485Y-90495523D02*
X50921485Y-89876476D01*
X72509142Y-119054819D02*
X72175809Y-118578628D01*
X71937714Y-119054819D02*
X71937714Y-118054819D01*
X71937714Y-118054819D02*
X72318666Y-118054819D01*
X72318666Y-118054819D02*
X72413904Y-118102438D01*
X72413904Y-118102438D02*
X72461523Y-118150057D01*
X72461523Y-118150057D02*
X72509142Y-118245295D01*
X72509142Y-118245295D02*
X72509142Y-118388152D01*
X72509142Y-118388152D02*
X72461523Y-118483390D01*
X72461523Y-118483390D02*
X72413904Y-118531009D01*
X72413904Y-118531009D02*
X72318666Y-118578628D01*
X72318666Y-118578628D02*
X71937714Y-118578628D01*
X73366285Y-118388152D02*
X73366285Y-119054819D01*
X73128190Y-118007200D02*
X72890095Y-118721485D01*
X72890095Y-118721485D02*
X73509142Y-118721485D01*
X74032952Y-118483390D02*
X73937714Y-118435771D01*
X73937714Y-118435771D02*
X73890095Y-118388152D01*
X73890095Y-118388152D02*
X73842476Y-118292914D01*
X73842476Y-118292914D02*
X73842476Y-118245295D01*
X73842476Y-118245295D02*
X73890095Y-118150057D01*
X73890095Y-118150057D02*
X73937714Y-118102438D01*
X73937714Y-118102438D02*
X74032952Y-118054819D01*
X74032952Y-118054819D02*
X74223428Y-118054819D01*
X74223428Y-118054819D02*
X74318666Y-118102438D01*
X74318666Y-118102438D02*
X74366285Y-118150057D01*
X74366285Y-118150057D02*
X74413904Y-118245295D01*
X74413904Y-118245295D02*
X74413904Y-118292914D01*
X74413904Y-118292914D02*
X74366285Y-118388152D01*
X74366285Y-118388152D02*
X74318666Y-118435771D01*
X74318666Y-118435771D02*
X74223428Y-118483390D01*
X74223428Y-118483390D02*
X74032952Y-118483390D01*
X74032952Y-118483390D02*
X73937714Y-118531009D01*
X73937714Y-118531009D02*
X73890095Y-118578628D01*
X73890095Y-118578628D02*
X73842476Y-118673866D01*
X73842476Y-118673866D02*
X73842476Y-118864342D01*
X73842476Y-118864342D02*
X73890095Y-118959580D01*
X73890095Y-118959580D02*
X73937714Y-119007200D01*
X73937714Y-119007200D02*
X74032952Y-119054819D01*
X74032952Y-119054819D02*
X74223428Y-119054819D01*
X74223428Y-119054819D02*
X74318666Y-119007200D01*
X74318666Y-119007200D02*
X74366285Y-118959580D01*
X74366285Y-118959580D02*
X74413904Y-118864342D01*
X74413904Y-118864342D02*
X74413904Y-118673866D01*
X74413904Y-118673866D02*
X74366285Y-118578628D01*
X74366285Y-118578628D02*
X74318666Y-118531009D01*
X74318666Y-118531009D02*
X74223428Y-118483390D01*
D12*
X103024905Y-112334318D02*
X103448238Y-113604318D01*
X103448238Y-113604318D02*
X103871572Y-112334318D01*
X105020619Y-113604318D02*
X104597285Y-112999556D01*
X104294904Y-113604318D02*
X104294904Y-112334318D01*
X104294904Y-112334318D02*
X104778714Y-112334318D01*
X104778714Y-112334318D02*
X104899666Y-112394794D01*
X104899666Y-112394794D02*
X104960143Y-112455270D01*
X104960143Y-112455270D02*
X105020619Y-112576222D01*
X105020619Y-112576222D02*
X105020619Y-112757651D01*
X105020619Y-112757651D02*
X104960143Y-112878603D01*
X104960143Y-112878603D02*
X104899666Y-112939080D01*
X104899666Y-112939080D02*
X104778714Y-112999556D01*
X104778714Y-112999556D02*
X104294904Y-112999556D01*
X105443952Y-112334318D02*
X106290619Y-112334318D01*
X106290619Y-112334318D02*
X105746333Y-113604318D01*
D11*
X51508819Y-125737857D02*
X51032628Y-126071190D01*
X51508819Y-126309285D02*
X50508819Y-126309285D01*
X50508819Y-126309285D02*
X50508819Y-125928333D01*
X50508819Y-125928333D02*
X50556438Y-125833095D01*
X50556438Y-125833095D02*
X50604057Y-125785476D01*
X50604057Y-125785476D02*
X50699295Y-125737857D01*
X50699295Y-125737857D02*
X50842152Y-125737857D01*
X50842152Y-125737857D02*
X50937390Y-125785476D01*
X50937390Y-125785476D02*
X50985009Y-125833095D01*
X50985009Y-125833095D02*
X51032628Y-125928333D01*
X51032628Y-125928333D02*
X51032628Y-126309285D01*
X50842152Y-124880714D02*
X51508819Y-124880714D01*
X50461200Y-125118809D02*
X51175485Y-125356904D01*
X51175485Y-125356904D02*
X51175485Y-124737857D01*
X50508819Y-124452142D02*
X50508819Y-123833095D01*
X50508819Y-123833095D02*
X50889771Y-124166428D01*
X50889771Y-124166428D02*
X50889771Y-124023571D01*
X50889771Y-124023571D02*
X50937390Y-123928333D01*
X50937390Y-123928333D02*
X50985009Y-123880714D01*
X50985009Y-123880714D02*
X51080247Y-123833095D01*
X51080247Y-123833095D02*
X51318342Y-123833095D01*
X51318342Y-123833095D02*
X51413580Y-123880714D01*
X51413580Y-123880714D02*
X51461200Y-123928333D01*
X51461200Y-123928333D02*
X51508819Y-124023571D01*
X51508819Y-124023571D02*
X51508819Y-124309285D01*
X51508819Y-124309285D02*
X51461200Y-124404523D01*
X51461200Y-124404523D02*
X51413580Y-124452142D01*
X72509142Y-116768819D02*
X72175809Y-116292628D01*
X71937714Y-116768819D02*
X71937714Y-115768819D01*
X71937714Y-115768819D02*
X72318666Y-115768819D01*
X72318666Y-115768819D02*
X72413904Y-115816438D01*
X72413904Y-115816438D02*
X72461523Y-115864057D01*
X72461523Y-115864057D02*
X72509142Y-115959295D01*
X72509142Y-115959295D02*
X72509142Y-116102152D01*
X72509142Y-116102152D02*
X72461523Y-116197390D01*
X72461523Y-116197390D02*
X72413904Y-116245009D01*
X72413904Y-116245009D02*
X72318666Y-116292628D01*
X72318666Y-116292628D02*
X71937714Y-116292628D01*
X73366285Y-116102152D02*
X73366285Y-116768819D01*
X73128190Y-115721200D02*
X72890095Y-116435485D01*
X72890095Y-116435485D02*
X73509142Y-116435485D01*
X73794857Y-115768819D02*
X74461523Y-115768819D01*
X74461523Y-115768819D02*
X74032952Y-116768819D01*
X58666142Y-96702819D02*
X58332809Y-96226628D01*
X58094714Y-96702819D02*
X58094714Y-95702819D01*
X58094714Y-95702819D02*
X58475666Y-95702819D01*
X58475666Y-95702819D02*
X58570904Y-95750438D01*
X58570904Y-95750438D02*
X58618523Y-95798057D01*
X58618523Y-95798057D02*
X58666142Y-95893295D01*
X58666142Y-95893295D02*
X58666142Y-96036152D01*
X58666142Y-96036152D02*
X58618523Y-96131390D01*
X58618523Y-96131390D02*
X58570904Y-96179009D01*
X58570904Y-96179009D02*
X58475666Y-96226628D01*
X58475666Y-96226628D02*
X58094714Y-96226628D01*
X59047095Y-95798057D02*
X59094714Y-95750438D01*
X59094714Y-95750438D02*
X59189952Y-95702819D01*
X59189952Y-95702819D02*
X59428047Y-95702819D01*
X59428047Y-95702819D02*
X59523285Y-95750438D01*
X59523285Y-95750438D02*
X59570904Y-95798057D01*
X59570904Y-95798057D02*
X59618523Y-95893295D01*
X59618523Y-95893295D02*
X59618523Y-95988533D01*
X59618523Y-95988533D02*
X59570904Y-96131390D01*
X59570904Y-96131390D02*
X58999476Y-96702819D01*
X58999476Y-96702819D02*
X59618523Y-96702819D01*
X60237571Y-95702819D02*
X60332809Y-95702819D01*
X60332809Y-95702819D02*
X60428047Y-95750438D01*
X60428047Y-95750438D02*
X60475666Y-95798057D01*
X60475666Y-95798057D02*
X60523285Y-95893295D01*
X60523285Y-95893295D02*
X60570904Y-96083771D01*
X60570904Y-96083771D02*
X60570904Y-96321866D01*
X60570904Y-96321866D02*
X60523285Y-96512342D01*
X60523285Y-96512342D02*
X60475666Y-96607580D01*
X60475666Y-96607580D02*
X60428047Y-96655200D01*
X60428047Y-96655200D02*
X60332809Y-96702819D01*
X60332809Y-96702819D02*
X60237571Y-96702819D01*
X60237571Y-96702819D02*
X60142333Y-96655200D01*
X60142333Y-96655200D02*
X60094714Y-96607580D01*
X60094714Y-96607580D02*
X60047095Y-96512342D01*
X60047095Y-96512342D02*
X59999476Y-96321866D01*
X59999476Y-96321866D02*
X59999476Y-96083771D01*
X59999476Y-96083771D02*
X60047095Y-95893295D01*
X60047095Y-95893295D02*
X60094714Y-95798057D01*
X60094714Y-95798057D02*
X60142333Y-95750438D01*
X60142333Y-95750438D02*
X60237571Y-95702819D01*
X103934819Y-78652666D02*
X103458628Y-78985999D01*
X103934819Y-79224094D02*
X102934819Y-79224094D01*
X102934819Y-79224094D02*
X102934819Y-78843142D01*
X102934819Y-78843142D02*
X102982438Y-78747904D01*
X102982438Y-78747904D02*
X103030057Y-78700285D01*
X103030057Y-78700285D02*
X103125295Y-78652666D01*
X103125295Y-78652666D02*
X103268152Y-78652666D01*
X103268152Y-78652666D02*
X103363390Y-78700285D01*
X103363390Y-78700285D02*
X103411009Y-78747904D01*
X103411009Y-78747904D02*
X103458628Y-78843142D01*
X103458628Y-78843142D02*
X103458628Y-79224094D01*
X103030057Y-78271713D02*
X102982438Y-78224094D01*
X102982438Y-78224094D02*
X102934819Y-78128856D01*
X102934819Y-78128856D02*
X102934819Y-77890761D01*
X102934819Y-77890761D02*
X102982438Y-77795523D01*
X102982438Y-77795523D02*
X103030057Y-77747904D01*
X103030057Y-77747904D02*
X103125295Y-77700285D01*
X103125295Y-77700285D02*
X103220533Y-77700285D01*
X103220533Y-77700285D02*
X103363390Y-77747904D01*
X103363390Y-77747904D02*
X103934819Y-78319332D01*
X103934819Y-78319332D02*
X103934819Y-77700285D01*
D13*
%TO.C,J1*%
X54754000Y-80138000D02*
X54754000Y-78758000D01*
X56134000Y-80138000D02*
X54754000Y-80138000D01*
X57404000Y-77378000D02*
X70214000Y-77378000D01*
X57404000Y-80138000D02*
X57404000Y-77378000D01*
X57404000Y-80138000D02*
X70214000Y-80138000D01*
X70214000Y-80138000D02*
X70214000Y-77378000D01*
%TO.C,R1*%
X106045000Y-81458000D02*
X106045000Y-82408000D01*
X106045000Y-87198000D02*
X106045000Y-86248000D01*
X106965000Y-82408000D02*
X105125000Y-82408000D01*
X105125000Y-86248000D01*
X106965000Y-86248000D01*
X106965000Y-82408000D01*
%TO.C,R34*%
X83998000Y-86233000D02*
X84948000Y-86233000D01*
X89738000Y-86233000D02*
X88788000Y-86233000D01*
X88788000Y-87153000D02*
X84948000Y-87153000D01*
X84948000Y-85313000D01*
X88788000Y-85313000D01*
X88788000Y-87153000D01*
%TO.C,J3*%
X116315000Y-107823000D02*
X116315000Y-110473000D01*
X113555000Y-110473000D02*
X116315000Y-110473000D01*
X113555000Y-107823000D02*
X116315000Y-107823000D01*
X113555000Y-107823000D02*
X113555000Y-110473000D01*
X113555000Y-106553000D02*
X113555000Y-105173000D01*
X113555000Y-105173000D02*
X114935000Y-105173000D01*
D14*
%TO.C,VR6*%
X58386000Y-115625000D02*
X68186000Y-115625000D01*
X58386000Y-118625000D02*
X58386000Y-115625000D01*
X58386000Y-123875000D02*
X58386000Y-126625000D01*
X58386000Y-126625000D02*
X68186000Y-126625000D01*
D10*
X60786000Y-130025000D02*
X60786000Y-130025000D01*
X60786000Y-130025000D02*
X60786000Y-130025000D01*
X60786000Y-130125000D02*
X60786000Y-130125000D01*
D14*
X68186000Y-115625000D02*
X68186000Y-118625000D01*
X68186000Y-126625000D02*
X68186000Y-123875000D01*
D10*
X60786000Y-130025000D02*
G75*
G02*
X60786000Y-130125000I0J-50000D01*
G01*
X60786000Y-130125000D02*
G75*
G02*
X60786000Y-130025000I0J50000D01*
G01*
X60786000Y-130125000D02*
G75*
G02*
X60786000Y-130025000I0J50000D01*
G01*
D13*
%TO.C,Q1*%
X52048000Y-88972000D02*
X55648000Y-88972000D01*
X52036125Y-88963741D02*
G75*
G02*
X53028000Y-84672000I1811875J1841741D01*
G01*
X54628000Y-84672000D02*
G75*
G02*
X55656445Y-88949684I-780000J-2450000D01*
G01*
%TO.C,R11*%
X48260000Y-94793000D02*
X48260000Y-95743000D01*
X48260000Y-100533000D02*
X48260000Y-99583000D01*
X47340000Y-99583000D02*
X49180000Y-99583000D01*
X49180000Y-95743000D01*
X47340000Y-95743000D01*
X47340000Y-99583000D01*
%TO.C,R23*%
X62789000Y-101328000D02*
X63739000Y-101328000D01*
X68529000Y-101328000D02*
X67579000Y-101328000D01*
X67579000Y-102248000D02*
X63739000Y-102248000D01*
X63739000Y-100408000D01*
X67579000Y-100408000D01*
X67579000Y-102248000D01*
%TO.C,R12*%
X53340000Y-94793000D02*
X53340000Y-95743000D01*
X53340000Y-100533000D02*
X53340000Y-99583000D01*
X54260000Y-95743000D02*
X52420000Y-95743000D01*
X52420000Y-99583000D01*
X54260000Y-99583000D01*
X54260000Y-95743000D01*
%TO.C,R36*%
X83998000Y-98679000D02*
X84948000Y-98679000D01*
X89738000Y-98679000D02*
X88788000Y-98679000D01*
X88788000Y-99599000D02*
X84948000Y-99599000D01*
X84948000Y-97759000D01*
X88788000Y-97759000D01*
X88788000Y-99599000D01*
%TO.C,R13*%
X55880000Y-94793000D02*
X55880000Y-95743000D01*
X55880000Y-100533000D02*
X55880000Y-99583000D01*
X56800000Y-95743000D02*
X54960000Y-95743000D01*
X54960000Y-99583000D01*
X56800000Y-99583000D01*
X56800000Y-95743000D01*
%TO.C,R44*%
X100965000Y-102177000D02*
X100965000Y-103127000D01*
X100965000Y-107917000D02*
X100965000Y-106967000D01*
X100045000Y-106967000D02*
X101885000Y-106967000D01*
X101885000Y-103127000D01*
X100045000Y-103127000D01*
X100045000Y-106967000D01*
%TO.C,C7*%
X81543225Y-109505000D02*
X82043225Y-109505000D01*
X81793225Y-109255000D02*
X81793225Y-109755000D01*
X84348000Y-108400000D02*
X84348000Y-113560000D01*
X84388000Y-108400000D02*
X84388000Y-113560000D01*
X84428000Y-108401000D02*
X84428000Y-113559000D01*
X84468000Y-108403000D02*
X84468000Y-113557000D01*
X84508000Y-108405000D02*
X84508000Y-113555000D01*
X84548000Y-108408000D02*
X84548000Y-113552000D01*
X84588000Y-108411000D02*
X84588000Y-109940000D01*
X84588000Y-112020000D02*
X84588000Y-113549000D01*
X84628000Y-108415000D02*
X84628000Y-109940000D01*
X84628000Y-112020000D02*
X84628000Y-113545000D01*
X84668000Y-108420000D02*
X84668000Y-109940000D01*
X84668000Y-112020000D02*
X84668000Y-113540000D01*
X84708000Y-108425000D02*
X84708000Y-109940000D01*
X84708000Y-112020000D02*
X84708000Y-113535000D01*
X84748000Y-108431000D02*
X84748000Y-109940000D01*
X84748000Y-112020000D02*
X84748000Y-113529000D01*
X84788000Y-108437000D02*
X84788000Y-109940000D01*
X84788000Y-112020000D02*
X84788000Y-113523000D01*
X84828000Y-108444000D02*
X84828000Y-109940000D01*
X84828000Y-112020000D02*
X84828000Y-113516000D01*
X84868000Y-108452000D02*
X84868000Y-109940000D01*
X84868000Y-112020000D02*
X84868000Y-113508000D01*
X84908000Y-108461000D02*
X84908000Y-109940000D01*
X84908000Y-112020000D02*
X84908000Y-113499000D01*
X84948000Y-108470000D02*
X84948000Y-109940000D01*
X84948000Y-112020000D02*
X84948000Y-113490000D01*
X84988000Y-108479000D02*
X84988000Y-109940000D01*
X84988000Y-112020000D02*
X84988000Y-113481000D01*
X85028000Y-108490000D02*
X85028000Y-109940000D01*
X85028000Y-112020000D02*
X85028000Y-113470000D01*
X85068000Y-108501000D02*
X85068000Y-109940000D01*
X85068000Y-112020000D02*
X85068000Y-113459000D01*
X85108000Y-108513000D02*
X85108000Y-109940000D01*
X85108000Y-112020000D02*
X85108000Y-113447000D01*
X85148000Y-108525000D02*
X85148000Y-109940000D01*
X85148000Y-112020000D02*
X85148000Y-113435000D01*
X85188000Y-108538000D02*
X85188000Y-109940000D01*
X85188000Y-112020000D02*
X85188000Y-113422000D01*
X85228000Y-108552000D02*
X85228000Y-109940000D01*
X85228000Y-112020000D02*
X85228000Y-113408000D01*
X85268000Y-108567000D02*
X85268000Y-109940000D01*
X85268000Y-112020000D02*
X85268000Y-113393000D01*
X85308000Y-108582000D02*
X85308000Y-109940000D01*
X85308000Y-112020000D02*
X85308000Y-113378000D01*
X85348000Y-108598000D02*
X85348000Y-109940000D01*
X85348000Y-112020000D02*
X85348000Y-113362000D01*
X85388000Y-108615000D02*
X85388000Y-109940000D01*
X85388000Y-112020000D02*
X85388000Y-113345000D01*
X85428000Y-108633000D02*
X85428000Y-109940000D01*
X85428000Y-112020000D02*
X85428000Y-113327000D01*
X85468000Y-108651000D02*
X85468000Y-109940000D01*
X85468000Y-112020000D02*
X85468000Y-113309000D01*
X85508000Y-108671000D02*
X85508000Y-109940000D01*
X85508000Y-112020000D02*
X85508000Y-113289000D01*
X85548000Y-108691000D02*
X85548000Y-109940000D01*
X85548000Y-112020000D02*
X85548000Y-113269000D01*
X85588000Y-108712000D02*
X85588000Y-109940000D01*
X85588000Y-112020000D02*
X85588000Y-113248000D01*
X85628000Y-108734000D02*
X85628000Y-109940000D01*
X85628000Y-112020000D02*
X85628000Y-113226000D01*
X85668000Y-108757000D02*
X85668000Y-109940000D01*
X85668000Y-112020000D02*
X85668000Y-113203000D01*
X85708000Y-108781000D02*
X85708000Y-109940000D01*
X85708000Y-112020000D02*
X85708000Y-113179000D01*
X85748000Y-108805000D02*
X85748000Y-109940000D01*
X85748000Y-112020000D02*
X85748000Y-113155000D01*
X85788000Y-108831000D02*
X85788000Y-109940000D01*
X85788000Y-112020000D02*
X85788000Y-113129000D01*
X85828000Y-108858000D02*
X85828000Y-109940000D01*
X85828000Y-112020000D02*
X85828000Y-113102000D01*
X85868000Y-108886000D02*
X85868000Y-109940000D01*
X85868000Y-112020000D02*
X85868000Y-113074000D01*
X85908000Y-108915000D02*
X85908000Y-109940000D01*
X85908000Y-112020000D02*
X85908000Y-113045000D01*
X85948000Y-108945000D02*
X85948000Y-109940000D01*
X85948000Y-112020000D02*
X85948000Y-113015000D01*
X85988000Y-108977000D02*
X85988000Y-109940000D01*
X85988000Y-112020000D02*
X85988000Y-112983000D01*
X86028000Y-109010000D02*
X86028000Y-109940000D01*
X86028000Y-112020000D02*
X86028000Y-112950000D01*
X86068000Y-109044000D02*
X86068000Y-109940000D01*
X86068000Y-112020000D02*
X86068000Y-112916000D01*
X86108000Y-109079000D02*
X86108000Y-109940000D01*
X86108000Y-112020000D02*
X86108000Y-112881000D01*
X86148000Y-109116000D02*
X86148000Y-109940000D01*
X86148000Y-112020000D02*
X86148000Y-112844000D01*
X86188000Y-109155000D02*
X86188000Y-109940000D01*
X86188000Y-112020000D02*
X86188000Y-112805000D01*
X86228000Y-109195000D02*
X86228000Y-109940000D01*
X86228000Y-112020000D02*
X86228000Y-112765000D01*
X86268000Y-109237000D02*
X86268000Y-109940000D01*
X86268000Y-112020000D02*
X86268000Y-112723000D01*
X86308000Y-109281000D02*
X86308000Y-109940000D01*
X86308000Y-112020000D02*
X86308000Y-112679000D01*
X86348000Y-109328000D02*
X86348000Y-109940000D01*
X86348000Y-112020000D02*
X86348000Y-112632000D01*
X86388000Y-109376000D02*
X86388000Y-109940000D01*
X86388000Y-112020000D02*
X86388000Y-112584000D01*
X86428000Y-109427000D02*
X86428000Y-109940000D01*
X86428000Y-112020000D02*
X86428000Y-112533000D01*
X86468000Y-109481000D02*
X86468000Y-109940000D01*
X86468000Y-112020000D02*
X86468000Y-112479000D01*
X86508000Y-109537000D02*
X86508000Y-109940000D01*
X86508000Y-112020000D02*
X86508000Y-112423000D01*
X86548000Y-109597000D02*
X86548000Y-109940000D01*
X86548000Y-112020000D02*
X86548000Y-112363000D01*
X86588000Y-109661000D02*
X86588000Y-109940000D01*
X86588000Y-112020000D02*
X86588000Y-112299000D01*
X86628000Y-109729000D02*
X86628000Y-109940000D01*
X86628000Y-112020000D02*
X86628000Y-112231000D01*
X86668000Y-109803000D02*
X86668000Y-112157000D01*
X86708000Y-109882000D02*
X86708000Y-112078000D01*
X86748000Y-109969000D02*
X86748000Y-111991000D01*
X86788000Y-110066000D02*
X86788000Y-111894000D01*
X86828000Y-110175000D02*
X86828000Y-111785000D01*
X86868000Y-110303000D02*
X86868000Y-111657000D01*
X86908000Y-110463000D02*
X86908000Y-111497000D01*
X86948000Y-110697000D02*
X86948000Y-111263000D01*
X86968000Y-110980000D02*
G75*
G02*
X81728000Y-110980000I-2620000J0D01*
G01*
X81728000Y-110980000D02*
G75*
G02*
X86968000Y-110980000I2620000J0D01*
G01*
%TO.C,U1*%
X46930000Y-105827000D02*
X46930000Y-107077000D01*
X46930000Y-109077000D02*
X46930000Y-110327000D01*
X46930000Y-110327000D02*
X57210000Y-110327000D01*
X57210000Y-105827000D02*
X46930000Y-105827000D01*
X57210000Y-110327000D02*
X57210000Y-105827000D01*
X46930000Y-107077000D02*
G75*
G02*
X46930000Y-109077000I0J-1000000D01*
G01*
%TO.C,C2*%
X86717000Y-79532900D02*
X85188000Y-79532900D01*
X86717000Y-79572900D02*
X85192000Y-79572900D01*
X86717000Y-79612900D02*
X85197000Y-79612900D01*
X86717000Y-79652900D02*
X85202000Y-79652900D01*
X86717000Y-79692900D02*
X85208000Y-79692900D01*
X86717000Y-79732900D02*
X85214000Y-79732900D01*
X86717000Y-79772900D02*
X85221000Y-79772900D01*
X86717000Y-79812900D02*
X85229000Y-79812900D01*
X86717000Y-79852900D02*
X85238000Y-79852900D01*
X86717000Y-79892900D02*
X85247000Y-79892900D01*
X86717000Y-79932900D02*
X85256000Y-79932900D01*
X86717000Y-79972900D02*
X85267000Y-79972900D01*
X86717000Y-80012900D02*
X85278000Y-80012900D01*
X86717000Y-80052900D02*
X85290000Y-80052900D01*
X86717000Y-80092900D02*
X85302000Y-80092900D01*
X86717000Y-80132900D02*
X85315000Y-80132900D01*
X86717000Y-80172900D02*
X85329000Y-80172900D01*
X86717000Y-80212900D02*
X85344000Y-80212900D01*
X86717000Y-80252900D02*
X85359000Y-80252900D01*
X86717000Y-80292900D02*
X85375000Y-80292900D01*
X86717000Y-80332900D02*
X85392000Y-80332900D01*
X86717000Y-80372900D02*
X85410000Y-80372900D01*
X86717000Y-80412900D02*
X85428000Y-80412900D01*
X86717000Y-80452900D02*
X85448000Y-80452900D01*
X86717000Y-80492900D02*
X85468000Y-80492900D01*
X86717000Y-80532900D02*
X85489000Y-80532900D01*
X86717000Y-80572900D02*
X85511000Y-80572900D01*
X86717000Y-80612900D02*
X85534000Y-80612900D01*
X86717000Y-80652900D02*
X85558000Y-80652900D01*
X86717000Y-80692900D02*
X85582000Y-80692900D01*
X86717000Y-80732900D02*
X85608000Y-80732900D01*
X86717000Y-80772900D02*
X85635000Y-80772900D01*
X86717000Y-80812900D02*
X85663000Y-80812900D01*
X86717000Y-80852900D02*
X85692000Y-80852900D01*
X86717000Y-80892900D02*
X85722000Y-80892900D01*
X86717000Y-80932900D02*
X85754000Y-80932900D01*
X86717000Y-80972900D02*
X85787000Y-80972900D01*
X86717000Y-81012900D02*
X85821000Y-81012900D01*
X86717000Y-81052900D02*
X85856000Y-81052900D01*
X86717000Y-81092900D02*
X85893000Y-81092900D01*
X86717000Y-81132900D02*
X85932000Y-81132900D01*
X86717000Y-81172900D02*
X85972000Y-81172900D01*
X86717000Y-81212900D02*
X86014000Y-81212900D01*
X86717000Y-81252900D02*
X86058000Y-81252900D01*
X86717000Y-81292900D02*
X86105000Y-81292900D01*
X86717000Y-81332900D02*
X86153000Y-81332900D01*
X86717000Y-81372900D02*
X86204000Y-81372900D01*
X86717000Y-81412900D02*
X86258000Y-81412900D01*
X86717000Y-81452900D02*
X86314000Y-81452900D01*
X86717000Y-81492900D02*
X86374000Y-81492900D01*
X86717000Y-81532900D02*
X86438000Y-81532900D01*
X86717000Y-81572900D02*
X86506000Y-81572900D01*
X88040000Y-81892900D02*
X87474000Y-81892900D01*
X88274000Y-81852900D02*
X87240000Y-81852900D01*
X88434000Y-81812900D02*
X87080000Y-81812900D01*
X88562000Y-81772900D02*
X86952000Y-81772900D01*
X88671000Y-81732900D02*
X86843000Y-81732900D01*
X88768000Y-81692900D02*
X86746000Y-81692900D01*
X88855000Y-81652900D02*
X86659000Y-81652900D01*
X88934000Y-81612900D02*
X86580000Y-81612900D01*
X89008000Y-81572900D02*
X88797000Y-81572900D01*
X89076000Y-81532900D02*
X88797000Y-81532900D01*
X89140000Y-81492900D02*
X88797000Y-81492900D01*
X89200000Y-81452900D02*
X88797000Y-81452900D01*
X89232000Y-76488125D02*
X89232000Y-76988125D01*
X89256000Y-81412900D02*
X88797000Y-81412900D01*
X89310000Y-81372900D02*
X88797000Y-81372900D01*
X89361000Y-81332900D02*
X88797000Y-81332900D01*
X89409000Y-81292900D02*
X88797000Y-81292900D01*
X89456000Y-81252900D02*
X88797000Y-81252900D01*
X89482000Y-76738125D02*
X88982000Y-76738125D01*
X89500000Y-81212900D02*
X88797000Y-81212900D01*
X89542000Y-81172900D02*
X88797000Y-81172900D01*
X89582000Y-81132900D02*
X88797000Y-81132900D01*
X89621000Y-81092900D02*
X88797000Y-81092900D01*
X89658000Y-81052900D02*
X88797000Y-81052900D01*
X89693000Y-81012900D02*
X88797000Y-81012900D01*
X89727000Y-80972900D02*
X88797000Y-80972900D01*
X89760000Y-80932900D02*
X88797000Y-80932900D01*
X89792000Y-80892900D02*
X88797000Y-80892900D01*
X89822000Y-80852900D02*
X88797000Y-80852900D01*
X89851000Y-80812900D02*
X88797000Y-80812900D01*
X89879000Y-80772900D02*
X88797000Y-80772900D01*
X89906000Y-80732900D02*
X88797000Y-80732900D01*
X89932000Y-80692900D02*
X88797000Y-80692900D01*
X89956000Y-80652900D02*
X88797000Y-80652900D01*
X89980000Y-80612900D02*
X88797000Y-80612900D01*
X90003000Y-80572900D02*
X88797000Y-80572900D01*
X90025000Y-80532900D02*
X88797000Y-80532900D01*
X90046000Y-80492900D02*
X88797000Y-80492900D01*
X90066000Y-80452900D02*
X88797000Y-80452900D01*
X90086000Y-80412900D02*
X88797000Y-80412900D01*
X90104000Y-80372900D02*
X88797000Y-80372900D01*
X90122000Y-80332900D02*
X88797000Y-80332900D01*
X90139000Y-80292900D02*
X88797000Y-80292900D01*
X90155000Y-80252900D02*
X88797000Y-80252900D01*
X90170000Y-80212900D02*
X88797000Y-80212900D01*
X90185000Y-80172900D02*
X88797000Y-80172900D01*
X90199000Y-80132900D02*
X88797000Y-80132900D01*
X90212000Y-80092900D02*
X88797000Y-80092900D01*
X90224000Y-80052900D02*
X88797000Y-80052900D01*
X90236000Y-80012900D02*
X88797000Y-80012900D01*
X90247000Y-79972900D02*
X88797000Y-79972900D01*
X90258000Y-79932900D02*
X88797000Y-79932900D01*
X90267000Y-79892900D02*
X88797000Y-79892900D01*
X90276000Y-79852900D02*
X88797000Y-79852900D01*
X90285000Y-79812900D02*
X88797000Y-79812900D01*
X90293000Y-79772900D02*
X88797000Y-79772900D01*
X90300000Y-79732900D02*
X88797000Y-79732900D01*
X90306000Y-79692900D02*
X88797000Y-79692900D01*
X90312000Y-79652900D02*
X88797000Y-79652900D01*
X90317000Y-79612900D02*
X88797000Y-79612900D01*
X90322000Y-79572900D02*
X88797000Y-79572900D01*
X90326000Y-79532900D02*
X88797000Y-79532900D01*
X90329000Y-79492900D02*
X85185000Y-79492900D01*
X90332000Y-79452900D02*
X85182000Y-79452900D01*
X90334000Y-79412900D02*
X85180000Y-79412900D01*
X90336000Y-79372900D02*
X85178000Y-79372900D01*
X90337000Y-79292900D02*
X85177000Y-79292900D01*
X90337000Y-79332900D02*
X85177000Y-79332900D01*
X90377000Y-79292900D02*
G75*
G02*
X85137000Y-79292900I-2620000J0D01*
G01*
X85137000Y-79292900D02*
G75*
G02*
X90377000Y-79292900I2620000J0D01*
G01*
%TO.C,J4*%
X116265000Y-100203000D02*
X116265000Y-97603000D01*
X116265000Y-100203000D02*
X113605000Y-100203000D01*
X116265000Y-97603000D02*
X113605000Y-97603000D01*
X114935000Y-102803000D02*
X113605000Y-102803000D01*
X113605000Y-102803000D02*
X113605000Y-101473000D01*
X113605000Y-100203000D02*
X113605000Y-97603000D01*
%TO.C,U3*%
X97095000Y-92619000D02*
X97095000Y-93869000D01*
X97095000Y-95869000D02*
X97095000Y-97119000D01*
X97095000Y-97119000D02*
X107375000Y-97119000D01*
X107375000Y-92619000D02*
X97095000Y-92619000D01*
X107375000Y-97119000D02*
X107375000Y-92619000D01*
X97095000Y-93869000D02*
G75*
G02*
X97095000Y-95869000I0J-1000000D01*
G01*
%TO.C,R35*%
X83998000Y-83947000D02*
X84948000Y-83947000D01*
X89738000Y-83947000D02*
X88788000Y-83947000D01*
X88788000Y-84867000D02*
X84948000Y-84867000D01*
X84948000Y-83027000D01*
X88788000Y-83027000D01*
X88788000Y-84867000D01*
%TO.C,C9*%
X90560225Y-109632000D02*
X91060225Y-109632000D01*
X90810225Y-109382000D02*
X90810225Y-109882000D01*
X93365000Y-108527000D02*
X93365000Y-113687000D01*
X93405000Y-108527000D02*
X93405000Y-113687000D01*
X93445000Y-108528000D02*
X93445000Y-113686000D01*
X93485000Y-108530000D02*
X93485000Y-113684000D01*
X93525000Y-108532000D02*
X93525000Y-113682000D01*
X93565000Y-108535000D02*
X93565000Y-113679000D01*
X93605000Y-108538000D02*
X93605000Y-110067000D01*
X93605000Y-112147000D02*
X93605000Y-113676000D01*
X93645000Y-108542000D02*
X93645000Y-110067000D01*
X93645000Y-112147000D02*
X93645000Y-113672000D01*
X93685000Y-108547000D02*
X93685000Y-110067000D01*
X93685000Y-112147000D02*
X93685000Y-113667000D01*
X93725000Y-108552000D02*
X93725000Y-110067000D01*
X93725000Y-112147000D02*
X93725000Y-113662000D01*
X93765000Y-108558000D02*
X93765000Y-110067000D01*
X93765000Y-112147000D02*
X93765000Y-113656000D01*
X93805000Y-108564000D02*
X93805000Y-110067000D01*
X93805000Y-112147000D02*
X93805000Y-113650000D01*
X93845000Y-108571000D02*
X93845000Y-110067000D01*
X93845000Y-112147000D02*
X93845000Y-113643000D01*
X93885000Y-108579000D02*
X93885000Y-110067000D01*
X93885000Y-112147000D02*
X93885000Y-113635000D01*
X93925000Y-108588000D02*
X93925000Y-110067000D01*
X93925000Y-112147000D02*
X93925000Y-113626000D01*
X93965000Y-108597000D02*
X93965000Y-110067000D01*
X93965000Y-112147000D02*
X93965000Y-113617000D01*
X94005000Y-108606000D02*
X94005000Y-110067000D01*
X94005000Y-112147000D02*
X94005000Y-113608000D01*
X94045000Y-108617000D02*
X94045000Y-110067000D01*
X94045000Y-112147000D02*
X94045000Y-113597000D01*
X94085000Y-108628000D02*
X94085000Y-110067000D01*
X94085000Y-112147000D02*
X94085000Y-113586000D01*
X94125000Y-108640000D02*
X94125000Y-110067000D01*
X94125000Y-112147000D02*
X94125000Y-113574000D01*
X94165000Y-108652000D02*
X94165000Y-110067000D01*
X94165000Y-112147000D02*
X94165000Y-113562000D01*
X94205000Y-108665000D02*
X94205000Y-110067000D01*
X94205000Y-112147000D02*
X94205000Y-113549000D01*
X94245000Y-108679000D02*
X94245000Y-110067000D01*
X94245000Y-112147000D02*
X94245000Y-113535000D01*
X94285000Y-108694000D02*
X94285000Y-110067000D01*
X94285000Y-112147000D02*
X94285000Y-113520000D01*
X94325000Y-108709000D02*
X94325000Y-110067000D01*
X94325000Y-112147000D02*
X94325000Y-113505000D01*
X94365000Y-108725000D02*
X94365000Y-110067000D01*
X94365000Y-112147000D02*
X94365000Y-113489000D01*
X94405000Y-108742000D02*
X94405000Y-110067000D01*
X94405000Y-112147000D02*
X94405000Y-113472000D01*
X94445000Y-108760000D02*
X94445000Y-110067000D01*
X94445000Y-112147000D02*
X94445000Y-113454000D01*
X94485000Y-108778000D02*
X94485000Y-110067000D01*
X94485000Y-112147000D02*
X94485000Y-113436000D01*
X94525000Y-108798000D02*
X94525000Y-110067000D01*
X94525000Y-112147000D02*
X94525000Y-113416000D01*
X94565000Y-108818000D02*
X94565000Y-110067000D01*
X94565000Y-112147000D02*
X94565000Y-113396000D01*
X94605000Y-108839000D02*
X94605000Y-110067000D01*
X94605000Y-112147000D02*
X94605000Y-113375000D01*
X94645000Y-108861000D02*
X94645000Y-110067000D01*
X94645000Y-112147000D02*
X94645000Y-113353000D01*
X94685000Y-108884000D02*
X94685000Y-110067000D01*
X94685000Y-112147000D02*
X94685000Y-113330000D01*
X94725000Y-108908000D02*
X94725000Y-110067000D01*
X94725000Y-112147000D02*
X94725000Y-113306000D01*
X94765000Y-108932000D02*
X94765000Y-110067000D01*
X94765000Y-112147000D02*
X94765000Y-113282000D01*
X94805000Y-108958000D02*
X94805000Y-110067000D01*
X94805000Y-112147000D02*
X94805000Y-113256000D01*
X94845000Y-108985000D02*
X94845000Y-110067000D01*
X94845000Y-112147000D02*
X94845000Y-113229000D01*
X94885000Y-109013000D02*
X94885000Y-110067000D01*
X94885000Y-112147000D02*
X94885000Y-113201000D01*
X94925000Y-109042000D02*
X94925000Y-110067000D01*
X94925000Y-112147000D02*
X94925000Y-113172000D01*
X94965000Y-109072000D02*
X94965000Y-110067000D01*
X94965000Y-112147000D02*
X94965000Y-113142000D01*
X95005000Y-109104000D02*
X95005000Y-110067000D01*
X95005000Y-112147000D02*
X95005000Y-113110000D01*
X95045000Y-109137000D02*
X95045000Y-110067000D01*
X95045000Y-112147000D02*
X95045000Y-113077000D01*
X95085000Y-109171000D02*
X95085000Y-110067000D01*
X95085000Y-112147000D02*
X95085000Y-113043000D01*
X95125000Y-109206000D02*
X95125000Y-110067000D01*
X95125000Y-112147000D02*
X95125000Y-113008000D01*
X95165000Y-109243000D02*
X95165000Y-110067000D01*
X95165000Y-112147000D02*
X95165000Y-112971000D01*
X95205000Y-109282000D02*
X95205000Y-110067000D01*
X95205000Y-112147000D02*
X95205000Y-112932000D01*
X95245000Y-109322000D02*
X95245000Y-110067000D01*
X95245000Y-112147000D02*
X95245000Y-112892000D01*
X95285000Y-109364000D02*
X95285000Y-110067000D01*
X95285000Y-112147000D02*
X95285000Y-112850000D01*
X95325000Y-109408000D02*
X95325000Y-110067000D01*
X95325000Y-112147000D02*
X95325000Y-112806000D01*
X95365000Y-109455000D02*
X95365000Y-110067000D01*
X95365000Y-112147000D02*
X95365000Y-112759000D01*
X95405000Y-109503000D02*
X95405000Y-110067000D01*
X95405000Y-112147000D02*
X95405000Y-112711000D01*
X95445000Y-109554000D02*
X95445000Y-110067000D01*
X95445000Y-112147000D02*
X95445000Y-112660000D01*
X95485000Y-109608000D02*
X95485000Y-110067000D01*
X95485000Y-112147000D02*
X95485000Y-112606000D01*
X95525000Y-109664000D02*
X95525000Y-110067000D01*
X95525000Y-112147000D02*
X95525000Y-112550000D01*
X95565000Y-109724000D02*
X95565000Y-110067000D01*
X95565000Y-112147000D02*
X95565000Y-112490000D01*
X95605000Y-109788000D02*
X95605000Y-110067000D01*
X95605000Y-112147000D02*
X95605000Y-112426000D01*
X95645000Y-109856000D02*
X95645000Y-110067000D01*
X95645000Y-112147000D02*
X95645000Y-112358000D01*
X95685000Y-109930000D02*
X95685000Y-112284000D01*
X95725000Y-110009000D02*
X95725000Y-112205000D01*
X95765000Y-110096000D02*
X95765000Y-112118000D01*
X95805000Y-110193000D02*
X95805000Y-112021000D01*
X95845000Y-110302000D02*
X95845000Y-111912000D01*
X95885000Y-110430000D02*
X95885000Y-111784000D01*
X95925000Y-110590000D02*
X95925000Y-111624000D01*
X95965000Y-110824000D02*
X95965000Y-111390000D01*
X95985000Y-111107000D02*
G75*
G02*
X90745000Y-111107000I-2620000J0D01*
G01*
X90745000Y-111107000D02*
G75*
G02*
X95985000Y-111107000I2620000J0D01*
G01*
%TO.C,R31*%
X83998000Y-91313000D02*
X84948000Y-91313000D01*
X89738000Y-91313000D02*
X88788000Y-91313000D01*
X84948000Y-90393000D02*
X88788000Y-90393000D01*
X88788000Y-92233000D01*
X84948000Y-92233000D01*
X84948000Y-90393000D01*
%TO.C,R38*%
X76632000Y-121394000D02*
X77582000Y-121394000D01*
X82372000Y-121394000D02*
X81422000Y-121394000D01*
X77582000Y-120474000D02*
X81422000Y-120474000D01*
X81422000Y-122314000D01*
X77582000Y-122314000D01*
X77582000Y-120474000D01*
%TO.C,U2*%
X74077000Y-87298000D02*
X74077000Y-107738000D01*
X74077000Y-107738000D02*
X78577000Y-107738000D01*
X75327000Y-87298000D02*
X74077000Y-87298000D01*
X78577000Y-87298000D02*
X77327000Y-87298000D01*
X78577000Y-107738000D02*
X78577000Y-87298000D01*
X77327000Y-87298000D02*
G75*
G02*
X75327000Y-87298000I-1000000J0D01*
G01*
%TO.C,R32*%
X83998000Y-96266000D02*
X84948000Y-96266000D01*
X89738000Y-96266000D02*
X88788000Y-96266000D01*
X88788000Y-97186000D02*
X84948000Y-97186000D01*
X84948000Y-95346000D01*
X88788000Y-95346000D01*
X88788000Y-97186000D01*
%TO.C,R19*%
X62789000Y-93708000D02*
X63739000Y-93708000D01*
X68529000Y-93708000D02*
X67579000Y-93708000D01*
X63739000Y-92788000D02*
X67579000Y-92788000D01*
X67579000Y-94628000D01*
X63739000Y-94628000D01*
X63739000Y-92788000D01*
%TO.C,J2*%
X80712000Y-71949000D02*
X82042000Y-71949000D01*
X80712000Y-73279000D02*
X80712000Y-71949000D01*
X83312000Y-71949000D02*
X88452000Y-71949000D01*
X83312000Y-74609000D02*
X83312000Y-71949000D01*
X83312000Y-74609000D02*
X88452000Y-74609000D01*
X88452000Y-74609000D02*
X88452000Y-71949000D01*
%TO.C,R41*%
X48260000Y-115748000D02*
X48260000Y-116698000D01*
X48260000Y-121488000D02*
X48260000Y-120538000D01*
X47340000Y-120538000D02*
X49180000Y-120538000D01*
X49180000Y-116698000D01*
X47340000Y-116698000D01*
X47340000Y-120538000D01*
%TO.C,R45*%
X98425000Y-102286000D02*
X98425000Y-103236000D01*
X98425000Y-108026000D02*
X98425000Y-107076000D01*
X97505000Y-107076000D02*
X99345000Y-107076000D01*
X99345000Y-103236000D01*
X97505000Y-103236000D01*
X97505000Y-107076000D01*
%TO.C,R21*%
X62789000Y-91168000D02*
X63739000Y-91168000D01*
X68529000Y-91168000D02*
X67579000Y-91168000D01*
X67579000Y-92088000D02*
X63739000Y-92088000D01*
X63739000Y-90248000D01*
X67579000Y-90248000D01*
X67579000Y-92088000D01*
%TO.C,Q2*%
X104162000Y-72445000D02*
X100562000Y-72445000D01*
X101582000Y-76745000D02*
G75*
G02*
X100553555Y-72467316I780000J2450000D01*
G01*
X104173875Y-72453259D02*
G75*
G02*
X103182000Y-76745000I-1811875J-1841741D01*
G01*
%TO.C,J5*%
X54754000Y-75548000D02*
X54754000Y-74168000D01*
X56134000Y-75548000D02*
X54754000Y-75548000D01*
X57404000Y-72788000D02*
X70214000Y-72788000D01*
X57404000Y-75548000D02*
X57404000Y-72788000D01*
X57404000Y-75548000D02*
X70214000Y-75548000D01*
X70214000Y-75548000D02*
X70214000Y-72788000D01*
%TO.C,R49*%
X87046000Y-127127000D02*
X87996000Y-127127000D01*
X92786000Y-127127000D02*
X91836000Y-127127000D01*
X87996000Y-126207000D02*
X91836000Y-126207000D01*
X91836000Y-128047000D01*
X87996000Y-128047000D01*
X87996000Y-126207000D01*
%TO.C,R3*%
X100965000Y-81458000D02*
X100965000Y-82408000D01*
X100965000Y-87198000D02*
X100965000Y-86248000D01*
X100045000Y-86248000D02*
X101885000Y-86248000D01*
X101885000Y-82408000D01*
X100045000Y-82408000D01*
X100045000Y-86248000D01*
%TO.C,R33*%
X83998000Y-93726000D02*
X84948000Y-93726000D01*
X89738000Y-93726000D02*
X88788000Y-93726000D01*
X88788000Y-94646000D02*
X84948000Y-94646000D01*
X84948000Y-92806000D01*
X88788000Y-92806000D01*
X88788000Y-94646000D01*
%TO.C,R5*%
X83998000Y-88646000D02*
X84948000Y-88646000D01*
X89738000Y-88646000D02*
X88788000Y-88646000D01*
X88788000Y-89566000D02*
X84948000Y-89566000D01*
X84948000Y-87726000D01*
X88788000Y-87726000D01*
X88788000Y-89566000D01*
%TO.C,R37*%
X83998000Y-106426000D02*
X84948000Y-106426000D01*
X89738000Y-106426000D02*
X88788000Y-106426000D01*
X88788000Y-107346000D02*
X84948000Y-107346000D01*
X84948000Y-105506000D01*
X88788000Y-105506000D01*
X88788000Y-107346000D01*
%TO.C,U4*%
X87793000Y-114984000D02*
X87793000Y-125264000D01*
X87793000Y-125264000D02*
X92293000Y-125264000D01*
X89043000Y-114984000D02*
X87793000Y-114984000D01*
X92293000Y-114984000D02*
X91043000Y-114984000D01*
X92293000Y-125264000D02*
X92293000Y-114984000D01*
X84793000Y-114924000D02*
X95293000Y-114924000D01*
X95293000Y-125324000D01*
X84793000Y-125324000D01*
X84793000Y-114924000D01*
X91043000Y-114984000D02*
G75*
G02*
X89043000Y-114984000I-1000000J0D01*
G01*
%TO.C,R15*%
X62789000Y-88646000D02*
X63739000Y-88646000D01*
X68529000Y-88646000D02*
X67579000Y-88646000D01*
X63739000Y-87726000D02*
X67579000Y-87726000D01*
X67579000Y-89566000D01*
X63739000Y-89566000D01*
X63739000Y-87726000D01*
%TO.C,R4*%
X98552000Y-81458000D02*
X98552000Y-82408000D01*
X98552000Y-87198000D02*
X98552000Y-86248000D01*
X97632000Y-86248000D02*
X99472000Y-86248000D01*
X99472000Y-82408000D01*
X97632000Y-82408000D01*
X97632000Y-86248000D01*
%TO.C,R22*%
X62789000Y-98788000D02*
X63739000Y-98788000D01*
X68529000Y-98788000D02*
X67579000Y-98788000D01*
X63739000Y-97868000D02*
X67579000Y-97868000D01*
X67579000Y-99708000D01*
X63739000Y-99708000D01*
X63739000Y-97868000D01*
%TO.C,C1*%
X80494000Y-79659900D02*
X78965000Y-79659900D01*
X80494000Y-79699900D02*
X78969000Y-79699900D01*
X80494000Y-79739900D02*
X78974000Y-79739900D01*
X80494000Y-79779900D02*
X78979000Y-79779900D01*
X80494000Y-79819900D02*
X78985000Y-79819900D01*
X80494000Y-79859900D02*
X78991000Y-79859900D01*
X80494000Y-79899900D02*
X78998000Y-79899900D01*
X80494000Y-79939900D02*
X79006000Y-79939900D01*
X80494000Y-79979900D02*
X79015000Y-79979900D01*
X80494000Y-80019900D02*
X79024000Y-80019900D01*
X80494000Y-80059900D02*
X79033000Y-80059900D01*
X80494000Y-80099900D02*
X79044000Y-80099900D01*
X80494000Y-80139900D02*
X79055000Y-80139900D01*
X80494000Y-80179900D02*
X79067000Y-80179900D01*
X80494000Y-80219900D02*
X79079000Y-80219900D01*
X80494000Y-80259900D02*
X79092000Y-80259900D01*
X80494000Y-80299900D02*
X79106000Y-80299900D01*
X80494000Y-80339900D02*
X79121000Y-80339900D01*
X80494000Y-80379900D02*
X79136000Y-80379900D01*
X80494000Y-80419900D02*
X79152000Y-80419900D01*
X80494000Y-80459900D02*
X79169000Y-80459900D01*
X80494000Y-80499900D02*
X79187000Y-80499900D01*
X80494000Y-80539900D02*
X79205000Y-80539900D01*
X80494000Y-80579900D02*
X79225000Y-80579900D01*
X80494000Y-80619900D02*
X79245000Y-80619900D01*
X80494000Y-80659900D02*
X79266000Y-80659900D01*
X80494000Y-80699900D02*
X79288000Y-80699900D01*
X80494000Y-80739900D02*
X79311000Y-80739900D01*
X80494000Y-80779900D02*
X79335000Y-80779900D01*
X80494000Y-80819900D02*
X79359000Y-80819900D01*
X80494000Y-80859900D02*
X79385000Y-80859900D01*
X80494000Y-80899900D02*
X79412000Y-80899900D01*
X80494000Y-80939900D02*
X79440000Y-80939900D01*
X80494000Y-80979900D02*
X79469000Y-80979900D01*
X80494000Y-81019900D02*
X79499000Y-81019900D01*
X80494000Y-81059900D02*
X79531000Y-81059900D01*
X80494000Y-81099900D02*
X79564000Y-81099900D01*
X80494000Y-81139900D02*
X79598000Y-81139900D01*
X80494000Y-81179900D02*
X79633000Y-81179900D01*
X80494000Y-81219900D02*
X79670000Y-81219900D01*
X80494000Y-81259900D02*
X79709000Y-81259900D01*
X80494000Y-81299900D02*
X79749000Y-81299900D01*
X80494000Y-81339900D02*
X79791000Y-81339900D01*
X80494000Y-81379900D02*
X79835000Y-81379900D01*
X80494000Y-81419900D02*
X79882000Y-81419900D01*
X80494000Y-81459900D02*
X79930000Y-81459900D01*
X80494000Y-81499900D02*
X79981000Y-81499900D01*
X80494000Y-81539900D02*
X80035000Y-81539900D01*
X80494000Y-81579900D02*
X80091000Y-81579900D01*
X80494000Y-81619900D02*
X80151000Y-81619900D01*
X80494000Y-81659900D02*
X80215000Y-81659900D01*
X80494000Y-81699900D02*
X80283000Y-81699900D01*
X81817000Y-82019900D02*
X81251000Y-82019900D01*
X82051000Y-81979900D02*
X81017000Y-81979900D01*
X82211000Y-81939900D02*
X80857000Y-81939900D01*
X82339000Y-81899900D02*
X80729000Y-81899900D01*
X82448000Y-81859900D02*
X80620000Y-81859900D01*
X82545000Y-81819900D02*
X80523000Y-81819900D01*
X82632000Y-81779900D02*
X80436000Y-81779900D01*
X82711000Y-81739900D02*
X80357000Y-81739900D01*
X82785000Y-81699900D02*
X82574000Y-81699900D01*
X82853000Y-81659900D02*
X82574000Y-81659900D01*
X82917000Y-81619900D02*
X82574000Y-81619900D01*
X82977000Y-81579900D02*
X82574000Y-81579900D01*
X83009000Y-76615125D02*
X83009000Y-77115125D01*
X83033000Y-81539900D02*
X82574000Y-81539900D01*
X83087000Y-81499900D02*
X82574000Y-81499900D01*
X83138000Y-81459900D02*
X82574000Y-81459900D01*
X83186000Y-81419900D02*
X82574000Y-81419900D01*
X83233000Y-81379900D02*
X82574000Y-81379900D01*
X83259000Y-76865125D02*
X82759000Y-76865125D01*
X83277000Y-81339900D02*
X82574000Y-81339900D01*
X83319000Y-81299900D02*
X82574000Y-81299900D01*
X83359000Y-81259900D02*
X82574000Y-81259900D01*
X83398000Y-81219900D02*
X82574000Y-81219900D01*
X83435000Y-81179900D02*
X82574000Y-81179900D01*
X83470000Y-81139900D02*
X82574000Y-81139900D01*
X83504000Y-81099900D02*
X82574000Y-81099900D01*
X83537000Y-81059900D02*
X82574000Y-81059900D01*
X83569000Y-81019900D02*
X82574000Y-81019900D01*
X83599000Y-80979900D02*
X82574000Y-80979900D01*
X83628000Y-80939900D02*
X82574000Y-80939900D01*
X83656000Y-80899900D02*
X82574000Y-80899900D01*
X83683000Y-80859900D02*
X82574000Y-80859900D01*
X83709000Y-80819900D02*
X82574000Y-80819900D01*
X83733000Y-80779900D02*
X82574000Y-80779900D01*
X83757000Y-80739900D02*
X82574000Y-80739900D01*
X83780000Y-80699900D02*
X82574000Y-80699900D01*
X83802000Y-80659900D02*
X82574000Y-80659900D01*
X83823000Y-80619900D02*
X82574000Y-80619900D01*
X83843000Y-80579900D02*
X82574000Y-80579900D01*
X83863000Y-80539900D02*
X82574000Y-80539900D01*
X83881000Y-80499900D02*
X82574000Y-80499900D01*
X83899000Y-80459900D02*
X82574000Y-80459900D01*
X83916000Y-80419900D02*
X82574000Y-80419900D01*
X83932000Y-80379900D02*
X82574000Y-80379900D01*
X83947000Y-80339900D02*
X82574000Y-80339900D01*
X83962000Y-80299900D02*
X82574000Y-80299900D01*
X83976000Y-80259900D02*
X82574000Y-80259900D01*
X83989000Y-80219900D02*
X82574000Y-80219900D01*
X84001000Y-80179900D02*
X82574000Y-80179900D01*
X84013000Y-80139900D02*
X82574000Y-80139900D01*
X84024000Y-80099900D02*
X82574000Y-80099900D01*
X84035000Y-80059900D02*
X82574000Y-80059900D01*
X84044000Y-80019900D02*
X82574000Y-80019900D01*
X84053000Y-79979900D02*
X82574000Y-79979900D01*
X84062000Y-79939900D02*
X82574000Y-79939900D01*
X84070000Y-79899900D02*
X82574000Y-79899900D01*
X84077000Y-79859900D02*
X82574000Y-79859900D01*
X84083000Y-79819900D02*
X82574000Y-79819900D01*
X84089000Y-79779900D02*
X82574000Y-79779900D01*
X84094000Y-79739900D02*
X82574000Y-79739900D01*
X84099000Y-79699900D02*
X82574000Y-79699900D01*
X84103000Y-79659900D02*
X82574000Y-79659900D01*
X84106000Y-79619900D02*
X78962000Y-79619900D01*
X84109000Y-79579900D02*
X78959000Y-79579900D01*
X84111000Y-79539900D02*
X78957000Y-79539900D01*
X84113000Y-79499900D02*
X78955000Y-79499900D01*
X84114000Y-79419900D02*
X78954000Y-79419900D01*
X84114000Y-79459900D02*
X78954000Y-79459900D01*
X84154000Y-79419900D02*
G75*
G02*
X78914000Y-79419900I-2620000J0D01*
G01*
X78914000Y-79419900D02*
G75*
G02*
X84154000Y-79419900I2620000J0D01*
G01*
%TO.C,R14*%
X50800000Y-94793000D02*
X50800000Y-95743000D01*
X50800000Y-100533000D02*
X50800000Y-99583000D01*
X49880000Y-99583000D02*
X51720000Y-99583000D01*
X51720000Y-95743000D01*
X49880000Y-95743000D01*
X49880000Y-99583000D01*
%TO.C,R48*%
X76632000Y-118854000D02*
X77582000Y-118854000D01*
X82372000Y-118854000D02*
X81422000Y-118854000D01*
X81422000Y-119774000D02*
X77582000Y-119774000D01*
X77582000Y-117934000D01*
X81422000Y-117934000D01*
X81422000Y-119774000D01*
D14*
%TO.C,VR7*%
X99788000Y-115371000D02*
X109588000Y-115371000D01*
X99788000Y-118371000D02*
X99788000Y-115371000D01*
X99788000Y-123621000D02*
X99788000Y-126371000D01*
X99788000Y-126371000D02*
X109588000Y-126371000D01*
D10*
X102188000Y-129771000D02*
X102188000Y-129771000D01*
X102188000Y-129771000D02*
X102188000Y-129771000D01*
X102188000Y-129871000D02*
X102188000Y-129871000D01*
D14*
X109588000Y-115371000D02*
X109588000Y-118371000D01*
X109588000Y-126371000D02*
X109588000Y-123621000D01*
D10*
X102188000Y-129771000D02*
G75*
G02*
X102188000Y-129871000I0J-50000D01*
G01*
X102188000Y-129871000D02*
G75*
G02*
X102188000Y-129771000I0J50000D01*
G01*
X102188000Y-129871000D02*
G75*
G02*
X102188000Y-129771000I0J50000D01*
G01*
D13*
%TO.C,R43*%
X50800000Y-115621000D02*
X50800000Y-116571000D01*
X50800000Y-121361000D02*
X50800000Y-120411000D01*
X49880000Y-120411000D02*
X51720000Y-120411000D01*
X51720000Y-116571000D01*
X49880000Y-116571000D01*
X49880000Y-120411000D01*
%TO.C,R47*%
X76632000Y-116314000D02*
X77582000Y-116314000D01*
X82372000Y-116314000D02*
X81422000Y-116314000D01*
X81422000Y-117234000D02*
X77582000Y-117234000D01*
X77582000Y-115394000D01*
X81422000Y-115394000D01*
X81422000Y-117234000D01*
%TO.C,R20*%
X62789000Y-96248000D02*
X63739000Y-96248000D01*
X68529000Y-96248000D02*
X67579000Y-96248000D01*
X63739000Y-95328000D02*
X67579000Y-95328000D01*
X67579000Y-97168000D01*
X63739000Y-97168000D01*
X63739000Y-95328000D01*
%TO.C,R2*%
X103505000Y-81458000D02*
X103505000Y-82408000D01*
X103505000Y-87198000D02*
X103505000Y-86248000D01*
X104425000Y-82408000D02*
X102585000Y-82408000D01*
X102585000Y-86248000D01*
X104425000Y-86248000D01*
X104425000Y-82408000D01*
%TD*%
M02*
