M48
; DRILL file {KiCad 9.0.3} date 2025-09-21T15:13:25+0900
; FORMAT={-:-/ absolute / metric / decimal}
; #@! TF.CreationDate,2025-09-21T15:13:25+09:00
; #@! TF.GenerationSoftware,Kicad,Pcbnew,9.0.3
; #@! TF.FileFunction,Plated,1,2,PTH
FMAT,2
METRIC
; #@! TA.AperFunction,Plated,PTH,ViaDrill
T1C0.300
; #@! TA.AperFunction,Plated,PTH,ComponentDrill
T2C0.690
; #@! TA.AperFunction,Plated,PTH,ComponentDrill
T3C0.700
; #@! TA.AperFunction,Plated,PTH,ComponentDrill
T4C1.000
; #@! TA.AperFunction,Plated,PTH,ComponentDrill
T5C1.200
; #@! TA.AperFunction,Plated,PTH,ComponentDrill
T6C1.350
; #@! TA.AperFunction,Plated,PTH,ComponentDrill
T7C1.700
; #@! TA.AperFunction,Plated,PTH,ComponentDrill
T8C2.970
%
G90
G05
T1
X180.086Y-115.296
X182.534Y-105.001
X182.534Y-109.661
X185.843Y-107.357
X185.866Y-112.737
X186.044Y-111.276
X193.548Y-102.108
X195.529Y-112.856
X195.834Y-57.023
X197.866Y-51.943
X197.866Y-56.515
X204.757Y-49.624
X207.209Y-116.674
X208.28Y-50.8
X209.129Y-106.766
X210.312Y-50.165
X210.668Y-101.964
X211.129Y-104.432
X211.582Y-56.896
X213.741Y-111.379
X214.63Y-108.712
X216.027Y-100.33
X216.163Y-108.068
X216.163Y-116.674
X220.18Y-110.749
X222.377Y-115.316
X224.666Y-110.82
X227.748Y-108.174
X230.886Y-113.186
X232.664Y-117.729
X232.918Y-113.157
X233.68Y-115.316
X234.451Y-50.118
X236.23Y-117.114
X237.116Y-84.0
X237.185Y-104.285
X237.498Y-54.234
X240.04Y-104.358
X241.427Y-56.896
X246.572Y-111.696
X247.688Y-106.913
X248.995Y-48.355
X248.995Y-101.311
X251.979Y-108.206
X252.031Y-95.881
X252.222Y-115.697
X254.0Y-113.919
X254.964Y-60.236
X260.366Y-88.646
X260.933Y-50.647
X261.021Y-111.031
X261.183Y-93.218
X261.794Y-58.091
X264.141Y-110.558
X264.16Y-50.038
X264.668Y-56.007
X265.557Y-95.01
X265.906Y-53.25
X266.141Y-54.654
X266.903Y-84.0
X267.393Y-58.124
X272.872Y-104.792
X275.215Y-78.059
X275.215Y-84.0
X275.857Y-72.118
X281.03Y-62.499
X281.826Y-54.292
X282.622Y-84.0
X290.021Y-58.018
X293.765Y-63.207
X295.275Y-64.516
X295.275Y-68.326
X296.037Y-63.754
X296.037Y-68.834
X300.228Y-59.944
X302.133Y-64.008
X302.352Y-78.426
X302.591Y-59.259
X303.022Y-63.119
X305.054Y-66.421
X306.787Y-56.172
X306.926Y-75.382
X308.052Y-59.259
X309.061Y-51.746
X312.118Y-55.372
X314.579Y-77.089
X314.991Y-53.891
X315.722Y-74.803
T2
X218.352Y-102.789
X220.892Y-100.249
X223.432Y-102.789
X225.986Y-102.798
X228.526Y-100.258
X231.066Y-102.798
X243.749Y-55.291
X246.289Y-52.751
X248.829Y-55.291
X262.037Y-102.535
X264.577Y-99.995
X267.117Y-102.535
T3
X185.71Y-57.45
X193.33Y-57.45
X215.682Y-57.831
X223.302Y-57.831
X228.128Y-53.513
X228.128Y-57.831
X235.748Y-53.513
X235.748Y-57.831
T4
X184.948Y-116.505
X184.948Y-119.045
X187.488Y-116.505
X187.488Y-119.045
X220.254Y-48.306
X222.794Y-48.306
X225.334Y-48.306
X227.874Y-48.306
X230.414Y-48.306
X232.954Y-48.306
X252.476Y-48.895
X255.016Y-48.895
X257.556Y-48.895
X258.914Y-72.346
X258.914Y-76.346
X258.914Y-80.346
X260.096Y-48.895
X261.414Y-72.346
X261.414Y-76.346
X261.414Y-80.346
X282.915Y-48.535
X285.455Y-48.535
X287.995Y-48.535
X290.535Y-48.535
X293.075Y-48.535
X298.76Y-48.433
X301.3Y-48.433
X305.735Y-48.42
X308.275Y-48.42
X310.815Y-48.42
X313.355Y-48.42
X315.895Y-48.42
X317.79Y-111.806
X320.33Y-111.806
T5
X188.024Y-61.655
X188.024Y-95.155
X191.524Y-95.155
X202.747Y-61.725
X202.747Y-95.225
X206.247Y-95.225
X217.615Y-61.782
X217.615Y-95.282
X221.115Y-95.282
X232.084Y-61.725
X232.084Y-95.225
X235.584Y-95.225
X246.19Y-61.782
X246.19Y-95.282
X249.69Y-95.282
X272.665Y-62.163
X276.165Y-62.163
X276.165Y-95.663
X282.315Y-114.615
X284.815Y-114.615
X287.025Y-62.133
X287.315Y-114.615
X290.525Y-62.133
X290.525Y-95.633
X301.24Y-62.063
X302.0Y-114.6
X304.5Y-114.6
X304.74Y-62.063
X304.74Y-95.563
X307.0Y-114.6
X315.21Y-62.063
X318.71Y-62.063
X318.71Y-95.563
T6
X257.014Y-68.846
X257.014Y-83.846
X263.314Y-68.846
X263.314Y-83.846
T7
X185.524Y-67.005
X185.524Y-89.805
X194.024Y-65.805
X194.024Y-91.005
X200.247Y-67.075
X200.247Y-89.875
X208.747Y-65.875
X208.747Y-91.075
X215.115Y-67.132
X215.115Y-89.932
X223.615Y-65.932
X223.615Y-91.132
X229.584Y-67.075
X229.584Y-89.875
X238.084Y-65.875
X238.084Y-91.075
X243.69Y-67.132
X243.69Y-89.932
X252.19Y-65.932
X252.19Y-91.132
X270.165Y-66.313
X270.165Y-91.513
X278.665Y-67.513
X278.665Y-90.313
X284.525Y-66.283
X284.525Y-91.483
X293.025Y-67.483
X293.025Y-90.283
X298.74Y-66.213
X298.74Y-91.413
X307.24Y-67.413
X307.24Y-90.213
X312.71Y-66.213
X312.71Y-91.413
X321.21Y-67.413
X321.21Y-90.213
T8
X280.415Y-107.615
X289.215Y-107.615
X300.1Y-107.6
X308.9Y-107.6
M30
