%TF.GenerationSoftware,KiCad,Pcbnew,9.0.3*%
%TF.CreationDate,2025-09-23T17:45:54+09:00*%
%TF.ProjectId,SynthBoard,53796e74-6842-46f6-9172-642e6b696361,rev?*%
%TF.SameCoordinates,Original*%
%TF.FileFunction,Paste,Top*%
%TF.FilePolarity,Positive*%
%FSLAX46Y46*%
G04 Gerber Fmt 4.6, Leading zero omitted, Abs format (unit mm)*
G04 Created by KiCad (PCBNEW 9.0.3) date 2025-09-23 17:45:54*
%MOMM*%
%LPD*%
G01*
G04 APERTURE LIST*
G04 Aperture macros list*
%AMRoundRect*
0 Rectangle with rounded corners*
0 $1 Rounding radius*
0 $2 $3 $4 $5 $6 $7 $8 $9 X,Y pos of 4 corners*
0 Add a 4 corners polygon primitive as box body*
4,1,4,$2,$3,$4,$5,$6,$7,$8,$9,$2,$3,0*
0 Add four circle primitives for the rounded corners*
1,1,$1+$1,$2,$3*
1,1,$1+$1,$4,$5*
1,1,$1+$1,$6,$7*
1,1,$1+$1,$8,$9*
0 Add four rect primitives between the rounded corners*
20,1,$1+$1,$2,$3,$4,$5,0*
20,1,$1+$1,$4,$5,$6,$7,0*
20,1,$1+$1,$6,$7,$8,$9,0*
20,1,$1+$1,$8,$9,$2,$3,0*%
G04 Aperture macros list end*
%ADD10RoundRect,0.250000X0.350000X0.450000X-0.350000X0.450000X-0.350000X-0.450000X0.350000X-0.450000X0*%
%ADD11RoundRect,0.250000X-0.350000X-0.450000X0.350000X-0.450000X0.350000X0.450000X-0.350000X0.450000X0*%
%ADD12RoundRect,0.250000X0.337500X0.475000X-0.337500X0.475000X-0.337500X-0.475000X0.337500X-0.475000X0*%
%ADD13RoundRect,0.250000X0.450000X-0.350000X0.450000X0.350000X-0.450000X0.350000X-0.450000X-0.350000X0*%
%ADD14RoundRect,0.250000X-0.337500X-0.475000X0.337500X-0.475000X0.337500X0.475000X-0.337500X0.475000X0*%
%ADD15RoundRect,0.150000X-0.825000X-0.150000X0.825000X-0.150000X0.825000X0.150000X-0.825000X0.150000X0*%
%ADD16RoundRect,0.250000X-0.450000X0.350000X-0.450000X-0.350000X0.450000X-0.350000X0.450000X0.350000X0*%
%ADD17RoundRect,0.150000X0.150000X-0.587500X0.150000X0.587500X-0.150000X0.587500X-0.150000X-0.587500X0*%
%ADD18R,1.000000X0.800000*%
%ADD19R,0.800000X1.000000*%
%ADD20R,1.200000X0.600000*%
G04 APERTURE END LIST*
D10*
%TO.C,R59*%
X249832000Y-110282000D03*
X247832000Y-110282000D03*
%TD*%
%TO.C,R27*%
X189504000Y-109774000D03*
X187504000Y-109774000D03*
%TD*%
D11*
%TO.C,R86*%
X213360000Y-48133000D03*
X215360000Y-48133000D03*
%TD*%
%TO.C,R30*%
X205246500Y-111933000D03*
X207246500Y-111933000D03*
%TD*%
D12*
%TO.C,C11*%
X176079500Y-105964000D03*
X174004500Y-105964000D03*
%TD*%
D10*
%TO.C,R76*%
X196580000Y-51943000D03*
X194580000Y-51943000D03*
%TD*%
D13*
%TO.C,R79*%
X219128500Y-113662000D03*
X219128500Y-111662000D03*
%TD*%
D11*
%TO.C,R83*%
X207189000Y-52243000D03*
X209189000Y-52243000D03*
%TD*%
D12*
%TO.C,C10*%
X199812500Y-108250000D03*
X197737500Y-108250000D03*
%TD*%
D13*
%TO.C,R49*%
X255524000Y-94726000D03*
X255524000Y-92726000D03*
%TD*%
%TO.C,R62*%
X270927000Y-58552000D03*
X270927000Y-56552000D03*
%TD*%
D10*
%TO.C,R81*%
X209173000Y-54402000D03*
X207173000Y-54402000D03*
%TD*%
D11*
%TO.C,R56*%
X247832000Y-108250000D03*
X249832000Y-108250000D03*
%TD*%
D10*
%TO.C,R18*%
X189377000Y-103297000D03*
X187377000Y-103297000D03*
%TD*%
D11*
%TO.C,R64*%
X242895000Y-116759000D03*
X244895000Y-116759000D03*
%TD*%
D14*
%TO.C,C15*%
X316493000Y-57958000D03*
X318568000Y-57958000D03*
%TD*%
D11*
%TO.C,R109*%
X295803000Y-55164000D03*
X297803000Y-55164000D03*
%TD*%
%TO.C,R71*%
X235783000Y-105964000D03*
X237783000Y-105964000D03*
%TD*%
D13*
%TO.C,R57*%
X258953000Y-58568000D03*
X258953000Y-56568000D03*
%TD*%
D10*
%TO.C,R70*%
X266228000Y-112568000D03*
X264228000Y-112568000D03*
%TD*%
%TO.C,R2*%
X189393000Y-101138000D03*
X187393000Y-101138000D03*
%TD*%
%TO.C,R53*%
X242820000Y-99868000D03*
X240820000Y-99868000D03*
%TD*%
D13*
%TO.C,R51*%
X255524000Y-99552000D03*
X255524000Y-97552000D03*
%TD*%
D11*
%TO.C,R72*%
X235783000Y-110282000D03*
X237783000Y-110282000D03*
%TD*%
%TO.C,R122*%
X308027000Y-53132000D03*
X310027000Y-53132000D03*
%TD*%
D10*
%TO.C,R110*%
X310027000Y-55418000D03*
X308027000Y-55418000D03*
%TD*%
D12*
%TO.C,C7*%
X257323500Y-112522000D03*
X255248500Y-112522000D03*
%TD*%
D15*
%TO.C,U4*%
X199807000Y-51862000D03*
X199807000Y-53132000D03*
X199807000Y-54402000D03*
X199807000Y-55672000D03*
X204757000Y-55672000D03*
X204757000Y-54402000D03*
X204757000Y-53132000D03*
X204757000Y-51862000D03*
%TD*%
D13*
%TO.C,R80*%
X229415500Y-114186000D03*
X229415500Y-112186000D03*
%TD*%
D16*
%TO.C,R47*%
X263815000Y-87676000D03*
X263815000Y-89676000D03*
%TD*%
D11*
%TO.C,R77*%
X235656000Y-114727000D03*
X237656000Y-114727000D03*
%TD*%
%TO.C,R66*%
X255286000Y-110490000D03*
X257286000Y-110490000D03*
%TD*%
D10*
%TO.C,R58*%
X249832000Y-112441000D03*
X247832000Y-112441000D03*
%TD*%
D16*
%TO.C,R85*%
X229415500Y-108265000D03*
X229415500Y-110265000D03*
%TD*%
D11*
%TO.C,R33*%
X239411000Y-52959000D03*
X241411000Y-52959000D03*
%TD*%
%TO.C,R89*%
X197769500Y-103170000D03*
X199769500Y-103170000D03*
%TD*%
D10*
%TO.C,R93*%
X199753500Y-112568000D03*
X197753500Y-112568000D03*
%TD*%
%TO.C,R32*%
X189509500Y-111933000D03*
X187509500Y-111933000D03*
%TD*%
D17*
%TO.C,Q1*%
X263591000Y-96363000D03*
X265491000Y-96363000D03*
X264541000Y-94488000D03*
%TD*%
D10*
%TO.C,R91*%
X199737500Y-110409000D03*
X197737500Y-110409000D03*
%TD*%
D15*
%TO.C,U6*%
X221733500Y-109122000D03*
X221733500Y-110392000D03*
X221733500Y-111662000D03*
X221733500Y-112932000D03*
X226683500Y-112932000D03*
X226683500Y-111662000D03*
X226683500Y-110392000D03*
X226683500Y-109122000D03*
%TD*%
D14*
%TO.C,C4*%
X187361000Y-107488000D03*
X189436000Y-107488000D03*
%TD*%
D11*
%TO.C,R50*%
X261906000Y-91948000D03*
X263906000Y-91948000D03*
%TD*%
D10*
%TO.C,R94*%
X176079500Y-110409000D03*
X174079500Y-110409000D03*
%TD*%
D11*
%TO.C,R68*%
X278019000Y-52959000D03*
X280019000Y-52959000D03*
%TD*%
%TO.C,R73*%
X235783000Y-108123000D03*
X237783000Y-108123000D03*
%TD*%
D18*
%TO.C,Q3*%
X258839000Y-94427000D03*
X258839000Y-96327000D03*
X261239000Y-95377000D03*
%TD*%
D10*
%TO.C,R28*%
X212088500Y-111379000D03*
X210088500Y-111379000D03*
%TD*%
D19*
%TO.C,Q2*%
X241300000Y-55880000D03*
X239400000Y-55880000D03*
X240350000Y-58280000D03*
%TD*%
D11*
%TO.C,R65*%
X272828000Y-58166000D03*
X274828000Y-58166000D03*
%TD*%
D10*
%TO.C,R69*%
X261751000Y-114981000D03*
X259751000Y-114981000D03*
%TD*%
D15*
%TO.C,U3*%
X262737000Y-53386000D03*
X262737000Y-54656000D03*
X262737000Y-55926000D03*
X262737000Y-57196000D03*
X267687000Y-57196000D03*
X267687000Y-55926000D03*
X267687000Y-54656000D03*
X267687000Y-53386000D03*
%TD*%
%TO.C,U2*%
X179254500Y-100884000D03*
X179254500Y-102154000D03*
X179254500Y-103424000D03*
X179254500Y-104694000D03*
X179254500Y-105964000D03*
X179254500Y-107234000D03*
X179254500Y-108504000D03*
X179254500Y-109774000D03*
X184204500Y-109774000D03*
X184204500Y-108504000D03*
X184204500Y-107234000D03*
X184204500Y-105964000D03*
X184204500Y-104694000D03*
X184204500Y-103424000D03*
X184204500Y-102154000D03*
X184204500Y-100884000D03*
%TD*%
D14*
%TO.C,C6*%
X236829500Y-102027000D03*
X238904500Y-102027000D03*
%TD*%
D15*
%TO.C,U8*%
X240069000Y-105710000D03*
X240069000Y-106980000D03*
X240069000Y-108250000D03*
X240069000Y-109520000D03*
X240069000Y-110790000D03*
X240069000Y-112060000D03*
X240069000Y-113330000D03*
X240069000Y-114600000D03*
X245019000Y-114600000D03*
X245019000Y-113330000D03*
X245019000Y-112060000D03*
X245019000Y-110790000D03*
X245019000Y-109520000D03*
X245019000Y-108250000D03*
X245019000Y-106980000D03*
X245019000Y-105710000D03*
%TD*%
D12*
%TO.C,C21*%
X297856500Y-57450000D03*
X295781500Y-57450000D03*
%TD*%
D14*
%TO.C,C8*%
X210035000Y-107869000D03*
X212110000Y-107869000D03*
%TD*%
D10*
%TO.C,R3*%
X212072500Y-100630000D03*
X210072500Y-100630000D03*
%TD*%
D11*
%TO.C,R78*%
X201347000Y-57831000D03*
X203347000Y-57831000D03*
%TD*%
D14*
%TO.C,C22*%
X307995000Y-57704000D03*
X310070000Y-57704000D03*
%TD*%
D10*
%TO.C,R31*%
X199769500Y-101011000D03*
X197769500Y-101011000D03*
%TD*%
%TO.C,R14*%
X189361000Y-105329000D03*
X187361000Y-105329000D03*
%TD*%
D14*
%TO.C,C9*%
X264026000Y-114981000D03*
X266101000Y-114981000D03*
%TD*%
D16*
%TO.C,R46*%
X255905000Y-87615000D03*
X255905000Y-89615000D03*
%TD*%
D11*
%TO.C,R92*%
X174063500Y-108250000D03*
X176063500Y-108250000D03*
%TD*%
D19*
%TO.C,Q5*%
X208981000Y-49263000D03*
X210881000Y-49263000D03*
X209931000Y-46863000D03*
%TD*%
D13*
%TO.C,R84*%
X219128500Y-109725000D03*
X219128500Y-107725000D03*
%TD*%
%TO.C,R48*%
X269149000Y-101995000D03*
X269149000Y-99995000D03*
%TD*%
D11*
%TO.C,R87*%
X197737500Y-105710000D03*
X199737500Y-105710000D03*
%TD*%
D15*
%TO.C,U5*%
X202369500Y-100601000D03*
X202369500Y-101871000D03*
X202369500Y-103141000D03*
X202369500Y-104411000D03*
X202369500Y-105681000D03*
X202369500Y-106951000D03*
X202369500Y-108221000D03*
X202369500Y-109491000D03*
X207319500Y-109491000D03*
X207319500Y-108221000D03*
X207319500Y-106951000D03*
X207319500Y-105681000D03*
X207319500Y-104411000D03*
X207319500Y-103141000D03*
X207319500Y-101871000D03*
X207319500Y-100601000D03*
%TD*%
D16*
%TO.C,R61*%
X270927000Y-52742000D03*
X270927000Y-54742000D03*
%TD*%
D11*
%TO.C,R88*%
X174063500Y-103551000D03*
X176063500Y-103551000D03*
%TD*%
D10*
%TO.C,R111*%
X297803000Y-53005000D03*
X295803000Y-53005000D03*
%TD*%
D14*
%TO.C,C5*%
X236851000Y-99868000D03*
X238926000Y-99868000D03*
%TD*%
%TO.C,C3*%
X187361000Y-98852000D03*
X189436000Y-98852000D03*
%TD*%
D10*
%TO.C,R106*%
X318568000Y-55672000D03*
X316568000Y-55672000D03*
%TD*%
%TO.C,R1*%
X193695000Y-111806000D03*
X191695000Y-111806000D03*
%TD*%
D20*
%TO.C,IC1*%
X259116000Y-87742000D03*
X259116000Y-88692000D03*
X259116000Y-89642000D03*
X261616000Y-89642000D03*
X261616000Y-87742000D03*
%TD*%
D11*
%TO.C,R67*%
X255286000Y-116840000D03*
X257286000Y-116840000D03*
%TD*%
D10*
%TO.C,R82*%
X209205000Y-56434000D03*
X207205000Y-56434000D03*
%TD*%
D11*
%TO.C,R75*%
X235783000Y-112568000D03*
X237783000Y-112568000D03*
%TD*%
D10*
%TO.C,R15*%
X212072500Y-105456000D03*
X210072500Y-105456000D03*
%TD*%
D11*
%TO.C,R74*%
X194580000Y-54610000D03*
X196580000Y-54610000D03*
%TD*%
D10*
%TO.C,R26*%
X212072500Y-103297000D03*
X210072500Y-103297000D03*
%TD*%
D20*
%TO.C,IC2*%
X259771000Y-110856000D03*
X259771000Y-111806000D03*
X259771000Y-112756000D03*
X262271000Y-112756000D03*
X262271000Y-110856000D03*
%TD*%
D10*
%TO.C,R97*%
X318536000Y-53386000D03*
X316536000Y-53386000D03*
%TD*%
%TO.C,R54*%
X242804000Y-102027000D03*
X240804000Y-102027000D03*
%TD*%
D13*
%TO.C,R60*%
X258953000Y-54467000D03*
X258953000Y-52467000D03*
%TD*%
D10*
%TO.C,R29*%
X176079500Y-112441000D03*
X174079500Y-112441000D03*
%TD*%
D11*
%TO.C,R90*%
X174079500Y-101519000D03*
X176079500Y-101519000D03*
%TD*%
D10*
%TO.C,R63*%
X249832000Y-114600000D03*
X247832000Y-114600000D03*
%TD*%
D11*
%TO.C,R52*%
X258005000Y-60625000D03*
X260005000Y-60625000D03*
%TD*%
D19*
%TO.C,Q4*%
X273563000Y-55118000D03*
X275463000Y-55118000D03*
X274513000Y-52718000D03*
%TD*%
D15*
%TO.C,U9*%
X300440000Y-53005000D03*
X300440000Y-54275000D03*
X300440000Y-55545000D03*
X300440000Y-56815000D03*
X305390000Y-56815000D03*
X305390000Y-55545000D03*
X305390000Y-54275000D03*
X305390000Y-53005000D03*
%TD*%
M02*
