%TF.GenerationSoftware,KiCad,Pcbnew,9.0.3*%
%TF.CreationDate,2025-09-21T15:13:23+09:00*%
%TF.ProjectId,SynthBoard,53796e74-6842-46f6-9172-642e6b696361,rev?*%
%TF.SameCoordinates,Original*%
%TF.FileFunction,Soldermask,Top*%
%TF.FilePolarity,Negative*%
%FSLAX46Y46*%
G04 Gerber Fmt 4.6, Leading zero omitted, Abs format (unit mm)*
G04 Created by KiCad (PCBNEW 9.0.3) date 2025-09-21 15:13:23*
%MOMM*%
%LPD*%
G01*
G04 APERTURE LIST*
G04 Aperture macros list*
%AMRoundRect*
0 Rectangle with rounded corners*
0 $1 Rounding radius*
0 $2 $3 $4 $5 $6 $7 $8 $9 X,Y pos of 4 corners*
0 Add a 4 corners polygon primitive as box body*
4,1,4,$2,$3,$4,$5,$6,$7,$8,$9,$2,$3,0*
0 Add four circle primitives for the rounded corners*
1,1,$1+$1,$2,$3*
1,1,$1+$1,$4,$5*
1,1,$1+$1,$6,$7*
1,1,$1+$1,$8,$9*
0 Add four rect primitives between the rounded corners*
20,1,$1+$1,$2,$3,$4,$5,0*
20,1,$1+$1,$4,$5,$6,$7,0*
20,1,$1+$1,$6,$7,$8,$9,0*
20,1,$1+$1,$8,$9,$2,$3,0*%
G04 Aperture macros list end*
%ADD10R,1.150000X0.600000*%
%ADD11RoundRect,0.250000X0.350000X0.450000X-0.350000X0.450000X-0.350000X-0.450000X0.350000X-0.450000X0*%
%ADD12C,1.800000*%
%ADD13C,4.455000*%
%ADD14RoundRect,0.250000X-0.350000X-0.450000X0.350000X-0.450000X0.350000X0.450000X-0.350000X0.450000X0*%
%ADD15RoundRect,0.250000X0.337500X0.475000X-0.337500X0.475000X-0.337500X-0.475000X0.337500X-0.475000X0*%
%ADD16RoundRect,0.250000X0.450000X-0.350000X0.450000X0.350000X-0.450000X0.350000X-0.450000X-0.350000X0*%
%ADD17R,1.700000X1.700000*%
%ADD18C,1.700000*%
%ADD19R,0.600000X1.150000*%
%ADD20R,1.800000X1.800000*%
%ADD21C,2.550000*%
%ADD22RoundRect,0.250000X-0.337500X-0.475000X0.337500X-0.475000X0.337500X0.475000X-0.337500X0.475000X0*%
%ADD23RoundRect,0.150000X-0.825000X-0.150000X0.825000X-0.150000X0.825000X0.150000X-0.825000X0.150000X0*%
%ADD24C,1.120000*%
%ADD25RoundRect,0.250000X-0.450000X0.350000X-0.450000X-0.350000X0.450000X-0.350000X0.450000X0.350000X0*%
%ADD26RoundRect,0.150000X0.150000X-0.587500X0.150000X0.587500X-0.150000X0.587500X-0.150000X-0.587500X0*%
%ADD27C,1.400000*%
%ADD28R,1.500000X1.500000*%
%ADD29C,1.500000*%
%ADD30C,2.025000*%
%ADD31R,1.200000X0.600000*%
G04 APERTURE END LIST*
D10*
%TO.C,Q4*%
X259207000Y-94107000D03*
X259207000Y-96007000D03*
X261407000Y-95057000D03*
%TD*%
D11*
%TO.C,R59*%
X249832000Y-110282000D03*
X247832000Y-110282000D03*
%TD*%
D12*
%TO.C,VR14*%
X302000000Y-114600000D03*
X304500000Y-114600000D03*
X307000000Y-114600000D03*
D13*
X300100000Y-107600000D03*
X308900000Y-107600000D03*
%TD*%
D11*
%TO.C,R27*%
X189504000Y-109774000D03*
X187504000Y-109774000D03*
%TD*%
D14*
%TO.C,R86*%
X213360000Y-48133000D03*
X215360000Y-48133000D03*
%TD*%
%TO.C,R30*%
X205246500Y-111933000D03*
X207246500Y-111933000D03*
%TD*%
D15*
%TO.C,C11*%
X176079500Y-105964000D03*
X174004500Y-105964000D03*
%TD*%
D11*
%TO.C,R76*%
X196580000Y-51943000D03*
X194580000Y-51943000D03*
%TD*%
D16*
%TO.C,R79*%
X219128500Y-113662000D03*
X219128500Y-111662000D03*
%TD*%
D17*
%TO.C,J1*%
X282915000Y-48535000D03*
D18*
X285455000Y-48535000D03*
X287995000Y-48535000D03*
X290535000Y-48535000D03*
X293075000Y-48535000D03*
%TD*%
D14*
%TO.C,R83*%
X207189000Y-52243000D03*
X209189000Y-52243000D03*
%TD*%
D15*
%TO.C,C10*%
X199812500Y-108250000D03*
X197737500Y-108250000D03*
%TD*%
D19*
%TO.C,Q8*%
X209235000Y-50122000D03*
X211135000Y-50122000D03*
X210185000Y-47922000D03*
%TD*%
D16*
%TO.C,R49*%
X256921000Y-94202000D03*
X256921000Y-92202000D03*
%TD*%
%TO.C,R62*%
X270927000Y-58552000D03*
X270927000Y-56552000D03*
%TD*%
D11*
%TO.C,R81*%
X209173000Y-54402000D03*
X207173000Y-54402000D03*
%TD*%
D20*
%TO.C,VR23*%
X276165000Y-62163000D03*
D12*
X272665000Y-62163000D03*
X276165000Y-95663000D03*
D21*
X278665000Y-67513000D03*
X270165000Y-66313000D03*
X278665000Y-90313000D03*
X270165000Y-91513000D03*
%TD*%
D14*
%TO.C,R56*%
X247832000Y-108250000D03*
X249832000Y-108250000D03*
%TD*%
D11*
%TO.C,R18*%
X189377000Y-103297000D03*
X187377000Y-103297000D03*
%TD*%
D14*
%TO.C,R64*%
X242895000Y-116759000D03*
X244895000Y-116759000D03*
%TD*%
D22*
%TO.C,C15*%
X316493000Y-57958000D03*
X318568000Y-57958000D03*
%TD*%
D14*
%TO.C,R109*%
X295803000Y-55164000D03*
X297803000Y-55164000D03*
%TD*%
%TO.C,R71*%
X235783000Y-105964000D03*
X237783000Y-105964000D03*
%TD*%
D16*
%TO.C,R57*%
X258953000Y-58568000D03*
X258953000Y-56568000D03*
%TD*%
D11*
%TO.C,R70*%
X266228000Y-112568000D03*
X264228000Y-112568000D03*
%TD*%
%TO.C,R2*%
X189393000Y-101138000D03*
X187393000Y-101138000D03*
%TD*%
%TO.C,R53*%
X242820000Y-99868000D03*
X240820000Y-99868000D03*
%TD*%
D16*
%TO.C,R51*%
X256921000Y-99536000D03*
X256921000Y-97536000D03*
%TD*%
D14*
%TO.C,R72*%
X235783000Y-110282000D03*
X237783000Y-110282000D03*
%TD*%
%TO.C,R122*%
X308027000Y-53132000D03*
X310027000Y-53132000D03*
%TD*%
D11*
%TO.C,R110*%
X310027000Y-55418000D03*
X308027000Y-55418000D03*
%TD*%
D15*
%TO.C,C7*%
X257323500Y-112522000D03*
X255248500Y-112522000D03*
%TD*%
D23*
%TO.C,U4*%
X199807000Y-51862000D03*
X199807000Y-53132000D03*
X199807000Y-54402000D03*
X199807000Y-55672000D03*
X204757000Y-55672000D03*
X204757000Y-54402000D03*
X204757000Y-53132000D03*
X204757000Y-51862000D03*
%TD*%
D24*
%TO.C,VR10*%
X243749000Y-55291000D03*
X246289000Y-52751000D03*
X248829000Y-55291000D03*
%TD*%
D17*
%TO.C,J3*%
X298760000Y-48433000D03*
D18*
X301300000Y-48433000D03*
%TD*%
D16*
%TO.C,R80*%
X229415500Y-114186000D03*
X229415500Y-112186000D03*
%TD*%
D25*
%TO.C,R47*%
X263815000Y-87676000D03*
X263815000Y-89676000D03*
%TD*%
D14*
%TO.C,R77*%
X235656000Y-114727000D03*
X237656000Y-114727000D03*
%TD*%
%TO.C,R66*%
X255286000Y-110490000D03*
X257286000Y-110490000D03*
%TD*%
D11*
%TO.C,R58*%
X249832000Y-112441000D03*
X247832000Y-112441000D03*
%TD*%
D25*
%TO.C,R85*%
X229415500Y-108265000D03*
X229415500Y-110265000D03*
%TD*%
D14*
%TO.C,R33*%
X239463000Y-53386000D03*
X241463000Y-53386000D03*
%TD*%
%TO.C,R89*%
X197769500Y-103170000D03*
X199769500Y-103170000D03*
%TD*%
D11*
%TO.C,R93*%
X199753500Y-112568000D03*
X197753500Y-112568000D03*
%TD*%
%TO.C,R32*%
X189509500Y-111933000D03*
X187509500Y-111933000D03*
%TD*%
D26*
%TO.C,Q1*%
X263591000Y-96363000D03*
X265491000Y-96363000D03*
X264541000Y-94488000D03*
%TD*%
D17*
%TO.C,J6*%
X220254000Y-48306000D03*
D18*
X222794000Y-48306000D03*
X225334000Y-48306000D03*
X227874000Y-48306000D03*
X230414000Y-48306000D03*
X232954000Y-48306000D03*
%TD*%
D11*
%TO.C,R91*%
X199737500Y-110409000D03*
X197737500Y-110409000D03*
%TD*%
D20*
%TO.C,VR11*%
X232084000Y-95225000D03*
D12*
X235584000Y-95225000D03*
X232084000Y-61725000D03*
D21*
X229584000Y-89875000D03*
X238084000Y-91075000D03*
X229584000Y-67075000D03*
X238084000Y-65875000D03*
%TD*%
D23*
%TO.C,U6*%
X221733500Y-109122000D03*
X221733500Y-110392000D03*
X221733500Y-111662000D03*
X221733500Y-112932000D03*
X226683500Y-112932000D03*
X226683500Y-111662000D03*
X226683500Y-110392000D03*
X226683500Y-109122000D03*
%TD*%
D22*
%TO.C,C4*%
X187361000Y-107488000D03*
X189436000Y-107488000D03*
%TD*%
D14*
%TO.C,R50*%
X261906000Y-91948000D03*
X263906000Y-91948000D03*
%TD*%
D11*
%TO.C,R94*%
X176079500Y-110409000D03*
X174079500Y-110409000D03*
%TD*%
D14*
%TO.C,R68*%
X277563000Y-53005000D03*
X279563000Y-53005000D03*
%TD*%
%TO.C,R73*%
X235783000Y-108123000D03*
X237783000Y-108123000D03*
%TD*%
D20*
%TO.C,VR26*%
X318710000Y-62063000D03*
D12*
X315210000Y-62063000D03*
X318710000Y-95563000D03*
D21*
X321210000Y-67413000D03*
X312710000Y-66213000D03*
X321210000Y-90213000D03*
X312710000Y-91413000D03*
%TD*%
D11*
%TO.C,R28*%
X212088500Y-111379000D03*
X210088500Y-111379000D03*
%TD*%
D24*
%TO.C,VR17*%
X225986500Y-102798000D03*
X228526500Y-100258000D03*
X231066500Y-102798000D03*
%TD*%
D14*
%TO.C,R65*%
X273594000Y-57196000D03*
X275594000Y-57196000D03*
%TD*%
D11*
%TO.C,R69*%
X261751000Y-114981000D03*
X259751000Y-114981000D03*
%TD*%
D17*
%TO.C,J10*%
X317790000Y-111806000D03*
D18*
X320330000Y-111806000D03*
%TD*%
D23*
%TO.C,U3*%
X262737000Y-53386000D03*
X262737000Y-54656000D03*
X262737000Y-55926000D03*
X262737000Y-57196000D03*
X267687000Y-57196000D03*
X267687000Y-55926000D03*
X267687000Y-54656000D03*
X267687000Y-53386000D03*
%TD*%
D20*
%TO.C,VR18*%
X202747000Y-95225000D03*
D12*
X206247000Y-95225000D03*
X202747000Y-61725000D03*
D21*
X200247000Y-89875000D03*
X208747000Y-91075000D03*
X200247000Y-67075000D03*
X208747000Y-65875000D03*
%TD*%
D23*
%TO.C,U2*%
X179254500Y-100884000D03*
X179254500Y-102154000D03*
X179254500Y-103424000D03*
X179254500Y-104694000D03*
X179254500Y-105964000D03*
X179254500Y-107234000D03*
X179254500Y-108504000D03*
X179254500Y-109774000D03*
X184204500Y-109774000D03*
X184204500Y-108504000D03*
X184204500Y-107234000D03*
X184204500Y-105964000D03*
X184204500Y-104694000D03*
X184204500Y-103424000D03*
X184204500Y-102154000D03*
X184204500Y-100884000D03*
%TD*%
D22*
%TO.C,C6*%
X236829500Y-102027000D03*
X238904500Y-102027000D03*
%TD*%
D19*
%TO.C,Q6*%
X273660000Y-55146000D03*
X275560000Y-55146000D03*
X274610000Y-52946000D03*
%TD*%
D27*
%TO.C,R35*%
X215682000Y-57831000D03*
X223302000Y-57831000D03*
%TD*%
D20*
%TO.C,VR12*%
X246190000Y-95282000D03*
D12*
X249690000Y-95282000D03*
X246190000Y-61782000D03*
D21*
X243690000Y-89932000D03*
X252190000Y-91132000D03*
X243690000Y-67132000D03*
X252190000Y-65932000D03*
%TD*%
D23*
%TO.C,U8*%
X240069000Y-105710000D03*
X240069000Y-106980000D03*
X240069000Y-108250000D03*
X240069000Y-109520000D03*
X240069000Y-110790000D03*
X240069000Y-112060000D03*
X240069000Y-113330000D03*
X240069000Y-114600000D03*
X245019000Y-114600000D03*
X245019000Y-113330000D03*
X245019000Y-112060000D03*
X245019000Y-110790000D03*
X245019000Y-109520000D03*
X245019000Y-108250000D03*
X245019000Y-106980000D03*
X245019000Y-105710000D03*
%TD*%
D15*
%TO.C,C21*%
X297856500Y-57450000D03*
X295781500Y-57450000D03*
%TD*%
D24*
%TO.C,VR19*%
X262037000Y-102535000D03*
X264577000Y-99995000D03*
X267117000Y-102535000D03*
%TD*%
D22*
%TO.C,C8*%
X210035000Y-107869000D03*
X212110000Y-107869000D03*
%TD*%
D28*
%TO.C,S3*%
X261414000Y-72346000D03*
D29*
X261414000Y-76346000D03*
X261414000Y-80346000D03*
X258914000Y-72346000D03*
X258914000Y-76346000D03*
X258914000Y-80346000D03*
D30*
X263314000Y-68846000D03*
X263314000Y-83846000D03*
X257014000Y-68846000D03*
X257014000Y-83846000D03*
%TD*%
D27*
%TO.C,R36*%
X228128000Y-57831000D03*
X235748000Y-57831000D03*
%TD*%
D11*
%TO.C,R3*%
X212072500Y-100630000D03*
X210072500Y-100630000D03*
%TD*%
D14*
%TO.C,R78*%
X201347000Y-57831000D03*
X203347000Y-57831000D03*
%TD*%
D22*
%TO.C,C22*%
X307995000Y-57704000D03*
X310070000Y-57704000D03*
%TD*%
D20*
%TO.C,VR15*%
X188024000Y-95155000D03*
D12*
X191524000Y-95155000D03*
X188024000Y-61655000D03*
D21*
X185524000Y-89805000D03*
X194024000Y-91005000D03*
X185524000Y-67005000D03*
X194024000Y-65805000D03*
%TD*%
D11*
%TO.C,R31*%
X199769500Y-101011000D03*
X197769500Y-101011000D03*
%TD*%
%TO.C,R14*%
X189361000Y-105329000D03*
X187361000Y-105329000D03*
%TD*%
D19*
%TO.C,Q7*%
X241397000Y-55758000D03*
X239497000Y-55758000D03*
X240447000Y-57958000D03*
%TD*%
D22*
%TO.C,C9*%
X264026000Y-114981000D03*
X266101000Y-114981000D03*
%TD*%
D17*
%TO.C,J4*%
X252476000Y-48895000D03*
D18*
X255016000Y-48895000D03*
X257556000Y-48895000D03*
X260096000Y-48895000D03*
%TD*%
D25*
%TO.C,R46*%
X255905000Y-87615000D03*
X255905000Y-89615000D03*
%TD*%
D14*
%TO.C,R92*%
X174063500Y-108250000D03*
X176063500Y-108250000D03*
%TD*%
D16*
%TO.C,R84*%
X219128500Y-109725000D03*
X219128500Y-107725000D03*
%TD*%
%TO.C,R48*%
X269149000Y-101995000D03*
X269149000Y-99995000D03*
%TD*%
D14*
%TO.C,R87*%
X197737500Y-105710000D03*
X199737500Y-105710000D03*
%TD*%
D23*
%TO.C,U5*%
X202369500Y-100601000D03*
X202369500Y-101871000D03*
X202369500Y-103141000D03*
X202369500Y-104411000D03*
X202369500Y-105681000D03*
X202369500Y-106951000D03*
X202369500Y-108221000D03*
X202369500Y-109491000D03*
X207319500Y-109491000D03*
X207319500Y-108221000D03*
X207319500Y-106951000D03*
X207319500Y-105681000D03*
X207319500Y-104411000D03*
X207319500Y-103141000D03*
X207319500Y-101871000D03*
X207319500Y-100601000D03*
%TD*%
D25*
%TO.C,R61*%
X270927000Y-52742000D03*
X270927000Y-54742000D03*
%TD*%
D14*
%TO.C,R88*%
X174063500Y-103551000D03*
X176063500Y-103551000D03*
%TD*%
D27*
%TO.C,R34*%
X185710000Y-57450000D03*
X193330000Y-57450000D03*
%TD*%
D11*
%TO.C,R111*%
X297803000Y-53005000D03*
X295803000Y-53005000D03*
%TD*%
D22*
%TO.C,C5*%
X236851000Y-99868000D03*
X238926000Y-99868000D03*
%TD*%
D20*
%TO.C,VR13*%
X217615000Y-95282000D03*
D12*
X221115000Y-95282000D03*
X217615000Y-61782000D03*
D21*
X215115000Y-89932000D03*
X223615000Y-91132000D03*
X215115000Y-67132000D03*
X223615000Y-65932000D03*
%TD*%
D22*
%TO.C,C3*%
X187361000Y-98852000D03*
X189436000Y-98852000D03*
%TD*%
D12*
%TO.C,VR22*%
X282315000Y-114615000D03*
X284815000Y-114615000D03*
X287315000Y-114615000D03*
D13*
X280415000Y-107615000D03*
X289215000Y-107615000D03*
%TD*%
D11*
%TO.C,R106*%
X318568000Y-55672000D03*
X316568000Y-55672000D03*
%TD*%
D17*
%TO.C,J5*%
X315895000Y-48420000D03*
D18*
X313355000Y-48420000D03*
X310815000Y-48420000D03*
X308275000Y-48420000D03*
X305735000Y-48420000D03*
%TD*%
D20*
%TO.C,VR24*%
X290525000Y-62133000D03*
D12*
X287025000Y-62133000D03*
X290525000Y-95633000D03*
D21*
X293025000Y-67483000D03*
X284525000Y-66283000D03*
X293025000Y-90283000D03*
X284525000Y-91483000D03*
%TD*%
D11*
%TO.C,R1*%
X193695000Y-111806000D03*
X191695000Y-111806000D03*
%TD*%
D24*
%TO.C,VR16*%
X218352000Y-102789000D03*
X220892000Y-100249000D03*
X223432000Y-102789000D03*
%TD*%
D31*
%TO.C,IC1*%
X259116000Y-87742000D03*
X259116000Y-88692000D03*
X259116000Y-89642000D03*
X261616000Y-89642000D03*
X261616000Y-87742000D03*
%TD*%
D14*
%TO.C,R67*%
X255286000Y-116840000D03*
X257286000Y-116840000D03*
%TD*%
D11*
%TO.C,R82*%
X209205000Y-56434000D03*
X207205000Y-56434000D03*
%TD*%
D14*
%TO.C,R75*%
X235783000Y-112568000D03*
X237783000Y-112568000D03*
%TD*%
D11*
%TO.C,R15*%
X212072500Y-105456000D03*
X210072500Y-105456000D03*
%TD*%
D14*
%TO.C,R74*%
X194580000Y-54610000D03*
X196580000Y-54610000D03*
%TD*%
D11*
%TO.C,R26*%
X212072500Y-103297000D03*
X210072500Y-103297000D03*
%TD*%
D31*
%TO.C,IC2*%
X259771000Y-110856000D03*
X259771000Y-111806000D03*
X259771000Y-112756000D03*
X262271000Y-112756000D03*
X262271000Y-110856000D03*
%TD*%
D20*
%TO.C,VR25*%
X304740000Y-62063000D03*
D12*
X301240000Y-62063000D03*
X304740000Y-95563000D03*
D21*
X307240000Y-67413000D03*
X298740000Y-66213000D03*
X307240000Y-90213000D03*
X298740000Y-91413000D03*
%TD*%
D11*
%TO.C,R97*%
X318536000Y-53386000D03*
X316536000Y-53386000D03*
%TD*%
%TO.C,R54*%
X242804000Y-102027000D03*
X240804000Y-102027000D03*
%TD*%
D16*
%TO.C,R60*%
X258953000Y-54467000D03*
X258953000Y-52467000D03*
%TD*%
D11*
%TO.C,R29*%
X176079500Y-112441000D03*
X174079500Y-112441000D03*
%TD*%
D27*
%TO.C,R37*%
X228128000Y-53513000D03*
X235748000Y-53513000D03*
%TD*%
D17*
%TO.C,J8*%
X187488000Y-119045000D03*
D18*
X187488000Y-116505000D03*
X184948000Y-119045000D03*
X184948000Y-116505000D03*
%TD*%
D14*
%TO.C,R90*%
X174079500Y-101519000D03*
X176079500Y-101519000D03*
%TD*%
D11*
%TO.C,R63*%
X249832000Y-114600000D03*
X247832000Y-114600000D03*
%TD*%
D14*
%TO.C,R52*%
X258005000Y-60625000D03*
X260005000Y-60625000D03*
%TD*%
D23*
%TO.C,U9*%
X300440000Y-53005000D03*
X300440000Y-54275000D03*
X300440000Y-55545000D03*
X300440000Y-56815000D03*
X305390000Y-56815000D03*
X305390000Y-55545000D03*
X305390000Y-54275000D03*
X305390000Y-53005000D03*
%TD*%
M02*
