M48
; DRILL file {KiCad 8.0.8} date 2025-06-29T12:48:04+0900
; FORMAT={-:-/ absolute / metric / decimal}
; #@! TF.CreationDate,2025-06-29T12:48:04+09:00
; #@! TF.GenerationSoftware,Kicad,Pcbnew,8.0.8
; #@! TF.FileFunction,Plated,1,2,PTH
FMAT,2
METRIC
; #@! TA.AperFunction,Plated,PTH,ComponentDrill
T1C0.800
; #@! TA.AperFunction,Plated,PTH,ComponentDrill
T2C1.000
; #@! TA.AperFunction,Plated,PTH,ComponentDrill
T3C1.100
; #@! TA.AperFunction,Plated,PTH,ComponentDrill
T4C1.300
%
G90
G05
T1
X100.569Y-82.56
X100.569Y-85.1
X100.569Y-87.64
X100.569Y-90.18
X108.189Y-82.56
X108.189Y-85.1
X108.189Y-87.64
X108.189Y-90.18
X111.506Y-82.423
X111.633Y-87.63
X111.633Y-91.313
X111.633Y-94.615
X121.666Y-82.423
X121.793Y-91.313
X121.793Y-94.615
X124.333Y-87.63
X130.302Y-91.694
X130.302Y-94.194
X130.429Y-84.876
X130.429Y-87.376
T2
X100.116Y-94.615
X105.116Y-94.615
X136.144Y-91.694
X136.144Y-94.234
X136.271Y-84.45
X136.271Y-86.99
T3
X88.773Y-82.677
X96.393Y-82.677
T4
X92.202Y-88.98
X92.202Y-93.98
M30
