%TF.GenerationSoftware,KiCad,Pcbnew,8.0.8*%
%TF.CreationDate,2025-06-29T12:48:05+09:00*%
%TF.ProjectId,NJM2374A_Boost,4e4a4d32-3337-4344-915f-426f6f73742e,rev?*%
%TF.SameCoordinates,Original*%
%TF.FileFunction,Drillmap*%
%TF.FilePolarity,Positive*%
%FSLAX45Y45*%
G04 Gerber Fmt 4.5, Leading zero omitted, Abs format (unit mm)*
G04 Created by KiCad (PCBNEW 8.0.8) date 2025-06-29 12:48:05*
%MOMM*%
%LPD*%
G01*
G04 APERTURE LIST*
%ADD10C,0.050000*%
%ADD11C,0.200000*%
%ADD12C,0.100000*%
%ADD13C,0.110000*%
%ADD14C,0.130000*%
G04 APERTURE END LIST*
D10*
X14200000Y-7800000D02*
G75*
G02*
X13880000Y-7800000I-160000J0D01*
G01*
X13880000Y-7800000D02*
G75*
G02*
X14200000Y-7800000I160000J0D01*
G01*
X9160000Y-7800000D02*
G75*
G02*
X8840000Y-7800000I-160000J0D01*
G01*
X8840000Y-7800000D02*
G75*
G02*
X9160000Y-7800000I160000J0D01*
G01*
X8600000Y-7500000D02*
X14300000Y-7500000D01*
X14300000Y-7500000D02*
X14300000Y-10200000D01*
X8600000Y-10200000D02*
X8600000Y-7500000D01*
X14300000Y-10200000D02*
X8600000Y-10200000D01*
X14200000Y-9900000D02*
G75*
G02*
X13880000Y-9900000I-160000J0D01*
G01*
X13880000Y-9900000D02*
G75*
G02*
X14200000Y-9900000I160000J0D01*
G01*
X9160000Y-9900000D02*
G75*
G02*
X8840000Y-9900000I-160000J0D01*
G01*
X8840000Y-9900000D02*
G75*
G02*
X9160000Y-9900000I160000J0D01*
G01*
D11*
D12*
X10016900Y-8216000D02*
X10096900Y-8296000D01*
X10096900Y-8216000D02*
X10016900Y-8296000D01*
X10016900Y-8470000D02*
X10096900Y-8550000D01*
X10096900Y-8470000D02*
X10016900Y-8550000D01*
X10016900Y-8724000D02*
X10096900Y-8804000D01*
X10096900Y-8724000D02*
X10016900Y-8804000D01*
X10016900Y-8978000D02*
X10096900Y-9058000D01*
X10096900Y-8978000D02*
X10016900Y-9058000D01*
X10778900Y-8216000D02*
X10858900Y-8296000D01*
X10858900Y-8216000D02*
X10778900Y-8296000D01*
X10778900Y-8470000D02*
X10858900Y-8550000D01*
X10858900Y-8470000D02*
X10778900Y-8550000D01*
X10778900Y-8724000D02*
X10858900Y-8804000D01*
X10858900Y-8724000D02*
X10778900Y-8804000D01*
X10778900Y-8978000D02*
X10858900Y-9058000D01*
X10858900Y-8978000D02*
X10778900Y-9058000D01*
X11110600Y-8202300D02*
X11190600Y-8282300D01*
X11190600Y-8202300D02*
X11110600Y-8282300D01*
X11123300Y-8723000D02*
X11203300Y-8803000D01*
X11203300Y-8723000D02*
X11123300Y-8803000D01*
X11123300Y-9091300D02*
X11203300Y-9171300D01*
X11203300Y-9091300D02*
X11123300Y-9171300D01*
X11123300Y-9421500D02*
X11203300Y-9501500D01*
X11203300Y-9421500D02*
X11123300Y-9501500D01*
X12126600Y-8202300D02*
X12206600Y-8282300D01*
X12206600Y-8202300D02*
X12126600Y-8282300D01*
X12139300Y-9091300D02*
X12219300Y-9171300D01*
X12219300Y-9091300D02*
X12139300Y-9171300D01*
X12139300Y-9421500D02*
X12219300Y-9501500D01*
X12219300Y-9421500D02*
X12139300Y-9501500D01*
X12393300Y-8723000D02*
X12473300Y-8803000D01*
X12473300Y-8723000D02*
X12393300Y-8803000D01*
X12990200Y-9129400D02*
X13070200Y-9209400D01*
X13070200Y-9129400D02*
X12990200Y-9209400D01*
X12990200Y-9379400D02*
X13070200Y-9459400D01*
X13070200Y-9379400D02*
X12990200Y-9459400D01*
X13002900Y-8447600D02*
X13082900Y-8527600D01*
X13082900Y-8447600D02*
X13002900Y-8527600D01*
X13002900Y-8697600D02*
X13082900Y-8777600D01*
X13082900Y-8697600D02*
X13002900Y-8777600D01*
X10061600Y-9461500D02*
G75*
G02*
X9961600Y-9461500I-50000J0D01*
G01*
X9961600Y-9461500D02*
G75*
G02*
X10061600Y-9461500I50000J0D01*
G01*
X10561600Y-9461500D02*
G75*
G02*
X10461600Y-9461500I-50000J0D01*
G01*
X10461600Y-9461500D02*
G75*
G02*
X10561600Y-9461500I50000J0D01*
G01*
X13664400Y-9169400D02*
G75*
G02*
X13564400Y-9169400I-50000J0D01*
G01*
X13564400Y-9169400D02*
G75*
G02*
X13664400Y-9169400I50000J0D01*
G01*
X13664400Y-9423400D02*
G75*
G02*
X13564400Y-9423400I-50000J0D01*
G01*
X13564400Y-9423400D02*
G75*
G02*
X13664400Y-9423400I50000J0D01*
G01*
X13677100Y-8445000D02*
G75*
G02*
X13577100Y-8445000I-50000J0D01*
G01*
X13577100Y-8445000D02*
G75*
G02*
X13677100Y-8445000I50000J0D01*
G01*
X13677100Y-8699000D02*
G75*
G02*
X13577100Y-8699000I-50000J0D01*
G01*
X13577100Y-8699000D02*
G75*
G02*
X13677100Y-8699000I50000J0D01*
G01*
D13*
X8877300Y-8212700D02*
X8877300Y-8322700D01*
X8822300Y-8267700D02*
X8932300Y-8267700D01*
X9639300Y-8212700D02*
X9639300Y-8322700D01*
X9584300Y-8267700D02*
X9694300Y-8267700D01*
D14*
X9266162Y-8943962D02*
X9266162Y-8852038D01*
X9174238Y-8852038D01*
X9174238Y-8943962D01*
X9266162Y-8943962D01*
X9266162Y-9443962D02*
X9266162Y-9352038D01*
X9174238Y-9352038D01*
X9174238Y-9443962D01*
X9266162Y-9443962D01*
D11*
X8858277Y-10513984D02*
X8858277Y-10313984D01*
X8858277Y-10313984D02*
X8905896Y-10313984D01*
X8905896Y-10313984D02*
X8934467Y-10323508D01*
X8934467Y-10323508D02*
X8953515Y-10342555D01*
X8953515Y-10342555D02*
X8963039Y-10361603D01*
X8963039Y-10361603D02*
X8972563Y-10399698D01*
X8972563Y-10399698D02*
X8972563Y-10428270D01*
X8972563Y-10428270D02*
X8963039Y-10466365D01*
X8963039Y-10466365D02*
X8953515Y-10485412D01*
X8953515Y-10485412D02*
X8934467Y-10504460D01*
X8934467Y-10504460D02*
X8905896Y-10513984D01*
X8905896Y-10513984D02*
X8858277Y-10513984D01*
X9058277Y-10513984D02*
X9058277Y-10380650D01*
X9058277Y-10418746D02*
X9067801Y-10399698D01*
X9067801Y-10399698D02*
X9077324Y-10390174D01*
X9077324Y-10390174D02*
X9096372Y-10380650D01*
X9096372Y-10380650D02*
X9115420Y-10380650D01*
X9182086Y-10513984D02*
X9182086Y-10380650D01*
X9182086Y-10313984D02*
X9172563Y-10323508D01*
X9172563Y-10323508D02*
X9182086Y-10333031D01*
X9182086Y-10333031D02*
X9191610Y-10323508D01*
X9191610Y-10323508D02*
X9182086Y-10313984D01*
X9182086Y-10313984D02*
X9182086Y-10333031D01*
X9305896Y-10513984D02*
X9286848Y-10504460D01*
X9286848Y-10504460D02*
X9277324Y-10485412D01*
X9277324Y-10485412D02*
X9277324Y-10313984D01*
X9410658Y-10513984D02*
X9391610Y-10504460D01*
X9391610Y-10504460D02*
X9382086Y-10485412D01*
X9382086Y-10485412D02*
X9382086Y-10313984D01*
X9639229Y-10513984D02*
X9639229Y-10313984D01*
X9639229Y-10313984D02*
X9705896Y-10456841D01*
X9705896Y-10456841D02*
X9772563Y-10313984D01*
X9772563Y-10313984D02*
X9772563Y-10513984D01*
X9953515Y-10513984D02*
X9953515Y-10409222D01*
X9953515Y-10409222D02*
X9943991Y-10390174D01*
X9943991Y-10390174D02*
X9924944Y-10380650D01*
X9924944Y-10380650D02*
X9886848Y-10380650D01*
X9886848Y-10380650D02*
X9867801Y-10390174D01*
X9953515Y-10504460D02*
X9934467Y-10513984D01*
X9934467Y-10513984D02*
X9886848Y-10513984D01*
X9886848Y-10513984D02*
X9867801Y-10504460D01*
X9867801Y-10504460D02*
X9858277Y-10485412D01*
X9858277Y-10485412D02*
X9858277Y-10466365D01*
X9858277Y-10466365D02*
X9867801Y-10447317D01*
X9867801Y-10447317D02*
X9886848Y-10437793D01*
X9886848Y-10437793D02*
X9934467Y-10437793D01*
X9934467Y-10437793D02*
X9953515Y-10428270D01*
X10048753Y-10380650D02*
X10048753Y-10580650D01*
X10048753Y-10390174D02*
X10067801Y-10380650D01*
X10067801Y-10380650D02*
X10105896Y-10380650D01*
X10105896Y-10380650D02*
X10124944Y-10390174D01*
X10124944Y-10390174D02*
X10134467Y-10399698D01*
X10134467Y-10399698D02*
X10143991Y-10418746D01*
X10143991Y-10418746D02*
X10143991Y-10475889D01*
X10143991Y-10475889D02*
X10134467Y-10494936D01*
X10134467Y-10494936D02*
X10124944Y-10504460D01*
X10124944Y-10504460D02*
X10105896Y-10513984D01*
X10105896Y-10513984D02*
X10067801Y-10513984D01*
X10067801Y-10513984D02*
X10048753Y-10504460D01*
X10229705Y-10494936D02*
X10239229Y-10504460D01*
X10239229Y-10504460D02*
X10229705Y-10513984D01*
X10229705Y-10513984D02*
X10220182Y-10504460D01*
X10220182Y-10504460D02*
X10229705Y-10494936D01*
X10229705Y-10494936D02*
X10229705Y-10513984D01*
X10229705Y-10390174D02*
X10239229Y-10399698D01*
X10239229Y-10399698D02*
X10229705Y-10409222D01*
X10229705Y-10409222D02*
X10220182Y-10399698D01*
X10220182Y-10399698D02*
X10229705Y-10390174D01*
X10229705Y-10390174D02*
X10229705Y-10409222D01*
D12*
X8517500Y-10802500D02*
X8597500Y-10882500D01*
X8597500Y-10802500D02*
X8517500Y-10882500D01*
D11*
X8896372Y-10733984D02*
X8915420Y-10733984D01*
X8915420Y-10733984D02*
X8934467Y-10743508D01*
X8934467Y-10743508D02*
X8943991Y-10753031D01*
X8943991Y-10753031D02*
X8953515Y-10772079D01*
X8953515Y-10772079D02*
X8963039Y-10810174D01*
X8963039Y-10810174D02*
X8963039Y-10857793D01*
X8963039Y-10857793D02*
X8953515Y-10895889D01*
X8953515Y-10895889D02*
X8943991Y-10914936D01*
X8943991Y-10914936D02*
X8934467Y-10924460D01*
X8934467Y-10924460D02*
X8915420Y-10933984D01*
X8915420Y-10933984D02*
X8896372Y-10933984D01*
X8896372Y-10933984D02*
X8877324Y-10924460D01*
X8877324Y-10924460D02*
X8867801Y-10914936D01*
X8867801Y-10914936D02*
X8858277Y-10895889D01*
X8858277Y-10895889D02*
X8848753Y-10857793D01*
X8848753Y-10857793D02*
X8848753Y-10810174D01*
X8848753Y-10810174D02*
X8858277Y-10772079D01*
X8858277Y-10772079D02*
X8867801Y-10753031D01*
X8867801Y-10753031D02*
X8877324Y-10743508D01*
X8877324Y-10743508D02*
X8896372Y-10733984D01*
X9048753Y-10914936D02*
X9058277Y-10924460D01*
X9058277Y-10924460D02*
X9048753Y-10933984D01*
X9048753Y-10933984D02*
X9039229Y-10924460D01*
X9039229Y-10924460D02*
X9048753Y-10914936D01*
X9048753Y-10914936D02*
X9048753Y-10933984D01*
X9172563Y-10819698D02*
X9153515Y-10810174D01*
X9153515Y-10810174D02*
X9143991Y-10800650D01*
X9143991Y-10800650D02*
X9134467Y-10781603D01*
X9134467Y-10781603D02*
X9134467Y-10772079D01*
X9134467Y-10772079D02*
X9143991Y-10753031D01*
X9143991Y-10753031D02*
X9153515Y-10743508D01*
X9153515Y-10743508D02*
X9172563Y-10733984D01*
X9172563Y-10733984D02*
X9210658Y-10733984D01*
X9210658Y-10733984D02*
X9229705Y-10743508D01*
X9229705Y-10743508D02*
X9239229Y-10753031D01*
X9239229Y-10753031D02*
X9248753Y-10772079D01*
X9248753Y-10772079D02*
X9248753Y-10781603D01*
X9248753Y-10781603D02*
X9239229Y-10800650D01*
X9239229Y-10800650D02*
X9229705Y-10810174D01*
X9229705Y-10810174D02*
X9210658Y-10819698D01*
X9210658Y-10819698D02*
X9172563Y-10819698D01*
X9172563Y-10819698D02*
X9153515Y-10829222D01*
X9153515Y-10829222D02*
X9143991Y-10838746D01*
X9143991Y-10838746D02*
X9134467Y-10857793D01*
X9134467Y-10857793D02*
X9134467Y-10895889D01*
X9134467Y-10895889D02*
X9143991Y-10914936D01*
X9143991Y-10914936D02*
X9153515Y-10924460D01*
X9153515Y-10924460D02*
X9172563Y-10933984D01*
X9172563Y-10933984D02*
X9210658Y-10933984D01*
X9210658Y-10933984D02*
X9229705Y-10924460D01*
X9229705Y-10924460D02*
X9239229Y-10914936D01*
X9239229Y-10914936D02*
X9248753Y-10895889D01*
X9248753Y-10895889D02*
X9248753Y-10857793D01*
X9248753Y-10857793D02*
X9239229Y-10838746D01*
X9239229Y-10838746D02*
X9229705Y-10829222D01*
X9229705Y-10829222D02*
X9210658Y-10819698D01*
X9372563Y-10733984D02*
X9391610Y-10733984D01*
X9391610Y-10733984D02*
X9410658Y-10743508D01*
X9410658Y-10743508D02*
X9420182Y-10753031D01*
X9420182Y-10753031D02*
X9429705Y-10772079D01*
X9429705Y-10772079D02*
X9439229Y-10810174D01*
X9439229Y-10810174D02*
X9439229Y-10857793D01*
X9439229Y-10857793D02*
X9429705Y-10895889D01*
X9429705Y-10895889D02*
X9420182Y-10914936D01*
X9420182Y-10914936D02*
X9410658Y-10924460D01*
X9410658Y-10924460D02*
X9391610Y-10933984D01*
X9391610Y-10933984D02*
X9372563Y-10933984D01*
X9372563Y-10933984D02*
X9353515Y-10924460D01*
X9353515Y-10924460D02*
X9343991Y-10914936D01*
X9343991Y-10914936D02*
X9334467Y-10895889D01*
X9334467Y-10895889D02*
X9324944Y-10857793D01*
X9324944Y-10857793D02*
X9324944Y-10810174D01*
X9324944Y-10810174D02*
X9334467Y-10772079D01*
X9334467Y-10772079D02*
X9343991Y-10753031D01*
X9343991Y-10753031D02*
X9353515Y-10743508D01*
X9353515Y-10743508D02*
X9372563Y-10733984D01*
X9563039Y-10733984D02*
X9582086Y-10733984D01*
X9582086Y-10733984D02*
X9601134Y-10743508D01*
X9601134Y-10743508D02*
X9610658Y-10753031D01*
X9610658Y-10753031D02*
X9620182Y-10772079D01*
X9620182Y-10772079D02*
X9629705Y-10810174D01*
X9629705Y-10810174D02*
X9629705Y-10857793D01*
X9629705Y-10857793D02*
X9620182Y-10895889D01*
X9620182Y-10895889D02*
X9610658Y-10914936D01*
X9610658Y-10914936D02*
X9601134Y-10924460D01*
X9601134Y-10924460D02*
X9582086Y-10933984D01*
X9582086Y-10933984D02*
X9563039Y-10933984D01*
X9563039Y-10933984D02*
X9543991Y-10924460D01*
X9543991Y-10924460D02*
X9534467Y-10914936D01*
X9534467Y-10914936D02*
X9524944Y-10895889D01*
X9524944Y-10895889D02*
X9515420Y-10857793D01*
X9515420Y-10857793D02*
X9515420Y-10810174D01*
X9515420Y-10810174D02*
X9524944Y-10772079D01*
X9524944Y-10772079D02*
X9534467Y-10753031D01*
X9534467Y-10753031D02*
X9543991Y-10743508D01*
X9543991Y-10743508D02*
X9563039Y-10733984D01*
X9715420Y-10933984D02*
X9715420Y-10800650D01*
X9715420Y-10819698D02*
X9724944Y-10810174D01*
X9724944Y-10810174D02*
X9743991Y-10800650D01*
X9743991Y-10800650D02*
X9772563Y-10800650D01*
X9772563Y-10800650D02*
X9791610Y-10810174D01*
X9791610Y-10810174D02*
X9801134Y-10829222D01*
X9801134Y-10829222D02*
X9801134Y-10933984D01*
X9801134Y-10829222D02*
X9810658Y-10810174D01*
X9810658Y-10810174D02*
X9829705Y-10800650D01*
X9829705Y-10800650D02*
X9858277Y-10800650D01*
X9858277Y-10800650D02*
X9877325Y-10810174D01*
X9877325Y-10810174D02*
X9886848Y-10829222D01*
X9886848Y-10829222D02*
X9886848Y-10933984D01*
X9982086Y-10933984D02*
X9982086Y-10800650D01*
X9982086Y-10819698D02*
X9991610Y-10810174D01*
X9991610Y-10810174D02*
X10010658Y-10800650D01*
X10010658Y-10800650D02*
X10039229Y-10800650D01*
X10039229Y-10800650D02*
X10058277Y-10810174D01*
X10058277Y-10810174D02*
X10067801Y-10829222D01*
X10067801Y-10829222D02*
X10067801Y-10933984D01*
X10067801Y-10829222D02*
X10077325Y-10810174D01*
X10077325Y-10810174D02*
X10096372Y-10800650D01*
X10096372Y-10800650D02*
X10124944Y-10800650D01*
X10124944Y-10800650D02*
X10143991Y-10810174D01*
X10143991Y-10810174D02*
X10153515Y-10829222D01*
X10153515Y-10829222D02*
X10153515Y-10933984D01*
X10543991Y-10724460D02*
X10372563Y-10981603D01*
X10801134Y-10733984D02*
X10820182Y-10733984D01*
X10820182Y-10733984D02*
X10839229Y-10743508D01*
X10839229Y-10743508D02*
X10848753Y-10753031D01*
X10848753Y-10753031D02*
X10858277Y-10772079D01*
X10858277Y-10772079D02*
X10867801Y-10810174D01*
X10867801Y-10810174D02*
X10867801Y-10857793D01*
X10867801Y-10857793D02*
X10858277Y-10895889D01*
X10858277Y-10895889D02*
X10848753Y-10914936D01*
X10848753Y-10914936D02*
X10839229Y-10924460D01*
X10839229Y-10924460D02*
X10820182Y-10933984D01*
X10820182Y-10933984D02*
X10801134Y-10933984D01*
X10801134Y-10933984D02*
X10782087Y-10924460D01*
X10782087Y-10924460D02*
X10772563Y-10914936D01*
X10772563Y-10914936D02*
X10763039Y-10895889D01*
X10763039Y-10895889D02*
X10753515Y-10857793D01*
X10753515Y-10857793D02*
X10753515Y-10810174D01*
X10753515Y-10810174D02*
X10763039Y-10772079D01*
X10763039Y-10772079D02*
X10772563Y-10753031D01*
X10772563Y-10753031D02*
X10782087Y-10743508D01*
X10782087Y-10743508D02*
X10801134Y-10733984D01*
X10953515Y-10914936D02*
X10963039Y-10924460D01*
X10963039Y-10924460D02*
X10953515Y-10933984D01*
X10953515Y-10933984D02*
X10943991Y-10924460D01*
X10943991Y-10924460D02*
X10953515Y-10914936D01*
X10953515Y-10914936D02*
X10953515Y-10933984D01*
X11086848Y-10733984D02*
X11105896Y-10733984D01*
X11105896Y-10733984D02*
X11124944Y-10743508D01*
X11124944Y-10743508D02*
X11134468Y-10753031D01*
X11134468Y-10753031D02*
X11143991Y-10772079D01*
X11143991Y-10772079D02*
X11153515Y-10810174D01*
X11153515Y-10810174D02*
X11153515Y-10857793D01*
X11153515Y-10857793D02*
X11143991Y-10895889D01*
X11143991Y-10895889D02*
X11134468Y-10914936D01*
X11134468Y-10914936D02*
X11124944Y-10924460D01*
X11124944Y-10924460D02*
X11105896Y-10933984D01*
X11105896Y-10933984D02*
X11086848Y-10933984D01*
X11086848Y-10933984D02*
X11067801Y-10924460D01*
X11067801Y-10924460D02*
X11058277Y-10914936D01*
X11058277Y-10914936D02*
X11048753Y-10895889D01*
X11048753Y-10895889D02*
X11039229Y-10857793D01*
X11039229Y-10857793D02*
X11039229Y-10810174D01*
X11039229Y-10810174D02*
X11048753Y-10772079D01*
X11048753Y-10772079D02*
X11058277Y-10753031D01*
X11058277Y-10753031D02*
X11067801Y-10743508D01*
X11067801Y-10743508D02*
X11086848Y-10733984D01*
X11220182Y-10733984D02*
X11343991Y-10733984D01*
X11343991Y-10733984D02*
X11277325Y-10810174D01*
X11277325Y-10810174D02*
X11305896Y-10810174D01*
X11305896Y-10810174D02*
X11324944Y-10819698D01*
X11324944Y-10819698D02*
X11334467Y-10829222D01*
X11334467Y-10829222D02*
X11343991Y-10848270D01*
X11343991Y-10848270D02*
X11343991Y-10895889D01*
X11343991Y-10895889D02*
X11334467Y-10914936D01*
X11334467Y-10914936D02*
X11324944Y-10924460D01*
X11324944Y-10924460D02*
X11305896Y-10933984D01*
X11305896Y-10933984D02*
X11248753Y-10933984D01*
X11248753Y-10933984D02*
X11229706Y-10924460D01*
X11229706Y-10924460D02*
X11220182Y-10914936D01*
X11534467Y-10933984D02*
X11420182Y-10933984D01*
X11477325Y-10933984D02*
X11477325Y-10733984D01*
X11477325Y-10733984D02*
X11458277Y-10762555D01*
X11458277Y-10762555D02*
X11439229Y-10781603D01*
X11439229Y-10781603D02*
X11420182Y-10791127D01*
X11715420Y-10733984D02*
X11620182Y-10733984D01*
X11620182Y-10733984D02*
X11610658Y-10829222D01*
X11610658Y-10829222D02*
X11620182Y-10819698D01*
X11620182Y-10819698D02*
X11639229Y-10810174D01*
X11639229Y-10810174D02*
X11686848Y-10810174D01*
X11686848Y-10810174D02*
X11705896Y-10819698D01*
X11705896Y-10819698D02*
X11715420Y-10829222D01*
X11715420Y-10829222D02*
X11724944Y-10848270D01*
X11724944Y-10848270D02*
X11724944Y-10895889D01*
X11724944Y-10895889D02*
X11715420Y-10914936D01*
X11715420Y-10914936D02*
X11705896Y-10924460D01*
X11705896Y-10924460D02*
X11686848Y-10933984D01*
X11686848Y-10933984D02*
X11639229Y-10933984D01*
X11639229Y-10933984D02*
X11620182Y-10924460D01*
X11620182Y-10924460D02*
X11610658Y-10914936D01*
X11801134Y-10733984D02*
X11801134Y-10772079D01*
X11877325Y-10733984D02*
X11877325Y-10772079D01*
X12172563Y-11010174D02*
X12163039Y-11000650D01*
X12163039Y-11000650D02*
X12143991Y-10972079D01*
X12143991Y-10972079D02*
X12134468Y-10953031D01*
X12134468Y-10953031D02*
X12124944Y-10924460D01*
X12124944Y-10924460D02*
X12115420Y-10876841D01*
X12115420Y-10876841D02*
X12115420Y-10838746D01*
X12115420Y-10838746D02*
X12124944Y-10791127D01*
X12124944Y-10791127D02*
X12134468Y-10762555D01*
X12134468Y-10762555D02*
X12143991Y-10743508D01*
X12143991Y-10743508D02*
X12163039Y-10714936D01*
X12163039Y-10714936D02*
X12172563Y-10705412D01*
X12239229Y-10753031D02*
X12248753Y-10743508D01*
X12248753Y-10743508D02*
X12267801Y-10733984D01*
X12267801Y-10733984D02*
X12315420Y-10733984D01*
X12315420Y-10733984D02*
X12334468Y-10743508D01*
X12334468Y-10743508D02*
X12343991Y-10753031D01*
X12343991Y-10753031D02*
X12353515Y-10772079D01*
X12353515Y-10772079D02*
X12353515Y-10791127D01*
X12353515Y-10791127D02*
X12343991Y-10819698D01*
X12343991Y-10819698D02*
X12229706Y-10933984D01*
X12229706Y-10933984D02*
X12353515Y-10933984D01*
X12477325Y-10733984D02*
X12496372Y-10733984D01*
X12496372Y-10733984D02*
X12515420Y-10743508D01*
X12515420Y-10743508D02*
X12524944Y-10753031D01*
X12524944Y-10753031D02*
X12534468Y-10772079D01*
X12534468Y-10772079D02*
X12543991Y-10810174D01*
X12543991Y-10810174D02*
X12543991Y-10857793D01*
X12543991Y-10857793D02*
X12534468Y-10895889D01*
X12534468Y-10895889D02*
X12524944Y-10914936D01*
X12524944Y-10914936D02*
X12515420Y-10924460D01*
X12515420Y-10924460D02*
X12496372Y-10933984D01*
X12496372Y-10933984D02*
X12477325Y-10933984D01*
X12477325Y-10933984D02*
X12458277Y-10924460D01*
X12458277Y-10924460D02*
X12448753Y-10914936D01*
X12448753Y-10914936D02*
X12439229Y-10895889D01*
X12439229Y-10895889D02*
X12429706Y-10857793D01*
X12429706Y-10857793D02*
X12429706Y-10810174D01*
X12429706Y-10810174D02*
X12439229Y-10772079D01*
X12439229Y-10772079D02*
X12448753Y-10753031D01*
X12448753Y-10753031D02*
X12458277Y-10743508D01*
X12458277Y-10743508D02*
X12477325Y-10733984D01*
X12782087Y-10933984D02*
X12782087Y-10733984D01*
X12867801Y-10933984D02*
X12867801Y-10829222D01*
X12867801Y-10829222D02*
X12858277Y-10810174D01*
X12858277Y-10810174D02*
X12839230Y-10800650D01*
X12839230Y-10800650D02*
X12810658Y-10800650D01*
X12810658Y-10800650D02*
X12791610Y-10810174D01*
X12791610Y-10810174D02*
X12782087Y-10819698D01*
X12991610Y-10933984D02*
X12972563Y-10924460D01*
X12972563Y-10924460D02*
X12963039Y-10914936D01*
X12963039Y-10914936D02*
X12953515Y-10895889D01*
X12953515Y-10895889D02*
X12953515Y-10838746D01*
X12953515Y-10838746D02*
X12963039Y-10819698D01*
X12963039Y-10819698D02*
X12972563Y-10810174D01*
X12972563Y-10810174D02*
X12991610Y-10800650D01*
X12991610Y-10800650D02*
X13020182Y-10800650D01*
X13020182Y-10800650D02*
X13039230Y-10810174D01*
X13039230Y-10810174D02*
X13048753Y-10819698D01*
X13048753Y-10819698D02*
X13058277Y-10838746D01*
X13058277Y-10838746D02*
X13058277Y-10895889D01*
X13058277Y-10895889D02*
X13048753Y-10914936D01*
X13048753Y-10914936D02*
X13039230Y-10924460D01*
X13039230Y-10924460D02*
X13020182Y-10933984D01*
X13020182Y-10933984D02*
X12991610Y-10933984D01*
X13172563Y-10933984D02*
X13153515Y-10924460D01*
X13153515Y-10924460D02*
X13143991Y-10905412D01*
X13143991Y-10905412D02*
X13143991Y-10733984D01*
X13324944Y-10924460D02*
X13305896Y-10933984D01*
X13305896Y-10933984D02*
X13267801Y-10933984D01*
X13267801Y-10933984D02*
X13248753Y-10924460D01*
X13248753Y-10924460D02*
X13239230Y-10905412D01*
X13239230Y-10905412D02*
X13239230Y-10829222D01*
X13239230Y-10829222D02*
X13248753Y-10810174D01*
X13248753Y-10810174D02*
X13267801Y-10800650D01*
X13267801Y-10800650D02*
X13305896Y-10800650D01*
X13305896Y-10800650D02*
X13324944Y-10810174D01*
X13324944Y-10810174D02*
X13334468Y-10829222D01*
X13334468Y-10829222D02*
X13334468Y-10848270D01*
X13334468Y-10848270D02*
X13239230Y-10867317D01*
X13410658Y-10924460D02*
X13429706Y-10933984D01*
X13429706Y-10933984D02*
X13467801Y-10933984D01*
X13467801Y-10933984D02*
X13486849Y-10924460D01*
X13486849Y-10924460D02*
X13496372Y-10905412D01*
X13496372Y-10905412D02*
X13496372Y-10895889D01*
X13496372Y-10895889D02*
X13486849Y-10876841D01*
X13486849Y-10876841D02*
X13467801Y-10867317D01*
X13467801Y-10867317D02*
X13439230Y-10867317D01*
X13439230Y-10867317D02*
X13420182Y-10857793D01*
X13420182Y-10857793D02*
X13410658Y-10838746D01*
X13410658Y-10838746D02*
X13410658Y-10829222D01*
X13410658Y-10829222D02*
X13420182Y-10810174D01*
X13420182Y-10810174D02*
X13439230Y-10800650D01*
X13439230Y-10800650D02*
X13467801Y-10800650D01*
X13467801Y-10800650D02*
X13486849Y-10810174D01*
X13563039Y-11010174D02*
X13572563Y-11000650D01*
X13572563Y-11000650D02*
X13591611Y-10972079D01*
X13591611Y-10972079D02*
X13601134Y-10953031D01*
X13601134Y-10953031D02*
X13610658Y-10924460D01*
X13610658Y-10924460D02*
X13620182Y-10876841D01*
X13620182Y-10876841D02*
X13620182Y-10838746D01*
X13620182Y-10838746D02*
X13610658Y-10791127D01*
X13610658Y-10791127D02*
X13601134Y-10762555D01*
X13601134Y-10762555D02*
X13591611Y-10743508D01*
X13591611Y-10743508D02*
X13572563Y-10714936D01*
X13572563Y-10714936D02*
X13563039Y-10705412D01*
D12*
X8597500Y-11106500D02*
G75*
G02*
X8497500Y-11106500I-50000J0D01*
G01*
X8497500Y-11106500D02*
G75*
G02*
X8597500Y-11106500I50000J0D01*
G01*
D11*
X8963039Y-11197984D02*
X8848753Y-11197984D01*
X8905896Y-11197984D02*
X8905896Y-10997984D01*
X8905896Y-10997984D02*
X8886848Y-11026555D01*
X8886848Y-11026555D02*
X8867801Y-11045603D01*
X8867801Y-11045603D02*
X8848753Y-11055127D01*
X9048753Y-11178936D02*
X9058277Y-11188460D01*
X9058277Y-11188460D02*
X9048753Y-11197984D01*
X9048753Y-11197984D02*
X9039229Y-11188460D01*
X9039229Y-11188460D02*
X9048753Y-11178936D01*
X9048753Y-11178936D02*
X9048753Y-11197984D01*
X9182086Y-10997984D02*
X9201134Y-10997984D01*
X9201134Y-10997984D02*
X9220182Y-11007508D01*
X9220182Y-11007508D02*
X9229705Y-11017031D01*
X9229705Y-11017031D02*
X9239229Y-11036079D01*
X9239229Y-11036079D02*
X9248753Y-11074174D01*
X9248753Y-11074174D02*
X9248753Y-11121793D01*
X9248753Y-11121793D02*
X9239229Y-11159889D01*
X9239229Y-11159889D02*
X9229705Y-11178936D01*
X9229705Y-11178936D02*
X9220182Y-11188460D01*
X9220182Y-11188460D02*
X9201134Y-11197984D01*
X9201134Y-11197984D02*
X9182086Y-11197984D01*
X9182086Y-11197984D02*
X9163039Y-11188460D01*
X9163039Y-11188460D02*
X9153515Y-11178936D01*
X9153515Y-11178936D02*
X9143991Y-11159889D01*
X9143991Y-11159889D02*
X9134467Y-11121793D01*
X9134467Y-11121793D02*
X9134467Y-11074174D01*
X9134467Y-11074174D02*
X9143991Y-11036079D01*
X9143991Y-11036079D02*
X9153515Y-11017031D01*
X9153515Y-11017031D02*
X9163039Y-11007508D01*
X9163039Y-11007508D02*
X9182086Y-10997984D01*
X9372563Y-10997984D02*
X9391610Y-10997984D01*
X9391610Y-10997984D02*
X9410658Y-11007508D01*
X9410658Y-11007508D02*
X9420182Y-11017031D01*
X9420182Y-11017031D02*
X9429705Y-11036079D01*
X9429705Y-11036079D02*
X9439229Y-11074174D01*
X9439229Y-11074174D02*
X9439229Y-11121793D01*
X9439229Y-11121793D02*
X9429705Y-11159889D01*
X9429705Y-11159889D02*
X9420182Y-11178936D01*
X9420182Y-11178936D02*
X9410658Y-11188460D01*
X9410658Y-11188460D02*
X9391610Y-11197984D01*
X9391610Y-11197984D02*
X9372563Y-11197984D01*
X9372563Y-11197984D02*
X9353515Y-11188460D01*
X9353515Y-11188460D02*
X9343991Y-11178936D01*
X9343991Y-11178936D02*
X9334467Y-11159889D01*
X9334467Y-11159889D02*
X9324944Y-11121793D01*
X9324944Y-11121793D02*
X9324944Y-11074174D01*
X9324944Y-11074174D02*
X9334467Y-11036079D01*
X9334467Y-11036079D02*
X9343991Y-11017031D01*
X9343991Y-11017031D02*
X9353515Y-11007508D01*
X9353515Y-11007508D02*
X9372563Y-10997984D01*
X9563039Y-10997984D02*
X9582086Y-10997984D01*
X9582086Y-10997984D02*
X9601134Y-11007508D01*
X9601134Y-11007508D02*
X9610658Y-11017031D01*
X9610658Y-11017031D02*
X9620182Y-11036079D01*
X9620182Y-11036079D02*
X9629705Y-11074174D01*
X9629705Y-11074174D02*
X9629705Y-11121793D01*
X9629705Y-11121793D02*
X9620182Y-11159889D01*
X9620182Y-11159889D02*
X9610658Y-11178936D01*
X9610658Y-11178936D02*
X9601134Y-11188460D01*
X9601134Y-11188460D02*
X9582086Y-11197984D01*
X9582086Y-11197984D02*
X9563039Y-11197984D01*
X9563039Y-11197984D02*
X9543991Y-11188460D01*
X9543991Y-11188460D02*
X9534467Y-11178936D01*
X9534467Y-11178936D02*
X9524944Y-11159889D01*
X9524944Y-11159889D02*
X9515420Y-11121793D01*
X9515420Y-11121793D02*
X9515420Y-11074174D01*
X9515420Y-11074174D02*
X9524944Y-11036079D01*
X9524944Y-11036079D02*
X9534467Y-11017031D01*
X9534467Y-11017031D02*
X9543991Y-11007508D01*
X9543991Y-11007508D02*
X9563039Y-10997984D01*
X9715420Y-11197984D02*
X9715420Y-11064650D01*
X9715420Y-11083698D02*
X9724944Y-11074174D01*
X9724944Y-11074174D02*
X9743991Y-11064650D01*
X9743991Y-11064650D02*
X9772563Y-11064650D01*
X9772563Y-11064650D02*
X9791610Y-11074174D01*
X9791610Y-11074174D02*
X9801134Y-11093222D01*
X9801134Y-11093222D02*
X9801134Y-11197984D01*
X9801134Y-11093222D02*
X9810658Y-11074174D01*
X9810658Y-11074174D02*
X9829705Y-11064650D01*
X9829705Y-11064650D02*
X9858277Y-11064650D01*
X9858277Y-11064650D02*
X9877325Y-11074174D01*
X9877325Y-11074174D02*
X9886848Y-11093222D01*
X9886848Y-11093222D02*
X9886848Y-11197984D01*
X9982086Y-11197984D02*
X9982086Y-11064650D01*
X9982086Y-11083698D02*
X9991610Y-11074174D01*
X9991610Y-11074174D02*
X10010658Y-11064650D01*
X10010658Y-11064650D02*
X10039229Y-11064650D01*
X10039229Y-11064650D02*
X10058277Y-11074174D01*
X10058277Y-11074174D02*
X10067801Y-11093222D01*
X10067801Y-11093222D02*
X10067801Y-11197984D01*
X10067801Y-11093222D02*
X10077325Y-11074174D01*
X10077325Y-11074174D02*
X10096372Y-11064650D01*
X10096372Y-11064650D02*
X10124944Y-11064650D01*
X10124944Y-11064650D02*
X10143991Y-11074174D01*
X10143991Y-11074174D02*
X10153515Y-11093222D01*
X10153515Y-11093222D02*
X10153515Y-11197984D01*
X10543991Y-10988460D02*
X10372563Y-11245603D01*
X10801134Y-10997984D02*
X10820182Y-10997984D01*
X10820182Y-10997984D02*
X10839229Y-11007508D01*
X10839229Y-11007508D02*
X10848753Y-11017031D01*
X10848753Y-11017031D02*
X10858277Y-11036079D01*
X10858277Y-11036079D02*
X10867801Y-11074174D01*
X10867801Y-11074174D02*
X10867801Y-11121793D01*
X10867801Y-11121793D02*
X10858277Y-11159889D01*
X10858277Y-11159889D02*
X10848753Y-11178936D01*
X10848753Y-11178936D02*
X10839229Y-11188460D01*
X10839229Y-11188460D02*
X10820182Y-11197984D01*
X10820182Y-11197984D02*
X10801134Y-11197984D01*
X10801134Y-11197984D02*
X10782087Y-11188460D01*
X10782087Y-11188460D02*
X10772563Y-11178936D01*
X10772563Y-11178936D02*
X10763039Y-11159889D01*
X10763039Y-11159889D02*
X10753515Y-11121793D01*
X10753515Y-11121793D02*
X10753515Y-11074174D01*
X10753515Y-11074174D02*
X10763039Y-11036079D01*
X10763039Y-11036079D02*
X10772563Y-11017031D01*
X10772563Y-11017031D02*
X10782087Y-11007508D01*
X10782087Y-11007508D02*
X10801134Y-10997984D01*
X10953515Y-11178936D02*
X10963039Y-11188460D01*
X10963039Y-11188460D02*
X10953515Y-11197984D01*
X10953515Y-11197984D02*
X10943991Y-11188460D01*
X10943991Y-11188460D02*
X10953515Y-11178936D01*
X10953515Y-11178936D02*
X10953515Y-11197984D01*
X11086848Y-10997984D02*
X11105896Y-10997984D01*
X11105896Y-10997984D02*
X11124944Y-11007508D01*
X11124944Y-11007508D02*
X11134468Y-11017031D01*
X11134468Y-11017031D02*
X11143991Y-11036079D01*
X11143991Y-11036079D02*
X11153515Y-11074174D01*
X11153515Y-11074174D02*
X11153515Y-11121793D01*
X11153515Y-11121793D02*
X11143991Y-11159889D01*
X11143991Y-11159889D02*
X11134468Y-11178936D01*
X11134468Y-11178936D02*
X11124944Y-11188460D01*
X11124944Y-11188460D02*
X11105896Y-11197984D01*
X11105896Y-11197984D02*
X11086848Y-11197984D01*
X11086848Y-11197984D02*
X11067801Y-11188460D01*
X11067801Y-11188460D02*
X11058277Y-11178936D01*
X11058277Y-11178936D02*
X11048753Y-11159889D01*
X11048753Y-11159889D02*
X11039229Y-11121793D01*
X11039229Y-11121793D02*
X11039229Y-11074174D01*
X11039229Y-11074174D02*
X11048753Y-11036079D01*
X11048753Y-11036079D02*
X11058277Y-11017031D01*
X11058277Y-11017031D02*
X11067801Y-11007508D01*
X11067801Y-11007508D02*
X11086848Y-10997984D01*
X11220182Y-10997984D02*
X11343991Y-10997984D01*
X11343991Y-10997984D02*
X11277325Y-11074174D01*
X11277325Y-11074174D02*
X11305896Y-11074174D01*
X11305896Y-11074174D02*
X11324944Y-11083698D01*
X11324944Y-11083698D02*
X11334467Y-11093222D01*
X11334467Y-11093222D02*
X11343991Y-11112270D01*
X11343991Y-11112270D02*
X11343991Y-11159889D01*
X11343991Y-11159889D02*
X11334467Y-11178936D01*
X11334467Y-11178936D02*
X11324944Y-11188460D01*
X11324944Y-11188460D02*
X11305896Y-11197984D01*
X11305896Y-11197984D02*
X11248753Y-11197984D01*
X11248753Y-11197984D02*
X11229706Y-11188460D01*
X11229706Y-11188460D02*
X11220182Y-11178936D01*
X11439229Y-11197984D02*
X11477325Y-11197984D01*
X11477325Y-11197984D02*
X11496372Y-11188460D01*
X11496372Y-11188460D02*
X11505896Y-11178936D01*
X11505896Y-11178936D02*
X11524944Y-11150365D01*
X11524944Y-11150365D02*
X11534467Y-11112270D01*
X11534467Y-11112270D02*
X11534467Y-11036079D01*
X11534467Y-11036079D02*
X11524944Y-11017031D01*
X11524944Y-11017031D02*
X11515420Y-11007508D01*
X11515420Y-11007508D02*
X11496372Y-10997984D01*
X11496372Y-10997984D02*
X11458277Y-10997984D01*
X11458277Y-10997984D02*
X11439229Y-11007508D01*
X11439229Y-11007508D02*
X11429706Y-11017031D01*
X11429706Y-11017031D02*
X11420182Y-11036079D01*
X11420182Y-11036079D02*
X11420182Y-11083698D01*
X11420182Y-11083698D02*
X11429706Y-11102746D01*
X11429706Y-11102746D02*
X11439229Y-11112270D01*
X11439229Y-11112270D02*
X11458277Y-11121793D01*
X11458277Y-11121793D02*
X11496372Y-11121793D01*
X11496372Y-11121793D02*
X11515420Y-11112270D01*
X11515420Y-11112270D02*
X11524944Y-11102746D01*
X11524944Y-11102746D02*
X11534467Y-11083698D01*
X11705896Y-11064650D02*
X11705896Y-11197984D01*
X11658277Y-10988460D02*
X11610658Y-11131317D01*
X11610658Y-11131317D02*
X11734467Y-11131317D01*
X11801134Y-10997984D02*
X11801134Y-11036079D01*
X11877325Y-10997984D02*
X11877325Y-11036079D01*
X12172563Y-11274174D02*
X12163039Y-11264650D01*
X12163039Y-11264650D02*
X12143991Y-11236079D01*
X12143991Y-11236079D02*
X12134468Y-11217031D01*
X12134468Y-11217031D02*
X12124944Y-11188460D01*
X12124944Y-11188460D02*
X12115420Y-11140841D01*
X12115420Y-11140841D02*
X12115420Y-11102746D01*
X12115420Y-11102746D02*
X12124944Y-11055127D01*
X12124944Y-11055127D02*
X12134468Y-11026555D01*
X12134468Y-11026555D02*
X12143991Y-11007508D01*
X12143991Y-11007508D02*
X12163039Y-10978936D01*
X12163039Y-10978936D02*
X12172563Y-10969412D01*
X12334468Y-10997984D02*
X12296372Y-10997984D01*
X12296372Y-10997984D02*
X12277325Y-11007508D01*
X12277325Y-11007508D02*
X12267801Y-11017031D01*
X12267801Y-11017031D02*
X12248753Y-11045603D01*
X12248753Y-11045603D02*
X12239229Y-11083698D01*
X12239229Y-11083698D02*
X12239229Y-11159889D01*
X12239229Y-11159889D02*
X12248753Y-11178936D01*
X12248753Y-11178936D02*
X12258277Y-11188460D01*
X12258277Y-11188460D02*
X12277325Y-11197984D01*
X12277325Y-11197984D02*
X12315420Y-11197984D01*
X12315420Y-11197984D02*
X12334468Y-11188460D01*
X12334468Y-11188460D02*
X12343991Y-11178936D01*
X12343991Y-11178936D02*
X12353515Y-11159889D01*
X12353515Y-11159889D02*
X12353515Y-11112270D01*
X12353515Y-11112270D02*
X12343991Y-11093222D01*
X12343991Y-11093222D02*
X12334468Y-11083698D01*
X12334468Y-11083698D02*
X12315420Y-11074174D01*
X12315420Y-11074174D02*
X12277325Y-11074174D01*
X12277325Y-11074174D02*
X12258277Y-11083698D01*
X12258277Y-11083698D02*
X12248753Y-11093222D01*
X12248753Y-11093222D02*
X12239229Y-11112270D01*
X12591610Y-11197984D02*
X12591610Y-10997984D01*
X12677325Y-11197984D02*
X12677325Y-11093222D01*
X12677325Y-11093222D02*
X12667801Y-11074174D01*
X12667801Y-11074174D02*
X12648753Y-11064650D01*
X12648753Y-11064650D02*
X12620182Y-11064650D01*
X12620182Y-11064650D02*
X12601134Y-11074174D01*
X12601134Y-11074174D02*
X12591610Y-11083698D01*
X12801134Y-11197984D02*
X12782087Y-11188460D01*
X12782087Y-11188460D02*
X12772563Y-11178936D01*
X12772563Y-11178936D02*
X12763039Y-11159889D01*
X12763039Y-11159889D02*
X12763039Y-11102746D01*
X12763039Y-11102746D02*
X12772563Y-11083698D01*
X12772563Y-11083698D02*
X12782087Y-11074174D01*
X12782087Y-11074174D02*
X12801134Y-11064650D01*
X12801134Y-11064650D02*
X12829706Y-11064650D01*
X12829706Y-11064650D02*
X12848753Y-11074174D01*
X12848753Y-11074174D02*
X12858277Y-11083698D01*
X12858277Y-11083698D02*
X12867801Y-11102746D01*
X12867801Y-11102746D02*
X12867801Y-11159889D01*
X12867801Y-11159889D02*
X12858277Y-11178936D01*
X12858277Y-11178936D02*
X12848753Y-11188460D01*
X12848753Y-11188460D02*
X12829706Y-11197984D01*
X12829706Y-11197984D02*
X12801134Y-11197984D01*
X12982087Y-11197984D02*
X12963039Y-11188460D01*
X12963039Y-11188460D02*
X12953515Y-11169412D01*
X12953515Y-11169412D02*
X12953515Y-10997984D01*
X13134468Y-11188460D02*
X13115420Y-11197984D01*
X13115420Y-11197984D02*
X13077325Y-11197984D01*
X13077325Y-11197984D02*
X13058277Y-11188460D01*
X13058277Y-11188460D02*
X13048753Y-11169412D01*
X13048753Y-11169412D02*
X13048753Y-11093222D01*
X13048753Y-11093222D02*
X13058277Y-11074174D01*
X13058277Y-11074174D02*
X13077325Y-11064650D01*
X13077325Y-11064650D02*
X13115420Y-11064650D01*
X13115420Y-11064650D02*
X13134468Y-11074174D01*
X13134468Y-11074174D02*
X13143991Y-11093222D01*
X13143991Y-11093222D02*
X13143991Y-11112270D01*
X13143991Y-11112270D02*
X13048753Y-11131317D01*
X13220182Y-11188460D02*
X13239230Y-11197984D01*
X13239230Y-11197984D02*
X13277325Y-11197984D01*
X13277325Y-11197984D02*
X13296372Y-11188460D01*
X13296372Y-11188460D02*
X13305896Y-11169412D01*
X13305896Y-11169412D02*
X13305896Y-11159889D01*
X13305896Y-11159889D02*
X13296372Y-11140841D01*
X13296372Y-11140841D02*
X13277325Y-11131317D01*
X13277325Y-11131317D02*
X13248753Y-11131317D01*
X13248753Y-11131317D02*
X13229706Y-11121793D01*
X13229706Y-11121793D02*
X13220182Y-11102746D01*
X13220182Y-11102746D02*
X13220182Y-11093222D01*
X13220182Y-11093222D02*
X13229706Y-11074174D01*
X13229706Y-11074174D02*
X13248753Y-11064650D01*
X13248753Y-11064650D02*
X13277325Y-11064650D01*
X13277325Y-11064650D02*
X13296372Y-11074174D01*
X13372563Y-11274174D02*
X13382087Y-11264650D01*
X13382087Y-11264650D02*
X13401134Y-11236079D01*
X13401134Y-11236079D02*
X13410658Y-11217031D01*
X13410658Y-11217031D02*
X13420182Y-11188460D01*
X13420182Y-11188460D02*
X13429706Y-11140841D01*
X13429706Y-11140841D02*
X13429706Y-11102746D01*
X13429706Y-11102746D02*
X13420182Y-11055127D01*
X13420182Y-11055127D02*
X13410658Y-11026555D01*
X13410658Y-11026555D02*
X13401134Y-11007508D01*
X13401134Y-11007508D02*
X13382087Y-10978936D01*
X13382087Y-10978936D02*
X13372563Y-10969412D01*
D13*
X8542500Y-11315500D02*
X8542500Y-11425500D01*
X8487500Y-11370500D02*
X8597500Y-11370500D01*
D11*
X8963039Y-11461984D02*
X8848753Y-11461984D01*
X8905896Y-11461984D02*
X8905896Y-11261984D01*
X8905896Y-11261984D02*
X8886848Y-11290555D01*
X8886848Y-11290555D02*
X8867801Y-11309603D01*
X8867801Y-11309603D02*
X8848753Y-11319127D01*
X9048753Y-11442936D02*
X9058277Y-11452460D01*
X9058277Y-11452460D02*
X9048753Y-11461984D01*
X9048753Y-11461984D02*
X9039229Y-11452460D01*
X9039229Y-11452460D02*
X9048753Y-11442936D01*
X9048753Y-11442936D02*
X9048753Y-11461984D01*
X9248753Y-11461984D02*
X9134467Y-11461984D01*
X9191610Y-11461984D02*
X9191610Y-11261984D01*
X9191610Y-11261984D02*
X9172563Y-11290555D01*
X9172563Y-11290555D02*
X9153515Y-11309603D01*
X9153515Y-11309603D02*
X9134467Y-11319127D01*
X9372563Y-11261984D02*
X9391610Y-11261984D01*
X9391610Y-11261984D02*
X9410658Y-11271508D01*
X9410658Y-11271508D02*
X9420182Y-11281031D01*
X9420182Y-11281031D02*
X9429705Y-11300079D01*
X9429705Y-11300079D02*
X9439229Y-11338174D01*
X9439229Y-11338174D02*
X9439229Y-11385793D01*
X9439229Y-11385793D02*
X9429705Y-11423888D01*
X9429705Y-11423888D02*
X9420182Y-11442936D01*
X9420182Y-11442936D02*
X9410658Y-11452460D01*
X9410658Y-11452460D02*
X9391610Y-11461984D01*
X9391610Y-11461984D02*
X9372563Y-11461984D01*
X9372563Y-11461984D02*
X9353515Y-11452460D01*
X9353515Y-11452460D02*
X9343991Y-11442936D01*
X9343991Y-11442936D02*
X9334467Y-11423888D01*
X9334467Y-11423888D02*
X9324944Y-11385793D01*
X9324944Y-11385793D02*
X9324944Y-11338174D01*
X9324944Y-11338174D02*
X9334467Y-11300079D01*
X9334467Y-11300079D02*
X9343991Y-11281031D01*
X9343991Y-11281031D02*
X9353515Y-11271508D01*
X9353515Y-11271508D02*
X9372563Y-11261984D01*
X9563039Y-11261984D02*
X9582086Y-11261984D01*
X9582086Y-11261984D02*
X9601134Y-11271508D01*
X9601134Y-11271508D02*
X9610658Y-11281031D01*
X9610658Y-11281031D02*
X9620182Y-11300079D01*
X9620182Y-11300079D02*
X9629705Y-11338174D01*
X9629705Y-11338174D02*
X9629705Y-11385793D01*
X9629705Y-11385793D02*
X9620182Y-11423888D01*
X9620182Y-11423888D02*
X9610658Y-11442936D01*
X9610658Y-11442936D02*
X9601134Y-11452460D01*
X9601134Y-11452460D02*
X9582086Y-11461984D01*
X9582086Y-11461984D02*
X9563039Y-11461984D01*
X9563039Y-11461984D02*
X9543991Y-11452460D01*
X9543991Y-11452460D02*
X9534467Y-11442936D01*
X9534467Y-11442936D02*
X9524944Y-11423888D01*
X9524944Y-11423888D02*
X9515420Y-11385793D01*
X9515420Y-11385793D02*
X9515420Y-11338174D01*
X9515420Y-11338174D02*
X9524944Y-11300079D01*
X9524944Y-11300079D02*
X9534467Y-11281031D01*
X9534467Y-11281031D02*
X9543991Y-11271508D01*
X9543991Y-11271508D02*
X9563039Y-11261984D01*
X9715420Y-11461984D02*
X9715420Y-11328650D01*
X9715420Y-11347698D02*
X9724944Y-11338174D01*
X9724944Y-11338174D02*
X9743991Y-11328650D01*
X9743991Y-11328650D02*
X9772563Y-11328650D01*
X9772563Y-11328650D02*
X9791610Y-11338174D01*
X9791610Y-11338174D02*
X9801134Y-11357222D01*
X9801134Y-11357222D02*
X9801134Y-11461984D01*
X9801134Y-11357222D02*
X9810658Y-11338174D01*
X9810658Y-11338174D02*
X9829705Y-11328650D01*
X9829705Y-11328650D02*
X9858277Y-11328650D01*
X9858277Y-11328650D02*
X9877325Y-11338174D01*
X9877325Y-11338174D02*
X9886848Y-11357222D01*
X9886848Y-11357222D02*
X9886848Y-11461984D01*
X9982086Y-11461984D02*
X9982086Y-11328650D01*
X9982086Y-11347698D02*
X9991610Y-11338174D01*
X9991610Y-11338174D02*
X10010658Y-11328650D01*
X10010658Y-11328650D02*
X10039229Y-11328650D01*
X10039229Y-11328650D02*
X10058277Y-11338174D01*
X10058277Y-11338174D02*
X10067801Y-11357222D01*
X10067801Y-11357222D02*
X10067801Y-11461984D01*
X10067801Y-11357222D02*
X10077325Y-11338174D01*
X10077325Y-11338174D02*
X10096372Y-11328650D01*
X10096372Y-11328650D02*
X10124944Y-11328650D01*
X10124944Y-11328650D02*
X10143991Y-11338174D01*
X10143991Y-11338174D02*
X10153515Y-11357222D01*
X10153515Y-11357222D02*
X10153515Y-11461984D01*
X10543991Y-11252460D02*
X10372563Y-11509603D01*
X10801134Y-11261984D02*
X10820182Y-11261984D01*
X10820182Y-11261984D02*
X10839229Y-11271508D01*
X10839229Y-11271508D02*
X10848753Y-11281031D01*
X10848753Y-11281031D02*
X10858277Y-11300079D01*
X10858277Y-11300079D02*
X10867801Y-11338174D01*
X10867801Y-11338174D02*
X10867801Y-11385793D01*
X10867801Y-11385793D02*
X10858277Y-11423888D01*
X10858277Y-11423888D02*
X10848753Y-11442936D01*
X10848753Y-11442936D02*
X10839229Y-11452460D01*
X10839229Y-11452460D02*
X10820182Y-11461984D01*
X10820182Y-11461984D02*
X10801134Y-11461984D01*
X10801134Y-11461984D02*
X10782087Y-11452460D01*
X10782087Y-11452460D02*
X10772563Y-11442936D01*
X10772563Y-11442936D02*
X10763039Y-11423888D01*
X10763039Y-11423888D02*
X10753515Y-11385793D01*
X10753515Y-11385793D02*
X10753515Y-11338174D01*
X10753515Y-11338174D02*
X10763039Y-11300079D01*
X10763039Y-11300079D02*
X10772563Y-11281031D01*
X10772563Y-11281031D02*
X10782087Y-11271508D01*
X10782087Y-11271508D02*
X10801134Y-11261984D01*
X10953515Y-11442936D02*
X10963039Y-11452460D01*
X10963039Y-11452460D02*
X10953515Y-11461984D01*
X10953515Y-11461984D02*
X10943991Y-11452460D01*
X10943991Y-11452460D02*
X10953515Y-11442936D01*
X10953515Y-11442936D02*
X10953515Y-11461984D01*
X11086848Y-11261984D02*
X11105896Y-11261984D01*
X11105896Y-11261984D02*
X11124944Y-11271508D01*
X11124944Y-11271508D02*
X11134468Y-11281031D01*
X11134468Y-11281031D02*
X11143991Y-11300079D01*
X11143991Y-11300079D02*
X11153515Y-11338174D01*
X11153515Y-11338174D02*
X11153515Y-11385793D01*
X11153515Y-11385793D02*
X11143991Y-11423888D01*
X11143991Y-11423888D02*
X11134468Y-11442936D01*
X11134468Y-11442936D02*
X11124944Y-11452460D01*
X11124944Y-11452460D02*
X11105896Y-11461984D01*
X11105896Y-11461984D02*
X11086848Y-11461984D01*
X11086848Y-11461984D02*
X11067801Y-11452460D01*
X11067801Y-11452460D02*
X11058277Y-11442936D01*
X11058277Y-11442936D02*
X11048753Y-11423888D01*
X11048753Y-11423888D02*
X11039229Y-11385793D01*
X11039229Y-11385793D02*
X11039229Y-11338174D01*
X11039229Y-11338174D02*
X11048753Y-11300079D01*
X11048753Y-11300079D02*
X11058277Y-11281031D01*
X11058277Y-11281031D02*
X11067801Y-11271508D01*
X11067801Y-11271508D02*
X11086848Y-11261984D01*
X11324944Y-11328650D02*
X11324944Y-11461984D01*
X11277325Y-11252460D02*
X11229706Y-11395317D01*
X11229706Y-11395317D02*
X11353515Y-11395317D01*
X11410658Y-11261984D02*
X11534467Y-11261984D01*
X11534467Y-11261984D02*
X11467801Y-11338174D01*
X11467801Y-11338174D02*
X11496372Y-11338174D01*
X11496372Y-11338174D02*
X11515420Y-11347698D01*
X11515420Y-11347698D02*
X11524944Y-11357222D01*
X11524944Y-11357222D02*
X11534467Y-11376269D01*
X11534467Y-11376269D02*
X11534467Y-11423888D01*
X11534467Y-11423888D02*
X11524944Y-11442936D01*
X11524944Y-11442936D02*
X11515420Y-11452460D01*
X11515420Y-11452460D02*
X11496372Y-11461984D01*
X11496372Y-11461984D02*
X11439229Y-11461984D01*
X11439229Y-11461984D02*
X11420182Y-11452460D01*
X11420182Y-11452460D02*
X11410658Y-11442936D01*
X11601134Y-11261984D02*
X11724944Y-11261984D01*
X11724944Y-11261984D02*
X11658277Y-11338174D01*
X11658277Y-11338174D02*
X11686848Y-11338174D01*
X11686848Y-11338174D02*
X11705896Y-11347698D01*
X11705896Y-11347698D02*
X11715420Y-11357222D01*
X11715420Y-11357222D02*
X11724944Y-11376269D01*
X11724944Y-11376269D02*
X11724944Y-11423888D01*
X11724944Y-11423888D02*
X11715420Y-11442936D01*
X11715420Y-11442936D02*
X11705896Y-11452460D01*
X11705896Y-11452460D02*
X11686848Y-11461984D01*
X11686848Y-11461984D02*
X11629706Y-11461984D01*
X11629706Y-11461984D02*
X11610658Y-11452460D01*
X11610658Y-11452460D02*
X11601134Y-11442936D01*
X11801134Y-11261984D02*
X11801134Y-11300079D01*
X11877325Y-11261984D02*
X11877325Y-11300079D01*
X12172563Y-11538174D02*
X12163039Y-11528650D01*
X12163039Y-11528650D02*
X12143991Y-11500079D01*
X12143991Y-11500079D02*
X12134468Y-11481031D01*
X12134468Y-11481031D02*
X12124944Y-11452460D01*
X12124944Y-11452460D02*
X12115420Y-11404841D01*
X12115420Y-11404841D02*
X12115420Y-11366746D01*
X12115420Y-11366746D02*
X12124944Y-11319127D01*
X12124944Y-11319127D02*
X12134468Y-11290555D01*
X12134468Y-11290555D02*
X12143991Y-11271508D01*
X12143991Y-11271508D02*
X12163039Y-11242936D01*
X12163039Y-11242936D02*
X12172563Y-11233412D01*
X12239229Y-11281031D02*
X12248753Y-11271508D01*
X12248753Y-11271508D02*
X12267801Y-11261984D01*
X12267801Y-11261984D02*
X12315420Y-11261984D01*
X12315420Y-11261984D02*
X12334468Y-11271508D01*
X12334468Y-11271508D02*
X12343991Y-11281031D01*
X12343991Y-11281031D02*
X12353515Y-11300079D01*
X12353515Y-11300079D02*
X12353515Y-11319127D01*
X12353515Y-11319127D02*
X12343991Y-11347698D01*
X12343991Y-11347698D02*
X12229706Y-11461984D01*
X12229706Y-11461984D02*
X12353515Y-11461984D01*
X12591610Y-11461984D02*
X12591610Y-11261984D01*
X12677325Y-11461984D02*
X12677325Y-11357222D01*
X12677325Y-11357222D02*
X12667801Y-11338174D01*
X12667801Y-11338174D02*
X12648753Y-11328650D01*
X12648753Y-11328650D02*
X12620182Y-11328650D01*
X12620182Y-11328650D02*
X12601134Y-11338174D01*
X12601134Y-11338174D02*
X12591610Y-11347698D01*
X12801134Y-11461984D02*
X12782087Y-11452460D01*
X12782087Y-11452460D02*
X12772563Y-11442936D01*
X12772563Y-11442936D02*
X12763039Y-11423888D01*
X12763039Y-11423888D02*
X12763039Y-11366746D01*
X12763039Y-11366746D02*
X12772563Y-11347698D01*
X12772563Y-11347698D02*
X12782087Y-11338174D01*
X12782087Y-11338174D02*
X12801134Y-11328650D01*
X12801134Y-11328650D02*
X12829706Y-11328650D01*
X12829706Y-11328650D02*
X12848753Y-11338174D01*
X12848753Y-11338174D02*
X12858277Y-11347698D01*
X12858277Y-11347698D02*
X12867801Y-11366746D01*
X12867801Y-11366746D02*
X12867801Y-11423888D01*
X12867801Y-11423888D02*
X12858277Y-11442936D01*
X12858277Y-11442936D02*
X12848753Y-11452460D01*
X12848753Y-11452460D02*
X12829706Y-11461984D01*
X12829706Y-11461984D02*
X12801134Y-11461984D01*
X12982087Y-11461984D02*
X12963039Y-11452460D01*
X12963039Y-11452460D02*
X12953515Y-11433412D01*
X12953515Y-11433412D02*
X12953515Y-11261984D01*
X13134468Y-11452460D02*
X13115420Y-11461984D01*
X13115420Y-11461984D02*
X13077325Y-11461984D01*
X13077325Y-11461984D02*
X13058277Y-11452460D01*
X13058277Y-11452460D02*
X13048753Y-11433412D01*
X13048753Y-11433412D02*
X13048753Y-11357222D01*
X13048753Y-11357222D02*
X13058277Y-11338174D01*
X13058277Y-11338174D02*
X13077325Y-11328650D01*
X13077325Y-11328650D02*
X13115420Y-11328650D01*
X13115420Y-11328650D02*
X13134468Y-11338174D01*
X13134468Y-11338174D02*
X13143991Y-11357222D01*
X13143991Y-11357222D02*
X13143991Y-11376269D01*
X13143991Y-11376269D02*
X13048753Y-11395317D01*
X13220182Y-11452460D02*
X13239230Y-11461984D01*
X13239230Y-11461984D02*
X13277325Y-11461984D01*
X13277325Y-11461984D02*
X13296372Y-11452460D01*
X13296372Y-11452460D02*
X13305896Y-11433412D01*
X13305896Y-11433412D02*
X13305896Y-11423888D01*
X13305896Y-11423888D02*
X13296372Y-11404841D01*
X13296372Y-11404841D02*
X13277325Y-11395317D01*
X13277325Y-11395317D02*
X13248753Y-11395317D01*
X13248753Y-11395317D02*
X13229706Y-11385793D01*
X13229706Y-11385793D02*
X13220182Y-11366746D01*
X13220182Y-11366746D02*
X13220182Y-11357222D01*
X13220182Y-11357222D02*
X13229706Y-11338174D01*
X13229706Y-11338174D02*
X13248753Y-11328650D01*
X13248753Y-11328650D02*
X13277325Y-11328650D01*
X13277325Y-11328650D02*
X13296372Y-11338174D01*
X13372563Y-11538174D02*
X13382087Y-11528650D01*
X13382087Y-11528650D02*
X13401134Y-11500079D01*
X13401134Y-11500079D02*
X13410658Y-11481031D01*
X13410658Y-11481031D02*
X13420182Y-11452460D01*
X13420182Y-11452460D02*
X13429706Y-11404841D01*
X13429706Y-11404841D02*
X13429706Y-11366746D01*
X13429706Y-11366746D02*
X13420182Y-11319127D01*
X13420182Y-11319127D02*
X13410658Y-11290555D01*
X13410658Y-11290555D02*
X13401134Y-11271508D01*
X13401134Y-11271508D02*
X13382087Y-11242936D01*
X13382087Y-11242936D02*
X13372563Y-11233412D01*
D14*
X8578462Y-11680462D02*
X8578462Y-11588538D01*
X8486538Y-11588538D01*
X8486538Y-11680462D01*
X8578462Y-11680462D01*
D11*
X8963039Y-11725984D02*
X8848753Y-11725984D01*
X8905896Y-11725984D02*
X8905896Y-11525984D01*
X8905896Y-11525984D02*
X8886848Y-11554555D01*
X8886848Y-11554555D02*
X8867801Y-11573603D01*
X8867801Y-11573603D02*
X8848753Y-11583127D01*
X9048753Y-11706936D02*
X9058277Y-11716460D01*
X9058277Y-11716460D02*
X9048753Y-11725984D01*
X9048753Y-11725984D02*
X9039229Y-11716460D01*
X9039229Y-11716460D02*
X9048753Y-11706936D01*
X9048753Y-11706936D02*
X9048753Y-11725984D01*
X9124944Y-11525984D02*
X9248753Y-11525984D01*
X9248753Y-11525984D02*
X9182086Y-11602174D01*
X9182086Y-11602174D02*
X9210658Y-11602174D01*
X9210658Y-11602174D02*
X9229705Y-11611698D01*
X9229705Y-11611698D02*
X9239229Y-11621222D01*
X9239229Y-11621222D02*
X9248753Y-11640269D01*
X9248753Y-11640269D02*
X9248753Y-11687888D01*
X9248753Y-11687888D02*
X9239229Y-11706936D01*
X9239229Y-11706936D02*
X9229705Y-11716460D01*
X9229705Y-11716460D02*
X9210658Y-11725984D01*
X9210658Y-11725984D02*
X9153515Y-11725984D01*
X9153515Y-11725984D02*
X9134467Y-11716460D01*
X9134467Y-11716460D02*
X9124944Y-11706936D01*
X9372563Y-11525984D02*
X9391610Y-11525984D01*
X9391610Y-11525984D02*
X9410658Y-11535508D01*
X9410658Y-11535508D02*
X9420182Y-11545031D01*
X9420182Y-11545031D02*
X9429705Y-11564079D01*
X9429705Y-11564079D02*
X9439229Y-11602174D01*
X9439229Y-11602174D02*
X9439229Y-11649793D01*
X9439229Y-11649793D02*
X9429705Y-11687888D01*
X9429705Y-11687888D02*
X9420182Y-11706936D01*
X9420182Y-11706936D02*
X9410658Y-11716460D01*
X9410658Y-11716460D02*
X9391610Y-11725984D01*
X9391610Y-11725984D02*
X9372563Y-11725984D01*
X9372563Y-11725984D02*
X9353515Y-11716460D01*
X9353515Y-11716460D02*
X9343991Y-11706936D01*
X9343991Y-11706936D02*
X9334467Y-11687888D01*
X9334467Y-11687888D02*
X9324944Y-11649793D01*
X9324944Y-11649793D02*
X9324944Y-11602174D01*
X9324944Y-11602174D02*
X9334467Y-11564079D01*
X9334467Y-11564079D02*
X9343991Y-11545031D01*
X9343991Y-11545031D02*
X9353515Y-11535508D01*
X9353515Y-11535508D02*
X9372563Y-11525984D01*
X9563039Y-11525984D02*
X9582086Y-11525984D01*
X9582086Y-11525984D02*
X9601134Y-11535508D01*
X9601134Y-11535508D02*
X9610658Y-11545031D01*
X9610658Y-11545031D02*
X9620182Y-11564079D01*
X9620182Y-11564079D02*
X9629705Y-11602174D01*
X9629705Y-11602174D02*
X9629705Y-11649793D01*
X9629705Y-11649793D02*
X9620182Y-11687888D01*
X9620182Y-11687888D02*
X9610658Y-11706936D01*
X9610658Y-11706936D02*
X9601134Y-11716460D01*
X9601134Y-11716460D02*
X9582086Y-11725984D01*
X9582086Y-11725984D02*
X9563039Y-11725984D01*
X9563039Y-11725984D02*
X9543991Y-11716460D01*
X9543991Y-11716460D02*
X9534467Y-11706936D01*
X9534467Y-11706936D02*
X9524944Y-11687888D01*
X9524944Y-11687888D02*
X9515420Y-11649793D01*
X9515420Y-11649793D02*
X9515420Y-11602174D01*
X9515420Y-11602174D02*
X9524944Y-11564079D01*
X9524944Y-11564079D02*
X9534467Y-11545031D01*
X9534467Y-11545031D02*
X9543991Y-11535508D01*
X9543991Y-11535508D02*
X9563039Y-11525984D01*
X9715420Y-11725984D02*
X9715420Y-11592650D01*
X9715420Y-11611698D02*
X9724944Y-11602174D01*
X9724944Y-11602174D02*
X9743991Y-11592650D01*
X9743991Y-11592650D02*
X9772563Y-11592650D01*
X9772563Y-11592650D02*
X9791610Y-11602174D01*
X9791610Y-11602174D02*
X9801134Y-11621222D01*
X9801134Y-11621222D02*
X9801134Y-11725984D01*
X9801134Y-11621222D02*
X9810658Y-11602174D01*
X9810658Y-11602174D02*
X9829705Y-11592650D01*
X9829705Y-11592650D02*
X9858277Y-11592650D01*
X9858277Y-11592650D02*
X9877325Y-11602174D01*
X9877325Y-11602174D02*
X9886848Y-11621222D01*
X9886848Y-11621222D02*
X9886848Y-11725984D01*
X9982086Y-11725984D02*
X9982086Y-11592650D01*
X9982086Y-11611698D02*
X9991610Y-11602174D01*
X9991610Y-11602174D02*
X10010658Y-11592650D01*
X10010658Y-11592650D02*
X10039229Y-11592650D01*
X10039229Y-11592650D02*
X10058277Y-11602174D01*
X10058277Y-11602174D02*
X10067801Y-11621222D01*
X10067801Y-11621222D02*
X10067801Y-11725984D01*
X10067801Y-11621222D02*
X10077325Y-11602174D01*
X10077325Y-11602174D02*
X10096372Y-11592650D01*
X10096372Y-11592650D02*
X10124944Y-11592650D01*
X10124944Y-11592650D02*
X10143991Y-11602174D01*
X10143991Y-11602174D02*
X10153515Y-11621222D01*
X10153515Y-11621222D02*
X10153515Y-11725984D01*
X10543991Y-11516460D02*
X10372563Y-11773603D01*
X10801134Y-11525984D02*
X10820182Y-11525984D01*
X10820182Y-11525984D02*
X10839229Y-11535508D01*
X10839229Y-11535508D02*
X10848753Y-11545031D01*
X10848753Y-11545031D02*
X10858277Y-11564079D01*
X10858277Y-11564079D02*
X10867801Y-11602174D01*
X10867801Y-11602174D02*
X10867801Y-11649793D01*
X10867801Y-11649793D02*
X10858277Y-11687888D01*
X10858277Y-11687888D02*
X10848753Y-11706936D01*
X10848753Y-11706936D02*
X10839229Y-11716460D01*
X10839229Y-11716460D02*
X10820182Y-11725984D01*
X10820182Y-11725984D02*
X10801134Y-11725984D01*
X10801134Y-11725984D02*
X10782087Y-11716460D01*
X10782087Y-11716460D02*
X10772563Y-11706936D01*
X10772563Y-11706936D02*
X10763039Y-11687888D01*
X10763039Y-11687888D02*
X10753515Y-11649793D01*
X10753515Y-11649793D02*
X10753515Y-11602174D01*
X10753515Y-11602174D02*
X10763039Y-11564079D01*
X10763039Y-11564079D02*
X10772563Y-11545031D01*
X10772563Y-11545031D02*
X10782087Y-11535508D01*
X10782087Y-11535508D02*
X10801134Y-11525984D01*
X10953515Y-11706936D02*
X10963039Y-11716460D01*
X10963039Y-11716460D02*
X10953515Y-11725984D01*
X10953515Y-11725984D02*
X10943991Y-11716460D01*
X10943991Y-11716460D02*
X10953515Y-11706936D01*
X10953515Y-11706936D02*
X10953515Y-11725984D01*
X11086848Y-11525984D02*
X11105896Y-11525984D01*
X11105896Y-11525984D02*
X11124944Y-11535508D01*
X11124944Y-11535508D02*
X11134468Y-11545031D01*
X11134468Y-11545031D02*
X11143991Y-11564079D01*
X11143991Y-11564079D02*
X11153515Y-11602174D01*
X11153515Y-11602174D02*
X11153515Y-11649793D01*
X11153515Y-11649793D02*
X11143991Y-11687888D01*
X11143991Y-11687888D02*
X11134468Y-11706936D01*
X11134468Y-11706936D02*
X11124944Y-11716460D01*
X11124944Y-11716460D02*
X11105896Y-11725984D01*
X11105896Y-11725984D02*
X11086848Y-11725984D01*
X11086848Y-11725984D02*
X11067801Y-11716460D01*
X11067801Y-11716460D02*
X11058277Y-11706936D01*
X11058277Y-11706936D02*
X11048753Y-11687888D01*
X11048753Y-11687888D02*
X11039229Y-11649793D01*
X11039229Y-11649793D02*
X11039229Y-11602174D01*
X11039229Y-11602174D02*
X11048753Y-11564079D01*
X11048753Y-11564079D02*
X11058277Y-11545031D01*
X11058277Y-11545031D02*
X11067801Y-11535508D01*
X11067801Y-11535508D02*
X11086848Y-11525984D01*
X11334467Y-11525984D02*
X11239229Y-11525984D01*
X11239229Y-11525984D02*
X11229706Y-11621222D01*
X11229706Y-11621222D02*
X11239229Y-11611698D01*
X11239229Y-11611698D02*
X11258277Y-11602174D01*
X11258277Y-11602174D02*
X11305896Y-11602174D01*
X11305896Y-11602174D02*
X11324944Y-11611698D01*
X11324944Y-11611698D02*
X11334467Y-11621222D01*
X11334467Y-11621222D02*
X11343991Y-11640269D01*
X11343991Y-11640269D02*
X11343991Y-11687888D01*
X11343991Y-11687888D02*
X11334467Y-11706936D01*
X11334467Y-11706936D02*
X11324944Y-11716460D01*
X11324944Y-11716460D02*
X11305896Y-11725984D01*
X11305896Y-11725984D02*
X11258277Y-11725984D01*
X11258277Y-11725984D02*
X11239229Y-11716460D01*
X11239229Y-11716460D02*
X11229706Y-11706936D01*
X11534467Y-11725984D02*
X11420182Y-11725984D01*
X11477325Y-11725984D02*
X11477325Y-11525984D01*
X11477325Y-11525984D02*
X11458277Y-11554555D01*
X11458277Y-11554555D02*
X11439229Y-11573603D01*
X11439229Y-11573603D02*
X11420182Y-11583127D01*
X11610658Y-11545031D02*
X11620182Y-11535508D01*
X11620182Y-11535508D02*
X11639229Y-11525984D01*
X11639229Y-11525984D02*
X11686848Y-11525984D01*
X11686848Y-11525984D02*
X11705896Y-11535508D01*
X11705896Y-11535508D02*
X11715420Y-11545031D01*
X11715420Y-11545031D02*
X11724944Y-11564079D01*
X11724944Y-11564079D02*
X11724944Y-11583127D01*
X11724944Y-11583127D02*
X11715420Y-11611698D01*
X11715420Y-11611698D02*
X11601134Y-11725984D01*
X11601134Y-11725984D02*
X11724944Y-11725984D01*
X11801134Y-11525984D02*
X11801134Y-11564079D01*
X11877325Y-11525984D02*
X11877325Y-11564079D01*
X12172563Y-11802174D02*
X12163039Y-11792650D01*
X12163039Y-11792650D02*
X12143991Y-11764079D01*
X12143991Y-11764079D02*
X12134468Y-11745031D01*
X12134468Y-11745031D02*
X12124944Y-11716460D01*
X12124944Y-11716460D02*
X12115420Y-11668841D01*
X12115420Y-11668841D02*
X12115420Y-11630746D01*
X12115420Y-11630746D02*
X12124944Y-11583127D01*
X12124944Y-11583127D02*
X12134468Y-11554555D01*
X12134468Y-11554555D02*
X12143991Y-11535508D01*
X12143991Y-11535508D02*
X12163039Y-11506936D01*
X12163039Y-11506936D02*
X12172563Y-11497412D01*
X12239229Y-11545031D02*
X12248753Y-11535508D01*
X12248753Y-11535508D02*
X12267801Y-11525984D01*
X12267801Y-11525984D02*
X12315420Y-11525984D01*
X12315420Y-11525984D02*
X12334468Y-11535508D01*
X12334468Y-11535508D02*
X12343991Y-11545031D01*
X12343991Y-11545031D02*
X12353515Y-11564079D01*
X12353515Y-11564079D02*
X12353515Y-11583127D01*
X12353515Y-11583127D02*
X12343991Y-11611698D01*
X12343991Y-11611698D02*
X12229706Y-11725984D01*
X12229706Y-11725984D02*
X12353515Y-11725984D01*
X12591610Y-11725984D02*
X12591610Y-11525984D01*
X12677325Y-11725984D02*
X12677325Y-11621222D01*
X12677325Y-11621222D02*
X12667801Y-11602174D01*
X12667801Y-11602174D02*
X12648753Y-11592650D01*
X12648753Y-11592650D02*
X12620182Y-11592650D01*
X12620182Y-11592650D02*
X12601134Y-11602174D01*
X12601134Y-11602174D02*
X12591610Y-11611698D01*
X12801134Y-11725984D02*
X12782087Y-11716460D01*
X12782087Y-11716460D02*
X12772563Y-11706936D01*
X12772563Y-11706936D02*
X12763039Y-11687888D01*
X12763039Y-11687888D02*
X12763039Y-11630746D01*
X12763039Y-11630746D02*
X12772563Y-11611698D01*
X12772563Y-11611698D02*
X12782087Y-11602174D01*
X12782087Y-11602174D02*
X12801134Y-11592650D01*
X12801134Y-11592650D02*
X12829706Y-11592650D01*
X12829706Y-11592650D02*
X12848753Y-11602174D01*
X12848753Y-11602174D02*
X12858277Y-11611698D01*
X12858277Y-11611698D02*
X12867801Y-11630746D01*
X12867801Y-11630746D02*
X12867801Y-11687888D01*
X12867801Y-11687888D02*
X12858277Y-11706936D01*
X12858277Y-11706936D02*
X12848753Y-11716460D01*
X12848753Y-11716460D02*
X12829706Y-11725984D01*
X12829706Y-11725984D02*
X12801134Y-11725984D01*
X12982087Y-11725984D02*
X12963039Y-11716460D01*
X12963039Y-11716460D02*
X12953515Y-11697412D01*
X12953515Y-11697412D02*
X12953515Y-11525984D01*
X13134468Y-11716460D02*
X13115420Y-11725984D01*
X13115420Y-11725984D02*
X13077325Y-11725984D01*
X13077325Y-11725984D02*
X13058277Y-11716460D01*
X13058277Y-11716460D02*
X13048753Y-11697412D01*
X13048753Y-11697412D02*
X13048753Y-11621222D01*
X13048753Y-11621222D02*
X13058277Y-11602174D01*
X13058277Y-11602174D02*
X13077325Y-11592650D01*
X13077325Y-11592650D02*
X13115420Y-11592650D01*
X13115420Y-11592650D02*
X13134468Y-11602174D01*
X13134468Y-11602174D02*
X13143991Y-11621222D01*
X13143991Y-11621222D02*
X13143991Y-11640269D01*
X13143991Y-11640269D02*
X13048753Y-11659317D01*
X13220182Y-11716460D02*
X13239230Y-11725984D01*
X13239230Y-11725984D02*
X13277325Y-11725984D01*
X13277325Y-11725984D02*
X13296372Y-11716460D01*
X13296372Y-11716460D02*
X13305896Y-11697412D01*
X13305896Y-11697412D02*
X13305896Y-11687888D01*
X13305896Y-11687888D02*
X13296372Y-11668841D01*
X13296372Y-11668841D02*
X13277325Y-11659317D01*
X13277325Y-11659317D02*
X13248753Y-11659317D01*
X13248753Y-11659317D02*
X13229706Y-11649793D01*
X13229706Y-11649793D02*
X13220182Y-11630746D01*
X13220182Y-11630746D02*
X13220182Y-11621222D01*
X13220182Y-11621222D02*
X13229706Y-11602174D01*
X13229706Y-11602174D02*
X13248753Y-11592650D01*
X13248753Y-11592650D02*
X13277325Y-11592650D01*
X13277325Y-11592650D02*
X13296372Y-11602174D01*
X13372563Y-11802174D02*
X13382087Y-11792650D01*
X13382087Y-11792650D02*
X13401134Y-11764079D01*
X13401134Y-11764079D02*
X13410658Y-11745031D01*
X13410658Y-11745031D02*
X13420182Y-11716460D01*
X13420182Y-11716460D02*
X13429706Y-11668841D01*
X13429706Y-11668841D02*
X13429706Y-11630746D01*
X13429706Y-11630746D02*
X13420182Y-11583127D01*
X13420182Y-11583127D02*
X13410658Y-11554555D01*
X13410658Y-11554555D02*
X13401134Y-11535508D01*
X13401134Y-11535508D02*
X13382087Y-11506936D01*
X13382087Y-11506936D02*
X13372563Y-11497412D01*
M02*
