%TF.GenerationSoftware,KiCad,Pcbnew,8.0.8*%
%TF.CreationDate,2025-06-29T12:48:05+09:00*%
%TF.ProjectId,NJM2374A_Boost,4e4a4d32-3337-4344-915f-426f6f73742e,rev?*%
%TF.SameCoordinates,Original*%
%TF.FileFunction,Drillmap*%
%TF.FilePolarity,Positive*%
%FSLAX45Y45*%
G04 Gerber Fmt 4.5, Leading zero omitted, Abs format (unit mm)*
G04 Created by KiCad (PCBNEW 8.0.8) date 2025-06-29 12:48:05*
%MOMM*%
%LPD*%
G01*
G04 APERTURE LIST*
%ADD10C,0.050000*%
%ADD11C,0.200000*%
G04 APERTURE END LIST*
D10*
X14200000Y-7800000D02*
G75*
G02*
X13880000Y-7800000I-160000J0D01*
G01*
X13880000Y-7800000D02*
G75*
G02*
X14200000Y-7800000I160000J0D01*
G01*
X9160000Y-7800000D02*
G75*
G02*
X8840000Y-7800000I-160000J0D01*
G01*
X8840000Y-7800000D02*
G75*
G02*
X9160000Y-7800000I160000J0D01*
G01*
X8600000Y-7500000D02*
X14300000Y-7500000D01*
X14300000Y-7500000D02*
X14300000Y-10200000D01*
X8600000Y-10200000D02*
X8600000Y-7500000D01*
X14300000Y-10200000D02*
X8600000Y-10200000D01*
X14200000Y-9900000D02*
G75*
G02*
X13880000Y-9900000I-160000J0D01*
G01*
X13880000Y-9900000D02*
G75*
G02*
X14200000Y-9900000I160000J0D01*
G01*
X9160000Y-9900000D02*
G75*
G02*
X8840000Y-9900000I-160000J0D01*
G01*
X8840000Y-9900000D02*
G75*
G02*
X9160000Y-9900000I160000J0D01*
G01*
D11*
X8858277Y-10513984D02*
X8858277Y-10313984D01*
X8858277Y-10313984D02*
X8905896Y-10313984D01*
X8905896Y-10313984D02*
X8934467Y-10323508D01*
X8934467Y-10323508D02*
X8953515Y-10342555D01*
X8953515Y-10342555D02*
X8963039Y-10361603D01*
X8963039Y-10361603D02*
X8972563Y-10399698D01*
X8972563Y-10399698D02*
X8972563Y-10428270D01*
X8972563Y-10428270D02*
X8963039Y-10466365D01*
X8963039Y-10466365D02*
X8953515Y-10485412D01*
X8953515Y-10485412D02*
X8934467Y-10504460D01*
X8934467Y-10504460D02*
X8905896Y-10513984D01*
X8905896Y-10513984D02*
X8858277Y-10513984D01*
X9058277Y-10513984D02*
X9058277Y-10380650D01*
X9058277Y-10418746D02*
X9067801Y-10399698D01*
X9067801Y-10399698D02*
X9077324Y-10390174D01*
X9077324Y-10390174D02*
X9096372Y-10380650D01*
X9096372Y-10380650D02*
X9115420Y-10380650D01*
X9182086Y-10513984D02*
X9182086Y-10380650D01*
X9182086Y-10313984D02*
X9172563Y-10323508D01*
X9172563Y-10323508D02*
X9182086Y-10333031D01*
X9182086Y-10333031D02*
X9191610Y-10323508D01*
X9191610Y-10323508D02*
X9182086Y-10313984D01*
X9182086Y-10313984D02*
X9182086Y-10333031D01*
X9305896Y-10513984D02*
X9286848Y-10504460D01*
X9286848Y-10504460D02*
X9277324Y-10485412D01*
X9277324Y-10485412D02*
X9277324Y-10313984D01*
X9410658Y-10513984D02*
X9391610Y-10504460D01*
X9391610Y-10504460D02*
X9382086Y-10485412D01*
X9382086Y-10485412D02*
X9382086Y-10313984D01*
X9639229Y-10513984D02*
X9639229Y-10313984D01*
X9639229Y-10313984D02*
X9705896Y-10456841D01*
X9705896Y-10456841D02*
X9772563Y-10313984D01*
X9772563Y-10313984D02*
X9772563Y-10513984D01*
X9953515Y-10513984D02*
X9953515Y-10409222D01*
X9953515Y-10409222D02*
X9943991Y-10390174D01*
X9943991Y-10390174D02*
X9924944Y-10380650D01*
X9924944Y-10380650D02*
X9886848Y-10380650D01*
X9886848Y-10380650D02*
X9867801Y-10390174D01*
X9953515Y-10504460D02*
X9934467Y-10513984D01*
X9934467Y-10513984D02*
X9886848Y-10513984D01*
X9886848Y-10513984D02*
X9867801Y-10504460D01*
X9867801Y-10504460D02*
X9858277Y-10485412D01*
X9858277Y-10485412D02*
X9858277Y-10466365D01*
X9858277Y-10466365D02*
X9867801Y-10447317D01*
X9867801Y-10447317D02*
X9886848Y-10437793D01*
X9886848Y-10437793D02*
X9934467Y-10437793D01*
X9934467Y-10437793D02*
X9953515Y-10428270D01*
X10048753Y-10380650D02*
X10048753Y-10580650D01*
X10048753Y-10390174D02*
X10067801Y-10380650D01*
X10067801Y-10380650D02*
X10105896Y-10380650D01*
X10105896Y-10380650D02*
X10124944Y-10390174D01*
X10124944Y-10390174D02*
X10134467Y-10399698D01*
X10134467Y-10399698D02*
X10143991Y-10418746D01*
X10143991Y-10418746D02*
X10143991Y-10475889D01*
X10143991Y-10475889D02*
X10134467Y-10494936D01*
X10134467Y-10494936D02*
X10124944Y-10504460D01*
X10124944Y-10504460D02*
X10105896Y-10513984D01*
X10105896Y-10513984D02*
X10067801Y-10513984D01*
X10067801Y-10513984D02*
X10048753Y-10504460D01*
X10229705Y-10494936D02*
X10239229Y-10504460D01*
X10239229Y-10504460D02*
X10229705Y-10513984D01*
X10229705Y-10513984D02*
X10220182Y-10504460D01*
X10220182Y-10504460D02*
X10229705Y-10494936D01*
X10229705Y-10494936D02*
X10229705Y-10513984D01*
X10229705Y-10390174D02*
X10239229Y-10399698D01*
X10239229Y-10399698D02*
X10229705Y-10409222D01*
X10229705Y-10409222D02*
X10220182Y-10399698D01*
X10220182Y-10399698D02*
X10229705Y-10390174D01*
X10229705Y-10390174D02*
X10229705Y-10409222D01*
M02*
