%TF.GenerationSoftware,KiCad,Pcbnew,9.0.3*%
%TF.CreationDate,2025-09-21T10:38:42+09:00*%
%TF.ProjectId,SynthBoard,53796e74-6842-46f6-9172-642e6b696361,rev?*%
%TF.SameCoordinates,Original*%
%TF.FileFunction,Paste,Top*%
%TF.FilePolarity,Positive*%
%FSLAX46Y46*%
G04 Gerber Fmt 4.6, Leading zero omitted, Abs format (unit mm)*
G04 Created by KiCad (PCBNEW 9.0.3) date 2025-09-21 10:38:42*
%MOMM*%
%LPD*%
G01*
G04 APERTURE LIST*
G04 Aperture macros list*
%AMRoundRect*
0 Rectangle with rounded corners*
0 $1 Rounding radius*
0 $2 $3 $4 $5 $6 $7 $8 $9 X,Y pos of 4 corners*
0 Add a 4 corners polygon primitive as box body*
4,1,4,$2,$3,$4,$5,$6,$7,$8,$9,$2,$3,0*
0 Add four circle primitives for the rounded corners*
1,1,$1+$1,$2,$3*
1,1,$1+$1,$4,$5*
1,1,$1+$1,$6,$7*
1,1,$1+$1,$8,$9*
0 Add four rect primitives between the rounded corners*
20,1,$1+$1,$2,$3,$4,$5,0*
20,1,$1+$1,$4,$5,$6,$7,0*
20,1,$1+$1,$6,$7,$8,$9,0*
20,1,$1+$1,$8,$9,$2,$3,0*%
G04 Aperture macros list end*
%ADD10C,0.100000*%
%ADD11C,0.150000*%
%ADD12C,0.300000*%
%ADD13C,0.400000*%
%ADD14RoundRect,0.250000X-0.350000X-0.450000X0.350000X-0.450000X0.350000X0.450000X-0.350000X0.450000X0*%
%ADD15R,0.600000X1.100000*%
%ADD16R,1.100000X0.600000*%
%ADD17RoundRect,0.250000X0.337500X0.475000X-0.337500X0.475000X-0.337500X-0.475000X0.337500X-0.475000X0*%
%ADD18RoundRect,0.250000X0.450000X-0.350000X0.450000X0.350000X-0.450000X0.350000X-0.450000X-0.350000X0*%
%ADD19RoundRect,0.250000X0.350000X0.450000X-0.350000X0.450000X-0.350000X-0.450000X0.350000X-0.450000X0*%
%ADD20RoundRect,0.250000X-0.337500X-0.475000X0.337500X-0.475000X0.337500X0.475000X-0.337500X0.475000X0*%
%ADD21RoundRect,0.150000X-0.825000X-0.150000X0.825000X-0.150000X0.825000X0.150000X-0.825000X0.150000X0*%
%ADD22RoundRect,0.250000X0.650000X-0.412500X0.650000X0.412500X-0.650000X0.412500X-0.650000X-0.412500X0*%
%ADD23RoundRect,0.150000X-0.850000X-0.150000X0.850000X-0.150000X0.850000X0.150000X-0.850000X0.150000X0*%
%ADD24C,1.600000*%
%ADD25RoundRect,0.225000X-0.225000X-0.375000X0.225000X-0.375000X0.225000X0.375000X-0.225000X0.375000X0*%
%ADD26RoundRect,0.250000X-0.450000X0.350000X-0.450000X-0.350000X0.450000X-0.350000X0.450000X0.350000X0*%
%ADD27RoundRect,0.250000X-0.412500X-0.650000X0.412500X-0.650000X0.412500X0.650000X-0.412500X0.650000X0*%
%ADD28RoundRect,0.250000X0.475000X-0.337500X0.475000X0.337500X-0.475000X0.337500X-0.475000X-0.337500X0*%
%ADD29R,1.200000X0.600000*%
%ADD30RoundRect,0.225000X0.225000X0.375000X-0.225000X0.375000X-0.225000X-0.375000X0.225000X-0.375000X0*%
%ADD31RoundRect,0.250000X0.412500X0.650000X-0.412500X0.650000X-0.412500X-0.650000X0.412500X-0.650000X0*%
G04 APERTURE END LIST*
D10*
D11*
X299989000Y-253002200D02*
X407989000Y-253002200D01*
X407989000Y-285002200D01*
X299989000Y-285002200D01*
X299989000Y-253002200D01*
D10*
D11*
X10000000Y-10000000D02*
X409989000Y-10000000D01*
X409989000Y-287002200D01*
X10000000Y-287002200D01*
X10000000Y-10000000D01*
D10*
D11*
X12000000Y-12000000D02*
X407989000Y-12000000D01*
X407989000Y-285002200D01*
X12000000Y-285002200D01*
X12000000Y-12000000D01*
D10*
D11*
X60000000Y-12000000D02*
X60000000Y-10000000D01*
D10*
D11*
X110000000Y-12000000D02*
X110000000Y-10000000D01*
D10*
D11*
X160000000Y-12000000D02*
X160000000Y-10000000D01*
D10*
D11*
X210000000Y-12000000D02*
X210000000Y-10000000D01*
D10*
D11*
X260000000Y-12000000D02*
X260000000Y-10000000D01*
D10*
D11*
X310000000Y-12000000D02*
X310000000Y-10000000D01*
D10*
D11*
X360000000Y-12000000D02*
X360000000Y-10000000D01*
D10*
D11*
X36089160Y-11593604D02*
X35346303Y-11593604D01*
X35717731Y-11593604D02*
X35717731Y-10293604D01*
X35717731Y-10293604D02*
X35593922Y-10479319D01*
X35593922Y-10479319D02*
X35470112Y-10603128D01*
X35470112Y-10603128D02*
X35346303Y-10665033D01*
D10*
D11*
X85346303Y-10417414D02*
X85408207Y-10355509D01*
X85408207Y-10355509D02*
X85532017Y-10293604D01*
X85532017Y-10293604D02*
X85841541Y-10293604D01*
X85841541Y-10293604D02*
X85965350Y-10355509D01*
X85965350Y-10355509D02*
X86027255Y-10417414D01*
X86027255Y-10417414D02*
X86089160Y-10541223D01*
X86089160Y-10541223D02*
X86089160Y-10665033D01*
X86089160Y-10665033D02*
X86027255Y-10850747D01*
X86027255Y-10850747D02*
X85284398Y-11593604D01*
X85284398Y-11593604D02*
X86089160Y-11593604D01*
D10*
D11*
X135284398Y-10293604D02*
X136089160Y-10293604D01*
X136089160Y-10293604D02*
X135655826Y-10788842D01*
X135655826Y-10788842D02*
X135841541Y-10788842D01*
X135841541Y-10788842D02*
X135965350Y-10850747D01*
X135965350Y-10850747D02*
X136027255Y-10912652D01*
X136027255Y-10912652D02*
X136089160Y-11036461D01*
X136089160Y-11036461D02*
X136089160Y-11345985D01*
X136089160Y-11345985D02*
X136027255Y-11469795D01*
X136027255Y-11469795D02*
X135965350Y-11531700D01*
X135965350Y-11531700D02*
X135841541Y-11593604D01*
X135841541Y-11593604D02*
X135470112Y-11593604D01*
X135470112Y-11593604D02*
X135346303Y-11531700D01*
X135346303Y-11531700D02*
X135284398Y-11469795D01*
D10*
D11*
X185965350Y-10726938D02*
X185965350Y-11593604D01*
X185655826Y-10231700D02*
X185346303Y-11160271D01*
X185346303Y-11160271D02*
X186151064Y-11160271D01*
D10*
D11*
X236027255Y-10293604D02*
X235408207Y-10293604D01*
X235408207Y-10293604D02*
X235346303Y-10912652D01*
X235346303Y-10912652D02*
X235408207Y-10850747D01*
X235408207Y-10850747D02*
X235532017Y-10788842D01*
X235532017Y-10788842D02*
X235841541Y-10788842D01*
X235841541Y-10788842D02*
X235965350Y-10850747D01*
X235965350Y-10850747D02*
X236027255Y-10912652D01*
X236027255Y-10912652D02*
X236089160Y-11036461D01*
X236089160Y-11036461D02*
X236089160Y-11345985D01*
X236089160Y-11345985D02*
X236027255Y-11469795D01*
X236027255Y-11469795D02*
X235965350Y-11531700D01*
X235965350Y-11531700D02*
X235841541Y-11593604D01*
X235841541Y-11593604D02*
X235532017Y-11593604D01*
X235532017Y-11593604D02*
X235408207Y-11531700D01*
X235408207Y-11531700D02*
X235346303Y-11469795D01*
D10*
D11*
X285965350Y-10293604D02*
X285717731Y-10293604D01*
X285717731Y-10293604D02*
X285593922Y-10355509D01*
X285593922Y-10355509D02*
X285532017Y-10417414D01*
X285532017Y-10417414D02*
X285408207Y-10603128D01*
X285408207Y-10603128D02*
X285346303Y-10850747D01*
X285346303Y-10850747D02*
X285346303Y-11345985D01*
X285346303Y-11345985D02*
X285408207Y-11469795D01*
X285408207Y-11469795D02*
X285470112Y-11531700D01*
X285470112Y-11531700D02*
X285593922Y-11593604D01*
X285593922Y-11593604D02*
X285841541Y-11593604D01*
X285841541Y-11593604D02*
X285965350Y-11531700D01*
X285965350Y-11531700D02*
X286027255Y-11469795D01*
X286027255Y-11469795D02*
X286089160Y-11345985D01*
X286089160Y-11345985D02*
X286089160Y-11036461D01*
X286089160Y-11036461D02*
X286027255Y-10912652D01*
X286027255Y-10912652D02*
X285965350Y-10850747D01*
X285965350Y-10850747D02*
X285841541Y-10788842D01*
X285841541Y-10788842D02*
X285593922Y-10788842D01*
X285593922Y-10788842D02*
X285470112Y-10850747D01*
X285470112Y-10850747D02*
X285408207Y-10912652D01*
X285408207Y-10912652D02*
X285346303Y-11036461D01*
D10*
D11*
X335284398Y-10293604D02*
X336151064Y-10293604D01*
X336151064Y-10293604D02*
X335593922Y-11593604D01*
D10*
D11*
X385593922Y-10850747D02*
X385470112Y-10788842D01*
X385470112Y-10788842D02*
X385408207Y-10726938D01*
X385408207Y-10726938D02*
X385346303Y-10603128D01*
X385346303Y-10603128D02*
X385346303Y-10541223D01*
X385346303Y-10541223D02*
X385408207Y-10417414D01*
X385408207Y-10417414D02*
X385470112Y-10355509D01*
X385470112Y-10355509D02*
X385593922Y-10293604D01*
X385593922Y-10293604D02*
X385841541Y-10293604D01*
X385841541Y-10293604D02*
X385965350Y-10355509D01*
X385965350Y-10355509D02*
X386027255Y-10417414D01*
X386027255Y-10417414D02*
X386089160Y-10541223D01*
X386089160Y-10541223D02*
X386089160Y-10603128D01*
X386089160Y-10603128D02*
X386027255Y-10726938D01*
X386027255Y-10726938D02*
X385965350Y-10788842D01*
X385965350Y-10788842D02*
X385841541Y-10850747D01*
X385841541Y-10850747D02*
X385593922Y-10850747D01*
X385593922Y-10850747D02*
X385470112Y-10912652D01*
X385470112Y-10912652D02*
X385408207Y-10974557D01*
X385408207Y-10974557D02*
X385346303Y-11098366D01*
X385346303Y-11098366D02*
X385346303Y-11345985D01*
X385346303Y-11345985D02*
X385408207Y-11469795D01*
X385408207Y-11469795D02*
X385470112Y-11531700D01*
X385470112Y-11531700D02*
X385593922Y-11593604D01*
X385593922Y-11593604D02*
X385841541Y-11593604D01*
X385841541Y-11593604D02*
X385965350Y-11531700D01*
X385965350Y-11531700D02*
X386027255Y-11469795D01*
X386027255Y-11469795D02*
X386089160Y-11345985D01*
X386089160Y-11345985D02*
X386089160Y-11098366D01*
X386089160Y-11098366D02*
X386027255Y-10974557D01*
X386027255Y-10974557D02*
X385965350Y-10912652D01*
X385965350Y-10912652D02*
X385841541Y-10850747D01*
D10*
D11*
X60000000Y-285002200D02*
X60000000Y-287002200D01*
D10*
D11*
X110000000Y-285002200D02*
X110000000Y-287002200D01*
D10*
D11*
X160000000Y-285002200D02*
X160000000Y-287002200D01*
D10*
D11*
X210000000Y-285002200D02*
X210000000Y-287002200D01*
D10*
D11*
X260000000Y-285002200D02*
X260000000Y-287002200D01*
D10*
D11*
X310000000Y-285002200D02*
X310000000Y-287002200D01*
D10*
D11*
X360000000Y-285002200D02*
X360000000Y-287002200D01*
D10*
D11*
X36089160Y-286595804D02*
X35346303Y-286595804D01*
X35717731Y-286595804D02*
X35717731Y-285295804D01*
X35717731Y-285295804D02*
X35593922Y-285481519D01*
X35593922Y-285481519D02*
X35470112Y-285605328D01*
X35470112Y-285605328D02*
X35346303Y-285667233D01*
D10*
D11*
X85346303Y-285419614D02*
X85408207Y-285357709D01*
X85408207Y-285357709D02*
X85532017Y-285295804D01*
X85532017Y-285295804D02*
X85841541Y-285295804D01*
X85841541Y-285295804D02*
X85965350Y-285357709D01*
X85965350Y-285357709D02*
X86027255Y-285419614D01*
X86027255Y-285419614D02*
X86089160Y-285543423D01*
X86089160Y-285543423D02*
X86089160Y-285667233D01*
X86089160Y-285667233D02*
X86027255Y-285852947D01*
X86027255Y-285852947D02*
X85284398Y-286595804D01*
X85284398Y-286595804D02*
X86089160Y-286595804D01*
D10*
D11*
X135284398Y-285295804D02*
X136089160Y-285295804D01*
X136089160Y-285295804D02*
X135655826Y-285791042D01*
X135655826Y-285791042D02*
X135841541Y-285791042D01*
X135841541Y-285791042D02*
X135965350Y-285852947D01*
X135965350Y-285852947D02*
X136027255Y-285914852D01*
X136027255Y-285914852D02*
X136089160Y-286038661D01*
X136089160Y-286038661D02*
X136089160Y-286348185D01*
X136089160Y-286348185D02*
X136027255Y-286471995D01*
X136027255Y-286471995D02*
X135965350Y-286533900D01*
X135965350Y-286533900D02*
X135841541Y-286595804D01*
X135841541Y-286595804D02*
X135470112Y-286595804D01*
X135470112Y-286595804D02*
X135346303Y-286533900D01*
X135346303Y-286533900D02*
X135284398Y-286471995D01*
D10*
D11*
X185965350Y-285729138D02*
X185965350Y-286595804D01*
X185655826Y-285233900D02*
X185346303Y-286162471D01*
X185346303Y-286162471D02*
X186151064Y-286162471D01*
D10*
D11*
X236027255Y-285295804D02*
X235408207Y-285295804D01*
X235408207Y-285295804D02*
X235346303Y-285914852D01*
X235346303Y-285914852D02*
X235408207Y-285852947D01*
X235408207Y-285852947D02*
X235532017Y-285791042D01*
X235532017Y-285791042D02*
X235841541Y-285791042D01*
X235841541Y-285791042D02*
X235965350Y-285852947D01*
X235965350Y-285852947D02*
X236027255Y-285914852D01*
X236027255Y-285914852D02*
X236089160Y-286038661D01*
X236089160Y-286038661D02*
X236089160Y-286348185D01*
X236089160Y-286348185D02*
X236027255Y-286471995D01*
X236027255Y-286471995D02*
X235965350Y-286533900D01*
X235965350Y-286533900D02*
X235841541Y-286595804D01*
X235841541Y-286595804D02*
X235532017Y-286595804D01*
X235532017Y-286595804D02*
X235408207Y-286533900D01*
X235408207Y-286533900D02*
X235346303Y-286471995D01*
D10*
D11*
X285965350Y-285295804D02*
X285717731Y-285295804D01*
X285717731Y-285295804D02*
X285593922Y-285357709D01*
X285593922Y-285357709D02*
X285532017Y-285419614D01*
X285532017Y-285419614D02*
X285408207Y-285605328D01*
X285408207Y-285605328D02*
X285346303Y-285852947D01*
X285346303Y-285852947D02*
X285346303Y-286348185D01*
X285346303Y-286348185D02*
X285408207Y-286471995D01*
X285408207Y-286471995D02*
X285470112Y-286533900D01*
X285470112Y-286533900D02*
X285593922Y-286595804D01*
X285593922Y-286595804D02*
X285841541Y-286595804D01*
X285841541Y-286595804D02*
X285965350Y-286533900D01*
X285965350Y-286533900D02*
X286027255Y-286471995D01*
X286027255Y-286471995D02*
X286089160Y-286348185D01*
X286089160Y-286348185D02*
X286089160Y-286038661D01*
X286089160Y-286038661D02*
X286027255Y-285914852D01*
X286027255Y-285914852D02*
X285965350Y-285852947D01*
X285965350Y-285852947D02*
X285841541Y-285791042D01*
X285841541Y-285791042D02*
X285593922Y-285791042D01*
X285593922Y-285791042D02*
X285470112Y-285852947D01*
X285470112Y-285852947D02*
X285408207Y-285914852D01*
X285408207Y-285914852D02*
X285346303Y-286038661D01*
D10*
D11*
X335284398Y-285295804D02*
X336151064Y-285295804D01*
X336151064Y-285295804D02*
X335593922Y-286595804D01*
D10*
D11*
X385593922Y-285852947D02*
X385470112Y-285791042D01*
X385470112Y-285791042D02*
X385408207Y-285729138D01*
X385408207Y-285729138D02*
X385346303Y-285605328D01*
X385346303Y-285605328D02*
X385346303Y-285543423D01*
X385346303Y-285543423D02*
X385408207Y-285419614D01*
X385408207Y-285419614D02*
X385470112Y-285357709D01*
X385470112Y-285357709D02*
X385593922Y-285295804D01*
X385593922Y-285295804D02*
X385841541Y-285295804D01*
X385841541Y-285295804D02*
X385965350Y-285357709D01*
X385965350Y-285357709D02*
X386027255Y-285419614D01*
X386027255Y-285419614D02*
X386089160Y-285543423D01*
X386089160Y-285543423D02*
X386089160Y-285605328D01*
X386089160Y-285605328D02*
X386027255Y-285729138D01*
X386027255Y-285729138D02*
X385965350Y-285791042D01*
X385965350Y-285791042D02*
X385841541Y-285852947D01*
X385841541Y-285852947D02*
X385593922Y-285852947D01*
X385593922Y-285852947D02*
X385470112Y-285914852D01*
X385470112Y-285914852D02*
X385408207Y-285976757D01*
X385408207Y-285976757D02*
X385346303Y-286100566D01*
X385346303Y-286100566D02*
X385346303Y-286348185D01*
X385346303Y-286348185D02*
X385408207Y-286471995D01*
X385408207Y-286471995D02*
X385470112Y-286533900D01*
X385470112Y-286533900D02*
X385593922Y-286595804D01*
X385593922Y-286595804D02*
X385841541Y-286595804D01*
X385841541Y-286595804D02*
X385965350Y-286533900D01*
X385965350Y-286533900D02*
X386027255Y-286471995D01*
X386027255Y-286471995D02*
X386089160Y-286348185D01*
X386089160Y-286348185D02*
X386089160Y-286100566D01*
X386089160Y-286100566D02*
X386027255Y-285976757D01*
X386027255Y-285976757D02*
X385965350Y-285914852D01*
X385965350Y-285914852D02*
X385841541Y-285852947D01*
D10*
D11*
X10000000Y-60000000D02*
X12000000Y-60000000D01*
D10*
D11*
X10000000Y-110000000D02*
X12000000Y-110000000D01*
D10*
D11*
X10000000Y-160000000D02*
X12000000Y-160000000D01*
D10*
D11*
X10000000Y-210000000D02*
X12000000Y-210000000D01*
D10*
D11*
X10000000Y-260000000D02*
X12000000Y-260000000D01*
D10*
D11*
X10690476Y-35222176D02*
X11309523Y-35222176D01*
X10566666Y-35593604D02*
X10999999Y-34293604D01*
X10999999Y-34293604D02*
X11433333Y-35593604D01*
D10*
D11*
X11092857Y-84912652D02*
X11278571Y-84974557D01*
X11278571Y-84974557D02*
X11340476Y-85036461D01*
X11340476Y-85036461D02*
X11402380Y-85160271D01*
X11402380Y-85160271D02*
X11402380Y-85345985D01*
X11402380Y-85345985D02*
X11340476Y-85469795D01*
X11340476Y-85469795D02*
X11278571Y-85531700D01*
X11278571Y-85531700D02*
X11154761Y-85593604D01*
X11154761Y-85593604D02*
X10659523Y-85593604D01*
X10659523Y-85593604D02*
X10659523Y-84293604D01*
X10659523Y-84293604D02*
X11092857Y-84293604D01*
X11092857Y-84293604D02*
X11216666Y-84355509D01*
X11216666Y-84355509D02*
X11278571Y-84417414D01*
X11278571Y-84417414D02*
X11340476Y-84541223D01*
X11340476Y-84541223D02*
X11340476Y-84665033D01*
X11340476Y-84665033D02*
X11278571Y-84788842D01*
X11278571Y-84788842D02*
X11216666Y-84850747D01*
X11216666Y-84850747D02*
X11092857Y-84912652D01*
X11092857Y-84912652D02*
X10659523Y-84912652D01*
D10*
D11*
X11402380Y-135469795D02*
X11340476Y-135531700D01*
X11340476Y-135531700D02*
X11154761Y-135593604D01*
X11154761Y-135593604D02*
X11030952Y-135593604D01*
X11030952Y-135593604D02*
X10845238Y-135531700D01*
X10845238Y-135531700D02*
X10721428Y-135407890D01*
X10721428Y-135407890D02*
X10659523Y-135284080D01*
X10659523Y-135284080D02*
X10597619Y-135036461D01*
X10597619Y-135036461D02*
X10597619Y-134850747D01*
X10597619Y-134850747D02*
X10659523Y-134603128D01*
X10659523Y-134603128D02*
X10721428Y-134479319D01*
X10721428Y-134479319D02*
X10845238Y-134355509D01*
X10845238Y-134355509D02*
X11030952Y-134293604D01*
X11030952Y-134293604D02*
X11154761Y-134293604D01*
X11154761Y-134293604D02*
X11340476Y-134355509D01*
X11340476Y-134355509D02*
X11402380Y-134417414D01*
D10*
D11*
X10659523Y-185593604D02*
X10659523Y-184293604D01*
X10659523Y-184293604D02*
X10969047Y-184293604D01*
X10969047Y-184293604D02*
X11154761Y-184355509D01*
X11154761Y-184355509D02*
X11278571Y-184479319D01*
X11278571Y-184479319D02*
X11340476Y-184603128D01*
X11340476Y-184603128D02*
X11402380Y-184850747D01*
X11402380Y-184850747D02*
X11402380Y-185036461D01*
X11402380Y-185036461D02*
X11340476Y-185284080D01*
X11340476Y-185284080D02*
X11278571Y-185407890D01*
X11278571Y-185407890D02*
X11154761Y-185531700D01*
X11154761Y-185531700D02*
X10969047Y-185593604D01*
X10969047Y-185593604D02*
X10659523Y-185593604D01*
D10*
D11*
X10721428Y-234912652D02*
X11154762Y-234912652D01*
X11340476Y-235593604D02*
X10721428Y-235593604D01*
X10721428Y-235593604D02*
X10721428Y-234293604D01*
X10721428Y-234293604D02*
X11340476Y-234293604D01*
D10*
D11*
X11185714Y-284912652D02*
X10752380Y-284912652D01*
X10752380Y-285593604D02*
X10752380Y-284293604D01*
X10752380Y-284293604D02*
X11371428Y-284293604D01*
D10*
D11*
X409989000Y-60000000D02*
X407989000Y-60000000D01*
D10*
D11*
X409989000Y-110000000D02*
X407989000Y-110000000D01*
D10*
D11*
X409989000Y-160000000D02*
X407989000Y-160000000D01*
D10*
D11*
X409989000Y-210000000D02*
X407989000Y-210000000D01*
D10*
D11*
X409989000Y-260000000D02*
X407989000Y-260000000D01*
D10*
D11*
X408679476Y-35222176D02*
X409298523Y-35222176D01*
X408555666Y-35593604D02*
X408988999Y-34293604D01*
X408988999Y-34293604D02*
X409422333Y-35593604D01*
D10*
D11*
X409081857Y-84912652D02*
X409267571Y-84974557D01*
X409267571Y-84974557D02*
X409329476Y-85036461D01*
X409329476Y-85036461D02*
X409391380Y-85160271D01*
X409391380Y-85160271D02*
X409391380Y-85345985D01*
X409391380Y-85345985D02*
X409329476Y-85469795D01*
X409329476Y-85469795D02*
X409267571Y-85531700D01*
X409267571Y-85531700D02*
X409143761Y-85593604D01*
X409143761Y-85593604D02*
X408648523Y-85593604D01*
X408648523Y-85593604D02*
X408648523Y-84293604D01*
X408648523Y-84293604D02*
X409081857Y-84293604D01*
X409081857Y-84293604D02*
X409205666Y-84355509D01*
X409205666Y-84355509D02*
X409267571Y-84417414D01*
X409267571Y-84417414D02*
X409329476Y-84541223D01*
X409329476Y-84541223D02*
X409329476Y-84665033D01*
X409329476Y-84665033D02*
X409267571Y-84788842D01*
X409267571Y-84788842D02*
X409205666Y-84850747D01*
X409205666Y-84850747D02*
X409081857Y-84912652D01*
X409081857Y-84912652D02*
X408648523Y-84912652D01*
D10*
D11*
X409391380Y-135469795D02*
X409329476Y-135531700D01*
X409329476Y-135531700D02*
X409143761Y-135593604D01*
X409143761Y-135593604D02*
X409019952Y-135593604D01*
X409019952Y-135593604D02*
X408834238Y-135531700D01*
X408834238Y-135531700D02*
X408710428Y-135407890D01*
X408710428Y-135407890D02*
X408648523Y-135284080D01*
X408648523Y-135284080D02*
X408586619Y-135036461D01*
X408586619Y-135036461D02*
X408586619Y-134850747D01*
X408586619Y-134850747D02*
X408648523Y-134603128D01*
X408648523Y-134603128D02*
X408710428Y-134479319D01*
X408710428Y-134479319D02*
X408834238Y-134355509D01*
X408834238Y-134355509D02*
X409019952Y-134293604D01*
X409019952Y-134293604D02*
X409143761Y-134293604D01*
X409143761Y-134293604D02*
X409329476Y-134355509D01*
X409329476Y-134355509D02*
X409391380Y-134417414D01*
D10*
D11*
X408648523Y-185593604D02*
X408648523Y-184293604D01*
X408648523Y-184293604D02*
X408958047Y-184293604D01*
X408958047Y-184293604D02*
X409143761Y-184355509D01*
X409143761Y-184355509D02*
X409267571Y-184479319D01*
X409267571Y-184479319D02*
X409329476Y-184603128D01*
X409329476Y-184603128D02*
X409391380Y-184850747D01*
X409391380Y-184850747D02*
X409391380Y-185036461D01*
X409391380Y-185036461D02*
X409329476Y-185284080D01*
X409329476Y-185284080D02*
X409267571Y-185407890D01*
X409267571Y-185407890D02*
X409143761Y-185531700D01*
X409143761Y-185531700D02*
X408958047Y-185593604D01*
X408958047Y-185593604D02*
X408648523Y-185593604D01*
D10*
D11*
X408710428Y-234912652D02*
X409143762Y-234912652D01*
X409329476Y-235593604D02*
X408710428Y-235593604D01*
X408710428Y-235593604D02*
X408710428Y-234293604D01*
X408710428Y-234293604D02*
X409329476Y-234293604D01*
D10*
D11*
X409174714Y-284912652D02*
X408741380Y-284912652D01*
X408741380Y-285593604D02*
X408741380Y-284293604D01*
X408741380Y-284293604D02*
X409360428Y-284293604D01*
D10*
D11*
X323444826Y-280788328D02*
X323444826Y-279288328D01*
X323444826Y-279288328D02*
X323801969Y-279288328D01*
X323801969Y-279288328D02*
X324016255Y-279359757D01*
X324016255Y-279359757D02*
X324159112Y-279502614D01*
X324159112Y-279502614D02*
X324230541Y-279645471D01*
X324230541Y-279645471D02*
X324301969Y-279931185D01*
X324301969Y-279931185D02*
X324301969Y-280145471D01*
X324301969Y-280145471D02*
X324230541Y-280431185D01*
X324230541Y-280431185D02*
X324159112Y-280574042D01*
X324159112Y-280574042D02*
X324016255Y-280716900D01*
X324016255Y-280716900D02*
X323801969Y-280788328D01*
X323801969Y-280788328D02*
X323444826Y-280788328D01*
X325587684Y-280788328D02*
X325587684Y-280002614D01*
X325587684Y-280002614D02*
X325516255Y-279859757D01*
X325516255Y-279859757D02*
X325373398Y-279788328D01*
X325373398Y-279788328D02*
X325087684Y-279788328D01*
X325087684Y-279788328D02*
X324944826Y-279859757D01*
X325587684Y-280716900D02*
X325444826Y-280788328D01*
X325444826Y-280788328D02*
X325087684Y-280788328D01*
X325087684Y-280788328D02*
X324944826Y-280716900D01*
X324944826Y-280716900D02*
X324873398Y-280574042D01*
X324873398Y-280574042D02*
X324873398Y-280431185D01*
X324873398Y-280431185D02*
X324944826Y-280288328D01*
X324944826Y-280288328D02*
X325087684Y-280216900D01*
X325087684Y-280216900D02*
X325444826Y-280216900D01*
X325444826Y-280216900D02*
X325587684Y-280145471D01*
X326087684Y-279788328D02*
X326659112Y-279788328D01*
X326301969Y-279288328D02*
X326301969Y-280574042D01*
X326301969Y-280574042D02*
X326373398Y-280716900D01*
X326373398Y-280716900D02*
X326516255Y-280788328D01*
X326516255Y-280788328D02*
X326659112Y-280788328D01*
X327730541Y-280716900D02*
X327587684Y-280788328D01*
X327587684Y-280788328D02*
X327301970Y-280788328D01*
X327301970Y-280788328D02*
X327159112Y-280716900D01*
X327159112Y-280716900D02*
X327087684Y-280574042D01*
X327087684Y-280574042D02*
X327087684Y-280002614D01*
X327087684Y-280002614D02*
X327159112Y-279859757D01*
X327159112Y-279859757D02*
X327301970Y-279788328D01*
X327301970Y-279788328D02*
X327587684Y-279788328D01*
X327587684Y-279788328D02*
X327730541Y-279859757D01*
X327730541Y-279859757D02*
X327801970Y-280002614D01*
X327801970Y-280002614D02*
X327801970Y-280145471D01*
X327801970Y-280145471D02*
X327087684Y-280288328D01*
X328444826Y-280645471D02*
X328516255Y-280716900D01*
X328516255Y-280716900D02*
X328444826Y-280788328D01*
X328444826Y-280788328D02*
X328373398Y-280716900D01*
X328373398Y-280716900D02*
X328444826Y-280645471D01*
X328444826Y-280645471D02*
X328444826Y-280788328D01*
X328444826Y-279859757D02*
X328516255Y-279931185D01*
X328516255Y-279931185D02*
X328444826Y-280002614D01*
X328444826Y-280002614D02*
X328373398Y-279931185D01*
X328373398Y-279931185D02*
X328444826Y-279859757D01*
X328444826Y-279859757D02*
X328444826Y-280002614D01*
D10*
D11*
X299989000Y-281502200D02*
X407989000Y-281502200D01*
D10*
D11*
X301444826Y-283588328D02*
X301444826Y-282088328D01*
X302301969Y-283588328D02*
X301659112Y-282731185D01*
X302301969Y-282088328D02*
X301444826Y-282945471D01*
X302944826Y-283588328D02*
X302944826Y-282588328D01*
X302944826Y-282088328D02*
X302873398Y-282159757D01*
X302873398Y-282159757D02*
X302944826Y-282231185D01*
X302944826Y-282231185D02*
X303016255Y-282159757D01*
X303016255Y-282159757D02*
X302944826Y-282088328D01*
X302944826Y-282088328D02*
X302944826Y-282231185D01*
X304516255Y-283445471D02*
X304444827Y-283516900D01*
X304444827Y-283516900D02*
X304230541Y-283588328D01*
X304230541Y-283588328D02*
X304087684Y-283588328D01*
X304087684Y-283588328D02*
X303873398Y-283516900D01*
X303873398Y-283516900D02*
X303730541Y-283374042D01*
X303730541Y-283374042D02*
X303659112Y-283231185D01*
X303659112Y-283231185D02*
X303587684Y-282945471D01*
X303587684Y-282945471D02*
X303587684Y-282731185D01*
X303587684Y-282731185D02*
X303659112Y-282445471D01*
X303659112Y-282445471D02*
X303730541Y-282302614D01*
X303730541Y-282302614D02*
X303873398Y-282159757D01*
X303873398Y-282159757D02*
X304087684Y-282088328D01*
X304087684Y-282088328D02*
X304230541Y-282088328D01*
X304230541Y-282088328D02*
X304444827Y-282159757D01*
X304444827Y-282159757D02*
X304516255Y-282231185D01*
X305801970Y-283588328D02*
X305801970Y-282802614D01*
X305801970Y-282802614D02*
X305730541Y-282659757D01*
X305730541Y-282659757D02*
X305587684Y-282588328D01*
X305587684Y-282588328D02*
X305301970Y-282588328D01*
X305301970Y-282588328D02*
X305159112Y-282659757D01*
X305801970Y-283516900D02*
X305659112Y-283588328D01*
X305659112Y-283588328D02*
X305301970Y-283588328D01*
X305301970Y-283588328D02*
X305159112Y-283516900D01*
X305159112Y-283516900D02*
X305087684Y-283374042D01*
X305087684Y-283374042D02*
X305087684Y-283231185D01*
X305087684Y-283231185D02*
X305159112Y-283088328D01*
X305159112Y-283088328D02*
X305301970Y-283016900D01*
X305301970Y-283016900D02*
X305659112Y-283016900D01*
X305659112Y-283016900D02*
X305801970Y-282945471D01*
X307159113Y-283588328D02*
X307159113Y-282088328D01*
X307159113Y-283516900D02*
X307016255Y-283588328D01*
X307016255Y-283588328D02*
X306730541Y-283588328D01*
X306730541Y-283588328D02*
X306587684Y-283516900D01*
X306587684Y-283516900D02*
X306516255Y-283445471D01*
X306516255Y-283445471D02*
X306444827Y-283302614D01*
X306444827Y-283302614D02*
X306444827Y-282874042D01*
X306444827Y-282874042D02*
X306516255Y-282731185D01*
X306516255Y-282731185D02*
X306587684Y-282659757D01*
X306587684Y-282659757D02*
X306730541Y-282588328D01*
X306730541Y-282588328D02*
X307016255Y-282588328D01*
X307016255Y-282588328D02*
X307159113Y-282659757D01*
X309016255Y-282802614D02*
X309516255Y-282802614D01*
X309730541Y-283588328D02*
X309016255Y-283588328D01*
X309016255Y-283588328D02*
X309016255Y-282088328D01*
X309016255Y-282088328D02*
X309730541Y-282088328D01*
X310373398Y-283445471D02*
X310444827Y-283516900D01*
X310444827Y-283516900D02*
X310373398Y-283588328D01*
X310373398Y-283588328D02*
X310301970Y-283516900D01*
X310301970Y-283516900D02*
X310373398Y-283445471D01*
X310373398Y-283445471D02*
X310373398Y-283588328D01*
X311087684Y-283588328D02*
X311087684Y-282088328D01*
X311087684Y-282088328D02*
X311444827Y-282088328D01*
X311444827Y-282088328D02*
X311659113Y-282159757D01*
X311659113Y-282159757D02*
X311801970Y-282302614D01*
X311801970Y-282302614D02*
X311873399Y-282445471D01*
X311873399Y-282445471D02*
X311944827Y-282731185D01*
X311944827Y-282731185D02*
X311944827Y-282945471D01*
X311944827Y-282945471D02*
X311873399Y-283231185D01*
X311873399Y-283231185D02*
X311801970Y-283374042D01*
X311801970Y-283374042D02*
X311659113Y-283516900D01*
X311659113Y-283516900D02*
X311444827Y-283588328D01*
X311444827Y-283588328D02*
X311087684Y-283588328D01*
X312587684Y-283445471D02*
X312659113Y-283516900D01*
X312659113Y-283516900D02*
X312587684Y-283588328D01*
X312587684Y-283588328D02*
X312516256Y-283516900D01*
X312516256Y-283516900D02*
X312587684Y-283445471D01*
X312587684Y-283445471D02*
X312587684Y-283588328D01*
X313230542Y-283159757D02*
X313944828Y-283159757D01*
X313087685Y-283588328D02*
X313587685Y-282088328D01*
X313587685Y-282088328D02*
X314087685Y-283588328D01*
X314587684Y-283445471D02*
X314659113Y-283516900D01*
X314659113Y-283516900D02*
X314587684Y-283588328D01*
X314587684Y-283588328D02*
X314516256Y-283516900D01*
X314516256Y-283516900D02*
X314587684Y-283445471D01*
X314587684Y-283445471D02*
X314587684Y-283588328D01*
X316516256Y-283588328D02*
X316801970Y-283588328D01*
X316801970Y-283588328D02*
X316944827Y-283516900D01*
X316944827Y-283516900D02*
X317016256Y-283445471D01*
X317016256Y-283445471D02*
X317159113Y-283231185D01*
X317159113Y-283231185D02*
X317230542Y-282945471D01*
X317230542Y-282945471D02*
X317230542Y-282374042D01*
X317230542Y-282374042D02*
X317159113Y-282231185D01*
X317159113Y-282231185D02*
X317087685Y-282159757D01*
X317087685Y-282159757D02*
X316944827Y-282088328D01*
X316944827Y-282088328D02*
X316659113Y-282088328D01*
X316659113Y-282088328D02*
X316516256Y-282159757D01*
X316516256Y-282159757D02*
X316444827Y-282231185D01*
X316444827Y-282231185D02*
X316373399Y-282374042D01*
X316373399Y-282374042D02*
X316373399Y-282731185D01*
X316373399Y-282731185D02*
X316444827Y-282874042D01*
X316444827Y-282874042D02*
X316516256Y-282945471D01*
X316516256Y-282945471D02*
X316659113Y-283016900D01*
X316659113Y-283016900D02*
X316944827Y-283016900D01*
X316944827Y-283016900D02*
X317087685Y-282945471D01*
X317087685Y-282945471D02*
X317159113Y-282874042D01*
X317159113Y-282874042D02*
X317230542Y-282731185D01*
X317873398Y-283445471D02*
X317944827Y-283516900D01*
X317944827Y-283516900D02*
X317873398Y-283588328D01*
X317873398Y-283588328D02*
X317801970Y-283516900D01*
X317801970Y-283516900D02*
X317873398Y-283445471D01*
X317873398Y-283445471D02*
X317873398Y-283588328D01*
X318873399Y-282088328D02*
X319016256Y-282088328D01*
X319016256Y-282088328D02*
X319159113Y-282159757D01*
X319159113Y-282159757D02*
X319230542Y-282231185D01*
X319230542Y-282231185D02*
X319301970Y-282374042D01*
X319301970Y-282374042D02*
X319373399Y-282659757D01*
X319373399Y-282659757D02*
X319373399Y-283016900D01*
X319373399Y-283016900D02*
X319301970Y-283302614D01*
X319301970Y-283302614D02*
X319230542Y-283445471D01*
X319230542Y-283445471D02*
X319159113Y-283516900D01*
X319159113Y-283516900D02*
X319016256Y-283588328D01*
X319016256Y-283588328D02*
X318873399Y-283588328D01*
X318873399Y-283588328D02*
X318730542Y-283516900D01*
X318730542Y-283516900D02*
X318659113Y-283445471D01*
X318659113Y-283445471D02*
X318587684Y-283302614D01*
X318587684Y-283302614D02*
X318516256Y-283016900D01*
X318516256Y-283016900D02*
X318516256Y-282659757D01*
X318516256Y-282659757D02*
X318587684Y-282374042D01*
X318587684Y-282374042D02*
X318659113Y-282231185D01*
X318659113Y-282231185D02*
X318730542Y-282159757D01*
X318730542Y-282159757D02*
X318873399Y-282088328D01*
X320016255Y-283445471D02*
X320087684Y-283516900D01*
X320087684Y-283516900D02*
X320016255Y-283588328D01*
X320016255Y-283588328D02*
X319944827Y-283516900D01*
X319944827Y-283516900D02*
X320016255Y-283445471D01*
X320016255Y-283445471D02*
X320016255Y-283588328D01*
X320587684Y-282088328D02*
X321516256Y-282088328D01*
X321516256Y-282088328D02*
X321016256Y-282659757D01*
X321016256Y-282659757D02*
X321230541Y-282659757D01*
X321230541Y-282659757D02*
X321373399Y-282731185D01*
X321373399Y-282731185D02*
X321444827Y-282802614D01*
X321444827Y-282802614D02*
X321516256Y-282945471D01*
X321516256Y-282945471D02*
X321516256Y-283302614D01*
X321516256Y-283302614D02*
X321444827Y-283445471D01*
X321444827Y-283445471D02*
X321373399Y-283516900D01*
X321373399Y-283516900D02*
X321230541Y-283588328D01*
X321230541Y-283588328D02*
X320801970Y-283588328D01*
X320801970Y-283588328D02*
X320659113Y-283516900D01*
X320659113Y-283516900D02*
X320587684Y-283445471D01*
D10*
D11*
X299989000Y-278502200D02*
X407989000Y-278502200D01*
D10*
D12*
X387400653Y-280780528D02*
X386900653Y-280066242D01*
X386543510Y-280780528D02*
X386543510Y-279280528D01*
X386543510Y-279280528D02*
X387114939Y-279280528D01*
X387114939Y-279280528D02*
X387257796Y-279351957D01*
X387257796Y-279351957D02*
X387329225Y-279423385D01*
X387329225Y-279423385D02*
X387400653Y-279566242D01*
X387400653Y-279566242D02*
X387400653Y-279780528D01*
X387400653Y-279780528D02*
X387329225Y-279923385D01*
X387329225Y-279923385D02*
X387257796Y-279994814D01*
X387257796Y-279994814D02*
X387114939Y-280066242D01*
X387114939Y-280066242D02*
X386543510Y-280066242D01*
X388614939Y-280709100D02*
X388472082Y-280780528D01*
X388472082Y-280780528D02*
X388186368Y-280780528D01*
X388186368Y-280780528D02*
X388043510Y-280709100D01*
X388043510Y-280709100D02*
X387972082Y-280566242D01*
X387972082Y-280566242D02*
X387972082Y-279994814D01*
X387972082Y-279994814D02*
X388043510Y-279851957D01*
X388043510Y-279851957D02*
X388186368Y-279780528D01*
X388186368Y-279780528D02*
X388472082Y-279780528D01*
X388472082Y-279780528D02*
X388614939Y-279851957D01*
X388614939Y-279851957D02*
X388686368Y-279994814D01*
X388686368Y-279994814D02*
X388686368Y-280137671D01*
X388686368Y-280137671D02*
X387972082Y-280280528D01*
X389186367Y-279780528D02*
X389543510Y-280780528D01*
X389543510Y-280780528D02*
X389900653Y-279780528D01*
X390472081Y-280637671D02*
X390543510Y-280709100D01*
X390543510Y-280709100D02*
X390472081Y-280780528D01*
X390472081Y-280780528D02*
X390400653Y-280709100D01*
X390400653Y-280709100D02*
X390472081Y-280637671D01*
X390472081Y-280637671D02*
X390472081Y-280780528D01*
X390472081Y-279851957D02*
X390543510Y-279923385D01*
X390543510Y-279923385D02*
X390472081Y-279994814D01*
X390472081Y-279994814D02*
X390400653Y-279923385D01*
X390400653Y-279923385D02*
X390472081Y-279851957D01*
X390472081Y-279851957D02*
X390472081Y-279994814D01*
D10*
D11*
X301373398Y-280716900D02*
X301587684Y-280788328D01*
X301587684Y-280788328D02*
X301944826Y-280788328D01*
X301944826Y-280788328D02*
X302087684Y-280716900D01*
X302087684Y-280716900D02*
X302159112Y-280645471D01*
X302159112Y-280645471D02*
X302230541Y-280502614D01*
X302230541Y-280502614D02*
X302230541Y-280359757D01*
X302230541Y-280359757D02*
X302159112Y-280216900D01*
X302159112Y-280216900D02*
X302087684Y-280145471D01*
X302087684Y-280145471D02*
X301944826Y-280074042D01*
X301944826Y-280074042D02*
X301659112Y-280002614D01*
X301659112Y-280002614D02*
X301516255Y-279931185D01*
X301516255Y-279931185D02*
X301444826Y-279859757D01*
X301444826Y-279859757D02*
X301373398Y-279716900D01*
X301373398Y-279716900D02*
X301373398Y-279574042D01*
X301373398Y-279574042D02*
X301444826Y-279431185D01*
X301444826Y-279431185D02*
X301516255Y-279359757D01*
X301516255Y-279359757D02*
X301659112Y-279288328D01*
X301659112Y-279288328D02*
X302016255Y-279288328D01*
X302016255Y-279288328D02*
X302230541Y-279359757D01*
X302873397Y-280788328D02*
X302873397Y-279788328D01*
X302873397Y-279288328D02*
X302801969Y-279359757D01*
X302801969Y-279359757D02*
X302873397Y-279431185D01*
X302873397Y-279431185D02*
X302944826Y-279359757D01*
X302944826Y-279359757D02*
X302873397Y-279288328D01*
X302873397Y-279288328D02*
X302873397Y-279431185D01*
X303444826Y-279788328D02*
X304230541Y-279788328D01*
X304230541Y-279788328D02*
X303444826Y-280788328D01*
X303444826Y-280788328D02*
X304230541Y-280788328D01*
X305373398Y-280716900D02*
X305230541Y-280788328D01*
X305230541Y-280788328D02*
X304944827Y-280788328D01*
X304944827Y-280788328D02*
X304801969Y-280716900D01*
X304801969Y-280716900D02*
X304730541Y-280574042D01*
X304730541Y-280574042D02*
X304730541Y-280002614D01*
X304730541Y-280002614D02*
X304801969Y-279859757D01*
X304801969Y-279859757D02*
X304944827Y-279788328D01*
X304944827Y-279788328D02*
X305230541Y-279788328D01*
X305230541Y-279788328D02*
X305373398Y-279859757D01*
X305373398Y-279859757D02*
X305444827Y-280002614D01*
X305444827Y-280002614D02*
X305444827Y-280145471D01*
X305444827Y-280145471D02*
X304730541Y-280288328D01*
X306087683Y-280645471D02*
X306159112Y-280716900D01*
X306159112Y-280716900D02*
X306087683Y-280788328D01*
X306087683Y-280788328D02*
X306016255Y-280716900D01*
X306016255Y-280716900D02*
X306087683Y-280645471D01*
X306087683Y-280645471D02*
X306087683Y-280788328D01*
X306087683Y-279859757D02*
X306159112Y-279931185D01*
X306159112Y-279931185D02*
X306087683Y-280002614D01*
X306087683Y-280002614D02*
X306016255Y-279931185D01*
X306016255Y-279931185D02*
X306087683Y-279859757D01*
X306087683Y-279859757D02*
X306087683Y-280002614D01*
X307873398Y-280359757D02*
X308587684Y-280359757D01*
X307730541Y-280788328D02*
X308230541Y-279288328D01*
X308230541Y-279288328D02*
X308730541Y-280788328D01*
X309087683Y-279288328D02*
X310016255Y-279288328D01*
X310016255Y-279288328D02*
X309516255Y-279859757D01*
X309516255Y-279859757D02*
X309730540Y-279859757D01*
X309730540Y-279859757D02*
X309873398Y-279931185D01*
X309873398Y-279931185D02*
X309944826Y-280002614D01*
X309944826Y-280002614D02*
X310016255Y-280145471D01*
X310016255Y-280145471D02*
X310016255Y-280502614D01*
X310016255Y-280502614D02*
X309944826Y-280645471D01*
X309944826Y-280645471D02*
X309873398Y-280716900D01*
X309873398Y-280716900D02*
X309730540Y-280788328D01*
X309730540Y-280788328D02*
X309301969Y-280788328D01*
X309301969Y-280788328D02*
X309159112Y-280716900D01*
X309159112Y-280716900D02*
X309087683Y-280645471D01*
D10*
D11*
X386444826Y-283588328D02*
X386444826Y-282088328D01*
X387801970Y-283588328D02*
X387801970Y-282088328D01*
X387801970Y-283516900D02*
X387659112Y-283588328D01*
X387659112Y-283588328D02*
X387373398Y-283588328D01*
X387373398Y-283588328D02*
X387230541Y-283516900D01*
X387230541Y-283516900D02*
X387159112Y-283445471D01*
X387159112Y-283445471D02*
X387087684Y-283302614D01*
X387087684Y-283302614D02*
X387087684Y-282874042D01*
X387087684Y-282874042D02*
X387159112Y-282731185D01*
X387159112Y-282731185D02*
X387230541Y-282659757D01*
X387230541Y-282659757D02*
X387373398Y-282588328D01*
X387373398Y-282588328D02*
X387659112Y-282588328D01*
X387659112Y-282588328D02*
X387801970Y-282659757D01*
X388516255Y-283445471D02*
X388587684Y-283516900D01*
X388587684Y-283516900D02*
X388516255Y-283588328D01*
X388516255Y-283588328D02*
X388444827Y-283516900D01*
X388444827Y-283516900D02*
X388516255Y-283445471D01*
X388516255Y-283445471D02*
X388516255Y-283588328D01*
X388516255Y-282659757D02*
X388587684Y-282731185D01*
X388587684Y-282731185D02*
X388516255Y-282802614D01*
X388516255Y-282802614D02*
X388444827Y-282731185D01*
X388444827Y-282731185D02*
X388516255Y-282659757D01*
X388516255Y-282659757D02*
X388516255Y-282802614D01*
X390230541Y-282088328D02*
X391159113Y-282088328D01*
X391159113Y-282088328D02*
X390659113Y-282659757D01*
X390659113Y-282659757D02*
X390873398Y-282659757D01*
X390873398Y-282659757D02*
X391016256Y-282731185D01*
X391016256Y-282731185D02*
X391087684Y-282802614D01*
X391087684Y-282802614D02*
X391159113Y-282945471D01*
X391159113Y-282945471D02*
X391159113Y-283302614D01*
X391159113Y-283302614D02*
X391087684Y-283445471D01*
X391087684Y-283445471D02*
X391016256Y-283516900D01*
X391016256Y-283516900D02*
X390873398Y-283588328D01*
X390873398Y-283588328D02*
X390444827Y-283588328D01*
X390444827Y-283588328D02*
X390301970Y-283516900D01*
X390301970Y-283516900D02*
X390230541Y-283445471D01*
X392873398Y-282016900D02*
X391587684Y-283945471D01*
X393444827Y-283588328D02*
X393730541Y-283588328D01*
X393730541Y-283588328D02*
X393873398Y-283516900D01*
X393873398Y-283516900D02*
X393944827Y-283445471D01*
X393944827Y-283445471D02*
X394087684Y-283231185D01*
X394087684Y-283231185D02*
X394159113Y-282945471D01*
X394159113Y-282945471D02*
X394159113Y-282374042D01*
X394159113Y-282374042D02*
X394087684Y-282231185D01*
X394087684Y-282231185D02*
X394016256Y-282159757D01*
X394016256Y-282159757D02*
X393873398Y-282088328D01*
X393873398Y-282088328D02*
X393587684Y-282088328D01*
X393587684Y-282088328D02*
X393444827Y-282159757D01*
X393444827Y-282159757D02*
X393373398Y-282231185D01*
X393373398Y-282231185D02*
X393301970Y-282374042D01*
X393301970Y-282374042D02*
X393301970Y-282731185D01*
X393301970Y-282731185D02*
X393373398Y-282874042D01*
X393373398Y-282874042D02*
X393444827Y-282945471D01*
X393444827Y-282945471D02*
X393587684Y-283016900D01*
X393587684Y-283016900D02*
X393873398Y-283016900D01*
X393873398Y-283016900D02*
X394016256Y-282945471D01*
X394016256Y-282945471D02*
X394087684Y-282874042D01*
X394087684Y-282874042D02*
X394159113Y-282731185D01*
D10*
D11*
X299989000Y-274502200D02*
X407989000Y-274502200D01*
D10*
D13*
X301680728Y-275206638D02*
X302823585Y-275206638D01*
X302002157Y-277206638D02*
X302252157Y-275206638D01*
X303240252Y-277206638D02*
X303406919Y-275873304D01*
X303490252Y-275206638D02*
X303383109Y-275301876D01*
X303383109Y-275301876D02*
X303466443Y-275397114D01*
X303466443Y-275397114D02*
X303573586Y-275301876D01*
X303573586Y-275301876D02*
X303490252Y-275206638D01*
X303490252Y-275206638D02*
X303466443Y-275397114D01*
X304073586Y-275873304D02*
X304835490Y-275873304D01*
X304442633Y-275206638D02*
X304228348Y-276920923D01*
X304228348Y-276920923D02*
X304299776Y-277111400D01*
X304299776Y-277111400D02*
X304478348Y-277206638D01*
X304478348Y-277206638D02*
X304668824Y-277206638D01*
X305621205Y-277206638D02*
X305442633Y-277111400D01*
X305442633Y-277111400D02*
X305371205Y-276920923D01*
X305371205Y-276920923D02*
X305585490Y-275206638D01*
X307156919Y-277111400D02*
X306954538Y-277206638D01*
X306954538Y-277206638D02*
X306573585Y-277206638D01*
X306573585Y-277206638D02*
X306395014Y-277111400D01*
X306395014Y-277111400D02*
X306323585Y-276920923D01*
X306323585Y-276920923D02*
X306418824Y-276159019D01*
X306418824Y-276159019D02*
X306537871Y-275968542D01*
X306537871Y-275968542D02*
X306740252Y-275873304D01*
X306740252Y-275873304D02*
X307121204Y-275873304D01*
X307121204Y-275873304D02*
X307299776Y-275968542D01*
X307299776Y-275968542D02*
X307371204Y-276159019D01*
X307371204Y-276159019D02*
X307347395Y-276349495D01*
X307347395Y-276349495D02*
X306371204Y-276539971D01*
X308121205Y-277016161D02*
X308204538Y-277111400D01*
X308204538Y-277111400D02*
X308097395Y-277206638D01*
X308097395Y-277206638D02*
X308014062Y-277111400D01*
X308014062Y-277111400D02*
X308121205Y-277016161D01*
X308121205Y-277016161D02*
X308097395Y-277206638D01*
X308252157Y-275968542D02*
X308335490Y-276063780D01*
X308335490Y-276063780D02*
X308228348Y-276159019D01*
X308228348Y-276159019D02*
X308145014Y-276063780D01*
X308145014Y-276063780D02*
X308252157Y-275968542D01*
X308252157Y-275968542D02*
X308228348Y-276159019D01*
D10*
D11*
X301944826Y-272602614D02*
X301444826Y-272602614D01*
X301444826Y-273388328D02*
X301444826Y-271888328D01*
X301444826Y-271888328D02*
X302159112Y-271888328D01*
X302730540Y-273388328D02*
X302730540Y-272388328D01*
X302730540Y-271888328D02*
X302659112Y-271959757D01*
X302659112Y-271959757D02*
X302730540Y-272031185D01*
X302730540Y-272031185D02*
X302801969Y-271959757D01*
X302801969Y-271959757D02*
X302730540Y-271888328D01*
X302730540Y-271888328D02*
X302730540Y-272031185D01*
X303659112Y-273388328D02*
X303516255Y-273316900D01*
X303516255Y-273316900D02*
X303444826Y-273174042D01*
X303444826Y-273174042D02*
X303444826Y-271888328D01*
X304801969Y-273316900D02*
X304659112Y-273388328D01*
X304659112Y-273388328D02*
X304373398Y-273388328D01*
X304373398Y-273388328D02*
X304230540Y-273316900D01*
X304230540Y-273316900D02*
X304159112Y-273174042D01*
X304159112Y-273174042D02*
X304159112Y-272602614D01*
X304159112Y-272602614D02*
X304230540Y-272459757D01*
X304230540Y-272459757D02*
X304373398Y-272388328D01*
X304373398Y-272388328D02*
X304659112Y-272388328D01*
X304659112Y-272388328D02*
X304801969Y-272459757D01*
X304801969Y-272459757D02*
X304873398Y-272602614D01*
X304873398Y-272602614D02*
X304873398Y-272745471D01*
X304873398Y-272745471D02*
X304159112Y-272888328D01*
X305516254Y-273245471D02*
X305587683Y-273316900D01*
X305587683Y-273316900D02*
X305516254Y-273388328D01*
X305516254Y-273388328D02*
X305444826Y-273316900D01*
X305444826Y-273316900D02*
X305516254Y-273245471D01*
X305516254Y-273245471D02*
X305516254Y-273388328D01*
X305516254Y-272459757D02*
X305587683Y-272531185D01*
X305587683Y-272531185D02*
X305516254Y-272602614D01*
X305516254Y-272602614D02*
X305444826Y-272531185D01*
X305444826Y-272531185D02*
X305516254Y-272459757D01*
X305516254Y-272459757D02*
X305516254Y-272602614D01*
X307301969Y-273316900D02*
X307516255Y-273388328D01*
X307516255Y-273388328D02*
X307873397Y-273388328D01*
X307873397Y-273388328D02*
X308016255Y-273316900D01*
X308016255Y-273316900D02*
X308087683Y-273245471D01*
X308087683Y-273245471D02*
X308159112Y-273102614D01*
X308159112Y-273102614D02*
X308159112Y-272959757D01*
X308159112Y-272959757D02*
X308087683Y-272816900D01*
X308087683Y-272816900D02*
X308016255Y-272745471D01*
X308016255Y-272745471D02*
X307873397Y-272674042D01*
X307873397Y-272674042D02*
X307587683Y-272602614D01*
X307587683Y-272602614D02*
X307444826Y-272531185D01*
X307444826Y-272531185D02*
X307373397Y-272459757D01*
X307373397Y-272459757D02*
X307301969Y-272316900D01*
X307301969Y-272316900D02*
X307301969Y-272174042D01*
X307301969Y-272174042D02*
X307373397Y-272031185D01*
X307373397Y-272031185D02*
X307444826Y-271959757D01*
X307444826Y-271959757D02*
X307587683Y-271888328D01*
X307587683Y-271888328D02*
X307944826Y-271888328D01*
X307944826Y-271888328D02*
X308159112Y-271959757D01*
X308659111Y-272388328D02*
X309016254Y-273388328D01*
X309373397Y-272388328D02*
X309016254Y-273388328D01*
X309016254Y-273388328D02*
X308873397Y-273745471D01*
X308873397Y-273745471D02*
X308801968Y-273816900D01*
X308801968Y-273816900D02*
X308659111Y-273888328D01*
X309944825Y-272388328D02*
X309944825Y-273388328D01*
X309944825Y-272531185D02*
X310016254Y-272459757D01*
X310016254Y-272459757D02*
X310159111Y-272388328D01*
X310159111Y-272388328D02*
X310373397Y-272388328D01*
X310373397Y-272388328D02*
X310516254Y-272459757D01*
X310516254Y-272459757D02*
X310587683Y-272602614D01*
X310587683Y-272602614D02*
X310587683Y-273388328D01*
X311087683Y-272388328D02*
X311659111Y-272388328D01*
X311301968Y-271888328D02*
X311301968Y-273174042D01*
X311301968Y-273174042D02*
X311373397Y-273316900D01*
X311373397Y-273316900D02*
X311516254Y-273388328D01*
X311516254Y-273388328D02*
X311659111Y-273388328D01*
X312159111Y-273388328D02*
X312159111Y-271888328D01*
X312801969Y-273388328D02*
X312801969Y-272602614D01*
X312801969Y-272602614D02*
X312730540Y-272459757D01*
X312730540Y-272459757D02*
X312587683Y-272388328D01*
X312587683Y-272388328D02*
X312373397Y-272388328D01*
X312373397Y-272388328D02*
X312230540Y-272459757D01*
X312230540Y-272459757D02*
X312159111Y-272531185D01*
X314016254Y-272602614D02*
X314230540Y-272674042D01*
X314230540Y-272674042D02*
X314301969Y-272745471D01*
X314301969Y-272745471D02*
X314373397Y-272888328D01*
X314373397Y-272888328D02*
X314373397Y-273102614D01*
X314373397Y-273102614D02*
X314301969Y-273245471D01*
X314301969Y-273245471D02*
X314230540Y-273316900D01*
X314230540Y-273316900D02*
X314087683Y-273388328D01*
X314087683Y-273388328D02*
X313516254Y-273388328D01*
X313516254Y-273388328D02*
X313516254Y-271888328D01*
X313516254Y-271888328D02*
X314016254Y-271888328D01*
X314016254Y-271888328D02*
X314159112Y-271959757D01*
X314159112Y-271959757D02*
X314230540Y-272031185D01*
X314230540Y-272031185D02*
X314301969Y-272174042D01*
X314301969Y-272174042D02*
X314301969Y-272316900D01*
X314301969Y-272316900D02*
X314230540Y-272459757D01*
X314230540Y-272459757D02*
X314159112Y-272531185D01*
X314159112Y-272531185D02*
X314016254Y-272602614D01*
X314016254Y-272602614D02*
X313516254Y-272602614D01*
X315230540Y-273388328D02*
X315087683Y-273316900D01*
X315087683Y-273316900D02*
X315016254Y-273245471D01*
X315016254Y-273245471D02*
X314944826Y-273102614D01*
X314944826Y-273102614D02*
X314944826Y-272674042D01*
X314944826Y-272674042D02*
X315016254Y-272531185D01*
X315016254Y-272531185D02*
X315087683Y-272459757D01*
X315087683Y-272459757D02*
X315230540Y-272388328D01*
X315230540Y-272388328D02*
X315444826Y-272388328D01*
X315444826Y-272388328D02*
X315587683Y-272459757D01*
X315587683Y-272459757D02*
X315659112Y-272531185D01*
X315659112Y-272531185D02*
X315730540Y-272674042D01*
X315730540Y-272674042D02*
X315730540Y-273102614D01*
X315730540Y-273102614D02*
X315659112Y-273245471D01*
X315659112Y-273245471D02*
X315587683Y-273316900D01*
X315587683Y-273316900D02*
X315444826Y-273388328D01*
X315444826Y-273388328D02*
X315230540Y-273388328D01*
X317016255Y-273388328D02*
X317016255Y-272602614D01*
X317016255Y-272602614D02*
X316944826Y-272459757D01*
X316944826Y-272459757D02*
X316801969Y-272388328D01*
X316801969Y-272388328D02*
X316516255Y-272388328D01*
X316516255Y-272388328D02*
X316373397Y-272459757D01*
X317016255Y-273316900D02*
X316873397Y-273388328D01*
X316873397Y-273388328D02*
X316516255Y-273388328D01*
X316516255Y-273388328D02*
X316373397Y-273316900D01*
X316373397Y-273316900D02*
X316301969Y-273174042D01*
X316301969Y-273174042D02*
X316301969Y-273031185D01*
X316301969Y-273031185D02*
X316373397Y-272888328D01*
X316373397Y-272888328D02*
X316516255Y-272816900D01*
X316516255Y-272816900D02*
X316873397Y-272816900D01*
X316873397Y-272816900D02*
X317016255Y-272745471D01*
X317730540Y-273388328D02*
X317730540Y-272388328D01*
X317730540Y-272674042D02*
X317801969Y-272531185D01*
X317801969Y-272531185D02*
X317873398Y-272459757D01*
X317873398Y-272459757D02*
X318016255Y-272388328D01*
X318016255Y-272388328D02*
X318159112Y-272388328D01*
X319301969Y-273388328D02*
X319301969Y-271888328D01*
X319301969Y-273316900D02*
X319159111Y-273388328D01*
X319159111Y-273388328D02*
X318873397Y-273388328D01*
X318873397Y-273388328D02*
X318730540Y-273316900D01*
X318730540Y-273316900D02*
X318659111Y-273245471D01*
X318659111Y-273245471D02*
X318587683Y-273102614D01*
X318587683Y-273102614D02*
X318587683Y-272674042D01*
X318587683Y-272674042D02*
X318659111Y-272531185D01*
X318659111Y-272531185D02*
X318730540Y-272459757D01*
X318730540Y-272459757D02*
X318873397Y-272388328D01*
X318873397Y-272388328D02*
X319159111Y-272388328D01*
X319159111Y-272388328D02*
X319301969Y-272459757D01*
X320016254Y-273245471D02*
X320087683Y-273316900D01*
X320087683Y-273316900D02*
X320016254Y-273388328D01*
X320016254Y-273388328D02*
X319944826Y-273316900D01*
X319944826Y-273316900D02*
X320016254Y-273245471D01*
X320016254Y-273245471D02*
X320016254Y-273388328D01*
X320730540Y-273388328D02*
X320730540Y-271888328D01*
X320873398Y-272816900D02*
X321301969Y-273388328D01*
X321301969Y-272388328D02*
X320730540Y-272959757D01*
X321944826Y-273388328D02*
X321944826Y-272388328D01*
X321944826Y-271888328D02*
X321873398Y-271959757D01*
X321873398Y-271959757D02*
X321944826Y-272031185D01*
X321944826Y-272031185D02*
X322016255Y-271959757D01*
X322016255Y-271959757D02*
X321944826Y-271888328D01*
X321944826Y-271888328D02*
X321944826Y-272031185D01*
X323301970Y-273316900D02*
X323159112Y-273388328D01*
X323159112Y-273388328D02*
X322873398Y-273388328D01*
X322873398Y-273388328D02*
X322730541Y-273316900D01*
X322730541Y-273316900D02*
X322659112Y-273245471D01*
X322659112Y-273245471D02*
X322587684Y-273102614D01*
X322587684Y-273102614D02*
X322587684Y-272674042D01*
X322587684Y-272674042D02*
X322659112Y-272531185D01*
X322659112Y-272531185D02*
X322730541Y-272459757D01*
X322730541Y-272459757D02*
X322873398Y-272388328D01*
X322873398Y-272388328D02*
X323159112Y-272388328D01*
X323159112Y-272388328D02*
X323301970Y-272459757D01*
X324587684Y-273388328D02*
X324587684Y-272602614D01*
X324587684Y-272602614D02*
X324516255Y-272459757D01*
X324516255Y-272459757D02*
X324373398Y-272388328D01*
X324373398Y-272388328D02*
X324087684Y-272388328D01*
X324087684Y-272388328D02*
X323944826Y-272459757D01*
X324587684Y-273316900D02*
X324444826Y-273388328D01*
X324444826Y-273388328D02*
X324087684Y-273388328D01*
X324087684Y-273388328D02*
X323944826Y-273316900D01*
X323944826Y-273316900D02*
X323873398Y-273174042D01*
X323873398Y-273174042D02*
X323873398Y-273031185D01*
X323873398Y-273031185D02*
X323944826Y-272888328D01*
X323944826Y-272888328D02*
X324087684Y-272816900D01*
X324087684Y-272816900D02*
X324444826Y-272816900D01*
X324444826Y-272816900D02*
X324587684Y-272745471D01*
X325944827Y-273388328D02*
X325944827Y-271888328D01*
X325944827Y-273316900D02*
X325801969Y-273388328D01*
X325801969Y-273388328D02*
X325516255Y-273388328D01*
X325516255Y-273388328D02*
X325373398Y-273316900D01*
X325373398Y-273316900D02*
X325301969Y-273245471D01*
X325301969Y-273245471D02*
X325230541Y-273102614D01*
X325230541Y-273102614D02*
X325230541Y-272674042D01*
X325230541Y-272674042D02*
X325301969Y-272531185D01*
X325301969Y-272531185D02*
X325373398Y-272459757D01*
X325373398Y-272459757D02*
X325516255Y-272388328D01*
X325516255Y-272388328D02*
X325801969Y-272388328D01*
X325801969Y-272388328D02*
X325944827Y-272459757D01*
X326301970Y-273531185D02*
X327444827Y-273531185D01*
X327801969Y-272388328D02*
X327801969Y-273888328D01*
X327801969Y-272459757D02*
X327944827Y-272388328D01*
X327944827Y-272388328D02*
X328230541Y-272388328D01*
X328230541Y-272388328D02*
X328373398Y-272459757D01*
X328373398Y-272459757D02*
X328444827Y-272531185D01*
X328444827Y-272531185D02*
X328516255Y-272674042D01*
X328516255Y-272674042D02*
X328516255Y-273102614D01*
X328516255Y-273102614D02*
X328444827Y-273245471D01*
X328444827Y-273245471D02*
X328373398Y-273316900D01*
X328373398Y-273316900D02*
X328230541Y-273388328D01*
X328230541Y-273388328D02*
X327944827Y-273388328D01*
X327944827Y-273388328D02*
X327801969Y-273316900D01*
X329801970Y-273316900D02*
X329659112Y-273388328D01*
X329659112Y-273388328D02*
X329373398Y-273388328D01*
X329373398Y-273388328D02*
X329230541Y-273316900D01*
X329230541Y-273316900D02*
X329159112Y-273245471D01*
X329159112Y-273245471D02*
X329087684Y-273102614D01*
X329087684Y-273102614D02*
X329087684Y-272674042D01*
X329087684Y-272674042D02*
X329159112Y-272531185D01*
X329159112Y-272531185D02*
X329230541Y-272459757D01*
X329230541Y-272459757D02*
X329373398Y-272388328D01*
X329373398Y-272388328D02*
X329659112Y-272388328D01*
X329659112Y-272388328D02*
X329801970Y-272459757D01*
X330444826Y-273388328D02*
X330444826Y-271888328D01*
X330444826Y-272459757D02*
X330587684Y-272388328D01*
X330587684Y-272388328D02*
X330873398Y-272388328D01*
X330873398Y-272388328D02*
X331016255Y-272459757D01*
X331016255Y-272459757D02*
X331087684Y-272531185D01*
X331087684Y-272531185D02*
X331159112Y-272674042D01*
X331159112Y-272674042D02*
X331159112Y-273102614D01*
X331159112Y-273102614D02*
X331087684Y-273245471D01*
X331087684Y-273245471D02*
X331016255Y-273316900D01*
X331016255Y-273316900D02*
X330873398Y-273388328D01*
X330873398Y-273388328D02*
X330587684Y-273388328D01*
X330587684Y-273388328D02*
X330444826Y-273316900D01*
D10*
D11*
X299989000Y-268502200D02*
X407989000Y-268502200D01*
D10*
D11*
X301373398Y-270616900D02*
X301587684Y-270688328D01*
X301587684Y-270688328D02*
X301944826Y-270688328D01*
X301944826Y-270688328D02*
X302087684Y-270616900D01*
X302087684Y-270616900D02*
X302159112Y-270545471D01*
X302159112Y-270545471D02*
X302230541Y-270402614D01*
X302230541Y-270402614D02*
X302230541Y-270259757D01*
X302230541Y-270259757D02*
X302159112Y-270116900D01*
X302159112Y-270116900D02*
X302087684Y-270045471D01*
X302087684Y-270045471D02*
X301944826Y-269974042D01*
X301944826Y-269974042D02*
X301659112Y-269902614D01*
X301659112Y-269902614D02*
X301516255Y-269831185D01*
X301516255Y-269831185D02*
X301444826Y-269759757D01*
X301444826Y-269759757D02*
X301373398Y-269616900D01*
X301373398Y-269616900D02*
X301373398Y-269474042D01*
X301373398Y-269474042D02*
X301444826Y-269331185D01*
X301444826Y-269331185D02*
X301516255Y-269259757D01*
X301516255Y-269259757D02*
X301659112Y-269188328D01*
X301659112Y-269188328D02*
X302016255Y-269188328D01*
X302016255Y-269188328D02*
X302230541Y-269259757D01*
X302873397Y-270688328D02*
X302873397Y-269188328D01*
X303516255Y-270688328D02*
X303516255Y-269902614D01*
X303516255Y-269902614D02*
X303444826Y-269759757D01*
X303444826Y-269759757D02*
X303301969Y-269688328D01*
X303301969Y-269688328D02*
X303087683Y-269688328D01*
X303087683Y-269688328D02*
X302944826Y-269759757D01*
X302944826Y-269759757D02*
X302873397Y-269831185D01*
X304801969Y-270616900D02*
X304659112Y-270688328D01*
X304659112Y-270688328D02*
X304373398Y-270688328D01*
X304373398Y-270688328D02*
X304230540Y-270616900D01*
X304230540Y-270616900D02*
X304159112Y-270474042D01*
X304159112Y-270474042D02*
X304159112Y-269902614D01*
X304159112Y-269902614D02*
X304230540Y-269759757D01*
X304230540Y-269759757D02*
X304373398Y-269688328D01*
X304373398Y-269688328D02*
X304659112Y-269688328D01*
X304659112Y-269688328D02*
X304801969Y-269759757D01*
X304801969Y-269759757D02*
X304873398Y-269902614D01*
X304873398Y-269902614D02*
X304873398Y-270045471D01*
X304873398Y-270045471D02*
X304159112Y-270188328D01*
X306087683Y-270616900D02*
X305944826Y-270688328D01*
X305944826Y-270688328D02*
X305659112Y-270688328D01*
X305659112Y-270688328D02*
X305516254Y-270616900D01*
X305516254Y-270616900D02*
X305444826Y-270474042D01*
X305444826Y-270474042D02*
X305444826Y-269902614D01*
X305444826Y-269902614D02*
X305516254Y-269759757D01*
X305516254Y-269759757D02*
X305659112Y-269688328D01*
X305659112Y-269688328D02*
X305944826Y-269688328D01*
X305944826Y-269688328D02*
X306087683Y-269759757D01*
X306087683Y-269759757D02*
X306159112Y-269902614D01*
X306159112Y-269902614D02*
X306159112Y-270045471D01*
X306159112Y-270045471D02*
X305444826Y-270188328D01*
X306587683Y-269688328D02*
X307159111Y-269688328D01*
X306801968Y-269188328D02*
X306801968Y-270474042D01*
X306801968Y-270474042D02*
X306873397Y-270616900D01*
X306873397Y-270616900D02*
X307016254Y-270688328D01*
X307016254Y-270688328D02*
X307159111Y-270688328D01*
X307659111Y-270545471D02*
X307730540Y-270616900D01*
X307730540Y-270616900D02*
X307659111Y-270688328D01*
X307659111Y-270688328D02*
X307587683Y-270616900D01*
X307587683Y-270616900D02*
X307659111Y-270545471D01*
X307659111Y-270545471D02*
X307659111Y-270688328D01*
X307659111Y-269759757D02*
X307730540Y-269831185D01*
X307730540Y-269831185D02*
X307659111Y-269902614D01*
X307659111Y-269902614D02*
X307587683Y-269831185D01*
X307587683Y-269831185D02*
X307659111Y-269759757D01*
X307659111Y-269759757D02*
X307659111Y-269902614D01*
D10*
D11*
X319989000Y-278502200D02*
X319989000Y-281502200D01*
D10*
D11*
X383989000Y-278502200D02*
X383989000Y-285002200D01*
D14*
%TO.C,R1250*%
X131572000Y-106807000D03*
X129572000Y-106807000D03*
%TD*%
%TO.C,R1190*%
X149225000Y-99187000D03*
X151225000Y-99187000D03*
%TD*%
D15*
%TO.C,Q3*%
X65471000Y-98847000D03*
X67371000Y-98847000D03*
X66421000Y-96647000D03*
%TD*%
D16*
%TO.C,Q1*%
X156042000Y-95062000D03*
X156042000Y-96962000D03*
X158242000Y-96012000D03*
%TD*%
D17*
%TO.C,C53*%
X146849500Y-107680000D03*
X144774500Y-107680000D03*
%TD*%
%TO.C,C52*%
X146849500Y-109839000D03*
X144774500Y-109839000D03*
%TD*%
D18*
%TO.C,R4*%
X50735000Y-103095000D03*
X50735000Y-101095000D03*
%TD*%
D19*
%TO.C,R17*%
X94472000Y-89408000D03*
X92472000Y-89408000D03*
%TD*%
D14*
%TO.C,R119*%
X144812000Y-101203000D03*
X146812000Y-101203000D03*
%TD*%
%TO.C,R126*%
X129572000Y-111315500D03*
X131572000Y-111315500D03*
%TD*%
%TO.C,R22*%
X149765000Y-94869000D03*
X151765000Y-94869000D03*
%TD*%
%TO.C,R127*%
X144828000Y-103235000D03*
X146828000Y-103235000D03*
%TD*%
D20*
%TO.C,C13*%
X92434500Y-91694000D03*
X94509500Y-91694000D03*
%TD*%
D19*
%TO.C,R113*%
X90265000Y-87122000D03*
X88265000Y-87122000D03*
%TD*%
D14*
%TO.C,R191*%
X113046000Y-84201000D03*
X115046000Y-84201000D03*
%TD*%
D21*
%TO.C,IC7*%
X163706000Y-99568000D03*
X163706000Y-100838000D03*
X163706000Y-102108000D03*
X163706000Y-103378000D03*
X163706000Y-104648000D03*
X163706000Y-105918000D03*
X163706000Y-107188000D03*
X168656000Y-107188000D03*
X168656000Y-105918000D03*
X168656000Y-104648000D03*
X168656000Y-103378000D03*
X168656000Y-102108000D03*
X168656000Y-100838000D03*
X168656000Y-99568000D03*
%TD*%
D22*
%TO.C,C2*%
X56069000Y-104022500D03*
X56069000Y-100897500D03*
%TD*%
D23*
%TO.C,IC5*%
X135906000Y-99298000D03*
X135906000Y-100568000D03*
X135906000Y-101838000D03*
X135906000Y-103108000D03*
X135906000Y-104378000D03*
X135906000Y-105648000D03*
X135906000Y-106918000D03*
X135906000Y-108188000D03*
X140906000Y-108188000D03*
X140906000Y-106918000D03*
X140906000Y-105648000D03*
X140906000Y-104378000D03*
X140906000Y-103108000D03*
X140906000Y-101838000D03*
X140906000Y-100568000D03*
X140906000Y-99298000D03*
%TD*%
D19*
%TO.C,R42*%
X94139000Y-49276000D03*
X92139000Y-49276000D03*
%TD*%
D17*
%TO.C,C16*%
X76094500Y-49276000D03*
X74019500Y-49276000D03*
%TD*%
D19*
%TO.C,R114*%
X94488000Y-87122000D03*
X92488000Y-87122000D03*
%TD*%
D24*
%TO.C,SW1*%
X89281000Y-65859000D03*
X89281000Y-68359000D03*
X89281000Y-73359000D03*
X89281000Y-75859000D03*
X89281000Y-78359000D03*
X91781000Y-78359000D03*
X91781000Y-75859000D03*
X91781000Y-73359000D03*
X91781000Y-68359000D03*
X91781000Y-65859000D03*
%TD*%
D25*
%TO.C,D3*%
X173248000Y-108315000D03*
X176548000Y-108315000D03*
%TD*%
D19*
%TO.C,R40*%
X89932000Y-51435000D03*
X87932000Y-51435000D03*
%TD*%
D18*
%TO.C,R23*%
X154051000Y-96742000D03*
X154051000Y-94742000D03*
%TD*%
D14*
%TO.C,R115*%
X92472000Y-84836000D03*
X94472000Y-84836000D03*
%TD*%
D19*
%TO.C,R19*%
X175279000Y-105902000D03*
X173279000Y-105902000D03*
%TD*%
%TO.C,R39*%
X89916000Y-53594000D03*
X87916000Y-53594000D03*
%TD*%
D17*
%TO.C,C17*%
X58314500Y-43815000D03*
X56239500Y-43815000D03*
%TD*%
D14*
%TO.C,R103*%
X56144500Y-48514000D03*
X58144500Y-48514000D03*
%TD*%
%TO.C,R102*%
X117380000Y-84201000D03*
X119380000Y-84201000D03*
%TD*%
D18*
%TO.C,R12*%
X63165000Y-96475000D03*
X63165000Y-94475000D03*
%TD*%
D14*
%TO.C,R38*%
X87948000Y-55753000D03*
X89948000Y-55753000D03*
%TD*%
%TO.C,R120*%
X132366000Y-95996000D03*
X134366000Y-95996000D03*
%TD*%
D18*
%TO.C,R16*%
X102997000Y-98520000D03*
X102997000Y-96520000D03*
%TD*%
D26*
%TO.C,R8*%
X60768000Y-94475000D03*
X60768000Y-96475000D03*
%TD*%
%TO.C,R121*%
X131461000Y-98425000D03*
X131461000Y-100425000D03*
%TD*%
D20*
%TO.C,C48*%
X88370500Y-84836000D03*
X90445500Y-84836000D03*
%TD*%
D19*
%TO.C,R7*%
X48052000Y-96110000D03*
X46052000Y-96110000D03*
%TD*%
D26*
%TO.C,R6*%
X45909000Y-101079000D03*
X45909000Y-103079000D03*
%TD*%
D27*
%TO.C,C1*%
X45235500Y-98777000D03*
X48360500Y-98777000D03*
%TD*%
D18*
%TO.C,R9*%
X58609000Y-102952000D03*
X58609000Y-100952000D03*
%TD*%
D19*
%TO.C,R55*%
X124444000Y-60071000D03*
X122444000Y-60071000D03*
%TD*%
D20*
%TO.C,C54*%
X170264000Y-56896000D03*
X172339000Y-56896000D03*
%TD*%
D28*
%TO.C,C50*%
X129048000Y-100462500D03*
X129048000Y-98387500D03*
%TD*%
D18*
%TO.C,R11*%
X58736000Y-96459000D03*
X58736000Y-94459000D03*
%TD*%
D14*
%TO.C,R20*%
X173247000Y-103743000D03*
X175247000Y-103743000D03*
%TD*%
%TO.C,R104*%
X88249000Y-89408000D03*
X90249000Y-89408000D03*
%TD*%
D21*
%TO.C,U7*%
X61598000Y-43561000D03*
X61598000Y-44831000D03*
X61598000Y-46101000D03*
X61598000Y-47371000D03*
X61598000Y-48641000D03*
X61598000Y-49911000D03*
X61598000Y-51181000D03*
X66548000Y-51181000D03*
X66548000Y-49911000D03*
X66548000Y-48641000D03*
X66548000Y-47371000D03*
X66548000Y-46101000D03*
X66548000Y-44831000D03*
X66548000Y-43561000D03*
%TD*%
D25*
%TO.C,D4*%
X173121000Y-101457000D03*
X176421000Y-101457000D03*
%TD*%
D14*
%TO.C,R118*%
X144812000Y-99171000D03*
X146812000Y-99171000D03*
%TD*%
%TO.C,R100*%
X56144500Y-46101000D03*
X58144500Y-46101000D03*
%TD*%
%TO.C,R98*%
X74073000Y-51562000D03*
X76073000Y-51562000D03*
%TD*%
D19*
%TO.C,R10*%
X60609000Y-98523000D03*
X58609000Y-98523000D03*
%TD*%
D17*
%TO.C,C55*%
X146865500Y-105394000D03*
X144790500Y-105394000D03*
%TD*%
D14*
%TO.C,R101*%
X121317000Y-84201000D03*
X123317000Y-84201000D03*
%TD*%
%TO.C,R193*%
X117380000Y-60071000D03*
X119380000Y-60071000D03*
%TD*%
D29*
%TO.C,IC4*%
X92115000Y-58933000D03*
X92115000Y-59883000D03*
X92115000Y-60833000D03*
X94615000Y-60833000D03*
X94615000Y-58933000D03*
%TD*%
D20*
%TO.C,C19*%
X69618000Y-49403000D03*
X71693000Y-49403000D03*
%TD*%
D26*
%TO.C,R24*%
X160798000Y-95012000D03*
X160798000Y-97012000D03*
%TD*%
D14*
%TO.C,R43*%
X92171000Y-51435000D03*
X94171000Y-51435000D03*
%TD*%
%TO.C,R44*%
X92171000Y-53594000D03*
X94171000Y-53594000D03*
%TD*%
D19*
%TO.C,R117*%
X115046000Y-96852000D03*
X113046000Y-96852000D03*
%TD*%
D14*
%TO.C,R13*%
X65610000Y-94459000D03*
X67610000Y-94459000D03*
%TD*%
%TO.C,R125*%
X129572000Y-108966000D03*
X131572000Y-108966000D03*
%TD*%
%TO.C,R99*%
X78121000Y-49276000D03*
X80121000Y-49276000D03*
%TD*%
D29*
%TO.C,IC6*%
X173776000Y-93599000D03*
X173776000Y-94549000D03*
X173776000Y-95499000D03*
X176276000Y-95499000D03*
X176276000Y-93599000D03*
%TD*%
D14*
%TO.C,R214*%
X112665000Y-60071000D03*
X114665000Y-60071000D03*
%TD*%
D19*
%TO.C,R105*%
X71550000Y-51689000D03*
X69550000Y-51689000D03*
%TD*%
D26*
%TO.C,R259*%
X169688000Y-94742000D03*
X169688000Y-96742000D03*
%TD*%
D18*
%TO.C,R21*%
X166259000Y-96742000D03*
X166259000Y-94742000D03*
%TD*%
D14*
%TO.C,R45*%
X92171000Y-55753000D03*
X94171000Y-55753000D03*
%TD*%
D19*
%TO.C,R112*%
X89408000Y-60960000D03*
X87408000Y-60960000D03*
%TD*%
D14*
%TO.C,R41*%
X87919000Y-49276000D03*
X89919000Y-49276000D03*
%TD*%
D17*
%TO.C,C18*%
X58166000Y-50927000D03*
X56091000Y-50927000D03*
%TD*%
D20*
%TO.C,C42*%
X112987000Y-86360000D03*
X115062000Y-86360000D03*
%TD*%
D14*
%TO.C,R116*%
X113046000Y-99138000D03*
X115046000Y-99138000D03*
%TD*%
%TO.C,R258*%
X173895000Y-90805000D03*
X175895000Y-90805000D03*
%TD*%
D20*
%TO.C,C51*%
X129556000Y-104632000D03*
X131631000Y-104632000D03*
%TD*%
D30*
%TO.C,D1*%
X176295000Y-99044000D03*
X172995000Y-99044000D03*
%TD*%
D31*
%TO.C,C49*%
X140770500Y-95996000D03*
X137645500Y-95996000D03*
%TD*%
D18*
%TO.C,R5*%
X48068000Y-103095000D03*
X48068000Y-101095000D03*
%TD*%
D21*
%TO.C,U1*%
X50992000Y-95123000D03*
X50992000Y-96393000D03*
X50992000Y-97663000D03*
X50992000Y-98933000D03*
X55942000Y-98933000D03*
X55942000Y-97663000D03*
X55942000Y-96393000D03*
X55942000Y-95123000D03*
%TD*%
M02*
