M48
; DRILL file {KiCad 9.0.3} date 2025-09-21T10:38:45+0900
; FORMAT={-:-/ absolute / metric / decimal}
; #@! TF.CreationDate,2025-09-21T10:38:45+09:00
; #@! TF.GenerationSoftware,Kicad,Pcbnew,9.0.3
; #@! TF.FileFunction,Plated,1,2,PTH
FMAT,2
METRIC
; #@! TA.AperFunction,Plated,PTH,ViaDrill
T1C0.300
; #@! TA.AperFunction,Plated,PTH,ComponentDrill
T2C0.690
; #@! TA.AperFunction,Plated,PTH,ComponentDrill
T3C0.750
; #@! TA.AperFunction,Plated,PTH,ComponentDrill
T4C0.800
; #@! TA.AperFunction,Plated,PTH,ComponentDrill
T5C0.900
; #@! TA.AperFunction,Plated,PTH,ComponentDrill
T6C1.000
; #@! TA.AperFunction,Plated,PTH,ComponentDrill
T7C1.200
; #@! TA.AperFunction,Plated,PTH,ComponentDrill
T8C1.350
; #@! TA.AperFunction,Plated,PTH,ComponentDrill
T9C1.700
; #@! TA.AperFunction,Plated,PTH,ComponentDrill
T10C2.970
%
G90
G05
T1
X45.339Y-105.41
X46.439Y-99.521
X47.446Y-74.059
X47.49Y-65.148
X48.311Y-94.597
X48.48Y-55.096
X49.038Y-56.681
X49.042Y-87.98
X49.657Y-74.549
X50.401Y-73.202
X50.853Y-49.591
X51.308Y-74.549
X51.443Y-70.698
X52.197Y-48.514
X52.504Y-77.029
X53.901Y-98.0
X54.331Y-89.281
X54.61Y-61.976
X54.864Y-48.514
X55.683Y-47.307
X55.88Y-74.422
X57.332Y-44.915
X57.395Y-70.698
X58.42Y-74.295
X58.42Y-78.74
X59.69Y-51.308
X59.715Y-47.271
X60.071Y-58.928
X60.071Y-73.406
X62.992Y-73.406
X63.676Y-44.343
X65.472Y-96.765
X66.27Y-91.04
X69.469Y-43.815
X70.104Y-46.736
X70.271Y-54.323
X72.049Y-53.51
X74.041Y-47.371
X75.771Y-77.029
X86.032Y-62.177
X86.493Y-53.583
X86.501Y-50.879
X90.433Y-82.797
X91.059Y-55.529
X93.116Y-52.459
X93.365Y-58.652
X95.827Y-87.104
X96.354Y-91.881
X99.506Y-97.425
X113.989Y-61.983
X117.19Y-62.217
X119.993Y-65.89
X119.995Y-112.674
X120.734Y-60.105
X122.382Y-58.652
X125.168Y-94.852
X125.964Y-97.822
X128.016Y-105.918
X128.022Y-86.723
X129.281Y-94.852
X132.823Y-104.293
X133.731Y-103.632
X134.918Y-68.118
X139.192Y-105.791
X146.903Y-97.45
X150.622Y-96.774
X151.257Y-109.728
X155.65Y-59.046
X156.441Y-94.034
X158.7Y-97.822
X161.83Y-98.561
X162.328Y-96.934
X163.632Y-96.876
X165.227Y-100.965
X165.227Y-104.648
X167.005Y-102.489
X167.005Y-105.664
X169.037Y-77.192
X170.899Y-91.349
X171.664Y-98.008
X171.78Y-78.232
X172.923Y-81.023
X172.923Y-92.402
X173.689Y-57.195
X173.719Y-97.388
X174.133Y-98.653
X174.505Y-71.321
X174.712Y-97.231
X175.493Y-94.549
X176.145Y-100.251
T2
X105.537Y-97.894
X108.077Y-95.354
X110.617Y-97.894
X117.856Y-89.408
X120.396Y-86.868
X122.936Y-89.408
X154.067Y-103.378
X156.607Y-100.838
X159.147Y-103.378
T3
X115.777Y-67.644
X115.777Y-71.644
X115.777Y-73.644
X115.777Y-75.644
X118.277Y-67.644
X118.277Y-71.644
X118.277Y-73.644
X118.277Y-75.644
X172.76Y-69.469
X172.76Y-73.469
X172.76Y-75.469
X172.76Y-77.469
X175.26Y-69.469
X175.26Y-73.469
X175.26Y-75.469
X175.26Y-77.469
T4
X89.281Y-65.859
X89.281Y-68.359
X89.281Y-73.359
X89.281Y-75.859
X89.281Y-78.359
X91.781Y-65.859
X91.781Y-68.359
X91.781Y-73.359
X91.781Y-75.859
X91.781Y-78.359
X128.499Y-51.816
X136.119Y-51.816
X143.358Y-51.816
X150.978Y-51.816
X156.21Y-51.689
X163.83Y-51.689
X169.037Y-51.816
X176.657Y-51.816
T5
X46.736Y-49.911
X49.276Y-49.911
T6
X65.411Y-106.558
X65.411Y-109.098
X67.951Y-106.558
X67.951Y-109.098
X70.491Y-106.558
X70.491Y-109.098
X70.866Y-44.45
X73.406Y-44.45
X75.946Y-44.45
X78.486Y-44.45
X81.026Y-44.45
X85.745Y-44.425
X88.285Y-44.425
X99.187Y-44.323
X101.727Y-44.323
X104.267Y-44.323
X106.807Y-44.323
X109.347Y-44.323
X121.666Y-44.196
X124.206Y-44.196
X126.746Y-44.196
X129.286Y-44.196
X131.826Y-44.196
X134.366Y-44.196
X153.051Y-113.411
X153.051Y-115.951
X155.591Y-113.411
X155.591Y-115.951
X158.131Y-113.411
X158.131Y-115.951
X160.671Y-113.411
X160.671Y-115.951
X163.211Y-113.411
X163.211Y-115.951
X165.751Y-113.411
X165.751Y-115.951
X168.291Y-113.411
X168.291Y-115.951
T7
X46.578Y-55.54
X46.578Y-89.04
X50.078Y-89.04
X60.728Y-55.54
X60.728Y-89.04
X64.228Y-89.04
X75.147Y-55.694
X75.147Y-89.194
X78.647Y-89.194
X88.35Y-107.457
X90.85Y-107.457
X93.35Y-107.457
X103.251Y-55.753
X103.251Y-89.253
X106.751Y-89.253
X130.559Y-56.596
X130.559Y-90.096
X134.059Y-90.096
X145.477Y-56.823
X145.477Y-90.323
X148.977Y-90.323
X159.967Y-56.884
X159.967Y-90.384
X163.467Y-90.384
X186.972Y-56.937
X186.972Y-90.437
X190.472Y-90.437
T8
X113.802Y-64.134
X113.802Y-79.134
X120.252Y-64.134
X120.252Y-79.134
X170.785Y-65.959
X170.785Y-80.959
X177.235Y-65.959
X177.235Y-80.959
T9
X44.078Y-60.89
X44.078Y-83.69
X52.578Y-59.69
X52.578Y-84.89
X58.228Y-60.89
X58.228Y-83.69
X66.728Y-59.69
X66.728Y-84.89
X72.647Y-61.044
X72.647Y-83.844
X81.147Y-59.844
X81.147Y-85.044
X100.751Y-61.103
X100.751Y-83.903
X109.251Y-59.903
X109.251Y-85.103
X128.059Y-61.946
X128.059Y-84.746
X136.559Y-60.746
X136.559Y-85.946
X142.977Y-62.173
X142.977Y-84.973
X151.477Y-60.973
X151.477Y-86.173
X157.467Y-62.234
X157.467Y-85.034
X165.967Y-61.034
X165.967Y-86.234
X184.472Y-62.287
X184.472Y-85.087
X192.972Y-61.087
X192.972Y-86.287
T10
X86.45Y-100.457
X95.25Y-100.457
M30
