%TF.GenerationSoftware,KiCad,Pcbnew,9.0.3*%
%TF.CreationDate,2026-02-22T18:32:59+09:00*%
%TF.ProjectId,VCOSeparate,56434f53-6570-4617-9261-74652e6b6963,rev?*%
%TF.SameCoordinates,Original*%
%TF.FileFunction,Soldermask,Bot*%
%TF.FilePolarity,Negative*%
%FSLAX46Y46*%
G04 Gerber Fmt 4.6, Leading zero omitted, Abs format (unit mm)*
G04 Created by KiCad (PCBNEW 9.0.3) date 2026-02-22 18:32:59*
%MOMM*%
%LPD*%
G01*
G04 APERTURE LIST*
G04 Aperture macros list*
%AMRoundRect*
0 Rectangle with rounded corners*
0 $1 Rounding radius*
0 $2 $3 $4 $5 $6 $7 $8 $9 X,Y pos of 4 corners*
0 Add a 4 corners polygon primitive as box body*
4,1,4,$2,$3,$4,$5,$6,$7,$8,$9,$2,$3,0*
0 Add four circle primitives for the rounded corners*
1,1,$1+$1,$2,$3*
1,1,$1+$1,$4,$5*
1,1,$1+$1,$6,$7*
1,1,$1+$1,$8,$9*
0 Add four rect primitives between the rounded corners*
20,1,$1+$1,$2,$3,$4,$5,0*
20,1,$1+$1,$4,$5,$6,$7,0*
20,1,$1+$1,$6,$7,$8,$9,0*
20,1,$1+$1,$8,$9,$2,$3,0*%
G04 Aperture macros list end*
%ADD10C,1.600000*%
%ADD11R,1.800000X1.800000*%
%ADD12C,1.800000*%
%ADD13R,1.500000X1.500000*%
%ADD14C,1.500000*%
%ADD15C,1.400000*%
%ADD16RoundRect,0.250000X0.870000X-0.870000X0.870000X0.870000X-0.870000X0.870000X-0.870000X-0.870000X0*%
%ADD17C,2.240000*%
%ADD18R,1.700000X1.700000*%
%ADD19C,1.700000*%
%ADD20C,4.455000*%
%ADD21RoundRect,0.250000X-0.550000X0.550000X-0.550000X-0.550000X0.550000X-0.550000X0.550000X0.550000X0*%
%ADD22R,1.200000X1.200000*%
%ADD23C,1.286000*%
%ADD24C,2.025000*%
%ADD25RoundRect,0.250000X-0.550000X-0.550000X0.550000X-0.550000X0.550000X0.550000X-0.550000X0.550000X0*%
%ADD26C,1.440000*%
%ADD27R,1.159000X1.159000*%
%ADD28C,1.159000*%
%ADD29RoundRect,0.250000X0.550000X-0.950000X0.550000X0.950000X-0.550000X0.950000X-0.550000X-0.950000X0*%
%ADD30O,1.600000X2.400000*%
%ADD31RoundRect,0.250000X0.550000X0.550000X-0.550000X0.550000X-0.550000X-0.550000X0.550000X-0.550000X0*%
%ADD32RoundRect,0.250000X-0.870000X0.870000X-0.870000X-0.870000X0.870000X-0.870000X0.870000X0.870000X0*%
%ADD33RoundRect,0.250000X-0.475000X0.337500X-0.475000X-0.337500X0.475000X-0.337500X0.475000X0.337500X0*%
%ADD34RoundRect,0.250000X0.337500X0.475000X-0.337500X0.475000X-0.337500X-0.475000X0.337500X-0.475000X0*%
G04 APERTURE END LIST*
D10*
%TO.C,C31*%
X51550000Y-121800000D03*
X56550000Y-121800000D03*
%TD*%
%TO.C,C28*%
X239480000Y-116777000D03*
X244480000Y-116777000D03*
%TD*%
%TO.C,C27*%
X222900000Y-117900000D03*
X227900000Y-117900000D03*
%TD*%
%TO.C,C26*%
X197181000Y-122365000D03*
X192181000Y-122365000D03*
%TD*%
%TO.C,C23*%
X32963000Y-108012000D03*
X37963000Y-108012000D03*
%TD*%
%TO.C,C16*%
X148610000Y-116332000D03*
X153610000Y-116332000D03*
%TD*%
%TO.C,C15*%
X175173000Y-115570000D03*
X180173000Y-115570000D03*
%TD*%
%TO.C,C14*%
X160889000Y-118364000D03*
X155889000Y-118364000D03*
%TD*%
%TO.C,C13*%
X135382000Y-115697000D03*
X130382000Y-115697000D03*
%TD*%
%TO.C,R82*%
X143129000Y-47879000D03*
X143129000Y-45339000D03*
%TD*%
%TO.C,R86*%
X120050000Y-33000000D03*
X122590000Y-33000000D03*
%TD*%
D11*
%TO.C,D4*%
X30607000Y-36449000D03*
D12*
X33147000Y-36449000D03*
%TD*%
D10*
%TO.C,R17*%
X49853000Y-60452000D03*
X47313000Y-60452000D03*
%TD*%
%TO.C,R61*%
X177419000Y-118872000D03*
X174879000Y-118872000D03*
%TD*%
%TO.C,C9*%
X110657000Y-74422000D03*
X108157000Y-74422000D03*
%TD*%
D13*
%TO.C,S1*%
X52551000Y-46000000D03*
D14*
X48221000Y-41670000D03*
X48221000Y-35547000D03*
X52551000Y-31218000D03*
X58674000Y-31218000D03*
X63004000Y-35547000D03*
X63004000Y-41670000D03*
X58674000Y-46000000D03*
X52862000Y-38609000D03*
X58362000Y-38609000D03*
%TD*%
D10*
%TO.C,R88*%
X152391000Y-64196000D03*
X154931000Y-64196000D03*
%TD*%
D15*
%TO.C,R129*%
X45466000Y-119303000D03*
X45466000Y-121843000D03*
%TD*%
%TO.C,R120*%
X41352000Y-47117000D03*
X38812000Y-47117000D03*
%TD*%
%TO.C,R128*%
X239587000Y-114110000D03*
X242127000Y-114110000D03*
%TD*%
%TO.C,R118*%
X41479000Y-43815000D03*
X38939000Y-43815000D03*
%TD*%
D16*
%TO.C,D1*%
X78007000Y-110871000D03*
D17*
X78007000Y-108331000D03*
%TD*%
D18*
%TO.C,J11*%
X257000000Y-75000000D03*
D19*
X259540000Y-75000000D03*
%TD*%
D15*
%TO.C,R119*%
X30861000Y-55830000D03*
X30861000Y-53290000D03*
%TD*%
D12*
%TO.C,VR15*%
X170773000Y-99000000D03*
X173273000Y-99000000D03*
X175773000Y-99000000D03*
D20*
X168873000Y-92000000D03*
X177673000Y-92000000D03*
%TD*%
D10*
%TO.C,R72*%
X168529000Y-59563000D03*
X171069000Y-59563000D03*
%TD*%
D15*
%TO.C,R114*%
X30480000Y-108012000D03*
X27940000Y-108012000D03*
%TD*%
D10*
%TO.C,R8*%
X45887000Y-53877000D03*
X45887000Y-51337000D03*
%TD*%
D15*
%TO.C,R121*%
X36272000Y-43815000D03*
X33732000Y-43815000D03*
%TD*%
D10*
%TO.C,R13*%
X75438000Y-61849000D03*
X75438000Y-59309000D03*
%TD*%
D15*
%TO.C,R125*%
X225286000Y-113983000D03*
X227826000Y-113983000D03*
%TD*%
D21*
%TO.C,C4*%
X96901000Y-52896900D03*
D10*
X96901000Y-55396900D03*
%TD*%
D22*
%TO.C,S2*%
X110687000Y-45018000D03*
D23*
X110687000Y-39018000D03*
X110687000Y-37018000D03*
X113187000Y-45018000D03*
X113187000Y-39018000D03*
X113187000Y-37018000D03*
D24*
X108712000Y-48528000D03*
X108712000Y-33528000D03*
X115162000Y-48528000D03*
X115162000Y-33528000D03*
D23*
X110687000Y-41018000D03*
X113187000Y-41018000D03*
%TD*%
D10*
%TO.C,R32*%
X66265000Y-107950000D03*
X68805000Y-107950000D03*
%TD*%
%TO.C,R81*%
X251150000Y-51300000D03*
X248610000Y-51300000D03*
%TD*%
%TO.C,R1*%
X52237000Y-53877000D03*
X52237000Y-51337000D03*
%TD*%
D12*
%TO.C,VR11*%
X211794000Y-46000000D03*
X214294000Y-46000000D03*
X216794000Y-46000000D03*
D20*
X209894000Y-39000000D03*
X218694000Y-39000000D03*
%TD*%
D18*
%TO.C,J5*%
X207162000Y-121000000D03*
D19*
X209702000Y-121000000D03*
X212242000Y-121000000D03*
X214782000Y-121000000D03*
X217322000Y-121000000D03*
X219862000Y-121000000D03*
%TD*%
D15*
%TO.C,R113*%
X32120000Y-120150000D03*
X29580000Y-120150000D03*
%TD*%
D10*
%TO.C,R105*%
X230886000Y-78769000D03*
X230886000Y-76229000D03*
%TD*%
%TO.C,R9*%
X79923000Y-51816000D03*
X79923000Y-54356000D03*
%TD*%
%TO.C,R37*%
X93091000Y-64389000D03*
X90551000Y-64389000D03*
%TD*%
%TO.C,R97*%
X210693000Y-57658000D03*
X208153000Y-57658000D03*
%TD*%
%TO.C,R89*%
X154535000Y-71689000D03*
X151995000Y-71689000D03*
%TD*%
D25*
%TO.C,C18*%
X217337000Y-73660000D03*
D10*
X219837000Y-73660000D03*
%TD*%
%TO.C,R64*%
X143891000Y-120592000D03*
X143891000Y-123132000D03*
%TD*%
D12*
%TO.C,VR1*%
X75309000Y-46000000D03*
X77809000Y-46000000D03*
X80309000Y-46000000D03*
D20*
X73409000Y-39000000D03*
X82209000Y-39000000D03*
%TD*%
D10*
%TO.C,R67*%
X189836000Y-54356000D03*
X192376000Y-54356000D03*
%TD*%
%TO.C,R101*%
X247950000Y-66490000D03*
X247950000Y-63950000D03*
%TD*%
%TO.C,R51*%
X135030000Y-122047000D03*
X132490000Y-122047000D03*
%TD*%
D18*
%TO.C,J12*%
X32004000Y-30099000D03*
D19*
X34544000Y-30099000D03*
X37084000Y-30099000D03*
X39624000Y-30099000D03*
X42164000Y-30099000D03*
%TD*%
D10*
%TO.C,R26*%
X108458000Y-64897000D03*
X110998000Y-64897000D03*
%TD*%
%TO.C,R21*%
X93120000Y-75438000D03*
X90580000Y-75438000D03*
%TD*%
D12*
%TO.C,VR7*%
X94446000Y-99000000D03*
X96946000Y-99000000D03*
X99446000Y-99000000D03*
D20*
X92546000Y-92000000D03*
X101346000Y-92000000D03*
%TD*%
D10*
%TO.C,R19*%
X118912000Y-45355000D03*
X121452000Y-45355000D03*
%TD*%
%TO.C,R95*%
X208534000Y-51054000D03*
X211074000Y-51054000D03*
%TD*%
%TO.C,R73*%
X189836000Y-70739000D03*
X192376000Y-70739000D03*
%TD*%
%TO.C,R41*%
X66294000Y-104648000D03*
X68834000Y-104648000D03*
%TD*%
%TO.C,C8*%
X131104000Y-57745000D03*
X131104000Y-55245000D03*
%TD*%
D15*
%TO.C,R126*%
X225236000Y-111443000D03*
X227776000Y-111443000D03*
%TD*%
D10*
%TO.C,R45*%
X133223000Y-104521000D03*
X135763000Y-104521000D03*
%TD*%
%TO.C,R2*%
X49062000Y-53877000D03*
X49062000Y-51337000D03*
%TD*%
D12*
%TO.C,VR10*%
X191088000Y-46000000D03*
X193588000Y-46000000D03*
X196088000Y-46000000D03*
D20*
X189188000Y-39000000D03*
X197988000Y-39000000D03*
%TD*%
D15*
%TO.C,R130*%
X48387000Y-119303000D03*
X48387000Y-121843000D03*
%TD*%
D10*
%TO.C,R34*%
X87455000Y-119550000D03*
X89995000Y-119550000D03*
%TD*%
%TO.C,R20*%
X120060000Y-36350000D03*
X122600000Y-36350000D03*
%TD*%
D18*
%TO.C,J2*%
X67000000Y-75000000D03*
D19*
X69540000Y-75000000D03*
X72080000Y-75000000D03*
X74620000Y-75000000D03*
%TD*%
D10*
%TO.C,R36*%
X102108000Y-111137000D03*
X102108000Y-113677000D03*
%TD*%
D12*
%TO.C,VR6*%
X129014000Y-99000000D03*
X131514000Y-99000000D03*
X134014000Y-99000000D03*
D20*
X127114000Y-92000000D03*
X135914000Y-92000000D03*
%TD*%
D25*
%TO.C,C17*%
X217337000Y-66802000D03*
D10*
X219837000Y-66802000D03*
%TD*%
D12*
%TO.C,VR18*%
X258567000Y-98948000D03*
X261067000Y-98948000D03*
X263567000Y-98948000D03*
D20*
X256667000Y-91948000D03*
X265467000Y-91948000D03*
%TD*%
D26*
%TO.C,TM1*%
X57317000Y-66167000D03*
X59857000Y-63627000D03*
X57317000Y-61087000D03*
%TD*%
D10*
%TO.C,R11*%
X83352000Y-54004000D03*
X83352000Y-51464000D03*
%TD*%
D26*
%TO.C,TM5*%
X207391000Y-81026000D03*
X209931000Y-78486000D03*
X207391000Y-75946000D03*
%TD*%
D10*
%TO.C,C6*%
X110577000Y-77724000D03*
X108077000Y-77724000D03*
%TD*%
%TO.C,C2*%
X47371000Y-66802000D03*
X47371000Y-64302000D03*
%TD*%
%TO.C,R46*%
X158652000Y-107950000D03*
X161192000Y-107950000D03*
%TD*%
%TO.C,R108*%
X240948000Y-78740000D03*
X238408000Y-78740000D03*
%TD*%
%TO.C,R70*%
X159385000Y-53086000D03*
X161925000Y-53086000D03*
%TD*%
%TO.C,R23*%
X96901000Y-58928000D03*
X99441000Y-58928000D03*
%TD*%
%TO.C,R110*%
X38227000Y-37084000D03*
X38227000Y-34544000D03*
%TD*%
D12*
%TO.C,VR16*%
X191638000Y-99000000D03*
X194138000Y-99000000D03*
X196638000Y-99000000D03*
D20*
X189738000Y-92000000D03*
X198538000Y-92000000D03*
%TD*%
D18*
%TO.C,J9*%
X224000000Y-75000000D03*
D19*
X226540000Y-75000000D03*
%TD*%
D10*
%TO.C,R18*%
X121452000Y-39976000D03*
X121452000Y-42516000D03*
%TD*%
%TO.C,R100*%
X251350000Y-66545000D03*
X251350000Y-64005000D03*
%TD*%
%TO.C,R83*%
X183388000Y-45085000D03*
X183388000Y-42545000D03*
%TD*%
%TO.C,R5*%
X61762000Y-53877000D03*
X61762000Y-51337000D03*
%TD*%
%TO.C,R106*%
X234950000Y-78740000D03*
X234950000Y-76200000D03*
%TD*%
%TO.C,R42*%
X101912000Y-104928000D03*
X104452000Y-104928000D03*
%TD*%
D12*
%TO.C,VR3*%
X130128000Y-46000000D03*
X132628000Y-46000000D03*
X135128000Y-46000000D03*
D20*
X128228000Y-39000000D03*
X137028000Y-39000000D03*
%TD*%
D18*
%TO.C,J4*%
X231013000Y-106998000D03*
D19*
X233553000Y-106998000D03*
X236093000Y-106998000D03*
%TD*%
D22*
%TO.C,S3*%
X111730000Y-97850000D03*
D23*
X111730000Y-91850000D03*
X111730000Y-89850000D03*
X114230000Y-97850000D03*
X114230000Y-91850000D03*
X114230000Y-89850000D03*
D24*
X109755000Y-101360000D03*
X109755000Y-86360000D03*
X116205000Y-101360000D03*
X116205000Y-86360000D03*
D23*
X111730000Y-93850000D03*
X114230000Y-93850000D03*
%TD*%
D27*
%TO.C,IC8*%
X193929000Y-116396000D03*
D28*
X196469000Y-116396000D03*
X199009000Y-116396000D03*
X201549000Y-116396000D03*
X204089000Y-116396000D03*
X206629000Y-116396000D03*
X209169000Y-116396000D03*
X211709000Y-116396000D03*
X214249000Y-116396000D03*
X216789000Y-116396000D03*
X216789000Y-108458000D03*
X214249000Y-108458000D03*
X211709000Y-108458000D03*
X209169000Y-108458000D03*
X206629000Y-108458000D03*
X204089000Y-108458000D03*
X201549000Y-108458000D03*
X199009000Y-108458000D03*
X196469000Y-108458000D03*
X193929000Y-108458000D03*
%TD*%
D10*
%TO.C,R54*%
X165100000Y-122838000D03*
X165100000Y-120298000D03*
%TD*%
%TO.C,R102*%
X210722000Y-60960000D03*
X208182000Y-60960000D03*
%TD*%
D15*
%TO.C,R116*%
X25273000Y-50546000D03*
X27813000Y-50546000D03*
%TD*%
D10*
%TO.C,R31*%
X134900000Y-55250000D03*
X134900000Y-57790000D03*
%TD*%
%TO.C,R98*%
X210693000Y-54356000D03*
X208153000Y-54356000D03*
%TD*%
%TO.C,R50*%
X158652000Y-111125000D03*
X161192000Y-111125000D03*
%TD*%
%TO.C,R87*%
X152391000Y-68260000D03*
X154931000Y-68260000D03*
%TD*%
D12*
%TO.C,VR2*%
X94486000Y-46000000D03*
X96986000Y-46000000D03*
X99486000Y-46000000D03*
D20*
X92586000Y-39000000D03*
X101386000Y-39000000D03*
%TD*%
D12*
%TO.C,VR4*%
X74253000Y-99000000D03*
X76753000Y-99000000D03*
X79253000Y-99000000D03*
D20*
X72353000Y-92000000D03*
X81153000Y-92000000D03*
%TD*%
D10*
%TO.C,C10*%
X117856000Y-66969000D03*
X117856000Y-69469000D03*
%TD*%
%TO.C,R79*%
X175260000Y-51816000D03*
X177800000Y-51816000D03*
%TD*%
%TO.C,R60*%
X150876000Y-104775000D03*
X148336000Y-104775000D03*
%TD*%
%TO.C,R76*%
X177292000Y-58674000D03*
X174752000Y-58674000D03*
%TD*%
D13*
%TO.C,S4*%
X232786000Y-97606000D03*
D14*
X232786000Y-93606000D03*
X232786000Y-89606000D03*
X235286000Y-97606000D03*
X235286000Y-93606000D03*
X235286000Y-89606000D03*
D24*
X230886000Y-101106000D03*
X230886000Y-86106000D03*
X237186000Y-101106000D03*
X237186000Y-86106000D03*
%TD*%
D10*
%TO.C,R57*%
X177575000Y-107823000D03*
X175035000Y-107823000D03*
%TD*%
%TO.C,R65*%
X191926000Y-51181000D03*
X189386000Y-51181000D03*
%TD*%
D18*
%TO.C,J1*%
X112000000Y-121000000D03*
D19*
X114540000Y-121000000D03*
X117080000Y-121000000D03*
X119620000Y-121000000D03*
X122160000Y-121000000D03*
X124700000Y-121000000D03*
%TD*%
D18*
%TO.C,J8*%
X177000000Y-75000000D03*
D19*
X179540000Y-75000000D03*
%TD*%
D10*
%TO.C,R58*%
X150876000Y-107950000D03*
X148336000Y-107950000D03*
%TD*%
D25*
%TO.C,C25*%
X24805000Y-55118000D03*
D10*
X27305000Y-55118000D03*
%TD*%
%TO.C,R104*%
X251250000Y-60590000D03*
X251250000Y-58050000D03*
%TD*%
%TO.C,R90*%
X142851000Y-71025000D03*
X142851000Y-73565000D03*
%TD*%
D15*
%TO.C,R122*%
X27636000Y-43942000D03*
X25096000Y-43942000D03*
%TD*%
D10*
%TO.C,R25*%
X133390000Y-51562000D03*
X130850000Y-51562000D03*
%TD*%
%TO.C,R80*%
X182753000Y-55851000D03*
X182753000Y-58391000D03*
%TD*%
%TO.C,R43*%
X123698000Y-104394000D03*
X121158000Y-104394000D03*
%TD*%
%TO.C,R44*%
X140081000Y-120621000D03*
X140081000Y-123161000D03*
%TD*%
%TO.C,R39*%
X80010000Y-67056000D03*
X77470000Y-67056000D03*
%TD*%
%TO.C,R47*%
X133223000Y-110871000D03*
X135763000Y-110871000D03*
%TD*%
%TO.C,R93*%
X220726000Y-57912000D03*
X220726000Y-60452000D03*
%TD*%
%TO.C,R24*%
X93091000Y-58928000D03*
X93091000Y-61468000D03*
%TD*%
%TO.C,R38*%
X82521000Y-70612000D03*
X85061000Y-70612000D03*
%TD*%
%TO.C,R94*%
X216916000Y-58166000D03*
X216916000Y-60706000D03*
%TD*%
%TO.C,R78*%
X189865000Y-67564000D03*
X192405000Y-67564000D03*
%TD*%
D21*
%TO.C,C7*%
X103124000Y-51816000D03*
D10*
X103124000Y-54316000D03*
%TD*%
%TO.C,R56*%
X160811000Y-104775000D03*
X158271000Y-104775000D03*
%TD*%
%TO.C,R7*%
X68112000Y-53877000D03*
X68112000Y-51337000D03*
%TD*%
D29*
%TO.C,IC5*%
X40767000Y-115824000D03*
D30*
X43307000Y-115824000D03*
X45847000Y-115824000D03*
X48387000Y-115824000D03*
X50927000Y-115824000D03*
X53467000Y-115824000D03*
X56007000Y-115824000D03*
X56007000Y-108204000D03*
X53467000Y-108204000D03*
X50927000Y-108204000D03*
X48387000Y-108204000D03*
X45847000Y-108204000D03*
X43307000Y-108204000D03*
X40767000Y-108204000D03*
%TD*%
D10*
%TO.C,R28*%
X117983000Y-74930000D03*
X117983000Y-72390000D03*
%TD*%
D15*
%TO.C,R115*%
X25323000Y-47117000D03*
X27863000Y-47117000D03*
%TD*%
D26*
%TO.C,TM6*%
X232440000Y-54640000D03*
X229900000Y-52100000D03*
X227360000Y-54640000D03*
%TD*%
D10*
%TO.C,R112*%
X146407000Y-68006000D03*
X148947000Y-68006000D03*
%TD*%
%TO.C,R84*%
X204089000Y-43151000D03*
X204089000Y-45691000D03*
%TD*%
%TO.C,R75*%
X177321000Y-55245000D03*
X174781000Y-55245000D03*
%TD*%
D18*
%TO.C,J13*%
X67000000Y-121000000D03*
D19*
X69540000Y-121000000D03*
X72080000Y-121000000D03*
X74620000Y-121000000D03*
X77160000Y-121000000D03*
X79700000Y-121000000D03*
%TD*%
D12*
%TO.C,VR8*%
X170773000Y-46000000D03*
X173273000Y-46000000D03*
X175773000Y-46000000D03*
D20*
X168873000Y-39000000D03*
X177673000Y-39000000D03*
%TD*%
D10*
%TO.C,R40*%
X77343000Y-104119000D03*
X79883000Y-104119000D03*
%TD*%
%TO.C,R68*%
X159483000Y-56261000D03*
X162023000Y-56261000D03*
%TD*%
%TO.C,R53*%
X132969000Y-118872000D03*
X135509000Y-118872000D03*
%TD*%
%TO.C,R22*%
X91030000Y-71882000D03*
X93570000Y-71882000D03*
%TD*%
%TO.C,R109*%
X251460000Y-76327000D03*
X251460000Y-73787000D03*
%TD*%
%TO.C,R85*%
X251150000Y-54600000D03*
X248610000Y-54600000D03*
%TD*%
%TO.C,R59*%
X177575000Y-104648000D03*
X175035000Y-104648000D03*
%TD*%
%TO.C,R35*%
X102108000Y-119406000D03*
X102108000Y-116866000D03*
%TD*%
%TO.C,R91*%
X147931000Y-77150000D03*
X150471000Y-77150000D03*
%TD*%
%TO.C,R10*%
X64160000Y-60169000D03*
X64160000Y-62709000D03*
%TD*%
D12*
%TO.C,VR17*%
X212429000Y-99000000D03*
X214929000Y-99000000D03*
X217429000Y-99000000D03*
D20*
X210529000Y-92000000D03*
X219329000Y-92000000D03*
%TD*%
D10*
%TO.C,R63*%
X177419000Y-122174000D03*
X174879000Y-122174000D03*
%TD*%
%TO.C,R49*%
X133223000Y-107696000D03*
X135763000Y-107696000D03*
%TD*%
%TO.C,R69*%
X189894000Y-60833000D03*
X192434000Y-60833000D03*
%TD*%
%TO.C,R29*%
X110490000Y-71247000D03*
X107950000Y-71247000D03*
%TD*%
%TO.C,R92*%
X237109000Y-64770000D03*
X237109000Y-62230000D03*
%TD*%
%TO.C,R30*%
X138597000Y-57404000D03*
X138597000Y-54864000D03*
%TD*%
D15*
%TO.C,R123*%
X189865000Y-119825000D03*
X192405000Y-119825000D03*
%TD*%
%TO.C,R124*%
X194691000Y-119825000D03*
X197231000Y-119825000D03*
%TD*%
D10*
%TO.C,C3*%
X90718000Y-68199000D03*
X93218000Y-68199000D03*
%TD*%
D21*
%TO.C,C12*%
X122174000Y-109514000D03*
D10*
X122174000Y-112014000D03*
%TD*%
%TO.C,R103*%
X208632000Y-64262000D03*
X211172000Y-64262000D03*
%TD*%
D15*
%TO.C,R117*%
X41352000Y-50673000D03*
X38812000Y-50673000D03*
%TD*%
%TO.C,R127*%
X239637000Y-111697000D03*
X242177000Y-111697000D03*
%TD*%
D10*
%TO.C,R4*%
X58587000Y-53877000D03*
X58587000Y-51337000D03*
%TD*%
%TO.C,R99*%
X241935000Y-64643000D03*
X244475000Y-64643000D03*
%TD*%
%TO.C,C5*%
X97790000Y-77089000D03*
X100290000Y-77089000D03*
%TD*%
%TO.C,R12*%
X76494000Y-51816000D03*
X76494000Y-54356000D03*
%TD*%
D26*
%TO.C,TM2*%
X126278000Y-56007000D03*
X123738000Y-53467000D03*
X121198000Y-56007000D03*
%TD*%
D10*
%TO.C,R27*%
X110490000Y-68072000D03*
X107950000Y-68072000D03*
%TD*%
D12*
%TO.C,VR20*%
X30000000Y-99000000D03*
X32500000Y-99000000D03*
X35000000Y-99000000D03*
D20*
X28100000Y-92000000D03*
X36900000Y-92000000D03*
%TD*%
D10*
%TO.C,R33*%
X66294000Y-111252000D03*
X68834000Y-111252000D03*
%TD*%
%TO.C,R16*%
X79375000Y-61722000D03*
X79375000Y-59182000D03*
%TD*%
D12*
%TO.C,VR14*%
X151088000Y-99000000D03*
X153588000Y-99000000D03*
X156088000Y-99000000D03*
D20*
X149188000Y-92000000D03*
X157988000Y-92000000D03*
%TD*%
D26*
%TO.C,TM3*%
X114594000Y-56007000D03*
X112054000Y-53467000D03*
X109514000Y-56007000D03*
%TD*%
D10*
%TO.C,R3*%
X55412000Y-53877000D03*
X55412000Y-51337000D03*
%TD*%
%TO.C,R107*%
X256795000Y-57850000D03*
X254255000Y-57850000D03*
%TD*%
D31*
%TO.C,C24*%
X38924100Y-54991000D03*
D10*
X36424100Y-54991000D03*
%TD*%
%TO.C,R77*%
X210820000Y-68199000D03*
X208280000Y-68199000D03*
%TD*%
D15*
%TO.C,R111*%
X26670000Y-39370000D03*
X24130000Y-39370000D03*
%TD*%
D16*
%TO.C,D3*%
X106553000Y-112690000D03*
D17*
X106553000Y-110150000D03*
%TD*%
D10*
%TO.C,R96*%
X237109000Y-59338000D03*
X237109000Y-56798000D03*
%TD*%
D26*
%TO.C,TM7*%
X150344000Y-59116000D03*
X152884000Y-56576000D03*
X150344000Y-54036000D03*
%TD*%
D10*
%TO.C,R15*%
X64160000Y-65503000D03*
X64160000Y-68043000D03*
%TD*%
D25*
%TO.C,C20*%
X245301900Y-75311000D03*
D10*
X247801900Y-75311000D03*
%TD*%
%TO.C,R62*%
X150905000Y-111252000D03*
X148365000Y-111252000D03*
%TD*%
%TO.C,R74*%
X210820000Y-71374000D03*
X208280000Y-71374000D03*
%TD*%
%TO.C,R55*%
X177448000Y-111252000D03*
X174908000Y-111252000D03*
%TD*%
%TO.C,R14*%
X69088000Y-65532000D03*
X69088000Y-68072000D03*
%TD*%
%TO.C,R48*%
X158623000Y-115189000D03*
X161163000Y-115189000D03*
%TD*%
%TO.C,R52*%
X170053000Y-120777000D03*
X170053000Y-123317000D03*
%TD*%
D32*
%TO.C,D2*%
X106553000Y-117221000D03*
D17*
X106553000Y-119761000D03*
%TD*%
D18*
%TO.C,J7*%
X123000000Y-75000000D03*
D19*
X125540000Y-75000000D03*
X128080000Y-75000000D03*
X130620000Y-75000000D03*
X133160000Y-75000000D03*
X135700000Y-75000000D03*
%TD*%
D21*
%TO.C,C11*%
X115316000Y-109641000D03*
D10*
X115316000Y-112141000D03*
%TD*%
%TO.C,R6*%
X64937000Y-53877000D03*
X64937000Y-51337000D03*
%TD*%
D12*
%TO.C,VR5*%
X51938000Y-99000000D03*
X54438000Y-99000000D03*
X56938000Y-99000000D03*
D20*
X50038000Y-92000000D03*
X58838000Y-92000000D03*
%TD*%
D26*
%TO.C,TM4*%
X193167000Y-80899000D03*
X195707000Y-78359000D03*
X193167000Y-75819000D03*
%TD*%
D12*
%TO.C,VR19*%
X30000000Y-73000000D03*
X32500000Y-73000000D03*
X35000000Y-73000000D03*
D20*
X28100000Y-66000000D03*
X36900000Y-66000000D03*
%TD*%
D12*
%TO.C,VR13*%
X259075000Y-45948000D03*
X261575000Y-45948000D03*
X264075000Y-45948000D03*
D20*
X257175000Y-38948000D03*
X265975000Y-38948000D03*
%TD*%
D12*
%TO.C,VR12*%
X151088000Y-46000000D03*
X153588000Y-46000000D03*
X156088000Y-46000000D03*
D20*
X149188000Y-39000000D03*
X157988000Y-39000000D03*
%TD*%
D25*
%TO.C,C19*%
X230950900Y-71501000D03*
D10*
X233450900Y-71501000D03*
%TD*%
%TO.C,R66*%
X189836000Y-57658000D03*
X192376000Y-57658000D03*
%TD*%
%TO.C,C1*%
X72938000Y-54209000D03*
X72938000Y-51709000D03*
%TD*%
%TO.C,R71*%
X191955000Y-64262000D03*
X189415000Y-64262000D03*
%TD*%
D33*
%TO.C,C29*%
X193929000Y-111527000D03*
X193929000Y-113602000D03*
%TD*%
D34*
%TO.C,C30*%
X42566500Y-111760000D03*
X40491500Y-111760000D03*
%TD*%
D12*
%TO.C,VR9*%
X232550000Y-46050000D03*
X235050000Y-46050000D03*
X237550000Y-46050000D03*
D20*
X230650000Y-39050000D03*
X239450000Y-39050000D03*
%TD*%
D10*
%TO.C,C22*%
X34700000Y-122750000D03*
X29700000Y-122750000D03*
%TD*%
M02*
