M48
; DRILL file {KiCad 9.0.3} date 2026-02-22T18:33:04+0900
; FORMAT={-:-/ absolute / metric / decimal}
; #@! TF.CreationDate,2026-02-22T18:33:04+09:00
; #@! TF.GenerationSoftware,Kicad,Pcbnew,9.0.3
; #@! TF.FileFunction,Plated,1,2,PTH
FMAT,2
METRIC
; #@! TA.AperFunction,Plated,PTH,ViaDrill
T1C0.300
; #@! TA.AperFunction,Plated,PTH,ComponentDrill
T2C0.700
; #@! TA.AperFunction,Plated,PTH,ComponentDrill
T3C0.750
; #@! TA.AperFunction,Plated,PTH,ComponentDrill
T4C0.759
; #@! TA.AperFunction,Plated,PTH,ComponentDrill
T5C0.800
; #@! TA.AperFunction,Plated,PTH,ComponentDrill
T6C0.900
; #@! TA.AperFunction,Plated,PTH,ComponentDrill
T7C1.000
; #@! TA.AperFunction,Plated,PTH,ComponentDrill
T8C1.200
; #@! TA.AperFunction,Plated,PTH,ComponentDrill
T9C1.350
; #@! TA.AperFunction,Plated,PTH,ComponentDrill
T10C2.970
%
G90
G05
T1
X22.0Y-61.0
X22.0Y-63.0
X22.0Y-65.0
X22.0Y-67.0
X22.0Y-69.0
X22.0Y-71.0
X22.0Y-73.0
X22.0Y-75.0
X22.0Y-77.0
X22.0Y-79.0
X22.0Y-81.0
X22.0Y-83.0
X22.0Y-85.0
X22.0Y-87.0
X22.0Y-89.0
X22.0Y-91.0
X22.0Y-93.0
X22.0Y-95.0
X22.0Y-97.0
X22.0Y-99.0
X22.0Y-101.0
X22.0Y-103.0
X22.0Y-105.0
X22.0Y-107.0
X24.9Y-115.223
X25.0Y-71.0
X25.0Y-73.0
X25.0Y-75.0
X25.0Y-77.0
X25.0Y-79.0
X25.0Y-81.0
X25.0Y-83.0
X25.0Y-85.0
X25.0Y-87.0
X25.0Y-89.0
X25.0Y-96.0
X25.0Y-98.0
X25.0Y-100.0
X25.0Y-102.0
X25.0Y-104.0
X25.0Y-106.0
X25.0Y-108.0
X25.0Y-110.0
X25.0Y-112.0
X27.0Y-71.0
X27.0Y-73.0
X27.0Y-75.0
X27.0Y-77.0
X27.0Y-79.0
X27.0Y-81.0
X27.0Y-83.0
X27.0Y-85.0
X27.0Y-87.0
X27.0Y-96.0
X27.0Y-98.0
X27.0Y-100.0
X27.0Y-102.0
X27.0Y-104.0
X27.0Y-106.0
X27.0Y-110.0
X27.0Y-112.0
X27.0Y-114.0
X29.0Y-77.0
X29.0Y-79.0
X29.0Y-81.0
X29.0Y-83.0
X29.0Y-85.0
X29.0Y-87.0
X29.0Y-96.0
X29.0Y-114.0
X29.2Y-109.95
X30.0Y-102.0
X30.0Y-104.0
X30.0Y-106.0
X32.0Y-64.0
X32.0Y-65.0
X32.0Y-66.0
X32.0Y-67.0
X32.0Y-76.0
X32.0Y-78.0
X32.0Y-80.0
X32.0Y-82.0
X32.0Y-84.0
X32.0Y-86.0
X32.0Y-88.0
X32.0Y-90.0
X32.0Y-92.0
X32.0Y-94.0
X32.0Y-96.0
X32.0Y-102.0
X32.0Y-104.0
X32.0Y-106.0
X32.96Y-113.179
X33.0Y-63.0
X33.0Y-64.0
X33.0Y-65.0
X33.0Y-66.0
X33.0Y-67.0
X33.0Y-69.0
X33.0Y-70.0
X33.0Y-76.0
X33.0Y-78.0
X33.0Y-80.0
X33.0Y-82.0
X33.0Y-84.0
X33.0Y-86.0
X33.0Y-88.0
X33.0Y-90.0
X33.0Y-92.0
X33.0Y-94.0
X33.0Y-96.0
X33.591Y-47.44
X34.0Y-62.0
X34.0Y-63.0
X34.0Y-102.0
X34.0Y-104.0
X34.0Y-106.0
X35.0Y-61.0
X35.0Y-62.0
X35.0Y-63.0
X35.0Y-69.0
X35.0Y-70.0
X36.0Y-61.0
X36.0Y-62.0
X36.0Y-76.0
X36.0Y-78.0
X36.0Y-80.0
X36.0Y-82.0
X36.0Y-84.0
X36.0Y-86.0
X36.0Y-88.0
X36.0Y-96.0
X36.0Y-104.0
X36.0Y-106.0
X37.0Y-61.0
X37.0Y-62.0
X37.0Y-69.0
X37.0Y-70.0
X37.0Y-71.0
X38.0Y-76.0
X38.0Y-78.0
X38.0Y-80.0
X38.0Y-82.0
X38.0Y-84.0
X38.0Y-86.0
X38.0Y-88.0
X38.0Y-96.0
X38.0Y-98.0
X38.0Y-100.0
X38.0Y-106.0
X39.0Y-69.0
X39.0Y-70.0
X39.0Y-71.0
X39.0Y-72.0
X39.0Y-73.0
X40.0Y-96.0
X40.0Y-98.0
X40.0Y-100.0
X40.0Y-102.0
X40.15Y-62.175
X41.0Y-106.0
X43.0Y-106.0
X43.4Y-117.85
X44.0Y-71.0
X44.0Y-72.0
X44.0Y-73.0
X44.0Y-74.0
X44.0Y-75.0
X44.0Y-76.0
X44.0Y-77.0
X44.0Y-78.0
X44.0Y-79.0
X44.0Y-80.0
X44.0Y-81.0
X44.0Y-82.0
X45.0Y-27.0
X45.0Y-28.0
X45.0Y-30.0
X45.0Y-32.0
X45.0Y-34.0
X45.0Y-42.0
X45.0Y-44.0
X45.0Y-46.0
X45.0Y-48.0
X45.0Y-106.0
X46.0Y-71.0
X46.0Y-72.0
X46.0Y-73.0
X46.0Y-74.0
X46.0Y-75.0
X46.0Y-76.0
X46.0Y-77.0
X46.0Y-78.0
X46.0Y-79.0
X46.0Y-80.0
X46.0Y-81.0
X46.0Y-82.0
X47.0Y-27.0
X47.0Y-28.0
X47.0Y-30.0
X47.0Y-32.0
X47.0Y-44.0
X47.0Y-46.0
X47.0Y-48.0
X48.0Y-71.0
X48.0Y-72.0
X48.0Y-73.0
X48.0Y-74.0
X48.0Y-75.0
X48.0Y-76.0
X48.0Y-77.0
X48.0Y-78.0
X48.0Y-79.0
X48.0Y-80.0
X48.0Y-81.0
X48.0Y-82.0
X49.0Y-27.0
X49.0Y-28.0
X49.0Y-30.0
X49.0Y-32.0
X49.0Y-48.0
X50.0Y-71.0
X50.0Y-72.0
X50.0Y-73.0
X50.0Y-74.0
X50.0Y-75.0
X50.0Y-76.0
X50.0Y-77.0
X50.0Y-78.0
X50.0Y-79.0
X50.0Y-80.0
X50.0Y-81.0
X50.0Y-82.0
X51.0Y-27.0
X51.0Y-28.0
X51.0Y-30.0
X51.0Y-112.25
X51.707Y-56.281
X51.707Y-68.069
X53.0Y-27.0
X53.0Y-28.092
X54.0Y-33.0
X54.0Y-35.0
X55.0Y-27.0
X55.0Y-28.0
X55.0Y-71.0
X55.0Y-72.0
X55.0Y-73.0
X55.0Y-74.0
X55.0Y-75.0
X55.0Y-76.0
X55.0Y-77.0
X55.0Y-78.0
X55.0Y-79.0
X55.0Y-80.0
X55.0Y-81.0
X55.0Y-82.0
X57.0Y-27.0
X57.0Y-28.0
X57.0Y-33.0
X57.0Y-35.0
X57.0Y-71.0
X57.0Y-72.0
X57.0Y-73.0
X57.0Y-74.0
X57.0Y-75.0
X57.0Y-76.0
X57.0Y-77.0
X57.0Y-78.0
X57.0Y-79.0
X57.0Y-80.0
X57.0Y-81.0
X57.0Y-82.0
X59.0Y-27.0
X59.0Y-28.0
X59.0Y-71.0
X59.0Y-72.0
X59.0Y-73.0
X59.0Y-74.0
X59.0Y-75.0
X59.0Y-76.0
X59.0Y-77.0
X59.0Y-78.0
X59.0Y-79.0
X59.0Y-80.0
X59.0Y-81.0
X59.0Y-82.0
X60.0Y-33.0
X60.0Y-35.0
X60.643Y-121.117
X61.0Y-27.0
X61.0Y-28.0
X61.0Y-30.0
X61.0Y-32.0
X61.0Y-71.0
X61.0Y-72.0
X61.0Y-73.0
X61.0Y-74.0
X61.0Y-75.0
X61.0Y-76.0
X61.0Y-77.0
X61.0Y-78.0
X61.0Y-79.0
X61.0Y-80.0
X61.0Y-81.0
X61.0Y-82.0
X63.0Y-27.0
X63.0Y-28.092
X63.0Y-30.0
X63.0Y-32.0
X63.0Y-71.0
X63.0Y-72.0
X63.0Y-73.0
X63.0Y-74.0
X63.0Y-75.0
X63.0Y-76.0
X63.0Y-77.0
X63.0Y-78.0
X63.0Y-79.0
X63.0Y-80.0
X63.0Y-81.0
X63.0Y-82.0
X65.0Y-27.0
X65.0Y-28.0
X66.0Y-30.0
X66.0Y-32.0
X66.0Y-34.0
X66.0Y-38.0
X66.0Y-40.0
X66.0Y-42.0
X66.0Y-44.0
X67.0Y-27.0
X67.0Y-28.0
X67.0Y-93.0
X67.0Y-95.0
X68.0Y-30.0
X68.0Y-32.0
X68.0Y-34.0
X68.0Y-38.0
X68.0Y-40.0
X68.0Y-42.0
X68.0Y-44.0
X68.0Y-46.0
X69.0Y-27.0
X69.0Y-28.0
X69.0Y-93.0
X69.0Y-95.0
X70.0Y-30.0
X70.0Y-32.0
X70.0Y-34.0
X70.0Y-38.0
X70.0Y-40.0
X70.0Y-42.0
X70.0Y-44.0
X70.0Y-46.0
X70.065Y-61.619
X70.073Y-69.032
X70.198Y-58.052
X70.2Y-107.85
X71.0Y-27.0
X71.0Y-28.0
X71.0Y-81.0
X71.0Y-83.0
X71.0Y-85.0
X71.358Y-58.075
X71.628Y-110.363
X73.0Y-27.0
X73.0Y-28.092
X73.0Y-70.0
X73.0Y-71.0
X74.0Y-70.0
X74.0Y-71.0
X74.0Y-81.029
X74.0Y-83.0
X74.0Y-85.0
X75.0Y-27.0
X75.0Y-28.0
X75.0Y-70.0
X75.0Y-71.0
X75.723Y-35.607
X76.0Y-70.0
X76.0Y-71.0
X77.0Y-27.0
X77.0Y-28.0
X77.0Y-81.0
X77.0Y-83.0
X77.0Y-85.0
X79.0Y-27.0
X79.0Y-28.0
X80.0Y-74.0
X80.0Y-75.0
X80.0Y-76.0
X80.0Y-77.0
X80.0Y-81.0
X80.0Y-83.0
X80.899Y-65.151
X81.0Y-27.0
X81.0Y-28.0
X81.0Y-74.0
X81.0Y-75.0
X81.0Y-76.0
X81.0Y-77.0
X81.766Y-121.117
X81.788Y-106.128
X82.0Y-74.0
X82.0Y-75.0
X82.0Y-76.0
X82.0Y-77.0
X82.042Y-66.167
X82.697Y-108.311
X82.931Y-103.759
X83.0Y-27.0
X83.0Y-28.092
X83.0Y-74.0
X83.0Y-75.0
X83.0Y-76.0
X83.0Y-77.0
X83.0Y-81.0
X83.0Y-83.0
X83.0Y-85.0
X83.0Y-87.0
X83.0Y-89.0
X83.0Y-111.0
X83.0Y-112.0
X83.0Y-113.0
X83.0Y-114.0
X84.0Y-74.0
X84.0Y-75.0
X84.0Y-76.0
X84.0Y-77.0
X84.0Y-105.0
X84.0Y-106.0
X84.0Y-107.0
X84.0Y-108.0
X84.0Y-112.0
X84.0Y-113.0
X84.0Y-114.0
X84.0Y-115.0
X84.328Y-117.221
X85.0Y-27.0
X85.0Y-28.0
X85.0Y-74.0
X85.0Y-75.0
X85.0Y-76.0
X85.0Y-77.0
X85.0Y-105.0
X85.0Y-106.0
X85.0Y-107.0
X85.0Y-108.0
X85.0Y-112.0
X85.0Y-113.0
X85.0Y-114.0
X85.0Y-115.0
X85.0Y-116.0
X85.0Y-119.0
X85.0Y-120.0
X85.0Y-121.0
X86.0Y-33.0
X86.0Y-37.0
X86.0Y-39.0
X86.0Y-41.0
X86.0Y-43.0
X86.0Y-45.0
X86.0Y-81.0
X86.0Y-83.0
X86.0Y-85.0
X86.0Y-87.0
X86.0Y-89.0
X86.0Y-105.0
X86.0Y-106.0
X86.0Y-115.0
X86.0Y-116.0
X87.0Y-27.0
X87.0Y-28.0
X87.0Y-33.0
X87.0Y-105.0
X87.0Y-106.0
X87.45Y-76.188
X87.757Y-115.189
X88.0Y-33.0
X88.0Y-37.0
X88.0Y-39.0
X88.0Y-41.0
X88.0Y-43.0
X88.0Y-45.0
X88.0Y-105.0
X88.0Y-106.0
X88.265Y-103.758
X89.0Y-27.0
X89.0Y-28.0
X89.0Y-33.0
X89.0Y-81.0
X89.0Y-83.0
X89.027Y-106.299
X90.297Y-117.221
X91.0Y-27.0
X91.0Y-28.0
X91.567Y-109.728
X91.567Y-116.332
X91.821Y-104.775
X92.0Y-81.0
X92.0Y-83.0
X92.213Y-110.744
X93.0Y-27.0
X93.0Y-28.092
X93.971Y-109.994
X95.0Y-27.0
X95.0Y-28.0
X95.0Y-81.0
X95.0Y-83.0
X95.846Y-65.31
X97.0Y-27.0
X97.0Y-28.0
X99.0Y-27.0
X99.0Y-28.0
X99.365Y-62.175
X100.0Y-71.0
X100.0Y-72.0
X100.0Y-73.0
X100.0Y-74.0
X100.013Y-66.148
X100.013Y-69.527
X101.0Y-27.0
X101.0Y-28.0
X101.0Y-71.0
X101.0Y-72.0
X101.0Y-73.0
X101.0Y-74.0
X101.765Y-56.771
X103.0Y-27.0
X103.0Y-28.092
X103.471Y-74.96
X104.8Y-31.3
X105.0Y-27.0
X105.0Y-28.0
X105.0Y-36.0
X105.0Y-38.0
X105.0Y-40.0
X105.0Y-42.0
X105.0Y-44.0
X105.0Y-82.0
X105.0Y-84.0
X105.0Y-86.0
X105.0Y-88.0
X105.0Y-90.0
X105.0Y-92.0
X105.458Y-65.089
X105.458Y-79.858
X107.0Y-27.0
X107.0Y-28.0
X107.0Y-36.0
X107.0Y-38.0
X107.0Y-40.0
X107.0Y-42.0
X107.0Y-44.0
X107.0Y-82.0
X107.0Y-84.0
X107.0Y-86.0
X107.0Y-88.0
X107.0Y-90.0
X107.0Y-92.0
X109.0Y-27.0
X109.0Y-28.0
X111.0Y-27.0
X111.0Y-28.0
X112.324Y-100.488
X113.0Y-27.0
X113.0Y-28.092
X114.0Y-79.0
X114.0Y-81.0
X114.681Y-38.1
X117.0Y-77.0
X117.0Y-79.0
X117.0Y-81.0
X120.0Y-77.0
X120.0Y-79.0
X120.0Y-81.0
X120.0Y-83.0
X120.0Y-85.0
X120.0Y-87.0
X120.0Y-89.0
X120.0Y-91.0
X120.0Y-93.0
X120.0Y-95.0
X122.691Y-50.165
X123.0Y-79.0
X123.0Y-81.0
X123.0Y-83.0
X123.0Y-85.0
X123.0Y-87.0
X123.0Y-89.0
X123.0Y-91.0
X123.0Y-93.0
X123.0Y-95.0
X124.042Y-36.696
X124.052Y-43.728
X126.0Y-79.0
X126.0Y-81.0
X126.172Y-62.175
X126.95Y-31.25
X127.0Y-110.0
X127.0Y-111.0
X127.0Y-112.0
X127.0Y-113.0
X127.0Y-119.0
X127.0Y-120.0
X127.0Y-121.0
X127.0Y-122.0
X127.0Y-123.0
X128.0Y-110.0
X128.0Y-111.0
X128.0Y-112.0
X128.0Y-113.0
X128.0Y-119.0
X128.0Y-120.0
X128.0Y-121.0
X128.0Y-122.0
X128.0Y-123.0
X129.0Y-79.0
X129.0Y-81.0
X129.0Y-110.0
X129.0Y-111.0
X129.0Y-112.0
X129.0Y-113.0
X129.0Y-119.0
X129.0Y-120.0
X129.0Y-121.0
X129.0Y-122.0
X129.0Y-123.0
X132.0Y-27.0
X132.0Y-28.0
X132.0Y-79.0
X132.0Y-81.0
X134.0Y-27.0
X134.0Y-28.0
X134.517Y-105.997
X135.0Y-79.0
X135.0Y-81.0
X136.0Y-27.0
X136.0Y-28.0
X138.0Y-27.0
X138.0Y-28.0
X138.0Y-79.0
X138.0Y-81.0
X140.0Y-27.0
X140.0Y-28.092
X141.0Y-33.0
X141.0Y-34.0
X141.0Y-37.0
X141.0Y-39.0
X141.0Y-41.0
X141.0Y-43.0
X142.0Y-27.0
X142.0Y-28.0
X142.997Y-115.435
X143.0Y-33.0
X143.0Y-34.0
X143.0Y-37.0
X143.0Y-39.0
X143.0Y-41.0
X143.0Y-43.0
X143.679Y-76.099
X144.0Y-27.0
X144.0Y-28.0
X144.955Y-70.125
X145.0Y-33.0
X145.0Y-34.0
X145.0Y-37.0
X145.0Y-39.0
X145.0Y-41.0
X145.0Y-43.0
X146.0Y-27.0
X146.0Y-28.0
X146.558Y-101.6
X146.558Y-105.537
X148.0Y-27.0
X148.0Y-28.0
X148.0Y-121.0
X149.0Y-120.0
X149.0Y-121.0
X150.0Y-27.0
X150.0Y-28.092
X150.0Y-119.0
X150.0Y-120.0
X150.0Y-121.0
X150.001Y-73.964
X151.0Y-119.0
X151.0Y-120.0
X151.0Y-121.0
X152.0Y-27.0
X152.0Y-28.0
X152.0Y-119.0
X152.0Y-120.0
X152.0Y-121.0
X152.98Y-50.522
X153.0Y-119.0
X153.0Y-120.0
X153.0Y-121.0
X154.0Y-27.0
X154.0Y-28.0
X154.0Y-104.0
X154.0Y-105.0
X154.0Y-106.0
X154.0Y-107.0
X154.0Y-108.0
X154.0Y-109.0
X154.0Y-119.0
X154.0Y-120.0
X154.0Y-121.0
X155.0Y-104.0
X155.0Y-105.0
X155.0Y-106.0
X155.0Y-107.0
X155.0Y-108.0
X155.0Y-109.0
X155.0Y-120.0
X155.0Y-121.0
X156.0Y-27.0
X156.0Y-28.0
X156.0Y-120.0
X156.0Y-121.0
X156.972Y-56.769
X157.0Y-120.0
X157.0Y-121.0
X158.0Y-27.0
X158.0Y-28.0
X158.0Y-50.0
X158.0Y-51.0
X158.0Y-120.0
X158.0Y-121.0
X159.0Y-50.0
X159.0Y-51.0
X159.0Y-73.0
X159.0Y-75.0
X159.0Y-77.0
X159.0Y-79.0
X159.0Y-81.0
X159.0Y-83.0
X159.0Y-120.0
X159.0Y-121.0
X160.0Y-27.0
X160.0Y-28.092
X160.0Y-50.0
X160.0Y-51.0
X160.0Y-120.0
X160.0Y-121.0
X161.0Y-50.0
X161.0Y-51.0
X161.0Y-120.0
X161.0Y-121.0
X162.0Y-27.0
X162.0Y-28.0
X162.0Y-33.0
X162.0Y-34.0
X162.0Y-37.0
X162.0Y-39.0
X162.0Y-41.0
X162.0Y-43.0
X162.0Y-45.0
X162.0Y-50.0
X162.0Y-51.0
X162.0Y-73.0
X162.0Y-75.0
X162.0Y-77.0
X162.0Y-79.0
X162.0Y-81.0
X162.0Y-83.0
X162.0Y-120.0
X162.0Y-121.0
X162.396Y-112.535
X163.0Y-33.0
X163.0Y-34.0
X163.0Y-50.0
X163.0Y-51.0
X163.893Y-116.272
X164.0Y-27.0
X164.0Y-28.0
X164.0Y-33.0
X164.0Y-34.0
X164.0Y-37.0
X164.0Y-39.0
X164.0Y-41.0
X164.0Y-43.0
X164.0Y-45.0
X164.0Y-50.0
X164.0Y-51.0
X165.0Y-50.0
X165.0Y-51.0
X165.0Y-73.0
X165.0Y-75.0
X165.0Y-77.0
X165.0Y-79.0
X165.0Y-81.0
X165.0Y-83.0
X165.0Y-104.0
X165.0Y-105.0
X165.1Y-98.425
X166.0Y-27.0
X166.0Y-28.0
X166.0Y-50.0
X166.0Y-51.0
X166.0Y-104.0
X166.0Y-105.0
X167.0Y-50.0
X167.0Y-51.0
X167.0Y-104.0
X167.0Y-105.0
X167.857Y-112.276
X168.0Y-27.0
X168.0Y-28.0
X168.0Y-73.0
X168.0Y-75.0
X168.0Y-77.0
X168.0Y-79.0
X168.0Y-81.0
X168.0Y-83.0
X168.0Y-104.0
X168.0Y-105.0
X169.0Y-104.0
X169.0Y-105.0
X170.0Y-27.0
X170.0Y-28.092
X170.0Y-104.0
X170.0Y-105.0
X171.0Y-73.0
X171.0Y-75.0
X171.0Y-77.0
X171.0Y-79.0
X171.0Y-81.0
X171.0Y-83.0
X171.0Y-104.0
X171.0Y-105.0
X172.0Y-27.0
X172.0Y-28.0
X173.4Y-112.725
X174.0Y-27.0
X174.0Y-28.0
X174.0Y-75.0
X174.0Y-77.0
X174.0Y-79.0
X174.0Y-81.0
X174.0Y-83.0
X176.0Y-27.0
X176.0Y-28.0
X177.0Y-79.0
X177.0Y-81.0
X177.0Y-83.0
X178.0Y-27.0
X178.0Y-28.0
X180.0Y-27.0
X180.0Y-28.092
X180.0Y-79.0
X180.0Y-81.0
X180.0Y-83.0
X182.0Y-33.0
X182.0Y-34.0
X182.0Y-37.0
X182.0Y-38.0
X182.0Y-39.0
X182.0Y-40.0
X182.0Y-104.0
X182.0Y-105.0
X182.0Y-106.0
X182.0Y-107.0
X182.0Y-108.0
X182.0Y-109.0
X182.0Y-110.0
X182.0Y-111.0
X182.0Y-112.0
X182.0Y-113.0
X182.0Y-117.0
X182.0Y-118.0
X183.0Y-33.0
X183.0Y-34.0
X183.0Y-37.0
X183.0Y-38.0
X183.0Y-39.0
X183.0Y-40.0
X183.0Y-73.0
X183.0Y-75.0
X183.0Y-77.0
X183.0Y-79.0
X183.0Y-81.0
X183.0Y-83.0
X183.0Y-104.0
X183.0Y-105.0
X183.0Y-106.0
X183.0Y-107.0
X183.0Y-108.0
X183.0Y-109.0
X183.0Y-110.0
X183.0Y-111.0
X183.0Y-112.0
X183.0Y-113.0
X183.0Y-117.0
X183.0Y-118.0
X184.0Y-33.0
X184.0Y-34.0
X184.0Y-37.0
X184.0Y-38.0
X184.0Y-39.0
X184.0Y-40.0
X184.0Y-104.0
X184.0Y-105.0
X184.0Y-106.0
X184.0Y-107.0
X184.0Y-108.0
X184.0Y-109.0
X184.0Y-110.0
X184.0Y-111.0
X184.0Y-112.0
X184.0Y-113.0
X184.0Y-114.0
X184.0Y-115.0
X184.0Y-116.0
X184.0Y-117.0
X184.0Y-118.0
X185.0Y-33.0
X185.0Y-34.0
X185.0Y-37.0
X185.0Y-38.0
X185.0Y-39.0
X185.0Y-40.0
X186.0Y-70.0
X186.0Y-73.0
X186.0Y-75.0
X186.0Y-77.0
X186.0Y-79.0
X186.0Y-81.0
X186.0Y-83.0
X188.0Y-27.0
X188.0Y-28.0
X188.0Y-104.0
X188.0Y-106.0
X188.0Y-108.0
X188.0Y-110.0
X188.0Y-112.0
X188.0Y-114.0
X188.0Y-116.0
X188.0Y-118.0
X188.135Y-73.66
X190.0Y-27.0
X190.0Y-28.0
X190.0Y-104.0
X190.0Y-106.0
X190.0Y-108.0
X190.0Y-110.0
X190.0Y-112.0
X190.0Y-114.0
X190.0Y-116.0
X190.0Y-118.0
X190.983Y-62.466
X191.132Y-117.72
X191.733Y-35.62
X192.0Y-27.0
X192.0Y-28.0
X193.0Y-104.0
X193.0Y-106.0
X194.0Y-27.0
X194.0Y-28.0
X194.474Y-117.954
X196.0Y-27.0
X196.0Y-28.092
X196.678Y-70.686
X197.0Y-104.0
X197.0Y-106.0
X197.0Y-111.0
X197.0Y-113.0
X198.0Y-27.0
X198.0Y-28.0
X200.0Y-27.0
X200.0Y-28.0
X200.0Y-104.0
X200.0Y-106.0
X200.0Y-111.0
X200.0Y-113.0
X202.0Y-27.0
X202.0Y-28.0
X202.0Y-33.0
X202.0Y-35.0
X202.0Y-37.0
X202.0Y-39.0
X202.0Y-41.0
X203.0Y-104.0
X203.0Y-106.0
X203.0Y-111.0
X203.0Y-113.0
X204.0Y-27.0
X204.0Y-28.0
X204.0Y-33.0
X204.0Y-35.0
X204.0Y-37.0
X204.0Y-39.0
X204.0Y-41.0
X205.991Y-68.894
X206.0Y-27.0
X206.0Y-28.092
X206.0Y-33.0
X206.0Y-35.0
X206.0Y-37.0
X206.0Y-39.0
X206.0Y-41.0
X206.0Y-104.0
X206.0Y-111.0
X206.0Y-113.0
X206.586Y-106.382
X206.594Y-91.646
X208.0Y-27.0
X208.0Y-28.0
X208.748Y-101.319
X208.754Y-98.124
X209.021Y-62.667
X210.0Y-27.0
X210.0Y-28.0
X210.008Y-95.147
X210.646Y-105.029
X210.693Y-97.136
X212.0Y-27.0
X212.0Y-28.0
X212.464Y-47.864
X212.546Y-97.084
X214.0Y-27.0
X214.0Y-28.0
X214.0Y-56.0
X214.0Y-57.0
X214.0Y-58.0
X214.0Y-59.0
X214.0Y-60.0
X214.0Y-61.0
X214.884Y-96.52
X215.0Y-56.0
X215.0Y-57.0
X215.0Y-58.0
X215.0Y-59.0
X215.0Y-60.0
X215.0Y-61.0
X216.0Y-27.0
X216.0Y-28.092
X218.0Y-27.0
X218.0Y-28.0
X218.509Y-88.499
X218.548Y-118.205
X220.0Y-27.0
X220.0Y-28.0
X220.0Y-108.0
X220.0Y-109.0
X221.0Y-108.0
X221.0Y-109.0
X222.0Y-27.0
X222.0Y-28.0
X222.0Y-108.0
X222.0Y-109.0
X222.0Y-115.0
X223.0Y-108.0
X223.0Y-109.0
X223.0Y-115.0
X224.0Y-27.0
X224.0Y-28.0
X224.0Y-108.0
X224.0Y-109.0
X224.0Y-120.0
X224.0Y-123.0
X224.466Y-35.651
X225.0Y-107.0
X225.0Y-108.0
X225.0Y-109.0
X226.0Y-27.0
X226.0Y-28.092
X226.0Y-106.0
X226.0Y-107.0
X226.0Y-108.0
X226.0Y-109.0
X227.0Y-105.0
X227.0Y-106.0
X227.0Y-107.0
X227.0Y-108.0
X227.0Y-109.0
X228.0Y-27.0
X228.0Y-28.0
X228.0Y-63.0
X228.0Y-64.0
X228.0Y-105.0
X228.0Y-106.0
X228.0Y-107.0
X228.0Y-108.0
X228.0Y-109.0
X228.0Y-120.0
X228.0Y-123.0
X229.0Y-63.0
X229.0Y-64.0
X229.0Y-65.0
X229.898Y-105.383
X230.0Y-27.0
X230.0Y-28.0
X230.0Y-63.0
X230.0Y-64.0
X230.0Y-65.0
X230.0Y-66.0
X231.0Y-63.0
X231.0Y-64.0
X231.0Y-65.0
X231.0Y-66.0
X232.0Y-27.0
X232.0Y-28.0
X232.0Y-63.0
X232.0Y-64.0
X232.0Y-65.0
X232.0Y-66.0
X232.0Y-120.0
X232.0Y-123.0
X233.0Y-63.0
X233.0Y-64.0
X233.0Y-65.0
X233.0Y-66.0
X233.0Y-112.0
X233.0Y-113.0
X233.0Y-114.0
X233.0Y-115.0
X234.0Y-27.0
X234.0Y-28.0
X234.0Y-63.0
X234.0Y-64.0
X234.0Y-65.0
X234.0Y-66.0
X234.0Y-112.0
X234.0Y-113.0
X234.0Y-114.0
X234.0Y-115.0
X236.0Y-27.0
X236.0Y-28.092
X236.0Y-68.0
X236.0Y-69.0
X236.0Y-70.0
X236.0Y-120.0
X236.0Y-123.0
X236.715Y-108.994
X237.0Y-52.0
X237.0Y-53.0
X237.0Y-54.0
X237.0Y-67.0
X237.0Y-68.0
X237.0Y-69.0
X237.0Y-70.0
X237.318Y-99.554
X238.0Y-52.0
X238.0Y-53.0
X238.0Y-54.0
X238.0Y-67.0
X238.0Y-68.0
X238.0Y-69.0
X238.0Y-70.0
X239.0Y-52.0
X239.0Y-53.0
X239.0Y-54.0
X239.0Y-55.0
X239.0Y-67.0
X239.0Y-68.0
X239.0Y-69.0
X239.0Y-70.0
X240.0Y-52.0
X240.0Y-53.0
X240.0Y-54.0
X240.0Y-55.0
X240.0Y-67.0
X240.0Y-68.0
X240.0Y-69.0
X240.0Y-70.0
X240.0Y-120.0
X240.0Y-123.0
X241.0Y-52.0
X241.0Y-53.0
X241.0Y-54.0
X241.0Y-55.0
X241.0Y-68.0
X241.0Y-69.0
X241.0Y-87.0
X241.0Y-90.0
X241.0Y-93.0
X241.0Y-96.0
X242.0Y-52.0
X242.0Y-53.0
X242.0Y-54.0
X242.0Y-55.0
X242.0Y-68.0
X242.338Y-71.017
X242.338Y-118.61
X243.0Y-52.0
X243.0Y-53.0
X243.0Y-54.0
X244.0Y-28.0
X244.0Y-30.0
X244.0Y-32.0
X244.0Y-34.0
X244.0Y-36.0
X244.0Y-38.0
X244.0Y-40.0
X244.0Y-42.0
X244.0Y-44.0
X244.0Y-46.0
X244.0Y-53.0
X244.0Y-80.0
X244.0Y-82.0
X244.0Y-87.0
X244.0Y-90.0
X244.0Y-93.0
X244.0Y-96.0
X244.0Y-102.0
X244.0Y-105.0
X244.0Y-108.0
X244.0Y-120.0
X244.0Y-123.0
X246.0Y-28.0
X246.0Y-30.0
X246.0Y-32.0
X246.0Y-34.0
X246.0Y-36.0
X246.0Y-38.0
X246.0Y-40.0
X246.0Y-42.0
X246.0Y-44.0
X246.0Y-46.0
X246.0Y-80.0
X246.0Y-82.0
X247.0Y-87.0
X247.0Y-90.0
X247.0Y-93.0
X247.0Y-96.0
X247.23Y-54.128
X248.0Y-28.0
X248.0Y-30.0
X248.0Y-32.0
X248.0Y-34.0
X248.0Y-36.0
X248.0Y-38.0
X248.0Y-40.0
X248.0Y-42.0
X248.0Y-44.0
X248.0Y-46.0
X248.0Y-80.0
X248.0Y-82.0
X248.0Y-102.0
X248.0Y-105.0
X248.0Y-108.0
X248.0Y-111.0
X248.0Y-114.0
X248.0Y-117.0
X248.0Y-120.0
X248.0Y-123.0
X250.0Y-28.0
X250.0Y-30.0
X250.0Y-32.0
X250.0Y-34.0
X250.0Y-36.0
X250.0Y-38.0
X250.0Y-40.0
X250.0Y-42.0
X250.0Y-44.0
X250.0Y-46.0
X250.0Y-80.0
X250.0Y-82.0
X250.0Y-87.0
X250.0Y-90.0
X250.0Y-93.0
X250.0Y-96.0
X252.0Y-28.0
X252.0Y-30.0
X252.0Y-32.0
X252.0Y-34.0
X252.0Y-36.0
X252.0Y-38.0
X252.0Y-40.0
X252.0Y-42.0
X252.0Y-44.0
X252.0Y-46.0
X252.0Y-69.0
X252.0Y-70.0
X252.0Y-80.0
X252.0Y-82.0
X252.0Y-102.0
X252.0Y-105.0
X252.0Y-108.0
X252.0Y-111.0
X252.0Y-114.0
X252.0Y-117.0
X252.0Y-120.0
X252.0Y-123.0
X253.0Y-69.0
X253.0Y-70.0
X254.0Y-28.0
X254.0Y-30.0
X254.0Y-32.0
X254.0Y-68.0
X254.0Y-69.0
X254.0Y-70.0
X255.0Y-68.0
X255.0Y-69.0
X255.0Y-70.0
X255.0Y-80.0
X255.0Y-82.0
X256.0Y-28.0
X256.0Y-30.0
X256.0Y-68.0
X256.0Y-69.0
X256.0Y-70.0
X256.0Y-102.0
X256.0Y-105.0
X256.0Y-108.0
X256.0Y-111.0
X256.0Y-114.0
X256.0Y-117.0
X256.0Y-120.0
X256.0Y-123.0
X257.0Y-68.0
X257.0Y-69.0
X257.0Y-70.0
X257.0Y-80.0
X257.0Y-82.0
X258.0Y-28.0
X258.0Y-30.0
X258.0Y-64.0
X258.0Y-65.0
X258.0Y-66.0
X258.0Y-67.0
X258.0Y-68.0
X258.0Y-69.0
X258.0Y-70.0
X259.0Y-63.0
X259.0Y-64.0
X259.0Y-65.0
X259.0Y-66.0
X259.0Y-67.0
X259.0Y-68.0
X259.0Y-69.0
X259.0Y-70.0
X259.0Y-80.0
X259.0Y-82.0
X260.0Y-28.0
X260.0Y-30.0
X260.0Y-63.0
X260.0Y-64.0
X260.0Y-65.0
X260.0Y-66.0
X260.0Y-67.0
X260.0Y-68.0
X260.0Y-69.0
X260.0Y-102.0
X260.0Y-105.0
X260.0Y-108.0
X260.0Y-111.0
X260.0Y-114.0
X260.0Y-117.0
X260.0Y-120.0
X260.0Y-123.0
X261.0Y-80.0
X261.0Y-82.0
X262.0Y-28.0
X262.0Y-30.0
X263.0Y-80.0
X263.0Y-82.0
X263.963Y-73.787
X264.0Y-102.0
X264.0Y-105.0
X264.0Y-108.0
X264.0Y-111.0
X264.0Y-114.0
X264.0Y-117.0
X264.0Y-120.0
X264.0Y-123.0
X266.0Y-50.0
X266.0Y-52.0
X266.0Y-54.0
X266.0Y-56.0
X266.0Y-58.0
X266.0Y-60.0
X266.0Y-62.0
X266.0Y-64.0
X266.0Y-66.0
X266.0Y-68.0
X266.0Y-70.0
X266.0Y-72.0
X266.0Y-74.0
X266.0Y-76.0
X266.0Y-78.0
X266.0Y-80.0
X266.0Y-82.0
X268.0Y-50.0
X268.0Y-52.0
X268.0Y-54.0
X268.0Y-56.0
X268.0Y-58.0
X268.0Y-60.0
X268.0Y-62.0
X268.0Y-64.0
X268.0Y-66.0
X268.0Y-68.0
X268.0Y-70.0
X268.0Y-72.0
X268.0Y-74.0
X268.0Y-76.0
X268.0Y-78.0
X268.0Y-80.0
X268.0Y-82.0
X268.0Y-102.0
X268.0Y-105.0
X268.0Y-108.0
X268.0Y-111.0
X268.0Y-114.0
X268.0Y-117.0
T2
X24.13Y-39.37
X25.096Y-43.942
X25.273Y-50.546
X25.323Y-47.117
X26.67Y-39.37
X27.636Y-43.942
X27.813Y-50.546
X27.863Y-47.117
X27.94Y-108.012
X29.58Y-120.15
X30.48Y-108.012
X30.861Y-53.29
X30.861Y-55.83
X32.12Y-120.15
X33.732Y-43.815
X36.272Y-43.815
X38.812Y-47.117
X38.812Y-50.673
X38.939Y-43.815
X41.352Y-47.117
X41.352Y-50.673
X41.479Y-43.815
X45.466Y-119.303
X45.466Y-121.843
X48.387Y-119.303
X48.387Y-121.843
X189.865Y-119.825
X192.405Y-119.825
X194.691Y-119.825
X197.231Y-119.825
X225.236Y-111.443
X225.286Y-113.983
X227.776Y-111.443
X227.826Y-113.983
X239.587Y-114.11
X239.637Y-111.697
X242.127Y-114.11
X242.177Y-111.697
T3
X110.687Y-37.018
X110.687Y-39.018
X110.687Y-41.018
X110.687Y-45.018
X111.73Y-89.85
X111.73Y-91.85
X111.73Y-93.85
X111.73Y-97.85
X113.187Y-37.018
X113.187Y-39.018
X113.187Y-41.018
X113.187Y-45.018
X114.23Y-89.85
X114.23Y-91.85
X114.23Y-93.85
X114.23Y-97.85
T4
X193.929Y-108.458
X193.929Y-116.396
X196.469Y-108.458
X196.469Y-116.396
X199.009Y-108.458
X199.009Y-116.396
X201.549Y-108.458
X201.549Y-116.396
X204.089Y-108.458
X204.089Y-116.396
X206.629Y-108.458
X206.629Y-116.396
X209.169Y-108.458
X209.169Y-116.396
X211.709Y-108.458
X211.709Y-116.396
X214.249Y-108.458
X214.249Y-116.396
X216.789Y-108.458
X216.789Y-116.396
T5
X24.805Y-55.118
X27.305Y-55.118
X29.7Y-122.75
X32.963Y-108.012
X34.7Y-122.75
X36.424Y-54.991
X37.963Y-108.012
X38.227Y-34.544
X38.227Y-37.084
X38.924Y-54.991
X40.767Y-108.204
X40.767Y-115.824
X43.307Y-108.204
X43.307Y-115.824
X45.847Y-108.204
X45.847Y-115.824
X45.887Y-51.337
X45.887Y-53.877
X47.313Y-60.452
X47.371Y-64.302
X47.371Y-66.802
X48.387Y-108.204
X48.387Y-115.824
X49.062Y-51.337
X49.062Y-53.877
X49.853Y-60.452
X50.927Y-108.204
X50.927Y-115.824
X51.55Y-121.8
X52.237Y-51.337
X52.237Y-53.877
X53.467Y-108.204
X53.467Y-115.824
X55.412Y-51.337
X55.412Y-53.877
X56.007Y-108.204
X56.007Y-115.824
X56.55Y-121.8
X57.317Y-61.087
X57.317Y-66.167
X58.587Y-51.337
X58.587Y-53.877
X59.857Y-63.627
X61.762Y-51.337
X61.762Y-53.877
X64.16Y-60.169
X64.16Y-62.709
X64.16Y-65.503
X64.16Y-68.043
X64.937Y-51.337
X64.937Y-53.877
X66.265Y-107.95
X66.294Y-104.648
X66.294Y-111.252
X68.112Y-51.337
X68.112Y-53.877
X68.805Y-107.95
X68.834Y-104.648
X68.834Y-111.252
X69.088Y-65.532
X69.088Y-68.072
X72.938Y-51.709
X72.938Y-54.209
X75.438Y-59.309
X75.438Y-61.849
X76.494Y-51.816
X76.494Y-54.356
X77.343Y-104.119
X77.47Y-67.056
X79.375Y-59.182
X79.375Y-61.722
X79.883Y-104.119
X79.923Y-51.816
X79.923Y-54.356
X80.01Y-67.056
X82.521Y-70.612
X83.352Y-51.464
X83.352Y-54.004
X85.061Y-70.612
X87.455Y-119.55
X89.995Y-119.55
X90.551Y-64.389
X90.58Y-75.438
X90.718Y-68.199
X91.03Y-71.882
X93.091Y-58.928
X93.091Y-61.468
X93.091Y-64.389
X93.12Y-75.438
X93.218Y-68.199
X93.57Y-71.882
X96.901Y-52.897
X96.901Y-55.397
X96.901Y-58.928
X97.79Y-77.089
X99.441Y-58.928
X100.29Y-77.089
X101.912Y-104.928
X102.108Y-111.137
X102.108Y-113.677
X102.108Y-116.866
X102.108Y-119.406
X103.124Y-51.816
X103.124Y-54.316
X104.452Y-104.928
X107.95Y-68.072
X107.95Y-71.247
X108.077Y-77.724
X108.157Y-74.422
X108.458Y-64.897
X109.514Y-56.007
X110.49Y-68.072
X110.49Y-71.247
X110.577Y-77.724
X110.657Y-74.422
X110.998Y-64.897
X112.054Y-53.467
X114.594Y-56.007
X115.316Y-109.641
X115.316Y-112.141
X117.856Y-66.969
X117.856Y-69.469
X117.983Y-72.39
X117.983Y-74.93
X118.912Y-45.355
X120.05Y-33.0
X120.06Y-36.35
X121.158Y-104.394
X121.198Y-56.007
X121.452Y-39.976
X121.452Y-42.516
X121.452Y-45.355
X122.174Y-109.514
X122.174Y-112.014
X122.59Y-33.0
X122.6Y-36.35
X123.698Y-104.394
X123.738Y-53.467
X126.278Y-56.007
X130.382Y-115.697
X130.85Y-51.562
X131.104Y-55.245
X131.104Y-57.745
X132.49Y-122.047
X132.969Y-118.872
X133.223Y-104.521
X133.223Y-107.696
X133.223Y-110.871
X133.39Y-51.562
X134.9Y-55.25
X134.9Y-57.79
X135.03Y-122.047
X135.382Y-115.697
X135.509Y-118.872
X135.763Y-104.521
X135.763Y-107.696
X135.763Y-110.871
X138.597Y-54.864
X138.597Y-57.404
X140.081Y-120.621
X140.081Y-123.161
X142.851Y-71.025
X142.851Y-73.565
X143.129Y-45.339
X143.129Y-47.879
X143.891Y-120.592
X143.891Y-123.132
X146.407Y-68.006
X147.931Y-77.15
X148.336Y-104.775
X148.336Y-107.95
X148.365Y-111.252
X148.61Y-116.332
X148.947Y-68.006
X150.344Y-54.036
X150.344Y-59.116
X150.471Y-77.15
X150.876Y-104.775
X150.876Y-107.95
X150.905Y-111.252
X151.995Y-71.689
X152.391Y-64.196
X152.391Y-68.26
X152.884Y-56.576
X153.61Y-116.332
X154.535Y-71.689
X154.931Y-64.196
X154.931Y-68.26
X155.889Y-118.364
X158.271Y-104.775
X158.623Y-115.189
X158.652Y-107.95
X158.652Y-111.125
X159.385Y-53.086
X159.483Y-56.261
X160.811Y-104.775
X160.889Y-118.364
X161.163Y-115.189
X161.192Y-107.95
X161.192Y-111.125
X161.925Y-53.086
X162.023Y-56.261
X165.1Y-120.298
X165.1Y-122.838
X168.529Y-59.563
X170.053Y-120.777
X170.053Y-123.317
X171.069Y-59.563
X174.752Y-58.674
X174.781Y-55.245
X174.879Y-118.872
X174.879Y-122.174
X174.908Y-111.252
X175.035Y-104.648
X175.035Y-107.823
X175.173Y-115.57
X175.26Y-51.816
X177.292Y-58.674
X177.321Y-55.245
X177.419Y-118.872
X177.419Y-122.174
X177.448Y-111.252
X177.575Y-104.648
X177.575Y-107.823
X177.8Y-51.816
X180.173Y-115.57
X182.753Y-55.851
X182.753Y-58.391
X183.388Y-42.545
X183.388Y-45.085
X189.386Y-51.181
X189.415Y-64.262
X189.836Y-54.356
X189.836Y-57.658
X189.836Y-70.739
X189.865Y-67.564
X189.894Y-60.833
X191.926Y-51.181
X191.955Y-64.262
X192.181Y-122.365
X192.376Y-54.356
X192.376Y-57.658
X192.376Y-70.739
X192.405Y-67.564
X192.434Y-60.833
X193.167Y-75.819
X193.167Y-80.899
X195.707Y-78.359
X197.181Y-122.365
X204.089Y-43.151
X204.089Y-45.691
X207.391Y-75.946
X207.391Y-81.026
X208.153Y-54.356
X208.153Y-57.658
X208.182Y-60.96
X208.28Y-68.199
X208.28Y-71.374
X208.534Y-51.054
X208.632Y-64.262
X209.931Y-78.486
X210.693Y-54.356
X210.693Y-57.658
X210.722Y-60.96
X210.82Y-68.199
X210.82Y-71.374
X211.074Y-51.054
X211.172Y-64.262
X216.916Y-58.166
X216.916Y-60.706
X217.337Y-66.802
X217.337Y-73.66
X219.837Y-66.802
X219.837Y-73.66
X220.726Y-57.912
X220.726Y-60.452
X222.9Y-117.9
X227.36Y-54.64
X227.9Y-117.9
X229.9Y-52.1
X230.886Y-76.229
X230.886Y-78.769
X230.951Y-71.501
X232.44Y-54.64
X233.451Y-71.501
X234.95Y-76.2
X234.95Y-78.74
X237.109Y-56.798
X237.109Y-59.338
X237.109Y-62.23
X237.109Y-64.77
X238.408Y-78.74
X239.48Y-116.777
X240.948Y-78.74
X241.935Y-64.643
X244.475Y-64.643
X244.48Y-116.777
X245.302Y-75.311
X247.802Y-75.311
X247.95Y-63.95
X247.95Y-66.49
X248.61Y-51.3
X248.61Y-54.6
X251.15Y-51.3
X251.15Y-54.6
X251.25Y-58.05
X251.25Y-60.59
X251.35Y-64.005
X251.35Y-66.545
X251.46Y-73.787
X251.46Y-76.327
X254.255Y-57.85
X256.795Y-57.85
T6
X30.607Y-36.449
X33.147Y-36.449
T7
X32.004Y-30.099
X34.544Y-30.099
X37.084Y-30.099
X39.624Y-30.099
X42.164Y-30.099
X48.221Y-35.547
X48.221Y-41.67
X52.551Y-31.218
X52.551Y-46.0
X52.862Y-38.609
X58.362Y-38.609
X58.674Y-31.218
X58.674Y-46.0
X63.004Y-35.547
X63.004Y-41.67
X67.0Y-75.0
X67.0Y-121.0
X69.54Y-75.0
X69.54Y-121.0
X72.08Y-75.0
X72.08Y-121.0
X74.62Y-75.0
X74.62Y-121.0
X77.16Y-121.0
X79.7Y-121.0
X112.0Y-121.0
X114.54Y-121.0
X117.08Y-121.0
X119.62Y-121.0
X122.16Y-121.0
X123.0Y-75.0
X124.7Y-121.0
X125.54Y-75.0
X128.08Y-75.0
X130.62Y-75.0
X133.16Y-75.0
X135.7Y-75.0
X177.0Y-75.0
X179.54Y-75.0
X207.162Y-121.0
X209.702Y-121.0
X212.242Y-121.0
X214.782Y-121.0
X217.322Y-121.0
X219.862Y-121.0
X224.0Y-75.0
X226.54Y-75.0
X231.013Y-106.998
X232.786Y-89.606
X232.786Y-93.606
X232.786Y-97.606
X233.553Y-106.998
X235.286Y-89.606
X235.286Y-93.606
X235.286Y-97.606
X236.093Y-106.998
X257.0Y-75.0
X259.54Y-75.0
T8
X30.0Y-73.0
X30.0Y-99.0
X32.5Y-73.0
X32.5Y-99.0
X35.0Y-73.0
X35.0Y-99.0
X51.938Y-99.0
X54.438Y-99.0
X56.938Y-99.0
X74.253Y-99.0
X75.309Y-46.0
X76.753Y-99.0
X77.809Y-46.0
X78.007Y-108.331
X78.007Y-110.871
X79.253Y-99.0
X80.309Y-46.0
X94.446Y-99.0
X94.486Y-46.0
X96.946Y-99.0
X96.986Y-46.0
X99.446Y-99.0
X99.486Y-46.0
X106.553Y-110.15
X106.553Y-112.69
X106.553Y-117.221
X106.553Y-119.761
X129.014Y-99.0
X130.128Y-46.0
X131.514Y-99.0
X132.628Y-46.0
X134.014Y-99.0
X135.128Y-46.0
X151.088Y-46.0
X151.088Y-99.0
X153.588Y-46.0
X153.588Y-99.0
X156.088Y-46.0
X156.088Y-99.0
X170.773Y-46.0
X170.773Y-99.0
X173.273Y-46.0
X173.273Y-99.0
X175.773Y-46.0
X175.773Y-99.0
X191.088Y-46.0
X191.638Y-99.0
X193.588Y-46.0
X194.138Y-99.0
X196.088Y-46.0
X196.638Y-99.0
X211.794Y-46.0
X212.429Y-99.0
X214.294Y-46.0
X214.929Y-99.0
X216.794Y-46.0
X217.429Y-99.0
X232.55Y-46.05
X235.05Y-46.05
X237.55Y-46.05
X258.567Y-98.948
X259.075Y-45.948
X261.067Y-98.948
X261.575Y-45.948
X263.567Y-98.948
X264.075Y-45.948
T9
X108.712Y-33.528
X108.712Y-48.528
X109.755Y-86.36
X109.755Y-101.36
X115.162Y-33.528
X115.162Y-48.528
X116.205Y-86.36
X116.205Y-101.36
X230.886Y-86.106
X230.886Y-101.106
X237.186Y-86.106
X237.186Y-101.106
T10
X28.1Y-66.0
X28.1Y-92.0
X36.9Y-66.0
X36.9Y-92.0
X50.038Y-92.0
X58.838Y-92.0
X72.353Y-92.0
X73.409Y-39.0
X81.153Y-92.0
X82.209Y-39.0
X92.546Y-92.0
X92.586Y-39.0
X101.346Y-92.0
X101.386Y-39.0
X127.114Y-92.0
X128.228Y-39.0
X135.914Y-92.0
X137.028Y-39.0
X149.188Y-39.0
X149.188Y-92.0
X157.988Y-39.0
X157.988Y-92.0
X168.873Y-39.0
X168.873Y-92.0
X177.673Y-39.0
X177.673Y-92.0
X189.188Y-39.0
X189.738Y-92.0
X197.988Y-39.0
X198.538Y-92.0
X209.894Y-39.0
X210.529Y-92.0
X218.694Y-39.0
X219.329Y-92.0
X230.65Y-39.05
X239.45Y-39.05
X256.667Y-91.948
X257.175Y-38.948
X265.467Y-91.948
X265.975Y-38.948
M30
