%TF.GenerationSoftware,KiCad,Pcbnew,9.0.3*%
%TF.CreationDate,2026-02-22T18:32:59+09:00*%
%TF.ProjectId,VCOSeparate,56434f53-6570-4617-9261-74652e6b6963,rev?*%
%TF.SameCoordinates,Original*%
%TF.FileFunction,Paste,Top*%
%TF.FilePolarity,Positive*%
%FSLAX46Y46*%
G04 Gerber Fmt 4.6, Leading zero omitted, Abs format (unit mm)*
G04 Created by KiCad (PCBNEW 9.0.3) date 2026-02-22 18:32:59*
%MOMM*%
%LPD*%
G01*
G04 APERTURE LIST*
G04 Aperture macros list*
%AMRoundRect*
0 Rectangle with rounded corners*
0 $1 Rounding radius*
0 $2 $3 $4 $5 $6 $7 $8 $9 X,Y pos of 4 corners*
0 Add a 4 corners polygon primitive as box body*
4,1,4,$2,$3,$4,$5,$6,$7,$8,$9,$2,$3,0*
0 Add four circle primitives for the rounded corners*
1,1,$1+$1,$2,$3*
1,1,$1+$1,$4,$5*
1,1,$1+$1,$6,$7*
1,1,$1+$1,$8,$9*
0 Add four rect primitives between the rounded corners*
20,1,$1+$1,$2,$3,$4,$5,0*
20,1,$1+$1,$4,$5,$6,$7,0*
20,1,$1+$1,$6,$7,$8,$9,0*
20,1,$1+$1,$8,$9,$2,$3,0*%
G04 Aperture macros list end*
%ADD10RoundRect,0.150000X-0.825000X-0.150000X0.825000X-0.150000X0.825000X0.150000X-0.825000X0.150000X0*%
%ADD11R,1.000000X0.800000*%
%ADD12R,1.200000X0.600000*%
%ADD13R,0.600000X1.200000*%
%ADD14RoundRect,0.150000X0.150000X-0.825000X0.150000X0.825000X-0.150000X0.825000X-0.150000X-0.825000X0*%
%ADD15R,0.950000X1.000000*%
%ADD16R,0.800000X1.000000*%
%ADD17RoundRect,0.150000X-0.850000X-0.150000X0.850000X-0.150000X0.850000X0.150000X-0.850000X0.150000X0*%
%ADD18RoundRect,0.150000X-0.150000X0.825000X-0.150000X-0.825000X0.150000X-0.825000X0.150000X0.825000X0*%
G04 APERTURE END LIST*
D10*
%TO.C,IC9*%
X231143000Y-111443000D03*
X231143000Y-112713000D03*
X231143000Y-113983000D03*
X231143000Y-115253000D03*
X236093000Y-115253000D03*
X236093000Y-113983000D03*
X236093000Y-112713000D03*
X236093000Y-111443000D03*
%TD*%
D11*
%TO.C,Q2*%
X181877000Y-51247000D03*
X181877000Y-53147000D03*
X184277000Y-52197000D03*
%TD*%
%TO.C,Q6*%
X254250000Y-60700000D03*
X254250000Y-62600000D03*
X256650000Y-61650000D03*
%TD*%
D10*
%TO.C,U10*%
X30861000Y-46736000D03*
X30861000Y-48006000D03*
X30861000Y-49276000D03*
X30861000Y-50546000D03*
X35811000Y-50546000D03*
X35811000Y-49276000D03*
X35811000Y-48006000D03*
X35811000Y-46736000D03*
%TD*%
D12*
%TO.C,IC10*%
X238907000Y-73345000D03*
X238907000Y-74295000D03*
X238907000Y-75245000D03*
X241407000Y-75245000D03*
X241407000Y-73345000D03*
%TD*%
D13*
%TO.C,IC1*%
X71120000Y-59436000D03*
X70170000Y-59436000D03*
X69220000Y-59436000D03*
X69220000Y-61936000D03*
X71120000Y-61936000D03*
%TD*%
D14*
%TO.C,IC7*%
X29464000Y-116583000D03*
X30734000Y-116583000D03*
X32004000Y-116583000D03*
X33274000Y-116583000D03*
X33274000Y-111633000D03*
X32004000Y-111633000D03*
X30734000Y-111633000D03*
X29464000Y-111633000D03*
%TD*%
D15*
%TO.C,Q4*%
X148677000Y-71299000D03*
X146777000Y-71299000D03*
X147727000Y-73699000D03*
%TD*%
D16*
%TO.C,Q5*%
X144629000Y-76261000D03*
X142729000Y-76261000D03*
X143679000Y-78661000D03*
%TD*%
D10*
%TO.C,U8*%
X198163000Y-67330000D03*
X198163000Y-68600000D03*
X198163000Y-69870000D03*
X198163000Y-71140000D03*
X203113000Y-71140000D03*
X203113000Y-69870000D03*
X203113000Y-68600000D03*
X203113000Y-67330000D03*
%TD*%
D17*
%TO.C,IC2*%
X98171000Y-64643000D03*
X98171000Y-65913000D03*
X98171000Y-67183000D03*
X98171000Y-68453000D03*
X98171000Y-69723000D03*
X98171000Y-70993000D03*
X98171000Y-72263000D03*
X98171000Y-73533000D03*
X103171000Y-73533000D03*
X103171000Y-72263000D03*
X103171000Y-70993000D03*
X103171000Y-69723000D03*
X103171000Y-68453000D03*
X103171000Y-67183000D03*
X103171000Y-65913000D03*
X103171000Y-64643000D03*
%TD*%
D10*
%TO.C,U5*%
X198377000Y-53467000D03*
X198377000Y-54737000D03*
X198377000Y-56007000D03*
X198377000Y-57277000D03*
X198377000Y-58547000D03*
X198377000Y-59817000D03*
X198377000Y-61087000D03*
X198377000Y-62357000D03*
X203327000Y-62357000D03*
X203327000Y-61087000D03*
X203327000Y-59817000D03*
X203327000Y-58547000D03*
X203327000Y-57277000D03*
X203327000Y-56007000D03*
X203327000Y-54737000D03*
X203327000Y-53467000D03*
%TD*%
D18*
%TO.C,IC4*%
X94107000Y-108204000D03*
X92837000Y-108204000D03*
X91567000Y-108204000D03*
X90297000Y-108204000D03*
X89027000Y-108204000D03*
X87757000Y-108204000D03*
X86487000Y-108204000D03*
X86487000Y-113154000D03*
X87757000Y-113154000D03*
X89027000Y-113154000D03*
X90297000Y-113154000D03*
X91567000Y-113154000D03*
X92837000Y-113154000D03*
X94107000Y-113154000D03*
%TD*%
D12*
%TO.C,IC6*%
X146344000Y-63246000D03*
X146344000Y-64196000D03*
X146344000Y-65146000D03*
X148844000Y-65146000D03*
X148844000Y-63246000D03*
%TD*%
D10*
%TO.C,U1*%
X166119000Y-52705000D03*
X166119000Y-53975000D03*
X166119000Y-55245000D03*
X166119000Y-56515000D03*
X171069000Y-56515000D03*
X171069000Y-55245000D03*
X171069000Y-53975000D03*
X171069000Y-52705000D03*
%TD*%
%TO.C,U2*%
X139576000Y-107569000D03*
X139576000Y-108839000D03*
X139576000Y-110109000D03*
X139576000Y-111379000D03*
X139576000Y-112649000D03*
X139576000Y-113919000D03*
X139576000Y-115189000D03*
X139576000Y-116459000D03*
X144526000Y-116459000D03*
X144526000Y-115189000D03*
X144526000Y-113919000D03*
X144526000Y-112649000D03*
X144526000Y-111379000D03*
X144526000Y-110109000D03*
X144526000Y-108839000D03*
X144526000Y-107569000D03*
%TD*%
D12*
%TO.C,IC3*%
X71657000Y-106873000D03*
X71657000Y-107823000D03*
X71657000Y-108773000D03*
X74157000Y-108773000D03*
X74157000Y-106873000D03*
%TD*%
D11*
%TO.C,Q3*%
X254100000Y-52850000D03*
X254100000Y-54750000D03*
X256500000Y-53800000D03*
%TD*%
D15*
%TO.C,Q7*%
X26400000Y-34535000D03*
X24500000Y-34535000D03*
X25450000Y-36935000D03*
%TD*%
D10*
%TO.C,U3*%
X165357000Y-108077000D03*
X165357000Y-109347000D03*
X165357000Y-110617000D03*
X165357000Y-111887000D03*
X165357000Y-113157000D03*
X165357000Y-114427000D03*
X165357000Y-115697000D03*
X165357000Y-116967000D03*
X170307000Y-116967000D03*
X170307000Y-115697000D03*
X170307000Y-114427000D03*
X170307000Y-113157000D03*
X170307000Y-111887000D03*
X170307000Y-110617000D03*
X170307000Y-109347000D03*
X170307000Y-108077000D03*
%TD*%
%TO.C,U6*%
X241643500Y-57342500D03*
X241643500Y-58612500D03*
X241643500Y-59882500D03*
X241643500Y-61152500D03*
X246593500Y-61152500D03*
X246593500Y-59882500D03*
X246593500Y-58612500D03*
X246593500Y-57342500D03*
%TD*%
D15*
%TO.C,Q1*%
X85278000Y-64910000D03*
X83378000Y-64910000D03*
X84328000Y-67310000D03*
%TD*%
M02*
