M48
; DRILL file {KiCad 9.0.3} date 2025-07-27T11:41:54+0900
; FORMAT={-:-/ absolute / metric / decimal}
; #@! TF.CreationDate,2025-07-27T11:41:54+09:00
; #@! TF.GenerationSoftware,Kicad,Pcbnew,9.0.3
; #@! TF.FileFunction,Plated,1,2,PTH
FMAT,2
METRIC
; #@! TA.AperFunction,Plated,PTH,ViaDrill
T1C0.300
; #@! TA.AperFunction,Plated,PTH,ComponentDrill
T2C0.700
; #@! TA.AperFunction,Plated,PTH,ComponentDrill
T3C0.750
; #@! TA.AperFunction,Plated,PTH,ComponentDrill
T4C0.800
; #@! TA.AperFunction,Plated,PTH,ComponentDrill
T5C0.900
; #@! TA.AperFunction,Plated,PTH,ComponentDrill
T6C1.000
; #@! TA.AperFunction,Plated,PTH,ComponentDrill
T7C1.200
; #@! TA.AperFunction,Plated,PTH,ComponentDrill
T8C2.970
%
G90
G05
T1
X125.588Y-64.212
X145.65Y-68.7
X150.248Y-68.7
T2
X92.5Y-49.0
X92.5Y-51.54
X95.36Y-40.5
X96.458Y-65.151
X97.0Y-50.0
X97.12Y-53.711
X97.22Y-55.997
X97.9Y-40.5
X98.998Y-65.151
X99.54Y-50.0
X99.66Y-53.711
X99.76Y-55.997
X113.76Y-55.8
X113.857Y-51.298
X113.857Y-53.5
X114.619Y-65.141
X116.3Y-55.8
X116.397Y-51.298
X116.397Y-53.5
X117.159Y-65.141
X121.524Y-63.51
X122.463Y-50.048
X124.064Y-63.51
X125.003Y-50.048
X127.8Y-71.7
X130.34Y-71.7
X132.98Y-69.1
X135.52Y-69.1
X138.542Y-63.51
X141.082Y-63.51
T3
X92.66Y-44.8
X93.93Y-43.53
X95.2Y-44.8
T4
X96.702Y-60.833
X99.202Y-60.833
X102.997Y-51.435
X102.997Y-53.975
X102.997Y-56.515
X102.997Y-59.055
X110.617Y-51.435
X110.617Y-53.975
X110.617Y-56.515
X110.617Y-59.055
X114.188Y-60.95
X116.688Y-60.95
X121.417Y-66.304
X122.306Y-52.588
X123.917Y-66.304
X124.806Y-52.588
X127.366Y-58.43
X127.366Y-60.97
X127.366Y-63.51
X127.366Y-66.05
X127.8Y-69.1
X127.874Y-44.968
X127.874Y-47.508
X127.874Y-50.048
X127.874Y-52.588
X130.3Y-69.1
X134.986Y-58.43
X134.986Y-60.97
X134.986Y-63.51
X134.986Y-66.05
X135.494Y-44.968
X135.494Y-47.508
X135.494Y-50.048
X135.494Y-52.588
X138.435Y-66.177
X140.935Y-66.177
X144.13Y-49.286
X144.13Y-51.826
X144.13Y-54.366
X144.13Y-56.906
X144.13Y-59.446
X144.13Y-61.986
X144.13Y-64.526
X151.75Y-49.286
X151.75Y-51.826
X151.75Y-54.366
X151.75Y-56.906
X151.75Y-59.446
X151.75Y-61.986
X151.75Y-64.526
X159.0Y-37.5
X159.0Y-40.0
T5
X90.8Y-54.76
X90.8Y-57.3
T6
X100.965Y-72.517
X101.727Y-40.767
X101.727Y-43.307
X103.505Y-72.517
X104.267Y-40.767
X104.267Y-43.307
X106.045Y-72.517
X106.807Y-40.767
X106.807Y-43.307
X108.585Y-72.517
X109.347Y-40.767
X109.347Y-43.307
X111.125Y-72.517
X111.887Y-40.767
X111.887Y-43.307
X113.665Y-72.517
X114.427Y-40.767
X114.427Y-43.307
X135.763Y-74.676
X138.303Y-74.676
X140.843Y-74.676
X143.383Y-74.676
X145.923Y-74.676
X145.935Y-37.975
X148.475Y-37.975
X151.015Y-37.975
X165.46Y-38.0
X168.0Y-38.0
T7
X171.0Y-49.0
X171.0Y-51.5
X171.0Y-54.0
X171.0Y-65.0
X171.0Y-67.5
X171.0Y-70.0
T8
X164.0Y-47.1
X164.0Y-55.9
X164.0Y-63.1
X164.0Y-71.9
M30
