%TF.GenerationSoftware,KiCad,Pcbnew,9.0.3*%
%TF.CreationDate,2025-07-27T11:41:57+09:00*%
%TF.ProjectId,LFOSeparate,4c464f53-6570-4617-9261-74652e6b6963,rev?*%
%TF.SameCoordinates,Original*%
%TF.FileFunction,Legend,Top*%
%TF.FilePolarity,Positive*%
%FSLAX46Y46*%
G04 Gerber Fmt 4.6, Leading zero omitted, Abs format (unit mm)*
G04 Created by KiCad (PCBNEW 9.0.3) date 2025-07-27 11:41:57*
%MOMM*%
%LPD*%
G01*
G04 APERTURE LIST*
%ADD10C,0.200000*%
%ADD11C,0.150000*%
%ADD12C,0.254000*%
%ADD13C,0.120000*%
%ADD14C,0.100000*%
G04 APERTURE END LIST*
D10*
X144330326Y-35032780D02*
X144330326Y-36032780D01*
X144330326Y-36032780D02*
X143996993Y-35318495D01*
X143996993Y-35318495D02*
X143663660Y-36032780D01*
X143663660Y-36032780D02*
X143663660Y-35032780D01*
X142616041Y-35128019D02*
X142663660Y-35080400D01*
X142663660Y-35080400D02*
X142806517Y-35032780D01*
X142806517Y-35032780D02*
X142901755Y-35032780D01*
X142901755Y-35032780D02*
X143044612Y-35080400D01*
X143044612Y-35080400D02*
X143139850Y-35175638D01*
X143139850Y-35175638D02*
X143187469Y-35270876D01*
X143187469Y-35270876D02*
X143235088Y-35461352D01*
X143235088Y-35461352D02*
X143235088Y-35604209D01*
X143235088Y-35604209D02*
X143187469Y-35794685D01*
X143187469Y-35794685D02*
X143139850Y-35889923D01*
X143139850Y-35889923D02*
X143044612Y-35985161D01*
X143044612Y-35985161D02*
X142901755Y-36032780D01*
X142901755Y-36032780D02*
X142806517Y-36032780D01*
X142806517Y-36032780D02*
X142663660Y-35985161D01*
X142663660Y-35985161D02*
X142616041Y-35937542D01*
X142235088Y-35937542D02*
X142187469Y-35985161D01*
X142187469Y-35985161D02*
X142092231Y-36032780D01*
X142092231Y-36032780D02*
X141854136Y-36032780D01*
X141854136Y-36032780D02*
X141758898Y-35985161D01*
X141758898Y-35985161D02*
X141711279Y-35937542D01*
X141711279Y-35937542D02*
X141663660Y-35842304D01*
X141663660Y-35842304D02*
X141663660Y-35747066D01*
X141663660Y-35747066D02*
X141711279Y-35604209D01*
X141711279Y-35604209D02*
X142282707Y-35032780D01*
X142282707Y-35032780D02*
X141663660Y-35032780D01*
X139996993Y-35032780D02*
X140473183Y-35032780D01*
X140473183Y-35032780D02*
X140473183Y-36032780D01*
X139330326Y-35556590D02*
X139663659Y-35556590D01*
X139663659Y-35032780D02*
X139663659Y-36032780D01*
X139663659Y-36032780D02*
X139187469Y-36032780D01*
X138616040Y-36032780D02*
X138425564Y-36032780D01*
X138425564Y-36032780D02*
X138330326Y-35985161D01*
X138330326Y-35985161D02*
X138235088Y-35889923D01*
X138235088Y-35889923D02*
X138187469Y-35699447D01*
X138187469Y-35699447D02*
X138187469Y-35366114D01*
X138187469Y-35366114D02*
X138235088Y-35175638D01*
X138235088Y-35175638D02*
X138330326Y-35080400D01*
X138330326Y-35080400D02*
X138425564Y-35032780D01*
X138425564Y-35032780D02*
X138616040Y-35032780D01*
X138616040Y-35032780D02*
X138711278Y-35080400D01*
X138711278Y-35080400D02*
X138806516Y-35175638D01*
X138806516Y-35175638D02*
X138854135Y-35366114D01*
X138854135Y-35366114D02*
X138854135Y-35699447D01*
X138854135Y-35699447D02*
X138806516Y-35889923D01*
X138806516Y-35889923D02*
X138711278Y-35985161D01*
X138711278Y-35985161D02*
X138616040Y-36032780D01*
X137044611Y-35080400D02*
X136901754Y-35032780D01*
X136901754Y-35032780D02*
X136663659Y-35032780D01*
X136663659Y-35032780D02*
X136568421Y-35080400D01*
X136568421Y-35080400D02*
X136520802Y-35128019D01*
X136520802Y-35128019D02*
X136473183Y-35223257D01*
X136473183Y-35223257D02*
X136473183Y-35318495D01*
X136473183Y-35318495D02*
X136520802Y-35413733D01*
X136520802Y-35413733D02*
X136568421Y-35461352D01*
X136568421Y-35461352D02*
X136663659Y-35508971D01*
X136663659Y-35508971D02*
X136854135Y-35556590D01*
X136854135Y-35556590D02*
X136949373Y-35604209D01*
X136949373Y-35604209D02*
X136996992Y-35651828D01*
X136996992Y-35651828D02*
X137044611Y-35747066D01*
X137044611Y-35747066D02*
X137044611Y-35842304D01*
X137044611Y-35842304D02*
X136996992Y-35937542D01*
X136996992Y-35937542D02*
X136949373Y-35985161D01*
X136949373Y-35985161D02*
X136854135Y-36032780D01*
X136854135Y-36032780D02*
X136616040Y-36032780D01*
X136616040Y-36032780D02*
X136473183Y-35985161D01*
X135663659Y-35080400D02*
X135758897Y-35032780D01*
X135758897Y-35032780D02*
X135949373Y-35032780D01*
X135949373Y-35032780D02*
X136044611Y-35080400D01*
X136044611Y-35080400D02*
X136092230Y-35175638D01*
X136092230Y-35175638D02*
X136092230Y-35556590D01*
X136092230Y-35556590D02*
X136044611Y-35651828D01*
X136044611Y-35651828D02*
X135949373Y-35699447D01*
X135949373Y-35699447D02*
X135758897Y-35699447D01*
X135758897Y-35699447D02*
X135663659Y-35651828D01*
X135663659Y-35651828D02*
X135616040Y-35556590D01*
X135616040Y-35556590D02*
X135616040Y-35461352D01*
X135616040Y-35461352D02*
X136092230Y-35366114D01*
X135187468Y-35699447D02*
X135187468Y-34699447D01*
X135187468Y-35651828D02*
X135092230Y-35699447D01*
X135092230Y-35699447D02*
X134901754Y-35699447D01*
X134901754Y-35699447D02*
X134806516Y-35651828D01*
X134806516Y-35651828D02*
X134758897Y-35604209D01*
X134758897Y-35604209D02*
X134711278Y-35508971D01*
X134711278Y-35508971D02*
X134711278Y-35223257D01*
X134711278Y-35223257D02*
X134758897Y-35128019D01*
X134758897Y-35128019D02*
X134806516Y-35080400D01*
X134806516Y-35080400D02*
X134901754Y-35032780D01*
X134901754Y-35032780D02*
X135092230Y-35032780D01*
X135092230Y-35032780D02*
X135187468Y-35080400D01*
X133854135Y-35032780D02*
X133854135Y-35556590D01*
X133854135Y-35556590D02*
X133901754Y-35651828D01*
X133901754Y-35651828D02*
X133996992Y-35699447D01*
X133996992Y-35699447D02*
X134187468Y-35699447D01*
X134187468Y-35699447D02*
X134282706Y-35651828D01*
X133854135Y-35080400D02*
X133949373Y-35032780D01*
X133949373Y-35032780D02*
X134187468Y-35032780D01*
X134187468Y-35032780D02*
X134282706Y-35080400D01*
X134282706Y-35080400D02*
X134330325Y-35175638D01*
X134330325Y-35175638D02*
X134330325Y-35270876D01*
X134330325Y-35270876D02*
X134282706Y-35366114D01*
X134282706Y-35366114D02*
X134187468Y-35413733D01*
X134187468Y-35413733D02*
X133949373Y-35413733D01*
X133949373Y-35413733D02*
X133854135Y-35461352D01*
X133377944Y-35032780D02*
X133377944Y-35699447D01*
X133377944Y-35508971D02*
X133330325Y-35604209D01*
X133330325Y-35604209D02*
X133282706Y-35651828D01*
X133282706Y-35651828D02*
X133187468Y-35699447D01*
X133187468Y-35699447D02*
X133092230Y-35699447D01*
X132330325Y-35032780D02*
X132330325Y-35556590D01*
X132330325Y-35556590D02*
X132377944Y-35651828D01*
X132377944Y-35651828D02*
X132473182Y-35699447D01*
X132473182Y-35699447D02*
X132663658Y-35699447D01*
X132663658Y-35699447D02*
X132758896Y-35651828D01*
X132330325Y-35080400D02*
X132425563Y-35032780D01*
X132425563Y-35032780D02*
X132663658Y-35032780D01*
X132663658Y-35032780D02*
X132758896Y-35080400D01*
X132758896Y-35080400D02*
X132806515Y-35175638D01*
X132806515Y-35175638D02*
X132806515Y-35270876D01*
X132806515Y-35270876D02*
X132758896Y-35366114D01*
X132758896Y-35366114D02*
X132663658Y-35413733D01*
X132663658Y-35413733D02*
X132425563Y-35413733D01*
X132425563Y-35413733D02*
X132330325Y-35461352D01*
X131996991Y-35699447D02*
X131616039Y-35699447D01*
X131854134Y-36032780D02*
X131854134Y-35175638D01*
X131854134Y-35175638D02*
X131806515Y-35080400D01*
X131806515Y-35080400D02*
X131711277Y-35032780D01*
X131711277Y-35032780D02*
X131616039Y-35032780D01*
X130901753Y-35080400D02*
X130996991Y-35032780D01*
X130996991Y-35032780D02*
X131187467Y-35032780D01*
X131187467Y-35032780D02*
X131282705Y-35080400D01*
X131282705Y-35080400D02*
X131330324Y-35175638D01*
X131330324Y-35175638D02*
X131330324Y-35556590D01*
X131330324Y-35556590D02*
X131282705Y-35651828D01*
X131282705Y-35651828D02*
X131187467Y-35699447D01*
X131187467Y-35699447D02*
X130996991Y-35699447D01*
X130996991Y-35699447D02*
X130901753Y-35651828D01*
X130901753Y-35651828D02*
X130854134Y-35556590D01*
X130854134Y-35556590D02*
X130854134Y-35461352D01*
X130854134Y-35461352D02*
X131330324Y-35366114D01*
X129092229Y-35032780D02*
X129425562Y-35508971D01*
X129663657Y-35032780D02*
X129663657Y-36032780D01*
X129663657Y-36032780D02*
X129282705Y-36032780D01*
X129282705Y-36032780D02*
X129187467Y-35985161D01*
X129187467Y-35985161D02*
X129139848Y-35937542D01*
X129139848Y-35937542D02*
X129092229Y-35842304D01*
X129092229Y-35842304D02*
X129092229Y-35699447D01*
X129092229Y-35699447D02*
X129139848Y-35604209D01*
X129139848Y-35604209D02*
X129187467Y-35556590D01*
X129187467Y-35556590D02*
X129282705Y-35508971D01*
X129282705Y-35508971D02*
X129663657Y-35508971D01*
X128282705Y-35080400D02*
X128377943Y-35032780D01*
X128377943Y-35032780D02*
X128568419Y-35032780D01*
X128568419Y-35032780D02*
X128663657Y-35080400D01*
X128663657Y-35080400D02*
X128711276Y-35175638D01*
X128711276Y-35175638D02*
X128711276Y-35556590D01*
X128711276Y-35556590D02*
X128663657Y-35651828D01*
X128663657Y-35651828D02*
X128568419Y-35699447D01*
X128568419Y-35699447D02*
X128377943Y-35699447D01*
X128377943Y-35699447D02*
X128282705Y-35651828D01*
X128282705Y-35651828D02*
X128235086Y-35556590D01*
X128235086Y-35556590D02*
X128235086Y-35461352D01*
X128235086Y-35461352D02*
X128711276Y-35366114D01*
X127901752Y-35699447D02*
X127663657Y-35032780D01*
X127663657Y-35032780D02*
X127425562Y-35699447D01*
X127092228Y-35937542D02*
X127044609Y-35985161D01*
X127044609Y-35985161D02*
X126949371Y-36032780D01*
X126949371Y-36032780D02*
X126711276Y-36032780D01*
X126711276Y-36032780D02*
X126616038Y-35985161D01*
X126616038Y-35985161D02*
X126568419Y-35937542D01*
X126568419Y-35937542D02*
X126520800Y-35842304D01*
X126520800Y-35842304D02*
X126520800Y-35747066D01*
X126520800Y-35747066D02*
X126568419Y-35604209D01*
X126568419Y-35604209D02*
X127139847Y-35032780D01*
X127139847Y-35032780D02*
X126520800Y-35032780D01*
X125377942Y-35937542D02*
X125330323Y-35985161D01*
X125330323Y-35985161D02*
X125235085Y-36032780D01*
X125235085Y-36032780D02*
X124996990Y-36032780D01*
X124996990Y-36032780D02*
X124901752Y-35985161D01*
X124901752Y-35985161D02*
X124854133Y-35937542D01*
X124854133Y-35937542D02*
X124806514Y-35842304D01*
X124806514Y-35842304D02*
X124806514Y-35747066D01*
X124806514Y-35747066D02*
X124854133Y-35604209D01*
X124854133Y-35604209D02*
X125425561Y-35032780D01*
X125425561Y-35032780D02*
X124806514Y-35032780D01*
X124187466Y-36032780D02*
X124092228Y-36032780D01*
X124092228Y-36032780D02*
X123996990Y-35985161D01*
X123996990Y-35985161D02*
X123949371Y-35937542D01*
X123949371Y-35937542D02*
X123901752Y-35842304D01*
X123901752Y-35842304D02*
X123854133Y-35651828D01*
X123854133Y-35651828D02*
X123854133Y-35413733D01*
X123854133Y-35413733D02*
X123901752Y-35223257D01*
X123901752Y-35223257D02*
X123949371Y-35128019D01*
X123949371Y-35128019D02*
X123996990Y-35080400D01*
X123996990Y-35080400D02*
X124092228Y-35032780D01*
X124092228Y-35032780D02*
X124187466Y-35032780D01*
X124187466Y-35032780D02*
X124282704Y-35080400D01*
X124282704Y-35080400D02*
X124330323Y-35128019D01*
X124330323Y-35128019D02*
X124377942Y-35223257D01*
X124377942Y-35223257D02*
X124425561Y-35413733D01*
X124425561Y-35413733D02*
X124425561Y-35651828D01*
X124425561Y-35651828D02*
X124377942Y-35842304D01*
X124377942Y-35842304D02*
X124330323Y-35937542D01*
X124330323Y-35937542D02*
X124282704Y-35985161D01*
X124282704Y-35985161D02*
X124187466Y-36032780D01*
X123473180Y-35937542D02*
X123425561Y-35985161D01*
X123425561Y-35985161D02*
X123330323Y-36032780D01*
X123330323Y-36032780D02*
X123092228Y-36032780D01*
X123092228Y-36032780D02*
X122996990Y-35985161D01*
X122996990Y-35985161D02*
X122949371Y-35937542D01*
X122949371Y-35937542D02*
X122901752Y-35842304D01*
X122901752Y-35842304D02*
X122901752Y-35747066D01*
X122901752Y-35747066D02*
X122949371Y-35604209D01*
X122949371Y-35604209D02*
X123520799Y-35032780D01*
X123520799Y-35032780D02*
X122901752Y-35032780D01*
X121996990Y-36032780D02*
X122473180Y-36032780D01*
X122473180Y-36032780D02*
X122520799Y-35556590D01*
X122520799Y-35556590D02*
X122473180Y-35604209D01*
X122473180Y-35604209D02*
X122377942Y-35651828D01*
X122377942Y-35651828D02*
X122139847Y-35651828D01*
X122139847Y-35651828D02*
X122044609Y-35604209D01*
X122044609Y-35604209D02*
X121996990Y-35556590D01*
X121996990Y-35556590D02*
X121949371Y-35461352D01*
X121949371Y-35461352D02*
X121949371Y-35223257D01*
X121949371Y-35223257D02*
X121996990Y-35128019D01*
X121996990Y-35128019D02*
X122044609Y-35080400D01*
X122044609Y-35080400D02*
X122139847Y-35032780D01*
X122139847Y-35032780D02*
X122377942Y-35032780D01*
X122377942Y-35032780D02*
X122473180Y-35080400D01*
X122473180Y-35080400D02*
X122520799Y-35128019D01*
X120806514Y-36080400D02*
X121663656Y-34794685D01*
X120568418Y-36032780D02*
X119901752Y-36032780D01*
X119901752Y-36032780D02*
X120330323Y-35032780D01*
X118806514Y-36080400D02*
X119663656Y-34794685D01*
X118520799Y-35937542D02*
X118473180Y-35985161D01*
X118473180Y-35985161D02*
X118377942Y-36032780D01*
X118377942Y-36032780D02*
X118139847Y-36032780D01*
X118139847Y-36032780D02*
X118044609Y-35985161D01*
X118044609Y-35985161D02*
X117996990Y-35937542D01*
X117996990Y-35937542D02*
X117949371Y-35842304D01*
X117949371Y-35842304D02*
X117949371Y-35747066D01*
X117949371Y-35747066D02*
X117996990Y-35604209D01*
X117996990Y-35604209D02*
X118568418Y-35032780D01*
X118568418Y-35032780D02*
X117949371Y-35032780D01*
X117330323Y-36032780D02*
X117235085Y-36032780D01*
X117235085Y-36032780D02*
X117139847Y-35985161D01*
X117139847Y-35985161D02*
X117092228Y-35937542D01*
X117092228Y-35937542D02*
X117044609Y-35842304D01*
X117044609Y-35842304D02*
X116996990Y-35651828D01*
X116996990Y-35651828D02*
X116996990Y-35413733D01*
X116996990Y-35413733D02*
X117044609Y-35223257D01*
X117044609Y-35223257D02*
X117092228Y-35128019D01*
X117092228Y-35128019D02*
X117139847Y-35080400D01*
X117139847Y-35080400D02*
X117235085Y-35032780D01*
X117235085Y-35032780D02*
X117330323Y-35032780D01*
X117330323Y-35032780D02*
X117425561Y-35080400D01*
X117425561Y-35080400D02*
X117473180Y-35128019D01*
X117473180Y-35128019D02*
X117520799Y-35223257D01*
X117520799Y-35223257D02*
X117568418Y-35413733D01*
X117568418Y-35413733D02*
X117568418Y-35651828D01*
X117568418Y-35651828D02*
X117520799Y-35842304D01*
X117520799Y-35842304D02*
X117473180Y-35937542D01*
X117473180Y-35937542D02*
X117425561Y-35985161D01*
X117425561Y-35985161D02*
X117330323Y-36032780D01*
D11*
X116628104Y-75477333D02*
X116628104Y-75001143D01*
X116913819Y-75572571D02*
X115913819Y-75239238D01*
X115913819Y-75239238D02*
X116913819Y-74905905D01*
X117009057Y-74810667D02*
X117009057Y-74048762D01*
X116913819Y-73810666D02*
X115913819Y-73810666D01*
X115913819Y-73810666D02*
X115913819Y-73429714D01*
X115913819Y-73429714D02*
X115961438Y-73334476D01*
X115961438Y-73334476D02*
X116009057Y-73286857D01*
X116009057Y-73286857D02*
X116104295Y-73239238D01*
X116104295Y-73239238D02*
X116247152Y-73239238D01*
X116247152Y-73239238D02*
X116342390Y-73286857D01*
X116342390Y-73286857D02*
X116390009Y-73334476D01*
X116390009Y-73334476D02*
X116437628Y-73429714D01*
X116437628Y-73429714D02*
X116437628Y-73810666D01*
X116913819Y-72667809D02*
X116866200Y-72763047D01*
X116866200Y-72763047D02*
X116818580Y-72810666D01*
X116818580Y-72810666D02*
X116723342Y-72858285D01*
X116723342Y-72858285D02*
X116437628Y-72858285D01*
X116437628Y-72858285D02*
X116342390Y-72810666D01*
X116342390Y-72810666D02*
X116294771Y-72763047D01*
X116294771Y-72763047D02*
X116247152Y-72667809D01*
X116247152Y-72667809D02*
X116247152Y-72524952D01*
X116247152Y-72524952D02*
X116294771Y-72429714D01*
X116294771Y-72429714D02*
X116342390Y-72382095D01*
X116342390Y-72382095D02*
X116437628Y-72334476D01*
X116437628Y-72334476D02*
X116723342Y-72334476D01*
X116723342Y-72334476D02*
X116818580Y-72382095D01*
X116818580Y-72382095D02*
X116866200Y-72429714D01*
X116866200Y-72429714D02*
X116913819Y-72524952D01*
X116913819Y-72524952D02*
X116913819Y-72667809D01*
X116247152Y-72001142D02*
X116913819Y-71810666D01*
X116913819Y-71810666D02*
X116437628Y-71620190D01*
X116437628Y-71620190D02*
X116913819Y-71429714D01*
X116913819Y-71429714D02*
X116247152Y-71239238D01*
X116866200Y-70477333D02*
X116913819Y-70572571D01*
X116913819Y-70572571D02*
X116913819Y-70763047D01*
X116913819Y-70763047D02*
X116866200Y-70858285D01*
X116866200Y-70858285D02*
X116770961Y-70905904D01*
X116770961Y-70905904D02*
X116390009Y-70905904D01*
X116390009Y-70905904D02*
X116294771Y-70858285D01*
X116294771Y-70858285D02*
X116247152Y-70763047D01*
X116247152Y-70763047D02*
X116247152Y-70572571D01*
X116247152Y-70572571D02*
X116294771Y-70477333D01*
X116294771Y-70477333D02*
X116390009Y-70429714D01*
X116390009Y-70429714D02*
X116485247Y-70429714D01*
X116485247Y-70429714D02*
X116580485Y-70905904D01*
X116913819Y-70001142D02*
X116247152Y-70001142D01*
X116437628Y-70001142D02*
X116342390Y-69953523D01*
X116342390Y-69953523D02*
X116294771Y-69905904D01*
X116294771Y-69905904D02*
X116247152Y-69810666D01*
X116247152Y-69810666D02*
X116247152Y-69715428D01*
D10*
X103642219Y-38635183D02*
X103642219Y-38063755D01*
X104642219Y-38349469D02*
X103642219Y-38349469D01*
X104642219Y-37730421D02*
X103975552Y-37730421D01*
X104166028Y-37730421D02*
X104070790Y-37682802D01*
X104070790Y-37682802D02*
X104023171Y-37635183D01*
X104023171Y-37635183D02*
X103975552Y-37539945D01*
X103975552Y-37539945D02*
X103975552Y-37444707D01*
X104642219Y-37111373D02*
X103975552Y-37111373D01*
X103642219Y-37111373D02*
X103689838Y-37158992D01*
X103689838Y-37158992D02*
X103737457Y-37111373D01*
X103737457Y-37111373D02*
X103689838Y-37063754D01*
X103689838Y-37063754D02*
X103642219Y-37111373D01*
X103642219Y-37111373D02*
X103737457Y-37111373D01*
X113849838Y-37968517D02*
X113802219Y-38063755D01*
X113802219Y-38063755D02*
X113802219Y-38206612D01*
X113802219Y-38206612D02*
X113849838Y-38349469D01*
X113849838Y-38349469D02*
X113945076Y-38444707D01*
X113945076Y-38444707D02*
X114040314Y-38492326D01*
X114040314Y-38492326D02*
X114230790Y-38539945D01*
X114230790Y-38539945D02*
X114373647Y-38539945D01*
X114373647Y-38539945D02*
X114564123Y-38492326D01*
X114564123Y-38492326D02*
X114659361Y-38444707D01*
X114659361Y-38444707D02*
X114754600Y-38349469D01*
X114754600Y-38349469D02*
X114802219Y-38206612D01*
X114802219Y-38206612D02*
X114802219Y-38111374D01*
X114802219Y-38111374D02*
X114754600Y-37968517D01*
X114754600Y-37968517D02*
X114706980Y-37920898D01*
X114706980Y-37920898D02*
X114373647Y-37920898D01*
X114373647Y-37920898D02*
X114373647Y-38111374D01*
X114802219Y-37492326D02*
X113802219Y-37492326D01*
X113802219Y-37492326D02*
X114802219Y-36920898D01*
X114802219Y-36920898D02*
X113802219Y-36920898D01*
X114802219Y-36444707D02*
X113802219Y-36444707D01*
X113802219Y-36444707D02*
X113802219Y-36206612D01*
X113802219Y-36206612D02*
X113849838Y-36063755D01*
X113849838Y-36063755D02*
X113945076Y-35968517D01*
X113945076Y-35968517D02*
X114040314Y-35920898D01*
X114040314Y-35920898D02*
X114230790Y-35873279D01*
X114230790Y-35873279D02*
X114373647Y-35873279D01*
X114373647Y-35873279D02*
X114564123Y-35920898D01*
X114564123Y-35920898D02*
X114659361Y-35968517D01*
X114659361Y-35968517D02*
X114754600Y-36063755D01*
X114754600Y-36063755D02*
X114802219Y-36206612D01*
X114802219Y-36206612D02*
X114802219Y-36444707D01*
X114516504Y-35492326D02*
X114516504Y-35016136D01*
X114802219Y-35587564D02*
X113802219Y-35254231D01*
X113802219Y-35254231D02*
X114802219Y-34920898D01*
D11*
X172666819Y-41084142D02*
X171666819Y-41084142D01*
X171666819Y-41084142D02*
X171666819Y-40846047D01*
X171666819Y-40846047D02*
X171714438Y-40703190D01*
X171714438Y-40703190D02*
X171809676Y-40607952D01*
X171809676Y-40607952D02*
X171904914Y-40560333D01*
X171904914Y-40560333D02*
X172095390Y-40512714D01*
X172095390Y-40512714D02*
X172238247Y-40512714D01*
X172238247Y-40512714D02*
X172428723Y-40560333D01*
X172428723Y-40560333D02*
X172523961Y-40607952D01*
X172523961Y-40607952D02*
X172619200Y-40703190D01*
X172619200Y-40703190D02*
X172666819Y-40846047D01*
X172666819Y-40846047D02*
X172666819Y-41084142D01*
X172762057Y-40322238D02*
X172762057Y-39560333D01*
X172666819Y-39322237D02*
X171666819Y-39322237D01*
X171666819Y-39322237D02*
X171666819Y-38941285D01*
X171666819Y-38941285D02*
X171714438Y-38846047D01*
X171714438Y-38846047D02*
X171762057Y-38798428D01*
X171762057Y-38798428D02*
X171857295Y-38750809D01*
X171857295Y-38750809D02*
X172000152Y-38750809D01*
X172000152Y-38750809D02*
X172095390Y-38798428D01*
X172095390Y-38798428D02*
X172143009Y-38846047D01*
X172143009Y-38846047D02*
X172190628Y-38941285D01*
X172190628Y-38941285D02*
X172190628Y-39322237D01*
X172666819Y-38179380D02*
X172619200Y-38274618D01*
X172619200Y-38274618D02*
X172571580Y-38322237D01*
X172571580Y-38322237D02*
X172476342Y-38369856D01*
X172476342Y-38369856D02*
X172190628Y-38369856D01*
X172190628Y-38369856D02*
X172095390Y-38322237D01*
X172095390Y-38322237D02*
X172047771Y-38274618D01*
X172047771Y-38274618D02*
X172000152Y-38179380D01*
X172000152Y-38179380D02*
X172000152Y-38036523D01*
X172000152Y-38036523D02*
X172047771Y-37941285D01*
X172047771Y-37941285D02*
X172095390Y-37893666D01*
X172095390Y-37893666D02*
X172190628Y-37846047D01*
X172190628Y-37846047D02*
X172476342Y-37846047D01*
X172476342Y-37846047D02*
X172571580Y-37893666D01*
X172571580Y-37893666D02*
X172619200Y-37941285D01*
X172619200Y-37941285D02*
X172666819Y-38036523D01*
X172666819Y-38036523D02*
X172666819Y-38179380D01*
X172000152Y-37512713D02*
X172666819Y-37322237D01*
X172666819Y-37322237D02*
X172190628Y-37131761D01*
X172190628Y-37131761D02*
X172666819Y-36941285D01*
X172666819Y-36941285D02*
X172000152Y-36750809D01*
X172619200Y-35988904D02*
X172666819Y-36084142D01*
X172666819Y-36084142D02*
X172666819Y-36274618D01*
X172666819Y-36274618D02*
X172619200Y-36369856D01*
X172619200Y-36369856D02*
X172523961Y-36417475D01*
X172523961Y-36417475D02*
X172143009Y-36417475D01*
X172143009Y-36417475D02*
X172047771Y-36369856D01*
X172047771Y-36369856D02*
X172000152Y-36274618D01*
X172000152Y-36274618D02*
X172000152Y-36084142D01*
X172000152Y-36084142D02*
X172047771Y-35988904D01*
X172047771Y-35988904D02*
X172143009Y-35941285D01*
X172143009Y-35941285D02*
X172238247Y-35941285D01*
X172238247Y-35941285D02*
X172333485Y-36417475D01*
X172666819Y-35512713D02*
X172000152Y-35512713D01*
X172190628Y-35512713D02*
X172095390Y-35465094D01*
X172095390Y-35465094D02*
X172047771Y-35417475D01*
X172047771Y-35417475D02*
X172000152Y-35322237D01*
X172000152Y-35322237D02*
X172000152Y-35226999D01*
D10*
X103499266Y-78624326D02*
X103499266Y-77862422D01*
X103880219Y-78243374D02*
X103118314Y-78243374D01*
X102880219Y-76910041D02*
X102880219Y-77386231D01*
X102880219Y-77386231D02*
X103356409Y-77433850D01*
X103356409Y-77433850D02*
X103308790Y-77386231D01*
X103308790Y-77386231D02*
X103261171Y-77290993D01*
X103261171Y-77290993D02*
X103261171Y-77052898D01*
X103261171Y-77052898D02*
X103308790Y-76957660D01*
X103308790Y-76957660D02*
X103356409Y-76910041D01*
X103356409Y-76910041D02*
X103451647Y-76862422D01*
X103451647Y-76862422D02*
X103689742Y-76862422D01*
X103689742Y-76862422D02*
X103784980Y-76910041D01*
X103784980Y-76910041D02*
X103832600Y-76957660D01*
X103832600Y-76957660D02*
X103880219Y-77052898D01*
X103880219Y-77052898D02*
X103880219Y-77290993D01*
X103880219Y-77290993D02*
X103832600Y-77386231D01*
X103832600Y-77386231D02*
X103784980Y-77433850D01*
X102880219Y-76576707D02*
X103880219Y-76243374D01*
X103880219Y-76243374D02*
X102880219Y-75910041D01*
X103594504Y-75624326D02*
X103594504Y-75148136D01*
X103880219Y-75719564D02*
X102880219Y-75386231D01*
X102880219Y-75386231D02*
X103880219Y-75052898D01*
X109722219Y-37920898D02*
X109246028Y-38254231D01*
X109722219Y-38492326D02*
X108722219Y-38492326D01*
X108722219Y-38492326D02*
X108722219Y-38111374D01*
X108722219Y-38111374D02*
X108769838Y-38016136D01*
X108769838Y-38016136D02*
X108817457Y-37968517D01*
X108817457Y-37968517D02*
X108912695Y-37920898D01*
X108912695Y-37920898D02*
X109055552Y-37920898D01*
X109055552Y-37920898D02*
X109150790Y-37968517D01*
X109150790Y-37968517D02*
X109198409Y-38016136D01*
X109198409Y-38016136D02*
X109246028Y-38111374D01*
X109246028Y-38111374D02*
X109246028Y-38492326D01*
X109055552Y-37492326D02*
X109722219Y-37492326D01*
X109150790Y-37492326D02*
X109103171Y-37444707D01*
X109103171Y-37444707D02*
X109055552Y-37349469D01*
X109055552Y-37349469D02*
X109055552Y-37206612D01*
X109055552Y-37206612D02*
X109103171Y-37111374D01*
X109103171Y-37111374D02*
X109198409Y-37063755D01*
X109198409Y-37063755D02*
X109722219Y-37063755D01*
X109722219Y-36158993D02*
X108722219Y-36158993D01*
X109674600Y-36158993D02*
X109722219Y-36254231D01*
X109722219Y-36254231D02*
X109722219Y-36444707D01*
X109722219Y-36444707D02*
X109674600Y-36539945D01*
X109674600Y-36539945D02*
X109626980Y-36587564D01*
X109626980Y-36587564D02*
X109531742Y-36635183D01*
X109531742Y-36635183D02*
X109246028Y-36635183D01*
X109246028Y-36635183D02*
X109150790Y-36587564D01*
X109150790Y-36587564D02*
X109103171Y-36539945D01*
X109103171Y-36539945D02*
X109055552Y-36444707D01*
X109055552Y-36444707D02*
X109055552Y-36254231D01*
X109055552Y-36254231D02*
X109103171Y-36158993D01*
X176844028Y-55264279D02*
X175344028Y-55264279D01*
X175344028Y-55264279D02*
X175344028Y-54907136D01*
X175344028Y-54907136D02*
X175415457Y-54692850D01*
X175415457Y-54692850D02*
X175558314Y-54549993D01*
X175558314Y-54549993D02*
X175701171Y-54478564D01*
X175701171Y-54478564D02*
X175986885Y-54407136D01*
X175986885Y-54407136D02*
X176201171Y-54407136D01*
X176201171Y-54407136D02*
X176486885Y-54478564D01*
X176486885Y-54478564D02*
X176629742Y-54549993D01*
X176629742Y-54549993D02*
X176772600Y-54692850D01*
X176772600Y-54692850D02*
X176844028Y-54907136D01*
X176844028Y-54907136D02*
X176844028Y-55264279D01*
X176772600Y-53192850D02*
X176844028Y-53335707D01*
X176844028Y-53335707D02*
X176844028Y-53621422D01*
X176844028Y-53621422D02*
X176772600Y-53764279D01*
X176772600Y-53764279D02*
X176629742Y-53835707D01*
X176629742Y-53835707D02*
X176058314Y-53835707D01*
X176058314Y-53835707D02*
X175915457Y-53764279D01*
X175915457Y-53764279D02*
X175844028Y-53621422D01*
X175844028Y-53621422D02*
X175844028Y-53335707D01*
X175844028Y-53335707D02*
X175915457Y-53192850D01*
X175915457Y-53192850D02*
X176058314Y-53121422D01*
X176058314Y-53121422D02*
X176201171Y-53121422D01*
X176201171Y-53121422D02*
X176344028Y-53835707D01*
X176844028Y-52264279D02*
X176772600Y-52407136D01*
X176772600Y-52407136D02*
X176629742Y-52478565D01*
X176629742Y-52478565D02*
X175344028Y-52478565D01*
X176844028Y-51049994D02*
X176058314Y-51049994D01*
X176058314Y-51049994D02*
X175915457Y-51121422D01*
X175915457Y-51121422D02*
X175844028Y-51264279D01*
X175844028Y-51264279D02*
X175844028Y-51549994D01*
X175844028Y-51549994D02*
X175915457Y-51692851D01*
X176772600Y-51049994D02*
X176844028Y-51192851D01*
X176844028Y-51192851D02*
X176844028Y-51549994D01*
X176844028Y-51549994D02*
X176772600Y-51692851D01*
X176772600Y-51692851D02*
X176629742Y-51764279D01*
X176629742Y-51764279D02*
X176486885Y-51764279D01*
X176486885Y-51764279D02*
X176344028Y-51692851D01*
X176344028Y-51692851D02*
X176272600Y-51549994D01*
X176272600Y-51549994D02*
X176272600Y-51192851D01*
X176272600Y-51192851D02*
X176201171Y-51049994D01*
X175844028Y-50478565D02*
X176844028Y-50121422D01*
X175844028Y-49764279D02*
X176844028Y-50121422D01*
X176844028Y-50121422D02*
X177201171Y-50264279D01*
X177201171Y-50264279D02*
X177272600Y-50335708D01*
X177272600Y-50335708D02*
X177344028Y-50478565D01*
X165729266Y-43191326D02*
X165729266Y-42429422D01*
X166110219Y-42810374D02*
X165348314Y-42810374D01*
X165110219Y-41477041D02*
X165110219Y-41953231D01*
X165110219Y-41953231D02*
X165586409Y-42000850D01*
X165586409Y-42000850D02*
X165538790Y-41953231D01*
X165538790Y-41953231D02*
X165491171Y-41857993D01*
X165491171Y-41857993D02*
X165491171Y-41619898D01*
X165491171Y-41619898D02*
X165538790Y-41524660D01*
X165538790Y-41524660D02*
X165586409Y-41477041D01*
X165586409Y-41477041D02*
X165681647Y-41429422D01*
X165681647Y-41429422D02*
X165919742Y-41429422D01*
X165919742Y-41429422D02*
X166014980Y-41477041D01*
X166014980Y-41477041D02*
X166062600Y-41524660D01*
X166062600Y-41524660D02*
X166110219Y-41619898D01*
X166110219Y-41619898D02*
X166110219Y-41857993D01*
X166110219Y-41857993D02*
X166062600Y-41953231D01*
X166062600Y-41953231D02*
X166014980Y-42000850D01*
X165110219Y-41143707D02*
X166110219Y-40810374D01*
X166110219Y-40810374D02*
X165110219Y-40477041D01*
X166110219Y-40143707D02*
X165110219Y-40143707D01*
X165110219Y-40143707D02*
X165110219Y-39905612D01*
X165110219Y-39905612D02*
X165157838Y-39762755D01*
X165157838Y-39762755D02*
X165253076Y-39667517D01*
X165253076Y-39667517D02*
X165348314Y-39619898D01*
X165348314Y-39619898D02*
X165538790Y-39572279D01*
X165538790Y-39572279D02*
X165681647Y-39572279D01*
X165681647Y-39572279D02*
X165872123Y-39619898D01*
X165872123Y-39619898D02*
X165967361Y-39667517D01*
X165967361Y-39667517D02*
X166062600Y-39762755D01*
X166062600Y-39762755D02*
X166110219Y-39905612D01*
X166110219Y-39905612D02*
X166110219Y-40143707D01*
X144837838Y-42540517D02*
X144790219Y-42635755D01*
X144790219Y-42635755D02*
X144790219Y-42778612D01*
X144790219Y-42778612D02*
X144837838Y-42921469D01*
X144837838Y-42921469D02*
X144933076Y-43016707D01*
X144933076Y-43016707D02*
X145028314Y-43064326D01*
X145028314Y-43064326D02*
X145218790Y-43111945D01*
X145218790Y-43111945D02*
X145361647Y-43111945D01*
X145361647Y-43111945D02*
X145552123Y-43064326D01*
X145552123Y-43064326D02*
X145647361Y-43016707D01*
X145647361Y-43016707D02*
X145742600Y-42921469D01*
X145742600Y-42921469D02*
X145790219Y-42778612D01*
X145790219Y-42778612D02*
X145790219Y-42683374D01*
X145790219Y-42683374D02*
X145742600Y-42540517D01*
X145742600Y-42540517D02*
X145694980Y-42492898D01*
X145694980Y-42492898D02*
X145361647Y-42492898D01*
X145361647Y-42492898D02*
X145361647Y-42683374D01*
X145790219Y-42064326D02*
X144790219Y-42064326D01*
X144790219Y-42064326D02*
X145790219Y-41492898D01*
X145790219Y-41492898D02*
X144790219Y-41492898D01*
X145790219Y-41016707D02*
X144790219Y-41016707D01*
X144790219Y-41016707D02*
X144790219Y-40778612D01*
X144790219Y-40778612D02*
X144837838Y-40635755D01*
X144837838Y-40635755D02*
X144933076Y-40540517D01*
X144933076Y-40540517D02*
X145028314Y-40492898D01*
X145028314Y-40492898D02*
X145218790Y-40445279D01*
X145218790Y-40445279D02*
X145361647Y-40445279D01*
X145361647Y-40445279D02*
X145552123Y-40492898D01*
X145552123Y-40492898D02*
X145647361Y-40540517D01*
X145647361Y-40540517D02*
X145742600Y-40635755D01*
X145742600Y-40635755D02*
X145790219Y-40778612D01*
X145790219Y-40778612D02*
X145790219Y-41016707D01*
D11*
X140089143Y-39697819D02*
X140089143Y-38697819D01*
X140565333Y-39031152D02*
X140565333Y-39697819D01*
X140565333Y-39126390D02*
X140612952Y-39078771D01*
X140612952Y-39078771D02*
X140708190Y-39031152D01*
X140708190Y-39031152D02*
X140851047Y-39031152D01*
X140851047Y-39031152D02*
X140946285Y-39078771D01*
X140946285Y-39078771D02*
X140993904Y-39174009D01*
X140993904Y-39174009D02*
X140993904Y-39697819D01*
X141470095Y-39031152D02*
X141470095Y-40031152D01*
X141470095Y-39078771D02*
X141565333Y-39031152D01*
X141565333Y-39031152D02*
X141755809Y-39031152D01*
X141755809Y-39031152D02*
X141851047Y-39078771D01*
X141851047Y-39078771D02*
X141898666Y-39126390D01*
X141898666Y-39126390D02*
X141946285Y-39221628D01*
X141946285Y-39221628D02*
X141946285Y-39507342D01*
X141946285Y-39507342D02*
X141898666Y-39602580D01*
X141898666Y-39602580D02*
X141851047Y-39650200D01*
X141851047Y-39650200D02*
X141755809Y-39697819D01*
X141755809Y-39697819D02*
X141565333Y-39697819D01*
X141565333Y-39697819D02*
X141470095Y-39650200D01*
X142803428Y-39031152D02*
X142803428Y-39697819D01*
X142374857Y-39031152D02*
X142374857Y-39554961D01*
X142374857Y-39554961D02*
X142422476Y-39650200D01*
X142422476Y-39650200D02*
X142517714Y-39697819D01*
X142517714Y-39697819D02*
X142660571Y-39697819D01*
X142660571Y-39697819D02*
X142755809Y-39650200D01*
X142755809Y-39650200D02*
X142803428Y-39602580D01*
X143136762Y-39031152D02*
X143517714Y-39031152D01*
X143279619Y-38697819D02*
X143279619Y-39554961D01*
X143279619Y-39554961D02*
X143327238Y-39650200D01*
X143327238Y-39650200D02*
X143422476Y-39697819D01*
X143422476Y-39697819D02*
X143517714Y-39697819D01*
X151457819Y-76660189D02*
X150457819Y-76660189D01*
X151362580Y-75612571D02*
X151410200Y-75660190D01*
X151410200Y-75660190D02*
X151457819Y-75803047D01*
X151457819Y-75803047D02*
X151457819Y-75898285D01*
X151457819Y-75898285D02*
X151410200Y-76041142D01*
X151410200Y-76041142D02*
X151314961Y-76136380D01*
X151314961Y-76136380D02*
X151219723Y-76183999D01*
X151219723Y-76183999D02*
X151029247Y-76231618D01*
X151029247Y-76231618D02*
X150886390Y-76231618D01*
X150886390Y-76231618D02*
X150695914Y-76183999D01*
X150695914Y-76183999D02*
X150600676Y-76136380D01*
X150600676Y-76136380D02*
X150505438Y-76041142D01*
X150505438Y-76041142D02*
X150457819Y-75898285D01*
X150457819Y-75898285D02*
X150457819Y-75803047D01*
X150457819Y-75803047D02*
X150505438Y-75660190D01*
X150505438Y-75660190D02*
X150553057Y-75612571D01*
X151410200Y-75231618D02*
X151457819Y-75088761D01*
X151457819Y-75088761D02*
X151457819Y-74850666D01*
X151457819Y-74850666D02*
X151410200Y-74755428D01*
X151410200Y-74755428D02*
X151362580Y-74707809D01*
X151362580Y-74707809D02*
X151267342Y-74660190D01*
X151267342Y-74660190D02*
X151172104Y-74660190D01*
X151172104Y-74660190D02*
X151076866Y-74707809D01*
X151076866Y-74707809D02*
X151029247Y-74755428D01*
X151029247Y-74755428D02*
X150981628Y-74850666D01*
X150981628Y-74850666D02*
X150934009Y-75041142D01*
X150934009Y-75041142D02*
X150886390Y-75136380D01*
X150886390Y-75136380D02*
X150838771Y-75183999D01*
X150838771Y-75183999D02*
X150743533Y-75231618D01*
X150743533Y-75231618D02*
X150648295Y-75231618D01*
X150648295Y-75231618D02*
X150553057Y-75183999D01*
X150553057Y-75183999D02*
X150505438Y-75136380D01*
X150505438Y-75136380D02*
X150457819Y-75041142D01*
X150457819Y-75041142D02*
X150457819Y-74803047D01*
X150457819Y-74803047D02*
X150505438Y-74660190D01*
X151457819Y-74231618D02*
X150457819Y-74231618D01*
X150457819Y-74231618D02*
X150457819Y-73850666D01*
X150457819Y-73850666D02*
X150505438Y-73755428D01*
X150505438Y-73755428D02*
X150553057Y-73707809D01*
X150553057Y-73707809D02*
X150648295Y-73660190D01*
X150648295Y-73660190D02*
X150791152Y-73660190D01*
X150791152Y-73660190D02*
X150886390Y-73707809D01*
X150886390Y-73707809D02*
X150934009Y-73755428D01*
X150934009Y-73755428D02*
X150981628Y-73850666D01*
X150981628Y-73850666D02*
X150981628Y-74231618D01*
D10*
X106166266Y-78624326D02*
X106166266Y-77862422D01*
X105547219Y-76910041D02*
X105547219Y-77386231D01*
X105547219Y-77386231D02*
X106023409Y-77433850D01*
X106023409Y-77433850D02*
X105975790Y-77386231D01*
X105975790Y-77386231D02*
X105928171Y-77290993D01*
X105928171Y-77290993D02*
X105928171Y-77052898D01*
X105928171Y-77052898D02*
X105975790Y-76957660D01*
X105975790Y-76957660D02*
X106023409Y-76910041D01*
X106023409Y-76910041D02*
X106118647Y-76862422D01*
X106118647Y-76862422D02*
X106356742Y-76862422D01*
X106356742Y-76862422D02*
X106451980Y-76910041D01*
X106451980Y-76910041D02*
X106499600Y-76957660D01*
X106499600Y-76957660D02*
X106547219Y-77052898D01*
X106547219Y-77052898D02*
X106547219Y-77290993D01*
X106547219Y-77290993D02*
X106499600Y-77386231D01*
X106499600Y-77386231D02*
X106451980Y-77433850D01*
X105547219Y-76576707D02*
X106547219Y-76243374D01*
X106547219Y-76243374D02*
X105547219Y-75910041D01*
X106261504Y-75624326D02*
X106261504Y-75148136D01*
X106547219Y-75719564D02*
X105547219Y-75386231D01*
X105547219Y-75386231D02*
X106547219Y-75052898D01*
X147736275Y-42492898D02*
X147260084Y-42826231D01*
X147736275Y-43064326D02*
X146736275Y-43064326D01*
X146736275Y-43064326D02*
X146736275Y-42683374D01*
X146736275Y-42683374D02*
X146783894Y-42588136D01*
X146783894Y-42588136D02*
X146831513Y-42540517D01*
X146831513Y-42540517D02*
X146926751Y-42492898D01*
X146926751Y-42492898D02*
X147069608Y-42492898D01*
X147069608Y-42492898D02*
X147164846Y-42540517D01*
X147164846Y-42540517D02*
X147212465Y-42588136D01*
X147212465Y-42588136D02*
X147260084Y-42683374D01*
X147260084Y-42683374D02*
X147260084Y-43064326D01*
X147069608Y-42064326D02*
X147736275Y-42064326D01*
X147164846Y-42064326D02*
X147117227Y-42016707D01*
X147117227Y-42016707D02*
X147069608Y-41921469D01*
X147069608Y-41921469D02*
X147069608Y-41778612D01*
X147069608Y-41778612D02*
X147117227Y-41683374D01*
X147117227Y-41683374D02*
X147212465Y-41635755D01*
X147212465Y-41635755D02*
X147736275Y-41635755D01*
X147736275Y-40730993D02*
X146736275Y-40730993D01*
X147688656Y-40730993D02*
X147736275Y-40826231D01*
X147736275Y-40826231D02*
X147736275Y-41016707D01*
X147736275Y-41016707D02*
X147688656Y-41111945D01*
X147688656Y-41111945D02*
X147641036Y-41159564D01*
X147641036Y-41159564D02*
X147545798Y-41207183D01*
X147545798Y-41207183D02*
X147260084Y-41207183D01*
X147260084Y-41207183D02*
X147164846Y-41159564D01*
X147164846Y-41159564D02*
X147117227Y-41111945D01*
X147117227Y-41111945D02*
X147069608Y-41016707D01*
X147069608Y-41016707D02*
X147069608Y-40826231D01*
X147069608Y-40826231D02*
X147117227Y-40730993D01*
X149298600Y-43111945D02*
X149346219Y-42969088D01*
X149346219Y-42969088D02*
X149346219Y-42730993D01*
X149346219Y-42730993D02*
X149298600Y-42635755D01*
X149298600Y-42635755D02*
X149250980Y-42588136D01*
X149250980Y-42588136D02*
X149155742Y-42540517D01*
X149155742Y-42540517D02*
X149060504Y-42540517D01*
X149060504Y-42540517D02*
X148965266Y-42588136D01*
X148965266Y-42588136D02*
X148917647Y-42635755D01*
X148917647Y-42635755D02*
X148870028Y-42730993D01*
X148870028Y-42730993D02*
X148822409Y-42921469D01*
X148822409Y-42921469D02*
X148774790Y-43016707D01*
X148774790Y-43016707D02*
X148727171Y-43064326D01*
X148727171Y-43064326D02*
X148631933Y-43111945D01*
X148631933Y-43111945D02*
X148536695Y-43111945D01*
X148536695Y-43111945D02*
X148441457Y-43064326D01*
X148441457Y-43064326D02*
X148393838Y-43016707D01*
X148393838Y-43016707D02*
X148346219Y-42921469D01*
X148346219Y-42921469D02*
X148346219Y-42683374D01*
X148346219Y-42683374D02*
X148393838Y-42540517D01*
X149298600Y-41730993D02*
X149346219Y-41826231D01*
X149346219Y-41826231D02*
X149346219Y-42016707D01*
X149346219Y-42016707D02*
X149298600Y-42111945D01*
X149298600Y-42111945D02*
X149203361Y-42159564D01*
X149203361Y-42159564D02*
X148822409Y-42159564D01*
X148822409Y-42159564D02*
X148727171Y-42111945D01*
X148727171Y-42111945D02*
X148679552Y-42016707D01*
X148679552Y-42016707D02*
X148679552Y-41826231D01*
X148679552Y-41826231D02*
X148727171Y-41730993D01*
X148727171Y-41730993D02*
X148822409Y-41683374D01*
X148822409Y-41683374D02*
X148917647Y-41683374D01*
X148917647Y-41683374D02*
X149012885Y-42159564D01*
X149298600Y-40873850D02*
X149346219Y-40969088D01*
X149346219Y-40969088D02*
X149346219Y-41159564D01*
X149346219Y-41159564D02*
X149298600Y-41254802D01*
X149298600Y-41254802D02*
X149203361Y-41302421D01*
X149203361Y-41302421D02*
X148822409Y-41302421D01*
X148822409Y-41302421D02*
X148727171Y-41254802D01*
X148727171Y-41254802D02*
X148679552Y-41159564D01*
X148679552Y-41159564D02*
X148679552Y-40969088D01*
X148679552Y-40969088D02*
X148727171Y-40873850D01*
X148727171Y-40873850D02*
X148822409Y-40826231D01*
X148822409Y-40826231D02*
X148917647Y-40826231D01*
X148917647Y-40826231D02*
X149012885Y-41302421D01*
X149346219Y-39969088D02*
X148346219Y-39969088D01*
X149298600Y-39969088D02*
X149346219Y-40064326D01*
X149346219Y-40064326D02*
X149346219Y-40254802D01*
X149346219Y-40254802D02*
X149298600Y-40350040D01*
X149298600Y-40350040D02*
X149250980Y-40397659D01*
X149250980Y-40397659D02*
X149155742Y-40445278D01*
X149155742Y-40445278D02*
X148870028Y-40445278D01*
X148870028Y-40445278D02*
X148774790Y-40397659D01*
X148774790Y-40397659D02*
X148727171Y-40350040D01*
X148727171Y-40350040D02*
X148679552Y-40254802D01*
X148679552Y-40254802D02*
X148679552Y-40064326D01*
X148679552Y-40064326D02*
X148727171Y-39969088D01*
D11*
X136099684Y-71418533D02*
X136099684Y-71370914D01*
X136052064Y-71513771D02*
X136052064Y-71370914D01*
X136004445Y-71609009D02*
X136004445Y-71370914D01*
X135956826Y-71704247D02*
X135956826Y-71370914D01*
X135909207Y-71751866D02*
X135909207Y-71370914D01*
X135861588Y-71847104D02*
X135861588Y-71370914D01*
X135813969Y-71942342D02*
X135813969Y-71370914D01*
X135766350Y-72037580D02*
X135766350Y-71370914D01*
X135718731Y-72132819D02*
X135718731Y-71370914D01*
X135671112Y-72037580D02*
X135671112Y-71370914D01*
X135623493Y-71942342D02*
X135623493Y-71370914D01*
X135575874Y-71847104D02*
X135575874Y-71370914D01*
X135528255Y-71751866D02*
X135528255Y-71370914D01*
X135480636Y-71704247D02*
X135480636Y-71370914D01*
X135433017Y-71609009D02*
X135433017Y-71370914D01*
X135385398Y-71513771D02*
X135385398Y-71370914D01*
X135337779Y-71370914D02*
X135718731Y-72085200D01*
X135718731Y-72085200D02*
X136099684Y-71370914D01*
X135337779Y-71418533D02*
X135337779Y-71370914D01*
X135718731Y-72132819D02*
X135290160Y-71370914D01*
X135290160Y-71370914D02*
X136147303Y-71370914D01*
X136147303Y-71370914D02*
X135718731Y-72132819D01*
X117945819Y-43806809D02*
X117945819Y-43616333D01*
X117945819Y-43616333D02*
X117993438Y-43521095D01*
X117993438Y-43521095D02*
X118088676Y-43425857D01*
X118088676Y-43425857D02*
X118279152Y-43378238D01*
X118279152Y-43378238D02*
X118612485Y-43378238D01*
X118612485Y-43378238D02*
X118802961Y-43425857D01*
X118802961Y-43425857D02*
X118898200Y-43521095D01*
X118898200Y-43521095D02*
X118945819Y-43616333D01*
X118945819Y-43616333D02*
X118945819Y-43806809D01*
X118945819Y-43806809D02*
X118898200Y-43902047D01*
X118898200Y-43902047D02*
X118802961Y-43997285D01*
X118802961Y-43997285D02*
X118612485Y-44044904D01*
X118612485Y-44044904D02*
X118279152Y-44044904D01*
X118279152Y-44044904D02*
X118088676Y-43997285D01*
X118088676Y-43997285D02*
X117993438Y-43902047D01*
X117993438Y-43902047D02*
X117945819Y-43806809D01*
X118279152Y-42521095D02*
X118945819Y-42521095D01*
X118279152Y-42949666D02*
X118802961Y-42949666D01*
X118802961Y-42949666D02*
X118898200Y-42902047D01*
X118898200Y-42902047D02*
X118945819Y-42806809D01*
X118945819Y-42806809D02*
X118945819Y-42663952D01*
X118945819Y-42663952D02*
X118898200Y-42568714D01*
X118898200Y-42568714D02*
X118850580Y-42521095D01*
X118279152Y-42187761D02*
X118279152Y-41806809D01*
X117945819Y-42044904D02*
X118802961Y-42044904D01*
X118802961Y-42044904D02*
X118898200Y-41997285D01*
X118898200Y-41997285D02*
X118945819Y-41902047D01*
X118945819Y-41902047D02*
X118945819Y-41806809D01*
X118279152Y-41473475D02*
X119279152Y-41473475D01*
X118326771Y-41473475D02*
X118279152Y-41378237D01*
X118279152Y-41378237D02*
X118279152Y-41187761D01*
X118279152Y-41187761D02*
X118326771Y-41092523D01*
X118326771Y-41092523D02*
X118374390Y-41044904D01*
X118374390Y-41044904D02*
X118469628Y-40997285D01*
X118469628Y-40997285D02*
X118755342Y-40997285D01*
X118755342Y-40997285D02*
X118850580Y-41044904D01*
X118850580Y-41044904D02*
X118898200Y-41092523D01*
X118898200Y-41092523D02*
X118945819Y-41187761D01*
X118945819Y-41187761D02*
X118945819Y-41378237D01*
X118945819Y-41378237D02*
X118898200Y-41473475D01*
X118279152Y-40140142D02*
X118945819Y-40140142D01*
X118279152Y-40568713D02*
X118802961Y-40568713D01*
X118802961Y-40568713D02*
X118898200Y-40521094D01*
X118898200Y-40521094D02*
X118945819Y-40425856D01*
X118945819Y-40425856D02*
X118945819Y-40282999D01*
X118945819Y-40282999D02*
X118898200Y-40187761D01*
X118898200Y-40187761D02*
X118850580Y-40140142D01*
X118279152Y-39806808D02*
X118279152Y-39425856D01*
X117945819Y-39663951D02*
X118802961Y-39663951D01*
X118802961Y-39663951D02*
X118898200Y-39616332D01*
X118898200Y-39616332D02*
X118945819Y-39521094D01*
X118945819Y-39521094D02*
X118945819Y-39425856D01*
D10*
X100959266Y-78624326D02*
X100959266Y-77862422D01*
X101340219Y-78243374D02*
X100578314Y-78243374D01*
X101340219Y-76862422D02*
X101340219Y-77433850D01*
X101340219Y-77148136D02*
X100340219Y-77148136D01*
X100340219Y-77148136D02*
X100483076Y-77243374D01*
X100483076Y-77243374D02*
X100578314Y-77338612D01*
X100578314Y-77338612D02*
X100625933Y-77433850D01*
X100435457Y-76481469D02*
X100387838Y-76433850D01*
X100387838Y-76433850D02*
X100340219Y-76338612D01*
X100340219Y-76338612D02*
X100340219Y-76100517D01*
X100340219Y-76100517D02*
X100387838Y-76005279D01*
X100387838Y-76005279D02*
X100435457Y-75957660D01*
X100435457Y-75957660D02*
X100530695Y-75910041D01*
X100530695Y-75910041D02*
X100625933Y-75910041D01*
X100625933Y-75910041D02*
X100768790Y-75957660D01*
X100768790Y-75957660D02*
X101340219Y-76529088D01*
X101340219Y-76529088D02*
X101340219Y-75910041D01*
X100340219Y-75624326D02*
X101340219Y-75290993D01*
X101340219Y-75290993D02*
X100340219Y-74957660D01*
X101054504Y-74671945D02*
X101054504Y-74195755D01*
X101340219Y-74767183D02*
X100340219Y-74433850D01*
X100340219Y-74433850D02*
X101340219Y-74100517D01*
X167570838Y-41651517D02*
X167523219Y-41746755D01*
X167523219Y-41746755D02*
X167523219Y-41889612D01*
X167523219Y-41889612D02*
X167570838Y-42032469D01*
X167570838Y-42032469D02*
X167666076Y-42127707D01*
X167666076Y-42127707D02*
X167761314Y-42175326D01*
X167761314Y-42175326D02*
X167951790Y-42222945D01*
X167951790Y-42222945D02*
X168094647Y-42222945D01*
X168094647Y-42222945D02*
X168285123Y-42175326D01*
X168285123Y-42175326D02*
X168380361Y-42127707D01*
X168380361Y-42127707D02*
X168475600Y-42032469D01*
X168475600Y-42032469D02*
X168523219Y-41889612D01*
X168523219Y-41889612D02*
X168523219Y-41794374D01*
X168523219Y-41794374D02*
X168475600Y-41651517D01*
X168475600Y-41651517D02*
X168427980Y-41603898D01*
X168427980Y-41603898D02*
X168094647Y-41603898D01*
X168094647Y-41603898D02*
X168094647Y-41794374D01*
X168523219Y-41175326D02*
X167523219Y-41175326D01*
X167523219Y-41175326D02*
X168523219Y-40603898D01*
X168523219Y-40603898D02*
X167523219Y-40603898D01*
X168523219Y-40127707D02*
X167523219Y-40127707D01*
X167523219Y-40127707D02*
X167523219Y-39889612D01*
X167523219Y-39889612D02*
X167570838Y-39746755D01*
X167570838Y-39746755D02*
X167666076Y-39651517D01*
X167666076Y-39651517D02*
X167761314Y-39603898D01*
X167761314Y-39603898D02*
X167951790Y-39556279D01*
X167951790Y-39556279D02*
X168094647Y-39556279D01*
X168094647Y-39556279D02*
X168285123Y-39603898D01*
X168285123Y-39603898D02*
X168380361Y-39651517D01*
X168380361Y-39651517D02*
X168475600Y-39746755D01*
X168475600Y-39746755D02*
X168523219Y-39889612D01*
X168523219Y-39889612D02*
X168523219Y-40127707D01*
X102181600Y-38539945D02*
X102229219Y-38397088D01*
X102229219Y-38397088D02*
X102229219Y-38158993D01*
X102229219Y-38158993D02*
X102181600Y-38063755D01*
X102181600Y-38063755D02*
X102133980Y-38016136D01*
X102133980Y-38016136D02*
X102038742Y-37968517D01*
X102038742Y-37968517D02*
X101943504Y-37968517D01*
X101943504Y-37968517D02*
X101848266Y-38016136D01*
X101848266Y-38016136D02*
X101800647Y-38063755D01*
X101800647Y-38063755D02*
X101753028Y-38158993D01*
X101753028Y-38158993D02*
X101705409Y-38349469D01*
X101705409Y-38349469D02*
X101657790Y-38444707D01*
X101657790Y-38444707D02*
X101610171Y-38492326D01*
X101610171Y-38492326D02*
X101514933Y-38539945D01*
X101514933Y-38539945D02*
X101419695Y-38539945D01*
X101419695Y-38539945D02*
X101324457Y-38492326D01*
X101324457Y-38492326D02*
X101276838Y-38444707D01*
X101276838Y-38444707D02*
X101229219Y-38349469D01*
X101229219Y-38349469D02*
X101229219Y-38111374D01*
X101229219Y-38111374D02*
X101276838Y-37968517D01*
X102229219Y-37539945D02*
X101562552Y-37539945D01*
X101229219Y-37539945D02*
X101276838Y-37587564D01*
X101276838Y-37587564D02*
X101324457Y-37539945D01*
X101324457Y-37539945D02*
X101276838Y-37492326D01*
X101276838Y-37492326D02*
X101229219Y-37539945D01*
X101229219Y-37539945D02*
X101324457Y-37539945D01*
X101562552Y-37063755D02*
X102229219Y-37063755D01*
X101657790Y-37063755D02*
X101610171Y-37016136D01*
X101610171Y-37016136D02*
X101562552Y-36920898D01*
X101562552Y-36920898D02*
X101562552Y-36778041D01*
X101562552Y-36778041D02*
X101610171Y-36682803D01*
X101610171Y-36682803D02*
X101705409Y-36635184D01*
X101705409Y-36635184D02*
X102229219Y-36635184D01*
X102181600Y-35778041D02*
X102229219Y-35873279D01*
X102229219Y-35873279D02*
X102229219Y-36063755D01*
X102229219Y-36063755D02*
X102181600Y-36158993D01*
X102181600Y-36158993D02*
X102086361Y-36206612D01*
X102086361Y-36206612D02*
X101705409Y-36206612D01*
X101705409Y-36206612D02*
X101610171Y-36158993D01*
X101610171Y-36158993D02*
X101562552Y-36063755D01*
X101562552Y-36063755D02*
X101562552Y-35873279D01*
X101562552Y-35873279D02*
X101610171Y-35778041D01*
X101610171Y-35778041D02*
X101705409Y-35730422D01*
X101705409Y-35730422D02*
X101800647Y-35730422D01*
X101800647Y-35730422D02*
X101895885Y-36206612D01*
X107261600Y-38539945D02*
X107309219Y-38397088D01*
X107309219Y-38397088D02*
X107309219Y-38158993D01*
X107309219Y-38158993D02*
X107261600Y-38063755D01*
X107261600Y-38063755D02*
X107213980Y-38016136D01*
X107213980Y-38016136D02*
X107118742Y-37968517D01*
X107118742Y-37968517D02*
X107023504Y-37968517D01*
X107023504Y-37968517D02*
X106928266Y-38016136D01*
X106928266Y-38016136D02*
X106880647Y-38063755D01*
X106880647Y-38063755D02*
X106833028Y-38158993D01*
X106833028Y-38158993D02*
X106785409Y-38349469D01*
X106785409Y-38349469D02*
X106737790Y-38444707D01*
X106737790Y-38444707D02*
X106690171Y-38492326D01*
X106690171Y-38492326D02*
X106594933Y-38539945D01*
X106594933Y-38539945D02*
X106499695Y-38539945D01*
X106499695Y-38539945D02*
X106404457Y-38492326D01*
X106404457Y-38492326D02*
X106356838Y-38444707D01*
X106356838Y-38444707D02*
X106309219Y-38349469D01*
X106309219Y-38349469D02*
X106309219Y-38111374D01*
X106309219Y-38111374D02*
X106356838Y-37968517D01*
X106642552Y-37111374D02*
X107642552Y-37111374D01*
X107261600Y-37111374D02*
X107309219Y-37206612D01*
X107309219Y-37206612D02*
X107309219Y-37397088D01*
X107309219Y-37397088D02*
X107261600Y-37492326D01*
X107261600Y-37492326D02*
X107213980Y-37539945D01*
X107213980Y-37539945D02*
X107118742Y-37587564D01*
X107118742Y-37587564D02*
X106833028Y-37587564D01*
X106833028Y-37587564D02*
X106737790Y-37539945D01*
X106737790Y-37539945D02*
X106690171Y-37492326D01*
X106690171Y-37492326D02*
X106642552Y-37397088D01*
X106642552Y-37397088D02*
X106642552Y-37206612D01*
X106642552Y-37206612D02*
X106690171Y-37111374D01*
X106642552Y-36206612D02*
X107309219Y-36206612D01*
X106642552Y-36635183D02*
X107166361Y-36635183D01*
X107166361Y-36635183D02*
X107261600Y-36587564D01*
X107261600Y-36587564D02*
X107309219Y-36492326D01*
X107309219Y-36492326D02*
X107309219Y-36349469D01*
X107309219Y-36349469D02*
X107261600Y-36254231D01*
X107261600Y-36254231D02*
X107213980Y-36206612D01*
X113214838Y-77465517D02*
X113167219Y-77560755D01*
X113167219Y-77560755D02*
X113167219Y-77703612D01*
X113167219Y-77703612D02*
X113214838Y-77846469D01*
X113214838Y-77846469D02*
X113310076Y-77941707D01*
X113310076Y-77941707D02*
X113405314Y-77989326D01*
X113405314Y-77989326D02*
X113595790Y-78036945D01*
X113595790Y-78036945D02*
X113738647Y-78036945D01*
X113738647Y-78036945D02*
X113929123Y-77989326D01*
X113929123Y-77989326D02*
X114024361Y-77941707D01*
X114024361Y-77941707D02*
X114119600Y-77846469D01*
X114119600Y-77846469D02*
X114167219Y-77703612D01*
X114167219Y-77703612D02*
X114167219Y-77608374D01*
X114167219Y-77608374D02*
X114119600Y-77465517D01*
X114119600Y-77465517D02*
X114071980Y-77417898D01*
X114071980Y-77417898D02*
X113738647Y-77417898D01*
X113738647Y-77417898D02*
X113738647Y-77608374D01*
X114167219Y-76989326D02*
X113167219Y-76989326D01*
X113167219Y-76989326D02*
X114167219Y-76417898D01*
X114167219Y-76417898D02*
X113167219Y-76417898D01*
X114167219Y-75941707D02*
X113167219Y-75941707D01*
X113167219Y-75941707D02*
X113167219Y-75703612D01*
X113167219Y-75703612D02*
X113214838Y-75560755D01*
X113214838Y-75560755D02*
X113310076Y-75465517D01*
X113310076Y-75465517D02*
X113405314Y-75417898D01*
X113405314Y-75417898D02*
X113595790Y-75370279D01*
X113595790Y-75370279D02*
X113738647Y-75370279D01*
X113738647Y-75370279D02*
X113929123Y-75417898D01*
X113929123Y-75417898D02*
X114024361Y-75465517D01*
X114024361Y-75465517D02*
X114119600Y-75560755D01*
X114119600Y-75560755D02*
X114167219Y-75703612D01*
X114167219Y-75703612D02*
X114167219Y-75941707D01*
X113881504Y-74989326D02*
X113881504Y-74513136D01*
X114167219Y-75084564D02*
X113167219Y-74751231D01*
X113167219Y-74751231D02*
X114167219Y-74417898D01*
X108706266Y-78624326D02*
X108706266Y-77862422D01*
X109087219Y-76862422D02*
X109087219Y-77433850D01*
X109087219Y-77148136D02*
X108087219Y-77148136D01*
X108087219Y-77148136D02*
X108230076Y-77243374D01*
X108230076Y-77243374D02*
X108325314Y-77338612D01*
X108325314Y-77338612D02*
X108372933Y-77433850D01*
X108182457Y-76481469D02*
X108134838Y-76433850D01*
X108134838Y-76433850D02*
X108087219Y-76338612D01*
X108087219Y-76338612D02*
X108087219Y-76100517D01*
X108087219Y-76100517D02*
X108134838Y-76005279D01*
X108134838Y-76005279D02*
X108182457Y-75957660D01*
X108182457Y-75957660D02*
X108277695Y-75910041D01*
X108277695Y-75910041D02*
X108372933Y-75910041D01*
X108372933Y-75910041D02*
X108515790Y-75957660D01*
X108515790Y-75957660D02*
X109087219Y-76529088D01*
X109087219Y-76529088D02*
X109087219Y-75910041D01*
X108087219Y-75624326D02*
X109087219Y-75290993D01*
X109087219Y-75290993D02*
X108087219Y-74957660D01*
X108801504Y-74671945D02*
X108801504Y-74195755D01*
X109087219Y-74767183D02*
X108087219Y-74433850D01*
X108087219Y-74433850D02*
X109087219Y-74100517D01*
X150552838Y-42540517D02*
X150505219Y-42635755D01*
X150505219Y-42635755D02*
X150505219Y-42778612D01*
X150505219Y-42778612D02*
X150552838Y-42921469D01*
X150552838Y-42921469D02*
X150648076Y-43016707D01*
X150648076Y-43016707D02*
X150743314Y-43064326D01*
X150743314Y-43064326D02*
X150933790Y-43111945D01*
X150933790Y-43111945D02*
X151076647Y-43111945D01*
X151076647Y-43111945D02*
X151267123Y-43064326D01*
X151267123Y-43064326D02*
X151362361Y-43016707D01*
X151362361Y-43016707D02*
X151457600Y-42921469D01*
X151457600Y-42921469D02*
X151505219Y-42778612D01*
X151505219Y-42778612D02*
X151505219Y-42683374D01*
X151505219Y-42683374D02*
X151457600Y-42540517D01*
X151457600Y-42540517D02*
X151409980Y-42492898D01*
X151409980Y-42492898D02*
X151076647Y-42492898D01*
X151076647Y-42492898D02*
X151076647Y-42683374D01*
X151505219Y-41635755D02*
X150981409Y-41635755D01*
X150981409Y-41635755D02*
X150886171Y-41683374D01*
X150886171Y-41683374D02*
X150838552Y-41778612D01*
X150838552Y-41778612D02*
X150838552Y-41969088D01*
X150838552Y-41969088D02*
X150886171Y-42064326D01*
X151457600Y-41635755D02*
X151505219Y-41730993D01*
X151505219Y-41730993D02*
X151505219Y-41969088D01*
X151505219Y-41969088D02*
X151457600Y-42064326D01*
X151457600Y-42064326D02*
X151362361Y-42111945D01*
X151362361Y-42111945D02*
X151267123Y-42111945D01*
X151267123Y-42111945D02*
X151171885Y-42064326D01*
X151171885Y-42064326D02*
X151124266Y-41969088D01*
X151124266Y-41969088D02*
X151124266Y-41730993D01*
X151124266Y-41730993D02*
X151076647Y-41635755D01*
X150838552Y-41302421D02*
X150838552Y-40921469D01*
X150505219Y-41159564D02*
X151362361Y-41159564D01*
X151362361Y-41159564D02*
X151457600Y-41111945D01*
X151457600Y-41111945D02*
X151505219Y-41016707D01*
X151505219Y-41016707D02*
X151505219Y-40921469D01*
X151457600Y-40207183D02*
X151505219Y-40302421D01*
X151505219Y-40302421D02*
X151505219Y-40492897D01*
X151505219Y-40492897D02*
X151457600Y-40588135D01*
X151457600Y-40588135D02*
X151362361Y-40635754D01*
X151362361Y-40635754D02*
X150981409Y-40635754D01*
X150981409Y-40635754D02*
X150886171Y-40588135D01*
X150886171Y-40588135D02*
X150838552Y-40492897D01*
X150838552Y-40492897D02*
X150838552Y-40302421D01*
X150838552Y-40302421D02*
X150886171Y-40207183D01*
X150886171Y-40207183D02*
X150981409Y-40159564D01*
X150981409Y-40159564D02*
X151076647Y-40159564D01*
X151076647Y-40159564D02*
X151171885Y-40635754D01*
X176844028Y-68504136D02*
X176129742Y-69004136D01*
X176844028Y-69361279D02*
X175344028Y-69361279D01*
X175344028Y-69361279D02*
X175344028Y-68789850D01*
X175344028Y-68789850D02*
X175415457Y-68646993D01*
X175415457Y-68646993D02*
X175486885Y-68575564D01*
X175486885Y-68575564D02*
X175629742Y-68504136D01*
X175629742Y-68504136D02*
X175844028Y-68504136D01*
X175844028Y-68504136D02*
X175986885Y-68575564D01*
X175986885Y-68575564D02*
X176058314Y-68646993D01*
X176058314Y-68646993D02*
X176129742Y-68789850D01*
X176129742Y-68789850D02*
X176129742Y-69361279D01*
X176844028Y-67218422D02*
X176058314Y-67218422D01*
X176058314Y-67218422D02*
X175915457Y-67289850D01*
X175915457Y-67289850D02*
X175844028Y-67432707D01*
X175844028Y-67432707D02*
X175844028Y-67718422D01*
X175844028Y-67718422D02*
X175915457Y-67861279D01*
X176772600Y-67218422D02*
X176844028Y-67361279D01*
X176844028Y-67361279D02*
X176844028Y-67718422D01*
X176844028Y-67718422D02*
X176772600Y-67861279D01*
X176772600Y-67861279D02*
X176629742Y-67932707D01*
X176629742Y-67932707D02*
X176486885Y-67932707D01*
X176486885Y-67932707D02*
X176344028Y-67861279D01*
X176344028Y-67861279D02*
X176272600Y-67718422D01*
X176272600Y-67718422D02*
X176272600Y-67361279D01*
X176272600Y-67361279D02*
X176201171Y-67218422D01*
X175844028Y-66718421D02*
X175844028Y-66146993D01*
X175344028Y-66504136D02*
X176629742Y-66504136D01*
X176629742Y-66504136D02*
X176772600Y-66432707D01*
X176772600Y-66432707D02*
X176844028Y-66289850D01*
X176844028Y-66289850D02*
X176844028Y-66146993D01*
X176772600Y-65075564D02*
X176844028Y-65218421D01*
X176844028Y-65218421D02*
X176844028Y-65504136D01*
X176844028Y-65504136D02*
X176772600Y-65646993D01*
X176772600Y-65646993D02*
X176629742Y-65718421D01*
X176629742Y-65718421D02*
X176058314Y-65718421D01*
X176058314Y-65718421D02*
X175915457Y-65646993D01*
X175915457Y-65646993D02*
X175844028Y-65504136D01*
X175844028Y-65504136D02*
X175844028Y-65218421D01*
X175844028Y-65218421D02*
X175915457Y-65075564D01*
X175915457Y-65075564D02*
X176058314Y-65004136D01*
X176058314Y-65004136D02*
X176201171Y-65004136D01*
X176201171Y-65004136D02*
X176344028Y-65718421D01*
D11*
X122233333Y-68949580D02*
X122185714Y-68997200D01*
X122185714Y-68997200D02*
X122042857Y-69044819D01*
X122042857Y-69044819D02*
X121947619Y-69044819D01*
X121947619Y-69044819D02*
X121804762Y-68997200D01*
X121804762Y-68997200D02*
X121709524Y-68901961D01*
X121709524Y-68901961D02*
X121661905Y-68806723D01*
X121661905Y-68806723D02*
X121614286Y-68616247D01*
X121614286Y-68616247D02*
X121614286Y-68473390D01*
X121614286Y-68473390D02*
X121661905Y-68282914D01*
X121661905Y-68282914D02*
X121709524Y-68187676D01*
X121709524Y-68187676D02*
X121804762Y-68092438D01*
X121804762Y-68092438D02*
X121947619Y-68044819D01*
X121947619Y-68044819D02*
X122042857Y-68044819D01*
X122042857Y-68044819D02*
X122185714Y-68092438D01*
X122185714Y-68092438D02*
X122233333Y-68140057D01*
X122566667Y-68044819D02*
X123185714Y-68044819D01*
X123185714Y-68044819D02*
X122852381Y-68425771D01*
X122852381Y-68425771D02*
X122995238Y-68425771D01*
X122995238Y-68425771D02*
X123090476Y-68473390D01*
X123090476Y-68473390D02*
X123138095Y-68521009D01*
X123138095Y-68521009D02*
X123185714Y-68616247D01*
X123185714Y-68616247D02*
X123185714Y-68854342D01*
X123185714Y-68854342D02*
X123138095Y-68949580D01*
X123138095Y-68949580D02*
X123090476Y-68997200D01*
X123090476Y-68997200D02*
X122995238Y-69044819D01*
X122995238Y-69044819D02*
X122709524Y-69044819D01*
X122709524Y-69044819D02*
X122614286Y-68997200D01*
X122614286Y-68997200D02*
X122566667Y-68949580D01*
X119355333Y-61563580D02*
X119307714Y-61611200D01*
X119307714Y-61611200D02*
X119164857Y-61658819D01*
X119164857Y-61658819D02*
X119069619Y-61658819D01*
X119069619Y-61658819D02*
X118926762Y-61611200D01*
X118926762Y-61611200D02*
X118831524Y-61515961D01*
X118831524Y-61515961D02*
X118783905Y-61420723D01*
X118783905Y-61420723D02*
X118736286Y-61230247D01*
X118736286Y-61230247D02*
X118736286Y-61087390D01*
X118736286Y-61087390D02*
X118783905Y-60896914D01*
X118783905Y-60896914D02*
X118831524Y-60801676D01*
X118831524Y-60801676D02*
X118926762Y-60706438D01*
X118926762Y-60706438D02*
X119069619Y-60658819D01*
X119069619Y-60658819D02*
X119164857Y-60658819D01*
X119164857Y-60658819D02*
X119307714Y-60706438D01*
X119307714Y-60706438D02*
X119355333Y-60754057D01*
X119831524Y-61658819D02*
X120022000Y-61658819D01*
X120022000Y-61658819D02*
X120117238Y-61611200D01*
X120117238Y-61611200D02*
X120164857Y-61563580D01*
X120164857Y-61563580D02*
X120260095Y-61420723D01*
X120260095Y-61420723D02*
X120307714Y-61230247D01*
X120307714Y-61230247D02*
X120307714Y-60849295D01*
X120307714Y-60849295D02*
X120260095Y-60754057D01*
X120260095Y-60754057D02*
X120212476Y-60706438D01*
X120212476Y-60706438D02*
X120117238Y-60658819D01*
X120117238Y-60658819D02*
X119926762Y-60658819D01*
X119926762Y-60658819D02*
X119831524Y-60706438D01*
X119831524Y-60706438D02*
X119783905Y-60754057D01*
X119783905Y-60754057D02*
X119736286Y-60849295D01*
X119736286Y-60849295D02*
X119736286Y-61087390D01*
X119736286Y-61087390D02*
X119783905Y-61182628D01*
X119783905Y-61182628D02*
X119831524Y-61230247D01*
X119831524Y-61230247D02*
X119926762Y-61277866D01*
X119926762Y-61277866D02*
X120117238Y-61277866D01*
X120117238Y-61277866D02*
X120212476Y-61230247D01*
X120212476Y-61230247D02*
X120260095Y-61182628D01*
X120260095Y-61182628D02*
X120307714Y-61087390D01*
X94844333Y-56451819D02*
X94511000Y-55975628D01*
X94272905Y-56451819D02*
X94272905Y-55451819D01*
X94272905Y-55451819D02*
X94653857Y-55451819D01*
X94653857Y-55451819D02*
X94749095Y-55499438D01*
X94749095Y-55499438D02*
X94796714Y-55547057D01*
X94796714Y-55547057D02*
X94844333Y-55642295D01*
X94844333Y-55642295D02*
X94844333Y-55785152D01*
X94844333Y-55785152D02*
X94796714Y-55880390D01*
X94796714Y-55880390D02*
X94749095Y-55928009D01*
X94749095Y-55928009D02*
X94653857Y-55975628D01*
X94653857Y-55975628D02*
X94272905Y-55975628D01*
X95749095Y-55451819D02*
X95272905Y-55451819D01*
X95272905Y-55451819D02*
X95225286Y-55928009D01*
X95225286Y-55928009D02*
X95272905Y-55880390D01*
X95272905Y-55880390D02*
X95368143Y-55832771D01*
X95368143Y-55832771D02*
X95606238Y-55832771D01*
X95606238Y-55832771D02*
X95701476Y-55880390D01*
X95701476Y-55880390D02*
X95749095Y-55928009D01*
X95749095Y-55928009D02*
X95796714Y-56023247D01*
X95796714Y-56023247D02*
X95796714Y-56261342D01*
X95796714Y-56261342D02*
X95749095Y-56356580D01*
X95749095Y-56356580D02*
X95701476Y-56404200D01*
X95701476Y-56404200D02*
X95606238Y-56451819D01*
X95606238Y-56451819D02*
X95368143Y-56451819D01*
X95368143Y-56451819D02*
X95272905Y-56404200D01*
X95272905Y-56404200D02*
X95225286Y-56356580D01*
X141466666Y-37112319D02*
X141466666Y-37826604D01*
X141466666Y-37826604D02*
X141419047Y-37969461D01*
X141419047Y-37969461D02*
X141323809Y-38064700D01*
X141323809Y-38064700D02*
X141180952Y-38112319D01*
X141180952Y-38112319D02*
X141085714Y-38112319D01*
X141847619Y-37112319D02*
X142466666Y-37112319D01*
X142466666Y-37112319D02*
X142133333Y-37493271D01*
X142133333Y-37493271D02*
X142276190Y-37493271D01*
X142276190Y-37493271D02*
X142371428Y-37540890D01*
X142371428Y-37540890D02*
X142419047Y-37588509D01*
X142419047Y-37588509D02*
X142466666Y-37683747D01*
X142466666Y-37683747D02*
X142466666Y-37921842D01*
X142466666Y-37921842D02*
X142419047Y-38017080D01*
X142419047Y-38017080D02*
X142371428Y-38064700D01*
X142371428Y-38064700D02*
X142276190Y-38112319D01*
X142276190Y-38112319D02*
X141990476Y-38112319D01*
X141990476Y-38112319D02*
X141895238Y-38064700D01*
X141895238Y-38064700D02*
X141847619Y-38017080D01*
X98089819Y-72850333D02*
X98804104Y-72850333D01*
X98804104Y-72850333D02*
X98946961Y-72897952D01*
X98946961Y-72897952D02*
X99042200Y-72993190D01*
X99042200Y-72993190D02*
X99089819Y-73136047D01*
X99089819Y-73136047D02*
X99089819Y-73231285D01*
X98089819Y-71897952D02*
X98089819Y-72374142D01*
X98089819Y-72374142D02*
X98566009Y-72421761D01*
X98566009Y-72421761D02*
X98518390Y-72374142D01*
X98518390Y-72374142D02*
X98470771Y-72278904D01*
X98470771Y-72278904D02*
X98470771Y-72040809D01*
X98470771Y-72040809D02*
X98518390Y-71945571D01*
X98518390Y-71945571D02*
X98566009Y-71897952D01*
X98566009Y-71897952D02*
X98661247Y-71850333D01*
X98661247Y-71850333D02*
X98899342Y-71850333D01*
X98899342Y-71850333D02*
X98994580Y-71897952D01*
X98994580Y-71897952D02*
X99042200Y-71945571D01*
X99042200Y-71945571D02*
X99089819Y-72040809D01*
X99089819Y-72040809D02*
X99089819Y-72278904D01*
X99089819Y-72278904D02*
X99042200Y-72374142D01*
X99042200Y-72374142D02*
X98994580Y-72421761D01*
X129676810Y-43102819D02*
X129676810Y-42102819D01*
X130724428Y-43007580D02*
X130676809Y-43055200D01*
X130676809Y-43055200D02*
X130533952Y-43102819D01*
X130533952Y-43102819D02*
X130438714Y-43102819D01*
X130438714Y-43102819D02*
X130295857Y-43055200D01*
X130295857Y-43055200D02*
X130200619Y-42959961D01*
X130200619Y-42959961D02*
X130153000Y-42864723D01*
X130153000Y-42864723D02*
X130105381Y-42674247D01*
X130105381Y-42674247D02*
X130105381Y-42531390D01*
X130105381Y-42531390D02*
X130153000Y-42340914D01*
X130153000Y-42340914D02*
X130200619Y-42245676D01*
X130200619Y-42245676D02*
X130295857Y-42150438D01*
X130295857Y-42150438D02*
X130438714Y-42102819D01*
X130438714Y-42102819D02*
X130533952Y-42102819D01*
X130533952Y-42102819D02*
X130676809Y-42150438D01*
X130676809Y-42150438D02*
X130724428Y-42198057D01*
X131057762Y-42102819D02*
X131676809Y-42102819D01*
X131676809Y-42102819D02*
X131343476Y-42483771D01*
X131343476Y-42483771D02*
X131486333Y-42483771D01*
X131486333Y-42483771D02*
X131581571Y-42531390D01*
X131581571Y-42531390D02*
X131629190Y-42579009D01*
X131629190Y-42579009D02*
X131676809Y-42674247D01*
X131676809Y-42674247D02*
X131676809Y-42912342D01*
X131676809Y-42912342D02*
X131629190Y-43007580D01*
X131629190Y-43007580D02*
X131581571Y-43055200D01*
X131581571Y-43055200D02*
X131486333Y-43102819D01*
X131486333Y-43102819D02*
X131200619Y-43102819D01*
X131200619Y-43102819D02*
X131105381Y-43055200D01*
X131105381Y-43055200D02*
X131057762Y-43007580D01*
X139645333Y-62044819D02*
X139312000Y-61568628D01*
X139073905Y-62044819D02*
X139073905Y-61044819D01*
X139073905Y-61044819D02*
X139454857Y-61044819D01*
X139454857Y-61044819D02*
X139550095Y-61092438D01*
X139550095Y-61092438D02*
X139597714Y-61140057D01*
X139597714Y-61140057D02*
X139645333Y-61235295D01*
X139645333Y-61235295D02*
X139645333Y-61378152D01*
X139645333Y-61378152D02*
X139597714Y-61473390D01*
X139597714Y-61473390D02*
X139550095Y-61521009D01*
X139550095Y-61521009D02*
X139454857Y-61568628D01*
X139454857Y-61568628D02*
X139073905Y-61568628D01*
X140026286Y-61140057D02*
X140073905Y-61092438D01*
X140073905Y-61092438D02*
X140169143Y-61044819D01*
X140169143Y-61044819D02*
X140407238Y-61044819D01*
X140407238Y-61044819D02*
X140502476Y-61092438D01*
X140502476Y-61092438D02*
X140550095Y-61140057D01*
X140550095Y-61140057D02*
X140597714Y-61235295D01*
X140597714Y-61235295D02*
X140597714Y-61330533D01*
X140597714Y-61330533D02*
X140550095Y-61473390D01*
X140550095Y-61473390D02*
X139978667Y-62044819D01*
X139978667Y-62044819D02*
X140597714Y-62044819D01*
X89961905Y-60814819D02*
X89961905Y-59814819D01*
X89961905Y-59814819D02*
X90200000Y-59814819D01*
X90200000Y-59814819D02*
X90342857Y-59862438D01*
X90342857Y-59862438D02*
X90438095Y-59957676D01*
X90438095Y-59957676D02*
X90485714Y-60052914D01*
X90485714Y-60052914D02*
X90533333Y-60243390D01*
X90533333Y-60243390D02*
X90533333Y-60386247D01*
X90533333Y-60386247D02*
X90485714Y-60576723D01*
X90485714Y-60576723D02*
X90438095Y-60671961D01*
X90438095Y-60671961D02*
X90342857Y-60767200D01*
X90342857Y-60767200D02*
X90200000Y-60814819D01*
X90200000Y-60814819D02*
X89961905Y-60814819D01*
X90914286Y-59910057D02*
X90961905Y-59862438D01*
X90961905Y-59862438D02*
X91057143Y-59814819D01*
X91057143Y-59814819D02*
X91295238Y-59814819D01*
X91295238Y-59814819D02*
X91390476Y-59862438D01*
X91390476Y-59862438D02*
X91438095Y-59910057D01*
X91438095Y-59910057D02*
X91485714Y-60005295D01*
X91485714Y-60005295D02*
X91485714Y-60100533D01*
X91485714Y-60100533D02*
X91438095Y-60243390D01*
X91438095Y-60243390D02*
X90866667Y-60814819D01*
X90866667Y-60814819D02*
X91485714Y-60814819D01*
X96057142Y-39054819D02*
X95723809Y-38578628D01*
X95485714Y-39054819D02*
X95485714Y-38054819D01*
X95485714Y-38054819D02*
X95866666Y-38054819D01*
X95866666Y-38054819D02*
X95961904Y-38102438D01*
X95961904Y-38102438D02*
X96009523Y-38150057D01*
X96009523Y-38150057D02*
X96057142Y-38245295D01*
X96057142Y-38245295D02*
X96057142Y-38388152D01*
X96057142Y-38388152D02*
X96009523Y-38483390D01*
X96009523Y-38483390D02*
X95961904Y-38531009D01*
X95961904Y-38531009D02*
X95866666Y-38578628D01*
X95866666Y-38578628D02*
X95485714Y-38578628D01*
X97009523Y-39054819D02*
X96438095Y-39054819D01*
X96723809Y-39054819D02*
X96723809Y-38054819D01*
X96723809Y-38054819D02*
X96628571Y-38197676D01*
X96628571Y-38197676D02*
X96533333Y-38292914D01*
X96533333Y-38292914D02*
X96438095Y-38340533D01*
X97390476Y-38150057D02*
X97438095Y-38102438D01*
X97438095Y-38102438D02*
X97533333Y-38054819D01*
X97533333Y-38054819D02*
X97771428Y-38054819D01*
X97771428Y-38054819D02*
X97866666Y-38102438D01*
X97866666Y-38102438D02*
X97914285Y-38150057D01*
X97914285Y-38150057D02*
X97961904Y-38245295D01*
X97961904Y-38245295D02*
X97961904Y-38340533D01*
X97961904Y-38340533D02*
X97914285Y-38483390D01*
X97914285Y-38483390D02*
X97342857Y-39054819D01*
X97342857Y-39054819D02*
X97961904Y-39054819D01*
X118371142Y-53954819D02*
X118037809Y-53478628D01*
X117799714Y-53954819D02*
X117799714Y-52954819D01*
X117799714Y-52954819D02*
X118180666Y-52954819D01*
X118180666Y-52954819D02*
X118275904Y-53002438D01*
X118275904Y-53002438D02*
X118323523Y-53050057D01*
X118323523Y-53050057D02*
X118371142Y-53145295D01*
X118371142Y-53145295D02*
X118371142Y-53288152D01*
X118371142Y-53288152D02*
X118323523Y-53383390D01*
X118323523Y-53383390D02*
X118275904Y-53431009D01*
X118275904Y-53431009D02*
X118180666Y-53478628D01*
X118180666Y-53478628D02*
X117799714Y-53478628D01*
X119323523Y-53954819D02*
X118752095Y-53954819D01*
X119037809Y-53954819D02*
X119037809Y-52954819D01*
X119037809Y-52954819D02*
X118942571Y-53097676D01*
X118942571Y-53097676D02*
X118847333Y-53192914D01*
X118847333Y-53192914D02*
X118752095Y-53240533D01*
X120275904Y-53954819D02*
X119704476Y-53954819D01*
X119990190Y-53954819D02*
X119990190Y-52954819D01*
X119990190Y-52954819D02*
X119894952Y-53097676D01*
X119894952Y-53097676D02*
X119799714Y-53192914D01*
X119799714Y-53192914D02*
X119704476Y-53240533D01*
X94829333Y-58271580D02*
X94781714Y-58319200D01*
X94781714Y-58319200D02*
X94638857Y-58366819D01*
X94638857Y-58366819D02*
X94543619Y-58366819D01*
X94543619Y-58366819D02*
X94400762Y-58319200D01*
X94400762Y-58319200D02*
X94305524Y-58223961D01*
X94305524Y-58223961D02*
X94257905Y-58128723D01*
X94257905Y-58128723D02*
X94210286Y-57938247D01*
X94210286Y-57938247D02*
X94210286Y-57795390D01*
X94210286Y-57795390D02*
X94257905Y-57604914D01*
X94257905Y-57604914D02*
X94305524Y-57509676D01*
X94305524Y-57509676D02*
X94400762Y-57414438D01*
X94400762Y-57414438D02*
X94543619Y-57366819D01*
X94543619Y-57366819D02*
X94638857Y-57366819D01*
X94638857Y-57366819D02*
X94781714Y-57414438D01*
X94781714Y-57414438D02*
X94829333Y-57462057D01*
X95400762Y-57795390D02*
X95305524Y-57747771D01*
X95305524Y-57747771D02*
X95257905Y-57700152D01*
X95257905Y-57700152D02*
X95210286Y-57604914D01*
X95210286Y-57604914D02*
X95210286Y-57557295D01*
X95210286Y-57557295D02*
X95257905Y-57462057D01*
X95257905Y-57462057D02*
X95305524Y-57414438D01*
X95305524Y-57414438D02*
X95400762Y-57366819D01*
X95400762Y-57366819D02*
X95591238Y-57366819D01*
X95591238Y-57366819D02*
X95686476Y-57414438D01*
X95686476Y-57414438D02*
X95734095Y-57462057D01*
X95734095Y-57462057D02*
X95781714Y-57557295D01*
X95781714Y-57557295D02*
X95781714Y-57604914D01*
X95781714Y-57604914D02*
X95734095Y-57700152D01*
X95734095Y-57700152D02*
X95686476Y-57747771D01*
X95686476Y-57747771D02*
X95591238Y-57795390D01*
X95591238Y-57795390D02*
X95400762Y-57795390D01*
X95400762Y-57795390D02*
X95305524Y-57843009D01*
X95305524Y-57843009D02*
X95257905Y-57890628D01*
X95257905Y-57890628D02*
X95210286Y-57985866D01*
X95210286Y-57985866D02*
X95210286Y-58176342D01*
X95210286Y-58176342D02*
X95257905Y-58271580D01*
X95257905Y-58271580D02*
X95305524Y-58319200D01*
X95305524Y-58319200D02*
X95400762Y-58366819D01*
X95400762Y-58366819D02*
X95591238Y-58366819D01*
X95591238Y-58366819D02*
X95686476Y-58319200D01*
X95686476Y-58319200D02*
X95734095Y-58271580D01*
X95734095Y-58271580D02*
X95781714Y-58176342D01*
X95781714Y-58176342D02*
X95781714Y-57985866D01*
X95781714Y-57985866D02*
X95734095Y-57890628D01*
X95734095Y-57890628D02*
X95686476Y-57843009D01*
X95686476Y-57843009D02*
X95591238Y-57795390D01*
X122627333Y-62044819D02*
X122294000Y-61568628D01*
X122055905Y-62044819D02*
X122055905Y-61044819D01*
X122055905Y-61044819D02*
X122436857Y-61044819D01*
X122436857Y-61044819D02*
X122532095Y-61092438D01*
X122532095Y-61092438D02*
X122579714Y-61140057D01*
X122579714Y-61140057D02*
X122627333Y-61235295D01*
X122627333Y-61235295D02*
X122627333Y-61378152D01*
X122627333Y-61378152D02*
X122579714Y-61473390D01*
X122579714Y-61473390D02*
X122532095Y-61521009D01*
X122532095Y-61521009D02*
X122436857Y-61568628D01*
X122436857Y-61568628D02*
X122055905Y-61568628D01*
X123579714Y-62044819D02*
X123008286Y-62044819D01*
X123294000Y-62044819D02*
X123294000Y-61044819D01*
X123294000Y-61044819D02*
X123198762Y-61187676D01*
X123198762Y-61187676D02*
X123103524Y-61282914D01*
X123103524Y-61282914D02*
X123008286Y-61330533D01*
X91049819Y-50150857D02*
X90573628Y-50484190D01*
X91049819Y-50722285D02*
X90049819Y-50722285D01*
X90049819Y-50722285D02*
X90049819Y-50341333D01*
X90049819Y-50341333D02*
X90097438Y-50246095D01*
X90097438Y-50246095D02*
X90145057Y-50198476D01*
X90145057Y-50198476D02*
X90240295Y-50150857D01*
X90240295Y-50150857D02*
X90383152Y-50150857D01*
X90383152Y-50150857D02*
X90478390Y-50198476D01*
X90478390Y-50198476D02*
X90526009Y-50246095D01*
X90526009Y-50246095D02*
X90573628Y-50341333D01*
X90573628Y-50341333D02*
X90573628Y-50722285D01*
X91049819Y-49198476D02*
X91049819Y-49769904D01*
X91049819Y-49484190D02*
X90049819Y-49484190D01*
X90049819Y-49484190D02*
X90192676Y-49579428D01*
X90192676Y-49579428D02*
X90287914Y-49674666D01*
X90287914Y-49674666D02*
X90335533Y-49769904D01*
X90049819Y-48865142D02*
X90049819Y-48246095D01*
X90049819Y-48246095D02*
X90430771Y-48579428D01*
X90430771Y-48579428D02*
X90430771Y-48436571D01*
X90430771Y-48436571D02*
X90478390Y-48341333D01*
X90478390Y-48341333D02*
X90526009Y-48293714D01*
X90526009Y-48293714D02*
X90621247Y-48246095D01*
X90621247Y-48246095D02*
X90859342Y-48246095D01*
X90859342Y-48246095D02*
X90954580Y-48293714D01*
X90954580Y-48293714D02*
X91002200Y-48341333D01*
X91002200Y-48341333D02*
X91049819Y-48436571D01*
X91049819Y-48436571D02*
X91049819Y-48722285D01*
X91049819Y-48722285D02*
X91002200Y-48817523D01*
X91002200Y-48817523D02*
X90954580Y-48865142D01*
X94844333Y-54165819D02*
X94511000Y-53689628D01*
X94272905Y-54165819D02*
X94272905Y-53165819D01*
X94272905Y-53165819D02*
X94653857Y-53165819D01*
X94653857Y-53165819D02*
X94749095Y-53213438D01*
X94749095Y-53213438D02*
X94796714Y-53261057D01*
X94796714Y-53261057D02*
X94844333Y-53356295D01*
X94844333Y-53356295D02*
X94844333Y-53499152D01*
X94844333Y-53499152D02*
X94796714Y-53594390D01*
X94796714Y-53594390D02*
X94749095Y-53642009D01*
X94749095Y-53642009D02*
X94653857Y-53689628D01*
X94653857Y-53689628D02*
X94272905Y-53689628D01*
X95701476Y-53165819D02*
X95511000Y-53165819D01*
X95511000Y-53165819D02*
X95415762Y-53213438D01*
X95415762Y-53213438D02*
X95368143Y-53261057D01*
X95368143Y-53261057D02*
X95272905Y-53403914D01*
X95272905Y-53403914D02*
X95225286Y-53594390D01*
X95225286Y-53594390D02*
X95225286Y-53975342D01*
X95225286Y-53975342D02*
X95272905Y-54070580D01*
X95272905Y-54070580D02*
X95320524Y-54118200D01*
X95320524Y-54118200D02*
X95415762Y-54165819D01*
X95415762Y-54165819D02*
X95606238Y-54165819D01*
X95606238Y-54165819D02*
X95701476Y-54118200D01*
X95701476Y-54118200D02*
X95749095Y-54070580D01*
X95749095Y-54070580D02*
X95796714Y-53975342D01*
X95796714Y-53975342D02*
X95796714Y-53737247D01*
X95796714Y-53737247D02*
X95749095Y-53642009D01*
X95749095Y-53642009D02*
X95701476Y-53594390D01*
X95701476Y-53594390D02*
X95606238Y-53546771D01*
X95606238Y-53546771D02*
X95415762Y-53546771D01*
X95415762Y-53546771D02*
X95320524Y-53594390D01*
X95320524Y-53594390D02*
X95272905Y-53642009D01*
X95272905Y-53642009D02*
X95225286Y-53737247D01*
D12*
X165054318Y-69163094D02*
X166324318Y-68739761D01*
X166324318Y-68739761D02*
X165054318Y-68316427D01*
X166324318Y-67167380D02*
X165719556Y-67590714D01*
X166324318Y-67893095D02*
X165054318Y-67893095D01*
X165054318Y-67893095D02*
X165054318Y-67409285D01*
X165054318Y-67409285D02*
X165114794Y-67288333D01*
X165114794Y-67288333D02*
X165175270Y-67227856D01*
X165175270Y-67227856D02*
X165296222Y-67167380D01*
X165296222Y-67167380D02*
X165477651Y-67167380D01*
X165477651Y-67167380D02*
X165598603Y-67227856D01*
X165598603Y-67227856D02*
X165659080Y-67288333D01*
X165659080Y-67288333D02*
X165719556Y-67409285D01*
X165719556Y-67409285D02*
X165719556Y-67893095D01*
X166324318Y-65957856D02*
X166324318Y-66683571D01*
X166324318Y-66320714D02*
X165054318Y-66320714D01*
X165054318Y-66320714D02*
X165235746Y-66441666D01*
X165235746Y-66441666D02*
X165356699Y-66562618D01*
X165356699Y-66562618D02*
X165417175Y-66683571D01*
D11*
X148298819Y-75263333D02*
X149013104Y-75263333D01*
X149013104Y-75263333D02*
X149155961Y-75310952D01*
X149155961Y-75310952D02*
X149251200Y-75406190D01*
X149251200Y-75406190D02*
X149298819Y-75549047D01*
X149298819Y-75549047D02*
X149298819Y-75644285D01*
X149298819Y-74263333D02*
X149298819Y-74834761D01*
X149298819Y-74549047D02*
X148298819Y-74549047D01*
X148298819Y-74549047D02*
X148441676Y-74644285D01*
X148441676Y-74644285D02*
X148536914Y-74739523D01*
X148536914Y-74739523D02*
X148584533Y-74834761D01*
X130580810Y-56471819D02*
X130580810Y-55471819D01*
X131628428Y-56376580D02*
X131580809Y-56424200D01*
X131580809Y-56424200D02*
X131437952Y-56471819D01*
X131437952Y-56471819D02*
X131342714Y-56471819D01*
X131342714Y-56471819D02*
X131199857Y-56424200D01*
X131199857Y-56424200D02*
X131104619Y-56328961D01*
X131104619Y-56328961D02*
X131057000Y-56233723D01*
X131057000Y-56233723D02*
X131009381Y-56043247D01*
X131009381Y-56043247D02*
X131009381Y-55900390D01*
X131009381Y-55900390D02*
X131057000Y-55709914D01*
X131057000Y-55709914D02*
X131104619Y-55614676D01*
X131104619Y-55614676D02*
X131199857Y-55519438D01*
X131199857Y-55519438D02*
X131342714Y-55471819D01*
X131342714Y-55471819D02*
X131437952Y-55471819D01*
X131437952Y-55471819D02*
X131580809Y-55519438D01*
X131580809Y-55519438D02*
X131628428Y-55567057D01*
X132009381Y-55567057D02*
X132057000Y-55519438D01*
X132057000Y-55519438D02*
X132152238Y-55471819D01*
X132152238Y-55471819D02*
X132390333Y-55471819D01*
X132390333Y-55471819D02*
X132485571Y-55519438D01*
X132485571Y-55519438D02*
X132533190Y-55567057D01*
X132533190Y-55567057D02*
X132580809Y-55662295D01*
X132580809Y-55662295D02*
X132580809Y-55757533D01*
X132580809Y-55757533D02*
X132533190Y-55900390D01*
X132533190Y-55900390D02*
X131961762Y-56471819D01*
X131961762Y-56471819D02*
X132580809Y-56471819D01*
X97898761Y-46239057D02*
X97803523Y-46191438D01*
X97803523Y-46191438D02*
X97708285Y-46096200D01*
X97708285Y-46096200D02*
X97565428Y-45953342D01*
X97565428Y-45953342D02*
X97470190Y-45905723D01*
X97470190Y-45905723D02*
X97374952Y-45905723D01*
X97422571Y-46143819D02*
X97327333Y-46096200D01*
X97327333Y-46096200D02*
X97232095Y-46000961D01*
X97232095Y-46000961D02*
X97184476Y-45810485D01*
X97184476Y-45810485D02*
X97184476Y-45477152D01*
X97184476Y-45477152D02*
X97232095Y-45286676D01*
X97232095Y-45286676D02*
X97327333Y-45191438D01*
X97327333Y-45191438D02*
X97422571Y-45143819D01*
X97422571Y-45143819D02*
X97613047Y-45143819D01*
X97613047Y-45143819D02*
X97708285Y-45191438D01*
X97708285Y-45191438D02*
X97803523Y-45286676D01*
X97803523Y-45286676D02*
X97851142Y-45477152D01*
X97851142Y-45477152D02*
X97851142Y-45810485D01*
X97851142Y-45810485D02*
X97803523Y-46000961D01*
X97803523Y-46000961D02*
X97708285Y-46096200D01*
X97708285Y-46096200D02*
X97613047Y-46143819D01*
X97613047Y-46143819D02*
X97422571Y-46143819D01*
X98803523Y-46143819D02*
X98232095Y-46143819D01*
X98517809Y-46143819D02*
X98517809Y-45143819D01*
X98517809Y-45143819D02*
X98422571Y-45286676D01*
X98422571Y-45286676D02*
X98327333Y-45381914D01*
X98327333Y-45381914D02*
X98232095Y-45429533D01*
X115672333Y-67500819D02*
X115339000Y-67024628D01*
X115100905Y-67500819D02*
X115100905Y-66500819D01*
X115100905Y-66500819D02*
X115481857Y-66500819D01*
X115481857Y-66500819D02*
X115577095Y-66548438D01*
X115577095Y-66548438D02*
X115624714Y-66596057D01*
X115624714Y-66596057D02*
X115672333Y-66691295D01*
X115672333Y-66691295D02*
X115672333Y-66834152D01*
X115672333Y-66834152D02*
X115624714Y-66929390D01*
X115624714Y-66929390D02*
X115577095Y-66977009D01*
X115577095Y-66977009D02*
X115481857Y-67024628D01*
X115481857Y-67024628D02*
X115100905Y-67024628D01*
X116148524Y-67500819D02*
X116339000Y-67500819D01*
X116339000Y-67500819D02*
X116434238Y-67453200D01*
X116434238Y-67453200D02*
X116481857Y-67405580D01*
X116481857Y-67405580D02*
X116577095Y-67262723D01*
X116577095Y-67262723D02*
X116624714Y-67072247D01*
X116624714Y-67072247D02*
X116624714Y-66691295D01*
X116624714Y-66691295D02*
X116577095Y-66596057D01*
X116577095Y-66596057D02*
X116529476Y-66548438D01*
X116529476Y-66548438D02*
X116434238Y-66500819D01*
X116434238Y-66500819D02*
X116243762Y-66500819D01*
X116243762Y-66500819D02*
X116148524Y-66548438D01*
X116148524Y-66548438D02*
X116100905Y-66596057D01*
X116100905Y-66596057D02*
X116053286Y-66691295D01*
X116053286Y-66691295D02*
X116053286Y-66929390D01*
X116053286Y-66929390D02*
X116100905Y-67024628D01*
X116100905Y-67024628D02*
X116148524Y-67072247D01*
X116148524Y-67072247D02*
X116243762Y-67119866D01*
X116243762Y-67119866D02*
X116434238Y-67119866D01*
X116434238Y-67119866D02*
X116529476Y-67072247D01*
X116529476Y-67072247D02*
X116577095Y-67024628D01*
X116577095Y-67024628D02*
X116624714Y-66929390D01*
X94733333Y-50454819D02*
X94400000Y-49978628D01*
X94161905Y-50454819D02*
X94161905Y-49454819D01*
X94161905Y-49454819D02*
X94542857Y-49454819D01*
X94542857Y-49454819D02*
X94638095Y-49502438D01*
X94638095Y-49502438D02*
X94685714Y-49550057D01*
X94685714Y-49550057D02*
X94733333Y-49645295D01*
X94733333Y-49645295D02*
X94733333Y-49788152D01*
X94733333Y-49788152D02*
X94685714Y-49883390D01*
X94685714Y-49883390D02*
X94638095Y-49931009D01*
X94638095Y-49931009D02*
X94542857Y-49978628D01*
X94542857Y-49978628D02*
X94161905Y-49978628D01*
X95066667Y-49454819D02*
X95733333Y-49454819D01*
X95733333Y-49454819D02*
X95304762Y-50454819D01*
X137557142Y-69754819D02*
X137223809Y-69278628D01*
X136985714Y-69754819D02*
X136985714Y-68754819D01*
X136985714Y-68754819D02*
X137366666Y-68754819D01*
X137366666Y-68754819D02*
X137461904Y-68802438D01*
X137461904Y-68802438D02*
X137509523Y-68850057D01*
X137509523Y-68850057D02*
X137557142Y-68945295D01*
X137557142Y-68945295D02*
X137557142Y-69088152D01*
X137557142Y-69088152D02*
X137509523Y-69183390D01*
X137509523Y-69183390D02*
X137461904Y-69231009D01*
X137461904Y-69231009D02*
X137366666Y-69278628D01*
X137366666Y-69278628D02*
X136985714Y-69278628D01*
X138509523Y-69754819D02*
X137938095Y-69754819D01*
X138223809Y-69754819D02*
X138223809Y-68754819D01*
X138223809Y-68754819D02*
X138128571Y-68897676D01*
X138128571Y-68897676D02*
X138033333Y-68992914D01*
X138033333Y-68992914D02*
X137938095Y-69040533D01*
X139366666Y-69088152D02*
X139366666Y-69754819D01*
X139128571Y-68707200D02*
X138890476Y-69421485D01*
X138890476Y-69421485D02*
X139509523Y-69421485D01*
X118339333Y-51752819D02*
X118006000Y-51276628D01*
X117767905Y-51752819D02*
X117767905Y-50752819D01*
X117767905Y-50752819D02*
X118148857Y-50752819D01*
X118148857Y-50752819D02*
X118244095Y-50800438D01*
X118244095Y-50800438D02*
X118291714Y-50848057D01*
X118291714Y-50848057D02*
X118339333Y-50943295D01*
X118339333Y-50943295D02*
X118339333Y-51086152D01*
X118339333Y-51086152D02*
X118291714Y-51181390D01*
X118291714Y-51181390D02*
X118244095Y-51229009D01*
X118244095Y-51229009D02*
X118148857Y-51276628D01*
X118148857Y-51276628D02*
X117767905Y-51276628D01*
X118910762Y-51181390D02*
X118815524Y-51133771D01*
X118815524Y-51133771D02*
X118767905Y-51086152D01*
X118767905Y-51086152D02*
X118720286Y-50990914D01*
X118720286Y-50990914D02*
X118720286Y-50943295D01*
X118720286Y-50943295D02*
X118767905Y-50848057D01*
X118767905Y-50848057D02*
X118815524Y-50800438D01*
X118815524Y-50800438D02*
X118910762Y-50752819D01*
X118910762Y-50752819D02*
X119101238Y-50752819D01*
X119101238Y-50752819D02*
X119196476Y-50800438D01*
X119196476Y-50800438D02*
X119244095Y-50848057D01*
X119244095Y-50848057D02*
X119291714Y-50943295D01*
X119291714Y-50943295D02*
X119291714Y-50990914D01*
X119291714Y-50990914D02*
X119244095Y-51086152D01*
X119244095Y-51086152D02*
X119196476Y-51133771D01*
X119196476Y-51133771D02*
X119101238Y-51181390D01*
X119101238Y-51181390D02*
X118910762Y-51181390D01*
X118910762Y-51181390D02*
X118815524Y-51229009D01*
X118815524Y-51229009D02*
X118767905Y-51276628D01*
X118767905Y-51276628D02*
X118720286Y-51371866D01*
X118720286Y-51371866D02*
X118720286Y-51562342D01*
X118720286Y-51562342D02*
X118767905Y-51657580D01*
X118767905Y-51657580D02*
X118815524Y-51705200D01*
X118815524Y-51705200D02*
X118910762Y-51752819D01*
X118910762Y-51752819D02*
X119101238Y-51752819D01*
X119101238Y-51752819D02*
X119196476Y-51705200D01*
X119196476Y-51705200D02*
X119244095Y-51657580D01*
X119244095Y-51657580D02*
X119291714Y-51562342D01*
X119291714Y-51562342D02*
X119291714Y-51371866D01*
X119291714Y-51371866D02*
X119244095Y-51276628D01*
X119244095Y-51276628D02*
X119196476Y-51229009D01*
X119196476Y-51229009D02*
X119101238Y-51181390D01*
X147105810Y-47063819D02*
X147105810Y-46063819D01*
X148153428Y-46968580D02*
X148105809Y-47016200D01*
X148105809Y-47016200D02*
X147962952Y-47063819D01*
X147962952Y-47063819D02*
X147867714Y-47063819D01*
X147867714Y-47063819D02*
X147724857Y-47016200D01*
X147724857Y-47016200D02*
X147629619Y-46920961D01*
X147629619Y-46920961D02*
X147582000Y-46825723D01*
X147582000Y-46825723D02*
X147534381Y-46635247D01*
X147534381Y-46635247D02*
X147534381Y-46492390D01*
X147534381Y-46492390D02*
X147582000Y-46301914D01*
X147582000Y-46301914D02*
X147629619Y-46206676D01*
X147629619Y-46206676D02*
X147724857Y-46111438D01*
X147724857Y-46111438D02*
X147867714Y-46063819D01*
X147867714Y-46063819D02*
X147962952Y-46063819D01*
X147962952Y-46063819D02*
X148105809Y-46111438D01*
X148105809Y-46111438D02*
X148153428Y-46159057D01*
X149105809Y-47063819D02*
X148534381Y-47063819D01*
X148820095Y-47063819D02*
X148820095Y-46063819D01*
X148820095Y-46063819D02*
X148724857Y-46206676D01*
X148724857Y-46206676D02*
X148629619Y-46301914D01*
X148629619Y-46301914D02*
X148534381Y-46349533D01*
X123262333Y-55360580D02*
X123214714Y-55408200D01*
X123214714Y-55408200D02*
X123071857Y-55455819D01*
X123071857Y-55455819D02*
X122976619Y-55455819D01*
X122976619Y-55455819D02*
X122833762Y-55408200D01*
X122833762Y-55408200D02*
X122738524Y-55312961D01*
X122738524Y-55312961D02*
X122690905Y-55217723D01*
X122690905Y-55217723D02*
X122643286Y-55027247D01*
X122643286Y-55027247D02*
X122643286Y-54884390D01*
X122643286Y-54884390D02*
X122690905Y-54693914D01*
X122690905Y-54693914D02*
X122738524Y-54598676D01*
X122738524Y-54598676D02*
X122833762Y-54503438D01*
X122833762Y-54503438D02*
X122976619Y-54455819D01*
X122976619Y-54455819D02*
X123071857Y-54455819D01*
X123071857Y-54455819D02*
X123214714Y-54503438D01*
X123214714Y-54503438D02*
X123262333Y-54551057D01*
X124167095Y-54455819D02*
X123690905Y-54455819D01*
X123690905Y-54455819D02*
X123643286Y-54932009D01*
X123643286Y-54932009D02*
X123690905Y-54884390D01*
X123690905Y-54884390D02*
X123786143Y-54836771D01*
X123786143Y-54836771D02*
X124024238Y-54836771D01*
X124024238Y-54836771D02*
X124119476Y-54884390D01*
X124119476Y-54884390D02*
X124167095Y-54932009D01*
X124167095Y-54932009D02*
X124214714Y-55027247D01*
X124214714Y-55027247D02*
X124214714Y-55265342D01*
X124214714Y-55265342D02*
X124167095Y-55360580D01*
X124167095Y-55360580D02*
X124119476Y-55408200D01*
X124119476Y-55408200D02*
X124024238Y-55455819D01*
X124024238Y-55455819D02*
X123786143Y-55455819D01*
X123786143Y-55455819D02*
X123690905Y-55408200D01*
X123690905Y-55408200D02*
X123643286Y-55360580D01*
X118247142Y-56254819D02*
X117913809Y-55778628D01*
X117675714Y-56254819D02*
X117675714Y-55254819D01*
X117675714Y-55254819D02*
X118056666Y-55254819D01*
X118056666Y-55254819D02*
X118151904Y-55302438D01*
X118151904Y-55302438D02*
X118199523Y-55350057D01*
X118199523Y-55350057D02*
X118247142Y-55445295D01*
X118247142Y-55445295D02*
X118247142Y-55588152D01*
X118247142Y-55588152D02*
X118199523Y-55683390D01*
X118199523Y-55683390D02*
X118151904Y-55731009D01*
X118151904Y-55731009D02*
X118056666Y-55778628D01*
X118056666Y-55778628D02*
X117675714Y-55778628D01*
X119199523Y-56254819D02*
X118628095Y-56254819D01*
X118913809Y-56254819D02*
X118913809Y-55254819D01*
X118913809Y-55254819D02*
X118818571Y-55397676D01*
X118818571Y-55397676D02*
X118723333Y-55492914D01*
X118723333Y-55492914D02*
X118628095Y-55540533D01*
X119818571Y-55254819D02*
X119913809Y-55254819D01*
X119913809Y-55254819D02*
X120009047Y-55302438D01*
X120009047Y-55302438D02*
X120056666Y-55350057D01*
X120056666Y-55350057D02*
X120104285Y-55445295D01*
X120104285Y-55445295D02*
X120151904Y-55635771D01*
X120151904Y-55635771D02*
X120151904Y-55873866D01*
X120151904Y-55873866D02*
X120104285Y-56064342D01*
X120104285Y-56064342D02*
X120056666Y-56159580D01*
X120056666Y-56159580D02*
X120009047Y-56207200D01*
X120009047Y-56207200D02*
X119913809Y-56254819D01*
X119913809Y-56254819D02*
X119818571Y-56254819D01*
X119818571Y-56254819D02*
X119723333Y-56207200D01*
X119723333Y-56207200D02*
X119675714Y-56159580D01*
X119675714Y-56159580D02*
X119628095Y-56064342D01*
X119628095Y-56064342D02*
X119580476Y-55873866D01*
X119580476Y-55873866D02*
X119580476Y-55635771D01*
X119580476Y-55635771D02*
X119628095Y-55445295D01*
X119628095Y-55445295D02*
X119675714Y-55350057D01*
X119675714Y-55350057D02*
X119723333Y-55302438D01*
X119723333Y-55302438D02*
X119818571Y-55254819D01*
X124457142Y-72254819D02*
X124123809Y-71778628D01*
X123885714Y-72254819D02*
X123885714Y-71254819D01*
X123885714Y-71254819D02*
X124266666Y-71254819D01*
X124266666Y-71254819D02*
X124361904Y-71302438D01*
X124361904Y-71302438D02*
X124409523Y-71350057D01*
X124409523Y-71350057D02*
X124457142Y-71445295D01*
X124457142Y-71445295D02*
X124457142Y-71588152D01*
X124457142Y-71588152D02*
X124409523Y-71683390D01*
X124409523Y-71683390D02*
X124361904Y-71731009D01*
X124361904Y-71731009D02*
X124266666Y-71778628D01*
X124266666Y-71778628D02*
X123885714Y-71778628D01*
X125409523Y-72254819D02*
X124838095Y-72254819D01*
X125123809Y-72254819D02*
X125123809Y-71254819D01*
X125123809Y-71254819D02*
X125028571Y-71397676D01*
X125028571Y-71397676D02*
X124933333Y-71492914D01*
X124933333Y-71492914D02*
X124838095Y-71540533D01*
X126314285Y-71254819D02*
X125838095Y-71254819D01*
X125838095Y-71254819D02*
X125790476Y-71731009D01*
X125790476Y-71731009D02*
X125838095Y-71683390D01*
X125838095Y-71683390D02*
X125933333Y-71635771D01*
X125933333Y-71635771D02*
X126171428Y-71635771D01*
X126171428Y-71635771D02*
X126266666Y-71683390D01*
X126266666Y-71683390D02*
X126314285Y-71731009D01*
X126314285Y-71731009D02*
X126361904Y-71826247D01*
X126361904Y-71826247D02*
X126361904Y-72064342D01*
X126361904Y-72064342D02*
X126314285Y-72159580D01*
X126314285Y-72159580D02*
X126266666Y-72207200D01*
X126266666Y-72207200D02*
X126171428Y-72254819D01*
X126171428Y-72254819D02*
X125933333Y-72254819D01*
X125933333Y-72254819D02*
X125838095Y-72207200D01*
X125838095Y-72207200D02*
X125790476Y-72159580D01*
X140933333Y-68759580D02*
X140885714Y-68807200D01*
X140885714Y-68807200D02*
X140742857Y-68854819D01*
X140742857Y-68854819D02*
X140647619Y-68854819D01*
X140647619Y-68854819D02*
X140504762Y-68807200D01*
X140504762Y-68807200D02*
X140409524Y-68711961D01*
X140409524Y-68711961D02*
X140361905Y-68616723D01*
X140361905Y-68616723D02*
X140314286Y-68426247D01*
X140314286Y-68426247D02*
X140314286Y-68283390D01*
X140314286Y-68283390D02*
X140361905Y-68092914D01*
X140361905Y-68092914D02*
X140409524Y-67997676D01*
X140409524Y-67997676D02*
X140504762Y-67902438D01*
X140504762Y-67902438D02*
X140647619Y-67854819D01*
X140647619Y-67854819D02*
X140742857Y-67854819D01*
X140742857Y-67854819D02*
X140885714Y-67902438D01*
X140885714Y-67902438D02*
X140933333Y-67950057D01*
X141790476Y-68188152D02*
X141790476Y-68854819D01*
X141552381Y-67807200D02*
X141314286Y-68521485D01*
X141314286Y-68521485D02*
X141933333Y-68521485D01*
D12*
X165054318Y-53163094D02*
X166324318Y-52739761D01*
X166324318Y-52739761D02*
X165054318Y-52316427D01*
X166324318Y-51167380D02*
X165719556Y-51590714D01*
X166324318Y-51893095D02*
X165054318Y-51893095D01*
X165054318Y-51893095D02*
X165054318Y-51409285D01*
X165054318Y-51409285D02*
X165114794Y-51288333D01*
X165114794Y-51288333D02*
X165175270Y-51227856D01*
X165175270Y-51227856D02*
X165296222Y-51167380D01*
X165296222Y-51167380D02*
X165477651Y-51167380D01*
X165477651Y-51167380D02*
X165598603Y-51227856D01*
X165598603Y-51227856D02*
X165659080Y-51288333D01*
X165659080Y-51288333D02*
X165719556Y-51409285D01*
X165719556Y-51409285D02*
X165719556Y-51893095D01*
X165175270Y-50683571D02*
X165114794Y-50623095D01*
X165114794Y-50623095D02*
X165054318Y-50502142D01*
X165054318Y-50502142D02*
X165054318Y-50199761D01*
X165054318Y-50199761D02*
X165114794Y-50078809D01*
X165114794Y-50078809D02*
X165175270Y-50018333D01*
X165175270Y-50018333D02*
X165296222Y-49957856D01*
X165296222Y-49957856D02*
X165417175Y-49957856D01*
X165417175Y-49957856D02*
X165598603Y-50018333D01*
X165598603Y-50018333D02*
X166324318Y-50744047D01*
X166324318Y-50744047D02*
X166324318Y-49957856D01*
D11*
X97511333Y-67510819D02*
X97178000Y-67034628D01*
X96939905Y-67510819D02*
X96939905Y-66510819D01*
X96939905Y-66510819D02*
X97320857Y-66510819D01*
X97320857Y-66510819D02*
X97416095Y-66558438D01*
X97416095Y-66558438D02*
X97463714Y-66606057D01*
X97463714Y-66606057D02*
X97511333Y-66701295D01*
X97511333Y-66701295D02*
X97511333Y-66844152D01*
X97511333Y-66844152D02*
X97463714Y-66939390D01*
X97463714Y-66939390D02*
X97416095Y-66987009D01*
X97416095Y-66987009D02*
X97320857Y-67034628D01*
X97320857Y-67034628D02*
X96939905Y-67034628D01*
X98368476Y-66844152D02*
X98368476Y-67510819D01*
X98130381Y-66463200D02*
X97892286Y-67177485D01*
X97892286Y-67177485D02*
X98511333Y-67177485D01*
X100076095Y-47968819D02*
X100076095Y-48778342D01*
X100076095Y-48778342D02*
X100123714Y-48873580D01*
X100123714Y-48873580D02*
X100171333Y-48921200D01*
X100171333Y-48921200D02*
X100266571Y-48968819D01*
X100266571Y-48968819D02*
X100457047Y-48968819D01*
X100457047Y-48968819D02*
X100552285Y-48921200D01*
X100552285Y-48921200D02*
X100599904Y-48873580D01*
X100599904Y-48873580D02*
X100647523Y-48778342D01*
X100647523Y-48778342D02*
X100647523Y-47968819D01*
X101647523Y-48968819D02*
X101076095Y-48968819D01*
X101361809Y-48968819D02*
X101361809Y-47968819D01*
X101361809Y-47968819D02*
X101266571Y-48111676D01*
X101266571Y-48111676D02*
X101171333Y-48206914D01*
X101171333Y-48206914D02*
X101076095Y-48254533D01*
X124557142Y-69559580D02*
X124509523Y-69607200D01*
X124509523Y-69607200D02*
X124366666Y-69654819D01*
X124366666Y-69654819D02*
X124271428Y-69654819D01*
X124271428Y-69654819D02*
X124128571Y-69607200D01*
X124128571Y-69607200D02*
X124033333Y-69511961D01*
X124033333Y-69511961D02*
X123985714Y-69416723D01*
X123985714Y-69416723D02*
X123938095Y-69226247D01*
X123938095Y-69226247D02*
X123938095Y-69083390D01*
X123938095Y-69083390D02*
X123985714Y-68892914D01*
X123985714Y-68892914D02*
X124033333Y-68797676D01*
X124033333Y-68797676D02*
X124128571Y-68702438D01*
X124128571Y-68702438D02*
X124271428Y-68654819D01*
X124271428Y-68654819D02*
X124366666Y-68654819D01*
X124366666Y-68654819D02*
X124509523Y-68702438D01*
X124509523Y-68702438D02*
X124557142Y-68750057D01*
X125509523Y-69654819D02*
X124938095Y-69654819D01*
X125223809Y-69654819D02*
X125223809Y-68654819D01*
X125223809Y-68654819D02*
X125128571Y-68797676D01*
X125128571Y-68797676D02*
X125033333Y-68892914D01*
X125033333Y-68892914D02*
X124938095Y-68940533D01*
X125890476Y-68750057D02*
X125938095Y-68702438D01*
X125938095Y-68702438D02*
X126033333Y-68654819D01*
X126033333Y-68654819D02*
X126271428Y-68654819D01*
X126271428Y-68654819D02*
X126366666Y-68702438D01*
X126366666Y-68702438D02*
X126414285Y-68750057D01*
X126414285Y-68750057D02*
X126461904Y-68845295D01*
X126461904Y-68845295D02*
X126461904Y-68940533D01*
X126461904Y-68940533D02*
X126414285Y-69083390D01*
X126414285Y-69083390D02*
X125842857Y-69654819D01*
X125842857Y-69654819D02*
X126461904Y-69654819D01*
X155277333Y-37097580D02*
X155229714Y-37145200D01*
X155229714Y-37145200D02*
X155086857Y-37192819D01*
X155086857Y-37192819D02*
X154991619Y-37192819D01*
X154991619Y-37192819D02*
X154848762Y-37145200D01*
X154848762Y-37145200D02*
X154753524Y-37049961D01*
X154753524Y-37049961D02*
X154705905Y-36954723D01*
X154705905Y-36954723D02*
X154658286Y-36764247D01*
X154658286Y-36764247D02*
X154658286Y-36621390D01*
X154658286Y-36621390D02*
X154705905Y-36430914D01*
X154705905Y-36430914D02*
X154753524Y-36335676D01*
X154753524Y-36335676D02*
X154848762Y-36240438D01*
X154848762Y-36240438D02*
X154991619Y-36192819D01*
X154991619Y-36192819D02*
X155086857Y-36192819D01*
X155086857Y-36192819D02*
X155229714Y-36240438D01*
X155229714Y-36240438D02*
X155277333Y-36288057D01*
X156229714Y-37192819D02*
X155658286Y-37192819D01*
X155944000Y-37192819D02*
X155944000Y-36192819D01*
X155944000Y-36192819D02*
X155848762Y-36335676D01*
X155848762Y-36335676D02*
X155753524Y-36430914D01*
X155753524Y-36430914D02*
X155658286Y-36478533D01*
X116675819Y-42497333D02*
X117390104Y-42497333D01*
X117390104Y-42497333D02*
X117532961Y-42544952D01*
X117532961Y-42544952D02*
X117628200Y-42640190D01*
X117628200Y-42640190D02*
X117675819Y-42783047D01*
X117675819Y-42783047D02*
X117675819Y-42878285D01*
X117009152Y-41592571D02*
X117675819Y-41592571D01*
X116628200Y-41830666D02*
X117342485Y-42068761D01*
X117342485Y-42068761D02*
X117342485Y-41449714D01*
X123566333Y-48582819D02*
X123233000Y-48106628D01*
X122994905Y-48582819D02*
X122994905Y-47582819D01*
X122994905Y-47582819D02*
X123375857Y-47582819D01*
X123375857Y-47582819D02*
X123471095Y-47630438D01*
X123471095Y-47630438D02*
X123518714Y-47678057D01*
X123518714Y-47678057D02*
X123566333Y-47773295D01*
X123566333Y-47773295D02*
X123566333Y-47916152D01*
X123566333Y-47916152D02*
X123518714Y-48011390D01*
X123518714Y-48011390D02*
X123471095Y-48059009D01*
X123471095Y-48059009D02*
X123375857Y-48106628D01*
X123375857Y-48106628D02*
X122994905Y-48106628D01*
X123899667Y-47582819D02*
X124518714Y-47582819D01*
X124518714Y-47582819D02*
X124185381Y-47963771D01*
X124185381Y-47963771D02*
X124328238Y-47963771D01*
X124328238Y-47963771D02*
X124423476Y-48011390D01*
X124423476Y-48011390D02*
X124471095Y-48059009D01*
X124471095Y-48059009D02*
X124518714Y-48154247D01*
X124518714Y-48154247D02*
X124518714Y-48392342D01*
X124518714Y-48392342D02*
X124471095Y-48487580D01*
X124471095Y-48487580D02*
X124423476Y-48535200D01*
X124423476Y-48535200D02*
X124328238Y-48582819D01*
X124328238Y-48582819D02*
X124042524Y-48582819D01*
X124042524Y-48582819D02*
X123947286Y-48535200D01*
X123947286Y-48535200D02*
X123899667Y-48487580D01*
X170121819Y-38460333D02*
X170836104Y-38460333D01*
X170836104Y-38460333D02*
X170978961Y-38507952D01*
X170978961Y-38507952D02*
X171074200Y-38603190D01*
X171074200Y-38603190D02*
X171121819Y-38746047D01*
X171121819Y-38746047D02*
X171121819Y-38841285D01*
X170217057Y-38031761D02*
X170169438Y-37984142D01*
X170169438Y-37984142D02*
X170121819Y-37888904D01*
X170121819Y-37888904D02*
X170121819Y-37650809D01*
X170121819Y-37650809D02*
X170169438Y-37555571D01*
X170169438Y-37555571D02*
X170217057Y-37507952D01*
X170217057Y-37507952D02*
X170312295Y-37460333D01*
X170312295Y-37460333D02*
X170407533Y-37460333D01*
X170407533Y-37460333D02*
X170550390Y-37507952D01*
X170550390Y-37507952D02*
X171121819Y-38079380D01*
X171121819Y-38079380D02*
X171121819Y-37460333D01*
D13*
%TO.C,C3*%
X120847000Y-65379000D02*
X120847000Y-65134000D01*
X120847000Y-67474000D02*
X120847000Y-67229000D01*
X124487000Y-65134000D02*
X120847000Y-65134000D01*
X124487000Y-65379000D02*
X124487000Y-65134000D01*
X124487000Y-67474000D02*
X120847000Y-67474000D01*
X124487000Y-67474000D02*
X124487000Y-67229000D01*
%TO.C,C9*%
X112837000Y-61234000D02*
X112837000Y-60666000D01*
X112877000Y-61468000D02*
X112877000Y-60432000D01*
X112917000Y-61627000D02*
X112917000Y-60273000D01*
X112957000Y-61755000D02*
X112957000Y-60145000D01*
X112997000Y-61865000D02*
X112997000Y-60035000D01*
X113037000Y-61961000D02*
X113037000Y-59939000D01*
X113077000Y-62048000D02*
X113077000Y-59852000D01*
X113117000Y-62128000D02*
X113117000Y-59772000D01*
X113157000Y-59910000D02*
X113157000Y-59699000D01*
X113157000Y-62201000D02*
X113157000Y-61990000D01*
X113197000Y-59910000D02*
X113197000Y-59631000D01*
X113197000Y-62269000D02*
X113197000Y-61990000D01*
X113237000Y-59910000D02*
X113237000Y-59567000D01*
X113237000Y-62333000D02*
X113237000Y-61990000D01*
X113277000Y-59910000D02*
X113277000Y-59507000D01*
X113277000Y-62393000D02*
X113277000Y-61990000D01*
X113317000Y-59910000D02*
X113317000Y-59450000D01*
X113317000Y-62450000D02*
X113317000Y-61990000D01*
X113357000Y-59910000D02*
X113357000Y-59396000D01*
X113357000Y-62504000D02*
X113357000Y-61990000D01*
X113397000Y-59910000D02*
X113397000Y-59345000D01*
X113397000Y-62555000D02*
X113397000Y-61990000D01*
X113437000Y-59910000D02*
X113437000Y-59297000D01*
X113437000Y-62603000D02*
X113437000Y-61990000D01*
X113477000Y-59910000D02*
X113477000Y-59251000D01*
X113477000Y-62649000D02*
X113477000Y-61990000D01*
X113517000Y-59910000D02*
X113517000Y-59207000D01*
X113517000Y-62693000D02*
X113517000Y-61990000D01*
X113557000Y-59910000D02*
X113557000Y-59165000D01*
X113557000Y-62735000D02*
X113557000Y-61990000D01*
X113597000Y-59910000D02*
X113597000Y-59124000D01*
X113597000Y-62776000D02*
X113597000Y-61990000D01*
X113637000Y-59910000D02*
X113637000Y-59086000D01*
X113637000Y-62814000D02*
X113637000Y-61990000D01*
X113677000Y-59910000D02*
X113677000Y-59049000D01*
X113677000Y-62851000D02*
X113677000Y-61990000D01*
X113717000Y-59910000D02*
X113717000Y-59013000D01*
X113717000Y-62887000D02*
X113717000Y-61990000D01*
X113757000Y-59910000D02*
X113757000Y-58979000D01*
X113757000Y-62921000D02*
X113757000Y-61990000D01*
X113797000Y-59910000D02*
X113797000Y-58946000D01*
X113797000Y-62954000D02*
X113797000Y-61990000D01*
X113837000Y-59910000D02*
X113837000Y-58915000D01*
X113837000Y-62985000D02*
X113837000Y-61990000D01*
X113877000Y-59910000D02*
X113877000Y-58885000D01*
X113877000Y-63015000D02*
X113877000Y-61990000D01*
X113917000Y-59910000D02*
X113917000Y-58855000D01*
X113917000Y-63045000D02*
X113917000Y-61990000D01*
X113957000Y-59910000D02*
X113957000Y-58828000D01*
X113957000Y-63072000D02*
X113957000Y-61990000D01*
X113997000Y-59910000D02*
X113997000Y-58801000D01*
X113997000Y-63099000D02*
X113997000Y-61990000D01*
X114037000Y-59910000D02*
X114037000Y-58775000D01*
X114037000Y-63125000D02*
X114037000Y-61990000D01*
X114077000Y-59910000D02*
X114077000Y-58750000D01*
X114077000Y-63150000D02*
X114077000Y-61990000D01*
X114117000Y-59910000D02*
X114117000Y-58726000D01*
X114117000Y-63174000D02*
X114117000Y-61990000D01*
X114157000Y-59910000D02*
X114157000Y-58703000D01*
X114157000Y-63197000D02*
X114157000Y-61990000D01*
X114197000Y-59910000D02*
X114197000Y-58682000D01*
X114197000Y-63218000D02*
X114197000Y-61990000D01*
X114237000Y-59910000D02*
X114237000Y-58660000D01*
X114237000Y-63240000D02*
X114237000Y-61990000D01*
X114277000Y-59910000D02*
X114277000Y-58640000D01*
X114277000Y-63260000D02*
X114277000Y-61990000D01*
X114317000Y-59910000D02*
X114317000Y-58621000D01*
X114317000Y-63279000D02*
X114317000Y-61990000D01*
X114357000Y-59910000D02*
X114357000Y-58602000D01*
X114357000Y-63298000D02*
X114357000Y-61990000D01*
X114397000Y-59910000D02*
X114397000Y-58585000D01*
X114397000Y-63315000D02*
X114397000Y-61990000D01*
X114437000Y-59910000D02*
X114437000Y-58568000D01*
X114437000Y-63332000D02*
X114437000Y-61990000D01*
X114477000Y-59910000D02*
X114477000Y-58552000D01*
X114477000Y-63348000D02*
X114477000Y-61990000D01*
X114517000Y-59910000D02*
X114517000Y-58536000D01*
X114517000Y-63364000D02*
X114517000Y-61990000D01*
X114557000Y-59910000D02*
X114557000Y-58522000D01*
X114557000Y-63378000D02*
X114557000Y-61990000D01*
X114597000Y-59910000D02*
X114597000Y-58508000D01*
X114597000Y-63392000D02*
X114597000Y-61990000D01*
X114637000Y-59910000D02*
X114637000Y-58495000D01*
X114637000Y-63405000D02*
X114637000Y-61990000D01*
X114677000Y-59910000D02*
X114677000Y-58482000D01*
X114677000Y-63418000D02*
X114677000Y-61990000D01*
X114717000Y-59910000D02*
X114717000Y-58470000D01*
X114717000Y-63430000D02*
X114717000Y-61990000D01*
X114758000Y-59910000D02*
X114758000Y-58459000D01*
X114758000Y-63441000D02*
X114758000Y-61990000D01*
X114798000Y-59910000D02*
X114798000Y-58449000D01*
X114798000Y-63451000D02*
X114798000Y-61990000D01*
X114838000Y-59910000D02*
X114838000Y-58439000D01*
X114838000Y-63461000D02*
X114838000Y-61990000D01*
X114878000Y-59910000D02*
X114878000Y-58430000D01*
X114878000Y-63470000D02*
X114878000Y-61990000D01*
X114918000Y-59910000D02*
X114918000Y-58422000D01*
X114918000Y-63478000D02*
X114918000Y-61990000D01*
X114958000Y-59910000D02*
X114958000Y-58414000D01*
X114958000Y-63486000D02*
X114958000Y-61990000D01*
X114998000Y-59910000D02*
X114998000Y-58407000D01*
X114998000Y-63493000D02*
X114998000Y-61990000D01*
X115038000Y-59910000D02*
X115038000Y-58400000D01*
X115038000Y-63500000D02*
X115038000Y-61990000D01*
X115078000Y-59910000D02*
X115078000Y-58394000D01*
X115078000Y-63506000D02*
X115078000Y-61990000D01*
X115118000Y-59910000D02*
X115118000Y-58389000D01*
X115118000Y-63511000D02*
X115118000Y-61990000D01*
X115158000Y-59910000D02*
X115158000Y-58385000D01*
X115158000Y-63515000D02*
X115158000Y-61990000D01*
X115198000Y-59910000D02*
X115198000Y-58381000D01*
X115198000Y-63519000D02*
X115198000Y-61990000D01*
X115238000Y-63523000D02*
X115238000Y-58377000D01*
X115278000Y-63526000D02*
X115278000Y-58374000D01*
X115318000Y-63528000D02*
X115318000Y-58372000D01*
X115358000Y-63529000D02*
X115358000Y-58371000D01*
X115398000Y-63530000D02*
X115398000Y-58370000D01*
X115438000Y-63530000D02*
X115438000Y-58370000D01*
X117992775Y-62675000D02*
X117992775Y-62175000D01*
X118242775Y-62425000D02*
X117742775Y-62425000D01*
X118058000Y-60950000D02*
G75*
G02*
X112818000Y-60950000I-2620000J0D01*
G01*
X112818000Y-60950000D02*
G75*
G02*
X118058000Y-60950000I2620000J0D01*
G01*
%TO.C,R5*%
X98140000Y-55997000D02*
X98760000Y-55997000D01*
X98140000Y-55997000D02*
G75*
G02*
X96300000Y-55997000I-920000J0D01*
G01*
X96300000Y-55997000D02*
G75*
G02*
X98140000Y-55997000I920000J0D01*
G01*
%TO.C,J3*%
X144605000Y-36645000D02*
X144605000Y-39305000D01*
X149745000Y-36645000D02*
X144605000Y-36645000D01*
X149745000Y-36645000D02*
X149745000Y-39305000D01*
X149745000Y-39305000D02*
X144605000Y-39305000D01*
X152345000Y-37975000D02*
X152345000Y-39305000D01*
X152345000Y-39305000D02*
X151015000Y-39305000D01*
%TO.C,J5*%
X99635000Y-73847000D02*
X99635000Y-72517000D01*
X100965000Y-73847000D02*
X99635000Y-73847000D01*
X102235000Y-71187000D02*
X114995000Y-71187000D01*
X102235000Y-73847000D02*
X102235000Y-71187000D01*
X102235000Y-73847000D02*
X114995000Y-73847000D01*
X114995000Y-73847000D02*
X114995000Y-71187000D01*
%TO.C,IC3*%
X129434000Y-43638000D02*
X129434000Y-53918000D01*
X129434000Y-53918000D02*
X133934000Y-53918000D01*
X130684000Y-43638000D02*
X129434000Y-43638000D01*
X133934000Y-43638000D02*
X132684000Y-43638000D01*
X133934000Y-53918000D02*
X133934000Y-43638000D01*
X132684000Y-43638000D02*
G75*
G02*
X130684000Y-43638000I-1000000J0D01*
G01*
%TO.C,R2*%
X139462000Y-63510000D02*
X140082000Y-63510000D01*
X139462000Y-63510000D02*
G75*
G02*
X137622000Y-63510000I-920000J0D01*
G01*
X137622000Y-63510000D02*
G75*
G02*
X139462000Y-63510000I920000J0D01*
G01*
%TO.C,D2*%
X92440000Y-53470000D02*
X89160000Y-53470000D01*
X90799949Y-59070000D02*
G75*
G02*
X89160488Y-53470000I51J3040000D01*
G01*
X92439512Y-53470000D02*
G75*
G02*
X90800051Y-59070000I-1639512J-2560000D01*
G01*
X93300000Y-56030000D02*
G75*
G02*
X88300000Y-56030000I-2500000J0D01*
G01*
X88300000Y-56030000D02*
G75*
G02*
X93300000Y-56030000I2500000J0D01*
G01*
%TO.C,R12*%
X96980000Y-40500000D02*
X96360000Y-40500000D01*
X98820000Y-40500000D02*
G75*
G02*
X96980000Y-40500000I-920000J0D01*
G01*
X96980000Y-40500000D02*
G75*
G02*
X98820000Y-40500000I920000J0D01*
G01*
%TO.C,R11*%
X114777000Y-53500000D02*
X115397000Y-53500000D01*
X114777000Y-53500000D02*
G75*
G02*
X112937000Y-53500000I-920000J0D01*
G01*
X112937000Y-53500000D02*
G75*
G02*
X114777000Y-53500000I920000J0D01*
G01*
%TO.C,C8*%
X95147225Y-59358000D02*
X95647225Y-59358000D01*
X95397225Y-59108000D02*
X95397225Y-59608000D01*
X97952000Y-58253000D02*
X97952000Y-63413000D01*
X97992000Y-58253000D02*
X97992000Y-63413000D01*
X98032000Y-58254000D02*
X98032000Y-63412000D01*
X98072000Y-58255000D02*
X98072000Y-63411000D01*
X98112000Y-58257000D02*
X98112000Y-63409000D01*
X98152000Y-58260000D02*
X98152000Y-63406000D01*
X98192000Y-58264000D02*
X98192000Y-59793000D01*
X98192000Y-61873000D02*
X98192000Y-63402000D01*
X98232000Y-58268000D02*
X98232000Y-59793000D01*
X98232000Y-61873000D02*
X98232000Y-63398000D01*
X98272000Y-58272000D02*
X98272000Y-59793000D01*
X98272000Y-61873000D02*
X98272000Y-63394000D01*
X98312000Y-58277000D02*
X98312000Y-59793000D01*
X98312000Y-61873000D02*
X98312000Y-63389000D01*
X98352000Y-58283000D02*
X98352000Y-59793000D01*
X98352000Y-61873000D02*
X98352000Y-63383000D01*
X98392000Y-58290000D02*
X98392000Y-59793000D01*
X98392000Y-61873000D02*
X98392000Y-63376000D01*
X98432000Y-58297000D02*
X98432000Y-59793000D01*
X98432000Y-61873000D02*
X98432000Y-63369000D01*
X98472000Y-58305000D02*
X98472000Y-59793000D01*
X98472000Y-61873000D02*
X98472000Y-63361000D01*
X98512000Y-58313000D02*
X98512000Y-59793000D01*
X98512000Y-61873000D02*
X98512000Y-63353000D01*
X98552000Y-58322000D02*
X98552000Y-59793000D01*
X98552000Y-61873000D02*
X98552000Y-63344000D01*
X98592000Y-58332000D02*
X98592000Y-59793000D01*
X98592000Y-61873000D02*
X98592000Y-63334000D01*
X98632000Y-58342000D02*
X98632000Y-59793000D01*
X98632000Y-61873000D02*
X98632000Y-63324000D01*
X98673000Y-58353000D02*
X98673000Y-59793000D01*
X98673000Y-61873000D02*
X98673000Y-63313000D01*
X98713000Y-58365000D02*
X98713000Y-59793000D01*
X98713000Y-61873000D02*
X98713000Y-63301000D01*
X98753000Y-58378000D02*
X98753000Y-59793000D01*
X98753000Y-61873000D02*
X98753000Y-63288000D01*
X98793000Y-58391000D02*
X98793000Y-59793000D01*
X98793000Y-61873000D02*
X98793000Y-63275000D01*
X98833000Y-58405000D02*
X98833000Y-59793000D01*
X98833000Y-61873000D02*
X98833000Y-63261000D01*
X98873000Y-58419000D02*
X98873000Y-59793000D01*
X98873000Y-61873000D02*
X98873000Y-63247000D01*
X98913000Y-58435000D02*
X98913000Y-59793000D01*
X98913000Y-61873000D02*
X98913000Y-63231000D01*
X98953000Y-58451000D02*
X98953000Y-59793000D01*
X98953000Y-61873000D02*
X98953000Y-63215000D01*
X98993000Y-58468000D02*
X98993000Y-59793000D01*
X98993000Y-61873000D02*
X98993000Y-63198000D01*
X99033000Y-58485000D02*
X99033000Y-59793000D01*
X99033000Y-61873000D02*
X99033000Y-63181000D01*
X99073000Y-58504000D02*
X99073000Y-59793000D01*
X99073000Y-61873000D02*
X99073000Y-63162000D01*
X99113000Y-58523000D02*
X99113000Y-59793000D01*
X99113000Y-61873000D02*
X99113000Y-63143000D01*
X99153000Y-58543000D02*
X99153000Y-59793000D01*
X99153000Y-61873000D02*
X99153000Y-63123000D01*
X99193000Y-58565000D02*
X99193000Y-59793000D01*
X99193000Y-61873000D02*
X99193000Y-63101000D01*
X99233000Y-58586000D02*
X99233000Y-59793000D01*
X99233000Y-61873000D02*
X99233000Y-63080000D01*
X99273000Y-58609000D02*
X99273000Y-59793000D01*
X99273000Y-61873000D02*
X99273000Y-63057000D01*
X99313000Y-58633000D02*
X99313000Y-59793000D01*
X99313000Y-61873000D02*
X99313000Y-63033000D01*
X99353000Y-58658000D02*
X99353000Y-59793000D01*
X99353000Y-61873000D02*
X99353000Y-63008000D01*
X99393000Y-58684000D02*
X99393000Y-59793000D01*
X99393000Y-61873000D02*
X99393000Y-62982000D01*
X99433000Y-58711000D02*
X99433000Y-59793000D01*
X99433000Y-61873000D02*
X99433000Y-62955000D01*
X99473000Y-58738000D02*
X99473000Y-59793000D01*
X99473000Y-61873000D02*
X99473000Y-62928000D01*
X99513000Y-58768000D02*
X99513000Y-59793000D01*
X99513000Y-61873000D02*
X99513000Y-62898000D01*
X99553000Y-58798000D02*
X99553000Y-59793000D01*
X99553000Y-61873000D02*
X99553000Y-62868000D01*
X99593000Y-58829000D02*
X99593000Y-59793000D01*
X99593000Y-61873000D02*
X99593000Y-62837000D01*
X99633000Y-58862000D02*
X99633000Y-59793000D01*
X99633000Y-61873000D02*
X99633000Y-62804000D01*
X99673000Y-58896000D02*
X99673000Y-59793000D01*
X99673000Y-61873000D02*
X99673000Y-62770000D01*
X99713000Y-58932000D02*
X99713000Y-59793000D01*
X99713000Y-61873000D02*
X99713000Y-62734000D01*
X99753000Y-58969000D02*
X99753000Y-59793000D01*
X99753000Y-61873000D02*
X99753000Y-62697000D01*
X99793000Y-59007000D02*
X99793000Y-59793000D01*
X99793000Y-61873000D02*
X99793000Y-62659000D01*
X99833000Y-59048000D02*
X99833000Y-59793000D01*
X99833000Y-61873000D02*
X99833000Y-62618000D01*
X99873000Y-59090000D02*
X99873000Y-59793000D01*
X99873000Y-61873000D02*
X99873000Y-62576000D01*
X99913000Y-59134000D02*
X99913000Y-59793000D01*
X99913000Y-61873000D02*
X99913000Y-62532000D01*
X99953000Y-59180000D02*
X99953000Y-59793000D01*
X99953000Y-61873000D02*
X99953000Y-62486000D01*
X99993000Y-59228000D02*
X99993000Y-59793000D01*
X99993000Y-61873000D02*
X99993000Y-62438000D01*
X100033000Y-59279000D02*
X100033000Y-59793000D01*
X100033000Y-61873000D02*
X100033000Y-62387000D01*
X100073000Y-59333000D02*
X100073000Y-59793000D01*
X100073000Y-61873000D02*
X100073000Y-62333000D01*
X100113000Y-59390000D02*
X100113000Y-59793000D01*
X100113000Y-61873000D02*
X100113000Y-62276000D01*
X100153000Y-59450000D02*
X100153000Y-59793000D01*
X100153000Y-61873000D02*
X100153000Y-62216000D01*
X100193000Y-59514000D02*
X100193000Y-59793000D01*
X100193000Y-61873000D02*
X100193000Y-62152000D01*
X100233000Y-59582000D02*
X100233000Y-59793000D01*
X100233000Y-61873000D02*
X100233000Y-62084000D01*
X100273000Y-59655000D02*
X100273000Y-62011000D01*
X100313000Y-59735000D02*
X100313000Y-61931000D01*
X100353000Y-59822000D02*
X100353000Y-61844000D01*
X100393000Y-59918000D02*
X100393000Y-61748000D01*
X100433000Y-60028000D02*
X100433000Y-61638000D01*
X100473000Y-60156000D02*
X100473000Y-61510000D01*
X100513000Y-60315000D02*
X100513000Y-61351000D01*
X100553000Y-60549000D02*
X100553000Y-61117000D01*
X100572000Y-60833000D02*
G75*
G02*
X95332000Y-60833000I-2620000J0D01*
G01*
X95332000Y-60833000D02*
G75*
G02*
X100572000Y-60833000I2620000J0D01*
G01*
%TO.C,R1*%
X122444000Y-63510000D02*
X123064000Y-63510000D01*
X122444000Y-63510000D02*
G75*
G02*
X120604000Y-63510000I-920000J0D01*
G01*
X120604000Y-63510000D02*
G75*
G02*
X122444000Y-63510000I920000J0D01*
G01*
%TO.C,R13*%
X92500000Y-49920000D02*
X92500000Y-50540000D01*
X93420000Y-49000000D02*
G75*
G02*
X91580000Y-49000000I-920000J0D01*
G01*
X91580000Y-49000000D02*
G75*
G02*
X93420000Y-49000000I920000J0D01*
G01*
%TO.C,R6*%
X98740000Y-53711000D02*
X98120000Y-53711000D01*
X100580000Y-53711000D02*
G75*
G02*
X98740000Y-53711000I-920000J0D01*
G01*
X98740000Y-53711000D02*
G75*
G02*
X100580000Y-53711000I920000J0D01*
G01*
D14*
%TO.C,VR1*%
X158500000Y-62600000D02*
X161500000Y-62600000D01*
X158500000Y-72400000D02*
X158500000Y-62600000D01*
X161500000Y-72400000D02*
X158500000Y-72400000D01*
X166750000Y-72400000D02*
X169500000Y-72400000D01*
X169500000Y-62600000D02*
X166750000Y-62600000D01*
X169500000Y-72400000D02*
X169500000Y-62600000D01*
D10*
X172900000Y-70000000D02*
X172900000Y-70000000D01*
X172900000Y-70000000D02*
X172900000Y-70000000D01*
X173000000Y-70000000D02*
X173000000Y-70000000D01*
X172900000Y-70000000D02*
G75*
G02*
X173000000Y-70000000I50000J0D01*
G01*
X173000000Y-70000000D02*
G75*
G02*
X172900000Y-70000000I-50000J0D01*
G01*
X173000000Y-70000000D02*
G75*
G02*
X172900000Y-70000000I-50000J0D01*
G01*
D13*
%TO.C,J1*%
X134433000Y-76116000D02*
X134433000Y-78776000D01*
X134433000Y-78776000D02*
X147253000Y-78776000D01*
X135383000Y-75718929D02*
X135383000Y-76116000D01*
X135383000Y-84776000D02*
X135383000Y-78776000D01*
X136143000Y-75718929D02*
X136143000Y-76116000D01*
X136143000Y-78776000D02*
X136143000Y-84776000D01*
X136143000Y-84776000D02*
X135383000Y-84776000D01*
X137033000Y-76116000D02*
X137033000Y-78776000D01*
X137923000Y-75718929D02*
X137923000Y-76116000D01*
X137923000Y-84776000D02*
X137923000Y-78776000D01*
X138683000Y-75718929D02*
X138683000Y-76116000D01*
X138683000Y-78776000D02*
X138683000Y-84776000D01*
X138683000Y-84776000D02*
X137923000Y-84776000D01*
X139573000Y-76116000D02*
X139573000Y-78776000D01*
X140463000Y-75718929D02*
X140463000Y-76116000D01*
X140463000Y-84776000D02*
X140463000Y-78776000D01*
X141223000Y-75718929D02*
X141223000Y-76116000D01*
X141223000Y-78776000D02*
X141223000Y-84776000D01*
X141223000Y-84776000D02*
X140463000Y-84776000D01*
X142113000Y-76116000D02*
X142113000Y-78776000D01*
X143003000Y-75718929D02*
X143003000Y-76116000D01*
X143003000Y-84776000D02*
X143003000Y-78776000D01*
X143763000Y-75718929D02*
X143763000Y-76116000D01*
X143763000Y-78776000D02*
X143763000Y-84776000D01*
X143763000Y-84776000D02*
X143003000Y-84776000D01*
X144653000Y-76116000D02*
X144653000Y-78776000D01*
X145543000Y-75786000D02*
X145543000Y-76116000D01*
X145543000Y-84776000D02*
X145543000Y-78776000D01*
X145643000Y-78776000D02*
X145643000Y-84776000D01*
X145763000Y-78776000D02*
X145763000Y-84776000D01*
X145883000Y-78776000D02*
X145883000Y-84776000D01*
X145923000Y-73406000D02*
X147193000Y-73406000D01*
X146003000Y-78776000D02*
X146003000Y-84776000D01*
X146123000Y-78776000D02*
X146123000Y-84776000D01*
X146243000Y-78776000D02*
X146243000Y-84776000D01*
X146303000Y-75786000D02*
X146303000Y-76116000D01*
X146303000Y-78776000D02*
X146303000Y-84776000D01*
X146303000Y-84776000D02*
X145543000Y-84776000D01*
X147193000Y-73406000D02*
X147193000Y-74676000D01*
X147253000Y-76116000D02*
X134433000Y-76116000D01*
X147253000Y-78776000D02*
X147253000Y-76116000D01*
%TO.C,IC2*%
X128926000Y-57100000D02*
X128926000Y-67380000D01*
X128926000Y-67380000D02*
X133426000Y-67380000D01*
X130176000Y-57100000D02*
X128926000Y-57100000D01*
X133426000Y-57100000D02*
X132176000Y-57100000D01*
X133426000Y-67380000D02*
X133426000Y-57100000D01*
X132176000Y-57100000D02*
G75*
G02*
X130176000Y-57100000I-1000000J0D01*
G01*
%TO.C,Q1*%
X92130000Y-46650000D02*
X95730000Y-46650000D01*
X92118125Y-46641741D02*
G75*
G02*
X93110000Y-42350000I1811875J1841741D01*
G01*
X94710000Y-42350000D02*
G75*
G02*
X95738445Y-46627684I-780000J-2450000D01*
G01*
%TO.C,R9*%
X115539000Y-65141000D02*
X116159000Y-65141000D01*
X115539000Y-65141000D02*
G75*
G02*
X113699000Y-65141000I-920000J0D01*
G01*
X113699000Y-65141000D02*
G75*
G02*
X115539000Y-65141000I920000J0D01*
G01*
%TO.C,R7*%
X98620000Y-50000000D02*
X98000000Y-50000000D01*
X100460000Y-50000000D02*
G75*
G02*
X98620000Y-50000000I-920000J0D01*
G01*
X98620000Y-50000000D02*
G75*
G02*
X100460000Y-50000000I920000J0D01*
G01*
%TO.C,R14*%
X133900000Y-69100000D02*
X134520000Y-69100000D01*
X133900000Y-69100000D02*
G75*
G02*
X132060000Y-69100000I-920000J0D01*
G01*
X132060000Y-69100000D02*
G75*
G02*
X133900000Y-69100000I920000J0D01*
G01*
%TO.C,R8*%
X114777000Y-51298000D02*
X115397000Y-51298000D01*
X114777000Y-51298000D02*
G75*
G02*
X112937000Y-51298000I-920000J0D01*
G01*
X112937000Y-51298000D02*
G75*
G02*
X114777000Y-51298000I920000J0D01*
G01*
%TO.C,IC1*%
X145690000Y-47956000D02*
X145690000Y-65856000D01*
X145690000Y-65856000D02*
X150190000Y-65856000D01*
X146940000Y-47956000D02*
X145690000Y-47956000D01*
X150190000Y-47956000D02*
X148940000Y-47956000D01*
X150190000Y-65856000D02*
X150190000Y-47956000D01*
X148940000Y-47956000D02*
G75*
G02*
X146940000Y-47956000I-1000000J0D01*
G01*
%TO.C,C5*%
X121736000Y-51663000D02*
X121736000Y-51418000D01*
X121736000Y-53758000D02*
X121736000Y-53513000D01*
X125376000Y-51418000D02*
X121736000Y-51418000D01*
X125376000Y-51663000D02*
X125376000Y-51418000D01*
X125376000Y-53758000D02*
X121736000Y-53758000D01*
X125376000Y-53758000D02*
X125376000Y-53513000D01*
%TO.C,R10*%
X115380000Y-55800000D02*
X114760000Y-55800000D01*
X117220000Y-55800000D02*
G75*
G02*
X115380000Y-55800000I-920000J0D01*
G01*
X115380000Y-55800000D02*
G75*
G02*
X117220000Y-55800000I920000J0D01*
G01*
%TO.C,R15*%
X128720000Y-71700000D02*
X129340000Y-71700000D01*
X128720000Y-71700000D02*
G75*
G02*
X126880000Y-71700000I-920000J0D01*
G01*
X126880000Y-71700000D02*
G75*
G02*
X128720000Y-71700000I920000J0D01*
G01*
%TO.C,C4*%
X137865000Y-65007000D02*
X137865000Y-65252000D01*
X137865000Y-65007000D02*
X141505000Y-65007000D01*
X137865000Y-67102000D02*
X137865000Y-67347000D01*
X137865000Y-67347000D02*
X141505000Y-67347000D01*
X141505000Y-65007000D02*
X141505000Y-65252000D01*
X141505000Y-67102000D02*
X141505000Y-67347000D01*
D14*
%TO.C,VR2*%
X158500000Y-46600000D02*
X161500000Y-46600000D01*
X158500000Y-56400000D02*
X158500000Y-46600000D01*
X161500000Y-56400000D02*
X158500000Y-56400000D01*
X166750000Y-56400000D02*
X169500000Y-56400000D01*
X169500000Y-46600000D02*
X166750000Y-46600000D01*
X169500000Y-56400000D02*
X169500000Y-46600000D01*
D10*
X172900000Y-54000000D02*
X172900000Y-54000000D01*
X172900000Y-54000000D02*
X172900000Y-54000000D01*
X173000000Y-54000000D02*
X173000000Y-54000000D01*
X172900000Y-54000000D02*
G75*
G02*
X173000000Y-54000000I50000J0D01*
G01*
X173000000Y-54000000D02*
G75*
G02*
X172900000Y-54000000I-50000J0D01*
G01*
X173000000Y-54000000D02*
G75*
G02*
X172900000Y-54000000I-50000J0D01*
G01*
D13*
%TO.C,R4*%
X97378000Y-65151000D02*
X97998000Y-65151000D01*
X97378000Y-65151000D02*
G75*
G02*
X95538000Y-65151000I-920000J0D01*
G01*
X95538000Y-65151000D02*
G75*
G02*
X97378000Y-65151000I920000J0D01*
G01*
%TO.C,U1*%
X104557000Y-50105000D02*
X104557000Y-60385000D01*
X104557000Y-60385000D02*
X109057000Y-60385000D01*
X105807000Y-50105000D02*
X104557000Y-50105000D01*
X109057000Y-50105000D02*
X107807000Y-50105000D01*
X109057000Y-60385000D02*
X109057000Y-50105000D01*
X107807000Y-50105000D02*
G75*
G02*
X105807000Y-50105000I-1000000J0D01*
G01*
%TO.C,C12*%
X127230000Y-67930000D02*
X130870000Y-67930000D01*
X127230000Y-68230000D02*
X127230000Y-67930000D01*
X127230000Y-70270000D02*
X127230000Y-69970000D01*
X130870000Y-67930000D02*
X130870000Y-68230000D01*
X130870000Y-69970000D02*
X130870000Y-70270000D01*
X130870000Y-70270000D02*
X127230000Y-70270000D01*
%TO.C,C1*%
X157960000Y-38990000D02*
X156431000Y-38990000D01*
X157960000Y-39030000D02*
X156435000Y-39030000D01*
X157960000Y-39070000D02*
X156439000Y-39070000D01*
X157960000Y-39110000D02*
X156444000Y-39110000D01*
X157960000Y-39150000D02*
X156450000Y-39150000D01*
X157960000Y-39190000D02*
X156457000Y-39190000D01*
X157960000Y-39230000D02*
X156464000Y-39230000D01*
X157960000Y-39270000D02*
X156472000Y-39270000D01*
X157960000Y-39310000D02*
X156480000Y-39310000D01*
X157960000Y-39350000D02*
X156489000Y-39350000D01*
X157960000Y-39390000D02*
X156499000Y-39390000D01*
X157960000Y-39430000D02*
X156509000Y-39430000D01*
X157960000Y-39471000D02*
X156520000Y-39471000D01*
X157960000Y-39511000D02*
X156532000Y-39511000D01*
X157960000Y-39551000D02*
X156545000Y-39551000D01*
X157960000Y-39591000D02*
X156558000Y-39591000D01*
X157960000Y-39631000D02*
X156572000Y-39631000D01*
X157960000Y-39671000D02*
X156586000Y-39671000D01*
X157960000Y-39711000D02*
X156602000Y-39711000D01*
X157960000Y-39751000D02*
X156618000Y-39751000D01*
X157960000Y-39791000D02*
X156635000Y-39791000D01*
X157960000Y-39831000D02*
X156652000Y-39831000D01*
X157960000Y-39871000D02*
X156671000Y-39871000D01*
X157960000Y-39911000D02*
X156690000Y-39911000D01*
X157960000Y-39951000D02*
X156710000Y-39951000D01*
X157960000Y-39991000D02*
X156732000Y-39991000D01*
X157960000Y-40031000D02*
X156753000Y-40031000D01*
X157960000Y-40071000D02*
X156776000Y-40071000D01*
X157960000Y-40111000D02*
X156800000Y-40111000D01*
X157960000Y-40151000D02*
X156825000Y-40151000D01*
X157960000Y-40191000D02*
X156851000Y-40191000D01*
X157960000Y-40231000D02*
X156878000Y-40231000D01*
X157960000Y-40271000D02*
X156905000Y-40271000D01*
X157960000Y-40311000D02*
X156935000Y-40311000D01*
X157960000Y-40351000D02*
X156965000Y-40351000D01*
X157960000Y-40391000D02*
X156996000Y-40391000D01*
X157960000Y-40431000D02*
X157029000Y-40431000D01*
X157960000Y-40471000D02*
X157063000Y-40471000D01*
X157960000Y-40511000D02*
X157099000Y-40511000D01*
X157960000Y-40551000D02*
X157136000Y-40551000D01*
X157960000Y-40591000D02*
X157174000Y-40591000D01*
X157960000Y-40631000D02*
X157215000Y-40631000D01*
X157960000Y-40671000D02*
X157257000Y-40671000D01*
X157960000Y-40711000D02*
X157301000Y-40711000D01*
X157960000Y-40751000D02*
X157347000Y-40751000D01*
X157960000Y-40791000D02*
X157395000Y-40791000D01*
X157960000Y-40831000D02*
X157446000Y-40831000D01*
X157960000Y-40871000D02*
X157500000Y-40871000D01*
X157960000Y-40911000D02*
X157557000Y-40911000D01*
X157960000Y-40951000D02*
X157617000Y-40951000D01*
X157960000Y-40991000D02*
X157681000Y-40991000D01*
X157960000Y-41031000D02*
X157749000Y-41031000D01*
X159284000Y-41351000D02*
X158716000Y-41351000D01*
X159518000Y-41311000D02*
X158482000Y-41311000D01*
X159677000Y-41271000D02*
X158323000Y-41271000D01*
X159805000Y-41231000D02*
X158195000Y-41231000D01*
X159915000Y-41191000D02*
X158085000Y-41191000D01*
X160011000Y-41151000D02*
X157989000Y-41151000D01*
X160098000Y-41111000D02*
X157902000Y-41111000D01*
X160178000Y-41071000D02*
X157822000Y-41071000D01*
X160251000Y-41031000D02*
X160040000Y-41031000D01*
X160319000Y-40991000D02*
X160040000Y-40991000D01*
X160383000Y-40951000D02*
X160040000Y-40951000D01*
X160443000Y-40911000D02*
X160040000Y-40911000D01*
X160475000Y-35945225D02*
X160475000Y-36445225D01*
X160500000Y-40871000D02*
X160040000Y-40871000D01*
X160554000Y-40831000D02*
X160040000Y-40831000D01*
X160605000Y-40791000D02*
X160040000Y-40791000D01*
X160653000Y-40751000D02*
X160040000Y-40751000D01*
X160699000Y-40711000D02*
X160040000Y-40711000D01*
X160725000Y-36195225D02*
X160225000Y-36195225D01*
X160743000Y-40671000D02*
X160040000Y-40671000D01*
X160785000Y-40631000D02*
X160040000Y-40631000D01*
X160826000Y-40591000D02*
X160040000Y-40591000D01*
X160864000Y-40551000D02*
X160040000Y-40551000D01*
X160901000Y-40511000D02*
X160040000Y-40511000D01*
X160937000Y-40471000D02*
X160040000Y-40471000D01*
X160971000Y-40431000D02*
X160040000Y-40431000D01*
X161004000Y-40391000D02*
X160040000Y-40391000D01*
X161035000Y-40351000D02*
X160040000Y-40351000D01*
X161065000Y-40311000D02*
X160040000Y-40311000D01*
X161095000Y-40271000D02*
X160040000Y-40271000D01*
X161122000Y-40231000D02*
X160040000Y-40231000D01*
X161149000Y-40191000D02*
X160040000Y-40191000D01*
X161175000Y-40151000D02*
X160040000Y-40151000D01*
X161200000Y-40111000D02*
X160040000Y-40111000D01*
X161224000Y-40071000D02*
X160040000Y-40071000D01*
X161247000Y-40031000D02*
X160040000Y-40031000D01*
X161268000Y-39991000D02*
X160040000Y-39991000D01*
X161290000Y-39951000D02*
X160040000Y-39951000D01*
X161310000Y-39911000D02*
X160040000Y-39911000D01*
X161329000Y-39871000D02*
X160040000Y-39871000D01*
X161348000Y-39831000D02*
X160040000Y-39831000D01*
X161365000Y-39791000D02*
X160040000Y-39791000D01*
X161382000Y-39751000D02*
X160040000Y-39751000D01*
X161398000Y-39711000D02*
X160040000Y-39711000D01*
X161414000Y-39671000D02*
X160040000Y-39671000D01*
X161428000Y-39631000D02*
X160040000Y-39631000D01*
X161442000Y-39591000D02*
X160040000Y-39591000D01*
X161455000Y-39551000D02*
X160040000Y-39551000D01*
X161468000Y-39511000D02*
X160040000Y-39511000D01*
X161480000Y-39471000D02*
X160040000Y-39471000D01*
X161491000Y-39430000D02*
X160040000Y-39430000D01*
X161501000Y-39390000D02*
X160040000Y-39390000D01*
X161511000Y-39350000D02*
X160040000Y-39350000D01*
X161520000Y-39310000D02*
X160040000Y-39310000D01*
X161528000Y-39270000D02*
X160040000Y-39270000D01*
X161536000Y-39230000D02*
X160040000Y-39230000D01*
X161543000Y-39190000D02*
X160040000Y-39190000D01*
X161550000Y-39150000D02*
X160040000Y-39150000D01*
X161556000Y-39110000D02*
X160040000Y-39110000D01*
X161561000Y-39070000D02*
X160040000Y-39070000D01*
X161565000Y-39030000D02*
X160040000Y-39030000D01*
X161569000Y-38990000D02*
X160040000Y-38990000D01*
X161573000Y-38950000D02*
X156427000Y-38950000D01*
X161576000Y-38910000D02*
X156424000Y-38910000D01*
X161578000Y-38870000D02*
X156422000Y-38870000D01*
X161579000Y-38830000D02*
X156421000Y-38830000D01*
X161580000Y-38750000D02*
X156420000Y-38750000D01*
X161580000Y-38790000D02*
X156420000Y-38790000D01*
X161620000Y-38750000D02*
G75*
G02*
X156380000Y-38750000I-2620000J0D01*
G01*
X156380000Y-38750000D02*
G75*
G02*
X161620000Y-38750000I2620000J0D01*
G01*
%TO.C,J4*%
X100397000Y-39437000D02*
X101727000Y-39437000D01*
X100397000Y-40767000D02*
X100397000Y-39437000D01*
X100397000Y-42037000D02*
X102997000Y-42037000D01*
X100397000Y-44637000D02*
X100397000Y-42037000D01*
X100397000Y-44637000D02*
X115757000Y-44637000D01*
X102997000Y-39437000D02*
X115757000Y-39437000D01*
X102997000Y-42037000D02*
X102997000Y-39437000D01*
X115757000Y-44637000D02*
X115757000Y-39437000D01*
%TO.C,R3*%
X123383000Y-50048000D02*
X124003000Y-50048000D01*
X123383000Y-50048000D02*
G75*
G02*
X121543000Y-50048000I-920000J0D01*
G01*
X121543000Y-50048000D02*
G75*
G02*
X123383000Y-50048000I920000J0D01*
G01*
%TO.C,J2*%
X164130000Y-36670000D02*
X165460000Y-36670000D01*
X164130000Y-38000000D02*
X164130000Y-36670000D01*
X166730000Y-36670000D02*
X169330000Y-36670000D01*
X166730000Y-39330000D02*
X166730000Y-36670000D01*
X166730000Y-39330000D02*
X169330000Y-39330000D01*
X169330000Y-39330000D02*
X169330000Y-36670000D01*
%TD*%
M02*
