%TF.GenerationSoftware,KiCad,Pcbnew,9.0.3*%
%TF.CreationDate,2025-07-27T11:41:57+09:00*%
%TF.ProjectId,LFOSeparate,4c464f53-6570-4617-9261-74652e6b6963,rev?*%
%TF.SameCoordinates,Original*%
%TF.FileFunction,Copper,L2,Bot*%
%TF.FilePolarity,Positive*%
%FSLAX46Y46*%
G04 Gerber Fmt 4.6, Leading zero omitted, Abs format (unit mm)*
G04 Created by KiCad (PCBNEW 9.0.3) date 2025-07-27 11:41:57*
%MOMM*%
%LPD*%
G01*
G04 APERTURE LIST*
G04 Aperture macros list*
%AMRoundRect*
0 Rectangle with rounded corners*
0 $1 Rounding radius*
0 $2 $3 $4 $5 $6 $7 $8 $9 X,Y pos of 4 corners*
0 Add a 4 corners polygon primitive as box body*
4,1,4,$2,$3,$4,$5,$6,$7,$8,$9,$2,$3,0*
0 Add four circle primitives for the rounded corners*
1,1,$1+$1,$2,$3*
1,1,$1+$1,$4,$5*
1,1,$1+$1,$6,$7*
1,1,$1+$1,$8,$9*
0 Add four rect primitives between the rounded corners*
20,1,$1+$1,$2,$3,$4,$5,0*
20,1,$1+$1,$4,$5,$6,$7,0*
20,1,$1+$1,$6,$7,$8,$9,0*
20,1,$1+$1,$8,$9,$2,$3,0*%
G04 Aperture macros list end*
%TA.AperFunction,ComponentPad*%
%ADD10C,1.600000*%
%TD*%
%TA.AperFunction,ComponentPad*%
%ADD11R,1.600000X1.600000*%
%TD*%
%TA.AperFunction,ComponentPad*%
%ADD12C,1.400000*%
%TD*%
%TA.AperFunction,ComponentPad*%
%ADD13O,1.400000X1.400000*%
%TD*%
%TA.AperFunction,ComponentPad*%
%ADD14R,1.700000X1.700000*%
%TD*%
%TA.AperFunction,ComponentPad*%
%ADD15C,1.700000*%
%TD*%
%TA.AperFunction,ComponentPad*%
%ADD16O,1.700000X1.700000*%
%TD*%
%TA.AperFunction,ComponentPad*%
%ADD17R,2.400000X1.600000*%
%TD*%
%TA.AperFunction,ComponentPad*%
%ADD18O,2.400000X1.600000*%
%TD*%
%TA.AperFunction,ComponentPad*%
%ADD19R,1.800000X1.800000*%
%TD*%
%TA.AperFunction,ComponentPad*%
%ADD20C,1.800000*%
%TD*%
%TA.AperFunction,ComponentPad*%
%ADD21C,4.455000*%
%TD*%
%TA.AperFunction,ComponentPad*%
%ADD22R,1.100000X1.800000*%
%TD*%
%TA.AperFunction,ComponentPad*%
%ADD23RoundRect,0.275000X-0.275000X-0.625000X0.275000X-0.625000X0.275000X0.625000X-0.275000X0.625000X0*%
%TD*%
%TA.AperFunction,SMDPad,CuDef*%
%ADD24RoundRect,0.250000X0.337500X0.475000X-0.337500X0.475000X-0.337500X-0.475000X0.337500X-0.475000X0*%
%TD*%
%TA.AperFunction,SMDPad,CuDef*%
%ADD25RoundRect,0.250000X-0.337500X-0.475000X0.337500X-0.475000X0.337500X0.475000X-0.337500X0.475000X0*%
%TD*%
%TA.AperFunction,ViaPad*%
%ADD26C,0.600000*%
%TD*%
%TA.AperFunction,Conductor*%
%ADD27C,0.200000*%
%TD*%
%TA.AperFunction,Conductor*%
%ADD28C,0.400000*%
%TD*%
G04 APERTURE END LIST*
D10*
%TO.P,C3,1*%
%TO.N,Net-(IC2-VINA+)*%
X123917000Y-66304000D03*
%TO.P,C3,2*%
%TO.N,GND*%
X121417000Y-66304000D03*
%TD*%
D11*
%TO.P,C9,1*%
%TO.N,Raw_Triangle*%
X116688000Y-60950000D03*
D10*
%TO.P,C9,2*%
%TO.N,Net-(U1B-+)*%
X114188000Y-60950000D03*
%TD*%
D12*
%TO.P,R5,1*%
%TO.N,Raw_Sine*%
X97220000Y-55997000D03*
D13*
%TO.P,R5,2*%
%TO.N,Net-(C8-Pad1)*%
X99760000Y-55997000D03*
%TD*%
D14*
%TO.P,J3,1,Pin_1*%
%TO.N,Gate*%
X151015000Y-37975000D03*
D15*
%TO.P,J3,2,Pin_2*%
%TO.N,RandumSeed*%
X148475000Y-37975000D03*
%TO.P,J3,3,Pin_3*%
%TO.N,GND*%
X145935000Y-37975000D03*
%TD*%
D14*
%TO.P,J5,1,Pin_1*%
%TO.N,+12VA*%
X100965000Y-72517000D03*
D16*
%TO.P,J5,2,Pin_2*%
%TO.N,+5VA*%
X103505000Y-72517000D03*
%TO.P,J5,3,Pin_3*%
%TO.N,-5VA*%
X106045000Y-72517000D03*
%TO.P,J5,4,Pin_4*%
%TO.N,-12VA*%
X108585000Y-72517000D03*
%TO.P,J5,5,Pin_5*%
%TO.N,unconnected-(J5-Pin_5-Pad5)*%
X111125000Y-72517000D03*
%TO.P,J5,6,Pin_6*%
%TO.N,GNDA*%
X113665000Y-72517000D03*
%TD*%
D17*
%TO.P,IC3,1,VOUTA*%
%TO.N,Randum*%
X127874000Y-44968000D03*
D18*
%TO.P,IC3,2,VINA-*%
X127874000Y-47508000D03*
%TO.P,IC3,3,VINA+*%
%TO.N,Net-(IC3-VINA+)*%
X127874000Y-50048000D03*
%TO.P,IC3,4,VSS*%
%TO.N,GND*%
X127874000Y-52588000D03*
%TO.P,IC3,5,VINB+*%
X135494000Y-52588000D03*
%TO.P,IC3,6,VINB-*%
%TO.N,Net-(IC3-VINB-)*%
X135494000Y-50048000D03*
%TO.P,IC3,7,VOUTB*%
X135494000Y-47508000D03*
%TO.P,IC3,8,VDD*%
%TO.N,+5VD*%
X135494000Y-44968000D03*
%TD*%
D12*
%TO.P,R2,1*%
%TO.N,Net-(IC2-VINB+)*%
X138542000Y-63510000D03*
D13*
%TO.P,R2,2*%
%TO.N,PWM_Triangle*%
X141082000Y-63510000D03*
%TD*%
D19*
%TO.P,D2,1,K*%
%TO.N,Net-(D2-K)*%
X90800000Y-54760000D03*
D20*
%TO.P,D2,2,A*%
%TO.N,+12VA*%
X90800000Y-57300000D03*
%TD*%
D12*
%TO.P,R12,1*%
%TO.N,Triangle*%
X97900000Y-40500000D03*
D13*
%TO.P,R12,2*%
%TO.N,Net-(Q1-B)*%
X95360000Y-40500000D03*
%TD*%
D12*
%TO.P,R11,1*%
%TO.N,Net-(U1B--)*%
X113857000Y-53500000D03*
D13*
%TO.P,R11,2*%
%TO.N,Net-(R11-Pad2)*%
X116397000Y-53500000D03*
%TD*%
D11*
%TO.P,C8,1*%
%TO.N,Net-(C8-Pad1)*%
X96702000Y-60833000D03*
D10*
%TO.P,C8,2*%
%TO.N,Net-(U1A-+)*%
X99202000Y-60833000D03*
%TD*%
D12*
%TO.P,R1,1*%
%TO.N,PWM_Sine*%
X121524000Y-63510000D03*
D13*
%TO.P,R1,2*%
%TO.N,Net-(IC2-VINA+)*%
X124064000Y-63510000D03*
%TD*%
D12*
%TO.P,R13,1*%
%TO.N,Net-(Q1-C)*%
X92500000Y-49000000D03*
D13*
%TO.P,R13,2*%
%TO.N,Net-(D2-K)*%
X92500000Y-51540000D03*
%TD*%
D12*
%TO.P,R6,1*%
%TO.N,Net-(C8-Pad1)*%
X99660000Y-53711000D03*
D13*
%TO.P,R6,2*%
%TO.N,GNDA*%
X97120000Y-53711000D03*
%TD*%
D20*
%TO.P,VR1,1,CCW*%
%TO.N,GND*%
X171000000Y-70000000D03*
%TO.P,VR1,2,WIPER*%
%TO.N,Rate*%
X171000000Y-67500000D03*
%TO.P,VR1,3,CW*%
%TO.N,+5VD*%
X171000000Y-65000000D03*
D21*
%TO.P,VR1,MH1,MH1*%
%TO.N,GND*%
X164000000Y-71900000D03*
%TO.P,VR1,MH2,MH2*%
X164000000Y-63100000D03*
%TD*%
D14*
%TO.P,J1,1,Pin_1*%
%TO.N,ICSPCLK*%
X145923000Y-74676000D03*
D16*
%TO.P,J1,2,Pin_2*%
%TO.N,ICSPDT*%
X143383000Y-74676000D03*
%TO.P,J1,3,Pin_3*%
%TO.N,GND*%
X140843000Y-74676000D03*
%TO.P,J1,4,Pin_4*%
%TO.N,+5VD*%
X138303000Y-74676000D03*
%TO.P,J1,5,Pin_5*%
%TO.N,~MCLR*%
X135763000Y-74676000D03*
%TD*%
D17*
%TO.P,IC2,1,VOUTA*%
%TO.N,Raw_Sine*%
X127366000Y-58430000D03*
D18*
%TO.P,IC2,2,VINA-*%
X127366000Y-60970000D03*
%TO.P,IC2,3,VINA+*%
%TO.N,Net-(IC2-VINA+)*%
X127366000Y-63510000D03*
%TO.P,IC2,4,VSS*%
%TO.N,GND*%
X127366000Y-66050000D03*
%TO.P,IC2,5,VINB+*%
%TO.N,Net-(IC2-VINB+)*%
X134986000Y-66050000D03*
%TO.P,IC2,6,VINB-*%
%TO.N,Raw_Triangle*%
X134986000Y-63510000D03*
%TO.P,IC2,7,VOUTB*%
X134986000Y-60970000D03*
%TO.P,IC2,8,VDD*%
%TO.N,+5VD*%
X134986000Y-58430000D03*
%TD*%
D22*
%TO.P,Q1,1,E*%
%TO.N,GNDA*%
X92660000Y-45200000D03*
D23*
%TO.P,Q1,2,C*%
%TO.N,Net-(Q1-C)*%
X93930000Y-43130000D03*
%TO.P,Q1,3,B*%
%TO.N,Net-(Q1-B)*%
X95200000Y-45200000D03*
%TD*%
D12*
%TO.P,R9,1*%
%TO.N,GNDA*%
X114619000Y-65141000D03*
D13*
%TO.P,R9,2*%
%TO.N,Net-(U1B-+)*%
X117159000Y-65141000D03*
%TD*%
D12*
%TO.P,R7,1*%
%TO.N,Net-(U1A--)*%
X99540000Y-50000000D03*
D13*
%TO.P,R7,2*%
%TO.N,Sine*%
X97000000Y-50000000D03*
%TD*%
D12*
%TO.P,R14,1*%
%TO.N,Net-(C12-Pad1)*%
X132980000Y-69100000D03*
%TO.P,R14,2*%
%TO.N,+5VD*%
X135520000Y-69100000D03*
%TD*%
%TO.P,R8,1*%
%TO.N,Net-(R11-Pad2)*%
X113857000Y-51298000D03*
D13*
%TO.P,R8,2*%
%TO.N,Triangle*%
X116397000Y-51298000D03*
%TD*%
D17*
%TO.P,IC1,1,VDD*%
%TO.N,+5VD*%
X144130000Y-49286000D03*
D18*
%TO.P,IC1,2,RA5*%
%TO.N,unconnected-(IC1-RA5-Pad2)*%
X144130000Y-51826000D03*
%TO.P,IC1,3,RA4*%
%TO.N,RandumSeed*%
X144130000Y-54366000D03*
%TO.P,IC1,4,VPP/~{MCLR}/RA3*%
%TO.N,~MCLR*%
X144130000Y-56906000D03*
%TO.P,IC1,5,RC5*%
%TO.N,PWM_Sine*%
X144130000Y-59446000D03*
%TO.P,IC1,6,RC4*%
%TO.N,PWM_Triangle*%
X144130000Y-61986000D03*
%TO.P,IC1,7,RC3*%
%TO.N,PWM_Randum*%
X144130000Y-64526000D03*
%TO.P,IC1,8,RC2*%
%TO.N,Delay*%
X151750000Y-64526000D03*
%TO.P,IC1,9,RC1*%
%TO.N,Rate*%
X151750000Y-61986000D03*
%TO.P,IC1,10,RC0*%
%TO.N,Gate*%
X151750000Y-59446000D03*
%TO.P,IC1,11,RA2*%
%TO.N,Square*%
X151750000Y-56906000D03*
%TO.P,IC1,12,RA1/ICSPCLK*%
%TO.N,ICSPCLK*%
X151750000Y-54366000D03*
%TO.P,IC1,13,RA0/ICSPDAT*%
%TO.N,ICSPDT*%
X151750000Y-51826000D03*
%TO.P,IC1,14,VSS*%
%TO.N,GND*%
X151750000Y-49286000D03*
%TD*%
D10*
%TO.P,C5,1*%
%TO.N,Net-(IC3-VINA+)*%
X124806000Y-52588000D03*
%TO.P,C5,2*%
%TO.N,GND*%
X122306000Y-52588000D03*
%TD*%
D12*
%TO.P,R10,1*%
%TO.N,GNDA*%
X116300000Y-55800000D03*
D13*
%TO.P,R10,2*%
%TO.N,Net-(U1B--)*%
X113760000Y-55800000D03*
%TD*%
D12*
%TO.P,R15,1*%
%TO.N,Net-(C12-Pad1)*%
X127800000Y-71700000D03*
%TO.P,R15,2*%
%TO.N,~MCLR*%
X130340000Y-71700000D03*
%TD*%
D10*
%TO.P,C4,1*%
%TO.N,Net-(IC2-VINB+)*%
X138435000Y-66177000D03*
%TO.P,C4,2*%
%TO.N,GND*%
X140935000Y-66177000D03*
%TD*%
D20*
%TO.P,VR2,1,CCW*%
%TO.N,GND*%
X171000000Y-54000000D03*
%TO.P,VR2,2,WIPER*%
%TO.N,Delay*%
X171000000Y-51500000D03*
%TO.P,VR2,3,CW*%
%TO.N,+5VD*%
X171000000Y-49000000D03*
D21*
%TO.P,VR2,MH1,MH1*%
%TO.N,GND*%
X164000000Y-55900000D03*
%TO.P,VR2,MH2,MH2*%
X164000000Y-47100000D03*
%TD*%
D12*
%TO.P,R4,1*%
%TO.N,GNDA*%
X96458000Y-65151000D03*
D13*
%TO.P,R4,2*%
%TO.N,Net-(U1A-+)*%
X98998000Y-65151000D03*
%TD*%
D17*
%TO.P,U1,1*%
%TO.N,Net-(U1A--)*%
X102997000Y-51435000D03*
D18*
%TO.P,U1,2,-*%
X102997000Y-53975000D03*
%TO.P,U1,3,+*%
%TO.N,Net-(U1A-+)*%
X102997000Y-56515000D03*
%TO.P,U1,4,V-*%
%TO.N,-12VA*%
X102997000Y-59055000D03*
%TO.P,U1,5,+*%
%TO.N,Net-(U1B-+)*%
X110617000Y-59055000D03*
%TO.P,U1,6,-*%
%TO.N,Net-(U1B--)*%
X110617000Y-56515000D03*
%TO.P,U1,7*%
%TO.N,Net-(R11-Pad2)*%
X110617000Y-53975000D03*
%TO.P,U1,8,V+*%
%TO.N,+12VA*%
X110617000Y-51435000D03*
%TD*%
D10*
%TO.P,C12,1*%
%TO.N,Net-(C12-Pad1)*%
X130300000Y-69100000D03*
%TO.P,C12,2*%
%TO.N,GND*%
X127800000Y-69100000D03*
%TD*%
D11*
%TO.P,C1,1*%
%TO.N,+5VD*%
X159000000Y-37500000D03*
D10*
%TO.P,C1,2*%
%TO.N,GND*%
X159000000Y-40000000D03*
%TD*%
D14*
%TO.P,J4,1,Pin_1*%
%TO.N,Sine*%
X101727000Y-40767000D03*
D16*
%TO.P,J4,2,Pin_2*%
X101727000Y-43307000D03*
%TO.P,J4,3,Pin_3*%
%TO.N,Triangle*%
X104267000Y-40767000D03*
%TO.P,J4,4,Pin_4*%
X104267000Y-43307000D03*
%TO.P,J4,5,Pin_5*%
%TO.N,Square*%
X106807000Y-40767000D03*
%TO.P,J4,6,Pin_6*%
X106807000Y-43307000D03*
%TO.P,J4,7,Pin_7*%
%TO.N,Randum*%
X109347000Y-40767000D03*
%TO.P,J4,8,Pin_8*%
X109347000Y-43307000D03*
%TO.P,J4,9,Pin_9*%
%TO.N,unconnected-(J4-Pin_9-Pad9)*%
X111887000Y-40767000D03*
%TO.P,J4,10,Pin_10*%
%TO.N,unconnected-(J4-Pin_10-Pad10)*%
X111887000Y-43307000D03*
%TO.P,J4,11,Pin_11*%
%TO.N,GNDA*%
X114427000Y-40767000D03*
%TO.P,J4,12,Pin_12*%
X114427000Y-43307000D03*
%TD*%
D12*
%TO.P,R3,1*%
%TO.N,PWM_Randum*%
X122463000Y-50048000D03*
D13*
%TO.P,R3,2*%
%TO.N,Net-(IC3-VINA+)*%
X125003000Y-50048000D03*
%TD*%
D14*
%TO.P,J2,1,Pin_1*%
%TO.N,+5VD*%
X165460000Y-38000000D03*
D16*
%TO.P,J2,2,Pin_2*%
%TO.N,GND*%
X168000000Y-38000000D03*
%TD*%
D24*
%TO.P,C10,1*%
%TO.N,+5VD*%
X135530500Y-41910000D03*
%TO.P,C10,2*%
%TO.N,GND*%
X133455500Y-41910000D03*
%TD*%
%TO.P,C6,1*%
%TO.N,+12VA*%
X111146500Y-48260000D03*
%TO.P,C6,2*%
%TO.N,GNDA*%
X109071500Y-48260000D03*
%TD*%
D25*
%TO.P,C7,1*%
%TO.N,-12VA*%
X102848500Y-62484000D03*
%TO.P,C7,2*%
%TO.N,GNDA*%
X104923500Y-62484000D03*
%TD*%
%TO.P,C11,1*%
%TO.N,+5VD*%
X134090500Y-55499000D03*
%TO.P,C11,2*%
%TO.N,GND*%
X136165500Y-55499000D03*
%TD*%
%TO.P,C2,1*%
%TO.N,+5VD*%
X147044500Y-45593000D03*
%TO.P,C2,2*%
%TO.N,GND*%
X149119500Y-45593000D03*
%TD*%
D26*
%TO.N,PWM_Randum*%
X125588000Y-64211700D03*
%TO.N,ICSPCLK*%
X150248000Y-68700000D03*
%TO.N,ICSPDT*%
X145650000Y-68700000D03*
%TD*%
D27*
%TO.N,Triangle*%
X105164700Y-44458700D02*
X104267000Y-43561000D01*
X115395000Y-50882900D02*
X108971000Y-44458700D01*
X108971000Y-44458700D02*
X105164700Y-44458700D01*
X115395000Y-51298000D02*
X115395000Y-50882900D01*
X104267000Y-43561000D02*
X104267000Y-43307000D01*
X116397000Y-51298000D02*
X115395000Y-51298000D01*
D28*
%TO.N,+5VD*%
X135520000Y-70641300D02*
X138303000Y-73424300D01*
X172308000Y-63691800D02*
X172308000Y-50308200D01*
X137540000Y-49286000D02*
X137540000Y-57478100D01*
X146716000Y-45921200D02*
X146716300Y-45921200D01*
X136728000Y-44968000D02*
X137540000Y-45779100D01*
X145732000Y-49286000D02*
X145732000Y-46905800D01*
X171000000Y-65000000D02*
X172308000Y-63691800D01*
X146388000Y-46249400D02*
X146716000Y-45921200D01*
X134661000Y-57859500D02*
X134986000Y-58184500D01*
X134986000Y-58184500D02*
X134986000Y-58430000D01*
X137540000Y-45779100D02*
X137540000Y-49286000D01*
X136313000Y-42692600D02*
X135530000Y-41910100D01*
X136313000Y-42692600D02*
X135530000Y-41910000D01*
X138303000Y-73424300D02*
X138303000Y-74676000D01*
X134661000Y-57859500D02*
X134090000Y-57289000D01*
X145732000Y-46905800D02*
X146388000Y-46249400D01*
X146388000Y-46249400D02*
X146716000Y-45921200D01*
X135520000Y-69100000D02*
X136588000Y-68032300D01*
X134090500Y-55499000D02*
X134090000Y-55499000D01*
X172308000Y-50308200D02*
X171000000Y-49000000D01*
X146716300Y-45921200D02*
X147044500Y-45593000D01*
X171000000Y-49000000D02*
X165460000Y-43460000D01*
X137096000Y-43475200D02*
X136313000Y-42692600D01*
X137540000Y-57478100D02*
X136588000Y-58430000D01*
X136728000Y-44968000D02*
X137096000Y-44968000D01*
X134986000Y-58430000D02*
X136588000Y-58430000D01*
X135520000Y-69100000D02*
X135520000Y-70641300D01*
X135530000Y-41910100D02*
X135530000Y-41910000D01*
X137096000Y-44968000D02*
X137096000Y-43475200D01*
X135232000Y-58430000D02*
X134661000Y-57859500D01*
X165460000Y-43460000D02*
X165460000Y-38000000D01*
X135494000Y-44968000D02*
X136728000Y-44968000D01*
X137540000Y-49286000D02*
X144130000Y-49286000D01*
X134090000Y-57289000D02*
X134090000Y-55499000D01*
X136588000Y-68032300D02*
X136588000Y-58430000D01*
X135530500Y-41910000D02*
X135530000Y-41910000D01*
X144130000Y-49286000D02*
X145732000Y-49286000D01*
D27*
%TO.N,Net-(IC2-VINA+)*%
X124064000Y-63510000D02*
X124064000Y-66157000D01*
X124064000Y-66157000D02*
X123917000Y-66304000D01*
%TO.N,Net-(IC2-VINB+)*%
X138542000Y-66070000D02*
X138542000Y-63510000D01*
X138435000Y-66177000D02*
X138542000Y-66070000D01*
%TO.N,Net-(IC3-VINA+)*%
X125003000Y-50048000D02*
X125003000Y-51049700D01*
X125003000Y-51049700D02*
X124806000Y-51246700D01*
X124806000Y-51246700D02*
X124806000Y-52588000D01*
D28*
%TO.N,+12VA*%
X100965000Y-71265300D02*
X90800000Y-61100300D01*
X100965000Y-72517000D02*
X100965000Y-71265300D01*
X111146000Y-48260000D02*
X111682000Y-48796100D01*
X90800000Y-61100300D02*
X90800000Y-57300000D01*
X112219000Y-49332200D02*
X112219000Y-51435000D01*
X111682000Y-48796100D02*
X112219000Y-49332200D01*
X111682000Y-48796100D02*
X111146000Y-48260100D01*
X111146500Y-48260000D02*
X111146000Y-48260000D01*
X111146000Y-48260100D02*
X111146000Y-48260000D01*
X112219000Y-51435000D02*
X110617000Y-51435000D01*
%TO.N,-12VA*%
X108585000Y-68220500D02*
X108585000Y-72517000D01*
X102848000Y-62484000D02*
X102848300Y-62484200D01*
X102848500Y-62484000D02*
X102848300Y-62484200D01*
X102848000Y-62484000D02*
X103542000Y-63177400D01*
X101395000Y-60005000D02*
X101395000Y-61030800D01*
X103542000Y-63177000D02*
X103542000Y-63177400D01*
X101395000Y-61030800D02*
X102848000Y-62484000D01*
X102345000Y-59055000D02*
X101395000Y-60005000D01*
X103542000Y-63177400D02*
X108585000Y-68220500D01*
X102997000Y-59055000D02*
X102345000Y-59055000D01*
X102848300Y-62484200D02*
X103542000Y-63177000D01*
D27*
%TO.N,Net-(U1A-+)*%
X98998000Y-64149300D02*
X99202000Y-63945300D01*
X99202000Y-63945300D02*
X99202000Y-60833000D01*
X98998000Y-65151000D02*
X98998000Y-64149300D01*
X99202000Y-58808300D02*
X99202000Y-60833000D01*
X102997000Y-56515000D02*
X101495000Y-56515000D01*
X101495000Y-56515000D02*
X99202000Y-58808300D01*
%TO.N,Raw_Sine*%
X127366000Y-58430000D02*
X127400000Y-58430000D01*
X127400000Y-58430000D02*
X127400000Y-60970000D01*
X127400000Y-60970000D02*
X127366000Y-60970000D01*
%TO.N,Net-(C8-Pad1)*%
X96702000Y-59731300D02*
X96702000Y-60833000D01*
X99760000Y-53811000D02*
X99760000Y-55997000D01*
X99760000Y-56673300D02*
X96702000Y-59731300D01*
X99660000Y-53711000D02*
X99760000Y-53811000D01*
X99760000Y-55997000D02*
X99760000Y-56673300D01*
%TO.N,Raw_Triangle*%
X134986000Y-63510000D02*
X134986000Y-60970000D01*
%TO.N,RandumSeed*%
X148082000Y-51915700D02*
X145632000Y-54366000D01*
X148460000Y-37990000D02*
X148460000Y-39151700D01*
X145632000Y-54366000D02*
X144130000Y-54366000D01*
X148460000Y-39151700D02*
X148082000Y-39529700D01*
X148475000Y-37975000D02*
X148460000Y-37990000D01*
X148082000Y-39529700D02*
X148082000Y-51915700D01*
%TO.N,PWM_Randum*%
X125300000Y-56624900D02*
X123556000Y-54880900D01*
X125300000Y-63923400D02*
X125300000Y-56624900D01*
X123556000Y-51141000D02*
X122463000Y-50048000D01*
X125588000Y-64211700D02*
X125300000Y-63923400D01*
X123556000Y-54880900D02*
X123556000Y-51141000D01*
%TO.N,ICSPCLK*%
X150248000Y-68700000D02*
X150248000Y-54366000D01*
X150248000Y-54366000D02*
X151750000Y-54366000D01*
%TO.N,ICSPDT*%
X145650000Y-56424500D02*
X150248000Y-51826000D01*
X145650000Y-68700000D02*
X145650000Y-56424500D01*
X150248000Y-51826000D02*
X151750000Y-51826000D01*
%TO.N,Net-(C12-Pad1)*%
X130300000Y-69200000D02*
X130300000Y-69100000D01*
X127800000Y-71700000D02*
X130300000Y-69200000D01*
%TO.N,Gate*%
X153252000Y-41403400D02*
X153252000Y-59446000D01*
X151000000Y-37990000D02*
X151000000Y-39151700D01*
X153252000Y-59446000D02*
X151750000Y-59446000D01*
X151000000Y-39151700D02*
X153252000Y-41403400D01*
X151015000Y-37975000D02*
X151000000Y-37990000D01*
%TO.N,~MCLR*%
X139535000Y-75088800D02*
X139535000Y-69670900D01*
X142628000Y-57872000D02*
X143594000Y-56906000D01*
X136051000Y-75050900D02*
X136854000Y-75854400D01*
X143594000Y-56906000D02*
X144130000Y-56906000D01*
X142628000Y-66577800D02*
X142628000Y-57872000D01*
X139535000Y-69670900D02*
X142628000Y-66577800D01*
X138770000Y-75854400D02*
X139535000Y-75088800D01*
X135763000Y-74676000D02*
X136051000Y-74963900D01*
X136051000Y-74963900D02*
X136051000Y-75050900D01*
X136854000Y-75854400D02*
X138770000Y-75854400D01*
%TO.N,Delay*%
X151750000Y-64526000D02*
X164776000Y-51500000D01*
X164776000Y-51500000D02*
X171000000Y-51500000D01*
%TO.N,Net-(D2-K)*%
X92500000Y-52541700D02*
X90800000Y-54241700D01*
X90800000Y-54241700D02*
X90800000Y-54760000D01*
X92500000Y-51540000D02*
X92500000Y-52541700D01*
%TO.N,Square*%
X106807000Y-40767000D02*
X106807000Y-43307000D01*
%TO.N,Randum*%
X109347000Y-40767000D02*
X109347000Y-43307000D01*
X127874000Y-47508000D02*
X129376000Y-47508000D01*
X129376000Y-44968000D02*
X127874000Y-44968000D01*
X129376000Y-47508000D02*
X129376000Y-44968000D01*
%TO.N,Sine*%
X101727000Y-45771300D02*
X101727000Y-43307000D01*
X101727000Y-40767000D02*
X101727000Y-43307000D01*
X97200000Y-50298300D02*
X101727000Y-45771300D01*
%TO.N,Triangle*%
X104267000Y-40767000D02*
X104267000Y-43307000D01*
%TO.N,Net-(U1A--)*%
X104499000Y-51435000D02*
X104499000Y-53975000D01*
X102997000Y-51435000D02*
X104499000Y-51435000D01*
X104499000Y-53975000D02*
X102997000Y-53975000D01*
%TO.N,Net-(R11-Pad2)*%
X115395000Y-53500000D02*
X115395000Y-52836300D01*
X116397000Y-53500000D02*
X115395000Y-53500000D01*
X111180000Y-53975000D02*
X113857000Y-51298000D01*
X115395000Y-52836300D02*
X113857000Y-51298000D01*
X110617000Y-53975000D02*
X111180000Y-53975000D01*
%TO.N,Net-(U1B-+)*%
X117159000Y-65141000D02*
X117159000Y-64139300D01*
X114188000Y-61168300D02*
X114188000Y-60950000D01*
X117159000Y-64139300D02*
X114188000Y-61168300D01*
%TO.N,Net-(IC3-VINB-)*%
X135494000Y-47508000D02*
X135500000Y-47508000D01*
X135500000Y-50048000D02*
X135494000Y-50048000D01*
%TO.N,Net-(Q1-C)*%
X93930000Y-47570000D02*
X92500000Y-49000000D01*
X93930000Y-43530000D02*
X93930000Y-47570000D01*
%TO.N,Net-(Q1-B)*%
X95360000Y-41501700D02*
X95200000Y-41661700D01*
X95360000Y-40500000D02*
X95360000Y-41501700D01*
X95200000Y-41661700D02*
X95200000Y-44800000D01*
%TO.N,Net-(U1B--)*%
X113760000Y-55800000D02*
X113760000Y-53597000D01*
X113760000Y-53597000D02*
X113857000Y-53500000D01*
%TD*%
%TA.AperFunction,Conductor*%
%TO.N,GND*%
G36*
X140535000Y-66229661D02*
G01*
X140562259Y-66331394D01*
X140614920Y-66422606D01*
X140689394Y-66497080D01*
X140780606Y-66549741D01*
X140882339Y-66577000D01*
X140888553Y-66577000D01*
X140209076Y-67256474D01*
X140253650Y-67288859D01*
X140435968Y-67381755D01*
X140630580Y-67444989D01*
X140632831Y-67445346D01*
X140633616Y-67445718D01*
X140635311Y-67446125D01*
X140635225Y-67446481D01*
X140695965Y-67475277D01*
X140732895Y-67534589D01*
X140731897Y-67604451D01*
X140701114Y-67655499D01*
X139162183Y-69194481D01*
X139054478Y-69302186D01*
X138975423Y-69439116D01*
X138975421Y-69439121D01*
X138975420Y-69439123D01*
X138975419Y-69439126D01*
X138968933Y-69463334D01*
X138968932Y-69463338D01*
X138967218Y-69469737D01*
X138942810Y-69560832D01*
X138934498Y-69591852D01*
X138934500Y-69674035D01*
X138934500Y-69683668D01*
X138934500Y-72765781D01*
X138914815Y-72832820D01*
X138862011Y-72878575D01*
X138792853Y-72888519D01*
X138729297Y-72859494D01*
X138722819Y-72853462D01*
X136256819Y-70387462D01*
X136223334Y-70326139D01*
X136220500Y-70299781D01*
X136220500Y-70138137D01*
X136240185Y-70071098D01*
X136271615Y-70037818D01*
X136302073Y-70015690D01*
X136435690Y-69882073D01*
X136546760Y-69729199D01*
X136632547Y-69560832D01*
X136690940Y-69381118D01*
X136695184Y-69354323D01*
X136720500Y-69194484D01*
X136720500Y-69005517D01*
X136718903Y-68995438D01*
X136714638Y-68968510D01*
X136723591Y-68899220D01*
X136749438Y-68861423D01*
X137034501Y-68576441D01*
X137034542Y-68576414D01*
X137082300Y-68528655D01*
X137132051Y-68478919D01*
X137132054Y-68478913D01*
X137132087Y-68478881D01*
X137132111Y-68478844D01*
X137132114Y-68478842D01*
X137155452Y-68443912D01*
X137172499Y-68418403D01*
X137172507Y-68418391D01*
X137202125Y-68374077D01*
X137208728Y-68364198D01*
X137208732Y-68364186D01*
X137208764Y-68364126D01*
X137208775Y-68364111D01*
X137235899Y-68298626D01*
X137261551Y-68236723D01*
X137261551Y-68236722D01*
X137261570Y-68236677D01*
X137261605Y-68236503D01*
X137275299Y-68167653D01*
X137275303Y-68167653D01*
X137275303Y-68167632D01*
X137288490Y-68101392D01*
X137288490Y-68101374D01*
X137288497Y-68101306D01*
X137288500Y-68101293D01*
X137288500Y-68028767D01*
X137288509Y-67963405D01*
X137288500Y-67963359D01*
X137288500Y-67169047D01*
X137308185Y-67102008D01*
X137360989Y-67056253D01*
X137430147Y-67046309D01*
X137493703Y-67075334D01*
X137500181Y-67081366D01*
X137587786Y-67168971D01*
X137706500Y-67255220D01*
X137753390Y-67289287D01*
X137810679Y-67318477D01*
X137935776Y-67382218D01*
X137935778Y-67382218D01*
X137935781Y-67382220D01*
X138039311Y-67415859D01*
X138130465Y-67445477D01*
X138231557Y-67461488D01*
X138332648Y-67477500D01*
X138332649Y-67477500D01*
X138537351Y-67477500D01*
X138537352Y-67477500D01*
X138739534Y-67445477D01*
X138934219Y-67382220D01*
X139116610Y-67289287D01*
X139277976Y-67172049D01*
X139282213Y-67168971D01*
X139282215Y-67168968D01*
X139282219Y-67168966D01*
X139426966Y-67024219D01*
X139426966Y-67024218D01*
X139426969Y-67024216D01*
X139426971Y-67024213D01*
X139519236Y-66897219D01*
X139547287Y-66858610D01*
X139574795Y-66804621D01*
X139622769Y-66753826D01*
X139690589Y-66737030D01*
X139756725Y-66759567D01*
X139795765Y-66804621D01*
X139823141Y-66858350D01*
X139823147Y-66858359D01*
X139855523Y-66902921D01*
X139855524Y-66902922D01*
X140535000Y-66223446D01*
X140535000Y-66229661D01*
G37*
%TD.AperFunction*%
%TA.AperFunction,Conductor*%
G36*
X139866712Y-63776238D02*
G01*
X139918188Y-63823482D01*
X139929930Y-63849194D01*
X139936133Y-63868285D01*
X139969454Y-63970836D01*
X140028140Y-64086013D01*
X140055240Y-64139199D01*
X140166310Y-64292073D01*
X140299927Y-64425690D01*
X140452801Y-64536760D01*
X140621168Y-64622547D01*
X140725753Y-64656529D01*
X140783428Y-64695965D01*
X140810626Y-64760324D01*
X140798711Y-64829170D01*
X140751467Y-64880646D01*
X140706834Y-64896932D01*
X140630580Y-64909010D01*
X140435968Y-64972244D01*
X140253644Y-65065143D01*
X140209077Y-65097523D01*
X140209077Y-65097524D01*
X140888554Y-65777000D01*
X140882339Y-65777000D01*
X140780606Y-65804259D01*
X140689394Y-65856920D01*
X140614920Y-65931394D01*
X140562259Y-66022606D01*
X140535000Y-66124339D01*
X140535000Y-66130553D01*
X139855524Y-65451077D01*
X139855523Y-65451077D01*
X139823143Y-65495644D01*
X139795765Y-65549378D01*
X139747790Y-65600174D01*
X139679969Y-65616969D01*
X139613834Y-65594431D01*
X139574795Y-65549378D01*
X139568797Y-65537606D01*
X139547287Y-65495390D01*
X139547285Y-65495387D01*
X139547284Y-65495385D01*
X139426971Y-65329786D01*
X139282213Y-65185028D01*
X139193615Y-65120659D01*
X139150949Y-65065330D01*
X139142500Y-65020341D01*
X139142500Y-64620791D01*
X139162185Y-64553752D01*
X139193612Y-64520475D01*
X139324073Y-64425690D01*
X139457690Y-64292073D01*
X139568760Y-64139199D01*
X139654547Y-63970832D01*
X139694069Y-63849195D01*
X139733507Y-63791521D01*
X139797866Y-63764323D01*
X139866712Y-63776238D01*
G37*
%TD.AperFunction*%
%TA.AperFunction,Conductor*%
G36*
X141964474Y-64442343D02*
G01*
X142013169Y-64492448D01*
X142027500Y-64550316D01*
X142027500Y-65386689D01*
X142007815Y-65453728D01*
X141991181Y-65474370D01*
X141335000Y-66130553D01*
X141335000Y-66124339D01*
X141307741Y-66022606D01*
X141255080Y-65931394D01*
X141180606Y-65856920D01*
X141089394Y-65804259D01*
X140987661Y-65777000D01*
X140981446Y-65777000D01*
X141660922Y-65097524D01*
X141660921Y-65097523D01*
X141616359Y-65065147D01*
X141616350Y-65065141D01*
X141434031Y-64972244D01*
X141299275Y-64928459D01*
X141241600Y-64889021D01*
X141214402Y-64824662D01*
X141226317Y-64755816D01*
X141273561Y-64704340D01*
X141318196Y-64688055D01*
X141324044Y-64687128D01*
X141363118Y-64680940D01*
X141542832Y-64622547D01*
X141711199Y-64536760D01*
X141830615Y-64449998D01*
X141896420Y-64426518D01*
X141964474Y-64442343D01*
G37*
%TD.AperFunction*%
%TA.AperFunction,Conductor*%
G36*
X149599340Y-38863068D02*
G01*
X149655274Y-38904939D01*
X149672189Y-38935917D01*
X149721202Y-39067328D01*
X149721206Y-39067335D01*
X149807452Y-39182544D01*
X149807455Y-39182547D01*
X149922664Y-39268793D01*
X149922671Y-39268797D01*
X149936825Y-39274076D01*
X150057517Y-39319091D01*
X150117127Y-39325500D01*
X150335347Y-39325499D01*
X150346863Y-39328880D01*
X150358809Y-39327739D01*
X150379764Y-39338540D01*
X150402387Y-39345183D01*
X150411798Y-39355052D01*
X150420913Y-39359751D01*
X150442732Y-39387493D01*
X150478113Y-39448767D01*
X150478116Y-39448772D01*
X150519485Y-39520424D01*
X150519499Y-39520442D01*
X150519504Y-39520447D01*
X150519505Y-39520448D01*
X150572034Y-39572970D01*
X150607821Y-39608757D01*
X150637361Y-39638297D01*
X150637427Y-39638355D01*
X151498219Y-40499031D01*
X152615176Y-41615838D01*
X152648664Y-41677158D01*
X152651500Y-41703524D01*
X152651500Y-47911374D01*
X152631815Y-47978413D01*
X152579011Y-48024168D01*
X152509853Y-48034112D01*
X152489182Y-48029305D01*
X152454420Y-48018010D01*
X152252317Y-47986000D01*
X152000000Y-47986000D01*
X152000000Y-48970314D01*
X151995606Y-48965920D01*
X151904394Y-48913259D01*
X151802661Y-48886000D01*
X151697339Y-48886000D01*
X151595606Y-48913259D01*
X151504394Y-48965920D01*
X151500000Y-48970314D01*
X151500000Y-47986000D01*
X151247683Y-47986000D01*
X151045582Y-48018009D01*
X150850968Y-48081244D01*
X150668650Y-48174140D01*
X150503105Y-48294417D01*
X150503104Y-48294417D01*
X150358417Y-48439104D01*
X150358417Y-48439105D01*
X150238140Y-48604650D01*
X150145244Y-48786970D01*
X150082009Y-48981586D01*
X150073391Y-49036000D01*
X151434314Y-49036000D01*
X151429920Y-49040394D01*
X151377259Y-49131606D01*
X151350000Y-49233339D01*
X151350000Y-49338661D01*
X151377259Y-49440394D01*
X151429920Y-49531606D01*
X151434314Y-49536000D01*
X150073391Y-49536000D01*
X150082009Y-49590413D01*
X150145244Y-49785029D01*
X150238140Y-49967349D01*
X150358417Y-50132894D01*
X150358417Y-50132895D01*
X150503104Y-50277582D01*
X150668652Y-50397861D01*
X150761628Y-50445234D01*
X150812425Y-50493208D01*
X150829220Y-50561029D01*
X150806683Y-50627164D01*
X150761630Y-50666203D01*
X150668388Y-50713713D01*
X150502786Y-50834028D01*
X150358028Y-50978786D01*
X150237714Y-51144386D01*
X150225788Y-51167792D01*
X150202583Y-51192359D01*
X150179849Y-51217371D01*
X150178355Y-51218010D01*
X150177812Y-51218586D01*
X150147405Y-51231266D01*
X150084221Y-51248200D01*
X150084217Y-51248201D01*
X150016203Y-51266426D01*
X150016190Y-51266432D01*
X149948352Y-51305602D01*
X149948350Y-51305604D01*
X149879275Y-51345484D01*
X149879264Y-51345493D01*
X149825316Y-51399448D01*
X149825311Y-51399453D01*
X149762813Y-51461950D01*
X149762765Y-51462004D01*
X145413877Y-55811364D01*
X145352556Y-55844853D01*
X145282864Y-55839872D01*
X145253306Y-55824006D01*
X145211614Y-55793715D01*
X145190836Y-55783128D01*
X145118917Y-55746483D01*
X145068123Y-55698511D01*
X145051328Y-55630690D01*
X145073865Y-55564555D01*
X145118917Y-55525516D01*
X145211610Y-55478287D01*
X145256973Y-55445329D01*
X145377213Y-55357971D01*
X145377215Y-55357968D01*
X145377219Y-55357966D01*
X145521966Y-55213219D01*
X145521968Y-55213215D01*
X145521971Y-55213213D01*
X145642286Y-55047611D01*
X145654209Y-55024212D01*
X145677402Y-54999654D01*
X145700148Y-54974629D01*
X145701641Y-54973989D01*
X145702183Y-54973416D01*
X145732584Y-54960735D01*
X145796822Y-54943519D01*
X145862349Y-54925961D01*
X145863665Y-54925628D01*
X145863774Y-54925579D01*
X145863784Y-54925577D01*
X145863792Y-54925571D01*
X145863803Y-54925566D01*
X145863819Y-54925563D01*
X145863843Y-54925548D01*
X145864299Y-54925347D01*
X145866235Y-54924167D01*
X145899091Y-54905195D01*
X145931999Y-54886193D01*
X145932007Y-54886188D01*
X146000716Y-54846520D01*
X146000719Y-54846515D01*
X146000730Y-54846510D01*
X146000740Y-54846499D01*
X146000745Y-54846497D01*
X146049848Y-54797386D01*
X146049853Y-54797384D01*
X146049852Y-54797383D01*
X146079930Y-54767305D01*
X146112520Y-54734716D01*
X146112521Y-54734713D01*
X146119090Y-54728145D01*
X146119142Y-54728083D01*
X148507522Y-52339414D01*
X148560901Y-52286034D01*
X148562448Y-52284548D01*
X148562539Y-52284388D01*
X148562542Y-52284387D01*
X148591615Y-52234023D01*
X148602846Y-52214568D01*
X148602850Y-52214562D01*
X148640573Y-52149223D01*
X148641552Y-52147592D01*
X148641588Y-52147454D01*
X148641591Y-52147451D01*
X148663115Y-52067101D01*
X148682500Y-51994757D01*
X148682500Y-51994750D01*
X148682502Y-51994728D01*
X148682505Y-51994721D01*
X148682500Y-51914691D01*
X148682500Y-46941999D01*
X148702185Y-46874960D01*
X148754989Y-46829205D01*
X148806500Y-46817999D01*
X148869499Y-46817999D01*
X149369500Y-46817999D01*
X149506972Y-46817999D01*
X149506986Y-46817998D01*
X149609697Y-46807505D01*
X149776119Y-46752358D01*
X149776124Y-46752356D01*
X149925345Y-46660315D01*
X150049315Y-46536345D01*
X150141356Y-46387124D01*
X150141358Y-46387119D01*
X150196505Y-46220697D01*
X150196506Y-46220690D01*
X150206999Y-46117986D01*
X150207000Y-46117973D01*
X150207000Y-45843000D01*
X149369500Y-45843000D01*
X149369500Y-46817999D01*
X148869499Y-46817999D01*
X148869500Y-46817998D01*
X148869500Y-45343000D01*
X149369500Y-45343000D01*
X150206999Y-45343000D01*
X150206999Y-45068028D01*
X150206998Y-45068013D01*
X150196505Y-44965302D01*
X150141358Y-44798880D01*
X150141356Y-44798875D01*
X150049315Y-44649654D01*
X149925345Y-44525684D01*
X149776124Y-44433643D01*
X149776119Y-44433641D01*
X149609697Y-44378494D01*
X149609690Y-44378493D01*
X149506986Y-44368000D01*
X149369500Y-44368000D01*
X149369500Y-45343000D01*
X148869500Y-45343000D01*
X148869500Y-44401497D01*
X148761602Y-44359586D01*
X148751586Y-44351875D01*
X148739461Y-44348315D01*
X148724430Y-44330969D01*
X148706239Y-44316964D01*
X148701981Y-44305061D01*
X148693706Y-44295511D01*
X148686161Y-44260829D01*
X148682708Y-44251175D01*
X148683405Y-44248163D01*
X148682500Y-44244000D01*
X148682500Y-39829797D01*
X148702185Y-39762758D01*
X148718819Y-39742116D01*
X148781015Y-39679920D01*
X148940520Y-39520416D01*
X149019577Y-39383484D01*
X149058124Y-39239625D01*
X149094487Y-39179970D01*
X149121594Y-39161244D01*
X149182816Y-39130051D01*
X149354792Y-39005104D01*
X149468329Y-38891566D01*
X149529648Y-38858084D01*
X149599340Y-38863068D01*
G37*
%TD.AperFunction*%
%TA.AperFunction,Conductor*%
G36*
X176867368Y-35019685D02*
G01*
X176913123Y-35072489D01*
X176923067Y-35141647D01*
X176894042Y-35205203D01*
X176862333Y-35231383D01*
X176830521Y-35249751D01*
X176830518Y-35249752D01*
X176830513Y-35249756D01*
X176612073Y-35417370D01*
X176612066Y-35417376D01*
X176417376Y-35612066D01*
X176417370Y-35612073D01*
X176249754Y-35830516D01*
X176112080Y-36068971D01*
X176112075Y-36068982D01*
X176006704Y-36323369D01*
X175935441Y-36589331D01*
X175935438Y-36589344D01*
X175899501Y-36862315D01*
X175899500Y-36862332D01*
X175899500Y-37137667D01*
X175899501Y-37137684D01*
X175935438Y-37410655D01*
X175935439Y-37410660D01*
X175935440Y-37410666D01*
X175968507Y-37534075D01*
X176006704Y-37676630D01*
X176112075Y-37931017D01*
X176112080Y-37931028D01*
X176175473Y-38040826D01*
X176249751Y-38169479D01*
X176249753Y-38169482D01*
X176249754Y-38169483D01*
X176417370Y-38387926D01*
X176417376Y-38387933D01*
X176612066Y-38582623D01*
X176612073Y-38582629D01*
X176709709Y-38657547D01*
X176830521Y-38750249D01*
X176983778Y-38838732D01*
X177068971Y-38887919D01*
X177068976Y-38887921D01*
X177068979Y-38887923D01*
X177323368Y-38993295D01*
X177589334Y-39064560D01*
X177862326Y-39100500D01*
X177862333Y-39100500D01*
X178137667Y-39100500D01*
X178137674Y-39100500D01*
X178410666Y-39064560D01*
X178676632Y-38993295D01*
X178931021Y-38887923D01*
X179169479Y-38750249D01*
X179387928Y-38582628D01*
X179582628Y-38387928D01*
X179750249Y-38169479D01*
X179768615Y-38137668D01*
X179819179Y-38089455D01*
X179887786Y-38076231D01*
X179952651Y-38102199D01*
X179993180Y-38159113D01*
X180000000Y-38199670D01*
X180000000Y-74800329D01*
X179980315Y-74867368D01*
X179927511Y-74913123D01*
X179858353Y-74923067D01*
X179794797Y-74894042D01*
X179768616Y-74862333D01*
X179750249Y-74830521D01*
X179594466Y-74627500D01*
X179582629Y-74612073D01*
X179582623Y-74612066D01*
X179387933Y-74417376D01*
X179387926Y-74417370D01*
X179169483Y-74249754D01*
X179169482Y-74249753D01*
X179169479Y-74249751D01*
X179041739Y-74176000D01*
X178931028Y-74112080D01*
X178931017Y-74112075D01*
X178676630Y-74006704D01*
X178532850Y-73968179D01*
X178410666Y-73935440D01*
X178410660Y-73935439D01*
X178410655Y-73935438D01*
X178137684Y-73899501D01*
X178137679Y-73899500D01*
X178137674Y-73899500D01*
X177862326Y-73899500D01*
X177862320Y-73899500D01*
X177862315Y-73899501D01*
X177589344Y-73935438D01*
X177589337Y-73935439D01*
X177589334Y-73935440D01*
X177533125Y-73950500D01*
X177323369Y-74006704D01*
X177068982Y-74112075D01*
X177068971Y-74112080D01*
X176830516Y-74249754D01*
X176612073Y-74417370D01*
X176612066Y-74417376D01*
X176417376Y-74612066D01*
X176417370Y-74612073D01*
X176249754Y-74830516D01*
X176112080Y-75068971D01*
X176112075Y-75068982D01*
X176006704Y-75323369D01*
X175989015Y-75389388D01*
X175943546Y-75559084D01*
X175935441Y-75589331D01*
X175935438Y-75589344D01*
X175899501Y-75862315D01*
X175899500Y-75862332D01*
X175899500Y-76137667D01*
X175899501Y-76137684D01*
X175935438Y-76410655D01*
X175935439Y-76410660D01*
X175935440Y-76410666D01*
X175947299Y-76454925D01*
X176006704Y-76676630D01*
X176112075Y-76931017D01*
X176112080Y-76931028D01*
X176191809Y-77069121D01*
X176249751Y-77169479D01*
X176249753Y-77169482D01*
X176249754Y-77169483D01*
X176417370Y-77387926D01*
X176417376Y-77387933D01*
X176612066Y-77582623D01*
X176612072Y-77582628D01*
X176830521Y-77750249D01*
X176862332Y-77768615D01*
X176910545Y-77819181D01*
X176923767Y-77887788D01*
X176897799Y-77952652D01*
X176840885Y-77993180D01*
X176800329Y-78000000D01*
X120124000Y-78000000D01*
X120056961Y-77980315D01*
X120011206Y-77927511D01*
X120000000Y-77876000D01*
X120000000Y-68997682D01*
X126500000Y-68997682D01*
X126500000Y-69202317D01*
X126532009Y-69404417D01*
X126595244Y-69599031D01*
X126688141Y-69781350D01*
X126688147Y-69781359D01*
X126720523Y-69825921D01*
X126720524Y-69825922D01*
X127400000Y-69146446D01*
X127400000Y-69152661D01*
X127427259Y-69254394D01*
X127479920Y-69345606D01*
X127554394Y-69420080D01*
X127645606Y-69472741D01*
X127747339Y-69500000D01*
X127753553Y-69500000D01*
X127074076Y-70179474D01*
X127118650Y-70211859D01*
X127300968Y-70304755D01*
X127392140Y-70334379D01*
X127449815Y-70373817D01*
X127477013Y-70438176D01*
X127465098Y-70507022D01*
X127417854Y-70558498D01*
X127392141Y-70570240D01*
X127339167Y-70587452D01*
X127170800Y-70673240D01*
X127119798Y-70710296D01*
X127017927Y-70784310D01*
X127017925Y-70784312D01*
X127017924Y-70784312D01*
X126884312Y-70917924D01*
X126884312Y-70917925D01*
X126884310Y-70917927D01*
X126873659Y-70932587D01*
X126773240Y-71070800D01*
X126687454Y-71239163D01*
X126629059Y-71418881D01*
X126599500Y-71605513D01*
X126599500Y-71794486D01*
X126629059Y-71981118D01*
X126687454Y-72160836D01*
X126773240Y-72329199D01*
X126884310Y-72482073D01*
X127017927Y-72615690D01*
X127170801Y-72726760D01*
X127247384Y-72765781D01*
X127339163Y-72812545D01*
X127339165Y-72812545D01*
X127339168Y-72812547D01*
X127435497Y-72843846D01*
X127518881Y-72870940D01*
X127705514Y-72900500D01*
X127705519Y-72900500D01*
X127894486Y-72900500D01*
X128081118Y-72870940D01*
X128134909Y-72853462D01*
X128260832Y-72812547D01*
X128429199Y-72726760D01*
X128582073Y-72615690D01*
X128715690Y-72482073D01*
X128826760Y-72329199D01*
X128912547Y-72160832D01*
X128952069Y-72039195D01*
X128991507Y-71981521D01*
X129055866Y-71954323D01*
X129124712Y-71966238D01*
X129176188Y-72013482D01*
X129187931Y-72039196D01*
X129227454Y-72160836D01*
X129313240Y-72329199D01*
X129424310Y-72482073D01*
X129557927Y-72615690D01*
X129710801Y-72726760D01*
X129787384Y-72765781D01*
X129879163Y-72812545D01*
X129879165Y-72812545D01*
X129879168Y-72812547D01*
X129975497Y-72843846D01*
X130058881Y-72870940D01*
X130245514Y-72900500D01*
X130245519Y-72900500D01*
X130434486Y-72900500D01*
X130621118Y-72870940D01*
X130674909Y-72853462D01*
X130800832Y-72812547D01*
X130969199Y-72726760D01*
X131122073Y-72615690D01*
X131255690Y-72482073D01*
X131366760Y-72329199D01*
X131452547Y-72160832D01*
X131510940Y-71981118D01*
X131523788Y-71899999D01*
X131540500Y-71794486D01*
X131540500Y-71605513D01*
X131510940Y-71418881D01*
X131452545Y-71239163D01*
X131392689Y-71121690D01*
X131366760Y-71070801D01*
X131255690Y-70917927D01*
X131122073Y-70784310D01*
X130969199Y-70673240D01*
X130800836Y-70587454D01*
X130728667Y-70564005D01*
X130670992Y-70524567D01*
X130643794Y-70460208D01*
X130655709Y-70391362D01*
X130702954Y-70339886D01*
X130728664Y-70328144D01*
X130799219Y-70305220D01*
X130981610Y-70212287D01*
X131099330Y-70126759D01*
X131147213Y-70091971D01*
X131147215Y-70091968D01*
X131147219Y-70091966D01*
X131291966Y-69947219D01*
X131291968Y-69947215D01*
X131291971Y-69947213D01*
X131344732Y-69874590D01*
X131412287Y-69781610D01*
X131505220Y-69599219D01*
X131568477Y-69404534D01*
X131569013Y-69401147D01*
X131569573Y-69399964D01*
X131569612Y-69399806D01*
X131569645Y-69399813D01*
X131598939Y-69338012D01*
X131658249Y-69301078D01*
X131728112Y-69302072D01*
X131786346Y-69340679D01*
X131809418Y-69382221D01*
X131867454Y-69560836D01*
X131930041Y-69683668D01*
X131953240Y-69729199D01*
X132064310Y-69882073D01*
X132197927Y-70015690D01*
X132350801Y-70126760D01*
X132430347Y-70167290D01*
X132519163Y-70212545D01*
X132519165Y-70212545D01*
X132519168Y-70212547D01*
X132577779Y-70231591D01*
X132698881Y-70270940D01*
X132885514Y-70300500D01*
X132885519Y-70300500D01*
X133074486Y-70300500D01*
X133261118Y-70270940D01*
X133440832Y-70212547D01*
X133609199Y-70126760D01*
X133762073Y-70015690D01*
X133895690Y-69882073D01*
X134006760Y-69729199D01*
X134092547Y-69560832D01*
X134132069Y-69439195D01*
X134171507Y-69381521D01*
X134235866Y-69354323D01*
X134304712Y-69366238D01*
X134356188Y-69413482D01*
X134367931Y-69439196D01*
X134407454Y-69560836D01*
X134470041Y-69683668D01*
X134493240Y-69729199D01*
X134604310Y-69882073D01*
X134737927Y-70015690D01*
X134737928Y-70015691D01*
X134737927Y-70015691D01*
X134758442Y-70030595D01*
X134768383Y-70037818D01*
X134811050Y-70093147D01*
X134819500Y-70138137D01*
X134819500Y-70572306D01*
X134819500Y-70710294D01*
X134819500Y-70710296D01*
X134819499Y-70710296D01*
X134846418Y-70845622D01*
X134846421Y-70845632D01*
X134899222Y-70973107D01*
X134975887Y-71087845D01*
X134975888Y-71087846D01*
X137390892Y-73502849D01*
X137424377Y-73564172D01*
X137419393Y-73633864D01*
X137390893Y-73678211D01*
X137272889Y-73796215D01*
X137147949Y-73968182D01*
X137143484Y-73976946D01*
X137095509Y-74027742D01*
X137027688Y-74044536D01*
X136961553Y-74021998D01*
X136922516Y-73976946D01*
X136918050Y-73968182D01*
X136793109Y-73796213D01*
X136642786Y-73645890D01*
X136470820Y-73520951D01*
X136281414Y-73424444D01*
X136281413Y-73424443D01*
X136281412Y-73424443D01*
X136079243Y-73358754D01*
X136079241Y-73358753D01*
X136079240Y-73358753D01*
X135917957Y-73333208D01*
X135869287Y-73325500D01*
X135656713Y-73325500D01*
X135608042Y-73333208D01*
X135446760Y-73358753D01*
X135244585Y-73424444D01*
X135055179Y-73520951D01*
X134883213Y-73645890D01*
X134732890Y-73796213D01*
X134607951Y-73968179D01*
X134511444Y-74157585D01*
X134445753Y-74359760D01*
X134412500Y-74569713D01*
X134412500Y-74782286D01*
X134434797Y-74923067D01*
X134445754Y-74992243D01*
X134502738Y-75167622D01*
X134511444Y-75194414D01*
X134607951Y-75383820D01*
X134732890Y-75555786D01*
X134883213Y-75706109D01*
X135055179Y-75831048D01*
X135055181Y-75831049D01*
X135055184Y-75831051D01*
X135244588Y-75927557D01*
X135446757Y-75993246D01*
X135656713Y-76026500D01*
X135656714Y-76026500D01*
X135869286Y-76026500D01*
X135869287Y-76026500D01*
X136072542Y-75994307D01*
X136141833Y-76003261D01*
X136179647Y-76029126D01*
X136367613Y-76217209D01*
X136367612Y-76217209D01*
X136373431Y-76223032D01*
X136373480Y-76223116D01*
X136430542Y-76280178D01*
X136430568Y-76280204D01*
X136430569Y-76280206D01*
X136485138Y-76334808D01*
X136485286Y-76334922D01*
X136554701Y-76374998D01*
X136554704Y-76374999D01*
X136554716Y-76375006D01*
X136622041Y-76413904D01*
X136622131Y-76413928D01*
X136622216Y-76413977D01*
X136622235Y-76413982D01*
X136622237Y-76413983D01*
X136647530Y-76420760D01*
X136698402Y-76434391D01*
X136774756Y-76454876D01*
X136774853Y-76454876D01*
X136774943Y-76454900D01*
X136774976Y-76454900D01*
X136852200Y-76454900D01*
X136932870Y-76454925D01*
X136932871Y-76454924D01*
X136940781Y-76454927D01*
X136941206Y-76454900D01*
X138691062Y-76454900D01*
X138691178Y-76454931D01*
X138770236Y-76454900D01*
X138849057Y-76454900D01*
X138849057Y-76454899D01*
X138849288Y-76454869D01*
X138849293Y-76454869D01*
X138925867Y-76434318D01*
X139001784Y-76413977D01*
X139001887Y-76413917D01*
X139002004Y-76413886D01*
X139069991Y-76374597D01*
X139070042Y-76374584D01*
X139070035Y-76374572D01*
X139138716Y-76334920D01*
X139138723Y-76334912D01*
X139138893Y-76334783D01*
X139138897Y-76334778D01*
X139138904Y-76334775D01*
X139193701Y-76279934D01*
X139250520Y-76223116D01*
X139250522Y-76223111D01*
X139256235Y-76217399D01*
X139256567Y-76217018D01*
X139777781Y-75695395D01*
X139839088Y-75661888D01*
X139908782Y-75666845D01*
X139953175Y-75695363D01*
X139963535Y-75705723D01*
X139963540Y-75705727D01*
X140135442Y-75830620D01*
X140324782Y-75927095D01*
X140526871Y-75992757D01*
X140593000Y-76003231D01*
X140593000Y-75109012D01*
X140650007Y-75141925D01*
X140777174Y-75176000D01*
X140908826Y-75176000D01*
X141035993Y-75141925D01*
X141093000Y-75109012D01*
X141093000Y-76003230D01*
X141159126Y-75992757D01*
X141159129Y-75992757D01*
X141361217Y-75927095D01*
X141550557Y-75830620D01*
X141722459Y-75705727D01*
X141722464Y-75705723D01*
X141872723Y-75555464D01*
X141872727Y-75555459D01*
X141997620Y-75383558D01*
X142002232Y-75374507D01*
X142050205Y-75323709D01*
X142118025Y-75306912D01*
X142184161Y-75329447D01*
X142223204Y-75374504D01*
X142227949Y-75383817D01*
X142352890Y-75555786D01*
X142503213Y-75706109D01*
X142675179Y-75831048D01*
X142675181Y-75831049D01*
X142675184Y-75831051D01*
X142864588Y-75927557D01*
X143066757Y-75993246D01*
X143276713Y-76026500D01*
X143276714Y-76026500D01*
X143489286Y-76026500D01*
X143489287Y-76026500D01*
X143699243Y-75993246D01*
X143901412Y-75927557D01*
X144090816Y-75831051D01*
X144262792Y-75706104D01*
X144376329Y-75592566D01*
X144437648Y-75559084D01*
X144507340Y-75564068D01*
X144563274Y-75605939D01*
X144580189Y-75636917D01*
X144629202Y-75768328D01*
X144629206Y-75768335D01*
X144715452Y-75883544D01*
X144715455Y-75883547D01*
X144830664Y-75969793D01*
X144830671Y-75969797D01*
X144965517Y-76020091D01*
X144965516Y-76020091D01*
X144972444Y-76020835D01*
X145025127Y-76026500D01*
X146820872Y-76026499D01*
X146880483Y-76020091D01*
X147015331Y-75969796D01*
X147130546Y-75883546D01*
X147216796Y-75768331D01*
X147267091Y-75633483D01*
X147273500Y-75573873D01*
X147273499Y-73778128D01*
X147267091Y-73718517D01*
X147265810Y-73715083D01*
X147216797Y-73583671D01*
X147216793Y-73583664D01*
X147130547Y-73468455D01*
X147130544Y-73468452D01*
X147015335Y-73382206D01*
X147015328Y-73382202D01*
X146880482Y-73331908D01*
X146880483Y-73331908D01*
X146820883Y-73325501D01*
X146820881Y-73325500D01*
X146820873Y-73325500D01*
X146820864Y-73325500D01*
X145025129Y-73325500D01*
X145025123Y-73325501D01*
X144965516Y-73331908D01*
X144830671Y-73382202D01*
X144830664Y-73382206D01*
X144715455Y-73468452D01*
X144715452Y-73468455D01*
X144629206Y-73583664D01*
X144629203Y-73583669D01*
X144580189Y-73715083D01*
X144538317Y-73771016D01*
X144472853Y-73795433D01*
X144404580Y-73780581D01*
X144376326Y-73759430D01*
X144262786Y-73645890D01*
X144090820Y-73520951D01*
X143901414Y-73424444D01*
X143901413Y-73424443D01*
X143901412Y-73424443D01*
X143699243Y-73358754D01*
X143699241Y-73358753D01*
X143699240Y-73358753D01*
X143537957Y-73333208D01*
X143489287Y-73325500D01*
X143276713Y-73325500D01*
X143228042Y-73333208D01*
X143066760Y-73358753D01*
X142864585Y-73424444D01*
X142675179Y-73520951D01*
X142503213Y-73645890D01*
X142352890Y-73796213D01*
X142227949Y-73968182D01*
X142223202Y-73977499D01*
X142175227Y-74028293D01*
X142107405Y-74045087D01*
X142041271Y-74022548D01*
X142002234Y-73977495D01*
X141997622Y-73968444D01*
X141872727Y-73796540D01*
X141872723Y-73796535D01*
X141722464Y-73646276D01*
X141722459Y-73646272D01*
X141550557Y-73521379D01*
X141361215Y-73424903D01*
X141159124Y-73359241D01*
X141093000Y-73348768D01*
X141093000Y-74242988D01*
X141035993Y-74210075D01*
X140908826Y-74176000D01*
X140777174Y-74176000D01*
X140650007Y-74210075D01*
X140593000Y-74242988D01*
X140593000Y-73348768D01*
X140592999Y-73348768D01*
X140526875Y-73359241D01*
X140324783Y-73424903D01*
X140324781Y-73424904D01*
X140315789Y-73429486D01*
X140247119Y-73442378D01*
X140182380Y-73416098D01*
X140142126Y-73358990D01*
X140135500Y-73318998D01*
X140135500Y-71746822D01*
X161272500Y-71746822D01*
X161272500Y-72053177D01*
X161306798Y-72357580D01*
X161306800Y-72357596D01*
X161374967Y-72656258D01*
X161374971Y-72656270D01*
X161476145Y-72945407D01*
X161476154Y-72945429D01*
X161609062Y-73221416D01*
X161772051Y-73480811D01*
X161902302Y-73644143D01*
X162788078Y-72758366D01*
X162867305Y-72867413D01*
X163032587Y-73032695D01*
X163141631Y-73111920D01*
X162255855Y-73997696D01*
X162419188Y-74127948D01*
X162678583Y-74290937D01*
X162954570Y-74423845D01*
X162954592Y-74423854D01*
X163243729Y-74525028D01*
X163243741Y-74525032D01*
X163542403Y-74593199D01*
X163542419Y-74593201D01*
X163846822Y-74627499D01*
X163846824Y-74627500D01*
X164153176Y-74627500D01*
X164153177Y-74627499D01*
X164457580Y-74593201D01*
X164457596Y-74593199D01*
X164756258Y-74525032D01*
X164756270Y-74525028D01*
X165045407Y-74423854D01*
X165045429Y-74423845D01*
X165321416Y-74290937D01*
X165580811Y-74127948D01*
X165744143Y-73997696D01*
X164858367Y-73111920D01*
X164967413Y-73032695D01*
X165132695Y-72867413D01*
X165211920Y-72758367D01*
X166097696Y-73644143D01*
X166227948Y-73480811D01*
X166390937Y-73221416D01*
X166523845Y-72945429D01*
X166523854Y-72945407D01*
X166625028Y-72656270D01*
X166625032Y-72656258D01*
X166693199Y-72357596D01*
X166693201Y-72357580D01*
X166727499Y-72053177D01*
X166727500Y-72053175D01*
X166727500Y-71746824D01*
X166727499Y-71746822D01*
X166693201Y-71442419D01*
X166693199Y-71442403D01*
X166625032Y-71143741D01*
X166625029Y-71143731D01*
X166523854Y-70854592D01*
X166523845Y-70854570D01*
X166390937Y-70578583D01*
X166227948Y-70319188D01*
X166097696Y-70155855D01*
X165211920Y-71041631D01*
X165132695Y-70932587D01*
X164967413Y-70767305D01*
X164858366Y-70688078D01*
X165744143Y-69802302D01*
X165580811Y-69672051D01*
X165321416Y-69509062D01*
X165045429Y-69376154D01*
X165045407Y-69376145D01*
X164756270Y-69274971D01*
X164756258Y-69274967D01*
X164457596Y-69206800D01*
X164457580Y-69206798D01*
X164153177Y-69172500D01*
X163846822Y-69172500D01*
X163542419Y-69206798D01*
X163542403Y-69206800D01*
X163243741Y-69274967D01*
X163243729Y-69274971D01*
X162954592Y-69376145D01*
X162954570Y-69376154D01*
X162678583Y-69509062D01*
X162419184Y-69672053D01*
X162419180Y-69672056D01*
X162255855Y-69802302D01*
X163141632Y-70688079D01*
X163032587Y-70767305D01*
X162867305Y-70932587D01*
X162788079Y-71041632D01*
X161902302Y-70155855D01*
X161772056Y-70319180D01*
X161772053Y-70319184D01*
X161609062Y-70578583D01*
X161476154Y-70854570D01*
X161476145Y-70854592D01*
X161374971Y-71143729D01*
X161374967Y-71143741D01*
X161306800Y-71442403D01*
X161306798Y-71442419D01*
X161272500Y-71746822D01*
X140135500Y-71746822D01*
X140135500Y-69970990D01*
X140144144Y-69941550D01*
X140150667Y-69911565D01*
X140154422Y-69906547D01*
X140155185Y-69903951D01*
X140171813Y-69883314D01*
X143030817Y-67024219D01*
X143108520Y-66946516D01*
X143187577Y-66809584D01*
X143187578Y-66809578D01*
X143187580Y-66809576D01*
X143187586Y-66809551D01*
X143188329Y-66807484D01*
X143189127Y-66803802D01*
X143200980Y-66759567D01*
X143223312Y-66676219D01*
X143228500Y-66656857D01*
X143228500Y-66656855D01*
X143228502Y-66656848D01*
X143228500Y-66525716D01*
X143228500Y-65901150D01*
X143248185Y-65834111D01*
X143300989Y-65788356D01*
X143370147Y-65778412D01*
X143390820Y-65783220D01*
X143425458Y-65794475D01*
X143425461Y-65794475D01*
X143425466Y-65794477D01*
X143627648Y-65826500D01*
X143627649Y-65826500D01*
X144632351Y-65826500D01*
X144632352Y-65826500D01*
X144834534Y-65794477D01*
X144838467Y-65793199D01*
X144887181Y-65777371D01*
X144957023Y-65775376D01*
X145016856Y-65811456D01*
X145047684Y-65874157D01*
X145049500Y-65895302D01*
X145049500Y-68120234D01*
X145029815Y-68187273D01*
X145028602Y-68189125D01*
X144940609Y-68320814D01*
X144940602Y-68320827D01*
X144880264Y-68466498D01*
X144880261Y-68466510D01*
X144849500Y-68621153D01*
X144849500Y-68778846D01*
X144880261Y-68933489D01*
X144880264Y-68933501D01*
X144940602Y-69079172D01*
X144940609Y-69079185D01*
X145028210Y-69210288D01*
X145028213Y-69210292D01*
X145139707Y-69321786D01*
X145139711Y-69321789D01*
X145270814Y-69409390D01*
X145270827Y-69409397D01*
X145416498Y-69469735D01*
X145416503Y-69469737D01*
X145568644Y-69500000D01*
X145571153Y-69500499D01*
X145571156Y-69500500D01*
X145571158Y-69500500D01*
X145728844Y-69500500D01*
X145728845Y-69500499D01*
X145883497Y-69469737D01*
X146029179Y-69409394D01*
X146160289Y-69321789D01*
X146271789Y-69210289D01*
X146359394Y-69079179D01*
X146419737Y-68933497D01*
X146450500Y-68778842D01*
X146450500Y-68621158D01*
X146450500Y-68621155D01*
X146450499Y-68621153D01*
X146446446Y-68600776D01*
X146419737Y-68466503D01*
X146399917Y-68418652D01*
X146359397Y-68320827D01*
X146359390Y-68320814D01*
X146271398Y-68189125D01*
X146250520Y-68122447D01*
X146250500Y-68120234D01*
X146250500Y-56724573D01*
X146270185Y-56657534D01*
X146286814Y-56636897D01*
X146289354Y-56634357D01*
X150216364Y-52706919D01*
X150277684Y-52673431D01*
X150347376Y-52678412D01*
X150391730Y-52706915D01*
X150502786Y-52817971D01*
X150616380Y-52900500D01*
X150668390Y-52938287D01*
X150750374Y-52980060D01*
X150761080Y-52985515D01*
X150811876Y-53033490D01*
X150828671Y-53101311D01*
X150806134Y-53167446D01*
X150761080Y-53206485D01*
X150668386Y-53253715D01*
X150502786Y-53374028D01*
X150358028Y-53518786D01*
X150237714Y-53684386D01*
X150225787Y-53707795D01*
X150177811Y-53758590D01*
X150147397Y-53771273D01*
X150016214Y-53806423D01*
X150016209Y-53806426D01*
X149879290Y-53885475D01*
X149879282Y-53885481D01*
X149767481Y-53997282D01*
X149767475Y-53997290D01*
X149688426Y-54134209D01*
X149688423Y-54134216D01*
X149647500Y-54286943D01*
X149647500Y-68120234D01*
X149627815Y-68187273D01*
X149626602Y-68189125D01*
X149538609Y-68320814D01*
X149538602Y-68320827D01*
X149478264Y-68466498D01*
X149478261Y-68466510D01*
X149447500Y-68621153D01*
X149447500Y-68778846D01*
X149478261Y-68933489D01*
X149478264Y-68933501D01*
X149538602Y-69079172D01*
X149538609Y-69079185D01*
X149626210Y-69210288D01*
X149626213Y-69210292D01*
X149737707Y-69321786D01*
X149737711Y-69321789D01*
X149868814Y-69409390D01*
X149868827Y-69409397D01*
X150014498Y-69469735D01*
X150014503Y-69469737D01*
X150166644Y-69500000D01*
X150169153Y-69500499D01*
X150169156Y-69500500D01*
X150169158Y-69500500D01*
X150326844Y-69500500D01*
X150326845Y-69500499D01*
X150481497Y-69469737D01*
X150627179Y-69409394D01*
X150758289Y-69321789D01*
X150869789Y-69210289D01*
X150957394Y-69079179D01*
X151017737Y-68933497D01*
X151048500Y-68778842D01*
X151048500Y-68621158D01*
X151048500Y-68621155D01*
X151048499Y-68621153D01*
X151044446Y-68600776D01*
X151017737Y-68466503D01*
X150997917Y-68418652D01*
X150957397Y-68320827D01*
X150957390Y-68320814D01*
X150869398Y-68189125D01*
X150848520Y-68122447D01*
X150848500Y-68120234D01*
X150848500Y-65901150D01*
X150868185Y-65834111D01*
X150920989Y-65788356D01*
X150990147Y-65778412D01*
X151010820Y-65783220D01*
X151045458Y-65794475D01*
X151045461Y-65794475D01*
X151045466Y-65794477D01*
X151247648Y-65826500D01*
X151247649Y-65826500D01*
X152252351Y-65826500D01*
X152252352Y-65826500D01*
X152454534Y-65794477D01*
X152649219Y-65731220D01*
X152831610Y-65638287D01*
X152970191Y-65537603D01*
X152997213Y-65517971D01*
X152997215Y-65517968D01*
X152997219Y-65517966D01*
X153141966Y-65373219D01*
X153141968Y-65373215D01*
X153141971Y-65373213D01*
X153212075Y-65276721D01*
X153262287Y-65207610D01*
X153325309Y-65083924D01*
X153355218Y-65025223D01*
X153355218Y-65025222D01*
X153355220Y-65025219D01*
X153418477Y-64830534D01*
X153450500Y-64628352D01*
X153450500Y-64423648D01*
X153450146Y-64421416D01*
X153418477Y-64221465D01*
X153377697Y-64095957D01*
X153355220Y-64026781D01*
X153355218Y-64026778D01*
X153355218Y-64026776D01*
X153309451Y-63936954D01*
X153296555Y-63868285D01*
X153322831Y-63803544D01*
X153332246Y-63792987D01*
X154178411Y-62946822D01*
X161272500Y-62946822D01*
X161272500Y-63253177D01*
X161306798Y-63557580D01*
X161306800Y-63557596D01*
X161374967Y-63856258D01*
X161374971Y-63856270D01*
X161476145Y-64145407D01*
X161476154Y-64145429D01*
X161609062Y-64421416D01*
X161772051Y-64680811D01*
X161902302Y-64844143D01*
X162788078Y-63958366D01*
X162867305Y-64067413D01*
X163032587Y-64232695D01*
X163141631Y-64311920D01*
X162255855Y-65197696D01*
X162419188Y-65327948D01*
X162678583Y-65490937D01*
X162954570Y-65623845D01*
X162954592Y-65623854D01*
X163243729Y-65725028D01*
X163243741Y-65725032D01*
X163542403Y-65793199D01*
X163542419Y-65793201D01*
X163846822Y-65827499D01*
X163846824Y-65827500D01*
X164153176Y-65827500D01*
X164153177Y-65827499D01*
X164457580Y-65793201D01*
X164457596Y-65793199D01*
X164756258Y-65725032D01*
X164756270Y-65725028D01*
X165045407Y-65623854D01*
X165045429Y-65623845D01*
X165321416Y-65490937D01*
X165580811Y-65327948D01*
X165744143Y-65197696D01*
X164858367Y-64311920D01*
X164967413Y-64232695D01*
X165132695Y-64067413D01*
X165211920Y-63958367D01*
X166097696Y-64844143D01*
X166227948Y-64680811D01*
X166390937Y-64421416D01*
X166523845Y-64145429D01*
X166523854Y-64145407D01*
X166625028Y-63856270D01*
X166625032Y-63856258D01*
X166693199Y-63557596D01*
X166693201Y-63557580D01*
X166727499Y-63253177D01*
X166727500Y-63253175D01*
X166727500Y-62946824D01*
X166727499Y-62946822D01*
X166693201Y-62642419D01*
X166693199Y-62642403D01*
X166625032Y-62343741D01*
X166625028Y-62343729D01*
X166523854Y-62054592D01*
X166523845Y-62054570D01*
X166390937Y-61778583D01*
X166227948Y-61519188D01*
X166097696Y-61355855D01*
X165211920Y-62241631D01*
X165132695Y-62132587D01*
X164967413Y-61967305D01*
X164858366Y-61888078D01*
X165744143Y-61002302D01*
X165580811Y-60872051D01*
X165321416Y-60709062D01*
X165045429Y-60576154D01*
X165045407Y-60576145D01*
X164756270Y-60474971D01*
X164756258Y-60474967D01*
X164457596Y-60406800D01*
X164457580Y-60406798D01*
X164153177Y-60372500D01*
X163846822Y-60372500D01*
X163542419Y-60406798D01*
X163542403Y-60406800D01*
X163243741Y-60474967D01*
X163243729Y-60474971D01*
X162954592Y-60576145D01*
X162954570Y-60576154D01*
X162678583Y-60709062D01*
X162419184Y-60872053D01*
X162419180Y-60872056D01*
X162255855Y-61002302D01*
X163141632Y-61888079D01*
X163032587Y-61967305D01*
X162867305Y-62132587D01*
X162788079Y-62241632D01*
X161902302Y-61355855D01*
X161772056Y-61519180D01*
X161772053Y-61519184D01*
X161609062Y-61778583D01*
X161476154Y-62054570D01*
X161476145Y-62054592D01*
X161374971Y-62343729D01*
X161374967Y-62343741D01*
X161306800Y-62642403D01*
X161306798Y-62642419D01*
X161272500Y-62946822D01*
X154178411Y-62946822D01*
X161070133Y-56055100D01*
X161131453Y-56021618D01*
X161201145Y-56026602D01*
X161257078Y-56068474D01*
X161281031Y-56128900D01*
X161306798Y-56357580D01*
X161306800Y-56357596D01*
X161374967Y-56656258D01*
X161374971Y-56656270D01*
X161476145Y-56945407D01*
X161476154Y-56945429D01*
X161609062Y-57221416D01*
X161772051Y-57480811D01*
X161902302Y-57644143D01*
X162788078Y-56758366D01*
X162867305Y-56867413D01*
X163032587Y-57032695D01*
X163141631Y-57111920D01*
X162255855Y-57997696D01*
X162419188Y-58127948D01*
X162678583Y-58290937D01*
X162954570Y-58423845D01*
X162954592Y-58423854D01*
X163243729Y-58525028D01*
X163243741Y-58525032D01*
X163542403Y-58593199D01*
X163542419Y-58593201D01*
X163846822Y-58627499D01*
X163846824Y-58627500D01*
X164153176Y-58627500D01*
X164153177Y-58627499D01*
X164457580Y-58593201D01*
X164457596Y-58593199D01*
X164756258Y-58525032D01*
X164756270Y-58525028D01*
X165045407Y-58423854D01*
X165045429Y-58423845D01*
X165321416Y-58290937D01*
X165580811Y-58127948D01*
X165744143Y-57997696D01*
X164858367Y-57111920D01*
X164967413Y-57032695D01*
X165132695Y-56867413D01*
X165211920Y-56758367D01*
X166097696Y-57644143D01*
X166227948Y-57480811D01*
X166390937Y-57221416D01*
X166523845Y-56945429D01*
X166523854Y-56945407D01*
X166625028Y-56656270D01*
X166625032Y-56656258D01*
X166693199Y-56357596D01*
X166693201Y-56357580D01*
X166727499Y-56053177D01*
X166727500Y-56053175D01*
X166727500Y-55746824D01*
X166727499Y-55746822D01*
X166693201Y-55442419D01*
X166693199Y-55442403D01*
X166625032Y-55143741D01*
X166625028Y-55143729D01*
X166523854Y-54854592D01*
X166523845Y-54854570D01*
X166390937Y-54578583D01*
X166227948Y-54319188D01*
X166097696Y-54155855D01*
X165211920Y-55041631D01*
X165132695Y-54932587D01*
X164967413Y-54767305D01*
X164858366Y-54688078D01*
X165744143Y-53802302D01*
X165580811Y-53672051D01*
X165321416Y-53509062D01*
X165045429Y-53376154D01*
X165045407Y-53376145D01*
X164756270Y-53274971D01*
X164756258Y-53274967D01*
X164457596Y-53206800D01*
X164457580Y-53206798D01*
X164228900Y-53181032D01*
X164164486Y-53153965D01*
X164124931Y-53096371D01*
X164122794Y-53026534D01*
X164155101Y-52970133D01*
X164988416Y-52136819D01*
X165049739Y-52103334D01*
X165076097Y-52100500D01*
X169658164Y-52100500D01*
X169725203Y-52120185D01*
X169768648Y-52168204D01*
X169802185Y-52234023D01*
X169931752Y-52412358D01*
X169931756Y-52412363D01*
X170087639Y-52568246D01*
X170200151Y-52649990D01*
X170242817Y-52705319D01*
X170248796Y-52774933D01*
X170216191Y-52836728D01*
X170202513Y-52848579D01*
X170202485Y-52848932D01*
X170788940Y-53435387D01*
X170768409Y-53440889D01*
X170631592Y-53519881D01*
X170519881Y-53631592D01*
X170440889Y-53768409D01*
X170435387Y-53788940D01*
X169848932Y-53202485D01*
X169848931Y-53202485D01*
X169802616Y-53266233D01*
X169702567Y-53462589D01*
X169634473Y-53672164D01*
X169600000Y-53889818D01*
X169600000Y-54110181D01*
X169634473Y-54327835D01*
X169702567Y-54537410D01*
X169802611Y-54733756D01*
X169848932Y-54797513D01*
X170435387Y-54211058D01*
X170440889Y-54231591D01*
X170519881Y-54368408D01*
X170631592Y-54480119D01*
X170768409Y-54559111D01*
X170788939Y-54564612D01*
X170202485Y-55151065D01*
X170202485Y-55151066D01*
X170266243Y-55197388D01*
X170462589Y-55297432D01*
X170672164Y-55365526D01*
X170889819Y-55400000D01*
X171110181Y-55400000D01*
X171327832Y-55365527D01*
X171445181Y-55327398D01*
X171515022Y-55325403D01*
X171574855Y-55361483D01*
X171605684Y-55424184D01*
X171607500Y-55445329D01*
X171607500Y-63350316D01*
X171598857Y-63379749D01*
X171592337Y-63409735D01*
X171588577Y-63414757D01*
X171587815Y-63417355D01*
X171571188Y-63437991D01*
X171413437Y-63595765D01*
X171352116Y-63629254D01*
X171306352Y-63630563D01*
X171110222Y-63599500D01*
X170889778Y-63599500D01*
X170858298Y-63604486D01*
X170672047Y-63633985D01*
X170462396Y-63702103D01*
X170462393Y-63702104D01*
X170265974Y-63802187D01*
X170087641Y-63931752D01*
X170087636Y-63931756D01*
X169931756Y-64087636D01*
X169931752Y-64087641D01*
X169802187Y-64265974D01*
X169702104Y-64462393D01*
X169702103Y-64462396D01*
X169633985Y-64672047D01*
X169599500Y-64889778D01*
X169599500Y-65110221D01*
X169633985Y-65327952D01*
X169702103Y-65537603D01*
X169702104Y-65537606D01*
X169753405Y-65638287D01*
X169800757Y-65731220D01*
X169802187Y-65734025D01*
X169931752Y-65912358D01*
X169931756Y-65912363D01*
X170087636Y-66068243D01*
X170087641Y-66068247D01*
X170199727Y-66149682D01*
X170242393Y-66205011D01*
X170248372Y-66274625D01*
X170215767Y-66336420D01*
X170199727Y-66350318D01*
X170087641Y-66431752D01*
X170087636Y-66431756D01*
X169931756Y-66587636D01*
X169931752Y-66587641D01*
X169802187Y-66765974D01*
X169702104Y-66962393D01*
X169702103Y-66962396D01*
X169633985Y-67172047D01*
X169599500Y-67389778D01*
X169599500Y-67610221D01*
X169633985Y-67827952D01*
X169702103Y-68037603D01*
X169702104Y-68037606D01*
X169802187Y-68234025D01*
X169931752Y-68412358D01*
X169931756Y-68412363D01*
X170087636Y-68568243D01*
X170087641Y-68568247D01*
X170200151Y-68649990D01*
X170242817Y-68705319D01*
X170248796Y-68774933D01*
X170216191Y-68836728D01*
X170202513Y-68848579D01*
X170202485Y-68848932D01*
X170788940Y-69435387D01*
X170768409Y-69440889D01*
X170631592Y-69519881D01*
X170519881Y-69631592D01*
X170440889Y-69768409D01*
X170435387Y-69788940D01*
X169848932Y-69202485D01*
X169848931Y-69202485D01*
X169802616Y-69266233D01*
X169702567Y-69462589D01*
X169634473Y-69672164D01*
X169600000Y-69889818D01*
X169600000Y-70110181D01*
X169634473Y-70327835D01*
X169702567Y-70537410D01*
X169802611Y-70733756D01*
X169848932Y-70797513D01*
X170435387Y-70211058D01*
X170440889Y-70231591D01*
X170519881Y-70368408D01*
X170631592Y-70480119D01*
X170768409Y-70559111D01*
X170788939Y-70564612D01*
X170202485Y-71151065D01*
X170202485Y-71151066D01*
X170266243Y-71197388D01*
X170462589Y-71297432D01*
X170672164Y-71365526D01*
X170889819Y-71400000D01*
X171110181Y-71400000D01*
X171327835Y-71365526D01*
X171537410Y-71297432D01*
X171733760Y-71197386D01*
X171797513Y-71151066D01*
X171797514Y-71151066D01*
X171211059Y-70564612D01*
X171231591Y-70559111D01*
X171368408Y-70480119D01*
X171480119Y-70368408D01*
X171559111Y-70231591D01*
X171564612Y-70211060D01*
X172151066Y-70797514D01*
X172151066Y-70797513D01*
X172197386Y-70733760D01*
X172297432Y-70537410D01*
X172365526Y-70327835D01*
X172400000Y-70110181D01*
X172400000Y-69889818D01*
X172365526Y-69672164D01*
X172297432Y-69462589D01*
X172197388Y-69266243D01*
X172151066Y-69202485D01*
X172151065Y-69202485D01*
X171564612Y-69788939D01*
X171559111Y-69768409D01*
X171480119Y-69631592D01*
X171368408Y-69519881D01*
X171231591Y-69440889D01*
X171211057Y-69435387D01*
X171797513Y-68848932D01*
X171797396Y-68847450D01*
X171757181Y-68795299D01*
X171751200Y-68725686D01*
X171783805Y-68663890D01*
X171799842Y-68649993D01*
X171912365Y-68568242D01*
X172068242Y-68412365D01*
X172197815Y-68234022D01*
X172297895Y-68037606D01*
X172366015Y-67827951D01*
X172400500Y-67610222D01*
X172400500Y-67389778D01*
X172366015Y-67172049D01*
X172305354Y-66985350D01*
X172297896Y-66962396D01*
X172297895Y-66962393D01*
X172244881Y-66858350D01*
X172197815Y-66765978D01*
X172119238Y-66657825D01*
X172068247Y-66587641D01*
X172068243Y-66587636D01*
X171912365Y-66431758D01*
X171877395Y-66406351D01*
X171800270Y-66350317D01*
X171757606Y-66294989D01*
X171751627Y-66225376D01*
X171784232Y-66163580D01*
X171800265Y-66149686D01*
X171912365Y-66068242D01*
X172068242Y-65912365D01*
X172197815Y-65734022D01*
X172297895Y-65537606D01*
X172366015Y-65327951D01*
X172400500Y-65110222D01*
X172400500Y-64889778D01*
X172369397Y-64693403D01*
X172378351Y-64624113D01*
X172404178Y-64586337D01*
X172806385Y-64184070D01*
X172851173Y-64139283D01*
X172852084Y-64138394D01*
X172852143Y-64138305D01*
X172852148Y-64138301D01*
X172891063Y-64080049D01*
X172928775Y-64023611D01*
X172928776Y-64023607D01*
X172928786Y-64023593D01*
X172928795Y-64023570D01*
X172928800Y-64023564D01*
X172956206Y-63957384D01*
X172981580Y-63896128D01*
X172981580Y-63896126D01*
X172981590Y-63896103D01*
X172981594Y-63896080D01*
X172981596Y-63896077D01*
X172995423Y-63826536D01*
X172995424Y-63826536D01*
X172995424Y-63826530D01*
X173008500Y-63760793D01*
X173008500Y-63760783D01*
X173008503Y-63760748D01*
X173008505Y-63760740D01*
X173008500Y-63698018D01*
X173008500Y-50296082D01*
X173008505Y-50239260D01*
X173008500Y-50239234D01*
X173008500Y-50239207D01*
X172995419Y-50173449D01*
X172981817Y-50105038D01*
X172981617Y-50103962D01*
X172981453Y-50103566D01*
X172956206Y-50042613D01*
X172956202Y-50042605D01*
X172928894Y-49976663D01*
X172928795Y-49976421D01*
X172928777Y-49976394D01*
X172928775Y-49976389D01*
X172891063Y-49919950D01*
X172891062Y-49919948D01*
X172891063Y-49919947D01*
X172891056Y-49919940D01*
X172852148Y-49861699D01*
X172852128Y-49861679D01*
X172852114Y-49861658D01*
X172806385Y-49815929D01*
X172806086Y-49815629D01*
X172806009Y-49815552D01*
X172404183Y-49413664D01*
X172370703Y-49352339D01*
X172369398Y-49306592D01*
X172397001Y-49132312D01*
X172400500Y-49110222D01*
X172400500Y-48889778D01*
X172366015Y-48672049D01*
X172325851Y-48548434D01*
X172297896Y-48462396D01*
X172297895Y-48462393D01*
X172243283Y-48355213D01*
X172197815Y-48265978D01*
X172110216Y-48145407D01*
X172068247Y-48087641D01*
X172068243Y-48087636D01*
X171912363Y-47931756D01*
X171912358Y-47931752D01*
X171734025Y-47802187D01*
X171734024Y-47802186D01*
X171734022Y-47802185D01*
X171671096Y-47770122D01*
X171537606Y-47702104D01*
X171537603Y-47702103D01*
X171327952Y-47633985D01*
X171219086Y-47616742D01*
X171110222Y-47599500D01*
X170889778Y-47599500D01*
X170804877Y-47612946D01*
X170693527Y-47630583D01*
X170624233Y-47621628D01*
X170586448Y-47595791D01*
X166196819Y-43206162D01*
X166163334Y-43144839D01*
X166160500Y-43118481D01*
X166160500Y-39474499D01*
X166180185Y-39407460D01*
X166232989Y-39361705D01*
X166284500Y-39350499D01*
X166357871Y-39350499D01*
X166357872Y-39350499D01*
X166417483Y-39344091D01*
X166552331Y-39293796D01*
X166667546Y-39207546D01*
X166753796Y-39092331D01*
X166803002Y-38960401D01*
X166844872Y-38904468D01*
X166910337Y-38880050D01*
X166978610Y-38894901D01*
X167006865Y-38916053D01*
X167120535Y-39029723D01*
X167120540Y-39029727D01*
X167292442Y-39154620D01*
X167481782Y-39251095D01*
X167683871Y-39316757D01*
X167750000Y-39327231D01*
X167750000Y-38433012D01*
X167807007Y-38465925D01*
X167934174Y-38500000D01*
X168065826Y-38500000D01*
X168192993Y-38465925D01*
X168250000Y-38433012D01*
X168250000Y-39327230D01*
X168316126Y-39316757D01*
X168316129Y-39316757D01*
X168518217Y-39251095D01*
X168707557Y-39154620D01*
X168879459Y-39029727D01*
X168879464Y-39029723D01*
X169029723Y-38879464D01*
X169029727Y-38879459D01*
X169154620Y-38707557D01*
X169251095Y-38518217D01*
X169316757Y-38316129D01*
X169316757Y-38316126D01*
X169327231Y-38250000D01*
X168433012Y-38250000D01*
X168465925Y-38192993D01*
X168500000Y-38065826D01*
X168500000Y-37934174D01*
X168465925Y-37807007D01*
X168433012Y-37750000D01*
X169327231Y-37750000D01*
X169316757Y-37683873D01*
X169316757Y-37683870D01*
X169251095Y-37481782D01*
X169154620Y-37292442D01*
X169029727Y-37120540D01*
X169029723Y-37120535D01*
X168879464Y-36970276D01*
X168879459Y-36970272D01*
X168707557Y-36845379D01*
X168518215Y-36748903D01*
X168316124Y-36683241D01*
X168250000Y-36672768D01*
X168250000Y-37566988D01*
X168192993Y-37534075D01*
X168065826Y-37500000D01*
X167934174Y-37500000D01*
X167807007Y-37534075D01*
X167750000Y-37566988D01*
X167750000Y-36672768D01*
X167749999Y-36672768D01*
X167683875Y-36683241D01*
X167481784Y-36748903D01*
X167292442Y-36845379D01*
X167120541Y-36970271D01*
X167006865Y-37083947D01*
X166945542Y-37117431D01*
X166875850Y-37112447D01*
X166819917Y-37070575D01*
X166803002Y-37039598D01*
X166794766Y-37017517D01*
X166753796Y-36907669D01*
X166753795Y-36907668D01*
X166753793Y-36907664D01*
X166667547Y-36792455D01*
X166667544Y-36792452D01*
X166552335Y-36706206D01*
X166552328Y-36706202D01*
X166417482Y-36655908D01*
X166417483Y-36655908D01*
X166357883Y-36649501D01*
X166357881Y-36649500D01*
X166357873Y-36649500D01*
X166357864Y-36649500D01*
X164562129Y-36649500D01*
X164562123Y-36649501D01*
X164502516Y-36655908D01*
X164367671Y-36706202D01*
X164367664Y-36706206D01*
X164252455Y-36792452D01*
X164252452Y-36792455D01*
X164166206Y-36907664D01*
X164166202Y-36907671D01*
X164115908Y-37042517D01*
X164109501Y-37102116D01*
X164109500Y-37102135D01*
X164109500Y-38897870D01*
X164109501Y-38897876D01*
X164115908Y-38957483D01*
X164166202Y-39092328D01*
X164166206Y-39092335D01*
X164252452Y-39207544D01*
X164252455Y-39207547D01*
X164367664Y-39293793D01*
X164367671Y-39293797D01*
X164403280Y-39307078D01*
X164502517Y-39344091D01*
X164562127Y-39350500D01*
X164635500Y-39350499D01*
X164702538Y-39370183D01*
X164748294Y-39422986D01*
X164759500Y-39474499D01*
X164759500Y-43391006D01*
X164759500Y-43528994D01*
X164759500Y-43528996D01*
X164759499Y-43528996D01*
X164786418Y-43664322D01*
X164786421Y-43664332D01*
X164839222Y-43791807D01*
X164915887Y-43906545D01*
X165611377Y-44602035D01*
X165644862Y-44663358D01*
X165639878Y-44733050D01*
X165598006Y-44788983D01*
X165532542Y-44813400D01*
X165464269Y-44798548D01*
X165457724Y-44794710D01*
X165321416Y-44709062D01*
X165045429Y-44576154D01*
X165045407Y-44576145D01*
X164756270Y-44474971D01*
X164756258Y-44474967D01*
X164457596Y-44406800D01*
X164457580Y-44406798D01*
X164153177Y-44372500D01*
X163846822Y-44372500D01*
X163542419Y-44406798D01*
X163542403Y-44406800D01*
X163243741Y-44474967D01*
X163243729Y-44474971D01*
X162954592Y-44576145D01*
X162954570Y-44576154D01*
X162678583Y-44709062D01*
X162419184Y-44872053D01*
X162419180Y-44872056D01*
X162255855Y-45002302D01*
X163141632Y-45888079D01*
X163032587Y-45967305D01*
X162867305Y-46132587D01*
X162788079Y-46241632D01*
X161902302Y-45355855D01*
X161772062Y-45519173D01*
X161772053Y-45519184D01*
X161609062Y-45778583D01*
X161476154Y-46054570D01*
X161476145Y-46054592D01*
X161374971Y-46343729D01*
X161374967Y-46343741D01*
X161306800Y-46642403D01*
X161306798Y-46642419D01*
X161272500Y-46946822D01*
X161272500Y-47253177D01*
X161306798Y-47557580D01*
X161306800Y-47557596D01*
X161374967Y-47856258D01*
X161374971Y-47856270D01*
X161476145Y-48145407D01*
X161476154Y-48145429D01*
X161609062Y-48421416D01*
X161772051Y-48680811D01*
X161902302Y-48844143D01*
X162788078Y-47958366D01*
X162867305Y-48067413D01*
X163032587Y-48232695D01*
X163141631Y-48311920D01*
X162255855Y-49197696D01*
X162419188Y-49327948D01*
X162678583Y-49490937D01*
X162954570Y-49623845D01*
X162954592Y-49623854D01*
X163243729Y-49725028D01*
X163243741Y-49725032D01*
X163542403Y-49793199D01*
X163542419Y-49793201D01*
X163846822Y-49827499D01*
X163846824Y-49827500D01*
X164153176Y-49827500D01*
X164153177Y-49827499D01*
X164457580Y-49793201D01*
X164457596Y-49793199D01*
X164756258Y-49725032D01*
X164756270Y-49725028D01*
X165045407Y-49623854D01*
X165045429Y-49623845D01*
X165321416Y-49490937D01*
X165580811Y-49327948D01*
X165744143Y-49197696D01*
X164858367Y-48311920D01*
X164967413Y-48232695D01*
X165132695Y-48067413D01*
X165211920Y-47958367D01*
X166097696Y-48844143D01*
X166227948Y-48680811D01*
X166390937Y-48421416D01*
X166523845Y-48145429D01*
X166523854Y-48145407D01*
X166625028Y-47856270D01*
X166625032Y-47856258D01*
X166693199Y-47557596D01*
X166693201Y-47557580D01*
X166727499Y-47253177D01*
X166727500Y-47253175D01*
X166727500Y-46946824D01*
X166727499Y-46946822D01*
X166693201Y-46642419D01*
X166693199Y-46642403D01*
X166625032Y-46343741D01*
X166625028Y-46343729D01*
X166523854Y-46054592D01*
X166523845Y-46054570D01*
X166390937Y-45778583D01*
X166305289Y-45642274D01*
X166286289Y-45575037D01*
X166306657Y-45508202D01*
X166359925Y-45462988D01*
X166429181Y-45453751D01*
X166492438Y-45483422D01*
X166497964Y-45488621D01*
X169595791Y-48586448D01*
X169629276Y-48647771D01*
X169630583Y-48693527D01*
X169618045Y-48772690D01*
X169599500Y-48889778D01*
X169599500Y-49110222D01*
X169602999Y-49132312D01*
X169633985Y-49327952D01*
X169702103Y-49537603D01*
X169702104Y-49537606D01*
X169742968Y-49617804D01*
X169801432Y-49732545D01*
X169802187Y-49734025D01*
X169931752Y-49912358D01*
X169931756Y-49912363D01*
X170087636Y-50068243D01*
X170087641Y-50068247D01*
X170199727Y-50149682D01*
X170242393Y-50205011D01*
X170248372Y-50274625D01*
X170215767Y-50336420D01*
X170199727Y-50350318D01*
X170087641Y-50431752D01*
X170087636Y-50431756D01*
X169931756Y-50587636D01*
X169931752Y-50587641D01*
X169802185Y-50765976D01*
X169768648Y-50831796D01*
X169720674Y-50882591D01*
X169658164Y-50899500D01*
X164862669Y-50899500D01*
X164862653Y-50899499D01*
X164855057Y-50899499D01*
X164696943Y-50899499D01*
X164617010Y-50920917D01*
X164544216Y-50940422D01*
X164506159Y-50962395D01*
X164506158Y-50962394D01*
X164407287Y-51019477D01*
X164407282Y-51019481D01*
X153635246Y-61791518D01*
X153573923Y-61825003D01*
X153504231Y-61820019D01*
X153448298Y-61778147D01*
X153425093Y-61723238D01*
X153418477Y-61681466D01*
X153355220Y-61486781D01*
X153355218Y-61486778D01*
X153355218Y-61486776D01*
X153321503Y-61420607D01*
X153262287Y-61304390D01*
X153240596Y-61274534D01*
X153141971Y-61138786D01*
X152997213Y-60994028D01*
X152831614Y-60873715D01*
X152819707Y-60867648D01*
X152738917Y-60826483D01*
X152688123Y-60778511D01*
X152671328Y-60710690D01*
X152693865Y-60644555D01*
X152738917Y-60605516D01*
X152831610Y-60558287D01*
X152946286Y-60474971D01*
X152997213Y-60437971D01*
X152997215Y-60437968D01*
X152997219Y-60437966D01*
X153141966Y-60293219D01*
X153141968Y-60293215D01*
X153141971Y-60293213D01*
X153262286Y-60127612D01*
X153264745Y-60122786D01*
X153274211Y-60104207D01*
X153322183Y-60053412D01*
X153352597Y-60040728D01*
X153483784Y-60005577D01*
X153620716Y-59926520D01*
X153732520Y-59814716D01*
X153811577Y-59677784D01*
X153852500Y-59525057D01*
X153852500Y-41482439D01*
X153852506Y-41482417D01*
X153852500Y-41396173D01*
X153852500Y-41324343D01*
X153852499Y-41324339D01*
X153852495Y-41324311D01*
X153852495Y-41324303D01*
X153832207Y-41248609D01*
X153832207Y-41248601D01*
X153832205Y-41248602D01*
X153811577Y-41171616D01*
X153811575Y-41171612D01*
X153811563Y-41171582D01*
X153811561Y-41171578D01*
X153773886Y-41106332D01*
X153732520Y-41034684D01*
X153732518Y-41034682D01*
X153732496Y-41034653D01*
X153679965Y-40982129D01*
X153620716Y-40922880D01*
X153620715Y-40922879D01*
X153615032Y-40917196D01*
X153614959Y-40917132D01*
X153423723Y-40725922D01*
X152377582Y-39679920D01*
X152127943Y-39430314D01*
X152094454Y-39368993D01*
X152099433Y-39299301D01*
X152141299Y-39243367D01*
X152222546Y-39182546D01*
X152308796Y-39067331D01*
X152359091Y-38932483D01*
X152365500Y-38872873D01*
X152365499Y-37077128D01*
X152359091Y-37017517D01*
X152357810Y-37014083D01*
X152308797Y-36882671D01*
X152308793Y-36882664D01*
X152222547Y-36767455D01*
X152196655Y-36748072D01*
X152107330Y-36681203D01*
X152107328Y-36681202D01*
X152029395Y-36652135D01*
X157699500Y-36652135D01*
X157699500Y-38347870D01*
X157699501Y-38347876D01*
X157705908Y-38407483D01*
X157756202Y-38542328D01*
X157756206Y-38542335D01*
X157842452Y-38657544D01*
X157842455Y-38657547D01*
X157957664Y-38743793D01*
X157957671Y-38743797D01*
X157974970Y-38750249D01*
X158092517Y-38794091D01*
X158152127Y-38800500D01*
X158152153Y-38800499D01*
X158155453Y-38800678D01*
X158155365Y-38802308D01*
X158216238Y-38820067D01*
X158262084Y-38872791D01*
X158269804Y-38916251D01*
X158953554Y-39600000D01*
X158947339Y-39600000D01*
X158845606Y-39627259D01*
X158754394Y-39679920D01*
X158679920Y-39754394D01*
X158627259Y-39845606D01*
X158600000Y-39947339D01*
X158600000Y-39953553D01*
X157920524Y-39274077D01*
X157920523Y-39274077D01*
X157888143Y-39318644D01*
X157795244Y-39500968D01*
X157732009Y-39695582D01*
X157700000Y-39897682D01*
X157700000Y-40102317D01*
X157732009Y-40304417D01*
X157795244Y-40499031D01*
X157888141Y-40681350D01*
X157888147Y-40681359D01*
X157920523Y-40725921D01*
X157920524Y-40725922D01*
X158600000Y-40046446D01*
X158600000Y-40052661D01*
X158627259Y-40154394D01*
X158679920Y-40245606D01*
X158754394Y-40320080D01*
X158845606Y-40372741D01*
X158947339Y-40400000D01*
X158953553Y-40400000D01*
X158274076Y-41079474D01*
X158318650Y-41111859D01*
X158500968Y-41204755D01*
X158695582Y-41267990D01*
X158897683Y-41300000D01*
X159102317Y-41300000D01*
X159304417Y-41267990D01*
X159499031Y-41204755D01*
X159681349Y-41111859D01*
X159725921Y-41079474D01*
X159046447Y-40400000D01*
X159052661Y-40400000D01*
X159154394Y-40372741D01*
X159245606Y-40320080D01*
X159320080Y-40245606D01*
X159372741Y-40154394D01*
X159400000Y-40052661D01*
X159400000Y-40046447D01*
X160079474Y-40725921D01*
X160111859Y-40681349D01*
X160204755Y-40499031D01*
X160267990Y-40304417D01*
X160300000Y-40102317D01*
X160300000Y-39897682D01*
X160267990Y-39695582D01*
X160204755Y-39500968D01*
X160111859Y-39318650D01*
X160079474Y-39274077D01*
X160079474Y-39274076D01*
X159400000Y-39953551D01*
X159400000Y-39947339D01*
X159372741Y-39845606D01*
X159320080Y-39754394D01*
X159245606Y-39679920D01*
X159154394Y-39627259D01*
X159052661Y-39600000D01*
X159046446Y-39600000D01*
X159730931Y-38915515D01*
X159741364Y-38865852D01*
X159790415Y-38816094D01*
X159844637Y-38802048D01*
X159844576Y-38800900D01*
X159844571Y-38800854D01*
X159844573Y-38800853D01*
X159844564Y-38800676D01*
X159847857Y-38800499D01*
X159847872Y-38800499D01*
X159907483Y-38794091D01*
X160042331Y-38743796D01*
X160157546Y-38657546D01*
X160243796Y-38542331D01*
X160294091Y-38407483D01*
X160300500Y-38347873D01*
X160300499Y-36652128D01*
X160294091Y-36592517D01*
X160243796Y-36457669D01*
X160243795Y-36457668D01*
X160243793Y-36457664D01*
X160157547Y-36342455D01*
X160157544Y-36342452D01*
X160042335Y-36256206D01*
X160042328Y-36256202D01*
X159907482Y-36205908D01*
X159907483Y-36205908D01*
X159847883Y-36199501D01*
X159847881Y-36199500D01*
X159847873Y-36199500D01*
X159847864Y-36199500D01*
X158152129Y-36199500D01*
X158152123Y-36199501D01*
X158092516Y-36205908D01*
X157957671Y-36256202D01*
X157957664Y-36256206D01*
X157842455Y-36342452D01*
X157842452Y-36342455D01*
X157756206Y-36457664D01*
X157756202Y-36457671D01*
X157705908Y-36592517D01*
X157701781Y-36630908D01*
X157699501Y-36652123D01*
X157699500Y-36652135D01*
X152029395Y-36652135D01*
X151972482Y-36630908D01*
X151972483Y-36630908D01*
X151912883Y-36624501D01*
X151912881Y-36624500D01*
X151912873Y-36624500D01*
X151912864Y-36624500D01*
X150117129Y-36624500D01*
X150117123Y-36624501D01*
X150057516Y-36630908D01*
X149922671Y-36681202D01*
X149922664Y-36681206D01*
X149807455Y-36767452D01*
X149807452Y-36767455D01*
X149721206Y-36882664D01*
X149721203Y-36882669D01*
X149672189Y-37014083D01*
X149630317Y-37070016D01*
X149564853Y-37094433D01*
X149496580Y-37079581D01*
X149468326Y-37058430D01*
X149354786Y-36944890D01*
X149182820Y-36819951D01*
X148993414Y-36723444D01*
X148993413Y-36723443D01*
X148993412Y-36723443D01*
X148791243Y-36657754D01*
X148791241Y-36657753D01*
X148791240Y-36657753D01*
X148629957Y-36632208D01*
X148581287Y-36624500D01*
X148368713Y-36624500D01*
X148320042Y-36632208D01*
X148158760Y-36657753D01*
X147956585Y-36723444D01*
X147767179Y-36819951D01*
X147595213Y-36944890D01*
X147444890Y-37095213D01*
X147319949Y-37267182D01*
X147315202Y-37276499D01*
X147267227Y-37327293D01*
X147199405Y-37344087D01*
X147133271Y-37321548D01*
X147094234Y-37276495D01*
X147089626Y-37267452D01*
X147050270Y-37213282D01*
X147050269Y-37213282D01*
X146417962Y-37845590D01*
X146400925Y-37782007D01*
X146335099Y-37667993D01*
X146242007Y-37574901D01*
X146127993Y-37509075D01*
X146064409Y-37492037D01*
X146696716Y-36859728D01*
X146642550Y-36820375D01*
X146453217Y-36723904D01*
X146251129Y-36658242D01*
X146041246Y-36625000D01*
X145828754Y-36625000D01*
X145618872Y-36658242D01*
X145618869Y-36658242D01*
X145416782Y-36723904D01*
X145227439Y-36820380D01*
X145173282Y-36859727D01*
X145173282Y-36859728D01*
X145805591Y-37492037D01*
X145742007Y-37509075D01*
X145627993Y-37574901D01*
X145534901Y-37667993D01*
X145469075Y-37782007D01*
X145452037Y-37845591D01*
X144819728Y-37213282D01*
X144819727Y-37213282D01*
X144780380Y-37267439D01*
X144683904Y-37456782D01*
X144618242Y-37658869D01*
X144618242Y-37658872D01*
X144585000Y-37868753D01*
X144585000Y-38081246D01*
X144618242Y-38291127D01*
X144618242Y-38291130D01*
X144683904Y-38493217D01*
X144780375Y-38682550D01*
X144819728Y-38736716D01*
X145452037Y-38104408D01*
X145469075Y-38167993D01*
X145534901Y-38282007D01*
X145627993Y-38375099D01*
X145742007Y-38440925D01*
X145805590Y-38457962D01*
X145173282Y-39090269D01*
X145173282Y-39090270D01*
X145227449Y-39129624D01*
X145416782Y-39226095D01*
X145618870Y-39291757D01*
X145828754Y-39325000D01*
X146041246Y-39325000D01*
X146251127Y-39291757D01*
X146251130Y-39291757D01*
X146453217Y-39226095D01*
X146642554Y-39129622D01*
X146696716Y-39090270D01*
X146696717Y-39090270D01*
X146064408Y-38457962D01*
X146127993Y-38440925D01*
X146242007Y-38375099D01*
X146335099Y-38282007D01*
X146400925Y-38167993D01*
X146417962Y-38104409D01*
X147050270Y-38736717D01*
X147050270Y-38736716D01*
X147089622Y-38682555D01*
X147094232Y-38673507D01*
X147142205Y-38622709D01*
X147210025Y-38605912D01*
X147276161Y-38628447D01*
X147315204Y-38673504D01*
X147319949Y-38682817D01*
X147444890Y-38854786D01*
X147589541Y-38999437D01*
X147603218Y-39024485D01*
X147619506Y-39047932D01*
X147619751Y-39054763D01*
X147623026Y-39060760D01*
X147620989Y-39089230D01*
X147622015Y-39117757D01*
X147618420Y-39125159D01*
X147618042Y-39130452D01*
X147608516Y-39150367D01*
X147603297Y-39159166D01*
X147601480Y-39160984D01*
X147574598Y-39207546D01*
X147574283Y-39208091D01*
X147574262Y-39208127D01*
X147522424Y-39297913D01*
X147522423Y-39297915D01*
X147481499Y-39450643D01*
X147481499Y-39450645D01*
X147481499Y-39618746D01*
X147481500Y-39618759D01*
X147481500Y-44243500D01*
X147461815Y-44310539D01*
X147409011Y-44356294D01*
X147357500Y-44367500D01*
X146656998Y-44367500D01*
X146656980Y-44367501D01*
X146554203Y-44378000D01*
X146554200Y-44378001D01*
X146387668Y-44433185D01*
X146387663Y-44433187D01*
X146238342Y-44525289D01*
X146114289Y-44649342D01*
X146022187Y-44798663D01*
X146022185Y-44798668D01*
X145999990Y-44865648D01*
X145967001Y-44965203D01*
X145967001Y-44965204D01*
X145967000Y-44965204D01*
X145956500Y-45067983D01*
X145956500Y-45638862D01*
X145936815Y-45705901D01*
X145920208Y-45726516D01*
X145235298Y-46411842D01*
X145235299Y-46411843D01*
X145235232Y-46411909D01*
X145235230Y-46411913D01*
X145234667Y-46412475D01*
X145234032Y-46413110D01*
X145187886Y-46459258D01*
X145187827Y-46459345D01*
X145187750Y-46459423D01*
X145187659Y-46459558D01*
X145187656Y-46459562D01*
X145167556Y-46489666D01*
X145149953Y-46516028D01*
X145149948Y-46516036D01*
X145111219Y-46573996D01*
X145111136Y-46574149D01*
X145084869Y-46637616D01*
X145084856Y-46637647D01*
X145058416Y-46701480D01*
X145058359Y-46701665D01*
X145044970Y-46769082D01*
X145044964Y-46769116D01*
X145031499Y-46836812D01*
X145031478Y-46837019D01*
X145031500Y-46906013D01*
X145031500Y-47861500D01*
X145011815Y-47928539D01*
X144959011Y-47974294D01*
X144907500Y-47985500D01*
X142882129Y-47985500D01*
X142882123Y-47985501D01*
X142822516Y-47991908D01*
X142687671Y-48042202D01*
X142687664Y-48042206D01*
X142572455Y-48128452D01*
X142572452Y-48128455D01*
X142486206Y-48243664D01*
X142486202Y-48243671D01*
X142435908Y-48378517D01*
X142429501Y-48438116D01*
X142429500Y-48438135D01*
X142429500Y-48461500D01*
X142409815Y-48528539D01*
X142357011Y-48574294D01*
X142305500Y-48585500D01*
X138364500Y-48585500D01*
X138297461Y-48565815D01*
X138251706Y-48513011D01*
X138240500Y-48461500D01*
X138240500Y-45847896D01*
X138240538Y-45847705D01*
X138240500Y-45779607D01*
X138240500Y-45710107D01*
X138240498Y-45710097D01*
X138240461Y-45709726D01*
X138240461Y-45709718D01*
X138227176Y-45643124D01*
X138227182Y-45643122D01*
X138227164Y-45643066D01*
X138213580Y-45574772D01*
X138213577Y-45574765D01*
X138213467Y-45574402D01*
X138213466Y-45574401D01*
X138213466Y-45574398D01*
X138197468Y-45535837D01*
X138187404Y-45511577D01*
X138187396Y-45511559D01*
X138160775Y-45447289D01*
X138160664Y-45447123D01*
X138160590Y-45446944D01*
X138121608Y-45388672D01*
X138108416Y-45368929D01*
X138084112Y-45332554D01*
X138083865Y-45332254D01*
X138034291Y-45282734D01*
X138034286Y-45282730D01*
X138034282Y-45282726D01*
X137986542Y-45234986D01*
X137986381Y-45234879D01*
X137832867Y-45081535D01*
X137799348Y-45020230D01*
X137796500Y-44993805D01*
X137796500Y-43550308D01*
X137796518Y-43549924D01*
X137796500Y-43476993D01*
X137796500Y-43406207D01*
X137796482Y-43406027D01*
X137782922Y-43337948D01*
X137782915Y-43337915D01*
X137769580Y-43270872D01*
X137769575Y-43270861D01*
X137769529Y-43270708D01*
X137769528Y-43270699D01*
X137742756Y-43206112D01*
X137716775Y-43143389D01*
X137716772Y-43143384D01*
X137716771Y-43143382D01*
X137716767Y-43143374D01*
X137716692Y-43143236D01*
X137716690Y-43143230D01*
X137678536Y-43086161D01*
X137678541Y-43086157D01*
X137678517Y-43086133D01*
X137640114Y-43028658D01*
X137640049Y-43028593D01*
X137639999Y-43028518D01*
X137590968Y-42979512D01*
X137588771Y-42977315D01*
X137538382Y-42926925D01*
X137538089Y-42926661D01*
X136861324Y-42250239D01*
X136856979Y-42245897D01*
X136856971Y-42245884D01*
X136816038Y-42204978D01*
X136759404Y-42148372D01*
X136759401Y-42148370D01*
X136755078Y-42144049D01*
X136755078Y-42144048D01*
X136755076Y-42144047D01*
X136654840Y-42043861D01*
X136621339Y-41982546D01*
X136618499Y-41956158D01*
X136618499Y-41384998D01*
X136618498Y-41384981D01*
X136607999Y-41282203D01*
X136607998Y-41282200D01*
X136571354Y-41171616D01*
X136552814Y-41115666D01*
X136460712Y-40966344D01*
X136336656Y-40842288D01*
X136187334Y-40750186D01*
X136020797Y-40695001D01*
X136020795Y-40695000D01*
X135918010Y-40684500D01*
X135142998Y-40684500D01*
X135142980Y-40684501D01*
X135040203Y-40695000D01*
X135040200Y-40695001D01*
X134873668Y-40750185D01*
X134873663Y-40750187D01*
X134724342Y-40842289D01*
X134600288Y-40966343D01*
X134600283Y-40966349D01*
X134598241Y-40969661D01*
X134596247Y-40971453D01*
X134595807Y-40972011D01*
X134595711Y-40971935D01*
X134546291Y-41016383D01*
X134477328Y-41027602D01*
X134413247Y-40999755D01*
X134387168Y-40969656D01*
X134385319Y-40966659D01*
X134385316Y-40966655D01*
X134261345Y-40842684D01*
X134112124Y-40750643D01*
X134112119Y-40750641D01*
X133945697Y-40695494D01*
X133945690Y-40695493D01*
X133842986Y-40685000D01*
X133705500Y-40685000D01*
X133705500Y-43134999D01*
X133842972Y-43134999D01*
X133842986Y-43134998D01*
X133945697Y-43124505D01*
X134112119Y-43069358D01*
X134112124Y-43069356D01*
X134261345Y-42977315D01*
X134385318Y-42853342D01*
X134387165Y-42850348D01*
X134388969Y-42848724D01*
X134389798Y-42847677D01*
X134389976Y-42847818D01*
X134439110Y-42803621D01*
X134508073Y-42792396D01*
X134572156Y-42820236D01*
X134598243Y-42850341D01*
X134600288Y-42853656D01*
X134724344Y-42977712D01*
X134873666Y-43069814D01*
X135040203Y-43124999D01*
X135142991Y-43135500D01*
X135713868Y-43135499D01*
X135743289Y-43144137D01*
X135773258Y-43150646D01*
X135778299Y-43154417D01*
X135780907Y-43155183D01*
X135801519Y-43171788D01*
X135819043Y-43189300D01*
X135819051Y-43189307D01*
X136036062Y-43406207D01*
X136085677Y-43455796D01*
X136119177Y-43517111D01*
X136114211Y-43586804D01*
X136072354Y-43642748D01*
X136006896Y-43667182D01*
X135998018Y-43667500D01*
X135996352Y-43667500D01*
X134991648Y-43667500D01*
X134967329Y-43671351D01*
X134789465Y-43699522D01*
X134594776Y-43762781D01*
X134412386Y-43855715D01*
X134246786Y-43976028D01*
X134102028Y-44120786D01*
X133981715Y-44286386D01*
X133888781Y-44468776D01*
X133825522Y-44663465D01*
X133793500Y-44865648D01*
X133793500Y-45070351D01*
X133825522Y-45272534D01*
X133888781Y-45467223D01*
X133943581Y-45574772D01*
X133978408Y-45643124D01*
X133981715Y-45649613D01*
X134102028Y-45815213D01*
X134246786Y-45959971D01*
X134397521Y-46069484D01*
X134412390Y-46080287D01*
X134501212Y-46125544D01*
X134505080Y-46127515D01*
X134555876Y-46175490D01*
X134572671Y-46243311D01*
X134550134Y-46309446D01*
X134505080Y-46348485D01*
X134412386Y-46395715D01*
X134246786Y-46516028D01*
X134102028Y-46660786D01*
X133981715Y-46826386D01*
X133888781Y-47008776D01*
X133825522Y-47203465D01*
X133793500Y-47405648D01*
X133793500Y-47610351D01*
X133825522Y-47812534D01*
X133888781Y-48007223D01*
X133929757Y-48087641D01*
X133959190Y-48145407D01*
X133981715Y-48189613D01*
X134102028Y-48355213D01*
X134246786Y-48499971D01*
X134363821Y-48585000D01*
X134412390Y-48620287D01*
X134503840Y-48666883D01*
X134505080Y-48667515D01*
X134555876Y-48715490D01*
X134572671Y-48783311D01*
X134550134Y-48849446D01*
X134505080Y-48888485D01*
X134412386Y-48935715D01*
X134246786Y-49056028D01*
X134102028Y-49200786D01*
X133981715Y-49366386D01*
X133888781Y-49548776D01*
X133825522Y-49743465D01*
X133793500Y-49945648D01*
X133793500Y-50150351D01*
X133825522Y-50352534D01*
X133888781Y-50547223D01*
X133981715Y-50729613D01*
X134102028Y-50895213D01*
X134246786Y-51039971D01*
X134368992Y-51128757D01*
X134412390Y-51160287D01*
X134475335Y-51192359D01*
X134505629Y-51207795D01*
X134556425Y-51255770D01*
X134573220Y-51323591D01*
X134550682Y-51389726D01*
X134505629Y-51428765D01*
X134412650Y-51476140D01*
X134247105Y-51596417D01*
X134247104Y-51596417D01*
X134102417Y-51741104D01*
X134102417Y-51741105D01*
X133982140Y-51906650D01*
X133889244Y-52088970D01*
X133826009Y-52283586D01*
X133817391Y-52338000D01*
X135178314Y-52338000D01*
X135173920Y-52342394D01*
X135121259Y-52433606D01*
X135094000Y-52535339D01*
X135094000Y-52640661D01*
X135121259Y-52742394D01*
X135173920Y-52833606D01*
X135178314Y-52838000D01*
X133817391Y-52838000D01*
X133826009Y-52892413D01*
X133889244Y-53087029D01*
X133982140Y-53269349D01*
X134102417Y-53434894D01*
X134102417Y-53434895D01*
X134247104Y-53579582D01*
X134412650Y-53699859D01*
X134594968Y-53792755D01*
X134789582Y-53855990D01*
X134991683Y-53888000D01*
X135244000Y-53888000D01*
X135244000Y-52903686D01*
X135248394Y-52908080D01*
X135339606Y-52960741D01*
X135441339Y-52988000D01*
X135546661Y-52988000D01*
X135648394Y-52960741D01*
X135739606Y-52908080D01*
X135744000Y-52903686D01*
X135744000Y-53888000D01*
X135996317Y-53888000D01*
X136198417Y-53855990D01*
X136393031Y-53792755D01*
X136575353Y-53699857D01*
X136642614Y-53650989D01*
X136708420Y-53627508D01*
X136776474Y-53643333D01*
X136825169Y-53693438D01*
X136839500Y-53751306D01*
X136839500Y-54173680D01*
X136819815Y-54240719D01*
X136767011Y-54286474D01*
X136697853Y-54296418D01*
X136676499Y-54291387D01*
X136655699Y-54284495D01*
X136655690Y-54284493D01*
X136552986Y-54274000D01*
X136415500Y-54274000D01*
X136415500Y-56723999D01*
X136552972Y-56723999D01*
X136552986Y-56723998D01*
X136655696Y-56713505D01*
X136676493Y-56706614D01*
X136746321Y-56704210D01*
X136806364Y-56739940D01*
X136837558Y-56802460D01*
X136839500Y-56824319D01*
X136839500Y-57136555D01*
X136819815Y-57203594D01*
X136803176Y-57224241D01*
X136498960Y-57528423D01*
X136437635Y-57561905D01*
X136367944Y-57556916D01*
X136323603Y-57528418D01*
X136233213Y-57438028D01*
X136067613Y-57317715D01*
X136067612Y-57317714D01*
X136067610Y-57317713D01*
X136009639Y-57288175D01*
X135885223Y-57224781D01*
X135690534Y-57161522D01*
X135513411Y-57133469D01*
X135488352Y-57129500D01*
X135488351Y-57129500D01*
X134972783Y-57129500D01*
X134943366Y-57120862D01*
X134913404Y-57114358D01*
X134908354Y-57110581D01*
X134905744Y-57109815D01*
X134885140Y-57093220D01*
X134884521Y-57092602D01*
X134826857Y-57034988D01*
X134793345Y-56973679D01*
X134790500Y-56947268D01*
X134790500Y-56701396D01*
X134810185Y-56634357D01*
X134849404Y-56595857D01*
X134850408Y-56595238D01*
X134896656Y-56566712D01*
X135020712Y-56442656D01*
X135022752Y-56439347D01*
X135024745Y-56437555D01*
X135025193Y-56436989D01*
X135025289Y-56437065D01*
X135074694Y-56392623D01*
X135143656Y-56381395D01*
X135207740Y-56409234D01*
X135233829Y-56439339D01*
X135235681Y-56442341D01*
X135235683Y-56442344D01*
X135359654Y-56566315D01*
X135508875Y-56658356D01*
X135508880Y-56658358D01*
X135675302Y-56713505D01*
X135675309Y-56713506D01*
X135778019Y-56723999D01*
X135915499Y-56723999D01*
X135915500Y-56723998D01*
X135915500Y-54274000D01*
X135778027Y-54274000D01*
X135778012Y-54274001D01*
X135675302Y-54284494D01*
X135508880Y-54339641D01*
X135508875Y-54339643D01*
X135359654Y-54431684D01*
X135235683Y-54555655D01*
X135235679Y-54555660D01*
X135233826Y-54558665D01*
X135232018Y-54560290D01*
X135231202Y-54561323D01*
X135231025Y-54561183D01*
X135181874Y-54605385D01*
X135112911Y-54616601D01*
X135048831Y-54588752D01*
X135022753Y-54558653D01*
X135022737Y-54558628D01*
X135020712Y-54555344D01*
X134896656Y-54431288D01*
X134747334Y-54339186D01*
X134580797Y-54284001D01*
X134580795Y-54284000D01*
X134478010Y-54273500D01*
X133702998Y-54273500D01*
X133702980Y-54273501D01*
X133600203Y-54284000D01*
X133600200Y-54284001D01*
X133433668Y-54339185D01*
X133433663Y-54339187D01*
X133284342Y-54431289D01*
X133160289Y-54555342D01*
X133068187Y-54704663D01*
X133068185Y-54704668D01*
X133058228Y-54734716D01*
X133013001Y-54871203D01*
X133013001Y-54871204D01*
X133013000Y-54871204D01*
X133002500Y-54973983D01*
X133002500Y-56024001D01*
X133002501Y-56024019D01*
X133013000Y-56126796D01*
X133013001Y-56126799D01*
X133018827Y-56144380D01*
X133068186Y-56293334D01*
X133160288Y-56442656D01*
X133284344Y-56566712D01*
X133330598Y-56595241D01*
X133377321Y-56647186D01*
X133389500Y-56700778D01*
X133389500Y-57220161D01*
X133389470Y-57220313D01*
X133389500Y-57288175D01*
X133389500Y-57358010D01*
X133389526Y-57358280D01*
X133402789Y-57424802D01*
X133402799Y-57424854D01*
X133416420Y-57493331D01*
X133416505Y-57493612D01*
X133442459Y-57556194D01*
X133442469Y-57556245D01*
X133442478Y-57556242D01*
X133469225Y-57620813D01*
X133472002Y-57626003D01*
X133472032Y-57626053D01*
X133472170Y-57626310D01*
X133470655Y-57627123D01*
X133489135Y-57686029D01*
X133475641Y-57744605D01*
X133380781Y-57930776D01*
X133317522Y-58125465D01*
X133285500Y-58327648D01*
X133285500Y-58532351D01*
X133317522Y-58734534D01*
X133380781Y-58929223D01*
X133473715Y-59111613D01*
X133594028Y-59277213D01*
X133738786Y-59421971D01*
X133880672Y-59525055D01*
X133904390Y-59542287D01*
X133993212Y-59587544D01*
X133997080Y-59589515D01*
X134047876Y-59637490D01*
X134064671Y-59705311D01*
X134042134Y-59771446D01*
X133997080Y-59810485D01*
X133904386Y-59857715D01*
X133738786Y-59978028D01*
X133594028Y-60122786D01*
X133473715Y-60288386D01*
X133380781Y-60470776D01*
X133317522Y-60665465D01*
X133285500Y-60867648D01*
X133285500Y-61072351D01*
X133317522Y-61274534D01*
X133380781Y-61469223D01*
X133473715Y-61651613D01*
X133594028Y-61817213D01*
X133738786Y-61961971D01*
X133893749Y-62074556D01*
X133904390Y-62082287D01*
X133995840Y-62128883D01*
X133997080Y-62129515D01*
X134047876Y-62177490D01*
X134064671Y-62245311D01*
X134042134Y-62311446D01*
X133997080Y-62350485D01*
X133904386Y-62397715D01*
X133738786Y-62518028D01*
X133594028Y-62662786D01*
X133473715Y-62828386D01*
X133380781Y-63010776D01*
X133317522Y-63205465D01*
X133285500Y-63407648D01*
X133285500Y-63612351D01*
X133317522Y-63814534D01*
X133380781Y-64009223D01*
X133444691Y-64134653D01*
X133469871Y-64184070D01*
X133473715Y-64191613D01*
X133594028Y-64357213D01*
X133738786Y-64501971D01*
X133853068Y-64585000D01*
X133904390Y-64622287D01*
X133971592Y-64656528D01*
X133997080Y-64669515D01*
X134047876Y-64717490D01*
X134064671Y-64785311D01*
X134042134Y-64851446D01*
X133997080Y-64890485D01*
X133904386Y-64937715D01*
X133738786Y-65058028D01*
X133594028Y-65202786D01*
X133473715Y-65368386D01*
X133380781Y-65550776D01*
X133317522Y-65745465D01*
X133285500Y-65947648D01*
X133285500Y-66152351D01*
X133317522Y-66354534D01*
X133380781Y-66549223D01*
X133473715Y-66731613D01*
X133594028Y-66897213D01*
X133738786Y-67041971D01*
X133821422Y-67102008D01*
X133904390Y-67162287D01*
X134020607Y-67221503D01*
X134086776Y-67255218D01*
X134086778Y-67255218D01*
X134086781Y-67255220D01*
X134190311Y-67288859D01*
X134281465Y-67318477D01*
X134382557Y-67334488D01*
X134483648Y-67350500D01*
X134483649Y-67350500D01*
X135488351Y-67350500D01*
X135488352Y-67350500D01*
X135690534Y-67318477D01*
X135690539Y-67318475D01*
X135690541Y-67318475D01*
X135725180Y-67307220D01*
X135795021Y-67305223D01*
X135854854Y-67341303D01*
X135885683Y-67404003D01*
X135887500Y-67425150D01*
X135887500Y-67690712D01*
X135878851Y-67720165D01*
X135872323Y-67750155D01*
X135868576Y-67755158D01*
X135867815Y-67757751D01*
X135851168Y-67778406D01*
X135758910Y-67870637D01*
X135697582Y-67904113D01*
X135651847Y-67905417D01*
X135614483Y-67899500D01*
X135614481Y-67899500D01*
X135425519Y-67899500D01*
X135425514Y-67899500D01*
X135238881Y-67929059D01*
X135059163Y-67987454D01*
X134890800Y-68073240D01*
X134803579Y-68136610D01*
X134737927Y-68184310D01*
X134737925Y-68184312D01*
X134737924Y-68184312D01*
X134604312Y-68317924D01*
X134604312Y-68317925D01*
X134604310Y-68317927D01*
X134556610Y-68383579D01*
X134493240Y-68470800D01*
X134407454Y-68639163D01*
X134367931Y-68760803D01*
X134328493Y-68818478D01*
X134264134Y-68845676D01*
X134195288Y-68833761D01*
X134143812Y-68786516D01*
X134132069Y-68760803D01*
X134111603Y-68697815D01*
X134092547Y-68639168D01*
X134092545Y-68639165D01*
X134092545Y-68639163D01*
X134030518Y-68517429D01*
X134006760Y-68470801D01*
X133895690Y-68317927D01*
X133762073Y-68184310D01*
X133609199Y-68073240D01*
X133440836Y-67987454D01*
X133261118Y-67929059D01*
X133074486Y-67899500D01*
X133074481Y-67899500D01*
X132885519Y-67899500D01*
X132885514Y-67899500D01*
X132698881Y-67929059D01*
X132519163Y-67987454D01*
X132350800Y-68073240D01*
X132263579Y-68136610D01*
X132197927Y-68184310D01*
X132197925Y-68184312D01*
X132197924Y-68184312D01*
X132064312Y-68317924D01*
X132064312Y-68317925D01*
X132064310Y-68317927D01*
X132016610Y-68383579D01*
X131953240Y-68470800D01*
X131867454Y-68639163D01*
X131809418Y-68817778D01*
X131769980Y-68875453D01*
X131705621Y-68902651D01*
X131636775Y-68890736D01*
X131585299Y-68843491D01*
X131569014Y-68798856D01*
X131568477Y-68795466D01*
X131505220Y-68600781D01*
X131505218Y-68600778D01*
X131505218Y-68600776D01*
X131462750Y-68517429D01*
X131412287Y-68418390D01*
X131380092Y-68374077D01*
X131291971Y-68252786D01*
X131147213Y-68108028D01*
X130981613Y-67987715D01*
X130981612Y-67987714D01*
X130981610Y-67987713D01*
X130924653Y-67958691D01*
X130799223Y-67894781D01*
X130604534Y-67831522D01*
X130429995Y-67803878D01*
X130402352Y-67799500D01*
X130197648Y-67799500D01*
X130173329Y-67803351D01*
X129995465Y-67831522D01*
X129800776Y-67894781D01*
X129618386Y-67987715D01*
X129452786Y-68108028D01*
X129308028Y-68252786D01*
X129187714Y-68418386D01*
X129160203Y-68472379D01*
X129112227Y-68523174D01*
X129044406Y-68539968D01*
X128978272Y-68517429D01*
X128939234Y-68472376D01*
X128911861Y-68418652D01*
X128879474Y-68374077D01*
X128879474Y-68374076D01*
X128200000Y-69053553D01*
X128200000Y-69047339D01*
X128172741Y-68945606D01*
X128120080Y-68854394D01*
X128045606Y-68779920D01*
X127954394Y-68727259D01*
X127852661Y-68700000D01*
X127846446Y-68700000D01*
X128525922Y-68020524D01*
X128525921Y-68020523D01*
X128481359Y-67988147D01*
X128481350Y-67988141D01*
X128299031Y-67895244D01*
X128104417Y-67832009D01*
X127902317Y-67800000D01*
X127697683Y-67800000D01*
X127495582Y-67832009D01*
X127300968Y-67895244D01*
X127118644Y-67988143D01*
X127074077Y-68020523D01*
X127074077Y-68020524D01*
X127753554Y-68700000D01*
X127747339Y-68700000D01*
X127645606Y-68727259D01*
X127554394Y-68779920D01*
X127479920Y-68854394D01*
X127427259Y-68945606D01*
X127400000Y-69047339D01*
X127400000Y-69053553D01*
X126720524Y-68374077D01*
X126720523Y-68374077D01*
X126688143Y-68418644D01*
X126595244Y-68600968D01*
X126532009Y-68795582D01*
X126500000Y-68997682D01*
X120000000Y-68997682D01*
X120000000Y-66902974D01*
X120019685Y-66835935D01*
X120072489Y-66790180D01*
X120141647Y-66780236D01*
X120205203Y-66809261D01*
X120234485Y-66846679D01*
X120305141Y-66985350D01*
X120305147Y-66985359D01*
X120337523Y-67029921D01*
X120337524Y-67029922D01*
X121017000Y-66350446D01*
X121017000Y-66356661D01*
X121044259Y-66458394D01*
X121096920Y-66549606D01*
X121171394Y-66624080D01*
X121262606Y-66676741D01*
X121364339Y-66704000D01*
X121370553Y-66704000D01*
X120691076Y-67383474D01*
X120735650Y-67415859D01*
X120917968Y-67508755D01*
X121112582Y-67571990D01*
X121314683Y-67604000D01*
X121519317Y-67604000D01*
X121721417Y-67571990D01*
X121916031Y-67508755D01*
X122098349Y-67415859D01*
X122142921Y-67383474D01*
X121463447Y-66704000D01*
X121469661Y-66704000D01*
X121571394Y-66676741D01*
X121662606Y-66624080D01*
X121737080Y-66549606D01*
X121789741Y-66458394D01*
X121817000Y-66356661D01*
X121817000Y-66350448D01*
X122496474Y-67029922D01*
X122496474Y-67029921D01*
X122528859Y-66985349D01*
X122556233Y-66931624D01*
X122604207Y-66880827D01*
X122672028Y-66864031D01*
X122738163Y-66886567D01*
X122777203Y-66931621D01*
X122804713Y-66985611D01*
X122925028Y-67151213D01*
X123069786Y-67295971D01*
X123188500Y-67382220D01*
X123235390Y-67416287D01*
X123351164Y-67475277D01*
X123417776Y-67509218D01*
X123417778Y-67509218D01*
X123417781Y-67509220D01*
X123495859Y-67534589D01*
X123612465Y-67572477D01*
X123713557Y-67588488D01*
X123814648Y-67604500D01*
X123814649Y-67604500D01*
X124019351Y-67604500D01*
X124019352Y-67604500D01*
X124221534Y-67572477D01*
X124416219Y-67509220D01*
X124598610Y-67416287D01*
X124691590Y-67348732D01*
X124764213Y-67295971D01*
X124764215Y-67295968D01*
X124764219Y-67295966D01*
X124908966Y-67151219D01*
X124908968Y-67151215D01*
X124908971Y-67151213D01*
X124985187Y-67046309D01*
X125029287Y-66985610D01*
X125122220Y-66803219D01*
X125185477Y-66608534D01*
X125217500Y-66406352D01*
X125217500Y-66201648D01*
X125196370Y-66068241D01*
X125185477Y-65999465D01*
X125129602Y-65827500D01*
X125122220Y-65804781D01*
X125122218Y-65804778D01*
X125122218Y-65804776D01*
X125079473Y-65720886D01*
X125029287Y-65622390D01*
X124997092Y-65578077D01*
X124908971Y-65456786D01*
X124764221Y-65312036D01*
X124764215Y-65312031D01*
X124715615Y-65276721D01*
X124672949Y-65221391D01*
X124664500Y-65176403D01*
X124664500Y-64679220D01*
X124684185Y-64612181D01*
X124736989Y-64566426D01*
X124806147Y-64556482D01*
X124869703Y-64585507D01*
X124891602Y-64610329D01*
X124966210Y-64721989D01*
X125077707Y-64833486D01*
X125077711Y-64833489D01*
X125208814Y-64921090D01*
X125208827Y-64921097D01*
X125354498Y-64981435D01*
X125354503Y-64981437D01*
X125509153Y-65012199D01*
X125509156Y-65012200D01*
X125509158Y-65012200D01*
X125666844Y-65012200D01*
X125666845Y-65012199D01*
X125821497Y-64981437D01*
X125885023Y-64955123D01*
X125954490Y-64947655D01*
X126016969Y-64978930D01*
X126052622Y-65039019D01*
X126050129Y-65108844D01*
X126020156Y-65157365D01*
X125974418Y-65203103D01*
X125974417Y-65203105D01*
X125854140Y-65368650D01*
X125761244Y-65550970D01*
X125698009Y-65745586D01*
X125689391Y-65800000D01*
X127050314Y-65800000D01*
X127045920Y-65804394D01*
X126993259Y-65895606D01*
X126966000Y-65997339D01*
X126966000Y-66102661D01*
X126993259Y-66204394D01*
X127045920Y-66295606D01*
X127050314Y-66300000D01*
X125689391Y-66300000D01*
X125698009Y-66354413D01*
X125761244Y-66549029D01*
X125854140Y-66731349D01*
X125974417Y-66896894D01*
X125974417Y-66896895D01*
X126119104Y-67041582D01*
X126284650Y-67161859D01*
X126466968Y-67254755D01*
X126661582Y-67317990D01*
X126863683Y-67350000D01*
X127116000Y-67350000D01*
X127116000Y-66365686D01*
X127120394Y-66370080D01*
X127211606Y-66422741D01*
X127313339Y-66450000D01*
X127418661Y-66450000D01*
X127520394Y-66422741D01*
X127611606Y-66370080D01*
X127616000Y-66365686D01*
X127616000Y-67350000D01*
X127868317Y-67350000D01*
X128070417Y-67317990D01*
X128265031Y-67254755D01*
X128447349Y-67161859D01*
X128612894Y-67041582D01*
X128612895Y-67041582D01*
X128757582Y-66896895D01*
X128757582Y-66896894D01*
X128877859Y-66731349D01*
X128970755Y-66549029D01*
X129033990Y-66354413D01*
X129042609Y-66300000D01*
X127681686Y-66300000D01*
X127686080Y-66295606D01*
X127738741Y-66204394D01*
X127766000Y-66102661D01*
X127766000Y-65997339D01*
X127738741Y-65895606D01*
X127686080Y-65804394D01*
X127681686Y-65800000D01*
X129042609Y-65800000D01*
X129033990Y-65745586D01*
X128970755Y-65550970D01*
X128877859Y-65368650D01*
X128757582Y-65203105D01*
X128757582Y-65203104D01*
X128612895Y-65058417D01*
X128447349Y-64938140D01*
X128354370Y-64890765D01*
X128303574Y-64842790D01*
X128286779Y-64774969D01*
X128309316Y-64708835D01*
X128354370Y-64669795D01*
X128380408Y-64656528D01*
X128447610Y-64622287D01*
X128498932Y-64585000D01*
X128613213Y-64501971D01*
X128613215Y-64501968D01*
X128613219Y-64501966D01*
X128757966Y-64357219D01*
X128757968Y-64357215D01*
X128757971Y-64357213D01*
X128824259Y-64265974D01*
X128878287Y-64191610D01*
X128971220Y-64009219D01*
X129034477Y-63814534D01*
X129066500Y-63612352D01*
X129066500Y-63407648D01*
X129042034Y-63253177D01*
X129034477Y-63205465D01*
X129000209Y-63099999D01*
X128971220Y-63010781D01*
X128971218Y-63010778D01*
X128971218Y-63010776D01*
X128928429Y-62926799D01*
X128878287Y-62828390D01*
X128835106Y-62768956D01*
X128757971Y-62662786D01*
X128613213Y-62518028D01*
X128447614Y-62397715D01*
X128441006Y-62394348D01*
X128354917Y-62350483D01*
X128304123Y-62302511D01*
X128287328Y-62234690D01*
X128309865Y-62168555D01*
X128354917Y-62129516D01*
X128447610Y-62082287D01*
X128485729Y-62054592D01*
X128613213Y-61961971D01*
X128613215Y-61961968D01*
X128613219Y-61961966D01*
X128757966Y-61817219D01*
X128757968Y-61817215D01*
X128757971Y-61817213D01*
X128831500Y-61716007D01*
X128878287Y-61651610D01*
X128971220Y-61469219D01*
X129034477Y-61274534D01*
X129066500Y-61072352D01*
X129066500Y-60867648D01*
X129034477Y-60665466D01*
X129029470Y-60650057D01*
X128971218Y-60470776D01*
X128921143Y-60372500D01*
X128878287Y-60288390D01*
X128870556Y-60277749D01*
X128757971Y-60122786D01*
X128613219Y-59978034D01*
X128576930Y-59951669D01*
X128534264Y-59896339D01*
X128528285Y-59826726D01*
X128560890Y-59764931D01*
X128621728Y-59730573D01*
X128636562Y-59728060D01*
X128673483Y-59724091D01*
X128742158Y-59698477D01*
X128808331Y-59673796D01*
X128923546Y-59587546D01*
X129009796Y-59472331D01*
X129060091Y-59337483D01*
X129066500Y-59277873D01*
X129066499Y-57582128D01*
X129060091Y-57522517D01*
X129049314Y-57493623D01*
X129009797Y-57387671D01*
X129009793Y-57387664D01*
X128923547Y-57272455D01*
X128923544Y-57272452D01*
X128808335Y-57186206D01*
X128808328Y-57186202D01*
X128673482Y-57135908D01*
X128673483Y-57135908D01*
X128613883Y-57129501D01*
X128613881Y-57129500D01*
X128613873Y-57129500D01*
X128613864Y-57129500D01*
X126118129Y-57129500D01*
X126118123Y-57129501D01*
X126058518Y-57135908D01*
X126053016Y-57137209D01*
X125983247Y-57133469D01*
X125926575Y-57092602D01*
X125900994Y-57027584D01*
X125900500Y-57016532D01*
X125900500Y-56545845D01*
X125900500Y-56545843D01*
X125859577Y-56393116D01*
X125839070Y-56357596D01*
X125780524Y-56256190D01*
X125780521Y-56256186D01*
X125780520Y-56256184D01*
X125668716Y-56144380D01*
X125668715Y-56144379D01*
X125664385Y-56140049D01*
X125664374Y-56140039D01*
X124192819Y-54668484D01*
X124159334Y-54607161D01*
X124156500Y-54580803D01*
X124156500Y-53915061D01*
X124176185Y-53848022D01*
X124228989Y-53802267D01*
X124298147Y-53792323D01*
X124318804Y-53797126D01*
X124466735Y-53845192D01*
X124501465Y-53856477D01*
X124602557Y-53872488D01*
X124703648Y-53888500D01*
X124703649Y-53888500D01*
X124908351Y-53888500D01*
X124908352Y-53888500D01*
X125110534Y-53856477D01*
X125305219Y-53793220D01*
X125306980Y-53792323D01*
X125359622Y-53765500D01*
X125487610Y-53700287D01*
X125587783Y-53627508D01*
X125653213Y-53579971D01*
X125653215Y-53579968D01*
X125653219Y-53579966D01*
X125797966Y-53435219D01*
X125797968Y-53435215D01*
X125797971Y-53435213D01*
X125850732Y-53362590D01*
X125918287Y-53269610D01*
X126011220Y-53087219D01*
X126022332Y-53053018D01*
X126061767Y-52995346D01*
X126126125Y-52968146D01*
X126194972Y-52980060D01*
X126246448Y-53027303D01*
X126258192Y-53053018D01*
X126269242Y-53087027D01*
X126362140Y-53269349D01*
X126482417Y-53434894D01*
X126482417Y-53434895D01*
X126627104Y-53579582D01*
X126792650Y-53699859D01*
X126974968Y-53792755D01*
X127169582Y-53855990D01*
X127371683Y-53888000D01*
X127624000Y-53888000D01*
X127624000Y-52903686D01*
X127628394Y-52908080D01*
X127719606Y-52960741D01*
X127821339Y-52988000D01*
X127926661Y-52988000D01*
X128028394Y-52960741D01*
X128119606Y-52908080D01*
X128124000Y-52903686D01*
X128124000Y-53888000D01*
X128376317Y-53888000D01*
X128578417Y-53855990D01*
X128773031Y-53792755D01*
X128955349Y-53699859D01*
X129120894Y-53579582D01*
X129120895Y-53579582D01*
X129265582Y-53434895D01*
X129265582Y-53434894D01*
X129385859Y-53269349D01*
X129478755Y-53087029D01*
X129541990Y-52892413D01*
X129550609Y-52838000D01*
X128189686Y-52838000D01*
X128194080Y-52833606D01*
X128246741Y-52742394D01*
X128274000Y-52640661D01*
X128274000Y-52535339D01*
X128246741Y-52433606D01*
X128194080Y-52342394D01*
X128189686Y-52338000D01*
X129550609Y-52338000D01*
X129541990Y-52283586D01*
X129478755Y-52088970D01*
X129385859Y-51906650D01*
X129265582Y-51741105D01*
X129265582Y-51741104D01*
X129120895Y-51596417D01*
X128955349Y-51476140D01*
X128862370Y-51428765D01*
X128811574Y-51380790D01*
X128794779Y-51312969D01*
X128817316Y-51246835D01*
X128862370Y-51207795D01*
X128955610Y-51160287D01*
X129008455Y-51121893D01*
X129121213Y-51039971D01*
X129121215Y-51039968D01*
X129121219Y-51039966D01*
X129265966Y-50895219D01*
X129265968Y-50895215D01*
X129265971Y-50895213D01*
X129336525Y-50798102D01*
X129386287Y-50729610D01*
X129479220Y-50547219D01*
X129542477Y-50352534D01*
X129574500Y-50150352D01*
X129574500Y-49945648D01*
X129569227Y-49912358D01*
X129542477Y-49743465D01*
X129501647Y-49617804D01*
X129479220Y-49548781D01*
X129479218Y-49548778D01*
X129479218Y-49548776D01*
X129412992Y-49418802D01*
X129386287Y-49366390D01*
X129366141Y-49338661D01*
X129265971Y-49200786D01*
X129121213Y-49056028D01*
X128955614Y-48935715D01*
X128949006Y-48932348D01*
X128862917Y-48888483D01*
X128812123Y-48840511D01*
X128795328Y-48772690D01*
X128817865Y-48706555D01*
X128862917Y-48667516D01*
X128955610Y-48620287D01*
X129004179Y-48585000D01*
X129121213Y-48499971D01*
X129121215Y-48499968D01*
X129121219Y-48499966D01*
X129265966Y-48355219D01*
X129265968Y-48355215D01*
X129265971Y-48355213D01*
X129386286Y-48189612D01*
X129394169Y-48174140D01*
X129398211Y-48166207D01*
X129446183Y-48115412D01*
X129476597Y-48102728D01*
X129607784Y-48067577D01*
X129744716Y-47988520D01*
X129856520Y-47876716D01*
X129935577Y-47739784D01*
X129976500Y-47587057D01*
X129976500Y-44888943D01*
X129935577Y-44736216D01*
X129885421Y-44649342D01*
X129856524Y-44599290D01*
X129856518Y-44599282D01*
X129744717Y-44487481D01*
X129744712Y-44487477D01*
X129636499Y-44425001D01*
X129588284Y-44374434D01*
X129574499Y-44317614D01*
X129574499Y-44120129D01*
X129574498Y-44120123D01*
X129574497Y-44120116D01*
X129568091Y-44060517D01*
X129517796Y-43925669D01*
X129517795Y-43925668D01*
X129517793Y-43925664D01*
X129431547Y-43810455D01*
X129431544Y-43810452D01*
X129316335Y-43724206D01*
X129316328Y-43724202D01*
X129181482Y-43673908D01*
X129181483Y-43673908D01*
X129121883Y-43667501D01*
X129121881Y-43667500D01*
X129121873Y-43667500D01*
X129121864Y-43667500D01*
X126626129Y-43667500D01*
X126626123Y-43667501D01*
X126566516Y-43673908D01*
X126431671Y-43724202D01*
X126431664Y-43724206D01*
X126316455Y-43810452D01*
X126316452Y-43810455D01*
X126230206Y-43925664D01*
X126230202Y-43925671D01*
X126179908Y-44060517D01*
X126173501Y-44120116D01*
X126173501Y-44120123D01*
X126173500Y-44120135D01*
X126173500Y-45815870D01*
X126173501Y-45815876D01*
X126179908Y-45875483D01*
X126230202Y-46010328D01*
X126230206Y-46010335D01*
X126316452Y-46125544D01*
X126316455Y-46125547D01*
X126431664Y-46211793D01*
X126431671Y-46211797D01*
X126455515Y-46220690D01*
X126566517Y-46262091D01*
X126603441Y-46266060D01*
X126667989Y-46292796D01*
X126707838Y-46350188D01*
X126710333Y-46420013D01*
X126674681Y-46480102D01*
X126663071Y-46489666D01*
X126626784Y-46516030D01*
X126482028Y-46660786D01*
X126361715Y-46826386D01*
X126268781Y-47008776D01*
X126205522Y-47203465D01*
X126173500Y-47405648D01*
X126173500Y-47610351D01*
X126205522Y-47812534D01*
X126268781Y-48007223D01*
X126309757Y-48087641D01*
X126339190Y-48145407D01*
X126361715Y-48189613D01*
X126482028Y-48355213D01*
X126626786Y-48499971D01*
X126743821Y-48585000D01*
X126792390Y-48620287D01*
X126883840Y-48666883D01*
X126885080Y-48667515D01*
X126935876Y-48715490D01*
X126952671Y-48783311D01*
X126930134Y-48849446D01*
X126885080Y-48888485D01*
X126792386Y-48935715D01*
X126626786Y-49056028D01*
X126482028Y-49200786D01*
X126361713Y-49366388D01*
X126292867Y-49501504D01*
X126244892Y-49552299D01*
X126177071Y-49569094D01*
X126110937Y-49546556D01*
X126071898Y-49501502D01*
X126029761Y-49418802D01*
X125991681Y-49366390D01*
X125918690Y-49265927D01*
X125785073Y-49132310D01*
X125632199Y-49021240D01*
X125463836Y-48935454D01*
X125284118Y-48877059D01*
X125097486Y-48847500D01*
X125097481Y-48847500D01*
X124908519Y-48847500D01*
X124908514Y-48847500D01*
X124721881Y-48877059D01*
X124542163Y-48935454D01*
X124373800Y-49021240D01*
X124325911Y-49056034D01*
X124220927Y-49132310D01*
X124220925Y-49132312D01*
X124220924Y-49132312D01*
X124087312Y-49265924D01*
X124087312Y-49265925D01*
X124087310Y-49265927D01*
X124080868Y-49274794D01*
X123976240Y-49418800D01*
X123890454Y-49587163D01*
X123850931Y-49708803D01*
X123811493Y-49766478D01*
X123747134Y-49793676D01*
X123678288Y-49781761D01*
X123626812Y-49734516D01*
X123615069Y-49708803D01*
X123587464Y-49623845D01*
X123575547Y-49587168D01*
X123575545Y-49587165D01*
X123575545Y-49587163D01*
X123500762Y-49440394D01*
X123489760Y-49418801D01*
X123378690Y-49265927D01*
X123245073Y-49132310D01*
X123092199Y-49021240D01*
X122923836Y-48935454D01*
X122744118Y-48877059D01*
X122557486Y-48847500D01*
X122557481Y-48847500D01*
X122368519Y-48847500D01*
X122368514Y-48847500D01*
X122181881Y-48877059D01*
X122002163Y-48935454D01*
X121833800Y-49021240D01*
X121785911Y-49056034D01*
X121680927Y-49132310D01*
X121680925Y-49132312D01*
X121680924Y-49132312D01*
X121547312Y-49265924D01*
X121547312Y-49265925D01*
X121547310Y-49265927D01*
X121540868Y-49274794D01*
X121436240Y-49418800D01*
X121350454Y-49587163D01*
X121292059Y-49766881D01*
X121262500Y-49953513D01*
X121262500Y-50142486D01*
X121292059Y-50329118D01*
X121350454Y-50508836D01*
X121390608Y-50587641D01*
X121436240Y-50677199D01*
X121547310Y-50830073D01*
X121680927Y-50963690D01*
X121785911Y-51039966D01*
X121833802Y-51074761D01*
X121926305Y-51121893D01*
X121977102Y-51169867D01*
X121993897Y-51237688D01*
X121971360Y-51303823D01*
X121916645Y-51347275D01*
X121908331Y-51350308D01*
X121806972Y-51383242D01*
X121624644Y-51476143D01*
X121580077Y-51508523D01*
X121580077Y-51508524D01*
X122259553Y-52188000D01*
X122253339Y-52188000D01*
X122151606Y-52215259D01*
X122060394Y-52267920D01*
X121985920Y-52342394D01*
X121933259Y-52433606D01*
X121906000Y-52535339D01*
X121906000Y-52541553D01*
X121226524Y-51862077D01*
X121226523Y-51862077D01*
X121194143Y-51906644D01*
X121101244Y-52088968D01*
X121038009Y-52283582D01*
X121006000Y-52485682D01*
X121006000Y-52690317D01*
X121038009Y-52892417D01*
X121101244Y-53087031D01*
X121194141Y-53269350D01*
X121194147Y-53269359D01*
X121226523Y-53313921D01*
X121226524Y-53313922D01*
X121906000Y-52634446D01*
X121906000Y-52640661D01*
X121933259Y-52742394D01*
X121985920Y-52833606D01*
X122060394Y-52908080D01*
X122151606Y-52960741D01*
X122253339Y-52988000D01*
X122259552Y-52988000D01*
X121580076Y-53667474D01*
X121624650Y-53699859D01*
X121806968Y-53792755D01*
X122001582Y-53855990D01*
X122203683Y-53888000D01*
X122408317Y-53888000D01*
X122610417Y-53855990D01*
X122793181Y-53796605D01*
X122863022Y-53794610D01*
X122922855Y-53830690D01*
X122953684Y-53893390D01*
X122955500Y-53914536D01*
X122955500Y-54794230D01*
X122955499Y-54794248D01*
X122955499Y-54959954D01*
X122955498Y-54959954D01*
X122955499Y-54959957D01*
X122996423Y-55112685D01*
X123018582Y-55151065D01*
X123025358Y-55162800D01*
X123025359Y-55162804D01*
X123025360Y-55162804D01*
X123075479Y-55249614D01*
X123075481Y-55249617D01*
X123194349Y-55368485D01*
X123194355Y-55368490D01*
X124663181Y-56837316D01*
X124696666Y-56898639D01*
X124699500Y-56924997D01*
X124699500Y-62284223D01*
X124679815Y-62351262D01*
X124627011Y-62397017D01*
X124557853Y-62406961D01*
X124528061Y-62398790D01*
X124524839Y-62397456D01*
X124524835Y-62397455D01*
X124524832Y-62397453D01*
X124449271Y-62372901D01*
X124345118Y-62339059D01*
X124158486Y-62309500D01*
X124158481Y-62309500D01*
X123969519Y-62309500D01*
X123969514Y-62309500D01*
X123782881Y-62339059D01*
X123603163Y-62397454D01*
X123434800Y-62483240D01*
X123361190Y-62536722D01*
X123281927Y-62594310D01*
X123281925Y-62594312D01*
X123281924Y-62594312D01*
X123148312Y-62727924D01*
X123148312Y-62727925D01*
X123148310Y-62727927D01*
X123134855Y-62746446D01*
X123037240Y-62880800D01*
X122951454Y-63049163D01*
X122911931Y-63170803D01*
X122872493Y-63228478D01*
X122808134Y-63255676D01*
X122739288Y-63243761D01*
X122687812Y-63196516D01*
X122676069Y-63170803D01*
X122636545Y-63049163D01*
X122584399Y-62946822D01*
X122550760Y-62880801D01*
X122439690Y-62727927D01*
X122306073Y-62594310D01*
X122153199Y-62483240D01*
X122126592Y-62469683D01*
X121984836Y-62397454D01*
X121805118Y-62339059D01*
X121618486Y-62309500D01*
X121618481Y-62309500D01*
X121429519Y-62309500D01*
X121429514Y-62309500D01*
X121242881Y-62339059D01*
X121063163Y-62397454D01*
X120894800Y-62483240D01*
X120821190Y-62536722D01*
X120741927Y-62594310D01*
X120741925Y-62594312D01*
X120741924Y-62594312D01*
X120608312Y-62727924D01*
X120608312Y-62727925D01*
X120608310Y-62727927D01*
X120594855Y-62746446D01*
X120497240Y-62880800D01*
X120411454Y-63049163D01*
X120353059Y-63228881D01*
X120323500Y-63415513D01*
X120323500Y-63604486D01*
X120353059Y-63791118D01*
X120411454Y-63970836D01*
X120470140Y-64086013D01*
X120497240Y-64139199D01*
X120608310Y-64292073D01*
X120741927Y-64425690D01*
X120894801Y-64536760D01*
X120928150Y-64553752D01*
X121063163Y-64622545D01*
X121063165Y-64622545D01*
X121063168Y-64622547D01*
X121159497Y-64653846D01*
X121242881Y-64680940D01*
X121429514Y-64710500D01*
X121429519Y-64710500D01*
X121618486Y-64710500D01*
X121805118Y-64680940D01*
X121810412Y-64679220D01*
X121984832Y-64622547D01*
X122153199Y-64536760D01*
X122306073Y-64425690D01*
X122439690Y-64292073D01*
X122550760Y-64139199D01*
X122636547Y-63970832D01*
X122676069Y-63849195D01*
X122715507Y-63791521D01*
X122779866Y-63764323D01*
X122848712Y-63776238D01*
X122900188Y-63823482D01*
X122911930Y-63849194D01*
X122918133Y-63868285D01*
X122951454Y-63970836D01*
X123010140Y-64086013D01*
X123037240Y-64139199D01*
X123148310Y-64292073D01*
X123281927Y-64425690D01*
X123412386Y-64520474D01*
X123455051Y-64575803D01*
X123463500Y-64620791D01*
X123463500Y-64999498D01*
X123443815Y-65066537D01*
X123395796Y-65109981D01*
X123314971Y-65151164D01*
X123235385Y-65191715D01*
X123069786Y-65312028D01*
X122925028Y-65456786D01*
X122804714Y-65622386D01*
X122777203Y-65676379D01*
X122729227Y-65727174D01*
X122661406Y-65743968D01*
X122595272Y-65721429D01*
X122556234Y-65676376D01*
X122528861Y-65622652D01*
X122496474Y-65578077D01*
X122496474Y-65578076D01*
X121817000Y-66257551D01*
X121817000Y-66251339D01*
X121789741Y-66149606D01*
X121737080Y-66058394D01*
X121662606Y-65983920D01*
X121571394Y-65931259D01*
X121469661Y-65904000D01*
X121463446Y-65904000D01*
X122142922Y-65224524D01*
X122142921Y-65224523D01*
X122098359Y-65192147D01*
X122098350Y-65192141D01*
X121916031Y-65099244D01*
X121721417Y-65036009D01*
X121519317Y-65004000D01*
X121314683Y-65004000D01*
X121112582Y-65036009D01*
X120917968Y-65099244D01*
X120735644Y-65192143D01*
X120691077Y-65224523D01*
X120691077Y-65224524D01*
X121370554Y-65904000D01*
X121364339Y-65904000D01*
X121262606Y-65931259D01*
X121171394Y-65983920D01*
X121096920Y-66058394D01*
X121044259Y-66149606D01*
X121017000Y-66251339D01*
X121017000Y-66257553D01*
X120337524Y-65578077D01*
X120337523Y-65578077D01*
X120305143Y-65622644D01*
X120234485Y-65761320D01*
X120186510Y-65812116D01*
X120118689Y-65828911D01*
X120052554Y-65806374D01*
X120009103Y-65751658D01*
X120000000Y-65705025D01*
X120000000Y-42434986D01*
X132368001Y-42434986D01*
X132378494Y-42537697D01*
X132433641Y-42704119D01*
X132433643Y-42704124D01*
X132525684Y-42853345D01*
X132649654Y-42977315D01*
X132798875Y-43069356D01*
X132798880Y-43069358D01*
X132965302Y-43124505D01*
X132965309Y-43124506D01*
X133068019Y-43134999D01*
X133205499Y-43134999D01*
X133205500Y-43134998D01*
X133205500Y-42160000D01*
X132368001Y-42160000D01*
X132368001Y-42434986D01*
X120000000Y-42434986D01*
X120000000Y-41385013D01*
X132368000Y-41385013D01*
X132368000Y-41660000D01*
X133205500Y-41660000D01*
X133205500Y-40685000D01*
X133068027Y-40685000D01*
X133068012Y-40685001D01*
X132965302Y-40695494D01*
X132798880Y-40750641D01*
X132798875Y-40750643D01*
X132649654Y-40842684D01*
X132525684Y-40966654D01*
X132433643Y-41115875D01*
X132433641Y-41115880D01*
X132378494Y-41282302D01*
X132378493Y-41282309D01*
X132368000Y-41385013D01*
X120000000Y-41385013D01*
X120000000Y-35124000D01*
X120019685Y-35056961D01*
X120072489Y-35011206D01*
X120124000Y-35000000D01*
X176800329Y-35000000D01*
X176867368Y-35019685D01*
G37*
%TD.AperFunction*%
%TD*%
%TA.AperFunction,Conductor*%
%TO.N,GNDA*%
G36*
X114677000Y-42873988D02*
G01*
X114619993Y-42841075D01*
X114492826Y-42807000D01*
X114361174Y-42807000D01*
X114234007Y-42841075D01*
X114177000Y-42873988D01*
X114177000Y-41200012D01*
X114234007Y-41232925D01*
X114361174Y-41267000D01*
X114492826Y-41267000D01*
X114619993Y-41232925D01*
X114677000Y-41200012D01*
X114677000Y-42873988D01*
G37*
%TD.AperFunction*%
%TA.AperFunction,Conductor*%
G36*
X118943039Y-35019685D02*
G01*
X118988794Y-35072489D01*
X119000000Y-35124000D01*
X119000000Y-77876000D01*
X118980315Y-77943039D01*
X118927511Y-77988794D01*
X118876000Y-78000000D01*
X91199671Y-78000000D01*
X91132632Y-77980315D01*
X91086877Y-77927511D01*
X91076933Y-77858353D01*
X91105958Y-77794797D01*
X91137666Y-77768616D01*
X91169479Y-77750249D01*
X91387928Y-77582628D01*
X91582628Y-77387928D01*
X91750249Y-77169479D01*
X91887923Y-76931021D01*
X91993295Y-76676632D01*
X92064560Y-76410666D01*
X92100500Y-76137674D01*
X92100500Y-75862326D01*
X92064560Y-75589334D01*
X91993295Y-75323368D01*
X91887923Y-75068979D01*
X91887921Y-75068976D01*
X91887919Y-75068971D01*
X91838732Y-74983778D01*
X91750249Y-74830521D01*
X91582628Y-74612072D01*
X91582623Y-74612066D01*
X91387933Y-74417376D01*
X91387926Y-74417370D01*
X91169483Y-74249754D01*
X91169482Y-74249753D01*
X91169479Y-74249751D01*
X91074407Y-74194861D01*
X90931028Y-74112080D01*
X90931017Y-74112075D01*
X90676630Y-74006704D01*
X90543649Y-73971072D01*
X90410666Y-73935440D01*
X90410660Y-73935439D01*
X90410655Y-73935438D01*
X90137684Y-73899501D01*
X90137679Y-73899500D01*
X90137674Y-73899500D01*
X89862326Y-73899500D01*
X89862320Y-73899500D01*
X89862315Y-73899501D01*
X89589344Y-73935438D01*
X89589337Y-73935439D01*
X89589334Y-73935440D01*
X89533125Y-73950500D01*
X89323369Y-74006704D01*
X89068982Y-74112075D01*
X89068971Y-74112080D01*
X88830516Y-74249754D01*
X88612073Y-74417370D01*
X88612066Y-74417376D01*
X88417376Y-74612066D01*
X88417370Y-74612073D01*
X88249756Y-74830513D01*
X88249752Y-74830518D01*
X88249751Y-74830521D01*
X88231384Y-74862332D01*
X88180819Y-74910545D01*
X88112212Y-74923767D01*
X88047348Y-74897799D01*
X88006820Y-74840885D01*
X88000000Y-74800329D01*
X88000000Y-53812135D01*
X89399500Y-53812135D01*
X89399500Y-55707870D01*
X89399501Y-55707876D01*
X89405908Y-55767483D01*
X89456202Y-55902328D01*
X89456206Y-55902335D01*
X89542452Y-56017544D01*
X89542455Y-56017547D01*
X89657664Y-56103793D01*
X89657671Y-56103797D01*
X89737580Y-56133601D01*
X89793514Y-56175472D01*
X89817931Y-56240936D01*
X89803080Y-56309209D01*
X89781929Y-56337463D01*
X89731756Y-56387636D01*
X89731752Y-56387641D01*
X89602187Y-56565974D01*
X89502104Y-56762393D01*
X89502103Y-56762396D01*
X89433985Y-56972047D01*
X89399500Y-57189778D01*
X89399500Y-57410221D01*
X89433985Y-57627952D01*
X89502103Y-57837603D01*
X89502104Y-57837606D01*
X89602187Y-58034025D01*
X89731752Y-58212358D01*
X89731756Y-58212363D01*
X89731758Y-58212365D01*
X89887635Y-58368242D01*
X90048386Y-58485034D01*
X90091051Y-58540362D01*
X90099500Y-58585351D01*
X90099500Y-61169293D01*
X90099499Y-61169296D01*
X90126418Y-61304622D01*
X90126421Y-61304632D01*
X90179222Y-61432107D01*
X90255887Y-61546845D01*
X90255888Y-61546846D01*
X99805552Y-71096509D01*
X99839037Y-71157832D01*
X99834053Y-71227524D01*
X99792182Y-71283456D01*
X99757455Y-71309452D01*
X99757452Y-71309455D01*
X99671206Y-71424664D01*
X99671202Y-71424671D01*
X99620908Y-71559517D01*
X99614501Y-71619116D01*
X99614500Y-71619135D01*
X99614500Y-73414870D01*
X99614501Y-73414876D01*
X99620908Y-73474483D01*
X99671202Y-73609328D01*
X99671206Y-73609335D01*
X99757452Y-73724544D01*
X99757455Y-73724547D01*
X99872664Y-73810793D01*
X99872671Y-73810797D01*
X100007517Y-73861091D01*
X100007516Y-73861091D01*
X100014444Y-73861835D01*
X100067127Y-73867500D01*
X101862872Y-73867499D01*
X101922483Y-73861091D01*
X102057331Y-73810796D01*
X102172546Y-73724546D01*
X102258796Y-73609331D01*
X102307810Y-73477916D01*
X102349681Y-73421984D01*
X102415145Y-73397566D01*
X102483418Y-73412417D01*
X102511673Y-73433569D01*
X102625213Y-73547109D01*
X102797179Y-73672048D01*
X102797181Y-73672049D01*
X102797184Y-73672051D01*
X102986588Y-73768557D01*
X103188757Y-73834246D01*
X103398713Y-73867500D01*
X103398714Y-73867500D01*
X103611286Y-73867500D01*
X103611287Y-73867500D01*
X103821243Y-73834246D01*
X104023412Y-73768557D01*
X104212816Y-73672051D01*
X104299138Y-73609335D01*
X104384786Y-73547109D01*
X104384788Y-73547106D01*
X104384792Y-73547104D01*
X104535104Y-73396792D01*
X104535106Y-73396788D01*
X104535109Y-73396786D01*
X104660048Y-73224820D01*
X104660047Y-73224820D01*
X104660051Y-73224816D01*
X104664514Y-73216054D01*
X104712488Y-73165259D01*
X104780308Y-73148463D01*
X104846444Y-73170999D01*
X104885486Y-73216056D01*
X104889951Y-73224820D01*
X105014890Y-73396786D01*
X105165213Y-73547109D01*
X105337179Y-73672048D01*
X105337181Y-73672049D01*
X105337184Y-73672051D01*
X105526588Y-73768557D01*
X105728757Y-73834246D01*
X105938713Y-73867500D01*
X105938714Y-73867500D01*
X106151286Y-73867500D01*
X106151287Y-73867500D01*
X106361243Y-73834246D01*
X106563412Y-73768557D01*
X106752816Y-73672051D01*
X106839138Y-73609335D01*
X106924786Y-73547109D01*
X106924788Y-73547106D01*
X106924792Y-73547104D01*
X107075104Y-73396792D01*
X107075106Y-73396788D01*
X107075109Y-73396786D01*
X107200048Y-73224820D01*
X107200047Y-73224820D01*
X107200051Y-73224816D01*
X107204514Y-73216054D01*
X107252488Y-73165259D01*
X107320308Y-73148463D01*
X107386444Y-73170999D01*
X107425486Y-73216056D01*
X107429951Y-73224820D01*
X107554890Y-73396786D01*
X107705213Y-73547109D01*
X107877179Y-73672048D01*
X107877181Y-73672049D01*
X107877184Y-73672051D01*
X108066588Y-73768557D01*
X108268757Y-73834246D01*
X108478713Y-73867500D01*
X108478714Y-73867500D01*
X108691286Y-73867500D01*
X108691287Y-73867500D01*
X108901243Y-73834246D01*
X109103412Y-73768557D01*
X109292816Y-73672051D01*
X109379138Y-73609335D01*
X109464786Y-73547109D01*
X109464788Y-73547106D01*
X109464792Y-73547104D01*
X109615104Y-73396792D01*
X109615106Y-73396788D01*
X109615109Y-73396786D01*
X109740048Y-73224820D01*
X109740047Y-73224820D01*
X109740051Y-73224816D01*
X109744514Y-73216054D01*
X109792488Y-73165259D01*
X109860308Y-73148463D01*
X109926444Y-73170999D01*
X109965486Y-73216056D01*
X109969951Y-73224820D01*
X110094890Y-73396786D01*
X110245213Y-73547109D01*
X110417179Y-73672048D01*
X110417181Y-73672049D01*
X110417184Y-73672051D01*
X110606588Y-73768557D01*
X110808757Y-73834246D01*
X111018713Y-73867500D01*
X111018714Y-73867500D01*
X111231286Y-73867500D01*
X111231287Y-73867500D01*
X111441243Y-73834246D01*
X111643412Y-73768557D01*
X111832816Y-73672051D01*
X111919138Y-73609335D01*
X112004786Y-73547109D01*
X112004788Y-73547106D01*
X112004792Y-73547104D01*
X112155104Y-73396792D01*
X112155106Y-73396788D01*
X112155109Y-73396786D01*
X112280048Y-73224820D01*
X112280051Y-73224816D01*
X112284793Y-73215508D01*
X112332763Y-73164711D01*
X112400583Y-73147911D01*
X112466719Y-73170445D01*
X112505763Y-73215500D01*
X112510377Y-73224555D01*
X112635272Y-73396459D01*
X112635276Y-73396464D01*
X112785535Y-73546723D01*
X112785540Y-73546727D01*
X112957442Y-73671620D01*
X113146782Y-73768095D01*
X113348871Y-73833757D01*
X113415000Y-73844231D01*
X113415000Y-72950012D01*
X113472007Y-72982925D01*
X113599174Y-73017000D01*
X113730826Y-73017000D01*
X113857993Y-72982925D01*
X113915000Y-72950012D01*
X113915000Y-73844230D01*
X113981126Y-73833757D01*
X113981129Y-73833757D01*
X114183217Y-73768095D01*
X114372557Y-73671620D01*
X114544459Y-73546727D01*
X114544464Y-73546723D01*
X114694723Y-73396464D01*
X114694727Y-73396459D01*
X114819620Y-73224557D01*
X114916095Y-73035217D01*
X114981757Y-72833129D01*
X114981757Y-72833126D01*
X114992231Y-72767000D01*
X114098012Y-72767000D01*
X114130925Y-72709993D01*
X114165000Y-72582826D01*
X114165000Y-72451174D01*
X114130925Y-72324007D01*
X114098012Y-72267000D01*
X114992231Y-72267000D01*
X114981757Y-72200873D01*
X114981757Y-72200870D01*
X114916095Y-71998782D01*
X114819620Y-71809442D01*
X114694727Y-71637540D01*
X114694723Y-71637535D01*
X114544464Y-71487276D01*
X114544459Y-71487272D01*
X114372557Y-71362379D01*
X114183215Y-71265903D01*
X113981124Y-71200241D01*
X113915000Y-71189768D01*
X113915000Y-72083988D01*
X113857993Y-72051075D01*
X113730826Y-72017000D01*
X113599174Y-72017000D01*
X113472007Y-72051075D01*
X113415000Y-72083988D01*
X113415000Y-71189768D01*
X113414999Y-71189768D01*
X113348875Y-71200241D01*
X113146784Y-71265903D01*
X112957442Y-71362379D01*
X112785540Y-71487272D01*
X112785535Y-71487276D01*
X112635276Y-71637535D01*
X112635272Y-71637540D01*
X112510378Y-71809443D01*
X112505762Y-71818502D01*
X112457784Y-71869295D01*
X112389963Y-71886087D01*
X112323829Y-71863546D01*
X112284794Y-71818493D01*
X112280051Y-71809184D01*
X112280049Y-71809181D01*
X112280048Y-71809179D01*
X112155109Y-71637213D01*
X112004786Y-71486890D01*
X111832820Y-71361951D01*
X111643414Y-71265444D01*
X111643413Y-71265443D01*
X111643412Y-71265443D01*
X111441243Y-71199754D01*
X111441241Y-71199753D01*
X111441240Y-71199753D01*
X111279957Y-71174208D01*
X111231287Y-71166500D01*
X111018713Y-71166500D01*
X110970042Y-71174208D01*
X110808760Y-71199753D01*
X110606585Y-71265444D01*
X110417179Y-71361951D01*
X110245213Y-71486890D01*
X110094890Y-71637213D01*
X109969949Y-71809182D01*
X109965484Y-71817946D01*
X109917509Y-71868742D01*
X109849688Y-71885536D01*
X109783553Y-71862998D01*
X109744516Y-71817946D01*
X109740050Y-71809182D01*
X109615109Y-71637213D01*
X109464786Y-71486890D01*
X109336615Y-71393770D01*
X109293949Y-71338441D01*
X109285500Y-71293452D01*
X109285500Y-68151505D01*
X109271060Y-68078918D01*
X109269436Y-68070753D01*
X109258582Y-68016178D01*
X109205970Y-67889159D01*
X109205845Y-67888794D01*
X109159406Y-67819293D01*
X109159405Y-67819292D01*
X109129115Y-67773959D01*
X109129110Y-67773953D01*
X109078721Y-67723565D01*
X109078719Y-67723563D01*
X107504069Y-66148882D01*
X113964669Y-66148882D01*
X113964670Y-66148883D01*
X113990059Y-66167329D01*
X114158362Y-66253085D01*
X114337997Y-66311451D01*
X114524553Y-66341000D01*
X114713447Y-66341000D01*
X114900002Y-66311451D01*
X115079637Y-66253085D01*
X115247937Y-66167331D01*
X115273328Y-66148883D01*
X115273328Y-66148882D01*
X114619001Y-65494554D01*
X114619000Y-65494554D01*
X113964669Y-66148882D01*
X107504069Y-66148882D01*
X106401761Y-65046552D01*
X113419000Y-65046552D01*
X113419000Y-65235447D01*
X113448548Y-65422002D01*
X113506914Y-65601637D01*
X113592666Y-65769933D01*
X113611116Y-65795328D01*
X114265446Y-65141000D01*
X114265446Y-65140999D01*
X114219369Y-65094922D01*
X114269000Y-65094922D01*
X114269000Y-65187078D01*
X114292852Y-65276095D01*
X114338930Y-65355905D01*
X114404095Y-65421070D01*
X114483905Y-65467148D01*
X114572922Y-65491000D01*
X114665078Y-65491000D01*
X114754095Y-65467148D01*
X114833905Y-65421070D01*
X114899070Y-65355905D01*
X114945148Y-65276095D01*
X114969000Y-65187078D01*
X114969000Y-65094922D01*
X114945148Y-65005905D01*
X114899070Y-64926095D01*
X114833905Y-64860930D01*
X114754095Y-64814852D01*
X114665078Y-64791000D01*
X114572922Y-64791000D01*
X114483905Y-64814852D01*
X114404095Y-64860930D01*
X114338930Y-64926095D01*
X114292852Y-65005905D01*
X114269000Y-65094922D01*
X114219369Y-65094922D01*
X113611116Y-64486669D01*
X113611116Y-64486670D01*
X113592669Y-64512060D01*
X113506914Y-64680362D01*
X113448548Y-64859997D01*
X113419000Y-65046552D01*
X106401761Y-65046552D01*
X105488344Y-64133116D01*
X113964669Y-64133116D01*
X114619000Y-64787446D01*
X114619001Y-64787446D01*
X115273328Y-64133116D01*
X115247933Y-64114666D01*
X115079637Y-64028914D01*
X114900002Y-63970548D01*
X114713447Y-63941000D01*
X114524553Y-63941000D01*
X114337997Y-63970548D01*
X114158362Y-64028914D01*
X113990060Y-64114669D01*
X113964670Y-64133116D01*
X113964669Y-64133116D01*
X105488344Y-64133116D01*
X105271616Y-63916384D01*
X105238134Y-63855065D01*
X105243119Y-63785373D01*
X105284991Y-63729440D01*
X105346699Y-63705350D01*
X105413696Y-63698506D01*
X105580119Y-63643358D01*
X105580124Y-63643356D01*
X105729345Y-63551315D01*
X105853315Y-63427345D01*
X105945356Y-63278124D01*
X105945358Y-63278119D01*
X106000505Y-63111697D01*
X106000506Y-63111690D01*
X106010999Y-63008986D01*
X106011000Y-63008973D01*
X106011000Y-62734000D01*
X105047500Y-62734000D01*
X104980461Y-62714315D01*
X104934706Y-62661511D01*
X104923500Y-62610000D01*
X104923500Y-62484000D01*
X104797500Y-62484000D01*
X104730461Y-62464315D01*
X104684706Y-62411511D01*
X104673500Y-62360000D01*
X104673500Y-62234000D01*
X105173500Y-62234000D01*
X106010999Y-62234000D01*
X106010999Y-61959028D01*
X106010998Y-61959013D01*
X106000505Y-61856302D01*
X105945358Y-61689880D01*
X105945356Y-61689875D01*
X105853315Y-61540654D01*
X105729345Y-61416684D01*
X105580124Y-61324643D01*
X105580119Y-61324641D01*
X105413697Y-61269494D01*
X105413690Y-61269493D01*
X105310986Y-61259000D01*
X105173500Y-61259000D01*
X105173500Y-62234000D01*
X104673500Y-62234000D01*
X104673500Y-61259000D01*
X104536027Y-61259000D01*
X104536012Y-61259001D01*
X104433302Y-61269494D01*
X104266880Y-61324641D01*
X104266875Y-61324643D01*
X104117654Y-61416684D01*
X103993683Y-61540655D01*
X103993679Y-61540660D01*
X103991826Y-61543665D01*
X103990018Y-61545290D01*
X103989202Y-61546323D01*
X103989025Y-61546183D01*
X103939874Y-61590385D01*
X103870911Y-61601601D01*
X103806831Y-61573752D01*
X103780753Y-61543653D01*
X103780737Y-61543628D01*
X103778712Y-61540344D01*
X103654656Y-61416288D01*
X103561888Y-61359069D01*
X103505336Y-61324187D01*
X103505331Y-61324185D01*
X103503862Y-61323698D01*
X103338797Y-61269001D01*
X103338795Y-61269000D01*
X103236016Y-61258500D01*
X103236009Y-61258500D01*
X102664624Y-61258500D01*
X102597585Y-61238815D01*
X102576937Y-61222175D01*
X102285254Y-60930451D01*
X102202462Y-60847648D01*
X112887500Y-60847648D01*
X112887500Y-61052352D01*
X112889228Y-61063264D01*
X112919522Y-61254534D01*
X112982781Y-61449223D01*
X113075715Y-61631613D01*
X113196028Y-61797213D01*
X113340786Y-61941971D01*
X113495749Y-62054556D01*
X113506390Y-62062287D01*
X113595212Y-62107544D01*
X113688776Y-62155218D01*
X113688778Y-62155218D01*
X113688781Y-62155220D01*
X113793137Y-62189127D01*
X113883465Y-62218477D01*
X113981473Y-62234000D01*
X114085648Y-62250500D01*
X114085649Y-62250500D01*
X114290348Y-62250500D01*
X114290352Y-62250500D01*
X114340704Y-62242524D01*
X114409993Y-62251478D01*
X114447781Y-62277316D01*
X116298669Y-64128204D01*
X116332154Y-64189527D01*
X116327170Y-64259219D01*
X116298671Y-64303565D01*
X116243310Y-64358927D01*
X116132240Y-64511800D01*
X116046454Y-64680163D01*
X116006668Y-64802612D01*
X115967230Y-64860287D01*
X115902871Y-64887485D01*
X115834025Y-64875570D01*
X115782549Y-64828325D01*
X115770806Y-64802611D01*
X115731085Y-64680362D01*
X115645329Y-64512059D01*
X115626883Y-64486670D01*
X115626882Y-64486669D01*
X114972554Y-65140999D01*
X114972554Y-65141000D01*
X115626882Y-65795328D01*
X115626883Y-65795328D01*
X115645331Y-65769937D01*
X115731086Y-65601635D01*
X115770806Y-65479389D01*
X115810243Y-65421713D01*
X115874601Y-65394514D01*
X115943448Y-65406428D01*
X115994924Y-65453672D01*
X116006668Y-65479387D01*
X116046454Y-65601836D01*
X116132104Y-65769933D01*
X116132240Y-65770199D01*
X116243310Y-65923073D01*
X116376927Y-66056690D01*
X116529801Y-66167760D01*
X116550770Y-66178444D01*
X116698163Y-66253545D01*
X116698165Y-66253545D01*
X116698168Y-66253547D01*
X116728945Y-66263547D01*
X116877881Y-66311940D01*
X117064514Y-66341500D01*
X117064519Y-66341500D01*
X117253486Y-66341500D01*
X117440118Y-66311940D01*
X117444436Y-66310537D01*
X117619832Y-66253547D01*
X117788199Y-66167760D01*
X117941073Y-66056690D01*
X118074690Y-65923073D01*
X118185760Y-65770199D01*
X118271547Y-65601832D01*
X118329940Y-65422118D01*
X118351484Y-65286095D01*
X118359500Y-65235486D01*
X118359500Y-65046513D01*
X118329940Y-64859881D01*
X118274796Y-64690168D01*
X118271547Y-64680168D01*
X118271545Y-64680165D01*
X118271545Y-64680163D01*
X118221624Y-64582188D01*
X118185760Y-64511801D01*
X118074690Y-64358927D01*
X117941073Y-64225310D01*
X117806052Y-64127211D01*
X117791134Y-64107864D01*
X117773058Y-64091433D01*
X117766306Y-64075666D01*
X117763387Y-64071881D01*
X117759164Y-64058989D01*
X117753661Y-64038453D01*
X117753660Y-64038450D01*
X117749884Y-64024357D01*
X117738015Y-63980060D01*
X117718577Y-63907516D01*
X117694746Y-63866239D01*
X117639524Y-63770590D01*
X117639521Y-63770586D01*
X117639520Y-63770584D01*
X117527716Y-63658780D01*
X117527715Y-63658779D01*
X117523385Y-63654449D01*
X117523374Y-63654439D01*
X116331115Y-62462180D01*
X116297630Y-62400857D01*
X116302614Y-62331165D01*
X116344486Y-62275232D01*
X116409950Y-62250815D01*
X116418796Y-62250499D01*
X117535871Y-62250499D01*
X117535872Y-62250499D01*
X117595483Y-62244091D01*
X117730331Y-62193796D01*
X117845546Y-62107546D01*
X117931796Y-61992331D01*
X117982091Y-61857483D01*
X117988500Y-61797873D01*
X117988499Y-60102128D01*
X117982091Y-60042517D01*
X117960686Y-59985128D01*
X117931797Y-59907671D01*
X117931793Y-59907664D01*
X117845547Y-59792455D01*
X117845544Y-59792452D01*
X117730335Y-59706206D01*
X117730328Y-59706202D01*
X117595482Y-59655908D01*
X117595483Y-59655908D01*
X117535883Y-59649501D01*
X117535881Y-59649500D01*
X117535873Y-59649500D01*
X117535864Y-59649500D01*
X115840129Y-59649500D01*
X115840123Y-59649501D01*
X115780516Y-59655908D01*
X115645671Y-59706202D01*
X115645664Y-59706206D01*
X115530455Y-59792452D01*
X115530452Y-59792455D01*
X115444206Y-59907664D01*
X115444202Y-59907671D01*
X115393908Y-60042517D01*
X115392603Y-60048042D01*
X115358028Y-60108757D01*
X115296116Y-60141141D01*
X115226525Y-60134912D01*
X115184613Y-60105023D01*
X115183411Y-60106226D01*
X115035213Y-59958028D01*
X114869613Y-59837715D01*
X114869612Y-59837714D01*
X114869610Y-59837713D01*
X114796903Y-59800667D01*
X114687223Y-59744781D01*
X114492534Y-59681522D01*
X114313264Y-59653129D01*
X114290352Y-59649500D01*
X114085648Y-59649500D01*
X114062736Y-59653129D01*
X113883465Y-59681522D01*
X113688776Y-59744781D01*
X113506386Y-59837715D01*
X113340786Y-59958028D01*
X113196028Y-60102786D01*
X113075715Y-60268386D01*
X112982781Y-60450776D01*
X112919522Y-60645465D01*
X112893440Y-60810143D01*
X112887500Y-60847648D01*
X102202462Y-60847648D01*
X102131813Y-60776989D01*
X102098332Y-60715664D01*
X102095500Y-60689314D01*
X102095500Y-60430149D01*
X102115185Y-60363110D01*
X102167989Y-60317355D01*
X102237147Y-60307411D01*
X102257811Y-60312217D01*
X102292466Y-60323477D01*
X102494648Y-60355500D01*
X102494649Y-60355500D01*
X103499351Y-60355500D01*
X103499352Y-60355500D01*
X103701534Y-60323477D01*
X103896219Y-60260220D01*
X104078610Y-60167287D01*
X104171590Y-60099732D01*
X104244213Y-60046971D01*
X104244215Y-60046968D01*
X104244219Y-60046966D01*
X104388966Y-59902219D01*
X104388968Y-59902215D01*
X104388971Y-59902213D01*
X104441732Y-59829590D01*
X104509287Y-59736610D01*
X104602220Y-59554219D01*
X104665477Y-59359534D01*
X104697500Y-59157352D01*
X104697500Y-58952648D01*
X104665477Y-58750466D01*
X104658586Y-58729259D01*
X104602218Y-58555776D01*
X104568503Y-58489607D01*
X104509287Y-58373390D01*
X104501556Y-58362749D01*
X104388971Y-58207786D01*
X104244213Y-58063028D01*
X104078614Y-57942715D01*
X104072006Y-57939348D01*
X103985917Y-57895483D01*
X103935123Y-57847511D01*
X103918328Y-57779690D01*
X103940865Y-57713555D01*
X103985917Y-57674516D01*
X104078610Y-57627287D01*
X104099770Y-57611913D01*
X104244213Y-57506971D01*
X104244215Y-57506968D01*
X104244219Y-57506966D01*
X104388966Y-57362219D01*
X104388968Y-57362215D01*
X104388971Y-57362213D01*
X104508640Y-57197500D01*
X104509287Y-57196610D01*
X104602220Y-57014219D01*
X104665477Y-56819534D01*
X104697500Y-56617352D01*
X104697500Y-56412648D01*
X104675879Y-56276141D01*
X104665477Y-56210465D01*
X104623449Y-56081118D01*
X104602220Y-56015781D01*
X104602218Y-56015778D01*
X104602218Y-56015776D01*
X104568503Y-55949607D01*
X104509287Y-55833390D01*
X104485027Y-55799999D01*
X104388971Y-55667786D01*
X104244213Y-55523028D01*
X104078614Y-55402715D01*
X104010089Y-55367800D01*
X103985917Y-55355483D01*
X103935123Y-55307511D01*
X103918328Y-55239690D01*
X103940865Y-55173555D01*
X103985917Y-55134516D01*
X104078610Y-55087287D01*
X104174077Y-55017927D01*
X104244213Y-54966971D01*
X104244215Y-54966968D01*
X104244219Y-54966966D01*
X104388966Y-54822219D01*
X104388968Y-54822215D01*
X104388971Y-54822213D01*
X104509286Y-54656612D01*
X104513258Y-54648817D01*
X104521211Y-54633207D01*
X104569183Y-54582412D01*
X104599597Y-54569728D01*
X104730784Y-54534577D01*
X104867716Y-54455520D01*
X104979520Y-54343716D01*
X105058577Y-54206784D01*
X105099500Y-54054057D01*
X105099500Y-51355943D01*
X105058577Y-51203216D01*
X104986956Y-51079163D01*
X104979524Y-51066290D01*
X104979518Y-51066282D01*
X104867717Y-50954481D01*
X104867712Y-50954477D01*
X104759499Y-50892001D01*
X104711284Y-50841434D01*
X104697499Y-50784614D01*
X104697499Y-50587129D01*
X104697498Y-50587123D01*
X104697497Y-50587116D01*
X104691091Y-50527517D01*
X104686768Y-50515927D01*
X104640797Y-50392671D01*
X104640793Y-50392664D01*
X104554547Y-50277455D01*
X104554544Y-50277452D01*
X104439335Y-50191206D01*
X104439328Y-50191202D01*
X104304482Y-50140908D01*
X104304483Y-50140908D01*
X104244883Y-50134501D01*
X104244881Y-50134500D01*
X104244873Y-50134500D01*
X104244864Y-50134500D01*
X101749129Y-50134500D01*
X101749123Y-50134501D01*
X101689516Y-50140908D01*
X101554671Y-50191202D01*
X101554664Y-50191206D01*
X101439455Y-50277452D01*
X101439452Y-50277455D01*
X101353206Y-50392664D01*
X101353202Y-50392671D01*
X101302908Y-50527517D01*
X101296501Y-50587116D01*
X101296501Y-50587123D01*
X101296500Y-50587135D01*
X101296500Y-52282870D01*
X101296501Y-52282876D01*
X101302908Y-52342483D01*
X101353202Y-52477328D01*
X101353206Y-52477335D01*
X101439452Y-52592544D01*
X101439455Y-52592547D01*
X101554664Y-52678793D01*
X101554671Y-52678797D01*
X101569265Y-52684240D01*
X101689517Y-52729091D01*
X101726441Y-52733060D01*
X101790989Y-52759796D01*
X101830838Y-52817188D01*
X101833333Y-52887013D01*
X101797681Y-52947102D01*
X101786071Y-52956666D01*
X101749784Y-52983030D01*
X101605028Y-53127786D01*
X101484715Y-53293386D01*
X101391781Y-53475776D01*
X101328522Y-53670465D01*
X101296500Y-53872648D01*
X101296500Y-54077351D01*
X101328522Y-54279534D01*
X101391781Y-54474223D01*
X101446907Y-54582412D01*
X101480742Y-54648817D01*
X101484715Y-54656613D01*
X101605028Y-54822213D01*
X101749786Y-54966971D01*
X101904749Y-55079556D01*
X101915390Y-55087287D01*
X102006840Y-55133883D01*
X102008080Y-55134515D01*
X102058876Y-55182490D01*
X102075671Y-55250311D01*
X102053134Y-55316446D01*
X102008080Y-55355485D01*
X101915386Y-55402715D01*
X101749786Y-55523028D01*
X101605028Y-55667786D01*
X101484714Y-55833386D01*
X101472788Y-55856792D01*
X101449572Y-55881370D01*
X101426850Y-55906370D01*
X101425356Y-55907009D01*
X101424812Y-55907586D01*
X101394406Y-55920266D01*
X101361016Y-55929214D01*
X101335073Y-55936168D01*
X101263216Y-55955423D01*
X101263215Y-55955423D01*
X101263202Y-55955427D01*
X101263184Y-55955434D01*
X101198488Y-55992793D01*
X101198481Y-55992797D01*
X101146500Y-56022808D01*
X101078599Y-56039281D01*
X101012573Y-56016428D01*
X100969382Y-55961507D01*
X100960500Y-55915421D01*
X100960500Y-55902513D01*
X100930940Y-55715881D01*
X100872545Y-55536163D01*
X100827290Y-55447347D01*
X100786760Y-55367801D01*
X100675690Y-55214927D01*
X100542073Y-55081310D01*
X100497649Y-55049034D01*
X100411614Y-54986525D01*
X100408273Y-54982192D01*
X100403297Y-54979920D01*
X100387167Y-54954821D01*
X100368948Y-54931194D01*
X100367695Y-54924521D01*
X100365523Y-54921142D01*
X100360500Y-54886207D01*
X100360500Y-54749137D01*
X100380185Y-54682098D01*
X100411615Y-54648818D01*
X100442073Y-54626690D01*
X100575690Y-54493073D01*
X100686760Y-54340199D01*
X100772547Y-54171832D01*
X100830940Y-53992118D01*
X100835895Y-53960832D01*
X100860500Y-53805486D01*
X100860500Y-53616513D01*
X100830940Y-53429881D01*
X100800715Y-53336861D01*
X100772547Y-53250168D01*
X100772545Y-53250165D01*
X100772545Y-53250163D01*
X100686759Y-53081800D01*
X100655785Y-53039168D01*
X100575690Y-52928927D01*
X100442073Y-52795310D01*
X100289199Y-52684240D01*
X100120836Y-52598454D01*
X99941118Y-52540059D01*
X99754486Y-52510500D01*
X99754481Y-52510500D01*
X99565519Y-52510500D01*
X99565514Y-52510500D01*
X99378881Y-52540059D01*
X99199163Y-52598454D01*
X99030800Y-52684240D01*
X98877924Y-52795312D01*
X98744312Y-52928924D01*
X98744312Y-52928925D01*
X98744310Y-52928927D01*
X98705003Y-52983028D01*
X98633240Y-53081800D01*
X98547454Y-53250163D01*
X98507668Y-53372612D01*
X98468230Y-53430287D01*
X98403871Y-53457485D01*
X98335025Y-53445570D01*
X98283549Y-53398325D01*
X98271806Y-53372611D01*
X98232085Y-53250362D01*
X98146329Y-53082059D01*
X98035314Y-52929258D01*
X98035310Y-52929253D01*
X97901746Y-52795689D01*
X97901741Y-52795685D01*
X97748940Y-52684670D01*
X97580635Y-52598913D01*
X97401004Y-52540549D01*
X97400995Y-52540547D01*
X97370000Y-52535637D01*
X97370000Y-53466025D01*
X97334905Y-53430930D01*
X97255095Y-53384852D01*
X97166078Y-53361000D01*
X97073922Y-53361000D01*
X96984905Y-53384852D01*
X96905095Y-53430930D01*
X96839930Y-53496095D01*
X96793852Y-53575905D01*
X96770000Y-53664922D01*
X96770000Y-53757078D01*
X96793852Y-53846095D01*
X96839930Y-53925905D01*
X96875025Y-53961000D01*
X95944638Y-53961000D01*
X95949548Y-53992002D01*
X96007914Y-54171637D01*
X96093670Y-54339940D01*
X96204685Y-54492741D01*
X96204689Y-54492746D01*
X96338253Y-54626310D01*
X96338258Y-54626314D01*
X96491058Y-54737329D01*
X96557818Y-54771345D01*
X96608614Y-54819319D01*
X96625409Y-54887140D01*
X96602872Y-54953275D01*
X96574410Y-54982147D01*
X96437927Y-55081309D01*
X96304312Y-55214924D01*
X96304312Y-55214925D01*
X96304310Y-55214927D01*
X96286319Y-55239690D01*
X96193240Y-55367800D01*
X96107454Y-55536163D01*
X96049059Y-55715881D01*
X96019500Y-55902513D01*
X96019500Y-56091486D01*
X96049059Y-56278118D01*
X96107454Y-56457836D01*
X96188732Y-56617351D01*
X96193240Y-56626199D01*
X96304310Y-56779073D01*
X96437927Y-56912690D01*
X96590801Y-57023760D01*
X96670347Y-57064290D01*
X96759163Y-57109545D01*
X96759165Y-57109545D01*
X96759168Y-57109547D01*
X96855497Y-57140846D01*
X96938881Y-57167940D01*
X97125514Y-57197500D01*
X97125519Y-57197500D01*
X97314486Y-57197500D01*
X97501118Y-57167940D01*
X97680832Y-57109547D01*
X97849199Y-57023760D01*
X98002073Y-56912690D01*
X98135690Y-56779073D01*
X98246760Y-56626199D01*
X98332547Y-56457832D01*
X98372069Y-56336195D01*
X98411507Y-56278521D01*
X98475866Y-56251323D01*
X98544712Y-56263238D01*
X98596188Y-56310482D01*
X98607930Y-56336194D01*
X98608343Y-56337464D01*
X98647454Y-56457836D01*
X98733240Y-56626200D01*
X98749951Y-56649200D01*
X98765513Y-56670619D01*
X98788994Y-56736424D01*
X98773169Y-56804478D01*
X98752877Y-56831186D01*
X96336553Y-59247510D01*
X96336546Y-59247517D01*
X96333286Y-59250778D01*
X96333284Y-59250780D01*
X96221480Y-59362584D01*
X96194794Y-59408806D01*
X96188973Y-59418888D01*
X96188968Y-59418894D01*
X96159173Y-59470501D01*
X96108606Y-59518716D01*
X96051788Y-59532500D01*
X95854130Y-59532500D01*
X95854123Y-59532501D01*
X95794516Y-59538908D01*
X95659671Y-59589202D01*
X95659664Y-59589206D01*
X95544455Y-59675452D01*
X95544452Y-59675455D01*
X95458206Y-59790664D01*
X95458202Y-59790671D01*
X95407908Y-59925517D01*
X95401501Y-59985116D01*
X95401500Y-59985135D01*
X95401500Y-61680870D01*
X95401501Y-61680876D01*
X95407908Y-61740483D01*
X95458202Y-61875328D01*
X95458206Y-61875335D01*
X95544452Y-61990544D01*
X95544455Y-61990547D01*
X95659664Y-62076793D01*
X95659671Y-62076797D01*
X95794517Y-62127091D01*
X95794516Y-62127091D01*
X95801444Y-62127835D01*
X95854127Y-62133500D01*
X97549872Y-62133499D01*
X97609483Y-62127091D01*
X97744331Y-62076796D01*
X97859546Y-61990546D01*
X97945796Y-61875331D01*
X97996091Y-61740483D01*
X97997394Y-61734968D01*
X98031963Y-61674250D01*
X98093872Y-61641860D01*
X98163464Y-61648083D01*
X98205387Y-61677975D01*
X98206589Y-61676774D01*
X98210034Y-61680219D01*
X98354781Y-61824966D01*
X98520390Y-61945287D01*
X98533793Y-61952116D01*
X98584589Y-62000088D01*
X98601500Y-62062601D01*
X98601500Y-63645202D01*
X98581815Y-63712241D01*
X98565181Y-63732883D01*
X98517481Y-63780582D01*
X98517477Y-63780587D01*
X98468026Y-63866239D01*
X98468027Y-63866240D01*
X98438422Y-63917516D01*
X98397835Y-64068988D01*
X98361469Y-64128649D01*
X98350946Y-64137212D01*
X98215925Y-64235311D01*
X98082312Y-64368924D01*
X98082312Y-64368925D01*
X98082310Y-64368927D01*
X98034610Y-64434579D01*
X97971240Y-64521800D01*
X97885454Y-64690163D01*
X97845668Y-64812612D01*
X97806230Y-64870287D01*
X97741871Y-64897485D01*
X97673025Y-64885570D01*
X97621549Y-64838325D01*
X97609806Y-64812611D01*
X97570085Y-64690362D01*
X97484329Y-64522059D01*
X97465883Y-64496670D01*
X97465882Y-64496669D01*
X96811554Y-65150999D01*
X96811554Y-65151000D01*
X97465882Y-65805328D01*
X97465883Y-65805328D01*
X97484331Y-65779937D01*
X97570086Y-65611635D01*
X97609806Y-65489389D01*
X97649243Y-65431713D01*
X97713601Y-65404514D01*
X97782448Y-65416428D01*
X97833924Y-65463672D01*
X97845668Y-65489387D01*
X97885454Y-65611836D01*
X97966009Y-65769933D01*
X97971240Y-65780199D01*
X98082310Y-65933073D01*
X98215927Y-66066690D01*
X98368801Y-66177760D01*
X98448347Y-66218290D01*
X98537163Y-66263545D01*
X98537165Y-66263545D01*
X98537168Y-66263547D01*
X98633497Y-66294846D01*
X98716881Y-66321940D01*
X98903514Y-66351500D01*
X98903519Y-66351500D01*
X99092486Y-66351500D01*
X99279118Y-66321940D01*
X99458832Y-66263547D01*
X99627199Y-66177760D01*
X99780073Y-66066690D01*
X99913690Y-65933073D01*
X100024760Y-65780199D01*
X100110547Y-65611832D01*
X100168940Y-65432118D01*
X100185466Y-65327777D01*
X100198500Y-65245486D01*
X100198500Y-65056513D01*
X100168940Y-64869881D01*
X100110545Y-64690163D01*
X100065290Y-64601347D01*
X100024760Y-64521801D01*
X99913690Y-64368927D01*
X99803804Y-64259041D01*
X99770319Y-64197718D01*
X99771709Y-64139268D01*
X99802501Y-64024357D01*
X99802501Y-63866242D01*
X99802501Y-63866240D01*
X99802501Y-63858647D01*
X99802500Y-63858629D01*
X99802500Y-62062601D01*
X99822185Y-61995562D01*
X99870206Y-61952116D01*
X99883610Y-61945287D01*
X100049219Y-61824966D01*
X100193966Y-61680219D01*
X100193968Y-61680215D01*
X100193971Y-61680213D01*
X100290867Y-61546845D01*
X100314287Y-61514610D01*
X100407220Y-61332219D01*
X100460163Y-61169277D01*
X100467247Y-61147476D01*
X100469439Y-61144269D01*
X100469786Y-61140399D01*
X100489002Y-61115660D01*
X100506685Y-61089800D01*
X100510264Y-61088287D01*
X100512647Y-61085220D01*
X100542179Y-61074799D01*
X100571043Y-61062602D01*
X100574872Y-61063264D01*
X100578536Y-61061972D01*
X100609025Y-61069175D01*
X100639890Y-61074517D01*
X100642751Y-61077143D01*
X100646533Y-61078037D01*
X100668288Y-61100581D01*
X100691365Y-61121761D01*
X100693133Y-61126326D01*
X100695051Y-61128314D01*
X100706794Y-61161597D01*
X100708322Y-61169277D01*
X100708323Y-61169293D01*
X100708325Y-61169293D01*
X100721408Y-61235094D01*
X100721415Y-61235118D01*
X100746439Y-61295529D01*
X100746440Y-61295538D01*
X100746442Y-61295538D01*
X100774201Y-61362569D01*
X100774219Y-61362603D01*
X100810091Y-61416288D01*
X100810095Y-61416294D01*
X100850859Y-61477309D01*
X100850890Y-61477347D01*
X100901574Y-61528030D01*
X100901581Y-61528037D01*
X101724187Y-62350756D01*
X101757668Y-62412081D01*
X101760500Y-62438431D01*
X101760500Y-63009001D01*
X101760501Y-63009019D01*
X101771000Y-63111796D01*
X101771001Y-63111799D01*
X101826115Y-63278119D01*
X101826186Y-63278334D01*
X101918288Y-63427656D01*
X102042344Y-63551712D01*
X102191666Y-63643814D01*
X102358203Y-63698999D01*
X102460991Y-63709500D01*
X103032079Y-63709499D01*
X103099118Y-63729183D01*
X103119761Y-63745819D01*
X104794979Y-65421070D01*
X107452775Y-68078918D01*
X107848182Y-68474332D01*
X107881666Y-68535655D01*
X107884500Y-68562012D01*
X107884500Y-71293452D01*
X107864815Y-71360491D01*
X107833385Y-71393770D01*
X107705213Y-71486890D01*
X107554890Y-71637213D01*
X107429949Y-71809182D01*
X107425484Y-71817946D01*
X107377509Y-71868742D01*
X107309688Y-71885536D01*
X107243553Y-71862998D01*
X107204516Y-71817946D01*
X107200050Y-71809182D01*
X107075109Y-71637213D01*
X106924786Y-71486890D01*
X106752820Y-71361951D01*
X106563414Y-71265444D01*
X106563413Y-71265443D01*
X106563412Y-71265443D01*
X106361243Y-71199754D01*
X106361241Y-71199753D01*
X106361240Y-71199753D01*
X106199957Y-71174208D01*
X106151287Y-71166500D01*
X105938713Y-71166500D01*
X105890042Y-71174208D01*
X105728760Y-71199753D01*
X105526585Y-71265444D01*
X105337179Y-71361951D01*
X105165213Y-71486890D01*
X105014890Y-71637213D01*
X104889949Y-71809182D01*
X104885484Y-71817946D01*
X104837509Y-71868742D01*
X104769688Y-71885536D01*
X104703553Y-71862998D01*
X104664516Y-71817946D01*
X104660050Y-71809182D01*
X104535109Y-71637213D01*
X104384786Y-71486890D01*
X104212820Y-71361951D01*
X104023414Y-71265444D01*
X104023413Y-71265443D01*
X104023412Y-71265443D01*
X103821243Y-71199754D01*
X103821241Y-71199753D01*
X103821240Y-71199753D01*
X103659957Y-71174208D01*
X103611287Y-71166500D01*
X103398713Y-71166500D01*
X103350042Y-71174208D01*
X103188760Y-71199753D01*
X102986585Y-71265444D01*
X102797179Y-71361951D01*
X102625215Y-71486889D01*
X102511673Y-71600431D01*
X102450350Y-71633915D01*
X102380658Y-71628931D01*
X102324725Y-71587059D01*
X102307810Y-71556082D01*
X102258797Y-71424671D01*
X102258793Y-71424664D01*
X102172547Y-71309455D01*
X102172544Y-71309452D01*
X102057335Y-71223206D01*
X102057328Y-71223202D01*
X101922482Y-71172908D01*
X101922483Y-71172908D01*
X101862883Y-71166501D01*
X101862881Y-71166500D01*
X101862873Y-71166500D01*
X101862865Y-71166500D01*
X101761335Y-71166500D01*
X101694296Y-71146815D01*
X101648541Y-71094011D01*
X101639718Y-71066692D01*
X101638581Y-71060978D01*
X101638580Y-71060972D01*
X101585775Y-70933489D01*
X101509114Y-70818757D01*
X101509112Y-70818754D01*
X101509111Y-70818753D01*
X97062217Y-66371860D01*
X97028732Y-66310537D01*
X97033716Y-66240845D01*
X97075588Y-66184912D01*
X97085121Y-66178444D01*
X97086940Y-66177329D01*
X97112328Y-66158883D01*
X97112328Y-66158882D01*
X96454446Y-65501000D01*
X96504078Y-65501000D01*
X96593095Y-65477148D01*
X96672905Y-65431070D01*
X96738070Y-65365905D01*
X96784148Y-65286095D01*
X96808000Y-65197078D01*
X96808000Y-65104922D01*
X96784148Y-65015905D01*
X96738070Y-64936095D01*
X96672905Y-64870930D01*
X96593095Y-64824852D01*
X96504078Y-64801000D01*
X96411922Y-64801000D01*
X96322905Y-64824852D01*
X96243095Y-64870930D01*
X96177930Y-64936095D01*
X96131852Y-65015905D01*
X96108000Y-65104922D01*
X96108000Y-65154553D01*
X95450116Y-64496669D01*
X95450116Y-64496670D01*
X95431667Y-64522064D01*
X95430544Y-64523897D01*
X95429936Y-64524446D01*
X95428805Y-64526004D01*
X95428477Y-64525766D01*
X95378729Y-64570769D01*
X95309799Y-64582188D01*
X95245638Y-64554527D01*
X95237139Y-64546782D01*
X94833473Y-64143116D01*
X95803669Y-64143116D01*
X96458000Y-64797446D01*
X96458001Y-64797446D01*
X97112328Y-64143116D01*
X97086933Y-64124666D01*
X96918637Y-64038914D01*
X96739002Y-63980548D01*
X96552447Y-63951000D01*
X96363553Y-63951000D01*
X96176997Y-63980548D01*
X95997362Y-64038914D01*
X95829060Y-64124669D01*
X95803670Y-64143116D01*
X95803669Y-64143116D01*
X94833473Y-64143116D01*
X91536819Y-60846462D01*
X91503334Y-60785139D01*
X91500500Y-60758781D01*
X91500500Y-58585351D01*
X91520185Y-58518312D01*
X91551611Y-58485035D01*
X91712365Y-58368242D01*
X91868242Y-58212365D01*
X91997815Y-58034022D01*
X92097895Y-57837606D01*
X92166015Y-57627951D01*
X92200500Y-57410222D01*
X92200500Y-57189778D01*
X92166015Y-56972049D01*
X92120247Y-56831186D01*
X92097896Y-56762396D01*
X92097895Y-56762393D01*
X92051132Y-56670618D01*
X91997815Y-56565978D01*
X91898440Y-56429199D01*
X91868247Y-56387641D01*
X91868243Y-56387636D01*
X91818071Y-56337464D01*
X91784586Y-56276141D01*
X91789570Y-56206449D01*
X91831442Y-56150516D01*
X91862420Y-56133601D01*
X91942326Y-56103798D01*
X91942326Y-56103797D01*
X91942331Y-56103796D01*
X92057546Y-56017546D01*
X92143796Y-55902331D01*
X92194091Y-55767483D01*
X92200500Y-55707873D01*
X92200499Y-53812128D01*
X92195028Y-53761233D01*
X92207433Y-53692474D01*
X92230633Y-53660300D01*
X92429933Y-53461000D01*
X95944638Y-53461000D01*
X96870000Y-53461000D01*
X96870000Y-52535637D01*
X96869999Y-52535637D01*
X96839004Y-52540547D01*
X96838995Y-52540549D01*
X96659364Y-52598913D01*
X96491059Y-52684670D01*
X96338258Y-52795685D01*
X96338253Y-52795689D01*
X96204689Y-52929253D01*
X96204685Y-52929258D01*
X96093670Y-53082059D01*
X96007914Y-53250362D01*
X95949548Y-53429997D01*
X95944638Y-53461000D01*
X92429933Y-53461000D01*
X92858506Y-53032428D01*
X92858511Y-53032424D01*
X92868714Y-53022220D01*
X92868716Y-53022220D01*
X92980520Y-52910416D01*
X93046976Y-52795310D01*
X93059577Y-52773485D01*
X93100500Y-52620757D01*
X93100500Y-52620458D01*
X93101931Y-52616024D01*
X93119902Y-52589627D01*
X93136528Y-52562352D01*
X93140889Y-52558803D01*
X93141253Y-52558269D01*
X93141866Y-52558008D01*
X93147053Y-52553788D01*
X93165275Y-52540549D01*
X93282073Y-52455690D01*
X93415690Y-52322073D01*
X93526760Y-52169199D01*
X93612547Y-52000832D01*
X93670940Y-51821118D01*
X93700500Y-51634486D01*
X93700500Y-51445513D01*
X93670940Y-51258881D01*
X93629215Y-51130466D01*
X93612547Y-51079168D01*
X93612545Y-51079165D01*
X93612545Y-51079163D01*
X93529251Y-50915690D01*
X93526760Y-50910801D01*
X93415690Y-50757927D01*
X93282073Y-50624310D01*
X93129199Y-50513240D01*
X92960836Y-50427454D01*
X92886472Y-50403291D01*
X92839195Y-50387930D01*
X92781521Y-50348493D01*
X92754323Y-50284134D01*
X92766238Y-50215288D01*
X92813482Y-50163812D01*
X92839194Y-50152069D01*
X92960832Y-50112547D01*
X93129199Y-50026760D01*
X93282073Y-49915690D01*
X93292250Y-49905513D01*
X95799500Y-49905513D01*
X95799500Y-50094486D01*
X95829059Y-50281118D01*
X95887454Y-50460836D01*
X95952139Y-50587786D01*
X95973240Y-50629199D01*
X96084310Y-50782073D01*
X96217927Y-50915690D01*
X96370801Y-51026760D01*
X96448368Y-51066282D01*
X96539163Y-51112545D01*
X96539165Y-51112545D01*
X96539168Y-51112547D01*
X96594314Y-51130465D01*
X96718881Y-51170940D01*
X96905514Y-51200500D01*
X96905519Y-51200500D01*
X97094486Y-51200500D01*
X97281118Y-51170940D01*
X97460832Y-51112547D01*
X97629199Y-51026760D01*
X97782073Y-50915690D01*
X97915690Y-50782073D01*
X98026760Y-50629199D01*
X98112547Y-50460832D01*
X98152069Y-50339194D01*
X98191505Y-50281522D01*
X98255864Y-50254323D01*
X98324710Y-50266237D01*
X98376186Y-50313481D01*
X98387930Y-50339195D01*
X98392152Y-50352188D01*
X98416607Y-50427453D01*
X98427455Y-50460837D01*
X98492139Y-50587786D01*
X98513240Y-50629199D01*
X98624310Y-50782073D01*
X98757927Y-50915690D01*
X98910801Y-51026760D01*
X98988368Y-51066282D01*
X99079163Y-51112545D01*
X99079165Y-51112545D01*
X99079168Y-51112547D01*
X99134314Y-51130465D01*
X99258881Y-51170940D01*
X99445514Y-51200500D01*
X99445519Y-51200500D01*
X99634486Y-51200500D01*
X99821118Y-51170940D01*
X100000832Y-51112547D01*
X100169199Y-51026760D01*
X100322073Y-50915690D01*
X100455690Y-50782073D01*
X100566760Y-50629199D01*
X100652547Y-50460832D01*
X100710940Y-50281118D01*
X100713297Y-50266237D01*
X100740500Y-50094486D01*
X100740500Y-49905513D01*
X100710940Y-49718881D01*
X100667883Y-49586368D01*
X100652547Y-49539168D01*
X100652545Y-49539165D01*
X100652545Y-49539163D01*
X100607290Y-49450347D01*
X100566760Y-49370801D01*
X100455690Y-49217927D01*
X100322073Y-49084310D01*
X100169199Y-48973240D01*
X100000836Y-48887454D01*
X99821118Y-48829059D01*
X99800221Y-48825750D01*
X99737086Y-48795821D01*
X99730340Y-48784986D01*
X107984001Y-48784986D01*
X107994494Y-48887697D01*
X108049641Y-49054119D01*
X108049643Y-49054124D01*
X108141684Y-49203345D01*
X108265654Y-49327315D01*
X108414875Y-49419356D01*
X108414880Y-49419358D01*
X108581302Y-49474505D01*
X108581309Y-49474506D01*
X108684019Y-49484999D01*
X108821499Y-49484999D01*
X108821500Y-49484998D01*
X108821500Y-48510000D01*
X107984001Y-48510000D01*
X107984001Y-48784986D01*
X99730340Y-48784986D01*
X99700155Y-48736509D01*
X99701153Y-48666646D01*
X99731936Y-48615598D01*
X100612522Y-47735013D01*
X107984000Y-47735013D01*
X107984000Y-48010000D01*
X108821500Y-48010000D01*
X108821500Y-47035000D01*
X108684027Y-47035000D01*
X108684012Y-47035001D01*
X108581302Y-47045494D01*
X108414880Y-47100641D01*
X108414875Y-47100643D01*
X108265654Y-47192684D01*
X108141684Y-47316654D01*
X108049643Y-47465875D01*
X108049641Y-47465880D01*
X107994494Y-47632302D01*
X107994493Y-47632309D01*
X107984000Y-47735013D01*
X100612522Y-47735013D01*
X102207520Y-46140016D01*
X102286577Y-46003085D01*
X102327501Y-45850357D01*
X102327501Y-45692242D01*
X102327501Y-45684647D01*
X102327500Y-45684629D01*
X102327500Y-44592718D01*
X102347185Y-44525679D01*
X102395207Y-44482233D01*
X102434815Y-44462052D01*
X102434815Y-44462051D01*
X102434816Y-44462051D01*
X102568194Y-44365147D01*
X102606786Y-44337109D01*
X102606788Y-44337106D01*
X102606792Y-44337104D01*
X102757104Y-44186792D01*
X102757106Y-44186788D01*
X102757109Y-44186786D01*
X102882048Y-44014820D01*
X102882047Y-44014820D01*
X102882051Y-44014816D01*
X102886514Y-44006054D01*
X102934488Y-43955259D01*
X103002308Y-43938463D01*
X103068444Y-43960999D01*
X103107486Y-44006056D01*
X103111951Y-44014820D01*
X103236890Y-44186786D01*
X103387213Y-44337109D01*
X103559179Y-44462048D01*
X103559181Y-44462049D01*
X103559184Y-44462051D01*
X103748588Y-44558557D01*
X103950757Y-44624246D01*
X104160713Y-44657500D01*
X104160714Y-44657500D01*
X104373284Y-44657500D01*
X104373287Y-44657500D01*
X104432586Y-44648107D01*
X104501876Y-44657061D01*
X104539663Y-44682899D01*
X104795984Y-44939220D01*
X104795986Y-44939221D01*
X104795990Y-44939224D01*
X104932909Y-45018273D01*
X104932916Y-45018277D01*
X105085643Y-45059201D01*
X105085645Y-45059201D01*
X105251354Y-45059201D01*
X105251370Y-45059200D01*
X108670896Y-45059200D01*
X108737935Y-45078885D01*
X108758578Y-45095519D01*
X110279297Y-46616286D01*
X110552960Y-46889957D01*
X110586444Y-46951281D01*
X110581458Y-47020972D01*
X110539586Y-47076905D01*
X110504284Y-47095342D01*
X110489669Y-47100184D01*
X110489663Y-47100187D01*
X110340342Y-47192289D01*
X110216288Y-47316343D01*
X110216283Y-47316349D01*
X110214241Y-47319661D01*
X110212247Y-47321453D01*
X110211807Y-47322011D01*
X110211711Y-47321935D01*
X110162291Y-47366383D01*
X110093328Y-47377602D01*
X110029247Y-47349755D01*
X110003168Y-47319656D01*
X110001319Y-47316659D01*
X110001316Y-47316655D01*
X109877345Y-47192684D01*
X109728124Y-47100643D01*
X109728119Y-47100641D01*
X109561697Y-47045494D01*
X109561690Y-47045493D01*
X109458986Y-47035000D01*
X109321500Y-47035000D01*
X109321500Y-49484999D01*
X109458972Y-49484999D01*
X109458986Y-49484998D01*
X109561697Y-49474505D01*
X109728119Y-49419358D01*
X109728124Y-49419356D01*
X109877345Y-49327315D01*
X110001318Y-49203342D01*
X110003165Y-49200348D01*
X110004969Y-49198724D01*
X110005798Y-49197677D01*
X110005976Y-49197818D01*
X110055110Y-49153621D01*
X110124073Y-49142396D01*
X110188156Y-49170236D01*
X110214243Y-49200341D01*
X110216288Y-49203656D01*
X110340344Y-49327712D01*
X110489666Y-49419814D01*
X110656203Y-49474999D01*
X110758991Y-49485500D01*
X111329767Y-49485499D01*
X111359162Y-49494130D01*
X111389102Y-49500617D01*
X111394180Y-49504412D01*
X111396806Y-49505183D01*
X111417374Y-49521744D01*
X111482107Y-49586368D01*
X111515644Y-49647663D01*
X111518500Y-49674123D01*
X111518500Y-50059849D01*
X111498815Y-50126888D01*
X111446011Y-50172643D01*
X111376853Y-50182587D01*
X111356182Y-50177780D01*
X111321537Y-50166523D01*
X111159810Y-50140908D01*
X111119352Y-50134500D01*
X110114648Y-50134500D01*
X110090329Y-50138351D01*
X109912465Y-50166522D01*
X109717776Y-50229781D01*
X109535386Y-50322715D01*
X109369786Y-50443028D01*
X109225028Y-50587786D01*
X109104715Y-50753386D01*
X109011781Y-50935776D01*
X108948522Y-51130465D01*
X108916500Y-51332648D01*
X108916500Y-51537351D01*
X108948522Y-51739534D01*
X109011781Y-51934223D01*
X109045721Y-52000832D01*
X109086097Y-52080075D01*
X109104715Y-52116613D01*
X109225028Y-52282213D01*
X109369786Y-52426971D01*
X109519355Y-52535637D01*
X109535390Y-52547287D01*
X109608052Y-52584310D01*
X109628080Y-52594515D01*
X109678876Y-52642490D01*
X109695671Y-52710311D01*
X109673134Y-52776446D01*
X109628080Y-52815485D01*
X109535386Y-52862715D01*
X109369786Y-52983028D01*
X109225028Y-53127786D01*
X109104715Y-53293386D01*
X109011781Y-53475776D01*
X108948522Y-53670465D01*
X108916500Y-53872648D01*
X108916500Y-54077351D01*
X108948522Y-54279534D01*
X109011781Y-54474223D01*
X109066907Y-54582412D01*
X109100742Y-54648817D01*
X109104715Y-54656613D01*
X109225028Y-54822213D01*
X109369786Y-54966971D01*
X109524749Y-55079556D01*
X109535390Y-55087287D01*
X109626840Y-55133883D01*
X109628080Y-55134515D01*
X109678876Y-55182490D01*
X109695671Y-55250311D01*
X109673134Y-55316446D01*
X109628080Y-55355485D01*
X109535386Y-55402715D01*
X109369786Y-55523028D01*
X109225028Y-55667786D01*
X109104715Y-55833386D01*
X109011781Y-56015776D01*
X108948522Y-56210465D01*
X108920461Y-56387641D01*
X108916500Y-56412648D01*
X108916500Y-56617352D01*
X108920878Y-56644995D01*
X108948522Y-56819534D01*
X109011781Y-57014223D01*
X109104715Y-57196613D01*
X109225028Y-57362213D01*
X109369786Y-57506971D01*
X109524749Y-57619556D01*
X109535390Y-57627287D01*
X109626840Y-57673883D01*
X109628080Y-57674515D01*
X109678876Y-57722490D01*
X109695671Y-57790311D01*
X109673134Y-57856446D01*
X109628080Y-57895485D01*
X109535386Y-57942715D01*
X109369786Y-58063028D01*
X109225028Y-58207786D01*
X109104715Y-58373386D01*
X109011781Y-58555776D01*
X108948522Y-58750465D01*
X108916500Y-58952648D01*
X108916500Y-59157351D01*
X108948522Y-59359534D01*
X109011781Y-59554223D01*
X109062177Y-59653129D01*
X109089221Y-59706206D01*
X109104715Y-59736613D01*
X109225028Y-59902213D01*
X109369786Y-60046971D01*
X109490829Y-60134912D01*
X109535390Y-60167287D01*
X109651607Y-60226503D01*
X109717776Y-60260218D01*
X109717778Y-60260218D01*
X109717781Y-60260220D01*
X109822137Y-60294127D01*
X109912465Y-60323477D01*
X110013557Y-60339488D01*
X110114648Y-60355500D01*
X110114649Y-60355500D01*
X111119351Y-60355500D01*
X111119352Y-60355500D01*
X111321534Y-60323477D01*
X111516219Y-60260220D01*
X111698610Y-60167287D01*
X111791590Y-60099732D01*
X111864213Y-60046971D01*
X111864215Y-60046968D01*
X111864219Y-60046966D01*
X112008966Y-59902219D01*
X112008968Y-59902215D01*
X112008971Y-59902213D01*
X112061732Y-59829590D01*
X112129287Y-59736610D01*
X112222220Y-59554219D01*
X112285477Y-59359534D01*
X112317500Y-59157352D01*
X112317500Y-58952648D01*
X112285477Y-58750466D01*
X112278586Y-58729259D01*
X112222218Y-58555776D01*
X112188503Y-58489607D01*
X112129287Y-58373390D01*
X112121556Y-58362749D01*
X112008971Y-58207786D01*
X111864213Y-58063028D01*
X111698614Y-57942715D01*
X111692006Y-57939348D01*
X111605917Y-57895483D01*
X111555123Y-57847511D01*
X111538328Y-57779690D01*
X111560865Y-57713555D01*
X111605917Y-57674516D01*
X111698610Y-57627287D01*
X111719770Y-57611913D01*
X111864213Y-57506971D01*
X111864215Y-57506968D01*
X111864219Y-57506966D01*
X112008966Y-57362219D01*
X112008968Y-57362215D01*
X112008971Y-57362213D01*
X112128640Y-57197500D01*
X112129287Y-57196610D01*
X112222220Y-57014219D01*
X112285477Y-56819534D01*
X112317500Y-56617352D01*
X112317500Y-56412648D01*
X112295879Y-56276141D01*
X112285477Y-56210465D01*
X112243449Y-56081118D01*
X112222220Y-56015781D01*
X112222218Y-56015778D01*
X112222218Y-56015776D01*
X112188503Y-55949607D01*
X112129287Y-55833390D01*
X112105027Y-55799999D01*
X112008971Y-55667786D01*
X111864213Y-55523028D01*
X111698614Y-55402715D01*
X111630089Y-55367800D01*
X111605917Y-55355483D01*
X111555123Y-55307511D01*
X111538328Y-55239690D01*
X111560865Y-55173555D01*
X111605917Y-55134516D01*
X111698610Y-55087287D01*
X111794077Y-55017927D01*
X111864213Y-54966971D01*
X111864215Y-54966968D01*
X111864219Y-54966966D01*
X112008966Y-54822219D01*
X112008968Y-54822215D01*
X112008971Y-54822213D01*
X112070328Y-54737761D01*
X112129287Y-54656610D01*
X112222220Y-54474219D01*
X112285477Y-54279534D01*
X112317500Y-54077352D01*
X112317500Y-53872648D01*
X112301963Y-53774555D01*
X112302664Y-53769132D01*
X112300752Y-53764006D01*
X112307093Y-53734855D01*
X112310917Y-53705265D01*
X112314749Y-53699659D01*
X112315604Y-53695733D01*
X112336752Y-53667482D01*
X112450680Y-53553554D01*
X112512001Y-53520071D01*
X112581693Y-53525055D01*
X112637626Y-53566927D01*
X112660832Y-53621839D01*
X112686059Y-53781118D01*
X112744454Y-53960836D01*
X112815496Y-54100262D01*
X112830240Y-54129199D01*
X112941310Y-54282073D01*
X113074927Y-54415690D01*
X113108385Y-54439999D01*
X113111725Y-54444329D01*
X113116703Y-54446603D01*
X113132831Y-54471699D01*
X113151051Y-54495326D01*
X113152304Y-54502000D01*
X113154477Y-54505381D01*
X113159500Y-54540316D01*
X113159500Y-54689207D01*
X113139815Y-54756246D01*
X113108386Y-54789525D01*
X112977925Y-54884311D01*
X112844312Y-55017924D01*
X112844312Y-55017925D01*
X112844310Y-55017927D01*
X112798260Y-55081309D01*
X112733240Y-55170800D01*
X112647454Y-55339163D01*
X112589059Y-55518881D01*
X112559500Y-55705513D01*
X112559500Y-55894486D01*
X112589059Y-56081118D01*
X112647454Y-56260836D01*
X112712065Y-56387641D01*
X112733240Y-56429199D01*
X112844310Y-56582073D01*
X112977927Y-56715690D01*
X113130801Y-56826760D01*
X113139488Y-56831186D01*
X113299163Y-56912545D01*
X113299165Y-56912545D01*
X113299168Y-56912547D01*
X113395497Y-56943846D01*
X113478881Y-56970940D01*
X113665514Y-57000500D01*
X113665519Y-57000500D01*
X113854486Y-57000500D01*
X114041118Y-56970940D01*
X114042623Y-56970451D01*
X114220832Y-56912547D01*
X114389199Y-56826760D01*
X114415182Y-56807882D01*
X115645669Y-56807882D01*
X115645670Y-56807883D01*
X115671059Y-56826329D01*
X115839362Y-56912085D01*
X116018997Y-56970451D01*
X116205553Y-57000000D01*
X116394447Y-57000000D01*
X116581002Y-56970451D01*
X116760637Y-56912085D01*
X116928937Y-56826331D01*
X116954328Y-56807883D01*
X116954328Y-56807882D01*
X116300001Y-56153554D01*
X116300000Y-56153554D01*
X115645669Y-56807882D01*
X114415182Y-56807882D01*
X114542073Y-56715690D01*
X114675690Y-56582073D01*
X114786760Y-56429199D01*
X114872547Y-56260832D01*
X114912332Y-56138385D01*
X114951768Y-56080713D01*
X115016127Y-56053514D01*
X115084973Y-56065429D01*
X115136449Y-56112673D01*
X115148193Y-56138388D01*
X115187914Y-56260637D01*
X115273666Y-56428933D01*
X115292116Y-56454328D01*
X115946446Y-55800000D01*
X115946446Y-55799999D01*
X115900369Y-55753922D01*
X115950000Y-55753922D01*
X115950000Y-55846078D01*
X115973852Y-55935095D01*
X116019930Y-56014905D01*
X116085095Y-56080070D01*
X116164905Y-56126148D01*
X116253922Y-56150000D01*
X116346078Y-56150000D01*
X116435095Y-56126148D01*
X116514905Y-56080070D01*
X116580070Y-56014905D01*
X116626148Y-55935095D01*
X116650000Y-55846078D01*
X116650000Y-55799999D01*
X116653554Y-55799999D01*
X116653554Y-55800000D01*
X117307882Y-56454328D01*
X117307883Y-56454328D01*
X117326331Y-56428937D01*
X117412085Y-56260637D01*
X117470451Y-56081002D01*
X117500000Y-55894447D01*
X117500000Y-55705552D01*
X117470451Y-55518997D01*
X117412085Y-55339362D01*
X117326329Y-55171059D01*
X117307883Y-55145670D01*
X117307882Y-55145669D01*
X116653554Y-55799999D01*
X116650000Y-55799999D01*
X116650000Y-55753922D01*
X116626148Y-55664905D01*
X116580070Y-55585095D01*
X116514905Y-55519930D01*
X116435095Y-55473852D01*
X116346078Y-55450000D01*
X116253922Y-55450000D01*
X116164905Y-55473852D01*
X116085095Y-55519930D01*
X116019930Y-55585095D01*
X115973852Y-55664905D01*
X115950000Y-55753922D01*
X115900369Y-55753922D01*
X115292116Y-55145669D01*
X115292116Y-55145670D01*
X115273669Y-55171060D01*
X115187915Y-55339361D01*
X115148193Y-55461612D01*
X115108755Y-55519287D01*
X115044396Y-55546485D01*
X114975550Y-55534570D01*
X114924074Y-55487326D01*
X114912332Y-55461614D01*
X114872547Y-55339168D01*
X114786760Y-55170801D01*
X114675690Y-55017927D01*
X114542073Y-54884310D01*
X114461899Y-54826060D01*
X114411614Y-54789525D01*
X114408273Y-54785192D01*
X114403297Y-54782920D01*
X114387167Y-54757821D01*
X114368948Y-54734194D01*
X114367695Y-54727521D01*
X114365523Y-54724142D01*
X114360500Y-54689207D01*
X114360500Y-54666793D01*
X114380185Y-54599754D01*
X114428204Y-54556309D01*
X114486199Y-54526760D01*
X114639073Y-54415690D01*
X114772690Y-54282073D01*
X114883760Y-54129199D01*
X114915370Y-54067159D01*
X114963344Y-54016364D01*
X115031164Y-53999568D01*
X115087852Y-54016066D01*
X115163216Y-54059577D01*
X115315060Y-54100263D01*
X115374719Y-54136627D01*
X115383282Y-54147150D01*
X115481310Y-54282073D01*
X115614927Y-54415690D01*
X115763972Y-54523978D01*
X115806637Y-54579308D01*
X115812616Y-54648922D01*
X115780010Y-54710717D01*
X115747383Y-54734780D01*
X115671060Y-54773669D01*
X115645670Y-54792116D01*
X115645669Y-54792116D01*
X116300000Y-55446446D01*
X116300001Y-55446446D01*
X116954328Y-54792116D01*
X116932981Y-54776607D01*
X116890315Y-54721277D01*
X116884336Y-54651664D01*
X116916941Y-54589868D01*
X116949570Y-54565803D01*
X117026199Y-54526760D01*
X117179073Y-54415690D01*
X117312690Y-54282073D01*
X117423760Y-54129199D01*
X117509547Y-53960832D01*
X117567940Y-53781118D01*
X117570650Y-53764006D01*
X117597500Y-53594486D01*
X117597500Y-53405513D01*
X117567940Y-53218881D01*
X117509545Y-53039163D01*
X117453543Y-52929253D01*
X117423760Y-52870801D01*
X117312690Y-52717927D01*
X117179073Y-52584310D01*
X117062089Y-52499316D01*
X117019426Y-52443988D01*
X117013447Y-52374375D01*
X117046053Y-52312580D01*
X117062085Y-52298687D01*
X117179073Y-52213690D01*
X117312690Y-52080073D01*
X117423760Y-51927199D01*
X117509547Y-51758832D01*
X117567940Y-51579118D01*
X117589101Y-51445513D01*
X117597500Y-51392486D01*
X117597500Y-51203513D01*
X117567940Y-51016881D01*
X117540846Y-50933497D01*
X117509547Y-50837168D01*
X117509545Y-50837165D01*
X117509545Y-50837163D01*
X117423759Y-50668800D01*
X117394987Y-50629199D01*
X117312690Y-50515927D01*
X117179073Y-50382310D01*
X117026199Y-50271240D01*
X116996026Y-50255866D01*
X116857836Y-50185454D01*
X116678118Y-50127059D01*
X116491486Y-50097500D01*
X116491481Y-50097500D01*
X116302519Y-50097500D01*
X116302514Y-50097500D01*
X116115881Y-50127059D01*
X115936163Y-50185454D01*
X115767785Y-50271247D01*
X115767291Y-50271551D01*
X115767077Y-50271608D01*
X115763460Y-50273452D01*
X115763072Y-50272691D01*
X115699842Y-50289784D01*
X115633243Y-50268657D01*
X115614836Y-50253493D01*
X110022304Y-44660787D01*
X109988820Y-44599463D01*
X109993806Y-44529772D01*
X110035678Y-44473839D01*
X110053699Y-44462619D01*
X110054816Y-44462051D01*
X110188194Y-44365147D01*
X110226786Y-44337109D01*
X110226788Y-44337106D01*
X110226792Y-44337104D01*
X110377104Y-44186792D01*
X110377106Y-44186788D01*
X110377109Y-44186786D01*
X110502048Y-44014820D01*
X110502047Y-44014820D01*
X110502051Y-44014816D01*
X110506514Y-44006054D01*
X110554488Y-43955259D01*
X110622308Y-43938463D01*
X110688444Y-43960999D01*
X110727486Y-44006056D01*
X110731951Y-44014820D01*
X110856890Y-44186786D01*
X111007213Y-44337109D01*
X111179179Y-44462048D01*
X111179181Y-44462049D01*
X111179184Y-44462051D01*
X111368588Y-44558557D01*
X111570757Y-44624246D01*
X111780713Y-44657500D01*
X111780714Y-44657500D01*
X111993286Y-44657500D01*
X111993287Y-44657500D01*
X112203243Y-44624246D01*
X112405412Y-44558557D01*
X112594816Y-44462051D01*
X112678377Y-44401341D01*
X112766786Y-44337109D01*
X112766788Y-44337106D01*
X112766792Y-44337104D01*
X112917104Y-44186792D01*
X112917106Y-44186788D01*
X112917109Y-44186786D01*
X113010739Y-44057913D01*
X113042051Y-44014816D01*
X113046793Y-44005508D01*
X113094763Y-43954711D01*
X113162583Y-43937911D01*
X113228719Y-43960445D01*
X113267763Y-44005500D01*
X113272377Y-44014555D01*
X113397272Y-44186459D01*
X113397276Y-44186464D01*
X113547535Y-44336723D01*
X113547540Y-44336727D01*
X113719442Y-44461620D01*
X113908782Y-44558095D01*
X114110871Y-44623757D01*
X114177000Y-44634231D01*
X114177000Y-43740012D01*
X114234007Y-43772925D01*
X114361174Y-43807000D01*
X114492826Y-43807000D01*
X114619993Y-43772925D01*
X114677000Y-43740012D01*
X114677000Y-44634230D01*
X114743126Y-44623757D01*
X114743129Y-44623757D01*
X114945217Y-44558095D01*
X115134557Y-44461620D01*
X115306459Y-44336727D01*
X115306464Y-44336723D01*
X115456723Y-44186464D01*
X115456727Y-44186459D01*
X115581620Y-44014557D01*
X115678095Y-43825217D01*
X115743757Y-43623129D01*
X115743757Y-43623126D01*
X115754231Y-43557000D01*
X114860012Y-43557000D01*
X114892925Y-43499993D01*
X114927000Y-43372826D01*
X114927000Y-43241174D01*
X114892925Y-43114007D01*
X114860012Y-43057000D01*
X115754231Y-43057000D01*
X115743757Y-42990873D01*
X115743757Y-42990870D01*
X115678095Y-42788782D01*
X115581620Y-42599442D01*
X115456727Y-42427540D01*
X115456723Y-42427535D01*
X115306464Y-42277276D01*
X115306459Y-42277272D01*
X115134558Y-42152379D01*
X115124954Y-42147486D01*
X115074157Y-42099512D01*
X115057361Y-42031692D01*
X115079897Y-41965556D01*
X115124954Y-41926514D01*
X115134558Y-41921620D01*
X115306459Y-41796727D01*
X115306464Y-41796723D01*
X115456723Y-41646464D01*
X115456727Y-41646459D01*
X115581620Y-41474557D01*
X115678095Y-41285217D01*
X115743757Y-41083129D01*
X115743757Y-41083126D01*
X115754231Y-41017000D01*
X114860012Y-41017000D01*
X114892925Y-40959993D01*
X114927000Y-40832826D01*
X114927000Y-40701174D01*
X114892925Y-40574007D01*
X114860012Y-40517000D01*
X115754231Y-40517000D01*
X115743757Y-40450873D01*
X115743757Y-40450870D01*
X115678095Y-40248782D01*
X115581620Y-40059442D01*
X115456727Y-39887540D01*
X115456723Y-39887535D01*
X115306464Y-39737276D01*
X115306459Y-39737272D01*
X115134557Y-39612379D01*
X114945215Y-39515903D01*
X114743124Y-39450241D01*
X114677000Y-39439768D01*
X114677000Y-40333988D01*
X114619993Y-40301075D01*
X114492826Y-40267000D01*
X114361174Y-40267000D01*
X114234007Y-40301075D01*
X114177000Y-40333988D01*
X114177000Y-39439768D01*
X114176999Y-39439768D01*
X114110875Y-39450241D01*
X113908784Y-39515903D01*
X113719442Y-39612379D01*
X113547540Y-39737272D01*
X113547535Y-39737276D01*
X113397276Y-39887535D01*
X113397272Y-39887540D01*
X113272378Y-40059443D01*
X113267762Y-40068502D01*
X113219784Y-40119295D01*
X113151963Y-40136087D01*
X113085829Y-40113546D01*
X113046794Y-40068493D01*
X113042051Y-40059184D01*
X113042049Y-40059181D01*
X113042048Y-40059179D01*
X112917109Y-39887213D01*
X112766786Y-39736890D01*
X112594820Y-39611951D01*
X112405414Y-39515444D01*
X112405413Y-39515443D01*
X112405412Y-39515443D01*
X112203243Y-39449754D01*
X112203241Y-39449753D01*
X112203240Y-39449753D01*
X112041957Y-39424208D01*
X111993287Y-39416500D01*
X111780713Y-39416500D01*
X111732042Y-39424208D01*
X111570760Y-39449753D01*
X111368585Y-39515444D01*
X111179179Y-39611951D01*
X111007213Y-39736890D01*
X110856890Y-39887213D01*
X110731949Y-40059182D01*
X110727484Y-40067946D01*
X110679509Y-40118742D01*
X110611688Y-40135536D01*
X110545553Y-40112998D01*
X110506516Y-40067946D01*
X110502050Y-40059182D01*
X110377109Y-39887213D01*
X110226786Y-39736890D01*
X110054820Y-39611951D01*
X109865414Y-39515444D01*
X109865413Y-39515443D01*
X109865412Y-39515443D01*
X109663243Y-39449754D01*
X109663241Y-39449753D01*
X109663240Y-39449753D01*
X109501957Y-39424208D01*
X109453287Y-39416500D01*
X109240713Y-39416500D01*
X109192042Y-39424208D01*
X109030760Y-39449753D01*
X108828585Y-39515444D01*
X108639179Y-39611951D01*
X108467213Y-39736890D01*
X108316890Y-39887213D01*
X108191949Y-40059182D01*
X108187484Y-40067946D01*
X108139509Y-40118742D01*
X108071688Y-40135536D01*
X108005553Y-40112998D01*
X107966516Y-40067946D01*
X107962050Y-40059182D01*
X107837109Y-39887213D01*
X107686786Y-39736890D01*
X107514820Y-39611951D01*
X107325414Y-39515444D01*
X107325413Y-39515443D01*
X107325412Y-39515443D01*
X107123243Y-39449754D01*
X107123241Y-39449753D01*
X107123240Y-39449753D01*
X106961957Y-39424208D01*
X106913287Y-39416500D01*
X106700713Y-39416500D01*
X106652042Y-39424208D01*
X106490760Y-39449753D01*
X106288585Y-39515444D01*
X106099179Y-39611951D01*
X105927213Y-39736890D01*
X105776890Y-39887213D01*
X105651949Y-40059182D01*
X105647484Y-40067946D01*
X105599509Y-40118742D01*
X105531688Y-40135536D01*
X105465553Y-40112998D01*
X105426516Y-40067946D01*
X105422050Y-40059182D01*
X105297109Y-39887213D01*
X105146786Y-39736890D01*
X104974820Y-39611951D01*
X104785414Y-39515444D01*
X104785413Y-39515443D01*
X104785412Y-39515443D01*
X104583243Y-39449754D01*
X104583241Y-39449753D01*
X104583240Y-39449753D01*
X104421957Y-39424208D01*
X104373287Y-39416500D01*
X104160713Y-39416500D01*
X104112042Y-39424208D01*
X103950760Y-39449753D01*
X103748585Y-39515444D01*
X103559179Y-39611951D01*
X103387215Y-39736889D01*
X103273673Y-39850431D01*
X103212350Y-39883915D01*
X103142658Y-39878931D01*
X103086725Y-39837059D01*
X103069810Y-39806082D01*
X103020797Y-39674671D01*
X103020793Y-39674664D01*
X102934547Y-39559455D01*
X102934544Y-39559452D01*
X102819335Y-39473206D01*
X102819328Y-39473202D01*
X102684482Y-39422908D01*
X102684483Y-39422908D01*
X102624883Y-39416501D01*
X102624881Y-39416500D01*
X102624873Y-39416500D01*
X102624864Y-39416500D01*
X100829129Y-39416500D01*
X100829123Y-39416501D01*
X100769516Y-39422908D01*
X100634671Y-39473202D01*
X100634664Y-39473206D01*
X100519455Y-39559452D01*
X100519452Y-39559455D01*
X100433206Y-39674664D01*
X100433202Y-39674671D01*
X100382908Y-39809517D01*
X100376501Y-39869116D01*
X100376500Y-39869135D01*
X100376500Y-41664870D01*
X100376501Y-41664876D01*
X100382908Y-41724483D01*
X100433202Y-41859328D01*
X100433206Y-41859335D01*
X100519452Y-41974544D01*
X100519455Y-41974547D01*
X100634664Y-42060793D01*
X100634671Y-42060797D01*
X100766082Y-42109810D01*
X100822016Y-42151681D01*
X100846433Y-42217145D01*
X100831582Y-42285418D01*
X100810431Y-42313673D01*
X100696889Y-42427215D01*
X100571951Y-42599179D01*
X100475444Y-42788585D01*
X100409753Y-42990760D01*
X100408291Y-42999993D01*
X100376500Y-43200713D01*
X100376500Y-43413287D01*
X100409754Y-43623243D01*
X100465597Y-43795110D01*
X100475444Y-43825414D01*
X100571951Y-44014820D01*
X100696890Y-44186786D01*
X100847213Y-44337109D01*
X101019184Y-44462051D01*
X101019184Y-44462052D01*
X101058793Y-44482233D01*
X101109590Y-44530206D01*
X101126500Y-44592718D01*
X101126500Y-45471202D01*
X101106815Y-45538241D01*
X101090181Y-45558883D01*
X97723790Y-48925273D01*
X97662467Y-48958758D01*
X97592775Y-48953774D01*
X97579814Y-48948077D01*
X97460836Y-48887454D01*
X97281118Y-48829059D01*
X97094486Y-48799500D01*
X97094481Y-48799500D01*
X96905519Y-48799500D01*
X96905514Y-48799500D01*
X96718881Y-48829059D01*
X96539163Y-48887454D01*
X96370800Y-48973240D01*
X96283579Y-49036610D01*
X96217927Y-49084310D01*
X96217925Y-49084312D01*
X96217924Y-49084312D01*
X96084312Y-49217924D01*
X96084312Y-49217925D01*
X96084310Y-49217927D01*
X96051412Y-49263207D01*
X95973240Y-49370800D01*
X95887454Y-49539163D01*
X95829059Y-49718881D01*
X95799500Y-49905513D01*
X93292250Y-49905513D01*
X93415690Y-49782073D01*
X93526760Y-49629199D01*
X93612547Y-49460832D01*
X93670940Y-49281118D01*
X93675079Y-49254988D01*
X93700500Y-49094486D01*
X93700500Y-48905513D01*
X93675274Y-48746246D01*
X93684228Y-48676953D01*
X93710063Y-48639170D01*
X94288506Y-48060728D01*
X94288511Y-48060724D01*
X94298714Y-48050520D01*
X94298716Y-48050520D01*
X94410520Y-47938716D01*
X94489577Y-47801784D01*
X94530500Y-47649057D01*
X94530500Y-46683325D01*
X94550185Y-46616286D01*
X94602989Y-46570531D01*
X94672147Y-46560587D01*
X94695446Y-46566281D01*
X94751343Y-46585841D01*
X94751347Y-46585841D01*
X94751351Y-46585842D01*
X94792750Y-46590506D01*
X94881442Y-46600499D01*
X94881445Y-46600500D01*
X94881448Y-46600500D01*
X95518555Y-46600500D01*
X95518556Y-46600499D01*
X95648657Y-46585841D01*
X95813606Y-46528122D01*
X95961576Y-46435147D01*
X96085147Y-46311576D01*
X96178122Y-46163606D01*
X96235841Y-45998657D01*
X96250500Y-45868552D01*
X96250500Y-44531448D01*
X96235841Y-44401343D01*
X96178122Y-44236394D01*
X96085147Y-44088424D01*
X95961576Y-43964853D01*
X95858528Y-43900104D01*
X95812237Y-43847769D01*
X95800500Y-43795110D01*
X95800500Y-41961798D01*
X95819011Y-41896620D01*
X95826602Y-41884333D01*
X95840520Y-41870416D01*
X95915378Y-41740757D01*
X95919577Y-41733485D01*
X95960163Y-41582011D01*
X95996528Y-41522352D01*
X96007053Y-41513788D01*
X96142073Y-41415690D01*
X96275690Y-41282073D01*
X96386760Y-41129199D01*
X96472547Y-40960832D01*
X96512069Y-40839195D01*
X96551507Y-40781521D01*
X96615866Y-40754323D01*
X96684712Y-40766238D01*
X96736188Y-40813482D01*
X96747931Y-40839196D01*
X96787454Y-40960836D01*
X96849766Y-41083129D01*
X96873240Y-41129199D01*
X96984310Y-41282073D01*
X97117927Y-41415690D01*
X97270801Y-41526760D01*
X97350347Y-41567290D01*
X97439163Y-41612545D01*
X97439165Y-41612545D01*
X97439168Y-41612547D01*
X97535497Y-41643846D01*
X97618881Y-41670940D01*
X97805514Y-41700500D01*
X97805519Y-41700500D01*
X97994486Y-41700500D01*
X98181118Y-41670940D01*
X98207349Y-41662417D01*
X98360832Y-41612547D01*
X98529199Y-41526760D01*
X98682073Y-41415690D01*
X98815690Y-41282073D01*
X98926760Y-41129199D01*
X99012547Y-40960832D01*
X99070940Y-40781118D01*
X99083602Y-40701174D01*
X99100500Y-40594486D01*
X99100500Y-40405513D01*
X99070940Y-40218881D01*
X99022075Y-40068492D01*
X99012547Y-40039168D01*
X99012545Y-40039165D01*
X99012545Y-40039163D01*
X98935122Y-39887213D01*
X98926760Y-39870801D01*
X98815690Y-39717927D01*
X98682073Y-39584310D01*
X98529199Y-39473240D01*
X98484061Y-39450241D01*
X98360836Y-39387454D01*
X98181118Y-39329059D01*
X97994486Y-39299500D01*
X97994481Y-39299500D01*
X97805519Y-39299500D01*
X97805514Y-39299500D01*
X97618881Y-39329059D01*
X97439163Y-39387454D01*
X97270800Y-39473240D01*
X97183579Y-39536610D01*
X97117927Y-39584310D01*
X97117925Y-39584312D01*
X97117924Y-39584312D01*
X96984312Y-39717924D01*
X96984312Y-39717925D01*
X96984310Y-39717927D01*
X96970255Y-39737272D01*
X96873240Y-39870800D01*
X96787454Y-40039163D01*
X96747931Y-40160803D01*
X96708493Y-40218478D01*
X96644134Y-40245676D01*
X96575288Y-40233761D01*
X96523812Y-40186516D01*
X96512069Y-40160803D01*
X96482075Y-40068492D01*
X96472547Y-40039168D01*
X96472545Y-40039165D01*
X96472545Y-40039163D01*
X96395122Y-39887213D01*
X96386760Y-39870801D01*
X96275690Y-39717927D01*
X96142073Y-39584310D01*
X95989199Y-39473240D01*
X95944061Y-39450241D01*
X95820836Y-39387454D01*
X95641118Y-39329059D01*
X95454486Y-39299500D01*
X95454481Y-39299500D01*
X95265519Y-39299500D01*
X95265514Y-39299500D01*
X95078881Y-39329059D01*
X94899163Y-39387454D01*
X94730800Y-39473240D01*
X94643579Y-39536610D01*
X94577927Y-39584310D01*
X94577925Y-39584312D01*
X94577924Y-39584312D01*
X94444312Y-39717924D01*
X94444312Y-39717925D01*
X94444310Y-39717927D01*
X94430255Y-39737272D01*
X94333240Y-39870800D01*
X94247454Y-40039163D01*
X94189059Y-40218881D01*
X94159500Y-40405513D01*
X94159500Y-40594486D01*
X94189059Y-40781118D01*
X94247454Y-40960836D01*
X94309766Y-41083129D01*
X94333240Y-41129199D01*
X94444310Y-41282073D01*
X94444312Y-41282075D01*
X94579598Y-41417361D01*
X94613083Y-41478684D01*
X94615092Y-41519320D01*
X94614044Y-41528360D01*
X94599499Y-41582643D01*
X94599499Y-41653835D01*
X94598674Y-41660952D01*
X94587719Y-41686788D01*
X94579814Y-41713713D01*
X94574266Y-41718519D01*
X94571401Y-41725279D01*
X94548213Y-41741094D01*
X94527010Y-41759468D01*
X94519745Y-41760512D01*
X94513680Y-41764650D01*
X94485626Y-41765418D01*
X94457852Y-41769412D01*
X94445958Y-41766504D01*
X94443836Y-41766563D01*
X94442234Y-41765594D01*
X94434544Y-41763715D01*
X94378658Y-41744159D01*
X94378648Y-41744157D01*
X94248558Y-41729500D01*
X94248552Y-41729500D01*
X93611448Y-41729500D01*
X93611441Y-41729500D01*
X93481351Y-41744157D01*
X93481341Y-41744159D01*
X93316395Y-41801877D01*
X93168423Y-41894853D01*
X93044853Y-42018423D01*
X92951877Y-42166395D01*
X92894159Y-42331341D01*
X92894157Y-42331351D01*
X92879500Y-42461441D01*
X92879500Y-43798558D01*
X92894157Y-43928648D01*
X92894158Y-43928655D01*
X92894159Y-43928657D01*
X92903041Y-43954041D01*
X92910000Y-43994994D01*
X92910000Y-44519670D01*
X92890255Y-44499925D01*
X92804745Y-44450556D01*
X92709370Y-44425000D01*
X92610630Y-44425000D01*
X92515255Y-44450556D01*
X92429745Y-44499925D01*
X92410000Y-44519670D01*
X92410000Y-43800000D01*
X92062155Y-43800000D01*
X92002627Y-43806401D01*
X92002620Y-43806403D01*
X91867913Y-43856645D01*
X91867906Y-43856649D01*
X91752812Y-43942809D01*
X91752809Y-43942812D01*
X91666649Y-44057906D01*
X91666645Y-44057913D01*
X91616403Y-44192620D01*
X91616401Y-44192627D01*
X91610000Y-44252155D01*
X91610000Y-44950000D01*
X92313590Y-44950000D01*
X92359925Y-45030255D01*
X92429745Y-45100075D01*
X92515255Y-45149444D01*
X92610630Y-45175000D01*
X92709370Y-45175000D01*
X92804745Y-45149444D01*
X92890255Y-45100075D01*
X92910000Y-45080330D01*
X92910000Y-46600000D01*
X93205500Y-46600000D01*
X93272539Y-46619685D01*
X93318294Y-46672489D01*
X93329500Y-46724000D01*
X93329500Y-47269902D01*
X93309815Y-47336941D01*
X93293181Y-47357583D01*
X92860830Y-47789933D01*
X92799507Y-47823418D01*
X92753751Y-47824725D01*
X92594486Y-47799500D01*
X92594481Y-47799500D01*
X92405519Y-47799500D01*
X92405514Y-47799500D01*
X92218881Y-47829059D01*
X92039163Y-47887454D01*
X91870800Y-47973240D01*
X91820205Y-48010000D01*
X91717927Y-48084310D01*
X91717925Y-48084312D01*
X91717924Y-48084312D01*
X91584312Y-48217924D01*
X91584312Y-48217925D01*
X91584310Y-48217927D01*
X91536610Y-48283579D01*
X91473240Y-48370800D01*
X91387454Y-48539163D01*
X91329059Y-48718881D01*
X91299500Y-48905513D01*
X91299500Y-49094486D01*
X91329059Y-49281118D01*
X91387454Y-49460836D01*
X91469929Y-49622700D01*
X91473240Y-49629199D01*
X91584310Y-49782073D01*
X91717927Y-49915690D01*
X91870801Y-50026760D01*
X91935742Y-50059849D01*
X92039163Y-50112545D01*
X92039165Y-50112545D01*
X92039168Y-50112547D01*
X92106732Y-50134500D01*
X92160803Y-50152069D01*
X92218478Y-50191507D01*
X92245676Y-50255866D01*
X92233761Y-50324712D01*
X92186516Y-50376188D01*
X92160803Y-50387931D01*
X92039163Y-50427454D01*
X91870800Y-50513240D01*
X91783579Y-50576610D01*
X91717927Y-50624310D01*
X91717925Y-50624312D01*
X91717924Y-50624312D01*
X91584312Y-50757924D01*
X91584312Y-50757925D01*
X91584310Y-50757927D01*
X91564921Y-50784614D01*
X91473240Y-50910800D01*
X91387454Y-51079163D01*
X91329059Y-51258881D01*
X91299500Y-51445513D01*
X91299500Y-51634486D01*
X91329059Y-51821118D01*
X91387454Y-52000836D01*
X91473240Y-52169199D01*
X91584310Y-52322073D01*
X91584312Y-52322075D01*
X91639669Y-52377432D01*
X91673154Y-52438755D01*
X91668170Y-52508447D01*
X91639669Y-52552794D01*
X90869282Y-53323181D01*
X90807959Y-53356666D01*
X90781601Y-53359500D01*
X89852129Y-53359500D01*
X89852123Y-53359501D01*
X89792516Y-53365908D01*
X89657671Y-53416202D01*
X89657664Y-53416206D01*
X89542455Y-53502452D01*
X89542452Y-53502455D01*
X89456206Y-53617664D01*
X89456202Y-53617671D01*
X89405908Y-53752517D01*
X89399501Y-53812116D01*
X89399500Y-53812135D01*
X88000000Y-53812135D01*
X88000000Y-46147844D01*
X91610000Y-46147844D01*
X91616401Y-46207372D01*
X91616403Y-46207379D01*
X91666645Y-46342086D01*
X91666649Y-46342093D01*
X91752809Y-46457187D01*
X91752812Y-46457190D01*
X91867906Y-46543350D01*
X91867913Y-46543354D01*
X92002620Y-46593596D01*
X92002627Y-46593598D01*
X92062155Y-46599999D01*
X92062172Y-46600000D01*
X92410000Y-46600000D01*
X92410000Y-45450000D01*
X91610000Y-45450000D01*
X91610000Y-46147844D01*
X88000000Y-46147844D01*
X88000000Y-38199670D01*
X88019685Y-38132631D01*
X88072489Y-38086876D01*
X88141647Y-38076932D01*
X88205203Y-38105957D01*
X88231383Y-38137665D01*
X88249751Y-38169479D01*
X88249753Y-38169481D01*
X88249755Y-38169485D01*
X88417370Y-38387926D01*
X88417376Y-38387933D01*
X88612066Y-38582623D01*
X88612072Y-38582628D01*
X88830521Y-38750249D01*
X88983778Y-38838732D01*
X89068971Y-38887919D01*
X89068976Y-38887921D01*
X89068979Y-38887923D01*
X89323368Y-38993295D01*
X89589334Y-39064560D01*
X89862326Y-39100500D01*
X89862333Y-39100500D01*
X90137667Y-39100500D01*
X90137674Y-39100500D01*
X90410666Y-39064560D01*
X90676632Y-38993295D01*
X90931021Y-38887923D01*
X91169479Y-38750249D01*
X91387928Y-38582628D01*
X91582628Y-38387928D01*
X91750249Y-38169479D01*
X91887923Y-37931021D01*
X91993295Y-37676632D01*
X92064560Y-37410666D01*
X92100500Y-37137674D01*
X92100500Y-36862326D01*
X92064560Y-36589334D01*
X91993295Y-36323368D01*
X91887923Y-36068979D01*
X91887921Y-36068976D01*
X91887919Y-36068971D01*
X91838732Y-35983778D01*
X91750249Y-35830521D01*
X91582628Y-35612072D01*
X91582623Y-35612066D01*
X91387933Y-35417376D01*
X91387926Y-35417370D01*
X91169486Y-35249756D01*
X91169484Y-35249754D01*
X91169479Y-35249751D01*
X91137667Y-35231384D01*
X91089455Y-35180819D01*
X91076233Y-35112212D01*
X91102201Y-35047348D01*
X91159115Y-35006820D01*
X91199671Y-35000000D01*
X118876000Y-35000000D01*
X118943039Y-35019685D01*
G37*
%TD.AperFunction*%
%TD*%
M02*
