%TF.GenerationSoftware,KiCad,Pcbnew,9.0.3*%
%TF.CreationDate,2025-07-27T11:41:57+09:00*%
%TF.ProjectId,LFOSeparate,4c464f53-6570-4617-9261-74652e6b6963,rev?*%
%TF.SameCoordinates,Original*%
%TF.FileFunction,Soldermask,Top*%
%TF.FilePolarity,Negative*%
%FSLAX46Y46*%
G04 Gerber Fmt 4.6, Leading zero omitted, Abs format (unit mm)*
G04 Created by KiCad (PCBNEW 9.0.3) date 2025-07-27 11:41:57*
%MOMM*%
%LPD*%
G01*
G04 APERTURE LIST*
G04 Aperture macros list*
%AMRoundRect*
0 Rectangle with rounded corners*
0 $1 Rounding radius*
0 $2 $3 $4 $5 $6 $7 $8 $9 X,Y pos of 4 corners*
0 Add a 4 corners polygon primitive as box body*
4,1,4,$2,$3,$4,$5,$6,$7,$8,$9,$2,$3,0*
0 Add four circle primitives for the rounded corners*
1,1,$1+$1,$2,$3*
1,1,$1+$1,$4,$5*
1,1,$1+$1,$6,$7*
1,1,$1+$1,$8,$9*
0 Add four rect primitives between the rounded corners*
20,1,$1+$1,$2,$3,$4,$5,0*
20,1,$1+$1,$4,$5,$6,$7,0*
20,1,$1+$1,$6,$7,$8,$9,0*
20,1,$1+$1,$8,$9,$2,$3,0*%
G04 Aperture macros list end*
%ADD10C,1.600000*%
%ADD11R,1.600000X1.600000*%
%ADD12C,1.400000*%
%ADD13O,1.400000X1.400000*%
%ADD14R,1.700000X1.700000*%
%ADD15C,1.700000*%
%ADD16O,1.700000X1.700000*%
%ADD17R,2.400000X1.600000*%
%ADD18O,2.400000X1.600000*%
%ADD19R,1.800000X1.800000*%
%ADD20C,1.800000*%
%ADD21C,4.455000*%
%ADD22R,1.100000X1.800000*%
%ADD23RoundRect,0.275000X-0.275000X-0.625000X0.275000X-0.625000X0.275000X0.625000X-0.275000X0.625000X0*%
G04 APERTURE END LIST*
D10*
%TO.C,C3*%
X123917000Y-66304000D03*
X121417000Y-66304000D03*
%TD*%
D11*
%TO.C,C9*%
X116688000Y-60950000D03*
D10*
X114188000Y-60950000D03*
%TD*%
D12*
%TO.C,R5*%
X97220000Y-55997000D03*
D13*
X99760000Y-55997000D03*
%TD*%
D14*
%TO.C,J3*%
X151015000Y-37975000D03*
D15*
X148475000Y-37975000D03*
X145935000Y-37975000D03*
%TD*%
D14*
%TO.C,J5*%
X100965000Y-72517000D03*
D16*
X103505000Y-72517000D03*
X106045000Y-72517000D03*
X108585000Y-72517000D03*
X111125000Y-72517000D03*
X113665000Y-72517000D03*
%TD*%
D17*
%TO.C,IC3*%
X127874000Y-44968000D03*
D18*
X127874000Y-47508000D03*
X127874000Y-50048000D03*
X127874000Y-52588000D03*
X135494000Y-52588000D03*
X135494000Y-50048000D03*
X135494000Y-47508000D03*
X135494000Y-44968000D03*
%TD*%
D12*
%TO.C,R2*%
X138542000Y-63510000D03*
D13*
X141082000Y-63510000D03*
%TD*%
D19*
%TO.C,D2*%
X90800000Y-54760000D03*
D20*
X90800000Y-57300000D03*
%TD*%
D12*
%TO.C,R12*%
X97900000Y-40500000D03*
D13*
X95360000Y-40500000D03*
%TD*%
D12*
%TO.C,R11*%
X113857000Y-53500000D03*
D13*
X116397000Y-53500000D03*
%TD*%
D11*
%TO.C,C8*%
X96702000Y-60833000D03*
D10*
X99202000Y-60833000D03*
%TD*%
D12*
%TO.C,R1*%
X121524000Y-63510000D03*
D13*
X124064000Y-63510000D03*
%TD*%
D12*
%TO.C,R13*%
X92500000Y-49000000D03*
D13*
X92500000Y-51540000D03*
%TD*%
D12*
%TO.C,R6*%
X99660000Y-53711000D03*
D13*
X97120000Y-53711000D03*
%TD*%
D20*
%TO.C,VR1*%
X171000000Y-70000000D03*
X171000000Y-67500000D03*
X171000000Y-65000000D03*
D21*
X164000000Y-71900000D03*
X164000000Y-63100000D03*
%TD*%
D14*
%TO.C,J1*%
X145923000Y-74676000D03*
D16*
X143383000Y-74676000D03*
X140843000Y-74676000D03*
X138303000Y-74676000D03*
X135763000Y-74676000D03*
%TD*%
D17*
%TO.C,IC2*%
X127366000Y-58430000D03*
D18*
X127366000Y-60970000D03*
X127366000Y-63510000D03*
X127366000Y-66050000D03*
X134986000Y-66050000D03*
X134986000Y-63510000D03*
X134986000Y-60970000D03*
X134986000Y-58430000D03*
%TD*%
D22*
%TO.C,Q1*%
X92660000Y-45200000D03*
D23*
X93930000Y-43130000D03*
X95200000Y-45200000D03*
%TD*%
D12*
%TO.C,R9*%
X114619000Y-65141000D03*
D13*
X117159000Y-65141000D03*
%TD*%
D12*
%TO.C,R7*%
X99540000Y-50000000D03*
D13*
X97000000Y-50000000D03*
%TD*%
D12*
%TO.C,R14*%
X132980000Y-69100000D03*
X135520000Y-69100000D03*
%TD*%
%TO.C,R8*%
X113857000Y-51298000D03*
D13*
X116397000Y-51298000D03*
%TD*%
D17*
%TO.C,IC1*%
X144130000Y-49286000D03*
D18*
X144130000Y-51826000D03*
X144130000Y-54366000D03*
X144130000Y-56906000D03*
X144130000Y-59446000D03*
X144130000Y-61986000D03*
X144130000Y-64526000D03*
X151750000Y-64526000D03*
X151750000Y-61986000D03*
X151750000Y-59446000D03*
X151750000Y-56906000D03*
X151750000Y-54366000D03*
X151750000Y-51826000D03*
X151750000Y-49286000D03*
%TD*%
D10*
%TO.C,C5*%
X124806000Y-52588000D03*
X122306000Y-52588000D03*
%TD*%
D12*
%TO.C,R10*%
X116300000Y-55800000D03*
D13*
X113760000Y-55800000D03*
%TD*%
D12*
%TO.C,R15*%
X127800000Y-71700000D03*
X130340000Y-71700000D03*
%TD*%
D10*
%TO.C,C4*%
X138435000Y-66177000D03*
X140935000Y-66177000D03*
%TD*%
D20*
%TO.C,VR2*%
X171000000Y-54000000D03*
X171000000Y-51500000D03*
X171000000Y-49000000D03*
D21*
X164000000Y-55900000D03*
X164000000Y-47100000D03*
%TD*%
D12*
%TO.C,R4*%
X96458000Y-65151000D03*
D13*
X98998000Y-65151000D03*
%TD*%
D17*
%TO.C,U1*%
X102997000Y-51435000D03*
D18*
X102997000Y-53975000D03*
X102997000Y-56515000D03*
X102997000Y-59055000D03*
X110617000Y-59055000D03*
X110617000Y-56515000D03*
X110617000Y-53975000D03*
X110617000Y-51435000D03*
%TD*%
D10*
%TO.C,C12*%
X130300000Y-69100000D03*
X127800000Y-69100000D03*
%TD*%
D11*
%TO.C,C1*%
X159000000Y-37500000D03*
D10*
X159000000Y-40000000D03*
%TD*%
D14*
%TO.C,J4*%
X101727000Y-40767000D03*
D16*
X101727000Y-43307000D03*
X104267000Y-40767000D03*
X104267000Y-43307000D03*
X106807000Y-40767000D03*
X106807000Y-43307000D03*
X109347000Y-40767000D03*
X109347000Y-43307000D03*
X111887000Y-40767000D03*
X111887000Y-43307000D03*
X114427000Y-40767000D03*
X114427000Y-43307000D03*
%TD*%
D12*
%TO.C,R3*%
X122463000Y-50048000D03*
D13*
X125003000Y-50048000D03*
%TD*%
D14*
%TO.C,J2*%
X165460000Y-38000000D03*
D16*
X168000000Y-38000000D03*
%TD*%
M02*
